<svg xmlns:xlink="http://www.w3.org/1999/xlink" width="672.964" height="489.969" viewBox="0 0 504.723 367.477" xmlns="http://www.w3.org/2000/svg"><defs><style>*{stroke-linejoin:round;stroke-linecap:butt}</style></defs><g id="figure_1"><path d="M0 367.477h504.723V0H0v367.477z" style="fill:none" id="patch_1"/><g id="axes_1"><path d="M40.922 323.95h357.12V57.838H40.923V323.95z" style="fill:none" id="patch_2"/><g id="matplotlib.axis_1"><g id="xtick_1"><g id="line2d_1"><defs><path id="md5f7b42ee3" d="M0 0v3.5" style="stroke:#b0b0b0;stroke-width:.4"/></defs><use xlink:href="#md5f7b42ee3" x="75.067" y="323.95" style="fill:#b0b0b0;stroke:#b0b0b0;stroke-width:.4"/></g><g style="fill:#b0b0b0" transform="matrix(.14 0 0 -.14 57.252 341.588)" id="text_1"><defs><path id="DejaVuSans-32" d="M1228 531h2203V0H469v531q359 372 979 998 621 627 780 809 303 340 423 576 121 236 121 464 0 372-261 606-261 235-680 235-297 0-627-103-329-103-704-313v638q381 153 712 231 332 78 607 78 725 0 1156-363 431-362 431-968 0-288-108-546-107-257-392-607-78-91-497-524-418-433-1181-1211z" transform="scale(.01563)"/><path id="DejaVuSans-30" d="M2034 4250q-487 0-733-480-245-479-245-1442 0-959 245-1439 246-480 733-480 491 0 736 480 246 480 246 1439 0 963-246 1442-245 480-736 480zm0 500q785 0 1199-621 414-620 414-1801 0-1178-414-1799Q2819-91 2034-91q-784 0-1198 620-414 621-414 1799 0 1181 414 1801 414 621 1198 621z" transform="scale(.01563)"/><path id="DejaVuSans-31" d="M794 531h1031v3560L703 3866v575l1116 225h631V531h1031V0H794v531z" transform="scale(.01563)"/></defs><use xlink:href="#DejaVuSans-32"/><use xlink:href="#DejaVuSans-30" x="63.623"/><use xlink:href="#DejaVuSans-31" x="127.246"/><use xlink:href="#DejaVuSans-30" x="190.869"/></g></g><g id="xtick_2"><use xlink:href="#md5f7b42ee3" x="128.67" y="323.95" style="fill:#b0b0b0;stroke:#b0b0b0;stroke-width:.4" id="line2d_2"/><g style="fill:#b0b0b0" transform="matrix(.14 0 0 -.14 110.855 341.588)" id="text_2"><use xlink:href="#DejaVuSans-32"/><use xlink:href="#DejaVuSans-30" x="63.623"/><use xlink:href="#DejaVuSans-31" x="127.246"/><use xlink:href="#DejaVuSans-32" x="190.869"/></g></g><g id="xtick_3"><use xlink:href="#md5f7b42ee3" x="182.346" y="323.95" style="fill:#b0b0b0;stroke:#b0b0b0;stroke-width:.4" id="line2d_3"/><g style="fill:#b0b0b0" transform="matrix(.14 0 0 -.14 164.531 341.588)" id="text_3"><defs><path id="DejaVuSans-34" d="M2419 4116 825 1625h1594v2491zm-166 550h794V1625h666v-525h-666V0h-628v1100H313v609l1940 2957z" transform="scale(.01563)"/></defs><use xlink:href="#DejaVuSans-32"/><use xlink:href="#DejaVuSans-30" x="63.623"/><use xlink:href="#DejaVuSans-31" x="127.246"/><use xlink:href="#DejaVuSans-34" x="190.869"/></g></g><g id="xtick_4"><use xlink:href="#md5f7b42ee3" x="235.949" y="323.95" style="fill:#b0b0b0;stroke:#b0b0b0;stroke-width:.4" id="line2d_4"/><g style="fill:#b0b0b0" transform="matrix(.14 0 0 -.14 218.134 341.588)" id="text_4"><defs><path id="DejaVuSans-36" d="M2113 2584q-425 0-674-291-248-290-248-796 0-503 248-796 249-292 674-292t673 292q248 293 248 796 0 506-248 796-248 291-673 291zm1253 1979v-575q-238 112-480 171-242 60-480 60-625 0-955-422-329-422-376-1275 184 272 462 417 279 145 613 145 703 0 1111-427 408-426 408-1160 0-719-425-1154Q2819-91 2113-91q-810 0-1238 620-428 621-428 1799 0 1106 525 1764t1409 658q238 0 480-47t505-140z" transform="scale(.01563)"/></defs><use xlink:href="#DejaVuSans-32"/><use xlink:href="#DejaVuSans-30" x="63.623"/><use xlink:href="#DejaVuSans-31" x="127.246"/><use xlink:href="#DejaVuSans-36" x="190.869"/></g></g><g id="xtick_5"><use xlink:href="#md5f7b42ee3" x="289.625" y="323.95" style="fill:#b0b0b0;stroke:#b0b0b0;stroke-width:.4" id="line2d_5"/><g style="fill:#b0b0b0" transform="matrix(.14 0 0 -.14 271.81 341.588)" id="text_5"><defs><path id="DejaVuSans-38" d="M2034 2216q-450 0-708-241-257-241-257-662 0-422 257-663 258-241 708-241t709 242q260 243 260 662 0 421-258 662-257 241-711 241zm-631 268q-406 100-633 378-226 279-226 679 0 559 398 884 399 325 1092 325 697 0 1094-325t397-884q0-400-227-679-226-278-629-378 456-106 710-416 255-309 255-755 0-679-414-1042Q2806-91 2034-91q-771 0-1186 362-414 363-414 1042 0 446 256 755 257 310 713 416zm-231 997q0-362 226-565 227-203 636-203 407 0 636 203 230 203 230 565 0 363-230 566-229 203-636 203-409 0-636-203-226-203-226-566z" transform="scale(.01563)"/></defs><use xlink:href="#DejaVuSans-32"/><use xlink:href="#DejaVuSans-30" x="63.623"/><use xlink:href="#DejaVuSans-31" x="127.246"/><use xlink:href="#DejaVuSans-38" x="190.869"/></g></g><g id="xtick_6"><use xlink:href="#md5f7b42ee3" x="343.228" y="323.95" style="fill:#b0b0b0;stroke:#b0b0b0;stroke-width:.4" id="line2d_6"/><g style="fill:#b0b0b0" transform="matrix(.14 0 0 -.14 325.413 341.588)" id="text_6"><use xlink:href="#DejaVuSans-32"/><use xlink:href="#DejaVuSans-30" x="63.623"/><use xlink:href="#DejaVuSans-32" x="127.246"/><use xlink:href="#DejaVuSans-30" x="190.869"/></g></g><g id="xtick_7"><use xlink:href="#md5f7b42ee3" x="396.904" y="323.95" style="fill:#b0b0b0;stroke:#b0b0b0;stroke-width:.4" id="line2d_7"/><g style="fill:#b0b0b0" transform="matrix(.14 0 0 -.14 379.09 341.588)" id="text_7"><use xlink:href="#DejaVuSans-32"/><use xlink:href="#DejaVuSans-30" x="63.623"/><use xlink:href="#DejaVuSans-32" x="127.246"/><use xlink:href="#DejaVuSans-32" x="190.869"/></g></g></g><g id="matplotlib.axis_2"><g id="ytick_1"><path d="M40.922 323.95h357.12" clip-path="url(#p26f2a60ca1)" style="fill:none;stroke:#b0b0b0;stroke-width:.3;stroke-linecap:square" id="line2d_8"/><g id="line2d_9"><defs><path id="m063331abb0" d="M0 0h-3.5" style="stroke:#b0b0b0;stroke-width:.3"/></defs><use xlink:href="#m063331abb0" x="40.922" y="323.95" style="fill:#b0b0b0;stroke:#b0b0b0;stroke-width:.3"/></g><use xlink:href="#DejaVuSans-30" style="fill:#b0b0b0" transform="matrix(.14 0 0 -.14 25.015 329.269)" id="text_8"/></g><g id="ytick_2"><path d="M40.922 271.797h357.12" clip-path="url(#p26f2a60ca1)" style="fill:none;stroke:#b0b0b0;stroke-width:.3;stroke-linecap:square" id="line2d_10"/><use xlink:href="#m063331abb0" x="40.922" y="271.797" style="fill:#b0b0b0;stroke:#b0b0b0;stroke-width:.3" id="line2d_11"/><g style="fill:#b0b0b0" transform="matrix(.14 0 0 -.14 16.108 277.116)" id="text_9"><defs><path id="DejaVuSans-35" d="M691 4666h2478v-532H1269V2991q137 47 274 70 138 23 276 23 781 0 1237-428 457-428 457-1159 0-753-469-1171Q2575-91 1722-91q-294 0-599 50Q819 9 494 109v635q281-153 581-228t634-75q541 0 856 284 316 284 316 772 0 487-316 771-315 285-856 285-253 0-505-56-251-56-513-175v2344z" transform="scale(.01563)"/></defs><use xlink:href="#DejaVuSans-35"/><use xlink:href="#DejaVuSans-30" x="63.623"/></g></g><g id="ytick_3"><path d="M40.922 219.645h357.12" clip-path="url(#p26f2a60ca1)" style="fill:none;stroke:#b0b0b0;stroke-width:.3;stroke-linecap:square" id="line2d_12"/><use xlink:href="#m063331abb0" x="40.922" y="219.645" style="fill:#b0b0b0;stroke:#b0b0b0;stroke-width:.3" id="line2d_13"/><g style="fill:#b0b0b0" transform="matrix(.14 0 0 -.14 7.2 224.964)" id="text_10"><use xlink:href="#DejaVuSans-31"/><use xlink:href="#DejaVuSans-30" x="63.623"/><use xlink:href="#DejaVuSans-30" x="127.246"/></g></g><g id="ytick_4"><path d="M40.922 167.493h357.12" clip-path="url(#p26f2a60ca1)" style="fill:none;stroke:#b0b0b0;stroke-width:.3;stroke-linecap:square" id="line2d_14"/><use xlink:href="#m063331abb0" x="40.922" y="167.493" style="fill:#b0b0b0;stroke:#b0b0b0;stroke-width:.3" id="line2d_15"/><g style="fill:#b0b0b0" transform="matrix(.14 0 0 -.14 7.2 172.811)" id="text_11"><use xlink:href="#DejaVuSans-31"/><use xlink:href="#DejaVuSans-35" x="63.623"/><use xlink:href="#DejaVuSans-30" x="127.246"/></g></g><g id="ytick_5"><path d="M40.922 115.34h357.12" clip-path="url(#p26f2a60ca1)" style="fill:none;stroke:#b0b0b0;stroke-width:.3;stroke-linecap:square" id="line2d_16"/><use xlink:href="#m063331abb0" x="40.922" y="115.34" style="fill:#b0b0b0;stroke:#b0b0b0;stroke-width:.3" id="line2d_17"/><g style="fill:#b0b0b0" transform="matrix(.14 0 0 -.14 7.2 120.659)" id="text_12"><use xlink:href="#DejaVuSans-32"/><use xlink:href="#DejaVuSans-30" x="63.623"/><use xlink:href="#DejaVuSans-30" x="127.246"/></g></g><g id="ytick_6"><path d="M40.922 63.188h357.12" clip-path="url(#p26f2a60ca1)" style="fill:none;stroke:#b0b0b0;stroke-width:.3;stroke-linecap:square" id="line2d_18"/><use xlink:href="#m063331abb0" x="40.922" y="63.188" style="fill:#b0b0b0;stroke:#b0b0b0;stroke-width:.3" id="line2d_19"/><g style="fill:#b0b0b0" transform="matrix(.14 0 0 -.14 7.2 68.507)" id="text_13"><use xlink:href="#DejaVuSans-32"/><use xlink:href="#DejaVuSans-35" x="63.623"/><use xlink:href="#DejaVuSans-30" x="127.246"/></g></g></g><path d="M40.922 323.95h3.966l55.842-.101 4.443-.234 2.166-.64 2.24-.103 4.478-1.46 2.24.014 2.276-1.951 2.24-1.54 2.24.396 2.239-2.76 2.24-.672 2.276-2.557 2.203-.837 2.203-1.451 4.479-.976 2.24.026 2.239-3.996h2.276l2.24-1.498 2.24 2.238 2.239-.847 2.24 4.582 2.276-4.745 2.166-1.377 2.166-2.223 2.24 1.503 2.24.953 2.239.23 2.24-5.983 2.276 3.634 2.24-1.58 2.239-2.828 2.24 1.332 2.239 1.864 2.276-6.628 2.166 1.643 2.166-.566 2.24.454 2.24 3.112 2.24-2.208 2.239-.315 2.276 3.465 2.24-3.393 2.24 1.711 2.239.131 2.24.878 2.276-3.263 2.166-2.018 2.166.941 2.24-.71 2.239 1.417 2.24-2.32 2.24.402 2.275.269 2.24 1.97 2.24.688 2.24-1.035 2.239.8 4.479-10.035 2.203 7.208 2.24-.58 2.239 3.541 2.24-.17 2.239 2.963 2.276-.337 2.24.886 2.24 1.066 2.239-2.422 2.24 1.278 2.276.1 2.166-2.493 2.166-.097 2.24 3.577 2.24-4.183 2.239 4.46 2.24.587 2.276-4.138 2.24 3.343 2.239 2.68 2.24-1.046 2.239 3.064 2.276-2.254 2.166.899 2.167 2.432 2.24.9 2.239-.698 2.24.63 2.239.85 2.276.404 2.24-.038 2.24.711 2.239-.12 2.24 2.072 2.276-1.784 2.166-2.453 2.166 1.848 2.24-.378 2.24 3.07 6.755 3.162 2.24-2.825 2.239.941 2.24-.385 2.239 2 2.276-.606 2.203-.762 2.203.661 2.24-1.223 2.24-.055 2.239 1.098 2.24-.223 2.275.975 2.24.082 2.24 2.711 2.24-1.633 2.239-1.328 2.276.236 2.166-1.48 2.166.168 2.24 1.083 2.24.868 2.24 1.253 2.239-.48 2.276-.268 2.24 1.443 2.24.777 2.239-2.307 2.24 1.264 2.276-1.043h0" clip-path="url(#p26f2a60ca1)" style="fill:none;stroke:#bcbd22;stroke-width:1.5;stroke-linecap:square" id="line2d_20"/><path d="m85.016 323.95 6.756-.135 2.24-.282 2.239.148 6.755.134 2.167-.461 2.166.26 2.24.023 2.239-.158 2.24.088 4.515-.492 2.24.11 2.24-.278 6.755.134 2.203-.53 2.203-.143 2.24.122 2.239-.458 2.24-.898 2.239.259 2.276-.875 2.24.755 2.24.254 2.239-1.68 2.24-.002 2.276-1.178 2.166.18 2.166.93 2.24-1.042 2.24.134 2.239-.621 2.24-1.162 2.276.437 2.24 1.35 2.239-1.922 2.24.914 2.239.13 2.276-.976 2.166-2.68 2.166.93 2.24-.15 2.24 1.328 2.24-1.676 2.239.565 2.276.942 2.24.544 2.24-.746 2.239.225 2.24-.325 4.442-2.83 4.405.06 2.24.38 2.24-2.987 2.24.128 2.275 1.043 2.24.776 2.24.401 2.24 1.163 2.239-.826 2.276-2.12 6.645 2.703 2.24-1.222 2.24 1.083 2.239-1.252 2.276 2.086 2.24.348 2.24-.886 2.239-3.356 2.24-.278 2.276.976 2.166-.752 2.166-1.94 2.24 3.49 2.24-1.437 2.239-2.145 2.24 2.178 2.276-.572 2.24.272 2.239 1.242 2.24-.582 2.239 1.592 2.276-1.043 2.166-2.694 2.167-.234 2.24-3.288 2.239 1.673 2.24-.734 2.239-1.79 2.276-1.076 2.24 2.414 2.24.009 2.239-4.25 2.24.75 2.276 2.625 2.166-2.022 2.166-.165 2.24-1.815 2.24-1.516 2.239 4.993 2.24-10.982 2.276 2.59 2.24 1.09 2.239-3.916 2.24-1.229 2.239 2.979 2.276-1.615 2.203-3.541 2.203-3.323 2.24-12.962 2.24-3.357 2.239-3.075 2.24 5.599 2.275 9.69 2.24 5.641 2.24 3.275 2.24 6.078 2.239 2.368 2.276-9.59 2.166-1.261 2.166 1.43 2.24-1.5 2.24-.553 2.24-3.237 2.239 7.208 2.276 5.921 2.24-.021 2.24 2.343 2.239-4.43 2.24 5.81 2.276-1.212h0" clip-path="url(#p26f2a60ca1)" style="fill:none;stroke:#7f7f7f;stroke-width:1.5;stroke-linecap:square" id="line2d_21"/><path d="m40.922 311.303 1.726 5.009 2.24 1.901 2.24-.084 2.276-3.13 2.166-.81 2.166-2.487 2.24-.964 2.239-4.385 2.24-3.403 2.24-1.14 2.275-2.288 2.24-.188 2.24-1.629 2.24-1.987 2.239-.435 2.276-6.864 2.166-4.105 2.166.202 2.24-.62 2.24-3.552 2.239-3.262 2.24-2.896 2.276-1.076 2.24-6.215 2.239-8.287 2.24-.266 2.24-1.517 2.275-9.422 2.167-11.293 2.166-8.928 2.24 10.334 2.239-.745 2.24-.472 2.239.338 2.276-9.556 2.24 5.046 2.24 3.87 2.239-4.253 2.24 9.166 4.479-25.797 2.203-2.87 2.24 3.473 2.239.53 2.24 1.521 2.239-9.831 2.276 2.49 2.24 13.426 2.24-11.542 2.239-.418 2.24 12.463 2.276-16.924 2.166-7.455 2.166-4.22 2.24.594 2.24 9.836 2.239-.414 2.24-10.992 2.276-8.883 2.24 3.013 2.239-2.575 2.24 8.937 2.239 4.387 2.276-12.584 2.166-6.246 2.166 1.199 2.24 5.387 4.48 11.786 2.239-2.268 2.276 8.143 2.24 12.587 2.24.232 2.239-1.588 2.24 6.602 2.276-6.73 2.166-7.97 2.166-2.83 4.479-.808 2.24-8.36 2.24-1.095 2.275 7.672 2.24 6.53 2.24 5.886 2.24 4.893 2.239 2.004 2.276-11.54 2.203-5.16 2.203 5.496 2.24-6.863 2.239 17.798 2.24-5.942 2.239 10.35 2.276.504 2.24 3.019 2.24 10.777 2.239-1.633 2.24 7.588 2.276-5.888 2.166-1.666 2.166 1.7 2.24 10.99 2.24-1.166 2.239 3.288 2.24-.327 2.276 4.543 2.24 7.361 2.239-2.516 2.24 2.551 2.239 8.182 2.276-6.999 2.166 2.679 2.167-1.77 2.24 2.08 2.239 3.202 2.24 2.361 2.239 1.913 2.276-2.086 2.24 2.329 2.24-5.795 2.239 6.42 2.24 4.549 2.276-10.767 2.166 2.37 2.166 1.365 2.24 4.779 2.24 2.69 2.239 1.412 2.24-2.556 2.276 2.019 2.24-1.166 2.239.426 2.24-.079 2.239 3.275 2.276-4.441 2.203 3.204 2.203-3.238 2.24-6.97 2.24 5.826 2.239 5.126 2.24-2.165 2.275 7.2 2.24 3.448 2.24-.554 2.24 1.11 2.239.707 2.276-4.811 2.166.156 2.166 2.939 2.24-3.128 2.24 5.349 2.24.84 2.239 1.078 2.276.84 2.24-.388 2.24 2.441 2.239-.46 2.24 2.344 2.276-2.422h0" clip-path="url(#p26f2a60ca1)" style="fill:none;stroke:#e377c2;stroke-width:1.5;stroke-linecap:square" id="line2d_22"/><g style="fill:#1f77b4" transform="matrix(.14 0 0 -.14 408.756 147.971)" id="text_14"><defs><path id="DejaVuSans-6e" d="M3513 2113V0h-575v2094q0 497-194 743-194 247-581 247-466 0-735-297-269-296-269-809V0H581v3500h578v-544q207 316 486 472 280 156 646 156 603 0 912-373 310-373 310-1098z" transform="scale(.01563)"/><path id="DejaVuSans-6f" d="M1959 3097q-462 0-731-361t-269-989q0-628 267-989 268-361 733-361 460 0 728 362 269 363 269 988 0 622-269 986-268 364-728 364zm0 487q750 0 1178-488 429-487 429-1349 0-859-429-1349Q2709-91 1959-91q-753 0-1180 489-426 490-426 1349 0 862 426 1349 427 488 1180 488z" transform="scale(.01563)"/><path id="DejaVuSans-64" d="M2906 2969v1894h575V0h-575v525q-181-312-458-464-276-152-664-152-634 0-1033 506-398 507-398 1332t398 1331q399 506 1033 506 388 0 664-152 277-151 458-463zM947 1747q0-634 261-995t717-361q456 0 718 361 263 361 263 995t-263 995q-262 361-718 361t-717-361q-261-361-261-995z" transform="scale(.01563)"/><path id="DejaVuSans-65" d="M3597 1894v-281H953q38-594 358-905t892-311q331 0 642 81t618 244V178Q3153 47 2828-22t-659-69q-838 0-1327 487-489 488-489 1320 0 859 464 1363 464 505 1252 505 706 0 1117-455 411-454 411-1235zm-575 169q-6 471-264 752-258 282-683 282-481 0-770-272t-333-766l2050 4z" transform="scale(.01563)"/><path id="DejaVuSans-2e" d="M684 794h660V0H684v794z" transform="scale(.01563)"/><path id="DejaVuSans-6a" d="M603 3500h575V-63q0-668-255-968-254-300-820-300h-219v487H38q328 0 446 152Q603-541 603-63v3563zm0 1363h575v-729H603v729z" transform="scale(.01563)"/><path id="DejaVuSans-73" d="M2834 3397v-544q-243 125-506 187-262 63-544 63-428 0-642-131t-214-394q0-200 153-314t616-217l197-44q612-131 870-370t258-667q0-488-386-773Q2250-91 1575-91q-281 0-586 55T347 128v594q319-166 628-249 309-82 613-82 406 0 624 139 219 139 219 392 0 234-158 359-157 125-692 241l-200 47q-534 112-772 345-237 233-237 639 0 494 350 762 350 269 994 269 318 0 599-47 282-46 519-140z" transform="scale(.01563)"/></defs><use xlink:href="#DejaVuSans-6e"/><use xlink:href="#DejaVuSans-6f" x="63.379"/><use xlink:href="#DejaVuSans-64" x="124.561"/><use xlink:href="#DejaVuSans-65" x="188.037"/><use xlink:href="#DejaVuSans-2e" x="249.561"/><use xlink:href="#DejaVuSans-6a" x="281.348"/><use xlink:href="#DejaVuSans-73" x="309.131"/></g><g style="fill:#ff7f0e" transform="matrix(.14 0 0 -.14 408.756 225.897)" id="text_15"><defs><path id="DejaVuSans-61" d="M2194 1759q-697 0-966-159t-269-544q0-306 202-486 202-179 548-179 479 0 768 339t289 901v128h-572zm1147 238V0h-575v531q-197-318-491-470T1556-91q-537 0-855 302-317 302-317 808 0 590 395 890 396 300 1180 300h807v57q0 397-261 614t-733 217q-300 0-585-72-284-72-546-216v532q315 122 612 182 297 61 578 61 760 0 1135-394 375-393 375-1193z" transform="scale(.01563)"/><path id="DejaVuSans-67" d="M2906 1791q0 625-258 968-257 344-723 344-462 0-720-344-258-343-258-968 0-622 258-966t720-344q466 0 723 344 258 344 258 966zm575-1357q0-893-397-1329-396-436-1215-436-303 0-572 45t-522 139v559q253-137 500-202 247-66 503-66 566 0 847 295t281 892v285q-178-310-456-463T1784 0Q1141 0 747 490 353 981 353 1791q0 812 394 1302 394 491 1037 491 388 0 666-153t456-462v531h575V434z" transform="scale(.01563)"/></defs><use xlink:href="#DejaVuSans-64"/><use xlink:href="#DejaVuSans-6a" x="63.477"/><use xlink:href="#DejaVuSans-61" x="91.26"/><use xlink:href="#DejaVuSans-6e" x="152.539"/><use xlink:href="#DejaVuSans-67" x="215.918"/><use xlink:href="#DejaVuSans-6f" x="279.395"/></g><g style="fill:#2ca02c" transform="matrix(.14 0 0 -.14 408.756 251.637)" id="text_16"><defs><path id="DejaVuSans-6c" d="M603 4863h575V0H603v4863z" transform="scale(.01563)"/><path id="DejaVuSans-72" d="M2631 2963q-97 56-211 82-114 27-251 27-488 0-749-317t-261-911V0H581v3500h578v-544q182 319 472 473 291 155 707 155 59 0 131-8 72-7 159-23l3-590z" transform="scale(.01563)"/><path id="DejaVuSans-76" d="M191 3500h609L1894 563l1094 2937h609L2284 0h-781L191 3500z" transform="scale(.01563)"/></defs><use xlink:href="#DejaVuSans-6c"/><use xlink:href="#DejaVuSans-61" x="27.783"/><use xlink:href="#DejaVuSans-72" x="89.063"/><use xlink:href="#DejaVuSans-61" x="130.176"/><use xlink:href="#DejaVuSans-76" x="191.455"/><use xlink:href="#DejaVuSans-65" x="250.635"/><use xlink:href="#DejaVuSans-6c" x="312.158"/></g><g style="fill:#d62728" transform="matrix(.14 0 0 -.14 408.756 265.637)" id="text_17"><defs><path id="DejaVuSans-70" d="M1159 525v-1856H581v4831h578v-531q182 312 458 463 277 152 661 152 638 0 1036-506 399-506 399-1331T3314 415Q2916-91 2278-91q-384 0-661 152-276 152-458 464zm1957 1222q0 634-261 995t-717 361q-457 0-718-361t-261-995q0-634 261-995t718-361q456 0 717 361t261 995z" transform="scale(.01563)"/><path id="DejaVuSans-69" d="M603 3500h575V0H603v3500zm0 1363h575v-729H603v729z" transform="scale(.01563)"/></defs><use xlink:href="#DejaVuSans-73"/><use xlink:href="#DejaVuSans-70" x="52.1"/><use xlink:href="#DejaVuSans-72" x="115.576"/><use xlink:href="#DejaVuSans-69" x="156.689"/><use xlink:href="#DejaVuSans-6e" x="184.473"/><use xlink:href="#DejaVuSans-67" x="247.852"/></g><g style="fill:#9467bd" transform="matrix(.14 0 0 -.14 408.756 279.637)" id="text_18"><defs><path id="DejaVuSans-78" d="M3513 3500 2247 1797 3578 0h-678L1881 1375 863 0H184l1360 1831L300 3500h678l928-1247 928 1247h679z" transform="scale(.01563)"/></defs><use xlink:href="#DejaVuSans-65"/><use xlink:href="#DejaVuSans-78" x="59.773"/><use xlink:href="#DejaVuSans-70" x="118.953"/><use xlink:href="#DejaVuSans-72" x="182.43"/><use xlink:href="#DejaVuSans-65" x="221.293"/><use xlink:href="#DejaVuSans-73" x="282.816"/><use xlink:href="#DejaVuSans-73" x="334.916"/></g><g style="fill:#8c564b" transform="matrix(.14 0 0 -.14 408.756 293.637)" id="text_19"><defs><path id="DejaVuSans-74" d="M1172 4494v-994h1184v-447H1172V1153q0-428 117-550t477-122h590V0h-590q-666 0-919 248-253 249-253 905v1900H172v447h422v994h578z" transform="scale(.01563)"/><path id="DejaVuSans-2d" d="M313 2009h1684v-512H313v512z" transform="scale(.01563)"/><path id="DejaVuSans-63" d="M3122 3366v-538q-244 135-489 202t-495 67q-560 0-870-355-309-354-309-995t309-996q310-354 870-354 250 0 495 67t489 202V134Q2881 22 2623-34q-257-57-548-57-791 0-1257 497-465 497-465 1341 0 856 470 1346 471 491 1290 491 265 0 518-55 253-54 491-163z" transform="scale(.01563)"/></defs><use xlink:href="#DejaVuSans-61"/><use xlink:href="#DejaVuSans-73" x="61.279"/><use xlink:href="#DejaVuSans-70" x="113.379"/><use xlink:href="#DejaVuSans-2e" x="176.855"/><use xlink:href="#DejaVuSans-6e" x="208.643"/><use xlink:href="#DejaVuSans-65" x="272.021"/><use xlink:href="#DejaVuSans-74" x="333.545"/><use xlink:href="#DejaVuSans-2d" x="372.754"/><use xlink:href="#DejaVuSans-63" x="408.838"/><use xlink:href="#DejaVuSans-6f" x="463.818"/><use xlink:href="#DejaVuSans-72" x="525"/><use xlink:href="#DejaVuSans-65" x="563.863"/></g><g style="fill:#e377c2" transform="matrix(.14 0 0 -.14 408.756 307.637)" id="text_20"><defs><path id="DejaVuSans-75" d="M544 1381v2119h575V1403q0-497 193-746 194-248 582-248 465 0 735 297 271 297 271 810v1984h575V0h-575v538q-209-319-486-474-276-155-642-155-603 0-916 375-312 375-312 1097zm1447 2203z" transform="scale(.01563)"/><path id="DejaVuSans-62" d="M3116 1747q0 634-261 995t-717 361q-457 0-718-361t-261-995q0-634 261-995t718-361q456 0 717 361t261 995zM1159 2969q182 312 458 463 277 152 661 152 638 0 1036-506 399-506 399-1331T3314 415Q2916-91 2278-91q-384 0-661 152-276 152-458 464V0H581v4863h578V2969z" transform="scale(.01563)"/><path id="DejaVuSans-79" d="M2059-325q-243-625-475-815-231-191-618-191H506v481h338q237 0 368 113 132 112 291 531l103 262L191 3500h609L1894 763l1094 2737h609L2059-325z" transform="scale(.01563)"/></defs><use xlink:href="#DejaVuSans-72"/><use xlink:href="#DejaVuSans-75" x="41.113"/><use xlink:href="#DejaVuSans-62" x="104.492"/><use xlink:href="#DejaVuSans-79" x="167.969"/><use xlink:href="#DejaVuSans-2d" x="225.398"/><use xlink:href="#DejaVuSans-6f" x="263.357"/><use xlink:href="#DejaVuSans-6e" x="324.539"/><use xlink:href="#DejaVuSans-2d" x="387.918"/><use xlink:href="#DejaVuSans-72" x="424.002"/><use xlink:href="#DejaVuSans-61" x="465.115"/><use xlink:href="#DejaVuSans-69" x="526.395"/><use xlink:href="#DejaVuSans-6c" x="554.178"/><use xlink:href="#DejaVuSans-73" x="581.961"/></g><g style="fill:#7f7f7f" transform="matrix(.14 0 0 -.14 408.756 321.637)" id="text_21"><defs><path id="DejaVuSans-66" d="M2375 4863v-479h-550q-309 0-430-125-120-125-120-450v-309h947v-447h-947V0H697v3053H147v447h550v244q0 584 272 851 272 268 862 268h544z" transform="scale(.01563)"/><path id="DejaVuSans-6b" d="M581 4863h578V1991l1716 1509h734L1753 1863 3688 0h-750L1159 1709V0H581v4863z" transform="scale(.01563)"/></defs><use xlink:href="#DejaVuSans-66"/><use xlink:href="#DejaVuSans-6c" x="35.205"/><use xlink:href="#DejaVuSans-61" x="62.988"/><use xlink:href="#DejaVuSans-73" x="124.268"/><use xlink:href="#DejaVuSans-6b" x="176.367"/></g><g style="fill:#bcbd22" transform="matrix(.14 0 0 -.14 408.756 335.637)" id="text_22"><defs><path id="DejaVuSans-6d" d="M3328 2828q216 388 516 572t706 184q547 0 844-383 297-382 297-1088V0h-578v2094q0 503-179 746-178 244-543 244-447 0-707-297-259-296-259-809V0h-578v2094q0 506-178 748t-550 242q-441 0-701-298-259-298-259-808V0H581v3500h578v-544q197 322 472 475t653 153q382 0 649-194 267-193 395-562z" transform="scale(.01563)"/></defs><use xlink:href="#DejaVuSans-73"/><use xlink:href="#DejaVuSans-79" x="52.1"/><use xlink:href="#DejaVuSans-6d" x="111.279"/><use xlink:href="#DejaVuSans-66" x="208.691"/><use xlink:href="#DejaVuSans-6f" x="243.896"/><use xlink:href="#DejaVuSans-6e" x="305.078"/><use xlink:href="#DejaVuSans-79" x="368.457"/></g><g style="fill:#b0b0b0" transform="matrix(.09716 0 0 -.09716 40.922 357.986)" id="text_23"><defs><path id="DejaVuSans-40" d="M2381 1678q0-447 222-702 222-254 610-254 384 0 604 256 221 256 221 700 0 438-225 695-225 258-607 258-378 0-602-256-223-256-223-697zm1703-934q-187-241-429-355t-564-114q-538 0-874 389t-336 1014q0 625 337 1015 338 391 873 391 322 0 565-117 244-117 428-354v409h447V722q457 69 714 417 258 349 258 902 0 334-99 628-98 294-298 544-325 409-792 626t-1017 217q-384 0-738-102-353-101-653-301-490-319-767-836-276-517-276-1120 0-497 179-932 180-434 521-765 328-325 759-495 431-171 922-171 403 0 792 136t714 389l281-347q-390-303-851-464t-936-161q-578 0-1091 205-512 205-912 595Q841 78 631 592q-209 514-209 1105 0 569 212 1084 213 516 607 907 403 396 931 607t1119 211q662 0 1229-272 568-271 952-771 234-307 357-666 124-359 124-744 0-822-497-1297T4084 263v481z" transform="scale(.01563)"/><path id="DejaVuSans-68" d="M3513 2113V0h-575v2094q0 497-194 743-194 247-581 247-466 0-735-297-269-296-269-809V0H581v4863h578V2956q207 316 486 472 280 156 646 156 603 0 912-373 310-373 310-1098z" transform="scale(.01563)"/><path id="DejaVuSans-2f" d="M1625 4666h531L531-594H0l1625 5260z" transform="scale(.01563)"/><path id="DejaVuSans-7c" d="M1344 4891v-6400H813v6400h531z" transform="scale(.01563)"/><path id="DejaVuSans-4e" d="M628 4666h850L3547 763v3903h612V0h-850L1241 3903V0H628v4666z" transform="scale(.01563)"/><path id="DejaVuSans-53" d="M3425 4513v-616q-359 172-678 256-319 85-616 85-515 0-795-200t-280-569q0-310 186-468 186-157 705-254l381-78q706-135 1042-474t336-907q0-679-455-1029Q2797-91 1919-91q-331 0-705 75-373 75-773 222v650q384-215 753-325 369-109 725-109 540 0 834 212 294 213 294 607 0 343-211 537t-692 291l-385 75q-706 140-1022 440-315 300-315 835 0 619 436 975t1201 356q329 0 669-60 341-59 697-177z" transform="scale(.01563)"/><path id="DejaVuSans-f6" d="M1959 3097q-462 0-731-361t-269-989q0-628 267-989 268-361 733-361 460 0 728 362 269 363 269 988 0 622-269 986-268 364-728 364zm0 487q750 0 1178-488 429-487 429-1349 0-859-429-1349Q2709-91 1959-91q-753 0-1180 489-426 490-426 1349 0 862 426 1349 427 488 1180 488zm295 1266h634v-631h-634v631zm-1222 0h634v-631h-634v631z" transform="scale(.01563)"/><path id="DejaVuSans-43" d="M4122 4306v-665q-319 297-680 443-361 147-767 147-800 0-1225-489t-425-1414q0-922 425-1411t1225-489q406 0 767 147t680 444V359q-331-225-702-338-370-112-782-112-1060 0-1670 648-609 649-609 1771 0 1125 609 1773 610 649 1670 649 418 0 788-111 371-111 696-333z" transform="scale(.01563)"/><path id="DejaVuSans-42" d="M1259 2228V519h1013q509 0 754 211 246 211 246 645 0 438-246 645-245 208-754 208H1259zm0 1919V2741h935q462 0 688 173 227 174 227 530 0 353-227 528-226 175-688 175h-935zm-631 519h1613q722 0 1112-300 391-300 391-853 0-429-200-682t-588-315q466-100 724-418 258-317 258-792 0-625-425-966Q3088 0 2303 0H628v4666z" transform="scale(.01563)"/><path id="DejaVuSans-59" d="M-13 4666h679l1293-1919 1285 1919h678L2272 2222V0h-634v2222L-13 4666z" transform="scale(.01563)"/></defs><use xlink:href="#DejaVuSans-40"/><use xlink:href="#DejaVuSans-6e" x="100"/><use xlink:href="#DejaVuSans-73" x="163.379"/><use xlink:href="#DejaVuSans-63" x="215.479"/><use xlink:href="#DejaVuSans-68" x="270.459"/><use xlink:href="#DejaVuSans-6c" x="333.838"/><use xlink:href="#DejaVuSans-6f" x="361.621"/><use xlink:href="#DejaVuSans-65" x="422.803"/><use xlink:href="#DejaVuSans-20" x="484.326"/><use xlink:href="#DejaVuSans-2f" x="516.113"/><use xlink:href="#DejaVuSans-20" x="549.805"/><use xlink:href="#DejaVuSans-73" x="581.592"/><use xlink:href="#DejaVuSans-6f" x="633.691"/><use xlink:href="#DejaVuSans-2d" x="696.748"/><use xlink:href="#DejaVuSans-74" x="732.832"/><use xlink:href="#DejaVuSans-72" x="772.041"/><use xlink:href="#DejaVuSans-65" x="810.904"/><use xlink:href="#DejaVuSans-6e" x="872.428"/><use xlink:href="#DejaVuSans-64" x="935.807"/><use xlink:href="#DejaVuSans-73" x="999.283"/><use xlink:href="#DejaVuSans-20" x="1051.383"/><use xlink:href="#DejaVuSans-7c" x="1083.17"/><use xlink:href="#DejaVuSans-20" x="1116.861"/><use xlink:href="#DejaVuSans-4e" x="1148.648"/><use xlink:href="#DejaVuSans-69" x="1223.453"/><use xlink:href="#DejaVuSans-63" x="1251.236"/><use xlink:href="#DejaVuSans-6f" x="1306.217"/><use xlink:href="#DejaVuSans-20" x="1367.398"/><use xlink:href="#DejaVuSans-53" x="1399.186"/><use xlink:href="#DejaVuSans-63" x="1462.662"/><use xlink:href="#DejaVuSans-68" x="1517.643"/><use xlink:href="#DejaVuSans-6c" x="1581.021"/><use xlink:href="#DejaVuSans-f6" x="1608.805"/><use xlink:href="#DejaVuSans-6d" x="1669.986"/><use xlink:href="#DejaVuSans-65" x="1767.398"/><use xlink:href="#DejaVuSans-72" x="1828.922"/><use xlink:href="#DejaVuSans-20" x="1870.035"/><use xlink:href="#DejaVuSans-7c" x="1901.822"/><use xlink:href="#DejaVuSans-20" x="1935.514"/><use xlink:href="#DejaVuSans-43" x="1967.301"/><use xlink:href="#DejaVuSans-43" x="2037.125"/><use xlink:href="#DejaVuSans-20" x="2106.949"/><use xlink:href="#DejaVuSans-42" x="2138.736"/><use xlink:href="#DejaVuSans-59" x="2201.84"/></g><g style="fill:#b0b0b0" transform="matrix(.14 0 0 -.14 63.337 17.838)" id="text_24"><defs><path id="DejaVuSans-44" d="M1259 4147V519h763q966 0 1414 437 448 438 448 1382 0 937-448 1373t-1414 436h-763zm-631 519h1297q1356 0 1990-564 635-564 635-1764 0-1207-638-1773Q3275 0 1925 0H628v4666z" transform="scale(.01563)"/><path id="DejaVuSans-71" d="M947 1747q0-634 261-995t717-361q456 0 718 361 263 361 263 995t-263 995q-262 361-718 361t-717-361q-261-361-261-995zM2906 525q-181-312-458-464-276-152-664-152-634 0-1033 506-398 507-398 1332t398 1331q399 506 1033 506 388 0 664-152 277-151 458-463v531h575v-4831h-575V525z" transform="scale(.01563)"/><path id="DejaVuSans-4f" d="M2522 4238q-688 0-1093-513-404-512-404-1397 0-881 404-1394 405-512 1093-512 687 0 1089 512 402 513 402 1394 0 885-402 1397-402 513-1089 513zm0 512q981 0 1568-658 588-658 588-1764 0-1103-588-1761Q3503-91 2522-91q-984 0-1574 656-589 657-589 1763t589 1764q590 658 1574 658z" transform="scale(.01563)"/><path id="DejaVuSans-77" d="M269 3500h575l719-2731 715 2731h678l719-2731 716 2731h575L4050 0h-678l-753 2869L1863 0h-679L269 3500z" transform="scale(.01563)"/></defs><use xlink:href="#DejaVuSans-44"/><use xlink:href="#DejaVuSans-61" x="77.002"/><use xlink:href="#DejaVuSans-69" x="138.281"/><use xlink:href="#DejaVuSans-6c" x="166.064"/><use xlink:href="#DejaVuSans-79" x="193.848"/><use xlink:href="#DejaVuSans-20" x="253.027"/><use xlink:href="#DejaVuSans-6e" x="284.814"/><use xlink:href="#DejaVuSans-75" x="348.193"/><use xlink:href="#DejaVuSans-6d" x="411.572"/><use xlink:href="#DejaVuSans-62" x="508.984"/><use xlink:href="#DejaVuSans-65" x="572.461"/><use xlink:href="#DejaVuSans-72" x="633.984"/><use xlink:href="#DejaVuSans-20" x="675.098"/><use xlink:href="#DejaVuSans-6f" x="706.885"/><use xlink:href="#DejaVuSans-66" x="768.066"/><use xlink:href="#DejaVuSans-20" x="803.271"/><use xlink:href="#DejaVuSans-71" x="835.059"/><use xlink:href="#DejaVuSans-75" x="898.535"/><use xlink:href="#DejaVuSans-65" x="961.914"/><use xlink:href="#DejaVuSans-73" x="1023.438"/><use xlink:href="#DejaVuSans-74" x="1075.537"/><use xlink:href="#DejaVuSans-69" x="1114.746"/><use xlink:href="#DejaVuSans-6f" x="1142.529"/><use xlink:href="#DejaVuSans-6e" x="1203.711"/><use xlink:href="#DejaVuSans-73" x="1267.09"/><use xlink:href="#DejaVuSans-20" x="1319.189"/><use xlink:href="#DejaVuSans-6f" x="1350.977"/><use xlink:href="#DejaVuSans-6e" x="1412.158"/><use xlink:href="#DejaVuSans-20" x="1475.537"/><use xlink:href="#DejaVuSans-53" x="1507.324"/><use xlink:href="#DejaVuSans-74" x="1570.801"/><use xlink:href="#DejaVuSans-61" x="1610.01"/><use xlink:href="#DejaVuSans-63" x="1671.289"/><use xlink:href="#DejaVuSans-6b" x="1726.27"/><use xlink:href="#DejaVuSans-4f" x="1784.18"/><use xlink:href="#DejaVuSans-76" x="1862.891"/><use xlink:href="#DejaVuSans-65" x="1922.07"/><use xlink:href="#DejaVuSans-72" x="1983.594"/><use xlink:href="#DejaVuSans-66" x="2024.707"/><use xlink:href="#DejaVuSans-6c" x="2059.912"/><use xlink:href="#DejaVuSans-6f" x="2087.695"/><use xlink:href="#DejaVuSans-77" x="2148.877"/></g><path d="M107.339 323.95h82.717l2.24-.404 4.479-.034 2.276-.504 2.24.455 2.24-.052 2.239-1.234 2.24-.111 2.276-1.515 2.166-.29 4.405 1.046 2.24-2.169 2.24.744 2.24-1.282 2.275-.606 2.24-.79 2.24.454 2.24-2.54 2.239-2.036 2.276-.505 2.203.08 2.203 2.242 2.24-.997 4.478-3.303 2.24-2.598 2.276-2.96 2.24 1.594 2.24-1.998 2.239-2.278 2.24 3.253 2.276-2.523 4.332-5.215 2.24 3.72 2.24-.187 2.239 1.195 2.24.588 2.276-5.25 2.24 2.61 2.239.184 2.24 2.46 2.239 3.899 2.276-3.937 2.166-2.19 2.167-1.612 2.24.154 2.239-4.326 2.24-1.237 2.239 1.472 2.276-1.581 2.24 2.09 2.24-3.032 2.239 3.693 2.24-1.573 2.276-4.812 2.166.743 2.166-3.098 2.24-.16 2.24-2.868 2.239 5.614 2.24-5.412 2.276 2.288 2.24-3.377 2.239-.863 2.24-.146 2.239 2.468 2.276-5.417 2.203-1.127 2.203-.186 2.24-8.046 2.24 4.345 2.239 2.366 2.24-1.222 2.275 5.72 2.24-.326 2.24 5.306 2.24-.265 2.239-.072 2.276-4.643 2.166-.08 2.166-4.731 4.48 11.036 2.24-2.414 2.239 3.86 4.515-.21 2.24 3.945 2.24-4.118 2.24 1.494 2.276-1.178h0" clip-path="url(#p26f2a60ca1)" style="fill:none;stroke:#8c564b;stroke-width:1.5;stroke-linecap:square" id="line2d_23"/><path d="M78.371 323.95H98.491l4.515-.539 2.167.129 4.405-1.12 2.24-.085 2.24.259 2.239.077 2.276-1.413 2.24-.229 2.24.128 2.239.29 2.24-.424 2.276-1.447 2.203.633 2.203-.162 2.24-1.973 2.239.694 2.24-.59 4.515-1.462 2.24.697 2.24.077 2.239-1.328 2.24-.12 2.276-.908 2.166.36 2.166-1.84 2.24 1.5 4.479.417 2.24-1.58 2.276-1.918 2.24.195 2.239.074 2.24-1.117 2.239-1.474 2.276-.64 4.332-.605 2.24.041 2.24-.781 2.24 1.199 2.239-1.401 2.276-.236 2.24 3.375 4.479-2.781 2.24 1.66 2.276-2.792 4.332-.976 2.24.404 2.239-1.716 2.24-2.282 2.24.633 2.275.404 2.24-.168 2.24 1.11 2.24.837 2.239-.601 2.276-3.23 2.203-2 2.203.923 2.24-.933 2.239 1.303 2.24-2.068 2.239.184 2.276 1.48 2.24-2.186 2.24.605 2.239-2.586 2.24 5.749 2.276-4.374 2.166-2.781 2.166-.82 2.24 2.92 2.24.849 2.239.577 2.24-.51 2.276-.269 2.24.884 2.239-.346 2.24-2.053 2.239 5.317 2.276-6.258 2.166-2.116 2.167.77 2.24.374 2.239-.475 2.24 2.979 2.239-2.71 2.276-1.716 2.24.15 2.24-2.673 2.239 1.977 2.24 3.81 2.276-5.08 2.166-3.776 2.166 2.093 2.24-.141 2.24-2.383 2.239 4.608 2.24-5.752 2.276 3.634 2.24.066 2.239-2.152 2.24.136 2.239 1.446 2.276-6.225 2.203.68 2.203-5.593 2.24-12.838 2.24-1.024 2.239 8.36 2.24.186 2.275 2.39 2.24 4.586 2.24 2.748 2.24 2.016 2.239-1.41 2.276-3.432 2.166-.456 2.166-.924 2.24 2.084 2.24-.637 2.24 1.82 2.239 5.212 2.276-2.994 2.24.632 2.24 3.439 2.239-.344 2.24 1.757 2.276-2.658h0" clip-path="url(#p26f2a60ca1)" style="fill:none;stroke:#9467bd;stroke-width:1.5;stroke-linecap:square" id="line2d_24"/><path d="m40.922 321.864 1.726.504 2.24.434 2.24.105 2.276-.707 2.166-.225 2.166.46 2.24-.78 2.239-1.44 2.24-.16 2.24-.446 2.275 1.11 2.24-.768 2.24-1.183 2.24.419 2.239-.486 2.276-2.086 2.166-1.606 2.166.866 2.24 1.121 2.24-.852 2.239-1.025 2.24-1.364 2.276.437 2.24-1.125 2.239.688 2.24-4.06 2.24 2.108 2.275-1.21 2.167-4.263 2.166-2.198 2.24 2.608 2.239.656 2.24-.796 2.239.257 2.276-1.48 2.24-3.47 2.24.71 2.239-1.093 2.24 1.666 2.276-4.004 2.203-3.183 2.203 1.299 2.24-.263 2.239-.511 2.24.894 2.239-4.562 2.276 1.178 2.24-.58 2.24-2.516 2.239.882 2.24 1.17 2.276-5.988 2.166.623 2.166-.421 2.24-1.886 2.24-1.277 2.239 6.423 2.24-5.01 2.276-.673 2.24-1.27 2.239-2.532 2.24 2.879 2.239-.221 2.276-7.604 2.166-3.383 2.166-2.875 2.24 1.601 2.24.115 2.24.79 2.239-5.804 2.276 8.715 2.24-6.041 2.24 3.82 2.239-5.037 2.24 6.989 2.276-4.24 2.166-3.732 2.166-4.545 2.24-1.878 2.239 6.622 2.24-4.083 2.24-3.353h2.275l2.24-1.48 2.24 6.19 2.24-.94 2.239 4.305 2.276-4.98 2.203-8.028 2.203.828 2.24-2.66 2.239 5.285 2.24 3.79 2.239 1.593 2.276-9.724 2.24 8.374 2.24 2.528 2.239-1.555 2.24 3.843 2.276-2.355 2.166-7.09 2.166-5.158 2.24 4.433 2.24-6.182 2.239 1.592 2.24 4.8 2.276-4.61 2.24 7.077 2.239.259 2.24-4.64 2.239 12.917 2.276-6.393 2.166-1.115 2.167-.77 2.24 3.08 2.239-.657 2.24 4.585 2.239-5.224 2.276-6.998 2.24 4.26 2.24-5.74 2.239 1.672 2.24 9.027 2.276.168 2.166-5.564 2.166-.29 2.24 3.996 2.24 2.228 2.239 5.282 2.24-10.834 2.276 8.21 2.24-1.862 2.239-4.329 2.24-2.103 2.239 8.765 2.276-6.527 2.203-3.37 2.203-7.666 2.24-11.228 2.24 6.349 2.239 4.777 2.24 1.683 2.275 9.387 2.24-.57 2.24 5.718 2.24-.747 2.239 8.553 2.276-6.123 2.166-.023 2.166-3.41 2.24 3.994 2.24 2.904 2.24-3.46 2.239 7.397 2.276-1.211 2.24.28 2.24 3.724 2.239-3.168 2.24 5.994 2.276-2.12h0" clip-path="url(#p26f2a60ca1)" style="fill:none;stroke:#d62728;stroke-width:1.5;stroke-linecap:square" id="line2d_25"/><path d="m116.297 323.95 2.276-.067 2.24.032 2.24.035h4.479l2.276-.034 2.203.034h4.443l2.239-.067 2.24-.385 2.239.115 2.276-.37 2.24-.475 2.24.071 2.239-1.114 2.24-.332 2.276-4.105 2.166.106 2.166-.476 2.24-.86 2.24-4.288 2.239-8.438 2.24 4.602 2.276.404 2.24-.66 2.239 2.41 2.24 1.484 2.239-1.518 2.276-4.744 2.166-4.307 2.166-4.172 2.24-3.234 2.24 2.964 2.24.06 2.239-1.81 2.276-1.446 2.24-1.715 2.24-.977 2.239-2.5 2.24 2.366 2.276-3.365 2.166-6.92 2.166 4.935 2.24-3.413 2.239 5.061 2.24-2.036 2.24-5.467 2.275 1.75 2.24 2.604 2.24-3.782 2.24.618 2.239-5.766 2.276-2.355 2.203-4.023 2.203-4.019 2.24-.49 2.239-6.508 2.24 5.464 2.239 5.875 2.276-5.485 2.24 4.373 2.24-2.22 2.239-5.985 2.24 3.429 2.276-8.547 2.166-4.41 2.166-3.362 2.24 7.014 2.24-2.505 2.239 1.88 2.24 1.114 2.276-2.826 2.24 4.32 2.239-4.354 2.24-.55 2.239 8.827 2.276-12.65 2.166-5.44 2.167 2.983 2.24-.916 2.239 2.43 2.24 2.229 2.239-4.82 2.276-8.21 2.24 3.886 2.24-1.867 2.239 3.605 2.24 8.205 2.276-9.724 2.166-2.532 2.166-1.472 2.24-1.013 2.24 2.73 2.239 4.328 2.24-16.24 2.276 5.788 2.24-7.385 2.239-.455 2.24-4.03 2.239 13.754 2.276-8.614 2.203-6.102 2.203-.863 2.24-19.175 2.24 4.674 2.239 8.4 2.24-.157 2.275 12.618 2.24-4.222 2.24 11.018 2.24.734 2.239 11.581 2.276-11.204 2.166-3.41 2.166.785 2.24 1.796 2.24 5.674 2.24-8.386 2.239 11.919 2.276-1.11 2.24 3.759 2.24 8.892 2.239 1.643 2.24 8.249 2.276-2.255" clip-path="url(#p26f2a60ca1)" style="fill:none;stroke:#2ca02c;stroke-width:1.5;stroke-linecap:square" id="line2d_26"/><path d="m40.922 321.277 1.726.351 4.48-.538 2.276-2.086 2.166-.344 2.166-1.507 2.24-.4 2.239-2.393 2.24-.875 2.24-2.758 2.275.605 2.24-1.707 2.24.26 2.24-1.546 2.239-3.534 2.276-3.365 2.166-3.827 2.166 4.466 2.24 1.288 2.24.597 2.239-3.9 2.24-.306 2.276-1.077 2.24.166 2.239 2.122 2.24-5.773 2.24 2.341 2.275-5.215 2.167-6.22 2.166-.812 2.24 2.327 2.239-4.716 2.24.161 2.239 3.069 2.276.47 2.24 1.711 2.24 3.303 2.239-6.328 2.24 4.848 2.276-7.436 2.203-2.126 2.203-3.056 2.24-.852 2.239.819 2.24 1.476 4.515-9.686 2.24 6.556 2.24-1.98 2.239 1.355 2.24 6.249 2.276-8.243 2.166-10.205 2.166 1.22 2.24-.147 2.24.955 2.239-1.338 4.516-3.91 2.24 9.23 2.239-3.645 2.24-2.996 2.239 9.557 2.276-12.685 2.166.37 2.166-6.628 2.24 7.404 2.24 5.987 2.24-2.023 2.239-1.173 2.276 4.845 2.24-1.447 2.24.808 2.239-1.503 2.24 2.882 2.276-5.249 2.166-2.451 2.166 1.105 2.24.584 2.239-3.713 4.48-9.185 2.275 8.613 2.24-2.356 2.24.91 2.24 3.193 2.239-1.747 2.276-3.533 2.203-3.788 2.203-.451 2.24 3.504 2.239 2.081 4.479 3.062 2.276-4.172 2.24 3.097 2.24 3.565 2.239.155 2.24 5.363 2.276-10.195 2.166-13.563 2.166 2.056 2.24 8.03 2.24-5.507 2.239 3.003 2.24-3.305 2.276-3.062 2.24-2.43 2.239 10.505 2.24-3.099 2.239 7.978 2.276-9.859 2.166-4.087 2.167 3.28 2.24-.928 2.239-6.777 2.24 1.562 2.239-2.505 2.276-8.041 2.24 9.016 2.24 3.5 2.239-1.831 2.24 7.686 4.442-23.29 2.166-.263 2.24-2.073 2.24 5.74 2.239 7.332 2.24-17.089 2.276 5.316 2.24-1.369 2.239-.414 2.24-9.738 2.239 12.53 2.276-12.146 2.203-7.018 2.203-14.92 2.24-31.92 2.24 1.168 2.239 11.766 2.24-3.826 2.275 16.655 2.24 8.24 2.24 6.262 2.24 9.14 2.239 5.967 2.276-14.838 2.166 2.514 2.166-.058 2.24 1.757 2.24-2.9 2.24 3.7 2.239 5.451 2.276 1.279 2.24 10.584 2.24 7.787 2.239-.66 2.24 4.866 2.276-12.281h0" clip-path="url(#p26f2a60ca1)" style="fill:none;stroke:#ff7f0e;stroke-width:1.5;stroke-linecap:square" id="line2d_27"/><path d="M42.648 323.95H69.45l4.479-.202 2.276.135 8.811-.572 2.24.117 2.24-.925 2.276.1 2.24-1.122 6.718-1.165 2.276-.841 2.167-1.523 2.166-1.876 2.24-4.469 2.239.97 2.24-.727 2.239.088 2.276-3.802 2.24-2.44 2.24 5.468 2.239-3.451 2.24-3.985 2.276-2.927 2.203.85 2.203-2.532 2.24-3.714 2.239.012 2.24-.568 2.239-1.45 2.276-3.937 2.24 5.734 2.24-4.792 2.239-1.5 2.24 1.803 2.276-7.739 2.166-2.603 2.166-4.732 2.24 4.3 2.24-3.56 2.239 2.621 2.24-8.374 2.276-3.163 2.24 3.123 2.239-3.527 2.24-6.66 2.239-.641 4.442-19.693 2.166-1.202 2.24 8.707 2.24-2.92 2.24 2.12 2.239-3.6 2.276.572 2.24 1.88 2.24-1.106 2.239-1.779 2.24 6.018 2.276-9.084 2.166-12.42 2.166 3.402 2.24-8.255 2.239-1.67 2.24-11.716 2.24-2.281 2.275 2.725 2.24 2.233 2.24.694 2.24-4.24 2.239 3.264 2.276-16.318 2.203-4.5 2.203-4.114 2.24-.654 2.239 3.649 2.24-3.962 2.239 6.99 2.276-8.176 2.24 11.06 2.24-.697 2.239-2.918 2.24 9.816 2.276-18.439 4.332-15.275 2.24 12.876 2.24-2.042 2.239-8.353 2.24-1.808 2.276 3.936 2.24 8.893 2.239 1.571 2.24-7.864 2.239 19.439 2.276-22.409 2.166-.251 2.167 2.808 2.24 8.166 2.239-2.95 2.24 1.56 2.239-9.333 2.276-15.78 2.24 5.26 2.24-11.014 2.239 8.754 2.24 20.35 2.276-21.365 2.166-9.962 2.166-.031 2.24-4.36 2.24 4.023 2.239 8.529 2.24-22.492 2.276 18.438 2.24-2.344 2.239-8.288 2.24-9.443 2.239 25.223 2.276-26.345 2.203 1.241 2.203-18.132 2.24-51.663 2.24-4.863 2.239 18.631 2.24 3.24 2.275 14.03 2.24 7.242 2.24 17.387 2.24 8.898 2.239 8.195 2.276-23.317 2.166-5.372 2.166-7.683 2.24 11.523 2.24-.756 4.479 24.865 2.276 5.921 2.24-.408 2.24 11.68 2.239 4.279 2.24-4.615 2.276-7.47h0" clip-path="url(#p26f2a60ca1)" style="fill:none;stroke:#1f77b4;stroke-width:1.5;stroke-linecap:square" id="line2d_28"/></g></g><defs><clipPath id="p26f2a60ca1"><path d="M40.922 57.838h357.12V323.95H40.922z"/></clipPath></defs></svg>