<svg xmlns:xlink="http://www.w3.org/1999/xlink" width="700.345" height="489.969" viewBox="0 0 525.259 367.477" xmlns="http://www.w3.org/2000/svg"><defs><style>*{stroke-linejoin:round;stroke-linecap:butt}</style></defs><g id="figure_1"><path d="M0 367.477h525.259V0H0v367.477z" style="fill:none" id="patch_1"/><g id="axes_1"><path d="M32.015 323.95h357.12V57.838H32.015V323.95z" style="fill:none" id="patch_2"/><g id="matplotlib.axis_1"><g id="xtick_1"><g id="line2d_1"><defs><path id="m587676c0ea" d="M0 0v3.5" style="stroke:#b0b0b0;stroke-width:.4"/></defs><use xlink:href="#m587676c0ea" x="65.953" y="323.95" style="fill:#b0b0b0;stroke:#b0b0b0;stroke-width:.4"/></g><g style="fill:#b0b0b0" transform="matrix(.14 0 0 -.14 48.138 341.588)" id="text_1"><defs><path id="DejaVuSans-32" d="M1228 531h2203V0H469v531q359 372 979 998 621 627 780 809 303 340 423 576 121 236 121 464 0 372-261 606-261 235-680 235-297 0-627-103-329-103-704-313v638q381 153 712 231 332 78 607 78 725 0 1156-363 431-362 431-968 0-288-108-546-107-257-392-607-78-91-497-524-418-433-1181-1211z" transform="scale(.01563)"/><path id="DejaVuSans-30" d="M2034 4250q-487 0-733-480-245-479-245-1442 0-959 245-1439 246-480 733-480 491 0 736 480 246 480 246 1439 0 963-246 1442-245 480-736 480zm0 500q785 0 1199-621 414-620 414-1801 0-1178-414-1799Q2819-91 2034-91q-784 0-1198 620-414 621-414 1799 0 1181 414 1801 414 621 1198 621z" transform="scale(.01563)"/><path id="DejaVuSans-31" d="M794 531h1031v3560L703 3866v575l1116 225h631V531h1031V0H794v531z" transform="scale(.01563)"/></defs><use xlink:href="#DejaVuSans-32"/><use xlink:href="#DejaVuSans-30" x="63.623"/><use xlink:href="#DejaVuSans-31" x="127.246"/><use xlink:href="#DejaVuSans-30" x="190.869"/></g></g><g id="xtick_2"><use xlink:href="#m587676c0ea" x="119.233" y="323.95" style="fill:#b0b0b0;stroke:#b0b0b0;stroke-width:.4" id="line2d_2"/><g style="fill:#b0b0b0" transform="matrix(.14 0 0 -.14 101.418 341.588)" id="text_2"><use xlink:href="#DejaVuSans-32"/><use xlink:href="#DejaVuSans-30" x="63.623"/><use xlink:href="#DejaVuSans-31" x="127.246"/><use xlink:href="#DejaVuSans-32" x="190.869"/></g></g><g id="xtick_3"><use xlink:href="#m587676c0ea" x="172.586" y="323.95" style="fill:#b0b0b0;stroke:#b0b0b0;stroke-width:.4" id="line2d_3"/><g style="fill:#b0b0b0" transform="matrix(.14 0 0 -.14 154.77 341.588)" id="text_3"><defs><path id="DejaVuSans-34" d="M2419 4116 825 1625h1594v2491zm-166 550h794V1625h666v-525h-666V0h-628v1100H313v609l1940 2957z" transform="scale(.01563)"/></defs><use xlink:href="#DejaVuSans-32"/><use xlink:href="#DejaVuSans-30" x="63.623"/><use xlink:href="#DejaVuSans-31" x="127.246"/><use xlink:href="#DejaVuSans-34" x="190.869"/></g></g><g id="xtick_4"><use xlink:href="#m587676c0ea" x="225.866" y="323.95" style="fill:#b0b0b0;stroke:#b0b0b0;stroke-width:.4" id="line2d_4"/><g style="fill:#b0b0b0" transform="matrix(.14 0 0 -.14 208.05 341.588)" id="text_4"><defs><path id="DejaVuSans-36" d="M2113 2584q-425 0-674-291-248-290-248-796 0-503 248-796 249-292 674-292t673 292q248 293 248 796 0 506-248 796-248 291-673 291zm1253 1979v-575q-238 112-480 171-242 60-480 60-625 0-955-422-329-422-376-1275 184 272 462 417 279 145 613 145 703 0 1111-427 408-426 408-1160 0-719-425-1154Q2819-91 2113-91q-810 0-1238 620-428 621-428 1799 0 1106 525 1764t1409 658q238 0 480-47t505-140z" transform="scale(.01563)"/></defs><use xlink:href="#DejaVuSans-32"/><use xlink:href="#DejaVuSans-30" x="63.623"/><use xlink:href="#DejaVuSans-31" x="127.246"/><use xlink:href="#DejaVuSans-36" x="190.869"/></g></g><g id="xtick_5"><use xlink:href="#m587676c0ea" x="279.218" y="323.95" style="fill:#b0b0b0;stroke:#b0b0b0;stroke-width:.4" id="line2d_5"/><g style="fill:#b0b0b0" transform="matrix(.14 0 0 -.14 261.403 341.588)" id="text_5"><defs><path id="DejaVuSans-38" d="M2034 2216q-450 0-708-241-257-241-257-662 0-422 257-663 258-241 708-241t709 242q260 243 260 662 0 421-258 662-257 241-711 241zm-631 268q-406 100-633 378-226 279-226 679 0 559 398 884 399 325 1092 325 697 0 1094-325t397-884q0-400-227-679-226-278-629-378 456-106 710-416 255-309 255-755 0-679-414-1042Q2806-91 2034-91q-771 0-1186 362-414 363-414 1042 0 446 256 755 257 310 713 416zm-231 997q0-362 226-565 227-203 636-203 407 0 636 203 230 203 230 565 0 363-230 566-229 203-636 203-409 0-636-203-226-203-226-566z" transform="scale(.01563)"/></defs><use xlink:href="#DejaVuSans-32"/><use xlink:href="#DejaVuSans-30" x="63.623"/><use xlink:href="#DejaVuSans-31" x="127.246"/><use xlink:href="#DejaVuSans-38" x="190.869"/></g></g><g id="xtick_6"><use xlink:href="#m587676c0ea" x="332.498" y="323.95" style="fill:#b0b0b0;stroke:#b0b0b0;stroke-width:.4" id="line2d_6"/><g style="fill:#b0b0b0" transform="matrix(.14 0 0 -.14 314.683 341.588)" id="text_6"><use xlink:href="#DejaVuSans-32"/><use xlink:href="#DejaVuSans-30" x="63.623"/><use xlink:href="#DejaVuSans-32" x="127.246"/><use xlink:href="#DejaVuSans-30" x="190.869"/></g></g><g id="xtick_7"><use xlink:href="#m587676c0ea" x="385.851" y="323.95" style="fill:#b0b0b0;stroke:#b0b0b0;stroke-width:.4" id="line2d_7"/><g style="fill:#b0b0b0" transform="matrix(.14 0 0 -.14 368.036 341.588)" id="text_7"><use xlink:href="#DejaVuSans-32"/><use xlink:href="#DejaVuSans-30" x="63.623"/><use xlink:href="#DejaVuSans-32" x="127.246"/><use xlink:href="#DejaVuSans-32" x="190.869"/></g></g></g><g id="matplotlib.axis_2"><g id="ytick_1"><path d="M32.015 323.95h357.12" clip-path="url(#p4e4417dabf)" style="fill:none;stroke:#b0b0b0;stroke-width:.3;stroke-linecap:square" id="line2d_8"/><g id="line2d_9"><defs><path id="m107fcaf2df" d="M0 0h-3.5" style="stroke:#b0b0b0;stroke-width:.3"/></defs><use xlink:href="#m107fcaf2df" x="32.015" y="323.95" style="fill:#b0b0b0;stroke:#b0b0b0;stroke-width:.3"/></g><use xlink:href="#DejaVuSans-30" style="fill:#b0b0b0" transform="matrix(.14 0 0 -.14 16.108 329.269)" id="text_8"/></g><g id="ytick_2"><path d="M32.015 272.709h357.12" clip-path="url(#p4e4417dabf)" style="fill:none;stroke:#b0b0b0;stroke-width:.3;stroke-linecap:square" id="line2d_10"/><use xlink:href="#m107fcaf2df" x="32.015" y="272.709" style="fill:#b0b0b0;stroke:#b0b0b0;stroke-width:.3" id="line2d_11"/><g style="fill:#b0b0b0" transform="matrix(.14 0 0 -.14 16.108 278.028)" id="text_9"><defs><path id="DejaVuSans-35" d="M691 4666h2478v-532H1269V2991q137 47 274 70 138 23 276 23 781 0 1237-428 457-428 457-1159 0-753-469-1171Q2575-91 1722-91q-294 0-599 50Q819 9 494 109v635q281-153 581-228t634-75q541 0 856 284 316 284 316 772 0 487-316 771-315 285-856 285-253 0-505-56-251-56-513-175v2344z" transform="scale(.01563)"/></defs><use xlink:href="#DejaVuSans-35"/></g></g><g id="ytick_3"><path d="M32.015 221.468h357.12" clip-path="url(#p4e4417dabf)" style="fill:none;stroke:#b0b0b0;stroke-width:.3;stroke-linecap:square" id="line2d_12"/><use xlink:href="#m107fcaf2df" x="32.015" y="221.468" style="fill:#b0b0b0;stroke:#b0b0b0;stroke-width:.3" id="line2d_13"/><g style="fill:#b0b0b0" transform="matrix(.14 0 0 -.14 7.2 226.787)" id="text_10"><use xlink:href="#DejaVuSans-31"/><use xlink:href="#DejaVuSans-30" x="63.623"/></g></g><g id="ytick_4"><path d="M32.015 170.227h357.12" clip-path="url(#p4e4417dabf)" style="fill:none;stroke:#b0b0b0;stroke-width:.3;stroke-linecap:square" id="line2d_14"/><use xlink:href="#m107fcaf2df" x="32.015" y="170.227" style="fill:#b0b0b0;stroke:#b0b0b0;stroke-width:.3" id="line2d_15"/><g style="fill:#b0b0b0" transform="matrix(.14 0 0 -.14 7.2 175.545)" id="text_11"><use xlink:href="#DejaVuSans-31"/><use xlink:href="#DejaVuSans-35" x="63.623"/></g></g><g id="ytick_5"><path d="M32.015 118.985h357.12" clip-path="url(#p4e4417dabf)" style="fill:none;stroke:#b0b0b0;stroke-width:.3;stroke-linecap:square" id="line2d_16"/><use xlink:href="#m107fcaf2df" x="32.015" y="118.985" style="fill:#b0b0b0;stroke:#b0b0b0;stroke-width:.3" id="line2d_17"/><g style="fill:#b0b0b0" transform="matrix(.14 0 0 -.14 7.2 124.304)" id="text_12"><use xlink:href="#DejaVuSans-32"/><use xlink:href="#DejaVuSans-30" x="63.623"/></g></g><g id="ytick_6"><path d="M32.015 67.744h357.12" clip-path="url(#p4e4417dabf)" style="fill:none;stroke:#b0b0b0;stroke-width:.3;stroke-linecap:square" id="line2d_18"/><use xlink:href="#m107fcaf2df" x="32.015" y="67.744" style="fill:#b0b0b0;stroke:#b0b0b0;stroke-width:.3" id="line2d_19"/><g style="fill:#b0b0b0" transform="matrix(.14 0 0 -.14 7.2 73.063)" id="text_13"><use xlink:href="#DejaVuSans-32"/><use xlink:href="#DejaVuSans-35" x="63.623"/></g></g></g><path d="m32.015 283.597 1.715 10.27 2.226 5.829 2.226-2.524 2.263-2.314 2.153-11.901 2.153-5.29 2.226-.517 2.226-2.458 2.226-9.84 2.226-7.35 2.263-5.62 2.226 8.529 2.226-2.91 2.226 3.251 2.226-2.92 2.263-.33 2.153-7.486 2.153.874 2.226-10.976 2.226 2.711 2.226-.66 2.226 4.958 2.263-19.835 2.226-2.546 2.226 10.15 2.226-10.15 2.226 5.19 2.263-17.52 2.153-6.483 2.153-7.733 2.226 6.391 2.226-8.375 2.226-1.873 2.226-.11 2.263-26.778 2.226 21.764 2.226 1.377 2.226-1.035 2.226 10.622 2.262-20.496 2.19-23.745 2.19 13.166 2.226-2.777 2.226-2.512 2.226-9.102 2.226 4.804 2.262-5.95 2.226 7.978 2.227-16.574 2.226 17.257 2.226 31.34 2.262-34.05 2.153-15.81 2.153 14.156 2.227-10.667 2.226 4.055 2.226 6.194 2.226-5.202 4.488 9.642 2.226-9.972 2.226-9.158 2.227 25.687 2.262-13.554 2.153-7.52 2.153 8.181 2.226 20.684 2.226 6.755 2.226 19.89 2.227-11.956 2.262-.661 2.226 15.35 2.226 5.807 2.226-24.595 2.226 10.71 2.263-4.627 2.153 11.192 2.153-.944 2.226 2.116 2.226 16.727 2.226-12.97 2.226-4.881 2.263-11.24 2.226 21.587 2.226 14.777 2.226-4.529 2.226 16.43 2.263 8.596 2.19-.536 2.189-9.713 2.226-5.212 2.226 14.469 2.226 2.953 2.226-3.614 2.263-1.653 2.226 6.292 2.226 13.543 2.226-1.587 2.226.595 2.263-16.199 2.153 10.26 2.153-1.003 2.226 10.446 2.226-7.14 2.226-2.766 2.226 6.072 2.263-1.323 2.226 1.741 2.226 10.16 2.226-7.427 2.226 11.394 2.263-9.917 2.153.378 2.153 14.829 2.226-8.144 2.226-1.113 2.226 9.995 2.226.584 2.263-12.893 2.226 6.502 2.226-9.146 2.226 13.928 2.226-.374 2.262-2.314 2.153-7.462 2.154 6.47 2.226-4.518 2.226 8.485 2.226.055 2.226-2.7 2.262.661 2.226 2.38 2.227-8 2.226 13.466 2.226 2.072 2.262-3.967 2.19-4.207 2.19 4.538 2.225.54 4.453 7.515 2.226-1.774 2.262 4.297 2.226 1.576 2.226-.584 2.226 6.733 2.226-.121 2.263 2.314 2.153-7.049 2.153 6.388 2.226 4.617 2.226-.65 2.226.65 2.227-1.642 2.262.992 2.226-.716 2.226 3.36 2.226-.97 2.226 2.623 2.263 1.653 2.153-6.422h0" clip-path="url(#p4e4417dabf)" style="fill:none;stroke:#8c564b;stroke-width:1.5;stroke-linecap:square" id="line2d_20"/><path d="m46.977 323.95 2.226-.33 2.226.33 2.226-.33 2.263.33h6.678l2.226-.661h2.263l2.153.295 2.153.035 2.226.33 2.226-.33 2.226-.694 2.226.033 2.263-.33 4.452.66 4.452-1.322 2.263 1.323 2.153-1.535 2.153-1.11 2.226.915 2.226-.584 2.226-1.466 2.226 1.796 2.263-.33 2.226-.441 2.226.11 2.226.915 2.226-2.568 2.262 2.975 2.19-.137 2.19-4.822 2.226 2.844 2.226.793 2.226-1.135 2.226-2.832 2.262 2.314 2.226-.507 2.227 1.499 2.226-2.865 2.226-1.433 2.262 3.306 2.153 1.299 2.153-2.952 2.227.463 2.226 1.52 4.452-4.297 2.262.992 2.226 3.151 2.226-.837 2.226-2.579 2.227-1.719 2.262 2.645 2.153-1.877 2.153.885 2.226-1.642 2.226 3.626 2.226-1.235 2.227 2.226 2.262-.66 2.226-1.566 2.226 1.565 2.226-.54 2.226.54 2.263.33 2.153.13 2.153-4.427 2.226 2.06 2.226.254 2.226-2.644 2.226 1.983 2.263.33 2.226 2.127 2.226-.143 2.226-1.565 2.226-.088 2.263 1.323 2.19-2.554 2.189-1.744 2.226 2.722 2.226-2.06 2.226 1.377 2.226-.386 2.263-1.984 2.226 3.394 2.226 1.896 2.226-.87 2.226-3.097 2.263-.992 2.153-1.5 2.153 2.492 2.226 4.804 2.226-5.796 2.226 2.722 2.226-1.73 2.263-3.637 2.226 2.292 2.226.353 2.226-1.036 2.226.705 2.263-.66 2.153 4.982 2.153-4.322 2.226-.022 2.226-.308 2.226-5.499 2.226 4.507 2.263-1.322 2.226 5.014 2.226-5.345 2.226.22 2.226 4.739 2.262-1.984 2.153-8.489 2.154 1.547 2.226.088 2.226 6.524 2.226-2.766 2.226-2.524 2.262-.33 2.226-1.587 2.227-1.058 2.226 1.058 2.226 4.562 2.262-11.901 2.19 4.23 2.19 2.712 2.225-7.46 2.227-4.11 2.226 5.818 2.226-1.19 2.262 2.645 2.226 1.961 2.226-1.961 2.226-1.797 2.226 8.408 2.263-9.256 2.153 1.63 2.153 4.32 2.226-3.052 2.226 1.4 2.226-2.425 2.227 4.739 2.262-1.984 2.226 2.37 2.226 1.267 2.226.44 2.226 5.18 2.263-8.926 2.153 3.624h0" clip-path="url(#p4e4417dabf)" style="fill:none;stroke:#9467bd;stroke-width:1.5;stroke-linecap:square" id="line2d_21"/><path d="m91.462 323.95 2.263-.33 2.153.33h22.224l2.262-.33 2.19.33 2.19-.33 2.226.33h2.226l2.226-.342 2.226.342h22.188l2.226-.342 2.226.011 2.262.33h6.678l2.227-.33h2.262l2.153.33 2.153-.33 2.226.33 2.226-.33 2.226.33h8.941l2.226-.34 2.226.34h2.263l2.153-.365 2.153.035 2.226-1.036 2.226-1.94 2.226-3.867 2.226-8.694 2.263-21.489 2.226 13.103 2.226.12 2.226 4.32 2.226.97 2.263-2.975 2.19 4.15 2.189-1.836 2.226 2.083 2.226-.1 2.226-4.341 2.226 3.68 2.263.662 2.226-4.342 2.226 3.68 2.226-2.314 2.226 5.62 2.263-.33 2.153-2.362 2.153.378 2.226-1.598 2.226 1.598 2.226 2.16 2.226-4.474 2.263.661 2.226-3.702 2.226 3.041 2.226-3.383 2.226 10.656 2.263-7.273 2.153 1.57 2.153-3.884 2.226 6.105 2.226-2.469 2.226 1.444 2.226-2.105 2.263-5.29 2.226-2.853 2.226.54 2.226 6.292 2.226 7.262 2.262-12.232 2.153 3.896 2.154-1.251 2.226 6.424 2.226.188 2.226-1.554 2.226-4.397 2.262 3.967 2.226 1.113 2.227-6.733 2.226 2.975 2.226.331 2.262-4.628 2.19-1.003 2.19 4.97 2.225-5.477 2.227 3.493 2.226-.76 2.226 4.727 2.262 4.298 2.226-2.193 2.226 3.515 2.226-.099 2.226-.231 2.263-.661 2.153-2.622 2.153-.023 2.226.121 2.226.87 2.226.155 2.227 2.49 2.262-1.653 2.226 3.945 2.226-2.953 2.226-.121 2.226 3.427 2.263-6.612 2.153-4.404h0" clip-path="url(#p4e4417dabf)" style="fill:none;stroke:#d62728;stroke-width:1.5;stroke-linecap:square" id="line2d_22"/><g style="fill:#1f77b4" transform="matrix(.14 0 0 -.14 399.849 168.234)" id="text_14"><defs><path id="DejaVuSans-67" d="M2906 1791q0 625-258 968-257 344-723 344-462 0-720-344-258-343-258-968 0-622 258-966t720-344q466 0 723 344 258 344 258 966zm575-1357q0-893-397-1329-396-436-1215-436-303 0-572 45t-522 139v559q253-137 500-202 247-66 503-66 566 0 847 295t281 892v285q-178-310-456-463T1784 0Q1141 0 747 490 353 981 353 1791q0 812 394 1302 394 491 1037 491 388 0 666-153t456-462v531h575V434z" transform="scale(.01563)"/><path id="DejaVuSans-6f" d="M1959 3097q-462 0-731-361t-269-989q0-628 267-989 268-361 733-361 460 0 728 362 269 363 269 988 0 622-269 986-268 364-728 364zm0 487q750 0 1178-488 429-487 429-1349 0-859-429-1349Q2709-91 1959-91q-753 0-1180 489-426 490-426 1349 0 862 426 1349 427 488 1180 488z" transform="scale(.01563)"/><path id="DejaVuSans-6c" d="M603 4863h575V0H603v4863z" transform="scale(.01563)"/><path id="DejaVuSans-65" d="M3597 1894v-281H953q38-594 358-905t892-311q331 0 642 81t618 244V178Q3153 47 2828-22t-659-69q-838 0-1327 487-489 488-489 1320 0 859 464 1363 464 505 1252 505 706 0 1117-455 411-454 411-1235zm-575 169q-6 471-264 752-258 282-683 282-481 0-770-272t-333-766l2050 4z" transform="scale(.01563)"/><path id="DejaVuSans-2d" d="M313 2009h1684v-512H313v512z" transform="scale(.01563)"/><path id="DejaVuSans-63" d="M3122 3366v-538q-244 135-489 202t-495 67q-560 0-870-355-309-354-309-995t309-996q310-354 870-354 250 0 495 67t489 202V134Q2881 22 2623-34q-257-57-548-57-791 0-1257 497-465 497-465 1341 0 856 470 1346 471 491 1290 491 265 0 518-55 253-54 491-163z" transform="scale(.01563)"/><path id="DejaVuSans-68" d="M3513 2113V0h-575v2094q0 497-194 743-194 247-581 247-466 0-735-297-269-296-269-809V0H581v4863h578V2956q207 316 486 472 280 156 646 156 603 0 912-373 310-373 310-1098z" transform="scale(.01563)"/><path id="DejaVuSans-72" d="M2631 2963q-97 56-211 82-114 27-251 27-488 0-749-317t-261-911V0H581v3500h578v-544q182 319 472 473 291 155 707 155 59 0 131-8 72-7 159-23l3-590z" transform="scale(.01563)"/><path id="DejaVuSans-6d" d="M3328 2828q216 388 516 572t706 184q547 0 844-383 297-382 297-1088V0h-578v2094q0 503-179 746-178 244-543 244-447 0-707-297-259-296-259-809V0h-578v2094q0 506-178 748t-550 242q-441 0-701-298-259-298-259-808V0H581v3500h578v-544q197 322 472 475t653 153q382 0 649-194 267-193 395-562z" transform="scale(.01563)"/></defs><use xlink:href="#DejaVuSans-67"/><use xlink:href="#DejaVuSans-6f" x="63.477"/><use xlink:href="#DejaVuSans-6f" x="124.658"/><use xlink:href="#DejaVuSans-67" x="185.84"/><use xlink:href="#DejaVuSans-6c" x="249.316"/><use xlink:href="#DejaVuSans-65" x="277.1"/><use xlink:href="#DejaVuSans-2d" x="338.623"/><use xlink:href="#DejaVuSans-63" x="374.707"/><use xlink:href="#DejaVuSans-68" x="429.688"/><use xlink:href="#DejaVuSans-72" x="493.066"/><use xlink:href="#DejaVuSans-6f" x="531.93"/><use xlink:href="#DejaVuSans-6d" x="593.111"/><use xlink:href="#DejaVuSans-65" x="690.523"/></g><g style="fill:#ff7f0e" transform="matrix(.14 0 0 -.14 399.849 273.054)" id="text_15"><defs><path id="DejaVuSans-66" d="M2375 4863v-479h-550q-309 0-430-125-120-125-120-450v-309h947v-447h-947V0H697v3053H147v447h550v244q0 584 272 851 272 268 862 268h544z" transform="scale(.01563)"/><path id="DejaVuSans-69" d="M603 3500h575V0H603v3500zm0 1363h575v-729H603v729z" transform="scale(.01563)"/><path id="DejaVuSans-78" d="M3513 3500 2247 1797 3578 0h-678L1881 1375 863 0H184l1360 1831L300 3500h678l928-1247 928 1247h679z" transform="scale(.01563)"/></defs><use xlink:href="#DejaVuSans-66"/><use xlink:href="#DejaVuSans-69" x="35.205"/><use xlink:href="#DejaVuSans-72" x="62.988"/><use xlink:href="#DejaVuSans-65" x="101.852"/><use xlink:href="#DejaVuSans-66" x="163.375"/><use xlink:href="#DejaVuSans-6f" x="198.58"/><use xlink:href="#DejaVuSans-78" x="256.637"/></g><g style="fill:#2ca02c" transform="matrix(.14 0 0 -.14 399.849 287.054)" id="text_16"><defs><path id="DejaVuSans-73" d="M2834 3397v-544q-243 125-506 187-262 63-544 63-428 0-642-131t-214-394q0-200 153-314t616-217l197-44q612-131 870-370t258-667q0-488-386-773Q2250-91 1575-91q-281 0-586 55T347 128v594q319-166 628-249 309-82 613-82 406 0 624 139 219 139 219 392 0 234-158 359-157 125-692 241l-200 47q-534 112-772 345-237 233-237 639 0 494 350 762 350 269 994 269 318 0 599-47 282-46 519-140z" transform="scale(.01563)"/><path id="DejaVuSans-61" d="M2194 1759q-697 0-966-159t-269-544q0-306 202-486 202-179 548-179 479 0 768 339t289 901v128h-572zm1147 238V0h-575v531q-197-318-491-470T1556-91q-537 0-855 302-317 302-317 808 0 590 395 890 396 300 1180 300h807v57q0 397-261 614t-733 217q-300 0-585-72-284-72-546-216v532q315 122 612 182 297 61 578 61 760 0 1135-394 375-393 375-1193z" transform="scale(.01563)"/></defs><use xlink:href="#DejaVuSans-73"/><use xlink:href="#DejaVuSans-61" x="52.1"/><use xlink:href="#DejaVuSans-66" x="113.379"/><use xlink:href="#DejaVuSans-61" x="148.584"/><use xlink:href="#DejaVuSans-72" x="209.863"/><use xlink:href="#DejaVuSans-69" x="250.977"/></g><g style="fill:#d62728" transform="matrix(.14 0 0 -.14 399.849 301.054)" id="text_17"><defs><path id="DejaVuSans-74" d="M1172 4494v-994h1184v-447H1172V1153q0-428 117-550t477-122h590V0h-590q-666 0-919 248-253 249-253 905v1900H172v447h422v994h578z" transform="scale(.01563)"/><path id="DejaVuSans-64" d="M2906 2969v1894h575V0h-575v525q-181-312-458-464-276-152-664-152-634 0-1033 506-398 507-398 1332t398 1331q399 506 1033 506 388 0 664-152 277-151 458-463zM947 1747q0-634 261-995t717-361q456 0 718 361 263 361 263 995t-263 995q-262 361-718 361t-717-361q-261-361-261-995z" transform="scale(.01563)"/></defs><use xlink:href="#DejaVuSans-6d"/><use xlink:href="#DejaVuSans-69" x="97.412"/><use xlink:href="#DejaVuSans-63" x="125.195"/><use xlink:href="#DejaVuSans-72" x="180.176"/><use xlink:href="#DejaVuSans-6f" x="219.039"/><use xlink:href="#DejaVuSans-73" x="280.221"/><use xlink:href="#DejaVuSans-6f" x="332.32"/><use xlink:href="#DejaVuSans-66" x="393.502"/><use xlink:href="#DejaVuSans-74" x="426.957"/><use xlink:href="#DejaVuSans-2d" x="466.166"/><use xlink:href="#DejaVuSans-65" x="502.25"/><use xlink:href="#DejaVuSans-64" x="563.773"/><use xlink:href="#DejaVuSans-67" x="627.25"/><use xlink:href="#DejaVuSans-65" x="690.727"/></g><g style="fill:#9467bd" transform="matrix(.14 0 0 -.14 399.849 315.054)" id="text_18"><defs><path id="DejaVuSans-75" d="M544 1381v2119h575V1403q0-497 193-746 194-248 582-248 465 0 735 297 271 297 271 810v1984h575V0h-575v538q-209-319-486-474-276-155-642-155-603 0-916 375-312 375-312 1097zm1447 2203z" transform="scale(.01563)"/></defs><use xlink:href="#DejaVuSans-63"/><use xlink:href="#DejaVuSans-68" x="54.98"/><use xlink:href="#DejaVuSans-72" x="118.359"/><use xlink:href="#DejaVuSans-6f" x="157.223"/><use xlink:href="#DejaVuSans-6d" x="218.404"/><use xlink:href="#DejaVuSans-69" x="315.816"/><use xlink:href="#DejaVuSans-75" x="343.6"/><use xlink:href="#DejaVuSans-6d" x="406.979"/></g><g style="fill:#8c564b" transform="matrix(.14 0 0 -.14 399.849 329.054)" id="text_19"><defs><path id="DejaVuSans-6e" d="M3513 2113V0h-575v2094q0 497-194 743-194 247-581 247-466 0-735-297-269-296-269-809V0H581v3500h578v-544q207 316 486 472 280 156 646 156 603 0 912-373 310-373 310-1098z" transform="scale(.01563)"/><path id="DejaVuSans-70" d="M1159 525v-1856H581v4831h578v-531q182 312 458 463 277 152 661 152 638 0 1036-506 399-506 399-1331T3314 415Q2916-91 2278-91q-384 0-661 152-276 152-458 464zm1957 1222q0 634-261 995t-717 361q-457 0-718-361t-261-995q0-634 261-995t718-361q456 0 717 361t261 995z" transform="scale(.01563)"/></defs><use xlink:href="#DejaVuSans-69"/><use xlink:href="#DejaVuSans-6e" x="27.783"/><use xlink:href="#DejaVuSans-74" x="91.162"/><use xlink:href="#DejaVuSans-65" x="130.371"/><use xlink:href="#DejaVuSans-72" x="191.895"/><use xlink:href="#DejaVuSans-6e" x="231.258"/><use xlink:href="#DejaVuSans-65" x="294.637"/><use xlink:href="#DejaVuSans-74" x="356.16"/><use xlink:href="#DejaVuSans-2d" x="395.369"/><use xlink:href="#DejaVuSans-65" x="431.453"/><use xlink:href="#DejaVuSans-78" x="491.227"/><use xlink:href="#DejaVuSans-70" x="550.406"/><use xlink:href="#DejaVuSans-6c" x="613.883"/><use xlink:href="#DejaVuSans-6f" x="641.666"/><use xlink:href="#DejaVuSans-72" x="702.848"/><use xlink:href="#DejaVuSans-65" x="741.711"/><use xlink:href="#DejaVuSans-72" x="803.234"/></g><g style="fill:#b0b0b0" transform="matrix(.09716 0 0 -.09716 32.015 357.986)" id="text_20"><defs><path id="DejaVuSans-40" d="M2381 1678q0-447 222-702 222-254 610-254 384 0 604 256 221 256 221 700 0 438-225 695-225 258-607 258-378 0-602-256-223-256-223-697zm1703-934q-187-241-429-355t-564-114q-538 0-874 389t-336 1014q0 625 337 1015 338 391 873 391 322 0 565-117 244-117 428-354v409h447V722q457 69 714 417 258 349 258 902 0 334-99 628-98 294-298 544-325 409-792 626t-1017 217q-384 0-738-102-353-101-653-301-490-319-767-836-276-517-276-1120 0-497 179-932 180-434 521-765 328-325 759-495 431-171 922-171 403 0 792 136t714 389l281-347q-390-303-851-464t-936-161q-578 0-1091 205-512 205-912 595Q841 78 631 592q-209 514-209 1105 0 569 212 1084 213 516 607 907 403 396 931 607t1119 211q662 0 1229-272 568-271 952-771 234-307 357-666 124-359 124-744 0-822-497-1297T4084 263v481z" transform="scale(.01563)"/><path id="DejaVuSans-2f" d="M1625 4666h531L531-594H0l1625 5260z" transform="scale(.01563)"/><path id="DejaVuSans-7c" d="M1344 4891v-6400H813v6400h531z" transform="scale(.01563)"/><path id="DejaVuSans-4e" d="M628 4666h850L3547 763v3903h612V0h-850L1241 3903V0H628v4666z" transform="scale(.01563)"/><path id="DejaVuSans-53" d="M3425 4513v-616q-359 172-678 256-319 85-616 85-515 0-795-200t-280-569q0-310 186-468 186-157 705-254l381-78q706-135 1042-474t336-907q0-679-455-1029Q2797-91 1919-91q-331 0-705 75-373 75-773 222v650q384-215 753-325 369-109 725-109 540 0 834 212 294 213 294 607 0 343-211 537t-692 291l-385 75q-706 140-1022 440-315 300-315 835 0 619 436 975t1201 356q329 0 669-60 341-59 697-177z" transform="scale(.01563)"/><path id="DejaVuSans-f6" d="M1959 3097q-462 0-731-361t-269-989q0-628 267-989 268-361 733-361 460 0 728 362 269 363 269 988 0 622-269 986-268 364-728 364zm0 487q750 0 1178-488 429-487 429-1349 0-859-429-1349Q2709-91 1959-91q-753 0-1180 489-426 490-426 1349 0 862 426 1349 427 488 1180 488zm295 1266h634v-631h-634v631zm-1222 0h634v-631h-634v631z" transform="scale(.01563)"/><path id="DejaVuSans-43" d="M4122 4306v-665q-319 297-680 443-361 147-767 147-800 0-1225-489t-425-1414q0-922 425-1411t1225-489q406 0 767 147t680 444V359q-331-225-702-338-370-112-782-112-1060 0-1670 648-609 649-609 1771 0 1125 609 1773 610 649 1670 649 418 0 788-111 371-111 696-333z" transform="scale(.01563)"/><path id="DejaVuSans-42" d="M1259 2228V519h1013q509 0 754 211 246 211 246 645 0 438-246 645-245 208-754 208H1259zm0 1919V2741h935q462 0 688 173 227 174 227 530 0 353-227 528-226 175-688 175h-935zm-631 519h1613q722 0 1112-300 391-300 391-853 0-429-200-682t-588-315q466-100 724-418 258-317 258-792 0-625-425-966Q3088 0 2303 0H628v4666z" transform="scale(.01563)"/><path id="DejaVuSans-59" d="M-13 4666h679l1293-1919 1285 1919h678L2272 2222V0h-634v2222L-13 4666z" transform="scale(.01563)"/></defs><use xlink:href="#DejaVuSans-40"/><use xlink:href="#DejaVuSans-6e" x="100"/><use xlink:href="#DejaVuSans-73" x="163.379"/><use xlink:href="#DejaVuSans-63" x="215.479"/><use xlink:href="#DejaVuSans-68" x="270.459"/><use xlink:href="#DejaVuSans-6c" x="333.838"/><use xlink:href="#DejaVuSans-6f" x="361.621"/><use xlink:href="#DejaVuSans-65" x="422.803"/><use xlink:href="#DejaVuSans-20" x="484.326"/><use xlink:href="#DejaVuSans-2f" x="516.113"/><use xlink:href="#DejaVuSans-20" x="549.805"/><use xlink:href="#DejaVuSans-73" x="581.592"/><use xlink:href="#DejaVuSans-6f" x="633.691"/><use xlink:href="#DejaVuSans-2d" x="696.748"/><use xlink:href="#DejaVuSans-74" x="732.832"/><use xlink:href="#DejaVuSans-72" x="772.041"/><use xlink:href="#DejaVuSans-65" x="810.904"/><use xlink:href="#DejaVuSans-6e" x="872.428"/><use xlink:href="#DejaVuSans-64" x="935.807"/><use xlink:href="#DejaVuSans-73" x="999.283"/><use xlink:href="#DejaVuSans-20" x="1051.383"/><use xlink:href="#DejaVuSans-7c" x="1083.17"/><use xlink:href="#DejaVuSans-20" x="1116.861"/><use xlink:href="#DejaVuSans-4e" x="1148.648"/><use xlink:href="#DejaVuSans-69" x="1223.453"/><use xlink:href="#DejaVuSans-63" x="1251.236"/><use xlink:href="#DejaVuSans-6f" x="1306.217"/><use xlink:href="#DejaVuSans-20" x="1367.398"/><use xlink:href="#DejaVuSans-53" x="1399.186"/><use xlink:href="#DejaVuSans-63" x="1462.662"/><use xlink:href="#DejaVuSans-68" x="1517.643"/><use xlink:href="#DejaVuSans-6c" x="1581.021"/><use xlink:href="#DejaVuSans-f6" x="1608.805"/><use xlink:href="#DejaVuSans-6d" x="1669.986"/><use xlink:href="#DejaVuSans-65" x="1767.398"/><use xlink:href="#DejaVuSans-72" x="1828.922"/><use xlink:href="#DejaVuSans-20" x="1870.035"/><use xlink:href="#DejaVuSans-7c" x="1901.822"/><use xlink:href="#DejaVuSans-20" x="1935.514"/><use xlink:href="#DejaVuSans-43" x="1967.301"/><use xlink:href="#DejaVuSans-43" x="2037.125"/><use xlink:href="#DejaVuSans-20" x="2106.949"/><use xlink:href="#DejaVuSans-42" x="2138.736"/><use xlink:href="#DejaVuSans-59" x="2201.84"/></g><g style="fill:#b0b0b0" transform="matrix(.14 0 0 -.14 54.43 17.838)" id="text_21"><defs><path id="DejaVuSans-44" d="M1259 4147V519h763q966 0 1414 437 448 438 448 1382 0 937-448 1373t-1414 436h-763zm-631 519h1297q1356 0 1990-564 635-564 635-1764 0-1207-638-1773Q3275 0 1925 0H628v4666z" transform="scale(.01563)"/><path id="DejaVuSans-79" d="M2059-325q-243-625-475-815-231-191-618-191H506v481h338q237 0 368 113 132 112 291 531l103 262L191 3500h609L1894 763l1094 2737h609L2059-325z" transform="scale(.01563)"/><path id="DejaVuSans-62" d="M3116 1747q0 634-261 995t-717 361q-457 0-718-361t-261-995q0-634 261-995t718-361q456 0 717 361t261 995zM1159 2969q182 312 458 463 277 152 661 152 638 0 1036-506 399-506 399-1331T3314 415Q2916-91 2278-91q-384 0-661 152-276 152-458 464V0H581v4863h578V2969z" transform="scale(.01563)"/><path id="DejaVuSans-71" d="M947 1747q0-634 261-995t717-361q456 0 718 361 263 361 263 995t-263 995q-262 361-718 361t-717-361q-261-361-261-995zM2906 525q-181-312-458-464-276-152-664-152-634 0-1033 506-398 507-398 1332t398 1331q399 506 1033 506 388 0 664-152 277-151 458-463v531h575v-4831h-575V525z" transform="scale(.01563)"/><path id="DejaVuSans-6b" d="M581 4863h578V1991l1716 1509h734L1753 1863 3688 0h-750L1159 1709V0H581v4863z" transform="scale(.01563)"/><path id="DejaVuSans-4f" d="M2522 4238q-688 0-1093-513-404-512-404-1397 0-881 404-1394 405-512 1093-512 687 0 1089 512 402 513 402 1394 0 885-402 1397-402 513-1089 513zm0 512q981 0 1568-658 588-658 588-1764 0-1103-588-1761Q3503-91 2522-91q-984 0-1574 656-589 657-589 1763t589 1764q590 658 1574 658z" transform="scale(.01563)"/><path id="DejaVuSans-76" d="M191 3500h609L1894 563l1094 2937h609L2284 0h-781L191 3500z" transform="scale(.01563)"/><path id="DejaVuSans-77" d="M269 3500h575l719-2731 715 2731h678l719-2731 716 2731h575L4050 0h-678l-753 2869L1863 0h-679L269 3500z" transform="scale(.01563)"/></defs><use xlink:href="#DejaVuSans-44"/><use xlink:href="#DejaVuSans-61" x="77.002"/><use xlink:href="#DejaVuSans-69" x="138.281"/><use xlink:href="#DejaVuSans-6c" x="166.064"/><use xlink:href="#DejaVuSans-79" x="193.848"/><use xlink:href="#DejaVuSans-20" x="253.027"/><use xlink:href="#DejaVuSans-6e" x="284.814"/><use xlink:href="#DejaVuSans-75" x="348.193"/><use xlink:href="#DejaVuSans-6d" x="411.572"/><use xlink:href="#DejaVuSans-62" x="508.984"/><use xlink:href="#DejaVuSans-65" x="572.461"/><use xlink:href="#DejaVuSans-72" x="633.984"/><use xlink:href="#DejaVuSans-20" x="675.098"/><use xlink:href="#DejaVuSans-6f" x="706.885"/><use xlink:href="#DejaVuSans-66" x="768.066"/><use xlink:href="#DejaVuSans-20" x="803.271"/><use xlink:href="#DejaVuSans-71" x="835.059"/><use xlink:href="#DejaVuSans-75" x="898.535"/><use xlink:href="#DejaVuSans-65" x="961.914"/><use xlink:href="#DejaVuSans-73" x="1023.438"/><use xlink:href="#DejaVuSans-74" x="1075.537"/><use xlink:href="#DejaVuSans-69" x="1114.746"/><use xlink:href="#DejaVuSans-6f" x="1142.529"/><use xlink:href="#DejaVuSans-6e" x="1203.711"/><use xlink:href="#DejaVuSans-73" x="1267.09"/><use xlink:href="#DejaVuSans-20" x="1319.189"/><use xlink:href="#DejaVuSans-6f" x="1350.977"/><use xlink:href="#DejaVuSans-6e" x="1412.158"/><use xlink:href="#DejaVuSans-20" x="1475.537"/><use xlink:href="#DejaVuSans-53" x="1507.324"/><use xlink:href="#DejaVuSans-74" x="1570.801"/><use xlink:href="#DejaVuSans-61" x="1610.01"/><use xlink:href="#DejaVuSans-63" x="1671.289"/><use xlink:href="#DejaVuSans-6b" x="1726.27"/><use xlink:href="#DejaVuSans-4f" x="1784.18"/><use xlink:href="#DejaVuSans-76" x="1862.891"/><use xlink:href="#DejaVuSans-65" x="1922.07"/><use xlink:href="#DejaVuSans-72" x="1983.594"/><use xlink:href="#DejaVuSans-66" x="2024.707"/><use xlink:href="#DejaVuSans-6c" x="2059.912"/><use xlink:href="#DejaVuSans-6f" x="2087.695"/><use xlink:href="#DejaVuSans-77" x="2148.877"/></g><path d="m32.015 319.466 1.715-.144 2.226-1.521 2.226 2.182 2.263-1.323 2.153-.566 2.153-1.087 2.226.452 2.226-1.443 2.226-5.73 2.226 3.416h2.263l2.226 1.024 2.226-1.686 2.226-5.829 2.226 5.168 2.263 1.323 2.153-4.759 2.153-.53 2.226-1.544 2.226 1.213 2.226-16.585 2.226 8.32 2.263-1.984 4.452 7.604 2.226-6.425 2.226 6.755 2.263-8.925 2.153-2.539 2.153-3.412 2.226 1.631 2.226-5.598 2.226-1.234 2.226 4.87 2.263-3.636 2.226 5.598 2.226-4.606 2.226.165 2.226 6.447 2.262-9.257 2.19 1.573 2.19-9.507 2.226 7.67 2.226.264 2.226-.264 2.226-5.356 2.262 2.975 2.226-1.035 2.227-4.915 2.226 7.306 2.226 5.256 2.262-7.603 2.153.59 2.153-3.566 2.227 1.907 2.226 5.366 2.226-.584 2.226-1.4 2.262-3.966 2.226-9.665 2.226-.914 2.226 1.94 2.227 7.647 2.262-3.637 2.153-4.84 2.153 2.196 2.226 3.074 2.226 4.86 2.226-2.127 2.227 2.457 2.262 3.967 2.226-5.058 2.226-2.545 2.226-.187 2.226 5.807 2.263-6.612 2.153 2.952 2.153-.638 2.226-.143 2.226.474 2.226-6.281 2.226 3.306 2.263-5.62 2.226-7.593 2.226.32 2.226 15.052 2.226-2.82 2.263-.331 2.19.16 2.189-2.144 2.226-4.088 2.226 8.055 2.226-1.564 2.226 8.507 2.263-9.918 2.226-3.372 2.226 3.703 2.226 4.154 2.226 4.44 2.263-5.288 2.153-6.79 2.153 3.484 2.226 1.08 2.226 3.217 2.226 3.956 2.226-2.964 2.263-8.265 2.226-.044 2.226 1.367 2.226 4.782 2.226 9.764 2.263-4.629 2.153-9.917 2.153 18.843 2.226.628 2.226 5.653 2.226-11.802 2.226-.099 4.489-12.54 2.226 4.276 2.226.165 2.226 14.05 2.262-9.587 2.153-.803 2.154 2.456 2.226-.992 4.452-.683 2.226-2.623 2.262-5.95 2.226 6.865 2.227-9.84 2.226 3.008 2.226 8.562 2.262-2.314 2.19-7.98 2.19 2.03 2.225-12.596 2.227.363 2.226 5.444 2.226-6.105 2.262 17.521 2.226-13.124 2.226 8.827 2.226 4.496 2.226 8.727 2.263-13.223 2.153 6.765 2.153-8.749 2.226 5.113 2.226 3.482 2.226-.066 2.227 9.323 2.262-.992 2.226-10.039 2.226 6.072 2.226 4.176 2.226-2.854 2.263 1.653h0" clip-path="url(#p4e4417dabf)" style="fill:none;stroke:#2ca02c;stroke-width:1.5;stroke-linecap:square" id="line2d_23"/><path d="m32.015 290.643 1.715 15.124 2.226-.264 2.226-2.38 2.263 1.983 2.153-4.947 2.153-5.962 2.226-2.358 2.226-.948 2.226-5.201 2.226-10.337 2.263 8.265 2.226-.32 2.226-8.275 2.226-5.047 2.226 12.65 2.263-14.876 2.153-1.263 2.153 5.23 2.226 1.675 2.226-14.237 2.226 14.92 2.226-5.994 2.263-3.306 2.226 2.126 2.226-5.432 2.226-2.083 2.226 11.009 2.263-19.174 2.153-9.623 2.153-21.122 2.226 9.532 2.226-4.904 2.226 1.488 2.226-7.108 2.263.992 2.226 2.7 2.226 4.242 2.226 5.664 2.226 7.23 2.262-15.87 2.19-22.057 2.19 11.48 2.226-.596 2.226-.066 4.452-10.91 2.262 4.629 2.226-.485 2.227-.176 2.226 5.983 2.226 10.546 2.262-18.843 2.153-12.126 2.153 15.431 2.227-10.38 2.226-.86 2.226 4.96 2.226-10.249 2.262 2.645 2.226-8.11 2.226-16.684 2.226 8.826 2.227 19.604 2.262-11.24 2.153-7.12 2.153-.483 2.226-1.444 2.226 4.419 2.226 8.22 2.227-6.898 2.262 21.158 2.226-9.135 2.226 9.135 2.226-4.011 2.226-3.262 2.263.992 2.153-2.22 2.153 4.534 2.226 2.005 2.226-7.295 2.226-.903 2.226 8.176 2.263 7.273 2.226 3.34 2.226 1.95 2.226 1.465 2.226-1.796 2.263-9.917 2.19 4.092 2.189-3.431 2.226 14.127 2.226 5.708 2.226.782 2.226 15.417 2.263-18.183 2.226 16.089 2.226-.22 2.226-6.27 2.226 18.17 2.263-17.851 2.153 1.535 2.153-6.494 2.226 17.62 2.226-5.057 2.226-5.532 2.226 14.788 2.263-1.984 2.226.518 2.226 2.127 2.226-19.207 2.226 28.464 2.263-12.232 2.153 10.78 2.153 6.41 2.226 2.105 2.226-9.377 2.226 5.62 2.226 12.231 2.263-28.76 2.226 3.89 2.226 5.696 2.226 2.502 2.226-2.832 2.262 3.636 2.153-2.586 2.154 7.214 2.226-5.432 2.226 4.11 2.226 4.771 2.226-22.623 2.262 13.554 2.226 8.728 2.227-5.422 2.226-3.46 2.226-2.16 2.262 2.645 2.19-14.785 2.19 16.438 2.225-16.827 4.453 7.174 2.226 10.645 2.262 6.611 2.226-13.157 2.226 20.43 2.226-6.424 2.226 2.457 2.263-8.595 2.153 6.919 2.153-5.266 2.226 9.609 2.226-3.99 2.226-5.917 2.227 13.852 2.262.992 2.226-.155 2.226-3.482 2.226 1.433 2.226 4.848 2.263.331 2.153-4.935h0" clip-path="url(#p4e4417dabf)" style="fill:none;stroke:#ff7f0e;stroke-width:1.5;stroke-linecap:square" id="line2d_24"/><path d="m32.015 316.904 1.715 3.74 2.226-.452 2.226 1.113 2.263-.33 2.153-1.783 4.38 1 2.225-2.523 2.226 1.498 2.226-.837 2.263-1.984 2.226-1.278 2.226-5.664 2.226 2.931 2.226-10.204 2.263-4.959 2.153.425 2.153.567 2.226-4.276 2.226-6.633 2.226-3.273 2.226 4.926 2.263-5.951 2.226 2.05 2.226-14.943 2.226 1.962 2.226-12.871 2.263-1.653 2.153-32.008 2.153-1.051 2.226 16.155 2.226-16.486 2.226-11.868 2.226 5.587 2.263-4.959 2.226 13.72 2.226-5.124 2.226-15.031 2.226 14.37 2.262-26.448 2.19-14.944 2.19-4.56 2.226-11.802 2.226 16.43 2.226-15.405 2.226-13.026 2.262-8.264 2.226 37.687 2.227-23.141 2.226-26.05 2.226 28.364 2.262-33.39 2.153 9.564 2.153-16.175 2.227 7.195 2.226-5.542 4.452-9.918 2.262 2.314 2.226-8.033 2.226-33.29 2.226 30.215 2.227 16.067 2.262-52.233 2.153-3.07 2.153 11.335 2.226 8.088 2.226 24.64 2.226-1.069 2.227-9.84 2.262 15.537 2.226-24.144 4.452 36.894 2.226 29.565 2.263-58.844 2.153 4.805 2.153 6.104 2.226-17.499 2.226 5.929 2.226-15.836 2.226 11.538 2.263 16.53 2.226-24.651 2.226 16.716 2.226 23.935 2.226-10.38 2.263-3.637 2.19-24.361 2.189 3.864 2.226 19.141 2.226 7.637 2.226-1.488 2.226 18.017 2.263-16.529 2.226 2.612 2.226 20.86 2.226-10.612 2.226 16.232 2.263-16.199 2.153-12.185 2.153 12.185 2.226-8.232 2.226-1.355 2.226 6.48 2.226-6.81 2.263-16.53 2.226 15.14 2.226 21.225 2.226-22.932 2.226 30.866 2.263-13.885 2.153 28.135 4.379 4.758 2.226-1.157 2.226 10.722 2.226-.473 2.263-31.406 2.226-3.648 2.226-3.295 4.452 38.349 2.262-21.489 2.153-23.105 2.154-12.598 2.226 13.257 2.226 29.058 2.226 3.053 2.226-20.574 2.262.661 2.226-4 2.227-8.893 2.226-10.237 4.488 20.155 2.19-26.15 2.19-3.272 2.225-52.222 2.227 14.535 2.226 5.62 2.226 9.256 2.262 29.753 2.226.959 2.226 42.017 2.226-11.614 2.226 1.036 2.263-18.513 2.153 3.837 2.153-7.804 2.226 2.997 2.226 40.31 2.226-8.882 2.227 12.518 2.262 5.62 2.226-9.598 2.226 7.615 2.226-18.546 2.226 29.124 2.263-15.537 2.153-8.17h0" clip-path="url(#p4e4417dabf)" style="fill:none;stroke:#1f77b4;stroke-width:1.5;stroke-linecap:square" id="line2d_25"/></g></g><defs><clipPath id="p4e4417dabf"><path d="M32.015 57.838h357.12V323.95H32.015z"/></clipPath></defs></svg>