<svg xmlns:xlink="http://www.w3.org/1999/xlink" width="629.811" height="489.969" viewBox="0 0 472.359 367.477" xmlns="http://www.w3.org/2000/svg"><defs><style>*{stroke-linejoin:round;stroke-linecap:butt}</style></defs><g id="figure_1"><path d="M0 367.477h472.359V0H0v367.477z" style="fill:none" id="patch_1"/><g id="axes_1"><path d="M32.015 323.95h357.12V57.838H32.015V323.95z" style="fill:none" id="patch_2"/><g id="matplotlib.axis_1"><g id="xtick_1"><g id="line2d_1"><defs><path id="me9a611361f" d="M0 0v3.5" style="stroke:#b0b0b0;stroke-width:.4"/></defs><use xlink:href="#me9a611361f" x="65.542" y="323.95" style="fill:#b0b0b0;stroke:#b0b0b0;stroke-width:.4"/></g><g style="fill:#b0b0b0" transform="matrix(.14 0 0 -.14 47.727 341.588)" id="text_1"><defs><path id="DejaVuSans-32" d="M1228 531h2203V0H469v531q359 372 979 998 621 627 780 809 303 340 423 576 121 236 121 464 0 372-261 606-261 235-680 235-297 0-627-103-329-103-704-313v638q381 153 712 231 332 78 607 78 725 0 1156-363 431-362 431-968 0-288-108-546-107-257-392-607-78-91-497-524-418-433-1181-1211z" transform="scale(.01563)"/><path id="DejaVuSans-30" d="M2034 4250q-487 0-733-480-245-479-245-1442 0-959 245-1439 246-480 733-480 491 0 736 480 246 480 246 1439 0 963-246 1442-245 480-736 480zm0 500q785 0 1199-621 414-620 414-1801 0-1178-414-1799Q2819-91 2034-91q-784 0-1198 620-414 621-414 1799 0 1181 414 1801 414 621 1198 621z" transform="scale(.01563)"/><path id="DejaVuSans-31" d="M794 531h1031v3560L703 3866v575l1116 225h631V531h1031V0H794v531z" transform="scale(.01563)"/></defs><use xlink:href="#DejaVuSans-32"/><use xlink:href="#DejaVuSans-30" x="63.623"/><use xlink:href="#DejaVuSans-31" x="127.246"/><use xlink:href="#DejaVuSans-30" x="190.869"/></g></g><g id="xtick_2"><use xlink:href="#me9a611361f" x="118.177" y="323.95" style="fill:#b0b0b0;stroke:#b0b0b0;stroke-width:.4" id="line2d_2"/><g style="fill:#b0b0b0" transform="matrix(.14 0 0 -.14 100.362 341.588)" id="text_2"><use xlink:href="#DejaVuSans-32"/><use xlink:href="#DejaVuSans-30" x="63.623"/><use xlink:href="#DejaVuSans-31" x="127.246"/><use xlink:href="#DejaVuSans-32" x="190.869"/></g></g><g id="xtick_3"><use xlink:href="#me9a611361f" x="170.883" y="323.95" style="fill:#b0b0b0;stroke:#b0b0b0;stroke-width:.4" id="line2d_3"/><g style="fill:#b0b0b0" transform="matrix(.14 0 0 -.14 153.068 341.588)" id="text_3"><defs><path id="DejaVuSans-34" d="M2419 4116 825 1625h1594v2491zm-166 550h794V1625h666v-525h-666V0h-628v1100H313v609l1940 2957z" transform="scale(.01563)"/></defs><use xlink:href="#DejaVuSans-32"/><use xlink:href="#DejaVuSans-30" x="63.623"/><use xlink:href="#DejaVuSans-31" x="127.246"/><use xlink:href="#DejaVuSans-34" x="190.869"/></g></g><g id="xtick_4"><use xlink:href="#me9a611361f" x="223.517" y="323.95" style="fill:#b0b0b0;stroke:#b0b0b0;stroke-width:.4" id="line2d_4"/><g style="fill:#b0b0b0" transform="matrix(.14 0 0 -.14 205.702 341.588)" id="text_4"><defs><path id="DejaVuSans-36" d="M2113 2584q-425 0-674-291-248-290-248-796 0-503 248-796 249-292 674-292t673 292q248 293 248 796 0 506-248 796-248 291-673 291zm1253 1979v-575q-238 112-480 171-242 60-480 60-625 0-955-422-329-422-376-1275 184 272 462 417 279 145 613 145 703 0 1111-427 408-426 408-1160 0-719-425-1154Q2819-91 2113-91q-810 0-1238 620-428 621-428 1799 0 1106 525 1764t1409 658q238 0 480-47t505-140z" transform="scale(.01563)"/></defs><use xlink:href="#DejaVuSans-32"/><use xlink:href="#DejaVuSans-30" x="63.623"/><use xlink:href="#DejaVuSans-31" x="127.246"/><use xlink:href="#DejaVuSans-36" x="190.869"/></g></g><g id="xtick_5"><use xlink:href="#me9a611361f" x="276.224" y="323.95" style="fill:#b0b0b0;stroke:#b0b0b0;stroke-width:.4" id="line2d_5"/><g style="fill:#b0b0b0" transform="matrix(.14 0 0 -.14 258.409 341.588)" id="text_5"><defs><path id="DejaVuSans-38" d="M2034 2216q-450 0-708-241-257-241-257-662 0-422 257-663 258-241 708-241t709 242q260 243 260 662 0 421-258 662-257 241-711 241zm-631 268q-406 100-633 378-226 279-226 679 0 559 398 884 399 325 1092 325 697 0 1094-325t397-884q0-400-227-679-226-278-629-378 456-106 710-416 255-309 255-755 0-679-414-1042Q2806-91 2034-91q-771 0-1186 362-414 363-414 1042 0 446 256 755 257 310 713 416zm-231 997q0-362 226-565 227-203 636-203 407 0 636 203 230 203 230 565 0 363-230 566-229 203-636 203-409 0-636-203-226-203-226-566z" transform="scale(.01563)"/></defs><use xlink:href="#DejaVuSans-32"/><use xlink:href="#DejaVuSans-30" x="63.623"/><use xlink:href="#DejaVuSans-31" x="127.246"/><use xlink:href="#DejaVuSans-38" x="190.869"/></g></g><g id="xtick_6"><use xlink:href="#me9a611361f" x="328.858" y="323.95" style="fill:#b0b0b0;stroke:#b0b0b0;stroke-width:.4" id="line2d_6"/><g style="fill:#b0b0b0" transform="matrix(.14 0 0 -.14 311.043 341.588)" id="text_6"><use xlink:href="#DejaVuSans-32"/><use xlink:href="#DejaVuSans-30" x="63.623"/><use xlink:href="#DejaVuSans-32" x="127.246"/><use xlink:href="#DejaVuSans-30" x="190.869"/></g></g><g id="xtick_7"><use xlink:href="#me9a611361f" x="381.564" y="323.95" style="fill:#b0b0b0;stroke:#b0b0b0;stroke-width:.4" id="line2d_7"/><g style="fill:#b0b0b0" transform="matrix(.14 0 0 -.14 363.75 341.588)" id="text_7"><use xlink:href="#DejaVuSans-32"/><use xlink:href="#DejaVuSans-30" x="63.623"/><use xlink:href="#DejaVuSans-32" x="127.246"/><use xlink:href="#DejaVuSans-32" x="190.869"/></g></g></g><g id="matplotlib.axis_2"><g id="ytick_1"><path d="M32.015 323.95h357.12" clip-path="url(#p94661c1798)" style="fill:none;stroke:#b0b0b0;stroke-width:.3;stroke-linecap:square" id="line2d_8"/><g id="line2d_9"><defs><path id="m0d6ca60549" d="M0 0h-3.5" style="stroke:#b0b0b0;stroke-width:.3"/></defs><use xlink:href="#m0d6ca60549" x="32.015" y="323.95" style="fill:#b0b0b0;stroke:#b0b0b0;stroke-width:.3"/></g><use xlink:href="#DejaVuSans-30" style="fill:#b0b0b0" transform="matrix(.14 0 0 -.14 16.108 329.269)" id="text_8"/></g><g id="ytick_2"><path d="M32.015 283.832h357.12" clip-path="url(#p94661c1798)" style="fill:none;stroke:#b0b0b0;stroke-width:.3;stroke-linecap:square" id="line2d_10"/><use xlink:href="#m0d6ca60549" x="32.015" y="283.832" style="fill:#b0b0b0;stroke:#b0b0b0;stroke-width:.3" id="line2d_11"/><use xlink:href="#DejaVuSans-32" style="fill:#b0b0b0" transform="matrix(.14 0 0 -.14 16.108 289.151)" id="text_9"/></g><g id="ytick_3"><path d="M32.015 243.715h357.12" clip-path="url(#p94661c1798)" style="fill:none;stroke:#b0b0b0;stroke-width:.3;stroke-linecap:square" id="line2d_12"/><use xlink:href="#m0d6ca60549" x="32.015" y="243.715" style="fill:#b0b0b0;stroke:#b0b0b0;stroke-width:.3" id="line2d_13"/><use xlink:href="#DejaVuSans-34" style="fill:#b0b0b0" transform="matrix(.14 0 0 -.14 16.108 249.034)" id="text_10"/></g><g id="ytick_4"><path d="M32.015 203.598h357.12" clip-path="url(#p94661c1798)" style="fill:none;stroke:#b0b0b0;stroke-width:.3;stroke-linecap:square" id="line2d_14"/><use xlink:href="#m0d6ca60549" x="32.015" y="203.598" style="fill:#b0b0b0;stroke:#b0b0b0;stroke-width:.3" id="line2d_15"/><use xlink:href="#DejaVuSans-36" style="fill:#b0b0b0" transform="matrix(.14 0 0 -.14 16.108 208.917)" id="text_11"/></g><g id="ytick_5"><path d="M32.015 163.48h357.12" clip-path="url(#p94661c1798)" style="fill:none;stroke:#b0b0b0;stroke-width:.3;stroke-linecap:square" id="line2d_16"/><use xlink:href="#m0d6ca60549" x="32.015" y="163.48" style="fill:#b0b0b0;stroke:#b0b0b0;stroke-width:.3" id="line2d_17"/><use xlink:href="#DejaVuSans-38" style="fill:#b0b0b0" transform="matrix(.14 0 0 -.14 16.108 168.8)" id="text_12"/></g><g id="ytick_6"><path d="M32.015 123.363h357.12" clip-path="url(#p94661c1798)" style="fill:none;stroke:#b0b0b0;stroke-width:.3;stroke-linecap:square" id="line2d_18"/><use xlink:href="#m0d6ca60549" x="32.015" y="123.363" style="fill:#b0b0b0;stroke:#b0b0b0;stroke-width:.3" id="line2d_19"/><g style="fill:#b0b0b0" transform="matrix(.14 0 0 -.14 7.2 128.682)" id="text_13"><use xlink:href="#DejaVuSans-31"/><use xlink:href="#DejaVuSans-30" x="63.623"/></g></g><g id="ytick_7"><path d="M32.015 83.245h357.12" clip-path="url(#p94661c1798)" style="fill:none;stroke:#b0b0b0;stroke-width:.3;stroke-linecap:square" id="line2d_20"/><use xlink:href="#m0d6ca60549" x="32.015" y="83.245" style="fill:#b0b0b0;stroke:#b0b0b0;stroke-width:.3" id="line2d_21"/><g style="fill:#b0b0b0" transform="matrix(.14 0 0 -.14 7.2 88.564)" id="text_14"><use xlink:href="#DejaVuSans-31"/><use xlink:href="#DejaVuSans-32" x="63.623"/></g></g></g><path d="m32.015 320.189 1.694 1.82 2.2-.734 2.199 1.38 2.235.648 2.127-2.219 2.127.925 2.199 1.272 2.199-1.272 2.2-4.745 2.198 4.745 2.235-.647 2.2-.087 2.199-2.502 2.199-.84 2.199 2.782 2.235-2.589 2.127 2.242 2.127.994 2.199-2.093 2.2-1.143 2.198 1.812 2.2-4.4 2.234 5.177 2.2-.108 2.199 1.402 2.199-7.42 2.199 3.537 2.235 1.294 2.127-.485 2.127-1.456 2.2 1.79 2.198 1.446 2.2-6.795 2.198 7.442 2.236-4.53 2.199 1.1 2.199.841 2.199-2.178 2.199-1.057 2.235-3.882 2.163 7.452 4.362-3.182 2.2-.388 2.199 1.726 2.199-1.079 2.235-5.176 2.199 5.586 2.2-4.292 2.198 4.96 2.2-.43 2.234-3.883 2.127-1.179 2.127 3.12 2.2-4.982 4.398 6.017 2.199-4.27 2.235-2.588 2.2 5.521 2.198.302 2.2 1.035 2.198-.388 2.236-1.294 2.127 1.11 2.127-3.698 2.199 6.945 2.199-9.533 2.199 5.521 2.199-1.64 2.235 5.177 2.2-2.868 2.198.927 2.2 3.084 2.199-3.084 2.235-2.588 2.127-1.11 2.127-2.772 2.199 6.211 2.199.906 2.199-3.58 2.2 4.874 2.234-1.294 2.2-1.574 2.198 1.574 2.2 1.769 2.199.172 2.235-1.294 2.163 3.012 2.163-5.6 2.2-.97 2.198 3.558 2.2-6.233 2.198 4.94 2.236 4.529 2.199-1.446 2.199-2.437 2.199 1.769 2.199-2.416 2.235 1.294 2.127-.693 2.127.046 2.2 2.437 2.198.151 2.2-4.162 2.199 2.868 2.235 2.589 2.199.56 2.199-5.737 2.199-2.286 2.2 5.521 2.234-1.94h4.254l2.2 5.78 2.198-2.546 2.2-1.466 2.199-.475 2.235-2.588 2.199 5.737 2.199-3.149 2.2 4.487 2.198-3.84 2.235.647 2.127-.485 2.127 1.132 2.2.54 2.199-.54 2.199-.798 2.199 2.74 2.235-1.294 2.199-2.783 2.2.194 2.198 1.143 2.2.798 2.235-1.294 2.163-1.048 4.362 2.213 2.199-1.165 2.199 1.165 2.199-1.165 2.235 1.294 2.2 1.877 2.198-1.877 2.2 1.877 2.199-3.17 2.235 3.235 2.127-.925 2.127 1.572 2.199-1.38 2.199.733 2.2-.065 2.198-3.818 2.235 2.589 2.2-.108 2.199.108 2.199.56 2.199-1.208 2.235 1.942 2.127-.925 2.127-2.958 2.199 1.143h0" clip-path="url(#p94661c1798)" style="fill:none;stroke:#e377c2;stroke-width:1.5;stroke-linecap:square" id="line2d_22"/><path d="m154.336 323.95 2.199-.669 2.199.022h2.235l2.2.647 2.198-1.294 2.2-1.38 2.198 1.38 2.236 1.294h2.127l2.127-2.588 2.199 1.92 2.199-.626 2.199-.043 2.199.043 2.235.647 2.2.647 2.198-.647 2.2-2.028 2.199 1.38h2.235l2.127-.854 2.127 1.502 2.199-.69 2.199-1.251 2.199-.087 2.2 1.38 2.234-.646 2.2 1.272 2.198.022 2.2-1.36 2.199 1.36 2.235-3.236 2.163 3.883 2.163-3.883 2.2 2.546 2.198.043 2.2-.712 2.198 1.359 2.236-3.236 2.199 1.877 2.199.712 2.199.625 2.199-1.272 2.235-1.294 2.127 1.086 2.127-1.086 2.2 1.229 2.198.712 2.2-1.38 2.199.733 2.235-1.294 2.199 2.566 2.199-2.566 2.199-1.446 2.2 2.74 2.234-1.294 2.127.37 2.127-2.312 2.2 3.17 2.198-1.876 2.2 1.208 2.199-2.502 2.235 1.942 2.199-.108 2.199-2.48 2.2 3.148 2.198-2.502 2.235.647 2.127-1.201 2.127 1.201 2.2-.15 2.199 2.092 2.199-3.43 2.199.841 2.235-1.294 2.199-.215 2.2 4.745 2.198-9.426 2.2 5.543 2.235-.647 2.163 3.012 2.163-5.6 2.199.367 2.199 2.221 2.199-.215 2.199-1.079 2.235 5.177 2.2-4.098 2.198 2.803 2.2-6.815 2.199 6.815 2.235-3.882 2.127 1.317 2.127-2.611 2.199-1.64 2.199 1.64 2.2 3.041 2.198-4.335 2.235 5.176 2.2.496 2.199-1.143 2.199 1.812 2.199-.518 2.235 2.589 2.127-5.94 2.127-2.472 2.199 5.004" clip-path="url(#p94661c1798)" style="fill:none;stroke:#8c564b;stroke-width:1.5;stroke-linecap:square" id="line2d_23"/><path d="m35.908 323.95 4.435-1.294 2.127 1.294 2.127-.647 2.199-2.028 2.199.734 2.2.604 2.198-3.193 2.235.647 2.2-.798 2.199-.496 2.199 3.17 2.199.713h2.235l2.127-3.004 2.127 3.004 2.199-2.718 2.2.13 2.198-.799 2.2 4.034 2.234-3.236 2.2-.129 2.199.13 2.199-.799 2.199-1.79 2.235 1.941 2.127 1.664 2.127-2.958 2.2-1.531 2.198 3.472 2.2-2.135 2.198-1.1 2.236.647 2.199 1.122 2.199-1.769 2.199 2.437 2.199-1.79 2.235 1.941 2.163-5.154 2.163 3.213 2.2 2.46 2.198-4.4 2.2.387 2.199 2.2h2.235l2.199-5.543 2.2-.28 2.198 3.623 2.2-3.623 2.234.647 2.127.254 2.127-.901 2.2 2.286 2.199-3.58 2.199.906 2.199 1.682h2.235l2.2-10.375 2.198 9.728 2.2 8.325 2.198-14.796 2.236-1.94 2.127 3.65 2.127-.416 2.199-2.545 2.199 1.898 2.199 6.126 2.199-.95 2.235 2.589 2.2-.302 2.198.95 2.2.387 2.199-3.623 2.235 5.823 2.127-2.773 2.127-6.285 2.199 2.178 2.199-1.531 2.199 2.868 2.2-1.574 2.234 5.823 2.2-1.574 2.198-1.014 2.2-4.335 2.199 5.63 2.235 1.293 2.163-2.566 2.163-3.257 2.2 3.58 2.198 4.831 2.2-4.83 2.198-1.64 2.236 3.882 2.199-6.255 2.199 5.608 2.199 3.084 6.561-5.349 2.127.324 2.2 2.351 2.198-4.292 2.2 3.623 2.199.26 2.235-1.942 2.199 3.688 2.199.194 2.199-1.531 2.2-2.998 2.234 1.941 2.127-.901 2.127-1.687 2.2 5.65 2.198-8.885 2.2 10.223 2.199-3.106h2.235l2.199 3.775 2.199-.54 2.2-2.135 2.198-.453 4.362-4.991 2.127.462 2.2 1.64 2.199 2.242 2.199-.237 2.199-1.057 2.235-1.294 2.199-2.33 2.2 1.036 2.198-1.035 2.2 4.27 2.235-1.941 2.163 2.097 2.163.491 2.199-3.58 2.199 5.521 2.199-.172 2.199.172 2.235.647 2.2-2.156 2.198.862 2.2-1.531 2.199.237 2.235 1.941 2.127-9.867 2.127 8.573 2.199-.215 2.199 2.803 2.2-.798 2.198.151 2.235-1.294 2.2-2.868 2.199 2.221 2.199 3.796 2.199.734 2.235-2.589 2.127-2.634 2.127 1.987h0" clip-path="url(#p94661c1798)" style="fill:none;stroke:#9467bd;stroke-width:1.5;stroke-linecap:square" id="line2d_24"/><g style="fill:#1f77b4" transform="matrix(.14 0 0 -.14 399.849 104.493)" id="text_15"><defs><path id="DejaVuSans-63" d="M3122 3366v-538q-244 135-489 202t-495 67q-560 0-870-355-309-354-309-995t309-996q310-354 870-354 250 0 495 67t489 202V134Q2881 22 2623-34q-257-57-548-57-791 0-1257 497-465 497-465 1341 0 856 470 1346 471 491 1290 491 265 0 518-55 253-54 491-163z" transform="scale(.01563)"/><path id="DejaVuSans-6d" d="M3328 2828q216 388 516 572t706 184q547 0 844-383 297-382 297-1088V0h-578v2094q0 503-179 746-178 244-543 244-447 0-707-297-259-296-259-809V0h-578v2094q0 506-178 748t-550 242q-441 0-701-298-259-298-259-808V0H581v3500h578v-544q197 322 472 475t653 153q382 0 649-194 267-193 395-562z" transform="scale(.01563)"/><path id="DejaVuSans-61" d="M2194 1759q-697 0-966-159t-269-544q0-306 202-486 202-179 548-179 479 0 768 339t289 901v128h-572zm1147 238V0h-575v531q-197-318-491-470T1556-91q-537 0-855 302-317 302-317 808 0 590 395 890 396 300 1180 300h807v57q0 397-261 614t-733 217q-300 0-585-72-284-72-546-216v532q315 122 612 182 297 61 578 61 760 0 1135-394 375-393 375-1193z" transform="scale(.01563)"/><path id="DejaVuSans-6b" d="M581 4863h578V1991l1716 1509h734L1753 1863 3688 0h-750L1159 1709V0H581v4863z" transform="scale(.01563)"/><path id="DejaVuSans-65" d="M3597 1894v-281H953q38-594 358-905t892-311q331 0 642 81t618 244V178Q3153 47 2828-22t-659-69q-838 0-1327 487-489 488-489 1320 0 859 464 1363 464 505 1252 505 706 0 1117-455 411-454 411-1235zm-575 169q-6 471-264 752-258 282-683 282-481 0-770-272t-333-766l2050 4z" transform="scale(.01563)"/></defs><use xlink:href="#DejaVuSans-63"/><use xlink:href="#DejaVuSans-6d" x="54.98"/><use xlink:href="#DejaVuSans-61" x="152.393"/><use xlink:href="#DejaVuSans-6b" x="213.672"/><use xlink:href="#DejaVuSans-65" x="267.957"/></g><g style="fill:#ff7f0e" transform="matrix(.14 0 0 -.14 399.849 222.84)" id="text_16"><defs><path id="DejaVuSans-66" d="M2375 4863v-479h-550q-309 0-430-125-120-125-120-450v-309h947v-447h-947V0H697v3053H147v447h550v244q0 584 272 851 272 268 862 268h544z" transform="scale(.01563)"/><path id="DejaVuSans-69" d="M603 3500h575V0H603v3500zm0 1363h575v-729H603v729z" transform="scale(.01563)"/><path id="DejaVuSans-6c" d="M603 4863h575V0H603v4863z" transform="scale(.01563)"/></defs><use xlink:href="#DejaVuSans-6d"/><use xlink:href="#DejaVuSans-61" x="97.412"/><use xlink:href="#DejaVuSans-6b" x="158.691"/><use xlink:href="#DejaVuSans-65" x="212.977"/><use xlink:href="#DejaVuSans-66" x="274.5"/><use xlink:href="#DejaVuSans-69" x="309.705"/><use xlink:href="#DejaVuSans-6c" x="337.488"/><use xlink:href="#DejaVuSans-65" x="365.271"/></g><g style="fill:#2ca02c" transform="matrix(.14 0 0 -.14 399.849 291.056)" id="text_17"><defs><path id="DejaVuSans-62" d="M3116 1747q0 634-261 995t-717 361q-457 0-718-361t-261-995q0-634 261-995t718-361q456 0 717 361t261 995zM1159 2969q182 312 458 463 277 152 661 152 638 0 1036-506 399-506 399-1331T3314 415Q2916-91 2278-91q-384 0-661 152-276 152-458 464V0H581v4863h578V2969z" transform="scale(.01563)"/><path id="DejaVuSans-7a" d="M353 3500h2731v-525L922 459h2162V0H275v525l2163 2516H353v459z" transform="scale(.01563)"/></defs><use xlink:href="#DejaVuSans-62"/><use xlink:href="#DejaVuSans-61" x="63.477"/><use xlink:href="#DejaVuSans-7a" x="124.756"/><use xlink:href="#DejaVuSans-65" x="177.246"/><use xlink:href="#DejaVuSans-6c" x="238.77"/></g><g style="fill:#d62728" transform="matrix(.14 0 0 -.14 399.849 333.056)" id="text_18"><defs><path id="DejaVuSans-77" d="M269 3500h575l719-2731 715 2731h678l719-2731 716 2731h575L4050 0h-678l-753 2869L1863 0h-679L269 3500z" transform="scale(.01563)"/></defs><use xlink:href="#DejaVuSans-77"/><use xlink:href="#DejaVuSans-61" x="81.787"/><use xlink:href="#DejaVuSans-66" x="143.066"/></g><g style="fill:#9467bd" transform="matrix(.14 0 0 -.14 399.849 319.056)" id="text_19"><defs><path id="DejaVuSans-71" d="M947 1747q0-634 261-995t717-361q456 0 718 361 263 361 263 995t-263 995q-262 361-718 361t-717-361q-261-361-261-995zM2906 525q-181-312-458-464-276-152-664-152-634 0-1033 506-398 507-398 1332t398 1331q399 506 1033 506 388 0 664-152 277-151 458-463v531h575v-4831h-575V525z" transform="scale(.01563)"/></defs><use xlink:href="#DejaVuSans-71"/><use xlink:href="#DejaVuSans-6d" x="63.477"/><use xlink:href="#DejaVuSans-61" x="160.889"/><use xlink:href="#DejaVuSans-6b" x="222.168"/><use xlink:href="#DejaVuSans-65" x="276.453"/></g><g style="fill:#8c564b" transform="matrix(.14 0 0 -.14 399.849 305.056)" id="text_20"><defs><path id="DejaVuSans-6e" d="M3513 2113V0h-575v2094q0 497-194 743-194 247-581 247-466 0-735-297-269-296-269-809V0H581v3500h578v-544q207 316 486 472 280 156 646 156 603 0 912-373 310-373 310-1098z" transform="scale(.01563)"/><path id="DejaVuSans-6a" d="M603 3500h575V-63q0-668-255-968-254-300-820-300h-219v487H38q328 0 446 152Q603-541 603-63v3563zm0 1363h575v-729H603v729z" transform="scale(.01563)"/></defs><use xlink:href="#DejaVuSans-6e"/><use xlink:href="#DejaVuSans-69" x="63.379"/><use xlink:href="#DejaVuSans-6e" x="91.162"/><use xlink:href="#DejaVuSans-6a" x="154.541"/><use xlink:href="#DejaVuSans-61" x="182.324"/></g><g style="fill:#e377c2" transform="matrix(.14 0 0 -.14 399.849 347.056)" id="text_21"><defs><path id="DejaVuSans-75" d="M544 1381v2119h575V1403q0-497 193-746 194-248 582-248 465 0 735 297 271 297 271 810v1984h575V0h-575v538q-209-319-486-474-276-155-642-155-603 0-916 375-312 375-312 1097zm1447 2203z" transform="scale(.01563)"/><path id="DejaVuSans-74" d="M1172 4494v-994h1184v-447H1172V1153q0-428 117-550t477-122h590V0h-590q-666 0-919 248-253 249-253 905v1900H172v447h422v994h578z" transform="scale(.01563)"/><path id="DejaVuSans-6f" d="M1959 3097q-462 0-731-361t-269-989q0-628 267-989 268-361 733-361 460 0 728 362 269 363 269 988 0 622-269 986-268 364-728 364zm0 487q750 0 1178-488 429-487 429-1349 0-859-429-1349Q2709-91 1959-91q-753 0-1180 489-426 490-426 1349 0 862 426 1349 427 488 1180 488z" transform="scale(.01563)"/><path id="DejaVuSans-73" d="M2834 3397v-544q-243 125-506 187-262 63-544 63-428 0-642-131t-214-394q0-200 153-314t616-217l197-44q612-131 870-370t258-667q0-488-386-773Q2250-91 1575-91q-281 0-586 55T347 128v594q319-166 628-249 309-82 613-82 406 0 624 139 219 139 219 392 0 234-158 359-157 125-692 241l-200 47q-534 112-772 345-237 233-237 639 0 494 350 762 350 269 994 269 318 0 599-47 282-46 519-140z" transform="scale(.01563)"/></defs><use xlink:href="#DejaVuSans-61"/><use xlink:href="#DejaVuSans-75" x="61.279"/><use xlink:href="#DejaVuSans-74" x="124.658"/><use xlink:href="#DejaVuSans-6f" x="163.867"/><use xlink:href="#DejaVuSans-74" x="225.049"/><use xlink:href="#DejaVuSans-6f" x="264.258"/><use xlink:href="#DejaVuSans-6f" x="325.439"/><use xlink:href="#DejaVuSans-6c" x="386.621"/><use xlink:href="#DejaVuSans-73" x="414.404"/></g><g style="fill:#b0b0b0" transform="matrix(.09716 0 0 -.09716 32.015 357.986)" id="text_22"><defs><path id="DejaVuSans-40" d="M2381 1678q0-447 222-702 222-254 610-254 384 0 604 256 221 256 221 700 0 438-225 695-225 258-607 258-378 0-602-256-223-256-223-697zm1703-934q-187-241-429-355t-564-114q-538 0-874 389t-336 1014q0 625 337 1015 338 391 873 391 322 0 565-117 244-117 428-354v409h447V722q457 69 714 417 258 349 258 902 0 334-99 628-98 294-298 544-325 409-792 626t-1017 217q-384 0-738-102-353-101-653-301-490-319-767-836-276-517-276-1120 0-497 179-932 180-434 521-765 328-325 759-495 431-171 922-171 403 0 792 136t714 389l281-347q-390-303-851-464t-936-161q-578 0-1091 205-512 205-912 595Q841 78 631 592q-209 514-209 1105 0 569 212 1084 213 516 607 907 403 396 931 607t1119 211q662 0 1229-272 568-271 952-771 234-307 357-666 124-359 124-744 0-822-497-1297T4084 263v481z" transform="scale(.01563)"/><path id="DejaVuSans-68" d="M3513 2113V0h-575v2094q0 497-194 743-194 247-581 247-466 0-735-297-269-296-269-809V0H581v4863h578V2956q207 316 486 472 280 156 646 156 603 0 912-373 310-373 310-1098z" transform="scale(.01563)"/><path id="DejaVuSans-2f" d="M1625 4666h531L531-594H0l1625 5260z" transform="scale(.01563)"/><path id="DejaVuSans-2d" d="M313 2009h1684v-512H313v512z" transform="scale(.01563)"/><path id="DejaVuSans-72" d="M2631 2963q-97 56-211 82-114 27-251 27-488 0-749-317t-261-911V0H581v3500h578v-544q182 319 472 473 291 155 707 155 59 0 131-8 72-7 159-23l3-590z" transform="scale(.01563)"/><path id="DejaVuSans-64" d="M2906 2969v1894h575V0h-575v525q-181-312-458-464-276-152-664-152-634 0-1033 506-398 507-398 1332t398 1331q399 506 1033 506 388 0 664-152 277-151 458-463zM947 1747q0-634 261-995t717-361q456 0 718 361 263 361 263 995t-263 995q-262 361-718 361t-717-361q-261-361-261-995z" transform="scale(.01563)"/><path id="DejaVuSans-7c" d="M1344 4891v-6400H813v6400h531z" transform="scale(.01563)"/><path id="DejaVuSans-4e" d="M628 4666h850L3547 763v3903h612V0h-850L1241 3903V0H628v4666z" transform="scale(.01563)"/><path id="DejaVuSans-53" d="M3425 4513v-616q-359 172-678 256-319 85-616 85-515 0-795-200t-280-569q0-310 186-468 186-157 705-254l381-78q706-135 1042-474t336-907q0-679-455-1029Q2797-91 1919-91q-331 0-705 75-373 75-773 222v650q384-215 753-325 369-109 725-109 540 0 834 212 294 213 294 607 0 343-211 537t-692 291l-385 75q-706 140-1022 440-315 300-315 835 0 619 436 975t1201 356q329 0 669-60 341-59 697-177z" transform="scale(.01563)"/><path id="DejaVuSans-f6" d="M1959 3097q-462 0-731-361t-269-989q0-628 267-989 268-361 733-361 460 0 728 362 269 363 269 988 0 622-269 986-268 364-728 364zm0 487q750 0 1178-488 429-487 429-1349 0-859-429-1349Q2709-91 1959-91q-753 0-1180 489-426 490-426 1349 0 862 426 1349 427 488 1180 488zm295 1266h634v-631h-634v631zm-1222 0h634v-631h-634v631z" transform="scale(.01563)"/><path id="DejaVuSans-43" d="M4122 4306v-665q-319 297-680 443-361 147-767 147-800 0-1225-489t-425-1414q0-922 425-1411t1225-489q406 0 767 147t680 444V359q-331-225-702-338-370-112-782-112-1060 0-1670 648-609 649-609 1771 0 1125 609 1773 610 649 1670 649 418 0 788-111 371-111 696-333z" transform="scale(.01563)"/><path id="DejaVuSans-42" d="M1259 2228V519h1013q509 0 754 211 246 211 246 645 0 438-246 645-245 208-754 208H1259zm0 1919V2741h935q462 0 688 173 227 174 227 530 0 353-227 528-226 175-688 175h-935zm-631 519h1613q722 0 1112-300 391-300 391-853 0-429-200-682t-588-315q466-100 724-418 258-317 258-792 0-625-425-966Q3088 0 2303 0H628v4666z" transform="scale(.01563)"/><path id="DejaVuSans-59" d="M-13 4666h679l1293-1919 1285 1919h678L2272 2222V0h-634v2222L-13 4666z" transform="scale(.01563)"/></defs><use xlink:href="#DejaVuSans-40"/><use xlink:href="#DejaVuSans-6e" x="100"/><use xlink:href="#DejaVuSans-73" x="163.379"/><use xlink:href="#DejaVuSans-63" x="215.479"/><use xlink:href="#DejaVuSans-68" x="270.459"/><use xlink:href="#DejaVuSans-6c" x="333.838"/><use xlink:href="#DejaVuSans-6f" x="361.621"/><use xlink:href="#DejaVuSans-65" x="422.803"/><use xlink:href="#DejaVuSans-20" x="484.326"/><use xlink:href="#DejaVuSans-2f" x="516.113"/><use xlink:href="#DejaVuSans-20" x="549.805"/><use xlink:href="#DejaVuSans-73" x="581.592"/><use xlink:href="#DejaVuSans-6f" x="633.691"/><use xlink:href="#DejaVuSans-2d" x="696.748"/><use xlink:href="#DejaVuSans-74" x="732.832"/><use xlink:href="#DejaVuSans-72" x="772.041"/><use xlink:href="#DejaVuSans-65" x="810.904"/><use xlink:href="#DejaVuSans-6e" x="872.428"/><use xlink:href="#DejaVuSans-64" x="935.807"/><use xlink:href="#DejaVuSans-73" x="999.283"/><use xlink:href="#DejaVuSans-20" x="1051.383"/><use xlink:href="#DejaVuSans-7c" x="1083.17"/><use xlink:href="#DejaVuSans-20" x="1116.861"/><use xlink:href="#DejaVuSans-4e" x="1148.648"/><use xlink:href="#DejaVuSans-69" x="1223.453"/><use xlink:href="#DejaVuSans-63" x="1251.236"/><use xlink:href="#DejaVuSans-6f" x="1306.217"/><use xlink:href="#DejaVuSans-20" x="1367.398"/><use xlink:href="#DejaVuSans-53" x="1399.186"/><use xlink:href="#DejaVuSans-63" x="1462.662"/><use xlink:href="#DejaVuSans-68" x="1517.643"/><use xlink:href="#DejaVuSans-6c" x="1581.021"/><use xlink:href="#DejaVuSans-f6" x="1608.805"/><use xlink:href="#DejaVuSans-6d" x="1669.986"/><use xlink:href="#DejaVuSans-65" x="1767.398"/><use xlink:href="#DejaVuSans-72" x="1828.922"/><use xlink:href="#DejaVuSans-20" x="1870.035"/><use xlink:href="#DejaVuSans-7c" x="1901.822"/><use xlink:href="#DejaVuSans-20" x="1935.514"/><use xlink:href="#DejaVuSans-43" x="1967.301"/><use xlink:href="#DejaVuSans-43" x="2037.125"/><use xlink:href="#DejaVuSans-20" x="2106.949"/><use xlink:href="#DejaVuSans-42" x="2138.736"/><use xlink:href="#DejaVuSans-59" x="2201.84"/></g><g style="fill:#b0b0b0" transform="matrix(.14 0 0 -.14 54.43 17.838)" id="text_23"><defs><path id="DejaVuSans-44" d="M1259 4147V519h763q966 0 1414 437 448 438 448 1382 0 937-448 1373t-1414 436h-763zm-631 519h1297q1356 0 1990-564 635-564 635-1764 0-1207-638-1773Q3275 0 1925 0H628v4666z" transform="scale(.01563)"/><path id="DejaVuSans-79" d="M2059-325q-243-625-475-815-231-191-618-191H506v481h338q237 0 368 113 132 112 291 531l103 262L191 3500h609L1894 763l1094 2737h609L2059-325z" transform="scale(.01563)"/><path id="DejaVuSans-4f" d="M2522 4238q-688 0-1093-513-404-512-404-1397 0-881 404-1394 405-512 1093-512 687 0 1089 512 402 513 402 1394 0 885-402 1397-402 513-1089 513zm0 512q981 0 1568-658 588-658 588-1764 0-1103-588-1761Q3503-91 2522-91q-984 0-1574 656-589 657-589 1763t589 1764q590 658 1574 658z" transform="scale(.01563)"/><path id="DejaVuSans-76" d="M191 3500h609L1894 563l1094 2937h609L2284 0h-781L191 3500z" transform="scale(.01563)"/></defs><use xlink:href="#DejaVuSans-44"/><use xlink:href="#DejaVuSans-61" x="77.002"/><use xlink:href="#DejaVuSans-69" x="138.281"/><use xlink:href="#DejaVuSans-6c" x="166.064"/><use xlink:href="#DejaVuSans-79" x="193.848"/><use xlink:href="#DejaVuSans-20" x="253.027"/><use xlink:href="#DejaVuSans-6e" x="284.814"/><use xlink:href="#DejaVuSans-75" x="348.193"/><use xlink:href="#DejaVuSans-6d" x="411.572"/><use xlink:href="#DejaVuSans-62" x="508.984"/><use xlink:href="#DejaVuSans-65" x="572.461"/><use xlink:href="#DejaVuSans-72" x="633.984"/><use xlink:href="#DejaVuSans-20" x="675.098"/><use xlink:href="#DejaVuSans-6f" x="706.885"/><use xlink:href="#DejaVuSans-66" x="768.066"/><use xlink:href="#DejaVuSans-20" x="803.271"/><use xlink:href="#DejaVuSans-71" x="835.059"/><use xlink:href="#DejaVuSans-75" x="898.535"/><use xlink:href="#DejaVuSans-65" x="961.914"/><use xlink:href="#DejaVuSans-73" x="1023.438"/><use xlink:href="#DejaVuSans-74" x="1075.537"/><use xlink:href="#DejaVuSans-69" x="1114.746"/><use xlink:href="#DejaVuSans-6f" x="1142.529"/><use xlink:href="#DejaVuSans-6e" x="1203.711"/><use xlink:href="#DejaVuSans-73" x="1267.09"/><use xlink:href="#DejaVuSans-20" x="1319.189"/><use xlink:href="#DejaVuSans-6f" x="1350.977"/><use xlink:href="#DejaVuSans-6e" x="1412.158"/><use xlink:href="#DejaVuSans-20" x="1475.537"/><use xlink:href="#DejaVuSans-53" x="1507.324"/><use xlink:href="#DejaVuSans-74" x="1570.801"/><use xlink:href="#DejaVuSans-61" x="1610.01"/><use xlink:href="#DejaVuSans-63" x="1671.289"/><use xlink:href="#DejaVuSans-6b" x="1726.27"/><use xlink:href="#DejaVuSans-4f" x="1784.18"/><use xlink:href="#DejaVuSans-76" x="1862.891"/><use xlink:href="#DejaVuSans-65" x="1922.07"/><use xlink:href="#DejaVuSans-72" x="1983.594"/><use xlink:href="#DejaVuSans-66" x="2024.707"/><use xlink:href="#DejaVuSans-6c" x="2059.912"/><use xlink:href="#DejaVuSans-6f" x="2087.695"/><use xlink:href="#DejaVuSans-77" x="2148.877"/></g><path d="m33.71 323.95 2.198-.669 2.2.669h6.489l2.199-.669 2.199.669h2.2l2.198-1.294h2.235l2.2 1.294 2.199-2.588 2.199 1.25 4.434 1.338h2.127l2.127-.647 2.199.647h6.597l2.235-.647 6.598-.022 2.199.669 2.235-.647 2.127.647h2.127l2.2-.669 2.198.669 4.398-1.294 2.236-1.294 2.199 1.25 2.199.044 2.199-1.38 2.199.733 2.235-1.294 2.163-2.299 2.163 4.24 2.2-2.05 2.198-3.774 2.2 5.112 2.199-1.23 2.235-.647 2.199 3.214 2.2.022 2.198-1.36 2.2-.581h2.234l2.127-3.143 2.127 5.084 2.2-1.36 2.199.713 2.199-2.05 2.199.756 2.235 1.294 2.2-.043 2.198-4.487 2.2 2.48 2.198-.539 2.236 3.236 2.127-3.651 2.127-.232 2.199 2.524 2.199.712 2.199-.043 2.199.69 2.235-1.941 2.2 2.588 2.198-.647 2.2.647 2.199-.647 2.235-1.294 2.127.508 2.127.139 2.199-.043 2.199-1.898 2.199 1.898 2.2.69h2.234l2.2-.69L218 319.42l2.2 3.861 4.434.022 2.163.647 4.362-1.337 2.2.69 2.198-.022 2.2-.625 2.235-1.294 2.199 2.588 2.199-1.294 2.199-.043 2.199 1.337 2.235-1.941 2.127 1.94 2.127-1.293 2.2-.043 2.198.69 2.2-1.36 2.199.713h2.235l2.199 1.294h2.199l2.199-2.006 2.2-.582 2.234 1.294 2.127-.139 2.127-.508 2.2 1.94h2.198l2.2-1.336 2.199.69 2.235-.647 2.199 1.294 2.199-1.941 2.2 1.272 2.198-1.272 2.235 1.294 2.127-1.502 2.127.208 2.2 1.94 2.199-1.293 2.199 1.294 2.199-1.941 2.235.647 2.199 1.294 2.2-3.235 2.198 1.898 2.2.043 2.235-2.589 2.163 1.808 2.163.134 2.199.604 2.199-1.251 2.199 1.25 2.199.69 2.235-1.94 2.2 1.92 2.198.02 4.399-1.293 2.235 1.94h2.127l2.127-1.293 2.199-2.05 2.199 2.697 2.2-1.36 2.198 1.36 2.235-.647 2.2 1.294 2.199-.647 2.199-2.028 2.199 2.675 2.235-.647 2.127-1.502 2.127-3.028h0" clip-path="url(#p94661c1798)" style="fill:none;stroke:#d62728;stroke-width:1.5;stroke-linecap:square" id="line2d_25"/><path d="m200.445 323.95 2.127-1.294 2.199 1.294h8.832l2.2-2.006L218 323.95l2.2-4.012 2.199-.518 2.235-3.235 2.163 2.923 2.163.312 2.2-.82 2.198-4.356 2.2-2.998 2.198 2.998 2.236-1.941 2.199 4.96 2.199-6.254 2.199 2.911 2.199 2.265 2.235-1.294 2.127-3.836 2.127-3.282 2.2-13.911 2.198-4.206 2.2-13.178 2.199 15.766 2.235-.647 2.199 1.596 2.199 6.169 2.199-9.512 2.2 3.688 2.234 5.824 2.127-1.918 2.127 1.27 2.2-.84 2.198 4.076 2.2-14.106 2.199 5.047 2.235 11.647 2.199-6.664 2.199-1.748 2.2-2.264 2.198 10.676 2.235-7.117 2.127-2.126 2.127-.463 2.2 5.716 2.199-7.657 2.199 2.308 2.199-8.131 2.235 11 2.199-12.23 2.2-1.359 2.198-2.652 2.2 14.3 2.235-3.236 2.163-9.059 2.163 9.06 2.199-13.74 2.199 11.151 2.199-3.796 2.199 17.384 2.235-7.765 2.2-.258 2.198 7.376 2.2-1.359 2.199-3.17 2.235-3.883 2.127 5.477 2.127 2.288 2.199-.043 2.199-12.251 2.2 9.576 2.198-3.753 2.235.648 2.2 2.437 2.199-2.437 2.199-8.261 2.199.496 2.235 3.235 2.127-7.695 2.127 7.695 2.199 8.304" clip-path="url(#p94661c1798)" style="fill:none;stroke:#2ca02c;stroke-width:1.5;stroke-linecap:square" id="line2d_26"/><path d="m32.015 306.398 1.694 2.023 2.2 4.162 2.199 1.661 2.235-5.176 2.127-7.326 2.127 3.443 2.199 2.718 2.199-3.365 2.2-2.653 2.198.712 2.235-10.353 2.2 6.967 2.199.15 2.199-.15 2.199-6.32 2.235-7.117 2.127 5.222 2.127-21.399 2.199 19.584 2.2-13.113 2.198 9.102 2.2-19.455 2.234 20.706 2.2-6.6 4.398-11.367 2.199 8.26 2.235-9.705 2.127-11.115 2.127-7.65 2.2-11.884 2.198 18.355 2.2-10.331 2.198 15.507 2.236-5.823 2.199 9.037 2.199-10.331 2.199-11.065 2.199 3.3 2.235-5.176 2.163-30.01 2.163-15.931 2.2 32.439 2.198-13.028 2.2 7.679 2.199-11.56 2.235 24.587 2.199-25.731 2.2 4.378 2.198 6.32 2.2 11.798 2.234-14.882 2.127-36.651 2.127 6.24 2.2 6.081 2.199 26.27 2.199-27.607 2.199 9.49 2.235-6.47 2.2 8.347 2.198-25.818 2.2.41 2.198 22.237 2.236-13.588 2.127-30.666 2.127 16.43 2.199-13.803 2.199 18.333 2.199 42.512 2.199-14.041 2.235-11.647 2.2-6.406 2.198-9.124 2.2 8.455 2.199 20.663 2.235-4.53 2.127-54.722 2.127 33.37 2.199-6.147 2.199 11.97 2.199-27.349 2.2-3.71 2.234 20.06 2.2 23.768L218 174.48l2.2-5.65 2.199 27.003 2.235-3.235 2.163-2.834 2.163-4.284 2.2 4.745 2.198 2.373 2.2-17.751 2.198 30.692 2.236 6.47 2.199-4.4 2.199-11.776 2.199-.259 2.199 26.788 2.235-9.059 2.127-12.57 2.127-6.841 2.2 12.38 2.198-3.968 2.2 24.695 2.199-11.107 2.235 7.764 2.199 20.059 2.199-31.059 2.199-.366 2.2 27.543 2.234-23.294 2.127 19.296 2.127-21.237 2.2 12.401 2.198-12.401 2.2-2.977 2.199 17.859 2.235 16.823 2.199-11.28 2.199-37.896 2.2 31.878 2.198 10.18 2.235-10.352 2.127-15.206 2.127 8.088 2.2-.733 2.199 14.968 2.199-7.613 2.199 8.26 2.235 1.942 2.199-9.534 2.2-20.23 2.198 4.183 2.2 11.992 2.235-16.823 2.163 7.23 2.163-17.583 2.199-21.59 2.199 15.12 2.199 18.311 2.199 3.041 2.235 5.177 2.2 3.817 2.198-5.758 2.2-28.341 2.199 32.87 2.235-3.882 2.127-6.494 2.127-7.094 2.199 12.013 2.199 4.163 2.2 4.53 2.198-14.883 2.235 31.706 2.2-16.155 2.199 9.037 2.199-13.049 2.199 7.226 2.235-2.589 2.127-7.025 2.127 7.025 2.199-5.974h0" clip-path="url(#p94661c1798)" style="fill:none;stroke:#ff7f0e;stroke-width:1.5;stroke-linecap:square" id="line2d_27"/><path d="m32.015 322.696 1.694 1.254 2.2-1.337 2.199.69 2.235-1.294 2.127-.925 2.127-1.664 2.199-.15 2.199 2.739 2.2-2.07 2.198-3.754 2.235-2.588 2.2 2.33 2.199-1.036 2.199 1.704 2.199-2.351 2.235-1.294 2.127-2.611 2.127 5.2 2.199-5.63 2.2 4.982 2.198-8.325 2.2-2.675 2.234 2.588 2.2-3.925 2.199 4.572 2.199-5.91 2.199 11.087 2.235-9.059 2.127-4.368 2.127-3.397 2.2 3.732 2.198-8.908 2.2 4.227 2.198-10.05 2.236-3.236 2.199 13.955 2.199-9.425 2.199-5.285 2.199 3.99 2.235-1.294 2.163 2.722 2.163-13.075 2.2-.366 2.198 12.013 2.2-10.007 2.199-3.58 2.235 14.235 2.199-3.3 2.2-24.524 2.198 3.128 2.2 7.872 2.234-6.47 2.127-8.089 2.127-.323 2.2-5.694 2.199-4.012 2.199 12.704 2.199-11.41 2.235 22 2.2-19.95 2.198 5.715 2.2.97 2.198 4.206 2.236-5.823 2.127-10.561 2.127 5.384 2.199 7.463 2.199 5.478 2.199-14.17 2.199-16.888 2.235 16.823 2.2-4.615 2.198-.561 2.2-24.179 2.199 42.943 2.235-20.058 2.127-20.544 2.127 10.838 2.199-33.237 2.199 8.649 2.199 7.398 2.2-6.751 2.234 21.353 2.2-31.318L218 217.833l2.2.474 2.199 16.996 2.235-25.882 2.163-19.657 2.163 9.304 2.2 3.861 2.198-3.86 2.2-2.826 2.198 19.002 2.236 1.294 2.199-3.58 2.199-28.773 2.199 13.394 2.199 17.018 2.235-45.294 2.127 28.563 2.127-10.446 2.2-9.9 2.198-6.276 2.2-15.12 2.199 20.943 2.235-15.529 2.199 22 2.199-23.941 2.199 11.906 2.2 34.682 2.234-17.47 2.127.554 2.127-25.143 2.2-8.67 2.198-2.33 2.2.993 2.199 10.654 2.235 4.53 2.199-5.824 2.199-23.294 2.2 10.59 2.198 22.41 2.235-18.117 2.127-10.215 2.127-3.374 2.2 10.634 2.199 32.072 2.199-26.055 2.199-35.415 2.235 27.823 2.199-15.81 2.2 11.28 2.198-35.35 2.2 59.939 6.56-81.529 2.2-31.231 2.199 30.584 2.199 5.521 2.199-24.286 2.235 37.53 2.2 8.821 2.198 1.531 2.2-6.211 2.199 35.329 2.235-11 2.127-45.248 2.127 12.248 2.199 28.73 2.199-17.083 2.2 8.39 2.198-10.978 2.235 13.588 2.2 22.13 2.199-43.483 2.199 22.755 2.199 29.657 2.235-18.118 2.127-23.479 2.127.185 2.199-14.321h0" clip-path="url(#p94661c1798)" style="fill:none;stroke:#1f77b4;stroke-width:1.5;stroke-linecap:square" id="line2d_28"/></g></g><defs><clipPath id="p94661c1798"><path d="M32.015 57.838h357.12V323.95H32.015z"/></clipPath></defs></svg>