<svg xmlns:xlink="http://www.w3.org/1999/xlink" width="625.396" height="489.243" viewBox="0 0 469.047 366.932" xmlns="http://www.w3.org/2000/svg"><defs><style>*{stroke-linejoin:round;stroke-linecap:butt}</style></defs><g id="figure_1"><path d="M0 366.932h469.047V0H0v366.932z" style="fill:none" id="patch_1"/><g id="axes_1"><path d="M28.563 323.405h357.12V57.293H28.563v266.112z" style="fill:none" id="patch_2"/><g id="matplotlib.axis_1"><g id="xtick_1"><g id="line2d_1"><defs><path id="m972e5624da" d="M0 0v3.5" style="stroke:#969696;stroke-width:.4"/></defs><use xlink:href="#m972e5624da" x="63.145" y="323.405" style="fill:#969696;stroke:#969696;stroke-width:.4"/></g><g style="fill:#969696" transform="matrix(.14 0 0 -.14 48.782 340.345)" id="text_1"><defs><path id="MyriadPro-Regular-32" d="M2944 0v467H1075v13l333 307c877 845 1434 1466 1434 2234 0 595-378 1209-1274 1209-480 0-890-179-1178-422l180-397c192 160 505 352 883 352 621 0 825-390 825-813-6-627-486-1164-1548-2176L288 346V0h2656z" transform="scale(.01563)"/><path id="MyriadPro-Regular-30" d="M1677 4230c-845 0-1447-768-1447-2163C243 691 794-70 1606-70c922 0 1447 780 1447 2195 0 1325-499 2105-1376 2105zm-32-435c582 0 845-672 845-1696 0-1062-276-1734-852-1734-512 0-844 614-844 1696 0 1133 358 1734 851 1734z" transform="scale(.01563)"/><path id="MyriadPro-Regular-31" d="M1510 0h544v4160h-480l-908-486 108-429 724 390h12V0z" transform="scale(.01563)"/></defs><use xlink:href="#MyriadPro-Regular-32"/><use xlink:href="#MyriadPro-Regular-30" x="51.3"/><use xlink:href="#MyriadPro-Regular-31" x="102.6"/><use xlink:href="#MyriadPro-Regular-30" x="153.9"/></g></g><g id="xtick_2"><use xlink:href="#m972e5624da" x="117.434" y="323.405" style="fill:#969696;stroke:#969696;stroke-width:.4" id="line2d_2"/><g style="fill:#969696" transform="matrix(.14 0 0 -.14 103.071 340.345)" id="text_2"><use xlink:href="#MyriadPro-Regular-32"/><use xlink:href="#MyriadPro-Regular-30" x="51.3"/><use xlink:href="#MyriadPro-Regular-31" x="102.6"/><use xlink:href="#MyriadPro-Regular-32" x="153.9"/></g></g><g id="xtick_3"><use xlink:href="#m972e5624da" x="171.798" y="323.405" style="fill:#969696;stroke:#969696;stroke-width:.4" id="line2d_3"/><g style="fill:#969696" transform="matrix(.14 0 0 -.14 157.435 340.345)" id="text_3"><defs><path id="MyriadPro-Regular-34" d="M2560 0v1133h582v441h-582v2586h-608L96 1504v-371h1933V0h531zM666 1574v13l1017 1415c115 192 218 371 346 614h19c-13-218-19-435-19-653V1574H666z" transform="scale(.01563)"/></defs><use xlink:href="#MyriadPro-Regular-32"/><use xlink:href="#MyriadPro-Regular-30" x="51.3"/><use xlink:href="#MyriadPro-Regular-31" x="102.6"/><use xlink:href="#MyriadPro-Regular-34" x="153.9"/></g></g><g id="xtick_4"><use xlink:href="#m972e5624da" x="226.087" y="323.405" style="fill:#969696;stroke:#969696;stroke-width:.4" id="line2d_4"/><g style="fill:#969696" transform="matrix(.14 0 0 -.14 211.724 340.345)" id="text_4"><defs><path id="MyriadPro-Regular-36" d="M2662 4224c-102 0-243-6-409-32-525-64-986-275-1331-614-410-410-704-1056-704-1876C218 621 800-70 1690-70c864 0 1382 704 1382 1465 0 813-518 1344-1254 1344-461 0-807-217-1005-480h-19c96 685 563 1331 1446 1479 160 25 307 32 422 25v461zM1690 365c-589 0-903 505-916 1190 0 103 26 186 64 250 154 301 468 512 807 512 518 0 857-359 857-954s-326-998-806-998h-6z" transform="scale(.01563)"/></defs><use xlink:href="#MyriadPro-Regular-32"/><use xlink:href="#MyriadPro-Regular-30" x="51.3"/><use xlink:href="#MyriadPro-Regular-31" x="102.6"/><use xlink:href="#MyriadPro-Regular-36" x="153.9"/></g></g><g id="xtick_5"><use xlink:href="#m972e5624da" x="280.451" y="323.405" style="fill:#969696;stroke:#969696;stroke-width:.4" id="line2d_5"/><g style="fill:#969696" transform="matrix(.14 0 0 -.14 266.088 340.345)" id="text_5"><defs><path id="MyriadPro-Regular-38" d="M1062 2170c-512-218-825-589-825-1114C237 448 762-70 1632-70c794 0 1414 486 1414 1209 0 506-320 871-838 1075v20c512 243 685 620 685 972 0 519-403 1024-1210 1024-729 0-1286-448-1286-1107 0-358 198-717 659-934l6-19zm583-1831c-531 0-851 371-832 794 0 397 262 717 749 857 563-160 915-403 915-908 0-423-327-743-832-743zm6 3488c506 0 704-345 704-678 0-378-275-634-633-755-480 128-794 352-794 768 0 358 256 665 723 665z" transform="scale(.01563)"/></defs><use xlink:href="#MyriadPro-Regular-32"/><use xlink:href="#MyriadPro-Regular-30" x="51.3"/><use xlink:href="#MyriadPro-Regular-31" x="102.6"/><use xlink:href="#MyriadPro-Regular-38" x="153.9"/></g></g><g id="xtick_6"><use xlink:href="#m972e5624da" x="334.74" y="323.405" style="fill:#969696;stroke:#969696;stroke-width:.4" id="line2d_6"/><g style="fill:#969696" transform="matrix(.14 0 0 -.14 320.377 340.345)" id="text_6"><use xlink:href="#MyriadPro-Regular-32"/><use xlink:href="#MyriadPro-Regular-30" x="51.3"/><use xlink:href="#MyriadPro-Regular-32" x="102.6"/><use xlink:href="#MyriadPro-Regular-30" x="153.9"/></g></g></g><g id="matplotlib.axis_2"><g id="ytick_1"><path d="M28.563 323.405h357.12" clip-path="url(#p74633022ba)" style="fill:none;stroke:#969696;stroke-width:.3;stroke-linecap:square" id="line2d_7"/><g id="line2d_8"><defs><path id="mde81d6025e" d="M0 0h-3.5" style="stroke:#969696;stroke-width:.3"/></defs><use xlink:href="#mde81d6025e" x="28.563" y="323.405" style="fill:#969696;stroke:#969696;stroke-width:.3"/></g><use xlink:href="#MyriadPro-Regular-30" style="fill:#969696" transform="matrix(.14 0 0 -.14 14.382 328.375)" id="text_7"/></g><g id="ytick_2"><path d="M28.563 290.368h357.12" clip-path="url(#p74633022ba)" style="fill:none;stroke:#969696;stroke-width:.3;stroke-linecap:square" id="line2d_9"/><use xlink:href="#mde81d6025e" x="28.563" y="290.368" style="fill:#969696;stroke:#969696;stroke-width:.3" id="line2d_10"/><g style="fill:#969696" transform="matrix(.14 0 0 -.14 7.2 295.338)" id="text_8"><use xlink:href="#MyriadPro-Regular-31"/><use xlink:href="#MyriadPro-Regular-30" x="51.3"/></g></g><g id="ytick_3"><path d="M28.563 257.33h357.12" clip-path="url(#p74633022ba)" style="fill:none;stroke:#969696;stroke-width:.3;stroke-linecap:square" id="line2d_11"/><use xlink:href="#mde81d6025e" x="28.563" y="257.33" style="fill:#969696;stroke:#969696;stroke-width:.3" id="line2d_12"/><g style="fill:#969696" transform="matrix(.14 0 0 -.14 7.2 262.3)" id="text_9"><use xlink:href="#MyriadPro-Regular-32"/><use xlink:href="#MyriadPro-Regular-30" x="51.3"/></g></g><g id="ytick_4"><path d="M28.563 224.293h357.12" clip-path="url(#p74633022ba)" style="fill:none;stroke:#969696;stroke-width:.3;stroke-linecap:square" id="line2d_13"/><use xlink:href="#mde81d6025e" x="28.563" y="224.293" style="fill:#969696;stroke:#969696;stroke-width:.3" id="line2d_14"/><g style="fill:#969696" transform="matrix(.14 0 0 -.14 7.2 229.263)" id="text_10"><defs><path id="MyriadPro-Regular-33" d="M269 211C474 77 883-70 1350-70c999 0 1517 582 1517 1248 0 582-416 966-928 1068v13c512 186 768 551 768 979 0 506-371 992-1190 992-448 0-871-160-1088-320l147-409c179 128 499 275 832 275 518 0 730-294 730-627 0-493-519-704-928-704H896v-423h314c544 0 1068-249 1075-832 6-345-218-806-941-806-390 0-762 160-922 262L269 211z" transform="scale(.01563)"/></defs><use xlink:href="#MyriadPro-Regular-33"/><use xlink:href="#MyriadPro-Regular-30" x="51.3"/></g></g><g id="ytick_5"><path d="M28.563 191.255h357.12" clip-path="url(#p74633022ba)" style="fill:none;stroke:#969696;stroke-width:.3;stroke-linecap:square" id="line2d_15"/><use xlink:href="#mde81d6025e" x="28.563" y="191.255" style="fill:#969696;stroke:#969696;stroke-width:.3" id="line2d_16"/><g style="fill:#969696" transform="matrix(.14 0 0 -.14 7.2 196.225)" id="text_11"><use xlink:href="#MyriadPro-Regular-34"/><use xlink:href="#MyriadPro-Regular-30" x="51.3"/></g></g><g id="ytick_6"><path d="M28.563 158.217h357.12" clip-path="url(#p74633022ba)" style="fill:none;stroke:#969696;stroke-width:.3;stroke-linecap:square" id="line2d_17"/><use xlink:href="#mde81d6025e" x="28.563" y="158.217" style="fill:#969696;stroke:#969696;stroke-width:.3" id="line2d_18"/><g style="fill:#969696" transform="matrix(.14 0 0 -.14 7.2 163.187)" id="text_12"><defs><path id="MyriadPro-Regular-35" d="M2771 4160H781L512 2163c154 19 339 45 576 45 832 0 1190-384 1197-922 0-556-455-902-986-902-377 0-717 128-889 230L269 186C467 58 851-70 1306-70c902 0 1548 608 1548 1420 0 525-268 884-595 1069-256 154-576 224-896 224-153 0-243-13-339-25l160 1068h1587v474z" transform="scale(.01563)"/></defs><use xlink:href="#MyriadPro-Regular-35"/><use xlink:href="#MyriadPro-Regular-30" x="51.3"/></g></g><g id="ytick_7"><path d="M28.563 125.18h357.12" clip-path="url(#p74633022ba)" style="fill:none;stroke:#969696;stroke-width:.3;stroke-linecap:square" id="line2d_19"/><use xlink:href="#mde81d6025e" x="28.563" y="125.18" style="fill:#969696;stroke:#969696;stroke-width:.3" id="line2d_20"/><g style="fill:#969696" transform="matrix(.14 0 0 -.14 7.2 130.15)" id="text_13"><use xlink:href="#MyriadPro-Regular-36"/><use xlink:href="#MyriadPro-Regular-30" x="51.3"/></g></g><g id="ytick_8"><path d="M28.563 92.142h357.12" clip-path="url(#p74633022ba)" style="fill:none;stroke:#969696;stroke-width:.3;stroke-linecap:square" id="line2d_21"/><use xlink:href="#mde81d6025e" x="28.563" y="92.142" style="fill:#969696;stroke:#969696;stroke-width:.3" id="line2d_22"/><g style="fill:#969696" transform="matrix(.14 0 0 -.14 7.2 97.112)" id="text_14"><defs><path id="MyriadPro-Regular-37" d="M365 4160v-467h2035v-13L595 0h583l1811 3789v371H365z" transform="scale(.01563)"/></defs><use xlink:href="#MyriadPro-Regular-37"/><use xlink:href="#MyriadPro-Regular-30" x="51.3"/></g></g><g id="ytick_9"><path d="M28.563 59.105h357.12" clip-path="url(#p74633022ba)" style="fill:none;stroke:#969696;stroke-width:.3;stroke-linecap:square" id="line2d_23"/><use xlink:href="#mde81d6025e" x="28.563" y="59.105" style="fill:#969696;stroke:#969696;stroke-width:.3" id="line2d_24"/><g style="fill:#969696" transform="matrix(.14 0 0 -.14 7.2 64.075)" id="text_15"><use xlink:href="#MyriadPro-Regular-38"/><use xlink:href="#MyriadPro-Regular-30" x="51.3"/></g></g></g><path d="m28.563 323.405 1.75-.106 2.266-.004 4.574-.53 2.194.286 4.462-.417 2.268.025 2.268-.906 2.269-.373 2.305.32 2.268-1.599 2.27 1.386 2.267-2.046 2.268 1.087 2.305-2.345 2.194-.677 2.193-.922 2.27.544 2.268-1.29 2.268-2.564 2.268-2.018 2.306.106 2.268-3.595 2.27 2.317 2.266-4.85 2.269-1.225 2.305-5.329 2.194-1.469 2.192-6.524 2.27 5.958 2.268-4.253 2.269-2.905 2.268 2.692 2.305-3.09 2.269 1.058 2.27-6.174 2.266-.764 2.268 3.215 2.306-8.525 2.23-7.126 2.23 3.076 2.27 7.268 2.268-6.629 2.269 1.013 2.268-16.466 2.305-.64 2.269 3.34 2.27-3.446 2.266-5.584 2.268 6.757 2.306-11.723 2.194.86 2.192 12.994 2.27-3.492 2.268 4.238 2.268 1.929 2.269-5.552 2.305 5.754 2.268-1.744 2.27-5.076 2.267 7.83 2.268-.264 2.306-7.247 2.193.187 2.193-5.622 2.27 5.897 2.268 1.03 2.268 4.697 2.268-8.853 2.306 12.576 2.268-1.961 2.27 7.61 2.267-.012 2.268 2.356 2.305-2.238 2.194-4.86 2.192 1.236 2.27-7.947 2.269 5.496 2.268 4.195 2.268 4.757 2.305 1.492 2.269-5.918 2.27 6.451 2.266 1.478 2.269 1.932 2.305-.32 2.231.195 2.23 1.51 2.27 5.162 2.268.487 2.268 5.13 2.268.305 2.306 2.665 2.268 1.325 2.27 2.085 2.266-.213 2.269 1.705 2.305.107 2.194-1.458 2.192 7.213 2.27-1.84 2.268-1.464 2.269 2.675 2.268-3.528 2.305 5.116 2.268.834 2.27-.301 2.267-5.535 2.268 7.027 2.306-1.173 2.194 2.775 2.192 1.382 2.27.56 4.536.111 2.268-2.59 2.306-1.172 2.268-1.524 2.27 3.123 2.267 2.493 2.268-.255 2.305-.746 2.194-1.028 2.193-.678 2.27 3.809 2.268-1.677 2.268.685 2.268-2.177 2.306 1.918 2.268-1.392 2.27-.313 2.266.423 2.269 1.495 2.305-2.025 2.231 2.463 2.23 1.907 2.27-2.96 2.268.189 2.268-.409 2.268-.124 2.306 2.984 2.268-1.428 2.27-.916 2.266 2.568 2.269.629 2.305-.64 2.194 1.097 2.192.395 2.27-2.032 2.268 1.5 2.269-1.17 2.268 2.342 2.305-1.919 4.538.32 2.267 2.01h0" clip-path="url(#p74633022ba)" style="fill:none;stroke:#8c564b;stroke-width:1.5;stroke-linecap:square" id="line2d_25"/><path d="m50.614 323.405 4.573-.11 4.537.11 4.573-.213 4.387.213 2.27-.11 4.536.11 2.268-.106 2.306.106 2.268-.22 2.27-.1 2.266.1 2.269-.1 2.305-.32 2.194.522 2.192-.095 4.538-.96 2.269.622 2.268.338 2.305-.426 2.269-.572 2.27.678 2.266-.348 2.268-.185 2.306.107 2.23-.408 2.23-.125 4.538.32 2.269-.15 2.268-.81 2.305.427 2.269-.387 2.27-.679 2.266-.533 4.574-.106 2.194-1.31 2.192-.395 2.27-2.043 2.268 2.789 2.268-1.027 2.269.067 2.305.746 2.268-.813 2.27 1.027 2.267-1.688 2.268 2.54 2.306-3.09h2.193l2.193.426 2.27 1.115 2.268.697 2.268-1.578 2.268-.447 2.306 1.598 2.268-.38 2.27 1.872 2.267-2.092 2.268.92 2.305-1.279 2.194-.734 2.192-.545 2.27-.124 2.269.764 2.268.007 2.268-.86 2.305 1.066 2.269-.977 2.27.23 2.266.761 2.269.2 2.305-1.706 2.231-.53 2.23.956 2.27-1.783 2.268 3.275 2.268-.302 2.268-1.083 2.306-1.812 2.268.142 2.27 1.563 2.266-2.554 2.269 2.341 4.499-3.041 2.192 1.442 2.27 1.35 2.268 1.208 2.269.334 2.268-1.186 2.305 2.024 2.268-2.38 2.27 2.38 2.267-1.829 2.268 2.469 2.306.213 2.194-.833 2.192-1.938 2.27 2.732 2.268-.387 2.268-.274 2.268-1.645 2.306.64 2.268-1.638 2.27.679 2.267.973 2.268 1.371 2.305-1.918 2.194.697 2.193.156 2.27 2.117 2.268-1.478 2.268 1.368 6.842-1.652 4.536.55 2.269 1.866 2.305-1.706 2.231-.558 2.23.985 2.27-2.459 2.268.967 2.268.024 2.268.508 2.306-.959 2.268 1.002 2.27.277 2.266-.057 2.269 1.016 2.305-1.705 2.194-.852 2.192.746 2.27.905 2.268-.373 2.269.263 2.268 1.869 2.305.746 2.269-1.513 2.27.66 2.266-.99h0" clip-path="url(#p74633022ba)" style="fill:none;stroke:#9467bd;stroke-width:1.5;stroke-linecap:square" id="line2d_26"/><path d="m28.563 319.895 1.75 2.338 2.266.07 2.268-.07 2.306-.213 2.194-.62 2.192-1.085 2.27.447 2.268-1.087 2.268-1.886 2.269.287 2.305-4.902 2.268-2.764 2.27.74 2.267-1.18 2.268 3.098 2.305-5.542 2.194-3.353 2.193-.59 2.27-1.542 2.268-2.615 2.268-8.948 2.268-2.348 2.306-5.649 2.268 11.961 2.27 1.574 2.266-2.124 2.269 2.444 4.499-25.673 2.192 8.088 2.27 10.515 2.268 4.938 2.269-.092 4.573 6.487 2.269-2.743 2.27-4.93 2.266-.026 2.268 8.977 2.306-3.836 2.23-.952 2.23 2.444 2.27-.576 2.268-.916 2.269-1.506 2.268 4.916 2.305-3.304 2.269 4.334 2.27-2.096 2.266-6.824 2.268 5.972 2.306-.32 2.194-2.002 2.192 4.986 2.27 1.606 2.268.419 2.268 2.114 2.269-3.606 2.305-1.599 2.268 3.553 2.27-.462 2.267.682 2.268 4.647 2.306-6.821 2.193.735 2.193 2.888 2.27-2 2.268-.238 2.268 5.855 2.268-3.936 2.306 1.492 2.268.131 2.27-.238 2.267 3.432 2.268-.128 2.305-.853 2.194-.506 2.192-3.543 2.27 2.387 2.269.277 2.268-2.59 2.268 3.656 2.305 3.41 4.539-4.69 2.266.818 2.269 2.487 2.305 2.024 2.231-2.499 2.23 1.86 2.27-2.881 2.268.643 2.268 1.56 2.268.145 2.306-.533 2.268 1.599 2.27-.746 2.266.415 2.269.224 2.305-3.197 2.194 3.894 2.192.689 2.27 1.144 2.268-2.743 2.269 1.862 2.268-2.608 2.305 2.345 2.268 1.254 2.27.77 2.267-1.761 2.268 1.762 2.306-.32 2.194-.978 2.192.019 2.27-2.135 2.268 1.389 2.268 1.914 2.268-2.98 2.306.213 2.268.014 2.27 2.011 2.267-.359 2.268.04 2.305-.214 2.194.796 2.193.483 2.27-1.986 2.268.174 2.268 2.139 2.268-.966 2.306.426 2.268-.451 2.27 1.41 2.266-1.63 2.269 1.95 2.305-3.73 2.231 1.517 2.23 1.786 2.27-.753 2.268 2.245 2.268-3.236 2.268.252 2.306 2.771 2.268-.16 2.27-.48 2.266-1.832 2.269 3.112 2.305-1.173 2.194-1.75 2.192.578 2.27 1.435 2.268.057 2.269-.717 2.268 1.143 2.305-.852 2.269 1.36 2.27-.4 2.266-.04h0" clip-path="url(#p74633022ba)" style="fill:none;stroke:#d62728;stroke-width:1.5;stroke-linecap:square" id="line2d_27"/><g style="fill:#1f77b4" transform="matrix(.14 0 0 -.14 396.397 176.779)" id="text_16"><defs><path id="MyriadPro-Regular-77" d="M115 3098 1050 0h512l499 1472c109 333 205 653 281 1024h13c77-365 167-672 275-1018L3104 0h512l998 3098h-556l-442-1556c-102-364-186-691-237-1004h-19c-70 313-160 640-275 1011l-480 1549h-474l-505-1575c-103-339-205-672-276-985h-19c-57 320-141 640-230 985L691 3098H115z" transform="scale(.01563)"/><path id="MyriadPro-Regular-6f" d="M1779 3168c-857 0-1536-608-1536-1645C243 544 890-70 1728-70c749 0 1542 499 1542 1644 0 948-601 1594-1491 1594zm-13-422c666 0 928-666 928-1191 0-697-403-1203-940-1203-551 0-941 512-941 1190 0 589 288 1204 953 1204z" transform="scale(.01563)"/><path id="MyriadPro-Regular-72" d="M467 0h557v1651c0 96 13 186 26 263 76 422 358 723 755 723 77 0 134-7 192-19v531c-51 13-96 19-160 19-378 0-717-262-858-678h-25l-20 608H442c19-288 25-602 25-967V0z" transform="scale(.01563)"/><path id="MyriadPro-Regular-64" d="M2579 4544V2694h-13c-140 250-460 474-934 474-755 0-1395-634-1389-1664C243 563 819-70 1568-70c506 0 883 262 1056 608h13l25-538h506c-19 211-26 525-26 800v3744h-563zm0-3245c0-89-6-166-25-243-103-422-448-672-826-672-608 0-915 518-915 1146 0 684 345 1196 928 1196 422 0 729-294 813-652 19-71 25-167 25-237v-538z" transform="scale(.01563)"/><path id="MyriadPro-Regular-70" d="M467-1267h557V416h13c185-307 544-486 953-486 730 0 1408 550 1408 1664 0 940-563 1574-1312 1574-505 0-870-224-1100-602h-13l-26 532H442c12-295 25-615 25-1012v-3353zm557 3059c0 77 19 160 38 230 109 423 468 698 852 698 595 0 921-531 921-1152 0-710-345-1197-941-1197-403 0-742 269-844 659-13 71-26 148-26 231v531z" transform="scale(.01563)"/><path id="MyriadPro-Regular-65" d="M2957 1446c6 58 19 148 19 263 0 569-269 1459-1280 1459-902 0-1453-736-1453-1670C243 563 813-70 1766-70c493 0 832 108 1031 198l-96 403c-211-89-455-160-858-160-563 0-1049 314-1062 1075h2176zM787 1850c45 390 295 915 864 915 634 0 787-557 781-915H787z" transform="scale(.01563)"/><path id="MyriadPro-Regular-73" d="M250 147C467 19 781-70 1120-70c736 0 1158 390 1158 934 0 461-275 730-812 934-404 154-589 269-589 525 0 231 185 423 518 423 288 0 512-103 634-180l141 410c-173 102-448 192-762 192-666 0-1069-410-1069-909 0-371 263-678 819-877 416-153 576-300 576-569 0-256-192-461-601-461-282 0-576 115-743 224L250 147z" transform="scale(.01563)"/></defs><use xlink:href="#MyriadPro-Regular-77"/><use xlink:href="#MyriadPro-Regular-6f" x="73.6"/><use xlink:href="#MyriadPro-Regular-72" x="128.5"/><use xlink:href="#MyriadPro-Regular-64" x="161.2"/><use xlink:href="#MyriadPro-Regular-70" x="217.6"/><use xlink:href="#MyriadPro-Regular-72" x="274.5"/><use xlink:href="#MyriadPro-Regular-65" x="307.2"/><use xlink:href="#MyriadPro-Regular-73" x="357.3"/><use xlink:href="#MyriadPro-Regular-73" x="396.9"/></g><g style="fill:#ff7f0e" transform="matrix(.14 0 0 -.14 396.397 291.901)" id="text_17"><defs><path id="MyriadPro-Regular-68" d="M467 0h563v1869c0 109 7 192 39 269 102 307 390 563 755 563 531 0 717-423 717-922V0h563v1843c0 1069-666 1325-1082 1325-211 0-409-64-576-160-172-96-313-237-403-397h-13v1933H467V0z" transform="scale(.01563)"/><path id="MyriadPro-Regular-69" d="M1030 0v3098H467V0h563zM749 4320c-205 0-352-154-352-352 0-192 141-346 339-346 224 0 365 154 358 346 0 198-134 352-345 352z" transform="scale(.01563)"/><path id="MyriadPro-Regular-66" d="M1082 0v2669h748v429h-748v166c0 474 121 896 601 896 160 0 275-32 359-70l76 435c-108 45-281 89-480 89-262 0-544-83-755-288-262-249-358-646-358-1081v-147H90v-429h435V0h557z" transform="scale(.01563)"/><path id="MyriadPro-Regular-79" d="M58 3098 1203 243c26-70 39-115 39-147s-20-77-45-134c-128-288-320-506-474-628-166-140-352-230-493-275l141-473c141 25 416 121 691 364 384 333 660 877 1063 1940l845 2208h-596l-614-1818c-77-224-141-461-198-646h-13c-51 185-128 428-199 633L672 3098H58z" transform="scale(.01563)"/></defs><use xlink:href="#MyriadPro-Regular-73"/><use xlink:href="#MyriadPro-Regular-68" x="39.6"/><use xlink:href="#MyriadPro-Regular-6f" x="95.1"/><use xlink:href="#MyriadPro-Regular-70" x="150"/><use xlink:href="#MyriadPro-Regular-69" x="206.9"/><use xlink:href="#MyriadPro-Regular-66" x="230.3"/><use xlink:href="#MyriadPro-Regular-79" x="259.5"/></g><g style="fill:#2ca02c" transform="matrix(.14 0 0 -.14 396.397 305.664)" id="text_18"><defs><path id="MyriadPro-Regular-74" d="M595 3667v-569H115v-429h480V979c0-365 58-640 218-806C947 19 1158-70 1421-70c217 0 390 38 499 83l-26 422c-83-25-172-38-326-38-314 0-422 217-422 601v1671h806v429h-806v742l-551-173z" transform="scale(.01563)"/></defs><use xlink:href="#MyriadPro-Regular-74"/><use xlink:href="#MyriadPro-Regular-79" x="33.1"/><use xlink:href="#MyriadPro-Regular-70" x="80.2"/><use xlink:href="#MyriadPro-Regular-6f" x="137.1"/><use xlink:href="#MyriadPro-Regular-33" x="192"/></g><g style="fill:#d62728" transform="matrix(.14 0 0 -.14 396.397 319.985)" id="text_19"><defs><path id="MyriadPro-Regular-75" d="M3059 3098h-563V1197c0-103-19-205-51-288-103-250-365-512-743-512-512 0-691 397-691 985v1716H448V1286C448 198 1030-70 1517-70c550 0 877 326 1024 576h13l32-506h499c-19 243-26 525-26 845v2253z" transform="scale(.01563)"/><path id="MyriadPro-Regular-61" d="M2643 1901c0 621-230 1267-1177 1267-391 0-762-109-1018-275l128-371c218 140 518 230 806 230 634 0 704-461 704-717v-64C890 1978 224 1568 224 819c0-448 320-889 947-889 442 0 775 217 947 460h20l44-390h512c-38 211-51 474-51 742v1159zm-544-858c0-57-13-121-32-179-89-262-345-518-749-518-288 0-531 172-531 537 0 602 698 711 1312 698v-538z" transform="scale(.01563)"/><path id="MyriadPro-Regular-6c" d="M467 0h563v4544H467V0z" transform="scale(.01563)"/></defs><use xlink:href="#MyriadPro-Regular-64"/><use xlink:href="#MyriadPro-Regular-72" x="56.4"/><use xlink:href="#MyriadPro-Regular-75" x="89.1"/><use xlink:href="#MyriadPro-Regular-70" x="144.2"/><use xlink:href="#MyriadPro-Regular-61" x="201.1"/><use xlink:href="#MyriadPro-Regular-6c" x="249.3"/></g><g style="fill:#9467bd" transform="matrix(.14 0 0 -.14 396.397 333.985)" id="text_20"><use xlink:href="#MyriadPro-Regular-70"/><use xlink:href="#MyriadPro-Regular-72" x="56.9"/><use xlink:href="#MyriadPro-Regular-65" x="89.6"/><use xlink:href="#MyriadPro-Regular-73" x="139.7"/><use xlink:href="#MyriadPro-Regular-74" x="179.3"/><use xlink:href="#MyriadPro-Regular-61" x="212.4"/><use xlink:href="#MyriadPro-Regular-73" x="260.6"/><use xlink:href="#MyriadPro-Regular-68" x="300.2"/><use xlink:href="#MyriadPro-Regular-6f" x="355.7"/><use xlink:href="#MyriadPro-Regular-70" x="410.6"/></g><g style="fill:#8c564b" transform="matrix(.14 0 0 -.14 396.397 347.83)" id="text_21"><defs><path id="MyriadPro-Regular-6d" d="M467 0h551v1869c0 96 12 192 44 275 90 282 346 563 698 563 429 0 646-358 646-851V0h551v1914c0 102 19 204 45 281 96 275 345 512 665 512 455 0 672-358 672-953V0h551v1824c0 1075-608 1344-1018 1344-294 0-499-77-685-218-128-96-249-230-345-403h-13c-135 365-455 621-877 621-512 0-800-275-973-570h-19l-26 500H442c19-256 25-519 25-839V0z" transform="scale(.01563)"/><path id="MyriadPro-Regular-67" d="M3110 2246c0 378 13 628 26 852h-493l-25-468h-13c-135 256-429 538-967 538-710 0-1395-595-1395-1645C243 666 794 13 1562 13c480 0 812 230 985 518h13V186c0-781-422-1082-998-1082-384 0-704 115-909 243l-141-429c250-166 659-256 1030-256 391 0 826 90 1127 372 301 268 441 704 441 1414v1798zm-556-928c0-96-13-204-45-300-122-359-435-576-781-576-608 0-915 505-915 1113 0 717 384 1171 921 1171 410 0 685-268 788-595 25-77 32-160 32-256v-557z" transform="scale(.01563)"/><path id="MyriadPro-Regular-6e" d="M467 0h563v1862c0 96 13 192 39 263 96 313 384 576 755 576 531 0 717-416 717-915V0h563v1850c0 1062-666 1318-1094 1318-512 0-871-288-1024-582h-13l-32 512H442c19-256 25-519 25-839V0z" transform="scale(.01563)"/></defs><use xlink:href="#MyriadPro-Regular-6d"/><use xlink:href="#MyriadPro-Regular-61" x="83.4"/><use xlink:href="#MyriadPro-Regular-67" x="131.6"/><use xlink:href="#MyriadPro-Regular-65" x="187.5"/><use xlink:href="#MyriadPro-Regular-6e" x="237.6"/><use xlink:href="#MyriadPro-Regular-74" x="293.1"/><use xlink:href="#MyriadPro-Regular-6f" x="326.2"/></g><g style="fill:#969696" transform="matrix(.09716 0 0 -.09716 28.563 357.303)" id="text_22"><defs><path id="MyriadPro-Regular-7c" d="M550 4800v-6400h429v6400H550z" transform="scale(.01563)"/><path id="MyriadPro-Regular-4e" d="M1011 0v1843c0 717-13 1235-45 1779l20 7c217-467 505-960 806-1440L3162 0h563v4314h-525V2509c0-672 13-1197 64-1773l-13-6c-205 441-454 896-774 1401L1094 4314H486V0h525z" transform="scale(.01563)"/><path id="MyriadPro-Regular-63" d="M2579 538c-160-71-371-154-691-154-614 0-1075 442-1075 1158 0 647 384 1172 1094 1172 307 0 519-71 653-148l128 436c-154 76-448 160-781 160-1011 0-1664-692-1664-1645C243 570 851-70 1786-70c416 0 742 108 889 185l-96 423z" transform="scale(.01563)"/><path id="MyriadPro-Regular-53" d="M269 211C499 58 954-70 1370-70c1017 0 1510 582 1510 1248 0 633-371 985-1101 1267-595 230-857 429-857 832 0 294 224 646 812 646 391 0 679-128 820-205l153 455c-192 109-512 211-953 211-839 0-1396-499-1396-1171 0-608 436-973 1140-1223 582-224 812-454 812-857 0-435-332-736-902-736-384 0-749 128-998 281L269 211z" transform="scale(.01563)"/><path id="MyriadPro-Regular-f6" d="M1165 3648c185 0 313 154 313 326 0 186-134 327-313 327s-327-147-327-327c0-172 135-326 320-326h7zm1184 0c185 0 313 154 313 326 0 186-134 327-313 327s-320-147-320-327c0-172 128-326 313-326h7zm-570-480c-857 0-1536-608-1536-1645C243 544 890-70 1728-70c749 0 1542 499 1542 1644 0 948-601 1594-1491 1594zm-13-422c666 0 928-666 928-1191 0-697-403-1203-940-1203-551 0-941 512-941 1190 0 589 288 1204 953 1204z" transform="scale(.01563)"/><path id="MyriadPro-Regular-40" d="M2867 1632c-70-397-409-870-781-870-281 0-422 204-422 486 0 621 454 1152 1018 1152 147 0 256-26 320-45l-135-723zm384-1773c-262-147-601-224-966-224-947 0-1645 666-1645 1735 0 1299 877 2131 1920 2131 992 0 1549-672 1549-1600 0-743-365-1178-691-1171-212 6-288 230-192 716l217 1159c-166 77-409 134-685 134-889 0-1516-723-1516-1517 0-505 320-806 691-806 384 0 678 186 902 563h26c-19-390 217-563 473-563 602 0 1140 563 1140 1523 0 1069-749 1856-1863 1856-1421 0-2336-1145-2336-2464C275 96 1165-672 2214-672c429 0 788 70 1140 256l-103 275z" transform="scale(.01563)"/><path id="MyriadPro-Regular-43" d="M3386 582c-224-108-570-179-909-179-1050 0-1658 679-1658 1735 0 1132 672 1779 1683 1779 359 0 660-77 871-179l134 454c-147 77-486 192-1024 192-1337 0-2253-915-2253-2266C230 704 1146-70 2362-70c524 0 934 108 1139 211l-115 441z" transform="scale(.01563)"/><path id="MyriadPro-Regular-42" d="M486 13c186-26 480-51 864-51 704 0 1191 128 1492 403 217 211 364 493 364 864 0 640-480 979-889 1081v13c454 167 729 531 729 947 0 340-134 596-358 762-269 218-627 314-1184 314-390 0-774-39-1018-90V13zm557 3865c90 20 237 39 493 39 563 0 947-199 947-704 0-416-345-723-934-723h-506v1388zm0-1811h461c608 0 1114-243 1114-832 0-627-532-838-1108-838-198 0-358 6-467 25v1645z" transform="scale(.01563)"/><path id="MyriadPro-Regular-59" d="M2010 0v1837l1446 2477h-634l-620-1191c-167-326-314-608-436-889h-12c-135 300-263 563-429 889L717 4314H83l1363-2484V0h564z" transform="scale(.01563)"/></defs><use xlink:href="#MyriadPro-Regular-73"/><use xlink:href="#MyriadPro-Regular-6f" x="39.6"/><use xlink:href="#MyriadPro-Regular-74" x="94.5"/><use xlink:href="#MyriadPro-Regular-72" x="127.6"/><use xlink:href="#MyriadPro-Regular-65" x="160.3"/><use xlink:href="#MyriadPro-Regular-6e" x="210.4"/><use xlink:href="#MyriadPro-Regular-64" x="265.9"/><use xlink:href="#MyriadPro-Regular-73" x="322.3"/><use xlink:href="#MyriadPro-Regular-20" x="361.9"/><use xlink:href="#MyriadPro-Regular-7c" x="383.1"/><use xlink:href="#MyriadPro-Regular-20" x="407"/><use xlink:href="#MyriadPro-Regular-4e" x="428.2"/><use xlink:href="#MyriadPro-Regular-69" x="494"/><use xlink:href="#MyriadPro-Regular-63" x="517.4"/><use xlink:href="#MyriadPro-Regular-6f" x="562.2"/><use xlink:href="#MyriadPro-Regular-20" x="617.1"/><use xlink:href="#MyriadPro-Regular-53" x="638.3"/><use xlink:href="#MyriadPro-Regular-63" x="687.6"/><use xlink:href="#MyriadPro-Regular-68" x="732.4"/><use xlink:href="#MyriadPro-Regular-6c" x="787.9"/><use xlink:href="#MyriadPro-Regular-f6" x="811.5"/><use xlink:href="#MyriadPro-Regular-6d" x="866.4"/><use xlink:href="#MyriadPro-Regular-65" x="949.8"/><use xlink:href="#MyriadPro-Regular-72" x="999.9"/><use xlink:href="#MyriadPro-Regular-20" x="1032.6"/><use xlink:href="#MyriadPro-Regular-40" x="1053.8"/><use xlink:href="#MyriadPro-Regular-6e" x="1127.5"/><use xlink:href="#MyriadPro-Regular-73" x="1183"/><use xlink:href="#MyriadPro-Regular-63" x="1222.6"/><use xlink:href="#MyriadPro-Regular-68" x="1267.4"/><use xlink:href="#MyriadPro-Regular-6c" x="1322.9"/><use xlink:href="#MyriadPro-Regular-6f" x="1346.5"/><use xlink:href="#MyriadPro-Regular-65" x="1401.4"/><use xlink:href="#MyriadPro-Regular-20" x="1451.5"/><use xlink:href="#MyriadPro-Regular-7c" x="1472.7"/><use xlink:href="#MyriadPro-Regular-20" x="1496.6"/><use xlink:href="#MyriadPro-Regular-43" x="1517.8"/><use xlink:href="#MyriadPro-Regular-43" x="1575.8"/><use xlink:href="#MyriadPro-Regular-20" x="1633.8"/><use xlink:href="#MyriadPro-Regular-42" x="1655"/><use xlink:href="#MyriadPro-Regular-59" x="1709.2"/></g><g style="fill:#969696" transform="matrix(.14 0 0 -.14 77.337 17.293)" id="text_23"><defs><path id="MyriadPro-Regular-44" d="M486 13c282-32 615-51 1012-51 838 0 1504 217 1907 620 403 397 621 973 621 1677 0 698-224 1197-608 1549-378 352-948 538-1748 538-441 0-844-39-1184-90V13zm557 3833c147 32 365 58 653 58 1178 0 1754-646 1747-1664 0-1165-646-1830-1837-1830-217 0-422 6-563 32v3404z" transform="scale(.01563)"/><path id="MyriadPro-Regular-62" d="M467 800c0-275-13-589-25-800h486l26 512h19c230-410 589-582 1037-582 691 0 1388 550 1388 1657 7 941-537 1581-1305 1581-499 0-858-224-1056-570h-13v1946H467V800zm557 998c0 90 19 167 32 231 115 429 474 691 858 691 601 0 921-531 921-1152 0-710-352-1190-941-1190-409 0-736 268-844 659-13 64-26 134-26 205v556z" transform="scale(.01563)"/><path id="MyriadPro-Regular-71" d="M2579-1267h563v3513c0 320 7 589 20 852h-532l-19-468h-13c-153 301-473 538-953 538-653 0-1402-512-1402-1670C243 557 832-70 1555-70c499 0 845 243 1011 550h13v-1747zm0 2528c0-83-19-192-45-269-128-390-441-614-806-614-621 0-915 537-915 1152 0 697 352 1190 934 1190 423 0 723-294 807-640 19-70 25-160 25-237v-582z" transform="scale(.01563)"/><path id="MyriadPro-Regular-6b" d="M1024 4544H467V0h557v1165l288 320L2381 0h685L1702 1824l1197 1274h-678l-909-1069c-90-109-198-243-275-352h-13v2867z" transform="scale(.01563)"/><path id="MyriadPro-Regular-4f" d="M2234 4384c-1152 0-2004-896-2004-2266C230 813 1030-70 2170-70c1100 0 2003 787 2003 2272 0 1280-762 2182-1939 2182zm-26-454c928 0 1376-896 1376-1754 0-979-499-1792-1382-1792-877 0-1376 826-1376 1747 0 947 460 1799 1382 1799z" transform="scale(.01563)"/><path id="MyriadPro-Regular-76" d="M83 3098 1261 0h537l1216 3098h-588l-602-1741c-102-282-192-538-262-794h-20c-64 256-147 512-249 794L685 3098H83z" transform="scale(.01563)"/></defs><use xlink:href="#MyriadPro-Regular-44"/><use xlink:href="#MyriadPro-Regular-61" x="66.6"/><use xlink:href="#MyriadPro-Regular-69" x="114.8"/><use xlink:href="#MyriadPro-Regular-6c" x="138.2"/><use xlink:href="#MyriadPro-Regular-79" x="161.8"/><use xlink:href="#MyriadPro-Regular-20" x="208.9"/><use xlink:href="#MyriadPro-Regular-6e" x="230.1"/><use xlink:href="#MyriadPro-Regular-75" x="285.6"/><use xlink:href="#MyriadPro-Regular-6d" x="340.7"/><use xlink:href="#MyriadPro-Regular-62" x="424.1"/><use xlink:href="#MyriadPro-Regular-65" x="481"/><use xlink:href="#MyriadPro-Regular-72" x="531.1"/><use xlink:href="#MyriadPro-Regular-20" x="563.8"/><use xlink:href="#MyriadPro-Regular-6f" x="585"/><use xlink:href="#MyriadPro-Regular-66" x="639.9"/><use xlink:href="#MyriadPro-Regular-20" x="669.1"/><use xlink:href="#MyriadPro-Regular-71" x="690.3"/><use xlink:href="#MyriadPro-Regular-75" x="746.6"/><use xlink:href="#MyriadPro-Regular-65" x="801.7"/><use xlink:href="#MyriadPro-Regular-73" x="851.8"/><use xlink:href="#MyriadPro-Regular-74" x="891.4"/><use xlink:href="#MyriadPro-Regular-69" x="924.5"/><use xlink:href="#MyriadPro-Regular-6f" x="947.9"/><use xlink:href="#MyriadPro-Regular-6e" x="1002.8"/><use xlink:href="#MyriadPro-Regular-73" x="1058.3"/><use xlink:href="#MyriadPro-Regular-20" x="1097.9"/><use xlink:href="#MyriadPro-Regular-6f" x="1119.1"/><use xlink:href="#MyriadPro-Regular-6e" x="1174"/><use xlink:href="#MyriadPro-Regular-20" x="1229.5"/><use xlink:href="#MyriadPro-Regular-53" x="1250.7"/><use xlink:href="#MyriadPro-Regular-74" x="1300"/><use xlink:href="#MyriadPro-Regular-61" x="1333.1"/><use xlink:href="#MyriadPro-Regular-63" x="1381.3"/><use xlink:href="#MyriadPro-Regular-6b" x="1426.1"/><use xlink:href="#MyriadPro-Regular-4f" x="1473"/><use xlink:href="#MyriadPro-Regular-76" x="1541.9"/><use xlink:href="#MyriadPro-Regular-65" x="1590"/><use xlink:href="#MyriadPro-Regular-72" x="1640.1"/><use xlink:href="#MyriadPro-Regular-66" x="1672.8"/><use xlink:href="#MyriadPro-Regular-6c" x="1702"/><use xlink:href="#MyriadPro-Regular-6f" x="1725.6"/><use xlink:href="#MyriadPro-Regular-77" x="1780.5"/></g><path d="m28.563 323.199 1.75.206 2.266-.11 2.268.11h6.692l2.27-.22 2.268.22 6.842-.426 2.268.316 11.304-.008 4.462-.212 2.269.33 2.268-.22 4.574.007 6.804-.338 2.269.338h2.305l4.386-.96 2.27-.038 2.268.145 2.269.515 2.268-1.58 2.305.213 2.269-.835 2.27.195 2.266-1.737 2.268 1.737 2.306-.852 2.23.448 2.23-2.367 2.27 2.356 2.268-3.741 2.269.877 2.268.189 2.305 1.065 2.269.508 2.27-2.532 2.266 2.422 2.268.455 2.306-2.451 2.194.164 2.192-1.123 2.27.533 2.268-.427 2.268-1.005 2.269-.806 2.305-.214 2.268 1.13 2.27-1.023 2.267.032 2.268 2.739 4.5-1.724 2.192 1.191 2.27 1.979 2.268-.913 2.268 1.684 2.268-2.643 2.306.532 2.268.018 2.27.196 2.267-2.178 2.268-1.872 2.305 1.812 2.194-.75 2.192 1.496 2.27 1.847 2.269-1.528 2.268-.234 2.268 1.62 2.305-2.451 2.269 3.254 2.27.05 2.266-1.482 2.269 2.12 2.305-1.491L229.47 316l2.23.584 2.27-.117 2.268.437 2.268-.987 2.268.241 2.306-1.705 2.268-10.1 2.27 4.345 2.266 4.025 2.269 2.476 2.305-2.345 2.194 1.112 2.192-4.096 2.27 2.082 2.268-2.082 2.269 2.302 2.268.47 2.305-1.173 2.268 1.805 2.27-1.805 2.267.813 2.268 3.663 2.306-3.304 2.194 1.915 2.192-2.66 2.27 2.7 2.268-.143 2.268-1.51 2.268-1.048h2.306l2.268 1.709 2.27-1.07 2.267-.362 2.268 1.961 2.305.213 2.194-1.796 2.193-.015 2.27.298 2.268-.618 2.268 1.83 2.268.728 2.306-.32 2.268 1.133 2.27-.494 2.266-1.158 2.269 2.97 2.305-2.344 2.231-.838 2.23.518 2.27-.966 2.268.966 2.268.685 2.268-.152 2.306 2.45 2.268-2.738 2.27 2.206 2.266-1.766 2.269 3.684 2.305-3.303 2.194-.16 2.192 1.865 2.27.778 2.268-.352 2.269-.86 2.268 2.565 2.305-2.664 2.269 1.751 2.27-.792 2.266-.089h0" clip-path="url(#p74633022ba)" style="fill:none;stroke:#2ca02c;stroke-width:1.5;stroke-linecap:square" id="line2d_28"/><path d="m55.187 323.405 2.27-.106 4.535.106h27.145l2.305-.32 4.386.32 2.27-.22 2.268.007 2.269-.117 2.268.224 2.305-.427 2.269.313 6.804-.206 2.306.106 2.23-.363 2.23.47 2.27-.558 2.268.558 2.269-4.963 2.268.487 2.305-2.345 2.269.427 2.27-.746 2.266-.025 2.268 3.861 2.306.213 2.194.708 2.192-.068 2.27.351 2.268-.245 2.268 1.126 2.269-1.019 2.305 1.599 2.268-1.02 2.27-1.218 2.267.888 2.268.71 2.306-2.344 2.193 1.004 2.193-.578 2.27 1.208 2.268-1.208 2.268 1.097 2.268-.351 2.306-1.599 2.268 1.62 2.27-2.046 2.267.394 2.268.565 2.305.426 2.194-2.005 2.192 1.153 2.27-.8 2.269 1.12 2.268-.239 2.268 1.41 2.305-2.664 2.269.153 2.27-.26 2.266.921 2.269-1.666 2.305.746 2.231-1.4 2.23 1.08 2.27-.742 2.268-.324 2.268.874 2.268-.554 2.306-.959 2.268-.8 2.27 2.399 2.266.024 2.269-1.303 2.305 1.492 2.194.22 2.192-2.032 2.27 1.073 2.268-1.073 2.269-.8 2.268 1.226 2.305 2.025 2.268-.607 2.27-2.697 2.267 1.265 2.268 2.679 2.306-3.091 2.194.499 2.192.034 2.27-1.002 2.268-1.876 2.268 2.647 2.268.23 2.306-.852 2.268 2.714 2.27-5.058 2.267 1.424 2.268 2.306 2.305-1.919 2.194-.772 2.193 1.732 2.27-2.118 2.268-.973 2.268 2.075 2.268-2.608 2.306 1.386 2.268 1.662 2.27-1.45 2.266-1.083 2.269.977 2.305 1.279 2.231-2.389 2.23-1.021 2.27-2.59 2.268-1.886 2.268.014 2.268-.44 2.306 3.516 2.268-.323 2.27-1.062 2.266 3.485 2.269-1.993 2.305-4.05 2.194.308 2.192 1.397 2.27-1.499 2.268-.739 2.269 2.942 2.268.682 2.305-1.386 2.269 1.144 2.27 1.627 2.266-3.94h0" clip-path="url(#p74633022ba)" style="fill:none;stroke:#ff7f0e;stroke-width:1.5;stroke-linecap:square" id="line2d_29"/><path d="m28.563 320.72 4.016 2.024 2.268-.298 2.306-.533 4.386-1.385 2.27-.537 2.268-.742 2.268-2.562 2.269-1.488 2.305-2.984 2.268-.703 2.27 1.13 2.267-2.452 2.268 1.599 2.305-8.74 2.194 1.124 2.193-8.157 2.27 2.28 2.268-2.067 2.268-3.769 4.574-16.373 2.268 9.545 2.27 3.03 2.266-3.47 2.269-4.736 2.305-5.541 2.194-8.5 2.192 1.679 2.27 4.433 2.268-9.442 2.269 1.954 2.268 4.653 2.305-5.008 2.269-1.187 2.27 7.048 2.266-10.021 2.268-1.808 2.306-21.422 2.23-5.027 2.23-7.442 2.27 5.635 2.268.76 2.269-14.526 2.268 7.172 2.305-12.469 2.269-9.46 4.536-16.629 2.268 10.636 2.306-12.15L148 168.13l2.192 4.156 2.27-4.156 2.268 25.044 2.268-7.424 4.574-29.663 2.268-4.036 2.27-18.344 2.267 6.671 2.268 21.677 2.306-42.31 2.193-20.758 2.193-6.95 2.27 6.163 2.268 34.76 2.268 21.294 2.268-25.45 2.306-3.943 2.268-13.115 2.27 25.584 2.267 19.237 2.268 8.366 2.305-25.471 2.194-30.446 2.192 16.271 2.27-20.149 2.269 19.936 2.268-.554 2.268-.725 2.305 2.025 2.269-.97 2.27 3.102 2.266 5.048 2.269 6.355 2.305-17.584 2.231.448 2.23-.022 2.27-7.037 2.268.11 2.268 16.078 2.268 25.272 2.306-23.126 2.268 3.47 2.27-3.897 2.266 9.624 2.269 14.249 4.499-64.325 2.192 28.942 2.27 2.302 2.268-5.392 2.269 3.19 2.268.966 2.305 4.69 2.268 13.396 2.27-2.206 2.267-10.9 2.268 43.937 2.306-27.39 2.194 13.714 2.192-8.704 2.27 9.72 2.268-5.031 2.268 2.828 2.268-16.15 2.306-30.266 2.268.383 2.27-5.499 2.267 9.354 2.268 37.858 2.305-27.39 2.194-18.783 2.193 4.183 2.27 20.76 2.268 1.514 2.268 13.684 2.268-35.318 2.306 14.067 2.268 11.12 2.27-19.432 2.266 5.776 2.269 22.04 2.305-21.635 2.231-23.509 2.23 21.058 2.27-56.1 2.268-7.098 2.268 21.855 2.268 23.971 2.306 1.706 2.268 1.964 2.27 4.643 2.266 18.043 2.269 39.506 2.305-70.125 2.194 1.782 2.192-10.2 2.27 25.271 2.268 10.43 2.269 11.485 2.268-2.213 2.305 17.904 2.269-15.911 4.536 35.79h0" clip-path="url(#p74633022ba)" style="fill:none;stroke:#1f77b4;stroke-width:1.5;stroke-linecap:square" id="line2d_30"/></g></g><defs><clipPath id="p74633022ba"><path d="M28.563 57.293h357.12v266.112H28.563z"/></clipPath></defs></svg>