<svg xmlns:xlink="http://www.w3.org/1999/xlink" width="646.629" height="489.969" viewBox="0 0 484.972 367.477" xmlns="http://www.w3.org/2000/svg"><defs><style>*{stroke-linejoin:round;stroke-linecap:butt}</style></defs><g id="figure_1"><path d="M0 367.477h484.972V0H0v367.477z" style="fill:none" id="patch_1"/><g id="axes_1"><path d="M32.015 323.95h357.12V57.838H32.015V323.95z" style="fill:none" id="patch_2"/><g id="matplotlib.axis_1"><g id="xtick_1"><g id="line2d_1"><defs><path id="m3ac35b628e" d="M0 0v3.5" style="stroke:#b0b0b0;stroke-width:.4"/></defs><use xlink:href="#m3ac35b628e" x="65.953" y="323.95" style="fill:#b0b0b0;stroke:#b0b0b0;stroke-width:.4"/></g><g style="fill:#b0b0b0" transform="matrix(.14 0 0 -.14 48.138 341.588)" id="text_1"><defs><path id="DejaVuSans-32" d="M1228 531h2203V0H469v531q359 372 979 998 621 627 780 809 303 340 423 576 121 236 121 464 0 372-261 606-261 235-680 235-297 0-627-103-329-103-704-313v638q381 153 712 231 332 78 607 78 725 0 1156-363 431-362 431-968 0-288-108-546-107-257-392-607-78-91-497-524-418-433-1181-1211z" transform="scale(.01563)"/><path id="DejaVuSans-30" d="M2034 4250q-487 0-733-480-245-479-245-1442 0-959 245-1439 246-480 733-480 491 0 736 480 246 480 246 1439 0 963-246 1442-245 480-736 480zm0 500q785 0 1199-621 414-620 414-1801 0-1178-414-1799Q2819-91 2034-91q-784 0-1198 620-414 621-414 1799 0 1181 414 1801 414 621 1198 621z" transform="scale(.01563)"/><path id="DejaVuSans-31" d="M794 531h1031v3560L703 3866v575l1116 225h631V531h1031V0H794v531z" transform="scale(.01563)"/></defs><use xlink:href="#DejaVuSans-32"/><use xlink:href="#DejaVuSans-30" x="63.623"/><use xlink:href="#DejaVuSans-31" x="127.246"/><use xlink:href="#DejaVuSans-30" x="190.869"/></g></g><g id="xtick_2"><use xlink:href="#m3ac35b628e" x="119.233" y="323.95" style="fill:#b0b0b0;stroke:#b0b0b0;stroke-width:.4" id="line2d_2"/><g style="fill:#b0b0b0" transform="matrix(.14 0 0 -.14 101.418 341.588)" id="text_2"><use xlink:href="#DejaVuSans-32"/><use xlink:href="#DejaVuSans-30" x="63.623"/><use xlink:href="#DejaVuSans-31" x="127.246"/><use xlink:href="#DejaVuSans-32" x="190.869"/></g></g><g id="xtick_3"><use xlink:href="#m3ac35b628e" x="172.586" y="323.95" style="fill:#b0b0b0;stroke:#b0b0b0;stroke-width:.4" id="line2d_3"/><g style="fill:#b0b0b0" transform="matrix(.14 0 0 -.14 154.77 341.588)" id="text_3"><defs><path id="DejaVuSans-34" d="M2419 4116 825 1625h1594v2491zm-166 550h794V1625h666v-525h-666V0h-628v1100H313v609l1940 2957z" transform="scale(.01563)"/></defs><use xlink:href="#DejaVuSans-32"/><use xlink:href="#DejaVuSans-30" x="63.623"/><use xlink:href="#DejaVuSans-31" x="127.246"/><use xlink:href="#DejaVuSans-34" x="190.869"/></g></g><g id="xtick_4"><use xlink:href="#m3ac35b628e" x="225.866" y="323.95" style="fill:#b0b0b0;stroke:#b0b0b0;stroke-width:.4" id="line2d_4"/><g style="fill:#b0b0b0" transform="matrix(.14 0 0 -.14 208.05 341.588)" id="text_4"><defs><path id="DejaVuSans-36" d="M2113 2584q-425 0-674-291-248-290-248-796 0-503 248-796 249-292 674-292t673 292q248 293 248 796 0 506-248 796-248 291-673 291zm1253 1979v-575q-238 112-480 171-242 60-480 60-625 0-955-422-329-422-376-1275 184 272 462 417 279 145 613 145 703 0 1111-427 408-426 408-1160 0-719-425-1154Q2819-91 2113-91q-810 0-1238 620-428 621-428 1799 0 1106 525 1764t1409 658q238 0 480-47t505-140z" transform="scale(.01563)"/></defs><use xlink:href="#DejaVuSans-32"/><use xlink:href="#DejaVuSans-30" x="63.623"/><use xlink:href="#DejaVuSans-31" x="127.246"/><use xlink:href="#DejaVuSans-36" x="190.869"/></g></g><g id="xtick_5"><use xlink:href="#m3ac35b628e" x="279.218" y="323.95" style="fill:#b0b0b0;stroke:#b0b0b0;stroke-width:.4" id="line2d_5"/><g style="fill:#b0b0b0" transform="matrix(.14 0 0 -.14 261.403 341.588)" id="text_5"><defs><path id="DejaVuSans-38" d="M2034 2216q-450 0-708-241-257-241-257-662 0-422 257-663 258-241 708-241t709 242q260 243 260 662 0 421-258 662-257 241-711 241zm-631 268q-406 100-633 378-226 279-226 679 0 559 398 884 399 325 1092 325 697 0 1094-325t397-884q0-400-227-679-226-278-629-378 456-106 710-416 255-309 255-755 0-679-414-1042Q2806-91 2034-91q-771 0-1186 362-414 363-414 1042 0 446 256 755 257 310 713 416zm-231 997q0-362 226-565 227-203 636-203 407 0 636 203 230 203 230 565 0 363-230 566-229 203-636 203-409 0-636-203-226-203-226-566z" transform="scale(.01563)"/></defs><use xlink:href="#DejaVuSans-32"/><use xlink:href="#DejaVuSans-30" x="63.623"/><use xlink:href="#DejaVuSans-31" x="127.246"/><use xlink:href="#DejaVuSans-38" x="190.869"/></g></g><g id="xtick_6"><use xlink:href="#m3ac35b628e" x="332.498" y="323.95" style="fill:#b0b0b0;stroke:#b0b0b0;stroke-width:.4" id="line2d_6"/><g style="fill:#b0b0b0" transform="matrix(.14 0 0 -.14 314.683 341.588)" id="text_6"><use xlink:href="#DejaVuSans-32"/><use xlink:href="#DejaVuSans-30" x="63.623"/><use xlink:href="#DejaVuSans-32" x="127.246"/><use xlink:href="#DejaVuSans-30" x="190.869"/></g></g><g id="xtick_7"><use xlink:href="#m3ac35b628e" x="385.851" y="323.95" style="fill:#b0b0b0;stroke:#b0b0b0;stroke-width:.4" id="line2d_7"/><g style="fill:#b0b0b0" transform="matrix(.14 0 0 -.14 368.036 341.588)" id="text_7"><use xlink:href="#DejaVuSans-32"/><use xlink:href="#DejaVuSans-30" x="63.623"/><use xlink:href="#DejaVuSans-32" x="127.246"/><use xlink:href="#DejaVuSans-32" x="190.869"/></g></g></g><g id="matplotlib.axis_2"><g id="ytick_1"><path d="M32.015 323.95h357.12" clip-path="url(#p05796297cd)" style="fill:none;stroke:#b0b0b0;stroke-width:.3;stroke-linecap:square" id="line2d_8"/><g id="line2d_9"><defs><path id="mcbfb6ed94a" d="M0 0h-3.5" style="stroke:#b0b0b0;stroke-width:.3"/></defs><use xlink:href="#mcbfb6ed94a" x="32.015" y="323.95" style="fill:#b0b0b0;stroke:#b0b0b0;stroke-width:.3"/></g><use xlink:href="#DejaVuSans-30" style="fill:#b0b0b0" transform="matrix(.14 0 0 -.14 16.108 329.269)" id="text_8"/></g><g id="ytick_2"><path d="M32.015 290.912h357.12" clip-path="url(#p05796297cd)" style="fill:none;stroke:#b0b0b0;stroke-width:.3;stroke-linecap:square" id="line2d_10"/><use xlink:href="#mcbfb6ed94a" x="32.015" y="290.912" style="fill:#b0b0b0;stroke:#b0b0b0;stroke-width:.3" id="line2d_11"/><g style="fill:#b0b0b0" transform="matrix(.14 0 0 -.14 7.2 296.231)" id="text_9"><use xlink:href="#DejaVuSans-31"/><use xlink:href="#DejaVuSans-30" x="63.623"/></g></g><g id="ytick_3"><path d="M32.015 257.875h357.12" clip-path="url(#p05796297cd)" style="fill:none;stroke:#b0b0b0;stroke-width:.3;stroke-linecap:square" id="line2d_12"/><use xlink:href="#mcbfb6ed94a" x="32.015" y="257.875" style="fill:#b0b0b0;stroke:#b0b0b0;stroke-width:.3" id="line2d_13"/><g style="fill:#b0b0b0" transform="matrix(.14 0 0 -.14 7.2 263.194)" id="text_10"><use xlink:href="#DejaVuSans-32"/><use xlink:href="#DejaVuSans-30" x="63.623"/></g></g><g id="ytick_4"><path d="M32.015 224.837h357.12" clip-path="url(#p05796297cd)" style="fill:none;stroke:#b0b0b0;stroke-width:.3;stroke-linecap:square" id="line2d_14"/><use xlink:href="#mcbfb6ed94a" x="32.015" y="224.837" style="fill:#b0b0b0;stroke:#b0b0b0;stroke-width:.3" id="line2d_15"/><g style="fill:#b0b0b0" transform="matrix(.14 0 0 -.14 7.2 230.156)" id="text_11"><defs><path id="DejaVuSans-33" d="M2597 2516q453-97 707-404 255-306 255-756 0-690-475-1069Q2609-91 1734-91q-293 0-604 58T488 141v609q262-153 574-231 313-78 654-78 593 0 904 234t311 681q0 413-289 645-289 233-804 233h-544v519h569q465 0 712 186t247 536q0 359-255 551-254 193-729 193-260 0-557-57-297-56-653-174v562q360 100 674 150t592 50q719 0 1137-327 419-326 419-882 0-388-222-655t-631-370z" transform="scale(.01563)"/></defs><use xlink:href="#DejaVuSans-33"/><use xlink:href="#DejaVuSans-30" x="63.623"/></g></g><g id="ytick_5"><path d="M32.015 191.8h357.12" clip-path="url(#p05796297cd)" style="fill:none;stroke:#b0b0b0;stroke-width:.3;stroke-linecap:square" id="line2d_16"/><use xlink:href="#mcbfb6ed94a" x="32.015" y="191.8" style="fill:#b0b0b0;stroke:#b0b0b0;stroke-width:.3" id="line2d_17"/><g style="fill:#b0b0b0" transform="matrix(.14 0 0 -.14 7.2 197.119)" id="text_12"><use xlink:href="#DejaVuSans-34"/><use xlink:href="#DejaVuSans-30" x="63.623"/></g></g><g id="ytick_6"><path d="M32.015 158.762h357.12" clip-path="url(#p05796297cd)" style="fill:none;stroke:#b0b0b0;stroke-width:.3;stroke-linecap:square" id="line2d_18"/><use xlink:href="#mcbfb6ed94a" x="32.015" y="158.762" style="fill:#b0b0b0;stroke:#b0b0b0;stroke-width:.3" id="line2d_19"/><g style="fill:#b0b0b0" transform="matrix(.14 0 0 -.14 7.2 164.081)" id="text_13"><defs><path id="DejaVuSans-35" d="M691 4666h2478v-532H1269V2991q137 47 274 70 138 23 276 23 781 0 1237-428 457-428 457-1159 0-753-469-1171Q2575-91 1722-91q-294 0-599 50Q819 9 494 109v635q281-153 581-228t634-75q541 0 856 284 316 284 316 772 0 487-316 771-315 285-856 285-253 0-505-56-251-56-513-175v2344z" transform="scale(.01563)"/></defs><use xlink:href="#DejaVuSans-35"/><use xlink:href="#DejaVuSans-30" x="63.623"/></g></g><g id="ytick_7"><path d="M32.015 125.725h357.12" clip-path="url(#p05796297cd)" style="fill:none;stroke:#b0b0b0;stroke-width:.3;stroke-linecap:square" id="line2d_20"/><use xlink:href="#mcbfb6ed94a" x="32.015" y="125.725" style="fill:#b0b0b0;stroke:#b0b0b0;stroke-width:.3" id="line2d_21"/><g style="fill:#b0b0b0" transform="matrix(.14 0 0 -.14 7.2 131.044)" id="text_14"><use xlink:href="#DejaVuSans-36"/><use xlink:href="#DejaVuSans-30" x="63.623"/></g></g><g id="ytick_8"><path d="M32.015 92.687h357.12" clip-path="url(#p05796297cd)" style="fill:none;stroke:#b0b0b0;stroke-width:.3;stroke-linecap:square" id="line2d_22"/><use xlink:href="#mcbfb6ed94a" x="32.015" y="92.687" style="fill:#b0b0b0;stroke:#b0b0b0;stroke-width:.3" id="line2d_23"/><g style="fill:#b0b0b0" transform="matrix(.14 0 0 -.14 7.2 98.006)" id="text_15"><defs><path id="DejaVuSans-37" d="M525 4666h3000v-269L1831 0h-659l1594 4134H525v532z" transform="scale(.01563)"/></defs><use xlink:href="#DejaVuSans-37"/><use xlink:href="#DejaVuSans-30" x="63.623"/></g></g><g id="ytick_9"><path d="M32.015 59.65h357.12" clip-path="url(#p05796297cd)" style="fill:none;stroke:#b0b0b0;stroke-width:.3;stroke-linecap:square" id="line2d_24"/><use xlink:href="#mcbfb6ed94a" x="32.015" y="59.65" style="fill:#b0b0b0;stroke:#b0b0b0;stroke-width:.3" id="line2d_25"/><g style="fill:#b0b0b0" transform="matrix(.14 0 0 -.14 7.2 64.968)" id="text_16"><use xlink:href="#DejaVuSans-38"/><use xlink:href="#DejaVuSans-30" x="63.623"/></g></g></g><path d="m32.015 323.95 1.715-.107 2.226-.003 4.489-.53 2.153.286 4.38-.417 2.225.025 2.226-.906 2.226-.373 2.263.32 2.226-1.599 2.226 1.386 2.226-2.047 2.226 1.087 2.263-2.344 2.153-.678 2.153-.92 2.226.543 2.226-1.29 2.226-2.565 2.226-2.017 2.263.106 2.226-3.595 2.226 2.316 2.226-4.849 2.226-1.225 2.263-5.33 2.153-1.468 2.153-6.524 2.226 5.957 2.226-4.252 2.226-2.906 2.226 2.693 2.263-3.09 2.226 1.058 2.226-6.174 2.226-.764 2.226 3.215 2.262-8.526 2.19-7.125 2.19 3.076 2.226 7.268 2.226-6.63 2.226 1.013 2.226-16.465 2.262-.64 2.226 3.34 2.227-3.446 2.226-5.585 2.226 6.757 2.262-11.723 2.153.86 2.153 12.995 2.227-3.492 2.226 4.238 2.226 1.929 2.226-5.553 2.262 5.755 2.226-1.744 2.226-5.077 2.226 7.83 2.227-.263 2.262-7.247 2.153.187 2.153-5.622 2.226 5.897 2.226 1.03 2.226 4.697 2.227-8.853 2.262 12.575 2.226-1.96 2.226 7.609 2.226-.01 2.226 2.354 2.263-2.238 2.153-4.86 2.153 1.237 2.226-7.947 2.226 5.496 2.226 4.195 2.226 4.757 2.263 1.492 2.226-5.918 2.226 6.45 2.226 1.479 2.226 1.932 2.263-.32 2.19.195 2.189 1.51 2.226 5.162 2.226.487 2.226 5.13 2.226.305 2.263 2.664 2.226 1.325 2.226 2.086 2.226-.213 2.226 1.705 2.263.106 2.153-1.457 2.153 7.212 2.226-1.84 2.226-1.464 2.226 2.675 2.226-3.527 2.263 5.115 2.226.835 2.226-.302 2.226-5.534 2.226 7.026 2.263-1.172 2.153 2.775 2.153 1.381 2.226.562 4.452.11 2.226-2.59 2.263-1.172 2.226-1.524 2.226 3.122 2.226 2.494 2.226-.256 2.262-.746 2.153-1.027 2.154-.678 2.226 3.808 2.226-1.676 2.226.685 2.226-2.177 2.262 1.918 2.226-1.393 2.227-.312 2.226.422 2.226 1.496 2.262-2.025 2.19 2.462 2.19 1.908 2.225-2.96 2.227.189 2.226-.409 2.226-.124 2.262 2.984 2.226-1.428 2.226-.917 2.226 2.569 2.226.628 2.263-.639 2.153 1.096 2.153.396 2.226-2.032 2.226 1.5 2.226-1.17 2.227 2.341 2.262-1.918 4.452.32 2.226 2.01 2.226-1.69 2.263 1.492 2.153.167h0" clip-path="url(#p05796297cd)" style="fill:none;stroke:#8c564b;stroke-width:1.5;stroke-linecap:square" id="line2d_26"/><path d="m53.655 323.95 4.489-.11 4.452.11 4.489-.213 4.306.213 2.226-.11 4.452.11 2.226-.107 2.263.107 2.226-.22 2.226-.1 2.226.1 2.226-.1 2.263-.32 2.153.522 2.153-.095 4.452-.96 2.226.622 2.226.338 2.263-.427 2.226-.572 2.226.679 2.226-.348 2.226-.185 2.262.107 2.19-.408 2.19-.125 4.452.32 2.226-.15 2.226-.81 2.262.427 2.226-.388 2.227-.678 2.226-.533 4.488-.107 2.153-1.309 2.153-.396 2.227-2.042 2.226 2.788 2.226-1.026 2.226.067 2.262.746 2.226-.813 2.226 1.026 2.226-1.687 2.227 2.54 2.262-3.09h2.153l2.153.426 2.226 1.115 2.226.696 2.226-1.577 2.227-.448 2.262 1.599 2.226-.38 2.226 1.872 2.226-2.092 2.226.92 2.263-1.28 2.153-.734 2.153-.544 2.226-.124 2.226.763 2.226.008 2.226-.86 2.263 1.066 2.226-.977 2.226.23 2.226.76 2.226.2 2.263-1.705 2.19-.53 2.189.956 2.226-1.783 2.226 3.275 2.226-.302 2.226-1.084 2.263-1.811 2.226.142 2.226 1.563 2.226-2.554 2.226 2.34 4.416-3.04 2.153 1.442 2.226 1.35 2.226 1.208 2.226.334 2.226-1.187 2.263 2.025 2.226-2.38 2.226 2.38 2.226-1.83 2.226 2.47 2.263.213 2.153-.834 2.153-1.937 2.226 2.732 2.226-.388 2.226-.273 2.226-1.645 2.263.64 2.226-1.638 2.226.678 2.226.974 2.226 1.371 2.262-1.918 2.153.696 2.154.156 2.226 2.118 2.226-1.478 2.226 1.367 6.714-1.651 4.453.55 2.226 1.865 2.262-1.705 2.19-.559 2.19.985 2.225-2.458 2.227.966 2.226.025 2.226.508 2.262-.959 2.226 1.002 2.226.277 2.226-.057 2.226 1.016 2.263-1.705 2.153-.853 2.153.746 2.226.906 2.226-.373 2.226.263 2.227 1.869 2.262.746 2.226-1.514 2.226.661 2.226-.991 2.226 1.737 2.263.213 2.153-1.903h0" clip-path="url(#p05796297cd)" style="fill:none;stroke:#9467bd;stroke-width:1.5;stroke-linecap:square" id="line2d_27"/><path d="m32.015 320.44 1.715 2.338 2.226.07 2.226-.07 2.263-.214 2.153-.62 2.153-1.085 2.226.448 2.226-1.087 2.226-1.887 2.226.288 2.263-4.902 2.226-2.764 2.226.739 2.226-1.18 2.226 3.098 2.263-5.542 2.153-3.353 2.153-.59 2.226-1.541 2.226-2.615 2.226-8.949 2.226-2.348 2.263-5.648 2.226 11.96 2.226 1.575 2.226-2.125 2.226 2.444 4.416-25.672 2.153 8.088 2.226 10.515 2.226 4.938 2.226-.092 4.489 6.486 2.226-2.742 2.226-4.931 2.226-.025 2.226 8.977 2.262-3.836 2.19-.952 2.19 2.444 2.226-.576 2.226-.916 2.226-1.507 2.226 4.917 2.262-3.304 2.226 4.334 2.227-2.096 2.226-6.824 2.226 5.972 2.262-.32 2.153-2.002 2.153 4.986 2.227 1.606 2.226.419 2.226 2.113 2.226-3.605 2.262-1.599 2.226 3.553 2.226-.462 2.226.682 2.227 4.646 2.262-6.82 2.153.734 2.153 2.89 2.226-2 2.226-.239 2.226 5.855 2.227-3.937 2.262 1.492 2.226.132 2.226-.238 2.226 3.432 2.226-.128 2.263-.853 2.153-.506 2.153-3.544 2.226 2.388 2.226.277 2.226-2.59 2.226 3.655 2.263 3.41 4.452-4.689 2.226.818 2.226 2.486 2.263 2.025 2.19-2.499 2.189 1.86 2.226-2.881 2.226.643 2.226 1.56 2.226.145 2.263-.533 2.226 1.599 2.226-.746 2.226.415 2.226.224 2.263-3.197 2.153 3.894 2.153.688 2.226 1.144 2.226-2.742 2.226 1.861 2.226-2.607 2.263 2.344 2.226 1.254 2.226.771 2.226-1.762 2.226 1.762 2.263-.32 2.153-.978 2.153.02 2.226-2.136 2.226 1.39 2.226 1.914 2.226-2.98 2.263.213 2.226.014 2.226 2.01 2.226-.358 2.226.039 2.262-.213 2.153.795 2.154.484 2.226-1.986 2.226.174 2.226 2.139 2.226-.967 2.262.427 2.226-.452 2.227 1.41 2.226-1.63 2.226 1.95 2.262-3.73 2.19 1.518 2.19 1.786 2.225-.753 2.227 2.245 2.226-3.236 2.226.252 2.262 2.771 2.226-.16 2.226-.48 2.226-1.832 2.226 3.111 2.263-1.172 2.153-1.75 2.153.578 2.226 1.435 2.226.057 2.226-.718 2.227 1.144 2.262-.852 2.226 1.36 2.226-.401 2.226-.04 2.226.466 2.263.853 2.153-1.287h0" clip-path="url(#p05796297cd)" style="fill:none;stroke:#d62728;stroke-width:1.5;stroke-linecap:square" id="line2d_28"/><g style="fill:#1f77b4" transform="matrix(.14 0 0 -.14 399.849 165.929)" id="text_17"><defs><path id="DejaVuSans-77" d="M269 3500h575l719-2731 715 2731h678l719-2731 716 2731h575L4050 0h-678l-753 2869L1863 0h-679L269 3500z" transform="scale(.01563)"/><path id="DejaVuSans-6f" d="M1959 3097q-462 0-731-361t-269-989q0-628 267-989 268-361 733-361 460 0 728 362 269 363 269 988 0 622-269 986-268 364-728 364zm0 487q750 0 1178-488 429-487 429-1349 0-859-429-1349Q2709-91 1959-91q-753 0-1180 489-426 490-426 1349 0 862 426 1349 427 488 1180 488z" transform="scale(.01563)"/><path id="DejaVuSans-72" d="M2631 2963q-97 56-211 82-114 27-251 27-488 0-749-317t-261-911V0H581v3500h578v-544q182 319 472 473 291 155 707 155 59 0 131-8 72-7 159-23l3-590z" transform="scale(.01563)"/><path id="DejaVuSans-64" d="M2906 2969v1894h575V0h-575v525q-181-312-458-464-276-152-664-152-634 0-1033 506-398 507-398 1332t398 1331q399 506 1033 506 388 0 664-152 277-151 458-463zM947 1747q0-634 261-995t717-361q456 0 718 361 263 361 263 995t-263 995q-262 361-718 361t-717-361q-261-361-261-995z" transform="scale(.01563)"/><path id="DejaVuSans-70" d="M1159 525v-1856H581v4831h578v-531q182 312 458 463 277 152 661 152 638 0 1036-506 399-506 399-1331T3314 415Q2916-91 2278-91q-384 0-661 152-276 152-458 464zm1957 1222q0 634-261 995t-717 361q-457 0-718-361t-261-995q0-634 261-995t718-361q456 0 717 361t261 995z" transform="scale(.01563)"/><path id="DejaVuSans-65" d="M3597 1894v-281H953q38-594 358-905t892-311q331 0 642 81t618 244V178Q3153 47 2828-22t-659-69q-838 0-1327 487-489 488-489 1320 0 859 464 1363 464 505 1252 505 706 0 1117-455 411-454 411-1235zm-575 169q-6 471-264 752-258 282-683 282-481 0-770-272t-333-766l2050 4z" transform="scale(.01563)"/><path id="DejaVuSans-73" d="M2834 3397v-544q-243 125-506 187-262 63-544 63-428 0-642-131t-214-394q0-200 153-314t616-217l197-44q612-131 870-370t258-667q0-488-386-773Q2250-91 1575-91q-281 0-586 55T347 128v594q319-166 628-249 309-82 613-82 406 0 624 139 219 139 219 392 0 234-158 359-157 125-692 241l-200 47q-534 112-772 345-237 233-237 639 0 494 350 762 350 269 994 269 318 0 599-47 282-46 519-140z" transform="scale(.01563)"/></defs><use xlink:href="#DejaVuSans-77"/><use xlink:href="#DejaVuSans-6f" x="81.787"/><use xlink:href="#DejaVuSans-72" x="142.969"/><use xlink:href="#DejaVuSans-64" x="182.332"/><use xlink:href="#DejaVuSans-70" x="245.809"/><use xlink:href="#DejaVuSans-72" x="309.285"/><use xlink:href="#DejaVuSans-65" x="348.148"/><use xlink:href="#DejaVuSans-73" x="409.672"/><use xlink:href="#DejaVuSans-73" x="461.771"/></g><g style="fill:#ff7f0e" transform="matrix(.14 0 0 -.14 399.849 293.394)" id="text_18"><defs><path id="DejaVuSans-68" d="M3513 2113V0h-575v2094q0 497-194 743-194 247-581 247-466 0-735-297-269-296-269-809V0H581v4863h578V2956q207 316 486 472 280 156 646 156 603 0 912-373 310-373 310-1098z" transform="scale(.01563)"/><path id="DejaVuSans-69" d="M603 3500h575V0H603v3500zm0 1363h575v-729H603v729z" transform="scale(.01563)"/><path id="DejaVuSans-66" d="M2375 4863v-479h-550q-309 0-430-125-120-125-120-450v-309h947v-447h-947V0H697v3053H147v447h550v244q0 584 272 851 272 268 862 268h544z" transform="scale(.01563)"/><path id="DejaVuSans-79" d="M2059-325q-243-625-475-815-231-191-618-191H506v481h338q237 0 368 113 132 112 291 531l103 262L191 3500h609L1894 763l1094 2737h609L2059-325z" transform="scale(.01563)"/></defs><use xlink:href="#DejaVuSans-73"/><use xlink:href="#DejaVuSans-68" x="52.1"/><use xlink:href="#DejaVuSans-6f" x="115.479"/><use xlink:href="#DejaVuSans-70" x="176.66"/><use xlink:href="#DejaVuSans-69" x="240.137"/><use xlink:href="#DejaVuSans-66" x="267.92"/><use xlink:href="#DejaVuSans-79" x="301.375"/></g><g style="fill:#2ca02c" transform="matrix(.14 0 0 -.14 399.849 307.394)" id="text_19"><defs><path id="DejaVuSans-74" d="M1172 4494v-994h1184v-447H1172V1153q0-428 117-550t477-122h590V0h-590q-666 0-919 248-253 249-253 905v1900H172v447h422v994h578z" transform="scale(.01563)"/></defs><use xlink:href="#DejaVuSans-74"/><use xlink:href="#DejaVuSans-79" x="39.209"/><use xlink:href="#DejaVuSans-70" x="98.389"/><use xlink:href="#DejaVuSans-6f" x="161.865"/><use xlink:href="#DejaVuSans-33" x="223.047"/></g><g style="fill:#d62728" transform="matrix(.14 0 0 -.14 399.849 321.394)" id="text_20"><defs><path id="DejaVuSans-75" d="M544 1381v2119h575V1403q0-497 193-746 194-248 582-248 465 0 735 297 271 297 271 810v1984h575V0h-575v538q-209-319-486-474-276-155-642-155-603 0-916 375-312 375-312 1097zm1447 2203z" transform="scale(.01563)"/><path id="DejaVuSans-61" d="M2194 1759q-697 0-966-159t-269-544q0-306 202-486 202-179 548-179 479 0 768 339t289 901v128h-572zm1147 238V0h-575v531q-197-318-491-470T1556-91q-537 0-855 302-317 302-317 808 0 590 395 890 396 300 1180 300h807v57q0 397-261 614t-733 217q-300 0-585-72-284-72-546-216v532q315 122 612 182 297 61 578 61 760 0 1135-394 375-393 375-1193z" transform="scale(.01563)"/><path id="DejaVuSans-6c" d="M603 4863h575V0H603v4863z" transform="scale(.01563)"/></defs><use xlink:href="#DejaVuSans-64"/><use xlink:href="#DejaVuSans-72" x="63.477"/><use xlink:href="#DejaVuSans-75" x="104.59"/><use xlink:href="#DejaVuSans-70" x="167.969"/><use xlink:href="#DejaVuSans-61" x="231.445"/><use xlink:href="#DejaVuSans-6c" x="292.725"/></g><g style="fill:#9467bd" transform="matrix(.14 0 0 -.14 399.849 335.394)" id="text_21"><use xlink:href="#DejaVuSans-70"/><use xlink:href="#DejaVuSans-72" x="63.477"/><use xlink:href="#DejaVuSans-65" x="102.34"/><use xlink:href="#DejaVuSans-73" x="163.863"/><use xlink:href="#DejaVuSans-74" x="215.963"/><use xlink:href="#DejaVuSans-61" x="255.172"/><use xlink:href="#DejaVuSans-73" x="316.451"/><use xlink:href="#DejaVuSans-68" x="368.551"/><use xlink:href="#DejaVuSans-6f" x="431.93"/><use xlink:href="#DejaVuSans-70" x="493.111"/></g><g style="fill:#8c564b" transform="matrix(.14 0 0 -.14 399.849 349.394)" id="text_22"><defs><path id="DejaVuSans-6d" d="M3328 2828q216 388 516 572t706 184q547 0 844-383 297-382 297-1088V0h-578v2094q0 503-179 746-178 244-543 244-447 0-707-297-259-296-259-809V0h-578v2094q0 506-178 748t-550 242q-441 0-701-298-259-298-259-808V0H581v3500h578v-544q197 322 472 475t653 153q382 0 649-194 267-193 395-562z" transform="scale(.01563)"/><path id="DejaVuSans-67" d="M2906 1791q0 625-258 968-257 344-723 344-462 0-720-344-258-343-258-968 0-622 258-966t720-344q466 0 723 344 258 344 258 966zm575-1357q0-893-397-1329-396-436-1215-436-303 0-572 45t-522 139v559q253-137 500-202 247-66 503-66 566 0 847 295t281 892v285q-178-310-456-463T1784 0Q1141 0 747 490 353 981 353 1791q0 812 394 1302 394 491 1037 491 388 0 666-153t456-462v531h575V434z" transform="scale(.01563)"/><path id="DejaVuSans-6e" d="M3513 2113V0h-575v2094q0 497-194 743-194 247-581 247-466 0-735-297-269-296-269-809V0H581v3500h578v-544q207 316 486 472 280 156 646 156 603 0 912-373 310-373 310-1098z" transform="scale(.01563)"/></defs><use xlink:href="#DejaVuSans-6d"/><use xlink:href="#DejaVuSans-61" x="97.412"/><use xlink:href="#DejaVuSans-67" x="158.691"/><use xlink:href="#DejaVuSans-65" x="222.168"/><use xlink:href="#DejaVuSans-6e" x="283.691"/><use xlink:href="#DejaVuSans-74" x="347.07"/><use xlink:href="#DejaVuSans-6f" x="386.279"/></g><g style="fill:#b0b0b0" transform="matrix(.09716 0 0 -.09716 32.015 357.986)" id="text_23"><defs><path id="DejaVuSans-40" d="M2381 1678q0-447 222-702 222-254 610-254 384 0 604 256 221 256 221 700 0 438-225 695-225 258-607 258-378 0-602-256-223-256-223-697zm1703-934q-187-241-429-355t-564-114q-538 0-874 389t-336 1014q0 625 337 1015 338 391 873 391 322 0 565-117 244-117 428-354v409h447V722q457 69 714 417 258 349 258 902 0 334-99 628-98 294-298 544-325 409-792 626t-1017 217q-384 0-738-102-353-101-653-301-490-319-767-836-276-517-276-1120 0-497 179-932 180-434 521-765 328-325 759-495 431-171 922-171 403 0 792 136t714 389l281-347q-390-303-851-464t-936-161q-578 0-1091 205-512 205-912 595Q841 78 631 592q-209 514-209 1105 0 569 212 1084 213 516 607 907 403 396 931 607t1119 211q662 0 1229-272 568-271 952-771 234-307 357-666 124-359 124-744 0-822-497-1297T4084 263v481z" transform="scale(.01563)"/><path id="DejaVuSans-63" d="M3122 3366v-538q-244 135-489 202t-495 67q-560 0-870-355-309-354-309-995t309-996q310-354 870-354 250 0 495 67t489 202V134Q2881 22 2623-34q-257-57-548-57-791 0-1257 497-465 497-465 1341 0 856 470 1346 471 491 1290 491 265 0 518-55 253-54 491-163z" transform="scale(.01563)"/><path id="DejaVuSans-2f" d="M1625 4666h531L531-594H0l1625 5260z" transform="scale(.01563)"/><path id="DejaVuSans-2d" d="M313 2009h1684v-512H313v512z" transform="scale(.01563)"/><path id="DejaVuSans-7c" d="M1344 4891v-6400H813v6400h531z" transform="scale(.01563)"/><path id="DejaVuSans-4e" d="M628 4666h850L3547 763v3903h612V0h-850L1241 3903V0H628v4666z" transform="scale(.01563)"/><path id="DejaVuSans-53" d="M3425 4513v-616q-359 172-678 256-319 85-616 85-515 0-795-200t-280-569q0-310 186-468 186-157 705-254l381-78q706-135 1042-474t336-907q0-679-455-1029Q2797-91 1919-91q-331 0-705 75-373 75-773 222v650q384-215 753-325 369-109 725-109 540 0 834 212 294 213 294 607 0 343-211 537t-692 291l-385 75q-706 140-1022 440-315 300-315 835 0 619 436 975t1201 356q329 0 669-60 341-59 697-177z" transform="scale(.01563)"/><path id="DejaVuSans-f6" d="M1959 3097q-462 0-731-361t-269-989q0-628 267-989 268-361 733-361 460 0 728 362 269 363 269 988 0 622-269 986-268 364-728 364zm0 487q750 0 1178-488 429-487 429-1349 0-859-429-1349Q2709-91 1959-91q-753 0-1180 489-426 490-426 1349 0 862 426 1349 427 488 1180 488zm295 1266h634v-631h-634v631zm-1222 0h634v-631h-634v631z" transform="scale(.01563)"/><path id="DejaVuSans-43" d="M4122 4306v-665q-319 297-680 443-361 147-767 147-800 0-1225-489t-425-1414q0-922 425-1411t1225-489q406 0 767 147t680 444V359q-331-225-702-338-370-112-782-112-1060 0-1670 648-609 649-609 1771 0 1125 609 1773 610 649 1670 649 418 0 788-111 371-111 696-333z" transform="scale(.01563)"/><path id="DejaVuSans-42" d="M1259 2228V519h1013q509 0 754 211 246 211 246 645 0 438-246 645-245 208-754 208H1259zm0 1919V2741h935q462 0 688 173 227 174 227 530 0 353-227 528-226 175-688 175h-935zm-631 519h1613q722 0 1112-300 391-300 391-853 0-429-200-682t-588-315q466-100 724-418 258-317 258-792 0-625-425-966Q3088 0 2303 0H628v4666z" transform="scale(.01563)"/><path id="DejaVuSans-59" d="M-13 4666h679l1293-1919 1285 1919h678L2272 2222V0h-634v2222L-13 4666z" transform="scale(.01563)"/></defs><use xlink:href="#DejaVuSans-40"/><use xlink:href="#DejaVuSans-6e" x="100"/><use xlink:href="#DejaVuSans-73" x="163.379"/><use xlink:href="#DejaVuSans-63" x="215.479"/><use xlink:href="#DejaVuSans-68" x="270.459"/><use xlink:href="#DejaVuSans-6c" x="333.838"/><use xlink:href="#DejaVuSans-6f" x="361.621"/><use xlink:href="#DejaVuSans-65" x="422.803"/><use xlink:href="#DejaVuSans-20" x="484.326"/><use xlink:href="#DejaVuSans-2f" x="516.113"/><use xlink:href="#DejaVuSans-20" x="549.805"/><use xlink:href="#DejaVuSans-73" x="581.592"/><use xlink:href="#DejaVuSans-6f" x="633.691"/><use xlink:href="#DejaVuSans-2d" x="696.748"/><use xlink:href="#DejaVuSans-74" x="732.832"/><use xlink:href="#DejaVuSans-72" x="772.041"/><use xlink:href="#DejaVuSans-65" x="810.904"/><use xlink:href="#DejaVuSans-6e" x="872.428"/><use xlink:href="#DejaVuSans-64" x="935.807"/><use xlink:href="#DejaVuSans-73" x="999.283"/><use xlink:href="#DejaVuSans-20" x="1051.383"/><use xlink:href="#DejaVuSans-7c" x="1083.17"/><use xlink:href="#DejaVuSans-20" x="1116.861"/><use xlink:href="#DejaVuSans-4e" x="1148.648"/><use xlink:href="#DejaVuSans-69" x="1223.453"/><use xlink:href="#DejaVuSans-63" x="1251.236"/><use xlink:href="#DejaVuSans-6f" x="1306.217"/><use xlink:href="#DejaVuSans-20" x="1367.398"/><use xlink:href="#DejaVuSans-53" x="1399.186"/><use xlink:href="#DejaVuSans-63" x="1462.662"/><use xlink:href="#DejaVuSans-68" x="1517.643"/><use xlink:href="#DejaVuSans-6c" x="1581.021"/><use xlink:href="#DejaVuSans-f6" x="1608.805"/><use xlink:href="#DejaVuSans-6d" x="1669.986"/><use xlink:href="#DejaVuSans-65" x="1767.398"/><use xlink:href="#DejaVuSans-72" x="1828.922"/><use xlink:href="#DejaVuSans-20" x="1870.035"/><use xlink:href="#DejaVuSans-7c" x="1901.822"/><use xlink:href="#DejaVuSans-20" x="1935.514"/><use xlink:href="#DejaVuSans-43" x="1967.301"/><use xlink:href="#DejaVuSans-43" x="2037.125"/><use xlink:href="#DejaVuSans-20" x="2106.949"/><use xlink:href="#DejaVuSans-42" x="2138.736"/><use xlink:href="#DejaVuSans-59" x="2201.84"/></g><g style="fill:#b0b0b0" transform="matrix(.14 0 0 -.14 54.43 17.838)" id="text_24"><defs><path id="DejaVuSans-44" d="M1259 4147V519h763q966 0 1414 437 448 438 448 1382 0 937-448 1373t-1414 436h-763zm-631 519h1297q1356 0 1990-564 635-564 635-1764 0-1207-638-1773Q3275 0 1925 0H628v4666z" transform="scale(.01563)"/><path id="DejaVuSans-62" d="M3116 1747q0 634-261 995t-717 361q-457 0-718-361t-261-995q0-634 261-995t718-361q456 0 717 361t261 995zM1159 2969q182 312 458 463 277 152 661 152 638 0 1036-506 399-506 399-1331T3314 415Q2916-91 2278-91q-384 0-661 152-276 152-458 464V0H581v4863h578V2969z" transform="scale(.01563)"/><path id="DejaVuSans-71" d="M947 1747q0-634 261-995t717-361q456 0 718 361 263 361 263 995t-263 995q-262 361-718 361t-717-361q-261-361-261-995zM2906 525q-181-312-458-464-276-152-664-152-634 0-1033 506-398 507-398 1332t398 1331q399 506 1033 506 388 0 664-152 277-151 458-463v531h575v-4831h-575V525z" transform="scale(.01563)"/><path id="DejaVuSans-6b" d="M581 4863h578V1991l1716 1509h734L1753 1863 3688 0h-750L1159 1709V0H581v4863z" transform="scale(.01563)"/><path id="DejaVuSans-4f" d="M2522 4238q-688 0-1093-513-404-512-404-1397 0-881 404-1394 405-512 1093-512 687 0 1089 512 402 513 402 1394 0 885-402 1397-402 513-1089 513zm0 512q981 0 1568-658 588-658 588-1764 0-1103-588-1761Q3503-91 2522-91q-984 0-1574 656-589 657-589 1763t589 1764q590 658 1574 658z" transform="scale(.01563)"/><path id="DejaVuSans-76" d="M191 3500h609L1894 563l1094 2937h609L2284 0h-781L191 3500z" transform="scale(.01563)"/></defs><use xlink:href="#DejaVuSans-44"/><use xlink:href="#DejaVuSans-61" x="77.002"/><use xlink:href="#DejaVuSans-69" x="138.281"/><use xlink:href="#DejaVuSans-6c" x="166.064"/><use xlink:href="#DejaVuSans-79" x="193.848"/><use xlink:href="#DejaVuSans-20" x="253.027"/><use xlink:href="#DejaVuSans-6e" x="284.814"/><use xlink:href="#DejaVuSans-75" x="348.193"/><use xlink:href="#DejaVuSans-6d" x="411.572"/><use xlink:href="#DejaVuSans-62" x="508.984"/><use xlink:href="#DejaVuSans-65" x="572.461"/><use xlink:href="#DejaVuSans-72" x="633.984"/><use xlink:href="#DejaVuSans-20" x="675.098"/><use xlink:href="#DejaVuSans-6f" x="706.885"/><use xlink:href="#DejaVuSans-66" x="768.066"/><use xlink:href="#DejaVuSans-20" x="803.271"/><use xlink:href="#DejaVuSans-71" x="835.059"/><use xlink:href="#DejaVuSans-75" x="898.535"/><use xlink:href="#DejaVuSans-65" x="961.914"/><use xlink:href="#DejaVuSans-73" x="1023.438"/><use xlink:href="#DejaVuSans-74" x="1075.537"/><use xlink:href="#DejaVuSans-69" x="1114.746"/><use xlink:href="#DejaVuSans-6f" x="1142.529"/><use xlink:href="#DejaVuSans-6e" x="1203.711"/><use xlink:href="#DejaVuSans-73" x="1267.09"/><use xlink:href="#DejaVuSans-20" x="1319.189"/><use xlink:href="#DejaVuSans-6f" x="1350.977"/><use xlink:href="#DejaVuSans-6e" x="1412.158"/><use xlink:href="#DejaVuSans-20" x="1475.537"/><use xlink:href="#DejaVuSans-53" x="1507.324"/><use xlink:href="#DejaVuSans-74" x="1570.801"/><use xlink:href="#DejaVuSans-61" x="1610.01"/><use xlink:href="#DejaVuSans-63" x="1671.289"/><use xlink:href="#DejaVuSans-6b" x="1726.27"/><use xlink:href="#DejaVuSans-4f" x="1784.18"/><use xlink:href="#DejaVuSans-76" x="1862.891"/><use xlink:href="#DejaVuSans-65" x="1922.07"/><use xlink:href="#DejaVuSans-72" x="1983.594"/><use xlink:href="#DejaVuSans-66" x="2024.707"/><use xlink:href="#DejaVuSans-6c" x="2059.912"/><use xlink:href="#DejaVuSans-6f" x="2087.695"/><use xlink:href="#DejaVuSans-77" x="2148.877"/></g><path d="m32.015 323.743 1.715.207 2.226-.11 2.226.11h6.569l2.226-.22 2.226.22 6.715-.426 2.226.316 11.094-.008 4.379-.213 2.226.33 2.226-.22 4.489.008 6.678-.338 2.226.338h2.263l4.306-.96 2.226-.039 2.226.146 2.226.515 2.226-1.58 2.263.213 2.226-.835 2.226.195 2.226-1.737 2.226 1.737 2.262-.853 2.19.449 2.19-2.367 2.226 2.355 2.226-3.74 2.226.877 2.226.188 2.262 1.066 2.226.508 2.227-2.533 2.226 2.423 2.226.455 2.262-2.451 2.153.163 2.153-1.123 2.227.533 2.226-.426 2.226-1.005 2.226-.807 2.262-.213 2.226 1.13 2.226-1.023 2.226.032 2.227 2.739 4.415-1.725 2.153 1.192 2.226 1.978 2.226-.913 2.226 1.684 2.227-2.643 2.262.533 2.226.018 2.226.195 2.226-2.177 2.226-1.872 2.263 1.811 2.153-.75 2.153 1.496 2.226 1.848 2.226-1.528 2.226-.234 2.226 1.62 2.263-2.452 2.226 3.254 2.226.05 2.226-1.481 2.226 2.12 2.263-1.492 2.19-1.756 2.189.584 2.226-.117 2.226.437 2.226-.988 2.226.242 2.263-1.705 2.226-10.1 2.226 4.345 2.226 4.025 2.226 2.476 2.263-2.345 2.153 1.112 2.153-4.096 2.226 2.082 2.226-2.082 2.226 2.302 2.226.469 2.263-1.172 2.226 1.804 2.226-1.804 2.226.813 2.226 3.663 2.263-3.304 2.153 1.914 2.153-2.66 2.226 2.7 2.226-.142 2.226-1.51 2.226-1.048h2.263l2.226 1.709 2.226-1.07 2.226-.362 2.226 1.961 2.262.213 2.153-1.796 2.154-.016 2.226.299 2.226-.618 2.226 1.83 2.226.727 2.262-.32 2.226 1.134 2.227-.494 2.226-1.158 2.226 2.97 2.262-2.345 2.19-.838 2.19.519 2.225-.967 2.227.967 2.226.685 2.226-.153 2.262 2.452 2.226-2.74 2.226 2.207 2.226-1.766 2.226 3.684 2.263-3.304 2.153-.16 2.153 1.865 2.226.778 2.226-.351 2.226-.86 2.227 2.565 2.262-2.664 2.226 1.75 2.226-.791 2.226-.09 2.226 1.901 2.263-1.811 2.153 1.13h0" clip-path="url(#p05796297cd)" style="fill:none;stroke:#2ca02c;stroke-width:1.5;stroke-linecap:square" id="line2d_29"/><path d="m58.144 323.95 2.226-.107 4.452.107h26.64l2.263-.32 4.306.32 2.226-.22 2.226.007 2.226-.118 2.226.224 2.263-.426 2.226.313 6.678-.206 2.262.106 2.19-.364 2.19.47 2.226-.557 2.226.558 2.226-4.963 2.226.487 2.262-2.345 2.226.426 2.227-.746 2.226-.025 2.226 3.862 2.262.213 2.153.708 2.153-.069 2.227.352 2.226-.245 2.226 1.126 2.226-1.02 2.262 1.6 2.226-1.02 2.226-1.219 2.226.888 2.227.71 2.262-2.344 2.153 1.005 2.153-.579 2.226 1.208 2.226-1.208 2.226 1.098 2.227-.352 2.262-1.598 2.226 1.62 2.226-2.046 2.226.394 2.226.565 2.263.426 2.153-2.006 2.153 1.153 2.226-.799 2.226 1.12 2.226-.239 2.226 1.41 2.263-2.664 2.226.153 2.226-.26 2.226.92 2.226-1.665 2.263.746 2.19-1.4 2.189 1.08 2.226-.743 2.226-.323 2.226.874 2.226-.554 2.263-.96 2.226-.799 2.226 2.398 2.226.025 2.226-1.304 2.263 1.492 2.153.221 2.153-2.032 2.226 1.073 2.226-1.073 2.226-.8 2.226 1.226 2.263 2.025 2.226-.608 2.226-2.696 2.226 1.265 2.226 2.678 2.263-3.09 2.153.498 2.153.035 2.226-1.002 2.226-1.876 2.226 2.647 2.226.23 2.263-.852 2.226 2.714 2.226-5.059 2.226 1.425 2.226 2.305 2.262-1.918 2.153-.773 2.154 1.732 2.226-2.117 2.226-.973 2.226 2.074 2.226-2.607 2.262 1.385 2.226 1.663 2.227-1.45 2.226-1.083 2.226.977 2.262 1.279 2.19-2.389 2.19-1.022 2.225-2.59 2.227-1.886 2.226.015 2.226-.441 2.262 3.517 2.226-.323 2.226-1.063 2.226 3.485 2.226-1.992 2.263-4.05 2.153.308 2.153 1.397 2.226-1.5 2.226-.738 2.226 2.941 2.227.682 2.262-1.385 2.226 1.144 2.226 1.627 2.226-3.94 2.226 3.727 2.263-.213 2.153-1.854h0" clip-path="url(#p05796297cd)" style="fill:none;stroke:#ff7f0e;stroke-width:1.5;stroke-linecap:square" id="line2d_30"/><path d="m32.015 321.266 3.941 2.023 2.226-.298 2.263-.533 4.306-1.386 2.226-.536 2.226-.743 2.226-2.56 2.226-1.49 2.263-2.983 2.226-.704 2.226 1.13 2.226-2.451 2.226 1.598 2.263-8.739 2.153 1.123 2.153-8.156 2.226 2.28 2.226-2.067 2.226-3.77 4.489-16.372 2.226 9.545 2.226 3.03 2.226-3.47L91.462 281l2.263-5.542 2.153-8.499 2.153 1.679 2.226 4.433 2.226-9.442 2.226 1.954 2.226 4.653 2.263-5.009 2.226-1.186 2.226 7.048 2.226-10.022 2.226-1.808 2.262-21.42 2.19-5.028 2.19-7.442 2.226 5.634 2.226.76 2.226-14.525 2.226 7.172 2.262-12.47 2.226-9.46 4.453-16.628 2.226 10.636 2.262-12.15 2.153-15.666 2.153 4.157 2.227-4.157 2.226 25.045 2.226-7.425 4.488-29.662 2.226-4.036 2.226-18.345 2.226 6.672 2.227 21.677 2.262-42.31 2.153-20.758 2.153-6.95 2.226 6.163 2.226 34.76 2.226 21.294 2.227-25.45 2.262-3.943 2.226-13.116 2.226 25.585 2.226 19.236 2.226 8.366 2.263-25.47 2.153-30.446 2.153 16.271 2.226-20.15 2.226 19.937 2.226-.554 2.226-.725 2.263 2.025 2.226-.97 2.226 3.102 2.226 5.047 2.226 6.356 2.263-17.585 2.19.449 2.189-.022 2.226-7.038 2.226.11 2.226 16.079 2.226 25.272 2.263-23.127 2.226 3.471 2.226-3.897 2.226 9.624 2.226 14.248 4.416-64.324 2.153 28.942 2.226 2.302 2.226-5.392 2.226 3.19 2.226.966 2.263 4.69 2.226 13.395 2.226-2.206 2.226-10.899 2.226 43.937 2.263-27.39 2.153 13.714 2.153-8.705 2.226 9.72 2.226-5.03 2.226 2.827 2.226-16.149 2.263-30.267 2.226.384 2.226-5.5 2.226 9.354 2.226 37.859 2.262-27.39 2.153-18.783 2.154 4.183 2.226 20.76 2.226 1.514 2.226 13.684 2.226-35.319 2.262 14.068 2.226 11.12 2.227-19.433 2.226 5.777 2.226 22.039 2.262-21.634 2.19-23.509 2.19 21.057 2.225-56.1 2.227-7.097 2.226 21.854 2.226 23.972 2.262 1.705 2.226 1.965 2.226 4.643 2.226 18.042 2.226 39.507 2.263-70.125 2.153 1.781 2.153-10.2 2.226 25.272 2.226 10.43 2.226 11.485 2.227-2.213 2.262 17.904 2.226-15.911 6.678 54.384 2.263-3.41 2.153-26.857h0" clip-path="url(#p05796297cd)" style="fill:none;stroke:#1f77b4;stroke-width:1.5;stroke-linecap:square" id="line2d_31"/></g></g><defs><clipPath id="p05796297cd"><path d="M32.015 57.838h357.12V323.95H32.015z"/></clipPath></defs></svg>