<svg xmlns:xlink="http://www.w3.org/1999/xlink" width="687.853" height="502.102" viewBox="0 0 515.89 376.577" xmlns="http://www.w3.org/2000/svg"><defs><style>*{stroke-linejoin:round;stroke-linecap:butt}</style></defs><g id="figure_1"><path d="M0 376.577h515.89V0H0v376.577z" style="fill:none" id="patch_1"/><g id="axes_1"><path d="M28.563 323.405h357.12V57.293H28.563v266.112z" style="fill:none" id="patch_2"/><g id="matplotlib.axis_1"><g id="xtick_1"><g id="line2d_1"><defs><path id="mc960f34a15" d="M0 0v3.5" style="stroke:#b0b0b0;stroke-width:.4"/></defs><use xlink:href="#mc960f34a15" x="50.551" y="323.405" style="fill:#b0b0b0;stroke:#b0b0b0;stroke-width:.4"/></g><g style="fill:#b0b0b0" transform="matrix(.14 0 0 -.14 36.188 340.345)" id="text_1"><defs><path id="MyriadPro-Regular-32" d="M2944 0v467H1075v13l333 307c877 845 1434 1466 1434 2234 0 595-378 1209-1274 1209-480 0-890-179-1178-422l180-397c192 160 505 352 883 352 621 0 825-390 825-813-6-627-486-1164-1548-2176L288 346V0h2656z" transform="scale(.01563)"/><path id="MyriadPro-Regular-30" d="M1677 4230c-845 0-1447-768-1447-2163C243 691 794-70 1606-70c922 0 1447 780 1447 2195 0 1325-499 2105-1376 2105zm-32-435c582 0 845-672 845-1696 0-1062-276-1734-852-1734-512 0-844 614-844 1696 0 1133 358 1734 851 1734z" transform="scale(.01563)"/><path id="MyriadPro-Regular-31" d="M1510 0h544v4160h-480l-908-486 108-429 724 390h12V0z" transform="scale(.01563)"/></defs><use xlink:href="#MyriadPro-Regular-32"/><use xlink:href="#MyriadPro-Regular-30" x="51.3"/><use xlink:href="#MyriadPro-Regular-31" x="102.6"/><use xlink:href="#MyriadPro-Regular-30" x="153.9"/></g></g><g id="xtick_2"><use xlink:href="#mc960f34a15" x="105.801" y="323.405" style="fill:#b0b0b0;stroke:#b0b0b0;stroke-width:.4" id="line2d_2"/><g style="fill:#b0b0b0" transform="matrix(.14 0 0 -.14 91.438 340.345)" id="text_2"><use xlink:href="#MyriadPro-Regular-32"/><use xlink:href="#MyriadPro-Regular-30" x="51.3"/><use xlink:href="#MyriadPro-Regular-31" x="102.6"/><use xlink:href="#MyriadPro-Regular-32" x="153.9"/></g></g><g id="xtick_3"><use xlink:href="#mc960f34a15" x="161.127" y="323.405" style="fill:#b0b0b0;stroke:#b0b0b0;stroke-width:.4" id="line2d_3"/><g style="fill:#b0b0b0" transform="matrix(.14 0 0 -.14 146.763 340.345)" id="text_3"><defs><path id="MyriadPro-Regular-34" d="M2560 0v1133h582v441h-582v2586h-608L96 1504v-371h1933V0h531zM666 1574v13l1017 1415c115 192 218 371 346 614h19c-13-218-19-435-19-653V1574H666z" transform="scale(.01563)"/></defs><use xlink:href="#MyriadPro-Regular-32"/><use xlink:href="#MyriadPro-Regular-30" x="51.3"/><use xlink:href="#MyriadPro-Regular-31" x="102.6"/><use xlink:href="#MyriadPro-Regular-34" x="153.9"/></g></g><g id="xtick_4"><use xlink:href="#mc960f34a15" x="216.376" y="323.405" style="fill:#b0b0b0;stroke:#b0b0b0;stroke-width:.4" id="line2d_4"/><g style="fill:#b0b0b0" transform="matrix(.14 0 0 -.14 202.013 340.345)" id="text_4"><defs><path id="MyriadPro-Regular-36" d="M2662 4224c-102 0-243-6-409-32-525-64-986-275-1331-614-410-410-704-1056-704-1876C218 621 800-70 1690-70c864 0 1382 704 1382 1465 0 813-518 1344-1254 1344-461 0-807-217-1005-480h-19c96 685 563 1331 1446 1479 160 25 307 32 422 25v461zM1690 365c-589 0-903 505-916 1190 0 103 26 186 64 250 154 301 468 512 807 512 518 0 857-359 857-954s-326-998-806-998h-6z" transform="scale(.01563)"/></defs><use xlink:href="#MyriadPro-Regular-32"/><use xlink:href="#MyriadPro-Regular-30" x="51.3"/><use xlink:href="#MyriadPro-Regular-31" x="102.6"/><use xlink:href="#MyriadPro-Regular-36" x="153.9"/></g></g><g id="xtick_5"><use xlink:href="#mc960f34a15" x="271.702" y="323.405" style="fill:#b0b0b0;stroke:#b0b0b0;stroke-width:.4" id="line2d_5"/><g style="fill:#b0b0b0" transform="matrix(.14 0 0 -.14 257.339 340.345)" id="text_5"><defs><path id="MyriadPro-Regular-38" d="M1062 2170c-512-218-825-589-825-1114C237 448 762-70 1632-70c794 0 1414 486 1414 1209 0 506-320 871-838 1075v20c512 243 685 620 685 972 0 519-403 1024-1210 1024-729 0-1286-448-1286-1107 0-358 198-717 659-934l6-19zm583-1831c-531 0-851 371-832 794 0 397 262 717 749 857 563-160 915-403 915-908 0-423-327-743-832-743zm6 3488c506 0 704-345 704-678 0-378-275-634-633-755-480 128-794 352-794 768 0 358 256 665 723 665z" transform="scale(.01563)"/></defs><use xlink:href="#MyriadPro-Regular-32"/><use xlink:href="#MyriadPro-Regular-30" x="51.3"/><use xlink:href="#MyriadPro-Regular-31" x="102.6"/><use xlink:href="#MyriadPro-Regular-38" x="153.9"/></g></g><g id="xtick_6"><use xlink:href="#mc960f34a15" x="326.952" y="323.405" style="fill:#b0b0b0;stroke:#b0b0b0;stroke-width:.4" id="line2d_6"/><g style="fill:#b0b0b0" transform="matrix(.14 0 0 -.14 312.589 340.345)" id="text_6"><use xlink:href="#MyriadPro-Regular-32"/><use xlink:href="#MyriadPro-Regular-30" x="51.3"/><use xlink:href="#MyriadPro-Regular-32" x="102.6"/><use xlink:href="#MyriadPro-Regular-30" x="153.9"/></g></g><g id="xtick_7"><use xlink:href="#mc960f34a15" x="382.277" y="323.405" style="fill:#b0b0b0;stroke:#b0b0b0;stroke-width:.4" id="line2d_7"/><g style="fill:#b0b0b0" transform="matrix(.14 0 0 -.14 367.914 340.345)" id="text_7"><use xlink:href="#MyriadPro-Regular-32"/><use xlink:href="#MyriadPro-Regular-30" x="51.3"/><use xlink:href="#MyriadPro-Regular-32" x="102.6"/><use xlink:href="#MyriadPro-Regular-32" x="153.9"/></g></g></g><g id="matplotlib.axis_2"><g id="ytick_1"><path d="M28.563 323.405h357.12" clip-path="url(#p76d180d9df)" style="fill:none;stroke:#b0b0b0;stroke-width:.3;stroke-linecap:square" id="line2d_8"/><g id="line2d_9"><defs><path id="m05dc1eb326" d="M0 0h-3.5" style="stroke:#b0b0b0;stroke-width:.3"/></defs><use xlink:href="#m05dc1eb326" x="28.563" y="323.405" style="fill:#b0b0b0;stroke:#b0b0b0;stroke-width:.3"/></g><use xlink:href="#MyriadPro-Regular-30" style="fill:#b0b0b0" transform="matrix(.14 0 0 -.14 14.382 328.375)" id="text_8"/></g><g id="ytick_2"><path d="M28.563 282.158h357.12" clip-path="url(#p76d180d9df)" style="fill:none;stroke:#b0b0b0;stroke-width:.3;stroke-linecap:square" id="line2d_10"/><use xlink:href="#m05dc1eb326" x="28.563" y="282.158" style="fill:#b0b0b0;stroke:#b0b0b0;stroke-width:.3" id="line2d_11"/><g style="fill:#b0b0b0" transform="matrix(.14 0 0 -.14 7.2 287.128)" id="text_9"><use xlink:href="#MyriadPro-Regular-31"/><use xlink:href="#MyriadPro-Regular-30" x="51.3"/></g></g><g id="ytick_3"><path d="M28.563 240.91h357.12" clip-path="url(#p76d180d9df)" style="fill:none;stroke:#b0b0b0;stroke-width:.3;stroke-linecap:square" id="line2d_12"/><use xlink:href="#m05dc1eb326" x="28.563" y="240.91" style="fill:#b0b0b0;stroke:#b0b0b0;stroke-width:.3" id="line2d_13"/><g style="fill:#b0b0b0" transform="matrix(.14 0 0 -.14 7.2 245.88)" id="text_10"><use xlink:href="#MyriadPro-Regular-32"/><use xlink:href="#MyriadPro-Regular-30" x="51.3"/></g></g><g id="ytick_4"><path d="M28.563 199.663h357.12" clip-path="url(#p76d180d9df)" style="fill:none;stroke:#b0b0b0;stroke-width:.3;stroke-linecap:square" id="line2d_14"/><use xlink:href="#m05dc1eb326" x="28.563" y="199.663" style="fill:#b0b0b0;stroke:#b0b0b0;stroke-width:.3" id="line2d_15"/><g style="fill:#b0b0b0" transform="matrix(.14 0 0 -.14 7.2 204.633)" id="text_11"><defs><path id="MyriadPro-Regular-33" d="M269 211C474 77 883-70 1350-70c999 0 1517 582 1517 1248 0 582-416 966-928 1068v13c512 186 768 551 768 979 0 506-371 992-1190 992-448 0-871-160-1088-320l147-409c179 128 499 275 832 275 518 0 730-294 730-627 0-493-519-704-928-704H896v-423h314c544 0 1068-249 1075-832 6-345-218-806-941-806-390 0-762 160-922 262L269 211z" transform="scale(.01563)"/></defs><use xlink:href="#MyriadPro-Regular-33"/><use xlink:href="#MyriadPro-Regular-30" x="51.3"/></g></g><g id="ytick_5"><path d="M28.563 158.416h357.12" clip-path="url(#p76d180d9df)" style="fill:none;stroke:#b0b0b0;stroke-width:.3;stroke-linecap:square" id="line2d_16"/><use xlink:href="#m05dc1eb326" x="28.563" y="158.416" style="fill:#b0b0b0;stroke:#b0b0b0;stroke-width:.3" id="line2d_17"/><g style="fill:#b0b0b0" transform="matrix(.14 0 0 -.14 7.2 163.386)" id="text_12"><use xlink:href="#MyriadPro-Regular-34"/><use xlink:href="#MyriadPro-Regular-30" x="51.3"/></g></g><g id="ytick_6"><path d="M28.563 117.168h357.12" clip-path="url(#p76d180d9df)" style="fill:none;stroke:#b0b0b0;stroke-width:.3;stroke-linecap:square" id="line2d_18"/><use xlink:href="#m05dc1eb326" x="28.563" y="117.168" style="fill:#b0b0b0;stroke:#b0b0b0;stroke-width:.3" id="line2d_19"/><g style="fill:#b0b0b0" transform="matrix(.14 0 0 -.14 7.2 122.138)" id="text_13"><defs><path id="MyriadPro-Regular-35" d="M2771 4160H781L512 2163c154 19 339 45 576 45 832 0 1190-384 1197-922 0-556-455-902-986-902-377 0-717 128-889 230L269 186C467 58 851-70 1306-70c902 0 1548 608 1548 1420 0 525-268 884-595 1069-256 154-576 224-896 224-153 0-243-13-339-25l160 1068h1587v474z" transform="scale(.01563)"/></defs><use xlink:href="#MyriadPro-Regular-35"/><use xlink:href="#MyriadPro-Regular-30" x="51.3"/></g></g><g id="ytick_7"><path d="M28.563 75.921h357.12" clip-path="url(#p76d180d9df)" style="fill:none;stroke:#b0b0b0;stroke-width:.3;stroke-linecap:square" id="line2d_20"/><use xlink:href="#m05dc1eb326" x="28.563" y="75.921" style="fill:#b0b0b0;stroke:#b0b0b0;stroke-width:.3" id="line2d_21"/><g style="fill:#b0b0b0" transform="matrix(.14 0 0 -.14 7.2 80.891)" id="text_14"><use xlink:href="#MyriadPro-Regular-36"/><use xlink:href="#MyriadPro-Regular-30" x="51.3"/></g></g></g><path d="m70.078 323.405 2.31-.133 2.307.133H88.43l2.309-.137 2.308.137h82.95l2.347-.133 2.308.133h4.617l4.655-.266 2.232-.912 2.231-.152 2.31-1.832 2.309-1.362 2.308.537 4.655-1.069 2.308-.856 2.31 2.054 2.307-2.466 2.308-.063 2.346.533 2.271-1.115 2.269-1.946 2.31 1.766 2.308-.967 2.309.417 2.308-2.28 2.346.532 2.309 1.06 2.31-.128 2.306.678 2.309-1.078 2.346 1.33 2.233.072 2.23-1.934 2.31.373 2.31.026 2.308-.439 2.308-1.557 2.346 1.065 2.309 1.317 2.31 2.142 2.306-1.18 2.309-1.348 2.346.4 2.233-1.516 2.23 2.048 2.31-.133 2.31-1.73 2.308 3.38 2.308-4.045 2.346 3.193 2.309 1.402 2.31-1.402 2.306 3.051 2.309-2.652 2.346 1.198 2.233.993 2.23-.195 2.31-.031 2.31 1.76 2.308-1.898 2.308.701 2.346 1.996 2.309-1.597 4.616.963 2.309-.164 2.346-1.33 2.27.531 2.27-2.129 2.31-.483 2.308-.847 2.308 1.122 2.309 2.071h2.346l2.308-.284 2.31.683 2.307 1.517 2.308-1.517 2.346.799 2.233-.49 2.231.357 2.31 1.401 2.309-1.401 2.308 1.814 4.655-.883 2.308-.355 2.31 1.42 2.307-.87 2.308.204 2.346 1.33 2.233-.07h0" clip-path="url(#p76d180d9df)" style="fill:none;stroke:#bcbd22;stroke-width:1.5;stroke-linecap:square" id="line2d_22"/><path d="m150.72 323.405 2.308-.275 2.31-.124 2.307-.15 2.308-.648 2.347.266 2.232.49 2.231-1.022 2.31.088 2.309.843 2.308-.155 2.309-.377 2.346-.932 2.308 1.171 2.31-.905 2.307.493 2.308-3.154 2.347 2.13 2.232-1.422 2.231.756 2.31-1.198h2.309l2.308-1.512 2.308.581 2.347-1.597 2.308 1.703 2.31.426 2.307.812 2.308.253 2.346-3.06 2.271 1.399 2.269.064 2.31 1.206 2.308-2.004 2.309 1.042 2.308-1.042 2.346 2.395 2.309-2.178 2.31-.483 2.306.895 2.309 1.1 2.346-2.528 2.233-.418 2.23 2.148 2.31.66 2.31-1.06 2.308-1.551 2.308-1.11 2.346.666 2.309 1.543 2.31-1.676 2.306 2.501 2.309-1.304h2.346l2.233-1.995 2.23 1.73 2.31 2.12 2.31-.258 2.308.395 2.308.004 2.346-1.33 2.309.226 2.31 3.1 2.306-1.175 2.309.643 2.346-.532 2.233.085 2.23-2.746 2.31-.337 2.31 2.732 2.308-.533 2.308.533 2.346-.799 2.309 1.229 2.31.767 2.306-1.042 2.309.643 2.346-1.33 2.27 2.417 2.27-.82 2.31-.773 2.308.107 2.308-.382 2.309 1.047 2.346-1.064 2.308-.945 2.31 2.142 2.307.883 2.308-.35 2.346-.267 2.233-.375 2.231.907 2.31-.465 2.309-.067 2.308.48 2.308-1.411 2.347 1.463 2.308-1.015 2.31 1.415 2.307.235 2.308-.102 2.346-.533 2.233.271" clip-path="url(#p76d180d9df)" style="fill:none;stroke:#7f7f7f;stroke-width:1.5;stroke-linecap:square" id="line2d_23"/><path d="m233.67 323.405 2.309-.137 2.31.004 2.306.133 2.309-.133 2.346-.4 2.233-.645 2.23.646 2.31-.293 2.31-.505 2.308.643 2.308-1.043 2.346-.798 2.309.878 2.31-.213 2.306.213 2.309-.346 2.346.932 2.233-.262 2.23-.137 2.31.226 2.31-.626 2.308-1.024 2.308.226 2.346.532 2.309-.07 2.31-.861 2.306.173 2.309.891 2.346-.665 2.233.01 2.23-.143 2.31 1.007 2.31-.342 2.308.48 2.308.585 2.346-.799 2.309.35 2.31-.483 2.306.759 2.309-.093 2.346.399 2.27-1.06 2.27-.936 2.31-.098 2.308.098 2.308.177 2.309.887 2.346-.532 2.308.195 2.31.47 2.307-1.57 2.308 1.703 2.346-.665 2.233.642 2.231-.376 2.31.209 2.309-.342 2.308.48 2.308-.879 2.347-.133 2.308.324 2.31.874 2.307-1.15 2.308 1.948 2.346-.4 2.233-.555" clip-path="url(#p76d180d9df)" style="fill:none;stroke:#e377c2;stroke-width:1.5;stroke-linecap:square" id="line2d_24"/><g style="fill:#1f77b4" transform="matrix(.14 0 0 -.14 396.397 254.605)" id="text_15"><defs><path id="MyriadPro-Regular-74" d="M595 3667v-569H115v-429h480V979c0-365 58-640 218-806C947 19 1158-70 1421-70c217 0 390 38 499 83l-26 422c-83-25-172-38-326-38-314 0-422 217-422 601v1671h806v429h-806v742l-551-173z" transform="scale(.01563)"/><path id="MyriadPro-Regular-61" d="M2643 1901c0 621-230 1267-1177 1267-391 0-762-109-1018-275l128-371c218 140 518 230 806 230 634 0 704-461 704-717v-64C890 1978 224 1568 224 819c0-448 320-889 947-889 442 0 775 217 947 460h20l44-390h512c-38 211-51 474-51 742v1159zm-544-858c0-57-13-121-32-179-89-262-345-518-749-518-288 0-531 172-531 537 0 602 698 711 1312 698v-538z" transform="scale(.01563)"/><path id="MyriadPro-Regular-69" d="M1030 0v3098H467V0h563zM749 4320c-205 0-352-154-352-352 0-192 141-346 339-346 224 0 365 154 358 346 0 198-134 352-345 352z" transform="scale(.01563)"/><path id="MyriadPro-Regular-6c" d="M467 0h563v4544H467V0z" transform="scale(.01563)"/><path id="MyriadPro-Regular-77" d="M115 3098 1050 0h512l499 1472c109 333 205 653 281 1024h13c77-365 167-672 275-1018L3104 0h512l998 3098h-556l-442-1556c-102-364-186-691-237-1004h-19c-70 313-160 640-275 1011l-480 1549h-474l-505-1575c-103-339-205-672-276-985h-19c-57 320-141 640-230 985L691 3098H115z" transform="scale(.01563)"/><path id="MyriadPro-Regular-6e" d="M467 0h563v1862c0 96 13 192 39 263 96 313 384 576 755 576 531 0 717-416 717-915V0h563v1850c0 1062-666 1318-1094 1318-512 0-871-288-1024-582h-13l-32 512H442c19-256 25-519 25-839V0z" transform="scale(.01563)"/><path id="MyriadPro-Regular-64" d="M2579 4544V2694h-13c-140 250-460 474-934 474-755 0-1395-634-1389-1664C243 563 819-70 1568-70c506 0 883 262 1056 608h13l25-538h506c-19 211-26 525-26 800v3744h-563zm0-3245c0-89-6-166-25-243-103-422-448-672-826-672-608 0-915 518-915 1146 0 684 345 1196 928 1196 422 0 729-294 813-652 19-71 25-167 25-237v-538z" transform="scale(.01563)"/><path id="MyriadPro-Regular-2d" d="M192 1939v-416h1581v416H192z" transform="scale(.01563)"/><path id="MyriadPro-Regular-63" d="M2579 538c-160-71-371-154-691-154-614 0-1075 442-1075 1158 0 647 384 1172 1094 1172 307 0 519-71 653-148l128 436c-154 76-448 160-781 160-1011 0-1664-692-1664-1645C243 570 851-70 1786-70c416 0 742 108 889 185l-96 423z" transform="scale(.01563)"/><path id="MyriadPro-Regular-73" d="M250 147C467 19 781-70 1120-70c736 0 1158 390 1158 934 0 461-275 730-812 934-404 154-589 269-589 525 0 231 185 423 518 423 288 0 512-103 634-180l141 410c-173 102-448 192-762 192-666 0-1069-410-1069-909 0-371 263-678 819-877 416-153 576-300 576-569 0-256-192-461-601-461-282 0-576 115-743 224L250 147z" transform="scale(.01563)"/></defs><use xlink:href="#MyriadPro-Regular-74"/><use xlink:href="#MyriadPro-Regular-61" x="33.1"/><use xlink:href="#MyriadPro-Regular-69" x="81.3"/><use xlink:href="#MyriadPro-Regular-6c" x="104.7"/><use xlink:href="#MyriadPro-Regular-77" x="128.3"/><use xlink:href="#MyriadPro-Regular-69" x="201.9"/><use xlink:href="#MyriadPro-Regular-6e" x="225.3"/><use xlink:href="#MyriadPro-Regular-64" x="280.8"/><use xlink:href="#MyriadPro-Regular-2d" x="337.2"/><use xlink:href="#MyriadPro-Regular-63" x="367.9"/><use xlink:href="#MyriadPro-Regular-73" x="412.7"/><use xlink:href="#MyriadPro-Regular-73" x="452.3"/></g><g style="fill:#ff7f0e" transform="matrix(.14 0 0 -.14 396.397 268.605)" id="text_16"><defs><path id="MyriadPro-Regular-62" d="M467 800c0-275-13-589-25-800h486l26 512h19c230-410 589-582 1037-582 691 0 1388 550 1388 1657 7 941-537 1581-1305 1581-499 0-858-224-1056-570h-13v1946H467V800zm557 998c0 90 19 167 32 231 115 429 474 691 858 691 601 0 921-531 921-1152 0-710-352-1190-941-1190-409 0-736 268-844 659-13 64-26 134-26 205v556z" transform="scale(.01563)"/><path id="MyriadPro-Regular-6f" d="M1779 3168c-857 0-1536-608-1536-1645C243 544 890-70 1728-70c749 0 1542 499 1542 1644 0 948-601 1594-1491 1594zm-13-422c666 0 928-666 928-1191 0-697-403-1203-940-1203-551 0-941 512-941 1190 0 589 288 1204 953 1204z" transform="scale(.01563)"/><path id="MyriadPro-Regular-72" d="M467 0h557v1651c0 96 13 186 26 263 76 422 358 723 755 723 77 0 134-7 192-19v531c-51 13-96 19-160 19-378 0-717-262-858-678h-25l-20 608H442c19-288 25-602 25-967V0z" transform="scale(.01563)"/><path id="MyriadPro-Regular-70" d="M467-1267h557V416h13c185-307 544-486 953-486 730 0 1408 550 1408 1664 0 940-563 1574-1312 1574-505 0-870-224-1100-602h-13l-26 532H442c12-295 25-615 25-1012v-3353zm557 3059c0 77 19 160 38 230 109 423 468 698 852 698 595 0 921-531 921-1152 0-710-345-1197-941-1197-403 0-742 269-844 659-13 71-26 148-26 231v531z" transform="scale(.01563)"/></defs><use xlink:href="#MyriadPro-Regular-62"/><use xlink:href="#MyriadPro-Regular-6f" x="56.9"/><use xlink:href="#MyriadPro-Regular-6f" x="111.8"/><use xlink:href="#MyriadPro-Regular-74" x="166.7"/><use xlink:href="#MyriadPro-Regular-73" x="199.8"/><use xlink:href="#MyriadPro-Regular-74" x="239.4"/><use xlink:href="#MyriadPro-Regular-72" x="272.5"/><use xlink:href="#MyriadPro-Regular-61" x="305.2"/><use xlink:href="#MyriadPro-Regular-70" x="353.4"/><use xlink:href="#MyriadPro-Regular-2d" x="410.3"/><use xlink:href="#MyriadPro-Regular-34" x="441"/></g><g style="fill:#2ca02c" transform="matrix(.14 0 0 -.14 396.397 282.605)" id="text_17"><use xlink:href="#MyriadPro-Regular-62"/><use xlink:href="#MyriadPro-Regular-6f" x="56.9"/><use xlink:href="#MyriadPro-Regular-6f" x="111.8"/><use xlink:href="#MyriadPro-Regular-74" x="166.7"/><use xlink:href="#MyriadPro-Regular-73" x="199.8"/><use xlink:href="#MyriadPro-Regular-74" x="239.4"/><use xlink:href="#MyriadPro-Regular-72" x="272.5"/><use xlink:href="#MyriadPro-Regular-61" x="305.2"/><use xlink:href="#MyriadPro-Regular-70" x="353.4"/><use xlink:href="#MyriadPro-Regular-2d" x="410.3"/><use xlink:href="#MyriadPro-Regular-35" x="441"/></g><g style="fill:#d62728" transform="matrix(.14 0 0 -.14 396.397 296.605)" id="text_18"><defs><path id="MyriadPro-Regular-65" d="M2957 1446c6 58 19 148 19 263 0 569-269 1459-1280 1459-902 0-1453-736-1453-1670C243 563 813-70 1766-70c493 0 832 108 1031 198l-96 403c-211-89-455-160-858-160-563 0-1049 314-1062 1075h2176zM787 1850c45 390 295 915 864 915 634 0 787-557 781-915H787z" transform="scale(.01563)"/></defs><use xlink:href="#MyriadPro-Regular-74"/><use xlink:href="#MyriadPro-Regular-77" x="33.1"/><use xlink:href="#MyriadPro-Regular-69" x="106.7"/><use xlink:href="#MyriadPro-Regular-74" x="130.1"/><use xlink:href="#MyriadPro-Regular-74" x="163.2"/><use xlink:href="#MyriadPro-Regular-65" x="196.3"/><use xlink:href="#MyriadPro-Regular-72" x="246.4"/><use xlink:href="#MyriadPro-Regular-2d" x="279.1"/><use xlink:href="#MyriadPro-Regular-62" x="309.8"/><use xlink:href="#MyriadPro-Regular-6f" x="366.7"/><use xlink:href="#MyriadPro-Regular-6f" x="421.6"/><use xlink:href="#MyriadPro-Regular-74" x="476.5"/><use xlink:href="#MyriadPro-Regular-73" x="509.6"/><use xlink:href="#MyriadPro-Regular-74" x="549.2"/><use xlink:href="#MyriadPro-Regular-72" x="582.3"/><use xlink:href="#MyriadPro-Regular-61" x="615"/><use xlink:href="#MyriadPro-Regular-70" x="663.2"/></g><g style="fill:#9467bd" transform="matrix(.14 0 0 -.14 396.397 310.605)" id="text_19"><use xlink:href="#MyriadPro-Regular-72"/><use xlink:href="#MyriadPro-Regular-65" x="32.7"/><use xlink:href="#MyriadPro-Regular-61" x="82.8"/><use xlink:href="#MyriadPro-Regular-63" x="131"/><use xlink:href="#MyriadPro-Regular-74" x="175.8"/><use xlink:href="#MyriadPro-Regular-2d" x="208.9"/><use xlink:href="#MyriadPro-Regular-62" x="239.6"/><use xlink:href="#MyriadPro-Regular-6f" x="296.5"/><use xlink:href="#MyriadPro-Regular-6f" x="351.4"/><use xlink:href="#MyriadPro-Regular-74" x="406.3"/><use xlink:href="#MyriadPro-Regular-73" x="439.4"/><use xlink:href="#MyriadPro-Regular-74" x="479"/><use xlink:href="#MyriadPro-Regular-72" x="512.1"/><use xlink:href="#MyriadPro-Regular-61" x="544.8"/><use xlink:href="#MyriadPro-Regular-70" x="593"/></g><g style="fill:#8c564b" transform="matrix(.14 0 0 -.14 396.397 324.605)" id="text_20"><use xlink:href="#MyriadPro-Regular-74"/><use xlink:href="#MyriadPro-Regular-77" x="33.1"/><use xlink:href="#MyriadPro-Regular-69" x="106.7"/><use xlink:href="#MyriadPro-Regular-74" x="130.1"/><use xlink:href="#MyriadPro-Regular-74" x="163.2"/><use xlink:href="#MyriadPro-Regular-65" x="196.3"/><use xlink:href="#MyriadPro-Regular-72" x="246.4"/><use xlink:href="#MyriadPro-Regular-2d" x="279.1"/><use xlink:href="#MyriadPro-Regular-62" x="309.8"/><use xlink:href="#MyriadPro-Regular-6f" x="366.7"/><use xlink:href="#MyriadPro-Regular-6f" x="421.6"/><use xlink:href="#MyriadPro-Regular-74" x="476.5"/><use xlink:href="#MyriadPro-Regular-73" x="509.6"/><use xlink:href="#MyriadPro-Regular-74" x="549.2"/><use xlink:href="#MyriadPro-Regular-72" x="582.3"/><use xlink:href="#MyriadPro-Regular-61" x="615"/><use xlink:href="#MyriadPro-Regular-70" x="663.2"/><use xlink:href="#MyriadPro-Regular-2d" x="720.1"/><use xlink:href="#MyriadPro-Regular-33" x="750.8"/></g><g style="fill:#e377c2" transform="matrix(.14 0 0 -.14 396.397 338.605)" id="text_21"><defs><path id="MyriadPro-Regular-75" d="M3059 3098h-563V1197c0-103-19-205-51-288-103-250-365-512-743-512-512 0-691 397-691 985v1716H448V1286C448 198 1030-70 1517-70c550 0 877 326 1024 576h13l32-506h499c-19 243-26 525-26 845v2253z" transform="scale(.01563)"/><path id="MyriadPro-Regular-6d" d="M467 0h551v1869c0 96 12 192 44 275 90 282 346 563 698 563 429 0 646-358 646-851V0h551v1914c0 102 19 204 45 281 96 275 345 512 665 512 455 0 672-358 672-953V0h551v1824c0 1075-608 1344-1018 1344-294 0-499-77-685-218-128-96-249-230-345-403h-13c-135 365-455 621-877 621-512 0-800-275-973-570h-19l-26 500H442c19-256 25-519 25-839V0z" transform="scale(.01563)"/></defs><use xlink:href="#MyriadPro-Regular-62"/><use xlink:href="#MyriadPro-Regular-75" x="56.9"/><use xlink:href="#MyriadPro-Regular-6c" x="112"/><use xlink:href="#MyriadPro-Regular-6d" x="135.6"/><use xlink:href="#MyriadPro-Regular-61" x="219"/></g><g style="fill:#7f7f7f" transform="matrix(.14 0 0 -.14 396.397 352.605)" id="text_22"><use xlink:href="#MyriadPro-Regular-73"/><use xlink:href="#MyriadPro-Regular-65" x="39.6"/><use xlink:href="#MyriadPro-Regular-6d" x="89.7"/><use xlink:href="#MyriadPro-Regular-61" x="173.1"/><use xlink:href="#MyriadPro-Regular-6e" x="221.3"/><use xlink:href="#MyriadPro-Regular-74" x="276.8"/><use xlink:href="#MyriadPro-Regular-69" x="309.9"/><use xlink:href="#MyriadPro-Regular-63" x="333.3"/><use xlink:href="#MyriadPro-Regular-2d" x="378.1"/><use xlink:href="#MyriadPro-Regular-75" x="408.8"/><use xlink:href="#MyriadPro-Regular-69" x="463.9"/></g><g style="fill:#bcbd22" transform="matrix(.14 0 0 -.14 396.397 366.605)" id="text_23"><defs><path id="MyriadPro-Regular-7a" d="M115 0h2515v448H819v13c141 160 269 313 397 486l1382 1799 7 352H243v-455h1677v-13c-141-166-269-313-403-480L115 326V0z" transform="scale(.01563)"/></defs><use xlink:href="#MyriadPro-Regular-6d"/><use xlink:href="#MyriadPro-Regular-61" x="83.4"/><use xlink:href="#MyriadPro-Regular-74" x="131.6"/><use xlink:href="#MyriadPro-Regular-65" x="164.7"/><use xlink:href="#MyriadPro-Regular-72" x="214.8"/><use xlink:href="#MyriadPro-Regular-69" x="247.5"/><use xlink:href="#MyriadPro-Regular-61" x="270.9"/><use xlink:href="#MyriadPro-Regular-6c" x="319.1"/><use xlink:href="#MyriadPro-Regular-69" x="342.7"/><use xlink:href="#MyriadPro-Regular-7a" x="366.1"/><use xlink:href="#MyriadPro-Regular-65" x="408.9"/></g><g style="fill:#b0b0b0" transform="matrix(.09716 0 0 -.09716 28.563 357.303)" id="text_24"><defs><path id="MyriadPro-Regular-40" d="M2867 1632c-70-397-409-870-781-870-281 0-422 204-422 486 0 621 454 1152 1018 1152 147 0 256-26 320-45l-135-723zm384-1773c-262-147-601-224-966-224-947 0-1645 666-1645 1735 0 1299 877 2131 1920 2131 992 0 1549-672 1549-1600 0-743-365-1178-691-1171-212 6-288 230-192 716l217 1159c-166 77-409 134-685 134-889 0-1516-723-1516-1517 0-505 320-806 691-806 384 0 678 186 902 563h26c-19-390 217-563 473-563 602 0 1140 563 1140 1523 0 1069-749 1856-1863 1856-1421 0-2336-1145-2336-2464C275 96 1165-672 2214-672c429 0 788 70 1140 256l-103 275z" transform="scale(.01563)"/><path id="MyriadPro-Regular-68" d="M467 0h563v1869c0 109 7 192 39 269 102 307 390 563 755 563 531 0 717-423 717-922V0h563v1843c0 1069-666 1325-1082 1325-211 0-409-64-576-160-172-96-313-237-403-397h-13v1933H467V0z" transform="scale(.01563)"/><path id="MyriadPro-Regular-2f" d="m422-256 1792 4640h-435L-6-256h428z" transform="scale(.01563)"/><path id="MyriadPro-Regular-7c" d="M550 4800v-6400h429v6400H550z" transform="scale(.01563)"/><path id="MyriadPro-Regular-4e" d="M1011 0v1843c0 717-13 1235-45 1779l20 7c217-467 505-960 806-1440L3162 0h563v4314h-525V2509c0-672 13-1197 64-1773l-13-6c-205 441-454 896-774 1401L1094 4314H486V0h525z" transform="scale(.01563)"/><path id="MyriadPro-Regular-53" d="M269 211C499 58 954-70 1370-70c1017 0 1510 582 1510 1248 0 633-371 985-1101 1267-595 230-857 429-857 832 0 294 224 646 812 646 391 0 679-128 820-205l153 455c-192 109-512 211-953 211-839 0-1396-499-1396-1171 0-608 436-973 1140-1223 582-224 812-454 812-857 0-435-332-736-902-736-384 0-749 128-998 281L269 211z" transform="scale(.01563)"/><path id="MyriadPro-Regular-f6" d="M1165 3648c185 0 313 154 313 326 0 186-134 327-313 327s-327-147-327-327c0-172 135-326 320-326h7zm1184 0c185 0 313 154 313 326 0 186-134 327-313 327s-320-147-320-327c0-172 128-326 313-326h7zm-570-480c-857 0-1536-608-1536-1645C243 544 890-70 1728-70c749 0 1542 499 1542 1644 0 948-601 1594-1491 1594zm-13-422c666 0 928-666 928-1191 0-697-403-1203-940-1203-551 0-941 512-941 1190 0 589 288 1204 953 1204z" transform="scale(.01563)"/><path id="MyriadPro-Regular-43" d="M3386 582c-224-108-570-179-909-179-1050 0-1658 679-1658 1735 0 1132 672 1779 1683 1779 359 0 660-77 871-179l134 454c-147 77-486 192-1024 192-1337 0-2253-915-2253-2266C230 704 1146-70 2362-70c524 0 934 108 1139 211l-115 441z" transform="scale(.01563)"/><path id="MyriadPro-Regular-42" d="M486 13c186-26 480-51 864-51 704 0 1191 128 1492 403 217 211 364 493 364 864 0 640-480 979-889 1081v13c454 167 729 531 729 947 0 340-134 596-358 762-269 218-627 314-1184 314-390 0-774-39-1018-90V13zm557 3865c90 20 237 39 493 39 563 0 947-199 947-704 0-416-345-723-934-723h-506v1388zm0-1811h461c608 0 1114-243 1114-832 0-627-532-838-1108-838-198 0-358 6-467 25v1645z" transform="scale(.01563)"/><path id="MyriadPro-Regular-59" d="M2010 0v1837l1446 2477h-634l-620-1191c-167-326-314-608-436-889h-12c-135 300-263 563-429 889L717 4314H83l1363-2484V0h564z" transform="scale(.01563)"/></defs><use xlink:href="#MyriadPro-Regular-40"/><use xlink:href="#MyriadPro-Regular-6e" x="73.7"/><use xlink:href="#MyriadPro-Regular-73" x="129.2"/><use xlink:href="#MyriadPro-Regular-63" x="168.8"/><use xlink:href="#MyriadPro-Regular-68" x="213.6"/><use xlink:href="#MyriadPro-Regular-6c" x="269.1"/><use xlink:href="#MyriadPro-Regular-6f" x="292.7"/><use xlink:href="#MyriadPro-Regular-65" x="347.6"/><use xlink:href="#MyriadPro-Regular-20" x="397.7"/><use xlink:href="#MyriadPro-Regular-2f" x="418.9"/><use xlink:href="#MyriadPro-Regular-20" x="453.2"/><use xlink:href="#MyriadPro-Regular-73" x="474.4"/><use xlink:href="#MyriadPro-Regular-6f" x="514"/><use xlink:href="#MyriadPro-Regular-2d" x="568.9"/><use xlink:href="#MyriadPro-Regular-74" x="599.6"/><use xlink:href="#MyriadPro-Regular-72" x="632.7"/><use xlink:href="#MyriadPro-Regular-65" x="665.4"/><use xlink:href="#MyriadPro-Regular-6e" x="715.5"/><use xlink:href="#MyriadPro-Regular-64" x="771"/><use xlink:href="#MyriadPro-Regular-73" x="827.4"/><use xlink:href="#MyriadPro-Regular-20" x="867"/><use xlink:href="#MyriadPro-Regular-7c" x="888.2"/><use xlink:href="#MyriadPro-Regular-20" x="912.1"/><use xlink:href="#MyriadPro-Regular-4e" x="933.3"/><use xlink:href="#MyriadPro-Regular-69" x="999.1"/><use xlink:href="#MyriadPro-Regular-63" x="1022.5"/><use xlink:href="#MyriadPro-Regular-6f" x="1067.3"/><use xlink:href="#MyriadPro-Regular-20" x="1122.2"/><use xlink:href="#MyriadPro-Regular-53" x="1143.4"/><use xlink:href="#MyriadPro-Regular-63" x="1192.7"/><use xlink:href="#MyriadPro-Regular-68" x="1237.5"/><use xlink:href="#MyriadPro-Regular-6c" x="1293"/><use xlink:href="#MyriadPro-Regular-f6" x="1316.6"/><use xlink:href="#MyriadPro-Regular-6d" x="1371.5"/><use xlink:href="#MyriadPro-Regular-65" x="1454.9"/><use xlink:href="#MyriadPro-Regular-72" x="1505"/><use xlink:href="#MyriadPro-Regular-20" x="1537.7"/><use xlink:href="#MyriadPro-Regular-7c" x="1558.9"/><use xlink:href="#MyriadPro-Regular-20" x="1582.8"/><use xlink:href="#MyriadPro-Regular-43" x="1604"/><use xlink:href="#MyriadPro-Regular-43" x="1662"/><use xlink:href="#MyriadPro-Regular-20" x="1720"/><use xlink:href="#MyriadPro-Regular-42" x="1741.2"/><use xlink:href="#MyriadPro-Regular-59" x="1795.4"/></g><g style="fill:#b0b0b0" transform="matrix(.14 0 0 -.14 77.337 17.293)" id="text_25"><defs><path id="MyriadPro-Regular-44" d="M486 13c282-32 615-51 1012-51 838 0 1504 217 1907 620 403 397 621 973 621 1677 0 698-224 1197-608 1549-378 352-948 538-1748 538-441 0-844-39-1184-90V13zm557 3833c147 32 365 58 653 58 1178 0 1754-646 1747-1664 0-1165-646-1830-1837-1830-217 0-422 6-563 32v3404z" transform="scale(.01563)"/><path id="MyriadPro-Regular-79" d="M58 3098 1203 243c26-70 39-115 39-147s-20-77-45-134c-128-288-320-506-474-628-166-140-352-230-493-275l141-473c141 25 416 121 691 364 384 333 660 877 1063 1940l845 2208h-596l-614-1818c-77-224-141-461-198-646h-13c-51 185-128 428-199 633L672 3098H58z" transform="scale(.01563)"/><path id="MyriadPro-Regular-66" d="M1082 0v2669h748v429h-748v166c0 474 121 896 601 896 160 0 275-32 359-70l76 435c-108 45-281 89-480 89-262 0-544-83-755-288-262-249-358-646-358-1081v-147H90v-429h435V0h557z" transform="scale(.01563)"/><path id="MyriadPro-Regular-71" d="M2579-1267h563v3513c0 320 7 589 20 852h-532l-19-468h-13c-153 301-473 538-953 538-653 0-1402-512-1402-1670C243 557 832-70 1555-70c499 0 845 243 1011 550h13v-1747zm0 2528c0-83-19-192-45-269-128-390-441-614-806-614-621 0-915 537-915 1152 0 697 352 1190 934 1190 423 0 723-294 807-640 19-70 25-160 25-237v-582z" transform="scale(.01563)"/><path id="MyriadPro-Regular-6b" d="M1024 4544H467V0h557v1165l288 320L2381 0h685L1702 1824l1197 1274h-678l-909-1069c-90-109-198-243-275-352h-13v2867z" transform="scale(.01563)"/><path id="MyriadPro-Regular-4f" d="M2234 4384c-1152 0-2004-896-2004-2266C230 813 1030-70 2170-70c1100 0 2003 787 2003 2272 0 1280-762 2182-1939 2182zm-26-454c928 0 1376-896 1376-1754 0-979-499-1792-1382-1792-877 0-1376 826-1376 1747 0 947 460 1799 1382 1799z" transform="scale(.01563)"/><path id="MyriadPro-Regular-76" d="M83 3098 1261 0h537l1216 3098h-588l-602-1741c-102-282-192-538-262-794h-20c-64 256-147 512-249 794L685 3098H83z" transform="scale(.01563)"/></defs><use xlink:href="#MyriadPro-Regular-44"/><use xlink:href="#MyriadPro-Regular-61" x="66.6"/><use xlink:href="#MyriadPro-Regular-69" x="114.8"/><use xlink:href="#MyriadPro-Regular-6c" x="138.2"/><use xlink:href="#MyriadPro-Regular-79" x="161.8"/><use xlink:href="#MyriadPro-Regular-20" x="208.9"/><use xlink:href="#MyriadPro-Regular-6e" x="230.1"/><use xlink:href="#MyriadPro-Regular-75" x="285.6"/><use xlink:href="#MyriadPro-Regular-6d" x="340.7"/><use xlink:href="#MyriadPro-Regular-62" x="424.1"/><use xlink:href="#MyriadPro-Regular-65" x="481"/><use xlink:href="#MyriadPro-Regular-72" x="531.1"/><use xlink:href="#MyriadPro-Regular-20" x="563.8"/><use xlink:href="#MyriadPro-Regular-6f" x="585"/><use xlink:href="#MyriadPro-Regular-66" x="639.9"/><use xlink:href="#MyriadPro-Regular-20" x="669.1"/><use xlink:href="#MyriadPro-Regular-71" x="690.3"/><use xlink:href="#MyriadPro-Regular-75" x="746.6"/><use xlink:href="#MyriadPro-Regular-65" x="801.7"/><use xlink:href="#MyriadPro-Regular-73" x="851.8"/><use xlink:href="#MyriadPro-Regular-74" x="891.4"/><use xlink:href="#MyriadPro-Regular-69" x="924.5"/><use xlink:href="#MyriadPro-Regular-6f" x="947.9"/><use xlink:href="#MyriadPro-Regular-6e" x="1002.8"/><use xlink:href="#MyriadPro-Regular-73" x="1058.3"/><use xlink:href="#MyriadPro-Regular-20" x="1097.9"/><use xlink:href="#MyriadPro-Regular-6f" x="1119.1"/><use xlink:href="#MyriadPro-Regular-6e" x="1174"/><use xlink:href="#MyriadPro-Regular-20" x="1229.5"/><use xlink:href="#MyriadPro-Regular-53" x="1250.7"/><use xlink:href="#MyriadPro-Regular-74" x="1300"/><use xlink:href="#MyriadPro-Regular-61" x="1333.1"/><use xlink:href="#MyriadPro-Regular-63" x="1381.3"/><use xlink:href="#MyriadPro-Regular-6b" x="1426.1"/><use xlink:href="#MyriadPro-Regular-4f" x="1473"/><use xlink:href="#MyriadPro-Regular-76" x="1541.9"/><use xlink:href="#MyriadPro-Regular-65" x="1590"/><use xlink:href="#MyriadPro-Regular-72" x="1640.1"/><use xlink:href="#MyriadPro-Regular-66" x="1672.8"/><use xlink:href="#MyriadPro-Regular-6c" x="1702"/><use xlink:href="#MyriadPro-Regular-6f" x="1725.6"/><use xlink:href="#MyriadPro-Regular-77" x="1780.5"/></g><path d="m97.703 323.405 2.31-.133 2.306.133h4.655l2.27-.142 2.27.142 2.31-.137 2.308.137h4.617l2.346-.133 2.308.133 2.31-.133 2.307-.004 2.308.004 2.347-.266 2.232.252 2.232-.385 2.31.257 2.308.009 2.308-.559 2.309-2.767 2.346-29.672 2.308-14.033 2.31-9.119 2.307 2.382 2.308 1.61 2.347-14.902 2.232-5.151 2.231 5.417 2.31 5.052 2.309-6.649 2.308 10.498 2.309-8.103 2.346 5.19 2.308-1.899 2.31.302 2.307 10.972 2.308 8.188 2.347-.799 2.232-2.832 2.231 1.103 2.31-3.322 2.309 6.914 2.308 1.748 2.308-8.667 2.347 2.262 2.308-10.644 2.31 7.451 2.307-3.739 2.308 4.67 2.346 1.863 2.271-6.974 2.269-1.275 2.31 3.091 2.308 2.23 2.309 3.132 2.308 2.058 2.346-.532 2.309 2.874 2.31 5.11 2.306-1.673 2.309 1.938 2.346 1.464 2.233-6.368 2.23 5.037 2.31 6.729 2.31-5.531 2.308 1.268 2.308 4.586 2.346 1.996 2.309 4.555 2.31-1.228 2.306 1.64 2.309 3.549 2.346-2.395 2.233.86 2.23-3.255 2.31 3.716 2.31-1.188 2.308.364 2.308 2.962 2.346 1.996 2.309 2.191 2.31 1.269 2.306-1.269 2.309 3.53h2.346l2.233 2.058 2.23-1.791 2.31 1.703 2.31.026 2.308 3.273 2.308-4.071 2.346 2.395 2.309.027 2.31 1.304 2.306 1.445 2.309-1.312 2.346.665 2.27 1.197 2.27-1.33 2.31-1.42 2.308.888 2.308.762 2.309.701 2.346-.133 2.308-.018 2.31-.248 2.307-.577 2.308 2.706 2.346-.266 2.233-1.36 2.231.428 2.31 1.38 2.309-.182 2.308-.78 2.308-.684 2.347 1.464 2.308.457 2.31-.19 2.307-.635 2.308-.031h2.346l2.233.542" clip-path="url(#p76d180d9df)" style="fill:none;stroke:#8c564b;stroke-width:1.5;stroke-linecap:square" id="line2d_25"/><path d="m175.999 323.405 2.346-.133 2.308-.142 2.31.009 2.307-.009 2.308.142 2.347-.133 2.232-.028 2.231-.77 2.31-.448 2.309.049 2.308.088 2.308.178 2.347-.133 2.308-.457 2.31-.209 2.307.209 2.308-.74h2.346l2.271.11 2.269.421 2.31-1.441 2.308 1.707 2.309-1.57 2.308-.558 2.346 2.261 2.309-1.565 2.31-2.027 2.306.927 2.309.27 2.346 1.198 2.233-2.214 2.23.75 2.31-.692 2.31-.372 2.308 1.747 2.308-1.747 2.346 2.129 2.309-.244 2.31-.155 2.306.292 2.309-.425 2.346-.133 2.233-1.003 2.23 2.2 2.31-.914 2.31 1.18 2.308.195 2.308-1.26 2.346.932 2.309.603 2.31-1.534 2.306-.94 2.309 1.073 2.346.798 2.233-3.806 2.23 1.943 2.31-.559 2.31-1.304 2.308 1.854 2.308-1.188 2.346-1.996 2.309 1.535 2.31.594 2.306-.32 2.309.719 2.346-5.588 2.27-.45 2.27 2.978 2.31-5.908 2.308 3.247 2.308-.772 2.309.505 2.346-2.927 2.308.36 2.31 3.366 2.307 3.233 2.308-4.165 2.346 1.73 2.233-.717 2.231-1.412 2.31 3.464 2.309-3.863 2.308 1.388 2.308-3.25 2.347 3.991 2.308-1.428 2.31-.967 2.307 2.067 2.308 1.392 2.346-1.463 2.233.08" clip-path="url(#p76d180d9df)" style="fill:none;stroke:#9467bd;stroke-width:1.5;stroke-linecap:square" id="line2d_26"/><path d="m28.563 323.405 2.31-.137 2.308.137h16.197l2.346-.133 2.233.133h4.541l2.308-.133 2.309.133h9.273l2.307-.137 2.308.137h16.045l2.346-1.463 2.309-.874 2.31-1.92 2.306-.83 2.309-1.699 2.346-2.262 2.27-21.959 2.27 2.4 2.31-14.015 2.308-.621 2.308-7.491 2.309-5.016 2.346-5.988 2.308-3.295 2.31-7.216 2.307-3.921 2.308 9.11 2.347-26.611 2.232-22.263 2.232 3.635 2.31-7.456 2.308 3.863 2.308-5.513 2.309-23.227 2.346-10.511 2.308-17.133 2.31-.031 2.307 19.554 2.308-5.45 2.347-15.967 2.232-30.594 2.231-13.182 2.31 14.597 2.309 21.728 2.308 1.233L176 122.624l2.346 20.224 2.308-8.493 2.31 6.896 2.307-8.546 2.308 17.328 2.347-21.422 2.232-24.553 2.231-2.723 2.31-20.327 2.309-4.555 2.308-10.294 2.308-8.866 2.347 23.152 2.308 14.862 2.31 13.745 2.307 15.953 2.308 4.271 2.346-10.91 2.271-27.653 2.269 8.892 2.31-10.76 2.308 28.856 2.309 4.692 2.308-4.959 2.346-7.45 2.309 24.508 2.31 17.803 2.306-13.403 2.309 8.347 2.346-7.983 2.233-2.642 2.23-12.128 2.31 32.142 2.31-17.505 2.308 14.206 2.308 15.997 2.346-4.524 2.309 23.862 2.31-5.9 2.306-4.825 2.309 36.094 2.346-22.486 2.233 15.482 2.23 23.104 2.31 11.19 2.31-.28 2.308 5.367 2.308 3.415 2.346 16.898 2.309.86 2.31 2.733 2.306 2.355 2.309 7.624 2.346-11.576 2.233 4.895 2.23 4.286 2.31 2.195 2.31-1.13 2.308 2.78 2.308-7.038 2.346 13.172 2.309-7.921 2.31-3.788 2.306 3.788 2.309 7.921 2.346-4.125 2.27-.743 2.27-8.038 2.31-17.564 2.308 9.447 2.308-2.297 2.309-4.09 2.346 16.633 2.308 9.593 2.31-2.01 2.307 3.11 2.308 1.548 2.346-5.589 2.233 3.118 2.231-3.783 2.31 5.256 2.309 4.191 2.308-2.541 2.308 4.404 2.347-2.528 2.308 2.523 4.617 6.05 2.308-.856 2.346-3.859 2.233 2.338h0" clip-path="url(#p76d180d9df)" style="fill:none;stroke:#d62728;stroke-width:1.5;stroke-linecap:square" id="line2d_27"/><path d="m148.374 323.405 2.346-.266 2.308.266H166.763l2.31-.137 2.309.137h4.617l2.346-.133 2.308.133h6.925l2.347-.133 2.232.133H222.09l2.31-.137 2.308.137H242.904l2.346-.399 2.233.105 2.23.294h2.31l2.31-.133 2.308-.004 2.308.137 2.346-.266 2.309.129 2.31.137h4.615l2.346-.133 2.233.133h16.121l2.31-.133 2.306.133h9.118l2.31-.275 2.31.275h18.542l2.27-.142 2.27.142h4.618l2.308-.55 2.309-1.047 2.346.799 2.308.11 2.31-.51 2.307-.04 2.308-6.08 2.346-3.859 2.233-3.554 2.231 1.692 2.31-.985 2.309-3.672 2.308-8.29 2.308-1.157 2.347 5.854 2.308-6.484 2.31-.7 2.307 2.075 2.308-4.737 2.346-5.056 2.233 2.751" clip-path="url(#p76d180d9df)" style="fill:none;stroke:#2ca02c;stroke-width:1.5;stroke-linecap:square" id="line2d_28"/><path d="m104.628 323.405 2.346-.133 2.27.133h2.27l2.31-.137 2.308.137 2.308-.137 2.309.137h2.346l2.308-.137 2.31.004 2.307.133h6.887l2.232-.133 2.31.133 2.308-.266 2.308.129 2.309.137 2.346-.133 2.308-.004 2.31-.528 2.307.39 2.308.142h2.347l2.232-.161 2.231.161 2.31-.142 2.309.142 2.308.133H176l2.346-.133 2.308-.004 2.31.004 2.307.133H194.388l2.31-.137 2.309.137h4.616l2.347-.399 2.308-.426 2.31-.772 2.307-1.29 2.308-.306 2.346.133 2.271-1.207 2.269.409 2.31-1.917 2.308 3.38 2.309-.492 2.308-2.834 2.346.532 2.309-2.785 2.31 1.854 2.306 1.033 2.309-3.428 2.346-4.79 2.233-3.636 2.23-1.42 2.31-1.713 2.31-.15 2.308-11.399 2.308 4.08 2.346-16.232 2.309-4.622 2.31-2.164 2.306-9.798 2.309 12.459 2.346-20.49 2.233-12.779 2.23.138 2.31 5.273 2.31-8.6 2.308 4.75 2.308.706 2.346 1.064 2.309.43 2.31 8.884 2.306.466 2.309 7.252 2.346-23.551 2.233 4.072 2.23 5.508 2.31 3.694 2.31-4.493 2.308 7.93 2.308-8.462 2.346 6.12 2.309 1.655 2.31-.723 2.306 1.135 2.309 8.179 2.346-6.254 2.27-7.111 2.27-.739 2.31-26.797 2.308 5.508 2.308 8.516 2.309 1.996 2.346-9.714 2.308 6.755 2.31 7.216 2.307 3.096 2.308 5.02 2.346 1.331 2.233 6.25 2.231-9.576 2.31 8.112 2.309 10.383 2.308-.621 2.308 6.076 2.347 3.326 2.308-.603 2.31 7.655 2.307.732 2.308 3.66 2.346-4.79 2.233 5.55" clip-path="url(#p76d180d9df)" style="fill:none;stroke:#ff7f0e;stroke-width:1.5;stroke-linecap:square" id="line2d_29"/><path d="m265.914 323.405 2.306-.137 2.309-.129h2.346l2.233-.028 2.23.161 2.31-.28 2.31.147 2.308-.009 2.308-.39 2.346.399 2.309-.284 2.31.018 2.306.257 2.309-.39 2.346-.133 2.233-.97 2.23 1.236 2.31.12 2.31-1.45 2.308-.338 2.308.87 2.346.133 2.309-.59 2.31.057 2.306-1.57 2.309 1.038 2.346-.532 2.27.518 2.27-2.913 2.31-1.548 2.308.35 2.308.2 2.309 2.329 2.346-2.795 2.308-.359 2.31-.971 2.307-4.254 2.308.129 2.346-5.322 2.233-.247 2.231-.685 2.31-2.262 2.309 1.331 2.308-4.63 2.308 2.102 2.347-4.524 2.308-1.978 2.31.115 2.307 3.872 2.308-11.323 2.346-6.52 2.233 4.762" clip-path="url(#p76d180d9df)" style="fill:none;stroke:#1f77b4;stroke-width:1.5;stroke-linecap:square" id="line2d_30"/></g></g><defs><clipPath id="p76d180d9df"><path d="M28.563 57.293h357.12v266.112H28.563z"/></clipPath></defs></svg>