<svg xmlns:xlink="http://www.w3.org/1999/xlink" width="718.469" height="504.22" viewBox="0 0 538.852 378.165" xmlns="http://www.w3.org/2000/svg"><defs><style>*{stroke-linejoin:round;stroke-linecap:butt}</style></defs><g id="figure_1"><path d="M0 378.165h538.852V0H0v378.165z" style="fill:none" id="patch_1"/><g id="axes_1"><path d="M32.015 323.95h357.12V57.838H32.015V323.95z" style="fill:none" id="patch_2"/><g id="matplotlib.axis_1"><g id="xtick_1"><g id="line2d_1"><defs><path id="mb00a40e541" d="M0 0v3.5" style="stroke:#b0b0b0;stroke-width:.4"/></defs><use xlink:href="#mb00a40e541" x="54.287" y="323.95" style="fill:#b0b0b0;stroke:#b0b0b0;stroke-width:.4"/></g><g style="fill:#b0b0b0" transform="matrix(.14 0 0 -.14 36.472 341.588)" id="text_1"><defs><path id="DejaVuSans-32" d="M1228 531h2203V0H469v531q359 372 979 998 621 627 780 809 303 340 423 576 121 236 121 464 0 372-261 606-261 235-680 235-297 0-627-103-329-103-704-313v638q381 153 712 231 332 78 607 78 725 0 1156-363 431-362 431-968 0-288-108-546-107-257-392-607-78-91-497-524-418-433-1181-1211z" transform="scale(.01563)"/><path id="DejaVuSans-30" d="M2034 4250q-487 0-733-480-245-479-245-1442 0-959 245-1439 246-480 733-480 491 0 736 480 246 480 246 1439 0 963-246 1442-245 480-736 480zm0 500q785 0 1199-621 414-620 414-1801 0-1178-414-1799Q2819-91 2034-91q-784 0-1198 620-414 621-414 1799 0 1181 414 1801 414 621 1198 621z" transform="scale(.01563)"/><path id="DejaVuSans-31" d="M794 531h1031v3560L703 3866v575l1116 225h631V531h1031V0H794v531z" transform="scale(.01563)"/></defs><use xlink:href="#DejaVuSans-32"/><use xlink:href="#DejaVuSans-30" x="63.623"/><use xlink:href="#DejaVuSans-31" x="127.246"/><use xlink:href="#DejaVuSans-30" x="190.869"/></g></g><g id="xtick_2"><use xlink:href="#mb00a40e541" x="110.255" y="323.95" style="fill:#b0b0b0;stroke:#b0b0b0;stroke-width:.4" id="line2d_2"/><g style="fill:#b0b0b0" transform="matrix(.14 0 0 -.14 92.44 341.588)" id="text_2"><use xlink:href="#DejaVuSans-32"/><use xlink:href="#DejaVuSans-30" x="63.623"/><use xlink:href="#DejaVuSans-31" x="127.246"/><use xlink:href="#DejaVuSans-32" x="190.869"/></g></g><g id="xtick_3"><use xlink:href="#mb00a40e541" x="166.299" y="323.95" style="fill:#b0b0b0;stroke:#b0b0b0;stroke-width:.4" id="line2d_3"/><g style="fill:#b0b0b0" transform="matrix(.14 0 0 -.14 148.484 341.588)" id="text_3"><defs><path id="DejaVuSans-34" d="M2419 4116 825 1625h1594v2491zm-166 550h794V1625h666v-525h-666V0h-628v1100H313v609l1940 2957z" transform="scale(.01563)"/></defs><use xlink:href="#DejaVuSans-32"/><use xlink:href="#DejaVuSans-30" x="63.623"/><use xlink:href="#DejaVuSans-31" x="127.246"/><use xlink:href="#DejaVuSans-34" x="190.869"/></g></g><g id="xtick_4"><use xlink:href="#mb00a40e541" x="222.267" y="323.95" style="fill:#b0b0b0;stroke:#b0b0b0;stroke-width:.4" id="line2d_4"/><g style="fill:#b0b0b0" transform="matrix(.14 0 0 -.14 204.452 341.588)" id="text_4"><defs><path id="DejaVuSans-36" d="M2113 2584q-425 0-674-291-248-290-248-796 0-503 248-796 249-292 674-292t673 292q248 293 248 796 0 506-248 796-248 291-673 291zm1253 1979v-575q-238 112-480 171-242 60-480 60-625 0-955-422-329-422-376-1275 184 272 462 417 279 145 613 145 703 0 1111-427 408-426 408-1160 0-719-425-1154Q2819-91 2113-91q-810 0-1238 620-428 621-428 1799 0 1106 525 1764t1409 658q238 0 480-47t505-140z" transform="scale(.01563)"/></defs><use xlink:href="#DejaVuSans-32"/><use xlink:href="#DejaVuSans-30" x="63.623"/><use xlink:href="#DejaVuSans-31" x="127.246"/><use xlink:href="#DejaVuSans-36" x="190.869"/></g></g><g id="xtick_5"><use xlink:href="#mb00a40e541" x="278.311" y="323.95" style="fill:#b0b0b0;stroke:#b0b0b0;stroke-width:.4" id="line2d_5"/><g style="fill:#b0b0b0" transform="matrix(.14 0 0 -.14 260.496 341.588)" id="text_5"><defs><path id="DejaVuSans-38" d="M2034 2216q-450 0-708-241-257-241-257-662 0-422 257-663 258-241 708-241t709 242q260 243 260 662 0 421-258 662-257 241-711 241zm-631 268q-406 100-633 378-226 279-226 679 0 559 398 884 399 325 1092 325 697 0 1094-325t397-884q0-400-227-679-226-278-629-378 456-106 710-416 255-309 255-755 0-679-414-1042Q2806-91 2034-91q-771 0-1186 362-414 363-414 1042 0 446 256 755 257 310 713 416zm-231 997q0-362 226-565 227-203 636-203 407 0 636 203 230 203 230 565 0 363-230 566-229 203-636 203-409 0-636-203-226-203-226-566z" transform="scale(.01563)"/></defs><use xlink:href="#DejaVuSans-32"/><use xlink:href="#DejaVuSans-30" x="63.623"/><use xlink:href="#DejaVuSans-31" x="127.246"/><use xlink:href="#DejaVuSans-38" x="190.869"/></g></g><g id="xtick_6"><use xlink:href="#mb00a40e541" x="334.279" y="323.95" style="fill:#b0b0b0;stroke:#b0b0b0;stroke-width:.4" id="line2d_6"/><g style="fill:#b0b0b0" transform="matrix(.14 0 0 -.14 316.464 341.588)" id="text_6"><use xlink:href="#DejaVuSans-32"/><use xlink:href="#DejaVuSans-30" x="63.623"/><use xlink:href="#DejaVuSans-32" x="127.246"/><use xlink:href="#DejaVuSans-30" x="190.869"/></g></g></g><g id="matplotlib.axis_2"><g id="ytick_1"><path d="M32.015 323.95h357.12" clip-path="url(#pc35bbfabb4)" style="fill:none;stroke:#b0b0b0;stroke-width:.3;stroke-linecap:square" id="line2d_7"/><g id="line2d_8"><defs><path id="m0091d7f167" d="M0 0h-3.5" style="stroke:#b0b0b0;stroke-width:.3"/></defs><use xlink:href="#m0091d7f167" x="32.015" y="323.95" style="fill:#b0b0b0;stroke:#b0b0b0;stroke-width:.3"/></g><use xlink:href="#DejaVuSans-30" style="fill:#b0b0b0" transform="matrix(.14 0 0 -.14 16.108 329.269)" id="text_7"/></g><g id="ytick_2"><path d="M32.015 282.702h357.12" clip-path="url(#pc35bbfabb4)" style="fill:none;stroke:#b0b0b0;stroke-width:.3;stroke-linecap:square" id="line2d_9"/><use xlink:href="#m0091d7f167" x="32.015" y="282.702" style="fill:#b0b0b0;stroke:#b0b0b0;stroke-width:.3" id="line2d_10"/><g style="fill:#b0b0b0" transform="matrix(.14 0 0 -.14 7.2 288.021)" id="text_8"><use xlink:href="#DejaVuSans-31"/><use xlink:href="#DejaVuSans-30" x="63.623"/></g></g><g id="ytick_3"><path d="M32.015 241.455h357.12" clip-path="url(#pc35bbfabb4)" style="fill:none;stroke:#b0b0b0;stroke-width:.3;stroke-linecap:square" id="line2d_11"/><use xlink:href="#m0091d7f167" x="32.015" y="241.455" style="fill:#b0b0b0;stroke:#b0b0b0;stroke-width:.3" id="line2d_12"/><g style="fill:#b0b0b0" transform="matrix(.14 0 0 -.14 7.2 246.774)" id="text_9"><use xlink:href="#DejaVuSans-32"/><use xlink:href="#DejaVuSans-30" x="63.623"/></g></g><g id="ytick_4"><path d="M32.015 200.208h357.12" clip-path="url(#pc35bbfabb4)" style="fill:none;stroke:#b0b0b0;stroke-width:.3;stroke-linecap:square" id="line2d_13"/><use xlink:href="#m0091d7f167" x="32.015" y="200.208" style="fill:#b0b0b0;stroke:#b0b0b0;stroke-width:.3" id="line2d_14"/><g style="fill:#b0b0b0" transform="matrix(.14 0 0 -.14 7.2 205.527)" id="text_10"><defs><path id="DejaVuSans-33" d="M2597 2516q453-97 707-404 255-306 255-756 0-690-475-1069Q2609-91 1734-91q-293 0-604 58T488 141v609q262-153 574-231 313-78 654-78 593 0 904 234t311 681q0 413-289 645-289 233-804 233h-544v519h569q465 0 712 186t247 536q0 359-255 551-254 193-729 193-260 0-557-57-297-56-653-174v562q360 100 674 150t592 50q719 0 1137-327 419-326 419-882 0-388-222-655t-631-370z" transform="scale(.01563)"/></defs><use xlink:href="#DejaVuSans-33"/><use xlink:href="#DejaVuSans-30" x="63.623"/></g></g><g id="ytick_5"><path d="M32.015 158.96h357.12" clip-path="url(#pc35bbfabb4)" style="fill:none;stroke:#b0b0b0;stroke-width:.3;stroke-linecap:square" id="line2d_15"/><use xlink:href="#m0091d7f167" x="32.015" y="158.96" style="fill:#b0b0b0;stroke:#b0b0b0;stroke-width:.3" id="line2d_16"/><g style="fill:#b0b0b0" transform="matrix(.14 0 0 -.14 7.2 164.28)" id="text_11"><use xlink:href="#DejaVuSans-34"/><use xlink:href="#DejaVuSans-30" x="63.623"/></g></g><g id="ytick_6"><path d="M32.015 117.713h357.12" clip-path="url(#pc35bbfabb4)" style="fill:none;stroke:#b0b0b0;stroke-width:.3;stroke-linecap:square" id="line2d_17"/><use xlink:href="#m0091d7f167" x="32.015" y="117.713" style="fill:#b0b0b0;stroke:#b0b0b0;stroke-width:.3" id="line2d_18"/><g style="fill:#b0b0b0" transform="matrix(.14 0 0 -.14 7.2 123.032)" id="text_12"><defs><path id="DejaVuSans-35" d="M691 4666h2478v-532H1269V2991q137 47 274 70 138 23 276 23 781 0 1237-428 457-428 457-1159 0-753-469-1171Q2575-91 1722-91q-294 0-599 50Q819 9 494 109v635q281-153 581-228t634-75q541 0 856 284 316 284 316 772 0 487-316 771-315 285-856 285-253 0-505-56-251-56-513-175v2344z" transform="scale(.01563)"/></defs><use xlink:href="#DejaVuSans-35"/><use xlink:href="#DejaVuSans-30" x="63.623"/></g></g><g id="ytick_7"><path d="M32.015 76.466h357.12" clip-path="url(#pc35bbfabb4)" style="fill:none;stroke:#b0b0b0;stroke-width:.3;stroke-linecap:square" id="line2d_19"/><use xlink:href="#m0091d7f167" x="32.015" y="76.466" style="fill:#b0b0b0;stroke:#b0b0b0;stroke-width:.3" id="line2d_20"/><g style="fill:#b0b0b0" transform="matrix(.14 0 0 -.14 7.2 81.785)" id="text_13"><use xlink:href="#DejaVuSans-36"/><use xlink:href="#DejaVuSans-30" x="63.623"/></g></g></g><path d="m239.786 323.95 2.338-.138 2.338.005 2.339.133 2.338-.133 2.377-.4 2.261-.646 2.262.647 2.339-.293 2.338-.506 2.338.643 2.339-1.042 2.376-.798 2.339.878 2.338-.213 2.339.213 2.338-.346 2.377.931 2.261-.261 2.262-.138 2.338.226 2.339-.625 2.338-1.025 2.339.227 2.376.532 2.339-.071 2.338-.86 2.338.172 2.339.892 2.376-.665 2.262.01 2.262-.143 2.338 1.006 2.339-.341 2.338.479 2.338.585 2.377-.798 2.338.35 2.339-.483 2.338.758 2.339-.093 2.376.4 2.3-1.06 2.3-.936 2.339-.098 2.338.098 2.339.177 2.338.887 2.377-.532 2.338.195 2.338.47 2.339-1.57 2.338 1.703 2.377-.665 2.262.641 2.261-.375 2.339.208 2.338-.341 2.338.479 2.339-.878 2.376-.133 2.339.323 2.338.874 2.339-1.149 2.338 1.948" clip-path="url(#pc35bbfabb4)" style="fill:none;stroke:#bcbd22;stroke-width:1.5;stroke-linecap:square" id="line2d_21"/><path d="m155.757 323.95 2.339-.275 2.338-.124 2.338-.151 2.339-.648 2.377.266 2.261.49 2.262-1.022 2.338.089 2.339.843 2.338-.156 2.338-.377 2.377-.931 2.339 1.17 2.338-.904 2.338.492 2.339-3.153 2.376 2.129 2.262-1.421 2.262.756 2.338-1.198h2.339l2.338-1.512 2.338.58 2.377-1.596 2.338 1.703 2.339.426 2.338.812 2.339.252 2.376-3.06 2.3 1.4 2.3.064 2.339 1.206 2.338-2.005 2.338 1.043 2.339-1.043 2.377 2.395 2.338-2.177 2.338-.484 2.339.896 2.338 1.1 2.377-2.528 2.261-.418 2.262 2.148 2.339.66 2.338-1.06 2.338-1.552 2.339-1.109 2.376.666 2.339 1.543 2.338-1.676 2.339 2.501 2.338-1.304h2.377l2.261-1.996 2.262 1.73 2.338 2.12 2.339-.257 2.338.395 2.339.004 2.376-1.33 2.339.226 2.338 3.1 2.338-1.175 2.339.643 2.376-.533 2.262.086 2.262-2.747 2.338-.337 2.339 2.732 2.338-.532 2.338.532 2.377-.798 2.338 1.229 2.339.767 2.338-1.042 2.339.643 2.376-1.33 2.3 2.417 2.3-.821 2.339-.772 2.338.106 2.339-.381 2.338 1.047 2.377-1.065 2.338-.944 2.338 2.142 2.339.882 2.338-.35 2.377-.266 2.262-.375 2.261.907 2.339-.466 2.338-.066 2.338.479 2.339-1.41 2.376 1.463 2.339-1.016 2.338 1.415 2.339.235 2.338-.102" clip-path="url(#pc35bbfabb4)" style="fill:none;stroke:#7f7f7f;stroke-width:1.5;stroke-linecap:square" id="line2d_22"/><path d="m74.067 323.95 2.339-.133 2.338.133H92.66l2.339-.138 2.338.138h84.028l2.377-.133 2.339.133h4.676l4.715-.266 2.262-.913 2.262-.152 2.338-1.831 2.339-1.362 2.338.537 4.715-1.07 2.338-.855 2.339 2.053 2.338-2.466 2.339-.062 2.376.532 2.3-1.115 2.3-1.945 2.339 1.765 2.338-.967 2.338.417 2.339-2.28 2.377.533 2.338 1.06 2.338-.129 2.339.679 2.338-1.078 2.377 1.33 2.261.072 2.262-1.934 2.339.372 2.338.027 2.338-.44 2.339-1.556 2.376 1.065 2.339 1.317 2.338 2.142 2.339-1.18 2.338-1.348 2.377.4 2.261-1.517 2.262 2.048 2.338-.133 2.339-1.73 2.338 3.38 2.339-4.045 2.376 3.194 2.339 1.401 2.338-1.401 2.338 3.051 2.339-2.652 2.376 1.197 2.262.994 2.262-.195 2.338-.031 2.339 1.76 2.338-1.898 2.338.7 2.377 1.997 2.338-1.597 4.677.963 2.339-.165 2.376-1.33 2.3.532 2.3-2.129 2.339-.483 2.338-.847 2.339 1.122 2.338 2.071h2.377l2.338-.284 2.338.683 2.339 1.517 2.338-1.517 2.377.798 2.262-.489 2.261.356 2.339 1.402 2.338-1.402 2.338 1.814 4.715-.882 2.339-.355 2.338 1.42 2.339-.87 2.338.204h0" clip-path="url(#pc35bbfabb4)" style="fill:none;stroke:#e377c2;stroke-width:1.5;stroke-linecap:square" id="line2d_23"/><g style="fill:#1f77b4" transform="matrix(.14 0 0 -.14 399.849 256.053)" id="text_14"><defs><path id="DejaVuSans-74" d="M1172 4494v-994h1184v-447H1172V1153q0-428 117-550t477-122h590V0h-590q-666 0-919 248-253 249-253 905v1900H172v447h422v994h578z" transform="scale(.01563)"/><path id="DejaVuSans-61" d="M2194 1759q-697 0-966-159t-269-544q0-306 202-486 202-179 548-179 479 0 768 339t289 901v128h-572zm1147 238V0h-575v531q-197-318-491-470T1556-91q-537 0-855 302-317 302-317 808 0 590 395 890 396 300 1180 300h807v57q0 397-261 614t-733 217q-300 0-585-72-284-72-546-216v532q315 122 612 182 297 61 578 61 760 0 1135-394 375-393 375-1193z" transform="scale(.01563)"/><path id="DejaVuSans-69" d="M603 3500h575V0H603v3500zm0 1363h575v-729H603v729z" transform="scale(.01563)"/><path id="DejaVuSans-6c" d="M603 4863h575V0H603v4863z" transform="scale(.01563)"/><path id="DejaVuSans-77" d="M269 3500h575l719-2731 715 2731h678l719-2731 716 2731h575L4050 0h-678l-753 2869L1863 0h-679L269 3500z" transform="scale(.01563)"/><path id="DejaVuSans-6e" d="M3513 2113V0h-575v2094q0 497-194 743-194 247-581 247-466 0-735-297-269-296-269-809V0H581v3500h578v-544q207 316 486 472 280 156 646 156 603 0 912-373 310-373 310-1098z" transform="scale(.01563)"/><path id="DejaVuSans-64" d="M2906 2969v1894h575V0h-575v525q-181-312-458-464-276-152-664-152-634 0-1033 506-398 507-398 1332t398 1331q399 506 1033 506 388 0 664-152 277-151 458-463zM947 1747q0-634 261-995t717-361q456 0 718 361 263 361 263 995t-263 995q-262 361-718 361t-717-361q-261-361-261-995z" transform="scale(.01563)"/><path id="DejaVuSans-2d" d="M313 2009h1684v-512H313v512z" transform="scale(.01563)"/><path id="DejaVuSans-63" d="M3122 3366v-538q-244 135-489 202t-495 67q-560 0-870-355-309-354-309-995t309-996q310-354 870-354 250 0 495 67t489 202V134Q2881 22 2623-34q-257-57-548-57-791 0-1257 497-465 497-465 1341 0 856 470 1346 471 491 1290 491 265 0 518-55 253-54 491-163z" transform="scale(.01563)"/><path id="DejaVuSans-73" d="M2834 3397v-544q-243 125-506 187-262 63-544 63-428 0-642-131t-214-394q0-200 153-314t616-217l197-44q612-131 870-370t258-667q0-488-386-773Q2250-91 1575-91q-281 0-586 55T347 128v594q319-166 628-249 309-82 613-82 406 0 624 139 219 139 219 392 0 234-158 359-157 125-692 241l-200 47q-534 112-772 345-237 233-237 639 0 494 350 762 350 269 994 269 318 0 599-47 282-46 519-140z" transform="scale(.01563)"/></defs><use xlink:href="#DejaVuSans-74"/><use xlink:href="#DejaVuSans-61" x="39.209"/><use xlink:href="#DejaVuSans-69" x="100.488"/><use xlink:href="#DejaVuSans-6c" x="128.271"/><use xlink:href="#DejaVuSans-77" x="156.055"/><use xlink:href="#DejaVuSans-69" x="237.842"/><use xlink:href="#DejaVuSans-6e" x="265.625"/><use xlink:href="#DejaVuSans-64" x="329.004"/><use xlink:href="#DejaVuSans-2d" x="392.48"/><use xlink:href="#DejaVuSans-63" x="428.564"/><use xlink:href="#DejaVuSans-73" x="483.545"/><use xlink:href="#DejaVuSans-73" x="535.645"/></g><g style="fill:#ff7f0e" transform="matrix(.14 0 0 -.14 399.849 270.053)" id="text_15"><defs><path id="DejaVuSans-62" d="M3116 1747q0 634-261 995t-717 361q-457 0-718-361t-261-995q0-634 261-995t718-361q456 0 717 361t261 995zM1159 2969q182 312 458 463 277 152 661 152 638 0 1036-506 399-506 399-1331T3314 415Q2916-91 2278-91q-384 0-661 152-276 152-458 464V0H581v4863h578V2969z" transform="scale(.01563)"/><path id="DejaVuSans-6f" d="M1959 3097q-462 0-731-361t-269-989q0-628 267-989 268-361 733-361 460 0 728 362 269 363 269 988 0 622-269 986-268 364-728 364zm0 487q750 0 1178-488 429-487 429-1349 0-859-429-1349Q2709-91 1959-91q-753 0-1180 489-426 490-426 1349 0 862 426 1349 427 488 1180 488z" transform="scale(.01563)"/><path id="DejaVuSans-72" d="M2631 2963q-97 56-211 82-114 27-251 27-488 0-749-317t-261-911V0H581v3500h578v-544q182 319 472 473 291 155 707 155 59 0 131-8 72-7 159-23l3-590z" transform="scale(.01563)"/><path id="DejaVuSans-70" d="M1159 525v-1856H581v4831h578v-531q182 312 458 463 277 152 661 152 638 0 1036-506 399-506 399-1331T3314 415Q2916-91 2278-91q-384 0-661 152-276 152-458 464zm1957 1222q0 634-261 995t-717 361q-457 0-718-361t-261-995q0-634 261-995t718-361q456 0 717 361t261 995z" transform="scale(.01563)"/></defs><use xlink:href="#DejaVuSans-62"/><use xlink:href="#DejaVuSans-6f" x="63.477"/><use xlink:href="#DejaVuSans-6f" x="124.658"/><use xlink:href="#DejaVuSans-74" x="185.84"/><use xlink:href="#DejaVuSans-73" x="225.049"/><use xlink:href="#DejaVuSans-74" x="277.148"/><use xlink:href="#DejaVuSans-72" x="316.357"/><use xlink:href="#DejaVuSans-61" x="357.471"/><use xlink:href="#DejaVuSans-70" x="418.75"/><use xlink:href="#DejaVuSans-2d" x="482.227"/><use xlink:href="#DejaVuSans-34" x="518.311"/></g><g style="fill:#2ca02c" transform="matrix(.14 0 0 -.14 399.849 284.053)" id="text_16"><use xlink:href="#DejaVuSans-62"/><use xlink:href="#DejaVuSans-6f" x="63.477"/><use xlink:href="#DejaVuSans-6f" x="124.658"/><use xlink:href="#DejaVuSans-74" x="185.84"/><use xlink:href="#DejaVuSans-73" x="225.049"/><use xlink:href="#DejaVuSans-74" x="277.148"/><use xlink:href="#DejaVuSans-72" x="316.357"/><use xlink:href="#DejaVuSans-61" x="357.471"/><use xlink:href="#DejaVuSans-70" x="418.75"/><use xlink:href="#DejaVuSans-2d" x="482.227"/><use xlink:href="#DejaVuSans-35" x="518.311"/></g><g style="fill:#d62728" transform="matrix(.14 0 0 -.14 399.849 298.053)" id="text_17"><defs><path id="DejaVuSans-65" d="M3597 1894v-281H953q38-594 358-905t892-311q331 0 642 81t618 244V178Q3153 47 2828-22t-659-69q-838 0-1327 487-489 488-489 1320 0 859 464 1363 464 505 1252 505 706 0 1117-455 411-454 411-1235zm-575 169q-6 471-264 752-258 282-683 282-481 0-770-272t-333-766l2050 4z" transform="scale(.01563)"/></defs><use xlink:href="#DejaVuSans-74"/><use xlink:href="#DejaVuSans-77" x="39.209"/><use xlink:href="#DejaVuSans-69" x="120.996"/><use xlink:href="#DejaVuSans-74" x="148.779"/><use xlink:href="#DejaVuSans-74" x="187.988"/><use xlink:href="#DejaVuSans-65" x="227.197"/><use xlink:href="#DejaVuSans-72" x="288.721"/><use xlink:href="#DejaVuSans-2d" x="323.459"/><use xlink:href="#DejaVuSans-62" x="359.543"/><use xlink:href="#DejaVuSans-6f" x="423.02"/><use xlink:href="#DejaVuSans-6f" x="484.201"/><use xlink:href="#DejaVuSans-74" x="545.383"/><use xlink:href="#DejaVuSans-73" x="584.592"/><use xlink:href="#DejaVuSans-74" x="636.691"/><use xlink:href="#DejaVuSans-72" x="675.9"/><use xlink:href="#DejaVuSans-61" x="717.014"/><use xlink:href="#DejaVuSans-70" x="778.293"/></g><g style="fill:#9467bd" transform="matrix(.14 0 0 -.14 399.849 312.053)" id="text_18"><use xlink:href="#DejaVuSans-72"/><use xlink:href="#DejaVuSans-65" x="38.863"/><use xlink:href="#DejaVuSans-61" x="100.387"/><use xlink:href="#DejaVuSans-63" x="161.666"/><use xlink:href="#DejaVuSans-74" x="216.646"/><use xlink:href="#DejaVuSans-2d" x="255.855"/><use xlink:href="#DejaVuSans-62" x="291.939"/><use xlink:href="#DejaVuSans-6f" x="355.416"/><use xlink:href="#DejaVuSans-6f" x="416.598"/><use xlink:href="#DejaVuSans-74" x="477.779"/><use xlink:href="#DejaVuSans-73" x="516.988"/><use xlink:href="#DejaVuSans-74" x="569.088"/><use xlink:href="#DejaVuSans-72" x="608.297"/><use xlink:href="#DejaVuSans-61" x="649.41"/><use xlink:href="#DejaVuSans-70" x="710.689"/></g><g style="fill:#8c564b" transform="matrix(.14 0 0 -.14 399.849 326.053)" id="text_19"><use xlink:href="#DejaVuSans-74"/><use xlink:href="#DejaVuSans-77" x="39.209"/><use xlink:href="#DejaVuSans-69" x="120.996"/><use xlink:href="#DejaVuSans-74" x="148.779"/><use xlink:href="#DejaVuSans-74" x="187.988"/><use xlink:href="#DejaVuSans-65" x="227.197"/><use xlink:href="#DejaVuSans-72" x="288.721"/><use xlink:href="#DejaVuSans-2d" x="323.459"/><use xlink:href="#DejaVuSans-62" x="359.543"/><use xlink:href="#DejaVuSans-6f" x="423.02"/><use xlink:href="#DejaVuSans-6f" x="484.201"/><use xlink:href="#DejaVuSans-74" x="545.383"/><use xlink:href="#DejaVuSans-73" x="584.592"/><use xlink:href="#DejaVuSans-74" x="636.691"/><use xlink:href="#DejaVuSans-72" x="675.9"/><use xlink:href="#DejaVuSans-61" x="717.014"/><use xlink:href="#DejaVuSans-70" x="778.293"/><use xlink:href="#DejaVuSans-2d" x="841.77"/><use xlink:href="#DejaVuSans-33" x="877.854"/></g><g style="fill:#e377c2" transform="matrix(.14 0 0 -.14 399.849 340.053)" id="text_20"><defs><path id="DejaVuSans-6d" d="M3328 2828q216 388 516 572t706 184q547 0 844-383 297-382 297-1088V0h-578v2094q0 503-179 746-178 244-543 244-447 0-707-297-259-296-259-809V0h-578v2094q0 506-178 748t-550 242q-441 0-701-298-259-298-259-808V0H581v3500h578v-544q197 322 472 475t653 153q382 0 649-194 267-193 395-562z" transform="scale(.01563)"/><path id="DejaVuSans-7a" d="M353 3500h2731v-525L922 459h2162V0H275v525l2163 2516H353v459z" transform="scale(.01563)"/></defs><use xlink:href="#DejaVuSans-6d"/><use xlink:href="#DejaVuSans-61" x="97.412"/><use xlink:href="#DejaVuSans-74" x="158.691"/><use xlink:href="#DejaVuSans-65" x="197.9"/><use xlink:href="#DejaVuSans-72" x="259.424"/><use xlink:href="#DejaVuSans-69" x="300.537"/><use xlink:href="#DejaVuSans-61" x="328.32"/><use xlink:href="#DejaVuSans-6c" x="389.6"/><use xlink:href="#DejaVuSans-69" x="417.383"/><use xlink:href="#DejaVuSans-7a" x="445.166"/><use xlink:href="#DejaVuSans-65" x="497.656"/></g><g style="fill:#7f7f7f" transform="matrix(.14 0 0 -.14 399.849 354.053)" id="text_21"><defs><path id="DejaVuSans-75" d="M544 1381v2119h575V1403q0-497 193-746 194-248 582-248 465 0 735 297 271 297 271 810v1984h575V0h-575v538q-209-319-486-474-276-155-642-155-603 0-916 375-312 375-312 1097zm1447 2203z" transform="scale(.01563)"/></defs><use xlink:href="#DejaVuSans-73"/><use xlink:href="#DejaVuSans-65" x="52.1"/><use xlink:href="#DejaVuSans-6d" x="113.623"/><use xlink:href="#DejaVuSans-61" x="211.035"/><use xlink:href="#DejaVuSans-6e" x="272.314"/><use xlink:href="#DejaVuSans-74" x="335.693"/><use xlink:href="#DejaVuSans-69" x="374.902"/><use xlink:href="#DejaVuSans-63" x="402.686"/><use xlink:href="#DejaVuSans-2d" x="457.666"/><use xlink:href="#DejaVuSans-75" x="493.75"/><use xlink:href="#DejaVuSans-69" x="557.129"/></g><g style="fill:#bcbd22" transform="matrix(.14 0 0 -.14 399.849 368.053)" id="text_22"><use xlink:href="#DejaVuSans-62"/><use xlink:href="#DejaVuSans-75" x="63.477"/><use xlink:href="#DejaVuSans-6c" x="126.855"/><use xlink:href="#DejaVuSans-6d" x="154.639"/><use xlink:href="#DejaVuSans-61" x="252.051"/></g><g style="fill:#b0b0b0" transform="matrix(.09716 0 0 -.09716 32.015 357.986)" id="text_23"><defs><path id="DejaVuSans-40" d="M2381 1678q0-447 222-702 222-254 610-254 384 0 604 256 221 256 221 700 0 438-225 695-225 258-607 258-378 0-602-256-223-256-223-697zm1703-934q-187-241-429-355t-564-114q-538 0-874 389t-336 1014q0 625 337 1015 338 391 873 391 322 0 565-117 244-117 428-354v409h447V722q457 69 714 417 258 349 258 902 0 334-99 628-98 294-298 544-325 409-792 626t-1017 217q-384 0-738-102-353-101-653-301-490-319-767-836-276-517-276-1120 0-497 179-932 180-434 521-765 328-325 759-495 431-171 922-171 403 0 792 136t714 389l281-347q-390-303-851-464t-936-161q-578 0-1091 205-512 205-912 595Q841 78 631 592q-209 514-209 1105 0 569 212 1084 213 516 607 907 403 396 931 607t1119 211q662 0 1229-272 568-271 952-771 234-307 357-666 124-359 124-744 0-822-497-1297T4084 263v481z" transform="scale(.01563)"/><path id="DejaVuSans-68" d="M3513 2113V0h-575v2094q0 497-194 743-194 247-581 247-466 0-735-297-269-296-269-809V0H581v4863h578V2956q207 316 486 472 280 156 646 156 603 0 912-373 310-373 310-1098z" transform="scale(.01563)"/><path id="DejaVuSans-2f" d="M1625 4666h531L531-594H0l1625 5260z" transform="scale(.01563)"/><path id="DejaVuSans-7c" d="M1344 4891v-6400H813v6400h531z" transform="scale(.01563)"/><path id="DejaVuSans-4e" d="M628 4666h850L3547 763v3903h612V0h-850L1241 3903V0H628v4666z" transform="scale(.01563)"/><path id="DejaVuSans-53" d="M3425 4513v-616q-359 172-678 256-319 85-616 85-515 0-795-200t-280-569q0-310 186-468 186-157 705-254l381-78q706-135 1042-474t336-907q0-679-455-1029Q2797-91 1919-91q-331 0-705 75-373 75-773 222v650q384-215 753-325 369-109 725-109 540 0 834 212 294 213 294 607 0 343-211 537t-692 291l-385 75q-706 140-1022 440-315 300-315 835 0 619 436 975t1201 356q329 0 669-60 341-59 697-177z" transform="scale(.01563)"/><path id="DejaVuSans-f6" d="M1959 3097q-462 0-731-361t-269-989q0-628 267-989 268-361 733-361 460 0 728 362 269 363 269 988 0 622-269 986-268 364-728 364zm0 487q750 0 1178-488 429-487 429-1349 0-859-429-1349Q2709-91 1959-91q-753 0-1180 489-426 490-426 1349 0 862 426 1349 427 488 1180 488zm295 1266h634v-631h-634v631zm-1222 0h634v-631h-634v631z" transform="scale(.01563)"/><path id="DejaVuSans-43" d="M4122 4306v-665q-319 297-680 443-361 147-767 147-800 0-1225-489t-425-1414q0-922 425-1411t1225-489q406 0 767 147t680 444V359q-331-225-702-338-370-112-782-112-1060 0-1670 648-609 649-609 1771 0 1125 609 1773 610 649 1670 649 418 0 788-111 371-111 696-333z" transform="scale(.01563)"/><path id="DejaVuSans-42" d="M1259 2228V519h1013q509 0 754 211 246 211 246 645 0 438-246 645-245 208-754 208H1259zm0 1919V2741h935q462 0 688 173 227 174 227 530 0 353-227 528-226 175-688 175h-935zm-631 519h1613q722 0 1112-300 391-300 391-853 0-429-200-682t-588-315q466-100 724-418 258-317 258-792 0-625-425-966Q3088 0 2303 0H628v4666z" transform="scale(.01563)"/><path id="DejaVuSans-59" d="M-13 4666h679l1293-1919 1285 1919h678L2272 2222V0h-634v2222L-13 4666z" transform="scale(.01563)"/></defs><use xlink:href="#DejaVuSans-40"/><use xlink:href="#DejaVuSans-6e" x="100"/><use xlink:href="#DejaVuSans-73" x="163.379"/><use xlink:href="#DejaVuSans-63" x="215.479"/><use xlink:href="#DejaVuSans-68" x="270.459"/><use xlink:href="#DejaVuSans-6c" x="333.838"/><use xlink:href="#DejaVuSans-6f" x="361.621"/><use xlink:href="#DejaVuSans-65" x="422.803"/><use xlink:href="#DejaVuSans-20" x="484.326"/><use xlink:href="#DejaVuSans-2f" x="516.113"/><use xlink:href="#DejaVuSans-20" x="549.805"/><use xlink:href="#DejaVuSans-73" x="581.592"/><use xlink:href="#DejaVuSans-6f" x="633.691"/><use xlink:href="#DejaVuSans-2d" x="696.748"/><use xlink:href="#DejaVuSans-74" x="732.832"/><use xlink:href="#DejaVuSans-72" x="772.041"/><use xlink:href="#DejaVuSans-65" x="810.904"/><use xlink:href="#DejaVuSans-6e" x="872.428"/><use xlink:href="#DejaVuSans-64" x="935.807"/><use xlink:href="#DejaVuSans-73" x="999.283"/><use xlink:href="#DejaVuSans-20" x="1051.383"/><use xlink:href="#DejaVuSans-7c" x="1083.17"/><use xlink:href="#DejaVuSans-20" x="1116.861"/><use xlink:href="#DejaVuSans-4e" x="1148.648"/><use xlink:href="#DejaVuSans-69" x="1223.453"/><use xlink:href="#DejaVuSans-63" x="1251.236"/><use xlink:href="#DejaVuSans-6f" x="1306.217"/><use xlink:href="#DejaVuSans-20" x="1367.398"/><use xlink:href="#DejaVuSans-53" x="1399.186"/><use xlink:href="#DejaVuSans-63" x="1462.662"/><use xlink:href="#DejaVuSans-68" x="1517.643"/><use xlink:href="#DejaVuSans-6c" x="1581.021"/><use xlink:href="#DejaVuSans-f6" x="1608.805"/><use xlink:href="#DejaVuSans-6d" x="1669.986"/><use xlink:href="#DejaVuSans-65" x="1767.398"/><use xlink:href="#DejaVuSans-72" x="1828.922"/><use xlink:href="#DejaVuSans-20" x="1870.035"/><use xlink:href="#DejaVuSans-7c" x="1901.822"/><use xlink:href="#DejaVuSans-20" x="1935.514"/><use xlink:href="#DejaVuSans-43" x="1967.301"/><use xlink:href="#DejaVuSans-43" x="2037.125"/><use xlink:href="#DejaVuSans-20" x="2106.949"/><use xlink:href="#DejaVuSans-42" x="2138.736"/><use xlink:href="#DejaVuSans-59" x="2201.84"/></g><g style="fill:#b0b0b0" transform="matrix(.14 0 0 -.14 54.43 17.838)" id="text_24"><defs><path id="DejaVuSans-44" d="M1259 4147V519h763q966 0 1414 437 448 438 448 1382 0 937-448 1373t-1414 436h-763zm-631 519h1297q1356 0 1990-564 635-564 635-1764 0-1207-638-1773Q3275 0 1925 0H628v4666z" transform="scale(.01563)"/><path id="DejaVuSans-79" d="M2059-325q-243-625-475-815-231-191-618-191H506v481h338q237 0 368 113 132 112 291 531l103 262L191 3500h609L1894 763l1094 2737h609L2059-325z" transform="scale(.01563)"/><path id="DejaVuSans-66" d="M2375 4863v-479h-550q-309 0-430-125-120-125-120-450v-309h947v-447h-947V0H697v3053H147v447h550v244q0 584 272 851 272 268 862 268h544z" transform="scale(.01563)"/><path id="DejaVuSans-71" d="M947 1747q0-634 261-995t717-361q456 0 718 361 263 361 263 995t-263 995q-262 361-718 361t-717-361q-261-361-261-995zM2906 525q-181-312-458-464-276-152-664-152-634 0-1033 506-398 507-398 1332t398 1331q399 506 1033 506 388 0 664-152 277-151 458-463v531h575v-4831h-575V525z" transform="scale(.01563)"/><path id="DejaVuSans-6b" d="M581 4863h578V1991l1716 1509h734L1753 1863 3688 0h-750L1159 1709V0H581v4863z" transform="scale(.01563)"/><path id="DejaVuSans-4f" d="M2522 4238q-688 0-1093-513-404-512-404-1397 0-881 404-1394 405-512 1093-512 687 0 1089 512 402 513 402 1394 0 885-402 1397-402 513-1089 513zm0 512q981 0 1568-658 588-658 588-1764 0-1103-588-1761Q3503-91 2522-91q-984 0-1574 656-589 657-589 1763t589 1764q590 658 1574 658z" transform="scale(.01563)"/><path id="DejaVuSans-76" d="M191 3500h609L1894 563l1094 2937h609L2284 0h-781L191 3500z" transform="scale(.01563)"/></defs><use xlink:href="#DejaVuSans-44"/><use xlink:href="#DejaVuSans-61" x="77.002"/><use xlink:href="#DejaVuSans-69" x="138.281"/><use xlink:href="#DejaVuSans-6c" x="166.064"/><use xlink:href="#DejaVuSans-79" x="193.848"/><use xlink:href="#DejaVuSans-20" x="253.027"/><use xlink:href="#DejaVuSans-6e" x="284.814"/><use xlink:href="#DejaVuSans-75" x="348.193"/><use xlink:href="#DejaVuSans-6d" x="411.572"/><use xlink:href="#DejaVuSans-62" x="508.984"/><use xlink:href="#DejaVuSans-65" x="572.461"/><use xlink:href="#DejaVuSans-72" x="633.984"/><use xlink:href="#DejaVuSans-20" x="675.098"/><use xlink:href="#DejaVuSans-6f" x="706.885"/><use xlink:href="#DejaVuSans-66" x="768.066"/><use xlink:href="#DejaVuSans-20" x="803.271"/><use xlink:href="#DejaVuSans-71" x="835.059"/><use xlink:href="#DejaVuSans-75" x="898.535"/><use xlink:href="#DejaVuSans-65" x="961.914"/><use xlink:href="#DejaVuSans-73" x="1023.438"/><use xlink:href="#DejaVuSans-74" x="1075.537"/><use xlink:href="#DejaVuSans-69" x="1114.746"/><use xlink:href="#DejaVuSans-6f" x="1142.529"/><use xlink:href="#DejaVuSans-6e" x="1203.711"/><use xlink:href="#DejaVuSans-73" x="1267.09"/><use xlink:href="#DejaVuSans-20" x="1319.189"/><use xlink:href="#DejaVuSans-6f" x="1350.977"/><use xlink:href="#DejaVuSans-6e" x="1412.158"/><use xlink:href="#DejaVuSans-20" x="1475.537"/><use xlink:href="#DejaVuSans-53" x="1507.324"/><use xlink:href="#DejaVuSans-74" x="1570.801"/><use xlink:href="#DejaVuSans-61" x="1610.01"/><use xlink:href="#DejaVuSans-63" x="1671.289"/><use xlink:href="#DejaVuSans-6b" x="1726.27"/><use xlink:href="#DejaVuSans-4f" x="1784.18"/><use xlink:href="#DejaVuSans-76" x="1862.891"/><use xlink:href="#DejaVuSans-65" x="1922.07"/><use xlink:href="#DejaVuSans-72" x="1983.594"/><use xlink:href="#DejaVuSans-66" x="2024.707"/><use xlink:href="#DejaVuSans-6c" x="2059.912"/><use xlink:href="#DejaVuSans-6f" x="2087.695"/><use xlink:href="#DejaVuSans-77" x="2148.877"/></g><path d="m102.051 323.95 2.339-.133 2.338.133h4.715l2.3-.142 2.3.142 2.339-.138 2.338.138h4.677l2.376-.133 2.339.133 2.338-.133 2.339-.005 2.338.005 2.377-.266 2.261.252 2.262-.385 2.338.257 2.339.009 2.338-.56 2.339-2.767 2.376-29.671 2.339-14.033 2.338-9.119 2.338 2.382 2.339 1.61 2.377-14.903 2.261-5.15 2.262 5.417 2.338 5.051 2.339-6.648 2.338 10.498 2.338-8.103 2.377 5.19 2.339-1.9 2.338.302 2.338 10.973 2.339 8.188 2.376-.799 2.262-2.832 2.262 1.102 2.338-3.322 2.339 6.915 2.338 1.747 2.338-8.666 2.377 2.262 2.338-10.644 2.339 7.45 2.338-3.738 2.339 4.67 2.376 1.863 2.3-6.974 2.3-1.276 2.339 3.092 2.338 2.23 2.338 3.132 2.339 2.058 2.377-.532 2.338 2.874 2.338 5.109 2.339-1.672 2.338 1.938 2.377 1.464 2.261-6.368 2.262 5.037 2.339 6.728 2.338-5.53 2.338 1.268 2.339 4.586 2.376 1.996 2.339 4.555 2.338-1.229 2.339 1.641 2.338 3.548 2.377-2.395 2.261.86 2.262-3.255 2.338 3.717 2.339-1.188 2.338.363 2.339 2.963 2.376 1.996 2.339 2.19 2.338 1.27 2.338-1.27 2.339 3.531h2.376l2.262 2.058 2.262-1.792 2.338 1.703 2.339.027 2.338 3.273 2.338-4.071 2.377 2.395 2.338.026 2.339 1.304 2.338 1.446 2.339-1.313 2.376.666 2.3 1.197 2.3-1.33 2.339-1.42 2.338.887 2.339.763 2.338.7 2.377-.132 2.338-.018 2.338-.248 2.339-.577 2.338 2.706 2.377-.266 2.262-1.36 2.261.428 2.339 1.38 2.338-.182 2.338-.781 2.339-.683 2.376 1.464 2.339.456 2.338-.19 2.339-.634 2.338-.032" clip-path="url(#pc35bbfabb4)" style="fill:none;stroke:#8c564b;stroke-width:1.5;stroke-linecap:square" id="line2d_24"/><path d="m181.364 323.95 2.377-.133 2.339-.142 2.338.009 2.338-.01 2.339.143 2.376-.133 2.262-.029 2.262-.77 2.338-.448 2.339.05 2.338.088 2.338.177 2.377-.133 2.338-.457 2.339-.208 2.338.208 2.339-.74h2.376l2.3.11 2.3.422 2.339-1.441 2.338 1.707 2.338-1.57 2.339-.559 2.377 2.262 2.338-1.565 2.338-2.027 2.339.927 2.338.27 2.377 1.198 2.261-2.215 2.262.751 2.339-.692 2.338-.372 2.338 1.747 2.339-1.747 2.376 2.128 2.339-.243 2.338-.156 2.339.293 2.338-.426 2.377-.133 2.261-1.002 2.262 2.2 2.338-.914 2.339 1.18 2.338.195 2.339-1.26 2.376.932 2.339.603 2.338-1.535 2.338-.94 2.339 1.073 2.376.799 2.262-3.807 2.262 1.944 2.338-.559 2.339-1.304 2.338 1.854 2.338-1.189 2.377-1.995 2.338 1.534 2.339.595 2.338-.32 2.339.719 2.376-5.589 2.3-.45 2.3 2.978 2.339-5.907 2.338 3.246 2.339-.771 2.338.505 2.377-2.927 2.338.36 2.338 3.365 2.339 3.234 2.338-4.165 2.377 1.73 2.262-.718 2.261-1.411 2.339 3.464 2.338-3.863 2.338 1.388 2.339-3.251 2.376 3.992 2.339-1.428 2.338-.967 2.339 2.066 2.338 1.393" clip-path="url(#pc35bbfabb4)" style="fill:none;stroke:#9467bd;stroke-width:1.5;stroke-linecap:square" id="line2d_25"/><path d="m32.015 323.95 2.338-.138 2.339.138h16.407l2.376-.133 2.262.133h4.6l2.339-.133 2.338.133h9.392l2.338-.138 2.339.138h16.253l2.377-1.464 2.338-.874 2.339-1.92 2.338-.83 2.338-1.698 2.377-2.262 2.3-21.959 2.3 2.4 2.339-14.015 2.338-.621 2.338-7.491 2.339-5.017 2.376-5.987 2.339-3.296 2.338-7.216 2.339-3.92 2.338 9.11 2.377-26.612 2.261-22.263 2.262 3.636 2.338-7.456 2.339 3.863 2.338-5.513 2.339-23.227 2.376-10.511 2.339-17.134 2.338-.03 2.338 19.554 2.339-5.45 2.377-15.967 2.261-30.594 2.262-13.182 2.338 14.596 2.339 21.728 2.338 1.233 2.338-20.393 2.377 20.225 2.339-8.494 2.338 6.897 2.338-8.546 2.339 17.328 2.376-21.422 2.262-24.554 2.262-2.723 2.338-20.326 2.339-4.555 2.338-10.294 2.338-8.866 2.377 23.152 2.338 14.862 2.339 13.745 2.338 15.953 2.339 4.271 2.376-10.91 2.3-27.653 2.3 8.892 2.339-10.76 2.338 28.855 2.338 4.693 2.339-4.959 2.377-7.451 2.338 24.509 2.338 17.803 2.339-13.403 2.338 8.347 2.377-7.984 2.261-2.642 2.262-12.127 2.339 32.142 2.338-17.506 2.338 14.206 2.339 15.998 2.376-4.524 2.339 23.861 2.338-5.898 2.339-4.826 2.338 36.094 2.377-22.487 2.261 15.482 2.262 23.105 2.338 11.19 2.339-.28 2.338 5.367 2.339 3.415 2.376 16.898 2.339.86 2.338 2.732 2.338 2.356 2.339 7.624 2.376-11.576 2.262 4.894 2.262 4.287 2.338 2.195 2.339-1.13 2.338 2.78 2.338-7.039 2.377 13.173 2.338-7.921 2.339-3.788 2.338 3.788 2.339 7.92 2.376-4.124 2.3-.743 2.3-8.039 2.339-17.563 2.338 9.447 2.339-2.297 2.338-4.09 2.377 16.632 2.338 9.594 2.338-2.01 2.339 3.11 2.338 1.547 2.377-5.588 2.262 3.117 2.261-3.782 2.339 5.256 2.338 4.19 2.338-2.54 2.339 4.404 2.376-2.528 2.339 2.523 4.677 6.05 2.338-.856h0" clip-path="url(#pc35bbfabb4)" style="fill:none;stroke:#d62728;stroke-width:1.5;stroke-linecap:square" id="line2d_26"/><path d="m153.38 323.95 2.377-.266 2.339.266h13.915l2.338-.138 2.339.138h4.676l2.377-.133 2.339.133H193.095l2.376-.133 2.262.133H228.055l2.339-.138 2.338.138h16.407l2.377-.4 2.261.105 2.262.295h2.339l2.338-.133 2.338-.005 2.339.138 2.376-.266 2.339.128 2.338.138h4.677l2.377-.133 2.261.133h16.331l2.338-.133 2.338.133h9.239l2.338-.275 2.339.275h18.783l2.3-.142 2.3.142h4.677l2.339-.55 2.338-1.047 2.377.798 2.338.111 2.338-.51 2.339-.04 2.338-6.08 2.377-3.859 2.262-3.554 2.261 1.691 2.339-.984 2.338-3.673 2.338-8.289 2.339-1.158 2.376 5.855 2.339-6.484 2.338-.701 2.339 2.076 2.338-4.737" clip-path="url(#pc35bbfabb4)" style="fill:none;stroke:#2ca02c;stroke-width:1.5;stroke-linecap:square" id="line2d_27"/><path d="m109.066 323.95 2.377-.133 2.3.133h2.3l2.339-.138 2.338.138 2.338-.138 2.339.138h2.376l2.339-.138 2.338.005 2.339.133h6.976l2.262-.133 2.338.133 2.339-.266 2.338.128 2.339.138 2.376-.133 2.339-.005 2.338-.527 2.338.39 2.339.142h2.377l2.261-.162 2.262.162 2.338-.142 2.339.142 2.338.133h2.338l2.377-.133 2.339-.005 2.338.005 2.338.133h9.239l2.338-.138 2.339.138h4.676l2.377-.4 2.338-.425 2.339-.772 2.338-1.29 2.339-.307 2.376.134 2.3-1.207 2.3.408 2.339-1.916 2.338 3.38 2.338-.493 2.339-2.834 2.377.533 2.338-2.786 2.338 1.854 2.339 1.034 2.338-3.429 2.377-4.79 2.261-3.635 2.262-1.42 2.339-1.713 2.338-.15 2.338-11.4 2.339 4.081 2.376-16.233 2.339-4.621 2.338-2.164 2.339-9.798 2.338 12.459 2.377-20.491 2.261-12.778 2.262.138 2.338 5.273 2.339-8.6 2.338 4.75 2.339.706 2.376 1.064 2.339.43 2.338 8.884 2.338.466 2.339 7.251 2.376-23.55 2.262 4.072 2.262 5.507 2.338 3.695 2.339-4.493 2.338 7.93 2.338-8.462 2.377 6.12 2.338 1.655 2.339-.723 2.338 1.135 2.339 8.179 2.376-6.254 2.3-7.112 2.3-.738 2.339-26.798 2.338 5.509 2.339 8.515 2.338 1.996 2.377-9.713 2.338 6.755 2.338 7.216 2.339 3.096 2.338 5.02 2.377 1.331 2.262 6.249 2.261-9.575 2.339 8.112 2.338 10.382 2.338-.62 2.339 6.076 2.376 3.326 2.339-.603 2.338 7.655 2.339.732 2.338 3.659" clip-path="url(#pc35bbfabb4)" style="fill:none;stroke:#ff7f0e;stroke-width:1.5;stroke-linecap:square" id="line2d_28"/><path d="m272.446 323.95 2.339-.138 2.338-.128h2.377l2.261-.029 2.262.162 2.338-.28 2.339.147 2.338-.01 2.339-.39 2.376.4 2.339-.284 2.338.018 2.338.257 2.339-.39 2.376-.134 2.262-.969 2.262 1.236 2.338.12 2.339-1.451 2.338-.337 2.338.87 2.377.132 2.338-.59 2.339.058 2.338-1.57 2.339 1.038 2.376-.532 2.3.518 2.3-2.913 2.339-1.548 2.338.35 2.339.2 2.338 2.328 2.377-2.794 2.338-.36 2.338-.97 2.339-4.254 2.338.129 2.377-5.323 2.262-.247 2.261-.684 2.339-2.262 2.338 1.33 2.338-4.63 2.339 2.103 2.376-4.524 2.339-1.978 2.338.115 2.339 3.872 2.338-11.323" clip-path="url(#pc35bbfabb4)" style="fill:none;stroke:#1f77b4;stroke-width:1.5;stroke-linecap:square" id="line2d_29"/></g></g><defs><clipPath id="pc35bbfabb4"><path d="M32.015 57.838h357.12V323.95H32.015z"/></clipPath></defs></svg>