<svg height="459.518" viewBox="0 0 556.355 344.639" width="741.806" xmlns="http://www.w3.org/2000/svg" xmlns:xlink="http://www.w3.org/1999/xlink"><defs><style>*{stroke-linecap:butt;stroke-linejoin:round}</style></defs><g id="figure_1"><path d="M0 344.639h556.355V0H0z" fill="none" id="patch_1"/><g id="axes_1"><path d="M49.627 300.45h372V23.25h-372z" fill="none" id="patch_2"/><path clip-path="url(#pfd2d16ca68)" d="M161.724 300.45l1.765-.126 3.13-.126 1.551-.272 2.094-.252 1.675-.272 2.23-.126 1.207-.126.997-.125 2.395-.147 2.872-.126 2.912-.147 2.046-.125 1.394-.147 2.237-.063 2.787-.02 1.064-.043 1.713-.125 2.072-.126 2.077-.147 2.396-.126 2.32-.125 2.701-.126 1.225-.063 3.196-.084 2.448-.063 1.36-.062 2.186-.126.816-.126.22-.063 2.966-.02.558-.022 1.875-.042 2.47-.125 2.42-.147 2.267-.126 2.403-.146 3.097-.252 1.19-.125 2.517-.147 1.459-.524.175-1.069 1.296-1.047 2.468-1.069 2.056-1.048 1.421-1.068 3.223-2.117 2.633-2.116 1.99-1.069 2.072-1.068 1.898-1.048 1.59-1.069 2.814-2.116 2.87-2.116 2.523-2.117 2.428-2.116 1.687-1.048 1.774-1.068 2.83-2.117 2.512-.524 1.549-.544 2.76-1.07 1.554-1.047 3.01-1.068 1.938-1.048 2.506-1.069 2.265-1.048 2.326-1.068 2.095-1.048 2.6-1.069 1.801-1.047 1.837-1.069 1.728-1.048 1.902-1.068 3.194-2.117 2.694-1.068 1.837-1.069 3.063-2.116 3.21-2.117 2.22-2.116 2.477-2.137 3.105-2.117 2.29-2.116 2.37-2.116 2.108-2.138 2.64-2.116 2.975-2.116 2.352-2.117 1.335-2.116 2.756-2.116 2.72-2.117 1.515-1.047 1.998-1.07 2.677-2.136 2.971-2.117 3.046-2.116 2.85-2.116 2.7-2.117 2.334-2.116 2.292-2.116 2.316-2.117 2.598-2.137 3.065-2.116 1.815-1.048 1.53-1.069 2.065-2.116 2.254-2.117 3.007-2.116 2.532-2.116 2.727-2.117 2.383-2.137 2.237-2.116 2.582-2.117 2.855-2.116 2.686-2.137 1.978-2.117 1.93-2.116 3.161-4.254" fill="none" stroke="#d62728" stroke-linecap="square" stroke-width="1.5" id="line2d_1"/><g id="matplotlib.axis_1"><g id="xtick_1"><g id="text_1"><defs><path d="M4.39 45.125q0 12.39 6.391 18.781 6.406 6.407 17.938 6.407 9.656 0 15.812-5.86 6.157-5.86 6.157-15.14 0-7.22-3.547-12.188-3.532-4.953-10.422-8.703l-12.11-6.64Q13.922 15.921 12.5 8.296h38.188V0H2.593q.39 9.906 4.297 16.5 3.906 6.594 12.203 11.375l12.593 7.328q5.032 2.89 7.329 5.984 2.297 3.094 2.297 8.516 0 5.375-3.766 9.031-3.75 3.672-10.156 3.672-7.078 0-10.594-4.672-3.516-4.656-3.61-12.609z" id="HelveticaWorld-Regular-50"/><path d="M42.484 34.188q0 14.109-3.734 21.156-3.734 7.062-10.969 7.062-7.078 0-10.89-7.062-3.797-7.047-3.797-21.157 0-13.671 3.75-20.937Q20.609 6 27.78 6q7.235 0 10.969 7 3.734 7.016 3.734 21.188zm9.422 0q0-17.297-6.25-26.704-6.25-9.39-17.875-9.39-12.062 0-18.062 9.734-6 9.75-6 26.36 0 17.03 6.14 26.578 6.157 9.547 17.922 9.547 11.625 0 17.875-9.5t6.25-26.626z" id="HelveticaWorld-Regular-48"/><path d="M35.89 0h-9.374v49.906H10.109v6.985q8.594.28 12.782 2.75Q27.094 62.109 29 70.313h6.89z" id="HelveticaWorld-Regular-49"/></defs><g transform="matrix(.14 0 0 -.14 69.125 313.999)"><use xlink:href="#HelveticaWorld-Regular-50"/><use x="55.615" xlink:href="#HelveticaWorld-Regular-48"/><use x="111.23" xlink:href="#HelveticaWorld-Regular-49"/><use x="166.846" xlink:href="#HelveticaWorld-Regular-50"/></g></g></g><g id="xtick_2"><g id="text_2"><defs><path d="M22.406 39.984q2.203-.187 4.594-.187 6.203 0 9.781 2.86 3.594 2.859 3.594 8.656 0 4.687-3.344 7.89-3.343 3.203-9.64 3.203-6.985 0-10.235-4.11-3.234-4.093-3.437-10.983h-8.64q0 10.984 5.765 16.984 5.765 6.016 16.937 6.016 9.922 0 15.828-5.11 5.907-5.094 5.907-13.39 0-10.704-9.032-14.5v-.204q11.72-4 11.72-16.406 0-9.906-6.595-16.265-6.593-6.344-18.703-6.344-9.906 0-16.312 5.203Q4.204 8.5 3.422 21.484H12.5q.203-8.109 4-11.797Q20.313 6 27.484 6q6.938 0 11.141 3.86 4.203 3.859 4.203 9.718 0 6.406-4.016 9.672-4 3.266-12.39 3.266-2 0-4.016-.094z" id="HelveticaWorld-Regular-51"/></defs><g transform="matrix(.14 0 0 -.14 109.76 313.999)"><use xlink:href="#HelveticaWorld-Regular-50"/><use x="55.615" xlink:href="#HelveticaWorld-Regular-48"/><use x="111.23" xlink:href="#HelveticaWorld-Regular-49"/><use x="166.846" xlink:href="#HelveticaWorld-Regular-51"/></g></g></g><g id="xtick_3"><g id="text_3"><defs><path d="M10.594 24.703h22.61v31.89h-.188zM42 17.093V0h-8.797v17.094H2.484v8.593L34.72 70.314H42v-45.61h10.297v-7.61z" id="HelveticaWorld-Regular-52"/></defs><g transform="matrix(.14 0 0 -.14 150.285 313.999)"><use xlink:href="#HelveticaWorld-Regular-50"/><use x="55.615" xlink:href="#HelveticaWorld-Regular-48"/><use x="111.23" xlink:href="#HelveticaWorld-Regular-49"/><use x="166.846" xlink:href="#HelveticaWorld-Regular-52"/></g></g></g><g id="xtick_4"><g id="text_4"><defs><path d="M14.703 40.922q5.813 4.39 13.625 4.39 9.469 0 16.281-6.296 6.813-6.297 6.813-16.22 0-10.78-6.578-17.796-6.563-7-18.422-7-10.313 0-16.266 5.047Q4.203 8.109 3.22 17.39h9.094q.671-5.672 4.437-8.672 3.766-3 10.453-3 6.485 0 10.64 4.484Q42 14.703 42 21.688q0 7.125-4.36 11.421-4.343 4.297-11.218 4.297-7.813 0-13.047-6.687l-7.563.39 5.266 37.594h36.438v-8.5H17.672z" id="HelveticaWorld-Regular-53"/></defs><g transform="matrix(.14 0 0 -.14 190.81 313.999)"><use xlink:href="#HelveticaWorld-Regular-50"/><use x="55.615" xlink:href="#HelveticaWorld-Regular-48"/><use x="111.23" xlink:href="#HelveticaWorld-Regular-49"/><use x="166.846" xlink:href="#HelveticaWorld-Regular-53"/></g></g></g><g id="xtick_5"><g id="text_5"><defs><path d="M14.11 21.578q0-6.875 4.093-11.234Q22.313 6 28.906 6q6.297 0 10.032 4.438 3.734 4.453 3.734 11.687 0 6.297-3.688 10.547-3.687 4.25-10.468 4.25-6.594 0-10.5-4.156-3.907-4.157-3.907-11.188zM41.702 51.61q-.984 5.375-3.984 8.078-3 2.72-8.125 2.72-8.11 0-12.36-7.923-4.25-7.906-4.343-18.109l.203-.188q5.61 8.641 16.687 8.641 8.844 0 15.438-5.86 6.593-5.859 6.593-16.452 0-10.5-6.25-17.47-6.25-6.952-16.843-6.952-12.219 0-18.563 8.687-6.344 8.703-6.344 25.938 0 16.593 6.485 27.093 6.5 10.5 19.484 10.5 8.407 0 14.219-5.015 5.813-5 6.297-13.688z" id="HelveticaWorld-Regular-54"/></defs><g transform="matrix(.14 0 0 -.14 231.334 313.999)"><use xlink:href="#HelveticaWorld-Regular-50"/><use x="55.615" xlink:href="#HelveticaWorld-Regular-48"/><use x="111.23" xlink:href="#HelveticaWorld-Regular-49"/><use x="166.846" xlink:href="#HelveticaWorld-Regular-54"/></g></g></g><g id="xtick_6"><g id="text_6"><defs><path d="M3.719 68.797h48.578v-7.719Q42.28 50.875 33.984 33.484 25.687 16.11 23.391 0h-9.672q1.469 13.281 9.719 30.531 8.25 17.266 18.953 29.672H3.719z" id="HelveticaWorld-Regular-55"/></defs><g transform="matrix(.14 0 0 -.14 271.97 313.999)"><use xlink:href="#HelveticaWorld-Regular-50"/><use x="55.615" xlink:href="#HelveticaWorld-Regular-48"/><use x="111.23" xlink:href="#HelveticaWorld-Regular-49"/><use x="166.846" xlink:href="#HelveticaWorld-Regular-55"/></g></g></g><g id="xtick_7"><g id="text_7"><defs><path d="M27.594 40.578q5.422 0 8.953 3.094 3.547 3.11 3.547 8.234 0 4.594-3.407 7.547-3.39 2.953-9.687 2.953-5.61 0-8.672-3.11-3.047-3.093-3.047-7.874 0-5.125 3.813-7.984 3.812-2.86 8.5-2.86zm.093-7.562q-6.78 0-10.64-3.766-3.86-3.766-3.86-9.234 0-6.297 3.907-10.157Q21 6 28.219 6q6.406 0 10.234 3.86 3.828 3.859 3.828 10.265 0 5.469-3.828 9.172-3.828 3.719-10.766 3.719zM49.22 52.203q0-10.594-9.032-14.797 6.204-2.781 8.86-7.36 2.656-4.562 2.656-9.733 0-10.016-6.453-16.125-6.438-6.094-17.375-6.094-9.563 0-16.813 5.25-7.25 5.25-7.25 17.062 0 11.922 11.907 16.907-9.516 3.796-9.516 13.671 0 8.297 5.64 13.813 5.641 5.516 15.641 5.516 10.016 0 15.875-5.204 5.86-5.203 5.86-12.906z" id="HelveticaWorld-Regular-56"/></defs><g transform="matrix(.14 0 0 -.14 312.494 313.999)"><use xlink:href="#HelveticaWorld-Regular-50"/><use x="55.615" xlink:href="#HelveticaWorld-Regular-48"/><use x="111.23" xlink:href="#HelveticaWorld-Regular-49"/><use x="166.846" xlink:href="#HelveticaWorld-Regular-56"/></g></g></g><g id="xtick_8"><g id="text_8"><defs><path d="M27.594 31.39q6 0 9.75 4.047 3.765 4.063 3.765 11.97 0 6.5-3.562 10.75-3.563 4.25-10.64 4.25-6.11 0-9.876-4.298-3.75-4.297-3.75-11.53 0-7.376 3.516-11.282 3.515-3.906 10.797-3.906zm-1.282-7.906q-10 0-16.062 6.203-6.047 6.204-6.047 16.5 0 10.407 6.094 17.266 6.11 6.86 16.515 6.86 12.11 0 18.36-8.157 6.25-8.156 6.25-24.453 0-16.906-6.406-28.266Q38.625-1.905 25.875-1.905q-9.953 0-15.422 5.593-5.469 5.594-5.469 13.204h8.829q.39-5.266 3.437-8.375 3.063-3.094 8.438-3.094 7.609 0 11.515 6.781Q41.11 19 42.578 31.688l-.187.203q-5.672-8.407-16.078-8.407z" id="HelveticaWorld-Regular-57"/></defs><g transform="matrix(.14 0 0 -.14 353.019 313.999)"><use xlink:href="#HelveticaWorld-Regular-50"/><use x="55.615" xlink:href="#HelveticaWorld-Regular-48"/><use x="111.23" xlink:href="#HelveticaWorld-Regular-49"/><use x="166.846" xlink:href="#HelveticaWorld-Regular-57"/></g></g></g><g id="xtick_9"><g transform="matrix(.14 0 0 -.14 393.543 313.999)" id="text_9"><use xlink:href="#HelveticaWorld-Regular-50"/><use x="55.615" xlink:href="#HelveticaWorld-Regular-48"/><use x="111.23" xlink:href="#HelveticaWorld-Regular-50"/><use x="166.846" xlink:href="#HelveticaWorld-Regular-48"/></g></g></g><g id="matplotlib.axis_2"><g id="ytick_1"><path clip-path="url(#pfd2d16ca68)" d="M49.627 258.562h372" fill="none" stroke="#000" stroke-dasharray="5,5" stroke-opacity=".3" stroke-width=".5" id="line2d_11"/><g transform="matrix(.14 0 0 -.14 14.985 263.587)" id="text_10"><use xlink:href="#HelveticaWorld-Regular-50"/><use x="55.615" xlink:href="#HelveticaWorld-Regular-48"/><use x="111.23" xlink:href="#HelveticaWorld-Regular-48"/><use x="166.846" xlink:href="#HelveticaWorld-Regular-48"/></g></g><g id="ytick_2"><path clip-path="url(#pfd2d16ca68)" d="M49.627 216.654h372" fill="none" stroke="#000" stroke-dasharray="5,5" stroke-opacity=".3" stroke-width=".5" id="line2d_13"/><g transform="matrix(.14 0 0 -.14 14.985 221.68)" id="text_11"><use xlink:href="#HelveticaWorld-Regular-52"/><use x="55.615" xlink:href="#HelveticaWorld-Regular-48"/><use x="111.23" xlink:href="#HelveticaWorld-Regular-48"/><use x="166.846" xlink:href="#HelveticaWorld-Regular-48"/></g></g><g id="ytick_3"><path clip-path="url(#pfd2d16ca68)" d="M49.627 174.747h372" fill="none" stroke="#000" stroke-dasharray="5,5" stroke-opacity=".3" stroke-width=".5" id="line2d_15"/><g transform="matrix(.14 0 0 -.14 14.985 179.771)" id="text_12"><use xlink:href="#HelveticaWorld-Regular-54"/><use x="55.615" xlink:href="#HelveticaWorld-Regular-48"/><use x="111.23" xlink:href="#HelveticaWorld-Regular-48"/><use x="166.846" xlink:href="#HelveticaWorld-Regular-48"/></g></g><g id="ytick_4"><path clip-path="url(#pfd2d16ca68)" d="M49.627 132.839h372" fill="none" stroke="#000" stroke-dasharray="5,5" stroke-opacity=".3" stroke-width=".5" id="line2d_17"/><g transform="matrix(.14 0 0 -.14 14.985 137.863)" id="text_13"><use xlink:href="#HelveticaWorld-Regular-56"/><use x="55.615" xlink:href="#HelveticaWorld-Regular-48"/><use x="111.23" xlink:href="#HelveticaWorld-Regular-48"/><use x="166.846" xlink:href="#HelveticaWorld-Regular-48"/></g></g><g id="ytick_5"><path clip-path="url(#pfd2d16ca68)" d="M49.627 90.93h372" fill="none" stroke="#000" stroke-dasharray="5,5" stroke-opacity=".3" stroke-width=".5" id="line2d_19"/><g transform="matrix(.14 0 0 -.14 7.2 95.955)" id="text_14"><use xlink:href="#HelveticaWorld-Regular-49"/><use x="55.615" xlink:href="#HelveticaWorld-Regular-48"/><use x="111.23" xlink:href="#HelveticaWorld-Regular-48"/><use x="166.846" xlink:href="#HelveticaWorld-Regular-48"/><use x="222.461" xlink:href="#HelveticaWorld-Regular-48"/></g></g><g id="ytick_6"><path clip-path="url(#pfd2d16ca68)" d="M49.627 49.023h372" fill="none" stroke="#000" stroke-dasharray="5,5" stroke-opacity=".3" stroke-width=".5" id="line2d_21"/><g transform="matrix(.14 0 0 -.14 7.2 54.047)" id="text_15"><use xlink:href="#HelveticaWorld-Regular-49"/><use x="55.615" xlink:href="#HelveticaWorld-Regular-50"/><use x="111.23" xlink:href="#HelveticaWorld-Regular-48"/><use x="166.846" xlink:href="#HelveticaWorld-Regular-48"/><use x="222.461" xlink:href="#HelveticaWorld-Regular-48"/></g></g></g><path clip-path="url(#pfd2d16ca68)" d="M143.26 300.45l15.473-.126.062-.44 1.02-.587 1.348-1.153.299-2.325 1.72-2.305 2.592-.566 1.051-.587.821-1.173 2.667-1.153 3.884-1.152 1.294-.566 4.885-1.173 1.185-.587 2.12-.566 3.141-.587 2.356-.565 3.616-1.153 2.076-.587 2.781-.586.891-.587 2.702-1.152 1.13-1.153 2.502-2.326 2.372-.566 1.944-.586 3.034-1.153 2.49-1.152 1.662-1.174 2.72-1.152.826-1.153.12-6.956.394-4.631 1.173-1.153 10.83-4.63 3.347-1.719 2.388-.586 4.068-1.74 2.006-.586 6.993-2.305 2.615-1.174 7.025-3.457 2.234-.587 3.162-1.152 1.887-.587 10.498-4.63.949-1.153 2.972-2.326 2.091-1.152 2.536-1.174 3.08-1.152 2.627-1.174 6.68-3.457 2.938-1.174 3.23-1.152 2.365-1.153 1.739-1.152 2.932-1.173 2.123-1.153 7.426-3.478 9.005-4.631 5.104-2.305 1.65-1.153 4.114-2.325 1.772-1.153 1.35-1.152 2.222-1.174 6.697-4.63 4.6-2.306 2.048-1.152 1.354-1.173 7.803-4.631 2.284-1.153 1.794-1.152 9.606-6.957 5.78-3.457 1.543-1.174 1.756-1.152 4.933-2.305 2.4-1.174 1.912-1.152 1.587-1.152 2.362-1.153 7.792-4.63 5.076-3.5 2.715-2.326h0" fill="none" stroke="#2ca02c" stroke-linecap="square" stroke-width="1.5" id="line2d_23"/><path clip-path="url(#pfd2d16ca68)" d="M49.627 296.761l.94-1.843 1.485-.231 5.763-.691 9.54-1.153 10.29-.922 1.617-.23 4.438-.336 2.019-.125 3.334-.692 18.822-1.383 1.54-.23 2.55-.23 18.211-.462.48-.23 2.27-.461 2.782-.922 11.15-2.787 7.859-2.305 2.397-.461 1.88-.922 3.713-.922 4.118-1.383 1.902-.46 2.599-.462 1.554-.46 6.43-3.689 1.933-.922 4.62-1.865 2.706-.922 6.399-3.688 6.412-2.765 7.323-2.766 3.075-1.844 2.325-.922 4.964-2.787 2.245-.922 2.569-.922 4.246-1.844 3.214-1.844 3.95-1.844 1.636-.922 2.04-.922 5.997-3.709 2.514-.922 1.653-.922 3.045-1.844 5.372-3.688 2.217-1.844 2.86-1.843 2.172-1.844 1.455-.922 1.989-.943 2.577-1.844 2.105-1.844 4.883-3.688 5.383-3.688 2.2-1.844 2.794-1.865 2.77-3.688 2.35-1.844 1.69-1.844 1.518-1.844 3.644-3.688 2.64-1.864 4.11-3.688 1.508-1.844 7.815-7.376 2.22-1.865 1.603-1.844 1.865-1.844 3.112-3.688 2.88-3.688 3.05-3.709 3.911-3.687 2.951-3.688 6.465-7.397 1.887-1.844 2.27-1.844 1.927-1.844 1.658-1.844 3.7-3.688 6.858-7.397 3.761-3.687 3.525-3.688 2.913-3.71 6.638-7.375 2.857-3.688 3.272-3.709 1.836-1.844 1.527-1.844 2.616-3.688 2.277-3.687 4.675-5.553 2.116-1.844 3.006-3.688 5.095-5.532 5.917-5.553 2.121-3.709 2.505-3.687 2.383-3.71h0" fill="none" stroke="#ff7f0e" stroke-linecap="square" stroke-width="1.5" id="line2d_24"/><g id="text_16"><defs><path d="M43.406 26.313q0 10.5-3.718 15.046-3.704 4.547-10.579 4.547-6.984-.11-10.562-5.453Q14.984 35.11 14.984 25q0-10.297 4.297-14.594Q23.578 6.11 29.297 6.11q6.5 0 10.297 5.344 3.812 5.344 3.812 14.86zM6.594 0v71.781h8.781V45.703h.203q5.61 8.11 15.14 8.11 9.766 0 15.766-7.25t6-18.876q0-13.093-6.062-21.156Q40.375-1.516 29.5-1.516q-9.578 0-14.406 8.016h-.203V0z" id="HelveticaWorld-Regular-98"/><path d="M12.703 26.219q0-8.735 3.953-14.375 3.953-5.64 11.219-5.64 7.531 0 11.438 5.905 3.906 5.907 3.906 14.11 0 8.297-3.907 14.078-3.906 5.797-11.437 5.797-6.969 0-11.078-5.453-4.094-5.438-4.094-14.422zm-8.984 0q0 11.672 6.484 19.625 6.5 7.968 17.672 7.968 11.438 0 17.875-8.062 6.453-8.047 6.453-19.531 0-11.516-6.406-19.625-6.39-8.11-17.922-8.11-11.078 0-17.625 7.86-6.531 7.86-6.531 19.875z" id="HelveticaWorld-Regular-111"/><path d="M50 0H38.719L22.406 26.422l-7.312-6.594V0h-8.5v71.781h8.5v-41.61l22.5 22.126H48.78L28.813 32.813z" id="HelveticaWorld-Regular-107"/><path d="M42.484 30.328q-.687 8.485-4.5 12.031-3.797 3.547-10.109 3.547-6.39 0-10.328-4.5-3.922-4.484-4.172-11.078zm8.391-13.922q-1.453-8.11-7.953-13.422-5.719-4.5-15.047-4.593-10.984.093-17.438 7.203Q4 12.704 4 24.704q0 13.78 6.64 21.437 6.641 7.672 18.47 7.672 10.593 0 16.546-7.922 5.953-7.907 5.953-22.594H13.375q0-8.203 3.813-12.703Q21 6.109 28.608 6.109q5.375 0 9.235 3.235 3.86 3.25 4.25 7.062z" id="HelveticaWorld-Regular-101"/><path d="M49.219 0h-8.844v34.188q0 6.296-2.438 9-2.437 2.718-7.953 2.718-6.797 0-10.703-4.406-3.906-4.39-3.906-12.984V0H6.594v71.781h8.781V45.312h.203q6 8.5 15.328 8.5 8.594 0 13.453-4.5 4.86-4.484 4.86-13.718z" id="HelveticaWorld-Regular-104"/><path d="M4.984-1.906h-6.687l24.61 75.594H29.5z" id="HelveticaWorld-Regular-47"/></defs><g transform="matrix(.14 0 0 -.14 425.347 26.825)" fill="#1f77b4"><use xlink:href="#HelveticaWorld-Regular-98"/><use x="56.494" xlink:href="#HelveticaWorld-Regular-111"/><use x="112.402" xlink:href="#HelveticaWorld-Regular-107"/><use x="160.027" xlink:href="#HelveticaWorld-Regular-101"/><use x="215.447" xlink:href="#HelveticaWorld-Regular-104"/><use x="270.623" xlink:href="#HelveticaWorld-Regular-47"/><use x="298.406" xlink:href="#HelveticaWorld-Regular-98"/><use x="354.9" xlink:href="#HelveticaWorld-Regular-111"/><use x="410.809" xlink:href="#HelveticaWorld-Regular-107"/><use x="458.434" xlink:href="#HelveticaWorld-Regular-101"/><use x="513.854" xlink:href="#HelveticaWorld-Regular-104"/></g></g><g id="text_17"><defs><path d="M6.594 52.297h8.297v-7.375h.203q5.906 8.89 15.812 8.89 9.813 0 13.922-8.5 3.75 4.594 7.266 6.547 3.515 1.953 8.703 1.953 6.781 0 11.484-4.453Q77 44.922 77 36.187V0h-8.781v33.797q0 6.094-2.297 9.094-2.297 3.015-7.422 3.015-5.172 0-8.75-4.203-3.563-4.203-3.563-9.812V0h-8.78v36.188q0 4.53-2.11 7.124-2.094 2.594-6.094 2.594-6.297 0-10.062-4.687-3.766-4.688-3.766-12.703V0H6.594z" id="HelveticaWorld-Regular-109"/><path d="M38.375 26.703q-.969-1.015-3.828-1.656-2.86-.625-10.672-1.656-5.766-.688-8.469-2.844-2.703-2.14-2.703-5.656 0-4.297 2.281-6.688 2.297-2.39 7.329-2.39 6.296 0 11.171 3.578 4.891 3.593 4.891 8.718zM6.203 36.375q.297 8.844 5.734 13.14 5.454 4.297 15.844 4.297 8.297 0 13.907-3.765 5.624-3.75 5.624-10.844V9.078Q47.313 6 50.094 6q1.125 0 2.89.39V0Q50.594-.984 48-.984q-4.5 0-6.703 1.921-2.188 1.938-2.281 6.047-7.516-8.5-18.891-8.5-7.422 0-11.922 4.204Q3.72 6.89 3.72 13.624q0 6.89 3.906 11.125Q11.531 29 19 29.89l15.516 1.891q4.203.64 4.203 6.203 0 4.11-3.047 6.297-3.047 2.203-9.25 2.203-5.516 0-8.485-2.437-2.953-2.438-3.53-7.672z" id="HelveticaWorld-Regular-97"/><path d="M17.188 45.016V10.984q0-2 1.093-3.046 1.11-1.047 3.938-1.047h3.375V0Q20.797-.688 19-.688q-5.516 0-8.063 2.641-2.53 2.64-2.53 8.547v34.516H1.311v7.28h7.094v14.595h8.781V52.297h8.407v-7.281z" id="HelveticaWorld-Regular-116"/><path d="M14.984 23.688q0-8.407 4.094-13 4.11-4.579 10.219-4.579 6.687 0 10.39 5.438 3.72 5.453 3.72 14.765 0 10.22-3.563 14.907-3.563 4.687-10.735 4.687-6.984 0-10.562-5.5-3.563-5.5-3.563-16.718zm-8.39 28.609h8.297v-7.375h.203q5.61 8.89 15.625 8.89 10.11 0 15.937-7.359 5.828-7.344 5.828-18.766 0-12.796-5.953-21Q40.578-1.515 29.5-1.515q-9.094 0-13.922 7.032h-.203v-26.22H6.594z" id="HelveticaWorld-Regular-112"/><path d="M15.375 0H6.594v71.781h8.781z" id="HelveticaWorld-Regular-108"/><path d="M6.594 61.813v9.968h8.781v-9.969zM15.375 0H6.594v52.297h8.781z" id="HelveticaWorld-Regular-105"/></defs><g transform="matrix(.14 0 0 -.14 425.347 67.777)" fill="#ff7f0e"><use xlink:href="#HelveticaWorld-Regular-109"/><use x="83.008" xlink:href="#HelveticaWorld-Regular-97"/><use x="137.939" xlink:href="#HelveticaWorld-Regular-116"/><use x="165.625" xlink:href="#HelveticaWorld-Regular-112"/><use x="222.119" xlink:href="#HelveticaWorld-Regular-108"/><use x="244.141" xlink:href="#HelveticaWorld-Regular-111"/><use x="300.049" xlink:href="#HelveticaWorld-Regular-116"/><use x="327.734" xlink:href="#HelveticaWorld-Regular-108"/><use x="349.756" xlink:href="#HelveticaWorld-Regular-105"/><use x="371.777" xlink:href="#HelveticaWorld-Regular-98"/><use x="428.271" xlink:href="#HelveticaWorld-Regular-47"/><use x="456.055" xlink:href="#HelveticaWorld-Regular-109"/><use x="539.063" xlink:href="#HelveticaWorld-Regular-97"/><use x="593.994" xlink:href="#HelveticaWorld-Regular-116"/><use x="621.68" xlink:href="#HelveticaWorld-Regular-112"/><use x="678.174" xlink:href="#HelveticaWorld-Regular-108"/><use x="700.195" xlink:href="#HelveticaWorld-Regular-111"/><use x="756.104" xlink:href="#HelveticaWorld-Regular-116"/><use x="783.789" xlink:href="#HelveticaWorld-Regular-108"/><use x="805.811" xlink:href="#HelveticaWorld-Regular-105"/><use x="827.832" xlink:href="#HelveticaWorld-Regular-98"/></g></g><g id="text_18"><defs><path d="M25.594 0h-8.985L1.516 52.297h9.468L21 11.187h.188l10.109 41.11h9.922l10.203-41.11h.187l10.594 41.11h8.703L55.812 0h-9.234L35.984 40.484h-.187z" id="HelveticaWorld-Regular-119"/><path d="M36.078 37.406q-.187 4.688-3.344 6.735-3.14 2.047-9.047 2.047-4.296 0-7.359-1.907-3.047-1.89-3.047-5.468 0-2.829 1.797-4.172 1.813-1.344 7.828-2.86l8.688-2.187q7.906-2 11.297-5.11 3.406-3.093 3.406-8.656 0-7.719-5.64-12.531-5.641-4.813-15.063-4.813-11 0-16.64 4.563-5.626 4.578-5.735 13.75h8.5q.203-5.422 3.594-8.063 3.39-2.625 10.171-2.625 5.516 0 8.766 2.188 3.25 2.203 3.25 6.11 0 2.78-2.11 4.437-2.093 1.672-8.296 3.078l-10.203 2.5q-6.203 1.562-9.157 4.656-2.953 3.094-2.953 8.031 0 7.72 5.516 12.203 5.531 4.5 14.406 4.5 9.485 0 14.531-4.624 5.047-4.61 5.344-11.782z" id="HelveticaWorld-Regular-115"/><path d="M15.375 0H6.594v52.297h8.297v-8.688h.203q5.703 10.203 14.687 10.203 1.422 0 2.297-.296V44.39h-3.266q-5.906 0-9.671-4.016-3.766-4-3.766-9.953z" id="HelveticaWorld-Regular-114"/><path d="M49.219 0h-8.844v32.172q0 7.422-2.594 10.578-2.578 3.156-8.578 3.156-5.906 0-9.875-4.5-3.953-4.484-3.953-12.89V0H6.594v52.297h8.297v-7.375h.203q6.203 8.89 15.812 8.89 8.89 0 13.594-4.718 4.719-4.703 4.719-13.5z" id="HelveticaWorld-Regular-110"/></defs><g transform="matrix(.14 0 0 -.14 425.347 153.998)" fill="#2ca02c"><use xlink:href="#HelveticaWorld-Regular-109"/><use x="81.008" xlink:href="#HelveticaWorld-Regular-119"/><use x="151.045" xlink:href="#HelveticaWorld-Regular-97"/><use x="205.977" xlink:href="#HelveticaWorld-Regular-115"/><use x="255.977" xlink:href="#HelveticaWorld-Regular-107"/><use x="303.602" xlink:href="#HelveticaWorld-Regular-111"/><use x="359.51" xlink:href="#HelveticaWorld-Regular-109"/><use x="442.518" xlink:href="#HelveticaWorld-Regular-47"/><use x="470.301" xlink:href="#HelveticaWorld-Regular-115"/><use x="520.301" xlink:href="#HelveticaWorld-Regular-101"/><use x="575.721" xlink:href="#HelveticaWorld-Regular-97"/><use x="630.652" xlink:href="#HelveticaWorld-Regular-98"/><use x="687.146" xlink:href="#HelveticaWorld-Regular-111"/><use x="743.055" xlink:href="#HelveticaWorld-Regular-114"/><use x="775.623" xlink:href="#HelveticaWorld-Regular-110"/></g></g><g id="text_19"><defs><path d="M39.016 52.297h9.562L29.891.984q-.5-1.375-.985-2.593-4.25-11.329-7.328-15.547-3.078-4.235-9.953-4.235-3.61 0-5.906.782v8.015q2.484-.89 5.468-.89 3.22 0 4.704 2.03 1.5 2.032 4.421 9.938L.875 52.297h9.922L24.812 9.719H25z" id="HelveticaWorld-Regular-121"/><path d="M19.094 0H8.687v10.594h10.407z" id="HelveticaWorld-Regular-46"/></defs><g transform="matrix(.14 0 0 -.14 425.347 170.253)" fill="#d62728"><use xlink:href="#HelveticaWorld-Regular-112"/><use x="56.494" xlink:href="#HelveticaWorld-Regular-108"/><use x="78.516" xlink:href="#HelveticaWorld-Regular-111"/><use x="134.424" xlink:href="#HelveticaWorld-Regular-116"/><use x="162.109" xlink:href="#HelveticaWorld-Regular-108"/><use x="184.131" xlink:href="#HelveticaWorld-Regular-121"/><use x="233.74" xlink:href="#HelveticaWorld-Regular-47"/><use x="261.523" xlink:href="#HelveticaWorld-Regular-112"/><use x="318.018" xlink:href="#HelveticaWorld-Regular-108"/><use x="340.039" xlink:href="#HelveticaWorld-Regular-111"/><use x="395.947" xlink:href="#HelveticaWorld-Regular-116"/><use x="423.633" xlink:href="#HelveticaWorld-Regular-108"/><use x="445.654" xlink:href="#HelveticaWorld-Regular-121"/><use x="485.264" xlink:href="#HelveticaWorld-Regular-46"/><use x="513.047" xlink:href="#HelveticaWorld-Regular-112"/><use x="567.541" xlink:href="#HelveticaWorld-Regular-121"/></g></g><g id="text_20"><defs><path d="M38.484 38.375h31.532V0h-6.297l-2.344 9.281Q56.781 3.421 50.578.75q-6.187-2.656-12.875-2.656-10.797 0-18.047 4.703-7.25 4.719-11.265 13.015-4 8.313-4 20.72 0 15.468 9.203 26.312 9.203 10.843 24.781 10.843 11.625 0 20.313-6.5Q67.39 60.688 68.796 50h-9.375q-1.703 7.078-7.219 11.078-5.516 4.016-14.312 4.016-10.594 0-17.047-7.985-6.438-7.984-6.438-21.125 0-15.28 6.39-22.437Q27.204 6.39 38.282 6.39q7.235 0 12.235 2.859 5 2.86 7.687 7.766 2.688 4.906 2.688 13.062H38.484z" id="HelveticaWorld-Regular-71"/><path d="M64.89 0h-9.718v33.5h-37.5V0H8.109v71.781h9.563V42.094h37.5V71.78h9.719z" id="HelveticaWorld-Regular-72"/><path d="M6.11 52.297h8.78V17.578q0-5.765 2.61-8.625Q20.125 6.11 25 6.11q6.781 0 10.594 4.797 3.812 4.813 3.812 12.578v28.813h8.782V0H39.89v7.625l-.188.188q-4.984-9.329-16.61-9.329-7.515 0-12.25 4.094Q6.11 6.688 6.11 14.703z" id="HelveticaWorld-Regular-117"/><path d="M44 29.5L33.406 61.078h-.203L21.687 29.5zm-25.297-8.594L11.188 0h-9.97l27 71.781h10.985L65.187 0H54.594l-7.078 20.906z" id="HelveticaWorld-Regular-65"/><path d="M17.828 38.625H37.11q7.282 0 10.938 3.188 3.656 3.203 3.656 9.703 0 5.812-3.516 8.89-3.515 3.078-10.687 3.078H17.828zm0-38.625H8.11v71.781h32.266q9.625 0 15.484-5.594 5.86-5.593 5.86-14.578 0-9.328-5.672-15.312-5.656-5.969-15.672-5.969H17.828z" id="HelveticaWorld-Regular-80"/><path d="M17.828 0H8.11v71.781h9.72z" id="HelveticaWorld-Regular-73"/><path d="M39.406 52.297h9.625L29.11 0h-9.437L.594 52.297h10.203L24.422 9.719h.187z" id="HelveticaWorld-Regular-118"/><path d="M9.422 73.688h7.281V-1.906H9.422z" id="HelveticaWorld-Regular-124"/><path d="M55.61 71.781h9.374V0h-10.78L17.577 58.016h-.187V0H8.109v71.781h11.375l35.938-57.969h.187z" id="HelveticaWorld-Regular-78"/><path d="M39.594 34.719q-1.89 11.187-12.39 11.187-6.5 0-10.454-5.203-3.953-5.203-3.953-14.484 0-10.11 3.656-15.11 3.672-5 10.64-5 4.688 0 8.11 3.438 3.422 3.437 4.39 8.953h8.5q-1.312-9.703-6.859-14.86-5.547-5.156-14.328-5.156-10.297 0-16.89 7.047-6.594 7.063-6.594 19.172 0 13.281 6.594 21.188 6.593 7.922 18.5 7.922 8.687 0 13.843-5.204 5.157-5.203 5.735-13.89z" id="HelveticaWorld-Regular-99"/><path d="M50.39 50.781q-.296 6.844-5.109 10.719-4.797 3.875-12.656 3.875-7.922 0-12.172-3.25-4.234-3.234-4.234-9.344 0-3.265 1.843-5.61 1.86-2.343 6.641-3.468l20.516-4.687q8.297-1.813 12.297-6.875 4.015-5.047 4.015-12.313 0-10.64-7.812-16.187-7.813-5.547-20.313-5.547-9.531 0-15.031 2.437-5.484 2.453-9.734 7.766-4.25 5.328-4.25 14.89h9.093q0-8 5.313-12.406 5.328-4.39 14.5-4.39 8.89 0 13.844 3.156 4.953 3.156 4.953 8.953 0 5.281-2.953 7.89Q46.188 29 37.594 31l-15.469 3.625q-7.719 1.75-11.531 6.125Q6.78 45.125 6.78 51.516q0 9.672 6.516 15.922 6.531 6.25 18.203 6.25 13.172 0 20.328-5.5 7.156-5.485 7.688-17.407z" id="HelveticaWorld-Regular-83"/><path d="M12.703 26.219q0-8.735 3.953-14.375 3.953-5.64 11.219-5.64 7.531 0 11.438 5.905 3.906 5.907 3.906 14.11 0 8.297-3.907 14.078-3.906 5.797-11.437 5.797-6.969 0-11.078-5.453-4.094-5.438-4.094-14.422zm-8.984 0q0 11.672 6.484 19.625 6.5 7.968 17.672 7.968 11.438 0 17.875-8.062 6.453-8.047 6.453-19.531 0-11.516-6.406-19.625-6.39-8.11-17.922-8.11-11.078 0-17.625 7.86-6.531 7.86-6.531 19.875zm36.734 35.406H31.47v10.156h8.984zm-16.219 0H15.25v10.156h8.984z" id="HelveticaWorld-Regular-246"/><path d="M58.016 50.203q-1.625 7.313-6.782 11.094-5.14 3.797-13.343 3.797-10.594 0-17.047-7.703-6.438-7.688-6.438-20.766 0-15.14 6.094-22.547 6.11-7.39 17.688-7.39 7.609 0 13.093 5.046 5.5 5.063 7.407 14.688h9.421Q66.22 12.594 57.625 5.344t-20.906-7.25q-14.703 0-23.516 10.11Q4.391 18.311 4.391 36.28q0 17.328 9.203 27.36 9.203 10.047 24.297 10.047 12.5 0 20.265-6.454 7.766-6.437 9.235-17.03z" id="HelveticaWorld-Regular-67"/><path d="M8.11 71.781h31.484q9.281 0 14.797-5.031 5.515-5.031 5.515-13.031 0-4.844-2.422-8.828-2.406-3.97-7.187-6.172 6.687-2.532 9.828-6.735 3.156-4.203 3.156-10.797 0-9.265-6.687-15.234Q49.906 0 38.922 0H8.109zm9.562-63.484h20.703q7.625 0 11.422 3.531 3.812 3.547 3.812 9.563 0 6.093-4.25 9.093Q45.125 33.5 36.812 33.5h-19.14zm0 33.11h17.625q7.719 0 11.312 2.796 3.594 2.813 3.594 8.781 0 5.125-3.406 7.813-3.39 2.687-11.39 2.687H17.671z" id="HelveticaWorld-Regular-66"/><path d="M37.313 0h-9.72v28.906L.485 71.781h11.329l20.609-34.469 20.562 34.47h11.422L37.312 28.905z" id="HelveticaWorld-Regular-89"/></defs><g transform="matrix(.1 0 0 -.1 49.627 335.368)" fill="#888"><use xlink:href="#HelveticaWorld-Regular-71"/><use x="77.1" xlink:href="#HelveticaWorld-Regular-105"/><use x="99.121" xlink:href="#HelveticaWorld-Regular-116"/><use x="126.807" xlink:href="#HelveticaWorld-Regular-72"/><use x="199.805" xlink:href="#HelveticaWorld-Regular-117"/><use x="254.59" xlink:href="#HelveticaWorld-Regular-98"/><use x="311.084" xlink:href="#HelveticaWorld-Regular-32"/><use x="335.498" xlink:href="#HelveticaWorld-Regular-65"/><use x="402.197" xlink:href="#HelveticaWorld-Regular-80"/><use x="466.846" xlink:href="#HelveticaWorld-Regular-73"/><use x="492.627" xlink:href="#HelveticaWorld-Regular-32"/><use x="517.041" xlink:href="#HelveticaWorld-Regular-118"/><use x="566.65" xlink:href="#HelveticaWorld-Regular-105"/><use x="588.672" xlink:href="#HelveticaWorld-Regular-97"/><use x="643.604" xlink:href="#HelveticaWorld-Regular-32"/><use x="668.018" xlink:href="#HelveticaWorld-Regular-104"/><use x="723.193" xlink:href="#HelveticaWorld-Regular-111"/><use x="779.102" xlink:href="#HelveticaWorld-Regular-116"/><use x="806.787" xlink:href="#HelveticaWorld-Regular-119"/><use x="876.824" xlink:href="#HelveticaWorld-Regular-97"/><use x="931.756" xlink:href="#HelveticaWorld-Regular-114"/><use x="963.324" xlink:href="#HelveticaWorld-Regular-101"/><use x="1018.744" xlink:href="#HelveticaWorld-Regular-32"/><use x="1043.158" xlink:href="#HelveticaWorld-Regular-124"/><use x="1069.135" xlink:href="#HelveticaWorld-Regular-32"/><use x="1093.549" xlink:href="#HelveticaWorld-Regular-78"/><use x="1166.645" xlink:href="#HelveticaWorld-Regular-105"/><use x="1188.666" xlink:href="#HelveticaWorld-Regular-99"/><use x="1239.936" xlink:href="#HelveticaWorld-Regular-111"/><use x="1295.844" xlink:href="#HelveticaWorld-Regular-32"/><use x="1320.258" xlink:href="#HelveticaWorld-Regular-83"/><use x="1386.469" xlink:href="#HelveticaWorld-Regular-99"/><use x="1437.738" xlink:href="#HelveticaWorld-Regular-104"/><use x="1492.914" xlink:href="#HelveticaWorld-Regular-108"/><use x="1514.936" xlink:href="#HelveticaWorld-Regular-246"/><use x="1570.844" xlink:href="#HelveticaWorld-Regular-109"/><use x="1653.852" xlink:href="#HelveticaWorld-Regular-101"/><use x="1709.271" xlink:href="#HelveticaWorld-Regular-114"/><use x="1741.84" xlink:href="#HelveticaWorld-Regular-32"/><use x="1766.254" xlink:href="#HelveticaWorld-Regular-124"/><use x="1792.23" xlink:href="#HelveticaWorld-Regular-32"/><use x="1816.645" xlink:href="#HelveticaWorld-Regular-67"/><use x="1888.959" xlink:href="#HelveticaWorld-Regular-67"/><use x="1961.273" xlink:href="#HelveticaWorld-Regular-32"/><use x="1985.688" xlink:href="#HelveticaWorld-Regular-66"/><use x="2048.5" xlink:href="#HelveticaWorld-Regular-89"/></g></g><g id="text_21"><defs><path d="M17.188 45.016V0H8.405v45.016H1.22v7.28h7.187v8.985q0 5.907 3.578 8.703 3.594 2.813 10.032 2.813 2.203 0 3.968-.188v-7.906q-1.562.188-3.578.188-2.922 0-4.078-1.438-1.14-1.437-1.14-4.656v-6.5h8.796v-7.281z" id="HelveticaWorld-Regular-102"/></defs><g transform="matrix(.14 0 0 -.14 162.932 17.25)"><use xlink:href="#HelveticaWorld-Regular-78"/><use x="73.096" xlink:href="#HelveticaWorld-Regular-117"/><use x="127.881" xlink:href="#HelveticaWorld-Regular-109"/><use x="210.889" xlink:href="#HelveticaWorld-Regular-98"/><use x="267.383" xlink:href="#HelveticaWorld-Regular-101"/><use x="322.803" xlink:href="#HelveticaWorld-Regular-114"/><use x="355.371" xlink:href="#HelveticaWorld-Regular-32"/><use x="379.785" xlink:href="#HelveticaWorld-Regular-111"/><use x="435.693" xlink:href="#HelveticaWorld-Regular-102"/><use x="463.379" xlink:href="#HelveticaWorld-Regular-32"/><use x="487.793" xlink:href="#HelveticaWorld-Regular-71"/><use x="564.893" xlink:href="#HelveticaWorld-Regular-105"/><use x="586.914" xlink:href="#HelveticaWorld-Regular-116"/><use x="614.6" xlink:href="#HelveticaWorld-Regular-72"/><use x="687.598" xlink:href="#HelveticaWorld-Regular-117"/><use x="742.383" xlink:href="#HelveticaWorld-Regular-98"/><use x="798.877" xlink:href="#HelveticaWorld-Regular-32"/><use x="823.291" xlink:href="#HelveticaWorld-Regular-115"/><use x="873.291" xlink:href="#HelveticaWorld-Regular-116"/><use x="900.977" xlink:href="#HelveticaWorld-Regular-97"/><use x="955.908" xlink:href="#HelveticaWorld-Regular-114"/><use x="988.477" xlink:href="#HelveticaWorld-Regular-115"/></g></g><path clip-path="url(#pfd2d16ca68)" d="M94.205 298.228l22.994-.188 12.57-.126 1.939-.147 2.81-.545.377-1.09 1.397-1.068 4.707-.817 2.57-.272 1.336-.545 8.694-1.09 3.067-.545 1.606-1.068 2.363-1.09.577-2.158.117-4.338.611-4.316 1.153-2.158.898-1.09 2.83-1.09 4.773-3.247 2.12-1.09 5.66-2.158 1.071-1.09 1.575-.545 2.833-.545 4.489-2.158 3.945-1.068 1.033-1.09 2.56-1.069 1.855-1.09 3.216-1.089 9.17-4.337 1.71-1.09 2.165-1.069 1.747-1.09 2.176-2.178 2.444-2.159 2.172-1.068 1.747-1.09 1.941-1.069 1.59-1.09 5.856-4.337 2.226-1.09 1.569-1.089 1.982-1.069 1.698-1.09 2.89-2.178 2.288-1.069 1.69-1.09 2.45-2.158 3.174-4.337 2.1-1.069 1.85-1.09 1.3-1.068 2.268-1.09 3.22-2.158 7.53-5.406 1.855-1.09 1.544-1.069 2.13-1.09 1.6-1.089 1.806-1.09 3.002-2.158 1.645-2.179 2.132-4.337 1.83-2.159 5.09-4.316 2.068-2.18 3.3-2.158 2.65-2.179 2.343-2.158 1.603-2.18 8.401-8.653 2.89-2.158 1.609-2.18 6.889-6.495 2.702-2.159 2.234-2.158 2.732-2.18 2.37-2.157 1.909-2.159 10.076-8.654 5.105-4.337 3.187-2.158 2.78-2.18 1.385-2.158 2.149-2.18 4.816-6.474 2.132-2.179 2.506-2.158 2.24-2.18 1.52-2.158 2.656-2.179 6.816-6.475 1.539-2.179 1.021-8.675 1.516-17.329 1.682-4.316 2.34-4.338 5.117-8.675 3.29-8.654 2.471-4.337 1.868-4.338 1.597-2.158 1.74-2.158 2.03-2.158 7.152-8.675 1.658-2.18h0" fill="none" stroke="#1f77b4" stroke-linecap="square" stroke-width="1.5" id="line2d_25"/></g></g><defs><clipPath id="pfd2d16ca68"><path d="M49.627 23.249h372v277.2h-372z"/></clipPath></defs></svg>