<svg height="442.88" viewBox="0 0 566.082 332.16" width="754.776" xmlns="http://www.w3.org/2000/svg" xmlns:xlink="http://www.w3.org/1999/xlink"><defs><style>*{stroke-linecap:butt;stroke-linejoin:round}</style></defs><g id="figure_1"><path d="M0 332.16h566.082V0H0z" fill="none" id="patch_1"/><g id="axes_1"><path d="M60.912 289.361h357.12V23.25H60.912z" fill="none" id="patch_2"/><g id="matplotlib.axis_1"><g id="xtick_1"><g id="line2d_1"><defs><path d="M0 0v3.5" id="m9c926939e9" stroke="#969696" stroke-width=".8"/></defs><use x="74.706" xlink:href="#m9c926939e9" y="289.361" fill="#969696" stroke="#969696" stroke-width=".8"/></g><g id="text_1"><defs><path d="M4.39 45.125q0 12.39 6.391 18.781 6.406 6.407 17.938 6.407 9.656 0 15.812-5.86 6.157-5.86 6.157-15.14 0-7.22-3.547-12.188-3.532-4.953-10.422-8.703l-12.11-6.64Q13.922 15.921 12.5 8.296h38.188V0H2.593q.39 9.906 4.297 16.5 3.906 6.594 12.203 11.375l12.593 7.328q5.032 2.89 7.329 5.984 2.297 3.094 2.297 8.516 0 5.375-3.766 9.031-3.75 3.672-10.156 3.672-7.078 0-10.594-4.672-3.516-4.656-3.61-12.609z" id="HelveticaWorld-Regular-50"/><path d="M42.484 34.188q0 14.109-3.734 21.156-3.734 7.062-10.969 7.062-7.078 0-10.89-7.062-3.797-7.047-3.797-21.157 0-13.671 3.75-20.937Q20.609 6 27.78 6q7.235 0 10.969 7 3.734 7.016 3.734 21.188zm9.422 0q0-17.297-6.25-26.704-6.25-9.39-17.875-9.39-12.062 0-18.062 9.734-6 9.75-6 26.36 0 17.03 6.14 26.578 6.157 9.547 17.922 9.547 11.625 0 17.875-9.5t6.25-26.626z" id="HelveticaWorld-Regular-48"/><path d="M35.89 0h-9.374v49.906H10.109v6.985q8.594.28 12.782 2.75Q27.094 62.109 29 70.313h6.89z" id="HelveticaWorld-Regular-49"/></defs><g transform="matrix(.14 0 0 -.14 59.135 306.41)" fill="#969696"><use xlink:href="#HelveticaWorld-Regular-50"/><use x="55.615" xlink:href="#HelveticaWorld-Regular-48"/><use x="111.23" xlink:href="#HelveticaWorld-Regular-49"/><use x="166.846" xlink:href="#HelveticaWorld-Regular-49"/></g></g></g><g id="xtick_2"><use x="111.566" xlink:href="#m9c926939e9" y="289.361" fill="#969696" stroke="#969696" stroke-width=".8" id="line2d_2"/><g transform="matrix(.14 0 0 -.14 95.995 306.41)" fill="#969696" id="text_2"><use xlink:href="#HelveticaWorld-Regular-50"/><use x="55.615" xlink:href="#HelveticaWorld-Regular-48"/><use x="111.23" xlink:href="#HelveticaWorld-Regular-49"/><use x="166.846" xlink:href="#HelveticaWorld-Regular-50"/></g></g><g id="xtick_3"><use x="148.527" xlink:href="#m9c926939e9" y="289.361" fill="#969696" stroke="#969696" stroke-width=".8" id="line2d_3"/><g id="text_3"><defs><path d="M22.406 39.984q2.203-.187 4.594-.187 6.203 0 9.781 2.86 3.594 2.859 3.594 8.656 0 4.687-3.344 7.89-3.343 3.203-9.64 3.203-6.985 0-10.235-4.11-3.234-4.093-3.437-10.983h-8.64q0 10.984 5.765 16.984 5.765 6.016 16.937 6.016 9.922 0 15.828-5.11 5.907-5.094 5.907-13.39 0-10.704-9.032-14.5v-.204q11.72-4 11.72-16.406 0-9.906-6.595-16.265-6.593-6.344-18.703-6.344-9.906 0-16.312 5.203Q4.204 8.5 3.422 21.484H12.5q.203-8.109 4-11.797Q20.313 6 27.484 6q6.938 0 11.141 3.86 4.203 3.859 4.203 9.718 0 6.406-4.016 9.672-4 3.266-12.39 3.266-2 0-4.016-.094z" id="HelveticaWorld-Regular-51"/></defs><g transform="matrix(.14 0 0 -.14 132.956 306.41)" fill="#969696"><use xlink:href="#HelveticaWorld-Regular-50"/><use x="55.615" xlink:href="#HelveticaWorld-Regular-48"/><use x="111.23" xlink:href="#HelveticaWorld-Regular-49"/><use x="166.846" xlink:href="#HelveticaWorld-Regular-51"/></g></g></g><g id="xtick_4"><use x="185.386" xlink:href="#m9c926939e9" y="289.361" fill="#969696" stroke="#969696" stroke-width=".8" id="line2d_4"/><g id="text_4"><defs><path d="M10.594 24.703h22.61v31.89h-.188zM42 17.093V0h-8.797v17.094H2.484v8.593L34.72 70.314H42v-45.61h10.297v-7.61z" id="HelveticaWorld-Regular-52"/></defs><g transform="matrix(.14 0 0 -.14 169.816 306.41)" fill="#969696"><use xlink:href="#HelveticaWorld-Regular-50"/><use x="55.615" xlink:href="#HelveticaWorld-Regular-48"/><use x="111.23" xlink:href="#HelveticaWorld-Regular-49"/><use x="166.846" xlink:href="#HelveticaWorld-Regular-52"/></g></g></g><g id="xtick_5"><use x="222.246" xlink:href="#m9c926939e9" y="289.361" fill="#969696" stroke="#969696" stroke-width=".8" id="line2d_5"/><g id="text_5"><defs><path d="M14.703 40.922q5.813 4.39 13.625 4.39 9.469 0 16.281-6.296 6.813-6.297 6.813-16.22 0-10.78-6.578-17.796-6.563-7-18.422-7-10.313 0-16.266 5.047Q4.203 8.109 3.22 17.39h9.094q.671-5.672 4.437-8.672 3.766-3 10.453-3 6.485 0 10.64 4.484Q42 14.703 42 21.688q0 7.125-4.36 11.421-4.343 4.297-11.218 4.297-7.813 0-13.047-6.687l-7.563.39 5.266 37.594h36.438v-8.5H17.672z" id="HelveticaWorld-Regular-53"/></defs><g transform="matrix(.14 0 0 -.14 206.676 306.41)" fill="#969696"><use xlink:href="#HelveticaWorld-Regular-50"/><use x="55.615" xlink:href="#HelveticaWorld-Regular-48"/><use x="111.23" xlink:href="#HelveticaWorld-Regular-49"/><use x="166.846" xlink:href="#HelveticaWorld-Regular-53"/></g></g></g><g id="xtick_6"><use x="259.106" xlink:href="#m9c926939e9" y="289.361" fill="#969696" stroke="#969696" stroke-width=".8" id="line2d_6"/><g id="text_6"><defs><path d="M14.11 21.578q0-6.875 4.093-11.234Q22.313 6 28.906 6q6.297 0 10.032 4.438 3.734 4.453 3.734 11.687 0 6.297-3.688 10.547-3.687 4.25-10.468 4.25-6.594 0-10.5-4.156-3.907-4.157-3.907-11.188zM41.702 51.61q-.984 5.375-3.984 8.078-3 2.72-8.125 2.72-8.11 0-12.36-7.923-4.25-7.906-4.343-18.109l.203-.188q5.61 8.641 16.687 8.641 8.844 0 15.438-5.86 6.593-5.859 6.593-16.452 0-10.5-6.25-17.47-6.25-6.952-16.843-6.952-12.219 0-18.563 8.687-6.344 8.703-6.344 25.938 0 16.593 6.485 27.093 6.5 10.5 19.484 10.5 8.407 0 14.219-5.015 5.813-5 6.297-13.688z" id="HelveticaWorld-Regular-54"/></defs><g transform="matrix(.14 0 0 -.14 243.535 306.41)" fill="#969696"><use xlink:href="#HelveticaWorld-Regular-50"/><use x="55.615" xlink:href="#HelveticaWorld-Regular-48"/><use x="111.23" xlink:href="#HelveticaWorld-Regular-49"/><use x="166.846" xlink:href="#HelveticaWorld-Regular-54"/></g></g></g><g id="xtick_7"><use x="296.067" xlink:href="#m9c926939e9" y="289.361" fill="#969696" stroke="#969696" stroke-width=".8" id="line2d_7"/><g id="text_7"><defs><path d="M3.719 68.797h48.578v-7.719Q42.28 50.875 33.984 33.484 25.687 16.11 23.391 0h-9.672q1.469 13.281 9.719 30.531 8.25 17.266 18.953 29.672H3.719z" id="HelveticaWorld-Regular-55"/></defs><g transform="matrix(.14 0 0 -.14 280.496 306.41)" fill="#969696"><use xlink:href="#HelveticaWorld-Regular-50"/><use x="55.615" xlink:href="#HelveticaWorld-Regular-48"/><use x="111.23" xlink:href="#HelveticaWorld-Regular-49"/><use x="166.846" xlink:href="#HelveticaWorld-Regular-55"/></g></g></g><g id="xtick_8"><use x="332.927" xlink:href="#m9c926939e9" y="289.361" fill="#969696" stroke="#969696" stroke-width=".8" id="line2d_8"/><g id="text_8"><defs><path d="M27.594 40.578q5.422 0 8.953 3.094 3.547 3.11 3.547 8.234 0 4.594-3.407 7.547-3.39 2.953-9.687 2.953-5.61 0-8.672-3.11-3.047-3.093-3.047-7.874 0-5.125 3.813-7.984 3.812-2.86 8.5-2.86zm.093-7.562q-6.78 0-10.64-3.766-3.86-3.766-3.86-9.234 0-6.297 3.907-10.157Q21 6 28.219 6q6.406 0 10.234 3.86 3.828 3.859 3.828 10.265 0 5.469-3.828 9.172-3.828 3.719-10.766 3.719zM49.22 52.203q0-10.594-9.032-14.797 6.204-2.781 8.86-7.36 2.656-4.562 2.656-9.733 0-10.016-6.453-16.125-6.438-6.094-17.375-6.094-9.563 0-16.813 5.25-7.25 5.25-7.25 17.062 0 11.922 11.907 16.907-9.516 3.796-9.516 13.671 0 8.297 5.64 13.813 5.641 5.516 15.641 5.516 10.016 0 15.875-5.204 5.86-5.203 5.86-12.906z" id="HelveticaWorld-Regular-56"/></defs><g transform="matrix(.14 0 0 -.14 317.356 306.41)" fill="#969696"><use xlink:href="#HelveticaWorld-Regular-50"/><use x="55.615" xlink:href="#HelveticaWorld-Regular-48"/><use x="111.23" xlink:href="#HelveticaWorld-Regular-49"/><use x="166.846" xlink:href="#HelveticaWorld-Regular-56"/></g></g></g><g id="xtick_9"><use x="369.786" xlink:href="#m9c926939e9" y="289.361" fill="#969696" stroke="#969696" stroke-width=".8" id="line2d_9"/><g id="text_9"><defs><path d="M27.594 31.39q6 0 9.75 4.047 3.765 4.063 3.765 11.97 0 6.5-3.562 10.75-3.563 4.25-10.64 4.25-6.11 0-9.876-4.298-3.75-4.297-3.75-11.53 0-7.376 3.516-11.282 3.515-3.906 10.797-3.906zm-1.282-7.906q-10 0-16.062 6.203-6.047 6.204-6.047 16.5 0 10.407 6.094 17.266 6.11 6.86 16.515 6.86 12.11 0 18.36-8.157 6.25-8.156 6.25-24.453 0-16.906-6.406-28.266Q38.625-1.905 25.875-1.905q-9.953 0-15.422 5.593-5.469 5.594-5.469 13.204h8.829q.39-5.266 3.437-8.375 3.063-3.094 8.438-3.094 7.609 0 11.515 6.781Q41.11 19 42.578 31.688l-.187.203q-5.672-8.407-16.078-8.407z" id="HelveticaWorld-Regular-57"/></defs><g transform="matrix(.14 0 0 -.14 354.216 306.41)" fill="#969696"><use xlink:href="#HelveticaWorld-Regular-50"/><use x="55.615" xlink:href="#HelveticaWorld-Regular-48"/><use x="111.23" xlink:href="#HelveticaWorld-Regular-49"/><use x="166.846" xlink:href="#HelveticaWorld-Regular-57"/></g></g></g><g id="xtick_10"><use x="406.646" xlink:href="#m9c926939e9" y="289.361" fill="#969696" stroke="#969696" stroke-width=".8" id="line2d_10"/><g transform="matrix(.14 0 0 -.14 391.076 306.41)" fill="#969696" id="text_10"><use xlink:href="#HelveticaWorld-Regular-50"/><use x="55.615" xlink:href="#HelveticaWorld-Regular-48"/><use x="111.23" xlink:href="#HelveticaWorld-Regular-50"/><use x="166.846" xlink:href="#HelveticaWorld-Regular-48"/></g></g></g><g id="matplotlib.axis_2"><g id="ytick_1"><path clip-path="url(#p33a910231e)" d="M60.912 252.272h357.12" fill="none" stroke="#969696" stroke-linecap="square" stroke-width=".2" id="line2d_11"/><g transform="matrix(.14 0 0 -.14 14.985 257.297)" fill="#969696" id="text_11"><use xlink:href="#HelveticaWorld-Regular-50"/><use x="55.615" xlink:href="#HelveticaWorld-Regular-48"/><use x="111.23" xlink:href="#HelveticaWorld-Regular-48"/><use x="166.846" xlink:href="#HelveticaWorld-Regular-48"/><use x="222.461" xlink:href="#HelveticaWorld-Regular-48"/></g></g><g id="ytick_2"><path clip-path="url(#p33a910231e)" d="M60.912 215.181h357.12" fill="none" stroke="#969696" stroke-linecap="square" stroke-width=".2" id="line2d_12"/><g transform="matrix(.14 0 0 -.14 14.985 220.206)" fill="#969696" id="text_12"><use xlink:href="#HelveticaWorld-Regular-52"/><use x="55.615" xlink:href="#HelveticaWorld-Regular-48"/><use x="111.23" xlink:href="#HelveticaWorld-Regular-48"/><use x="166.846" xlink:href="#HelveticaWorld-Regular-48"/><use x="222.461" xlink:href="#HelveticaWorld-Regular-48"/></g></g><g id="ytick_3"><path clip-path="url(#p33a910231e)" d="M60.912 178.09h357.12" fill="none" stroke="#969696" stroke-linecap="square" stroke-width=".2" id="line2d_13"/><g transform="matrix(.14 0 0 -.14 14.985 183.115)" fill="#969696" id="text_13"><use xlink:href="#HelveticaWorld-Regular-54"/><use x="55.615" xlink:href="#HelveticaWorld-Regular-48"/><use x="111.23" xlink:href="#HelveticaWorld-Regular-48"/><use x="166.846" xlink:href="#HelveticaWorld-Regular-48"/><use x="222.461" xlink:href="#HelveticaWorld-Regular-48"/></g></g><g id="ytick_4"><path clip-path="url(#p33a910231e)" d="M60.912 140.999h357.12" fill="none" stroke="#969696" stroke-linecap="square" stroke-width=".2" id="line2d_14"/><g transform="matrix(.14 0 0 -.14 14.985 146.023)" fill="#969696" id="text_14"><use xlink:href="#HelveticaWorld-Regular-56"/><use x="55.615" xlink:href="#HelveticaWorld-Regular-48"/><use x="111.23" xlink:href="#HelveticaWorld-Regular-48"/><use x="166.846" xlink:href="#HelveticaWorld-Regular-48"/><use x="222.461" xlink:href="#HelveticaWorld-Regular-48"/></g></g><g id="ytick_5"><path clip-path="url(#p33a910231e)" d="M60.912 103.908h357.12" fill="none" stroke="#969696" stroke-linecap="square" stroke-width=".2" id="line2d_15"/><g transform="matrix(.14 0 0 -.14 7.2 108.932)" fill="#969696" id="text_15"><use xlink:href="#HelveticaWorld-Regular-49"/><use x="55.615" xlink:href="#HelveticaWorld-Regular-48"/><use x="111.23" xlink:href="#HelveticaWorld-Regular-48"/><use x="166.846" xlink:href="#HelveticaWorld-Regular-48"/><use x="222.461" xlink:href="#HelveticaWorld-Regular-48"/><use x="278.076" xlink:href="#HelveticaWorld-Regular-48"/></g></g><g id="ytick_6"><path clip-path="url(#p33a910231e)" d="M60.912 66.817h357.12" fill="none" stroke="#969696" stroke-linecap="square" stroke-width=".2" id="line2d_16"/><g transform="matrix(.14 0 0 -.14 7.2 71.841)" fill="#969696" id="text_16"><use xlink:href="#HelveticaWorld-Regular-49"/><use x="55.615" xlink:href="#HelveticaWorld-Regular-50"/><use x="111.23" xlink:href="#HelveticaWorld-Regular-48"/><use x="166.846" xlink:href="#HelveticaWorld-Regular-48"/><use x="222.461" xlink:href="#HelveticaWorld-Regular-48"/><use x="278.076" xlink:href="#HelveticaWorld-Regular-48"/></g></g><g id="ytick_7"><path clip-path="url(#p33a910231e)" d="M60.912 29.725h357.12" fill="none" stroke="#969696" stroke-linecap="square" stroke-width=".2" id="line2d_17"/><g transform="matrix(.14 0 0 -.14 7.2 34.75)" fill="#969696" id="text_17"><use xlink:href="#HelveticaWorld-Regular-49"/><use x="55.615" xlink:href="#HelveticaWorld-Regular-52"/><use x="111.23" xlink:href="#HelveticaWorld-Regular-48"/><use x="166.846" xlink:href="#HelveticaWorld-Regular-48"/><use x="222.461" xlink:href="#HelveticaWorld-Regular-48"/><use x="278.076" xlink:href="#HelveticaWorld-Regular-48"/></g></g></g><path clip-path="url(#p33a910231e)" d="M253.81 289.361l.58-18.543 1.717-4.637 2.065-2.318 1.643-1.159 1.485-1.16 1.692-2.317 2.902-2.318 2.577-2.319 1.677-2.318 2.22-2.318 1.107-2.318 1.867-2.318 2.18-2.319 2.253-2.318 2.317-2.318 2.226-2.318 1.88-2.318 1.656-2.319 1.405-2.318 1.596-2.318 1.596-2.318 2.518-4.637 2.795-4.636L418.03 23.249" fill="none" stroke="#1f77b4" stroke-linecap="square" stroke-width="1.5" id="line2d_18"/><path clip-path="url(#p33a910231e)" d="M230.937 289.361l2.712-1.157 1.885-1.159.337-.579 1.08-.289 2.413-.291 2.792-.29 2.047-.289 1.953-.289 2.285-.291 2.801-.29 2.198-.289 2.908-.58 1.507-.29 1.836-.289 2.423-.58 2.241-.579 2.342-.58 2.949-1.16 1.555-.578 1.942-.58 2.027-.58 2.763-.58 1.899-.578 1.71-.58 1.647-.58 2.01-.58 1.607-.579 1.425-.58 2.782-1.16 2.84-1.158 2.718-1.16 1.807-1.158 2.381-1.16 2.876-2.318 1.74-1.159 1.778-1.159 2.221-1.159 2.063-1.16 2.015-1.158 1.938-1.16 1.762-1.158 2.108-1.16 2.254-1.159 2.27-1.159 1.899-1.159 1.677-1.159 1.5-1.159 1.564-1.16 1.412-1.158 1.838-1.16 2.853-2.317 2.9-2.319 2.457-2.318 1.577-1.159 1.7-1.159 1.698-1.16 1.71-1.158 1.56-1.16 1.9-1.158 1.93-1.16 1.908-1.159 2.029-1.159 2.09-1.159 2.021-1.159 1.982-1.159 1.806-1.16 1.83-1.158 1.813-1.16 1.987-1.158 2.23-1.16 2.12-1.159 1.859-1.159 1.71-1.159 1.722-1.159 1.786-1.159 35.177-14.588" fill="none" stroke="#ff7f0e" stroke-linecap="square" stroke-width="1.5" id="line2d_19"/><path clip-path="url(#p33a910231e)" d="M60.912 288.71l10.27-.144 29.696-.397 16.796-.217 33.19-.212 4.724-.114 19.637-1.015 24.365-2.173 6.804-.87 16.022-2.027 1.48-.291 8.08-1.16 2.368-.578 8.413-1.74 4.16-.868 4.457-.87 5.005-1.159 1.915-.58 2.36-.579 1.485-.58 2.676-.579 4.052-1.159 3.106-1.159 3.914-1.159 8.535-2.318 9.131-3.478 8.432-2.898 6.623-2.897 3.37-1.16 4.419-1.739 2.737-1.159 5.8-2.318 1.848-1.16 4.68-2.317 8.015-4.637 2.044-1.159 2.339-1.159 6.9-2.897 6.372-2.318 20.495-7.535 7.11-2.897 5.475-1.74 1.632-.578 7.642-2.318 3.503-1.16 1.506-.58 8.16-2.318 3.667-1.159h0" fill="none" stroke="#2ca02c" stroke-linecap="square" stroke-width="1.5" id="line2d_20"/><path clip-path="url(#p33a910231e)" d="M282.108 289.361l.05-.003.847-.002 2.964-.002 2.596-.004 1.524-.005 1.641-.008.89-.003 2.238-.006 3-.035.002-.069.003-.137.01-.275.022-.55.054-1.1.678-2.2 2.285-1.1 2.918-1.1 1.933-.548 1.737-.55 1.248-.55 1.896-.55 2.046-.55 2.62-.55 2.861-1.1 2.743-1.1 2.728-1.1 1.921-1.1 2-1.1 1.854-1.099 1.75-1.102 1.887-1.1 1.695-1.099 1.569-1.1 2.616-1.1 2.386-1.1 1.52-1.099 2.795-2.2 1.535-1.1 1.989-1.099 2.496-1.1 2.535-1.1 2.309-1.1 2.31-1.099 2.868-2.201 1.43-1.1 1.633-1.1 2.679-2.2 2.68-2.199 1.717-1.1 1.854-1.1 1.822-1.1 1.53-1.099 1.613-1.1 1.616-1.1 1.581-1.1 1.496-1.099 1.778-1.1 1.801-1.101 2.092-1.1 1.827-1.1 1.9-1.1 2.06-1.1 2.222-1.099 1.646-1.1 1.192-1.1 1.986-1.101 1.929-1.1 1.705-1.1 2.385-1.1 2.468-1.1 2.029-1.099 1.705-1.1 2.151-1.1 1.824-1.101" fill="none" stroke="#d62728" stroke-linecap="square" stroke-width="1.5" id="line2d_21"/><path clip-path="url(#p33a910231e)" d="M182.75 289.361l.543-.107.967-.054 2.25-.028 1.294-.028 2.121-.053.967-.056 2.89-.11 1.768-.109 2.177-.11 2.59-.109 2.388-.11 2.017-.107 1.312-.11 2.638-.218 2.016-.219 1.171-.219 1.656-.217 1.64-.218 1.965-.22 1.269-.218 2.961-.436 2.439-.438 2.394-.435 2.813-.438 1.552-.436 2.227-.438 2.192-.435 2.23-.438 1.887-.436 1.569-.438 2.533-1.747 1.86-.435 1.85-.438 2.027-.436 1.893-.438 1.66-.435 1.437-.438 2.51-.874 1.776-.435 1.417-.438 1.473-.436 1.601-.438 2.042-.435 1.167-.438 2.188-.874 2.542-.873 2.866-.874 2.858-.873 2.982-.874 2.416-.873 2.717-.874 2.475-.873 1.895-.874 2.446-.873 1.854-.874 2.196-.873 2.28-.873 2.147-.874 2.305-.875 2.415-.874 2.379-.873 2.178-.874 2.415-.873 2.225-.874 2.7-.873 2.42-.874 2.785-.873 2.834-.874 2.553-.873 2.675-.874 2.602-.873 2.548-.874 2.934-.873 2.99-.874 2.87-.873 1.601-.436 1.521-.438 1.892-.436 1.728-.437 1.908-.436 2.01-.438 2.174-.436 1.765-.437 1.945-.436 2.162-.438 1.986-.436 2.012-.437 1.958-.436 2.285-.438 2.004-.436 2.807-.437 2.448-.874 1.842-.436 1.998-.437 2.172-.436 2.406-.438 2.629-.436 2.467-.437 2.45-.436 2.794-.438 1.536-.217 1.52-.219 1.735-.218 1.533-.22 3.026-.435 2.305-.219 2.515-.219 1.723-.219 1.82-.218 1.64-.22 2.126-.218" fill="none" stroke="#9467bd" stroke-linecap="square" stroke-width="1.5" id="line2d_22"/><path clip-path="url(#p33a910231e)" d="M97.04 289.165l3.605-.045 65.213-.22 18.58-.264 17.382-.332 14.875-.395 26.463-1.454 4.35-.397 7.019-.662 7.22-.793 4.671-.529 3.31-.529 3.428-.528 10.34-1.057 10.09-1.322 21.216-2.643 16.72-1.588 9.391-1.188 10.464-.663 4.936-.196 37.158-1.256 13.419-.398 11.08-.266h0" fill="none" stroke="#8c564b" stroke-linecap="square" stroke-width="1.5" id="line2d_23"/><g id="text_18"><defs><path d="M17.188 45.016V10.984q0-2 1.093-3.046 1.11-1.047 3.938-1.047h3.375V0Q20.797-.688 19-.688q-5.516 0-8.063 2.641-2.53 2.64-2.53 8.547v34.516H1.311v7.28h7.094v14.595h8.781V52.297h8.407v-7.281z" id="HelveticaWorld-Regular-116"/><path d="M42.484 30.328q-.687 8.485-4.5 12.031-3.797 3.547-10.109 3.547-6.39 0-10.328-4.5-3.922-4.484-4.172-11.078zm8.391-13.922q-1.453-8.11-7.953-13.422-5.719-4.5-15.047-4.593-10.984.093-17.438 7.203Q4 12.704 4 24.704q0 13.78 6.64 21.437 6.641 7.672 18.47 7.672 10.593 0 16.546-7.922 5.953-7.907 5.953-22.594H13.375q0-8.203 3.813-12.703Q21 6.109 28.608 6.109q5.375 0 9.235 3.235 3.86 3.25 4.25 7.062z" id="HelveticaWorld-Regular-101"/><path d="M49.219 0h-8.844v32.172q0 7.422-2.594 10.578-2.578 3.156-8.578 3.156-5.906 0-9.875-4.5-3.953-4.484-3.953-12.89V0H6.594v52.297h8.297v-7.375h.203q6.203 8.89 15.812 8.89 8.89 0 13.594-4.718 4.719-4.703 4.719-13.5z" id="HelveticaWorld-Regular-110"/><path d="M36.078 37.406q-.187 4.688-3.344 6.735-3.14 2.047-9.047 2.047-4.296 0-7.359-1.907-3.047-1.89-3.047-5.468 0-2.829 1.797-4.172 1.813-1.344 7.828-2.86l8.688-2.187q7.906-2 11.297-5.11 3.406-3.093 3.406-8.656 0-7.719-5.64-12.531-5.641-4.813-15.063-4.813-11 0-16.64 4.563-5.626 4.578-5.735 13.75h8.5q.203-5.422 3.594-8.063 3.39-2.625 10.171-2.625 5.516 0 8.766 2.188 3.25 2.203 3.25 6.11 0 2.78-2.11 4.437-2.093 1.672-8.296 3.078l-10.203 2.5q-6.203 1.562-9.157 4.656-2.953 3.094-2.953 8.031 0 7.72 5.516 12.203 5.531 4.5 14.406 4.5 9.485 0 14.531-4.624 5.047-4.61 5.344-11.782z" id="HelveticaWorld-Regular-115"/><path d="M12.703 26.219q0-8.735 3.953-14.375 3.953-5.64 11.219-5.64 7.531 0 11.438 5.905 3.906 5.907 3.906 14.11 0 8.297-3.907 14.078-3.906 5.797-11.437 5.797-6.969 0-11.078-5.453-4.094-5.438-4.094-14.422zm-8.984 0q0 11.672 6.484 19.625 6.5 7.968 17.672 7.968 11.438 0 17.875-8.062 6.453-8.047 6.453-19.531 0-11.516-6.406-19.625-6.39-8.11-17.922-8.11-11.078 0-17.625 7.86-6.531 7.86-6.531 19.875z" id="HelveticaWorld-Regular-111"/><path d="M15.375 0H6.594v52.297h8.297v-8.688h.203q5.703 10.203 14.687 10.203 1.422 0 2.297-.296V44.39h-3.266q-5.906 0-9.671-4.016-3.766-4-3.766-9.953z" id="HelveticaWorld-Regular-114"/><path d="M17.188 45.016V0H8.405v45.016H1.22v7.28h7.187v8.985q0 5.907 3.578 8.703 3.594 2.813 10.032 2.813 2.203 0 3.968-.188v-7.906q-1.562.188-3.578.188-2.922 0-4.078-1.438-1.14-1.437-1.14-4.656v-6.5h8.796v-7.281z" id="HelveticaWorld-Regular-102"/><path d="M15.375 0H6.594v71.781h8.781z" id="HelveticaWorld-Regular-108"/><path d="M25.594 0h-8.985L1.516 52.297h9.468L21 11.187h.188l10.109 41.11h9.922l10.203-41.11h.187l10.594 41.11h8.703L55.812 0h-9.234L35.984 40.484h-.187z" id="HelveticaWorld-Regular-119"/><path d="M4.984-1.906h-6.687l24.61 75.594H29.5z" id="HelveticaWorld-Regular-47"/></defs><g transform="matrix(.14 0 0 -.14 421.603 26.825)" fill="#1f77b4"><use xlink:href="#HelveticaWorld-Regular-116"/><use x="27.686" xlink:href="#HelveticaWorld-Regular-101"/><use x="83.105" xlink:href="#HelveticaWorld-Regular-110"/><use x="138.281" xlink:href="#HelveticaWorld-Regular-115"/><use x="188.281" xlink:href="#HelveticaWorld-Regular-111"/><use x="244.189" xlink:href="#HelveticaWorld-Regular-114"/><use x="278.258" xlink:href="#HelveticaWorld-Regular-102"/><use x="305.943" xlink:href="#HelveticaWorld-Regular-108"/><use x="327.965" xlink:href="#HelveticaWorld-Regular-111"/><use x="382.373" xlink:href="#HelveticaWorld-Regular-119"/><use x="454.785" xlink:href="#HelveticaWorld-Regular-47"/><use x="482.568" xlink:href="#HelveticaWorld-Regular-116"/><use x="510.254" xlink:href="#HelveticaWorld-Regular-101"/><use x="565.674" xlink:href="#HelveticaWorld-Regular-110"/><use x="620.85" xlink:href="#HelveticaWorld-Regular-115"/><use x="670.85" xlink:href="#HelveticaWorld-Regular-111"/><use x="726.758" xlink:href="#HelveticaWorld-Regular-114"/><use x="760.826" xlink:href="#HelveticaWorld-Regular-102"/><use x="788.512" xlink:href="#HelveticaWorld-Regular-108"/><use x="810.533" xlink:href="#HelveticaWorld-Regular-111"/><use x="864.941" xlink:href="#HelveticaWorld-Regular-119"/></g></g><g id="text_19"><defs><path d="M50 0H38.719L22.406 26.422l-7.312-6.594V0h-8.5v71.781h8.5v-41.61l22.5 22.126H48.78L28.813 32.813z" id="HelveticaWorld-Regular-107"/><path d="M38.375 26.703q-.969-1.015-3.828-1.656-2.86-.625-10.672-1.656-5.766-.688-8.469-2.844-2.703-2.14-2.703-5.656 0-4.297 2.281-6.688 2.297-2.39 7.329-2.39 6.296 0 11.171 3.578 4.891 3.593 4.891 8.718zM6.203 36.375q.297 8.844 5.734 13.14 5.454 4.297 15.844 4.297 8.297 0 13.907-3.765 5.624-3.75 5.624-10.844V9.078Q47.313 6 50.094 6q1.125 0 2.89.39V0Q50.594-.984 48-.984q-4.5 0-6.703 1.921-2.188 1.938-2.281 6.047-7.516-8.5-18.891-8.5-7.422 0-11.922 4.204Q3.72 6.89 3.72 13.624q0 6.89 3.906 11.125Q11.531 29 19 29.89l15.516 1.891q4.203.64 4.203 6.203 0 4.11-3.047 6.297-3.047 2.203-9.25 2.203-5.516 0-8.485-2.437-2.953-2.438-3.53-7.672z" id="HelveticaWorld-Regular-97"/><path d="M28.906 23.188H4.391v8.984h24.515z" id="HelveticaWorld-Regular-45"/><path d="M6.594 52.297h8.297v-7.375h.203q5.906 8.89 15.812 8.89 9.813 0 13.922-8.5 3.75 4.594 7.266 6.547 3.515 1.953 8.703 1.953 6.781 0 11.484-4.453Q77 44.922 77 36.187V0h-8.781v33.797q0 6.094-2.297 9.094-2.297 3.015-7.422 3.015-5.172 0-8.75-4.203-3.563-4.203-3.563-9.812V0h-8.78v36.188q0 4.53-2.11 7.124-2.094 2.594-6.094 2.594-6.297 0-10.062-4.687-3.766-4.688-3.766-12.703V0H6.594z" id="HelveticaWorld-Regular-109"/></defs><g transform="matrix(.14 0 0 -.14 421.603 198.574)" fill="#ff7f0e"><use xlink:href="#HelveticaWorld-Regular-107"/><use x="47.625" xlink:href="#HelveticaWorld-Regular-101"/><use x="103.045" xlink:href="#HelveticaWorld-Regular-114"/><use x="134.613" xlink:href="#HelveticaWorld-Regular-97"/><use x="189.545" xlink:href="#HelveticaWorld-Regular-115"/><use x="239.545" xlink:href="#HelveticaWorld-Regular-45"/><use x="272.846" xlink:href="#HelveticaWorld-Regular-116"/><use x="300.531" xlink:href="#HelveticaWorld-Regular-101"/><use x="355.951" xlink:href="#HelveticaWorld-Regular-97"/><use x="410.883" xlink:href="#HelveticaWorld-Regular-109"/><use x="493.891" xlink:href="#HelveticaWorld-Regular-47"/><use x="521.674" xlink:href="#HelveticaWorld-Regular-107"/><use x="569.299" xlink:href="#HelveticaWorld-Regular-101"/><use x="624.719" xlink:href="#HelveticaWorld-Regular-114"/><use x="656.287" xlink:href="#HelveticaWorld-Regular-97"/><use x="711.219" xlink:href="#HelveticaWorld-Regular-115"/></g></g><g id="text_20"><defs><path d="M39.594 34.719q-1.89 11.187-12.39 11.187-6.5 0-10.454-5.203-3.953-5.203-3.953-14.484 0-10.11 3.656-15.11 3.672-5 10.64-5 4.688 0 8.11 3.438 3.422 3.437 4.39 8.953h8.5q-1.312-9.703-6.859-14.86-5.547-5.156-14.328-5.156-10.297 0-16.89 7.047-6.594 7.063-6.594 19.172 0 13.281 6.594 21.188 6.593 7.922 18.5 7.922 8.687 0 13.843-5.204 5.157-5.203 5.735-13.89z" id="HelveticaWorld-Regular-99"/><path d="M6.594 61.813v9.968h8.781v-9.969zM15.375 0H6.594v52.297h8.781z" id="HelveticaWorld-Regular-105"/></defs><g transform="matrix(.14 0 0 -.14 421.603 213.274)" fill="#2ca02c"><use xlink:href="#HelveticaWorld-Regular-115"/><use x="50" xlink:href="#HelveticaWorld-Regular-99"/><use x="101.27" xlink:href="#HelveticaWorld-Regular-105"/><use x="123.291" xlink:href="#HelveticaWorld-Regular-107"/><use x="173.291" xlink:href="#HelveticaWorld-Regular-105"/><use x="195.313" xlink:href="#HelveticaWorld-Regular-116"/><use x="222.998" xlink:href="#HelveticaWorld-Regular-45"/><use x="256.299" xlink:href="#HelveticaWorld-Regular-108"/><use x="278.32" xlink:href="#HelveticaWorld-Regular-101"/><use x="333.74" xlink:href="#HelveticaWorld-Regular-97"/><use x="388.672" xlink:href="#HelveticaWorld-Regular-114"/><use x="421.24" xlink:href="#HelveticaWorld-Regular-110"/><use x="476.416" xlink:href="#HelveticaWorld-Regular-47"/><use x="504.199" xlink:href="#HelveticaWorld-Regular-115"/><use x="554.199" xlink:href="#HelveticaWorld-Regular-99"/><use x="605.469" xlink:href="#HelveticaWorld-Regular-105"/><use x="627.49" xlink:href="#HelveticaWorld-Regular-107"/><use x="677.49" xlink:href="#HelveticaWorld-Regular-105"/><use x="699.512" xlink:href="#HelveticaWorld-Regular-116"/><use x="727.197" xlink:href="#HelveticaWorld-Regular-45"/><use x="760.498" xlink:href="#HelveticaWorld-Regular-108"/><use x="782.52" xlink:href="#HelveticaWorld-Regular-101"/><use x="837.939" xlink:href="#HelveticaWorld-Regular-97"/><use x="892.871" xlink:href="#HelveticaWorld-Regular-114"/><use x="925.439" xlink:href="#HelveticaWorld-Regular-110"/></g></g><g id="text_21"><defs><path d="M14.984 23.688q0-8.407 4.094-13 4.11-4.579 10.219-4.579 6.687 0 10.39 5.438 3.72 5.453 3.72 14.765 0 10.22-3.563 14.907-3.563 4.687-10.735 4.687-6.984 0-10.562-5.5-3.563-5.5-3.563-16.718zm-8.39 28.609h8.297v-7.375h.203q5.61 8.89 15.625 8.89 10.11 0 15.937-7.359 5.828-7.344 5.828-18.766 0-12.796-5.953-21Q40.578-1.515 29.5-1.515q-9.094 0-13.922 7.032h-.203v-26.22H6.594z" id="HelveticaWorld-Regular-112"/><path d="M39.016 52.297h9.562L29.891.984q-.5-1.375-.985-2.593-4.25-11.329-7.328-15.547-3.078-4.235-9.953-4.235-3.61 0-5.906.782v8.015q2.484-.89 5.468-.89 3.22 0 4.704 2.03 1.5 2.032 4.421 9.938L.875 52.297h9.922L24.812 9.719H25z" id="HelveticaWorld-Regular-121"/><path d="M49.219 0h-8.844v34.188q0 6.296-2.438 9-2.437 2.718-7.953 2.718-6.797 0-10.703-4.406-3.906-4.39-3.906-12.984V0H6.594v71.781h8.781V45.312h.203q6 8.5 15.328 8.5 8.594 0 13.453-4.5 4.86-4.484 4.86-13.718z" id="HelveticaWorld-Regular-104"/></defs><g transform="matrix(.14 0 0 -.14 421.603 228.06)" fill="#d62728"><use xlink:href="#HelveticaWorld-Regular-112"/><use x="54.494" xlink:href="#HelveticaWorld-Regular-121"/><use x="105.104" xlink:href="#HelveticaWorld-Regular-116"/><use x="132.789" xlink:href="#HelveticaWorld-Regular-111"/><use x="188.697" xlink:href="#HelveticaWorld-Regular-114"/><use x="220.266" xlink:href="#HelveticaWorld-Regular-99"/><use x="271.535" xlink:href="#HelveticaWorld-Regular-104"/><use x="326.711" xlink:href="#HelveticaWorld-Regular-47"/><use x="354.494" xlink:href="#HelveticaWorld-Regular-112"/><use x="408.988" xlink:href="#HelveticaWorld-Regular-121"/><use x="459.598" xlink:href="#HelveticaWorld-Regular-116"/><use x="487.283" xlink:href="#HelveticaWorld-Regular-111"/><use x="543.191" xlink:href="#HelveticaWorld-Regular-114"/><use x="574.76" xlink:href="#HelveticaWorld-Regular-99"/><use x="626.029" xlink:href="#HelveticaWorld-Regular-104"/></g></g><g id="text_22"><defs><path d="M8.11 71.781h31.484q9.281 0 14.797-5.031 5.515-5.031 5.515-13.031 0-4.844-2.422-8.828-2.406-3.97-7.187-6.172 6.687-2.532 9.828-6.735 3.156-4.203 3.156-10.797 0-9.265-6.687-15.234Q49.906 0 38.922 0H8.109zm9.562-63.484h20.703q7.625 0 11.422 3.531 3.812 3.547 3.812 9.563 0 6.093-4.25 9.093Q45.125 33.5 36.812 33.5h-19.14zm0 33.11h17.625q7.719 0 11.312 2.796 3.594 2.813 3.594 8.781 0 5.125-3.406 7.813-3.39 2.687-11.39 2.687H17.671z" id="HelveticaWorld-Regular-66"/><path d="M53.328 71.781h10.875L37.891 0H27.688L1.515 71.781h10.796l20.5-61.187h.204z" id="HelveticaWorld-Regular-86"/><path d="M17.672 8.594h36.531V0H8.11v71.781h9.563z" id="HelveticaWorld-Regular-76"/><path d="M58.016 50.203q-1.625 7.313-6.782 11.094-5.14 3.797-13.343 3.797-10.594 0-17.047-7.703-6.438-7.688-6.438-20.766 0-15.14 6.094-22.547 6.11-7.39 17.688-7.39 7.609 0 13.093 5.046 5.5 5.063 7.407 14.688h9.421Q66.22 12.594 57.625 5.344t-20.906-7.25q-14.703 0-23.516 10.11Q4.391 18.311 4.391 36.28q0 17.328 9.203 27.36 9.203 10.047 24.297 10.047 12.5 0 20.265-6.454 7.766-6.437 9.235-17.03z" id="HelveticaWorld-Regular-67"/></defs><g transform="matrix(.14 0 0 -.14 421.603 242.674)" fill="#9467bd"><use xlink:href="#HelveticaWorld-Regular-66"/><use x="62.813" xlink:href="#HelveticaWorld-Regular-86"/><use x="128.389" xlink:href="#HelveticaWorld-Regular-76"/><use x="182.504" xlink:href="#HelveticaWorld-Regular-67"/><use x="254.818" xlink:href="#HelveticaWorld-Regular-47"/><use x="282.602" xlink:href="#HelveticaWorld-Regular-99"/><use x="333.871" xlink:href="#HelveticaWorld-Regular-97"/><use x="388.803" xlink:href="#HelveticaWorld-Regular-102"/><use x="416.488" xlink:href="#HelveticaWorld-Regular-102"/><use x="442.174" xlink:href="#HelveticaWorld-Regular-101"/></g></g><g id="text_23"><defs><path d="M25.39 63.188H1.22v8.593h58.297v-8.594H35.109V0h-9.718z" id="HelveticaWorld-Regular-84"/></defs><g transform="matrix(.14 0 0 -.14 421.603 276.016)" fill="#8c564b"><use xlink:href="#HelveticaWorld-Regular-84"/><use x="60.742" xlink:href="#HelveticaWorld-Regular-104"/><use x="115.918" xlink:href="#HelveticaWorld-Regular-101"/><use x="171.338" xlink:href="#HelveticaWorld-Regular-97"/><use x="226.27" xlink:href="#HelveticaWorld-Regular-110"/><use x="281.445" xlink:href="#HelveticaWorld-Regular-111"/><use x="337.354" xlink:href="#HelveticaWorld-Regular-47"/><use x="365.137" xlink:href="#HelveticaWorld-Regular-84"/><use x="425.879" xlink:href="#HelveticaWorld-Regular-104"/><use x="481.055" xlink:href="#HelveticaWorld-Regular-101"/><use x="536.475" xlink:href="#HelveticaWorld-Regular-97"/><use x="591.406" xlink:href="#HelveticaWorld-Regular-110"/><use x="646.582" xlink:href="#HelveticaWorld-Regular-111"/></g></g><g id="text_24"><defs><path d="M38.484 38.375h31.532V0h-6.297l-2.344 9.281Q56.781 3.421 50.578.75q-6.187-2.656-12.875-2.656-10.797 0-18.047 4.703-7.25 4.719-11.265 13.015-4 8.313-4 20.72 0 15.468 9.203 26.312 9.203 10.843 24.781 10.843 11.625 0 20.313-6.5Q67.39 60.688 68.796 50h-9.375q-1.703 7.078-7.219 11.078-5.516 4.016-14.312 4.016-10.594 0-17.047-7.985-6.438-7.984-6.438-21.125 0-15.28 6.39-22.437Q27.204 6.39 38.282 6.39q7.235 0 12.235 2.859 5 2.86 7.687 7.766 2.688 4.906 2.688 13.062H38.484z" id="HelveticaWorld-Regular-71"/><path d="M64.89 0h-9.718v33.5h-37.5V0H8.109v71.781h9.563V42.094h37.5V71.78h9.719z" id="HelveticaWorld-Regular-72"/><path d="M6.11 52.297h8.78V17.578q0-5.765 2.61-8.625Q20.125 6.11 25 6.11q6.781 0 10.594 4.797 3.812 4.813 3.812 12.578v28.813h8.782V0H39.89v7.625l-.188.188q-4.984-9.329-16.61-9.329-7.515 0-12.25 4.094Q6.11 6.688 6.11 14.703z" id="HelveticaWorld-Regular-117"/><path d="M43.406 26.313q0 10.5-3.718 15.046-3.704 4.547-10.579 4.547-6.984-.11-10.562-5.453Q14.984 35.11 14.984 25q0-10.297 4.297-14.594Q23.578 6.11 29.297 6.11q6.5 0 10.297 5.344 3.812 5.344 3.812 14.86zM6.594 0v71.781h8.781V45.703h.203q5.61 8.11 15.14 8.11 9.766 0 15.766-7.25t6-18.876q0-13.093-6.062-21.156Q40.375-1.516 29.5-1.516q-9.578 0-14.406 8.016h-.203V0z" id="HelveticaWorld-Regular-98"/><path d="M44 29.5L33.406 61.078h-.203L21.687 29.5zm-25.297-8.594L11.188 0h-9.97l27 71.781h10.985L65.187 0H54.594l-7.078 20.906z" id="HelveticaWorld-Regular-65"/><path d="M17.828 38.625H37.11q7.282 0 10.938 3.188 3.656 3.203 3.656 9.703 0 5.812-3.516 8.89-3.515 3.078-10.687 3.078H17.828zm0-38.625H8.11v71.781h32.266q9.625 0 15.484-5.594 5.86-5.593 5.86-14.578 0-9.328-5.672-15.312-5.656-5.969-15.672-5.969H17.828z" id="HelveticaWorld-Regular-80"/><path d="M17.828 0H8.11v71.781h9.72z" id="HelveticaWorld-Regular-73"/><path d="M39.406 52.297h9.625L29.11 0h-9.437L.594 52.297h10.203L24.422 9.719h.187z" id="HelveticaWorld-Regular-118"/><path d="M9.422 73.688h7.281V-1.906H9.422z" id="HelveticaWorld-Regular-124"/><path d="M55.61 71.781h9.374V0h-10.78L17.577 58.016h-.187V0H8.109v71.781h11.375l35.938-57.969h.187z" id="HelveticaWorld-Regular-78"/><path d="M50.39 50.781q-.296 6.844-5.109 10.719-4.797 3.875-12.656 3.875-7.922 0-12.172-3.25-4.234-3.234-4.234-9.344 0-3.265 1.843-5.61 1.86-2.343 6.641-3.468l20.516-4.687q8.297-1.813 12.297-6.875 4.015-5.047 4.015-12.313 0-10.64-7.812-16.187-7.813-5.547-20.313-5.547-9.531 0-15.031 2.437-5.484 2.453-9.734 7.766-4.25 5.328-4.25 14.89h9.093q0-8 5.313-12.406 5.328-4.39 14.5-4.39 8.89 0 13.844 3.156 4.953 3.156 4.953 8.953 0 5.281-2.953 7.89Q46.188 29 37.594 31l-15.469 3.625q-7.719 1.75-11.531 6.125Q6.78 45.125 6.78 51.516q0 9.672 6.516 15.922 6.531 6.25 18.203 6.25 13.172 0 20.328-5.5 7.156-5.485 7.688-17.407z" id="HelveticaWorld-Regular-83"/><path d="M12.703 26.219q0-8.735 3.953-14.375 3.953-5.64 11.219-5.64 7.531 0 11.438 5.905 3.906 5.907 3.906 14.11 0 8.297-3.907 14.078-3.906 5.797-11.437 5.797-6.969 0-11.078-5.453-4.094-5.438-4.094-14.422zm-8.984 0q0 11.672 6.484 19.625 6.5 7.968 17.672 7.968 11.438 0 17.875-8.062 6.453-8.047 6.453-19.531 0-11.516-6.406-19.625-6.39-8.11-17.922-8.11-11.078 0-17.625 7.86-6.531 7.86-6.531 19.875zm36.734 35.406H31.47v10.156h8.984zm-16.219 0H15.25v10.156h8.984z" id="HelveticaWorld-Regular-246"/><path d="M37.313 0h-9.72v28.906L.485 71.781h11.329l20.609-34.469 20.562 34.47h11.422L37.312 28.905z" id="HelveticaWorld-Regular-89"/></defs><g transform="matrix(.09716 0 0 -.09716 60.912 322.949)" fill="#969696"><use xlink:href="#HelveticaWorld-Regular-71"/><use x="77.1" xlink:href="#HelveticaWorld-Regular-105"/><use x="99.121" xlink:href="#HelveticaWorld-Regular-116"/><use x="126.807" xlink:href="#HelveticaWorld-Regular-72"/><use x="199.805" xlink:href="#HelveticaWorld-Regular-117"/><use x="254.59" xlink:href="#HelveticaWorld-Regular-98"/><use x="311.084" xlink:href="#HelveticaWorld-Regular-32"/><use x="335.498" xlink:href="#HelveticaWorld-Regular-65"/><use x="402.197" xlink:href="#HelveticaWorld-Regular-80"/><use x="466.846" xlink:href="#HelveticaWorld-Regular-73"/><use x="492.627" xlink:href="#HelveticaWorld-Regular-32"/><use x="517.041" xlink:href="#HelveticaWorld-Regular-118"/><use x="566.65" xlink:href="#HelveticaWorld-Regular-105"/><use x="588.672" xlink:href="#HelveticaWorld-Regular-97"/><use x="643.604" xlink:href="#HelveticaWorld-Regular-32"/><use x="668.018" xlink:href="#HelveticaWorld-Regular-104"/><use x="723.193" xlink:href="#HelveticaWorld-Regular-111"/><use x="779.102" xlink:href="#HelveticaWorld-Regular-116"/><use x="806.787" xlink:href="#HelveticaWorld-Regular-119"/><use x="876.824" xlink:href="#HelveticaWorld-Regular-97"/><use x="931.756" xlink:href="#HelveticaWorld-Regular-114"/><use x="963.324" xlink:href="#HelveticaWorld-Regular-101"/><use x="1018.744" xlink:href="#HelveticaWorld-Regular-32"/><use x="1043.158" xlink:href="#HelveticaWorld-Regular-124"/><use x="1069.135" xlink:href="#HelveticaWorld-Regular-32"/><use x="1093.549" xlink:href="#HelveticaWorld-Regular-78"/><use x="1166.645" xlink:href="#HelveticaWorld-Regular-105"/><use x="1188.666" xlink:href="#HelveticaWorld-Regular-99"/><use x="1239.936" xlink:href="#HelveticaWorld-Regular-111"/><use x="1295.844" xlink:href="#HelveticaWorld-Regular-32"/><use x="1320.258" xlink:href="#HelveticaWorld-Regular-83"/><use x="1386.469" xlink:href="#HelveticaWorld-Regular-99"/><use x="1437.738" xlink:href="#HelveticaWorld-Regular-104"/><use x="1492.914" xlink:href="#HelveticaWorld-Regular-108"/><use x="1514.936" xlink:href="#HelveticaWorld-Regular-246"/><use x="1570.844" xlink:href="#HelveticaWorld-Regular-109"/><use x="1653.852" xlink:href="#HelveticaWorld-Regular-101"/><use x="1709.271" xlink:href="#HelveticaWorld-Regular-114"/><use x="1741.84" xlink:href="#HelveticaWorld-Regular-32"/><use x="1766.254" xlink:href="#HelveticaWorld-Regular-124"/><use x="1792.23" xlink:href="#HelveticaWorld-Regular-32"/><use x="1816.645" xlink:href="#HelveticaWorld-Regular-67"/><use x="1888.959" xlink:href="#HelveticaWorld-Regular-67"/><use x="1961.273" xlink:href="#HelveticaWorld-Regular-32"/><use x="1985.688" xlink:href="#HelveticaWorld-Regular-66"/><use x="2048.5" xlink:href="#HelveticaWorld-Regular-89"/></g></g><g transform="matrix(.14 0 0 -.14 166.777 17.25)" fill="#969696" id="text_25"><use xlink:href="#HelveticaWorld-Regular-78"/><use x="73.096" xlink:href="#HelveticaWorld-Regular-117"/><use x="127.881" xlink:href="#HelveticaWorld-Regular-109"/><use x="210.889" xlink:href="#HelveticaWorld-Regular-98"/><use x="267.383" xlink:href="#HelveticaWorld-Regular-101"/><use x="322.803" xlink:href="#HelveticaWorld-Regular-114"/><use x="355.371" xlink:href="#HelveticaWorld-Regular-32"/><use x="379.785" xlink:href="#HelveticaWorld-Regular-111"/><use x="435.693" xlink:href="#HelveticaWorld-Regular-102"/><use x="463.379" xlink:href="#HelveticaWorld-Regular-32"/><use x="487.793" xlink:href="#HelveticaWorld-Regular-71"/><use x="564.893" xlink:href="#HelveticaWorld-Regular-105"/><use x="586.914" xlink:href="#HelveticaWorld-Regular-116"/><use x="614.6" xlink:href="#HelveticaWorld-Regular-72"/><use x="687.598" xlink:href="#HelveticaWorld-Regular-117"/><use x="742.383" xlink:href="#HelveticaWorld-Regular-98"/><use x="798.877" xlink:href="#HelveticaWorld-Regular-32"/><use x="823.291" xlink:href="#HelveticaWorld-Regular-115"/><use x="873.291" xlink:href="#HelveticaWorld-Regular-116"/><use x="900.977" xlink:href="#HelveticaWorld-Regular-97"/><use x="955.908" xlink:href="#HelveticaWorld-Regular-114"/><use x="988.477" xlink:href="#HelveticaWorld-Regular-115"/></g></g></g><defs><clipPath id="p33a910231e"><path d="M60.912 23.249h357.12v266.112H60.912z"/></clipPath></defs></svg>