<svg height="442.883" viewBox="0 0 623.954 332.162" width="831.939" xmlns="http://www.w3.org/2000/svg" xmlns:xlink="http://www.w3.org/1999/xlink"><defs><style>*{stroke-linecap:butt;stroke-linejoin:round}</style></defs><g id="figure_1"><path d="M0 332.162h623.954V0H0z" fill="none" id="patch_1"/><g id="axes_1"><path d="M53.127 289.361h357.12V23.25H53.127z" fill="none" id="patch_2"/><g id="matplotlib.axis_1"><g id="xtick_1"><g id="line2d_1"><defs><path d="M0 0v3.5" id="m2f31795d11" stroke="#969696" stroke-width=".8"/></defs><use x="104.315" xlink:href="#m2f31795d11" y="289.361" fill="#969696" stroke="#969696" stroke-width=".8"/></g><g id="text_1"><defs><path d="M4.39 45.125q0 12.39 6.391 18.781 6.406 6.407 17.938 6.407 9.656 0 15.812-5.86 6.157-5.86 6.157-15.14 0-7.22-3.547-12.188-3.532-4.953-10.422-8.703l-12.11-6.64Q13.922 15.921 12.5 8.296h38.188V0H2.593q.39 9.906 4.297 16.5 3.906 6.594 12.203 11.375l12.593 7.328q5.032 2.89 7.329 5.984 2.297 3.094 2.297 8.516 0 5.375-3.766 9.031-3.75 3.672-10.156 3.672-7.078 0-10.594-4.672-3.516-4.656-3.61-12.609z" id="HelveticaWorld-Regular-50"/><path d="M42.484 34.188q0 14.109-3.734 21.156-3.734 7.062-10.969 7.062-7.078 0-10.89-7.062-3.797-7.047-3.797-21.157 0-13.671 3.75-20.937Q20.609 6 27.78 6q7.235 0 10.969 7 3.734 7.016 3.734 21.188zm9.422 0q0-17.297-6.25-26.704-6.25-9.39-17.875-9.39-12.062 0-18.062 9.734-6 9.75-6 26.36 0 17.03 6.14 26.578 6.157 9.547 17.922 9.547 11.625 0 17.875-9.5t6.25-26.626z" id="HelveticaWorld-Regular-48"/><path d="M35.89 0h-9.374v49.906H10.109v6.985q8.594.28 12.782 2.75Q27.094 62.109 29 70.313h6.89z" id="HelveticaWorld-Regular-49"/></defs><g transform="matrix(.14 0 0 -.14 88.745 306.41)" fill="#969696"><use xlink:href="#HelveticaWorld-Regular-50"/><use x="55.615" xlink:href="#HelveticaWorld-Regular-48"/><use x="111.23" xlink:href="#HelveticaWorld-Regular-49"/><use x="166.846" xlink:href="#HelveticaWorld-Regular-48"/></g></g></g><g id="xtick_2"><use x="163.638" xlink:href="#m2f31795d11" y="289.361" fill="#969696" stroke="#969696" stroke-width=".8" id="line2d_2"/><g transform="matrix(.14 0 0 -.14 148.067 306.41)" fill="#969696" id="text_2"><use xlink:href="#HelveticaWorld-Regular-50"/><use x="55.615" xlink:href="#HelveticaWorld-Regular-48"/><use x="111.23" xlink:href="#HelveticaWorld-Regular-49"/><use x="166.846" xlink:href="#HelveticaWorld-Regular-50"/></g></g><g id="xtick_3"><use x="223.042" xlink:href="#m2f31795d11" y="289.361" fill="#969696" stroke="#969696" stroke-width=".8" id="line2d_3"/><g id="text_3"><defs><path d="M10.594 24.703h22.61v31.89h-.188zM42 17.093V0h-8.797v17.094H2.484v8.593L34.72 70.314H42v-45.61h10.297v-7.61z" id="HelveticaWorld-Regular-52"/></defs><g transform="matrix(.14 0 0 -.14 207.472 306.41)" fill="#969696"><use xlink:href="#HelveticaWorld-Regular-50"/><use x="55.615" xlink:href="#HelveticaWorld-Regular-48"/><use x="111.23" xlink:href="#HelveticaWorld-Regular-49"/><use x="166.846" xlink:href="#HelveticaWorld-Regular-52"/></g></g></g><g id="xtick_4"><use x="282.365" xlink:href="#m2f31795d11" y="289.361" fill="#969696" stroke="#969696" stroke-width=".8" id="line2d_4"/><g id="text_4"><defs><path d="M14.11 21.578q0-6.875 4.093-11.234Q22.313 6 28.906 6q6.297 0 10.032 4.438 3.734 4.453 3.734 11.687 0 6.297-3.688 10.547-3.687 4.25-10.468 4.25-6.594 0-10.5-4.156-3.907-4.157-3.907-11.188zM41.702 51.61q-.984 5.375-3.984 8.078-3 2.72-8.125 2.72-8.11 0-12.36-7.923-4.25-7.906-4.343-18.109l.203-.188q5.61 8.641 16.687 8.641 8.844 0 15.438-5.86 6.593-5.859 6.593-16.452 0-10.5-6.25-17.47-6.25-6.952-16.843-6.952-12.219 0-18.563 8.687-6.344 8.703-6.344 25.938 0 16.593 6.485 27.093 6.5 10.5 19.484 10.5 8.407 0 14.219-5.015 5.813-5 6.297-13.688z" id="HelveticaWorld-Regular-54"/></defs><g transform="matrix(.14 0 0 -.14 266.795 306.41)" fill="#969696"><use xlink:href="#HelveticaWorld-Regular-50"/><use x="55.615" xlink:href="#HelveticaWorld-Regular-48"/><use x="111.23" xlink:href="#HelveticaWorld-Regular-49"/><use x="166.846" xlink:href="#HelveticaWorld-Regular-54"/></g></g></g><g id="xtick_5"><use x="341.769" xlink:href="#m2f31795d11" y="289.361" fill="#969696" stroke="#969696" stroke-width=".8" id="line2d_5"/><g id="text_5"><defs><path d="M27.594 40.578q5.422 0 8.953 3.094 3.547 3.11 3.547 8.234 0 4.594-3.407 7.547-3.39 2.953-9.687 2.953-5.61 0-8.672-3.11-3.047-3.093-3.047-7.874 0-5.125 3.813-7.984 3.812-2.86 8.5-2.86zm.093-7.562q-6.78 0-10.64-3.766-3.86-3.766-3.86-9.234 0-6.297 3.907-10.157Q21 6 28.219 6q6.406 0 10.234 3.86 3.828 3.859 3.828 10.265 0 5.469-3.828 9.172-3.828 3.719-10.766 3.719zM49.22 52.203q0-10.594-9.032-14.797 6.204-2.781 8.86-7.36 2.656-4.562 2.656-9.733 0-10.016-6.453-16.125-6.438-6.094-17.375-6.094-9.563 0-16.813 5.25-7.25 5.25-7.25 17.062 0 11.922 11.907 16.907-9.516 3.796-9.516 13.671 0 8.297 5.64 13.813 5.641 5.516 15.641 5.516 10.016 0 15.875-5.204 5.86-5.203 5.86-12.906z" id="HelveticaWorld-Regular-56"/></defs><g transform="matrix(.14 0 0 -.14 326.199 306.41)" fill="#969696"><use xlink:href="#HelveticaWorld-Regular-50"/><use x="55.615" xlink:href="#HelveticaWorld-Regular-48"/><use x="111.23" xlink:href="#HelveticaWorld-Regular-49"/><use x="166.846" xlink:href="#HelveticaWorld-Regular-56"/></g></g></g><g id="xtick_6"><use x="401.092" xlink:href="#m2f31795d11" y="289.361" fill="#969696" stroke="#969696" stroke-width=".8" id="line2d_6"/><g transform="matrix(.14 0 0 -.14 385.522 306.41)" fill="#969696" id="text_6"><use xlink:href="#HelveticaWorld-Regular-50"/><use x="55.615" xlink:href="#HelveticaWorld-Regular-48"/><use x="111.23" xlink:href="#HelveticaWorld-Regular-50"/><use x="166.846" xlink:href="#HelveticaWorld-Regular-48"/></g></g></g><g id="matplotlib.axis_2"><g id="ytick_1"><path clip-path="url(#p14639390ee)" d="M53.127 250.985h357.12" fill="none" stroke="#969696" stroke-linecap="square" stroke-width=".2" id="line2d_7"/><g transform="matrix(.14 0 0 -.14 7.2 256.01)" fill="#969696" id="text_7"><use xlink:href="#HelveticaWorld-Regular-49"/><use x="55.615" xlink:href="#HelveticaWorld-Regular-48"/><use x="111.23" xlink:href="#HelveticaWorld-Regular-48"/><use x="166.846" xlink:href="#HelveticaWorld-Regular-48"/><use x="222.461" xlink:href="#HelveticaWorld-Regular-48"/></g></g><g id="ytick_2"><path clip-path="url(#p14639390ee)" d="M53.127 212.604h357.12" fill="none" stroke="#969696" stroke-linecap="square" stroke-width=".2" id="line2d_8"/><g transform="matrix(.14 0 0 -.14 7.2 217.629)" fill="#969696" id="text_8"><use xlink:href="#HelveticaWorld-Regular-50"/><use x="55.615" xlink:href="#HelveticaWorld-Regular-48"/><use x="111.23" xlink:href="#HelveticaWorld-Regular-48"/><use x="166.846" xlink:href="#HelveticaWorld-Regular-48"/><use x="222.461" xlink:href="#HelveticaWorld-Regular-48"/></g></g><g id="ytick_3"><path clip-path="url(#p14639390ee)" d="M53.127 174.223h357.12" fill="none" stroke="#969696" stroke-linecap="square" stroke-width=".2" id="line2d_9"/><g id="text_9"><defs><path d="M22.406 39.984q2.203-.187 4.594-.187 6.203 0 9.781 2.86 3.594 2.859 3.594 8.656 0 4.687-3.344 7.89-3.343 3.203-9.64 3.203-6.985 0-10.235-4.11-3.234-4.093-3.437-10.983h-8.64q0 10.984 5.765 16.984 5.765 6.016 16.937 6.016 9.922 0 15.828-5.11 5.907-5.094 5.907-13.39 0-10.704-9.032-14.5v-.204q11.72-4 11.72-16.406 0-9.906-6.595-16.265-6.593-6.344-18.703-6.344-9.906 0-16.312 5.203Q4.204 8.5 3.422 21.484H12.5q.203-8.109 4-11.797Q20.313 6 27.484 6q6.938 0 11.141 3.86 4.203 3.859 4.203 9.718 0 6.406-4.016 9.672-4 3.266-12.39 3.266-2 0-4.016-.094z" id="HelveticaWorld-Regular-51"/></defs><g transform="matrix(.14 0 0 -.14 7.2 179.248)" fill="#969696"><use xlink:href="#HelveticaWorld-Regular-51"/><use x="55.615" xlink:href="#HelveticaWorld-Regular-48"/><use x="111.23" xlink:href="#HelveticaWorld-Regular-48"/><use x="166.846" xlink:href="#HelveticaWorld-Regular-48"/><use x="222.461" xlink:href="#HelveticaWorld-Regular-48"/></g></g></g><g id="ytick_4"><path clip-path="url(#p14639390ee)" d="M53.127 135.843h357.12" fill="none" stroke="#969696" stroke-linecap="square" stroke-width=".2" id="line2d_10"/><g transform="matrix(.14 0 0 -.14 7.2 140.867)" fill="#969696" id="text_10"><use xlink:href="#HelveticaWorld-Regular-52"/><use x="55.615" xlink:href="#HelveticaWorld-Regular-48"/><use x="111.23" xlink:href="#HelveticaWorld-Regular-48"/><use x="166.846" xlink:href="#HelveticaWorld-Regular-48"/><use x="222.461" xlink:href="#HelveticaWorld-Regular-48"/></g></g><g id="ytick_5"><path clip-path="url(#p14639390ee)" d="M53.127 97.462h357.12" fill="none" stroke="#969696" stroke-linecap="square" stroke-width=".2" id="line2d_11"/><g id="text_11"><defs><path d="M14.703 40.922q5.813 4.39 13.625 4.39 9.469 0 16.281-6.296 6.813-6.297 6.813-16.22 0-10.78-6.578-17.796-6.563-7-18.422-7-10.313 0-16.266 5.047Q4.203 8.109 3.22 17.39h9.094q.671-5.672 4.437-8.672 3.766-3 10.453-3 6.485 0 10.64 4.484Q42 14.703 42 21.688q0 7.125-4.36 11.421-4.343 4.297-11.218 4.297-7.813 0-13.047-6.687l-7.563.39 5.266 37.594h36.438v-8.5H17.672z" id="HelveticaWorld-Regular-53"/></defs><g transform="matrix(.14 0 0 -.14 7.2 102.487)" fill="#969696"><use xlink:href="#HelveticaWorld-Regular-53"/><use x="55.615" xlink:href="#HelveticaWorld-Regular-48"/><use x="111.23" xlink:href="#HelveticaWorld-Regular-48"/><use x="166.846" xlink:href="#HelveticaWorld-Regular-48"/><use x="222.461" xlink:href="#HelveticaWorld-Regular-48"/></g></g></g><g id="ytick_6"><path clip-path="url(#p14639390ee)" d="M53.127 59.082h357.12" fill="none" stroke="#969696" stroke-linecap="square" stroke-width=".2" id="line2d_12"/><g transform="matrix(.14 0 0 -.14 7.2 64.106)" fill="#969696" id="text_12"><use xlink:href="#HelveticaWorld-Regular-54"/><use x="55.615" xlink:href="#HelveticaWorld-Regular-48"/><use x="111.23" xlink:href="#HelveticaWorld-Regular-48"/><use x="166.846" xlink:href="#HelveticaWorld-Regular-48"/><use x="222.461" xlink:href="#HelveticaWorld-Regular-48"/></g></g></g><path clip-path="url(#p14639390ee)" d="M249.847 289.361l1.259-19.186.747-2.399 1.705-2.399.435-4.797 1.993-4.798 1.131-2.399 1.824-2.398 1.298-1.198 1.707-1.201 2.09-2.399 1.247-.599 1.567-.598 1.81-.6 1.594-.602 2.235-2.399 1.316-4.797 1.24-2.399 1.597-2.399 1.225-2.398 1.776-2.4 1.646-2.398 2.065-2.399 1.34-2.399 2.008-2.398 1.742-2.4 1.709-2.398 1.667-2.399 1.242-2.399 1.767-2.398 2.082-2.4 1.979-2.398 1.685-2.399 1.713-2.399 1.64-2.398 1.605-2.4 1.172-2.398 1.53-2.399 1.472-2.398 1.954-2.4 1.825-2.398 1.577-2.399 1.398-2.399 1.35-2.398 1.313-2.4 1.473-2.398 1.53-2.399 1.618-2.399 1.23-2.398 1.4-2.4 1.793-2.398 1.419-2.399 1.405-2.399 1.38-2.398 1.59-2.4 1.723-4.797 1.99-4.797 72.571-112.594" fill="none" stroke="#1f77b4" stroke-linecap="square" stroke-width="1.5" id="line2d_13"/><path clip-path="url(#p14639390ee)" d="M146.827 284.568l2.068-1.198 1.29-.15 1.216-.15 1.329-.149 1.187-.15 1.527-.15 1.552-.149 1.982-.15 1.554-.153 1.6-.15 1.781-.15 1.38-.15 1.327-.149 1.36-.15 1.744-.15 2.01-.149 1.944-.15 2.138-.15 1.704-.149 2.01-.15 2.143-.15 1.524-.034 1.738-.038 2.288-.077 1.936-.073 1.218-.038 1.676-.02 1.127-.019 1.67-.034 1.798-.039.198-.076.425-.154 1.614-.599 1.447-.598 1.542-1.202 2.382-1.197 1.534-1.202 2.312-1.197 2.006-1.201 1.426-.599 1.316-.599 1.08-1.201 2.294-1.198 2.073-1.2 2.16-1.198 2.054-1.202 1.408-1.197 1.457-1.201 1.842-1.198 1.818-1.201 1.215-1.198 1.77-1.201 1.736-1.198 1.527-1.2 2.046-1.198 2.151-1.202 1.67-1.197 1.306-1.201 1.56-1.198 1.418-1.201 1.36-1.198 1.45-1.201 1.557-1.197 1.782-1.202 2.053-1.197 1.586-1.202.925-1.197 1.553-1.201 2.32-2.4 1.462-1.197 1.467-1.2 1.63-1.198 1.288-1.202 1.64-1.197 1.65-1.201 2.34-2.4 1.45-1.197 1.507-1.201 1.445-1.198 1.632-1.2 2.269-2.4 2.393-2.398 1.44-1.198 1.389-1.201 1.461-1.198 1.525-1.201 1.42-1.197 1.402-1.202 1.547-1.197 1.402-1.202 1.328-1.197 1.45-1.201 1.482-1.198 1.11-1.201 2.029-2.399 2.039-2.399 2.437-2.399 2.335-2.398 1.195-1.198 1.387-1.201 1.856-2.399 1.828-2.399 1.857-2.398 1.356-2.4 1.846-2.398 2.062-2.399 2.313-2.399 2.254-2.398 2.316-2.4 1.984-2.398 1.803-2.399 2.055-2.399 2.373-2.398 2.36-2.4 2.168-2.398 1.825-2.399 1.035-2.399 1.533-4.797 1.613-4.798 1.225-2.398 1.607-2.4 60.405-71.967" fill="none" stroke="#ff7f0e" stroke-linecap="square" stroke-width="1.5" id="line2d_14"/><path clip-path="url(#p14639390ee)" d="M112.073 283.37l.717-.3 14.426-2.099 3.351-.598 6.136-.902 6.223-1.198 14.429-2.1 4.558-.598 6.25-.752 5.76-.599 10.315-.672 12.525-.376 3.718-1.8 6.44-2.997 6.613-3.002 8.599-2.997 1.897-.599 2.57-1.201 5.773-2.998 1.45-.599 2.49-1.2 2.594-1.198 2.658-1.202 5.105-2.398 2.202-1.198 1.405-.599 7.648-4.198 1.805-1.202 2.015-1.197 1.572-1.202 5.495-3.596 3.27-2.399 5.503-3.6 2.805-2.398 3.053-2.4 1.292-1.197 1.535-1.201 3.87-3.596 6.35-6 1.7-1.197 2.745-2.398 1.466-1.202 1.698-1.197 11.538-9.595 4.643-4.798 5.266-4.798 6.882-7.196 1.292-1.201 9.073-9.595 7.513-9.596 1.34-2.398 1.608-2.4 3.702-4.797 2.152-2.399 1.988-2.398 10.122-10.793 1.234-1.201 37.794-38.32h0" fill="none" stroke="#2ca02c" stroke-linecap="square" stroke-width="1.5" id="line2d_15"/><path clip-path="url(#p14639390ee)" d="M173.237 274.972l.045-.598 1.91-.3 1.895-.299 1.687-.3 1.691-.299 1.354-.15 1.728-.15 2.38-.149 1.471-.077 1.29-.076 1.025-.073 2.056-.077 2.21-.073 1.406-.077 1.852-.299 1.048-.599 1.271-.599 1.433-.602 1.634-.599 1.481-.599 1.477-.598 2.033-.603 1.755-.599 1.716-.598 1.353-.6 1.407-.602 1.36-.598 1.532-.6 1.664-.598 1.34-.602 1.636-.6 1.562-.598 1.379-.599 1.72-.602 1.531-.599 1.326-.599 1.104-.598 1.518-.603 2.052-1.198 1.39-.598 1.108-.603 1.192-.599 1.524-.598 2.115-1.202 2.387-1.197 1.069-.599 1.391-.602 2.422-1.198 2.136-1.201 2.212-1.198 2.39-1.201 2.246-1.197 2.016-1.202 1.545-1.197 2.021-1.202 1.793-1.197 1.88-1.201 2.021-1.198 1.655-1.201 1.86-1.198 1.982-1.2 1.99-1.198 2.11-1.202 1.921-1.197 1.77-1.201 1.982-1.198 1.582-1.201 1.645-1.198 1.63-1.201 1.773-1.198 1.524-1.2 1.85-1.198 1.6-1.202 1.813-1.197 1.999-1.201 1.725-1.198 1.735-1.201 1.627-1.198 1.811-1.201 1.593-1.197 1.684-1.202 1.575-1.197 1.56-1.202 1.205-1.197 1.257-1.201 1.249-1.198 1.222-1.201 1.26-1.198 1.178-1.201 1.178-1.197 1.311-1.202 1.203-1.197 1.347-1.202 1.363-1.197 1.175-1.201 1.305-1.198 1.237-1.201 2.28-2.399 2.115-2.399 2.183-2.398 2.292-2.4 2.005-2.398 2.334-2.399 1.955-2.399 2.115-2.398 1.978-2.4 2.157-2.398 2.167-2.399 2.324-2.399 1.173-1.197 1.309-1.201 2.247-2.4 2.217-2.398 1.21-1.197 1.245-1.202 1.193-1.197 1.258-1.202 2.132-2.398 2.395-2.4 2.304-2.398 2.148-2.399 1.948-2.398 1.906-2.4 29.743-33.344" fill="none" stroke="#d62728" stroke-linecap="square" stroke-width="1.5" id="line2d_16"/><path clip-path="url(#p14639390ee)" d="M89.02 282.771l7.335-1.2 6.217-1.198 3.053-.603 4.374-1.197 16.63-4.2 6.089-1.8 2.344-.598 5.119-1.8 3.672-1.198 8.237-2.398 7.105-1.8 6.484-1.198 3.313-.602 3.376-.6 3.72-.598 8.951-.748 6.612-.376 5.278-.227 1.116-.449 4.123-1.8 5.073-1.796 1.653-.603 1.282-.599 7.616-2.997 2.87-1.201 2.356-1.198 1.855-1.201 2.192-1.198 3.276-2.398 1.33-1.202 1.504-1.197 9.68-6 4.511-2.398 1.682-1.197 8.145-4.798 8.513-5.999 3.548-2.399 3.433-2.398 8.416-5.995 1.703-1.202 1.284-1.197 1.631-1.202 4.331-4.797 5.01-4.798 10.068-8.394 1.541-1.2 2.714-2.4 1.379-1.197 1.716-1.201 1.198-1.198 1.486-1.201 3.618-3.597 7.925-7.196 4.286-3.6 4.305-3.596 2.45-2.4 2.731-2.398 1.568-1.201 4.104-3.596 1.136-1.202 4.13-3.596 1.135-1.201 2.825-2.4 12.412-9.594 42.457-31.637h0" fill="none" stroke="#9467bd" stroke-linecap="square" stroke-width="1.5" id="line2d_17"/><path clip-path="url(#p14639390ee)" d="M306.635 289.361l1.102-19.186 1.937-4.798 1.504-2.398 1.997-2.4 1.836-2.398 1.154-1.198 1.503-1.2 1.442-4.798 1.292-4.798 1.414-2.399 1.293-2.399 1.542-2.398 2.09-2.4 1.392-2.398 1.327-2.399 1.835-2.398 2.193-2.4 1.73-2.398 1.214-2.399 1.634-2.399 1.762-2.398 1.667-2.4.978-2.398 2.375-4.798 1.696-2.398 1.548-2.4 1.703-2.398 1.663-2.399 1.487-2.399 1.481-2.398 1.66-2.4 1.636-2.398 1.786-2.399 1.695-2.398 1.637-2.4.846-2.398 1.237-2.399 1.389-2.399 1.515-2.398 1.377-2.4 1.442-2.398 1.64-2.399 1.238-2.399 1.384-2.398 1.206-2.4 1.598-2.398 1.726-2.399 1.81-2.399 1.784-2.398 1.99-2.4 1.796-2.398 1.237-2.399 1.596-2.398 1.74-2.4 18.855-27.645" fill="none" stroke="#8c564b" stroke-linecap="square" stroke-width="1.5" id="line2d_18"/><path clip-path="url(#p14639390ee)" d="M53.127 285.93l1.985-1.362 4.292-2.4 12.762-4.797 1.363-.598 3.276-1.198 5.838-2.399 7.99-3.001 3.735-1.198 1.299-.598 5.72-1.8 5.214-1.8 2.584-1.198 7.605-3.001 1.268-.599 2.967-1.197 1.28-.603 3.008-1.198 3.55-1.8 4.356-1.8 1.806-.598 6.036-2.998 4.768-2.399 6.832-2.997 8.84-3.6 3.696-1.198 1.642-.602 1.287-.6 6.992-2.398 5.765-1.497 4.587-.602 6.537-.522 4.605-.227.236-.15 6.614-3.6 3.965-1.796 3.71-1.8 13.753-5.396 3.806-1.8 7.664-4.199 1.448-.599 2.354-1.201 1.784-1.197 4.715-2.4 2.078-1.2 1.738-1.198 4.63-2.399 2.008-1.201 2.284-1.198 3.461-2.398 5.872-3.6 2.024-1.198 1.705-1.201 8.471-4.798 1.764-1.197 10.87-8.398 8.819-5.995 12.532-7.196 5.171-3.6 1.98-1.198 1.74-1.201 8.4-4.798 2.37-1.197 1.828-1.202 6.628-3.596 3.424-2.399 1.82-1.201 4.19-2.399 4.463-2.399 6.364-3.596 2.081-1.201 44.87-20.822h0" fill="none" stroke="#e377c2" stroke-linecap="square" stroke-width="1.5" id="line2d_19"/><path clip-path="url(#p14639390ee)" d="M266.08 289.361l1.189-.034 1.93-.039.044-.076.153-.15.826-.073 2.191-.077 2.254-.15.028-.598.06-1.198.66-2.398.762-.6 2.204-.598 1.958-.3 1.194-.299 2.163-.299 1.37-.303 1.789-.599 1.526-.599 2.287-.598 2.42-.603 2.377-.599 1.657-.299 1.14-.3.5-1.2.172-2.4 1.706-1.197 1.975-1.201 2.293-1.198 2.19-1.201 1.108-2.399 1.025-1.197 1.95-1.202 1.844-1.197.883-1.201 1.381-1.198 1.579-1.201 1.464-1.198 1.906-1.201 1.666-1.198 1.51-1.2 1.276-1.198 1.517-1.202 1.236-2.398 1.275-4.798 2.264-2.399 1.445-1.197 1.32-1.202 1.224-2.398 1.587-2.4 1.886-2.398 1.833-2.399 2.175-4.797 2.059-4.798 1.516-2.399 1.56-2.398 1.269-2.4 1.618-2.398 1.926-2.399 1.883-2.399 1.713-2.398 1.77-2.4 1.286-2.398 1.45-2.399 1.46-2.399 1.474-2.398 1.246-2.4 1.419-2.398 1.684-2.399 1.414-2.398 1.158-2.4 1.304-2.398 2.077-4.798 1.23-2.398 1.22-2.4 1.272-2.398 1.27-2.399 1.452-2.399 1.62-2.398 1.76-2.4 1.654-2.398 1.73-2.399 1.887-2.399 1.62-2.398 1.661-2.4 1.534-2.398 1.238-2.399 1.793-2.398 1.756-2.4 11.811-14.238" fill="none" stroke="#7f7f7f" stroke-linecap="square" stroke-width="1.5" id="line2d_20"/><path clip-path="url(#p14639390ee)" d="M132.04 287.723l14.883-.822 11.555-.545 14.888-1.163 16.022-.648 6.884-.104 7.359-.821 10.918-1.367 33.527-7.66 5.805-1.643 5.968-1.643 9.158-2.736 3.06-1.094 6.557-2.188 5.392-2.191 1.813-.545 1.305-.55 8.182-4.379 2.28-1.093 3.893-2.192 1.623-1.094 2.182-1.094 3.748-2.187 1.645-1.094 1.925-1.094 1.618-1.094 2.11-1.098 2.287-2.187 1.446-1.094 1.188-1.094 5.606-4.38 9.752-8.754 3.694-3.281 2.721-2.192 1.181-1.094 2.642-2.191 3.793-4.376 4.304-4.379 2.367-2.188 6.496-6.566 1.442-1.094 3.266-3.282 1.865-2.188 2.225-2.191 2.398-2.188 3.338-4.379 1.274-2.192 1.46-2.187 1.596-2.188 3.386-4.38 1.642-2.187 5.363-6.567 2.115-2.187 5.932-6.567 1.063-1.094 2.901-2.188 1.171-1.098 3.989-4.379h0" fill="none" stroke="#bcbd22" stroke-linecap="square" stroke-width="1.5" id="line2d_21"/><path clip-path="url(#p14639390ee)" d="M209.702 289.361l2.391-.215.62-.218.933-.108.6-.054.667-.026 2.103-.027 1.607-.108 1.436-.111 1.966-.867.033-1.735.644-3.474 1.5-1.734 1.839-.868 2.391-.871 1.83-.868 1.73-.867 1.186-.434 1.349-.433 1.916-.434 1.585-.438 2.135-.867 1.515-.434 1.75-.433 1.502-.434 1.646-.434 1.669-.433.912-.438 2.355-.867 1.847-.434 1.7-.434 1.464-.434 1.416-.433 1.725-.434 1.354-.437 1.239-.434 1.266-.434 1.341-.434 1.658-.433 1.318-.434 1.28-.434 1.329-.433 1.202-.438 2.034-.867 2.412-.868 1.59-.867 1.688-.871 1.97-.868 1.917-.867 1.733-1.735 1.562-.867 1.3-.868 1.413-.867 1.335-.871 1.38-.868 1.378-.867 1.321-.868 1.681-.87 1.636-.868 1.565-.868 1.422-.867 1.188-.871 1.378-.868 1.468-.867 1.485-.868 1.338-.87 1.523-.868 1.408-.868 1.3-.867 1.374-.871 1.557-.868 1.198-.867 1.698-1.739 2.018-1.734 2.205-1.74 2.377-1.734 2.403-1.735 1.387-.867 1.153-.867 2.26-1.74 2.415-1.734 1.498-.867 1.085-.872 2.314-1.734 2.297-1.739 2.273-1.735 2.4-1.738 2.168-1.735 1.788-1.739 2.301-1.735 2.145-1.738 1.166-.868 1.304-.867 1.184-.868 1.283-.87 2.375-1.736 2.197-1.734 1.449-.868 1.29-.867 1.305-.868 1.34-.87 1.351-.868 1.41-.868 1.372-.867 1.613-.871 1.47-.868 1.28-.867 1.242-.868 1.456-.87 1.294-.868 1.566-.868 1.833-.867 1.651-.871 1.35-.868 1.515-.867 1.658-.867 1.813-.872 2.115-.867 1.959-.867 1.764-.868 1.898-.871 1.132-.434 1.524-.433 2.358-.868 2.27-.867 2.06-.872" fill="none" stroke="#17becf" stroke-linecap="square" stroke-width="1.5" id="line2d_22"/><path clip-path="url(#p14639390ee)" d="M306.954 289.361l2.253-3.19.757-1.596 1.712-1.596 2.259-1.597 1.644-.798 1.281-.799 2.16-1.596 1.548-1.597 1.96-1.596 2.153-1.597 2.27-1.597 1.863-1.596 1.607-1.597 1.318-1.597 1.91-1.596 2.093-1.597 1.564-1.597 1.65-1.596 2.033-1.597 1.48-1.596 2.029-3.194 1.595-1.596 1.323-1.597 1.267-1.597 1.189-1.596 1.112-1.597 1.526-1.597 1.463-1.596 1.661-1.597 1.662-1.596 1.805-1.597 1.703-1.593 1.63-1.596 1.261-1.597 1.577-1.597 1.126-1.596 1.636-1.597 1.638-1.597 1.818-1.596 1.373-1.597 1.495-1.597 1.574-1.596 1.562-1.597 1.363-1.596 1.689-1.597 1.794-1.597 1.184-1.596 1.718-1.597 1.873-1.597 1.674-1.596 1.929-1.597 2.212-1.597 1.47-1.596 1.554-1.597 1.368-1.596 1.748-1.597 1.02-1.597 1.561-1.596 2.135-1.597 1.83-1.597 1.464-1.596 1.674-1.597 1.49-1.597" fill="none" stroke="#aec7e8" stroke-linecap="square" stroke-width="1.5" id="line2d_23"/><path clip-path="url(#p14639390ee)" d="M104.608 286.594l.76-.69 10.377-2.08 5.503-1.037 7.9-1.735 1.178-.345 5.713-1.04 2.481-.691 3.205-1.04 4.031-1.037 1.679-.345 1.078-.346 4.815-1.04 15.394-2.77 10.59-1.56 2.815-.256 14.806-.61 4.928-1.037 1.238-.35 5.266-1.035 5.676-1.04 3.703-.691 5.298-1.037 3.572-1.04 1.682-.345.97-.35 1.537-.69 3.155-.695 5.553-1.036 2.884-.695 4.709-1.04 2.621-.69 1.106-.346 4.393-1.04 11.432-3.117 3.073-.695 8.825-2.425 3.321-1.037 1.216-.349 3.86-1.385 9.414-2.771 5.543-1.382 2.228-.691 1.597-.345 1.047-.35 2.796-.69 4.44-1.386 4.024-1.386 3.811-1.385 4.65-1.386 3.632-1.04 1.644-.345 4.125-1.386 2.027-.69 2.983-1.386 1.739-1.386 2.666-1.385 2.31-1.386 9.025-4.156 3.575-1.382 1.435-.69 6.84-2.772 1.247-.695 2.028-.69 12.86-6.237 2.131-.691 8.679-3.466 1.489-.69 1.216-.696 1.454-.69 10.63-3.466h0" fill="none" stroke="#ffbb78" stroke-linecap="square" stroke-width="1.5" id="line2d_24"/><path clip-path="url(#p14639390ee)" d="M169.962 289.265l27.971-.061.204-.48 1.12-.637.072-1.278 1.825-2.552.886-.637 4.558-1.275 1.241-.64 2.118-1.275 3.794-1.278 1.312-.637 1.693-.637 1.792-1.278 2.17-1.274 12.317-6.387 2.9-1.274 3.098-1.278 4.407-2.553 7.564-3.83 1.582-.637 1.287-.641 2.194-1.274 3.703-2.553 3.475-1.915 9.81-4.471 3.475-1.911 6.378-3.194 3.81-1.911 1.319-.641 3.544-1.911 7.852-3.194 8.594-3.19 3.08-1.273 3.782-1.278 3.415-1.278 10.011-3.194 7.243-1.911 2.866-.641 6.341-1.593 1.443-.318 2.219-.641 1.038-.637 1.696-.641 4.457-1.279 9.778-2.552 5.606-1.274 17.833-3.508 13.72-1.92 3.703-.475 3.969-.484h0" fill="none" stroke="#98df8a" stroke-linecap="square" stroke-width="1.5" id="line2d_25"/><path clip-path="url(#p14639390ee)" d="M157.702 289.361l63.622-.092.162-.648.81-.741 2.005-.23 12.86-.369 6.957-.165 25.078-.437 2.425-.093 1.773-.372 15.02-1.297.098-1.482 1.758-5.93 1.225-.74 1.671-.74 6.5-1.482 3.692-1.11 2.972-.74 1.212-.373 3.908-1.485 2.178-.74 3.053-1.482 3.593-1.482 1.778-.74 1.42-.745 5.917-2.222 8.772-2.963 4.795-1.486 2.864-1.109 5.07-1.481 5.231-1.482 7.323-1.857 2.655-.741 1.552-.369.911-.372 2.792-.74 10.405-2.595 3.887-.74 5.18-1.114 3.35-1.481 1.491-.369 12.87-2.226 1.699-.372h0" fill="none" stroke="#ff9896" stroke-linecap="square" stroke-width="1.5" id="line2d_26"/><path clip-path="url(#p14639390ee)" d="M114.685 286.437l1.525-.242 5.152-.487 4.16-.488 6.556-.975 3.787-.487 9.305-1.22 7.573-.98 6.223-.729 11.307-1.097 8.351-.61 3.281-.242 15.762-.488 11.933-1.22 2.55-.242 6.56-.975 4.873-.487 2.667-.488 3.9-.487 4.525-.614 3.278-.365 14.316-1.95 4.738-.487 3.026-.488 7.784-1.097 25.388-2.56 4.337-.488 12.076-1.097 6.64-.61 4.84-.488 6.985-.61 7.5-.61 9.762-.73 8.16-.61 8.235-.487 8.436-.61 8.941-.607 31.027-1.835h0" fill="none" stroke="#c5b0d5" stroke-linecap="square" stroke-width="1.5" id="line2d_27"/><g id="text_13"><defs><path d="M49.219 0h-8.844v32.172q0 7.422-2.594 10.578-2.578 3.156-8.578 3.156-5.906 0-9.875-4.5-3.953-4.484-3.953-12.89V0H6.594v52.297h8.297v-7.375h.203q6.203 8.89 15.812 8.89 8.89 0 13.594-4.718 4.719-4.703 4.719-13.5z" id="HelveticaWorld-Regular-110"/><path d="M12.703 26.219q0-8.735 3.953-14.375 3.953-5.64 11.219-5.64 7.531 0 11.438 5.905 3.906 5.907 3.906 14.11 0 8.297-3.907 14.078-3.906 5.797-11.437 5.797-6.969 0-11.078-5.453-4.094-5.438-4.094-14.422zm-8.984 0q0 11.672 6.484 19.625 6.5 7.968 17.672 7.968 11.438 0 17.875-8.062 6.453-8.047 6.453-19.531 0-11.516-6.406-19.625-6.39-8.11-17.922-8.11-11.078 0-17.625 7.86-6.531 7.86-6.531 19.875z" id="HelveticaWorld-Regular-111"/><path d="M13.094 26.313q0-9.704 3.844-14.954 3.859-5.25 10.265-5.25 6.094 0 10.188 4.485 4.109 4.5 4.109 13.094 0 11.03-3.5 16.625-3.484 5.593-10.61 5.593-6.78 0-10.546-4.453-3.75-4.437-3.75-15.14zM50.39 0h-8.297v7.172h-.203q-4.97-8.688-15.078-8.688-10.891 0-16.86 8.297Q4 15.094 4 27.688q0 11.625 5.906 18.875 5.922 7.25 15.875 7.25 9.813 0 15.625-8.891l.203.594V71.78h8.782z" id="HelveticaWorld-Regular-100"/><path d="M42.484 30.328q-.687 8.485-4.5 12.031-3.797 3.547-10.109 3.547-6.39 0-10.328-4.5-3.922-4.484-4.172-11.078zm8.391-13.922q-1.453-8.11-7.953-13.422-5.719-4.5-15.047-4.593-10.984.093-17.438 7.203Q4 12.704 4 24.704q0 13.78 6.64 21.437 6.641 7.672 18.47 7.672 10.593 0 16.546-7.922 5.953-7.907 5.953-22.594H13.375q0-8.203 3.813-12.703Q21 6.109 28.608 6.109q5.375 0 9.235 3.235 3.86 3.25 4.25 7.062z" id="HelveticaWorld-Regular-101"/><path d="M15.375 61.813H6.594v9.968h8.781zm0-69.532q0-7.468-3.547-10.375Q8.297-21 2-21q-1.797 0-3.703.297v7.61H.594q3.703 0 4.843 1.109 1.157 1.093 1.157 5.296v58.985h8.781z" id="HelveticaWorld-Regular-106"/><path d="M36.078 37.406q-.187 4.688-3.344 6.735-3.14 2.047-9.047 2.047-4.296 0-7.359-1.907-3.047-1.89-3.047-5.468 0-2.829 1.797-4.172 1.813-1.344 7.828-2.86l8.688-2.187q7.906-2 11.297-5.11 3.406-3.093 3.406-8.656 0-7.719-5.64-12.531-5.641-4.813-15.063-4.813-11 0-16.64 4.563-5.626 4.578-5.735 13.75h8.5q.203-5.422 3.594-8.063 3.39-2.625 10.171-2.625 5.516 0 8.766 2.188 3.25 2.203 3.25 6.11 0 2.78-2.11 4.437-2.093 1.672-8.296 3.078l-10.203 2.5q-6.203 1.562-9.157 4.656-2.953 3.094-2.953 8.031 0 7.72 5.516 12.203 5.531 4.5 14.406 4.5 9.485 0 14.531-4.624 5.047-4.61 5.344-11.782z" id="HelveticaWorld-Regular-115"/><path d="M4.984-1.906h-6.687l24.61 75.594H29.5z" id="HelveticaWorld-Regular-47"/></defs><g transform="matrix(.14 0 0 -.14 413.818 26.938)" fill="#1f77b4"><use xlink:href="#HelveticaWorld-Regular-110"/><use x="55.176" xlink:href="#HelveticaWorld-Regular-111"/><use x="111.084" xlink:href="#HelveticaWorld-Regular-100"/><use x="168.066" xlink:href="#HelveticaWorld-Regular-101"/><use x="223.486" xlink:href="#HelveticaWorld-Regular-106"/><use x="245.508" xlink:href="#HelveticaWorld-Regular-115"/><use x="295.508" xlink:href="#HelveticaWorld-Regular-47"/><use x="323.291" xlink:href="#HelveticaWorld-Regular-110"/><use x="378.467" xlink:href="#HelveticaWorld-Regular-111"/><use x="434.375" xlink:href="#HelveticaWorld-Regular-100"/><use x="491.357" xlink:href="#HelveticaWorld-Regular-101"/></g></g><g id="text_14"><defs><path d="M15.375 0H6.594v71.781h8.781z" id="HelveticaWorld-Regular-108"/><path d="M38.375 26.703q-.969-1.015-3.828-1.656-2.86-.625-10.672-1.656-5.766-.688-8.469-2.844-2.703-2.14-2.703-5.656 0-4.297 2.281-6.688 2.297-2.39 7.329-2.39 6.296 0 11.171 3.578 4.891 3.593 4.891 8.718zM6.203 36.375q.297 8.844 5.734 13.14 5.454 4.297 15.844 4.297 8.297 0 13.907-3.765 5.624-3.75 5.624-10.844V9.078Q47.313 6 50.094 6q1.125 0 2.89.39V0Q50.594-.984 48-.984q-4.5 0-6.703 1.921-2.188 1.938-2.281 6.047-7.516-8.5-18.891-8.5-7.422 0-11.922 4.204Q3.72 6.89 3.72 13.624q0 6.89 3.906 11.125Q11.531 29 19 29.89l15.516 1.891q4.203.64 4.203 6.203 0 4.11-3.047 6.297-3.047 2.203-9.25 2.203-5.516 0-8.485-2.437-2.953-2.438-3.53-7.672z" id="HelveticaWorld-Regular-97"/><path d="M15.375 0H6.594v52.297h8.297v-8.688h.203q5.703 10.203 14.687 10.203 1.422 0 2.297-.296V44.39h-3.266q-5.906 0-9.671-4.016-3.766-4-3.766-9.953z" id="HelveticaWorld-Regular-114"/><path d="M39.406 52.297h9.625L29.11 0h-9.437L.594 52.297h10.203L24.422 9.719h.187z" id="HelveticaWorld-Regular-118"/></defs><g transform="matrix(.14 0 0 -.14 413.818 59.057)" fill="#ff7f0e"><use xlink:href="#HelveticaWorld-Regular-108"/><use x="22.021" xlink:href="#HelveticaWorld-Regular-97"/><use x="76.953" xlink:href="#HelveticaWorld-Regular-114"/><use x="108.521" xlink:href="#HelveticaWorld-Regular-97"/><use x="161.203" xlink:href="#HelveticaWorld-Regular-118"/><use x="208.813" xlink:href="#HelveticaWorld-Regular-101"/><use x="264.232" xlink:href="#HelveticaWorld-Regular-108"/><use x="286.254" xlink:href="#HelveticaWorld-Regular-47"/><use x="314.037" xlink:href="#HelveticaWorld-Regular-108"/><use x="336.059" xlink:href="#HelveticaWorld-Regular-97"/><use x="390.99" xlink:href="#HelveticaWorld-Regular-114"/><use x="422.559" xlink:href="#HelveticaWorld-Regular-97"/><use x="475.24" xlink:href="#HelveticaWorld-Regular-118"/><use x="522.85" xlink:href="#HelveticaWorld-Regular-101"/><use x="578.27" xlink:href="#HelveticaWorld-Regular-108"/></g></g><g id="text_15"><defs><path d="M14.984 23.688q0-8.407 4.094-13 4.11-4.579 10.219-4.579 6.687 0 10.39 5.438 3.72 5.453 3.72 14.765 0 10.22-3.563 14.907-3.563 4.687-10.735 4.687-6.984 0-10.562-5.5-3.563-5.5-3.563-16.718zm-8.39 28.609h8.297v-7.375h.203q5.61 8.89 15.625 8.89 10.11 0 15.937-7.359 5.828-7.344 5.828-18.766 0-12.796-5.953-21Q40.578-1.515 29.5-1.515q-9.094 0-13.922 7.032h-.203v-26.22H6.594z" id="HelveticaWorld-Regular-112"/><path d="M17.188 45.016V10.984q0-2 1.093-3.046 1.11-1.047 3.938-1.047h3.375V0Q20.797-.688 19-.688q-5.516 0-8.063 2.641-2.53 2.64-2.53 8.547v34.516H1.311v7.28h7.094v14.595h8.781V52.297h8.407v-7.281z" id="HelveticaWorld-Regular-116"/><path d="M17.188 45.016V0H8.405v45.016H1.22v7.28h7.187v8.985q0 5.907 3.578 8.703 3.594 2.813 10.032 2.813 2.203 0 3.968-.188v-7.906q-1.562.188-3.578.188-2.922 0-4.078-1.438-1.14-1.437-1.14-4.656v-6.5h8.796v-7.281z" id="HelveticaWorld-Regular-102"/><path d="M50 0H38.719L22.406 26.422l-7.312-6.594V0h-8.5v71.781h8.5v-41.61l22.5 22.126H48.78L28.813 32.813z" id="HelveticaWorld-Regular-107"/></defs><g transform="matrix(.14 0 0 -.14 413.818 73.89)" fill="#2ca02c"><use xlink:href="#HelveticaWorld-Regular-112"/><use x="56.494" xlink:href="#HelveticaWorld-Regular-97"/><use x="111.426" xlink:href="#HelveticaWorld-Regular-108"/><use x="133.447" xlink:href="#HelveticaWorld-Regular-108"/><use x="155.469" xlink:href="#HelveticaWorld-Regular-101"/><use x="210.889" xlink:href="#HelveticaWorld-Regular-116"/><use x="238.574" xlink:href="#HelveticaWorld-Regular-115"/><use x="288.574" xlink:href="#HelveticaWorld-Regular-47"/><use x="316.357" xlink:href="#HelveticaWorld-Regular-102"/><use x="344.043" xlink:href="#HelveticaWorld-Regular-108"/><use x="366.064" xlink:href="#HelveticaWorld-Regular-97"/><use x="420.996" xlink:href="#HelveticaWorld-Regular-115"/><use x="470.996" xlink:href="#HelveticaWorld-Regular-107"/></g></g><g id="text_16"><defs><path d="M12.984 26.313q0-9.61 3.813-14.907Q20.609 6.11 27.094 6.11q6.312 0 10.312 4.579 4 4.593 4 13 0 11.03-3.5 16.625-3.484 5.593-10.61 5.593-7.171 0-10.75-4.765-3.562-4.766-3.562-14.828zM49.812 2.983q0-12.609-6.062-18.797-6.047-6.203-18.266-6.203-8.78 0-13.984 4.047Q6.297-13.922 5.516-6.39h8.796q.672-3.812 3.532-6.062 2.86-2.25 8.281-2.25 7.375 0 11.125 3.969 3.766 3.953 3.766 12.828v3.719h-.188q-4.937-7.329-13.922-7.329-11.187 0-17.093 8.25-5.907 8.25-5.907 20.953 0 11.625 5.953 18.875 5.97 7.25 15.829 7.25 9.906 0 15.625-8.89h.187v7.375h8.313z" id="HelveticaWorld-Regular-103"/></defs><g transform="matrix(.14 0 0 -.14 413.818 88.499)" fill="#d62728"><use xlink:href="#HelveticaWorld-Regular-100"/><use x="56.982" xlink:href="#HelveticaWorld-Regular-106"/><use x="79.004" xlink:href="#HelveticaWorld-Regular-97"/><use x="133.936" xlink:href="#HelveticaWorld-Regular-110"/><use x="189.111" xlink:href="#HelveticaWorld-Regular-103"/><use x="245.02" xlink:href="#HelveticaWorld-Regular-111"/><use x="300.928" xlink:href="#HelveticaWorld-Regular-47"/><use x="328.711" xlink:href="#HelveticaWorld-Regular-100"/><use x="385.693" xlink:href="#HelveticaWorld-Regular-106"/><use x="407.715" xlink:href="#HelveticaWorld-Regular-97"/><use x="462.646" xlink:href="#HelveticaWorld-Regular-110"/><use x="517.822" xlink:href="#HelveticaWorld-Regular-103"/><use x="573.73" xlink:href="#HelveticaWorld-Regular-111"/></g></g><g id="text_17"><defs><path d="M49.031 0H37.703l-12.89 19.672L12.203 0H1.125l18.266 26.906L2 52.296h11.188l12.109-18.405L37.5 52.297h10.688l-17.579-25.39z" id="HelveticaWorld-Regular-120"/></defs><g transform="matrix(.14 0 0 -.14 413.818 103.27)" fill="#9467bd"><use xlink:href="#HelveticaWorld-Regular-101"/><use x="52.545" xlink:href="#HelveticaWorld-Regular-120"/><use x="102.545" xlink:href="#HelveticaWorld-Regular-112"/><use x="159.039" xlink:href="#HelveticaWorld-Regular-114"/><use x="190.607" xlink:href="#HelveticaWorld-Regular-101"/><use x="246.027" xlink:href="#HelveticaWorld-Regular-115"/><use x="296.027" xlink:href="#HelveticaWorld-Regular-115"/><use x="346.027" xlink:href="#HelveticaWorld-Regular-106"/><use x="368.049" xlink:href="#HelveticaWorld-Regular-115"/><use x="418.049" xlink:href="#HelveticaWorld-Regular-47"/><use x="445.832" xlink:href="#HelveticaWorld-Regular-101"/><use x="498.377" xlink:href="#HelveticaWorld-Regular-120"/><use x="548.377" xlink:href="#HelveticaWorld-Regular-112"/><use x="604.871" xlink:href="#HelveticaWorld-Regular-114"/><use x="636.439" xlink:href="#HelveticaWorld-Regular-101"/><use x="691.859" xlink:href="#HelveticaWorld-Regular-115"/><use x="741.859" xlink:href="#HelveticaWorld-Regular-115"/></g></g><g id="text_18"><defs><path d="M14.11 7.328h32.187V0H2.39v6.89l31.64 38.126H4.938v7.28h40.374v-7.171z" id="HelveticaWorld-Regular-122"/><path d="M6.594 61.813v9.968h8.781v-9.969zM15.375 0H6.594v52.297h8.781z" id="HelveticaWorld-Regular-105"/><path d="M19.094 0H8.687v10.594h10.407z" id="HelveticaWorld-Regular-46"/></defs><g transform="matrix(.14 0 0 -.14 413.818 117.97)" fill="#8c564b"><use xlink:href="#HelveticaWorld-Regular-122"/><use x="47.469" xlink:href="#HelveticaWorld-Regular-101"/><use x="102.889" xlink:href="#HelveticaWorld-Regular-105"/><use x="124.91" xlink:href="#HelveticaWorld-Regular-116"/><use x="152.596" xlink:href="#HelveticaWorld-Regular-47"/><use x="180.379" xlink:href="#HelveticaWorld-Regular-110"/><use x="235.555" xlink:href="#HelveticaWorld-Regular-101"/><use x="288.1" xlink:href="#HelveticaWorld-Regular-120"/><use x="338.1" xlink:href="#HelveticaWorld-Regular-116"/><use x="365.785" xlink:href="#HelveticaWorld-Regular-46"/><use x="393.568" xlink:href="#HelveticaWorld-Regular-106"/><use x="415.59" xlink:href="#HelveticaWorld-Regular-115"/></g></g><g transform="matrix(.14 0 0 -.14 413.818 132.557)" fill="#e377c2" id="text_19"><use xlink:href="#HelveticaWorld-Regular-114"/><use x="31.568" xlink:href="#HelveticaWorld-Regular-97"/><use x="86.5" xlink:href="#HelveticaWorld-Regular-105"/><use x="108.521" xlink:href="#HelveticaWorld-Regular-108"/><use x="130.543" xlink:href="#HelveticaWorld-Regular-115"/><use x="180.543" xlink:href="#HelveticaWorld-Regular-47"/><use x="208.326" xlink:href="#HelveticaWorld-Regular-114"/><use x="239.895" xlink:href="#HelveticaWorld-Regular-97"/><use x="294.826" xlink:href="#HelveticaWorld-Regular-105"/><use x="316.848" xlink:href="#HelveticaWorld-Regular-108"/><use x="338.869" xlink:href="#HelveticaWorld-Regular-115"/></g><g id="text_20"><defs><path d="M43.406 26.313q0 10.5-3.718 15.046-3.704 4.547-10.579 4.547-6.984-.11-10.562-5.453Q14.984 35.11 14.984 25q0-10.297 4.297-14.594Q23.578 6.11 29.297 6.11q6.5 0 10.297 5.344 3.812 5.344 3.812 14.86zM6.594 0v71.781h8.781V45.703h.203q5.61 8.11 15.14 8.11 9.766 0 15.766-7.25t6-18.876q0-13.093-6.062-21.156Q40.375-1.516 29.5-1.516q-9.578 0-14.406 8.016h-.203V0z" id="HelveticaWorld-Regular-98"/><path d="M39.016 52.297h9.562L29.891.984q-.5-1.375-.985-2.593-4.25-11.329-7.328-15.547-3.078-4.235-9.953-4.235-3.61 0-5.906.782v8.015q2.484-.89 5.468-.89 3.22 0 4.704 2.03 1.5 2.032 4.421 9.938L.875 52.297h9.922L24.812 9.719H25z" id="HelveticaWorld-Regular-121"/></defs><g transform="matrix(.14 0 0 -.14 413.818 147.299)" fill="#7f7f7f"><use xlink:href="#HelveticaWorld-Regular-103"/><use x="55.908" xlink:href="#HelveticaWorld-Regular-97"/><use x="110.84" xlink:href="#HelveticaWorld-Regular-116"/><use x="138.525" xlink:href="#HelveticaWorld-Regular-115"/><use x="188.525" xlink:href="#HelveticaWorld-Regular-98"/><use x="243.02" xlink:href="#HelveticaWorld-Regular-121"/><use x="292.629" xlink:href="#HelveticaWorld-Regular-106"/><use x="314.65" xlink:href="#HelveticaWorld-Regular-115"/><use x="364.65" xlink:href="#HelveticaWorld-Regular-47"/><use x="392.434" xlink:href="#HelveticaWorld-Regular-103"/><use x="448.342" xlink:href="#HelveticaWorld-Regular-97"/><use x="503.273" xlink:href="#HelveticaWorld-Regular-116"/><use x="530.959" xlink:href="#HelveticaWorld-Regular-115"/><use x="580.959" xlink:href="#HelveticaWorld-Regular-98"/><use x="635.453" xlink:href="#HelveticaWorld-Regular-121"/></g></g><g id="text_21"><defs><path d="M28.906 23.188H4.391v8.984h24.515z" id="HelveticaWorld-Regular-45"/><path d="M39.594 34.719q-1.89 11.187-12.39 11.187-6.5 0-10.454-5.203-3.953-5.203-3.953-14.484 0-10.11 3.656-15.11 3.672-5 10.64-5 4.688 0 8.11 3.438 3.422 3.437 4.39 8.953h8.5q-1.312-9.703-6.859-14.86-5.547-5.156-14.328-5.156-10.297 0-16.89 7.047-6.594 7.063-6.594 19.172 0 13.281 6.594 21.188 6.593 7.922 18.5 7.922 8.687 0 13.843-5.204 5.157-5.203 5.735-13.89z" id="HelveticaWorld-Regular-99"/><path d="M6.594 52.297h8.297v-7.375h.203q5.906 8.89 15.812 8.89 9.813 0 13.922-8.5 3.75 4.594 7.266 6.547 3.515 1.953 8.703 1.953 6.781 0 11.484-4.453Q77 44.922 77 36.187V0h-8.781v33.797q0 6.094-2.297 9.094-2.297 3.015-7.422 3.015-5.172 0-8.75-4.203-3.563-4.203-3.563-9.812V0h-8.78v36.188q0 4.53-2.11 7.124-2.094 2.594-6.094 2.594-6.297 0-10.062-4.687-3.766-4.688-3.766-12.703V0H6.594z" id="HelveticaWorld-Regular-109"/><path d="M25.594 0h-8.985L1.516 52.297h9.468L21 11.187h.188l10.109 41.11h9.922l10.203-41.11h.187l10.594 41.11h8.703L55.812 0h-9.234L35.984 40.484h-.187z" id="HelveticaWorld-Regular-119"/></defs><g transform="matrix(.14 0 0 -.14 413.818 161.999)" fill="#bcbd22"><use xlink:href="#HelveticaWorld-Regular-115"/><use x="50" xlink:href="#HelveticaWorld-Regular-112"/><use x="106.494" xlink:href="#HelveticaWorld-Regular-114"/><use x="139.063" xlink:href="#HelveticaWorld-Regular-105"/><use x="161.084" xlink:href="#HelveticaWorld-Regular-110"/><use x="216.26" xlink:href="#HelveticaWorld-Regular-103"/><use x="272.168" xlink:href="#HelveticaWorld-Regular-45"/><use x="305.469" xlink:href="#HelveticaWorld-Regular-112"/><use x="361.963" xlink:href="#HelveticaWorld-Regular-114"/><use x="393.531" xlink:href="#HelveticaWorld-Regular-111"/><use x="449.439" xlink:href="#HelveticaWorld-Regular-106"/><use x="471.461" xlink:href="#HelveticaWorld-Regular-101"/><use x="526.881" xlink:href="#HelveticaWorld-Regular-99"/><use x="578.15" xlink:href="#HelveticaWorld-Regular-116"/><use x="605.836" xlink:href="#HelveticaWorld-Regular-115"/><use x="655.836" xlink:href="#HelveticaWorld-Regular-47"/><use x="683.619" xlink:href="#HelveticaWorld-Regular-115"/><use x="733.619" xlink:href="#HelveticaWorld-Regular-112"/><use x="790.113" xlink:href="#HelveticaWorld-Regular-114"/><use x="822.682" xlink:href="#HelveticaWorld-Regular-105"/><use x="844.703" xlink:href="#HelveticaWorld-Regular-110"/><use x="899.879" xlink:href="#HelveticaWorld-Regular-103"/><use x="955.787" xlink:href="#HelveticaWorld-Regular-45"/><use x="989.088" xlink:href="#HelveticaWorld-Regular-102"/><use x="1016.773" xlink:href="#HelveticaWorld-Regular-114"/><use x="1048.342" xlink:href="#HelveticaWorld-Regular-97"/><use x="1103.273" xlink:href="#HelveticaWorld-Regular-109"/><use x="1186.281" xlink:href="#HelveticaWorld-Regular-101"/><use x="1240.201" xlink:href="#HelveticaWorld-Regular-119"/><use x="1311.113" xlink:href="#HelveticaWorld-Regular-111"/><use x="1367.021" xlink:href="#HelveticaWorld-Regular-114"/><use x="1399.59" xlink:href="#HelveticaWorld-Regular-107"/></g></g><g transform="matrix(.14 0 0 -.14 413.818 176.77)" fill="#17becf" id="text_22"><use xlink:href="#HelveticaWorld-Regular-107"/><use x="47.625" xlink:href="#HelveticaWorld-Regular-111"/><use x="103.533" xlink:href="#HelveticaWorld-Regular-97"/><use x="158.465" xlink:href="#HelveticaWorld-Regular-106"/><use x="180.486" xlink:href="#HelveticaWorld-Regular-115"/><use x="230.486" xlink:href="#HelveticaWorld-Regular-47"/><use x="258.27" xlink:href="#HelveticaWorld-Regular-107"/><use x="305.895" xlink:href="#HelveticaWorld-Regular-111"/><use x="361.803" xlink:href="#HelveticaWorld-Regular-97"/></g><g id="text_23"><defs><path d="M6.11 52.297h8.78V17.578q0-5.765 2.61-8.625Q20.125 6.11 25 6.11q6.781 0 10.594 4.797 3.812 4.813 3.812 12.578v28.813h8.782V0H39.89v7.625l-.188.188q-4.984-9.329-16.61-9.329-7.515 0-12.25 4.094Q6.11 6.688 6.11 14.703z" id="HelveticaWorld-Regular-117"/></defs><g transform="matrix(.14 0 0 -.14 413.818 191.47)" fill="#aec7e8"><use xlink:href="#HelveticaWorld-Regular-110"/><use x="55.176" xlink:href="#HelveticaWorld-Regular-117"/><use x="109.961" xlink:href="#HelveticaWorld-Regular-120"/><use x="159.961" xlink:href="#HelveticaWorld-Regular-116"/><use x="187.646" xlink:href="#HelveticaWorld-Regular-47"/><use x="215.43" xlink:href="#HelveticaWorld-Regular-110"/><use x="270.605" xlink:href="#HelveticaWorld-Regular-117"/><use x="325.391" xlink:href="#HelveticaWorld-Regular-120"/><use x="375.391" xlink:href="#HelveticaWorld-Regular-116"/><use x="403.076" xlink:href="#HelveticaWorld-Regular-46"/><use x="430.859" xlink:href="#HelveticaWorld-Regular-106"/><use x="452.881" xlink:href="#HelveticaWorld-Regular-115"/></g></g><g transform="matrix(.14 0 0 -.14 413.818 206.143)" fill="#ffbb78" id="text_24"><use xlink:href="#HelveticaWorld-Regular-115"/><use x="48.5" xlink:href="#HelveticaWorld-Regular-121"/><use x="98.109" xlink:href="#HelveticaWorld-Regular-109"/><use x="181.117" xlink:href="#HelveticaWorld-Regular-102"/><use x="206.803" xlink:href="#HelveticaWorld-Regular-111"/><use x="262.711" xlink:href="#HelveticaWorld-Regular-110"/><use x="315.887" xlink:href="#HelveticaWorld-Regular-121"/><use x="365.496" xlink:href="#HelveticaWorld-Regular-47"/><use x="393.279" xlink:href="#HelveticaWorld-Regular-115"/><use x="441.779" xlink:href="#HelveticaWorld-Regular-121"/><use x="491.389" xlink:href="#HelveticaWorld-Regular-109"/><use x="574.396" xlink:href="#HelveticaWorld-Regular-102"/><use x="600.082" xlink:href="#HelveticaWorld-Regular-111"/><use x="655.99" xlink:href="#HelveticaWorld-Regular-110"/><use x="709.166" xlink:href="#HelveticaWorld-Regular-121"/></g><g id="text_25"><defs><path d="M49.219 0h-8.844v34.188q0 6.296-2.438 9-2.437 2.718-7.953 2.718-6.797 0-10.703-4.406-3.906-4.39-3.906-12.984V0H6.594v71.781h8.781V45.312h.203q6 8.5 15.328 8.5 8.594 0 13.453-4.5 4.86-4.484 4.86-13.718z" id="HelveticaWorld-Regular-104"/></defs><g transform="matrix(.14 0 0 -.14 413.818 220.843)" fill="#98df8a"><use xlink:href="#HelveticaWorld-Regular-98"/><use x="56.494" xlink:href="#HelveticaWorld-Regular-97"/><use x="111.426" xlink:href="#HelveticaWorld-Regular-108"/><use x="133.447" xlink:href="#HelveticaWorld-Regular-100"/><use x="190.43" xlink:href="#HelveticaWorld-Regular-101"/><use x="245.85" xlink:href="#HelveticaWorld-Regular-114"/><use x="277.418" xlink:href="#HelveticaWorld-Regular-100"/><use x="334.4" xlink:href="#HelveticaWorld-Regular-97"/><use x="389.332" xlink:href="#HelveticaWorld-Regular-115"/><use x="439.332" xlink:href="#HelveticaWorld-Regular-104"/><use x="492.133" xlink:href="#HelveticaWorld-Regular-121"/><use x="541.742" xlink:href="#HelveticaWorld-Regular-47"/><use x="569.525" xlink:href="#HelveticaWorld-Regular-115"/><use x="619.525" xlink:href="#HelveticaWorld-Regular-97"/><use x="674.457" xlink:href="#HelveticaWorld-Regular-105"/><use x="696.479" xlink:href="#HelveticaWorld-Regular-108"/><use x="718.5" xlink:href="#HelveticaWorld-Regular-115"/></g></g><g transform="matrix(.14 0 0 -.14 413.818 245.615)" fill="#ff9896" id="text_26"><use xlink:href="#HelveticaWorld-Regular-102"/><use x="25.686" xlink:href="#HelveticaWorld-Regular-101"/><use x="81.105" xlink:href="#HelveticaWorld-Regular-97"/><use x="136.037" xlink:href="#HelveticaWorld-Regular-116"/><use x="163.723" xlink:href="#HelveticaWorld-Regular-104"/><use x="218.898" xlink:href="#HelveticaWorld-Regular-101"/><use x="274.318" xlink:href="#HelveticaWorld-Regular-114"/><use x="306.887" xlink:href="#HelveticaWorld-Regular-115"/><use x="356.887" xlink:href="#HelveticaWorld-Regular-106"/><use x="378.908" xlink:href="#HelveticaWorld-Regular-115"/><use x="428.908" xlink:href="#HelveticaWorld-Regular-47"/><use x="456.691" xlink:href="#HelveticaWorld-Regular-102"/><use x="482.377" xlink:href="#HelveticaWorld-Regular-101"/><use x="537.797" xlink:href="#HelveticaWorld-Regular-97"/><use x="592.729" xlink:href="#HelveticaWorld-Regular-116"/><use x="620.414" xlink:href="#HelveticaWorld-Regular-104"/><use x="675.59" xlink:href="#HelveticaWorld-Regular-101"/><use x="731.01" xlink:href="#HelveticaWorld-Regular-114"/><use x="763.578" xlink:href="#HelveticaWorld-Regular-115"/></g><g transform="matrix(.14 0 0 -.14 413.818 261.86)" fill="#c5b0d5" id="text_27"><use xlink:href="#HelveticaWorld-Regular-99"/><use x="51.27" xlink:href="#HelveticaWorld-Regular-97"/><use x="106.201" xlink:href="#HelveticaWorld-Regular-107"/><use x="153.826" xlink:href="#HelveticaWorld-Regular-101"/><use x="209.246" xlink:href="#HelveticaWorld-Regular-112"/><use x="265.74" xlink:href="#HelveticaWorld-Regular-104"/><use x="320.916" xlink:href="#HelveticaWorld-Regular-112"/><use x="377.41" xlink:href="#HelveticaWorld-Regular-47"/><use x="405.193" xlink:href="#HelveticaWorld-Regular-99"/><use x="456.463" xlink:href="#HelveticaWorld-Regular-97"/><use x="511.395" xlink:href="#HelveticaWorld-Regular-107"/><use x="559.02" xlink:href="#HelveticaWorld-Regular-101"/><use x="614.439" xlink:href="#HelveticaWorld-Regular-112"/><use x="670.934" xlink:href="#HelveticaWorld-Regular-104"/><use x="726.109" xlink:href="#HelveticaWorld-Regular-112"/></g><g id="text_28"><defs><path d="M38.484 38.375h31.532V0h-6.297l-2.344 9.281Q56.781 3.421 50.578.75q-6.187-2.656-12.875-2.656-10.797 0-18.047 4.703-7.25 4.719-11.265 13.015-4 8.313-4 20.72 0 15.468 9.203 26.312 9.203 10.843 24.781 10.843 11.625 0 20.313-6.5Q67.39 60.688 68.796 50h-9.375q-1.703 7.078-7.219 11.078-5.516 4.016-14.312 4.016-10.594 0-17.047-7.985-6.438-7.984-6.438-21.125 0-15.28 6.39-22.437Q27.204 6.39 38.282 6.39q7.235 0 12.235 2.859 5 2.86 7.687 7.766 2.688 4.906 2.688 13.062H38.484z" id="HelveticaWorld-Regular-71"/><path d="M64.89 0h-9.718v33.5h-37.5V0H8.109v71.781h9.563V42.094h37.5V71.78h9.719z" id="HelveticaWorld-Regular-72"/><path d="M44 29.5L33.406 61.078h-.203L21.687 29.5zm-25.297-8.594L11.188 0h-9.97l27 71.781h10.985L65.187 0H54.594l-7.078 20.906z" id="HelveticaWorld-Regular-65"/><path d="M17.828 38.625H37.11q7.282 0 10.938 3.188 3.656 3.203 3.656 9.703 0 5.812-3.516 8.89-3.515 3.078-10.687 3.078H17.828zm0-38.625H8.11v71.781h32.266q9.625 0 15.484-5.594 5.86-5.593 5.86-14.578 0-9.328-5.672-15.312-5.656-5.969-15.672-5.969H17.828z" id="HelveticaWorld-Regular-80"/><path d="M17.828 0H8.11v71.781h9.72z" id="HelveticaWorld-Regular-73"/><path d="M9.422 73.688h7.281V-1.906H9.422z" id="HelveticaWorld-Regular-124"/><path d="M55.61 71.781h9.374V0h-10.78L17.577 58.016h-.187V0H8.109v71.781h11.375l35.938-57.969h.187z" id="HelveticaWorld-Regular-78"/><path d="M50.39 50.781q-.296 6.844-5.109 10.719-4.797 3.875-12.656 3.875-7.922 0-12.172-3.25-4.234-3.234-4.234-9.344 0-3.265 1.843-5.61 1.86-2.343 6.641-3.468l20.516-4.687q8.297-1.813 12.297-6.875 4.015-5.047 4.015-12.313 0-10.64-7.812-16.187-7.813-5.547-20.313-5.547-9.531 0-15.031 2.437-5.484 2.453-9.734 7.766-4.25 5.328-4.25 14.89h9.093q0-8 5.313-12.406 5.328-4.39 14.5-4.39 8.89 0 13.844 3.156 4.953 3.156 4.953 8.953 0 5.281-2.953 7.89Q46.188 29 37.594 31l-15.469 3.625q-7.719 1.75-11.531 6.125Q6.78 45.125 6.78 51.516q0 9.672 6.516 15.922 6.531 6.25 18.203 6.25 13.172 0 20.328-5.5 7.156-5.485 7.688-17.407z" id="HelveticaWorld-Regular-83"/><path d="M12.703 26.219q0-8.735 3.953-14.375 3.953-5.64 11.219-5.64 7.531 0 11.438 5.905 3.906 5.907 3.906 14.11 0 8.297-3.907 14.078-3.906 5.797-11.437 5.797-6.969 0-11.078-5.453-4.094-5.438-4.094-14.422zm-8.984 0q0 11.672 6.484 19.625 6.5 7.968 17.672 7.968 11.438 0 17.875-8.062 6.453-8.047 6.453-19.531 0-11.516-6.406-19.625-6.39-8.11-17.922-8.11-11.078 0-17.625 7.86-6.531 7.86-6.531 19.875zm36.734 35.406H31.47v10.156h8.984zm-16.219 0H15.25v10.156h8.984z" id="HelveticaWorld-Regular-246"/><path d="M58.016 50.203q-1.625 7.313-6.782 11.094-5.14 3.797-13.343 3.797-10.594 0-17.047-7.703-6.438-7.688-6.438-20.766 0-15.14 6.094-22.547 6.11-7.39 17.688-7.39 7.609 0 13.093 5.046 5.5 5.063 7.407 14.688h9.421Q66.22 12.594 57.625 5.344t-20.906-7.25q-14.703 0-23.516 10.11Q4.391 18.311 4.391 36.28q0 17.328 9.203 27.36 9.203 10.047 24.297 10.047 12.5 0 20.265-6.454 7.766-6.437 9.235-17.03z" id="HelveticaWorld-Regular-67"/><path d="M8.11 71.781h31.484q9.281 0 14.797-5.031 5.515-5.031 5.515-13.031 0-4.844-2.422-8.828-2.406-3.97-7.187-6.172 6.687-2.532 9.828-6.735 3.156-4.203 3.156-10.797 0-9.265-6.687-15.234Q49.906 0 38.922 0H8.109zm9.562-63.484h20.703q7.625 0 11.422 3.531 3.812 3.547 3.812 9.563 0 6.093-4.25 9.093Q45.125 33.5 36.812 33.5h-19.14zm0 33.11h17.625q7.719 0 11.312 2.796 3.594 2.813 3.594 8.781 0 5.125-3.406 7.813-3.39 2.687-11.39 2.687H17.671z" id="HelveticaWorld-Regular-66"/><path d="M37.313 0h-9.72v28.906L.485 71.781h11.329l20.609-34.469 20.562 34.47h11.422L37.312 28.905z" id="HelveticaWorld-Regular-89"/></defs><g transform="matrix(.09716 0 0 -.09716 53.127 322.95)" fill="#969696"><use xlink:href="#HelveticaWorld-Regular-71"/><use x="77.1" xlink:href="#HelveticaWorld-Regular-105"/><use x="99.121" xlink:href="#HelveticaWorld-Regular-116"/><use x="126.807" xlink:href="#HelveticaWorld-Regular-72"/><use x="199.805" xlink:href="#HelveticaWorld-Regular-117"/><use x="254.59" xlink:href="#HelveticaWorld-Regular-98"/><use x="311.084" xlink:href="#HelveticaWorld-Regular-32"/><use x="335.498" xlink:href="#HelveticaWorld-Regular-65"/><use x="402.197" xlink:href="#HelveticaWorld-Regular-80"/><use x="466.846" xlink:href="#HelveticaWorld-Regular-73"/><use x="492.627" xlink:href="#HelveticaWorld-Regular-32"/><use x="517.041" xlink:href="#HelveticaWorld-Regular-118"/><use x="566.65" xlink:href="#HelveticaWorld-Regular-105"/><use x="588.672" xlink:href="#HelveticaWorld-Regular-97"/><use x="643.604" xlink:href="#HelveticaWorld-Regular-32"/><use x="668.018" xlink:href="#HelveticaWorld-Regular-104"/><use x="723.193" xlink:href="#HelveticaWorld-Regular-111"/><use x="779.102" xlink:href="#HelveticaWorld-Regular-116"/><use x="806.787" xlink:href="#HelveticaWorld-Regular-119"/><use x="876.824" xlink:href="#HelveticaWorld-Regular-97"/><use x="931.756" xlink:href="#HelveticaWorld-Regular-114"/><use x="963.324" xlink:href="#HelveticaWorld-Regular-101"/><use x="1018.744" xlink:href="#HelveticaWorld-Regular-32"/><use x="1043.158" xlink:href="#HelveticaWorld-Regular-124"/><use x="1069.135" xlink:href="#HelveticaWorld-Regular-32"/><use x="1093.549" xlink:href="#HelveticaWorld-Regular-78"/><use x="1166.645" xlink:href="#HelveticaWorld-Regular-105"/><use x="1188.666" xlink:href="#HelveticaWorld-Regular-99"/><use x="1239.936" xlink:href="#HelveticaWorld-Regular-111"/><use x="1295.844" xlink:href="#HelveticaWorld-Regular-32"/><use x="1320.258" xlink:href="#HelveticaWorld-Regular-83"/><use x="1386.469" xlink:href="#HelveticaWorld-Regular-99"/><use x="1437.738" xlink:href="#HelveticaWorld-Regular-104"/><use x="1492.914" xlink:href="#HelveticaWorld-Regular-108"/><use x="1514.936" xlink:href="#HelveticaWorld-Regular-246"/><use x="1570.844" xlink:href="#HelveticaWorld-Regular-109"/><use x="1653.852" xlink:href="#HelveticaWorld-Regular-101"/><use x="1709.271" xlink:href="#HelveticaWorld-Regular-114"/><use x="1741.84" xlink:href="#HelveticaWorld-Regular-32"/><use x="1766.254" xlink:href="#HelveticaWorld-Regular-124"/><use x="1792.23" xlink:href="#HelveticaWorld-Regular-32"/><use x="1816.645" xlink:href="#HelveticaWorld-Regular-67"/><use x="1888.959" xlink:href="#HelveticaWorld-Regular-67"/><use x="1961.273" xlink:href="#HelveticaWorld-Regular-32"/><use x="1985.688" xlink:href="#HelveticaWorld-Regular-66"/><use x="2048.5" xlink:href="#HelveticaWorld-Regular-89"/></g></g><g transform="matrix(.14 0 0 -.14 158.992 17.25)" fill="#969696" id="text_29"><use xlink:href="#HelveticaWorld-Regular-78"/><use x="73.096" xlink:href="#HelveticaWorld-Regular-117"/><use x="127.881" xlink:href="#HelveticaWorld-Regular-109"/><use x="210.889" xlink:href="#HelveticaWorld-Regular-98"/><use x="267.383" xlink:href="#HelveticaWorld-Regular-101"/><use x="322.803" xlink:href="#HelveticaWorld-Regular-114"/><use x="355.371" xlink:href="#HelveticaWorld-Regular-32"/><use x="379.785" xlink:href="#HelveticaWorld-Regular-111"/><use x="435.693" xlink:href="#HelveticaWorld-Regular-102"/><use x="463.379" xlink:href="#HelveticaWorld-Regular-32"/><use x="487.793" xlink:href="#HelveticaWorld-Regular-71"/><use x="564.893" xlink:href="#HelveticaWorld-Regular-105"/><use x="586.914" xlink:href="#HelveticaWorld-Regular-116"/><use x="614.6" xlink:href="#HelveticaWorld-Regular-72"/><use x="687.598" xlink:href="#HelveticaWorld-Regular-117"/><use x="742.383" xlink:href="#HelveticaWorld-Regular-98"/><use x="798.877" xlink:href="#HelveticaWorld-Regular-32"/><use x="823.291" xlink:href="#HelveticaWorld-Regular-115"/><use x="873.291" xlink:href="#HelveticaWorld-Regular-116"/><use x="900.977" xlink:href="#HelveticaWorld-Regular-97"/><use x="955.908" xlink:href="#HelveticaWorld-Regular-114"/><use x="988.477" xlink:href="#HelveticaWorld-Regular-115"/></g></g></g><defs><clipPath id="p14639390ee"><path d="M53.127 23.249h357.12v266.112H53.127z"/></clipPath></defs></svg>