<svg xmlns:xlink="http://www.w3.org/1999/xlink" width="628.598" height="489.969" viewBox="0 0 471.449 367.477" xmlns="http://www.w3.org/2000/svg"><defs><style>*{stroke-linejoin:round;stroke-linecap:butt}</style></defs><g id="figure_1"><path d="M0 367.477h471.449V0H0v367.477z" style="fill:none" id="patch_1"/><g id="axes_1"><path d="M32.015 323.95h357.12V57.838H32.015V323.95z" style="fill:none" id="patch_2"/><g id="matplotlib.axis_1"><g id="xtick_1"><g id="line2d_1"><defs><path id="mf9e1d05fe1" d="M0 0v3.5" style="stroke:#b0b0b0;stroke-width:.4"/></defs><use xlink:href="#mf9e1d05fe1" x="65.75" y="323.95" style="fill:#b0b0b0;stroke:#b0b0b0;stroke-width:.4"/></g><g style="fill:#b0b0b0" transform="matrix(.14 0 0 -.14 47.935 341.588)" id="text_1"><defs><path id="DejaVuSans-32" d="M1228 531h2203V0H469v531q359 372 979 998 621 627 780 809 303 340 423 576 121 236 121 464 0 372-261 606-261 235-680 235-297 0-627-103-329-103-704-313v638q381 153 712 231 332 78 607 78 725 0 1156-363 431-362 431-968 0-288-108-546-107-257-392-607-78-91-497-524-418-433-1181-1211z" transform="scale(.01563)"/><path id="DejaVuSans-30" d="M2034 4250q-487 0-733-480-245-479-245-1442 0-959 245-1439 246-480 733-480 491 0 736 480 246 480 246 1439 0 963-246 1442-245 480-736 480zm0 500q785 0 1199-621 414-620 414-1801 0-1178-414-1799Q2819-91 2034-91q-784 0-1198 620-414 621-414 1799 0 1181 414 1801 414 621 1198 621z" transform="scale(.01563)"/><path id="DejaVuSans-31" d="M794 531h1031v3560L703 3866v575l1116 225h631V531h1031V0H794v531z" transform="scale(.01563)"/></defs><use xlink:href="#DejaVuSans-32"/><use xlink:href="#DejaVuSans-30" x="63.623"/><use xlink:href="#DejaVuSans-31" x="127.246"/><use xlink:href="#DejaVuSans-30" x="190.869"/></g></g><g id="xtick_2"><use xlink:href="#mf9e1d05fe1" x="118.71" y="323.95" style="fill:#b0b0b0;stroke:#b0b0b0;stroke-width:.4" id="line2d_2"/><g style="fill:#b0b0b0" transform="matrix(.14 0 0 -.14 100.895 341.588)" id="text_2"><use xlink:href="#DejaVuSans-32"/><use xlink:href="#DejaVuSans-30" x="63.623"/><use xlink:href="#DejaVuSans-31" x="127.246"/><use xlink:href="#DejaVuSans-32" x="190.869"/></g></g><g id="xtick_3"><use xlink:href="#mf9e1d05fe1" x="171.743" y="323.95" style="fill:#b0b0b0;stroke:#b0b0b0;stroke-width:.4" id="line2d_3"/><g style="fill:#b0b0b0" transform="matrix(.14 0 0 -.14 153.928 341.588)" id="text_3"><defs><path id="DejaVuSans-34" d="M2419 4116 825 1625h1594v2491zm-166 550h794V1625h666v-525h-666V0h-628v1100H313v609l1940 2957z" transform="scale(.01563)"/></defs><use xlink:href="#DejaVuSans-32"/><use xlink:href="#DejaVuSans-30" x="63.623"/><use xlink:href="#DejaVuSans-31" x="127.246"/><use xlink:href="#DejaVuSans-34" x="190.869"/></g></g><g id="xtick_4"><use xlink:href="#mf9e1d05fe1" x="224.704" y="323.95" style="fill:#b0b0b0;stroke:#b0b0b0;stroke-width:.4" id="line2d_4"/><g style="fill:#b0b0b0" transform="matrix(.14 0 0 -.14 206.889 341.588)" id="text_4"><defs><path id="DejaVuSans-36" d="M2113 2584q-425 0-674-291-248-290-248-796 0-503 248-796 249-292 674-292t673 292q248 293 248 796 0 506-248 796-248 291-673 291zm1253 1979v-575q-238 112-480 171-242 60-480 60-625 0-955-422-329-422-376-1275 184 272 462 417 279 145 613 145 703 0 1111-427 408-426 408-1160 0-719-425-1154Q2819-91 2113-91q-810 0-1238 620-428 621-428 1799 0 1106 525 1764t1409 658q238 0 480-47t505-140z" transform="scale(.01563)"/></defs><use xlink:href="#DejaVuSans-32"/><use xlink:href="#DejaVuSans-30" x="63.623"/><use xlink:href="#DejaVuSans-31" x="127.246"/><use xlink:href="#DejaVuSans-36" x="190.869"/></g></g><g id="xtick_5"><use xlink:href="#mf9e1d05fe1" x="277.737" y="323.95" style="fill:#b0b0b0;stroke:#b0b0b0;stroke-width:.4" id="line2d_5"/><g style="fill:#b0b0b0" transform="matrix(.14 0 0 -.14 259.922 341.588)" id="text_5"><defs><path id="DejaVuSans-38" d="M2034 2216q-450 0-708-241-257-241-257-662 0-422 257-663 258-241 708-241t709 242q260 243 260 662 0 421-258 662-257 241-711 241zm-631 268q-406 100-633 378-226 279-226 679 0 559 398 884 399 325 1092 325 697 0 1094-325t397-884q0-400-227-679-226-278-629-378 456-106 710-416 255-309 255-755 0-679-414-1042Q2806-91 2034-91q-771 0-1186 362-414 363-414 1042 0 446 256 755 257 310 713 416zm-231 997q0-362 226-565 227-203 636-203 407 0 636 203 230 203 230 565 0 363-230 566-229 203-636 203-409 0-636-203-226-203-226-566z" transform="scale(.01563)"/></defs><use xlink:href="#DejaVuSans-32"/><use xlink:href="#DejaVuSans-30" x="63.623"/><use xlink:href="#DejaVuSans-31" x="127.246"/><use xlink:href="#DejaVuSans-38" x="190.869"/></g></g><g id="xtick_6"><use xlink:href="#mf9e1d05fe1" x="330.697" y="323.95" style="fill:#b0b0b0;stroke:#b0b0b0;stroke-width:.4" id="line2d_6"/><g style="fill:#b0b0b0" transform="matrix(.14 0 0 -.14 312.882 341.588)" id="text_6"><use xlink:href="#DejaVuSans-32"/><use xlink:href="#DejaVuSans-30" x="63.623"/><use xlink:href="#DejaVuSans-32" x="127.246"/><use xlink:href="#DejaVuSans-30" x="190.869"/></g></g><g id="xtick_7"><use xlink:href="#mf9e1d05fe1" x="383.73" y="323.95" style="fill:#b0b0b0;stroke:#b0b0b0;stroke-width:.4" id="line2d_7"/><g style="fill:#b0b0b0" transform="matrix(.14 0 0 -.14 365.915 341.588)" id="text_7"><use xlink:href="#DejaVuSans-32"/><use xlink:href="#DejaVuSans-30" x="63.623"/><use xlink:href="#DejaVuSans-32" x="127.246"/><use xlink:href="#DejaVuSans-32" x="190.869"/></g></g></g><g id="matplotlib.axis_2"><g id="ytick_1"><path d="M32.015 323.95h357.12" clip-path="url(#pb297fc795d)" style="fill:none;stroke:#b0b0b0;stroke-width:.3;stroke-linecap:square" id="line2d_8"/><g id="line2d_9"><defs><path id="m975d6433db" d="M0 0h-3.5" style="stroke:#b0b0b0;stroke-width:.3"/></defs><use xlink:href="#m975d6433db" x="32.015" y="323.95" style="fill:#b0b0b0;stroke:#b0b0b0;stroke-width:.3"/></g><use xlink:href="#DejaVuSans-30" style="fill:#b0b0b0" transform="matrix(.14 0 0 -.14 16.108 329.269)" id="text_8"/></g><g id="ytick_2"><path d="M32.015 278.623h357.12" clip-path="url(#pb297fc795d)" style="fill:none;stroke:#b0b0b0;stroke-width:.3;stroke-linecap:square" id="line2d_10"/><use xlink:href="#m975d6433db" x="32.015" y="278.623" style="fill:#b0b0b0;stroke:#b0b0b0;stroke-width:.3" id="line2d_11"/><g style="fill:#b0b0b0" transform="matrix(.14 0 0 -.14 16.108 283.942)" id="text_9"><defs><path id="DejaVuSans-35" d="M691 4666h2478v-532H1269V2991q137 47 274 70 138 23 276 23 781 0 1237-428 457-428 457-1159 0-753-469-1171Q2575-91 1722-91q-294 0-599 50Q819 9 494 109v635q281-153 581-228t634-75q541 0 856 284 316 284 316 772 0 487-316 771-315 285-856 285-253 0-505-56-251-56-513-175v2344z" transform="scale(.01563)"/></defs><use xlink:href="#DejaVuSans-35"/></g></g><g id="ytick_3"><path d="M32.015 233.296h357.12" clip-path="url(#pb297fc795d)" style="fill:none;stroke:#b0b0b0;stroke-width:.3;stroke-linecap:square" id="line2d_12"/><use xlink:href="#m975d6433db" x="32.015" y="233.296" style="fill:#b0b0b0;stroke:#b0b0b0;stroke-width:.3" id="line2d_13"/><g style="fill:#b0b0b0" transform="matrix(.14 0 0 -.14 7.2 238.615)" id="text_10"><use xlink:href="#DejaVuSans-31"/><use xlink:href="#DejaVuSans-30" x="63.623"/></g></g><g id="ytick_4"><path d="M32.015 187.97h357.12" clip-path="url(#pb297fc795d)" style="fill:none;stroke:#b0b0b0;stroke-width:.3;stroke-linecap:square" id="line2d_14"/><use xlink:href="#m975d6433db" x="32.015" y="187.97" style="fill:#b0b0b0;stroke:#b0b0b0;stroke-width:.3" id="line2d_15"/><g style="fill:#b0b0b0" transform="matrix(.14 0 0 -.14 7.2 193.288)" id="text_11"><use xlink:href="#DejaVuSans-31"/><use xlink:href="#DejaVuSans-35" x="63.623"/></g></g><g id="ytick_5"><path d="M32.015 142.643h357.12" clip-path="url(#pb297fc795d)" style="fill:none;stroke:#b0b0b0;stroke-width:.3;stroke-linecap:square" id="line2d_16"/><use xlink:href="#m975d6433db" x="32.015" y="142.643" style="fill:#b0b0b0;stroke:#b0b0b0;stroke-width:.3" id="line2d_17"/><g style="fill:#b0b0b0" transform="matrix(.14 0 0 -.14 7.2 147.962)" id="text_12"><use xlink:href="#DejaVuSans-32"/><use xlink:href="#DejaVuSans-30" x="63.623"/></g></g><g id="ytick_6"><path d="M32.015 97.316h357.12" clip-path="url(#pb297fc795d)" style="fill:none;stroke:#b0b0b0;stroke-width:.3;stroke-linecap:square" id="line2d_18"/><use xlink:href="#m975d6433db" x="32.015" y="97.316" style="fill:#b0b0b0;stroke:#b0b0b0;stroke-width:.3" id="line2d_19"/><g style="fill:#b0b0b0" transform="matrix(.14 0 0 -.14 7.2 102.635)" id="text_13"><use xlink:href="#DejaVuSans-32"/><use xlink:href="#DejaVuSans-35" x="63.623"/></g></g></g><path d="m57.987 323.95 2.213-.293 2.213-.614 2.213.907H86.68l2.213-.302 2.213.01 2.249.292h6.493l2.213-.293 2.212.293 2.213-.293 2.249.293h8.851l2.249-.877 2.176.252 2.177-.252 2.213.877 2.212-.877 2.213-.03 2.213-.555 2.249.877 2.213-.02 2.212-.857 2.213.555 2.213.03 2.249.292 2.14-.71 2.14-.46 2.213.244 2.213.634 2.212-1.238 2.213.068 2.249 1.462 2.213-1.53 2.212.36 2.213.244 2.213.049 2.249-.878 2.14-.574 2.14 1.744 2.213-.341 2.213.341 2.212-1.248L186 322.78l2.25-.877 2.212 1.14 2.213-.263 2.212-.039 2.213-.838 2.25-.293 2.14.397 4.352-.172 4.426 1.208 2.212.322 2.25-1.755 2.212-.078 2.213.663 2.213 1.15 2.212-2.612 2.25.293 2.176.423 2.176 1.624 2.213-1.843 2.213 1.843 2.212.272 2.213.605 2.25-1.462 2.212-.351 2.213 1.228 2.212-.624 2.213-.838 2.25 1.17 2.14.553 2.14-.261 2.212-1.833 2.213.956 2.213-.653 2.212.068 2.25.585 2.212-.05 2.213-.243 2.213 1.755 2.212-2.047 2.25.292 2.14.136 2.14.45h4.425l2.213.564 2.213.02 2.249-1.462 2.212 1.14 2.213-1.14 2.213-.068 2.212 2.115 2.25-1.17 2.14.199 2.14-.784 2.213 1.15 2.212.02 2.213-.322 2.213-1.14 2.249-.877 2.212-3.724 2.213-.37 4.426 3.216 2.249-3.509 2.176-1.442 2.177.857 2.212-1.774 4.426 4.835 2.213-3.353 2.249-.585 2.212 2.73 2.213-.098 2.213 1.91 2.212 1.307 2.25-4.095 2.14-.751 2.14.459 2.213 2.174 2.212-1.882 2.213.975 2.213 1.657 2.249-2.34 2.212 2.194 2.213-1.316 2.213.107 2.213 1.063 2.249-.293 2.14-1.18 2.14 2.35h0" clip-path="url(#pb297fc795d)" style="fill:none;stroke:#8c564b;stroke-width:1.5;stroke-linecap:square" id="line2d_20"/><path d="m32.015 321.683 1.705 1.097 2.213 1.17h2.212l4.39-2.267 2.14.512 2.212.848 2.213.322 2.213-.02 2.213-.565 2.249.877 2.212-.312 2.213-.565 2.213-2.456 2.213 2.164 4.389-1.128 2.14.835 2.213 1.453 2.212-.575 2.213.575 2.213-1.745 2.249.292 2.213-1.267 2.212.975 2.213-1.277 2.213 1.277 2.249-2.047 2.14 2.475 2.14-1.305 2.213-3.422 2.213 2.252 2.212-1.043 2.213 1.628 2.249.585 2.213-1.307 2.212-.74 2.213-2.886 2.213 2.885 2.249-2.047 2.176 1.705 2.177-.827 2.213 2.515 2.212-2.223 2.213-.497 2.213-2.427h2.249l2.213 5.449 2.212-4.28 2.213.654 2.213-.946 2.249.293 2.14 1.451 2.14.303 2.213-2.008 2.213 3.47 2.212-1.959 2.213-.38 2.249.585 2.213-3.529 2.212.312 2.213 1.803 2.213-.633 2.249.877 2.14-3.373 2.14.449 2.213 1.472 2.213 2.622 2.212-.507 2.213-.663 2.25.877 2.212-2.33 2.213 2.33 2.212.088 4.462 1.667 2.14-3.415 2.14 2.245 2.213-.497 2.213-1.55 2.213-1.17 2.212-.584 2.25 3.509 2.212-.81 2.213.517 2.213-3.84 2.212 3.84 2.25 1.462 2.176-3.468 2.176 2.591 2.213-.497 2.213-1.55 2.212.946 2.213.809 2.25.292 2.212-.195 2.213-.39 2.212.692 2.213.478 2.25.292 2.14 1.41 2.14-.825 2.212.458 2.213-1.335 4.425.292 2.25 2.34 2.212-3.714 2.213 1.374 2.213-.165 2.212.165 2.25.878 2.14-1.41 2.14.532 2.212 1.95 2.213-2.827 2.213 2.827 2.213.098 2.249-3.802 2.212 3.402 2.213-2.525 2.213.107 2.212 2.233 2.25-1.17 2.14 1.441 2.14-.564 2.213.176 2.212-1.346 2.213 1.043 2.213.127 2.249.293 2.212-.117 2.213-3.393 2.213.975 2.213-2.144 2.249.585 2.176-2.088 2.177 2.965 2.212-1.735 2.213-.312 2.213 3.636 2.213-.127 2.249 1.17 2.212.165 2.213-1.92 4.425 2.047 2.25-2.34 2.14 1.285 2.14-3.624 2.213 3.948 2.212-1.316 2.213 1.618 2.213-2.203 2.249-.585 2.212 2.788 2.213-2.203 2.213-.516 2.213 1.978 2.249 1.17 2.14-3.968 2.14 3.09h0" clip-path="url(#pb297fc795d)" style="fill:none;stroke:#9467bd;stroke-width:1.5;stroke-linecap:square" id="line2d_21"/><path d="m32.015 318.85 1.705 4.515 2.213.283 2.212-.283h2.25l2.14-1.034 2.14.45H49.1l2.213.262 2.213-.555 2.249 1.17 2.212-.313 2.213.02 2.213-.926 4.462.634 2.14-.094 2.14-1.661 2.213 1.423 2.212.624 2.213-.322 2.213-.848 2.249.293 2.213-1.258 2.212.38 2.213-.078 2.213-.506 2.249 1.462 2.14-1.128 2.14-.92 2.213 1.999 2.213-.536 2.212-.068 2.213.068 2.249-.293 2.213-1.286 2.212-.176 2.213-1.335 2.213 2.213 2.249-1.755 2.176-1.26 2.177 1.552 2.213 2.272 2.212-2.272 2.213.76 2.213.118 2.249-4.387 2.213 4.572 2.212-3.402 2.213-.224 2.213 1.101 2.249-.292 2.14 1.284 2.14-2.454 2.213-.244 2.213 1.414 2.212-1.716 2.213 1.13 2.249.878 2.213-2.008 2.212 1.423 2.213-2.33 2.213 1.745 2.249-1.17 2.14-2.172 2.14 3.635 2.213-5.06 2.213 5.645 2.212-2.622L186 314.3l2.25 1.462 2.212-3.9 2.213 6.532 2.212-3.51 2.213 2.925 2.25-4.094 2.14-2.068 2.14 2.36 2.212-1.842 2.213.088 2.213 1.423 2.212-4.055 2.25 5.263 2.212 1.21 2.213-1.794 2.213.282 2.212.01 2.25-1.755 2.176-.453 2.176 5.132 2.213-5.351 2.213-1.375 2.212.77 2.213-1.062h2.25l2.212 2.573 2.213 3.276 2.212-2.37 2.213.907 2.25-1.462 2.14 1.139 2.14 2.37 2.212.069 2.213-3.578 2.213.556 2.212-2.895 2.25 2.34 2.212-2.769 4.426 3.324 2.212 1.784 2.25 1.17 2.14-1.4 2.14-.94 2.212.292 2.213-.292 2.213-.01 2.213 1.472 2.249-5.556 4.425 4.679 2.213-.897 2.212 3.529 2.25-4.094 2.14.522 2.14.647 2.213-.906 2.212-.263 2.213-5.478 2.213 3.43 2.249 1.463 2.212-1.872 2.213-.76 2.213-.146 2.213 3.363 2.249-3.51 2.176.303 2.177-8.49 2.212 9.845 2.213-1.365 2.213-3.168 2.213 3.753 2.249-.877 2.212.75 2.213 5.39 2.213-3.577 2.212 2.993 2.25-2.632 2.14-1.807 2.14.93 2.213 3.538 2.212-.907 2.213-4.23 2.213-.74 2.249 6.433 2.212-5.693 2.213 5.693 2.213-.858 2.213.858 2.249 1.17 2.14-1.014h0" clip-path="url(#pb297fc795d)" style="fill:none;stroke:#d62728;stroke-width:1.5;stroke-linecap:square" id="line2d_22"/><g style="fill:#1f77b4" transform="matrix(.14 0 0 -.14 399.849 171.76)" id="text_14"><defs><path id="DejaVuSans-75" d="M544 1381v2119h575V1403q0-497 193-746 194-248 582-248 465 0 735 297 271 297 271 810v1984h575V0h-575v538q-209-319-486-474-276-155-642-155-603 0-916 375-312 375-312 1097zm1447 2203z" transform="scale(.01563)"/><path id="DejaVuSans-62" d="M3116 1747q0 634-261 995t-717 361q-457 0-718-361t-261-995q0-634 261-995t718-361q456 0 717 361t261 995zM1159 2969q182 312 458 463 277 152 661 152 638 0 1036-506 399-506 399-1331T3314 415Q2916-91 2278-91q-384 0-661 152-276 152-458 464V0H581v4863h578V2969z" transform="scale(.01563)"/><path id="DejaVuSans-6e" d="M3513 2113V0h-575v2094q0 497-194 743-194 247-581 247-466 0-735-297-269-296-269-809V0H581v3500h578v-544q207 316 486 472 280 156 646 156 603 0 912-373 310-373 310-1098z" transform="scale(.01563)"/><path id="DejaVuSans-74" d="M1172 4494v-994h1184v-447H1172V1153q0-428 117-550t477-122h590V0h-590q-666 0-919 248-253 249-253 905v1900H172v447h422v994h578z" transform="scale(.01563)"/></defs><use xlink:href="#DejaVuSans-75"/><use xlink:href="#DejaVuSans-62" x="63.379"/><use xlink:href="#DejaVuSans-75" x="126.855"/><use xlink:href="#DejaVuSans-6e" x="190.234"/><use xlink:href="#DejaVuSans-74" x="253.613"/><use xlink:href="#DejaVuSans-75" x="292.822"/></g><g style="fill:#ff7f0e" transform="matrix(.14 0 0 -.14 399.849 290.72)" id="text_15"><defs><path id="DejaVuSans-64" d="M2906 2969v1894h575V0h-575v525q-181-312-458-464-276-152-664-152-634 0-1033 506-398 507-398 1332t398 1331q399 506 1033 506 388 0 664-152 277-151 458-463zM947 1747q0-634 261-995t717-361q456 0 718 361 263 361 263 995t-263 995q-262 361-718 361t-717-361q-261-361-261-995z" transform="scale(.01563)"/><path id="DejaVuSans-65" d="M3597 1894v-281H953q38-594 358-905t892-311q331 0 642 81t618 244V178Q3153 47 2828-22t-659-69q-838 0-1327 487-489 488-489 1320 0 859 464 1363 464 505 1252 505 706 0 1117-455 411-454 411-1235zm-575 169q-6 471-264 752-258 282-683 282-481 0-770-272t-333-766l2050 4z" transform="scale(.01563)"/><path id="DejaVuSans-69" d="M603 3500h575V0H603v3500zm0 1363h575v-729H603v729z" transform="scale(.01563)"/><path id="DejaVuSans-61" d="M2194 1759q-697 0-966-159t-269-544q0-306 202-486 202-179 548-179 479 0 768 339t289 901v128h-572zm1147 238V0h-575v531q-197-318-491-470T1556-91q-537 0-855 302-317 302-317 808 0 590 395 890 396 300 1180 300h807v57q0 397-261 614t-733 217q-300 0-585-72-284-72-546-216v532q315 122 612 182 297 61 578 61 760 0 1135-394 375-393 375-1193z" transform="scale(.01563)"/></defs><use xlink:href="#DejaVuSans-64"/><use xlink:href="#DejaVuSans-65" x="63.477"/><use xlink:href="#DejaVuSans-62" x="125"/><use xlink:href="#DejaVuSans-69" x="188.477"/><use xlink:href="#DejaVuSans-61" x="216.26"/><use xlink:href="#DejaVuSans-6e" x="277.539"/></g><g style="fill:#2ca02c" transform="matrix(.14 0 0 -.14 399.849 304.72)" id="text_16"><defs><path id="DejaVuSans-72" d="M2631 2963q-97 56-211 82-114 27-251 27-488 0-749-317t-261-911V0H581v3500h578v-544q182 319 472 473 291 155 707 155 59 0 131-8 72-7 159-23l3-590z" transform="scale(.01563)"/><path id="DejaVuSans-63" d="M3122 3366v-538q-244 135-489 202t-495 67q-560 0-870-355-309-354-309-995t309-996q310-354 870-354 250 0 495 67t489 202V134Q2881 22 2623-34q-257-57-548-57-791 0-1257 497-465 497-465 1341 0 856 470 1346 471 491 1290 491 265 0 518-55 253-54 491-163z" transform="scale(.01563)"/><path id="DejaVuSans-68" d="M3513 2113V0h-575v2094q0 497-194 743-194 247-581 247-466 0-735-297-269-296-269-809V0H581v4863h578V2956q207 316 486 472 280 156 646 156 603 0 912-373 310-373 310-1098z" transform="scale(.01563)"/><path id="DejaVuSans-6c" d="M603 4863h575V0H603v4863z" transform="scale(.01563)"/><path id="DejaVuSans-78" d="M3513 3500 2247 1797 3578 0h-678L1881 1375 863 0H184l1360 1831L300 3500h678l928-1247 928 1247h679z" transform="scale(.01563)"/></defs><use xlink:href="#DejaVuSans-61"/><use xlink:href="#DejaVuSans-72" x="61.279"/><use xlink:href="#DejaVuSans-63" x="100.143"/><use xlink:href="#DejaVuSans-68" x="155.123"/><use xlink:href="#DejaVuSans-6c" x="218.502"/><use xlink:href="#DejaVuSans-69" x="246.285"/><use xlink:href="#DejaVuSans-6e" x="274.068"/><use xlink:href="#DejaVuSans-75" x="337.447"/><use xlink:href="#DejaVuSans-78" x="400.826"/></g><g style="fill:#d62728" transform="matrix(.14 0 0 -.14 399.849 318.72)" id="text_17"><use xlink:href="#DejaVuSans-72"/><use xlink:href="#DejaVuSans-65" x="38.863"/><use xlink:href="#DejaVuSans-64" x="100.387"/><use xlink:href="#DejaVuSans-68" x="163.863"/><use xlink:href="#DejaVuSans-61" x="227.242"/><use xlink:href="#DejaVuSans-74" x="288.521"/></g><g style="fill:#9467bd" transform="matrix(.14 0 0 -.14 399.849 332.72)" id="text_18"><defs><path id="DejaVuSans-66" d="M2375 4863v-479h-550q-309 0-430-125-120-125-120-450v-309h947v-447h-947V0H697v3053H147v447h550v244q0 584 272 851 272 268 862 268h544z" transform="scale(.01563)"/><path id="DejaVuSans-6f" d="M1959 3097q-462 0-731-361t-269-989q0-628 267-989 268-361 733-361 460 0 728 362 269 363 269 988 0 622-269 986-268 364-728 364zm0 487q750 0 1178-488 429-487 429-1349 0-859-429-1349Q2709-91 1959-91q-753 0-1180 489-426 490-426 1349 0 862 426 1349 427 488 1180 488z" transform="scale(.01563)"/></defs><use xlink:href="#DejaVuSans-66"/><use xlink:href="#DejaVuSans-65" x="35.205"/><use xlink:href="#DejaVuSans-64" x="96.729"/><use xlink:href="#DejaVuSans-6f" x="160.205"/><use xlink:href="#DejaVuSans-72" x="221.387"/><use xlink:href="#DejaVuSans-61" x="262.5"/></g><g style="fill:#8c564b" transform="matrix(.14 0 0 -.14 399.849 346.72)" id="text_19"><defs><path id="DejaVuSans-6d" d="M3328 2828q216 388 516 572t706 184q547 0 844-383 297-382 297-1088V0h-578v2094q0 503-179 746-178 244-543 244-447 0-707-297-259-296-259-809V0h-578v2094q0 506-178 748t-550 242q-441 0-701-298-259-298-259-808V0H581v3500h578v-544q197 322 472 475t653 153q382 0 649-194 267-193 395-562z" transform="scale(.01563)"/></defs><use xlink:href="#DejaVuSans-6d"/><use xlink:href="#DejaVuSans-69" x="97.412"/><use xlink:href="#DejaVuSans-6e" x="125.195"/><use xlink:href="#DejaVuSans-74" x="188.574"/></g><g style="fill:#b0b0b0" transform="matrix(.09716 0 0 -.09716 32.015 357.986)" id="text_20"><defs><path id="DejaVuSans-40" d="M2381 1678q0-447 222-702 222-254 610-254 384 0 604 256 221 256 221 700 0 438-225 695-225 258-607 258-378 0-602-256-223-256-223-697zm1703-934q-187-241-429-355t-564-114q-538 0-874 389t-336 1014q0 625 337 1015 338 391 873 391 322 0 565-117 244-117 428-354v409h447V722q457 69 714 417 258 349 258 902 0 334-99 628-98 294-298 544-325 409-792 626t-1017 217q-384 0-738-102-353-101-653-301-490-319-767-836-276-517-276-1120 0-497 179-932 180-434 521-765 328-325 759-495 431-171 922-171 403 0 792 136t714 389l281-347q-390-303-851-464t-936-161q-578 0-1091 205-512 205-912 595Q841 78 631 592q-209 514-209 1105 0 569 212 1084 213 516 607 907 403 396 931 607t1119 211q662 0 1229-272 568-271 952-771 234-307 357-666 124-359 124-744 0-822-497-1297T4084 263v481z" transform="scale(.01563)"/><path id="DejaVuSans-73" d="M2834 3397v-544q-243 125-506 187-262 63-544 63-428 0-642-131t-214-394q0-200 153-314t616-217l197-44q612-131 870-370t258-667q0-488-386-773Q2250-91 1575-91q-281 0-586 55T347 128v594q319-166 628-249 309-82 613-82 406 0 624 139 219 139 219 392 0 234-158 359-157 125-692 241l-200 47q-534 112-772 345-237 233-237 639 0 494 350 762 350 269 994 269 318 0 599-47 282-46 519-140z" transform="scale(.01563)"/><path id="DejaVuSans-2f" d="M1625 4666h531L531-594H0l1625 5260z" transform="scale(.01563)"/><path id="DejaVuSans-2d" d="M313 2009h1684v-512H313v512z" transform="scale(.01563)"/><path id="DejaVuSans-7c" d="M1344 4891v-6400H813v6400h531z" transform="scale(.01563)"/><path id="DejaVuSans-4e" d="M628 4666h850L3547 763v3903h612V0h-850L1241 3903V0H628v4666z" transform="scale(.01563)"/><path id="DejaVuSans-53" d="M3425 4513v-616q-359 172-678 256-319 85-616 85-515 0-795-200t-280-569q0-310 186-468 186-157 705-254l381-78q706-135 1042-474t336-907q0-679-455-1029Q2797-91 1919-91q-331 0-705 75-373 75-773 222v650q384-215 753-325 369-109 725-109 540 0 834 212 294 213 294 607 0 343-211 537t-692 291l-385 75q-706 140-1022 440-315 300-315 835 0 619 436 975t1201 356q329 0 669-60 341-59 697-177z" transform="scale(.01563)"/><path id="DejaVuSans-f6" d="M1959 3097q-462 0-731-361t-269-989q0-628 267-989 268-361 733-361 460 0 728 362 269 363 269 988 0 622-269 986-268 364-728 364zm0 487q750 0 1178-488 429-487 429-1349 0-859-429-1349Q2709-91 1959-91q-753 0-1180 489-426 490-426 1349 0 862 426 1349 427 488 1180 488zm295 1266h634v-631h-634v631zm-1222 0h634v-631h-634v631z" transform="scale(.01563)"/><path id="DejaVuSans-43" d="M4122 4306v-665q-319 297-680 443-361 147-767 147-800 0-1225-489t-425-1414q0-922 425-1411t1225-489q406 0 767 147t680 444V359q-331-225-702-338-370-112-782-112-1060 0-1670 648-609 649-609 1771 0 1125 609 1773 610 649 1670 649 418 0 788-111 371-111 696-333z" transform="scale(.01563)"/><path id="DejaVuSans-42" d="M1259 2228V519h1013q509 0 754 211 246 211 246 645 0 438-246 645-245 208-754 208H1259zm0 1919V2741h935q462 0 688 173 227 174 227 530 0 353-227 528-226 175-688 175h-935zm-631 519h1613q722 0 1112-300 391-300 391-853 0-429-200-682t-588-315q466-100 724-418 258-317 258-792 0-625-425-966Q3088 0 2303 0H628v4666z" transform="scale(.01563)"/><path id="DejaVuSans-59" d="M-13 4666h679l1293-1919 1285 1919h678L2272 2222V0h-634v2222L-13 4666z" transform="scale(.01563)"/></defs><use xlink:href="#DejaVuSans-40"/><use xlink:href="#DejaVuSans-6e" x="100"/><use xlink:href="#DejaVuSans-73" x="163.379"/><use xlink:href="#DejaVuSans-63" x="215.479"/><use xlink:href="#DejaVuSans-68" x="270.459"/><use xlink:href="#DejaVuSans-6c" x="333.838"/><use xlink:href="#DejaVuSans-6f" x="361.621"/><use xlink:href="#DejaVuSans-65" x="422.803"/><use xlink:href="#DejaVuSans-20" x="484.326"/><use xlink:href="#DejaVuSans-2f" x="516.113"/><use xlink:href="#DejaVuSans-20" x="549.805"/><use xlink:href="#DejaVuSans-73" x="581.592"/><use xlink:href="#DejaVuSans-6f" x="633.691"/><use xlink:href="#DejaVuSans-2d" x="696.748"/><use xlink:href="#DejaVuSans-74" x="732.832"/><use xlink:href="#DejaVuSans-72" x="772.041"/><use xlink:href="#DejaVuSans-65" x="810.904"/><use xlink:href="#DejaVuSans-6e" x="872.428"/><use xlink:href="#DejaVuSans-64" x="935.807"/><use xlink:href="#DejaVuSans-73" x="999.283"/><use xlink:href="#DejaVuSans-20" x="1051.383"/><use xlink:href="#DejaVuSans-7c" x="1083.17"/><use xlink:href="#DejaVuSans-20" x="1116.861"/><use xlink:href="#DejaVuSans-4e" x="1148.648"/><use xlink:href="#DejaVuSans-69" x="1223.453"/><use xlink:href="#DejaVuSans-63" x="1251.236"/><use xlink:href="#DejaVuSans-6f" x="1306.217"/><use xlink:href="#DejaVuSans-20" x="1367.398"/><use xlink:href="#DejaVuSans-53" x="1399.186"/><use xlink:href="#DejaVuSans-63" x="1462.662"/><use xlink:href="#DejaVuSans-68" x="1517.643"/><use xlink:href="#DejaVuSans-6c" x="1581.021"/><use xlink:href="#DejaVuSans-f6" x="1608.805"/><use xlink:href="#DejaVuSans-6d" x="1669.986"/><use xlink:href="#DejaVuSans-65" x="1767.398"/><use xlink:href="#DejaVuSans-72" x="1828.922"/><use xlink:href="#DejaVuSans-20" x="1870.035"/><use xlink:href="#DejaVuSans-7c" x="1901.822"/><use xlink:href="#DejaVuSans-20" x="1935.514"/><use xlink:href="#DejaVuSans-43" x="1967.301"/><use xlink:href="#DejaVuSans-43" x="2037.125"/><use xlink:href="#DejaVuSans-20" x="2106.949"/><use xlink:href="#DejaVuSans-42" x="2138.736"/><use xlink:href="#DejaVuSans-59" x="2201.84"/></g><g style="fill:#b0b0b0" transform="matrix(.14 0 0 -.14 54.43 17.838)" id="text_21"><defs><path id="DejaVuSans-44" d="M1259 4147V519h763q966 0 1414 437 448 438 448 1382 0 937-448 1373t-1414 436h-763zm-631 519h1297q1356 0 1990-564 635-564 635-1764 0-1207-638-1773Q3275 0 1925 0H628v4666z" transform="scale(.01563)"/><path id="DejaVuSans-79" d="M2059-325q-243-625-475-815-231-191-618-191H506v481h338q237 0 368 113 132 112 291 531l103 262L191 3500h609L1894 763l1094 2737h609L2059-325z" transform="scale(.01563)"/><path id="DejaVuSans-71" d="M947 1747q0-634 261-995t717-361q456 0 718 361 263 361 263 995t-263 995q-262 361-718 361t-717-361q-261-361-261-995zM2906 525q-181-312-458-464-276-152-664-152-634 0-1033 506-398 507-398 1332t398 1331q399 506 1033 506 388 0 664-152 277-151 458-463v531h575v-4831h-575V525z" transform="scale(.01563)"/><path id="DejaVuSans-6b" d="M581 4863h578V1991l1716 1509h734L1753 1863 3688 0h-750L1159 1709V0H581v4863z" transform="scale(.01563)"/><path id="DejaVuSans-4f" d="M2522 4238q-688 0-1093-513-404-512-404-1397 0-881 404-1394 405-512 1093-512 687 0 1089 512 402 513 402 1394 0 885-402 1397-402 513-1089 513zm0 512q981 0 1568-658 588-658 588-1764 0-1103-588-1761Q3503-91 2522-91q-984 0-1574 656-589 657-589 1763t589 1764q590 658 1574 658z" transform="scale(.01563)"/><path id="DejaVuSans-76" d="M191 3500h609L1894 563l1094 2937h609L2284 0h-781L191 3500z" transform="scale(.01563)"/><path id="DejaVuSans-77" d="M269 3500h575l719-2731 715 2731h678l719-2731 716 2731h575L4050 0h-678l-753 2869L1863 0h-679L269 3500z" transform="scale(.01563)"/></defs><use xlink:href="#DejaVuSans-44"/><use xlink:href="#DejaVuSans-61" x="77.002"/><use xlink:href="#DejaVuSans-69" x="138.281"/><use xlink:href="#DejaVuSans-6c" x="166.064"/><use xlink:href="#DejaVuSans-79" x="193.848"/><use xlink:href="#DejaVuSans-20" x="253.027"/><use xlink:href="#DejaVuSans-6e" x="284.814"/><use xlink:href="#DejaVuSans-75" x="348.193"/><use xlink:href="#DejaVuSans-6d" x="411.572"/><use xlink:href="#DejaVuSans-62" x="508.984"/><use xlink:href="#DejaVuSans-65" x="572.461"/><use xlink:href="#DejaVuSans-72" x="633.984"/><use xlink:href="#DejaVuSans-20" x="675.098"/><use xlink:href="#DejaVuSans-6f" x="706.885"/><use xlink:href="#DejaVuSans-66" x="768.066"/><use xlink:href="#DejaVuSans-20" x="803.271"/><use xlink:href="#DejaVuSans-71" x="835.059"/><use xlink:href="#DejaVuSans-75" x="898.535"/><use xlink:href="#DejaVuSans-65" x="961.914"/><use xlink:href="#DejaVuSans-73" x="1023.438"/><use xlink:href="#DejaVuSans-74" x="1075.537"/><use xlink:href="#DejaVuSans-69" x="1114.746"/><use xlink:href="#DejaVuSans-6f" x="1142.529"/><use xlink:href="#DejaVuSans-6e" x="1203.711"/><use xlink:href="#DejaVuSans-73" x="1267.09"/><use xlink:href="#DejaVuSans-20" x="1319.189"/><use xlink:href="#DejaVuSans-6f" x="1350.977"/><use xlink:href="#DejaVuSans-6e" x="1412.158"/><use xlink:href="#DejaVuSans-20" x="1475.537"/><use xlink:href="#DejaVuSans-53" x="1507.324"/><use xlink:href="#DejaVuSans-74" x="1570.801"/><use xlink:href="#DejaVuSans-61" x="1610.01"/><use xlink:href="#DejaVuSans-63" x="1671.289"/><use xlink:href="#DejaVuSans-6b" x="1726.27"/><use xlink:href="#DejaVuSans-4f" x="1784.18"/><use xlink:href="#DejaVuSans-76" x="1862.891"/><use xlink:href="#DejaVuSans-65" x="1922.07"/><use xlink:href="#DejaVuSans-72" x="1983.594"/><use xlink:href="#DejaVuSans-66" x="2024.707"/><use xlink:href="#DejaVuSans-6c" x="2059.912"/><use xlink:href="#DejaVuSans-6f" x="2087.695"/><use xlink:href="#DejaVuSans-77" x="2148.877"/></g><path d="m60.2 323.95 2.213-.302 2.213.01 2.249.292h6.493l2.212-.585 2.213.585 2.213-.293 2.249.293 2.213-.302h4.425l2.213-.575 4.389.553 2.14-.261 2.213-.926 2.213 1.218 2.212.293 2.213-.585 2.249-.292 2.213-1.54 2.212 1.54 2.213-.936 2.213.643 2.249-.877 2.176-.141 2.177-1.614 2.213 1.687 2.212-.517 2.213 1.423 2.213-.253 2.249-1.17 2.213-.088 2.212 2.427 2.213-.916 2.213-1.13 2.249-1.463 2.14 2.183 2.14-.428 2.213-.068 2.213-.517 2.212 1.12 2.213.342 2.249-.585 2.213-1.267 2.212-.78 2.213-.429 2.213-.156 2.249 1.463 2.14-.638 2.14-1.117 2.213 2.261 2.213-1.676 2.212.165 2.213.712 2.25 1.462 2.212-1.267 2.213-1.657 2.212-.156 2.213 2.203 2.25-2.047 2.14 1.765 2.14-1.765 2.212 1.657 2.213-.487 2.213.79 2.212.087 2.25-2.632 2.212 2.242 2.213-1.365 2.213 1.365 2.212-2.534 2.25.584 2.176-2.843 2.176 2.843 2.213.44 4.425.301 2.213-.74 2.25.584 2.212-.448 2.213 1.033 2.212 1.687 2.213.068 2.25-3.51 2.14 1.024 2.14-.146 2.212-.76 2.213 1.345 2.213-2.554 2.212 2.554 2.25-1.17 4.425 1.462 2.213 1.384 2.212-1.676 2.25-1.462 2.14.376 2.14-.084 2.212 2.242 2.213.39 2.213-1.297 2.213-1.043 2.249.585 2.212.76 2.213-.467 2.213.468 2.212-.76 2.25.877 2.14 1.89 2.14-2.183 2.213-1.637 2.212.175 2.213 3.149 2.213-1.394 2.249-.585 2.212.468 2.213.117 2.213-2.233 2.213 1.648 2.249-2.632 2.176 1.412 2.177-3.167 2.212-1.189 2.213 1.482 2.213 3.353 2.213.74 2.249-.292 2.212.156 2.213.43 2.213 1.081 4.461-2.836 2.14-.596 2.14-1.159 2.214 1.57 2.212.77 2.213 1.345 2.213-1.346 2.249 1.17 2.212-1.637 2.213.76 2.213-1.365 2.213-1.852 2.249.293 2.14 3.718 2.14-5.18h0" clip-path="url(#pb297fc795d)" style="fill:none;stroke:#2ca02c;stroke-width:1.5;stroke-linecap:square" id="line2d_23"/><path d="m32.015 319.417 1.705 3.07 2.213-.35 2.212.058 2.25.293 2.14-1.452 2.14-.01 2.212-.4 2.213.4 2.213-.098 2.213-.487 2.249-1.17 2.212 2.564 2.213-1.102 2.213-1.316 2.213 3.363 2.249-3.51 2.14 1.766 2.14-2.35 2.213 1.638 2.212.41 2.213-2.828 2.213.488 2.249-1.17 2.213 1.287 2.212.467 2.213-1.072 2.213.78 2.249-3.802h2.14l2.14.293 2.213.916 2.213-1.501 2.212 1.501 2.213 1.716 2.249-6.726 2.213 2.895 2.212 2.369 2.213-3.88 2.213-.8 2.249 2.925 2.176-4.397 2.177-1.16 4.425-.292 2.213-4.435 2.213 4.435 4.462.098 2.212-3.314 2.213.292 2.213 3.51 2.249-6.142 2.14-5.138 2.14 4.553 2.213 2.31 2.213-1.432 2.212-1.287 2.213-.76 2.249-1.17 2.213.721 2.212 1.618 2.213-7.057 2.213 9.69 2.249-10.528 2.14-.867 2.14-5.274 2.213.331 2.213 8.442 2.212-1.19 2.213 4.406 2.25 3.217 2.212-1.579 2.213-5.732 2.212.595 2.213 2.914 2.25-3.216 2.14-3.562 2.14 3.27 2.212-7.867 2.213 5.527 2.213-7.038 2.212 9.962 2.25-1.462 2.212 1.774 2.213-1.19 2.213-.019 2.212 3.237 2.25-6.434 2.176.988 2.176 1.644 2.213-5.176 2.213 2.837 2.212-.117 2.213 5.965 2.25 3.51 2.212 1.1 2.213-8.411 2.212-3.977 2.213 8.363 2.25 2.632 2.14-3.29 2.14-.22 2.212-1.14 2.213 2.603 2.213 1.326 2.212-1.034 2.25-2.34 2.212 1.56 2.213 4.874 2.213-5.478 2.212 3.431 2.25-.292 2.14.919 2.14-2.674 2.212 2.847 2.213.078 2.213.224 2.213-.81 2.249-.584 2.212 5.322 2.213-4.737 2.213.507 2.212 2.71 2.25-.293 2.14-4.533 2.14-3.947 2.213 6.667 2.212.351 2.213 5.995 2.213-16.23 2.249 9.065 2.212.215 2.213-8.695 2.213-2.788 2.213 7.76 2.249-7.604 2.176 1.865 2.177-9.76 2.212 2.602 2.213-.848 2.213.848 2.213 13.773 2.249-1.754 2.212 1.579 4.426-5.44 2.212 6.2 2.25-10.527 2.14 2.58 2.14-1.703 2.213 8.588 2.212-1.57 2.213 1.57 2.213-2.447 2.249.585 2.212 6.999 2.213-3.49 2.213-2.856 2.213 1.101 2.249-1.17 2.14-2.046 2.14 6.726h0" clip-path="url(#pb297fc795d)" style="fill:none;stroke:#ff7f0e;stroke-width:1.5;stroke-linecap:square" id="line2d_24"/><path d="m32.015 312.618 1.705 6.653 2.213.75 2.212 1.882 2.25-.877 2.14-1.609 2.14-2.486 2.212 3.09 2.213-4.26 2.213 1.54 2.213-3.879 2.249-1.17 2.212.82 2.213-2.866 2.213-4.991 2.213 5.868 2.249-3.51 2.14.512 2.14-3.436 2.213 1.17 2.212-6.433 2.213-3.841 2.213 1.209 2.249-2.047 2.213-3.09 2.212-1.297 2.213 3.412 2.213-9.26 2.249-3.51 2.14-6.872 4.353-5.137 2.213.897 2.212 3.032 2.213-3.617 2.249-7.895 2.213 11.512 2.212-12.097 2.213-9.358 2.213 10.527 2.249-13.451 2.176-15.207 2.177 5.556 2.213-5.254 2.212-.01 2.213-19.329 2.213 19.622 2.249 7.018 2.213-1.861 2.212-1.355 2.213-18.891 2.213 18.89 4.389-26.078 2.14 8.24 2.213-5.887 2.213 1.501 2.212 13.608 2.213-36.418 2.249 17.546 2.213-11.95 2.212-32.792 2.213 9.524 2.213 13.87 2.249-31.874 2.14-11.74 2.14 3.26 2.213 6.842 2.213 21.23 2.212 12.312 2.213-6.17 2.25 7.018 2.212-4.172 2.213 1.248 2.212 6.004 2.213.137 2.25-12.867 2.14-17.034 2.14 5.337 2.212-3.07 2.213-1.902 2.213-6.862 2.212-2.495 2.25 16.376 2.212 8.178 2.213-18.121 2.213 3.012 2.212 13.657 2.25-23.102 2.176.786 2.176 6.524 2.213-20.528 2.213-1.112 2.212 19.847 2.213-5.517 2.25 18.423 2.212 6.433h2.213l2.212-6.648 2.213 4.309 2.25-4.972 2.14-25.065 2.14 6.935 2.212.965 2.213-5.06 2.213 22.586 2.212-14.105 2.25 14.622 2.212-10.791 2.213 8.159 2.213 1.209 2.212 43.825 2.25-34.8 2.14 20.523 2.14-4.73 2.212 2.982 2.213-.643 2.213 10.615 2.213-15.88 2.249-22.516 2.212 13.315 2.213-20.041 2.213 29.409 2.212 20.012 2.25-4.68 2.14-8.167 2.14-25.462 2.213 27.664 2.212-11.58 2.213 17.02 2.213-33.689 2.249 30.413 2.212-29.36 2.213-27.372 2.213.176 2.213 30.822 2.249-30.705 2.176-7.432 2.177-33.508 2.212-27.772 2.213-21.65 2.213 14.398 2.213 32.684 2.249 29.536 2.212 22.088 2.213 13.296 2.213-9.67 2.212 24.584 2.25-80.126 2.14 6.61 2.14.7 2.213 8.949 2.212 9.475 2.213 17.72 2.213 36.087 2.249-19.008 2.212-14.66 2.213 2.67 2.213 10.02 2.213 7.819 2.249-7.896 2.14 4.783h0" clip-path="url(#pb297fc795d)" style="fill:none;stroke:#1f77b4;stroke-width:1.5;stroke-linecap:square" id="line2d_25"/></g></g><defs><clipPath id="pb297fc795d"><path d="M32.015 57.838h357.12V323.95H32.015z"/></clipPath></defs></svg>