<svg xmlns:xlink="http://www.w3.org/1999/xlink" width="655.122" height="489.243" viewBox="0 0 491.342 366.932" xmlns="http://www.w3.org/2000/svg"><defs><style>*{stroke-linejoin:round;stroke-linecap:butt}</style></defs><g id="figure_1"><path d="M0 366.932h491.342V0H0v366.932z" style="fill:none" id="patch_1"/><g id="axes_1"><path d="M21.382 323.405h357.12V57.293H21.382v266.112z" style="fill:none" id="patch_2"/><g id="matplotlib.axis_1"><g id="xtick_1"><g id="line2d_1"><defs><path id="m04ebd1cf63" d="M0 0v3.5" style="stroke:#b0b0b0;stroke-width:.4"/></defs><use xlink:href="#m04ebd1cf63" x="55.32" y="323.405" style="fill:#b0b0b0;stroke:#b0b0b0;stroke-width:.4"/></g><g style="fill:#b0b0b0" transform="matrix(.14 0 0 -.14 40.957 340.345)" id="text_1"><defs><path id="MyriadPro-Regular-32" d="M2944 0v467H1075v13l333 307c877 845 1434 1466 1434 2234 0 595-378 1209-1274 1209-480 0-890-179-1178-422l180-397c192 160 505 352 883 352 621 0 825-390 825-813-6-627-486-1164-1548-2176L288 346V0h2656z" transform="scale(.01563)"/><path id="MyriadPro-Regular-30" d="M1677 4230c-845 0-1447-768-1447-2163C243 691 794-70 1606-70c922 0 1447 780 1447 2195 0 1325-499 2105-1376 2105zm-32-435c582 0 845-672 845-1696 0-1062-276-1734-852-1734-512 0-844 614-844 1696 0 1133 358 1734 851 1734z" transform="scale(.01563)"/><path id="MyriadPro-Regular-31" d="M1510 0h544v4160h-480l-908-486 108-429 724 390h12V0z" transform="scale(.01563)"/></defs><use xlink:href="#MyriadPro-Regular-32"/><use xlink:href="#MyriadPro-Regular-30" x="51.3"/><use xlink:href="#MyriadPro-Regular-31" x="102.6"/><use xlink:href="#MyriadPro-Regular-30" x="153.9"/></g></g><g id="xtick_2"><use xlink:href="#m04ebd1cf63" x="108.6" y="323.405" style="fill:#b0b0b0;stroke:#b0b0b0;stroke-width:.4" id="line2d_2"/><g style="fill:#b0b0b0" transform="matrix(.14 0 0 -.14 94.237 340.345)" id="text_2"><use xlink:href="#MyriadPro-Regular-32"/><use xlink:href="#MyriadPro-Regular-30" x="51.3"/><use xlink:href="#MyriadPro-Regular-31" x="102.6"/><use xlink:href="#MyriadPro-Regular-32" x="153.9"/></g></g><g id="xtick_3"><use xlink:href="#m04ebd1cf63" x="161.952" y="323.405" style="fill:#b0b0b0;stroke:#b0b0b0;stroke-width:.4" id="line2d_3"/><g style="fill:#b0b0b0" transform="matrix(.14 0 0 -.14 147.59 340.345)" id="text_3"><defs><path id="MyriadPro-Regular-34" d="M2560 0v1133h582v441h-582v2586h-608L96 1504v-371h1933V0h531zM666 1574v13l1017 1415c115 192 218 371 346 614h19c-13-218-19-435-19-653V1574H666z" transform="scale(.01563)"/></defs><use xlink:href="#MyriadPro-Regular-32"/><use xlink:href="#MyriadPro-Regular-30" x="51.3"/><use xlink:href="#MyriadPro-Regular-31" x="102.6"/><use xlink:href="#MyriadPro-Regular-34" x="153.9"/></g></g><g id="xtick_4"><use xlink:href="#m04ebd1cf63" x="215.232" y="323.405" style="fill:#b0b0b0;stroke:#b0b0b0;stroke-width:.4" id="line2d_4"/><g style="fill:#b0b0b0" transform="matrix(.14 0 0 -.14 200.869 340.345)" id="text_4"><defs><path id="MyriadPro-Regular-36" d="M2662 4224c-102 0-243-6-409-32-525-64-986-275-1331-614-410-410-704-1056-704-1876C218 621 800-70 1690-70c864 0 1382 704 1382 1465 0 813-518 1344-1254 1344-461 0-807-217-1005-480h-19c96 685 563 1331 1446 1479 160 25 307 32 422 25v461zM1690 365c-589 0-903 505-916 1190 0 103 26 186 64 250 154 301 468 512 807 512 518 0 857-359 857-954s-326-998-806-998h-6z" transform="scale(.01563)"/></defs><use xlink:href="#MyriadPro-Regular-32"/><use xlink:href="#MyriadPro-Regular-30" x="51.3"/><use xlink:href="#MyriadPro-Regular-31" x="102.6"/><use xlink:href="#MyriadPro-Regular-36" x="153.9"/></g></g><g id="xtick_5"><use xlink:href="#m04ebd1cf63" x="268.585" y="323.405" style="fill:#b0b0b0;stroke:#b0b0b0;stroke-width:.4" id="line2d_5"/><g style="fill:#b0b0b0" transform="matrix(.14 0 0 -.14 254.222 340.345)" id="text_5"><defs><path id="MyriadPro-Regular-38" d="M1062 2170c-512-218-825-589-825-1114C237 448 762-70 1632-70c794 0 1414 486 1414 1209 0 506-320 871-838 1075v20c512 243 685 620 685 972 0 519-403 1024-1210 1024-729 0-1286-448-1286-1107 0-358 198-717 659-934l6-19zm583-1831c-531 0-851 371-832 794 0 397 262 717 749 857 563-160 915-403 915-908 0-423-327-743-832-743zm6 3488c506 0 704-345 704-678 0-378-275-634-633-755-480 128-794 352-794 768 0 358 256 665 723 665z" transform="scale(.01563)"/></defs><use xlink:href="#MyriadPro-Regular-32"/><use xlink:href="#MyriadPro-Regular-30" x="51.3"/><use xlink:href="#MyriadPro-Regular-31" x="102.6"/><use xlink:href="#MyriadPro-Regular-38" x="153.9"/></g></g><g id="xtick_6"><use xlink:href="#m04ebd1cf63" x="321.865" y="323.405" style="fill:#b0b0b0;stroke:#b0b0b0;stroke-width:.4" id="line2d_6"/><g style="fill:#b0b0b0" transform="matrix(.14 0 0 -.14 307.501 340.345)" id="text_6"><use xlink:href="#MyriadPro-Regular-32"/><use xlink:href="#MyriadPro-Regular-30" x="51.3"/><use xlink:href="#MyriadPro-Regular-32" x="102.6"/><use xlink:href="#MyriadPro-Regular-30" x="153.9"/></g></g><g id="xtick_7"><use xlink:href="#m04ebd1cf63" x="375.217" y="323.405" style="fill:#b0b0b0;stroke:#b0b0b0;stroke-width:.4" id="line2d_7"/><g style="fill:#b0b0b0" transform="matrix(.14 0 0 -.14 360.854 340.345)" id="text_7"><use xlink:href="#MyriadPro-Regular-32"/><use xlink:href="#MyriadPro-Regular-30" x="51.3"/><use xlink:href="#MyriadPro-Regular-32" x="102.6"/><use xlink:href="#MyriadPro-Regular-32" x="153.9"/></g></g></g><g id="matplotlib.axis_2"><g id="ytick_1"><path d="M21.382 323.405h357.12" clip-path="url(#p0919f95778)" style="fill:none;stroke:#b0b0b0;stroke-width:.3;stroke-linecap:square" id="line2d_8"/><g id="line2d_9"><defs><path id="mc761112388" d="M0 0h-3.5" style="stroke:#b0b0b0;stroke-width:.3"/></defs><use xlink:href="#mc761112388" x="21.382" y="323.405" style="fill:#b0b0b0;stroke:#b0b0b0;stroke-width:.3"/></g><use xlink:href="#MyriadPro-Regular-30" style="fill:#b0b0b0" transform="matrix(.14 0 0 -.14 7.2 328.375)" id="text_8"/></g><g id="ytick_2"><path d="M21.382 265.193h357.12" clip-path="url(#p0919f95778)" style="fill:none;stroke:#b0b0b0;stroke-width:.3;stroke-linecap:square" id="line2d_10"/><use xlink:href="#mc761112388" x="21.382" y="265.193" style="fill:#b0b0b0;stroke:#b0b0b0;stroke-width:.3" id="line2d_11"/><use xlink:href="#MyriadPro-Regular-31" style="fill:#b0b0b0" transform="matrix(.14 0 0 -.14 7.2 270.163)" id="text_9"/></g><g id="ytick_3"><path d="M21.382 206.981h357.12" clip-path="url(#p0919f95778)" style="fill:none;stroke:#b0b0b0;stroke-width:.3;stroke-linecap:square" id="line2d_12"/><use xlink:href="#mc761112388" x="21.382" y="206.981" style="fill:#b0b0b0;stroke:#b0b0b0;stroke-width:.3" id="line2d_13"/><use xlink:href="#MyriadPro-Regular-32" style="fill:#b0b0b0" transform="matrix(.14 0 0 -.14 7.2 211.951)" id="text_10"/></g><g id="ytick_4"><path d="M21.382 148.77h357.12" clip-path="url(#p0919f95778)" style="fill:none;stroke:#b0b0b0;stroke-width:.3;stroke-linecap:square" id="line2d_14"/><use xlink:href="#mc761112388" x="21.382" y="148.769" style="fill:#b0b0b0;stroke:#b0b0b0;stroke-width:.3" id="line2d_15"/><g style="fill:#b0b0b0" transform="matrix(.14 0 0 -.14 7.2 153.74)" id="text_11"><defs><path id="MyriadPro-Regular-33" d="M269 211C474 77 883-70 1350-70c999 0 1517 582 1517 1248 0 582-416 966-928 1068v13c512 186 768 551 768 979 0 506-371 992-1190 992-448 0-871-160-1088-320l147-409c179 128 499 275 832 275 518 0 730-294 730-627 0-493-519-704-928-704H896v-423h314c544 0 1068-249 1075-832 6-345-218-806-941-806-390 0-762 160-922 262L269 211z" transform="scale(.01563)"/></defs><use xlink:href="#MyriadPro-Regular-33"/></g></g><g id="ytick_5"><path d="M21.382 90.557h357.12" clip-path="url(#p0919f95778)" style="fill:none;stroke:#b0b0b0;stroke-width:.3;stroke-linecap:square" id="line2d_16"/><use xlink:href="#mc761112388" x="21.382" y="90.557" style="fill:#b0b0b0;stroke:#b0b0b0;stroke-width:.3" id="line2d_17"/><use xlink:href="#MyriadPro-Regular-34" style="fill:#b0b0b0" transform="matrix(.14 0 0 -.14 7.2 95.527)" id="text_12"/></g></g><path d="m38.57 323.405 2.226-1.94 2.226 1.94h17.734l2.228-1.94 2.226.062 2.226 1.878h19.96l2.227-1.94 2.226.062 2.227 1.878h2.226l2.262-1.878 2.226-2.003 2.228 3.881h4.45l2.263-1.878 2.19 1.878 2.188-1.878 2.227-.062 2.226 1.94h2.226l2.226-3.755 2.263 3.755h8.904l2.263-1.878 2.153-.2 2.151.2 2.228-2.003 2.226 3.881 2.226-3.88 2.226 2.002 2.263 1.878 4.454-3.755 2.224 3.755 4.489-3.755 2.153 1.676 2.151-1.676 2.228-.126 2.226 3.881 4.452-3.755 2.263 3.755 2.226-1.94 2.227-3.693 2.225-.188 2.226 3.943 2.263-1.877 2.153-.403 2.151 2.28 2.228-2.003 2.226-11.141 2.226 11.141 2.226-1.752 2.263 1.878 2.226-.126 2.227-1.752 2.225-2.128 2.226.25 2.262-5.634 2.19 7.123 2.188-5.245 2.228 11.267 2.226-9.389 2.226-6.134 2.226 9.89 2.262-9.39 2.226 11.142 2.228-3.63 2.225-8.012 2.226 9.89 2.262-3.756 2.153-3.085 2.152 6.84 2.227 1.753 2.227 2.003 2.226-5.883 2.226 7.761 2.262-3.755 2.226-4.006 2.228 4.006 2.224-5.947 2.227 7.824 2.262-3.755 2.153-2.683 2.152-2.95 2.227-.376 2.226 6.009 2.226-2.128 2.227-1.628 2.262 5.634 2.226-9.828 2.228 11.705 2.224-.062 2.226-9.327 2.263 3.756 2.153-2.884 2.152 2.884 2.227-4.131 2.226 6.009 2.226 3.693 2.226-7.449 2.263 5.634 2.226-2.066 2.228-3.568 2.224 5.508 2.226 3.881 2.263-9.389 2.19-2.655 2.187 4.533 2.228-4.131 2.226-7.136 2.226 7.136 2.226 4.13 2.263-1.877 2.226-4.194 2.227 2.316 2.225 5.446 2.226-1.69h2.263l2.153-2.884 2.151-6.505 2.228 13.02 2.226-7.387 2.226-4.256 2.226 6.134 2.263 5.634 2.226-2.066 2.227-5.446 2.225 5.446 2.226.188 2.262-3.756 2.154-7.243h0" clip-path="url(#p0919f95778)" style="fill:none;stroke:#9467bd;stroke-width:1.5;stroke-linecap:square" id="line2d_18"/><path d="m21.382 323.405 1.716-1.878 2.225-2.003 2.226 3.881 2.262-16.9 2.154 14.821 2.151-1.676 2.228-4.006 2.226 4.006 2.226-.126 2.226.126 2.262-1.878 2.227-6.01 2.227-3.38 2.225 11.142 2.226-5.508 2.262 3.756 2.153-4.762 2.152-.872 2.228-12.018 2.226 8.263 2.226-.501 2.226-10.766 2.262 16.9 2.226-.313 2.228-1.565 2.225 11.267 2.226-9.389 2.262 1.878 2.153 3.353 2.152-1.475 2.227-2.128 2.226-9.14 2.227 13.02 2.226-1.752 2.262 1.878 2.226-7.887 2.228 9.764 2.224-.062 2.226-9.327 2.263-5.633 2.19 14.893 2.188-9.26 2.227 5.446 2.226 2.066 2.226-.126 2.226 2.003 2.263-1.877 2.226 1.815 2.228-3.693 2.224-2.128 2.226-1.628h2.263l2.153 1.073 2.151 2.683 2.228-4.069 2.226.313 2.226 3.568 2.226.188h2.263l2.226-6.01 2.228.376 2.224 9.327 2.226-3.693 2.263-7.512 2.153 6.908 2.151-18.174 2.228 10.828 2.226 2.316 2.226 5.446 2.226-7.324h2.263l2.226-4.318 2.227 2.44 2.225 3.38 2.226-9.013 2.263 11.267 2.153-3.085 2.151 3.085 2.228-8.074 2.226-1.315 2.226 3.255 2.226 8.012 2.263-1.878 2.226-.313 2.227 2.19 2.225-8.011 2.226 4.256 2.262 7.512 2.19-2.267 2.188 2.267 2.228-5.947 2.226-12.832 2.226 12.832 2.226 4.069 2.262-7.512 2.226 3.443 2.228 2.19 2.225-.25 2.226-5.383 2.262 1.878 2.153 2.951 2.152-8.584 2.227 7.198 2.227-5.32 2.226 9.2 2.226-5.445h2.262l2.226 1.565 2.228 2.19 2.224-8.011 2.227 8.012 2.262-1.878 2.153-7.243 2.152 12.877 2.227-5.947 2.226 2.19 2.226-2.19 2.227-3.443 2.262 7.512 2.226-2.128 2.228-7.261 2.224 7.26 2.226 5.884 2.263-3.755 2.153-15.157 2.152 9.523 2.227 7.386 2.226-13.02 2.226 14.96 2.226-3.692 2.263-5.634 2.226-4.256 2.228 13.645 2.224-5.883 2.226 5.883 2.263-11.267 2.19 5.116 2.187-1.36 2.228-15.836 2.226 15.836 2.226-.313 2.226-9.076 2.263 16.9 2.226-11.705 2.227 4.194 2.225 5.508 2.226-5.508 2.263-15.022 4.304 11.266 2.228-.438 2.226-1.44 2.226-2.44 2.226-1.315 2.263 1.878 2.226 13.02 2.227-13.02 2.225 1.377 2.226 6.134 2.262-1.878 2.154-15.76h0" clip-path="url(#p0919f95778)" style="fill:none;stroke:#d62728;stroke-width:1.5;stroke-linecap:square" id="line2d_19"/><path d="m21.382 319.767 1.716 3.638h8.867l2.151-1.878 2.228 1.878h2.226l2.226-3.88 2.226 2.002 2.262-3.755 2.227 5.633h2.227l2.225-3.88 2.226-3.631 2.262 3.756 2.153 1.676 2.152-9.188 2.228 5.446 2.226-1.69 2.226 5.57 2.226-1.814 2.262-7.512 2.226 3.506 2.228.25 2.225 1.69 2.226-1.69 2.262-5.634 2.153 6.908 2.152-1.274 2.227-6.072 2.226 9.828 2.227-2.066 2.226-1.69 2.262-3.756 2.226 5.446 2.228.188 2.224-13.77 2.226 11.892 2.263-3.756 2.19-.777 2.188-2.978 2.227 5.32 2.226-3.443 2.226 5.384 2.226-1.628 2.263-5.633 2.226-4.382 2.228-1.252 2.224-.688 2.226 2.566h2.263l2.153-6.17 2.151 4.292 2.228 5.133 2.226.5 2.226-.5 2.226-7.01 2.263 15.022 2.226-19.654 2.228 19.654 2.224-8.012 2.226.5 2.263 5.634 2.153 3.152 2.151-14.419 2.228 7.073 2.226 2.316 2.226-10.077 2.226 13.833 2.263-3.756 2.226-8.137 2.227 8.137 2.225-.375 2.226.375h2.263l2.153-17.839 2.151 14.084 2.228-2.441 2.226 6.196 2.226-12.018 2.226 12.018 2.263-3.755 2.226-8.263 2.227 15.774L211.875 304l2.226.626 2.262 1.878 2.19 4.856 2.188 6.41 2.228-6.008 2.226-1.503 2.226 1.503 2.226 2.253 2.262-15.022 2.226-12.456 2.228 27.478 2.225-19.717 2.226 14.084h2.262l2.153 2.548 2.152-6.304 2.227 9.076 2.227-9.076 2.226-12.268 2.226 16.024 2.262-13.145 2.226 4.882 2.228.751 2.224 10.892 2.227-1.503 2.262-22.533 2.153 16.967 2.152-3.823 2.227 3.13 2.226-10.64 2.226 16.461 2.227-5.195 2.262 3.756 2.226 3.38 2.228 2.253 2.224 3.568 2.226-7.324 2.263-1.877 2.153.47 2.152 10.797 2.227-11.768 2.226 6.134 2.226-10.015 2.226 13.77 2.263-16.9 2.226 18.653 2.228-11.141 2.224-2.441 2.226 11.83 2.263-20.656 2.19 10.23 2.187 2.914 2.228-10.14 2.226 10.14 2.226-17.901 2.226 6.635 2.263 7.51 2.226-.562 2.227 6.196 2.225-6.196 2.226-3.193 2.263-5.633 2.153-15.29 2.151 30.312 2.228 3.506 2.226-5.384 2.226-14.02 2.226 2.754 2.263 5.633 2.226 1.315 2.227-12.582 2.225 4.82 2.226 10.203 2.262-9.39 2.154-4.694h0" clip-path="url(#p0919f95778)" style="fill:none;stroke:#2ca02c;stroke-width:1.5;stroke-linecap:square" id="line2d_20"/><g style="fill:#1f77b4" transform="matrix(.14 0 0 -.14 389.215 83.746)" id="text_13"><defs><path id="MyriadPro-Regular-6c" d="M467 0h563v4544H467V0z" transform="scale(.01563)"/><path id="MyriadPro-Regular-61" d="M2643 1901c0 621-230 1267-1177 1267-391 0-762-109-1018-275l128-371c218 140 518 230 806 230 634 0 704-461 704-717v-64C890 1978 224 1568 224 819c0-448 320-889 947-889 442 0 775 217 947 460h20l44-390h512c-38 211-51 474-51 742v1159zm-544-858c0-57-13-121-32-179-89-262-345-518-749-518-288 0-531 172-531 537 0 602 698 711 1312 698v-538z" transform="scale(.01563)"/><path id="MyriadPro-Regular-74" d="M595 3667v-569H115v-429h480V979c0-365 58-640 218-806C947 19 1158-70 1421-70c217 0 390 38 499 83l-26 422c-83-25-172-38-326-38-314 0-422 217-422 601v1671h806v429h-806v742l-551-173z" transform="scale(.01563)"/><path id="MyriadPro-Regular-65" d="M2957 1446c6 58 19 148 19 263 0 569-269 1459-1280 1459-902 0-1453-736-1453-1670C243 563 813-70 1766-70c493 0 832 108 1031 198l-96 403c-211-89-455-160-858-160-563 0-1049 314-1062 1075h2176zM787 1850c45 390 295 915 864 915 634 0 787-557 781-915H787z" transform="scale(.01563)"/><path id="MyriadPro-Regular-78" d="m102 3098 1050-1517L51 0h621l448 698c115 185 224 345 326 537h13c109-185 211-358 333-537L2246 0h640L1798 1600l1056 1498h-608l-435-660c-102-166-205-326-307-512h-19c-103 173-199 333-314 506l-441 666H102z" transform="scale(.01563)"/></defs><use xlink:href="#MyriadPro-Regular-6c"/><use xlink:href="#MyriadPro-Regular-61" x="23.6"/><use xlink:href="#MyriadPro-Regular-74" x="71.8"/><use xlink:href="#MyriadPro-Regular-65" x="104.9"/><use xlink:href="#MyriadPro-Regular-78" x="155"/></g><g style="fill:#ff7f0e" transform="matrix(.14 0 0 -.14 389.215 158.59)" id="text_14"><defs><path id="MyriadPro-Regular-6d" d="M467 0h551v1869c0 96 12 192 44 275 90 282 346 563 698 563 429 0 646-358 646-851V0h551v1914c0 102 19 204 45 281 96 275 345 512 665 512 455 0 672-358 672-953V0h551v1824c0 1075-608 1344-1018 1344-294 0-499-77-685-218-128-96-249-230-345-403h-13c-135 365-455 621-877 621-512 0-800-275-973-570h-19l-26 500H442c19-256 25-519 25-839V0z" transform="scale(.01563)"/><path id="MyriadPro-Regular-72" d="M467 0h557v1651c0 96 13 186 26 263 76 422 358 723 755 723 77 0 134-7 192-19v531c-51 13-96 19-160 19-378 0-717-262-858-678h-25l-20 608H442c19-288 25-602 25-967V0z" transform="scale(.01563)"/><path id="MyriadPro-Regular-6b" d="M1024 4544H467V0h557v1165l288 320L2381 0h685L1702 1824l1197 1274h-678l-909-1069c-90-109-198-243-275-352h-13v2867z" transform="scale(.01563)"/><path id="MyriadPro-Regular-64" d="M2579 4544V2694h-13c-140 250-460 474-934 474-755 0-1395-634-1389-1664C243 563 819-70 1568-70c506 0 883 262 1056 608h13l25-538h506c-19 211-26 525-26 800v3744h-563zm0-3245c0-89-6-166-25-243-103-422-448-672-826-672-608 0-915 518-915 1146 0 684 345 1196 928 1196 422 0 729-294 813-652 19-71 25-167 25-237v-538z" transform="scale(.01563)"/><path id="MyriadPro-Regular-6f" d="M1779 3168c-857 0-1536-608-1536-1645C243 544 890-70 1728-70c749 0 1542 499 1542 1644 0 948-601 1594-1491 1594zm-13-422c666 0 928-666 928-1191 0-697-403-1203-940-1203-551 0-941 512-941 1190 0 589 288 1204 953 1204z" transform="scale(.01563)"/><path id="MyriadPro-Regular-77" d="M115 3098 1050 0h512l499 1472c109 333 205 653 281 1024h13c77-365 167-672 275-1018L3104 0h512l998 3098h-556l-442-1556c-102-364-186-691-237-1004h-19c-70 313-160 640-275 1011l-480 1549h-474l-505-1575c-103-339-205-672-276-985h-19c-57 320-141 640-230 985L691 3098H115z" transform="scale(.01563)"/><path id="MyriadPro-Regular-6e" d="M467 0h563v1862c0 96 13 192 39 263 96 313 384 576 755 576 531 0 717-416 717-915V0h563v1850c0 1062-666 1318-1094 1318-512 0-871-288-1024-582h-13l-32 512H442c19-256 25-519 25-839V0z" transform="scale(.01563)"/></defs><use xlink:href="#MyriadPro-Regular-6d"/><use xlink:href="#MyriadPro-Regular-61" x="83.4"/><use xlink:href="#MyriadPro-Regular-72" x="131.6"/><use xlink:href="#MyriadPro-Regular-6b" x="164.3"/><use xlink:href="#MyriadPro-Regular-64" x="211.2"/><use xlink:href="#MyriadPro-Regular-6f" x="267.6"/><use xlink:href="#MyriadPro-Regular-77" x="322.5"/><use xlink:href="#MyriadPro-Regular-6e" x="396.1"/></g><g style="fill:#2ca02c" transform="matrix(.14 0 0 -.14 389.215 288.734)" id="text_15"><defs><path id="MyriadPro-Regular-73" d="M250 147C467 19 781-70 1120-70c736 0 1158 390 1158 934 0 461-275 730-812 934-404 154-589 269-589 525 0 231 185 423 518 423 288 0 512-103 634-180l141 410c-173 102-448 192-762 192-666 0-1069-410-1069-909 0-371 263-678 819-877 416-153 576-300 576-569 0-256-192-461-601-461-282 0-576 115-743 224L250 147z" transform="scale(.01563)"/><path id="MyriadPro-Regular-75" d="M3059 3098h-563V1197c0-103-19-205-51-288-103-250-365-512-743-512-512 0-691 397-691 985v1716H448V1286C448 198 1030-70 1517-70c550 0 877 326 1024 576h13l32-506h499c-19 243-26 525-26 845v2253z" transform="scale(.01563)"/><path id="MyriadPro-Regular-63" d="M2579 538c-160-71-371-154-691-154-614 0-1075 442-1075 1158 0 647 384 1172 1094 1172 307 0 519-71 653-148l128 436c-154 76-448 160-781 160-1011 0-1664-692-1664-1645C243 570 851-70 1786-70c416 0 742 108 889 185l-96 423z" transform="scale(.01563)"/></defs><use xlink:href="#MyriadPro-Regular-72"/><use xlink:href="#MyriadPro-Regular-65" x="32.7"/><use xlink:href="#MyriadPro-Regular-73" x="82.8"/><use xlink:href="#MyriadPro-Regular-74" x="122.4"/><use xlink:href="#MyriadPro-Regular-72" x="155.5"/><use xlink:href="#MyriadPro-Regular-75" x="188.2"/><use xlink:href="#MyriadPro-Regular-63" x="243.3"/><use xlink:href="#MyriadPro-Regular-74" x="288.1"/><use xlink:href="#MyriadPro-Regular-75" x="321.2"/><use xlink:href="#MyriadPro-Regular-72" x="376.3"/><use xlink:href="#MyriadPro-Regular-65" x="409"/><use xlink:href="#MyriadPro-Regular-64" x="459.1"/><use xlink:href="#MyriadPro-Regular-74" x="515.5"/><use xlink:href="#MyriadPro-Regular-65" x="548.6"/><use xlink:href="#MyriadPro-Regular-78" x="598.7"/><use xlink:href="#MyriadPro-Regular-74" x="645"/></g><g style="fill:#d62728" transform="matrix(.14 0 0 -.14 389.215 302.734)" id="text_16"><use xlink:href="#MyriadPro-Regular-74"/><use xlink:href="#MyriadPro-Regular-65" x="33.1"/><use xlink:href="#MyriadPro-Regular-78" x="83.2"/></g><g style="fill:#9467bd" transform="matrix(.14 0 0 -.14 389.215 316.734)" id="text_17"><defs><path id="MyriadPro-Regular-69" d="M1030 0v3098H467V0h563zM749 4320c-205 0-352-154-352-352 0-192 141-346 339-346 224 0 365 154 358 346 0 198-134 352-345 352z" transform="scale(.01563)"/></defs><use xlink:href="#MyriadPro-Regular-61"/><use xlink:href="#MyriadPro-Regular-73" x="48.2"/><use xlink:href="#MyriadPro-Regular-63" x="87.8"/><use xlink:href="#MyriadPro-Regular-69" x="132.6"/><use xlink:href="#MyriadPro-Regular-69" x="156"/><use xlink:href="#MyriadPro-Regular-64" x="179.4"/><use xlink:href="#MyriadPro-Regular-6f" x="235.8"/><use xlink:href="#MyriadPro-Regular-63" x="290.7"/></g><g style="fill:#b0b0b0" transform="matrix(.09716 0 0 -.09716 21.382 357.303)" id="text_18"><defs><path id="MyriadPro-Regular-40" d="M2867 1632c-70-397-409-870-781-870-281 0-422 204-422 486 0 621 454 1152 1018 1152 147 0 256-26 320-45l-135-723zm384-1773c-262-147-601-224-966-224-947 0-1645 666-1645 1735 0 1299 877 2131 1920 2131 992 0 1549-672 1549-1600 0-743-365-1178-691-1171-212 6-288 230-192 716l217 1159c-166 77-409 134-685 134-889 0-1516-723-1516-1517 0-505 320-806 691-806 384 0 678 186 902 563h26c-19-390 217-563 473-563 602 0 1140 563 1140 1523 0 1069-749 1856-1863 1856-1421 0-2336-1145-2336-2464C275 96 1165-672 2214-672c429 0 788 70 1140 256l-103 275z" transform="scale(.01563)"/><path id="MyriadPro-Regular-68" d="M467 0h563v1869c0 109 7 192 39 269 102 307 390 563 755 563 531 0 717-423 717-922V0h563v1843c0 1069-666 1325-1082 1325-211 0-409-64-576-160-172-96-313-237-403-397h-13v1933H467V0z" transform="scale(.01563)"/><path id="MyriadPro-Regular-2f" d="m422-256 1792 4640h-435L-6-256h428z" transform="scale(.01563)"/><path id="MyriadPro-Regular-2d" d="M192 1939v-416h1581v416H192z" transform="scale(.01563)"/><path id="MyriadPro-Regular-7c" d="M550 4800v-6400h429v6400H550z" transform="scale(.01563)"/><path id="MyriadPro-Regular-4e" d="M1011 0v1843c0 717-13 1235-45 1779l20 7c217-467 505-960 806-1440L3162 0h563v4314h-525V2509c0-672 13-1197 64-1773l-13-6c-205 441-454 896-774 1401L1094 4314H486V0h525z" transform="scale(.01563)"/><path id="MyriadPro-Regular-53" d="M269 211C499 58 954-70 1370-70c1017 0 1510 582 1510 1248 0 633-371 985-1101 1267-595 230-857 429-857 832 0 294 224 646 812 646 391 0 679-128 820-205l153 455c-192 109-512 211-953 211-839 0-1396-499-1396-1171 0-608 436-973 1140-1223 582-224 812-454 812-857 0-435-332-736-902-736-384 0-749 128-998 281L269 211z" transform="scale(.01563)"/><path id="MyriadPro-Regular-f6" d="M1165 3648c185 0 313 154 313 326 0 186-134 327-313 327s-327-147-327-327c0-172 135-326 320-326h7zm1184 0c185 0 313 154 313 326 0 186-134 327-313 327s-320-147-320-327c0-172 128-326 313-326h7zm-570-480c-857 0-1536-608-1536-1645C243 544 890-70 1728-70c749 0 1542 499 1542 1644 0 948-601 1594-1491 1594zm-13-422c666 0 928-666 928-1191 0-697-403-1203-940-1203-551 0-941 512-941 1190 0 589 288 1204 953 1204z" transform="scale(.01563)"/><path id="MyriadPro-Regular-43" d="M3386 582c-224-108-570-179-909-179-1050 0-1658 679-1658 1735 0 1132 672 1779 1683 1779 359 0 660-77 871-179l134 454c-147 77-486 192-1024 192-1337 0-2253-915-2253-2266C230 704 1146-70 2362-70c524 0 934 108 1139 211l-115 441z" transform="scale(.01563)"/><path id="MyriadPro-Regular-42" d="M486 13c186-26 480-51 864-51 704 0 1191 128 1492 403 217 211 364 493 364 864 0 640-480 979-889 1081v13c454 167 729 531 729 947 0 340-134 596-358 762-269 218-627 314-1184 314-390 0-774-39-1018-90V13zm557 3865c90 20 237 39 493 39 563 0 947-199 947-704 0-416-345-723-934-723h-506v1388zm0-1811h461c608 0 1114-243 1114-832 0-627-532-838-1108-838-198 0-358 6-467 25v1645z" transform="scale(.01563)"/><path id="MyriadPro-Regular-59" d="M2010 0v1837l1446 2477h-634l-620-1191c-167-326-314-608-436-889h-12c-135 300-263 563-429 889L717 4314H83l1363-2484V0h564z" transform="scale(.01563)"/></defs><use xlink:href="#MyriadPro-Regular-40"/><use xlink:href="#MyriadPro-Regular-6e" x="73.7"/><use xlink:href="#MyriadPro-Regular-73" x="129.2"/><use xlink:href="#MyriadPro-Regular-63" x="168.8"/><use xlink:href="#MyriadPro-Regular-68" x="213.6"/><use xlink:href="#MyriadPro-Regular-6c" x="269.1"/><use xlink:href="#MyriadPro-Regular-6f" x="292.7"/><use xlink:href="#MyriadPro-Regular-65" x="347.6"/><use xlink:href="#MyriadPro-Regular-20" x="397.7"/><use xlink:href="#MyriadPro-Regular-2f" x="418.9"/><use xlink:href="#MyriadPro-Regular-20" x="453.2"/><use xlink:href="#MyriadPro-Regular-73" x="474.4"/><use xlink:href="#MyriadPro-Regular-6f" x="514"/><use xlink:href="#MyriadPro-Regular-2d" x="568.9"/><use xlink:href="#MyriadPro-Regular-74" x="599.6"/><use xlink:href="#MyriadPro-Regular-72" x="632.7"/><use xlink:href="#MyriadPro-Regular-65" x="665.4"/><use xlink:href="#MyriadPro-Regular-6e" x="715.5"/><use xlink:href="#MyriadPro-Regular-64" x="771"/><use xlink:href="#MyriadPro-Regular-73" x="827.4"/><use xlink:href="#MyriadPro-Regular-20" x="867"/><use xlink:href="#MyriadPro-Regular-7c" x="888.2"/><use xlink:href="#MyriadPro-Regular-20" x="912.1"/><use xlink:href="#MyriadPro-Regular-4e" x="933.3"/><use xlink:href="#MyriadPro-Regular-69" x="999.1"/><use xlink:href="#MyriadPro-Regular-63" x="1022.5"/><use xlink:href="#MyriadPro-Regular-6f" x="1067.3"/><use xlink:href="#MyriadPro-Regular-20" x="1122.2"/><use xlink:href="#MyriadPro-Regular-53" x="1143.4"/><use xlink:href="#MyriadPro-Regular-63" x="1192.7"/><use xlink:href="#MyriadPro-Regular-68" x="1237.5"/><use xlink:href="#MyriadPro-Regular-6c" x="1293"/><use xlink:href="#MyriadPro-Regular-f6" x="1316.6"/><use xlink:href="#MyriadPro-Regular-6d" x="1371.5"/><use xlink:href="#MyriadPro-Regular-65" x="1454.9"/><use xlink:href="#MyriadPro-Regular-72" x="1505"/><use xlink:href="#MyriadPro-Regular-20" x="1537.7"/><use xlink:href="#MyriadPro-Regular-7c" x="1558.9"/><use xlink:href="#MyriadPro-Regular-20" x="1582.8"/><use xlink:href="#MyriadPro-Regular-43" x="1604"/><use xlink:href="#MyriadPro-Regular-43" x="1662"/><use xlink:href="#MyriadPro-Regular-20" x="1720"/><use xlink:href="#MyriadPro-Regular-42" x="1741.2"/><use xlink:href="#MyriadPro-Regular-59" x="1795.4"/></g><g style="fill:#b0b0b0" transform="matrix(.14 0 0 -.14 70.155 17.293)" id="text_19"><defs><path id="MyriadPro-Regular-44" d="M486 13c282-32 615-51 1012-51 838 0 1504 217 1907 620 403 397 621 973 621 1677 0 698-224 1197-608 1549-378 352-948 538-1748 538-441 0-844-39-1184-90V13zm557 3833c147 32 365 58 653 58 1178 0 1754-646 1747-1664 0-1165-646-1830-1837-1830-217 0-422 6-563 32v3404z" transform="scale(.01563)"/><path id="MyriadPro-Regular-79" d="M58 3098 1203 243c26-70 39-115 39-147s-20-77-45-134c-128-288-320-506-474-628-166-140-352-230-493-275l141-473c141 25 416 121 691 364 384 333 660 877 1063 1940l845 2208h-596l-614-1818c-77-224-141-461-198-646h-13c-51 185-128 428-199 633L672 3098H58z" transform="scale(.01563)"/><path id="MyriadPro-Regular-62" d="M467 800c0-275-13-589-25-800h486l26 512h19c230-410 589-582 1037-582 691 0 1388 550 1388 1657 7 941-537 1581-1305 1581-499 0-858-224-1056-570h-13v1946H467V800zm557 998c0 90 19 167 32 231 115 429 474 691 858 691 601 0 921-531 921-1152 0-710-352-1190-941-1190-409 0-736 268-844 659-13 64-26 134-26 205v556z" transform="scale(.01563)"/><path id="MyriadPro-Regular-66" d="M1082 0v2669h748v429h-748v166c0 474 121 896 601 896 160 0 275-32 359-70l76 435c-108 45-281 89-480 89-262 0-544-83-755-288-262-249-358-646-358-1081v-147H90v-429h435V0h557z" transform="scale(.01563)"/><path id="MyriadPro-Regular-71" d="M2579-1267h563v3513c0 320 7 589 20 852h-532l-19-468h-13c-153 301-473 538-953 538-653 0-1402-512-1402-1670C243 557 832-70 1555-70c499 0 845 243 1011 550h13v-1747zm0 2528c0-83-19-192-45-269-128-390-441-614-806-614-621 0-915 537-915 1152 0 697 352 1190 934 1190 423 0 723-294 807-640 19-70 25-160 25-237v-582z" transform="scale(.01563)"/><path id="MyriadPro-Regular-4f" d="M2234 4384c-1152 0-2004-896-2004-2266C230 813 1030-70 2170-70c1100 0 2003 787 2003 2272 0 1280-762 2182-1939 2182zm-26-454c928 0 1376-896 1376-1754 0-979-499-1792-1382-1792-877 0-1376 826-1376 1747 0 947 460 1799 1382 1799z" transform="scale(.01563)"/><path id="MyriadPro-Regular-76" d="M83 3098 1261 0h537l1216 3098h-588l-602-1741c-102-282-192-538-262-794h-20c-64 256-147 512-249 794L685 3098H83z" transform="scale(.01563)"/></defs><use xlink:href="#MyriadPro-Regular-44"/><use xlink:href="#MyriadPro-Regular-61" x="66.6"/><use xlink:href="#MyriadPro-Regular-69" x="114.8"/><use xlink:href="#MyriadPro-Regular-6c" x="138.2"/><use xlink:href="#MyriadPro-Regular-79" x="161.8"/><use xlink:href="#MyriadPro-Regular-20" x="208.9"/><use xlink:href="#MyriadPro-Regular-6e" x="230.1"/><use xlink:href="#MyriadPro-Regular-75" x="285.6"/><use xlink:href="#MyriadPro-Regular-6d" x="340.7"/><use xlink:href="#MyriadPro-Regular-62" x="424.1"/><use xlink:href="#MyriadPro-Regular-65" x="481"/><use xlink:href="#MyriadPro-Regular-72" x="531.1"/><use xlink:href="#MyriadPro-Regular-20" x="563.8"/><use xlink:href="#MyriadPro-Regular-6f" x="585"/><use xlink:href="#MyriadPro-Regular-66" x="639.9"/><use xlink:href="#MyriadPro-Regular-20" x="669.1"/><use xlink:href="#MyriadPro-Regular-71" x="690.3"/><use xlink:href="#MyriadPro-Regular-75" x="746.6"/><use xlink:href="#MyriadPro-Regular-65" x="801.7"/><use xlink:href="#MyriadPro-Regular-73" x="851.8"/><use xlink:href="#MyriadPro-Regular-74" x="891.4"/><use xlink:href="#MyriadPro-Regular-69" x="924.5"/><use xlink:href="#MyriadPro-Regular-6f" x="947.9"/><use xlink:href="#MyriadPro-Regular-6e" x="1002.8"/><use xlink:href="#MyriadPro-Regular-73" x="1058.3"/><use xlink:href="#MyriadPro-Regular-20" x="1097.9"/><use xlink:href="#MyriadPro-Regular-6f" x="1119.1"/><use xlink:href="#MyriadPro-Regular-6e" x="1174"/><use xlink:href="#MyriadPro-Regular-20" x="1229.5"/><use xlink:href="#MyriadPro-Regular-53" x="1250.7"/><use xlink:href="#MyriadPro-Regular-74" x="1300"/><use xlink:href="#MyriadPro-Regular-61" x="1333.1"/><use xlink:href="#MyriadPro-Regular-63" x="1381.3"/><use xlink:href="#MyriadPro-Regular-6b" x="1426.1"/><use xlink:href="#MyriadPro-Regular-4f" x="1473"/><use xlink:href="#MyriadPro-Regular-76" x="1541.9"/><use xlink:href="#MyriadPro-Regular-65" x="1590"/><use xlink:href="#MyriadPro-Regular-72" x="1640.1"/><use xlink:href="#MyriadPro-Regular-66" x="1672.8"/><use xlink:href="#MyriadPro-Regular-6c" x="1702"/><use xlink:href="#MyriadPro-Regular-6f" x="1725.6"/><use xlink:href="#MyriadPro-Regular-77" x="1780.5"/></g><path d="m21.382 297.937 1.716 14.201 2.225 7.386 2.226-7.386h2.262l2.154 9.188 2.151-11.066 2.228 7.324 2.226-3.568 2.226-4.194 2.226-1.44 2.262 1.878 2.227-.438 2.227.438 2.225 1.503 2.226-3.38 2.262-16.9 2.153 17.37 2.152-7.982 2.228 10.892 2.226-16.525 2.226 14.584 2.226-10.828 2.262-3.756 2.226 12.644 2.228-16.4 2.225-3.004 2.226 18.027 2.262-24.412 2.153 18.443 2.152-1.542 2.227-10.516 2.226-12.018 2.227 8.137 2.226 12.519 2.262-13.145 2.226 2.567 2.228 10.578 2.224-8.638 2.226 4.882 2.263-16.9 2.19 8.806 2.188-20.073 2.227-9.702 2.226 7.824 2.226 17.401 2.226-.5 4.49-30.546 2.227 2.378 2.224-21.782 2.226 14.271 2.263 11.267 2.153-42.586 2.151 21.93 2.228 8.7 2.226-29.356 2.226 27.416 2.226 12.018 2.263-20.656 2.226 14.46 2.228 13.708 2.224-40.874 2.226 16.462 2.263-13.145 2.153-4.426 2.151 25.082 2.228-8.45 2.226 14.084 2.226-19.905 2.226 23.66 2.263-24.411 2.226 14.334 2.227-4.945 2.225-10.578 2.226 23.722 2.263-45.067 2.153-10.395 2.151 29.173 2.228 4.507 2.226-12.018 2.226-5.446 2.226 20.468 2.263-30.044 2.226 15.398 2.227-.376 2.225-13.207 2.226 37.618 2.262-58.212 2.19-3.56 2.188 9.194 2.228 14.96 2.226 30.107 2.226-30.107 2.226 47.007 2.262-33.8 2.226-26.79 2.228 9.89 2.225 13.395 2.226 22.283 2.262-22.534 2.153-32.459 2.152.537 2.227 26.352 2.227-7.574 2.226-13.77 2.226 49.448 2.262-9.389 2.226-24.537 2.228 9.515 2.224-26.978 2.227 64.534 2.262-50.701 2.153 19.985 2.152 2.549 2.227-7.261 2.226-24.662 2.226 5.258 2.227 39.81 2.262-3.756 2.226-12.77 2.228-52.954 2.224 49.074 2.226 7.26 2.263-18.777 2.153-27.43 2.152 18.04 2.227 44.192 2.226-34.802 2.226 25.1 2.226-19.467 2.263 1.878 2.226-13.458 2.228-9.076 2.224 1.315 2.226 34.363 2.263-24.411 2.19-8.547 2.187 10.425 2.228-42.877 2.226-4.068 2.226-30.86 2.226 8.326 2.263 24.411 2.226.25 2.227 12.895 2.225 29.795 2.226-31.673 2.263-58.212 2.153 18.644 2.151-20.522 2.228 76.24 2.226-40.561 2.226 46.382 2.226-16.337 2.263-20.656 2.226-13.458 2.227 56.647 2.225-17.839 2.226 6.572 2.262-22.533 2.154-6.908h0" clip-path="url(#p0919f95778)" style="fill:none;stroke:#ff7f0e;stroke-width:1.5;stroke-linecap:square" id="line2d_21"/><path d="m21.382 301.576 1.716 4.929 2.225 5.258 2.226-7.136 2.262-20.656 2.154-29.173 2.151 19.784 2.228-22.972 2.226 34.239 2.226-10.954 2.226-13.457 4.489-36.993 2.227 23.848 2.225-8.325 2.226-31.11 2.262-26.288 2.153 11.937 2.152-43.86 2.228-77.553 2.226 9.952 2.226 30.796 2.226-2.629 2.262 76.99 2.226-12.268 2.228 4.757 2.225 22.408 2.226 47.07 2.262-16.9 2.153-7.578 2.152 11.334 2.227 18.465 2.226-7.198 2.227 9.139 2.226 17.15 2.262-11.267 2.226 13.52 2.228 9.014 2.224-10.954 2.226 1.565 2.263-11.267 2.19-14.051 2.188 2.784 2.227 24.85 2.226 12.706 2.226-12.706 2.226-24.85 2.263 11.267 2.226 3.88 2.228-2.002 2.224-13.52 2.226-5.258 2.263 1.878 2.153-30.716 2.151 32.593 2.228 1.503 2.226-10.892 2.226 5.07 2.226 24.975 2.263-22.533 2.226 1.44 2.228-27.73 2.224-7.198 2.226 10.954 2.263-1.878 2.153 6.17 2.151-4.292 2.228-1.252 2.226 1.252 2.226-20.656 2.226 1.878 2.263 31.923 2.226-37.682 2.227 20.781 2.225-42.125 2.226 28.98 2.263 7.512 2.153-40.373 2.151 4.695 2.228-12.456 2.226 4.944 2.226 39.685 2.226-4.006 2.263-28.167 2.226 24.411 2.227-7.511 2.225-44.88 2.226 33.613 2.262 22.534 2.19-11.785 2.188 2.396 2.228-35.115 2.226-2.441 2.226 35.428 2.226 7.761 2.262 20.656 2.226-5.133 2.228 10.766 2.225 2.817 2.226-12.206 2.262-11.266 2.153 2.682 2.152-32.727 2.227 10.828 2.227 7.95 2.226 5.633h2.226l2.262-15.022 2.226 16.963 2.228 11.204 2.224-34.49 2.227 10.078 2.262 18.778 2.153-24.143 2.152-5.902 2.227-10.453 2.226 6.698 2.226 16.587 2.227-10.954 2.262 22.534 2.226-21.282 2.228 10.015 2.224 19.091 2.226 10.954 2.263-13.145 2.153-24.143 2.152 3.487 2.227-14.02 2.226 4.631 2.226 26.415 2.226-28.292h2.263l2.226-20.218 2.228 25.851 2.224 3.255 2.226 69.98 2.263-46.946 2.19-11.525 2.187-16.642 2.228-64.721 2.226-12.269 2.226 14.209 2.226 45.881 2.263 18.778 2.226-31.672 2.227 24.16 2.225-8.637 2.226-15.774 2.263-30.045 2.153-68.942 2.151 42.653 2.228 19.717 2.226-46.006 2.226 65.41 2.226 19.091 2.263-28.167 2.226-8.387 2.227-42.314 2.225 15.148 2.226 29.92 2.262-45.068 2.154.872h0" clip-path="url(#p0919f95778)" style="fill:none;stroke:#1f77b4;stroke-width:1.5;stroke-linecap:square" id="line2d_22"/></g></g><defs><clipPath id="p0919f95778"><path d="M21.382 57.293h357.12v266.112H21.382z"/></clipPath></defs></svg>