<svg height="424.692" viewBox="0 0 515.249 318.519" width="686.998" xmlns="http://www.w3.org/2000/svg" xmlns:xlink="http://www.w3.org/1999/xlink"><defs><style>*{stroke-linecap:butt;stroke-linejoin:round}</style></defs><g id="figure_1"><path d="M0 318.52h515.249V0H0z" fill="none" id="patch_1"/><g id="axes_1"><path d="M37.556 291.371h357.12V25.26H37.556z" fill="none" id="patch_2"/><g id="matplotlib.axis_1"><g id="xtick_1"><g id="line2d_1"><defs><path d="M0 0v3.5" id="m36ac276ab4" stroke="#969696" stroke-width=".3"/></defs><use x="70.763" xlink:href="#m36ac276ab4" y="291.371" fill="#969696" stroke="#969696" stroke-width=".3"/></g><g id="text_1"><defs><path d="M4.39 45.125q0 12.39 6.391 18.781 6.406 6.407 17.938 6.407 9.656 0 15.812-5.86 6.157-5.86 6.157-15.14 0-7.22-3.547-12.188-3.532-4.953-10.422-8.703l-12.11-6.64Q13.922 15.921 12.5 8.296h38.188V0H2.593q.39 9.906 4.297 16.5 3.906 6.594 12.203 11.375l12.593 7.328q5.032 2.89 7.329 5.984 2.297 3.094 2.297 8.516 0 5.375-3.766 9.031-3.75 3.672-10.156 3.672-7.078 0-10.594-4.672-3.516-4.656-3.61-12.609z" id="HelveticaWorld-Regular-50"/><path d="M42.484 34.188q0 14.109-3.734 21.156-3.734 7.062-10.969 7.062-7.078 0-10.89-7.062-3.797-7.047-3.797-21.157 0-13.671 3.75-20.937Q20.609 6 27.78 6q7.235 0 10.969 7 3.734 7.016 3.734 21.188zm9.422 0q0-17.297-6.25-26.704-6.25-9.39-17.875-9.39-12.062 0-18.062 9.734-6 9.75-6 26.36 0 17.03 6.14 26.578 6.157 9.547 17.922 9.547 11.625 0 17.875-9.5t6.25-26.626z" id="HelveticaWorld-Regular-48"/><path d="M35.89 0h-9.374v49.906H10.109v6.985q8.594.28 12.782 2.75Q27.094 62.109 29 70.313h6.89z" id="HelveticaWorld-Regular-49"/></defs><g transform="matrix(.14 0 0 -.14 55.193 308.42)" fill="#969696"><use xlink:href="#HelveticaWorld-Regular-50"/><use x="55.615" xlink:href="#HelveticaWorld-Regular-48"/><use x="111.23" xlink:href="#HelveticaWorld-Regular-49"/><use x="166.846" xlink:href="#HelveticaWorld-Regular-49"/></g></g></g><g id="xtick_2"><use x="105.286" xlink:href="#m36ac276ab4" y="291.371" fill="#969696" stroke="#969696" stroke-width=".3" id="line2d_2"/><g transform="matrix(.14 0 0 -.14 89.716 308.42)" fill="#969696" id="text_2"><use xlink:href="#HelveticaWorld-Regular-50"/><use x="55.615" xlink:href="#HelveticaWorld-Regular-48"/><use x="111.23" xlink:href="#HelveticaWorld-Regular-49"/><use x="166.846" xlink:href="#HelveticaWorld-Regular-50"/></g></g><g id="xtick_3"><use x="139.904" xlink:href="#m36ac276ab4" y="291.371" fill="#969696" stroke="#969696" stroke-width=".3" id="line2d_3"/><g id="text_3"><defs><path d="M22.406 39.984q2.203-.187 4.594-.187 6.203 0 9.781 2.86 3.594 2.859 3.594 8.656 0 4.687-3.344 7.89-3.343 3.203-9.64 3.203-6.985 0-10.235-4.11-3.234-4.093-3.437-10.983h-8.64q0 10.984 5.765 16.984 5.765 6.016 16.937 6.016 9.922 0 15.828-5.11 5.907-5.094 5.907-13.39 0-10.704-9.032-14.5v-.204q11.72-4 11.72-16.406 0-9.906-6.595-16.265-6.593-6.344-18.703-6.344-9.906 0-16.312 5.203Q4.204 8.5 3.422 21.484H12.5q.203-8.109 4-11.797Q20.313 6 27.484 6q6.938 0 11.141 3.86 4.203 3.859 4.203 9.718 0 6.406-4.016 9.672-4 3.266-12.39 3.266-2 0-4.016-.094z" id="HelveticaWorld-Regular-51"/></defs><g transform="matrix(.14 0 0 -.14 124.333 308.42)" fill="#969696"><use xlink:href="#HelveticaWorld-Regular-50"/><use x="55.615" xlink:href="#HelveticaWorld-Regular-48"/><use x="111.23" xlink:href="#HelveticaWorld-Regular-49"/><use x="166.846" xlink:href="#HelveticaWorld-Regular-51"/></g></g></g><g id="xtick_4"><use x="174.427" xlink:href="#m36ac276ab4" y="291.371" fill="#969696" stroke="#969696" stroke-width=".3" id="line2d_4"/><g id="text_4"><defs><path d="M10.594 24.703h22.61v31.89h-.188zM42 17.093V0h-8.797v17.094H2.484v8.593L34.72 70.314H42v-45.61h10.297v-7.61z" id="HelveticaWorld-Regular-52"/></defs><g transform="matrix(.14 0 0 -.14 158.856 308.42)" fill="#969696"><use xlink:href="#HelveticaWorld-Regular-50"/><use x="55.615" xlink:href="#HelveticaWorld-Regular-48"/><use x="111.23" xlink:href="#HelveticaWorld-Regular-49"/><use x="166.846" xlink:href="#HelveticaWorld-Regular-52"/></g></g></g><g id="xtick_5"><use x="208.949" xlink:href="#m36ac276ab4" y="291.371" fill="#969696" stroke="#969696" stroke-width=".3" id="line2d_5"/><g id="text_5"><defs><path d="M14.703 40.922q5.813 4.39 13.625 4.39 9.469 0 16.281-6.296 6.813-6.297 6.813-16.22 0-10.78-6.578-17.796-6.563-7-18.422-7-10.313 0-16.266 5.047Q4.203 8.109 3.22 17.39h9.094q.671-5.672 4.437-8.672 3.766-3 10.453-3 6.485 0 10.64 4.484Q42 14.703 42 21.688q0 7.125-4.36 11.421-4.343 4.297-11.218 4.297-7.813 0-13.047-6.687l-7.563.39 5.266 37.594h36.438v-8.5H17.672z" id="HelveticaWorld-Regular-53"/></defs><g transform="matrix(.14 0 0 -.14 193.379 308.42)" fill="#969696"><use xlink:href="#HelveticaWorld-Regular-50"/><use x="55.615" xlink:href="#HelveticaWorld-Regular-48"/><use x="111.23" xlink:href="#HelveticaWorld-Regular-49"/><use x="166.846" xlink:href="#HelveticaWorld-Regular-53"/></g></g></g><g id="xtick_6"><use x="243.472" xlink:href="#m36ac276ab4" y="291.371" fill="#969696" stroke="#969696" stroke-width=".3" id="line2d_6"/><g id="text_6"><defs><path d="M14.11 21.578q0-6.875 4.093-11.234Q22.313 6 28.906 6q6.297 0 10.032 4.438 3.734 4.453 3.734 11.687 0 6.297-3.688 10.547-3.687 4.25-10.468 4.25-6.594 0-10.5-4.156-3.907-4.157-3.907-11.188zM41.702 51.61q-.984 5.375-3.984 8.078-3 2.72-8.125 2.72-8.11 0-12.36-7.923-4.25-7.906-4.343-18.109l.203-.188q5.61 8.641 16.687 8.641 8.844 0 15.438-5.86 6.593-5.859 6.593-16.452 0-10.5-6.25-17.47-6.25-6.952-16.843-6.952-12.219 0-18.563 8.687-6.344 8.703-6.344 25.938 0 16.593 6.485 27.093 6.5 10.5 19.484 10.5 8.407 0 14.219-5.015 5.813-5 6.297-13.688z" id="HelveticaWorld-Regular-54"/></defs><g transform="matrix(.14 0 0 -.14 227.901 308.42)" fill="#969696"><use xlink:href="#HelveticaWorld-Regular-50"/><use x="55.615" xlink:href="#HelveticaWorld-Regular-48"/><use x="111.23" xlink:href="#HelveticaWorld-Regular-49"/><use x="166.846" xlink:href="#HelveticaWorld-Regular-54"/></g></g></g><g id="xtick_7"><use x="278.09" xlink:href="#m36ac276ab4" y="291.371" fill="#969696" stroke="#969696" stroke-width=".3" id="line2d_7"/><g id="text_7"><defs><path d="M3.719 68.797h48.578v-7.719Q42.28 50.875 33.984 33.484 25.687 16.11 23.391 0h-9.672q1.469 13.281 9.719 30.531 8.25 17.266 18.953 29.672H3.719z" id="HelveticaWorld-Regular-55"/></defs><g transform="matrix(.14 0 0 -.14 262.519 308.42)" fill="#969696"><use xlink:href="#HelveticaWorld-Regular-50"/><use x="55.615" xlink:href="#HelveticaWorld-Regular-48"/><use x="111.23" xlink:href="#HelveticaWorld-Regular-49"/><use x="166.846" xlink:href="#HelveticaWorld-Regular-55"/></g></g></g><g id="xtick_8"><use x="312.612" xlink:href="#m36ac276ab4" y="291.371" fill="#969696" stroke="#969696" stroke-width=".3" id="line2d_8"/><g id="text_8"><defs><path d="M27.594 40.578q5.422 0 8.953 3.094 3.547 3.11 3.547 8.234 0 4.594-3.407 7.547-3.39 2.953-9.687 2.953-5.61 0-8.672-3.11-3.047-3.093-3.047-7.874 0-5.125 3.813-7.984 3.812-2.86 8.5-2.86zm.093-7.562q-6.78 0-10.64-3.766-3.86-3.766-3.86-9.234 0-6.297 3.907-10.157Q21 6 28.219 6q6.406 0 10.234 3.86 3.828 3.859 3.828 10.265 0 5.469-3.828 9.172-3.828 3.719-10.766 3.719zM49.22 52.203q0-10.594-9.032-14.797 6.204-2.781 8.86-7.36 2.656-4.562 2.656-9.733 0-10.016-6.453-16.125-6.438-6.094-17.375-6.094-9.563 0-16.813 5.25-7.25 5.25-7.25 17.062 0 11.922 11.907 16.907-9.516 3.796-9.516 13.671 0 8.297 5.64 13.813 5.641 5.516 15.641 5.516 10.016 0 15.875-5.204 5.86-5.203 5.86-12.906z" id="HelveticaWorld-Regular-56"/></defs><g transform="matrix(.14 0 0 -.14 297.042 308.42)" fill="#969696"><use xlink:href="#HelveticaWorld-Regular-50"/><use x="55.615" xlink:href="#HelveticaWorld-Regular-48"/><use x="111.23" xlink:href="#HelveticaWorld-Regular-49"/><use x="166.846" xlink:href="#HelveticaWorld-Regular-56"/></g></g></g><g id="xtick_9"><use x="347.135" xlink:href="#m36ac276ab4" y="291.371" fill="#969696" stroke="#969696" stroke-width=".3" id="line2d_9"/><g id="text_9"><defs><path d="M27.594 31.39q6 0 9.75 4.047 3.765 4.063 3.765 11.97 0 6.5-3.562 10.75-3.563 4.25-10.64 4.25-6.11 0-9.876-4.298-3.75-4.297-3.75-11.53 0-7.376 3.516-11.282 3.515-3.906 10.797-3.906zm-1.282-7.906q-10 0-16.062 6.203-6.047 6.204-6.047 16.5 0 10.407 6.094 17.266 6.11 6.86 16.515 6.86 12.11 0 18.36-8.157 6.25-8.156 6.25-24.453 0-16.906-6.406-28.266Q38.625-1.905 25.875-1.905q-9.953 0-15.422 5.593-5.469 5.594-5.469 13.204h8.829q.39-5.266 3.437-8.375 3.063-3.094 8.438-3.094 7.609 0 11.515 6.781Q41.11 19 42.578 31.688l-.187.203q-5.672-8.407-16.078-8.407z" id="HelveticaWorld-Regular-57"/></defs><g transform="matrix(.14 0 0 -.14 331.565 308.42)" fill="#969696"><use xlink:href="#HelveticaWorld-Regular-50"/><use x="55.615" xlink:href="#HelveticaWorld-Regular-48"/><use x="111.23" xlink:href="#HelveticaWorld-Regular-49"/><use x="166.846" xlink:href="#HelveticaWorld-Regular-57"/></g></g></g><g id="xtick_10"><use x="381.658" xlink:href="#m36ac276ab4" y="291.371" fill="#969696" stroke="#969696" stroke-width=".3" id="line2d_10"/><g transform="matrix(.14 0 0 -.14 366.087 308.42)" fill="#969696" id="text_10"><use xlink:href="#HelveticaWorld-Regular-50"/><use x="55.615" xlink:href="#HelveticaWorld-Regular-48"/><use x="111.23" xlink:href="#HelveticaWorld-Regular-50"/><use x="166.846" xlink:href="#HelveticaWorld-Regular-48"/></g></g></g><g id="matplotlib.axis_2"><g id="ytick_1"><path clip-path="url(#p3da7705354)" d="M37.556 237.717h357.12" fill="none" stroke="#969696" stroke-linecap="square" stroke-width=".3" id="line2d_11"/><g id="line2d_12"><defs><path d="M0 0h-3.5" id="mc410552c3e" stroke="#969696" stroke-width=".3"/></defs><use x="37.556" xlink:href="#mc410552c3e" y="237.717" fill="#969696" stroke="#969696" stroke-width=".3"/></g><g transform="matrix(.14 0 0 -.14 7.2 242.742)" fill="#969696" id="text_11"><use xlink:href="#HelveticaWorld-Regular-50"/><use x="55.615" xlink:href="#HelveticaWorld-Regular-48"/><use x="111.23" xlink:href="#HelveticaWorld-Regular-48"/></g></g><g id="ytick_2"><path clip-path="url(#p3da7705354)" d="M37.556 183.794h357.12" fill="none" stroke="#969696" stroke-linecap="square" stroke-width=".3" id="line2d_13"/><use x="37.556" xlink:href="#mc410552c3e" y="183.794" fill="#969696" stroke="#969696" stroke-width=".3" id="line2d_14"/><g transform="matrix(.14 0 0 -.14 7.2 188.819)" fill="#969696" id="text_12"><use xlink:href="#HelveticaWorld-Regular-52"/><use x="55.615" xlink:href="#HelveticaWorld-Regular-48"/><use x="111.23" xlink:href="#HelveticaWorld-Regular-48"/></g></g><g id="ytick_3"><path clip-path="url(#p3da7705354)" d="M37.556 129.87h357.12" fill="none" stroke="#969696" stroke-linecap="square" stroke-width=".3" id="line2d_15"/><use x="37.556" xlink:href="#mc410552c3e" y="129.871" fill="#969696" stroke="#969696" stroke-width=".3" id="line2d_16"/><g transform="matrix(.14 0 0 -.14 7.2 134.895)" fill="#969696" id="text_13"><use xlink:href="#HelveticaWorld-Regular-54"/><use x="55.615" xlink:href="#HelveticaWorld-Regular-48"/><use x="111.23" xlink:href="#HelveticaWorld-Regular-48"/></g></g><g id="ytick_4"><path clip-path="url(#p3da7705354)" d="M37.556 75.947h357.12" fill="none" stroke="#969696" stroke-linecap="square" stroke-width=".3" id="line2d_17"/><use x="37.556" xlink:href="#mc410552c3e" y="75.947" fill="#969696" stroke="#969696" stroke-width=".3" id="line2d_18"/><g transform="matrix(.14 0 0 -.14 7.2 80.972)" fill="#969696" id="text_14"><use xlink:href="#HelveticaWorld-Regular-56"/><use x="55.615" xlink:href="#HelveticaWorld-Regular-48"/><use x="111.23" xlink:href="#HelveticaWorld-Regular-48"/></g></g></g><path clip-path="url(#p3da7705354)" d="M37.556 287.866l1.97-.539 1.385-.809 4.193-.27.4-.27 5.939-.538 2.16-.54 4.104-.539.644-.27 10.4-1.078 2.437-.54 2.103-.269 5.138-.27.726-.269 5.374-.27 2.745-.27.766-.269 2.811-.539 1.539-.54 3.964-.539 1.837-.27 6.247-.269 2.606-.27 15.89-.539 21.372-.27 2.3-.538.661-.54 2.337-.539.197-.27 3.966-.27 1.539-.538 1.677-.81 3.572-.808 3.432-.27 2.477-.539.73-.54 2.78-.538.707-.54 4.954-.27 1.828-.269 1.777-.54.251-.538 3.368-.54 3.531-.27.002-.269 2.085-.539 1.56-.54 3.367-.269.58-.27 2.601-1.887 2.486-1.078 2.047-1.079 2.621-.539.755-.27 2.172-.27 2.038-1.078 2.953-.27.41-.269.37-.54.812-.269 6.346-.539 1.863-.27 4.773-1.887 4.35-.54 4.636-1.078 1.1-.539.842-.27 2.8-.539 1.708-1.078.044-2.157 1.42-4.044 2.406-2.157 5.107-4.045 1.626-1.078 2.08-1.079 1.672-2.156 2.128-1.079 1.819-1.078 2.201-.81 1.236-1.078 5.192-2.157 2.016-1.078 2.48-1.079 4.537-4.044 2.692-2.157 1.444-1.887 1.997-2.157 1.475-1.887 2.185-1.079.94-1.078 2.255-2.157.81-2.157 3.838-8.358 2.76-4.045 2.176-2.156 1.928-1.079 2.422-1.078.808-1.888 2.01-1.078 3.588-3.236 2.084-2.157 1.046-.808 2.152-1.079 2.575-2.157 1.53-2.157 1.337-2.157 2.611-1.887 2.032-1.078 3.246-3.236.783-2.157 1.678-1.887 1.273-2.157 2.208-2.157.855-2.157.394-8.088 1.22-4.045 2.561-4.314 2.64-4.044 1.831-2.157 2.352-1.078.509-1.079 2.755-4.044 2.492-4.314 1.507-8.358 2.8-8.358 2.357-4.044 2.81-4.314 4.707-8.358 1.469-4.045 1.801-4.044 2.172-4.044 2.818-4.314 4.072-12.402 1.832-4.314 1.577-4.044 1.395-4.314.974-4.045 2.076-4.313 1.701-4.045 2.416-4.314 2.807-8.358h0" fill="none" stroke="#1f77b4" stroke-linecap="square" stroke-width="1.5" id="line2d_19"/><path clip-path="url(#p3da7705354)" d="M240.59 291.371l1.712-.539 5.879-.27.358-.27 3.253-.269.246-.27 5.77-.27 2.107-.269 2.412-1.078 2.471-.54.82-.269 2.208-.27.662-.27 4.08-.269 5.633-.27 1.007-.27 2.091-.538 2.758-.54 1.385-.539 1.615-.539.758-.54 2.685-.538.352-2.157 1.657-1.079 1.818-.27 2.349-.27.15-.269 6.083-.27 2.026-.539 1.115-.539 1.707-.54 1.864-.538 1.067-2.427 1.069-2.157 1.11-1.078 2.628-.54 1.996-.539 2.638-2.157 2.089-2.426 1.365-2.157 1.923-2.157 2.32-2.157 2.627-2.427 1.21-2.157.511-1.078 2.42-1.078 1.499-2.157.725-1.079 2.146-1.078 2.475-2.157 1.076-2.157 2.31-2.157 2.356-1.079 1.223-1.348 1.4-2.157 2.124-1.078 1.252-1.079 1.948-4.583 1.99-2.157 1.427-2.157 1.808-2.157 2.18-2.426 2.515-4.314 2.02-2.157 1.448-2.157 1.716-2.157 2.182-2.157 2.349-4.584 2.233-4.313.824-4.584 2.529-8.897 1.403-2.157 1.484-2.157 2.172-4.584 1.567-4.313 2.22-4.584 1.67-8.897 1.882-4.314 1.868-4.584" fill="none" stroke="#ff7f0e" stroke-linecap="square" stroke-width="1.5" id="line2d_20"/><path clip-path="url(#p3da7705354)" d="M286.35 291.371l4.051-.27.678-.539 1.271-.27 1.783-.269 1.414-.27 1.898-.808.735-.27 1.294-.27 2.723-.27 1.875-.808.481-.27 1.212-.27 2.865-.269.93-.27 2.648-.539 1.725-1.078.876-1.618.621-.809 2.265-.809 1.761-1.617 1.088-1.888 2.403-1.617 1.589-1.618 2.449-1.618 2.135-1.887 1.648-1.618 1.94-.809 1.217-1.078 2-1.618 1.142-1.887 1.658-3.235 1.745-1.618 1.336-1.887 2.208-3.236 1.722-1.618 1.994-1.887 2.128-3.235 1.974-3.505 1.09-1.618 2.424-1.887 1.675-3.505 1.11-1.618 1.882-1.618 1.708-1.617 1.35-1.888 2.04-1.618.992-1.617 1.79-3.505 2.44-3.236 2.566-3.505 1.73-1.617 1.51-1.888 1.558-3.505 1.477-3.235 2.095-1.618 1.142-1.887 2.554-3.505 2.156-3.505 2.367-3.236 1.668-3.505 1.874-3.505 1.646-3.505" fill="none" stroke="#2ca02c" stroke-linecap="square" stroke-width="1.5" id="line2d_21"/><path clip-path="url(#p3da7705354)" d="M271.24 291.371l.83-.539.976-.27 2.595-.539 1.019-.27 4.395-.27.99-.269 5.322-.27.354-.269 1.97-.54 1.843-.269 2.18-.539.221-.27 3.867-.27 1.043-.808.484-1.348.877-.54.417-.269 2.804-.54 2.663-1.347 2.023-1.348 2.638-.54 1.952-.809 1.526-1.348 1.913-1.348 1.91-1.348 1.412-.539 2.12-.809 1.37-1.348 2.042-2.696 1.956-1.348.916-1.348 1.192-1.348 1.035-.54 1.963-.27 2.132-.269.873-.27 1.051-1.348 1.81-1.348 2.565-1.348.785-1.348 1.392-1.348 2.085-1.348 1.852-.54 2.138-.808 2.27-1.348 2.765-1.348 1.349-1.348 1.297-1.348 2.02-1.618 2.268-1.348 1.032-1.348 2.15-2.696 1.337-2.697 2.583-2.696 2.123-2.696 2.834-2.696 2.62-2.696 1.948-2.966 1.5-1.348 1.663-1.348 1.012-1.348 2.296-1.348 1.39-2.697 1.807-2.696 1.091-2.696 2.41-2.696 2.81-2.696 1.309-2.966" fill="none" stroke="#d62728" stroke-linecap="square" stroke-width="1.5" id="line2d_22"/><path clip-path="url(#p3da7705354)" d="M166 291.371l2.236-.539 3.143-.27 5.304-.27 24.744-.269 27.985-.27 9.969-.27 1.209-.538 2.976-.27 2.519-.27 3.766-.27.852-.269 1.976-1.348 6.626-.27.61-.27.579-.538.197-.54.491-.27 2.183-.269 1.433-.27 1.708-.539 1.982-.808 4.09-.27.604-.27 3.795-.27.296-.539 2.408-.539 2.526-.539.473-.27 2.98-.27.216-.269 5.537-.27.743-.27 1.975-1.078 2.176-.539.644-.27 2.694-.539.686-2.426 1.177-.54 2.096-.808 2.144-.54 1.915-.808 1.26-1.079 2.164-1.348 1.78-1.078 1.385-1.349 1.24-1.078 1.893-.54 2.428-.808 1.648-1.348 1.427-1.348 2.481-1.079 1.544-1.348 2.262-.539.923-.54 1.302-1.347 2.123-2.427 1.424-1.348 2.469-1.348 1.737-1.079 1.576-1.348.963-1.078 2.652-1.348 1.414-1.079 1.674-.539 1.309-.809.984-.539.635-.27 2.315-.539 1.345-1.348 1.176-1.078 1.74-1.348 2.443-2.427 1.004-1.078.746-.54 2.137-.809 2.461-1.348.903-1.348 1.096-2.426 1.147-1.079 2.8-1.348 2.301-1.078.89-1.348 1.848-.54 1.007-.808 1.186-1.349 1.59-1.078 2.017-1.348 2.214-1.079 1.095-.539 2.548-.809 1.74-1.078 2.12-1.348 2.163-2.696" fill="none" stroke="#9467bd" stroke-linecap="square" stroke-width="1.5" id="line2d_23"/><path clip-path="url(#p3da7705354)" d="M161.724 291.371l29.212-.27.178-.269.391-.54 2.25-.538 4.712-.27 13.819-.27 1.004-.539v-.27l13.205-.27 10.155-.269 9.085-.27.021-.269 12.173-.27 6.4-.27 5.22-.269.62-.27 2.609-.27 1.671-.269 3.182-.27 1.276-.269 1.054-.54 1.619-.269 2.262-.27 2.695-.269.58-.27 10.117-.27.216-.269 2.284-.809 1.66-1.078 2.652-1.079.507-.27 2.893-.269.094-.54 2.158-1.347.739-2.427 2.553-2.426 2.732-1.079 2.518-1.078 2.483-1.079 1.989-.539 2.217-.809 1.038-1.078 2.135-.54 1.992-.539.953-1.078 1.354-.54 2.214-.27 2.768-.538 2.8-2.157.548-1.079 1.065-.539.875-.27 2.406-.539 2.852-.27.136-.269.114-.54L350 257.4l.211-.27 2.22-.27.712-.27 2.346-1.078 2.03-1.348 1.165-.54 1.794-.538.593-1.079 1.778-1.078 1.075-.54 1.879-.808 2-2.157 2.196-2.427 2.607-.54.857-.538.095-1.079.328-.539 2.554-.54 1.948-1.347 1.24-1.079 1.747-.54 1.13-.808 1.931-1.078 1.172-.54 3.56-.27.877-.538 1.953-9.437 2.409-9.437" fill="none" stroke="#8c564b" stroke-linecap="square" stroke-width="1.5" id="line2d_24"/><g id="text_15"><defs><path d="M49.219 0h-8.844v32.172q0 7.422-2.594 10.578-2.578 3.156-8.578 3.156-5.906 0-9.875-4.5-3.953-4.484-3.953-12.89V0H6.594v52.297h8.297v-7.375h.203q6.203 8.89 15.812 8.89 8.89 0 13.594-4.718 4.719-4.703 4.719-13.5z" id="HelveticaWorld-Regular-110"/><path d="M36.078 37.406q-.187 4.688-3.344 6.735-3.14 2.047-9.047 2.047-4.296 0-7.359-1.907-3.047-1.89-3.047-5.468 0-2.829 1.797-4.172 1.813-1.344 7.828-2.86l8.688-2.187q7.906-2 11.297-5.11 3.406-3.093 3.406-8.656 0-7.719-5.64-12.531-5.641-4.813-15.063-4.813-11 0-16.64 4.563-5.626 4.578-5.735 13.75h8.5q.203-5.422 3.594-8.063 3.39-2.625 10.171-2.625 5.516 0 8.766 2.188 3.25 2.203 3.25 6.11 0 2.78-2.11 4.437-2.093 1.672-8.296 3.078l-10.203 2.5q-6.203 1.562-9.157 4.656-2.953 3.094-2.953 8.031 0 7.72 5.516 12.203 5.531 4.5 14.406 4.5 9.485 0 14.531-4.624 5.047-4.61 5.344-11.782z" id="HelveticaWorld-Regular-115"/><path d="M39.594 34.719q-1.89 11.187-12.39 11.187-6.5 0-10.454-5.203-3.953-5.203-3.953-14.484 0-10.11 3.656-15.11 3.672-5 10.64-5 4.688 0 8.11 3.438 3.422 3.437 4.39 8.953h8.5q-1.312-9.703-6.859-14.86-5.547-5.156-14.328-5.156-10.297 0-16.89 7.047-6.594 7.063-6.594 19.172 0 13.281 6.594 21.188 6.593 7.922 18.5 7.922 8.687 0 13.843-5.204 5.157-5.203 5.735-13.89z" id="HelveticaWorld-Regular-99"/><path d="M49.219 0h-8.844v34.188q0 6.296-2.438 9-2.437 2.718-7.953 2.718-6.797 0-10.703-4.406-3.906-4.39-3.906-12.984V0H6.594v71.781h8.781V45.312h.203q6 8.5 15.328 8.5 8.594 0 13.453-4.5 4.86-4.484 4.86-13.718z" id="HelveticaWorld-Regular-104"/><path d="M15.375 0H6.594v71.781h8.781z" id="HelveticaWorld-Regular-108"/><path d="M12.703 26.219q0-8.735 3.953-14.375 3.953-5.64 11.219-5.64 7.531 0 11.438 5.905 3.906 5.907 3.906 14.11 0 8.297-3.907 14.078-3.906 5.797-11.437 5.797-6.969 0-11.078-5.453-4.094-5.438-4.094-14.422zm-8.984 0q0 11.672 6.484 19.625 6.5 7.968 17.672 7.968 11.438 0 17.875-8.062 6.453-8.047 6.453-19.531 0-11.516-6.406-19.625-6.39-8.11-17.922-8.11-11.078 0-17.625 7.86-6.531 7.86-6.531 19.875z" id="HelveticaWorld-Regular-111"/><path d="M42.484 30.328q-.687 8.485-4.5 12.031-3.797 3.547-10.109 3.547-6.39 0-10.328-4.5-3.922-4.484-4.172-11.078zm8.391-13.922q-1.453-8.11-7.953-13.422-5.719-4.5-15.047-4.593-10.984.093-17.438 7.203Q4 12.704 4 24.704q0 13.78 6.64 21.437 6.641 7.672 18.47 7.672 10.593 0 16.546-7.922 5.953-7.907 5.953-22.594H13.375q0-8.203 3.813-12.703Q21 6.109 28.608 6.109q5.375 0 9.235 3.235 3.86 3.25 4.25 7.062z" id="HelveticaWorld-Regular-101"/><path d="M4.984-1.906h-6.687l24.61 75.594H29.5z" id="HelveticaWorld-Regular-47"/><path d="M17.188 45.016V10.984q0-2 1.093-3.046 1.11-1.047 3.938-1.047h3.375V0Q20.797-.688 19-.688q-5.516 0-8.063 2.641-2.53 2.64-2.53 8.547v34.516H1.311v7.28h7.094v14.595h8.781V52.297h8.407v-7.281z" id="HelveticaWorld-Regular-116"/><path d="M6.594 61.813v9.968h8.781v-9.969zM15.375 0H6.594v52.297h8.781z" id="HelveticaWorld-Regular-105"/><path d="M50 0H38.719L22.406 26.422l-7.312-6.594V0h-8.5v71.781h8.5v-41.61l22.5 22.126H48.78L28.813 32.813z" id="HelveticaWorld-Regular-107"/><path d="M14.11 7.328h32.187V0H2.39v6.89l31.64 38.126H4.938v7.28h40.374v-7.171z" id="HelveticaWorld-Regular-122"/><path d="M14.984 23.688q0-8.407 4.094-13 4.11-4.579 10.219-4.579 6.687 0 10.39 5.438 3.72 5.453 3.72 14.765 0 10.22-3.563 14.907-3.563 4.687-10.735 4.687-6.984 0-10.562-5.5-3.563-5.5-3.563-16.718zm-8.39 28.609h8.297v-7.375h.203q5.61 8.89 15.625 8.89 10.11 0 15.937-7.359 5.828-7.344 5.828-18.766 0-12.796-5.953-21Q40.578-1.515 29.5-1.515q-9.094 0-13.922 7.032h-.203v-26.22H6.594z" id="HelveticaWorld-Regular-112"/><path d="M43.406 26.313q0 10.5-3.718 15.046-3.704 4.547-10.579 4.547-6.984-.11-10.562-5.453Q14.984 35.11 14.984 25q0-10.297 4.297-14.594Q23.578 6.11 29.297 6.11q6.5 0 10.297 5.344 3.812 5.344 3.812 14.86zM6.594 0v71.781h8.781V45.703h.203q5.61 8.11 15.14 8.11 9.766 0 15.766-7.25t6-18.876q0-13.093-6.062-21.156Q40.375-1.516 29.5-1.516q-9.578 0-14.406 8.016h-.203V0z" id="HelveticaWorld-Regular-98"/></defs><g transform="matrix(.14 0 0 -.14 398.247 28.968)" fill="#1f77b4"><use xlink:href="#HelveticaWorld-Regular-110"/><use x="55.176" xlink:href="#HelveticaWorld-Regular-115"/><use x="105.176" xlink:href="#HelveticaWorld-Regular-99"/><use x="156.445" xlink:href="#HelveticaWorld-Regular-104"/><use x="211.621" xlink:href="#HelveticaWorld-Regular-108"/><use x="233.643" xlink:href="#HelveticaWorld-Regular-111"/><use x="289.551" xlink:href="#HelveticaWorld-Regular-101"/><use x="344.971" xlink:href="#HelveticaWorld-Regular-47"/><use x="372.754" xlink:href="#HelveticaWorld-Regular-116"/><use x="400.439" xlink:href="#HelveticaWorld-Regular-105"/><use x="422.461" xlink:href="#HelveticaWorld-Regular-107"/><use x="472.461" xlink:href="#HelveticaWorld-Regular-122"/><use x="521.68" xlink:href="#HelveticaWorld-Regular-112"/><use x="578.174" xlink:href="#HelveticaWorld-Regular-108"/><use x="600.195" xlink:href="#HelveticaWorld-Regular-111"/><use x="656.104" xlink:href="#HelveticaWorld-Regular-116"/><use x="683.789" xlink:href="#HelveticaWorld-Regular-108"/><use x="705.811" xlink:href="#HelveticaWorld-Regular-105"/><use x="727.832" xlink:href="#HelveticaWorld-Regular-98"/></g></g><g id="text_16"><defs><path d="M6.594 52.297h8.297v-7.375h.203q5.906 8.89 15.812 8.89 9.813 0 13.922-8.5 3.75 4.594 7.266 6.547 3.515 1.953 8.703 1.953 6.781 0 11.484-4.453Q77 44.922 77 36.187V0h-8.781v33.797q0 6.094-2.297 9.094-2.297 3.015-7.422 3.015-5.172 0-8.75-4.203-3.563-4.203-3.563-9.812V0h-8.78v36.188q0 4.53-2.11 7.124-2.094 2.594-6.094 2.594-6.297 0-10.062-4.687-3.766-4.688-3.766-12.703V0H6.594z" id="HelveticaWorld-Regular-109"/></defs><g transform="matrix(.14 0 0 -.14 398.247 153.398)" fill="#ff7f0e"><use xlink:href="#HelveticaWorld-Regular-110"/><use x="55.176" xlink:href="#HelveticaWorld-Regular-115"/><use x="105.176" xlink:href="#HelveticaWorld-Regular-99"/><use x="156.445" xlink:href="#HelveticaWorld-Regular-104"/><use x="211.621" xlink:href="#HelveticaWorld-Regular-108"/><use x="233.643" xlink:href="#HelveticaWorld-Regular-111"/><use x="289.551" xlink:href="#HelveticaWorld-Regular-101"/><use x="344.971" xlink:href="#HelveticaWorld-Regular-47"/><use x="372.754" xlink:href="#HelveticaWorld-Regular-109"/><use x="455.762" xlink:href="#HelveticaWorld-Regular-101"/><use x="511.182" xlink:href="#HelveticaWorld-Regular-115"/><use x="561.182" xlink:href="#HelveticaWorld-Regular-104"/><use x="616.357" xlink:href="#HelveticaWorld-Regular-105"/><use x="638.379" xlink:href="#HelveticaWorld-Regular-111"/></g></g><g id="text_17"><defs><path d="M15.375 0H6.594v52.297h8.297v-8.688h.203q5.703 10.203 14.687 10.203 1.422 0 2.297-.296V44.39h-3.266q-5.906 0-9.671-4.016-3.766-4-3.766-9.953z" id="HelveticaWorld-Regular-114"/><path d="M17.188 45.016V0H8.405v45.016H1.22v7.28h7.187v8.985q0 5.907 3.578 8.703 3.594 2.813 10.032 2.813 2.203 0 3.968-.188v-7.906q-1.562.188-3.578.188-2.922 0-4.078-1.438-1.14-1.437-1.14-4.656v-6.5h8.796v-7.281z" id="HelveticaWorld-Regular-102"/></defs><g transform="matrix(.14 0 0 -.14 398.247 185.337)" fill="#2ca02c"><use xlink:href="#HelveticaWorld-Regular-110"/><use x="55.176" xlink:href="#HelveticaWorld-Regular-115"/><use x="105.176" xlink:href="#HelveticaWorld-Regular-99"/><use x="156.445" xlink:href="#HelveticaWorld-Regular-104"/><use x="211.621" xlink:href="#HelveticaWorld-Regular-108"/><use x="233.643" xlink:href="#HelveticaWorld-Regular-111"/><use x="289.551" xlink:href="#HelveticaWorld-Regular-101"/><use x="344.971" xlink:href="#HelveticaWorld-Regular-47"/><use x="372.754" xlink:href="#HelveticaWorld-Regular-112"/><use x="429.248" xlink:href="#HelveticaWorld-Regular-101"/><use x="484.668" xlink:href="#HelveticaWorld-Regular-114"/><use x="518.736" xlink:href="#HelveticaWorld-Regular-102"/><use x="546.422" xlink:href="#HelveticaWorld-Regular-112"/><use x="602.916" xlink:href="#HelveticaWorld-Regular-108"/><use x="624.938" xlink:href="#HelveticaWorld-Regular-111"/><use x="680.846" xlink:href="#HelveticaWorld-Regular-116"/></g></g><g id="text_18"><defs><path d="M41.5 23.688q0 11.125-3.5 16.671-3.484 5.547-10.61 5.547-6.874 0-10.593-4.5-3.703-4.484-3.703-15.093 0-9.422 3.75-14.813 3.765-5.39 10.36-5.39 5.812 0 10.046 4.39 4.25 4.39 4.25 13.188zm8.406-44.391H41.11V5.516h-.187Q35.89-1.516 27-1.516q-10.984 0-17 8.157-6 8.156-6 21.047 0 11.421 5.906 18.765 5.922 7.36 15.875 7.36 9.907 0 15.625-8.891h.203v7.375h8.297z" id="HelveticaWorld-Regular-113"/><path d="M6.11 52.297h8.78V17.578q0-5.765 2.61-8.625Q20.125 6.11 25 6.11q6.781 0 10.594 4.797 3.812 4.813 3.812 12.578v28.813h8.782V0H39.89v7.625l-.188.188q-4.984-9.329-16.61-9.329-7.515 0-12.25 4.094Q6.11 6.688 6.11 14.703z" id="HelveticaWorld-Regular-117"/><path d="M38.375 26.703q-.969-1.015-3.828-1.656-2.86-.625-10.672-1.656-5.766-.688-8.469-2.844-2.703-2.14-2.703-5.656 0-4.297 2.281-6.688 2.297-2.39 7.329-2.39 6.296 0 11.171 3.578 4.891 3.593 4.891 8.718zM6.203 36.375q.297 8.844 5.734 13.14 5.454 4.297 15.844 4.297 8.297 0 13.907-3.765 5.624-3.75 5.624-10.844V9.078Q47.313 6 50.094 6q1.125 0 2.89.39V0Q50.594-.984 48-.984q-4.5 0-6.703 1.921-2.188 1.938-2.281 6.047-7.516-8.5-18.891-8.5-7.422 0-11.922 4.204Q3.72 6.89 3.72 13.624q0 6.89 3.906 11.125Q11.531 29 19 29.89l15.516 1.891q4.203.64 4.203 6.203 0 4.11-3.047 6.297-3.047 2.203-9.25 2.203-5.516 0-8.485-2.437-2.953-2.438-3.53-7.672z" id="HelveticaWorld-Regular-97"/><path d="M13.094 26.313q0-9.704 3.844-14.954 3.859-5.25 10.265-5.25 6.094 0 10.188 4.485 4.109 4.5 4.109 13.094 0 11.03-3.5 16.625-3.484 5.593-10.61 5.593-6.78 0-10.546-4.453-3.75-4.437-3.75-15.14zM50.39 0h-8.297v7.172h-.203q-4.97-8.688-15.078-8.688-10.891 0-16.86 8.297Q4 15.094 4 27.688q0 11.625 5.906 18.875 5.922 7.25 15.875 7.25 9.813 0 15.625-8.891l.203.594V71.78h8.782z" id="HelveticaWorld-Regular-100"/><path d="M39.016 52.297h9.562L29.891.984q-.5-1.375-.985-2.593-4.25-11.329-7.328-15.547-3.078-4.235-9.953-4.235-3.61 0-5.906.782v8.015q2.484-.89 5.468-.89 3.22 0 4.704 2.03 1.5 2.032 4.421 9.938L.875 52.297h9.922L24.812 9.719H25z" id="HelveticaWorld-Regular-121"/></defs><g transform="matrix(.14 0 0 -.14 398.247 199.99)" fill="#d62728"><use xlink:href="#HelveticaWorld-Regular-110"/><use x="55.176" xlink:href="#HelveticaWorld-Regular-115"/><use x="105.176" xlink:href="#HelveticaWorld-Regular-99"/><use x="156.445" xlink:href="#HelveticaWorld-Regular-104"/><use x="211.621" xlink:href="#HelveticaWorld-Regular-108"/><use x="233.643" xlink:href="#HelveticaWorld-Regular-111"/><use x="289.551" xlink:href="#HelveticaWorld-Regular-101"/><use x="344.971" xlink:href="#HelveticaWorld-Regular-47"/><use x="372.754" xlink:href="#HelveticaWorld-Regular-113"/><use x="429.248" xlink:href="#HelveticaWorld-Regular-117"/><use x="484.033" xlink:href="#HelveticaWorld-Regular-97"/><use x="538.965" xlink:href="#HelveticaWorld-Regular-100"/><use x="595.947" xlink:href="#HelveticaWorld-Regular-112"/><use x="650.441" xlink:href="#HelveticaWorld-Regular-121"/></g></g><g id="text_19"><defs><path d="M12.984 26.313q0-9.61 3.813-14.907Q20.609 6.11 27.094 6.11q6.312 0 10.312 4.579 4 4.593 4 13 0 11.03-3.5 16.625-3.484 5.593-10.61 5.593-7.171 0-10.75-4.765-3.562-4.766-3.562-14.828zM49.812 2.983q0-12.609-6.062-18.797-6.047-6.203-18.266-6.203-8.78 0-13.984 4.047Q6.297-13.922 5.516-6.39h8.796q.672-3.812 3.532-6.062 2.86-2.25 8.281-2.25 7.375 0 11.125 3.969 3.766 3.953 3.766 12.828v3.719h-.188q-4.937-7.329-13.922-7.329-11.187 0-17.093 8.25-5.907 8.25-5.907 20.953 0 11.625 5.953 18.875 5.97 7.25 15.829 7.25 9.906 0 15.625-8.89h.187v7.375h8.313z" id="HelveticaWorld-Regular-103"/></defs><g transform="matrix(.14 0 0 -.14 398.247 214.645)" fill="#9467bd"><use xlink:href="#HelveticaWorld-Regular-110"/><use x="55.176" xlink:href="#HelveticaWorld-Regular-115"/><use x="105.176" xlink:href="#HelveticaWorld-Regular-99"/><use x="156.445" xlink:href="#HelveticaWorld-Regular-104"/><use x="211.621" xlink:href="#HelveticaWorld-Regular-108"/><use x="233.643" xlink:href="#HelveticaWorld-Regular-111"/><use x="289.551" xlink:href="#HelveticaWorld-Regular-101"/><use x="344.971" xlink:href="#HelveticaWorld-Regular-47"/><use x="372.754" xlink:href="#HelveticaWorld-Regular-112"/><use x="427.248" xlink:href="#HelveticaWorld-Regular-121"/><use x="474.857" xlink:href="#HelveticaWorld-Regular-103"/><use x="530.766" xlink:href="#HelveticaWorld-Regular-109"/><use x="613.773" xlink:href="#HelveticaWorld-Regular-115"/><use x="663.773" xlink:href="#HelveticaWorld-Regular-104"/></g></g><g transform="matrix(.14 0 0 -.14 398.247 229.304)" fill="#8c564b" id="text_20"><use xlink:href="#HelveticaWorld-Regular-110"/><use x="55.176" xlink:href="#HelveticaWorld-Regular-115"/><use x="105.176" xlink:href="#HelveticaWorld-Regular-99"/><use x="156.445" xlink:href="#HelveticaWorld-Regular-104"/><use x="211.621" xlink:href="#HelveticaWorld-Regular-108"/><use x="233.643" xlink:href="#HelveticaWorld-Regular-111"/><use x="289.551" xlink:href="#HelveticaWorld-Regular-101"/><use x="344.971" xlink:href="#HelveticaWorld-Regular-47"/><use x="372.754" xlink:href="#HelveticaWorld-Regular-98"/><use x="429.248" xlink:href="#HelveticaWorld-Regular-101"/><use x="484.668" xlink:href="#HelveticaWorld-Regular-116"/><use x="512.354" xlink:href="#HelveticaWorld-Regular-116"/><use x="540.039" xlink:href="#HelveticaWorld-Regular-101"/><use x="595.459" xlink:href="#HelveticaWorld-Regular-114"/><use x="628.027" xlink:href="#HelveticaWorld-Regular-98"/><use x="684.521" xlink:href="#HelveticaWorld-Regular-105"/><use x="706.543" xlink:href="#HelveticaWorld-Regular-98"/></g><g id="text_21"><defs><path d="M50.39 50.781q-.296 6.844-5.109 10.719-4.797 3.875-12.656 3.875-7.922 0-12.172-3.25-4.234-3.234-4.234-9.344 0-3.265 1.843-5.61 1.86-2.343 6.641-3.468l20.516-4.687q8.297-1.813 12.297-6.875 4.015-5.047 4.015-12.313 0-10.64-7.812-16.187-7.813-5.547-20.313-5.547-9.531 0-15.031 2.437-5.484 2.453-9.734 7.766-4.25 5.328-4.25 14.89h9.093q0-8 5.313-12.406 5.328-4.39 14.5-4.39 8.89 0 13.844 3.156 4.953 3.156 4.953 8.953 0 5.281-2.953 7.89Q46.188 29 37.594 31l-15.469 3.625q-7.719 1.75-11.531 6.125Q6.78 45.125 6.78 51.516q0 9.672 6.516 15.922 6.531 6.25 18.203 6.25 13.172 0 20.328-5.5 7.156-5.485 7.688-17.407z" id="HelveticaWorld-Regular-83"/><path d="M38.484 38.375h31.532V0h-6.297l-2.344 9.281Q56.781 3.421 50.578.75q-6.187-2.656-12.875-2.656-10.797 0-18.047 4.703-7.25 4.719-11.265 13.015-4 8.313-4 20.72 0 15.468 9.203 26.312 9.203 10.843 24.781 10.843 11.625 0 20.313-6.5Q67.39 60.688 68.796 50h-9.375q-1.703 7.078-7.219 11.078-5.516 4.016-14.312 4.016-10.594 0-17.047-7.985-6.438-7.984-6.438-21.125 0-15.28 6.39-22.437Q27.204 6.39 38.282 6.39q7.235 0 12.235 2.859 5 2.86 7.687 7.766 2.688 4.906 2.688 13.062H38.484z" id="HelveticaWorld-Regular-71"/><path d="M64.89 0h-9.718v33.5h-37.5V0H8.109v71.781h9.563V42.094h37.5V71.78h9.719z" id="HelveticaWorld-Regular-72"/></defs><g transform="matrix(.168 0 0 -.168 138.698 19.26)" fill="#969696"><use xlink:href="#HelveticaWorld-Regular-83"/><use x="66.211" xlink:href="#HelveticaWorld-Regular-116"/><use x="93.896" xlink:href="#HelveticaWorld-Regular-97"/><use x="148.828" xlink:href="#HelveticaWorld-Regular-114"/><use x="181.396" xlink:href="#HelveticaWorld-Regular-32"/><use x="205.811" xlink:href="#HelveticaWorld-Regular-99"/><use x="257.08" xlink:href="#HelveticaWorld-Regular-111"/><use x="312.988" xlink:href="#HelveticaWorld-Regular-117"/><use x="367.773" xlink:href="#HelveticaWorld-Regular-110"/><use x="422.949" xlink:href="#HelveticaWorld-Regular-116"/><use x="450.635" xlink:href="#HelveticaWorld-Regular-32"/><use x="475.049" xlink:href="#HelveticaWorld-Regular-111"/><use x="530.957" xlink:href="#HelveticaWorld-Regular-110"/><use x="586.133" xlink:href="#HelveticaWorld-Regular-32"/><use x="610.547" xlink:href="#HelveticaWorld-Regular-71"/><use x="687.646" xlink:href="#HelveticaWorld-Regular-105"/><use x="709.668" xlink:href="#HelveticaWorld-Regular-116"/><use x="737.354" xlink:href="#HelveticaWorld-Regular-72"/><use x="810.352" xlink:href="#HelveticaWorld-Regular-117"/><use x="865.137" xlink:href="#HelveticaWorld-Regular-98"/></g></g></g></g><defs><clipPath id="p3da7705354"><path d="M37.556 25.259h357.12v266.112H37.556z"/></clipPath></defs></svg>