<svg xmlns:xlink="http://www.w3.org/1999/xlink" width="626.906" height="489.243" viewBox="0 0 470.18 366.932" xmlns="http://www.w3.org/2000/svg"><defs><style>*{stroke-linejoin:round;stroke-linecap:butt}</style></defs><g id="figure_1"><path d="M0 366.932h470.18V0H0v366.932z" style="fill:none" id="patch_1"/><g id="axes_1"><path d="M35.745 323.405h357.12V57.293H35.745v266.112z" style="fill:none" id="patch_2"/><g id="matplotlib.axis_1"><g id="xtick_1"><g id="line2d_1"><defs><path id="m928beed43b" d="M0 0v3.5" style="stroke:#b0b0b0;stroke-width:.4"/></defs><use xlink:href="#m928beed43b" x="70.326" y="323.405" style="fill:#b0b0b0;stroke:#b0b0b0;stroke-width:.4"/></g><g style="fill:#b0b0b0" transform="matrix(.14 0 0 -.14 55.963 340.345)" id="text_1"><defs><path id="MyriadPro-Regular-32" d="M2944 0v467H1075v13l333 307c877 845 1434 1466 1434 2234 0 595-378 1209-1274 1209-480 0-890-179-1178-422l180-397c192 160 505 352 883 352 621 0 825-390 825-813-6-627-486-1164-1548-2176L288 346V0h2656z" transform="scale(.01563)"/><path id="MyriadPro-Regular-30" d="M1677 4230c-845 0-1447-768-1447-2163C243 691 794-70 1606-70c922 0 1447 780 1447 2195 0 1325-499 2105-1376 2105zm-32-435c582 0 845-672 845-1696 0-1062-276-1734-852-1734-512 0-844 614-844 1696 0 1133 358 1734 851 1734z" transform="scale(.01563)"/><path id="MyriadPro-Regular-31" d="M1510 0h544v4160h-480l-908-486 108-429 724 390h12V0z" transform="scale(.01563)"/></defs><use xlink:href="#MyriadPro-Regular-32"/><use xlink:href="#MyriadPro-Regular-30" x="51.3"/><use xlink:href="#MyriadPro-Regular-31" x="102.6"/><use xlink:href="#MyriadPro-Regular-30" x="153.9"/></g></g><g id="xtick_2"><use xlink:href="#m928beed43b" x="124.616" y="323.405" style="fill:#b0b0b0;stroke:#b0b0b0;stroke-width:.4" id="line2d_2"/><g style="fill:#b0b0b0" transform="matrix(.14 0 0 -.14 110.253 340.345)" id="text_2"><use xlink:href="#MyriadPro-Regular-32"/><use xlink:href="#MyriadPro-Regular-30" x="51.3"/><use xlink:href="#MyriadPro-Regular-31" x="102.6"/><use xlink:href="#MyriadPro-Regular-32" x="153.9"/></g></g><g id="xtick_3"><use xlink:href="#m928beed43b" x="178.979" y="323.405" style="fill:#b0b0b0;stroke:#b0b0b0;stroke-width:.4" id="line2d_3"/><g style="fill:#b0b0b0" transform="matrix(.14 0 0 -.14 164.616 340.345)" id="text_3"><defs><path id="MyriadPro-Regular-34" d="M2560 0v1133h582v441h-582v2586h-608L96 1504v-371h1933V0h531zM666 1574v13l1017 1415c115 192 218 371 346 614h19c-13-218-19-435-19-653V1574H666z" transform="scale(.01563)"/></defs><use xlink:href="#MyriadPro-Regular-32"/><use xlink:href="#MyriadPro-Regular-30" x="51.3"/><use xlink:href="#MyriadPro-Regular-31" x="102.6"/><use xlink:href="#MyriadPro-Regular-34" x="153.9"/></g></g><g id="xtick_4"><use xlink:href="#m928beed43b" x="233.269" y="323.405" style="fill:#b0b0b0;stroke:#b0b0b0;stroke-width:.4" id="line2d_4"/><g style="fill:#b0b0b0" transform="matrix(.14 0 0 -.14 218.906 340.345)" id="text_4"><defs><path id="MyriadPro-Regular-36" d="M2662 4224c-102 0-243-6-409-32-525-64-986-275-1331-614-410-410-704-1056-704-1876C218 621 800-70 1690-70c864 0 1382 704 1382 1465 0 813-518 1344-1254 1344-461 0-807-217-1005-480h-19c96 685 563 1331 1446 1479 160 25 307 32 422 25v461zM1690 365c-589 0-903 505-916 1190 0 103 26 186 64 250 154 301 468 512 807 512 518 0 857-359 857-954s-326-998-806-998h-6z" transform="scale(.01563)"/></defs><use xlink:href="#MyriadPro-Regular-32"/><use xlink:href="#MyriadPro-Regular-30" x="51.3"/><use xlink:href="#MyriadPro-Regular-31" x="102.6"/><use xlink:href="#MyriadPro-Regular-36" x="153.9"/></g></g><g id="xtick_5"><use xlink:href="#m928beed43b" x="287.633" y="323.405" style="fill:#b0b0b0;stroke:#b0b0b0;stroke-width:.4" id="line2d_5"/><g style="fill:#b0b0b0" transform="matrix(.14 0 0 -.14 273.27 340.345)" id="text_5"><defs><path id="MyriadPro-Regular-38" d="M1062 2170c-512-218-825-589-825-1114C237 448 762-70 1632-70c794 0 1414 486 1414 1209 0 506-320 871-838 1075v20c512 243 685 620 685 972 0 519-403 1024-1210 1024-729 0-1286-448-1286-1107 0-358 198-717 659-934l6-19zm583-1831c-531 0-851 371-832 794 0 397 262 717 749 857 563-160 915-403 915-908 0-423-327-743-832-743zm6 3488c506 0 704-345 704-678 0-378-275-634-633-755-480 128-794 352-794 768 0 358 256 665 723 665z" transform="scale(.01563)"/></defs><use xlink:href="#MyriadPro-Regular-32"/><use xlink:href="#MyriadPro-Regular-30" x="51.3"/><use xlink:href="#MyriadPro-Regular-31" x="102.6"/><use xlink:href="#MyriadPro-Regular-38" x="153.9"/></g></g><g id="xtick_6"><use xlink:href="#m928beed43b" x="341.922" y="323.405" style="fill:#b0b0b0;stroke:#b0b0b0;stroke-width:.4" id="line2d_6"/><g style="fill:#b0b0b0" transform="matrix(.14 0 0 -.14 327.559 340.345)" id="text_6"><use xlink:href="#MyriadPro-Regular-32"/><use xlink:href="#MyriadPro-Regular-30" x="51.3"/><use xlink:href="#MyriadPro-Regular-32" x="102.6"/><use xlink:href="#MyriadPro-Regular-30" x="153.9"/></g></g></g><g id="matplotlib.axis_2"><g id="ytick_1"><path d="M35.745 323.405h357.12" clip-path="url(#pc441e4f175)" style="fill:none;stroke:#b0b0b0;stroke-width:.3;stroke-linecap:square" id="line2d_7"/><g id="line2d_8"><defs><path id="m451596aeee" d="M0 0h-3.5" style="stroke:#b0b0b0;stroke-width:.3"/></defs><use xlink:href="#m451596aeee" x="35.745" y="323.405" style="fill:#b0b0b0;stroke:#b0b0b0;stroke-width:.3"/></g><use xlink:href="#MyriadPro-Regular-30" style="fill:#b0b0b0" transform="matrix(.14 0 0 -.14 21.563 328.375)" id="text_7"/></g><g id="ytick_2"><path d="M35.745 269.16h357.12" clip-path="url(#pc441e4f175)" style="fill:none;stroke:#b0b0b0;stroke-width:.3;stroke-linecap:square" id="line2d_9"/><use xlink:href="#m451596aeee" x="35.745" y="269.16" style="fill:#b0b0b0;stroke:#b0b0b0;stroke-width:.3" id="line2d_10"/><g style="fill:#b0b0b0" transform="matrix(.14 0 0 -.14 7.2 274.13)" id="text_8"><use xlink:href="#MyriadPro-Regular-31"/><use xlink:href="#MyriadPro-Regular-30" x="51.3"/><use xlink:href="#MyriadPro-Regular-30" x="102.6"/></g></g><g id="ytick_3"><path d="M35.745 214.915h357.12" clip-path="url(#pc441e4f175)" style="fill:none;stroke:#b0b0b0;stroke-width:.3;stroke-linecap:square" id="line2d_11"/><use xlink:href="#m451596aeee" x="35.745" y="214.915" style="fill:#b0b0b0;stroke:#b0b0b0;stroke-width:.3" id="line2d_12"/><g style="fill:#b0b0b0" transform="matrix(.14 0 0 -.14 7.2 219.885)" id="text_9"><use xlink:href="#MyriadPro-Regular-32"/><use xlink:href="#MyriadPro-Regular-30" x="51.3"/><use xlink:href="#MyriadPro-Regular-30" x="102.6"/></g></g><g id="ytick_4"><path d="M35.745 160.67h357.12" clip-path="url(#pc441e4f175)" style="fill:none;stroke:#b0b0b0;stroke-width:.3;stroke-linecap:square" id="line2d_13"/><use xlink:href="#m451596aeee" x="35.745" y="160.669" style="fill:#b0b0b0;stroke:#b0b0b0;stroke-width:.3" id="line2d_14"/><g style="fill:#b0b0b0" transform="matrix(.14 0 0 -.14 7.2 165.64)" id="text_10"><defs><path id="MyriadPro-Regular-33" d="M269 211C474 77 883-70 1350-70c999 0 1517 582 1517 1248 0 582-416 966-928 1068v13c512 186 768 551 768 979 0 506-371 992-1190 992-448 0-871-160-1088-320l147-409c179 128 499 275 832 275 518 0 730-294 730-627 0-493-519-704-928-704H896v-423h314c544 0 1068-249 1075-832 6-345-218-806-941-806-390 0-762 160-922 262L269 211z" transform="scale(.01563)"/></defs><use xlink:href="#MyriadPro-Regular-33"/><use xlink:href="#MyriadPro-Regular-30" x="51.3"/><use xlink:href="#MyriadPro-Regular-30" x="102.6"/></g></g><g id="ytick_5"><path d="M35.745 106.424h357.12" clip-path="url(#pc441e4f175)" style="fill:none;stroke:#b0b0b0;stroke-width:.3;stroke-linecap:square" id="line2d_15"/><use xlink:href="#m451596aeee" x="35.745" y="106.424" style="fill:#b0b0b0;stroke:#b0b0b0;stroke-width:.3" id="line2d_16"/><g style="fill:#b0b0b0" transform="matrix(.14 0 0 -.14 7.2 111.394)" id="text_11"><use xlink:href="#MyriadPro-Regular-34"/><use xlink:href="#MyriadPro-Regular-30" x="51.3"/><use xlink:href="#MyriadPro-Regular-30" x="102.6"/></g></g></g><path d="m121.195 323.405 2.268-.017h2.305l2.231.017h15.878l2.27-.017 2.267.017 2.268-.017 2.305-.053 2.194-.007 2.193-.01 2.27-.021 2.268.09 2.268-.108 2.268.021 2.306.018 2.268-.04 2.27.005 2.266-.04 2.269.022 2.305-.332 2.194.104 2.192.123 2.27-.207 2.268.137 2.269.026 2.268-.096 2.305.053 2.269-.246 2.27.158 2.266-.086 2.268.034 2.306-.053 2.194-.424 2.192-.048 2.27.13 2.268-.2 2.268-.235 2.269-.045 2.305.437 2.268-.32 2.27.215 2.267.256 2.268-.29 2.306-.456 2.23-.496 2.23.584 2.27-.41 2.268.235 2.268-.162 2.269.337 2.305-.193 2.268.11 2.27-.162 2.267-.11 2.268.162 2.306.193 2.193-.462 2.193-.046 2.27.171 2.268-.1 2.268-.099 2.268.168h2.306l2.268.104 2.27.036 2.267-.38 2.268.59 2.305.035 2.194-.285 2.192-.625 2.27.592 2.269.458 2.268-.042 2.268.095 2.305-.035 2.269-.042 2.27-.5 2.266.283 2.269-.091 2.305.122 2.194-.138 2.192.068 2.27.274 2.268-.326 2.268.363 2.269-.188 2.305.367 2.268-.216 2.27.024 2.267.085 2.268.125 2.306.105 2.23.01 2.23-.535 2.27-.14 2.268.192 2.269.026 2.268-.026 2.305.385 2.268-.088h2.27l2.267.109 2.268.172 2.306.035 2.194-.492 2.192.194 2.27-.18 2.268.408 2.268-.228 2.268.438 2.306-.158 2.268.01 2.27-.045 2.267.171" clip-path="url(#pc441e4f175)" style="fill:none;stroke:#8c564b;stroke-width:1.5;stroke-linecap:square" id="line2d_17"/><path d="m105.28 323.405 15.915-.018 11.304-.018 2.268-.069 4.537.053 15.877-.142 2.193.142 2.27-.147 2.268.007 4.536-.193 4.574-.03 6.805.03 2.305-.297 2.194.082 2.192-.1 2.27.14 2.268.018 2.269-.2 2.268.112 2.305-.175 2.269-.009 4.536-.235 2.268.192 6.692-.158 2.27-.305 2.268.34 2.268-.159 2.269.02 2.305.174 2.268-.158 2.27-.28 2.267-.027 2.268.15 2.306-.105 2.23.168 4.5-.34 2.268.207 2.268.046 2.269-.256 2.305-.052 2.268.091 4.537-.253 2.268.6 2.306-.49 2.193-.254 2.193.13 2.27-.149 2.268.342 2.268.02 2.268-.422 2.306.28 2.268-.111 2.27.163 2.267-.217 2.268.672 2.305-.49 2.194.11 2.192-.145 2.27.16 2.269-.142 2.268-.02 2.268.125 2.305-.228 4.539.245 4.535-.14 2.305.21 2.194-.064 2.192.344 2.27-.62 2.268.235 2.268.091 2.269-.16 2.305.612 2.268-.289 2.27-.411 2.267-.186 2.268.798 2.306-.262 2.23-.435 2.23.242 4.538-.84 2.269.552 2.268-.29 2.305-.034 2.268.36 2.27.13 2.267.43 2.268.252 2.306-.192 2.194-.346 8.998.594 2.268-.318 2.306.052 4.538-.245 2.267.764h0" clip-path="url(#pc441e4f175)" style="fill:none;stroke:#9467bd;stroke-width:1.5;stroke-linecap:square" id="line2d_18"/><path d="m103.01 323.405 18.185-.235 6.804-.083 4.5-.713 2.268-1.139 2.268.362 2.269-.554 2.305.07 2.268-.13 2.27-.588 2.267-1.275 2.268 1.153 4.5-1.75 4.461-1.013 2.269.61 2.268-1.676 2.268-.038 2.306.682 2.268.278 2.27-.488 2.266-1.067 2.269-.263 2.305-.122 2.194-1.766 4.462.198 2.268 1.06 2.269.531 2.268-.74 2.305 1.854 2.269.26 2.27-.155 2.266-.875 2.268 1.05 2.306-.315 2.194-.678 2.192-.127 2.27-1.25 2.268.533 4.537-1.103 2.305 1.33 4.538-.052 2.267-.726 2.268 1.11 2.306-1.417 2.23.11 2.23-.495 2.27.439 4.536-1.013 2.269.854 2.305-.087 2.268 1.62 2.27-1.043 2.267-.06 2.268 1.338 4.5-1.124 2.192-.591 2.27 1.606 2.268-.591 2.268.61 2.268 1.035 2.306-.385 2.268.724 2.27-.392 2.267-.187 2.268 1.832 2.305-1.155 2.194.07 2.192.263 2.27-.196 2.269.598 2.268.197 2.268-.424 2.305.297 2.269-.415 4.536.452 2.269 1.24 2.305.105 2.194-.45 2.192.275 2.27-.501 2.268-.776 2.268.613 4.574.49 2.268-.4 2.27.487 2.267-.414 2.268 1.429 9.036-3.509 2.268.29 2.269 1.338 2.268.271 2.305.665 2.268-.285 2.27-.782 2.267 1.017 2.268.855 2.306-.228 2.194-.583 2.192-.291 2.27.627 2.268-.505 2.268.74 2.268-.285 2.306 1.277 2.268-.522 2.27.312 2.267-.113h0" clip-path="url(#pc441e4f175)" style="fill:none;stroke:#d62728;stroke-width:1.5;stroke-linecap:square" id="line2d_19"/><g style="fill:#1f77b4" transform="matrix(.14 0 0 -.14 403.578 283.094)" id="text_12"><defs><path id="MyriadPro-Regular-6a" d="M-230-1350c300 0 710 102 960 352 275 281 371 672 371 1273v2823H538V493c0-743-58-992-212-1165C192-819-32-890-288-909l58-441zM826 4320c-212 0-359-154-359-352 0-186 135-346 346-346 224 0 358 160 352 346 0 198-135 352-339 352z" transform="scale(.01563)"/><path id="MyriadPro-Regular-71" d="M2579-1267h563v3513c0 320 7 589 20 852h-532l-19-468h-13c-153 301-473 538-953 538-653 0-1402-512-1402-1670C243 557 832-70 1555-70c499 0 845 243 1011 550h13v-1747zm0 2528c0-83-19-192-45-269-128-390-441-614-806-614-621 0-915 537-915 1152 0 697 352 1190 934 1190 423 0 723-294 807-640 19-70 25-160 25-237v-582z" transform="scale(.01563)"/><path id="MyriadPro-Regular-75" d="M3059 3098h-563V1197c0-103-19-205-51-288-103-250-365-512-743-512-512 0-691 397-691 985v1716H448V1286C448 198 1030-70 1517-70c550 0 877 326 1024 576h13l32-506h499c-19 243-26 525-26 845v2253z" transform="scale(.01563)"/><path id="MyriadPro-Regular-65" d="M2957 1446c6 58 19 148 19 263 0 569-269 1459-1280 1459-902 0-1453-736-1453-1670C243 563 813-70 1766-70c493 0 832 108 1031 198l-96 403c-211-89-455-160-858-160-563 0-1049 314-1062 1075h2176zM787 1850c45 390 295 915 864 915 634 0 787-557 781-915H787z" transform="scale(.01563)"/><path id="MyriadPro-Regular-72" d="M467 0h557v1651c0 96 13 186 26 263 76 422 358 723 755 723 77 0 134-7 192-19v531c-51 13-96 19-160 19-378 0-717-262-858-678h-25l-20 608H442c19-288 25-602 25-967V0z" transform="scale(.01563)"/><path id="MyriadPro-Regular-79" d="M58 3098 1203 243c26-70 39-115 39-147s-20-77-45-134c-128-288-320-506-474-628-166-140-352-230-493-275l141-473c141 25 416 121 691 364 384 333 660 877 1063 1940l845 2208h-596l-614-1818c-77-224-141-461-198-646h-13c-51 185-128 428-199 633L672 3098H58z" transform="scale(.01563)"/></defs><use xlink:href="#MyriadPro-Regular-6a"/><use xlink:href="#MyriadPro-Regular-71" x="24.3"/><use xlink:href="#MyriadPro-Regular-75" x="80.6"/><use xlink:href="#MyriadPro-Regular-65" x="135.7"/><use xlink:href="#MyriadPro-Regular-72" x="185.8"/><use xlink:href="#MyriadPro-Regular-79" x="218.5"/></g><g style="fill:#ff7f0e" transform="matrix(.14 0 0 -.14 403.578 297.416)" id="text_13"><defs><path id="MyriadPro-Regular-61" d="M2643 1901c0 621-230 1267-1177 1267-391 0-762-109-1018-275l128-371c218 140 518 230 806 230 634 0 704-461 704-717v-64C890 1978 224 1568 224 819c0-448 320-889 947-889 442 0 775 217 947 460h20l44-390h512c-38 211-51 474-51 742v1159zm-544-858c0-57-13-121-32-179-89-262-345-518-749-518-288 0-531 172-531 537 0 602 698 711 1312 698v-538z" transform="scale(.01563)"/><path id="MyriadPro-Regular-78" d="m102 3098 1050-1517L51 0h621l448 698c115 185 224 345 326 537h13c109-185 211-358 333-537L2246 0h640L1798 1600l1056 1498h-608l-435-660c-102-166-205-326-307-512h-19c-103 173-199 333-314 506l-441 666H102z" transform="scale(.01563)"/><path id="MyriadPro-Regular-69" d="M1030 0v3098H467V0h563zM749 4320c-205 0-352-154-352-352 0-192 141-346 339-346 224 0 365 154 358 346 0 198-134 352-345 352z" transform="scale(.01563)"/><path id="MyriadPro-Regular-6f" d="M1779 3168c-857 0-1536-608-1536-1645C243 544 890-70 1728-70c749 0 1542 499 1542 1644 0 948-601 1594-1491 1594zm-13-422c666 0 928-666 928-1191 0-697-403-1203-940-1203-551 0-941 512-941 1190 0 589 288 1204 953 1204z" transform="scale(.01563)"/><path id="MyriadPro-Regular-73" d="M250 147C467 19 781-70 1120-70c736 0 1158 390 1158 934 0 461-275 730-812 934-404 154-589 269-589 525 0 231 185 423 518 423 288 0 512-103 634-180l141 410c-173 102-448 192-762 192-666 0-1069-410-1069-909 0-371 263-678 819-877 416-153 576-300 576-569 0-256-192-461-601-461-282 0-576 115-743 224L250 147z" transform="scale(.01563)"/></defs><use xlink:href="#MyriadPro-Regular-61"/><use xlink:href="#MyriadPro-Regular-78" x="48.2"/><use xlink:href="#MyriadPro-Regular-69" x="94.5"/><use xlink:href="#MyriadPro-Regular-6f" x="117.9"/><use xlink:href="#MyriadPro-Regular-73" x="172.8"/></g><g style="fill:#2ca02c" transform="matrix(.14 0 0 -.14 403.578 311.416)" id="text_14"><defs><path id="MyriadPro-Regular-6c" d="M467 0h563v4544H467V0z" transform="scale(.01563)"/><path id="MyriadPro-Regular-63" d="M2579 538c-160-71-371-154-691-154-614 0-1075 442-1075 1158 0 647 384 1172 1094 1172 307 0 519-71 653-148l128 436c-154 76-448 160-781 160-1011 0-1664-692-1664-1645C243 570 851-70 1786-70c416 0 742 108 889 185l-96 423z" transform="scale(.01563)"/><path id="MyriadPro-Regular-74" d="M595 3667v-569H115v-429h480V979c0-365 58-640 218-806C947 19 1158-70 1421-70c217 0 390 38 499 83l-26 422c-83-25-172-38-326-38-314 0-422 217-422 601v1671h806v429h-806v742l-551-173z" transform="scale(.01563)"/><path id="MyriadPro-Regular-6e" d="M467 0h563v1862c0 96 13 192 39 263 96 313 384 576 755 576 531 0 717-416 717-915V0h563v1850c0 1062-666 1318-1094 1318-512 0-871-288-1024-582h-13l-32 512H442c19-256 25-519 25-839V0z" transform="scale(.01563)"/></defs><use xlink:href="#MyriadPro-Regular-65"/><use xlink:href="#MyriadPro-Regular-6c" x="50.1"/><use xlink:href="#MyriadPro-Regular-65" x="73.7"/><use xlink:href="#MyriadPro-Regular-63" x="123.8"/><use xlink:href="#MyriadPro-Regular-74" x="168.6"/><use xlink:href="#MyriadPro-Regular-72" x="201.7"/><use xlink:href="#MyriadPro-Regular-6f" x="234.4"/><use xlink:href="#MyriadPro-Regular-6e" x="289.3"/></g><g style="fill:#d62728" transform="matrix(.14 0 0 -.14 403.578 325.325)" id="text_15"><defs><path id="MyriadPro-Regular-64" d="M2579 4544V2694h-13c-140 250-460 474-934 474-755 0-1395-634-1389-1664C243 563 819-70 1568-70c506 0 883 262 1056 608h13l25-538h506c-19 211-26 525-26 800v3744h-563zm0-3245c0-89-6-166-25-243-103-422-448-672-826-672-608 0-915 518-915 1146 0 684 345 1196 928 1196 422 0 729-294 813-652 19-71 25-167 25-237v-538z" transform="scale(.01563)"/><path id="MyriadPro-Regular-2e" d="M710-70c237 0 384 172 384 403 0 237-153 403-377 403S333 570 333 333c0-231 153-403 371-403h6z" transform="scale(.01563)"/></defs><use xlink:href="#MyriadPro-Regular-64"/><use xlink:href="#MyriadPro-Regular-33" x="56.4"/><use xlink:href="#MyriadPro-Regular-2e" x="107.7"/><use xlink:href="#MyriadPro-Regular-6a" x="128.4"/><use xlink:href="#MyriadPro-Regular-73" x="152.7"/></g><g style="fill:#9467bd" transform="matrix(.14 0 0 -.14 403.578 339.234)" id="text_16"><defs><path id="MyriadPro-Regular-6d" d="M467 0h551v1869c0 96 12 192 44 275 90 282 346 563 698 563 429 0 646-358 646-851V0h551v1914c0 102 19 204 45 281 96 275 345 512 665 512 455 0 672-358 672-953V0h551v1824c0 1075-608 1344-1018 1344-294 0-499-77-685-218-128-96-249-230-345-403h-13c-135 365-455 621-877 621-512 0-800-275-973-570h-19l-26 500H442c19-256 25-519 25-839V0z" transform="scale(.01563)"/></defs><use xlink:href="#MyriadPro-Regular-6d"/><use xlink:href="#MyriadPro-Regular-6f" x="83.4"/><use xlink:href="#MyriadPro-Regular-6d" x="138.3"/><use xlink:href="#MyriadPro-Regular-65" x="221.7"/><use xlink:href="#MyriadPro-Regular-6e" x="271.8"/><use xlink:href="#MyriadPro-Regular-74" x="327.3"/><use xlink:href="#MyriadPro-Regular-6a" x="360.4"/><use xlink:href="#MyriadPro-Regular-73" x="384.7"/></g><g style="fill:#8c564b" transform="matrix(.14 0 0 -.14 403.578 353.416)" id="text_17"><defs><path id="MyriadPro-Regular-68" d="M467 0h563v1869c0 109 7 192 39 269 102 307 390 563 755 563 531 0 717-423 717-922V0h563v1843c0 1069-666 1325-1082 1325-211 0-409-64-576-160-172-96-313-237-403-397h-13v1933H467V0z" transform="scale(.01563)"/></defs><use xlink:href="#MyriadPro-Regular-6c"/><use xlink:href="#MyriadPro-Regular-6f" x="23.6"/><use xlink:href="#MyriadPro-Regular-64" x="78.5"/><use xlink:href="#MyriadPro-Regular-61" x="134.9"/><use xlink:href="#MyriadPro-Regular-73" x="183.1"/><use xlink:href="#MyriadPro-Regular-68" x="222.7"/></g><g style="fill:#b0b0b0" transform="matrix(.09716 0 0 -.09716 35.745 357.303)" id="text_18"><defs><path id="MyriadPro-Regular-40" d="M2867 1632c-70-397-409-870-781-870-281 0-422 204-422 486 0 621 454 1152 1018 1152 147 0 256-26 320-45l-135-723zm384-1773c-262-147-601-224-966-224-947 0-1645 666-1645 1735 0 1299 877 2131 1920 2131 992 0 1549-672 1549-1600 0-743-365-1178-691-1171-212 6-288 230-192 716l217 1159c-166 77-409 134-685 134-889 0-1516-723-1516-1517 0-505 320-806 691-806 384 0 678 186 902 563h26c-19-390 217-563 473-563 602 0 1140 563 1140 1523 0 1069-749 1856-1863 1856-1421 0-2336-1145-2336-2464C275 96 1165-672 2214-672c429 0 788 70 1140 256l-103 275z" transform="scale(.01563)"/><path id="MyriadPro-Regular-2f" d="m422-256 1792 4640h-435L-6-256h428z" transform="scale(.01563)"/><path id="MyriadPro-Regular-7c" d="M550 4800v-6400h429v6400H550z" transform="scale(.01563)"/><path id="MyriadPro-Regular-4e" d="M1011 0v1843c0 717-13 1235-45 1779l20 7c217-467 505-960 806-1440L3162 0h563v4314h-525V2509c0-672 13-1197 64-1773l-13-6c-205 441-454 896-774 1401L1094 4314H486V0h525z" transform="scale(.01563)"/><path id="MyriadPro-Regular-53" d="M269 211C499 58 954-70 1370-70c1017 0 1510 582 1510 1248 0 633-371 985-1101 1267-595 230-857 429-857 832 0 294 224 646 812 646 391 0 679-128 820-205l153 455c-192 109-512 211-953 211-839 0-1396-499-1396-1171 0-608 436-973 1140-1223 582-224 812-454 812-857 0-435-332-736-902-736-384 0-749 128-998 281L269 211z" transform="scale(.01563)"/><path id="MyriadPro-Regular-f6" d="M1165 3648c185 0 313 154 313 326 0 186-134 327-313 327s-327-147-327-327c0-172 135-326 320-326h7zm1184 0c185 0 313 154 313 326 0 186-134 327-313 327s-320-147-320-327c0-172 128-326 313-326h7zm-570-480c-857 0-1536-608-1536-1645C243 544 890-70 1728-70c749 0 1542 499 1542 1644 0 948-601 1594-1491 1594zm-13-422c666 0 928-666 928-1191 0-697-403-1203-940-1203-551 0-941 512-941 1190 0 589 288 1204 953 1204z" transform="scale(.01563)"/><path id="MyriadPro-Regular-43" d="M3386 582c-224-108-570-179-909-179-1050 0-1658 679-1658 1735 0 1132 672 1779 1683 1779 359 0 660-77 871-179l134 454c-147 77-486 192-1024 192-1337 0-2253-915-2253-2266C230 704 1146-70 2362-70c524 0 934 108 1139 211l-115 441z" transform="scale(.01563)"/><path id="MyriadPro-Regular-42" d="M486 13c186-26 480-51 864-51 704 0 1191 128 1492 403 217 211 364 493 364 864 0 640-480 979-889 1081v13c454 167 729 531 729 947 0 340-134 596-358 762-269 218-627 314-1184 314-390 0-774-39-1018-90V13zm557 3865c90 20 237 39 493 39 563 0 947-199 947-704 0-416-345-723-934-723h-506v1388zm0-1811h461c608 0 1114-243 1114-832 0-627-532-838-1108-838-198 0-358 6-467 25v1645z" transform="scale(.01563)"/><path id="MyriadPro-Regular-59" d="M2010 0v1837l1446 2477h-634l-620-1191c-167-326-314-608-436-889h-12c-135 300-263 563-429 889L717 4314H83l1363-2484V0h564z" transform="scale(.01563)"/></defs><use xlink:href="#MyriadPro-Regular-40"/><use xlink:href="#MyriadPro-Regular-6e" x="73.7"/><use xlink:href="#MyriadPro-Regular-73" x="129.2"/><use xlink:href="#MyriadPro-Regular-63" x="168.8"/><use xlink:href="#MyriadPro-Regular-68" x="213.6"/><use xlink:href="#MyriadPro-Regular-6c" x="269.1"/><use xlink:href="#MyriadPro-Regular-6f" x="292.7"/><use xlink:href="#MyriadPro-Regular-65" x="347.6"/><use xlink:href="#MyriadPro-Regular-20" x="397.7"/><use xlink:href="#MyriadPro-Regular-2f" x="418.9"/><use xlink:href="#MyriadPro-Regular-20" x="453.2"/><use xlink:href="#MyriadPro-Regular-73" x="474.4"/><use xlink:href="#MyriadPro-Regular-6f" x="514"/><use xlink:href="#MyriadPro-Regular-74" x="568.9"/><use xlink:href="#MyriadPro-Regular-72" x="602"/><use xlink:href="#MyriadPro-Regular-65" x="634.7"/><use xlink:href="#MyriadPro-Regular-6e" x="684.8"/><use xlink:href="#MyriadPro-Regular-64" x="740.3"/><use xlink:href="#MyriadPro-Regular-73" x="796.7"/><use xlink:href="#MyriadPro-Regular-20" x="836.3"/><use xlink:href="#MyriadPro-Regular-7c" x="857.5"/><use xlink:href="#MyriadPro-Regular-20" x="881.4"/><use xlink:href="#MyriadPro-Regular-4e" x="902.6"/><use xlink:href="#MyriadPro-Regular-69" x="968.4"/><use xlink:href="#MyriadPro-Regular-63" x="991.8"/><use xlink:href="#MyriadPro-Regular-6f" x="1036.6"/><use xlink:href="#MyriadPro-Regular-20" x="1091.5"/><use xlink:href="#MyriadPro-Regular-53" x="1112.7"/><use xlink:href="#MyriadPro-Regular-63" x="1162"/><use xlink:href="#MyriadPro-Regular-68" x="1206.8"/><use xlink:href="#MyriadPro-Regular-6c" x="1262.3"/><use xlink:href="#MyriadPro-Regular-f6" x="1285.9"/><use xlink:href="#MyriadPro-Regular-6d" x="1340.8"/><use xlink:href="#MyriadPro-Regular-65" x="1424.2"/><use xlink:href="#MyriadPro-Regular-72" x="1474.3"/><use xlink:href="#MyriadPro-Regular-20" x="1507"/><use xlink:href="#MyriadPro-Regular-7c" x="1528.2"/><use xlink:href="#MyriadPro-Regular-20" x="1552.1"/><use xlink:href="#MyriadPro-Regular-43" x="1573.3"/><use xlink:href="#MyriadPro-Regular-43" x="1631.3"/><use xlink:href="#MyriadPro-Regular-20" x="1689.3"/><use xlink:href="#MyriadPro-Regular-42" x="1710.5"/><use xlink:href="#MyriadPro-Regular-59" x="1764.7"/></g><g style="fill:#b0b0b0" transform="matrix(.14 0 0 -.14 84.518 17.293)" id="text_19"><defs><path id="MyriadPro-Regular-44" d="M486 13c282-32 615-51 1012-51 838 0 1504 217 1907 620 403 397 621 973 621 1677 0 698-224 1197-608 1549-378 352-948 538-1748 538-441 0-844-39-1184-90V13zm557 3833c147 32 365 58 653 58 1178 0 1754-646 1747-1664 0-1165-646-1830-1837-1830-217 0-422 6-563 32v3404z" transform="scale(.01563)"/><path id="MyriadPro-Regular-62" d="M467 800c0-275-13-589-25-800h486l26 512h19c230-410 589-582 1037-582 691 0 1388 550 1388 1657 7 941-537 1581-1305 1581-499 0-858-224-1056-570h-13v1946H467V800zm557 998c0 90 19 167 32 231 115 429 474 691 858 691 601 0 921-531 921-1152 0-710-352-1190-941-1190-409 0-736 268-844 659-13 64-26 134-26 205v556z" transform="scale(.01563)"/><path id="MyriadPro-Regular-66" d="M1082 0v2669h748v429h-748v166c0 474 121 896 601 896 160 0 275-32 359-70l76 435c-108 45-281 89-480 89-262 0-544-83-755-288-262-249-358-646-358-1081v-147H90v-429h435V0h557z" transform="scale(.01563)"/><path id="MyriadPro-Regular-6b" d="M1024 4544H467V0h557v1165l288 320L2381 0h685L1702 1824l1197 1274h-678l-909-1069c-90-109-198-243-275-352h-13v2867z" transform="scale(.01563)"/><path id="MyriadPro-Regular-4f" d="M2234 4384c-1152 0-2004-896-2004-2266C230 813 1030-70 2170-70c1100 0 2003 787 2003 2272 0 1280-762 2182-1939 2182zm-26-454c928 0 1376-896 1376-1754 0-979-499-1792-1382-1792-877 0-1376 826-1376 1747 0 947 460 1799 1382 1799z" transform="scale(.01563)"/><path id="MyriadPro-Regular-76" d="M83 3098 1261 0h537l1216 3098h-588l-602-1741c-102-282-192-538-262-794h-20c-64 256-147 512-249 794L685 3098H83z" transform="scale(.01563)"/><path id="MyriadPro-Regular-77" d="M115 3098 1050 0h512l499 1472c109 333 205 653 281 1024h13c77-365 167-672 275-1018L3104 0h512l998 3098h-556l-442-1556c-102-364-186-691-237-1004h-19c-70 313-160 640-275 1011l-480 1549h-474l-505-1575c-103-339-205-672-276-985h-19c-57 320-141 640-230 985L691 3098H115z" transform="scale(.01563)"/></defs><use xlink:href="#MyriadPro-Regular-44"/><use xlink:href="#MyriadPro-Regular-61" x="66.6"/><use xlink:href="#MyriadPro-Regular-69" x="114.8"/><use xlink:href="#MyriadPro-Regular-6c" x="138.2"/><use xlink:href="#MyriadPro-Regular-79" x="161.8"/><use xlink:href="#MyriadPro-Regular-20" x="208.9"/><use xlink:href="#MyriadPro-Regular-6e" x="230.1"/><use xlink:href="#MyriadPro-Regular-75" x="285.6"/><use xlink:href="#MyriadPro-Regular-6d" x="340.7"/><use xlink:href="#MyriadPro-Regular-62" x="424.1"/><use xlink:href="#MyriadPro-Regular-65" x="481"/><use xlink:href="#MyriadPro-Regular-72" x="531.1"/><use xlink:href="#MyriadPro-Regular-20" x="563.8"/><use xlink:href="#MyriadPro-Regular-6f" x="585"/><use xlink:href="#MyriadPro-Regular-66" x="639.9"/><use xlink:href="#MyriadPro-Regular-20" x="669.1"/><use xlink:href="#MyriadPro-Regular-71" x="690.3"/><use xlink:href="#MyriadPro-Regular-75" x="746.6"/><use xlink:href="#MyriadPro-Regular-65" x="801.7"/><use xlink:href="#MyriadPro-Regular-73" x="851.8"/><use xlink:href="#MyriadPro-Regular-74" x="891.4"/><use xlink:href="#MyriadPro-Regular-69" x="924.5"/><use xlink:href="#MyriadPro-Regular-6f" x="947.9"/><use xlink:href="#MyriadPro-Regular-6e" x="1002.8"/><use xlink:href="#MyriadPro-Regular-73" x="1058.3"/><use xlink:href="#MyriadPro-Regular-20" x="1097.9"/><use xlink:href="#MyriadPro-Regular-6f" x="1119.1"/><use xlink:href="#MyriadPro-Regular-6e" x="1174"/><use xlink:href="#MyriadPro-Regular-20" x="1229.5"/><use xlink:href="#MyriadPro-Regular-53" x="1250.7"/><use xlink:href="#MyriadPro-Regular-74" x="1300"/><use xlink:href="#MyriadPro-Regular-61" x="1333.1"/><use xlink:href="#MyriadPro-Regular-63" x="1381.3"/><use xlink:href="#MyriadPro-Regular-6b" x="1426.1"/><use xlink:href="#MyriadPro-Regular-4f" x="1473"/><use xlink:href="#MyriadPro-Regular-76" x="1541.9"/><use xlink:href="#MyriadPro-Regular-65" x="1590"/><use xlink:href="#MyriadPro-Regular-72" x="1640.1"/><use xlink:href="#MyriadPro-Regular-66" x="1672.8"/><use xlink:href="#MyriadPro-Regular-6c" x="1702"/><use xlink:href="#MyriadPro-Regular-6f" x="1725.6"/><use xlink:href="#MyriadPro-Regular-77" x="1780.5"/></g><path d="m186.788 323.405 2.268-.035 2.269.035 2.268-.017h2.305l2.269.017 2.27-.017 2.266-.055 2.268-.015 2.306-.018 2.194.086 2.192-.12 2.27-.006 2.268-.345 2.268.092 2.269-.302 2.305.193 2.268-.18 2.27-.118 2.267-.19 2.268.155 2.306-.297 2.23-.172 2.23-.493 2.27.084 2.268-.102 2.268-.277 2.269-.055 2.305-.7 2.268.411 2.27.201 2.267-.58 2.268.388 2.306-.438 2.193.74 2.193-.652 2.27.07 2.268-.123 2.268-.673 2.268.096 2.306.525 2.268.012 2.27-.117 2.267.262 2.268.158 2.305-.14 2.194-.155 2.192-.038 2.27.048 2.269-.223 2.268-.32 2.268.303 2.305.157 2.269-.35 2.27.105 2.266.202 2.269-.237 2.305.543 2.194-.616 2.192-.627 2.27-.13 2.268-.85 2.268.669 2.269-.808 2.305.874 2.268.097 2.27-.167 2.267-.213 2.268.161 2.306-1.015 2.23.551 2.23-.55 2.27-1.371 2.268 1.125 2.269.755 2.268-1.28 2.305.14 2.268.164 2.27.606 2.267.316 2.268-.088 2.306-.7 2.194.384 2.192-.35 2.27.393 2.268.01 2.268.622 2.268-.027 2.306.7 2.268-.04 2.27-.153 2.267.37" clip-path="url(#pc441e4f175)" style="fill:none;stroke:#2ca02c;stroke-width:1.5;stroke-linecap:square" id="line2d_20"/><path d="m218.47 323.405 2.268-.035 2.305.035h6.805l2.268-.07 2.306.053 2.23-.039 2.23-.066 2.27-.004 2.268-.084 2.268-.007 2.269.042 2.305-.227 2.268.095 2.27-.078 2.267.06 2.268-.462 2.306-.438 2.193.043 2.193-.06 2.27-.114 2.268-.411 2.268-.06 2.268-.273 2.306-.315 2.268.3 2.27-.3 2.267-.297 2.268-.385 2.305-.088 2.194.202 2.192-.237 2.27.038 2.269-.528 2.268.184 2.268-.709 2.305.175 2.269-.243 2.27-.229 2.266-.043 2.269 1.18 2.305-1.014 2.194-.531 2.192-.45 2.27.255 2.268-.832 2.268.543 2.269-1.103 2.305.245 2.268.225 2.27-1.292 2.267-.39 2.268 1.177 2.306-.665 2.23-1.228 2.23.546 2.27-4.314 2.268.307 2.269 1.628 2.268-.666 2.305 1.225 2.268.58 2.27-.143 2.267.034 2.268.509 2.306-.333 2.194-.643 2.192-.529 2.27.418 2.268.72 2.268-.54 2.268 1.45 2.306-1.278 2.268.678 2.27-.1 2.267.173" clip-path="url(#pc441e4f175)" style="fill:none;stroke:#ff7f0e;stroke-width:1.5;stroke-linecap:square" id="line2d_21"/><path d="m35.745 320.252 1.749-1.379 2.267-.241 2.268.171 2.305-2.1 2.194-3.1 2.193-.225 2.27-2.684 2.268-3.947 2.268-4.425 2.268-3.257 2.306-4.112 2.268-1.292 4.536-3.472 2.269-.206 2.305-7.63 2.194-4.378 2.192-5.788 2.27 1.114 2.268 1.266 2.269-7.053 2.268-5.984 2.305-4.794 2.268.002 2.27.348 2.267-7.581 2.268-.766 4.5-24.177 2.192-11.887 2.27-2.426 2.268-3.226 2.268-4.223 2.268-7.764 2.306-8.539 2.268 6.575 2.27 3.662 2.267-10.316 2.268 5.888 2.305-14.418L128 155.114l2.23 4.575 2.27-.014 2.268-8.315 2.268-.545 2.269-6.717 2.305-3.797 2.268 14.745 2.27-12.593 2.267-3.898 2.268 20.137 2.305-30.518 2.194-16.752 2.193-5.978 2.27-3.703 2.268 13.065 2.268-1.818 2.268-15.103 2.306-.63 2.268-10.414 2.27-6.77 2.266 16.77 2.269 13.783 2.305-30.518 2.194-22.813 2.192 12.297 2.27 5.787 2.268 30.802 2.269 11.745 2.268-7.86 2.305 15.73 2.269-.872 2.27 7.557 2.266 4.774 2.268 21.526 2.306-10.761 2.194-20.632 2.192-1.469 2.27-4.196 2.268 1.606 2.268-9.11 2.269 3.598 2.305 12.18 2.268 1.255 2.27 5.114 4.535 18.146 2.306-9.782 2.23-14.567 2.23 10.14 2.27 1.003 2.268 7.816 2.268 8.728 2.269.914 2.305-1.523 2.268 11.187 2.27 9.742 2.267-6.216 2.268 8.63 2.306-5.057 2.193-14.991 2.193-1.685 2.27 17.533 2.268-2.081 2.268 2.19 2.268 8.816 2.306 1.102 2.268 14.112 2.27 3.282 2.267-1.455 2.268 21.928 2.305-7.174 2.194 5.116 2.192 3.476 2.27 7.013 4.537 9.059 2.268-3.351 2.305-7.7 2.269 10.78 2.27-1.33 2.266 4.856 2.269 13.272 2.305-7.35 2.194-3.559 2.192.445 2.27.681 2.268 6.616 2.268 4.884 2.269-5.356 2.305 10.761 2.268-1.806 2.27-.066 2.267-.314 2.268 7.54 2.306-5.196 2.23-4.475 2.23-.915 2.27-20.478 2.268 6.742 2.269 3.401 2.268 2.776 2.305 11.479 2.268 1.44 4.537 5.714 2.268 6.407 2.306-7.227 2.194.718 2.192.245 2.27 3.293 2.268 2.674 2.268-.396 2.268 2.845 2.306 1.698 2.268 2.618 2.27 3.716 2.267.967h0" clip-path="url(#pc441e4f175)" style="fill:none;stroke:#1f77b4;stroke-width:1.5;stroke-linecap:square" id="line2d_22"/></g></g><defs><clipPath id="pc441e4f175"><path d="M35.745 57.293h357.12v266.112H35.745z"/></clipPath></defs></svg>