<svg xmlns:xlink="http://www.w3.org/1999/xlink" width="635.248" height="552.354" viewBox="0 0 476.436 414.265" xmlns="http://www.w3.org/2000/svg"><defs><style>*{stroke-linejoin:round;stroke-linecap:butt}</style></defs><g id="figure_1"><path d="M0 414.265h476.436V0H0v414.265z" style="fill:none" id="patch_1"/><g id="axes_1"><path d="M42.926 323.405h357.12V57.293H42.926v266.112z" style="fill:none" id="patch_2"/><g id="matplotlib.axis_1"><g id="xtick_1"><g id="line2d_1"><defs><path id="me1482fa862" d="M0 0v3.5" style="stroke:#b0b0b0;stroke-width:.4"/></defs><use xlink:href="#me1482fa862" x="77.29" y="323.405" style="fill:#b0b0b0;stroke:#b0b0b0;stroke-width:.4"/></g><g style="fill:#b0b0b0" transform="matrix(.14 0 0 -.14 62.926 340.345)" id="text_1"><defs><path id="MyriadPro-Regular-32" d="M2944 0v467H1075v13l333 307c877 845 1434 1466 1434 2234 0 595-378 1209-1274 1209-480 0-890-179-1178-422l180-397c192 160 505 352 883 352 621 0 825-390 825-813-6-627-486-1164-1548-2176L288 346V0h2656z" transform="scale(.01563)"/><path id="MyriadPro-Regular-30" d="M1677 4230c-845 0-1447-768-1447-2163C243 691 794-70 1606-70c922 0 1447 780 1447 2195 0 1325-499 2105-1376 2105zm-32-435c582 0 845-672 845-1696 0-1062-276-1734-852-1734-512 0-844 614-844 1696 0 1133 358 1734 851 1734z" transform="scale(.01563)"/><path id="MyriadPro-Regular-31" d="M1510 0h544v4160h-480l-908-486 108-429 724 390h12V0z" transform="scale(.01563)"/></defs><use xlink:href="#MyriadPro-Regular-32"/><use xlink:href="#MyriadPro-Regular-30" x="51.3"/><use xlink:href="#MyriadPro-Regular-31" x="102.6"/><use xlink:href="#MyriadPro-Regular-30" x="153.9"/></g></g><g id="xtick_2"><use xlink:href="#me1482fa862" x="131.236" y="323.405" style="fill:#b0b0b0;stroke:#b0b0b0;stroke-width:.4" id="line2d_2"/><g style="fill:#b0b0b0" transform="matrix(.14 0 0 -.14 116.873 340.345)" id="text_2"><use xlink:href="#MyriadPro-Regular-32"/><use xlink:href="#MyriadPro-Regular-30" x="51.3"/><use xlink:href="#MyriadPro-Regular-31" x="102.6"/><use xlink:href="#MyriadPro-Regular-32" x="153.9"/></g></g><g id="xtick_3"><use xlink:href="#me1482fa862" x="185.257" y="323.405" style="fill:#b0b0b0;stroke:#b0b0b0;stroke-width:.4" id="line2d_3"/><g style="fill:#b0b0b0" transform="matrix(.14 0 0 -.14 170.894 340.345)" id="text_3"><defs><path id="MyriadPro-Regular-34" d="M2560 0v1133h582v441h-582v2586h-608L96 1504v-371h1933V0h531zM666 1574v13l1017 1415c115 192 218 371 346 614h19c-13-218-19-435-19-653V1574H666z" transform="scale(.01563)"/></defs><use xlink:href="#MyriadPro-Regular-32"/><use xlink:href="#MyriadPro-Regular-30" x="51.3"/><use xlink:href="#MyriadPro-Regular-31" x="102.6"/><use xlink:href="#MyriadPro-Regular-34" x="153.9"/></g></g><g id="xtick_4"><use xlink:href="#me1482fa862" x="239.204" y="323.405" style="fill:#b0b0b0;stroke:#b0b0b0;stroke-width:.4" id="line2d_4"/><g style="fill:#b0b0b0" transform="matrix(.14 0 0 -.14 224.84 340.345)" id="text_4"><defs><path id="MyriadPro-Regular-36" d="M2662 4224c-102 0-243-6-409-32-525-64-986-275-1331-614-410-410-704-1056-704-1876C218 621 800-70 1690-70c864 0 1382 704 1382 1465 0 813-518 1344-1254 1344-461 0-807-217-1005-480h-19c96 685 563 1331 1446 1479 160 25 307 32 422 25v461zM1690 365c-589 0-903 505-916 1190 0 103 26 186 64 250 154 301 468 512 807 512 518 0 857-359 857-954s-326-998-806-998h-6z" transform="scale(.01563)"/></defs><use xlink:href="#MyriadPro-Regular-32"/><use xlink:href="#MyriadPro-Regular-30" x="51.3"/><use xlink:href="#MyriadPro-Regular-31" x="102.6"/><use xlink:href="#MyriadPro-Regular-36" x="153.9"/></g></g><g id="xtick_5"><use xlink:href="#me1482fa862" x="293.224" y="323.405" style="fill:#b0b0b0;stroke:#b0b0b0;stroke-width:.4" id="line2d_5"/><g style="fill:#b0b0b0" transform="matrix(.14 0 0 -.14 278.861 340.345)" id="text_5"><defs><path id="MyriadPro-Regular-38" d="M1062 2170c-512-218-825-589-825-1114C237 448 762-70 1632-70c794 0 1414 486 1414 1209 0 506-320 871-838 1075v20c512 243 685 620 685 972 0 519-403 1024-1210 1024-729 0-1286-448-1286-1107 0-358 198-717 659-934l6-19zm583-1831c-531 0-851 371-832 794 0 397 262 717 749 857 563-160 915-403 915-908 0-423-327-743-832-743zm6 3488c506 0 704-345 704-678 0-378-275-634-633-755-480 128-794 352-794 768 0 358 256 665 723 665z" transform="scale(.01563)"/></defs><use xlink:href="#MyriadPro-Regular-32"/><use xlink:href="#MyriadPro-Regular-30" x="51.3"/><use xlink:href="#MyriadPro-Regular-31" x="102.6"/><use xlink:href="#MyriadPro-Regular-38" x="153.9"/></g></g><g id="xtick_6"><use xlink:href="#me1482fa862" x="347.171" y="323.405" style="fill:#b0b0b0;stroke:#b0b0b0;stroke-width:.4" id="line2d_6"/><g style="fill:#b0b0b0" transform="matrix(.14 0 0 -.14 332.808 340.345)" id="text_6"><use xlink:href="#MyriadPro-Regular-32"/><use xlink:href="#MyriadPro-Regular-30" x="51.3"/><use xlink:href="#MyriadPro-Regular-32" x="102.6"/><use xlink:href="#MyriadPro-Regular-30" x="153.9"/></g></g></g><g id="matplotlib.axis_2"><g id="ytick_1"><path d="M42.926 323.405h357.12" clip-path="url(#pbb20cf6728)" style="fill:none;stroke:#b0b0b0;stroke-width:.3;stroke-linecap:square" id="line2d_7"/><g id="line2d_8"><defs><path id="mbc8ba23277" d="M0 0h-3.5" style="stroke:#b0b0b0;stroke-width:.3"/></defs><use xlink:href="#mbc8ba23277" x="42.926" y="323.405" style="fill:#b0b0b0;stroke:#b0b0b0;stroke-width:.3"/></g><use xlink:href="#MyriadPro-Regular-30" style="fill:#b0b0b0" transform="matrix(.14 0 0 -.14 28.745 328.375)" id="text_7"/></g><g id="ytick_2"><path d="M42.926 279.95h357.12" clip-path="url(#pbb20cf6728)" style="fill:none;stroke:#b0b0b0;stroke-width:.3;stroke-linecap:square" id="line2d_9"/><use xlink:href="#mbc8ba23277" x="42.926" y="279.949" style="fill:#b0b0b0;stroke:#b0b0b0;stroke-width:.3" id="line2d_10"/><g style="fill:#b0b0b0" transform="matrix(.14 0 0 -.14 14.382 284.92)" id="text_8"><use xlink:href="#MyriadPro-Regular-32"/><use xlink:href="#MyriadPro-Regular-30" x="51.3"/><use xlink:href="#MyriadPro-Regular-30" x="102.6"/></g></g><g id="ytick_3"><path d="M42.926 236.493h357.12" clip-path="url(#pbb20cf6728)" style="fill:none;stroke:#b0b0b0;stroke-width:.3;stroke-linecap:square" id="line2d_11"/><use xlink:href="#mbc8ba23277" x="42.926" y="236.493" style="fill:#b0b0b0;stroke:#b0b0b0;stroke-width:.3" id="line2d_12"/><g style="fill:#b0b0b0" transform="matrix(.14 0 0 -.14 14.382 241.463)" id="text_9"><use xlink:href="#MyriadPro-Regular-34"/><use xlink:href="#MyriadPro-Regular-30" x="51.3"/><use xlink:href="#MyriadPro-Regular-30" x="102.6"/></g></g><g id="ytick_4"><path d="M42.926 193.037h357.12" clip-path="url(#pbb20cf6728)" style="fill:none;stroke:#b0b0b0;stroke-width:.3;stroke-linecap:square" id="line2d_13"/><use xlink:href="#mbc8ba23277" x="42.926" y="193.037" style="fill:#b0b0b0;stroke:#b0b0b0;stroke-width:.3" id="line2d_14"/><g style="fill:#b0b0b0" transform="matrix(.14 0 0 -.14 14.382 198.007)" id="text_10"><use xlink:href="#MyriadPro-Regular-36"/><use xlink:href="#MyriadPro-Regular-30" x="51.3"/><use xlink:href="#MyriadPro-Regular-30" x="102.6"/></g></g><g id="ytick_5"><path d="M42.926 149.581h357.12" clip-path="url(#pbb20cf6728)" style="fill:none;stroke:#b0b0b0;stroke-width:.3;stroke-linecap:square" id="line2d_15"/><use xlink:href="#mbc8ba23277" x="42.926" y="149.581" style="fill:#b0b0b0;stroke:#b0b0b0;stroke-width:.3" id="line2d_16"/><g style="fill:#b0b0b0" transform="matrix(.14 0 0 -.14 14.382 154.551)" id="text_11"><use xlink:href="#MyriadPro-Regular-38"/><use xlink:href="#MyriadPro-Regular-30" x="51.3"/><use xlink:href="#MyriadPro-Regular-30" x="102.6"/></g></g><g id="ytick_6"><path d="M42.926 106.125h357.12" clip-path="url(#pbb20cf6728)" style="fill:none;stroke:#b0b0b0;stroke-width:.3;stroke-linecap:square" id="line2d_17"/><use xlink:href="#mbc8ba23277" x="42.926" y="106.125" style="fill:#b0b0b0;stroke:#b0b0b0;stroke-width:.3" id="line2d_18"/><g style="fill:#b0b0b0" transform="matrix(.14 0 0 -.14 7.2 111.095)" id="text_12"><use xlink:href="#MyriadPro-Regular-31"/><use xlink:href="#MyriadPro-Regular-30" x="51.3"/><use xlink:href="#MyriadPro-Regular-30" x="102.6"/><use xlink:href="#MyriadPro-Regular-30" x="153.9"/></g></g><g id="ytick_7"><path d="M42.926 62.67h357.12" clip-path="url(#pbb20cf6728)" style="fill:none;stroke:#b0b0b0;stroke-width:.3;stroke-linecap:square" id="line2d_19"/><use xlink:href="#mbc8ba23277" x="42.926" y="62.669" style="fill:#b0b0b0;stroke:#b0b0b0;stroke-width:.3" id="line2d_20"/><g style="fill:#b0b0b0" transform="matrix(.14 0 0 -.14 7.2 67.64)" id="text_13"><use xlink:href="#MyriadPro-Regular-31"/><use xlink:href="#MyriadPro-Regular-32" x="51.3"/><use xlink:href="#MyriadPro-Regular-30" x="102.6"/><use xlink:href="#MyriadPro-Regular-30" x="153.9"/></g></g></g><path d="m42.926 323.35 12.894-.064 2.256-.076 2.254.111 2.254-.372 2.253.043 2.291-.092 2.254.049 2.256-.245 6.797-.035 2.18-.156 2.179.086 2.255-.374 4.508-.073 2.254-.044 2.29.106 2.255-.438 4.508.1 2.254-.048 2.29-.182 2.18-.36 4.434.156 2.254-.329 2.254-.12 2.254-.567 9.053-.316 2.254.68 2.29.099 4.433-.708 2.256.29 2.254-.024 4.507-.47 2.291.19 2.254-.637 2.256.118 2.252-.248 2.254.634 4.471-1.2 2.179-.118 2.255-.287 2.254.343 2.254-.364 4.545.154 2.254-.777 4.508-.529 4.544.745 2.18-1.037 4.434-.266 2.254.728 2.254-.85 2.254.556 2.291.231 2.254-.136 2.256.22 2.252-.633 2.254.563 2.29-.266 2.18-.558 2.18-.241 2.255-.381 2.254.08 2.254-1.225 4.544.566 2.254-.595 2.256.924 2.252-.112 2.254.084 2.291.484 2.217-1.303 2.216-.534 2.255-.028 2.254.743 2.254-.395 2.254.458 2.29-.75 2.255-.143 2.255.235 2.253-.727 2.254 1.441 2.29.057 2.18-.33 2.179-.575 2.255.906 2.254-.015 4.508-.561 2.291.56 2.254.11 2.256.55 2.252-.398 2.254 1.834 2.29-1.156 4.36-.848 2.255-.12 2.254.456 2.254.877 2.254.378 2.29.574 4.51-.203 2.252.323 2.254.483 2.291-.077 2.18-.265 2.179-.036 2.255-.482 2.254.033 2.254.214 2.254-.55 2.29 1.093 2.255-.232 4.508.196 2.254.947 2.29-.4 2.217-.774 2.216.123 2.255-1.533 2.254.033 2.254.496 4.545 1.81 2.254.044 2.256-.352 2.252.946 2.254.554 2.29-.092 2.18-.929 2.18-.353 2.255.769 2.254.394 2.254.15 2.254.369 4.544.014 2.256-.294 2.252.236 2.254.107h0" clip-path="url(#pbb20cf6728)" style="fill:none;stroke:#f7b6d2;stroke-width:1.5;stroke-linecap:square" id="line2d_21"/><path d="m42.926 320.187 1.738 1.466 2.253.593 2.254.03 2.29-.336 2.18-.762 2.18-.086 9.016-1.198 2.291.112 4.51-.056 2.252-1.289 2.254.728 2.291-.8 2.18-.53 2.179.468 2.255-.576 2.254.015 2.254-.739 2.254-.207 2.29-.589 2.255.166 2.255.325 2.253-.245 2.254-.442 4.47-2.569 2.179-1.756 2.255.79 4.508-.615 2.254.169 2.291-1.949 2.254 1.845 2.256-.093 2.252-1.269 2.254.73 2.29-1.55 2.218-1.945 2.215-.066L139.07 309l2.254.48 2.254.187 2.253-.805 2.291.007 2.254.37 2.256-1.708 2.252.405 2.254 2.09 2.291-2.832 2.18-1.178 2.179-.651 2.255.116 2.254 1.433 2.254.355 2.254-1.035 2.29-.294 2.255.084 2.255-2.194 2.253.905 2.254 1.457 2.29-2.229 2.18-.88 2.179-.403 2.255.787 2.254 1.106 2.254 1.878 2.254-1.044 2.291.603 2.254.868 2.256.057 2.252 1.124 2.254.215 2.29-1.942 2.18-.502 2.18.278 2.255-.874 2.254.558 2.254-1.08 2.254.548 2.29 1.857 2.254.58 2.256.296 2.252 1.181 2.254-.017 2.291-.827 2.217-1.782 2.216.962 2.255-.19 2.254 1.136 2.254-.383 2.254 1.946 2.29.154 2.255-.767 2.255 1.167 2.253.043 2.254 1.323 2.29-1.345 4.359.259 2.255 1.769 2.254.116 2.254.362 2.254-.39 4.545 1.817 2.256-.254 2.252.58 2.254 1.39 2.29-1.01 2.18.173 2.18.528 2.255.258 2.254-.068 2.254.047 2.254.352 2.29.21 2.254.452 2.256-.683 4.506.834 2.291-.729 6.614.773 2.254.279 2.254.062 2.254-.44 2.29-.036 2.255.142 2.255-.689 2.253 1.095 2.254-.05 2.29-.463 2.217.364 2.216-.182 2.255-.82 2.254.982 2.254.633 2.254-.577 2.291 1.22 2.254.11 2.256.296 2.252-.42 2.254.588 2.29-.512 2.18-.608 2.18.812 2.255-.366 2.254 1.214 2.254-.265 4.544-.128 2.254-.148 2.256.373 4.506.3h0" clip-path="url(#pbb20cf6728)" style="fill:none;stroke:#c49c94;stroke-width:1.5;stroke-linecap:square" id="line2d_22"/><path d="M89.557 323.405h33.772l42.714-.087 2.254-.06 4.508.063 11.307-.007 2.29-.19 4.359.078 4.51-.112 2.253-.047 4.545-.549 2.254.238 2.256-.574 2.252.11 2.254-.047 2.29-.449 2.18.306 2.18.108 4.509-.54 2.254.05 4.544.398 4.51.379 2.252-.067 2.254.088 2.291-.154 2.217-.036 2.216-.189 2.255.153 2.254-.174 2.254-.311 2.254.396 2.29-.449 2.255.451 2.255-.143 2.253.034 6.724-.25 8.942.308 2.254-.33 2.291.154 2.254.43 4.508-.232 2.254-.471 2.29.315 4.36-.413 2.255.352 2.254-.233 2.254.146 2.254-.076 2.29.091 2.254-.138 2.256.09 2.252-.134 2.254.007 2.291-.568 2.18.415 2.179.055 2.255-.423 2.254.086 6.799-.687 4.51.204 4.506-.077 2.29.266 2.217-.67 2.216.235 2.255-.704 2.254-.368 2.254.498 2.254-.246 2.291.091 2.254-.113 4.508.565 4.545-.69 2.18.108 2.178-.683 2.256-.277 2.254.887 2.254-.33 4.544.491 2.254.32 2.256-.193 2.252-.386 2.254-1.08h0" clip-path="url(#pbb20cf6728)" style="fill:none;stroke:#c5b0d5;stroke-width:1.5;stroke-linecap:square" id="line2d_23"/><g style="fill:#1f77b4" transform="matrix(.14 0 0 -.14 410.76 153.264)" id="text_14"><defs><path id="MyriadPro-Regular-70" d="M467-1267h557V416h13c185-307 544-486 953-486 730 0 1408 550 1408 1664 0 940-563 1574-1312 1574-505 0-870-224-1100-602h-13l-26 532H442c12-295 25-615 25-1012v-3353zm557 3059c0 77 19 160 38 230 109 423 468 698 852 698 595 0 921-531 921-1152 0-710-345-1197-941-1197-403 0-742 269-844 659-13 71-26 148-26 231v531z" transform="scale(.01563)"/><path id="MyriadPro-Regular-79" d="M58 3098 1203 243c26-70 39-115 39-147s-20-77-45-134c-128-288-320-506-474-628-166-140-352-230-493-275l141-473c141 25 416 121 691 364 384 333 660 877 1063 1940l845 2208h-596l-614-1818c-77-224-141-461-198-646h-13c-51 185-128 428-199 633L672 3098H58z" transform="scale(.01563)"/><path id="MyriadPro-Regular-74" d="M595 3667v-569H115v-429h480V979c0-365 58-640 218-806C947 19 1158-70 1421-70c217 0 390 38 499 83l-26 422c-83-25-172-38-326-38-314 0-422 217-422 601v1671h806v429h-806v742l-551-173z" transform="scale(.01563)"/><path id="MyriadPro-Regular-68" d="M467 0h563v1869c0 109 7 192 39 269 102 307 390 563 755 563 531 0 717-423 717-922V0h563v1843c0 1069-666 1325-1082 1325-211 0-409-64-576-160-172-96-313-237-403-397h-13v1933H467V0z" transform="scale(.01563)"/><path id="MyriadPro-Regular-6f" d="M1779 3168c-857 0-1536-608-1536-1645C243 544 890-70 1728-70c749 0 1542 499 1542 1644 0 948-601 1594-1491 1594zm-13-422c666 0 928-666 928-1191 0-697-403-1203-940-1203-551 0-941 512-941 1190 0 589 288 1204 953 1204z" transform="scale(.01563)"/><path id="MyriadPro-Regular-6e" d="M467 0h563v1862c0 96 13 192 39 263 96 313 384 576 755 576 531 0 717-416 717-915V0h563v1850c0 1062-666 1318-1094 1318-512 0-871-288-1024-582h-13l-32 512H442c19-256 25-519 25-839V0z" transform="scale(.01563)"/></defs><use xlink:href="#MyriadPro-Regular-70"/><use xlink:href="#MyriadPro-Regular-79" x="56.9"/><use xlink:href="#MyriadPro-Regular-74" x="104"/><use xlink:href="#MyriadPro-Regular-68" x="137.1"/><use xlink:href="#MyriadPro-Regular-6f" x="192.6"/><use xlink:href="#MyriadPro-Regular-6e" x="247.5"/></g><g style="fill:#ff7f0e" transform="matrix(.14 0 0 -.14 410.76 194.112)" id="text_15"><defs><path id="MyriadPro-Regular-6a" d="M-230-1350c300 0 710 102 960 352 275 281 371 672 371 1273v2823H538V493c0-743-58-992-212-1165C192-819-32-890-288-909l58-441zM826 4320c-212 0-359-154-359-352 0-186 135-346 346-346 224 0 358 160 352 346 0 198-135 352-339 352z" transform="scale(.01563)"/><path id="MyriadPro-Regular-61" d="M2643 1901c0 621-230 1267-1177 1267-391 0-762-109-1018-275l128-371c218 140 518 230 806 230 634 0 704-461 704-717v-64C890 1978 224 1568 224 819c0-448 320-889 947-889 442 0 775 217 947 460h20l44-390h512c-38 211-51 474-51 742v1159zm-544-858c0-57-13-121-32-179-89-262-345-518-749-518-288 0-531 172-531 537 0 602 698 711 1312 698v-538z" transform="scale(.01563)"/><path id="MyriadPro-Regular-76" d="M83 3098 1261 0h537l1216 3098h-588l-602-1741c-102-282-192-538-262-794h-20c-64 256-147 512-249 794L685 3098H83z" transform="scale(.01563)"/><path id="MyriadPro-Regular-73" d="M250 147C467 19 781-70 1120-70c736 0 1158 390 1158 934 0 461-275 730-812 934-404 154-589 269-589 525 0 231 185 423 518 423 288 0 512-103 634-180l141 410c-173 102-448 192-762 192-666 0-1069-410-1069-909 0-371 263-678 819-877 416-153 576-300 576-569 0-256-192-461-601-461-282 0-576 115-743 224L250 147z" transform="scale(.01563)"/><path id="MyriadPro-Regular-63" d="M2579 538c-160-71-371-154-691-154-614 0-1075 442-1075 1158 0 647 384 1172 1094 1172 307 0 519-71 653-148l128 436c-154 76-448 160-781 160-1011 0-1664-692-1664-1645C243 570 851-70 1786-70c416 0 742 108 889 185l-96 423z" transform="scale(.01563)"/><path id="MyriadPro-Regular-72" d="M467 0h557v1651c0 96 13 186 26 263 76 422 358 723 755 723 77 0 134-7 192-19v531c-51 13-96 19-160 19-378 0-717-262-858-678h-25l-20 608H442c19-288 25-602 25-967V0z" transform="scale(.01563)"/><path id="MyriadPro-Regular-69" d="M1030 0v3098H467V0h563zM749 4320c-205 0-352-154-352-352 0-192 141-346 339-346 224 0 365 154 358 346 0 198-134 352-345 352z" transform="scale(.01563)"/></defs><use xlink:href="#MyriadPro-Regular-6a"/><use xlink:href="#MyriadPro-Regular-61" x="24.3"/><use xlink:href="#MyriadPro-Regular-76" x="72.5"/><use xlink:href="#MyriadPro-Regular-61" x="120.6"/><use xlink:href="#MyriadPro-Regular-73" x="168.8"/><use xlink:href="#MyriadPro-Regular-63" x="208.4"/><use xlink:href="#MyriadPro-Regular-72" x="253.2"/><use xlink:href="#MyriadPro-Regular-69" x="285.9"/><use xlink:href="#MyriadPro-Regular-70" x="309.3"/><use xlink:href="#MyriadPro-Regular-74" x="366.2"/></g><g style="fill:#2ca02c" transform="matrix(.14 0 0 -.14 410.76 208.112)" id="text_16"><use xlink:href="#MyriadPro-Regular-6a"/><use xlink:href="#MyriadPro-Regular-61" x="24.3"/><use xlink:href="#MyriadPro-Regular-76" x="72.5"/><use xlink:href="#MyriadPro-Regular-61" x="120.6"/></g><g style="fill:#d62728" transform="matrix(.14 0 0 -.14 410.76 222.294)" id="text_17"><defs><path id="MyriadPro-Regular-23" d="m1203 1632 122 928h665l-121-928h-666zM979 0l167 1254h665L1645 0h384l166 1254h608v378h-550l115 928h582v378h-524l160 1222h-378l-166-1222h-666l160 1222h-371L998 2938H390v-378h551l-122-928H237v-378h525L595 0h384z" transform="scale(.01563)"/></defs><use xlink:href="#MyriadPro-Regular-63"/><use xlink:href="#MyriadPro-Regular-23" x="44.8"/></g><g style="fill:#9467bd" transform="matrix(.14 0 0 -.14 410.76 236.294)" id="text_18"><use xlink:href="#MyriadPro-Regular-70"/><use xlink:href="#MyriadPro-Regular-68" x="56.9"/><use xlink:href="#MyriadPro-Regular-70" x="112.4"/></g><g style="fill:#8c564b" transform="matrix(.14 0 0 -.14 410.76 250.294)" id="text_19"><defs><path id="MyriadPro-Regular-2b" d="M1702 3405V1901H256v-384h1446V0h410v1517h1446v384H2112v1504h-410z" transform="scale(.01563)"/></defs><use xlink:href="#MyriadPro-Regular-63"/><use xlink:href="#MyriadPro-Regular-2b" x="44.8"/><use xlink:href="#MyriadPro-Regular-2b" x="104.4"/></g><use xlink:href="#MyriadPro-Regular-72" style="fill:#e377c2" transform="matrix(.14 0 0 -.14 410.76 264.294)" id="text_20"/><g style="fill:#7f7f7f" transform="matrix(.14 0 0 -.14 410.76 278.294)" id="text_21"><defs><path id="MyriadPro-Regular-71" d="M2579-1267h563v3513c0 320 7 589 20 852h-532l-19-468h-13c-153 301-473 538-953 538-653 0-1402-512-1402-1670C243 557 832-70 1555-70c499 0 845 243 1011 550h13v-1747zm0 2528c0-83-19-192-45-269-128-390-441-614-806-614-621 0-915 537-915 1152 0 697 352 1190 934 1190 423 0 723-294 807-640 19-70 25-160 25-237v-582z" transform="scale(.01563)"/><path id="MyriadPro-Regular-6c" d="M467 0h563v4544H467V0z" transform="scale(.01563)"/></defs><use xlink:href="#MyriadPro-Regular-73"/><use xlink:href="#MyriadPro-Regular-71" x="39.6"/><use xlink:href="#MyriadPro-Regular-6c" x="95.9"/></g><g style="fill:#bcbd22" transform="matrix(.14 0 0 -.14 410.76 291.972)" id="text_22"><defs><path id="MyriadPro-Regular-65" d="M2957 1446c6 58 19 148 19 263 0 569-269 1459-1280 1459-902 0-1453-736-1453-1670C243 563 813-70 1766-70c493 0 832 108 1031 198l-96 403c-211-89-455-160-858-160-563 0-1049 314-1062 1075h2176zM787 1850c45 390 295 915 864 915 634 0 787-557 781-915H787z" transform="scale(.01563)"/></defs><use xlink:href="#MyriadPro-Regular-74"/><use xlink:href="#MyriadPro-Regular-79" x="33.1"/><use xlink:href="#MyriadPro-Regular-70" x="80.2"/><use xlink:href="#MyriadPro-Regular-65" x="137.1"/><use xlink:href="#MyriadPro-Regular-73" x="187.2"/><use xlink:href="#MyriadPro-Regular-63" x="226.8"/><use xlink:href="#MyriadPro-Regular-72" x="271.6"/><use xlink:href="#MyriadPro-Regular-69" x="304.3"/><use xlink:href="#MyriadPro-Regular-70" x="327.7"/><use xlink:href="#MyriadPro-Regular-74" x="384.6"/></g><use xlink:href="#MyriadPro-Regular-63" style="fill:#17becf" transform="matrix(.14 0 0 -.14 410.76 306.294)" id="text_23"/><g style="fill:#aec7e8" transform="matrix(.14 0 0 -.14 410.76 320.294)" id="text_24"><defs><path id="MyriadPro-Regular-77" d="M115 3098 1050 0h512l499 1472c109 333 205 653 281 1024h13c77-365 167-672 275-1018L3104 0h512l998 3098h-556l-442-1556c-102-364-186-691-237-1004h-19c-70 313-160 640-275 1011l-480 1549h-474l-505-1575c-103-339-205-672-276-985h-19c-57 320-141 640-230 985L691 3098H115z" transform="scale(.01563)"/><path id="MyriadPro-Regular-66" d="M1082 0v2669h748v429h-748v166c0 474 121 896 601 896 160 0 275-32 359-70l76 435c-108 45-281 89-480 89-262 0-544-83-755-288-262-249-358-646-358-1081v-147H90v-429h435V0h557z" transform="scale(.01563)"/></defs><use xlink:href="#MyriadPro-Regular-73"/><use xlink:href="#MyriadPro-Regular-77" x="39.6"/><use xlink:href="#MyriadPro-Regular-69" x="113.2"/><use xlink:href="#MyriadPro-Regular-66" x="136.6"/><use xlink:href="#MyriadPro-Regular-74" x="165.8"/></g><g style="fill:#ffbb78" transform="matrix(.14 0 0 -.14 410.76 334.294)" id="text_25"><defs><path id="MyriadPro-Regular-64" d="M2579 4544V2694h-13c-140 250-460 474-934 474-755 0-1395-634-1389-1664C243 563 819-70 1568-70c506 0 883 262 1056 608h13l25-538h506c-19 211-26 525-26 800v3744h-563zm0-3245c0-89-6-166-25-243-103-422-448-672-826-672-608 0-915 518-915 1146 0 684 345 1196 928 1196 422 0 729-294 813-652 19-71 25-167 25-237v-538z" transform="scale(.01563)"/></defs><use xlink:href="#MyriadPro-Regular-64"/><use xlink:href="#MyriadPro-Regular-61" x="56.4"/><use xlink:href="#MyriadPro-Regular-72" x="104.6"/><use xlink:href="#MyriadPro-Regular-74" x="137.3"/></g><g style="fill:#98df8a" transform="matrix(.14 0 0 -.14 410.76 348.294)" id="text_26"><defs><path id="MyriadPro-Regular-6b" d="M1024 4544H467V0h557v1165l288 320L2381 0h685L1702 1824l1197 1274h-678l-909-1069c-90-109-198-243-275-352h-13v2867z" transform="scale(.01563)"/></defs><use xlink:href="#MyriadPro-Regular-6b"/><use xlink:href="#MyriadPro-Regular-6f" x="46.9"/><use xlink:href="#MyriadPro-Regular-74" x="101.8"/><use xlink:href="#MyriadPro-Regular-6c" x="134.9"/><use xlink:href="#MyriadPro-Regular-69" x="158.5"/><use xlink:href="#MyriadPro-Regular-6e" x="181.9"/></g><g style="fill:#ff9896" transform="matrix(.14 0 0 -.14 410.76 362.138)" id="text_27"><defs><path id="MyriadPro-Regular-67" d="M3110 2246c0 378 13 628 26 852h-493l-25-468h-13c-135 256-429 538-967 538-710 0-1395-595-1395-1645C243 666 794 13 1562 13c480 0 812 230 985 518h13V186c0-781-422-1082-998-1082-384 0-704 115-909 243l-141-429c250-166 659-256 1030-256 391 0 826 90 1127 372 301 268 441 704 441 1414v1798zm-556-928c0-96-13-204-45-300-122-359-435-576-781-576-608 0-915 505-915 1113 0 717 384 1171 921 1171 410 0 685-268 788-595 25-77 32-160 32-256v-557z" transform="scale(.01563)"/></defs><use xlink:href="#MyriadPro-Regular-67"/><use xlink:href="#MyriadPro-Regular-6f" x="55.9"/></g><g style="fill:#c5b0d5" transform="matrix(.14 0 0 -.14 410.76 376.294)" id="text_28"><defs><path id="MyriadPro-Regular-75" d="M3059 3098h-563V1197c0-103-19-205-51-288-103-250-365-512-743-512-512 0-691 397-691 985v1716H448V1286C448 198 1030-70 1517-70c550 0 877 326 1024 576h13l32-506h499c-19 243-26 525-26 845v2253z" transform="scale(.01563)"/></defs><use xlink:href="#MyriadPro-Regular-72"/><use xlink:href="#MyriadPro-Regular-75" x="32.7"/><use xlink:href="#MyriadPro-Regular-73" x="87.8"/><use xlink:href="#MyriadPro-Regular-74" x="127.4"/></g><g style="fill:#c49c94" transform="matrix(.14 0 0 -.14 410.76 390.133)" id="text_29"><defs><path id="MyriadPro-Regular-62" d="M467 800c0-275-13-589-25-800h486l26 512h19c230-410 589-582 1037-582 691 0 1388 550 1388 1657 7 941-537 1581-1305 1581-499 0-858-224-1056-570h-13v1946H467V800zm557 998c0 90 19 167 32 231 115 429 474 691 858 691 601 0 921-531 921-1152 0-710-352-1190-941-1190-409 0-736 268-844 659-13 64-26 134-26 205v556z" transform="scale(.01563)"/></defs><use xlink:href="#MyriadPro-Regular-72"/><use xlink:href="#MyriadPro-Regular-75" x="32.7"/><use xlink:href="#MyriadPro-Regular-62" x="87.8"/><use xlink:href="#MyriadPro-Regular-79" x="144.7"/></g><g style="fill:#f7b6d2" transform="matrix(.14 0 0 -.14 410.76 404.294)" id="text_30"><use xlink:href="#MyriadPro-Regular-73"/><use xlink:href="#MyriadPro-Regular-63" x="39.6"/><use xlink:href="#MyriadPro-Regular-61" x="84.4"/><use xlink:href="#MyriadPro-Regular-6c" x="132.6"/><use xlink:href="#MyriadPro-Regular-61" x="156.2"/></g><g style="fill:#b0b0b0" transform="matrix(.09716 0 0 -.09716 42.926 357.303)" id="text_31"><defs><path id="MyriadPro-Regular-40" d="M2867 1632c-70-397-409-870-781-870-281 0-422 204-422 486 0 621 454 1152 1018 1152 147 0 256-26 320-45l-135-723zm384-1773c-262-147-601-224-966-224-947 0-1645 666-1645 1735 0 1299 877 2131 1920 2131 992 0 1549-672 1549-1600 0-743-365-1178-691-1171-212 6-288 230-192 716l217 1159c-166 77-409 134-685 134-889 0-1516-723-1516-1517 0-505 320-806 691-806 384 0 678 186 902 563h26c-19-390 217-563 473-563 602 0 1140 563 1140 1523 0 1069-749 1856-1863 1856-1421 0-2336-1145-2336-2464C275 96 1165-672 2214-672c429 0 788 70 1140 256l-103 275z" transform="scale(.01563)"/><path id="MyriadPro-Regular-2f" d="m422-256 1792 4640h-435L-6-256h428z" transform="scale(.01563)"/><path id="MyriadPro-Regular-7c" d="M550 4800v-6400h429v6400H550z" transform="scale(.01563)"/><path id="MyriadPro-Regular-4e" d="M1011 0v1843c0 717-13 1235-45 1779l20 7c217-467 505-960 806-1440L3162 0h563v4314h-525V2509c0-672 13-1197 64-1773l-13-6c-205 441-454 896-774 1401L1094 4314H486V0h525z" transform="scale(.01563)"/><path id="MyriadPro-Regular-53" d="M269 211C499 58 954-70 1370-70c1017 0 1510 582 1510 1248 0 633-371 985-1101 1267-595 230-857 429-857 832 0 294 224 646 812 646 391 0 679-128 820-205l153 455c-192 109-512 211-953 211-839 0-1396-499-1396-1171 0-608 436-973 1140-1223 582-224 812-454 812-857 0-435-332-736-902-736-384 0-749 128-998 281L269 211z" transform="scale(.01563)"/><path id="MyriadPro-Regular-f6" d="M1165 3648c185 0 313 154 313 326 0 186-134 327-313 327s-327-147-327-327c0-172 135-326 320-326h7zm1184 0c185 0 313 154 313 326 0 186-134 327-313 327s-320-147-320-327c0-172 128-326 313-326h7zm-570-480c-857 0-1536-608-1536-1645C243 544 890-70 1728-70c749 0 1542 499 1542 1644 0 948-601 1594-1491 1594zm-13-422c666 0 928-666 928-1191 0-697-403-1203-940-1203-551 0-941 512-941 1190 0 589 288 1204 953 1204z" transform="scale(.01563)"/><path id="MyriadPro-Regular-6d" d="M467 0h551v1869c0 96 12 192 44 275 90 282 346 563 698 563 429 0 646-358 646-851V0h551v1914c0 102 19 204 45 281 96 275 345 512 665 512 455 0 672-358 672-953V0h551v1824c0 1075-608 1344-1018 1344-294 0-499-77-685-218-128-96-249-230-345-403h-13c-135 365-455 621-877 621-512 0-800-275-973-570h-19l-26 500H442c19-256 25-519 25-839V0z" transform="scale(.01563)"/><path id="MyriadPro-Regular-43" d="M3386 582c-224-108-570-179-909-179-1050 0-1658 679-1658 1735 0 1132 672 1779 1683 1779 359 0 660-77 871-179l134 454c-147 77-486 192-1024 192-1337 0-2253-915-2253-2266C230 704 1146-70 2362-70c524 0 934 108 1139 211l-115 441z" transform="scale(.01563)"/><path id="MyriadPro-Regular-42" d="M486 13c186-26 480-51 864-51 704 0 1191 128 1492 403 217 211 364 493 364 864 0 640-480 979-889 1081v13c454 167 729 531 729 947 0 340-134 596-358 762-269 218-627 314-1184 314-390 0-774-39-1018-90V13zm557 3865c90 20 237 39 493 39 563 0 947-199 947-704 0-416-345-723-934-723h-506v1388zm0-1811h461c608 0 1114-243 1114-832 0-627-532-838-1108-838-198 0-358 6-467 25v1645z" transform="scale(.01563)"/><path id="MyriadPro-Regular-59" d="M2010 0v1837l1446 2477h-634l-620-1191c-167-326-314-608-436-889h-12c-135 300-263 563-429 889L717 4314H83l1363-2484V0h564z" transform="scale(.01563)"/></defs><use xlink:href="#MyriadPro-Regular-40"/><use xlink:href="#MyriadPro-Regular-6e" x="73.7"/><use xlink:href="#MyriadPro-Regular-73" x="129.2"/><use xlink:href="#MyriadPro-Regular-63" x="168.8"/><use xlink:href="#MyriadPro-Regular-68" x="213.6"/><use xlink:href="#MyriadPro-Regular-6c" x="269.1"/><use xlink:href="#MyriadPro-Regular-6f" x="292.7"/><use xlink:href="#MyriadPro-Regular-65" x="347.6"/><use xlink:href="#MyriadPro-Regular-20" x="397.7"/><use xlink:href="#MyriadPro-Regular-2f" x="418.9"/><use xlink:href="#MyriadPro-Regular-20" x="453.2"/><use xlink:href="#MyriadPro-Regular-73" x="474.4"/><use xlink:href="#MyriadPro-Regular-6f" x="514"/><use xlink:href="#MyriadPro-Regular-74" x="568.9"/><use xlink:href="#MyriadPro-Regular-72" x="602"/><use xlink:href="#MyriadPro-Regular-65" x="634.7"/><use xlink:href="#MyriadPro-Regular-6e" x="684.8"/><use xlink:href="#MyriadPro-Regular-64" x="740.3"/><use xlink:href="#MyriadPro-Regular-73" x="796.7"/><use xlink:href="#MyriadPro-Regular-20" x="836.3"/><use xlink:href="#MyriadPro-Regular-7c" x="857.5"/><use xlink:href="#MyriadPro-Regular-20" x="881.4"/><use xlink:href="#MyriadPro-Regular-4e" x="902.6"/><use xlink:href="#MyriadPro-Regular-69" x="968.4"/><use xlink:href="#MyriadPro-Regular-63" x="991.8"/><use xlink:href="#MyriadPro-Regular-6f" x="1036.6"/><use xlink:href="#MyriadPro-Regular-20" x="1091.5"/><use xlink:href="#MyriadPro-Regular-53" x="1112.7"/><use xlink:href="#MyriadPro-Regular-63" x="1162"/><use xlink:href="#MyriadPro-Regular-68" x="1206.8"/><use xlink:href="#MyriadPro-Regular-6c" x="1262.3"/><use xlink:href="#MyriadPro-Regular-f6" x="1285.9"/><use xlink:href="#MyriadPro-Regular-6d" x="1340.8"/><use xlink:href="#MyriadPro-Regular-65" x="1424.2"/><use xlink:href="#MyriadPro-Regular-72" x="1474.3"/><use xlink:href="#MyriadPro-Regular-20" x="1507"/><use xlink:href="#MyriadPro-Regular-7c" x="1528.2"/><use xlink:href="#MyriadPro-Regular-20" x="1552.1"/><use xlink:href="#MyriadPro-Regular-43" x="1573.3"/><use xlink:href="#MyriadPro-Regular-43" x="1631.3"/><use xlink:href="#MyriadPro-Regular-20" x="1689.3"/><use xlink:href="#MyriadPro-Regular-42" x="1710.5"/><use xlink:href="#MyriadPro-Regular-59" x="1764.7"/></g><g style="fill:#b0b0b0" transform="matrix(.14 0 0 -.14 91.7 17.293)" id="text_32"><defs><path id="MyriadPro-Regular-44" d="M486 13c282-32 615-51 1012-51 838 0 1504 217 1907 620 403 397 621 973 621 1677 0 698-224 1197-608 1549-378 352-948 538-1748 538-441 0-844-39-1184-90V13zm557 3833c147 32 365 58 653 58 1178 0 1754-646 1747-1664 0-1165-646-1830-1837-1830-217 0-422 6-563 32v3404z" transform="scale(.01563)"/><path id="MyriadPro-Regular-4f" d="M2234 4384c-1152 0-2004-896-2004-2266C230 813 1030-70 2170-70c1100 0 2003 787 2003 2272 0 1280-762 2182-1939 2182zm-26-454c928 0 1376-896 1376-1754 0-979-499-1792-1382-1792-877 0-1376 826-1376 1747 0 947 460 1799 1382 1799z" transform="scale(.01563)"/></defs><use xlink:href="#MyriadPro-Regular-44"/><use xlink:href="#MyriadPro-Regular-61" x="66.6"/><use xlink:href="#MyriadPro-Regular-69" x="114.8"/><use xlink:href="#MyriadPro-Regular-6c" x="138.2"/><use xlink:href="#MyriadPro-Regular-79" x="161.8"/><use xlink:href="#MyriadPro-Regular-20" x="208.9"/><use xlink:href="#MyriadPro-Regular-6e" x="230.1"/><use xlink:href="#MyriadPro-Regular-75" x="285.6"/><use xlink:href="#MyriadPro-Regular-6d" x="340.7"/><use xlink:href="#MyriadPro-Regular-62" x="424.1"/><use xlink:href="#MyriadPro-Regular-65" x="481"/><use xlink:href="#MyriadPro-Regular-72" x="531.1"/><use xlink:href="#MyriadPro-Regular-20" x="563.8"/><use xlink:href="#MyriadPro-Regular-6f" x="585"/><use xlink:href="#MyriadPro-Regular-66" x="639.9"/><use xlink:href="#MyriadPro-Regular-20" x="669.1"/><use xlink:href="#MyriadPro-Regular-71" x="690.3"/><use xlink:href="#MyriadPro-Regular-75" x="746.6"/><use xlink:href="#MyriadPro-Regular-65" x="801.7"/><use xlink:href="#MyriadPro-Regular-73" x="851.8"/><use xlink:href="#MyriadPro-Regular-74" x="891.4"/><use xlink:href="#MyriadPro-Regular-69" x="924.5"/><use xlink:href="#MyriadPro-Regular-6f" x="947.9"/><use xlink:href="#MyriadPro-Regular-6e" x="1002.8"/><use xlink:href="#MyriadPro-Regular-73" x="1058.3"/><use xlink:href="#MyriadPro-Regular-20" x="1097.9"/><use xlink:href="#MyriadPro-Regular-6f" x="1119.1"/><use xlink:href="#MyriadPro-Regular-6e" x="1174"/><use xlink:href="#MyriadPro-Regular-20" x="1229.5"/><use xlink:href="#MyriadPro-Regular-53" x="1250.7"/><use xlink:href="#MyriadPro-Regular-74" x="1300"/><use xlink:href="#MyriadPro-Regular-61" x="1333.1"/><use xlink:href="#MyriadPro-Regular-63" x="1381.3"/><use xlink:href="#MyriadPro-Regular-6b" x="1426.1"/><use xlink:href="#MyriadPro-Regular-4f" x="1473"/><use xlink:href="#MyriadPro-Regular-76" x="1541.9"/><use xlink:href="#MyriadPro-Regular-65" x="1590"/><use xlink:href="#MyriadPro-Regular-72" x="1640.1"/><use xlink:href="#MyriadPro-Regular-66" x="1672.8"/><use xlink:href="#MyriadPro-Regular-6c" x="1702"/><use xlink:href="#MyriadPro-Regular-6f" x="1725.6"/><use xlink:href="#MyriadPro-Regular-77" x="1780.5"/></g><path d="m71.638 323.405 2.252-.478 2.254.401 6.65.021 20.324-.07 8.904.075 2.254-.208 11.309-.021 2.252-.198 6.762.246 8.979-.29 4.544.017 2.254-.444 2.256.234 4.506-.077 2.291.084 2.18-.2 4.434-.004 2.254-.097 2.254-.266 6.799-.441 2.255.23 2.253-.035 2.254-.161 2.29-.442 2.18.526 2.179-.19 2.255-.689 2.254.515 2.254-.124 2.254-1.096 2.291.343h2.254l6.762.379 2.29-.841 2.18.321 2.18-.307 2.255.455 2.254.057 4.508-.505 4.544.188 2.256.085 2.252-.158 2.254.18 4.508-1.083 4.471-.3 2.254.296 4.508.294 2.29-.26 2.255.308 2.255-.006 2.253.267 2.254-.028 4.47-.825 2.179-.29 2.255.904 2.254-.434 2.254-.037 2.254-.44 4.545.65 4.508-.79 2.254 1.03 2.29-.119 2.18-.691 2.18.243 2.255-.26 2.254.077 2.254-.446 4.544-.31 2.254.115 2.256-.887 2.252.401 2.254.84 2.291-.154 4.359-.568 2.255.346 2.254-.052 2.254.472 2.254-1.137 2.29-.014 2.255.21 4.508-.022 2.254.253 2.29-.406 2.217-.515 2.216-.04 2.255-1.24 2.254.764 2.254.199 2.254.818 2.291-.484 2.254-.682 2.256 1.628 2.252.002 2.254 1.28 2.29-1.015 2.18-.767 2.18-.979 2.255.836 2.254.384 4.508.294 2.29-1.226 2.254.845 2.256-.558 2.252.37 2.254-.237h0" clip-path="url(#pbb20cf6728)" style="fill:none;stroke:#ff9896;stroke-width:1.5;stroke-linecap:square" id="line2d_24"/><path d="m91.81 323.405 38.28-.014 20.286.014 38.206-.015 15.741-.079 2.256-.039 4.506.042 15.667-.105 4.544.066 4.508-.457 2.254.09 2.291-.127 2.217-.335 2.216.027 2.255.186 9.053.15 2.254-.179 2.255.011 2.253-.214 2.254.235 2.29-.266 2.18.062 2.179-.322 2.255.226 2.254-1.662 2.254-1.322 2.254.382 2.291-.371 2.254.417 2.256-.6 2.252-.921 2.254.992 4.47-.83 2.18-.705 2.255.007 2.254-.126 2.254.075 2.254-.895 2.29-.449 2.254.207 2.256-1.132 2.252.03 2.254 1.196 2.291-1.52 4.359-.267 4.51-.224 2.253-.85 2.254-1.21 2.29 1.058 2.255-.79 2.255-.22 2.253-.46 2.254 1.427 2.29-1.8 2.217-.337 2.216-.89 2.255-2.384 2.254.435 2.254 1.021 2.254 1.664 2.291.343 2.254-.971 2.256.06 2.252-.589 2.254 2.068 2.29-1.199 2.18.093 2.18-.387 2.255-.17 2.254.128 2.254-.729 2.254 1.121 4.544-.614 2.256.944 2.252-1.16 2.254 1.854h0" clip-path="url(#pbb20cf6728)" style="fill:none;stroke:#98df8a;stroke-width:1.5;stroke-linecap:square" id="line2d_25"/><path d="m121.075 323.405 2.254-.014 2.256-.112 2.252.097 2.254.001 2.29-.028 2.218-.026 2.215.054 2.256-.146 2.254.013 2.254-.02 2.253-.057 2.291-.056 2.254.055 2.256-.329 2.252.018 2.254-.06 2.291-.098 2.18.04 2.179.037 2.255-.528 2.254.297 2.254-.13 2.254.186 2.29.042 2.255.069 2.255-.11 2.253-.455 2.254-.583 2.29-.168 2.18-.045 2.179.388 2.255.147 2.254.323 2.254-.2 2.254.052h2.291l2.254.057 2.256-.078 2.252.143 2.254.215 2.29.217 2.18-.162 2.18.148 2.255-.128 2.254.177 2.254.178 2.254-.094 2.29.246 2.254-.007 2.256-.085 2.252-.09 2.254.28 2.291-.147 2.217-.086 2.216.156 2.255.051 2.254.096 2.254-.19 2.254.134 2.29-.14 2.255.064 2.255.118 2.253-.06 2.254-.038h2.29l2.18-.025 2.179-.017 2.255.03 2.254-.367 2.254-.01 2.254.031 2.291.105 2.254.11 2.256-.124 2.252.153 2.254-.013 2.29.057 2.18-.35 2.18-1.29 2.255-.345 2.254-.356 2.254-.354 2.254-.354 2.29-.19 2.254.153 2.256-.202 2.252.238 2.254-.54 2.291-1.962 2.18.406 2.179.33 2.255-.979 2.254-.24 2.254.197 2.254-1.473 2.29-.294 2.255.144 2.255.353 2.253-.28 2.254-.322 2.29-.905 2.217-.602 2.216.357 2.255-4.989 2.254-1.985 2.254.645 2.254.89 2.291.098 2.254 1.431 2.256-.05 2.252.659 2.254 1.29 2.29-1.276 2.18-1.225 2.18-1.221 2.255-.023 2.254-.23 2.254.179 2.254 1.791 2.29-.883 2.254-.097 2.256 1.029 2.252.84 2.254-.153" clip-path="url(#pbb20cf6728)" style="fill:none;stroke:#ffbb78;stroke-width:1.5;stroke-linecap:square" id="line2d_26"/><path d="m49.17 323.405 38.133-.007 107.967-.063 2.254-17.392 2.254 5.925 2.291-.413 2.254-1.876 2.256-3.493 2.252-1.309 2.254 1.078 4.47-7.67 2.18-.082 2.255-3.973 2.254 2.543 4.508-9.505 2.29.533 2.254 2.605 2.256 2.848 2.252-1.139 2.254.592 2.291-2.93 2.217-2.003 2.216-.022 2.255 1.14 2.254 3.437 2.254-3.763 4.545.364 2.254-.863 2.255 2.166 2.253 1.55 2.254 4.03 2.29-2.811 2.18-1.103 2.179-.888 2.255 3.994 2.254-.356 2.254-1.628 2.254-.09 2.291 1.087 2.254 2.008 2.256.01 2.252.722 2.254 4.115 2.29-3.82 2.18-.211 2.18-1.969 2.255 2.515 2.254.611 2.254 2.482 2.254-4.893 2.29-.533 2.254 2.992 2.256-.18 2.252 1.426 2.254 2.344 2.291-1.1 2.18-.599 2.179.192 2.255-2.206 2.254.152 2.254-1.89 2.254-.843 2.29 4.549 2.255-.527 2.255-3.665 2.253.203 2.254 3.33 6.723-3.56 2.255-4.992 2.254.576 2.254 2.003 2.254 2.265 2.291 2.74 2.254 1.115 2.256 2.334 2.252.737 2.254 3.679 2.29-4.087 2.18-1.632 2.18.91 2.255 1.999 2.254 3.048 2.254.124 2.254-.257 2.29.238 2.254 1.28 4.508 1.665 2.254.623h0" clip-path="url(#pbb20cf6728)" style="fill:none;stroke:#aec7e8;stroke-width:1.5;stroke-linecap:square" id="line2d_27"/><path d="m42.926 319.983 1.738 1.298 2.253.248 2.254.58 2.29-.954 2.18-.326 2.18-.445 2.255-.303 2.254-.04 2.254-.3 2.253-.135 2.291.07 2.254-.414 2.256-1.282 2.252-1.586 2.254 1.046 2.291-.925 2.18-1.134 2.179.188 2.255-.754 2.254.32 2.254-.131 4.545-1.208 2.254-.422 2.255-.097 2.253-2.01 2.254 1.842 2.29.028 2.18-2.474 2.179-2.047 2.255-.015 2.254 1.999 2.254-.014 2.254 1.191 4.545-2.27 2.256-1.115 2.252-.95 2.254 1.86 2.29-1.57 2.218-2.444 2.215-1.123 2.256-.127 2.254 1.908 2.254.627 2.253.116 2.291.385 2.254-2.044 2.256-3.738 2.252-1.034 2.254 5.078 2.291-2.37 2.18-3.757 2.179-.097 2.255-1.52 2.254 3.258 2.254 1.088 2.254.23 2.29.077 2.255-3.537 2.255-5.133 2.253-1.32 2.254 6.5 2.29-1.683 2.18-4.645 2.179-1.242 2.255 2.981 2.254 6.214 2.254 2.818 2.254.182 2.291 1.143 2.254-4.693 2.256-3.262 2.252.025 2.254 4.586 2.29-.406 2.18-3.651 2.18-1.276 2.255-1.165 2.254 3.961 2.254 1.731 2.254 3.232 2.29 1.675 2.254-4.363 2.256-3.417 2.252-.415 2.254 4.578 2.291.273 2.217-3.196 2.216.309 2.255-.052 2.254 5.231 2.254 2.403 2.254.254 2.29.911 2.255-2.679 2.255-4.358 2.253-1.132 2.254 4.069 2.29.26 2.18-1.844 2.179.343 2.255.12 2.254 1.527 2.254 2.087 2.254 2.756 2.291.007 2.254-.858 2.256-4.398 2.252-1.845 2.254 6.022 2.29-.182 2.18-1.032 2.18-.783 2.255 1.443 2.254-.743 2.254 3.394 2.254 1.758 2.29-.729 2.254-1.68 2.256-4.137 2.252-1.122 2.254 2.79 2.291-.568 2.18.113 2.179-.905 2.255-1.278 2.254 2.897 2.254 1.543 2.254.034 2.29 1.486 2.255-4.374 2.255-3.686 2.253-1.058 2.254 4.149 2.29.736 2.217-.171 2.216-3.278 2.255-7.346 2.254.33 2.254 6.109 2.254 4.566 2.291 1.633 2.254-3.172 2.256-1.51 2.252-3.27 2.254 3.817 2.29-2.082 2.18.958 2.18-.425 2.255 1.165 2.254 1.87 2.254 1.643 2.254 3.354 2.29.463 2.254-2.151 2.256-2.819 2.252-2.171 2.254 2.08h0" clip-path="url(#pbb20cf6728)" style="fill:none;stroke:#17becf;stroke-width:1.5;stroke-linecap:square" id="line2d_28"/><path d="m150.376 323.405 2.256-1.941 2.252.905 2.254.468 2.291-.105 2.18.13 2.179-.27 2.255.132 2.254.148 2.254-.148 2.254-.076 2.29.007 2.255.127 2.255.048 2.253-.077 2.254-.203 2.29-.175 2.18.107 2.179.089 2.255-.18 2.254.047 2.254.2 2.254-.361 2.291.273 2.254.022 2.256-.162 2.252.22 2.254-.066 2.29-.154 2.18-.006 2.18-.106 2.255-.16 2.254-.464 2.254-.145 2.254-.15 2.29-.056 2.254-.09 2.256-.183 2.252-.585 2.254-.585 2.291-.82 2.217-1.26 2.216-.282 2.255-.928 2.254-.642 2.254-.568 2.254-.967 2.29-.631 2.255-.169 2.255-.665 2.253.245 2.254.413 2.29-1.107 2.18-1.168 2.179-.794 2.255.266 2.254-.82 2.254-.209 2.254-.036 2.291-.933 2.254 1.042 2.256.542 2.252-1.462 2.254 2.29 2.29-1.613 2.18-1.494 2.18-.37 2.255.39 2.254.451 2.254-.414 2.254-.756 2.29-1.83 2.254.956 2.256-1.32 2.252 1.544 2.254 1.182 2.291-2.74 2.18-2.339 2.179 1.645 2.255-1.065 2.254.7 2.254.343 2.254-1.927 2.29 1.767 2.255-.752 2.255-.86 2.253-2.074 2.254 2.95 2.29-.61 2.217-2.48 2.216-.772 2.255-5.063 2.254.66 2.254.832 2.254.403 2.291 2.922 2.254-.826 2.256.616 2.252 1.34 2.254 2.522 2.29-2.65 2.18-1.633 2.18-1.836 2.255 1.083 2.254 1.938 2.254-1.3 2.254 1.202 2.29-.63 2.254-.949 2.256.212 2.252.882 2.254 1.27" clip-path="url(#pbb20cf6728)" style="fill:none;stroke:#bcbd22;stroke-width:1.5;stroke-linecap:square" id="line2d_29"/><path d="m42.926 318.258 1.738 1.404 2.253.737 2.254.013 4.47-2.19 2.18.557 2.255-.77 2.254-.527 2.254-.776 2.253-.927 2.291.358 2.254-2.553 2.256-.538 2.252 1.545 2.254.494 2.291-.483 2.18-1.207 2.179-.237 2.255.65 2.254-.566 2.254-1.62 2.254-1.064 2.29-.568 2.255.813 2.255-.386 2.253-1.323 2.254 1.036 2.29-3.224 2.18-.06 2.179-2.078 2.255 1.986 2.254-2.378 2.254-.25 2.254.509 4.545-.04 2.256.552 2.252-2.347 2.254 2.41 2.29-1.521 2.218-3.99 2.215-1.674 2.256 1.153 2.254-.487 2.254.705 2.253-2.226 2.291.225 2.254-.216 2.256-2.658 2.252-2.448 2.254 4.081 2.291-5.502 2.18-2.912 2.179-1.237 2.255.16 2.254 1.62 2.254.669 2.254-3.578 2.29.224 4.51-10.275 2.253.396 2.254 3.796 2.29-5.706 2.18-4.584 2.179-.336 2.255-2.39 2.254 9.16 2.254 1.415 2.254-1.968 2.291 4.556 2.254-2.393 2.256 7.804 2.252 7.218 2.254 1.564 2.29-1.857 2.18-2.628 2.18-1.115 2.255-.44 2.254 2.627 2.254-1.584 2.254.245 2.29 2.768 4.51.204 2.252-.53 2.254 2.037 2.291-1.746 2.217-3.645 2.216-.854 2.255-.087 2.254 1.832 2.254-1.926 2.254 5.353 2.29-.652 2.255.028 2.255-.946 2.253-2.002 2.254 5.1 2.29-1.493 2.18-3.733 2.179-3.213 2.255 3.455 2.254-1.934 2.254 1.08 2.254 1.268 2.291 1.5 2.254 1.62 2.256-1.655 2.252-1.118 2.254 7.048 2.29-3.463 2.18-2.338 2.18-1.362 2.255-.965 2.254.712 2.254 1.49 2.254-.852 2.29.568 2.254 3.746 2.256-3.585 2.252.695 2.254 5.508 2.291-3.4 2.18-4.86 2.179.165 2.255 1.421 4.508 4.252 2.254-4.608 2.29 4.437 2.255-3.226 2.255-2.83 2.253-1.421 2.254 4.918 2.29-1.99 2.217-3.556 2.216.486 2.255-5.196 2.254 1.586 2.254 1.905 2.254 3.128 2.291 3.953 2.254-2.815 2.256-.458 2.252-.332 2.254 5.567 2.29-.644 2.18-3.143 2.18-1.708 2.255 1.355 2.254 2.325 2.254-2.325 2.254 4 2.29-.084 2.254.248 2.256 1.413 2.252-.696 2.254 1.72h0" clip-path="url(#pbb20cf6728)" style="fill:none;stroke:#7f7f7f;stroke-width:1.5;stroke-linecap:square" id="line2d_30"/><path d="m42.926 323.324 1.738.081 17.92-.036 2.253-.321 2.291.028 2.254-.678 2.256.495 2.252-.169 2.254.12 2.291-.098 2.18-.288 2.179-.027 2.255-.185 2.254.185 6.799-1.01 4.51.484 2.252-.253 2.254.19 2.29-.19 2.18-.746 4.434-.948 2.254.447 2.254-.216 2.254.034 2.291-.932 2.254-.318 2.256.08 2.252-.051 2.254.1 2.29-.533 2.218-1.263 2.215-.146 2.256.11 2.254-.047 4.507-1.696 2.291.224 2.254-.023 2.256-1.21 2.252-.876 2.254 1.22 2.291-2.062 2.18-2.393 2.179-.01 2.255-.37 2.254.832 2.254-.353 2.254-.972 2.29.35 2.255 1.071 2.255-2.29 2.253-1.143 2.254 2.489 2.29-3.14 2.18-3.82 2.179.533 2.255-.074 2.254 1.665 2.254.804 2.254-1.162 2.291 1.136 2.254.193 2.256-2.317 2.252-.146 2.254 3.11 2.29-2.382 2.18-4.162 2.18-1.908 2.255.88 2.254.08 2.254-.84 2.254-3.043 2.29 3.434 2.254.334 2.256-1.686 2.252.157 2.254 3.375 2.291-2.551 2.217-2.153 4.471-3.009 2.254 3.389 2.254-1.383 2.254 1.72 2.29-.274 2.255 2.69 2.255-2.662 2.253.743 2.254 3.715 2.29-2.447 2.18-4.094 2.179-3.72 2.255 1.425 2.254.593 2.254-2.027 4.545.226 2.254 1.454 2.256-1.286 2.252-.858 2.254 6.717 2.29-3.37 2.18-5.594 2.18-.743 2.255 1.354 2.254 1.218 2.254.556 2.254.37 2.29.245 2.254 1.529 2.256-3.597 2.252-.676 2.254 8.21 2.291-5.144 2.18-6.38 2.179 1.95 2.255-2.613 2.254 3.497 2.254 1.617 2.254-3.58 2.29 3.498 2.255-.853 2.255-4.012 2.253.42 2.254 6.526 2.29-2.937 2.217-6.834 2.216-1.5 2.255-11.051 2.254 3.363 2.254 2.83 2.254 6.296 2.291 3.35 2.254-3.454 2.256-1.719 2.252.589 2.254 7.892 2.29-2.446 2.18-3.995 2.18-3.217 2.255 2.302 2.254 2.723 2.254 1.673 2.254 3.353 4.544.971 2.256-1.946 2.252.469 2.254 5.475h0" clip-path="url(#pbb20cf6728)" style="fill:none;stroke:#e377c2;stroke-width:1.5;stroke-linecap:square" id="line2d_31"/><path d="m42.926 315.162 1.738 2.545 2.253.368 2.254.893 2.29-1.542 2.18-.586 2.18-.836 2.255-.008 2.254-1.142 2.254-.531 2.253-1.2 2.291.448 2.254-.784 2.256-1.22 2.252-.887 2.254 1.097 2.291-2.418 2.18-3.623 2.179.574 2.255-.96 2.254 1.08 2.254-3.507 2.254 1.642 2.29.33 2.255-1.364 2.255-.704 2.253-3.859 2.254 2.408 2.29-2.559 2.18-2.238 2.179-2.563 2.255-.907 2.254 2.954 2.254-.397 2.254.698 2.291-.75 2.254-.868 4.508-3.97 2.254 1.95 2.29-1.338 2.218-6.426 2.215 1.47 2.256-1.739 2.254 3.527 2.254 1.246 2.253-3.25 2.291.917 2.254.595 2.256-5.837 2.252-4.078 2.254 5.62 2.291-2.615 2.18-4.958 2.179-3.172 2.255-1.387 2.254 3.91 2.254 3.065 2.254-1.138 2.29 2.278 2.255-3.733 2.255-8.525 2.253-2.99 2.254 9.823 2.29-4.773 2.18-5.72 2.179-1.156 2.255 1.876 2.254 11.245 2.254 6.47 2.254-2.818 2.291 2.734 2.254-3.732 2.256-2.97 2.252.312 2.254 5.023 2.29-.456 2.18-7.076 2.18-1.559 2.255.005 2.254 3.948 2.254.643 2.254.184 2.29 5.846 2.254-1.633 2.256-6.589 2.252-1.987 2.254 5.394 2.291 3.245 2.217-6.41 2.216-.242 2.255-.632 2.254 7.031 2.254 1.53 4.545 6.398 2.254-2.19 2.255-4.665 2.253-2.238 2.254 7.48 2.29-2.964 2.18-.585 2.179-3.502 2.255 1.136 2.254 5.39 2.254 3.243 2.254-1.288 2.291 1.697 2.254 1.134 2.256-4.211 2.252.09 2.254 5.194 4.47-4.258 2.18-.893 2.255 2.528 2.254.941 2.254 3.296 2.254 1.211 2.29-.77 2.254.413 2.256-3.519 2.252-1.536 2.254 6.849 2.291-2.397 2.18-1.987 2.179-2.751 2.255-1.597 2.254 3.749 2.254 1.35 2.254-5.871 2.29 7.927 2.255-5.316 2.255-7.623 2.253-.401 2.254 6.317 2.29.28 2.217-2.569 2.216-3.332 2.255-14.19 2.254 1.202 2.254 5.824 2.254 5.306 2.291 3.94 2.254 3.276 2.256-2.338 2.252-1.261 2.254 5.25 2.29-2.09 2.18-2.857 2.18.566 2.255 1.5 2.254-.26 2.254 2.65 2.254 4.661 2.29 1.935 2.254-4.424 2.256-.987 2.252-1.468 2.254 4.481h0" clip-path="url(#pbb20cf6728)" style="fill:none;stroke:#8c564b;stroke-width:1.5;stroke-linecap:square" id="line2d_32"/><path d="m42.926 318.19 1.738.87 2.253.695 2.254.286 2.29-1.1 2.18-1.503 2.18-.376 2.255-.668 2.254-1.288 2.254-3.152 2.253-2.812 4.545-2.178 2.256-.15 2.252-2.913 2.254-.338 2.291-4.311 2.18-.446 2.179-1.74 2.255-.147 2.254-1.522 2.254-1.694 2.254-2.645 2.29-3.827 2.255 2.112 2.255 2.297 2.253-5.411 2.254-.715 4.47-14.504 2.179-4.84 2.255 1.394 2.254-1.29 2.254-1.477 2.254-2.791 2.291-1.717 2.254 4.132 2.256 1.91 2.252-6.372 2.254 4.48 2.29-6.975 2.218-9.365 2.215-2.01 2.256.978 2.254-1.112 2.254.106 2.253-5.86 2.291-.87 2.254 3.934 2.256-3.204 2.252-2.62 2.254 7.743 2.291-13.008 2.18-8.184 2.179-1.377 2.255 2.08 2.254 5.336 2.254-.093 2.254-8.451 2.29.182 2.255-2.913 2.255-4.341 2.253-.36 2.254 6.843 2.29-17.256 2.18-10.698 2.179-.278 2.255.342 2.254 24.855 2.254 9.352 2.254-5.742 2.291 7.717 2.254-4.155 2.256 1.288 2.252 1.138 2.254 7.834 2.29-8.797 2.18-9.234 2.18.087 2.255-3.948 2.254 6.528 2.254-1.986 2.254-3.81 2.29 8.095 2.254 1.907 2.256.399 2.252 1.086h2.254l2.291-5.761 2.217-9.771 2.216 5.86 2.255 1.09 2.254 3.788 2.254 2.411 2.254 8.48 2.29.344 2.255 2.272 2.255 1.997 2.253-.57 2.254 6.191 2.29-8.158 2.18-8.717 2.179-1.552 2.255 8.636 2.254-1.402 2.254 6.124 2.254 2.728 2.291 1.023 2.254 4.194 2.256 1.547 2.252-.779 2.254 12.778 2.29-7.107 2.18.016 2.18 1.947 2.255 4.114 2.254-1.402 2.254 5.103 2.254-2.951 2.29-1.85 2.254 4.062 2.256-2.29 2.252 5.158 2.254 9.688 2.291-8.053 2.18-6.985 2.179 2.127 2.255 1.775 2.254 3.594 2.254 1.83 2.254-9.287 2.29 8.579 2.255-.472 2.255-2.942 2.253-2.258 2.254 10.571 2.29-6.056 2.217-2.937 2.216 1.78 2.255-13.288 2.254 4.135 2.254 4.882 2.254 4.188 2.291 8.586 2.254-.672 2.256 3.594 2.252-1.616 2.254 9.642 2.29-9.834 2.18-1.37 2.18 1.377 2.255 1.937 2.254 2.738 2.254.058 2.254 5.276 2.29-.49 2.254 1.044 2.256 1.549 2.252 2.442 2.254 2.674h0" clip-path="url(#pbb20cf6728)" style="fill:none;stroke:#9467bd;stroke-width:1.5;stroke-linecap:square" id="line2d_33"/><path d="m42.926 306.01 1.738 3.447 4.507 2.776 2.29-5.474 2.18-3.507 2.18-2.01 2.255-1.897 2.254-.906 2.254-3.179 2.253-2.758 4.545-.668 2.256-1.568 2.252-.757 2.254 2.376 2.291-4.366 2.18-3.752 2.179-2.703 2.255.435 2.254.21 2.254-2.933 2.254-2.282 2.29-1.956 2.255 2.434 2.255-.878 2.253-5.749 2.254 3.177 2.29-6.336 2.18-7.878 2.179-6.267 2.255 2.797 2.254-3.09 2.254-.488 2.254 3.43 2.291-3.153 2.254 3.142 2.256 2.808 2.252-7.16 2.254 6.467 4.508-15.667 2.215-.805 2.256.842 2.254-.554 2.254-.728 2.253-4.438 2.291 2.804 2.254 2.228 2.256-7.57 2.252.588 2.254 11.854 2.291-13.044 2.18-8.133 2.179-2.493 2.255-.714 2.254 6.3 2.254 1.848 2.254-6.83 2.29 2.55 2.255-2.687 2.255-6.803 2.253.726 2.254 10.334 2.29-12.118 2.18-9.8 2.179 3.639 2.255 2.535 2.254 13.466 2.254 6.813 2.254-5.264 2.291 8.446 2.254-1.726 2.256 1.236 2.252 2.147 2.254 8.142 2.29-4.549 2.18-9.09 2.18-1.451 2.255-1.896 2.254 1.118 2.254-4.406 2.254-.88 2.29 6.323 2.254-.728 2.256 3.889 2.252-.065 2.254 4.53 2.291-1.41 2.217-8.92 2.216.026 2.255-4.054 2.254 4.846 2.254-.037 2.254 10.544 2.29-5.026 2.255 8.728 2.255.202 2.253-4.149 2.254 9.497 2.29-7.1 2.18-7.386 2.179-1.761 2.255 10.857 2.254-3.848 2.254 2.138 2.254 3.343 2.291 1.787 2.254 5.198 2.256-.074 2.252.596 2.254 10.71 2.29-5.503 2.18-.791 2.18-2.138 2.255 1.814 2.254-2.796 2.254 6.12 2.254-6.26 2.29-3.343 2.254 5.931 2.256-5.167 2.252 4.06 2.254 9.72 2.291-9.645 2.18-4.83 2.179 2.7 2.255-4.718 2.254 3.28 2.254 5.173 2.254-9.525 2.29 8.944 2.255-3.96 2.255-3.638 2.253.581 2.254 12.456 2.29-6.182 2.217-5.106 2.216 1.685 2.255-10.907 4.508 10.488 2.254 3.118 2.291 5.32 2.254 2.288 2.256 3.795 2.252-.05 2.254 11.734 2.29-11.46 2.18-2.933 2.18.656 2.255 3.313 2.254 2.904 2.254-.782 2.254 6.774 2.29.19 2.254-.923 2.256.06 2.252-4.753 2.254 7.13h0" clip-path="url(#pbb20cf6728)" style="fill:none;stroke:#d62728;stroke-width:1.5;stroke-linecap:square" id="line2d_34"/><path d="m42.926 310.667 1.738 4.664 4.507 2.236 2.29-2.243 2.18-1.293 2.18-.726 2.255-1.017 2.254-1.66 2.254-2.577 2.253-.528 2.291.504 2.254-1.041 2.256-1.174 2.252-2.426 2.254 1.158 2.291-7.31 2.18-1.664 2.179-3.39 2.255 3.008 2.254-1.102 2.254-1.824 2.254-.594 2.29-1.324 4.51-2.257 2.253-5.364 2.254.8 2.29-6.16 2.18-7.603 2.179-6.114 2.255 2.238 2.254-2.827 2.254 2.733 2.254.162 2.291-3.757 2.254.618 2.256.335 2.252-9.953 2.254 5.292 2.29-6.665 2.218-11.365 2.215-4.868 2.256-.139 2.254 1.786 2.254 5.095 2.253-5.396 2.291.154 2.254 1.758 2.256-10.491 2.252-4.009 2.254 11.543 2.291-9.315 2.18-10.94 2.179-4.83 2.255-5.984 2.254 10.49 2.254 6.183 2.254-5.348 2.29 1.072 2.255-12.325 2.255-13.797 2.253-4.534 2.254 13.708 2.29-8.712 2.18-18.868 2.179-4.633 2.255 2.832 2.254 25.512 2.254 10.665 2.254-6.382 2.291 11.579 2.254-10.962 2.256-4.409 2.252-3.833 2.254 14.599 2.29-1.164 2.18-14.062 2.18-8.528 2.255-4.845 2.254 13.635 2.254.626 2.254-1.832 2.29 11.48 2.254-3.072 2.256-7.21 2.252 1.097 2.254 12.908 2.291-.694 2.217-17.096 2.216-6.013 2.255-1.591 2.254 21.693 2.254 4.279 2.254 10.678 2.29-1.605 2.255.096 2.255-1.266 2.253-5.933 2.254 16.411 2.29-5.095 2.18-11.005 2.179-8.48 2.255 6.112 2.254.854 2.254 8.641 2.254 6.737 2.291 3.042 2.254 3.772 2.256-5.825 2.252-4.764 2.254 18.929 2.29-2.376 2.18-6.854 2.18-1.655 2.255-2.713 2.254 3.161 2.254 9.137 2.254-4.357 2.29.372 2.254 1.03 2.256-12.399 2.252 3.259 2.254 13.528 2.291-5.229 2.18-8.759 2.179-.696 2.255 2.829 2.254 3.416 2.254 5.594 2.254-13.85 2.29 15.72 2.255-7.454 2.255-11.841 2.253 2.78 2.254 16.06 2.29-6.014 2.217-6.969 2.216-7.827 2.255-22.49 2.254 11.17 2.254 12.586 2.254 7.678 2.291 10.689 2.254-1.317 2.256 1.611 2.252.047 2.254 20.258 2.29-10.415 2.18-5.129 2.18-2.904 2.255 5.172 2.254.828 2.254 2.373 2.254 11.47 2.29 1.29 2.254-2.091 2.256 2.028 2.252-5.7 2.254 8.426h0" clip-path="url(#pbb20cf6728)" style="fill:none;stroke:#2ca02c;stroke-width:1.5;stroke-linecap:square" id="line2d_35"/><path d="m42.926 316.697 1.738 1.62 2.253.895 2.254-.195 2.29-1.156 2.18-1.82 2.18.313 2.255-.546 2.254-2.447 2.254-1.233 2.253-.996 2.291-.743 2.254.356 2.256-1.66 2.252-1.817 2.254-.019 4.471-4.26 2.179-.506 4.509-1.633 2.254-2.54 2.254-2.002 4.545-1.83 2.255.07 2.253-4.06 2.254-1.806 2.29-3.49 2.18-5.367 2.179-3.934 2.255-2.562 2.254-1.286 2.254-4.5 2.254-1.156 2.291-5.608 4.51 6.056 2.252-6.571 2.254 4.525 2.29-8.972 2.218-7.763 2.215-.164 2.256-2.344 2.254-3.397 2.254-.673 2.253-5.01 2.291-.555 2.254 6.355 2.256-6.18 2.252-2.316 2.254 7.167 2.291-14.775 2.18-10.093 2.179-.96 2.255-3.791 2.254 6.02 2.254-.386 2.254-12.287 2.29.091 2.255-10.604 2.255-10.002 2.253 4.404 2.254 7.693 2.29-21.756 2.18-16.374 2.179 5.223 2.255 3.479 2.254 16.679 2.254 6.12 2.254-8.475 2.291 11.733 2.254-1.787 2.256-1.276 2.252 2.413 2.254 11.093 2.29-10.716 2.18-14.9 2.18.888 2.255-7.477 2.254-3.828 2.254-8.456 2.254-4.49 2.29 13.128 2.254-.055 2.256 2.298 2.252-1.103 2.254 6.276 2.291-10.093 2.217-10.655 2.216-.385 2.255-.976 2.254 8.644 2.254.663 2.254 5.036 2.29-3.35 2.255 10.96 2.255 4.655 2.253-5.329 2.254 9.808 2.29-11.242 2.18-14.286 2.179-1.772 2.255 12.234 2.254-3.087 2.254.574 2.254 4.865 2.291 1.703 2.254 12.19 2.256-1.83 2.252-1.168 2.254 21.557 2.29-13.885 2.18-.915 2.18-.36 2.255 3.974 2.254 3.223 2.254 2.21 2.254-8.882 2.29-6.168 2.254 9.849 2.256-7.396 2.252 4.76 2.254 19.96 2.291-13.47 2.18-11.68 2.179.269 2.255 3.95 2.254 4.552 2.254 1.025 2.254-14.728 2.29 9.988 2.255-.837 2.255-8.296 2.253-3.408 2.254 18.597 2.29-14.137 2.217-8.47 2.216-9.186 2.255-38.321 2.254 3.71 2.254 9.986 2.254 5.196 2.291 17.999 2.254 4.341 2.256 6.6 2.252 2.642 2.254 15.14 2.29-20.971 2.18-3.047 2.18-.612 2.255 5.202 2.254 6.055 2.254 1.528 2.254 10.962 2.29-.54 2.254-2.628 2.256 7.626 2.252-.746 2.254 8.645h0" clip-path="url(#pbb20cf6728)" style="fill:none;stroke:#ff7f0e;stroke-width:1.5;stroke-linecap:square" id="line2d_36"/><path d="m42.926 317.647 1.738 2.177 4.507.49 2.29-1.332 4.36-.939 2.255-.2 2.254-1.468 4.507-1.121 2.291.154 2.254-.462 2.256-1.515 2.252-1.324 2.254.154 2.291-2.538 2.18-.806 2.179-.042 2.255 1.37 2.254-.935 2.254-1.897 2.254-2.231 2.29.729 2.255 1.162 2.255-2.368 2.253-.254 2.254 1.53 4.47-6.003 2.179-2.92 2.255 2.077 6.762-1.523 2.291-1.136 2.254 1.399 2.256.038 2.252-2.646 2.254 2.674 4.508-8.364 2.215-1.687 2.256-.27 2.254-.15 2.254-2.415 2.253-1.93 2.291-.912 2.254 3.03 2.256-4.936 2.252-3.32 2.254 5.969 2.291-5.874 2.18-6.398 2.179-1.101 2.255-3.938 2.254 2.732 2.254-.291 2.254-5.351 2.29 4.766 2.255-2.015 2.255-8.919 2.253-2.192 2.254 9.502 2.29-9.7 2.18-7.968 2.179-3.212 2.255 1.963 2.254 13.107 2.254.43 2.254-5.168 2.291 5.873 2.254.287 2.256-3.644 2.252-2.209 2.254 6.043 2.29-4.556 2.18-11.204 2.18-2.33 2.255-1.583 2.254 4.407 2.254-6.906 2.254-.874 2.29 7.745 2.254-.809 2.256-8.134 2.252-1.578 2.254 7.55 2.291-4.963 2.217-12.8 2.216.625 2.255-.378 2.254 7.058 2.254-1.532 2.254 3.53 2.29-.456 2.255 1.047 2.255-5.316 2.253-8.054 2.254 11.363 2.29-8.713 2.18-14.703 2.179-5.426 2.255 6.81 2.254-.005 2.254-2.812 2.254-2.487 2.291 3.225 2.254 3.463 2.256-7.017 2.252-4.122 2.254 18.217 2.29-8.992 2.18-13.193 2.18 1.221 2.255 2.74 2.254-.504 2.254 1.655 2.254-15.175 2.29-.063 2.254 8.959 2.256-13.48 2.252-4.504 2.254 22.587 2.291-9.28 2.18-19.74 2.179-5.633 2.255-4.346 2.254 10.157 2.254-3.79 2.254-16.943 2.29 17.088 2.255 2.846 2.255-26.515 2.253-9.966 2.254 29.472 4.507-35.945 2.216-14.303 2.255-53.476 2.254-1.545 2.254 14.48 2.254 16.521 2.291 29.312 2.254 1.563 2.256-3.659 2.252-2.794 2.254 28.735 2.29-25.738 2.18-10.38 2.18-4.78 2.255 8.44 2.254 6.426 2.254 7.132 2.254 14.87 2.29 3.308 2.254 2.305 2.256-2.635 2.252-1.646 2.254 11.087h0" clip-path="url(#pbb20cf6728)" style="fill:none;stroke:#1f77b4;stroke-width:1.5;stroke-linecap:square" id="line2d_37"/></g></g><defs><clipPath id="pbb20cf6728"><path d="M42.926 57.293h357.12v266.112H42.926z"/></clipPath></defs></svg>