<svg xmlns:xlink="http://www.w3.org/1999/xlink" width="660.203" height="538.979" viewBox="0 0 495.152 404.234" xmlns="http://www.w3.org/2000/svg"><defs><style>*{stroke-linejoin:round;stroke-linecap:butt}</style></defs><g id="figure_1"><path d="M0 404.234h495.152V0H0v404.234z" style="fill:none" id="patch_1"/><g id="axes_1"><path d="M49.83 323.95h357.12V57.838H49.83V323.95z" style="fill:none" id="patch_2"/><g id="matplotlib.axis_1"><g id="xtick_1"><g id="line2d_1"><defs><path id="m19ddc1035e" d="M0 0v3.5" style="stroke:#b0b0b0;stroke-width:.4"/></defs><use xlink:href="#m19ddc1035e" x="83.768" y="323.95" style="fill:#b0b0b0;stroke:#b0b0b0;stroke-width:.4"/></g><g style="fill:#b0b0b0" transform="matrix(.14 0 0 -.14 65.953 341.588)" id="text_1"><defs><path id="DejaVuSans-32" d="M1228 531h2203V0H469v531q359 372 979 998 621 627 780 809 303 340 423 576 121 236 121 464 0 372-261 606-261 235-680 235-297 0-627-103-329-103-704-313v638q381 153 712 231 332 78 607 78 725 0 1156-363 431-362 431-968 0-288-108-546-107-257-392-607-78-91-497-524-418-433-1181-1211z" transform="scale(.01563)"/><path id="DejaVuSans-30" d="M2034 4250q-487 0-733-480-245-479-245-1442 0-959 245-1439 246-480 733-480 491 0 736 480 246 480 246 1439 0 963-246 1442-245 480-736 480zm0 500q785 0 1199-621 414-620 414-1801 0-1178-414-1799Q2819-91 2034-91q-784 0-1198 620-414 621-414 1799 0 1181 414 1801 414 621 1198 621z" transform="scale(.01563)"/><path id="DejaVuSans-31" d="M794 531h1031v3560L703 3866v575l1116 225h631V531h1031V0H794v531z" transform="scale(.01563)"/></defs><use xlink:href="#DejaVuSans-32"/><use xlink:href="#DejaVuSans-30" x="63.623"/><use xlink:href="#DejaVuSans-31" x="127.246"/><use xlink:href="#DejaVuSans-30" x="190.869"/></g></g><g id="xtick_2"><use xlink:href="#m19ddc1035e" x="137.048" y="323.95" style="fill:#b0b0b0;stroke:#b0b0b0;stroke-width:.4" id="line2d_2"/><g style="fill:#b0b0b0" transform="matrix(.14 0 0 -.14 119.233 341.588)" id="text_2"><use xlink:href="#DejaVuSans-32"/><use xlink:href="#DejaVuSans-30" x="63.623"/><use xlink:href="#DejaVuSans-31" x="127.246"/><use xlink:href="#DejaVuSans-32" x="190.869"/></g></g><g id="xtick_3"><use xlink:href="#m19ddc1035e" x="190.401" y="323.95" style="fill:#b0b0b0;stroke:#b0b0b0;stroke-width:.4" id="line2d_3"/><g style="fill:#b0b0b0" transform="matrix(.14 0 0 -.14 172.586 341.588)" id="text_3"><defs><path id="DejaVuSans-34" d="M2419 4116 825 1625h1594v2491zm-166 550h794V1625h666v-525h-666V0h-628v1100H313v609l1940 2957z" transform="scale(.01563)"/></defs><use xlink:href="#DejaVuSans-32"/><use xlink:href="#DejaVuSans-30" x="63.623"/><use xlink:href="#DejaVuSans-31" x="127.246"/><use xlink:href="#DejaVuSans-34" x="190.869"/></g></g><g id="xtick_4"><use xlink:href="#m19ddc1035e" x="243.681" y="323.95" style="fill:#b0b0b0;stroke:#b0b0b0;stroke-width:.4" id="line2d_4"/><g style="fill:#b0b0b0" transform="matrix(.14 0 0 -.14 225.866 341.588)" id="text_4"><defs><path id="DejaVuSans-36" d="M2113 2584q-425 0-674-291-248-290-248-796 0-503 248-796 249-292 674-292t673 292q248 293 248 796 0 506-248 796-248 291-673 291zm1253 1979v-575q-238 112-480 171-242 60-480 60-625 0-955-422-329-422-376-1275 184 272 462 417 279 145 613 145 703 0 1111-427 408-426 408-1160 0-719-425-1154Q2819-91 2113-91q-810 0-1238 620-428 621-428 1799 0 1106 525 1764t1409 658q238 0 480-47t505-140z" transform="scale(.01563)"/></defs><use xlink:href="#DejaVuSans-32"/><use xlink:href="#DejaVuSans-30" x="63.623"/><use xlink:href="#DejaVuSans-31" x="127.246"/><use xlink:href="#DejaVuSans-36" x="190.869"/></g></g><g id="xtick_5"><use xlink:href="#m19ddc1035e" x="297.033" y="323.95" style="fill:#b0b0b0;stroke:#b0b0b0;stroke-width:.4" id="line2d_5"/><g style="fill:#b0b0b0" transform="matrix(.14 0 0 -.14 279.218 341.588)" id="text_5"><defs><path id="DejaVuSans-38" d="M2034 2216q-450 0-708-241-257-241-257-662 0-422 257-663 258-241 708-241t709 242q260 243 260 662 0 421-258 662-257 241-711 241zm-631 268q-406 100-633 378-226 279-226 679 0 559 398 884 399 325 1092 325 697 0 1094-325t397-884q0-400-227-679-226-278-629-378 456-106 710-416 255-309 255-755 0-679-414-1042Q2806-91 2034-91q-771 0-1186 362-414 363-414 1042 0 446 256 755 257 310 713 416zm-231 997q0-362 226-565 227-203 636-203 407 0 636 203 230 203 230 565 0 363-230 566-229 203-636 203-409 0-636-203-226-203-226-566z" transform="scale(.01563)"/></defs><use xlink:href="#DejaVuSans-32"/><use xlink:href="#DejaVuSans-30" x="63.623"/><use xlink:href="#DejaVuSans-31" x="127.246"/><use xlink:href="#DejaVuSans-38" x="190.869"/></g></g><g id="xtick_6"><use xlink:href="#m19ddc1035e" x="350.313" y="323.95" style="fill:#b0b0b0;stroke:#b0b0b0;stroke-width:.4" id="line2d_6"/><g style="fill:#b0b0b0" transform="matrix(.14 0 0 -.14 332.498 341.588)" id="text_6"><use xlink:href="#DejaVuSans-32"/><use xlink:href="#DejaVuSans-30" x="63.623"/><use xlink:href="#DejaVuSans-32" x="127.246"/><use xlink:href="#DejaVuSans-30" x="190.869"/></g></g><g id="xtick_7"><use xlink:href="#m19ddc1035e" x="403.666" y="323.95" style="fill:#b0b0b0;stroke:#b0b0b0;stroke-width:.4" id="line2d_7"/><g style="fill:#b0b0b0" transform="matrix(.14 0 0 -.14 385.85 341.588)" id="text_7"><use xlink:href="#DejaVuSans-32"/><use xlink:href="#DejaVuSans-30" x="63.623"/><use xlink:href="#DejaVuSans-32" x="127.246"/><use xlink:href="#DejaVuSans-32" x="190.869"/></g></g></g><g id="matplotlib.axis_2"><g id="ytick_1"><path d="M49.83 323.95h357.12" clip-path="url(#p22176caa23)" style="fill:none;stroke:#b0b0b0;stroke-width:.3;stroke-linecap:square" id="line2d_8"/><g id="line2d_9"><defs><path id="m2a1bfd7240" d="M0 0h-3.5" style="stroke:#b0b0b0;stroke-width:.3"/></defs><use xlink:href="#m2a1bfd7240" x="49.83" y="323.95" style="fill:#b0b0b0;stroke:#b0b0b0;stroke-width:.3"/></g><use xlink:href="#DejaVuSans-30" style="fill:#b0b0b0" transform="matrix(.14 0 0 -.14 33.922 329.269)" id="text_8"/></g><g id="ytick_2"><path d="M49.83 280.494h357.12" clip-path="url(#p22176caa23)" style="fill:none;stroke:#b0b0b0;stroke-width:.3;stroke-linecap:square" id="line2d_10"/><use xlink:href="#m2a1bfd7240" x="49.83" y="280.494" style="fill:#b0b0b0;stroke:#b0b0b0;stroke-width:.3" id="line2d_11"/><g style="fill:#b0b0b0" transform="matrix(.14 0 0 -.14 16.108 285.813)" id="text_9"><use xlink:href="#DejaVuSans-32"/><use xlink:href="#DejaVuSans-30" x="63.623"/><use xlink:href="#DejaVuSans-30" x="127.246"/></g></g><g id="ytick_3"><path d="M49.83 237.038h357.12" clip-path="url(#p22176caa23)" style="fill:none;stroke:#b0b0b0;stroke-width:.3;stroke-linecap:square" id="line2d_12"/><use xlink:href="#m2a1bfd7240" x="49.83" y="237.038" style="fill:#b0b0b0;stroke:#b0b0b0;stroke-width:.3" id="line2d_13"/><g style="fill:#b0b0b0" transform="matrix(.14 0 0 -.14 16.108 242.357)" id="text_10"><use xlink:href="#DejaVuSans-34"/><use xlink:href="#DejaVuSans-30" x="63.623"/><use xlink:href="#DejaVuSans-30" x="127.246"/></g></g><g id="ytick_4"><path d="M49.83 193.582h357.12" clip-path="url(#p22176caa23)" style="fill:none;stroke:#b0b0b0;stroke-width:.3;stroke-linecap:square" id="line2d_14"/><use xlink:href="#m2a1bfd7240" x="49.83" y="193.582" style="fill:#b0b0b0;stroke:#b0b0b0;stroke-width:.3" id="line2d_15"/><g style="fill:#b0b0b0" transform="matrix(.14 0 0 -.14 16.108 198.9)" id="text_11"><use xlink:href="#DejaVuSans-36"/><use xlink:href="#DejaVuSans-30" x="63.623"/><use xlink:href="#DejaVuSans-30" x="127.246"/></g></g><g id="ytick_5"><path d="M49.83 150.126h357.12" clip-path="url(#p22176caa23)" style="fill:none;stroke:#b0b0b0;stroke-width:.3;stroke-linecap:square" id="line2d_16"/><use xlink:href="#m2a1bfd7240" x="49.83" y="150.126" style="fill:#b0b0b0;stroke:#b0b0b0;stroke-width:.3" id="line2d_17"/><g style="fill:#b0b0b0" transform="matrix(.14 0 0 -.14 16.108 155.445)" id="text_12"><use xlink:href="#DejaVuSans-38"/><use xlink:href="#DejaVuSans-30" x="63.623"/><use xlink:href="#DejaVuSans-30" x="127.246"/></g></g><g id="ytick_6"><path d="M49.83 106.67h357.12" clip-path="url(#p22176caa23)" style="fill:none;stroke:#b0b0b0;stroke-width:.3;stroke-linecap:square" id="line2d_18"/><use xlink:href="#m2a1bfd7240" x="49.83" y="106.67" style="fill:#b0b0b0;stroke:#b0b0b0;stroke-width:.3" id="line2d_19"/><g style="fill:#b0b0b0" transform="matrix(.14 0 0 -.14 7.2 111.989)" id="text_13"><use xlink:href="#DejaVuSans-31"/><use xlink:href="#DejaVuSans-30" x="63.623"/><use xlink:href="#DejaVuSans-30" x="127.246"/><use xlink:href="#DejaVuSans-30" x="190.869"/></g></g><g id="ytick_7"><path d="M49.83 63.214h357.12" clip-path="url(#p22176caa23)" style="fill:none;stroke:#b0b0b0;stroke-width:.3;stroke-linecap:square" id="line2d_20"/><use xlink:href="#m2a1bfd7240" x="49.83" y="63.214" style="fill:#b0b0b0;stroke:#b0b0b0;stroke-width:.3" id="line2d_21"/><g style="fill:#b0b0b0" transform="matrix(.14 0 0 -.14 7.2 68.533)" id="text_14"><use xlink:href="#DejaVuSans-31"/><use xlink:href="#DejaVuSans-32" x="63.623"/><use xlink:href="#DejaVuSans-30" x="127.246"/><use xlink:href="#DejaVuSans-30" x="190.869"/></g></g></g><path d="m49.83 320.731 1.715 1.467 2.226.593 2.226.03 2.263-.336 2.153-.762 2.153-.086 8.904-1.199 2.263.112 4.452-.056 2.226-1.288 2.226.728 2.263-.8 2.153-.53 2.153.468 2.226-.576 2.226.015 2.226-.74 2.226-.206 2.263-.59 2.226.167 2.226.324 2.226-.245 2.226-.441 4.416-2.569 2.153-1.756 2.226.79 4.452-.615 2.226.168 2.263-1.948 2.226 1.845 2.226-.093 2.226-1.269 2.226.73 2.262-1.55 2.19-1.945 2.19-.066 2.226 1.042 2.226.479 2.226.187 2.226-.804 2.262.007 2.226.37 2.227-1.709 2.226.405 2.226 2.09 2.262-2.831 2.153-1.178 2.153-.651 2.227.115 2.226 1.434 2.226.355 2.226-1.035 2.262-.295 2.226.084 2.226-2.193 2.226.904 2.227 1.458 2.262-2.23 2.153-.88 2.153-.402 2.226.787 2.226 1.106 2.226 1.878 2.227-1.044 2.262.602 2.226.869 2.226.057 2.226 1.124 2.226.214 2.263-1.941 2.153-.503 2.153.279 2.226-.874 2.226.558 2.226-1.08 2.226.547 2.263 1.858 2.226.58 2.226.296 2.226 1.181 2.226-.018 2.263-.827 2.19-1.781 2.189.961 2.226-.19 2.226 1.137 2.226-.383 2.226 1.946 2.263.154 2.226-.767 2.226 1.166 2.226.043 2.226 1.324 2.263-1.346 4.306.26 2.226 1.768 2.226.117 2.226.361 2.226-.389 4.489 1.816 2.226-.253 2.226.58 2.226 1.39 2.263-1.01 2.153.172 2.153.53 2.226.257 2.226-.069 2.226.047 2.226.353 2.263.21 2.226.451 2.226-.682 4.452.834 2.262-.729 6.533.773 2.226.278 2.226.062 2.226-.44 2.262-.035 2.226.142 2.227-.689 2.226 1.095 2.226-.05 2.262-.463 2.19.364 2.19-.182 2.225-.82 2.227.981 2.226.633 2.226-.577 2.262 1.22 2.226.11 2.226.297 2.226-.42 2.226.588 2.263-.512 2.153-.608 2.153.811 2.226-.366 2.226 1.214 2.226-.265 4.49-.127 2.225-.148 2.226.372 4.452.302 2.263-.309h0" clip-path="url(#p22176caa23)" style="fill:none;stroke:#c49c94;stroke-width:1.5;stroke-linecap:square" id="line2d_22"/><path d="M95.884 323.95h33.355l42.186-.087 2.226-.06 4.452.063 11.167-.007 2.262-.19 4.306.078 4.452-.113 2.226-.046 4.49-.55 2.225.238 2.226-.574 2.226.11 2.226-.047 2.263-.448 2.153.306 2.153.107 4.452-.54 2.226.05 4.489.4 4.452.378 2.226-.068 2.226.089 2.263-.155 2.19-.036 2.189-.188 2.226.153 2.226-.174 2.226-.312 2.226.396 2.263-.448 2.226.45 2.226-.142 2.226.034 6.642-.25 8.831.308 2.226-.33 2.263.154 2.226.43 4.452-.232 2.226-.471 2.263.315 4.306-.414 2.226.353 2.226-.233 2.226.146 2.226-.076 2.263.09 2.226-.137 2.226.089 2.226-.133 2.226.007 2.262-.568 2.153.415 2.154.054 2.226-.422 2.226.086 6.714-.687 4.453.203 4.452-.077 2.262.267 2.19-.671 2.19.236 2.225-.704 2.227-.368 2.226.498 2.226-.246 2.262.091 2.226-.113 4.452.565 4.49-.69 2.152.107 2.153-.682 2.226-.278 2.226.888 2.226-.33 4.49.491 2.225.32 2.226-.194 2.226-.385 2.226-1.08 2.263.316h0" clip-path="url(#p22176caa23)" style="fill:none;stroke:#c5b0d5;stroke-width:1.5;stroke-linecap:square" id="line2d_23"/><path d="m78.185 323.95 2.226-.478 2.226.4 6.569.022 20.071-.07 8.795.075 2.226-.209 11.167-.02 2.226-.198 6.678.246 8.868-.29 4.488.017 2.226-.444 2.227.234 4.452-.077 2.262.084 2.153-.2 4.38-.005 2.226-.096 2.226-.266 6.714-.442 2.226.23 2.226-.034 2.227-.161 2.262-.442 2.153.525 2.153-.188 2.226-.69 2.226.514 2.226-.123 2.227-1.096 2.262.343h2.226l6.678.379 2.263-.841 2.153.321 2.153-.307 2.226.455 2.226.056 4.452-.504 4.49.187 2.225.086 2.226-.158 2.226.179 4.452-1.083 4.416-.299 2.226.296 4.452.294 2.263-.26 2.226.308 2.226-.006 2.226.267 2.226-.029 4.416-.825 2.153-.29 2.226.905 2.226-.435 2.226-.036 2.226-.44 4.489.65 4.452-.79 2.226 1.03 2.263-.12 2.153-.69 2.153.242 2.226-.259 2.226.077 2.226-.446 4.489-.31 2.226.114 2.226-.886 2.226.401 2.226.84 2.262-.155 4.307-.567 2.226.346 2.226-.052 2.226.472 2.226-1.138 2.262-.014 2.226.21 4.453-.022 2.226.254 2.262-.407 2.19-.515 2.19-.038 2.225-1.242 2.227.765 2.226.198 2.226.818 2.262-.483 2.226-.682 2.226 1.628 2.226.001 2.226 1.282 2.263-1.017 2.153-.766 2.153-.979 2.226.836 2.226.384 4.453.294 2.262-1.227 2.226.846 2.226-.558 2.226.37 2.226-.237 2.263-.365 2.153.21h0" clip-path="url(#p22176caa23)" style="fill:none;stroke:#ff9896;stroke-width:1.5;stroke-linecap:square" id="line2d_24"/><g style="fill:#1f77b4" transform="matrix(.14 0 0 -.14 417.664 146.798)" id="text_15"><defs><path id="DejaVuSans-70" d="M1159 525v-1856H581v4831h578v-531q182 312 458 463 277 152 661 152 638 0 1036-506 399-506 399-1331T3314 415Q2916-91 2278-91q-384 0-661 152-276 152-458 464zm1957 1222q0 634-261 995t-717 361q-457 0-718-361t-261-995q0-634 261-995t718-361q456 0 717 361t261 995z" transform="scale(.01563)"/><path id="DejaVuSans-79" d="M2059-325q-243-625-475-815-231-191-618-191H506v481h338q237 0 368 113 132 112 291 531l103 262L191 3500h609L1894 763l1094 2737h609L2059-325z" transform="scale(.01563)"/><path id="DejaVuSans-74" d="M1172 4494v-994h1184v-447H1172V1153q0-428 117-550t477-122h590V0h-590q-666 0-919 248-253 249-253 905v1900H172v447h422v994h578z" transform="scale(.01563)"/><path id="DejaVuSans-68" d="M3513 2113V0h-575v2094q0 497-194 743-194 247-581 247-466 0-735-297-269-296-269-809V0H581v4863h578V2956q207 316 486 472 280 156 646 156 603 0 912-373 310-373 310-1098z" transform="scale(.01563)"/><path id="DejaVuSans-6f" d="M1959 3097q-462 0-731-361t-269-989q0-628 267-989 268-361 733-361 460 0 728 362 269 363 269 988 0 622-269 986-268 364-728 364zm0 487q750 0 1178-488 429-487 429-1349 0-859-429-1349Q2709-91 1959-91q-753 0-1180 489-426 490-426 1349 0 862 426 1349 427 488 1180 488z" transform="scale(.01563)"/><path id="DejaVuSans-6e" d="M3513 2113V0h-575v2094q0 497-194 743-194 247-581 247-466 0-735-297-269-296-269-809V0H581v3500h578v-544q207 316 486 472 280 156 646 156 603 0 912-373 310-373 310-1098z" transform="scale(.01563)"/></defs><use xlink:href="#DejaVuSans-70"/><use xlink:href="#DejaVuSans-79" x="63.477"/><use xlink:href="#DejaVuSans-74" x="122.656"/><use xlink:href="#DejaVuSans-68" x="161.865"/><use xlink:href="#DejaVuSans-6f" x="225.244"/><use xlink:href="#DejaVuSans-6e" x="286.426"/></g><g style="fill:#ff7f0e" transform="matrix(.14 0 0 -.14 417.664 189.933)" id="text_16"><defs><path id="DejaVuSans-6a" d="M603 3500h575V-63q0-668-255-968-254-300-820-300h-219v487H38q328 0 446 152Q603-541 603-63v3563zm0 1363h575v-729H603v729z" transform="scale(.01563)"/><path id="DejaVuSans-61" d="M2194 1759q-697 0-966-159t-269-544q0-306 202-486 202-179 548-179 479 0 768 339t289 901v128h-572zm1147 238V0h-575v531q-197-318-491-470T1556-91q-537 0-855 302-317 302-317 808 0 590 395 890 396 300 1180 300h807v57q0 397-261 614t-733 217q-300 0-585-72-284-72-546-216v532q315 122 612 182 297 61 578 61 760 0 1135-394 375-393 375-1193z" transform="scale(.01563)"/><path id="DejaVuSans-76" d="M191 3500h609L1894 563l1094 2937h609L2284 0h-781L191 3500z" transform="scale(.01563)"/><path id="DejaVuSans-73" d="M2834 3397v-544q-243 125-506 187-262 63-544 63-428 0-642-131t-214-394q0-200 153-314t616-217l197-44q612-131 870-370t258-667q0-488-386-773Q2250-91 1575-91q-281 0-586 55T347 128v594q319-166 628-249 309-82 613-82 406 0 624 139 219 139 219 392 0 234-158 359-157 125-692 241l-200 47q-534 112-772 345-237 233-237 639 0 494 350 762 350 269 994 269 318 0 599-47 282-46 519-140z" transform="scale(.01563)"/><path id="DejaVuSans-63" d="M3122 3366v-538q-244 135-489 202t-495 67q-560 0-870-355-309-354-309-995t309-996q310-354 870-354 250 0 495 67t489 202V134Q2881 22 2623-34q-257-57-548-57-791 0-1257 497-465 497-465 1341 0 856 470 1346 471 491 1290 491 265 0 518-55 253-54 491-163z" transform="scale(.01563)"/><path id="DejaVuSans-72" d="M2631 2963q-97 56-211 82-114 27-251 27-488 0-749-317t-261-911V0H581v3500h578v-544q182 319 472 473 291 155 707 155 59 0 131-8 72-7 159-23l3-590z" transform="scale(.01563)"/><path id="DejaVuSans-69" d="M603 3500h575V0H603v3500zm0 1363h575v-729H603v729z" transform="scale(.01563)"/></defs><use xlink:href="#DejaVuSans-6a"/><use xlink:href="#DejaVuSans-61" x="27.783"/><use xlink:href="#DejaVuSans-76" x="89.063"/><use xlink:href="#DejaVuSans-61" x="148.242"/><use xlink:href="#DejaVuSans-73" x="209.521"/><use xlink:href="#DejaVuSans-63" x="261.621"/><use xlink:href="#DejaVuSans-72" x="316.602"/><use xlink:href="#DejaVuSans-69" x="357.715"/><use xlink:href="#DejaVuSans-70" x="385.498"/><use xlink:href="#DejaVuSans-74" x="448.975"/></g><g style="fill:#2ca02c" transform="matrix(.14 0 0 -.14 417.664 212.122)" id="text_17"><use xlink:href="#DejaVuSans-6a"/><use xlink:href="#DejaVuSans-61" x="27.783"/><use xlink:href="#DejaVuSans-76" x="89.063"/><use xlink:href="#DejaVuSans-61" x="148.242"/></g><g style="fill:#d62728" transform="matrix(.14 0 0 -.14 417.664 226.122)" id="text_18"><defs><path id="DejaVuSans-23" d="M3272 2816h-909l-263-1044h916l256 1044zm-469 1778-325-1297h913l328 1297h500l-322-1297h975v-481H3775l-256-1044h994v-478H3397L3072 0h-500l322 1294h-916L1656 0h-503l325 1294H494v478h1100l262 1044H850v481h1128l319 1297h506z" transform="scale(.01563)"/></defs><use xlink:href="#DejaVuSans-63"/><use xlink:href="#DejaVuSans-23" x="54.98"/></g><g style="fill:#9467bd" transform="matrix(.14 0 0 -.14 417.664 240.122)" id="text_19"><use xlink:href="#DejaVuSans-70"/><use xlink:href="#DejaVuSans-68" x="63.477"/><use xlink:href="#DejaVuSans-70" x="126.855"/></g><use xlink:href="#DejaVuSans-72" style="fill:#8c564b" transform="matrix(.14 0 0 -.14 417.664 268.122)" id="text_20"/><g style="fill:#e377c2" transform="matrix(.14 0 0 -.14 417.664 254.122)" id="text_21"><defs><path id="DejaVuSans-2b" d="M2944 4013V2272h1740v-531H2944V0h-525v1741H678v531h1741v1741h525z" transform="scale(.01563)"/></defs><use xlink:href="#DejaVuSans-63"/><use xlink:href="#DejaVuSans-2b" x="54.98"/><use xlink:href="#DejaVuSans-2b" x="138.77"/></g><g style="fill:#7f7f7f" transform="matrix(.14 0 0 -.14 417.664 282.122)" id="text_22"><defs><path id="DejaVuSans-71" d="M947 1747q0-634 261-995t717-361q456 0 718 361 263 361 263 995t-263 995q-262 361-718 361t-717-361q-261-361-261-995zM2906 525q-181-312-458-464-276-152-664-152-634 0-1033 506-398 507-398 1332t398 1331q399 506 1033 506 388 0 664-152 277-151 458-463v531h575v-4831h-575V525z" transform="scale(.01563)"/><path id="DejaVuSans-6c" d="M603 4863h575V0H603v4863z" transform="scale(.01563)"/></defs><use xlink:href="#DejaVuSans-73"/><use xlink:href="#DejaVuSans-71" x="52.1"/><use xlink:href="#DejaVuSans-6c" x="115.576"/></g><g style="fill:#bcbd22" transform="matrix(.14 0 0 -.14 417.664 296.122)" id="text_23"><defs><path id="DejaVuSans-65" d="M3597 1894v-281H953q38-594 358-905t892-311q331 0 642 81t618 244V178Q3153 47 2828-22t-659-69q-838 0-1327 487-489 488-489 1320 0 859 464 1363 464 505 1252 505 706 0 1117-455 411-454 411-1235zm-575 169q-6 471-264 752-258 282-683 282-481 0-770-272t-333-766l2050 4z" transform="scale(.01563)"/></defs><use xlink:href="#DejaVuSans-74"/><use xlink:href="#DejaVuSans-79" x="39.209"/><use xlink:href="#DejaVuSans-70" x="98.389"/><use xlink:href="#DejaVuSans-65" x="161.865"/><use xlink:href="#DejaVuSans-73" x="223.389"/><use xlink:href="#DejaVuSans-63" x="275.488"/><use xlink:href="#DejaVuSans-72" x="330.469"/><use xlink:href="#DejaVuSans-69" x="371.582"/><use xlink:href="#DejaVuSans-70" x="399.365"/><use xlink:href="#DejaVuSans-74" x="462.842"/></g><g style="fill:#17becf" transform="matrix(.14 0 0 -.14 417.664 324.122)" id="text_24"><defs><path id="DejaVuSans-77" d="M269 3500h575l719-2731 715 2731h678l719-2731 716 2731h575L4050 0h-678l-753 2869L1863 0h-679L269 3500z" transform="scale(.01563)"/><path id="DejaVuSans-66" d="M2375 4863v-479h-550q-309 0-430-125-120-125-120-450v-309h947v-447h-947V0H697v3053H147v447h550v244q0 584 272 851 272 268 862 268h544z" transform="scale(.01563)"/></defs><use xlink:href="#DejaVuSans-73"/><use xlink:href="#DejaVuSans-77" x="52.1"/><use xlink:href="#DejaVuSans-69" x="133.887"/><use xlink:href="#DejaVuSans-66" x="161.67"/><use xlink:href="#DejaVuSans-74" x="195.125"/></g><use xlink:href="#DejaVuSans-63" style="fill:#aec7e8" transform="matrix(.14 0 0 -.14 417.664 310.122)" id="text_25"/><g style="fill:#ffbb78" transform="matrix(.14 0 0 -.14 417.664 338.122)" id="text_26"><defs><path id="DejaVuSans-64" d="M2906 2969v1894h575V0h-575v525q-181-312-458-464-276-152-664-152-634 0-1033 506-398 507-398 1332t398 1331q399 506 1033 506 388 0 664-152 277-151 458-463zM947 1747q0-634 261-995t717-361q456 0 718 361 263 361 263 995t-263 995q-262 361-718 361t-717-361q-261-361-261-995z" transform="scale(.01563)"/></defs><use xlink:href="#DejaVuSans-64"/><use xlink:href="#DejaVuSans-61" x="63.477"/><use xlink:href="#DejaVuSans-72" x="124.756"/><use xlink:href="#DejaVuSans-74" x="165.869"/></g><g style="fill:#98df8a" transform="matrix(.14 0 0 -.14 417.664 352.122)" id="text_27"><defs><path id="DejaVuSans-6b" d="M581 4863h578V1991l1716 1509h734L1753 1863 3688 0h-750L1159 1709V0H581v4863z" transform="scale(.01563)"/></defs><use xlink:href="#DejaVuSans-6b"/><use xlink:href="#DejaVuSans-6f" x="54.285"/><use xlink:href="#DejaVuSans-74" x="115.467"/><use xlink:href="#DejaVuSans-6c" x="154.676"/><use xlink:href="#DejaVuSans-69" x="182.459"/><use xlink:href="#DejaVuSans-6e" x="210.242"/></g><g style="fill:#ff9896" transform="matrix(.14 0 0 -.14 417.664 366.122)" id="text_28"><defs><path id="DejaVuSans-67" d="M2906 1791q0 625-258 968-257 344-723 344-462 0-720-344-258-343-258-968 0-622 258-966t720-344q466 0 723 344 258 344 258 966zm575-1357q0-893-397-1329-396-436-1215-436-303 0-572 45t-522 139v559q253-137 500-202 247-66 503-66 566 0 847 295t281 892v285q-178-310-456-463T1784 0Q1141 0 747 490 353 981 353 1791q0 812 394 1302 394 491 1037 491 388 0 666-153t456-462v531h575V434z" transform="scale(.01563)"/></defs><use xlink:href="#DejaVuSans-67"/><use xlink:href="#DejaVuSans-6f" x="63.477"/></g><g style="fill:#c5b0d5" transform="matrix(.14 0 0 -.14 417.664 380.122)" id="text_29"><defs><path id="DejaVuSans-75" d="M544 1381v2119h575V1403q0-497 193-746 194-248 582-248 465 0 735 297 271 297 271 810v1984h575V0h-575v538q-209-319-486-474-276-155-642-155-603 0-916 375-312 375-312 1097zm1447 2203z" transform="scale(.01563)"/></defs><use xlink:href="#DejaVuSans-72"/><use xlink:href="#DejaVuSans-75" x="41.113"/><use xlink:href="#DejaVuSans-73" x="104.492"/><use xlink:href="#DejaVuSans-74" x="156.592"/></g><g style="fill:#c49c94" transform="matrix(.14 0 0 -.14 417.664 394.122)" id="text_30"><defs><path id="DejaVuSans-62" d="M3116 1747q0 634-261 995t-717 361q-457 0-718-361t-261-995q0-634 261-995t718-361q456 0 717 361t261 995zM1159 2969q182 312 458 463 277 152 661 152 638 0 1036-506 399-506 399-1331T3314 415Q2916-91 2278-91q-384 0-661 152-276 152-458 464V0H581v4863h578V2969z" transform="scale(.01563)"/></defs><use xlink:href="#DejaVuSans-72"/><use xlink:href="#DejaVuSans-75" x="41.113"/><use xlink:href="#DejaVuSans-62" x="104.492"/><use xlink:href="#DejaVuSans-79" x="167.969"/></g><g style="fill:#b0b0b0" transform="matrix(.09716 0 0 -.09716 49.83 357.986)" id="text_31"><defs><path id="DejaVuSans-40" d="M2381 1678q0-447 222-702 222-254 610-254 384 0 604 256 221 256 221 700 0 438-225 695-225 258-607 258-378 0-602-256-223-256-223-697zm1703-934q-187-241-429-355t-564-114q-538 0-874 389t-336 1014q0 625 337 1015 338 391 873 391 322 0 565-117 244-117 428-354v409h447V722q457 69 714 417 258 349 258 902 0 334-99 628-98 294-298 544-325 409-792 626t-1017 217q-384 0-738-102-353-101-653-301-490-319-767-836-276-517-276-1120 0-497 179-932 180-434 521-765 328-325 759-495 431-171 922-171 403 0 792 136t714 389l281-347q-390-303-851-464t-936-161q-578 0-1091 205-512 205-912 595Q841 78 631 592q-209 514-209 1105 0 569 212 1084 213 516 607 907 403 396 931 607t1119 211q662 0 1229-272 568-271 952-771 234-307 357-666 124-359 124-744 0-822-497-1297T4084 263v481z" transform="scale(.01563)"/><path id="DejaVuSans-2f" d="M1625 4666h531L531-594H0l1625 5260z" transform="scale(.01563)"/><path id="DejaVuSans-2d" d="M313 2009h1684v-512H313v512z" transform="scale(.01563)"/><path id="DejaVuSans-7c" d="M1344 4891v-6400H813v6400h531z" transform="scale(.01563)"/><path id="DejaVuSans-4e" d="M628 4666h850L3547 763v3903h612V0h-850L1241 3903V0H628v4666z" transform="scale(.01563)"/><path id="DejaVuSans-53" d="M3425 4513v-616q-359 172-678 256-319 85-616 85-515 0-795-200t-280-569q0-310 186-468 186-157 705-254l381-78q706-135 1042-474t336-907q0-679-455-1029Q2797-91 1919-91q-331 0-705 75-373 75-773 222v650q384-215 753-325 369-109 725-109 540 0 834 212 294 213 294 607 0 343-211 537t-692 291l-385 75q-706 140-1022 440-315 300-315 835 0 619 436 975t1201 356q329 0 669-60 341-59 697-177z" transform="scale(.01563)"/><path id="DejaVuSans-f6" d="M1959 3097q-462 0-731-361t-269-989q0-628 267-989 268-361 733-361 460 0 728 362 269 363 269 988 0 622-269 986-268 364-728 364zm0 487q750 0 1178-488 429-487 429-1349 0-859-429-1349Q2709-91 1959-91q-753 0-1180 489-426 490-426 1349 0 862 426 1349 427 488 1180 488zm295 1266h634v-631h-634v631zm-1222 0h634v-631h-634v631z" transform="scale(.01563)"/><path id="DejaVuSans-6d" d="M3328 2828q216 388 516 572t706 184q547 0 844-383 297-382 297-1088V0h-578v2094q0 503-179 746-178 244-543 244-447 0-707-297-259-296-259-809V0h-578v2094q0 506-178 748t-550 242q-441 0-701-298-259-298-259-808V0H581v3500h578v-544q197 322 472 475t653 153q382 0 649-194 267-193 395-562z" transform="scale(.01563)"/><path id="DejaVuSans-43" d="M4122 4306v-665q-319 297-680 443-361 147-767 147-800 0-1225-489t-425-1414q0-922 425-1411t1225-489q406 0 767 147t680 444V359q-331-225-702-338-370-112-782-112-1060 0-1670 648-609 649-609 1771 0 1125 609 1773 610 649 1670 649 418 0 788-111 371-111 696-333z" transform="scale(.01563)"/><path id="DejaVuSans-42" d="M1259 2228V519h1013q509 0 754 211 246 211 246 645 0 438-246 645-245 208-754 208H1259zm0 1919V2741h935q462 0 688 173 227 174 227 530 0 353-227 528-226 175-688 175h-935zm-631 519h1613q722 0 1112-300 391-300 391-853 0-429-200-682t-588-315q466-100 724-418 258-317 258-792 0-625-425-966Q3088 0 2303 0H628v4666z" transform="scale(.01563)"/><path id="DejaVuSans-59" d="M-13 4666h679l1293-1919 1285 1919h678L2272 2222V0h-634v2222L-13 4666z" transform="scale(.01563)"/></defs><use xlink:href="#DejaVuSans-40"/><use xlink:href="#DejaVuSans-6e" x="100"/><use xlink:href="#DejaVuSans-73" x="163.379"/><use xlink:href="#DejaVuSans-63" x="215.479"/><use xlink:href="#DejaVuSans-68" x="270.459"/><use xlink:href="#DejaVuSans-6c" x="333.838"/><use xlink:href="#DejaVuSans-6f" x="361.621"/><use xlink:href="#DejaVuSans-65" x="422.803"/><use xlink:href="#DejaVuSans-20" x="484.326"/><use xlink:href="#DejaVuSans-2f" x="516.113"/><use xlink:href="#DejaVuSans-20" x="549.805"/><use xlink:href="#DejaVuSans-73" x="581.592"/><use xlink:href="#DejaVuSans-6f" x="633.691"/><use xlink:href="#DejaVuSans-2d" x="696.748"/><use xlink:href="#DejaVuSans-74" x="732.832"/><use xlink:href="#DejaVuSans-72" x="772.041"/><use xlink:href="#DejaVuSans-65" x="810.904"/><use xlink:href="#DejaVuSans-6e" x="872.428"/><use xlink:href="#DejaVuSans-64" x="935.807"/><use xlink:href="#DejaVuSans-73" x="999.283"/><use xlink:href="#DejaVuSans-20" x="1051.383"/><use xlink:href="#DejaVuSans-7c" x="1083.17"/><use xlink:href="#DejaVuSans-20" x="1116.861"/><use xlink:href="#DejaVuSans-4e" x="1148.648"/><use xlink:href="#DejaVuSans-69" x="1223.453"/><use xlink:href="#DejaVuSans-63" x="1251.236"/><use xlink:href="#DejaVuSans-6f" x="1306.217"/><use xlink:href="#DejaVuSans-20" x="1367.398"/><use xlink:href="#DejaVuSans-53" x="1399.186"/><use xlink:href="#DejaVuSans-63" x="1462.662"/><use xlink:href="#DejaVuSans-68" x="1517.643"/><use xlink:href="#DejaVuSans-6c" x="1581.021"/><use xlink:href="#DejaVuSans-f6" x="1608.805"/><use xlink:href="#DejaVuSans-6d" x="1669.986"/><use xlink:href="#DejaVuSans-65" x="1767.398"/><use xlink:href="#DejaVuSans-72" x="1828.922"/><use xlink:href="#DejaVuSans-20" x="1870.035"/><use xlink:href="#DejaVuSans-7c" x="1901.822"/><use xlink:href="#DejaVuSans-20" x="1935.514"/><use xlink:href="#DejaVuSans-43" x="1967.301"/><use xlink:href="#DejaVuSans-43" x="2037.125"/><use xlink:href="#DejaVuSans-20" x="2106.949"/><use xlink:href="#DejaVuSans-42" x="2138.736"/><use xlink:href="#DejaVuSans-59" x="2201.84"/></g><g style="fill:#b0b0b0" transform="matrix(.14 0 0 -.14 72.244 17.838)" id="text_32"><defs><path id="DejaVuSans-44" d="M1259 4147V519h763q966 0 1414 437 448 438 448 1382 0 937-448 1373t-1414 436h-763zm-631 519h1297q1356 0 1990-564 635-564 635-1764 0-1207-638-1773Q3275 0 1925 0H628v4666z" transform="scale(.01563)"/><path id="DejaVuSans-4f" d="M2522 4238q-688 0-1093-513-404-512-404-1397 0-881 404-1394 405-512 1093-512 687 0 1089 512 402 513 402 1394 0 885-402 1397-402 513-1089 513zm0 512q981 0 1568-658 588-658 588-1764 0-1103-588-1761Q3503-91 2522-91q-984 0-1574 656-589 657-589 1763t589 1764q590 658 1574 658z" transform="scale(.01563)"/></defs><use xlink:href="#DejaVuSans-44"/><use xlink:href="#DejaVuSans-61" x="77.002"/><use xlink:href="#DejaVuSans-69" x="138.281"/><use xlink:href="#DejaVuSans-6c" x="166.064"/><use xlink:href="#DejaVuSans-79" x="193.848"/><use xlink:href="#DejaVuSans-20" x="253.027"/><use xlink:href="#DejaVuSans-6e" x="284.814"/><use xlink:href="#DejaVuSans-75" x="348.193"/><use xlink:href="#DejaVuSans-6d" x="411.572"/><use xlink:href="#DejaVuSans-62" x="508.984"/><use xlink:href="#DejaVuSans-65" x="572.461"/><use xlink:href="#DejaVuSans-72" x="633.984"/><use xlink:href="#DejaVuSans-20" x="675.098"/><use xlink:href="#DejaVuSans-6f" x="706.885"/><use xlink:href="#DejaVuSans-66" x="768.066"/><use xlink:href="#DejaVuSans-20" x="803.271"/><use xlink:href="#DejaVuSans-71" x="835.059"/><use xlink:href="#DejaVuSans-75" x="898.535"/><use xlink:href="#DejaVuSans-65" x="961.914"/><use xlink:href="#DejaVuSans-73" x="1023.438"/><use xlink:href="#DejaVuSans-74" x="1075.537"/><use xlink:href="#DejaVuSans-69" x="1114.746"/><use xlink:href="#DejaVuSans-6f" x="1142.529"/><use xlink:href="#DejaVuSans-6e" x="1203.711"/><use xlink:href="#DejaVuSans-73" x="1267.09"/><use xlink:href="#DejaVuSans-20" x="1319.189"/><use xlink:href="#DejaVuSans-6f" x="1350.977"/><use xlink:href="#DejaVuSans-6e" x="1412.158"/><use xlink:href="#DejaVuSans-20" x="1475.537"/><use xlink:href="#DejaVuSans-53" x="1507.324"/><use xlink:href="#DejaVuSans-74" x="1570.801"/><use xlink:href="#DejaVuSans-61" x="1610.01"/><use xlink:href="#DejaVuSans-63" x="1671.289"/><use xlink:href="#DejaVuSans-6b" x="1726.27"/><use xlink:href="#DejaVuSans-4f" x="1784.18"/><use xlink:href="#DejaVuSans-76" x="1862.891"/><use xlink:href="#DejaVuSans-65" x="1922.07"/><use xlink:href="#DejaVuSans-72" x="1983.594"/><use xlink:href="#DejaVuSans-66" x="2024.707"/><use xlink:href="#DejaVuSans-6c" x="2059.912"/><use xlink:href="#DejaVuSans-6f" x="2087.695"/><use xlink:href="#DejaVuSans-77" x="2148.877"/></g><path d="m98.11 323.95 37.807-.014 20.034.014 37.734-.016 15.546-.078 2.226-.04 4.452.043 15.473-.105 4.49.065 4.451-.456 2.226.09 2.263-.127 2.19-.335 2.189.027 2.226.186 8.94.15 2.227-.18 2.226.012 2.226-.214 2.226.235 2.263-.266 2.153.062 2.153-.322 2.226.226 2.226-1.663 2.226-1.321 2.226.382 2.263-.371 2.226.416 2.226-.599 2.226-.922 2.226.992 4.416-.83 2.153-.704 2.226.006 2.226-.126 2.226.076 2.226-.896 2.263-.448 2.226.206 2.226-1.131 2.226.03 2.226 1.196 2.262-1.52 4.307-.267 4.452-.224 2.226-.85 2.226-1.211 2.262 1.058 2.226-.789 2.227-.22 2.226-.46 2.226 1.427 2.262-1.801 2.19-.336 2.19-.89 2.225-2.384 2.227.435 2.226 1.02 2.226 1.664 2.262.344 2.226-.972 2.226.06 2.226-.588 2.226 2.067 2.263-1.198 2.153.093 2.153-.388 2.226-.169 2.226.127 2.226-.728 2.227 1.12 4.488-.613 2.226.943 2.226-1.16 2.226 1.854 2.263-1.303 2.153-.606h0" clip-path="url(#p22176caa23)" style="fill:none;stroke:#98df8a;stroke-width:1.5;stroke-linecap:square" id="line2d_25"/><path d="m127.013 323.95 2.226-.015 2.226-.111 2.226.097h2.226l2.262-.027 2.19-.027 2.19.055 2.226-.146 2.226.013 2.226-.02 2.226-.057 2.262-.057 2.226.056 2.227-.329 2.226.017 2.226-.059 2.262-.098 2.153.04 2.153.037 2.227-.528 2.226.297 2.226-.13 2.226.186 2.262.042 2.226.069 2.226-.111 2.226-.454 2.227-.584 2.262-.168 2.153-.045 2.153.389 2.226.147 2.226.322 2.226-.199 2.227.052h2.262l2.226.057 2.226-.078 2.226.143 2.226.215 2.263.217 2.153-.163 2.153.149 2.226-.128 2.226.177 2.226.177 2.226-.093 2.263.245 2.226-.007 2.226-.084 2.226-.09 2.226.28 2.263-.148 2.19-.085 2.189.155 2.226.052 2.226.095 2.226-.19 2.226.134 2.263-.14 2.226.065 2.226.117 2.226-.06 2.226-.038h2.263l2.153-.024 2.153-.018 2.226.03 2.226-.366 2.226-.01 2.226.03 2.263.106 2.226.11 2.226-.124 2.226.153 2.226-.013 2.263.056 2.153-.35 2.153-1.29 2.226-.344 2.226-.357 2.226-.353 2.226-.355 2.263-.189 2.226.153 2.226-.202 2.226.238 2.226-.54 2.262-1.962 2.153.406 2.154.33 2.226-.98 2.226-.24 2.226.197 2.226-1.472 2.262-.295 2.226.145 2.227.353 2.226-.28 2.226-.323 2.262-.904 2.19-.602 2.19.357 2.225-4.989 2.227-1.985 2.226.645 2.226.89 2.262.098 2.226 1.431 2.226-.05 2.226.659 2.226 1.29 2.263-1.276 2.153-1.225 2.153-1.222 2.226-.023 2.226-.229 2.226.179 2.227 1.79 2.262-.882 2.226-.097 2.226 1.029 2.226.84 2.226-.153 2.263-1.57 2.153-1.051" clip-path="url(#p22176caa23)" style="fill:none;stroke:#ffbb78;stroke-width:1.5;stroke-linecap:square" id="line2d_26"/><path d="m49.83 320.528 1.715 1.298 2.226.248 2.226.58 2.263-.954 2.153-.327 2.153-.444 2.226-.304 2.226-.04 2.226-.3 2.226-.134 2.263.07 2.226-.414 2.226-1.282 2.226-1.586 2.226 1.046 2.263-.925 2.153-1.134 2.153.188 2.226-.754 2.226.32 2.226-.132 4.489-1.208 2.226-.421 2.226-.097 2.226-2.01 2.226 1.842 2.263.028 2.153-2.474 2.153-2.047 2.226-.015 2.226 1.998 2.226-.014 2.226 1.192 4.489-2.27 2.226-1.116 2.226-.949 2.226 1.86 2.262-1.57 2.19-2.444 2.19-1.123 2.226-.127 2.226 1.907 2.226.628 2.226.115 2.262.386 2.226-2.044 2.227-3.739 2.226-1.034 2.226 5.079 2.262-2.37 2.153-3.757 2.153-.098 2.227-1.52 2.226 3.259 2.226 1.088 2.226.23 2.262.077 2.226-3.538 2.226-5.133 2.226-1.32 2.227 6.5 2.262-1.682 2.153-4.645 2.153-1.243 2.226 2.982 2.226 6.214 2.226 2.818 2.227.182 2.262 1.142 2.226-4.692 2.226-3.263 2.226.025 2.226 4.587 2.263-.406 2.153-3.651 2.153-1.277 2.226-1.165 2.226 3.962 2.226 1.731 2.226 3.231 2.263 1.675 2.226-4.363 2.226-3.417 2.226-.414 2.226 4.578 2.263.273 2.19-3.196 2.189.308 2.226-.051 2.226 5.231 2.226 2.403 2.226.254 2.263.91 2.226-2.678 2.226-4.358 2.226-1.132 2.226 4.068 2.263.26 2.153-1.844 2.153.344 2.226.12 2.226 1.527 2.226 2.087 2.226 2.756 2.263.007 2.226-.858 2.226-4.399 2.226-1.844 2.226 6.022 2.263-.182 2.153-1.032 2.153-.784 2.226 1.444 2.226-.743 2.226 3.394 2.226 1.758 2.263-.73 2.226-1.68 2.226-4.137 2.226-1.121 2.226 2.79 2.262-.568 2.153.113 2.154-.905 2.226-1.278 2.226 2.897 2.226 1.542 2.226.035 2.262 1.486 2.226-4.374 2.227-3.687 2.226-1.057 2.226 4.148 2.262.736 2.19-.17 2.19-3.278 2.225-7.346 2.227.33 2.226 6.109 2.226 4.566 2.262 1.633 2.226-3.172 2.226-1.51 2.226-3.27 2.226 3.816 2.263-2.081 2.153.958 2.153-.426 2.226 1.166 2.226 1.87 2.226 1.643 2.227 3.354 2.262.462 2.226-2.15 2.226-2.82 2.226-2.17 2.226 2.08 2.263 1.5 2.153.209h0" clip-path="url(#p22176caa23)" style="fill:none;stroke:#aec7e8;stroke-width:1.5;stroke-linecap:square" id="line2d_27"/><path d="m55.997 323.95 37.661-.007 106.632-.063 2.226-17.392 2.227 5.925 2.262-.414 2.226-1.875 2.226-3.494 2.226-1.308 2.226 1.077 4.416-7.67 2.153-.082 2.226-3.972 2.226 2.542 4.452-9.504 2.263.533 2.226 2.605 2.226 2.848 2.226-1.139 2.226.592 2.263-2.93 2.19-2.004 2.189-.021 2.226 1.14 2.226 3.437 2.226-3.763 4.489.363 2.226-.863 2.226 2.167 2.226 1.549 2.226 4.03 2.263-2.81 2.153-1.104 2.153-.887 2.226 3.994 2.226-.356 2.226-1.629 2.226-.089 2.263 1.087 2.226 2.008 2.226.01 2.226.722 2.226 4.115 2.263-3.82 2.153-.212 2.153-1.968 2.226 2.515 2.226.61 2.226 2.482 2.226-4.892 2.263-.533 2.226 2.992 2.226-.181 2.226 1.427 2.226 2.344 2.262-1.1 2.153-.6 2.154.193 2.226-2.206 2.226.152 2.226-1.89 2.226-.843 2.262 4.548 2.226-.526 2.227-3.665 2.226.203 2.226 3.33 6.641-3.561 2.226-4.991 2.227.575 2.226 2.003 2.226 2.266 2.262 2.74 2.226 1.114 2.226 2.335 2.226.736 2.226 3.68 2.263-4.087 2.153-1.632 2.153.91 2.226 1.998 2.226 3.049 2.226.124 2.227-.257 2.262.238 2.226 1.279 4.452 1.666 2.226.622 2.263-2.34h0" clip-path="url(#p22176caa23)" style="fill:none;stroke:#17becf;stroke-width:1.5;stroke-linecap:square" id="line2d_28"/><path d="m155.951 323.95 2.227-1.942 2.226.906 2.226.468 2.262-.105 2.153.13 2.153-.27 2.227.132 2.226.148 2.226-.148 2.226-.076 2.262.007 2.226.127 2.226.048 2.226-.077 2.227-.203 2.262-.176 2.153.107 2.153.09 2.226-.18 2.226.047 2.226.2 2.227-.362 2.262.274 2.226.022 2.226-.162 2.226.22 2.226-.066 2.263-.154 2.153-.006 2.153-.107 2.226-.16 2.226-.463 2.226-.145 2.226-.15 2.263-.056 2.226-.091 2.226-.182 2.226-.586 2.226-.585 2.263-.82 2.19-1.259 2.189-.283 2.226-.928 2.226-.642 2.226-.567 2.226-.968 2.263-.63 2.226-.17 2.226-.665 2.226.246 2.226.413 2.263-1.107 2.153-1.169 2.153-.794 2.226.267 2.226-.82 2.226-.209 2.226-.037 2.263-.932 2.226 1.042 2.226.542 2.226-1.462 2.226 2.29 2.263-1.613 2.153-1.494 2.153-.37 2.226.39 2.226.45 2.226-.414 2.226-.756 2.263-1.83 2.226.957 2.226-1.32 2.226 1.544 2.226 1.182 2.262-2.74 2.153-2.339 2.154 1.644 2.226-1.064 2.226.7 2.226.343 2.226-1.927 2.262 1.766 2.226-.752 2.227-.86 2.226-2.073 2.226 2.95 2.262-.61 2.19-2.48 2.19-.773 2.225-5.062 2.227.66 2.226.832 2.226.402 2.262 2.923 2.226-.826 2.226.616 2.226 1.34 2.226 2.522 2.263-2.65 2.153-1.633 2.153-1.836 2.226 1.083 2.226 1.938 2.226-1.3 2.227 1.202 2.262-.631 2.226-.948 2.226.212 2.226.881 2.226 1.27 2.263-2.214" clip-path="url(#p22176caa23)" style="fill:none;stroke:#bcbd22;stroke-width:1.5;stroke-linecap:square" id="line2d_29"/><path d="m49.83 318.803 1.715 1.404 2.226.737 2.226.013 4.416-2.19 2.153.557 2.226-.77 2.226-.527 2.226-.777 2.226-.926 2.263.357 2.226-2.552 2.226-.539 2.226 1.545 2.226.495 2.263-.484 2.153-1.207 2.153-.236 2.226.65 2.226-.566 2.226-1.621 2.226-1.064 2.263-.567 2.226.813 2.226-.386 2.226-1.324 2.226 1.037 2.263-3.224 2.153-.061 2.153-2.077 2.226 1.986 2.226-2.379 2.226-.25 2.226.51 4.489-.04 2.226.551 2.226-2.347 2.226 2.41 2.262-1.52 2.19-3.99 2.19-1.674 2.226 1.153 2.226-.487 2.226.704 2.226-2.225 2.262.224 2.226-.215 2.227-2.658 2.226-2.448 2.226 4.08 2.262-5.501 2.153-2.912 2.153-1.238 2.227.16 2.226 1.62 2.226.67 2.226-3.578 2.262.224 4.452-10.275 2.226.396 2.227 3.795 2.262-5.705 2.153-4.585 2.153-.335 2.226-2.39 2.226 9.16 2.226 1.414 2.227-1.967 2.262 4.555 2.226-2.392 2.226 7.803 2.226 7.218 2.226 1.565 2.263-1.858 2.153-2.628 2.153-1.114 2.226-.44 2.226 2.626 2.226-1.584 2.226.246 2.263 2.768 4.452.203 2.226-.53 2.226 2.037 2.263-1.745 2.19-3.646 2.189-.854 2.226-.087 2.226 1.833 2.226-1.927 2.226 5.354 2.263-.652 2.226.028 2.226-.946 2.226-2.002 2.226 5.1 2.263-1.493 2.153-3.733 2.153-3.213 2.226 3.455 2.226-1.934 2.226 1.08 2.226 1.268 2.263 1.5 2.226 1.62 2.226-1.655 2.226-1.119 2.226 7.049 2.263-3.463 2.153-2.338 2.153-1.363 2.226-.964 2.226.712 2.226 1.49 2.226-.852 2.263.568 2.226 3.746 2.226-3.585 2.226.695 2.226 5.508 2.262-3.4 2.153-4.86 2.154.164 2.226 1.422 4.452 4.251 2.226-4.607 2.262 4.436 2.226-3.225 2.227-2.83 2.226-1.422 2.226 4.92 2.262-1.991 2.19-3.557 2.19.487 2.225-5.197 2.227 1.587 2.226 1.904 2.226 3.128 2.262 3.954 2.226-2.816 2.226-.458 2.226-.331 2.226 5.567 2.263-.645 2.153-3.142 2.153-1.708 2.226 1.355 2.226 2.325 2.226-2.325 2.227 4 2.262-.084 2.226.248 2.226 1.413 2.226-.696 2.226 1.72 2.263.259h0" clip-path="url(#p22176caa23)" style="fill:none;stroke:#7f7f7f;stroke-width:1.5;stroke-linecap:square" id="line2d_30"/><path d="m49.83 315.707 1.715 2.544 2.226.368 2.226.894 2.263-1.542 2.153-.586 2.153-.837 2.226-.007 2.226-1.142 2.226-.531 2.226-1.2 2.263.448 2.226-.784 2.226-1.22 2.226-.888 2.226 1.098 2.263-2.418 2.153-3.624 2.153.575 2.226-.961 2.226 1.08 2.226-3.506 2.226 1.642 2.263.329 2.226-1.363 2.226-.705 2.226-3.858 2.226 2.407 2.263-2.558 2.153-2.239 2.153-2.562 2.226-.907 2.226 2.954 2.226-.398 2.226.699 2.263-.75 2.226-.868 4.452-3.97 2.226 1.95 2.262-1.338 2.19-6.427 2.19 1.471 2.226-1.74 2.226 3.527 2.226 1.247 2.226-3.251 2.262.918 2.226.594 2.227-5.837 2.226-4.078 2.226 5.62 2.262-2.614 2.153-4.959 2.153-3.172 2.227-1.386 2.226 3.91 2.226 3.065 2.226-1.138 2.262 2.278 2.226-3.733 2.226-8.526 2.226-2.99 2.227 9.824 2.262-4.773 2.153-5.72 2.153-1.156 2.226 1.876 2.226 11.245 2.226 6.47 2.227-2.818 2.262 2.733 2.226-3.732 2.226-2.968 2.226.31 2.226 5.023 2.263-.455 2.153-7.077 2.153-1.558 2.226.004 2.226 3.949 2.226.643 2.226.184 2.263 5.845 2.226-1.633 2.226-6.588 2.226-1.987 2.226 5.393 2.263 3.245 2.19-6.409 2.189-.242 2.226-.633 2.226 7.032 2.226 1.53 4.489 6.397 2.226-2.19 2.226-4.665 2.226-2.237 2.226 7.48 2.263-2.965 2.153-.584 2.153-3.502 2.226 1.135 2.226 5.39 2.226 3.244 2.226-1.288 2.263 1.696 2.226 1.134 2.226-4.21 2.226.09 2.226 5.194 4.416-4.258 2.153-.894 2.226 2.528 2.226.942 2.226 3.295 2.226 1.212 2.263-.771 2.226.414 2.226-3.52 2.226-1.535 2.226 6.849 2.262-2.397 2.153-1.987 2.154-2.752 2.226-1.596 2.226 3.748 2.226 1.35 2.226-5.87 2.262 7.927 2.226-5.316 2.227-7.623 2.226-.402 2.226 6.318 2.262.28 2.19-2.569 2.19-3.333 2.225-14.189 2.227 1.202 2.226 5.824 2.226 5.306 2.262 3.939 2.226 3.277 2.226-2.338 2.226-1.261 2.226 5.25 2.263-2.09 2.153-2.858 2.153.567 2.226 1.499 2.226-.259 2.226 2.649 2.227 4.662 2.262 1.934 2.226-4.423 2.226-.988 2.226-1.467 2.226 4.481 2.263-.673 2.153-.346h0" clip-path="url(#p22176caa23)" style="fill:none;stroke:#e377c2;stroke-width:1.5;stroke-linecap:square" id="line2d_31"/><path d="m49.83 323.868 1.715.082 17.7-.036 2.225-.322 2.263.028 2.226-.677 2.226.495 2.226-.169 2.226.12 2.263-.098 2.153-.288 2.153-.027 2.226-.185 2.226.185 6.715-1.01 4.452.484 2.226-.253 2.226.19 2.263-.19 2.153-.746 4.379-.949 2.226.448 2.226-.216 2.226.034 2.263-.932 2.226-.319 2.226.08 2.226-.05 2.226.1 2.262-.533 2.19-1.263 2.19-.146 2.226.11 2.226-.047 4.452-1.696 2.262.224 2.226-.023 2.227-1.21 2.226-.876 2.226 1.219 2.262-2.06 2.153-2.394 2.153-.011 2.227-.368 2.226.83 2.226-.352 2.226-.972 2.262.35 2.226 1.07 2.226-2.29 2.226-1.142 2.227 2.489 2.262-3.14 2.153-3.82 2.153.532 2.226-.074 2.226 1.665 2.226.805 2.227-1.162 2.262 1.135 2.226.194 2.226-2.317 2.226-.146 2.226 3.11 2.263-2.383 2.153-4.161 2.153-1.908 2.226.88 2.226.08 2.226-.84 2.226-3.043 2.263 3.434 2.226.333 2.226-1.686 2.226.158 2.226 3.375 2.263-2.551 2.19-2.154 4.415-3.008 2.226 3.388 2.226-1.382 2.226 1.719 2.263-.274 2.226 2.69 2.226-2.661 2.226.742 2.226 3.715 2.263-2.446 2.153-4.094 2.153-3.721 2.226 1.426 2.226.593 2.226-2.027 4.489.225 2.226 1.455 2.226-1.286 2.226-.858 2.226 6.717 2.263-3.371 2.153-5.594 2.153-.742 2.226 1.353 2.226 1.219 2.226.556 2.226.37 2.263.244 2.226 1.53 2.226-3.597 2.226-.677 2.226 8.211 2.262-5.144 2.153-6.38 2.154 1.95 2.226-2.613 2.226 3.496 2.226 1.617 2.226-3.58 2.262 3.498 2.226-.852 2.227-4.012 2.226.42 2.226 6.526 2.262-2.937 2.19-6.834 2.19-1.5 2.225-11.051 2.227 3.362 2.226 2.83 2.226 6.296 2.262 3.35 2.226-3.454 2.226-1.718 2.226.589 2.226 7.892 2.263-2.446 2.153-3.995 2.153-3.218 2.226 2.303 2.226 2.723 2.226 1.673 2.227 3.352 4.488.972 2.226-1.946 2.226.468 2.226 5.476 2.263-2.152h0" clip-path="url(#p22176caa23)" style="fill:none;stroke:#8c564b;stroke-width:1.5;stroke-linecap:square" id="line2d_32"/><path d="m49.83 318.735 1.715.87 2.226.695 2.226.285 2.263-1.1 2.153-1.503 2.153-.375 2.226-.668 2.226-1.288 2.226-3.152 2.226-2.813 4.489-2.177 2.226-.15 2.226-2.914 2.226-.338 2.263-4.31 2.153-.446 2.153-1.741 2.226-.147 2.226-1.521 2.226-1.694 2.226-2.645 2.263-3.827 2.226 2.112 2.226 2.297 2.226-5.412 2.226-.714 4.416-14.505 2.153-4.84 2.226 1.395 2.226-1.29 2.226-1.477 2.226-2.791 2.263-1.718 2.226 4.133 2.226 1.91 2.226-6.372 2.226 4.479 2.262-6.974 2.19-9.365 2.19-2.01 2.226.978 2.226-1.112 2.226.105 2.226-5.86 2.262-.869 2.226 3.934 2.227-3.205 2.226-2.618 2.226 7.742 2.262-13.009 2.153-8.184 2.153-1.376 2.227 2.08 2.226 5.335 2.226-.092 2.226-8.452 2.262.183 2.226-2.914 2.226-4.34 2.226-.36 2.227 6.843 2.262-17.257 2.153-10.697 2.153-.279 2.226.343 2.226 24.855 2.226 9.352 2.227-5.743 2.262 7.717 2.226-4.154 2.226 1.288 2.226 1.138 2.226 7.833 2.263-8.796 2.153-9.234 2.153.087 2.226-3.948 2.226 6.527 2.226-1.986 2.226-3.81 2.263 8.095 2.226 1.908 2.226.398 2.226 1.087h2.226l2.263-5.762 2.19-9.77 2.189 5.86 2.226 1.089 2.226 3.789 2.226 2.41 2.226 8.482 2.263.343 2.226 2.271 2.226 1.998 2.226-.57 2.226 6.19 2.263-8.158 2.153-8.716 2.153-1.552 2.226 8.636 2.226-1.403 2.226 6.125 2.226 2.728 2.263 1.023 2.226 4.194 2.226 1.547 2.226-.78 2.226 12.779 2.263-7.107 2.153.015 2.153 1.947 2.226 4.114 2.226-1.401 2.226 5.102 2.226-2.95 2.263-1.85 2.226 4.062 2.226-2.29 2.226 5.158 2.226 9.688 2.262-8.054 2.153-6.984 2.154 2.127 2.226 1.774 2.226 3.595 2.226 1.83 2.226-9.288 2.262 8.58 2.226-.473 2.227-2.941 2.226-2.259 2.226 10.572 2.262-6.056 2.19-2.937 2.19 1.78 2.225-13.288 2.227 4.135 2.226 4.882 2.226 4.187 2.262 8.586 2.226-.67 2.226 3.593 2.226-1.617 2.226 9.642 2.263-9.833 2.153-1.371 2.153 1.378 2.226 1.937 2.226 2.738 2.226.058 2.227 5.276 2.262-.49 2.226 1.044 2.226 1.548 2.226 2.443 2.226 2.674 2.263-3.89h0" clip-path="url(#p22176caa23)" style="fill:none;stroke:#9467bd;stroke-width:1.5;stroke-linecap:square" id="line2d_33"/><path d="m49.83 306.554 1.715 3.448 4.452 2.775 2.263-5.474 2.153-3.506 2.153-2.01 2.226-1.897 2.226-.906 2.226-3.18 2.226-2.757 4.489-.668 2.226-1.568 2.226-.757 2.226 2.376 2.263-4.366 2.153-3.752 2.153-2.704 2.226.436 2.226.21 2.226-2.934 2.226-2.282 2.263-1.955 2.226 2.434 2.226-.878 2.226-5.749 2.226 3.177 2.263-6.337 2.153-7.878 2.153-6.266 2.226 2.797 2.226-3.091 2.226-.487 2.226 3.43 2.263-3.154 2.226 3.143 2.226 2.808 2.226-7.161 2.226 6.467 4.452-15.666 2.19-.805 2.226.842 2.226-.555 2.226-.727 2.226-4.438 2.262 2.803 2.226 2.229 2.227-7.57 2.226.588 2.226 11.853 2.262-13.043 2.153-8.133 2.153-2.493 2.227-.714 2.226 6.3 2.226 1.848 2.226-6.831 2.262 2.551 2.226-2.687 2.226-6.803 2.226.726 2.227 10.334 2.262-12.119 2.153-9.8 2.153 3.64 2.226 2.535 2.226 13.466 2.226 6.813 2.227-5.264 2.262 8.446 2.226-1.726 2.226 1.235 2.226 2.147 2.226 8.143 2.263-4.55 2.153-9.09 2.153-1.45 2.226-1.896 2.226 1.117 2.226-4.405 2.226-.88 2.263 6.323 2.226-.728 2.226 3.889 2.226-.065 2.226 4.53 2.263-1.41 2.19-8.921 2.189.027 2.226-4.054 2.226 4.846 2.226-.037 2.226 10.544 2.263-5.026 2.226 8.728 2.226.202 2.226-4.15 2.226 9.498 2.263-7.1 2.153-7.386 2.153-1.761 2.226 10.856 2.226-3.847 2.226 2.138 2.226 3.343 2.263 1.787 2.226 5.198 2.226-.074 2.226.596 2.226 10.71 2.263-5.503 2.153-.791 2.153-2.139 2.226 1.815 2.226-2.796 2.226 6.12 2.226-6.26 2.263-3.343 2.226 5.931 2.226-5.167 2.226 4.059 2.226 9.72 2.262-9.644 2.153-4.83 2.154 2.7 2.226-4.718 2.226 3.28 2.226 5.172 2.226-9.524 2.262 8.943 2.226-3.96 2.227-3.638 2.226.582 2.226 12.455 2.262-6.182 2.19-5.105 2.19 1.685 2.225-10.907 4.453 10.487 2.226 3.118 2.262 5.32 2.226 2.289 2.226 3.795 2.226-.05 2.226 11.734 2.263-11.46 2.153-2.933 2.153.655 2.226 3.314 2.226 2.903 2.226-.78 2.227 6.773 2.262.19 2.226-.923 2.226.06 2.226-4.754 2.226 7.13 2.263-1.458 2.153-4.116h0" clip-path="url(#p22176caa23)" style="fill:none;stroke:#d62728;stroke-width:1.5;stroke-linecap:square" id="line2d_34"/><path d="m49.83 311.212 1.715 4.663 4.452 2.236 2.263-2.243 2.153-1.292 2.153-.726 2.226-1.018 2.226-1.66 2.226-2.577 2.226-.528 2.263.505 2.226-1.041 2.226-1.174 2.226-2.426 2.226 1.158 2.263-7.31 2.153-1.664 2.153-3.39 2.226 3.007 2.226-1.101 2.226-1.825 2.226-.593 2.263-1.325 4.452-2.257 2.226-5.363 2.226.8 2.263-6.16 2.153-7.603 2.153-6.114 2.226 2.238 2.226-2.827 2.226 2.732 2.226.163 2.263-3.757 2.226.618 2.226.335 2.226-9.954 2.226 5.293 2.262-6.665L140.37 241l2.19-4.867 2.226-.14 2.226 1.787 2.226 5.094 2.226-5.396 2.262.155 2.226 1.758 2.227-10.492 2.226-4.008 2.226 11.543 2.262-9.315 2.153-10.941 2.153-4.83 2.227-5.983 2.226 10.49 2.226 6.182 2.226-5.347 2.262 1.072 2.226-12.325 2.226-13.798 2.226-4.533 2.227 13.708 2.262-8.712 2.153-18.868 2.153-4.633 2.226 2.832 2.226 25.512 2.226 10.665 2.227-6.382 2.262 11.579 2.226-10.962 2.226-4.41 2.226-3.832 2.226 14.599 2.263-1.164 2.153-14.063 2.153-8.527 2.226-4.846 2.226 13.635 2.226.626 2.226-1.831 2.263 11.48 2.226-3.072 2.226-7.21 2.226 1.097 2.226 12.907 2.263-.694 2.19-17.095 2.189-6.013 2.226-1.592 2.226 21.694 2.226 4.279 2.226 10.678 2.263-1.605 2.226.096 2.226-1.267 2.226-5.932 2.226 16.41 2.263-5.095 2.153-11.004 2.153-8.48 2.226 6.112 2.226.854 2.226 8.64 2.226 6.738 2.263 3.042 2.226 3.772 2.226-5.826 2.226-4.763 2.226 18.928 2.263-2.376 2.153-6.853 2.153-1.656 2.226-2.712 2.226 3.161 2.226 9.137 2.226-4.357 2.263.372 2.226 1.03 2.226-12.399 2.226 3.258 2.226 13.529 2.262-5.23 2.153-8.758 2.154-.696 2.226 2.829 2.226 3.416 2.226 5.593 2.226-13.85 2.262 15.721 2.226-7.455 2.227-11.84 2.226 2.78 2.226 16.06 2.262-6.014 2.19-6.97 2.19-7.826 2.225-22.49 2.227 11.17 2.226 12.586 2.226 7.677 2.262 10.69 2.226-1.318 2.226 1.612 2.226.047 2.226 20.258 2.263-10.416 2.153-5.128 2.153-2.904 2.226 5.172 2.226.828 2.226 2.373 2.227 11.47 2.262 1.29 2.226-2.092 2.226 2.028 2.226-5.7 2.226 8.427 2.263-1.837 2.153-4.505h0" clip-path="url(#p22176caa23)" style="fill:none;stroke:#2ca02c;stroke-width:1.5;stroke-linecap:square" id="line2d_35"/><path d="m49.83 317.241 1.715 1.62 2.226.895 2.226-.194 2.263-1.156 2.153-1.82 2.153.313 2.226-.547 2.226-2.446 2.226-1.233 2.226-.996 2.263-.743 2.226.356 2.226-1.66 2.226-1.817 2.226-.019 4.416-4.26 2.153-.506 4.452-1.633 2.226-2.541 2.226-2.001 4.489-1.83 2.226.07 2.226-4.061 2.226-1.805 2.263-3.49 2.153-5.367 2.153-3.934 2.226-2.562 2.226-1.286 2.226-4.5 2.226-1.157 2.263-5.607 4.452 6.056 2.226-6.572 2.226 4.525 2.262-8.971 2.19-7.763 2.19-.165 2.226-2.343 2.226-3.397 2.226-.673 2.226-5.011 2.262-.554 2.226 6.354 2.227-6.179 2.226-2.316 2.226 7.167 2.262-14.776 2.153-10.093 2.153-.96 2.227-3.79 2.226 6.02 2.226-.386 2.226-12.287 2.262.09 2.226-10.603 2.226-10.003 2.226 4.405 2.227 7.693 2.262-21.756 2.153-16.374 2.153 5.222 2.226 3.48 2.226 16.678 2.226 6.121 2.227-8.476 2.262 11.734 2.226-1.788 2.226-1.275 2.226 2.413 2.226 11.093 2.263-10.717 2.153-14.899 2.153.888 2.226-7.478 2.226-3.827 2.226-8.456 2.226-4.49 2.263 13.128 2.226-.056 2.226 2.299 2.226-1.104 2.226 6.276 2.263-10.093 2.19-10.654 2.189-.385 2.226-.976 2.226 8.644 2.226.663 2.226 5.035 2.263-3.35 2.226 10.96 2.226 4.656 2.226-5.33 2.226 9.809 2.263-11.243 2.153-14.285 2.153-1.772 2.226 12.234 2.226-3.087 2.226.573 2.226 4.866 2.263 1.703 2.226 12.19 2.226-1.83 2.226-1.169 2.226 21.557 2.263-13.885 2.153-.914 2.153-.361 2.226 3.975 2.226 3.223 2.226 2.209 2.226-8.881 2.263-6.168 2.226 9.849 2.226-7.396 2.226 4.76 2.226 19.96 2.262-13.47 2.153-11.681 2.154.27 2.226 3.95 2.226 4.551 2.226 1.026 2.226-14.728 2.262 9.988 2.226-.837 2.227-8.296 2.226-3.408 2.226 18.597 2.262-14.138 2.19-8.47 2.19-9.185 2.225-38.321 2.227 3.71 2.226 9.985 2.226 5.196 2.262 18 2.226 4.341 2.226 6.6 2.226 2.642 2.226 15.14 2.263-20.971 2.153-3.048 2.153-.611 2.226 5.202 2.226 6.054 2.226 1.53 2.227 10.96 2.262-.54 2.226-2.628 2.226 7.626 2.226-.745 2.226 8.644 2.263-9.56 2.153-7.82h0" clip-path="url(#p22176caa23)" style="fill:none;stroke:#ff7f0e;stroke-width:1.5;stroke-linecap:square" id="line2d_36"/><path d="m49.83 318.192 1.715 2.176 4.452.49 2.263-1.33 4.306-.94 2.226-.2 2.226-1.468 4.452-1.122 2.263.155 2.226-.463 2.226-1.514 2.226-1.325 2.226.154 2.263-2.537 2.153-.806 2.153-.042 2.226 1.37 2.226-.935 2.226-1.897 2.226-2.232 2.263.73 2.226 1.162 2.226-2.368 2.226-.254 2.226 1.53 4.416-6.004 2.153-2.92 2.226 2.078 6.678-1.523 2.263-1.136 2.226 1.398 2.226.039 2.226-2.646 2.226 2.674 4.452-8.364 2.19-1.687 2.226-.271 2.226-.15 2.226-2.414 2.226-1.931 2.262-.911 2.226 3.03 2.227-4.937 2.226-3.32 2.226 5.97 2.262-5.874 2.153-6.399 2.153-1.1 2.227-3.938 2.226 2.732 2.226-.292 2.226-5.35 2.262 4.766 2.226-2.016 2.226-8.918 2.226-2.192 2.227 9.502 2.262-9.7 2.153-7.969 2.153-3.21 2.226 1.961 2.226 13.108 2.226.429 2.227-5.168 2.262 5.874 2.226.286 2.226-3.643 2.226-2.209 2.226 6.043 2.263-4.556 2.153-11.204 2.153-2.33 2.226-1.584 2.226 4.408 2.226-6.906 2.226-.874 2.263 7.745 2.226-.81 2.226-8.134 2.226-1.578 2.226 7.55 2.263-4.962 2.19-12.8 2.189.625 2.226-.378 2.226 7.058 2.226-1.532 2.226 3.53 2.263-.456 2.226 1.047 2.226-5.316 2.226-8.054 2.226 11.362 2.263-8.712 2.153-14.704 2.153-5.426 2.226 6.811 2.226-.005 2.226-2.812 2.226-2.487 2.263 3.224 2.226 3.464 2.226-7.017 2.226-4.123 2.226 18.218 2.263-8.993 2.153-13.192 2.153 1.22 2.226 2.74 2.226-.503 2.226 1.655 2.226-15.176 2.263-.063 2.226 8.96 2.226-13.48 2.226-4.504 2.226 22.587 2.262-9.28 2.153-19.74 2.154-5.633 2.226-4.346 2.226 10.157 2.226-3.79 2.226-16.943 2.262 17.088 2.226 2.846 2.227-26.516 2.226-9.966 2.226 29.472 4.452-35.944 2.19-14.303 2.225-53.477 2.227-1.544 2.226 14.48 2.226 16.52 2.262 29.313 2.226 1.563 2.226-3.66 2.226-2.793 2.226 28.734 2.263-25.737 2.153-10.38 2.153-4.78 2.226 8.44 2.226 6.426 2.226 7.132 2.227 14.87 2.262 3.307 2.226 2.305 2.226-2.634 2.226-1.646 2.226 11.087 2.263-7.45h0" clip-path="url(#p22176caa23)" style="fill:none;stroke:#1f77b4;stroke-width:1.5;stroke-linecap:square" id="line2d_37"/></g></g><defs><clipPath id="p22176caa23"><path d="M49.83 57.838h357.12V323.95H49.83z"/></clipPath></defs></svg>