<svg xmlns:xlink="http://www.w3.org/1999/xlink" width="674.509" height="489.243" viewBox="0 0 505.882 366.932" xmlns="http://www.w3.org/2000/svg"><defs><style>*{stroke-linejoin:round;stroke-linecap:butt}</style></defs><g id="figure_1"><path d="M0 366.932h505.882V0H0v366.932z" style="fill:none" id="patch_1"/><g id="axes_1"><path d="M35.745 323.405h357.12V57.293H35.745v266.112z" style="fill:none" id="patch_2"/><g id="matplotlib.axis_1"><g id="xtick_1"><g id="line2d_1"><defs><path id="m6c83baf7aa" d="M0 0v3.5" style="stroke:#b0b0b0;stroke-width:.4"/></defs><use xlink:href="#m6c83baf7aa" x="69.683" y="323.405" style="fill:#b0b0b0;stroke:#b0b0b0;stroke-width:.4"/></g><g style="fill:#b0b0b0" transform="matrix(.14 0 0 -.14 55.32 340.345)" id="text_1"><defs><path id="MyriadPro-Regular-32" d="M2944 0v467H1075v13l333 307c877 845 1434 1466 1434 2234 0 595-378 1209-1274 1209-480 0-890-179-1178-422l180-397c192 160 505 352 883 352 621 0 825-390 825-813-6-627-486-1164-1548-2176L288 346V0h2656z" transform="scale(.01563)"/><path id="MyriadPro-Regular-30" d="M1677 4230c-845 0-1447-768-1447-2163C243 691 794-70 1606-70c922 0 1447 780 1447 2195 0 1325-499 2105-1376 2105zm-32-435c582 0 845-672 845-1696 0-1062-276-1734-852-1734-512 0-844 614-844 1696 0 1133 358 1734 851 1734z" transform="scale(.01563)"/><path id="MyriadPro-Regular-31" d="M1510 0h544v4160h-480l-908-486 108-429 724 390h12V0z" transform="scale(.01563)"/></defs><use xlink:href="#MyriadPro-Regular-32"/><use xlink:href="#MyriadPro-Regular-30" x="51.3"/><use xlink:href="#MyriadPro-Regular-31" x="102.6"/><use xlink:href="#MyriadPro-Regular-30" x="153.9"/></g></g><g id="xtick_2"><use xlink:href="#m6c83baf7aa" x="122.963" y="323.405" style="fill:#b0b0b0;stroke:#b0b0b0;stroke-width:.4" id="line2d_2"/><g style="fill:#b0b0b0" transform="matrix(.14 0 0 -.14 108.6 340.345)" id="text_2"><use xlink:href="#MyriadPro-Regular-32"/><use xlink:href="#MyriadPro-Regular-30" x="51.3"/><use xlink:href="#MyriadPro-Regular-31" x="102.6"/><use xlink:href="#MyriadPro-Regular-32" x="153.9"/></g></g><g id="xtick_3"><use xlink:href="#m6c83baf7aa" x="176.316" y="323.405" style="fill:#b0b0b0;stroke:#b0b0b0;stroke-width:.4" id="line2d_3"/><g style="fill:#b0b0b0" transform="matrix(.14 0 0 -.14 161.952 340.345)" id="text_3"><defs><path id="MyriadPro-Regular-34" d="M2560 0v1133h582v441h-582v2586h-608L96 1504v-371h1933V0h531zM666 1574v13l1017 1415c115 192 218 371 346 614h19c-13-218-19-435-19-653V1574H666z" transform="scale(.01563)"/></defs><use xlink:href="#MyriadPro-Regular-32"/><use xlink:href="#MyriadPro-Regular-30" x="51.3"/><use xlink:href="#MyriadPro-Regular-31" x="102.6"/><use xlink:href="#MyriadPro-Regular-34" x="153.9"/></g></g><g id="xtick_4"><use xlink:href="#m6c83baf7aa" x="229.595" y="323.405" style="fill:#b0b0b0;stroke:#b0b0b0;stroke-width:.4" id="line2d_4"/><g style="fill:#b0b0b0" transform="matrix(.14 0 0 -.14 215.232 340.345)" id="text_4"><defs><path id="MyriadPro-Regular-36" d="M2662 4224c-102 0-243-6-409-32-525-64-986-275-1331-614-410-410-704-1056-704-1876C218 621 800-70 1690-70c864 0 1382 704 1382 1465 0 813-518 1344-1254 1344-461 0-807-217-1005-480h-19c96 685 563 1331 1446 1479 160 25 307 32 422 25v461zM1690 365c-589 0-903 505-916 1190 0 103 26 186 64 250 154 301 468 512 807 512 518 0 857-359 857-954s-326-998-806-998h-6z" transform="scale(.01563)"/></defs><use xlink:href="#MyriadPro-Regular-32"/><use xlink:href="#MyriadPro-Regular-30" x="51.3"/><use xlink:href="#MyriadPro-Regular-31" x="102.6"/><use xlink:href="#MyriadPro-Regular-36" x="153.9"/></g></g><g id="xtick_5"><use xlink:href="#m6c83baf7aa" x="282.948" y="323.405" style="fill:#b0b0b0;stroke:#b0b0b0;stroke-width:.4" id="line2d_5"/><g style="fill:#b0b0b0" transform="matrix(.14 0 0 -.14 268.585 340.345)" id="text_5"><defs><path id="MyriadPro-Regular-38" d="M1062 2170c-512-218-825-589-825-1114C237 448 762-70 1632-70c794 0 1414 486 1414 1209 0 506-320 871-838 1075v20c512 243 685 620 685 972 0 519-403 1024-1210 1024-729 0-1286-448-1286-1107 0-358 198-717 659-934l6-19zm583-1831c-531 0-851 371-832 794 0 397 262 717 749 857 563-160 915-403 915-908 0-423-327-743-832-743zm6 3488c506 0 704-345 704-678 0-378-275-634-633-755-480 128-794 352-794 768 0 358 256 665 723 665z" transform="scale(.01563)"/></defs><use xlink:href="#MyriadPro-Regular-32"/><use xlink:href="#MyriadPro-Regular-30" x="51.3"/><use xlink:href="#MyriadPro-Regular-31" x="102.6"/><use xlink:href="#MyriadPro-Regular-38" x="153.9"/></g></g><g id="xtick_6"><use xlink:href="#m6c83baf7aa" x="336.228" y="323.405" style="fill:#b0b0b0;stroke:#b0b0b0;stroke-width:.4" id="line2d_6"/><g style="fill:#b0b0b0" transform="matrix(.14 0 0 -.14 321.865 340.345)" id="text_6"><use xlink:href="#MyriadPro-Regular-32"/><use xlink:href="#MyriadPro-Regular-30" x="51.3"/><use xlink:href="#MyriadPro-Regular-32" x="102.6"/><use xlink:href="#MyriadPro-Regular-30" x="153.9"/></g></g><g id="xtick_7"><use xlink:href="#m6c83baf7aa" x="389.58" y="323.405" style="fill:#b0b0b0;stroke:#b0b0b0;stroke-width:.4" id="line2d_7"/><g style="fill:#b0b0b0" transform="matrix(.14 0 0 -.14 375.217 340.345)" id="text_7"><use xlink:href="#MyriadPro-Regular-32"/><use xlink:href="#MyriadPro-Regular-30" x="51.3"/><use xlink:href="#MyriadPro-Regular-32" x="102.6"/><use xlink:href="#MyriadPro-Regular-32" x="153.9"/></g></g></g><g id="matplotlib.axis_2"><g id="ytick_1"><path d="M35.745 323.405h357.12" clip-path="url(#p5a80129fa6)" style="fill:none;stroke:#b0b0b0;stroke-width:.3;stroke-linecap:square" id="line2d_8"/><g id="line2d_9"><defs><path id="m97a0196b1d" d="M0 0h-3.5" style="stroke:#b0b0b0;stroke-width:.3"/></defs><use xlink:href="#m97a0196b1d" x="35.745" y="323.405" style="fill:#b0b0b0;stroke:#b0b0b0;stroke-width:.3"/></g><use xlink:href="#MyriadPro-Regular-30" style="fill:#b0b0b0" transform="matrix(.14 0 0 -.14 21.563 328.375)" id="text_8"/></g><g id="ytick_2"><path d="M35.745 280.952h357.12" clip-path="url(#p5a80129fa6)" style="fill:none;stroke:#b0b0b0;stroke-width:.3;stroke-linecap:square" id="line2d_10"/><use xlink:href="#m97a0196b1d" x="35.745" y="280.952" style="fill:#b0b0b0;stroke:#b0b0b0;stroke-width:.3" id="line2d_11"/><g style="fill:#b0b0b0" transform="matrix(.14 0 0 -.14 14.382 285.922)" id="text_9"><use xlink:href="#MyriadPro-Regular-32"/><use xlink:href="#MyriadPro-Regular-30" x="51.3"/></g></g><g id="ytick_3"><path d="M35.745 238.498h357.12" clip-path="url(#p5a80129fa6)" style="fill:none;stroke:#b0b0b0;stroke-width:.3;stroke-linecap:square" id="line2d_12"/><use xlink:href="#m97a0196b1d" x="35.745" y="238.498" style="fill:#b0b0b0;stroke:#b0b0b0;stroke-width:.3" id="line2d_13"/><g style="fill:#b0b0b0" transform="matrix(.14 0 0 -.14 14.382 243.468)" id="text_10"><use xlink:href="#MyriadPro-Regular-34"/><use xlink:href="#MyriadPro-Regular-30" x="51.3"/></g></g><g id="ytick_4"><path d="M35.745 196.045h357.12" clip-path="url(#p5a80129fa6)" style="fill:none;stroke:#b0b0b0;stroke-width:.3;stroke-linecap:square" id="line2d_14"/><use xlink:href="#m97a0196b1d" x="35.745" y="196.045" style="fill:#b0b0b0;stroke:#b0b0b0;stroke-width:.3" id="line2d_15"/><g style="fill:#b0b0b0" transform="matrix(.14 0 0 -.14 14.382 201.015)" id="text_11"><use xlink:href="#MyriadPro-Regular-36"/><use xlink:href="#MyriadPro-Regular-30" x="51.3"/></g></g><g id="ytick_5"><path d="M35.745 153.592h357.12" clip-path="url(#p5a80129fa6)" style="fill:none;stroke:#b0b0b0;stroke-width:.3;stroke-linecap:square" id="line2d_16"/><use xlink:href="#m97a0196b1d" x="35.745" y="153.592" style="fill:#b0b0b0;stroke:#b0b0b0;stroke-width:.3" id="line2d_17"/><g style="fill:#b0b0b0" transform="matrix(.14 0 0 -.14 14.382 158.562)" id="text_12"><use xlink:href="#MyriadPro-Regular-38"/><use xlink:href="#MyriadPro-Regular-30" x="51.3"/></g></g><g id="ytick_6"><path d="M35.745 111.138h357.12" clip-path="url(#p5a80129fa6)" style="fill:none;stroke:#b0b0b0;stroke-width:.3;stroke-linecap:square" id="line2d_18"/><use xlink:href="#m97a0196b1d" x="35.745" y="111.138" style="fill:#b0b0b0;stroke:#b0b0b0;stroke-width:.3" id="line2d_19"/><g style="fill:#b0b0b0" transform="matrix(.14 0 0 -.14 7.2 116.108)" id="text_13"><use xlink:href="#MyriadPro-Regular-31"/><use xlink:href="#MyriadPro-Regular-30" x="51.3"/><use xlink:href="#MyriadPro-Regular-30" x="102.6"/></g></g><g id="ytick_7"><path d="M35.745 68.685h357.12" clip-path="url(#p5a80129fa6)" style="fill:none;stroke:#b0b0b0;stroke-width:.3;stroke-linecap:square" id="line2d_20"/><use xlink:href="#m97a0196b1d" x="35.745" y="68.685" style="fill:#b0b0b0;stroke:#b0b0b0;stroke-width:.3" id="line2d_21"/><g style="fill:#b0b0b0" transform="matrix(.14 0 0 -.14 7.2 73.655)" id="text_14"><use xlink:href="#MyriadPro-Regular-31"/><use xlink:href="#MyriadPro-Regular-32" x="51.3"/><use xlink:href="#MyriadPro-Regular-30" x="102.6"/></g></g></g><path d="m35.745 323.272 3.94.062 6.643-.08 2.151-.191 2.228.2 2.226-.132 2.226-.009 2.226.283 2.263-.41 2.226-.014 2.227.287 6.713-.685 2.153.14 2.152.271 2.228.057 2.226-.468 4.452-.068 2.262-.137 2.226.673 2.228-.604 2.225-.174 2.226.379 2.262.137 2.153-.37 2.152.096 2.228.324 2.226-.735 6.714.616 2.226-.376 2.228.513 2.224-.442 2.227.58 2.262-.685 2.19.29 2.188-.085 2.227-.737 2.226 1.01 2.226-.515 2.227.037 2.262-.274 2.226.45 2.228.029 2.224-.242 2.226-.854 2.263.685 2.153-.367 2.152.573 4.453-.822 2.226.502 2.226-.023 2.263-.137 2.226.655 2.228.235 2.224-1.013 2.226.397 2.263-.137 2.153.301 2.151-.575 2.228-.128 2.226-.009 2.226.151 2.226-.698 2.263-.069 2.226.909 4.452.353 2.226-.166 2.263.068 2.153-.897 2.151.075 2.228-.141 2.226.758 2.226-.121 2.226-.906 2.263.684 2.226.222 2.227-.222 2.225-.627 4.489.559 2.19-.206 2.187-.41 2.228.269 2.226.073 2.226.351 2.226-.556 2.263.205 2.226.705 2.227-1.527 2.225.749 2.226-.132 2.262.547 2.153.03 2.152-.304 2.228-.141 2.226-1.365 2.226 1.294 2.226-.952 2.262.206 2.226 1.03 2.228-.55 2.225-.088 2.226.566 4.415-.833 2.152.149 2.227-.872 2.227.255 2.226.382 2.226.235h2.262l2.226.33 2.228-.399 2.224.187 2.226.635 4.416-1.433 2.152-.005 2.227 1.582 2.226-.281 2.226-.498 2.227-.666 2.262-.342 2.226.938 2.228-.733 2.224-.329 2.226.74 2.263-.753 4.378.137 2.227-1.539 2.226-.995 2.226 1.42 2.226-.256 2.263-.685 2.226 1.86 2.228-1.106 2.224.753 2.226.342 2.263.48 2.153-1.732 2.151-.049 2.228 1.737 2.226-1.052 2.226.77 2.226-.496 2.263.068 2.226.78 2.227.11 2.225-.463 2.226.053 2.263.205 2.153-.677h0" clip-path="url(#p5a80129fa6)" style="fill:none;stroke:#8c564b;stroke-width:1.5;stroke-linecap:square" id="line2d_22"/><path d="m35.745 323.272 1.716.133 2.225-.212 4.489-.13 2.153.115 2.151-.115 2.228.13 2.226.007 4.452-.343 2.263.206 2.226-.295 2.227.295 4.45-.343h2.263l2.153.382 2.152-.655 2.228.675 4.452-.778 2.226.376 2.262-.342 2.226.461 2.228-.324 2.225-.171 2.226.513 2.262-.753 4.305.137 2.228-.11 2.226-.37 2.226-.125 2.226.947 2.262-1.232 2.226.922 2.228-.785 2.224.148 2.227-.285 2.262.548 2.19-.763 2.188 1.31 2.227-.88 2.226-.215 4.453-.069 2.262.069 2.226-.422 2.228.833 4.45-.685 2.263.616 2.153-.259 2.152-.015 2.227.217 2.226-.422 2.226-.144 2.226-.267 2.263.48 4.454-.48 2.224.055 2.226 1.04 2.263-1.3 2.153.305 2.151.516 2.228-.986 2.226.85 2.226-.496 2.226.359 2.263-.617 2.226.683 2.227.276 2.225-1.055 2.226 1.192 2.263-.959 2.153.92 2.151-.851 2.228.052 2.226-.12 2.226-1.295 2.226.473 2.263-.069 2.226.657 2.227 1.055 2.225-.772 2.226-.118 2.263.274 2.19-.468 2.187-.08 2.228-1.164 2.226.48 2.226.086 2.226-1.046 2.263.96 2.226.298 2.227-.436 2.225-.625 2.226 1.036 2.262-.616 4.305.274 2.228-.907 2.226-.189 2.226.826 4.488-.141 2.226.212 2.228.404 2.225-.9 2.226.215 2.262.411 2.153-.342 2.152 1.027 2.227-2.16 2.227 2.57 2.226-.73 2.226-2.214 2.262.685 2.226 1.6 2.228-1.463 2.224.897 4.49 1.02 2.152-.322 2.152-1.116 2.227.135 2.226-.066 2.226.42 2.227-.626 2.262-1.095 2.226 2.075 2.228-2.007 4.45.754 2.263.273 4.378-.821 2.227.315 2.226-1 2.226.08 2.226-.696 2.263.616 2.226.434 2.228-.64 2.224.852 2.226-.03 4.416-1.117 2.151 1.117 2.228-.253 2.226 1.828 2.226-1.05 2.226-.25 2.263.82 2.226-1.985 2.227-.41 2.225 1.967 2.226.155 2.263-.137 2.153-.59h0" clip-path="url(#p5a80129fa6)" style="fill:none;stroke:#9467bd;stroke-width:1.5;stroke-linecap:square" id="line2d_23"/><path d="m35.745 323.272 1.716-.346 2.225.338 6.642-.39 2.151.394 4.454-.342 4.452.274 2.263-.343 2.226.194 2.227-.262 6.713.068 2.153-.816 2.152.2 2.228.457 2.226-.32 2.226.107 2.226-.45 2.262.07 2.226.31 2.228-1.27 2.225.067 2.226 1.235 2.262-.069 2.153-1.93 2.152 1.177 2.228.153 2.226-.564 2.226-.073 2.226.278 2.262-.41 2.226.627 2.228.4 2.224-.612 2.227-.073 2.262-.959 2.19.67 2.188-.396 2.227.687 2.226-.687 2.226.192 2.227-.397 2.262.342 2.226.055 2.228.219 2.224-.856 2.226.514 2.263-.274 2.153-.619 2.152 1.714 2.227-.415 4.452.637 2.226-1.043 2.263-.548 2.226.459 2.228.636 2.224-.283 2.226.42 2.263-1.37 2.153.703 2.151.051 2.228-1.219 2.226.124 2.226.372 2.226-.92 2.263 1.027 2.226-.532 2.227.121 2.225.516 2.226.306 2.263-1.164 2.153.711 2.151-1.396 2.228.977 2.226-1.046 2.226-1.29 2.226 1.975h2.263l4.453-1.027 2.225.114 4.489-.388 2.19.583 2.187-.583 2.228-.815 2.226 1.02 2.226-.524 2.226.045 2.263-.479 2.226.787 2.227 1.541 2.225-.691 2.226.623 2.262-.754 2.153-1.325 2.152.846 2.228 2.095 4.452-2.052 2.226.573 2.262-1.917 2.226 2.194 2.228-2.536 2.225.837 6.641-1.329 2.152.218 2.227-.091 2.227-.388 2.226-.815 2.226-.35 2.262 1.575 2.226 1.959 2.228-2.438 2.224.598 2.226-.119 2.263-1.985 2.153 1.306 2.152-.074 2.227 1.509 2.226-.824 2.226-.591 2.227-.915 2.262-2.808 2.226.114 2.228-1.141 2.224.292 2.226 2.31 2.263-.753 2.19-1.977 2.188.402 2.227-3.378 2.226-.936 2.226.44 2.226-.508 2.263.821 2.226 1.103 2.228-2.13 2.224 3.97 2.226-.067 2.263-1.232 2.153-2.876 2.151-.959 2.228 1.03 2.226 1.23 2.226-2.292 2.226 3.045 2.263.068 2.226.779 2.227-.025 2.225-1.107 2.226 1.654 2.263-2.67 2.153-.753h0" clip-path="url(#p5a80129fa6)" style="fill:none;stroke:#d62728;stroke-width:1.5;stroke-linecap:square" id="line2d_24"/><g style="fill:#1f77b4" transform="matrix(.14 0 0 -.14 403.578 143.955)" id="text_15"><defs><path id="MyriadPro-Regular-6a" d="M-230-1350c300 0 710 102 960 352 275 281 371 672 371 1273v2823H538V493c0-743-58-992-212-1165C192-819-32-890-288-909l58-441zM826 4320c-212 0-359-154-359-352 0-186 135-346 346-346 224 0 358 160 352 346 0 198-135 352-339 352z" transform="scale(.01563)"/><path id="MyriadPro-Regular-73" d="M250 147C467 19 781-70 1120-70c736 0 1158 390 1158 934 0 461-275 730-812 934-404 154-589 269-589 525 0 231 185 423 518 423 288 0 512-103 634-180l141 410c-173 102-448 192-762 192-666 0-1069-410-1069-909 0-371 263-678 819-877 416-153 576-300 576-569 0-256-192-461-601-461-282 0-576 115-743 224L250 147z" transform="scale(.01563)"/><path id="MyriadPro-Regular-6f" d="M1779 3168c-857 0-1536-608-1536-1645C243 544 890-70 1728-70c749 0 1542 499 1542 1644 0 948-601 1594-1491 1594zm-13-422c666 0 928-666 928-1191 0-697-403-1203-940-1203-551 0-941 512-941 1190 0 589 288 1204 953 1204z" transform="scale(.01563)"/><path id="MyriadPro-Regular-6e" d="M467 0h563v1862c0 96 13 192 39 263 96 313 384 576 755 576 531 0 717-416 717-915V0h563v1850c0 1062-666 1318-1094 1318-512 0-871-288-1024-582h-13l-32 512H442c19-256 25-519 25-839V0z" transform="scale(.01563)"/></defs><use xlink:href="#MyriadPro-Regular-6a"/><use xlink:href="#MyriadPro-Regular-73" x="24.3"/><use xlink:href="#MyriadPro-Regular-6f" x="63.9"/><use xlink:href="#MyriadPro-Regular-6e" x="118.8"/></g><g style="fill:#ff7f0e" transform="matrix(.14 0 0 -.14 403.578 265.748)" id="text_16"><defs><path id="MyriadPro-Regular-78" d="m102 3098 1050-1517L51 0h621l448 698c115 185 224 345 326 537h13c109-185 211-358 333-537L2246 0h640L1798 1600l1056 1498h-608l-435-660c-102-166-205-326-307-512h-19c-103 173-199 333-314 506l-441 666H102z" transform="scale(.01563)"/><path id="MyriadPro-Regular-6d" d="M467 0h551v1869c0 96 12 192 44 275 90 282 346 563 698 563 429 0 646-358 646-851V0h551v1914c0 102 19 204 45 281 96 275 345 512 665 512 455 0 672-358 672-953V0h551v1824c0 1075-608 1344-1018 1344-294 0-499-77-685-218-128-96-249-230-345-403h-13c-135 365-455 621-877 621-512 0-800-275-973-570h-19l-26 500H442c19-256 25-519 25-839V0z" transform="scale(.01563)"/><path id="MyriadPro-Regular-6c" d="M467 0h563v4544H467V0z" transform="scale(.01563)"/></defs><use xlink:href="#MyriadPro-Regular-78"/><use xlink:href="#MyriadPro-Regular-6d" x="46.3"/><use xlink:href="#MyriadPro-Regular-6c" x="129.7"/></g><g style="fill:#2ca02c" transform="matrix(.14 0 0 -.14 403.578 279.748)" id="text_17"><defs><path id="MyriadPro-Regular-63" d="M2579 538c-160-71-371-154-691-154-614 0-1075 442-1075 1158 0 647 384 1172 1094 1172 307 0 519-71 653-148l128 436c-154 76-448 160-781 160-1011 0-1664-692-1664-1645C243 570 851-70 1786-70c416 0 742 108 889 185l-96 423z" transform="scale(.01563)"/><path id="MyriadPro-Regular-76" d="M83 3098 1261 0h537l1216 3098h-588l-602-1741c-102-282-192-538-262-794h-20c-64 256-147 512-249 794L685 3098H83z" transform="scale(.01563)"/></defs><use xlink:href="#MyriadPro-Regular-63"/><use xlink:href="#MyriadPro-Regular-73" x="44.8"/><use xlink:href="#MyriadPro-Regular-76" x="84.4"/></g><g style="fill:#d62728" transform="matrix(.14 0 0 -.14 403.578 303.984)" id="text_18"><defs><path id="MyriadPro-Regular-79" d="M58 3098 1203 243c26-70 39-115 39-147s-20-77-45-134c-128-288-320-506-474-628-166-140-352-230-493-275l141-473c141 25 416 121 691 364 384 333 660 877 1063 1940l845 2208h-596l-614-1818c-77-224-141-461-198-646h-13c-51 185-128 428-199 633L672 3098H58z" transform="scale(.01563)"/><path id="MyriadPro-Regular-61" d="M2643 1901c0 621-230 1267-1177 1267-391 0-762-109-1018-275l128-371c218 140 518 230 806 230 634 0 704-461 704-717v-64C890 1978 224 1568 224 819c0-448 320-889 947-889 442 0 775 217 947 460h20l44-390h512c-38 211-51 474-51 742v1159zm-544-858c0-57-13-121-32-179-89-262-345-518-749-518-288 0-531 172-531 537 0 602 698 711 1312 698v-538z" transform="scale(.01563)"/></defs><use xlink:href="#MyriadPro-Regular-79"/><use xlink:href="#MyriadPro-Regular-61" x="47.1"/><use xlink:href="#MyriadPro-Regular-6d" x="95.3"/><use xlink:href="#MyriadPro-Regular-6c" x="178.7"/></g><g style="fill:#9467bd" transform="matrix(.14 0 0 -.14 403.578 318.221)" id="text_19"><defs><path id="MyriadPro-Regular-70" d="M467-1267h557V416h13c185-307 544-486 953-486 730 0 1408 550 1408 1664 0 940-563 1574-1312 1574-505 0-870-224-1100-602h-13l-26 532H442c12-295 25-615 25-1012v-3353zm557 3059c0 77 19 160 38 230 109 423 468 698 852 698 595 0 921-531 921-1152 0-710-345-1197-941-1197-403 0-742 269-844 659-13 71-26 148-26 231v531z" transform="scale(.01563)"/><path id="MyriadPro-Regular-72" d="M467 0h557v1651c0 96 13 186 26 263 76 422 358 723 755 723 77 0 134-7 192-19v531c-51 13-96 19-160 19-378 0-717-262-858-678h-25l-20 608H442c19-288 25-602 25-967V0z" transform="scale(.01563)"/><path id="MyriadPro-Regular-74" d="M595 3667v-569H115v-429h480V979c0-365 58-640 218-806C947 19 1158-70 1421-70c217 0 390 38 499 83l-26 422c-83-25-172-38-326-38-314 0-422 217-422 601v1671h806v429h-806v742l-551-173z" transform="scale(.01563)"/><path id="MyriadPro-Regular-2d" d="M192 1939v-416h1581v416H192z" transform="scale(.01563)"/><path id="MyriadPro-Regular-62" d="M467 800c0-275-13-589-25-800h486l26 512h19c230-410 589-582 1037-582 691 0 1388 550 1388 1657 7 941-537 1581-1305 1581-499 0-858-224-1056-570h-13v1946H467V800zm557 998c0 90 19 167 32 231 115 429 474 691 858 691 601 0 921-531 921-1152 0-710-352-1190-941-1190-409 0-736 268-844 659-13 64-26 134-26 205v556z" transform="scale(.01563)"/><path id="MyriadPro-Regular-75" d="M3059 3098h-563V1197c0-103-19-205-51-288-103-250-365-512-743-512-512 0-691 397-691 985v1716H448V1286C448 198 1030-70 1517-70c550 0 877 326 1024 576h13l32-506h499c-19 243-26 525-26 845v2253z" transform="scale(.01563)"/><path id="MyriadPro-Regular-66" d="M1082 0v2669h748v429h-748v166c0 474 121 896 601 896 160 0 275-32 359-70l76 435c-108 45-281 89-480 89-262 0-544-83-755-288-262-249-358-646-358-1081v-147H90v-429h435V0h557z" transform="scale(.01563)"/><path id="MyriadPro-Regular-65" d="M2957 1446c6 58 19 148 19 263 0 569-269 1459-1280 1459-902 0-1453-736-1453-1670C243 563 813-70 1766-70c493 0 832 108 1031 198l-96 403c-211-89-455-160-858-160-563 0-1049 314-1062 1075h2176zM787 1850c45 390 295 915 864 915 634 0 787-557 781-915H787z" transform="scale(.01563)"/></defs><use xlink:href="#MyriadPro-Regular-70"/><use xlink:href="#MyriadPro-Regular-72" x="56.9"/><use xlink:href="#MyriadPro-Regular-6f" x="89.6"/><use xlink:href="#MyriadPro-Regular-74" x="144.5"/><use xlink:href="#MyriadPro-Regular-6f" x="177.6"/><use xlink:href="#MyriadPro-Regular-63" x="232.5"/><use xlink:href="#MyriadPro-Regular-6f" x="277.3"/><use xlink:href="#MyriadPro-Regular-6c" x="332.2"/><use xlink:href="#MyriadPro-Regular-2d" x="355.8"/><use xlink:href="#MyriadPro-Regular-62" x="386.5"/><use xlink:href="#MyriadPro-Regular-75" x="443.4"/><use xlink:href="#MyriadPro-Regular-66" x="498.5"/><use xlink:href="#MyriadPro-Regular-66" x="527.7"/><use xlink:href="#MyriadPro-Regular-65" x="556.9"/><use xlink:href="#MyriadPro-Regular-72" x="607"/><use xlink:href="#MyriadPro-Regular-73" x="639.7"/></g><g style="fill:#8c564b" transform="matrix(.14 0 0 -.14 403.578 332.145)" id="text_20"><defs><path id="MyriadPro-Regular-69" d="M1030 0v3098H467V0h563zM749 4320c-205 0-352-154-352-352 0-192 141-346 339-346 224 0 365 154 358 346 0 198-134 352-345 352z" transform="scale(.01563)"/><path id="MyriadPro-Regular-6b" d="M1024 4544H467V0h557v1165l288 320L2381 0h685L1702 1824l1197 1274h-678l-909-1069c-90-109-198-243-275-352h-13v2867z" transform="scale(.01563)"/></defs><use xlink:href="#MyriadPro-Regular-70"/><use xlink:href="#MyriadPro-Regular-69" x="56.9"/><use xlink:href="#MyriadPro-Regular-63" x="80.3"/><use xlink:href="#MyriadPro-Regular-6b" x="125.1"/><use xlink:href="#MyriadPro-Regular-6c" x="172"/><use xlink:href="#MyriadPro-Regular-65" x="195.6"/></g><g style="fill:#b0b0b0" transform="matrix(.09716 0 0 -.09716 35.745 357.303)" id="text_21"><defs><path id="MyriadPro-Regular-40" d="M2867 1632c-70-397-409-870-781-870-281 0-422 204-422 486 0 621 454 1152 1018 1152 147 0 256-26 320-45l-135-723zm384-1773c-262-147-601-224-966-224-947 0-1645 666-1645 1735 0 1299 877 2131 1920 2131 992 0 1549-672 1549-1600 0-743-365-1178-691-1171-212 6-288 230-192 716l217 1159c-166 77-409 134-685 134-889 0-1516-723-1516-1517 0-505 320-806 691-806 384 0 678 186 902 563h26c-19-390 217-563 473-563 602 0 1140 563 1140 1523 0 1069-749 1856-1863 1856-1421 0-2336-1145-2336-2464C275 96 1165-672 2214-672c429 0 788 70 1140 256l-103 275z" transform="scale(.01563)"/><path id="MyriadPro-Regular-68" d="M467 0h563v1869c0 109 7 192 39 269 102 307 390 563 755 563 531 0 717-423 717-922V0h563v1843c0 1069-666 1325-1082 1325-211 0-409-64-576-160-172-96-313-237-403-397h-13v1933H467V0z" transform="scale(.01563)"/><path id="MyriadPro-Regular-2f" d="m422-256 1792 4640h-435L-6-256h428z" transform="scale(.01563)"/><path id="MyriadPro-Regular-64" d="M2579 4544V2694h-13c-140 250-460 474-934 474-755 0-1395-634-1389-1664C243 563 819-70 1568-70c506 0 883 262 1056 608h13l25-538h506c-19 211-26 525-26 800v3744h-563zm0-3245c0-89-6-166-25-243-103-422-448-672-826-672-608 0-915 518-915 1146 0 684 345 1196 928 1196 422 0 729-294 813-652 19-71 25-167 25-237v-538z" transform="scale(.01563)"/><path id="MyriadPro-Regular-7c" d="M550 4800v-6400h429v6400H550z" transform="scale(.01563)"/><path id="MyriadPro-Regular-4e" d="M1011 0v1843c0 717-13 1235-45 1779l20 7c217-467 505-960 806-1440L3162 0h563v4314h-525V2509c0-672 13-1197 64-1773l-13-6c-205 441-454 896-774 1401L1094 4314H486V0h525z" transform="scale(.01563)"/><path id="MyriadPro-Regular-53" d="M269 211C499 58 954-70 1370-70c1017 0 1510 582 1510 1248 0 633-371 985-1101 1267-595 230-857 429-857 832 0 294 224 646 812 646 391 0 679-128 820-205l153 455c-192 109-512 211-953 211-839 0-1396-499-1396-1171 0-608 436-973 1140-1223 582-224 812-454 812-857 0-435-332-736-902-736-384 0-749 128-998 281L269 211z" transform="scale(.01563)"/><path id="MyriadPro-Regular-f6" d="M1165 3648c185 0 313 154 313 326 0 186-134 327-313 327s-327-147-327-327c0-172 135-326 320-326h7zm1184 0c185 0 313 154 313 326 0 186-134 327-313 327s-320-147-320-327c0-172 128-326 313-326h7zm-570-480c-857 0-1536-608-1536-1645C243 544 890-70 1728-70c749 0 1542 499 1542 1644 0 948-601 1594-1491 1594zm-13-422c666 0 928-666 928-1191 0-697-403-1203-940-1203-551 0-941 512-941 1190 0 589 288 1204 953 1204z" transform="scale(.01563)"/><path id="MyriadPro-Regular-43" d="M3386 582c-224-108-570-179-909-179-1050 0-1658 679-1658 1735 0 1132 672 1779 1683 1779 359 0 660-77 871-179l134 454c-147 77-486 192-1024 192-1337 0-2253-915-2253-2266C230 704 1146-70 2362-70c524 0 934 108 1139 211l-115 441z" transform="scale(.01563)"/><path id="MyriadPro-Regular-42" d="M486 13c186-26 480-51 864-51 704 0 1191 128 1492 403 217 211 364 493 364 864 0 640-480 979-889 1081v13c454 167 729 531 729 947 0 340-134 596-358 762-269 218-627 314-1184 314-390 0-774-39-1018-90V13zm557 3865c90 20 237 39 493 39 563 0 947-199 947-704 0-416-345-723-934-723h-506v1388zm0-1811h461c608 0 1114-243 1114-832 0-627-532-838-1108-838-198 0-358 6-467 25v1645z" transform="scale(.01563)"/><path id="MyriadPro-Regular-59" d="M2010 0v1837l1446 2477h-634l-620-1191c-167-326-314-608-436-889h-12c-135 300-263 563-429 889L717 4314H83l1363-2484V0h564z" transform="scale(.01563)"/></defs><use xlink:href="#MyriadPro-Regular-40"/><use xlink:href="#MyriadPro-Regular-6e" x="73.7"/><use xlink:href="#MyriadPro-Regular-73" x="129.2"/><use xlink:href="#MyriadPro-Regular-63" x="168.8"/><use xlink:href="#MyriadPro-Regular-68" x="213.6"/><use xlink:href="#MyriadPro-Regular-6c" x="269.1"/><use xlink:href="#MyriadPro-Regular-6f" x="292.7"/><use xlink:href="#MyriadPro-Regular-65" x="347.6"/><use xlink:href="#MyriadPro-Regular-20" x="397.7"/><use xlink:href="#MyriadPro-Regular-2f" x="418.9"/><use xlink:href="#MyriadPro-Regular-20" x="453.2"/><use xlink:href="#MyriadPro-Regular-73" x="474.4"/><use xlink:href="#MyriadPro-Regular-6f" x="514"/><use xlink:href="#MyriadPro-Regular-2d" x="568.9"/><use xlink:href="#MyriadPro-Regular-74" x="599.6"/><use xlink:href="#MyriadPro-Regular-72" x="632.7"/><use xlink:href="#MyriadPro-Regular-65" x="665.4"/><use xlink:href="#MyriadPro-Regular-6e" x="715.5"/><use xlink:href="#MyriadPro-Regular-64" x="771"/><use xlink:href="#MyriadPro-Regular-73" x="827.4"/><use xlink:href="#MyriadPro-Regular-20" x="867"/><use xlink:href="#MyriadPro-Regular-7c" x="888.2"/><use xlink:href="#MyriadPro-Regular-20" x="912.1"/><use xlink:href="#MyriadPro-Regular-4e" x="933.3"/><use xlink:href="#MyriadPro-Regular-69" x="999.1"/><use xlink:href="#MyriadPro-Regular-63" x="1022.5"/><use xlink:href="#MyriadPro-Regular-6f" x="1067.3"/><use xlink:href="#MyriadPro-Regular-20" x="1122.2"/><use xlink:href="#MyriadPro-Regular-53" x="1143.4"/><use xlink:href="#MyriadPro-Regular-63" x="1192.7"/><use xlink:href="#MyriadPro-Regular-68" x="1237.5"/><use xlink:href="#MyriadPro-Regular-6c" x="1293"/><use xlink:href="#MyriadPro-Regular-f6" x="1316.6"/><use xlink:href="#MyriadPro-Regular-6d" x="1371.5"/><use xlink:href="#MyriadPro-Regular-65" x="1454.9"/><use xlink:href="#MyriadPro-Regular-72" x="1505"/><use xlink:href="#MyriadPro-Regular-20" x="1537.7"/><use xlink:href="#MyriadPro-Regular-7c" x="1558.9"/><use xlink:href="#MyriadPro-Regular-20" x="1582.8"/><use xlink:href="#MyriadPro-Regular-43" x="1604"/><use xlink:href="#MyriadPro-Regular-43" x="1662"/><use xlink:href="#MyriadPro-Regular-20" x="1720"/><use xlink:href="#MyriadPro-Regular-42" x="1741.2"/><use xlink:href="#MyriadPro-Regular-59" x="1795.4"/></g><g style="fill:#b0b0b0" transform="matrix(.14 0 0 -.14 84.518 17.293)" id="text_22"><defs><path id="MyriadPro-Regular-44" d="M486 13c282-32 615-51 1012-51 838 0 1504 217 1907 620 403 397 621 973 621 1677 0 698-224 1197-608 1549-378 352-948 538-1748 538-441 0-844-39-1184-90V13zm557 3833c147 32 365 58 653 58 1178 0 1754-646 1747-1664 0-1165-646-1830-1837-1830-217 0-422 6-563 32v3404z" transform="scale(.01563)"/><path id="MyriadPro-Regular-71" d="M2579-1267h563v3513c0 320 7 589 20 852h-532l-19-468h-13c-153 301-473 538-953 538-653 0-1402-512-1402-1670C243 557 832-70 1555-70c499 0 845 243 1011 550h13v-1747zm0 2528c0-83-19-192-45-269-128-390-441-614-806-614-621 0-915 537-915 1152 0 697 352 1190 934 1190 423 0 723-294 807-640 19-70 25-160 25-237v-582z" transform="scale(.01563)"/><path id="MyriadPro-Regular-4f" d="M2234 4384c-1152 0-2004-896-2004-2266C230 813 1030-70 2170-70c1100 0 2003 787 2003 2272 0 1280-762 2182-1939 2182zm-26-454c928 0 1376-896 1376-1754 0-979-499-1792-1382-1792-877 0-1376 826-1376 1747 0 947 460 1799 1382 1799z" transform="scale(.01563)"/><path id="MyriadPro-Regular-77" d="M115 3098 1050 0h512l499 1472c109 333 205 653 281 1024h13c77-365 167-672 275-1018L3104 0h512l998 3098h-556l-442-1556c-102-364-186-691-237-1004h-19c-70 313-160 640-275 1011l-480 1549h-474l-505-1575c-103-339-205-672-276-985h-19c-57 320-141 640-230 985L691 3098H115z" transform="scale(.01563)"/></defs><use xlink:href="#MyriadPro-Regular-44"/><use xlink:href="#MyriadPro-Regular-61" x="66.6"/><use xlink:href="#MyriadPro-Regular-69" x="114.8"/><use xlink:href="#MyriadPro-Regular-6c" x="138.2"/><use xlink:href="#MyriadPro-Regular-79" x="161.8"/><use xlink:href="#MyriadPro-Regular-20" x="208.9"/><use xlink:href="#MyriadPro-Regular-6e" x="230.1"/><use xlink:href="#MyriadPro-Regular-75" x="285.6"/><use xlink:href="#MyriadPro-Regular-6d" x="340.7"/><use xlink:href="#MyriadPro-Regular-62" x="424.1"/><use xlink:href="#MyriadPro-Regular-65" x="481"/><use xlink:href="#MyriadPro-Regular-72" x="531.1"/><use xlink:href="#MyriadPro-Regular-20" x="563.8"/><use xlink:href="#MyriadPro-Regular-6f" x="585"/><use xlink:href="#MyriadPro-Regular-66" x="639.9"/><use xlink:href="#MyriadPro-Regular-20" x="669.1"/><use xlink:href="#MyriadPro-Regular-71" x="690.3"/><use xlink:href="#MyriadPro-Regular-75" x="746.6"/><use xlink:href="#MyriadPro-Regular-65" x="801.7"/><use xlink:href="#MyriadPro-Regular-73" x="851.8"/><use xlink:href="#MyriadPro-Regular-74" x="891.4"/><use xlink:href="#MyriadPro-Regular-69" x="924.5"/><use xlink:href="#MyriadPro-Regular-6f" x="947.9"/><use xlink:href="#MyriadPro-Regular-6e" x="1002.8"/><use xlink:href="#MyriadPro-Regular-73" x="1058.3"/><use xlink:href="#MyriadPro-Regular-20" x="1097.9"/><use xlink:href="#MyriadPro-Regular-6f" x="1119.1"/><use xlink:href="#MyriadPro-Regular-6e" x="1174"/><use xlink:href="#MyriadPro-Regular-20" x="1229.5"/><use xlink:href="#MyriadPro-Regular-53" x="1250.7"/><use xlink:href="#MyriadPro-Regular-74" x="1300"/><use xlink:href="#MyriadPro-Regular-61" x="1333.1"/><use xlink:href="#MyriadPro-Regular-63" x="1381.3"/><use xlink:href="#MyriadPro-Regular-6b" x="1426.1"/><use xlink:href="#MyriadPro-Regular-4f" x="1473"/><use xlink:href="#MyriadPro-Regular-76" x="1541.9"/><use xlink:href="#MyriadPro-Regular-65" x="1590"/><use xlink:href="#MyriadPro-Regular-72" x="1640.1"/><use xlink:href="#MyriadPro-Regular-66" x="1672.8"/><use xlink:href="#MyriadPro-Regular-6c" x="1702"/><use xlink:href="#MyriadPro-Regular-6f" x="1725.6"/><use xlink:href="#MyriadPro-Regular-77" x="1780.5"/></g><path d="m35.745 321.282 1.716.274 2.225.646 2.226-.098 2.263-.342 2.153.127 2.151-.059 2.228-.972 2.226.356 2.226-.427 2.226-.669 2.263.274 2.226-.17 2.227-.309 2.225-1.32 2.226 1.525 2.262-.068 2.153-1.497 2.152-.763 2.228 1.37 2.226-1.575 2.226-1.043 2.226-1.901 2.262 2.602 2.226.502 2.228-.434 2.225-1.194 2.226.989 2.262-4.314 2.153.91 2.152-1.526 2.228.97 2.226-1.313 2.226 1.1 2.226-2.058 2.262.205 2.226 1.995 2.228-2.337 2.224-.21 2.227.073 2.262-1.301 2.19-.388 2.188-.64 2.227-.22 2.226-3.75 2.226 2.617 2.227-4.604 2.262-.684 2.226 3.731 2.228-2.704 2.224.016 2.226.942 2.263-3.286 2.153-3.913 2.152-.88 2.227-1.99 2.226 3.154 2.226-7.825 2.226 1.114 2.263-.068 2.226-1.682 2.228-11.465 2.224.71 2.226 11.067 2.263-11.503 2.153-6.71 2.151-1.233 2.228 3.143 2.226 8.497 2.226-4.393 2.226-3.276 2.263 8.286 2.226.013 2.227.466 2.225-2.588 2.226 4.3 2.263-1.507 2.153-8.904 2.151.277 2.228-6.902 2.226 8.271 2.226-10.89 2.226-1.23 2.263 9.381 2.226-1.216 2.227-2.002 2.225-.121 2.226.943 2.263.068 2.19-7.874 2.187-2.054 2.228-.493 2.226 4.464 2.226-1.776 2.226 7.802 2.263-1.027 2.226-1.468 2.227 1.262 2.225-.98 2.226 2.76 2.262-1.438 2.153-8.568 2.152-6.359 2.228 8.37 2.226-5.015 2.226-2.556 2.226 4.61 2.262 7.122 2.226-1.968 2.228-6.591 2.225-3.739 2.226 17.776 2.262-2.602 2.153-4.12 2.152 9.872 2.227 1.22 2.227.765 2.226 1.712 2.226 3.013 2.262-1.712 2.226 8.393 2.228-9.42 2.224-.062 2.226 12.113 2.263-7.874 2.153-6.346 2.152-3.035 2.227 5.142 2.226.062 2.226 2.486 2.227-4.06 2.262 5.066 2.226-4.332 2.228-8.404 2.224.267 2.226 8.36 2.263-2.875 2.19-9.445 2.188 3.008 2.227-11.925 2.226-1.495 2.226 1.778 2.226 1.577 2.263 9.175 2.226.922 2.228-3.524 2.224-1.64 2.226 14.513 2.263-3.218 2.153-10.457 2.151-3.1 2.228 4.242 2.226 5.549 2.226.324 2.226.703 2.263 4.52 2.226-.624 2.227-.883 2.225-1.24 2.226 4.39 2.263-1.507 2.153-3.959h0" clip-path="url(#p5a80129fa6)" style="fill:none;stroke:#2ca02c;stroke-width:1.5;stroke-linecap:square" id="line2d_25"/><path d="m35.745 298.198 1.716 8.294 2.225 1.418 2.226 2.896 2.263-3.492 2.153-4.15 2.151-2.081 4.454-2.876 2.226-10.18 2.226.046 2.263-.41 2.226-1.405 2.227-.719 2.225-.979 2.226-1.486 2.262-2.602 2.153-7.632 2.152-.379 2.228 4.67 2.226-3.3 2.226-8.658 2.226 1.4 2.262-1.986 2.226 1.718 2.228-1.308 2.225-14.612 2.226 9.272 2.262-12.531 2.153-4.686 2.152-9.625 4.454-6.163 2.226-9.168 2.226 9.1 2.262-4.588 2.226 10.276 2.228-1.58 2.224-1.816 2.227 4.83 2.262-9.176 2.19-18.823 2.188 5.334 2.227-1.057 2.226-9.968 2.226 11.312 2.227-10.353 2.262 4.45 2.226 6.115 2.228-6.251 2.224.45 2.226 19.339 2.263-19.995 2.153-11.312 2.152 5.698 2.227-18 2.226 13.686 2.226 5.63 2.226-9.26 2.263 5.273 2.226-20.565 2.228-4.017 2.224-4.969 2.226 16.678 2.263-26.773 2.153-11.445 2.151 10.418 2.228 3.552 2.226 12.813 2.226 7.069 2.226-2.755 2.263 13.215 2.226-2.96 2.227 2.755 2.225-1.552 2.226 12.576 2.263-1.917 2.153-16.522 2.151-2.514 2.228-3.156 2.226 9.456 2.226-16.107 2.226 2.686 2.263 16.16 2.226 6.343 2.227-1.619 2.225-1 2.226 12.298 4.452-19.734 2.188-7.38 2.228 10.005 2.226 5.195 2.226-4.063 2.226 11.8 2.263-.41 2.226 9.413 2.227 4.144 2.225-3.154 2.226 8.564 2.262-7.258 2.153-16.326 2.152 3.795 2.228 12.64 2.226-4.286 2.226.182 2.226 10.363 2.262-3.013 2.226 15.221 2.228-3.786 2.225-6.26 2.226 25.159 2.262-7.806 2.153-8.701 2.152 9.865 2.227 4.478 2.227-.918 2.226 9.125 2.226-5.222 2.262 4.588 2.226 6.083 2.228-6.494 2.224 4.654 2.226 17.257 2.263-11.298 2.153-4.675 2.152-1.076 2.227 3.684 2.226.903 2.226 5.748 2.227-5.337 4.488-4.357 2.228-6.53 2.224 3.841 2.226 9.169 2.263-10.682 2.19-2.798 2.188 1.84 2.227-17.906 2.226 4.896 2.226 2.25 2.226 1.858 2.263 10.75 2.226-.792 2.228 1.135 2.224.28 2.226 9.922 2.263-4.862 2.153-4.286 2.151-3.52 2.228 4.303 2.226 1.38 2.226 1.52 2.226 6.424 4.489 3.553 2.227 2.746 2.225-.128 2.226 5.47 2.263-2.397 2.153-8.662h0" clip-path="url(#p5a80129fa6)" style="fill:none;stroke:#ff7f0e;stroke-width:1.5;stroke-linecap:square" id="line2d_26"/><path d="m35.745 320.221 1.716-.513 2.225 1.22 2.226-.125 2.263-2.054 2.153.26 2.151-.26 2.228-2.066 2.226-.81 2.226-1.737 2.226-.454 2.263-.822 2.226-2.05 2.227 1.16 2.225-1.3 2.226-1.096 2.262-2.055 4.305-4.313 2.228-1.594 2.226.977 2.226-1.33 2.226-3.942 2.262-.616 2.226-1.386 2.228-4.092 2.225-3.833 2.226 1.025 2.262-7.669 2.153-9.574 2.152 1.22 2.228-4.672 2.226-6.762 2.226-3.922 2.226.361 2.262-5.204 2.226 2.508 2.228 6.667 2.224-10.487 2.227 1.244 2.262-1.85 2.19-23.488 2.188-3.079 2.227 1.205 2.226-4.355 2.226-3.57 2.227-2.73 2.262 7.19 2.226.635 2.228-14.671 2.224-2.381 2.226 13.405 2.263-23.281 2.153-14.727 2.152-12.32 2.227 3.668 2.226 5.644 2.226-1.47 2.226-10.581 2.263-5.889 2.226.267 2.228-16.632 2.224 2.41 2.226 10.12 2.263-28.826 2.153-30.236 2.151 1.34 2.228 3.522 2.226 37.15 2.226-10.83 2.226-12.587 2.263 19.241 2.226-1.771 2.227 3.414 2.225-3.485 2.226 22.316 2.263-21.775 2.153-17.28 2.151-15.93 2.228-4.973 2.226.797 2.226-7.73 2.226-16.304 2.263 26.773 2.226 6.582 2.227-10.006 2.225-4.994 2.226 17.798 2.263-14.927 2.19-34.706 2.187 8.755 2.228-9.68 2.226 23.99 2.226-9.91 2.226 11.006 2.263-8.353 2.226 22.607 2.227 9.78 2.225-21.454 2.226 30.15 2.262-27.389 2.153-20.324 2.152-10.01 2.228 23.327 2.226-8.81 2.226 2.655 2.226 4.672 2.262 12.941 2.226 14.722 2.228-.89 2.225-14.323 2.226 34.728 2.262-19.447 2.153 9.939 2.152 15.602 2.227-1.34 2.227-5.508 2.226 21.428 2.226-2.46 2.262-.548 2.226 18.645 2.228-21.453 2.224 11.335 2.226 23.998 2.263-6.3 2.153-22.469 2.152-7.248 4.453 18.487 2.226 5.277 2.227-15.342 2.262 10.34 2.226-.8 2.228-16.456 2.224-9.37 2.226 29.707 2.263-9.587 2.19-29.55 2.188-4.892 2.227-40.16 2.226 7.293 2.226 12.095 2.226-.591 2.263 19.24 2.226 7.884 2.228 12.659 2.224 1.705 2.226 18.426 2.263-28.896 2.153-7.588 2.151-4.463 2.228 7.45 2.226 2.478 2.226 3.677 2.226 19.125 2.263 7.395 2.226-3.949 2.227 8.674 2.225-3.225 2.226 15.824 2.263-14.38 2.153-18.517h0" clip-path="url(#p5a80129fa6)" style="fill:none;stroke:#1f77b4;stroke-width:1.5;stroke-linecap:square" id="line2d_27"/></g></g><defs><clipPath id="p5a80129fa6"><path d="M35.745 57.293h357.12v266.112H35.745z"/></clipPath></defs></svg>