<svg height="480.17" viewBox="0 0 475.61 360.128" width="634.146" xmlns="http://www.w3.org/2000/svg" xmlns:xlink="http://www.w3.org/1999/xlink"><defs><style>*{stroke-linecap:butt;stroke-linejoin:round}</style></defs><g id="figure_1"><path d="M0 360.128h475.61V0H0z" fill="none" id="patch_1"/><g id="axes_1"><path d="M26.27 300.716h372v-277.2h-372z" fill="none" id="patch_2"/><g id="matplotlib.axis_1"><g id="xtick_1"><g id="text_1"><defs><path d="M4.39 45.125q0 12.39 6.391 18.781 6.406 6.407 17.938 6.407 9.656 0 15.812-5.86 6.157-5.86 6.157-15.14 0-7.22-3.547-12.188-3.532-4.953-10.422-8.703l-12.11-6.64Q13.922 15.921 12.5 8.296h38.188V0H2.593q.39 9.906 4.297 16.5 3.906 6.594 12.203 11.375l12.593 7.328q5.032 2.89 7.329 5.984 2.297 3.094 2.297 8.516 0 5.375-3.766 9.031-3.75 3.672-10.156 3.672-7.078 0-10.594-4.672-3.516-4.656-3.61-12.609z" id="HelveticaWorld-Regular-50"/><path d="M42.484 34.188q0 14.109-3.734 21.156-3.734 7.062-10.969 7.062-7.078 0-10.89-7.062-3.797-7.047-3.797-21.157 0-13.671 3.75-20.937Q20.609 6 27.78 6q7.235 0 10.969 7 3.734 7.016 3.734 21.188zm9.422 0q0-17.297-6.25-26.704-6.25-9.39-17.875-9.39-12.062 0-18.062 9.734-6 9.75-6 26.36 0 17.03 6.14 26.578 6.157 9.547 17.922 9.547 11.625 0 17.875-9.5t6.25-26.626z" id="HelveticaWorld-Regular-48"/><path d="M35.89 0h-9.374v49.906H10.109v6.985q8.594.28 12.782 2.75Q27.094 62.109 29 70.313h6.89z" id="HelveticaWorld-Regular-49"/></defs><g transform="matrix(.14 0 0 -.14 51.96 314.266)"><use xlink:href="#HelveticaWorld-Regular-50"/><use x="55.615" xlink:href="#HelveticaWorld-Regular-48"/><use x="111.23" xlink:href="#HelveticaWorld-Regular-49"/><use x="166.846" xlink:href="#HelveticaWorld-Regular-48"/></g></g></g><g id="xtick_2"><g transform="matrix(.14 0 0 -.14 116.733 314.266)" id="text_2"><use xlink:href="#HelveticaWorld-Regular-50"/><use x="55.615" xlink:href="#HelveticaWorld-Regular-48"/><use x="111.23" xlink:href="#HelveticaWorld-Regular-49"/><use x="166.846" xlink:href="#HelveticaWorld-Regular-50"/></g></g><g id="xtick_3"><g id="text_3"><defs><path d="M10.594 24.703h22.61v31.89h-.188zM42 17.093V0h-8.797v17.094H2.484v8.593L34.72 70.314H42v-45.61h10.297v-7.61z" id="HelveticaWorld-Regular-52"/></defs><g transform="matrix(.14 0 0 -.14 181.595 314.266)"><use xlink:href="#HelveticaWorld-Regular-50"/><use x="55.615" xlink:href="#HelveticaWorld-Regular-48"/><use x="111.23" xlink:href="#HelveticaWorld-Regular-49"/><use x="166.846" xlink:href="#HelveticaWorld-Regular-52"/></g></g></g><g id="xtick_4"><g id="text_4"><defs><path d="M14.11 21.578q0-6.875 4.093-11.234Q22.313 6 28.906 6q6.297 0 10.032 4.438 3.734 4.453 3.734 11.687 0 6.297-3.688 10.547-3.687 4.25-10.468 4.25-6.594 0-10.5-4.156-3.907-4.157-3.907-11.188zM41.702 51.61q-.984 5.375-3.984 8.078-3 2.72-8.125 2.72-8.11 0-12.36-7.923-4.25-7.906-4.343-18.109l.203-.188q5.61 8.641 16.687 8.641 8.844 0 15.438-5.86 6.593-5.859 6.593-16.452 0-10.5-6.25-17.47-6.25-6.952-16.843-6.952-12.219 0-18.563 8.687-6.344 8.703-6.344 25.938 0 16.593 6.485 27.093 6.5 10.5 19.484 10.5 8.407 0 14.219-5.015 5.813-5 6.297-13.688z" id="HelveticaWorld-Regular-54"/></defs><g transform="matrix(.14 0 0 -.14 246.368 314.266)"><use xlink:href="#HelveticaWorld-Regular-50"/><use x="55.615" xlink:href="#HelveticaWorld-Regular-48"/><use x="111.23" xlink:href="#HelveticaWorld-Regular-49"/><use x="166.846" xlink:href="#HelveticaWorld-Regular-54"/></g></g></g><g id="xtick_5"><g id="text_5"><defs><path d="M27.594 40.578q5.422 0 8.953 3.094 3.547 3.11 3.547 8.234 0 4.594-3.407 7.547-3.39 2.953-9.687 2.953-5.61 0-8.672-3.11-3.047-3.093-3.047-7.874 0-5.125 3.813-7.984 3.812-2.86 8.5-2.86zm.093-7.562q-6.78 0-10.64-3.766-3.86-3.766-3.86-9.234 0-6.297 3.907-10.157Q21 6 28.219 6q6.406 0 10.234 3.86 3.828 3.859 3.828 10.265 0 5.469-3.828 9.172-3.828 3.719-10.766 3.719zM49.22 52.203q0-10.594-9.032-14.797 6.204-2.781 8.86-7.36 2.656-4.562 2.656-9.733 0-10.016-6.453-16.125-6.438-6.094-17.375-6.094-9.563 0-16.813 5.25-7.25 5.25-7.25 17.062 0 11.922 11.907 16.907-9.516 3.796-9.516 13.671 0 8.297 5.64 13.813 5.641 5.516 15.641 5.516 10.016 0 15.875-5.204 5.86-5.203 5.86-12.906z" id="HelveticaWorld-Regular-56"/></defs><g transform="matrix(.14 0 0 -.14 311.23 314.266)"><use xlink:href="#HelveticaWorld-Regular-50"/><use x="55.615" xlink:href="#HelveticaWorld-Regular-48"/><use x="111.23" xlink:href="#HelveticaWorld-Regular-49"/><use x="166.846" xlink:href="#HelveticaWorld-Regular-56"/></g></g></g><g id="xtick_6"><g transform="matrix(.14 0 0 -.14 376.003 314.266)" id="text_6"><use xlink:href="#HelveticaWorld-Regular-50"/><use x="55.615" xlink:href="#HelveticaWorld-Regular-48"/><use x="111.23" xlink:href="#HelveticaWorld-Regular-50"/><use x="166.846" xlink:href="#HelveticaWorld-Regular-48"/></g></g></g><g id="matplotlib.axis_2"><g id="ytick_1"><path clip-path="url(#p9e11794ca4)" d="M26.27 300.716h372" fill="none" stroke="#000" stroke-dasharray="5,5" stroke-opacity=".3" stroke-width=".5" id="line2d_7"/><use xlink:href="#HelveticaWorld-Regular-48" transform="matrix(.14 0 0 -.14 14.985 305.74)" id="text_7"/></g><g id="ytick_2"><path clip-path="url(#p9e11794ca4)" d="M26.27 247.477h372" fill="none" stroke="#000" stroke-dasharray="5,5" stroke-opacity=".3" stroke-width=".5" id="line2d_9"/><g transform="matrix(.14 0 0 -.14 7.2 252.502)" id="text_8"><use xlink:href="#HelveticaWorld-Regular-49"/><use x="55.615" xlink:href="#HelveticaWorld-Regular-48"/></g></g><g id="ytick_3"><path clip-path="url(#p9e11794ca4)" d="M26.27 194.237h372" fill="none" stroke="#000" stroke-dasharray="5,5" stroke-opacity=".3" stroke-width=".5" id="line2d_11"/><g transform="matrix(.14 0 0 -.14 7.2 199.262)" id="text_9"><use xlink:href="#HelveticaWorld-Regular-50"/><use x="55.615" xlink:href="#HelveticaWorld-Regular-48"/></g></g><g id="ytick_4"><path clip-path="url(#p9e11794ca4)" d="M26.27 140.998h372" fill="none" stroke="#000" stroke-dasharray="5,5" stroke-opacity=".3" stroke-width=".5" id="line2d_13"/><g id="text_10"><defs><path d="M22.406 39.984q2.203-.187 4.594-.187 6.203 0 9.781 2.86 3.594 2.859 3.594 8.656 0 4.687-3.344 7.89-3.343 3.203-9.64 3.203-6.985 0-10.235-4.11-3.234-4.093-3.437-10.983h-8.64q0 10.984 5.765 16.984 5.765 6.016 16.937 6.016 9.922 0 15.828-5.11 5.907-5.094 5.907-13.39 0-10.704-9.032-14.5v-.204q11.72-4 11.72-16.406 0-9.906-6.595-16.265-6.593-6.344-18.703-6.344-9.906 0-16.312 5.203Q4.204 8.5 3.422 21.484H12.5q.203-8.109 4-11.797Q20.313 6 27.484 6q6.938 0 11.141 3.86 4.203 3.859 4.203 9.718 0 6.406-4.016 9.672-4 3.266-12.39 3.266-2 0-4.016-.094z" id="HelveticaWorld-Regular-51"/></defs><g transform="matrix(.14 0 0 -.14 7.2 146.023)"><use xlink:href="#HelveticaWorld-Regular-51"/><use x="55.615" xlink:href="#HelveticaWorld-Regular-48"/></g></g></g><g id="ytick_5"><path clip-path="url(#p9e11794ca4)" d="M26.27 87.759h372" fill="none" stroke="#000" stroke-dasharray="5,5" stroke-opacity=".3" stroke-width=".5" id="line2d_15"/><g transform="matrix(.14 0 0 -.14 7.2 92.783)" id="text_11"><use xlink:href="#HelveticaWorld-Regular-52"/><use x="55.615" xlink:href="#HelveticaWorld-Regular-48"/></g></g><g id="ytick_6"><path clip-path="url(#p9e11794ca4)" d="M26.27 34.52h372" fill="none" stroke="#000" stroke-dasharray="5,5" stroke-opacity=".3" stroke-width=".5" id="line2d_17"/><g id="text_12"><defs><path d="M14.703 40.922q5.813 4.39 13.625 4.39 9.469 0 16.281-6.296 6.813-6.297 6.813-16.22 0-10.78-6.578-17.796-6.563-7-18.422-7-10.313 0-16.266 5.047Q4.203 8.109 3.22 17.39h9.094q.671-5.672 4.437-8.672 3.766-3 10.453-3 6.485 0 10.64 4.484Q42 14.703 42 21.688q0 7.125-4.36 11.421-4.343 4.297-11.218 4.297-7.813 0-13.047-6.687l-7.563.39 5.266 37.594h36.438v-8.5H17.672z" id="HelveticaWorld-Regular-53"/></defs><g transform="matrix(.14 0 0 -.14 7.2 39.544)"><use xlink:href="#HelveticaWorld-Regular-53"/><use x="55.615" xlink:href="#HelveticaWorld-Regular-48"/></g></g></g></g><path clip-path="url(#p9e11794ca4)" d="M26.27 285.077l2.088 5.678 2.704 3.04 2.706-.464 2.751-2.92 2.618-4.526 2.615-2.171 2.708 5.112 2.707-5.284 2.706-2.347 2.706.458 2.75-.515 2.707-1.185 2.708-5.685 2.705 3.91 2.706 1.93 2.75-6.87 2.618-1.423 2.616-9.225 2.708 1.391 2.706 4.963 2.706-3.188 2.707 1.3 2.75-5.84 2.707-8.593 2.708 4.128 2.704-10.694 2.706 3.652 2.751-3.778 2.618-3.208 2.615-6.41 2.708-3.566 2.707-1.929h5.412l2.75-8.415 2.707 6.44 2.708-6.612 2.705-13.974 2.706-3.887 2.75-7.728 2.663-6.627 2.66-8.486 2.708 2.948 2.706-1.403 5.413 1.03 2.75-6.697 2.707-5.708 2.708-9.234 2.704-5.318 2.706 25.412 2.751-27.994 2.618-29.539 2.615-7.041 2.708 15.027 2.707-3.349 2.706 8.85 2.706-14.346 2.75-12.021 2.707-.252 2.708-18.125 2.705-32.098 2.706 39.14 2.75-30.398 2.618-39.887 2.616 21.51 2.708 12.297 2.706 23.94 2.706-.337 2.707-3.44 2.75 14.254 2.707-19.51 2.708-1.442 2.704-4.947 2.706 46.508 2.751-31.944 2.618-37.685 2.615-1.3 2.708.286 2.707 34.406 2.706-28.55 2.706 23.397 2.75 17.69 2.707 2.392 2.708-26.264 2.705 4.436 2.706 19.607 2.75-11.85 2.663-42.668 2.66 11.755 2.708-29.55 2.706 31.267 2.706 6.177 2.707 15.634 2.75-18.72 2.706 11.782 2.709 9.858 2.704-9.326 2.706 27.359 2.751-9.618 2.618-36.108 2.615-27.264L303.73 45.7l2.707 6.51 2.706-3.67 2.706 21.874 2.75 5.324 2.707 12.909 2.708-34.033 2.705 14.69 2.706 41.469 2.75-26.964 2.618-9.74 2.616 11.286 2.708 7.728 2.706 18.72 2.706 3.818 2.707 2.88 2.75-5.152 2.707-11.747 2.708-5.427 2.704 1.877 2.706 41.058 2.751-29.883 2.618-18.045 2.615 1.043 2.708-.206 2.707 2.438 2.706 19.212 2.706-22.131 2.75 19.063 2.707-5.982 2.708-34.72 2.705 17.506 2.706 34.874 2.75-19.578 2.663-26.507 2.66-10.76h0" fill="none" stroke="#1f77b4" stroke-linecap="square" stroke-width="1.5" id="line2d_19"/><path clip-path="url(#p9e11794ca4)" d="M26.27 293.063l2.088 2.501 2.704.183 2.706-.355 2.751-.171 2.618-4.392 2.615.098 2.708-.504 2.707.848 2.706-4.042 2.706 2.496 2.75-1.89 2.707.281 2.708 3.326 2.705-2.261 2.706 1.918 2.75-6.526 2.618-.399 2.616 1.6 2.708 2.52 2.706-.63 2.706-.435 2.707-2.828 2.75-4.637 2.707 2.673 2.708 1.62 2.704-6.766 2.706 3.847 2.751-4.98 2.618-.73 2.615-6.484 2.708 2.136 2.707-.933 2.706-1.907 2.706.876 2.75-.172 2.707-.881 2.708 7.923 2.705-8.633 2.706-1.672 2.75-9.102 2.663-5.614 2.66-2.973 2.708.372 2.706-7.757 2.706.304 2.707-6.143 2.75 8.759 2.707 4.837 2.708-8.272 2.704-5.57 2.706 13.814 2.751-15.8 2.618-6.165 2.615 5.82 2.708-3.703 2.707-8.49 2.706 3.521 2.706-13.31 2.75 6.698 2.707-5.988 2.708-7.58 2.705 9.355 2.706 6.79 2.75-16.488 2.618-8.568 2.616-1.393 2.708.67 2.706 2.937 2.706-4.357 2.707-9.726 2.75 9.961 2.707-5.736 2.708 6.08 2.704 19.12 2.706-7.957 2.751-21.468 2.618-9.427 2.615 4.962 2.708-9.944 2.707 13.894 2.706-17.088 2.706-9.875 2.75 6.01 2.707 13.093 2.708 9.577 2.705-12.417 2.706 7.093 2.75-10.991 2.663-28.284 2.66-1.084 2.708-3.291 2.706 18.061 2.706-6.349 2.707 8.582 2.75-18.892 2.706 10.843 2.709 4.786 2.704-6.916 2.706 15.33 2.751-20.265 2.618-14.56 2.615-2.785 2.708 24.765 2.707-29.917 2.706-5.576 2.706 13.647 2.75.172 2.707 2.862 2.708-.973 2.705 4.878 2.706 37.714 2.75-33.49 2.618-8.065 2.616.852 2.708 14.701 2.706 5.565 2.706-18.52 2.707-14.283 2.75 3.092 2.707 18.822 2.708-27.925 2.704 9.824 2.706 32.081 2.751-31.6 2.618.546 2.615-13.083 2.708 6.555 2.707-18.405 2.706 12.193 2.706-18.032 2.75 21.295 2.707-3.085 2.708-15.806 2.705 6.933 2.706 36.689 2.75-39.157 2.663-.77 2.66-16.06h0" fill="none" stroke="#ff7f0e" stroke-linecap="square" stroke-width="1.5" id="line2d_20"/><path clip-path="url(#p9e11794ca4)" d="M26.27 300.716l2.088-.687 2.704.687 2.706-.171 2.751-.344 2.618-.055 2.615.399 2.708-2.668 2.707.263 2.706 2.044 2.706-.67 2.75.687 2.707.338 2.708-.681 2.705.326 2.706.017 2.75-.172 2.618-.834 2.616.834 2.708-1.442 2.706-.103 2.706 1.345 2.707.2 2.75-1.889 2.707 1.511 2.708.207 2.704-.561 2.706-.126 2.751.515 5.233-.515 2.708.48 2.707-.137 2.706-.75 2.706-.28 2.75-1.03 2.707.068 2.708 1.649 2.705.658 2.706-1.86 2.75-1.203 2.663-.272 2.66.787 2.708.418 2.706-.074 2.706-.636 2.707-1.253 2.75 1.374 2.707-1.185 2.708 1.356 2.704-.114 2.706-1.431 2.751 1.03 2.618-2.515 2.615.626 2.708-.727 2.707 1.758 2.706.55 2.706-.894 2.75-.687 2.707 1.225 2.708-2.255 2.705 1.9 2.706-.87 2.75.344 2.618-3.061 2.616 1.343 2.708 2.777 2.706.314 2.706-2.621 2.707 1.076 2.75.172 2.707.349 2.708-1.552 2.704-.755 2.706 3.503 5.369-2.324 2.615-.08 2.708-.567 2.707.052 2.706-.407 2.706-.109 2.75 1.374 2.707.687 2.708.859 2.705-1.036 2.706.693 2.75-.86 2.663-2.41 2.66.522 2.708 1.877 2.706.012 2.706-1.964 2.707 3.166 2.75-1.03 2.706-1.248 2.709 1.248 2.704.526 2.706-.355 2.751-.515 2.618-.245 2.615-.442 2.708 2.445 2.707-.9 2.706.545 2.706-2.09 2.75 1.718 2.707-.516 2.708-1.545 2.705.48 2.706 3.298 2.75-3.263 2.618 1.6 2.616-2.115 2.708 3.852 2.706-1.62 2.706-.687 2.707.172 2.75.344 2.707.904 2.708-2.107 2.704-.91 2.706.739 2.751-.687 2.618 2.116 2.615.46 2.708-.498 2.707 1.013 2.706-1.013 2.706-2.594 2.75-.171 2.707.99 2.708-4.597 2.705-.727 2.706.384 2.75-.344 2.663-3.387 2.66 2.7h0" fill="none" stroke="#2ca02c" stroke-linecap="square" stroke-width="1.5" id="line2d_21"/><path clip-path="url(#p9e11794ca4)" d="M26.27 297.722l2.088 2.307 2.704-.023 2.706.539 2.751-.172 2.618-.417 2.615.245 2.708-.372 2.707.029 2.706-.207 2.706.207h2.75l2.707.326 2.708-1.7 5.41 1.545 2.752-.687 2.617-.527 2.616.012 2.708 1.18 2.706-1.18 2.706.115 2.707.572 2.75-2.06 2.707 1.665 2.708.739 2.704-.916 2.706-.458 2.751-1.203 2.618 1.724 2.615-.865 2.708-.263 2.707.607 2.706-.785 2.706-.074 2.75 1.546 2.707-.762 2.708.418 2.705-.418 2.706.762 2.75-1.546 2.663-1.315 2.66 2.174 2.708-1.495 8.119 1.838 2.75-1.374 2.707-.109 2.708 1.998 2.704-1.643 2.706-.074 2.751-1.546 2.618 2.165 2.615-2.852 2.708-.532 2.707.876 2.706-3.716 2.706 4.574 2.75-2.232 2.707.32 2.708-2.21 2.705 2.033 2.706 1.403 2.75-2.92 2.618.503 2.616.012 2.708.47 2.706 1.42 2.706-.356 2.707.699 2.75 2.06 2.707-2.049 2.708-.011 2.704.899 2.706.131 2.751-.172 2.618-2.343 2.615 3.546 2.708.257 2.707-.6 2.706-.997 2.706.31 2.75 1.03 2.707-2.227 2.708.853 2.705 1.986 2.706-2.158 2.75-.172 2.663.231 2.66.971 2.708-2.599 2.706.882 2.706.183 2.707 1.363 2.75.171 2.706.773 2.709-1.288 2.704.756 2.706.275 2.751-.859 2.618-.595 2.615.595 2.708-1.19 2.707.331 2.706 1.62 2.706-1.276 2.75 1.202 2.707-.458 2.708 1.317 2.705-1.495 2.706 1.151 2.75-.515 2.618.62 2.616-1.65 2.708 1.46 2.706-.602 2.706 1.489 5.457-.287 2.707-.956 2.708-.074 2.704.962 2.706-.79 2.751.858 2.618-.981 2.615.638 2.708-1.855 2.707 1.683 2.706.27 5.457.76 2.706.127 2.708-2.016 2.705 1.483 2.706 1.094 2.75-2.405 2.663 2.162 2.66-1.818h0" fill="none" stroke="#d62728" stroke-linecap="square" stroke-width="1.5" id="line2d_22"/><path clip-path="url(#p9e11794ca4)" d="M26.27 300.384l4.792-.023 2.706.355 2.751-.171 2.618-.019 2.615.19 8.12-.532 2.707.36 2.75.172 2.707-1.774 2.708 1.259 2.705-.017 2.706.189 2.75.343 2.618-.95 5.324.595 5.412-1.952 2.707 1.62 2.75-.171 2.707-.739 2.708.91h5.41l2.751.516 2.618-1.16 2.615.644 2.708-.378 2.707.378h5.412l2.75.172 2.707-.017 2.708-.67 2.705.137 2.706.378 2.75-.171 5.323-.86 2.708.299 2.706.045 2.706-.578 2.707 1.609 2.75-1.202 2.707.658 2.708-.83 2.704-.057 2.706.229 2.751-.687 2.618-1.38 2.615 1.208 2.708 1.517 2.707-1.517 2.706-.08 2.706.423 2.75 1.203 2.707-1.271 2.708-.447 2.705-.086 5.457.773 2.617-.583 2.616.068 2.708.275 2.706 1.442 2.706-2.152 2.707.435 2.75 1.202 2.707-.217 2.708-1.157 2.704.624 2.706.407 2.751-1.203 5.233 1.718 2.708-.922 2.707.407 5.412-.86 2.75 1.203 2.707-.572 2.708.4 2.705-1.11 2.706 1.282 2.75-.515 2.663.983 2.66-.64 2.708-.045 2.706-.813 2.706.813 2.707.389 2.75-1.374 2.706 1.694 2.709-.664 2.704-.4 2.706.744 2.751-.515 2.618-.927 2.615.927 2.708.126 5.413.71 2.706-.321 2.75-.687 2.707.652 2.708-.137 2.705-.927 2.706 1.442h2.75l2.618-.263 2.616-1.11 2.708 1.35 5.412-.887 2.707.052 2.75.343 2.707-.217 2.708-.813 2.704 1.345 2.706.2 2.751.344 2.618-.607 2.615-.424 2.708-.045 2.707.217 2.706-.04 2.706-.475 2.75.859 2.707.68 2.708-.852 2.705.498 5.457-.67 2.662.1 2.66-.272h0" fill="none" stroke="#9467bd" stroke-linecap="square" stroke-width="1.5" id="line2d_23"/><path clip-path="url(#p9e11794ca4)" d="M26.27 300.716h7.498l2.751-.171 2.618.171h5.323l2.707-.171 2.706-.006 2.706.177h8.165l2.705-.177 2.706.177 2.75-.171 2.618.171h5.324l2.706-.171 2.706-.006 2.707-.338 2.75.515h8.12l2.705-.171h2.751l2.618.171h2.615l2.708-.177 2.707.177h2.706l2.706-.171h2.75l2.707.171 2.708-.171 2.705-.006 2.706.177h13.487l2.706-.71 2.707.367 2.75.172 2.707-.006 2.708.177 2.704-.177 2.706.006 2.751.171h5.233l5.415-1.03 2.706-.39 2.706 1.249 5.457-.361 2.708-.67 5.41.344 2.752-.86 2.617 1.148 2.616-1.662 2.708 1.167 2.706.722 2.706-.722 2.707-.48 2.75.687 2.707-.916 2.708.916 2.704.326 2.706-.842 5.369.233 2.615-.06 2.708-.573 2.707.572 2.706-.395 2.706-.12 2.75 1.202 2.707-.904 2.708.389 2.705-.567 2.706-.979 2.75 1.374 2.663.284 2.66-1.143 2.708-.6 2.706.944 2.706.652 2.707-.652 2.75.343 2.706-.4 2.709-.115 2.704 1.18 2.706-1.008 2.751.515 2.618.252 2.615-1.798 2.708 1.683 2.707.207 2.706-.739 2.706.567 2.75-1.718 2.707 1.506 2.708-.99 2.705.635 2.706-.635 2.75.171 2.618-.22 2.616 1.08 2.708-.218 2.706.389 2.706.143 2.707-.658h2.75l2.707.303 2.708.04 2.704-1.105 2.706 1.277 2.751-1.202 2.618-.24 2.615-.104 2.708 1.157 2.707.045 2.706-.578 2.706.75h2.75l2.707-.395 2.708.739 2.705-.739 2.706.567 2.75.172 2.663.307 2.66-.994h0" fill="none" stroke="#8c564b" stroke-linecap="square" stroke-width="1.5" id="line2d_24"/><path clip-path="url(#p9e11794ca4)" d="M26.27 300.05l2.088.666h2.704l2.706-.343 2.751.172 7.941-.006 2.707.177 2.706-.71 5.457.71 2.706-.887 2.708.372 2.705.16 2.706-.16 2.75.172 2.618.343 2.616-.171 2.708-.006 5.412-2.485 2.707 2.319h2.75l2.707-.367 2.708.195 5.41-.343 2.751.171 2.618.497 2.615-.497 2.708.332h5.413l2.706-.332 2.75.516 5.415-.344 5.411.344 2.75-.172 2.663-.758 2.66.758 2.708-.899 2.706.727 2.706-.195 2.707-.32h2.75l2.707-.212 2.708.04 2.704-.217 2.706.56 2.751.344 2.618-1.386 2.615.527 2.708 1.02 2.707-1.02 2.706-.045 2.706.56 2.75-.686 2.707.303 2.708-.303 2.705.658 2.706-.658 2.75 1.03 2.618-.435 2.616-.595 2.708-.23 2.706 1.432 2.706-.544 2.707-.143 2.75.343 2.707-1.087 2.708.744 2.704-.035 2.706.207h2.751l5.233-.516 2.708.842 2.707-.498 2.706.498 2.706-.842 2.75.516 2.707.326 2.708-.498 2.705.675 2.706-.332 2.75-.171 5.323.515 2.708-.19 2.706.533 2.706-.177 2.707-1.54 2.75 1.546 2.706-.361 2.709.189 2.704-.722 2.706.55 5.369-.245 2.615-.614 2.708-.045 2.707.56 2.706.327 2.706-.498h2.75l2.707.498 2.708-.498 5.41.687 2.752-.344 2.617.307 2.616-.65 2.708.143 2.706.029 2.706-.561 2.707.389 2.75-.515 2.707.835 2.708-.148 2.704-.03 2.706.201 2.751-.171 2.618.288 5.323.038 2.707-.326 2.706-.207 2.706.722 2.75-.172 2.707-.55 2.708.722 2.705-1.254 2.706 1.254 2.75-.687 5.323.515h0" fill="none" stroke="#e377c2" stroke-linecap="square" stroke-width="1.5" id="line2d_25"/><path clip-path="url(#p9e11794ca4)" d="M26.27 300.716h104.658l2.75-.343 2.663.343H139l5.414-.343 2.706.166 2.707-.51 2.75.516 2.707-.184 2.708.012 2.704.166 2.706.006 2.751-.344 2.618.135 2.615.38h2.708l2.707-.343 2.706.166 2.706-.51 2.75.344 2.707-.19 2.708.533 2.705-.177 2.706.177 2.75-.343 2.618.153 2.616-.325 2.708-.195 2.706-.32 2.706.853 2.707-.166 2.75.343h2.707l2.708-.343 2.704-.012 2.706-.675 2.751.859 2.618-1.54 2.615.68 2.708.144 2.707.544 2.706.166 5.457.006 2.706.171h5.413l2.706-1.202 2.75 1.202 5.323-.343 2.708.343h2.706l2.706-.532 2.707-.155 2.75.516 2.706.171 5.413-.355 2.706.355h7.984l2.708-.177 2.707-.338 2.706.515h2.706l2.75-.343 2.707.343 2.708-.343 2.705.166 2.706.006 2.75.171 2.618-.38 8.03.209 2.706-.184 2.707.355 2.75-.343 5.415.343 2.704-.355 5.457.355 2.618-.38 2.615.209 2.708-.184 2.707.184h5.412l2.75-.172 2.707-.012 2.708.184 2.705-.006 2.706.177 2.75-.343 2.663.343 2.66-.515h0" fill="none" stroke="#7f7f7f" stroke-linecap="square" stroke-width="1.5" id="line2d_26"/><path clip-path="url(#p9e11794ca4)" d="M26.27 300.716h342.233l2.707-.171 2.706.171h24.355" fill="none" stroke="#bcbd22" stroke-linecap="square" stroke-width="1.5" id="line2d_27"/><g id="text_13"><defs><path d="M43.406 26.313q0 10.5-3.718 15.046-3.704 4.547-10.579 4.547-6.984-.11-10.562-5.453Q14.984 35.11 14.984 25q0-10.297 4.297-14.594Q23.578 6.11 29.297 6.11q6.5 0 10.297 5.344 3.812 5.344 3.812 14.86zM6.594 0v71.781h8.781V45.703h.203q5.61 8.11 15.14 8.11 9.766 0 15.766-7.25t6-18.876q0-13.093-6.062-21.156Q40.375-1.516 29.5-1.516q-9.578 0-14.406 8.016h-.203V0z" id="HelveticaWorld-Regular-98"/><path d="M38.375 26.703q-.969-1.015-3.828-1.656-2.86-.625-10.672-1.656-5.766-.688-8.469-2.844-2.703-2.14-2.703-5.656 0-4.297 2.281-6.688 2.297-2.39 7.329-2.39 6.296 0 11.171 3.578 4.891 3.593 4.891 8.718zM6.203 36.375q.297 8.844 5.734 13.14 5.454 4.297 15.844 4.297 8.297 0 13.907-3.765 5.624-3.75 5.624-10.844V9.078Q47.313 6 50.094 6q1.125 0 2.89.39V0Q50.594-.984 48-.984q-4.5 0-6.703 1.921-2.188 1.938-2.281 6.047-7.516-8.5-18.891-8.5-7.422 0-11.922 4.204Q3.72 6.89 3.72 13.624q0 6.89 3.906 11.125Q11.531 29 19 29.89l15.516 1.891q4.203.64 4.203 6.203 0 4.11-3.047 6.297-3.047 2.203-9.25 2.203-5.516 0-8.485-2.437-2.953-2.438-3.53-7.672z" id="HelveticaWorld-Regular-97"/><path d="M36.078 37.406q-.187 4.688-3.344 6.735-3.14 2.047-9.047 2.047-4.296 0-7.359-1.907-3.047-1.89-3.047-5.468 0-2.829 1.797-4.172 1.813-1.344 7.828-2.86l8.688-2.187q7.906-2 11.297-5.11 3.406-3.093 3.406-8.656 0-7.719-5.64-12.531-5.641-4.813-15.063-4.813-11 0-16.64 4.563-5.626 4.578-5.735 13.75h8.5q.203-5.422 3.594-8.063 3.39-2.625 10.171-2.625 5.516 0 8.766 2.188 3.25 2.203 3.25 6.11 0 2.78-2.11 4.437-2.093 1.672-8.296 3.078l-10.203 2.5q-6.203 1.562-9.157 4.656-2.953 3.094-2.953 8.031 0 7.72 5.516 12.203 5.531 4.5 14.406 4.5 9.485 0 14.531-4.624 5.047-4.61 5.344-11.782z" id="HelveticaWorld-Regular-115"/><path d="M49.219 0h-8.844v34.188q0 6.296-2.438 9-2.437 2.718-7.953 2.718-6.797 0-10.703-4.406-3.906-4.39-3.906-12.984V0H6.594v71.781h8.781V45.312h.203q6 8.5 15.328 8.5 8.594 0 13.453-4.5 4.86-4.484 4.86-13.718z" id="HelveticaWorld-Regular-104"/></defs><g transform="matrix(.14 0 0 -.14 401.99 68.737)" fill="#1f77b4"><use xlink:href="#HelveticaWorld-Regular-98"/><use x="56.494" xlink:href="#HelveticaWorld-Regular-97"/><use x="111.426" xlink:href="#HelveticaWorld-Regular-115"/><use x="161.426" xlink:href="#HelveticaWorld-Regular-104"/></g></g><g id="text_14"><defs><path d="M14.984 23.688q0-8.407 4.094-13 4.11-4.579 10.219-4.579 6.687 0 10.39 5.438 3.72 5.453 3.72 14.765 0 10.22-3.563 14.907-3.563 4.687-10.735 4.687-6.984 0-10.562-5.5-3.563-5.5-3.563-16.718zm-8.39 28.609h8.297v-7.375h.203q5.61 8.89 15.625 8.89 10.11 0 15.937-7.359 5.828-7.344 5.828-18.766 0-12.796-5.953-21Q40.578-1.515 29.5-1.515q-9.094 0-13.922 7.032h-.203v-26.22H6.594z" id="HelveticaWorld-Regular-112"/><path d="M12.703 26.219q0-8.735 3.953-14.375 3.953-5.64 11.219-5.64 7.531 0 11.438 5.905 3.906 5.907 3.906 14.11 0 8.297-3.907 14.078-3.906 5.797-11.437 5.797-6.969 0-11.078-5.453-4.094-5.438-4.094-14.422zm-8.984 0q0 11.672 6.484 19.625 6.5 7.968 17.672 7.968 11.438 0 17.875-8.062 6.453-8.047 6.453-19.531 0-11.516-6.406-19.625-6.39-8.11-17.922-8.11-11.078 0-17.625 7.86-6.531 7.86-6.531 19.875z" id="HelveticaWorld-Regular-111"/><path d="M25.594 0h-8.985L1.516 52.297h9.468L21 11.187h.188l10.109 41.11h9.922l10.203-41.11h.187l10.594 41.11h8.703L55.812 0h-9.234L35.984 40.484h-.187z" id="HelveticaWorld-Regular-119"/><path d="M42.484 30.328q-.687 8.485-4.5 12.031-3.797 3.547-10.109 3.547-6.39 0-10.328-4.5-3.922-4.484-4.172-11.078zm8.391-13.922q-1.453-8.11-7.953-13.422-5.719-4.5-15.047-4.593-10.984.093-17.438 7.203Q4 12.704 4 24.704q0 13.78 6.64 21.437 6.641 7.672 18.47 7.672 10.593 0 16.546-7.922 5.953-7.907 5.953-22.594H13.375q0-8.203 3.813-12.703Q21 6.109 28.608 6.109q5.375 0 9.235 3.235 3.86 3.25 4.25 7.062z" id="HelveticaWorld-Regular-101"/><path d="M15.375 0H6.594v52.297h8.297v-8.688h.203q5.703 10.203 14.687 10.203 1.422 0 2.297-.296V44.39h-3.266q-5.906 0-9.671-4.016-3.766-4-3.766-9.953z" id="HelveticaWorld-Regular-114"/><path d="M15.375 0H6.594v71.781h8.781z" id="HelveticaWorld-Regular-108"/></defs><g transform="matrix(.14 0 0 -.14 401.99 84.907)" fill="#ff7f0e"><use xlink:href="#HelveticaWorld-Regular-112"/><use x="56.494" xlink:href="#HelveticaWorld-Regular-111"/><use x="110.902" xlink:href="#HelveticaWorld-Regular-119"/><use x="181.814" xlink:href="#HelveticaWorld-Regular-101"/><use x="237.234" xlink:href="#HelveticaWorld-Regular-114"/><use x="269.803" xlink:href="#HelveticaWorld-Regular-115"/><use x="319.803" xlink:href="#HelveticaWorld-Regular-104"/><use x="374.979" xlink:href="#HelveticaWorld-Regular-101"/><use x="430.398" xlink:href="#HelveticaWorld-Regular-108"/><use x="452.42" xlink:href="#HelveticaWorld-Regular-108"/></g></g><g id="text_15"><defs><path d="M14.11 7.328h32.187V0H2.39v6.89l31.64 38.126H4.938v7.28h40.374v-7.171z" id="HelveticaWorld-Regular-122"/></defs><g transform="matrix(.14 0 0 -.14 401.99 253.01)" fill="#2ca02c"><use xlink:href="#HelveticaWorld-Regular-122"/><use x="49.219" xlink:href="#HelveticaWorld-Regular-115"/><use x="99.219" xlink:href="#HelveticaWorld-Regular-104"/></g></g><g id="text_16"><defs><path d="M50 0H38.719L22.406 26.422l-7.312-6.594V0h-8.5v71.781h8.5v-41.61l22.5 22.126H48.78L28.813 32.813z" id="HelveticaWorld-Regular-107"/></defs><g transform="matrix(.14 0 0 -.14 401.99 269.18)" fill="#d62728"><use xlink:href="#HelveticaWorld-Regular-107"/><use x="49" xlink:href="#HelveticaWorld-Regular-115"/><use x="99" xlink:href="#HelveticaWorld-Regular-104"/></g></g><g id="text_17"><defs><path d="M39.594 34.719q-1.89 11.187-12.39 11.187-6.5 0-10.454-5.203-3.953-5.203-3.953-14.484 0-10.11 3.656-15.11 3.672-5 10.64-5 4.688 0 8.11 3.438 3.422 3.437 4.39 8.953h8.5q-1.312-9.703-6.859-14.86-5.547-5.156-14.328-5.156-10.297 0-16.89 7.047-6.594 7.063-6.594 19.172 0 13.281 6.594 21.188 6.593 7.922 18.5 7.922 8.687 0 13.843-5.204 5.157-5.203 5.735-13.89z" id="HelveticaWorld-Regular-99"/></defs><g transform="matrix(.14 0 0 -.14 401.99 301.52)" fill="#9467bd"><use xlink:href="#HelveticaWorld-Regular-99"/><use x="51.27" xlink:href="#HelveticaWorld-Regular-115"/><use x="101.27" xlink:href="#HelveticaWorld-Regular-104"/></g></g><g id="text_18"><defs><path d="M17.188 45.016V0H8.405v45.016H1.22v7.28h7.187v8.985q0 5.907 3.578 8.703 3.594 2.813 10.032 2.813 2.203 0 3.968-.188v-7.906q-1.562.188-3.578.188-2.922 0-4.078-1.438-1.14-1.437-1.14-4.656v-6.5h8.796v-7.281z" id="HelveticaWorld-Regular-102"/><path d="M6.594 61.813v9.968h8.781v-9.969zM15.375 0H6.594v52.297h8.781z" id="HelveticaWorld-Regular-105"/></defs><g transform="matrix(.14 0 0 -.14 401.99 285.35)" fill="#8c564b"><use xlink:href="#HelveticaWorld-Regular-102"/><use x="27.686" xlink:href="#HelveticaWorld-Regular-105"/><use x="49.707" xlink:href="#HelveticaWorld-Regular-115"/><use x="99.707" xlink:href="#HelveticaWorld-Regular-104"/></g></g><g id="text_19"><defs><path d="M17.188 45.016V10.984q0-2 1.093-3.046 1.11-1.047 3.938-1.047h3.375V0Q20.797-.688 19-.688q-5.516 0-8.063 2.641-2.53 2.64-2.53 8.547v34.516H1.311v7.28h7.094v14.595h8.781V52.297h8.407v-7.281z" id="HelveticaWorld-Regular-116"/></defs><g transform="matrix(.14 0 0 -.14 401.99 333.86)" fill="#e377c2"><use xlink:href="#HelveticaWorld-Regular-116"/><use x="27.686" xlink:href="#HelveticaWorld-Regular-99"/><use x="78.955" xlink:href="#HelveticaWorld-Regular-115"/><use x="128.955" xlink:href="#HelveticaWorld-Regular-104"/></g></g><g transform="matrix(.14 0 0 -.14 401.99 317.69)" fill="#7f7f7f" id="text_20"><use xlink:href="#HelveticaWorld-Regular-97"/><use x="54.932" xlink:href="#HelveticaWorld-Regular-115"/><use x="104.932" xlink:href="#HelveticaWorld-Regular-104"/></g><g id="text_21"><defs><path d="M39.406 52.297h9.625L29.11 0h-9.437L.594 52.297h10.203L24.422 9.719h.187z" id="HelveticaWorld-Regular-118"/></defs><g transform="matrix(.14 0 0 -.14 401.99 350.03)" fill="#bcbd22"><use xlink:href="#HelveticaWorld-Regular-101"/><use x="55.42" xlink:href="#HelveticaWorld-Regular-108"/><use x="77.441" xlink:href="#HelveticaWorld-Regular-118"/><use x="127.051" xlink:href="#HelveticaWorld-Regular-105"/><use x="149.072" xlink:href="#HelveticaWorld-Regular-115"/><use x="199.072" xlink:href="#HelveticaWorld-Regular-104"/></g></g><g id="text_22"><defs><path d="M17.828 8.297h18.797q9.766 0 15.281 7.5 5.516 7.5 5.516 20.484 0 12.844-5.563 19.969-5.562 7.125-16.062 7.234H17.828zM8.11 71.78h29.094q14.11 0 22.094-9.703 7.984-9.687 7.984-25.156 0-16.61-7.984-26.766Q51.313 0 36.813 0H8.108z" id="HelveticaWorld-Regular-68"/><path d="M6.11 52.297h8.78V17.578q0-5.765 2.61-8.625Q20.125 6.11 25 6.11q6.781 0 10.594 4.797 3.812 4.813 3.812 12.578v28.813h8.782V0H39.89v7.625l-.188.188q-4.984-9.329-16.61-9.329-7.515 0-12.25 4.094Q6.11 6.688 6.11 14.703z" id="HelveticaWorld-Regular-117"/><path d="M19.094 41H8.687v10.594h10.407zm0-41H8.687v10.594h10.407z" id="HelveticaWorld-Regular-58"/><path d="M50.39 50.781q-.296 6.844-5.109 10.719-4.797 3.875-12.656 3.875-7.922 0-12.172-3.25-4.234-3.234-4.234-9.344 0-3.265 1.843-5.61 1.86-2.343 6.641-3.468l20.516-4.687q8.297-1.813 12.297-6.875 4.015-5.047 4.015-12.313 0-10.64-7.812-16.187-7.813-5.547-20.313-5.547-9.531 0-15.031 2.437-5.484 2.453-9.734 7.766-4.25 5.328-4.25 14.89h9.093q0-8 5.313-12.406 5.328-4.39 14.5-4.39 8.89 0 13.844 3.156 4.953 3.156 4.953 8.953 0 5.281-2.953 7.89Q46.188 29 37.594 31l-15.469 3.625q-7.719 1.75-11.531 6.125Q6.78 45.125 6.78 51.516q0 9.672 6.516 15.922 6.531 6.25 18.203 6.25 13.172 0 20.328-5.5 7.156-5.485 7.688-17.407z" id="HelveticaWorld-Regular-83"/><path d="M63.922 35.89q0 12.594-6.672 20.891-6.656 8.313-18.328 8.313-11.531 0-18.266-8.313-6.734-8.297-6.734-20.89 0-12.985 6.828-21.094 6.844-8.11 18.172-8.11 11.078 0 18.031 7.907 6.969 7.922 6.969 21.297zm9.953 0q0-16.062-9.281-26.937-9.266-10.86-25.672-10.86-16.516 0-25.766 10.86-9.25 10.875-9.25 26.938 0 16.109 9.25 26.953 9.25 10.843 25.766 10.843 16.89 0 25.922-11.046 9.031-11.032 9.031-26.75z" id="HelveticaWorld-Regular-79"/><path d="M44 29.5L33.406 61.078h-.203L21.687 29.5zm-25.297-8.594L11.188 0h-9.97l27 71.781h10.985L65.187 0H54.594l-7.078 20.906z" id="HelveticaWorld-Regular-65"/><path d="M17.828 38.625H37.11q7.282 0 10.938 3.188 3.656 3.203 3.656 9.703 0 5.812-3.516 8.89-3.515 3.078-10.687 3.078H17.828zm0-38.625H8.11v71.781h32.266q9.625 0 15.484-5.594 5.86-5.593 5.86-14.578 0-9.328-5.672-15.312-5.656-5.969-15.672-5.969H17.828z" id="HelveticaWorld-Regular-80"/><path d="M17.828 0H8.11v71.781h9.72z" id="HelveticaWorld-Regular-73"/><path d="M9.422 73.688h7.281V-1.906H9.422z" id="HelveticaWorld-Regular-124"/><path d="M55.61 71.781h9.374V0h-10.78L17.577 58.016h-.187V0H8.109v71.781h11.375l35.938-57.969h.187z" id="HelveticaWorld-Regular-78"/><path d="M12.703 26.219q0-8.735 3.953-14.375 3.953-5.64 11.219-5.64 7.531 0 11.438 5.905 3.906 5.907 3.906 14.11 0 8.297-3.907 14.078-3.906 5.797-11.437 5.797-6.969 0-11.078-5.453-4.094-5.438-4.094-14.422zm-8.984 0q0 11.672 6.484 19.625 6.5 7.968 17.672 7.968 11.438 0 17.875-8.062 6.453-8.047 6.453-19.531 0-11.516-6.406-19.625-6.39-8.11-17.922-8.11-11.078 0-17.625 7.86-6.531 7.86-6.531 19.875zm36.734 35.406H31.47v10.156h8.984zm-16.219 0H15.25v10.156h8.984z" id="HelveticaWorld-Regular-246"/><path d="M6.594 52.297h8.297v-7.375h.203q5.906 8.89 15.812 8.89 9.813 0 13.922-8.5 3.75 4.594 7.266 6.547 3.515 1.953 8.703 1.953 6.781 0 11.484-4.453Q77 44.922 77 36.187V0h-8.781v33.797q0 6.094-2.297 9.094-2.297 3.015-7.422 3.015-5.172 0-8.75-4.203-3.563-4.203-3.563-9.812V0h-8.78v36.188q0 4.53-2.11 7.124-2.094 2.594-6.094 2.594-6.297 0-10.062-4.687-3.766-4.688-3.766-12.703V0H6.594z" id="HelveticaWorld-Regular-109"/><path d="M17.672 8.594h36.531V0H8.11v71.781h9.563z" id="HelveticaWorld-Regular-76"/><path d="M49.219 0h-8.844v32.172q0 7.422-2.594 10.578-2.578 3.156-8.578 3.156-5.906 0-9.875-4.5-3.953-4.484-3.953-12.89V0H6.594v52.297h8.297v-7.375h.203q6.203 8.89 15.812 8.89 8.89 0 13.594-4.718 4.719-4.703 4.719-13.5z" id="HelveticaWorld-Regular-110"/><path d="M58.016 50.203q-1.625 7.313-6.782 11.094-5.14 3.797-13.343 3.797-10.594 0-17.047-7.703-6.438-7.688-6.438-20.766 0-15.14 6.094-22.547 6.11-7.39 17.688-7.39 7.609 0 13.093 5.046 5.5 5.063 7.407 14.688h9.421Q66.22 12.594 57.625 5.344t-20.906-7.25q-14.703 0-23.516 10.11Q4.391 18.311 4.391 36.28q0 17.328 9.203 27.36 9.203 10.047 24.297 10.047 12.5 0 20.265-6.454 7.766-6.437 9.235-17.03z" id="HelveticaWorld-Regular-67"/><path d="M8.11 71.781h31.484q9.281 0 14.797-5.031 5.515-5.031 5.515-13.031 0-4.844-2.422-8.828-2.406-3.97-7.187-6.172 6.687-2.532 9.828-6.735 3.156-4.203 3.156-10.797 0-9.265-6.687-15.234Q49.906 0 38.922 0H8.109zm9.562-63.484h20.703q7.625 0 11.422 3.531 3.812 3.547 3.812 9.563 0 6.093-4.25 9.093Q45.125 33.5 36.812 33.5h-19.14zm0 33.11h17.625q7.719 0 11.312 2.796 3.594 2.813 3.594 8.781 0 5.125-3.406 7.813-3.39 2.687-11.39 2.687H17.671z" id="HelveticaWorld-Regular-66"/><path d="M37.313 0h-9.72v28.906L.485 71.781h11.329l20.609-34.469 20.562 34.47h11.422L37.312 28.905z" id="HelveticaWorld-Regular-89"/></defs><g transform="matrix(.1 0 0 -.1 26.27 335.614)" fill="#888"><use xlink:href="#HelveticaWorld-Regular-68"/><use x="72.021" xlink:href="#HelveticaWorld-Regular-97"/><use x="126.953" xlink:href="#HelveticaWorld-Regular-116"/><use x="154.639" xlink:href="#HelveticaWorld-Regular-97"/><use x="209.57" xlink:href="#HelveticaWorld-Regular-32"/><use x="233.984" xlink:href="#HelveticaWorld-Regular-115"/><use x="283.984" xlink:href="#HelveticaWorld-Regular-111"/><use x="339.893" xlink:href="#HelveticaWorld-Regular-117"/><use x="394.678" xlink:href="#HelveticaWorld-Regular-114"/><use x="426.246" xlink:href="#HelveticaWorld-Regular-99"/><use x="477.516" xlink:href="#HelveticaWorld-Regular-101"/><use x="532.936" xlink:href="#HelveticaWorld-Regular-58"/><use x="555.719" xlink:href="#HelveticaWorld-Regular-32"/><use x="580.133" xlink:href="#HelveticaWorld-Regular-83"/><use x="646.344" xlink:href="#HelveticaWorld-Regular-116"/><use x="674.029" xlink:href="#HelveticaWorld-Regular-97"/><use x="728.961" xlink:href="#HelveticaWorld-Regular-99"/><use x="780.23" xlink:href="#HelveticaWorld-Regular-107"/><use x="830.23" xlink:href="#HelveticaWorld-Regular-79"/><use x="908.014" xlink:href="#HelveticaWorld-Regular-118"/><use x="955.623" xlink:href="#HelveticaWorld-Regular-101"/><use x="1011.043" xlink:href="#HelveticaWorld-Regular-114"/><use x="1045.111" xlink:href="#HelveticaWorld-Regular-102"/><use x="1072.797" xlink:href="#HelveticaWorld-Regular-108"/><use x="1094.818" xlink:href="#HelveticaWorld-Regular-111"/><use x="1149.227" xlink:href="#HelveticaWorld-Regular-119"/><use x="1221.639" xlink:href="#HelveticaWorld-Regular-32"/><use x="1246.053" xlink:href="#HelveticaWorld-Regular-65"/><use x="1312.752" xlink:href="#HelveticaWorld-Regular-80"/><use x="1377.4" xlink:href="#HelveticaWorld-Regular-73"/><use x="1403.182" xlink:href="#HelveticaWorld-Regular-32"/><use x="1427.596" xlink:href="#HelveticaWorld-Regular-124"/><use x="1453.572" xlink:href="#HelveticaWorld-Regular-32"/><use x="1477.986" xlink:href="#HelveticaWorld-Regular-65"/><use x="1543.686" xlink:href="#HelveticaWorld-Regular-117"/><use x="1598.471" xlink:href="#HelveticaWorld-Regular-116"/><use x="1626.156" xlink:href="#HelveticaWorld-Regular-104"/><use x="1681.332" xlink:href="#HelveticaWorld-Regular-111"/><use x="1737.24" xlink:href="#HelveticaWorld-Regular-114"/><use x="1772.809" xlink:href="#HelveticaWorld-Regular-58"/><use x="1795.592" xlink:href="#HelveticaWorld-Regular-32"/><use x="1820.006" xlink:href="#HelveticaWorld-Regular-78"/><use x="1893.102" xlink:href="#HelveticaWorld-Regular-105"/><use x="1915.123" xlink:href="#HelveticaWorld-Regular-99"/><use x="1966.393" xlink:href="#HelveticaWorld-Regular-111"/><use x="2022.301" xlink:href="#HelveticaWorld-Regular-32"/><use x="2046.715" xlink:href="#HelveticaWorld-Regular-83"/><use x="2112.926" xlink:href="#HelveticaWorld-Regular-99"/><use x="2164.195" xlink:href="#HelveticaWorld-Regular-104"/><use x="2219.371" xlink:href="#HelveticaWorld-Regular-108"/><use x="2241.393" xlink:href="#HelveticaWorld-Regular-246"/><use x="2297.301" xlink:href="#HelveticaWorld-Regular-109"/><use x="2380.309" xlink:href="#HelveticaWorld-Regular-101"/><use x="2435.729" xlink:href="#HelveticaWorld-Regular-114"/><use x="2468.297" xlink:href="#HelveticaWorld-Regular-32"/><use x="2492.711" xlink:href="#HelveticaWorld-Regular-124"/><use x="2518.688" xlink:href="#HelveticaWorld-Regular-32"/><use x="2543.102" xlink:href="#HelveticaWorld-Regular-76"/><use x="2598.717" xlink:href="#HelveticaWorld-Regular-105"/><use x="2620.738" xlink:href="#HelveticaWorld-Regular-99"/><use x="2672.008" xlink:href="#HelveticaWorld-Regular-101"/><use x="2727.428" xlink:href="#HelveticaWorld-Regular-110"/><use x="2782.604" xlink:href="#HelveticaWorld-Regular-115"/><use x="2832.604" xlink:href="#HelveticaWorld-Regular-101"/><use x="2888.023" xlink:href="#HelveticaWorld-Regular-58"/><use x="2910.807" xlink:href="#HelveticaWorld-Regular-32"/><use x="2935.221" xlink:href="#HelveticaWorld-Regular-67"/><use x="3007.535" xlink:href="#HelveticaWorld-Regular-67"/><use x="3079.85" xlink:href="#HelveticaWorld-Regular-32"/><use x="3104.264" xlink:href="#HelveticaWorld-Regular-66"/><use x="3167.076" xlink:href="#HelveticaWorld-Regular-89"/></g></g><g id="text_23"><defs><path d="M39.016 52.297h9.562L29.891.984q-.5-1.375-.985-2.593-4.25-11.329-7.328-15.547-3.078-4.235-9.953-4.235-3.61 0-5.906.782v8.015q2.484-.89 5.468-.89 3.22 0 4.704 2.03 1.5 2.032 4.421 9.938L.875 52.297h9.922L24.812 9.719H25z" id="HelveticaWorld-Regular-121"/><path d="M41.5 23.688q0 11.125-3.5 16.671-3.484 5.547-10.61 5.547-6.874 0-10.593-4.5-3.703-4.484-3.703-15.093 0-9.422 3.75-14.813 3.765-5.39 10.36-5.39 5.812 0 10.046 4.39 4.25 4.39 4.25 13.188zm8.406-44.391H41.11V5.516h-.187Q35.89-1.516 27-1.516q-10.984 0-17 8.157-6 8.156-6 21.047 0 11.421 5.906 18.765 5.922 7.36 15.875 7.36 9.907 0 15.625-8.891h.203v7.375h8.297z" id="HelveticaWorld-Regular-113"/></defs><g transform="matrix(.14 0 0 -.14 76.204 17.516)"><use xlink:href="#HelveticaWorld-Regular-68"/><use x="72.021" xlink:href="#HelveticaWorld-Regular-97"/><use x="126.953" xlink:href="#HelveticaWorld-Regular-105"/><use x="148.975" xlink:href="#HelveticaWorld-Regular-108"/><use x="170.996" xlink:href="#HelveticaWorld-Regular-121"/><use x="220.605" xlink:href="#HelveticaWorld-Regular-32"/><use x="245.02" xlink:href="#HelveticaWorld-Regular-110"/><use x="300.195" xlink:href="#HelveticaWorld-Regular-117"/><use x="354.98" xlink:href="#HelveticaWorld-Regular-109"/><use x="437.988" xlink:href="#HelveticaWorld-Regular-98"/><use x="494.482" xlink:href="#HelveticaWorld-Regular-101"/><use x="549.902" xlink:href="#HelveticaWorld-Regular-114"/><use x="582.471" xlink:href="#HelveticaWorld-Regular-32"/><use x="606.885" xlink:href="#HelveticaWorld-Regular-111"/><use x="662.793" xlink:href="#HelveticaWorld-Regular-102"/><use x="690.479" xlink:href="#HelveticaWorld-Regular-32"/><use x="714.893" xlink:href="#HelveticaWorld-Regular-113"/><use x="771.387" xlink:href="#HelveticaWorld-Regular-117"/><use x="826.172" xlink:href="#HelveticaWorld-Regular-101"/><use x="881.592" xlink:href="#HelveticaWorld-Regular-115"/><use x="931.592" xlink:href="#HelveticaWorld-Regular-116"/><use x="959.277" xlink:href="#HelveticaWorld-Regular-105"/><use x="981.299" xlink:href="#HelveticaWorld-Regular-111"/><use x="1037.207" xlink:href="#HelveticaWorld-Regular-110"/><use x="1092.383" xlink:href="#HelveticaWorld-Regular-115"/><use x="1142.383" xlink:href="#HelveticaWorld-Regular-32"/><use x="1166.797" xlink:href="#HelveticaWorld-Regular-111"/><use x="1222.705" xlink:href="#HelveticaWorld-Regular-110"/><use x="1277.881" xlink:href="#HelveticaWorld-Regular-32"/><use x="1302.295" xlink:href="#HelveticaWorld-Regular-83"/><use x="1368.506" xlink:href="#HelveticaWorld-Regular-116"/><use x="1396.191" xlink:href="#HelveticaWorld-Regular-97"/><use x="1451.123" xlink:href="#HelveticaWorld-Regular-99"/><use x="1502.393" xlink:href="#HelveticaWorld-Regular-107"/><use x="1552.393" xlink:href="#HelveticaWorld-Regular-79"/><use x="1630.176" xlink:href="#HelveticaWorld-Regular-118"/><use x="1677.785" xlink:href="#HelveticaWorld-Regular-101"/><use x="1733.205" xlink:href="#HelveticaWorld-Regular-114"/><use x="1767.273" xlink:href="#HelveticaWorld-Regular-102"/><use x="1794.959" xlink:href="#HelveticaWorld-Regular-108"/><use x="1816.98" xlink:href="#HelveticaWorld-Regular-111"/><use x="1871.389" xlink:href="#HelveticaWorld-Regular-119"/></g></g></g></g><defs><clipPath id="p9e11794ca4"><path d="M26.271 23.516h372v277.2h-372z"/></clipPath></defs></svg>