<svg height="489.243" viewBox="0 0 503.205 366.932" width="670.939" xmlns="http://www.w3.org/2000/svg" xmlns:xlink="http://www.w3.org/1999/xlink"><defs><style>*{stroke-linecap:butt;stroke-linejoin:round}</style></defs><g id="figure_1"><path d="M0 366.932h503.205V0H0z" style="fill:none" id="patch_1"/><g id="axes_1"><path d="M28.563 323.405h357.12V57.293H28.563z" style="fill:none" id="patch_2"/><g id="matplotlib.axis_1"><g id="xtick_1"><g id="line2d_1"><defs><path d="M0 0v3.5" id="m6a3626a423" style="stroke:#969696;stroke-width:.4"/></defs><use style="fill:#969696;stroke:#969696;stroke-width:.4" x="63.366" xlink:href="#m6a3626a423" y="323.405"/></g><g style="fill:#969696" transform="matrix(.14 0 0 -.14 49.002 340.345)" id="text_1"><defs><path d="M2944 0v467H1075v13l333 307c877 845 1434 1466 1434 2234 0 595-378 1209-1274 1209-480 0-890-179-1178-422l180-397c192 160 505 352 883 352 621 0 825-390 825-813-6-627-486-1164-1548-2176L288 346V0h2656z" id="MyriadPro-Regular-32" transform="scale(.01563)"/><path d="M1677 4230c-845 0-1447-768-1447-2163C243 691 794-70 1606-70c922 0 1447 780 1447 2195 0 1325-499 2105-1376 2105zm-32-435c582 0 845-672 845-1696 0-1062-276-1734-852-1734-512 0-844 614-844 1696 0 1133 358 1734 851 1734z" id="MyriadPro-Regular-30" transform="scale(.01563)"/><path d="M1510 0h544v4160h-480l-908-486 108-429 724 390h12V0z" id="MyriadPro-Regular-31" transform="scale(.01563)"/></defs><use xlink:href="#MyriadPro-Regular-32"/><use x="51.3" xlink:href="#MyriadPro-Regular-30"/><use x="102.6" xlink:href="#MyriadPro-Regular-31"/><use x="153.9" xlink:href="#MyriadPro-Regular-30"/></g></g><g id="xtick_2"><use style="fill:#969696;stroke:#969696;stroke-width:.4" x="118.002" xlink:href="#m6a3626a423" y="323.405" id="line2d_2"/><g style="fill:#969696" transform="matrix(.14 0 0 -.14 103.639 340.345)" id="text_2"><use xlink:href="#MyriadPro-Regular-32"/><use x="51.3" xlink:href="#MyriadPro-Regular-30"/><use x="102.6" xlink:href="#MyriadPro-Regular-31"/><use x="153.9" xlink:href="#MyriadPro-Regular-32"/></g></g><g id="xtick_3"><use style="fill:#969696;stroke:#969696;stroke-width:.4" x="172.713" xlink:href="#m6a3626a423" y="323.405" id="line2d_3"/><g style="fill:#969696" transform="matrix(.14 0 0 -.14 158.35 340.345)" id="text_3"><defs><path d="M2560 0v1133h582v441h-582v2586h-608L96 1504v-371h1933V0h531zM666 1574v13l1017 1415c115 192 218 371 346 614h19c-13-218-19-435-19-653V1574H666z" id="MyriadPro-Regular-34" transform="scale(.01563)"/></defs><use xlink:href="#MyriadPro-Regular-32"/><use x="51.3" xlink:href="#MyriadPro-Regular-30"/><use x="102.6" xlink:href="#MyriadPro-Regular-31"/><use x="153.9" xlink:href="#MyriadPro-Regular-34"/></g></g><g id="xtick_4"><use style="fill:#969696;stroke:#969696;stroke-width:.4" x="227.349" xlink:href="#m6a3626a423" y="323.405" id="line2d_4"/><g style="fill:#969696" transform="matrix(.14 0 0 -.14 212.986 340.345)" id="text_4"><defs><path d="M2662 4224c-102 0-243-6-409-32-525-64-986-275-1331-614-410-410-704-1056-704-1876C218 621 800-70 1690-70c864 0 1382 704 1382 1465 0 813-518 1344-1254 1344-461 0-807-217-1005-480h-19c96 685 563 1331 1446 1479 160 25 307 32 422 25v461zM1690 365c-589 0-903 505-916 1190 0 103 26 186 64 250 154 301 468 512 807 512 518 0 857-359 857-954s-326-998-806-998h-6z" id="MyriadPro-Regular-36" transform="scale(.01563)"/></defs><use xlink:href="#MyriadPro-Regular-32"/><use x="51.3" xlink:href="#MyriadPro-Regular-30"/><use x="102.6" xlink:href="#MyriadPro-Regular-31"/><use x="153.9" xlink:href="#MyriadPro-Regular-36"/></g></g><g id="xtick_5"><use style="fill:#969696;stroke:#969696;stroke-width:.4" x="282.06" xlink:href="#m6a3626a423" y="323.405" id="line2d_5"/><g style="fill:#969696" transform="matrix(.14 0 0 -.14 267.697 340.345)" id="text_5"><defs><path d="M1062 2170c-512-218-825-589-825-1114C237 448 762-70 1632-70c794 0 1414 486 1414 1209 0 506-320 871-838 1075v20c512 243 685 620 685 972 0 519-403 1024-1210 1024-729 0-1286-448-1286-1107 0-358 198-717 659-934l6-19zm583-1831c-531 0-851 371-832 794 0 397 262 717 749 857 563-160 915-403 915-908 0-423-327-743-832-743zm6 3488c506 0 704-345 704-678 0-378-275-634-633-755-480 128-794 352-794 768 0 358 256 665 723 665z" id="MyriadPro-Regular-38" transform="scale(.01563)"/></defs><use xlink:href="#MyriadPro-Regular-32"/><use x="51.3" xlink:href="#MyriadPro-Regular-30"/><use x="102.6" xlink:href="#MyriadPro-Regular-31"/><use x="153.9" xlink:href="#MyriadPro-Regular-38"/></g></g><g id="xtick_6"><use style="fill:#969696;stroke:#969696;stroke-width:.4" x="336.696" xlink:href="#m6a3626a423" y="323.405" id="line2d_6"/><g style="fill:#969696" transform="matrix(.14 0 0 -.14 322.333 340.345)" id="text_6"><use xlink:href="#MyriadPro-Regular-32"/><use x="51.3" xlink:href="#MyriadPro-Regular-30"/><use x="102.6" xlink:href="#MyriadPro-Regular-32"/><use x="153.9" xlink:href="#MyriadPro-Regular-30"/></g></g></g><g id="matplotlib.axis_2"><g id="ytick_1"><path clip-path="url(#p9cf92ed018)" d="M28.563 323.405h357.12" style="fill:none;stroke:#969696;stroke-linecap:square;stroke-width:.3" id="line2d_7"/><g id="line2d_8"><defs><path d="M0 0h-3.5" id="m92cc78f5d3" style="stroke:#969696;stroke-width:.3"/></defs><use style="fill:#969696;stroke:#969696;stroke-width:.3" x="28.563" xlink:href="#m92cc78f5d3" y="323.405"/></g><use xlink:href="#MyriadPro-Regular-30" style="fill:#969696" transform="matrix(.14 0 0 -.14 14.382 328.375)" id="text_7"/></g><g id="ytick_2"><path clip-path="url(#p9cf92ed018)" d="M28.563 272.164h357.12" style="fill:none;stroke:#969696;stroke-linecap:square;stroke-width:.3" id="line2d_9"/><use style="fill:#969696;stroke:#969696;stroke-width:.3" x="28.563" xlink:href="#m92cc78f5d3" y="272.164" id="line2d_10"/><g style="fill:#969696" transform="matrix(.14 0 0 -.14 14.382 277.134)" id="text_8"><defs><path d="M2771 4160H781L512 2163c154 19 339 45 576 45 832 0 1190-384 1197-922 0-556-455-902-986-902-377 0-717 128-889 230L269 186C467 58 851-70 1306-70c902 0 1548 608 1548 1420 0 525-268 884-595 1069-256 154-576 224-896 224-153 0-243-13-339-25l160 1068h1587v474z" id="MyriadPro-Regular-35" transform="scale(.01563)"/></defs><use xlink:href="#MyriadPro-Regular-35"/></g></g><g id="ytick_3"><path clip-path="url(#p9cf92ed018)" d="M28.563 220.923h357.12" style="fill:none;stroke:#969696;stroke-linecap:square;stroke-width:.3" id="line2d_11"/><use style="fill:#969696;stroke:#969696;stroke-width:.3" x="28.563" xlink:href="#m92cc78f5d3" y="220.923" id="line2d_12"/><g style="fill:#969696" transform="matrix(.14 0 0 -.14 7.2 225.893)" id="text_9"><use xlink:href="#MyriadPro-Regular-31"/><use x="51.3" xlink:href="#MyriadPro-Regular-30"/></g></g><g id="ytick_4"><path clip-path="url(#p9cf92ed018)" d="M28.563 169.682h357.12" style="fill:none;stroke:#969696;stroke-linecap:square;stroke-width:.3" id="line2d_13"/><use style="fill:#969696;stroke:#969696;stroke-width:.3" x="28.563" xlink:href="#m92cc78f5d3" y="169.682" id="line2d_14"/><g style="fill:#969696" transform="matrix(.14 0 0 -.14 7.2 174.652)" id="text_10"><use xlink:href="#MyriadPro-Regular-31"/><use x="51.3" xlink:href="#MyriadPro-Regular-35"/></g></g><g id="ytick_5"><path clip-path="url(#p9cf92ed018)" d="M28.563 118.44h357.12" style="fill:none;stroke:#969696;stroke-linecap:square;stroke-width:.3" id="line2d_15"/><use style="fill:#969696;stroke:#969696;stroke-width:.3" x="28.563" xlink:href="#m92cc78f5d3" y="118.441" id="line2d_16"/><g style="fill:#969696" transform="matrix(.14 0 0 -.14 7.2 123.41)" id="text_11"><use xlink:href="#MyriadPro-Regular-32"/><use x="51.3" xlink:href="#MyriadPro-Regular-30"/></g></g><g id="ytick_6"><path clip-path="url(#p9cf92ed018)" d="M28.563 67.2h357.12" style="fill:none;stroke:#969696;stroke-linecap:square;stroke-width:.3" id="line2d_17"/><use style="fill:#969696;stroke:#969696;stroke-width:.3" x="28.563" xlink:href="#m92cc78f5d3" y="67.2" id="line2d_18"/><g style="fill:#969696" transform="matrix(.14 0 0 -.14 7.2 72.17)" id="text_12"><use xlink:href="#MyriadPro-Regular-32"/><use x="51.3" xlink:href="#MyriadPro-Regular-35"/></g></g></g><path clip-path="url(#p9cf92ed018)" d="m28.563 283.053 1.76 10.269 2.282 5.829 2.282-2.523 2.32-2.315 2.209-11.9 2.206-5.29 2.284-.518 2.283-2.457 2.283-9.84 2.282-7.351 2.32-5.62 2.283 8.53 2.285-2.91 2.28 3.25 2.284-2.92 2.32-.33 2.208-7.485 2.206.873 2.284-10.975 2.283 2.71 2.283-.66 2.282 4.958 2.32-19.835 2.283-2.546 2.285 10.15 2.28-10.15 2.284 5.19 2.32-17.52 2.208-6.482 2.206-7.734 2.284 6.392 2.283-8.375 2.283-1.874 2.283-.11 2.32-26.777 2.282 21.763 2.285 1.378 2.281-1.036 2.283 10.623 2.32-20.497 2.245-23.745 2.244 13.167 2.284-2.777 2.283-2.513 2.283-9.102 2.282 4.804 2.32-5.95 2.283 7.978 2.285-16.573 2.28 17.256 2.284 31.34 2.32-34.05 2.208-15.81 2.206 14.157 2.284-10.667 2.283 4.055 2.283 6.193 2.283-5.201 4.602 9.642 2.285-9.973 2.281-9.157 2.283 25.686 2.32-13.554 2.208-7.52 2.206 8.181 2.284 20.684 2.283 6.755 2.283 19.89 2.283-11.956 2.32-.66 2.283 15.35 2.284 5.807 2.281-24.596 2.283 10.711 2.32-4.628 2.208 11.193 2.206-.945 2.284 2.116 2.283 16.728 2.283-12.97 2.283-4.882 2.32-11.24 2.283 21.587 2.284 14.777 2.281-4.529 2.283 16.43 2.32 8.596 2.245-.536 2.244-9.712 2.284-5.213 2.283 14.47 2.283 2.952 2.283-3.614 2.32-1.653 2.283 6.292 2.284 13.543 2.281-1.587 2.283.596 2.32-16.2 2.208 10.26 2.206-1.003 2.285 10.447 2.282-7.14 2.283-2.767 2.283 6.072 2.32-1.322 2.283 1.74 2.284 10.16 2.281-7.426 2.283 11.394 2.32-9.918 2.208.378 2.206 14.83 2.285-8.144 2.282-1.113 2.283 9.995 2.283.584 2.32-12.893 2.283 6.501 2.284-9.146 2.281 13.929 2.283-.375 2.32-2.314 2.208-7.462 2.206 6.47 2.285-4.518 2.282 8.485 2.283.055 2.283-2.7 2.32.662 2.283 2.38 2.284-8 2.281 13.466 2.283 2.071 2.32-3.967 2.246-4.206 2.243 4.537 2.285.54 4.565 7.515 2.283-1.774 2.32 4.298 2.283 1.575 2.284-.584 2.281 6.733 2.283-.12 2.32 2.313 2.208-7.048 2.206 6.387 2.285 4.617 2.282-.65 2.283.65 2.283-1.642 2.32.992 2.283-.716 2.284 3.36h0" style="fill:none;stroke:#8c564b;stroke-linecap:square;stroke-width:1.5" id="line2d_19"/><path clip-path="url(#p9cf92ed018)" d="m89.524 323.405 2.32-.33 2.208.33h22.79l2.32-.33 2.245.33 2.244-.33 2.284.33h2.283l2.283-.341 2.282.341h22.753l2.283-.341 2.283.01 2.32.331h6.848l2.283-.33h2.32l2.208.33 2.206-.33 2.284.33 2.283-.33 2.283.33h9.17l2.281-.341 2.283.341h2.32l2.208-.366 2.206.036 2.284-1.036 2.283-1.94 2.283-3.868 2.283-8.694 2.32-21.488 2.283 13.102 2.284.121 2.281 4.32 2.283.97 2.32-2.976 2.245 4.15 2.244-1.836 2.284 2.083 2.283-.099 2.283-4.342 2.283 3.68 2.32.662 2.283-4.342 2.284 3.68 2.281-2.313 2.283 5.62 2.32-.33 2.208-2.362 2.206.378 2.285-1.598 2.282 1.598 2.283 2.16 2.283-4.475 2.32.662 2.283-3.703 2.284 3.041 2.281-3.383 2.283 10.656 2.32-7.273 2.208 1.57 2.206-3.884 2.285 6.105 2.282-2.468 2.283 1.443 2.283-2.104 2.32-5.29 2.283-2.854 2.284.54 2.281 6.292 2.283 7.262 2.32-12.232 2.208 3.897 2.206-1.252 2.285 6.425 2.282.187 2.283-1.554 2.283-4.397 2.32 3.967 2.283 1.113 2.284-6.733 2.281 2.976 2.283.33 2.32-4.628 2.246-1.003 2.243 4.97 2.285-5.477 2.282 3.494 2.283-.76 2.283 4.727 2.32 4.297 2.283-2.193 2.284 3.516 2.281-.1 2.283-.231 2.32-.661 2.208-2.621 2.206-.024 2.285.121 2.282.87 2.283.155 2.283 2.49 2.32-1.652 2.283 3.945 2.284-2.954h0" style="fill:none;stroke:#9467bd;stroke-linecap:square;stroke-width:1.5" id="line2d_20"/><path clip-path="url(#p9cf92ed018)" d="m43.906 323.405 2.283-.33 2.283.33 2.282-.33 2.32.33h6.849l2.283-.661h2.32l2.208.295 2.206.036 2.284.33 2.283-.33 2.283-.695 2.282.033 2.32-.33 4.568.66 4.564-1.321 2.32 1.322 2.208-1.535 2.206-1.11 2.284.915 2.283-.584 2.283-1.466 2.283 1.796 2.32-.33 2.282-.44 2.285.11 2.281.914 2.283-2.568 2.32 2.976 2.245-.137 2.244-4.822 2.284 2.843 2.283.793 2.283-1.135 2.282-2.832 2.32 2.314 2.283-.507 2.285 1.5 2.28-2.866 2.284-1.433 2.32 3.306 2.208 1.299 2.206-2.952 2.284.463 2.283 1.52 4.566-4.297 2.32.992 2.282 3.152 2.285-.838 2.281-2.578 2.283-1.72 2.32 2.645 2.208-1.877 2.206.885 2.284-1.641 2.283 3.625 2.283-1.234 2.283 2.226 2.32-.661 2.283-1.565 2.284 1.565 2.281-.54 2.283.54 2.32.33 2.208.13 2.206-4.428 2.284 2.061 2.283.254 2.283-2.645 2.283 1.983 2.32.331 2.283 2.127 2.284-.143 2.281-1.565 2.283-.088 2.32 1.322 2.245-2.554 2.244-1.744 2.284 2.722 2.283-2.06 2.283 1.377 2.283-.386 2.32-1.983 2.283 3.394 2.284 1.895 2.281-.87 2.283-3.097 2.32-.992 2.208-1.5 2.206 2.492 2.285 4.805 2.282-5.797 2.283 2.722 2.283-1.73 2.32-3.636 2.283 2.292 2.284.352 2.281-1.036 2.283.706 2.32-.661 2.208 4.982 2.206-4.321 2.285-.022 2.282-.309 2.283-5.499 2.283 4.507 2.32-1.322 2.283 5.014 2.284-5.345 2.281.22 2.283 4.74 2.32-1.984 2.208-8.49 2.206 1.547 2.285.089 2.282 6.523 2.283-2.766 2.283-2.523 2.32-.33 2.283-1.588 2.284-1.058 2.281 1.058 2.283 4.562 2.32-11.9 2.246 4.229 2.243 2.713 2.285-7.46 2.282-4.11 2.283 5.817 2.283-1.19 2.32 2.645 2.283 1.961 2.284-1.961 2.281-1.796 2.283 8.408 2.32-9.257 2.208 1.63 2.206 4.32 2.285-3.052 2.282 1.4 2.283-2.424 2.283 4.738 2.32-1.983 2.283 2.369 2.284 1.267h0" style="fill:none;stroke:#d62728;stroke-linecap:square;stroke-width:1.5" id="line2d_21"/><g style="fill:#1f77b4" transform="matrix(.14 0 0 -.14 396.397 180.461)" id="text_13"><defs><path d="M3110 2246c0 378 13 628 26 852h-493l-25-468h-13c-135 256-429 538-967 538-710 0-1395-595-1395-1645C243 666 794 13 1562 13c480 0 812 230 985 518h13V186c0-781-422-1082-998-1082-384 0-704 115-909 243l-141-429c250-166 659-256 1030-256 391 0 826 90 1127 372 301 268 441 704 441 1414v1798zm-556-928c0-96-13-204-45-300-122-359-435-576-781-576-608 0-915 505-915 1113 0 717 384 1171 921 1171 410 0 685-268 788-595 25-77 32-160 32-256v-557z" id="MyriadPro-Regular-67" transform="scale(.01563)"/><path d="M1779 3168c-857 0-1536-608-1536-1645C243 544 890-70 1728-70c749 0 1542 499 1542 1644 0 948-601 1594-1491 1594zm-13-422c666 0 928-666 928-1191 0-697-403-1203-940-1203-551 0-941 512-941 1190 0 589 288 1204 953 1204z" id="MyriadPro-Regular-6f" transform="scale(.01563)"/><path d="M467 0h563v4544H467V0z" id="MyriadPro-Regular-6c" transform="scale(.01563)"/><path d="M2957 1446c6 58 19 148 19 263 0 569-269 1459-1280 1459-902 0-1453-736-1453-1670C243 563 813-70 1766-70c493 0 832 108 1031 198l-96 403c-211-89-455-160-858-160-563 0-1049 314-1062 1075h2176zM787 1850c45 390 295 915 864 915 634 0 787-557 781-915H787z" id="MyriadPro-Regular-65" transform="scale(.01563)"/><path d="M192 1939v-416h1581v416H192z" id="MyriadPro-Regular-2d" transform="scale(.01563)"/><path d="M2579 538c-160-71-371-154-691-154-614 0-1075 442-1075 1158 0 647 384 1172 1094 1172 307 0 519-71 653-148l128 436c-154 76-448 160-781 160-1011 0-1664-692-1664-1645C243 570 851-70 1786-70c416 0 742 108 889 185l-96 423z" id="MyriadPro-Regular-63" transform="scale(.01563)"/><path d="M467 0h563v1869c0 109 7 192 39 269 102 307 390 563 755 563 531 0 717-423 717-922V0h563v1843c0 1069-666 1325-1082 1325-211 0-409-64-576-160-172-96-313-237-403-397h-13v1933H467V0z" id="MyriadPro-Regular-68" transform="scale(.01563)"/><path d="M467 0h557v1651c0 96 13 186 26 263 76 422 358 723 755 723 77 0 134-7 192-19v531c-51 13-96 19-160 19-378 0-717-262-858-678h-25l-20 608H442c19-288 25-602 25-967V0z" id="MyriadPro-Regular-72" transform="scale(.01563)"/><path d="M467 0h551v1869c0 96 12 192 44 275 90 282 346 563 698 563 429 0 646-358 646-851V0h551v1914c0 102 19 204 45 281 96 275 345 512 665 512 455 0 672-358 672-953V0h551v1824c0 1075-608 1344-1018 1344-294 0-499-77-685-218-128-96-249-230-345-403h-13c-135 365-455 621-877 621-512 0-800-275-973-570h-19l-26 500H442c19-256 25-519 25-839V0z" id="MyriadPro-Regular-6d" transform="scale(.01563)"/></defs><use xlink:href="#MyriadPro-Regular-67"/><use x="55.9" xlink:href="#MyriadPro-Regular-6f"/><use x="110.8" xlink:href="#MyriadPro-Regular-6f"/><use x="165.7" xlink:href="#MyriadPro-Regular-67"/><use x="221.6" xlink:href="#MyriadPro-Regular-6c"/><use x="245.2" xlink:href="#MyriadPro-Regular-65"/><use x="295.3" xlink:href="#MyriadPro-Regular-2d"/><use x="326" xlink:href="#MyriadPro-Regular-63"/><use x="370.8" xlink:href="#MyriadPro-Regular-68"/><use x="426.3" xlink:href="#MyriadPro-Regular-72"/><use x="459" xlink:href="#MyriadPro-Regular-6f"/><use x="513.9" xlink:href="#MyriadPro-Regular-6d"/><use x="597.3" xlink:href="#MyriadPro-Regular-65"/></g><g style="fill:#ff7f0e" transform="matrix(.14 0 0 -.14 396.397 273.402)" id="text_14"><defs><path d="M1082 0v2669h748v429h-748v166c0 474 121 896 601 896 160 0 275-32 359-70l76 435c-108 45-281 89-480 89-262 0-544-83-755-288-262-249-358-646-358-1081v-147H90v-429h435V0h557z" id="MyriadPro-Regular-66" transform="scale(.01563)"/><path d="M1030 0v3098H467V0h563zM749 4320c-205 0-352-154-352-352 0-192 141-346 339-346 224 0 365 154 358 346 0 198-134 352-345 352z" id="MyriadPro-Regular-69" transform="scale(.01563)"/><path d="m102 3098 1050-1517L51 0h621l448 698c115 185 224 345 326 537h13c109-185 211-358 333-537L2246 0h640L1798 1600l1056 1498h-608l-435-660c-102-166-205-326-307-512h-19c-103 173-199 333-314 506l-441 666H102z" id="MyriadPro-Regular-78" transform="scale(.01563)"/></defs><use xlink:href="#MyriadPro-Regular-66"/><use x="29.2" xlink:href="#MyriadPro-Regular-69"/><use x="52.6" xlink:href="#MyriadPro-Regular-72"/><use x="85.3" xlink:href="#MyriadPro-Regular-65"/><use x="135.4" xlink:href="#MyriadPro-Regular-66"/><use x="164.6" xlink:href="#MyriadPro-Regular-6f"/><use x="219.5" xlink:href="#MyriadPro-Regular-78"/></g><g style="fill:#2ca02c" transform="matrix(.14 0 0 -.14 396.397 287.402)" id="text_15"><defs><path d="M250 147C467 19 781-70 1120-70c736 0 1158 390 1158 934 0 461-275 730-812 934-404 154-589 269-589 525 0 231 185 423 518 423 288 0 512-103 634-180l141 410c-173 102-448 192-762 192-666 0-1069-410-1069-909 0-371 263-678 819-877 416-153 576-300 576-569 0-256-192-461-601-461-282 0-576 115-743 224L250 147z" id="MyriadPro-Regular-73" transform="scale(.01563)"/><path d="M2643 1901c0 621-230 1267-1177 1267-391 0-762-109-1018-275l128-371c218 140 518 230 806 230 634 0 704-461 704-717v-64C890 1978 224 1568 224 819c0-448 320-889 947-889 442 0 775 217 947 460h20l44-390h512c-38 211-51 474-51 742v1159zm-544-858c0-57-13-121-32-179-89-262-345-518-749-518-288 0-531 172-531 537 0 602 698 711 1312 698v-538z" id="MyriadPro-Regular-61" transform="scale(.01563)"/></defs><use xlink:href="#MyriadPro-Regular-73"/><use x="39.6" xlink:href="#MyriadPro-Regular-61"/><use x="87.8" xlink:href="#MyriadPro-Regular-66"/><use x="117" xlink:href="#MyriadPro-Regular-61"/><use x="165.2" xlink:href="#MyriadPro-Regular-72"/><use x="197.9" xlink:href="#MyriadPro-Regular-69"/></g><g style="fill:#d62728" transform="matrix(.14 0 0 -.14 396.397 301.402)" id="text_16"><defs><path d="M3059 3098h-563V1197c0-103-19-205-51-288-103-250-365-512-743-512-512 0-691 397-691 985v1716H448V1286C448 198 1030-70 1517-70c550 0 877 326 1024 576h13l32-506h499c-19 243-26 525-26 845v2253z" id="MyriadPro-Regular-75" transform="scale(.01563)"/></defs><use xlink:href="#MyriadPro-Regular-63"/><use x="44.8" xlink:href="#MyriadPro-Regular-68"/><use x="100.3" xlink:href="#MyriadPro-Regular-72"/><use x="133" xlink:href="#MyriadPro-Regular-6f"/><use x="187.9" xlink:href="#MyriadPro-Regular-6d"/><use x="271.3" xlink:href="#MyriadPro-Regular-69"/><use x="294.7" xlink:href="#MyriadPro-Regular-75"/><use x="349.8" xlink:href="#MyriadPro-Regular-6d"/></g><g style="fill:#9467bd" transform="matrix(.14 0 0 -.14 396.397 315.4)" id="text_17"><defs><path d="M595 3667v-569H115v-429h480V979c0-365 58-640 218-806C947 19 1158-70 1421-70c217 0 390 38 499 83l-26 422c-83-25-172-38-326-38-314 0-422 217-422 601v1671h806v429h-806v742l-551-173z" id="MyriadPro-Regular-74" transform="scale(.01563)"/><path d="M2579 4544V2694h-13c-140 250-460 474-934 474-755 0-1395-634-1389-1664C243 563 819-70 1568-70c506 0 883 262 1056 608h13l25-538h506c-19 211-26 525-26 800v3744h-563zm0-3245c0-89-6-166-25-243-103-422-448-672-826-672-608 0-915 518-915 1146 0 684 345 1196 928 1196 422 0 729-294 813-652 19-71 25-167 25-237v-538z" id="MyriadPro-Regular-64" transform="scale(.01563)"/></defs><use xlink:href="#MyriadPro-Regular-6d"/><use x="83.4" xlink:href="#MyriadPro-Regular-69"/><use x="106.8" xlink:href="#MyriadPro-Regular-63"/><use x="151.6" xlink:href="#MyriadPro-Regular-72"/><use x="184.3" xlink:href="#MyriadPro-Regular-6f"/><use x="239.2" xlink:href="#MyriadPro-Regular-73"/><use x="278.8" xlink:href="#MyriadPro-Regular-6f"/><use x="333.7" xlink:href="#MyriadPro-Regular-66"/><use x="362.9" xlink:href="#MyriadPro-Regular-74"/><use x="396" xlink:href="#MyriadPro-Regular-2d"/><use x="426.7" xlink:href="#MyriadPro-Regular-65"/><use x="476.8" xlink:href="#MyriadPro-Regular-64"/><use x="533.2" xlink:href="#MyriadPro-Regular-67"/><use x="589.1" xlink:href="#MyriadPro-Regular-65"/></g><g style="fill:#8c564b" transform="matrix(.14 0 0 -.14 396.397 329.402)" id="text_18"><defs><path d="M467 0h563v1862c0 96 13 192 39 263 96 313 384 576 755 576 531 0 717-416 717-915V0h563v1850c0 1062-666 1318-1094 1318-512 0-871-288-1024-582h-13l-32 512H442c19-256 25-519 25-839V0z" id="MyriadPro-Regular-6e" transform="scale(.01563)"/><path d="M467-1267h557V416h13c185-307 544-486 953-486 730 0 1408 550 1408 1664 0 940-563 1574-1312 1574-505 0-870-224-1100-602h-13l-26 532H442c12-295 25-615 25-1012v-3353zm557 3059c0 77 19 160 38 230 109 423 468 698 852 698 595 0 921-531 921-1152 0-710-345-1197-941-1197-403 0-742 269-844 659-13 71-26 148-26 231v531z" id="MyriadPro-Regular-70" transform="scale(.01563)"/></defs><use xlink:href="#MyriadPro-Regular-69"/><use x="23.4" xlink:href="#MyriadPro-Regular-6e"/><use x="78.9" xlink:href="#MyriadPro-Regular-74"/><use x="112" xlink:href="#MyriadPro-Regular-65"/><use x="162.1" xlink:href="#MyriadPro-Regular-72"/><use x="194.8" xlink:href="#MyriadPro-Regular-6e"/><use x="250.3" xlink:href="#MyriadPro-Regular-65"/><use x="300.4" xlink:href="#MyriadPro-Regular-74"/><use x="333.5" xlink:href="#MyriadPro-Regular-2d"/><use x="364.2" xlink:href="#MyriadPro-Regular-65"/><use x="414.3" xlink:href="#MyriadPro-Regular-78"/><use x="460.6" xlink:href="#MyriadPro-Regular-70"/><use x="517.5" xlink:href="#MyriadPro-Regular-6c"/><use x="541.1" xlink:href="#MyriadPro-Regular-6f"/><use x="596" xlink:href="#MyriadPro-Regular-72"/><use x="628.7" xlink:href="#MyriadPro-Regular-65"/><use x="678.8" xlink:href="#MyriadPro-Regular-72"/></g><g style="fill:#969696" transform="matrix(.09716 0 0 -.09716 28.563 357.303)" id="text_19"><defs><path d="M269 211C499 58 954-70 1370-70c1017 0 1510 582 1510 1248 0 633-371 985-1101 1267-595 230-857 429-857 832 0 294 224 646 812 646 391 0 679-128 820-205l153 455c-192 109-512 211-953 211-839 0-1396-499-1396-1171 0-608 436-973 1140-1223 582-224 812-454 812-857 0-435-332-736-902-736-384 0-749 128-998 281L269 211z" id="MyriadPro-Regular-53" transform="scale(.01563)"/><path d="M1024 4544H467V0h557v1165l288 320L2381 0h685L1702 1824l1197 1274h-678l-909-1069c-90-109-198-243-275-352h-13v2867z" id="MyriadPro-Regular-6b" transform="scale(.01563)"/><path d="M2234 4384c-1152 0-2004-896-2004-2266C230 813 1030-70 2170-70c1100 0 2003 787 2003 2272 0 1280-762 2182-1939 2182zm-26-454c928 0 1376-896 1376-1754 0-979-499-1792-1382-1792-877 0-1376 826-1376 1747 0 947 460 1799 1382 1799z" id="MyriadPro-Regular-4f" transform="scale(.01563)"/><path d="M83 3098 1261 0h537l1216 3098h-588l-602-1741c-102-282-192-538-262-794h-20c-64 256-147 512-249 794L685 3098H83z" id="MyriadPro-Regular-76" transform="scale(.01563)"/><path d="M115 3098 1050 0h512l499 1472c109 333 205 653 281 1024h13c77-365 167-672 275-1018L3104 0h512l998 3098h-556l-442-1556c-102-364-186-691-237-1004h-19c-70 313-160 640-275 1011l-480 1549h-474l-505-1575c-103-339-205-672-276-985h-19c-57 320-141 640-230 985L691 3098H115z" id="MyriadPro-Regular-77" transform="scale(.01563)"/><path d="M2714 1357 3174 0h596L2298 4314h-672L160 0h576l448 1357h1530zm-1415 435 423 1248c83 262 153 525 217 781h13c64-250 128-506 224-787l422-1242H1299z" id="MyriadPro-Regular-41" transform="scale(.01563)"/><path d="M486 0h557v1728c128-32 282-38 448-38 544 0 1024 160 1319 473 217 224 332 531 332 922 0 384-140 697-377 902-256 231-659 359-1210 359-448 0-800-39-1069-84V0zm557 3859c96 26 282 45 525 45 614 0 1018-275 1018-845 0-595-410-921-1082-921-186 0-339 12-461 44v1677z" id="MyriadPro-Regular-50" transform="scale(.01563)"/><path d="M486 4314V0h557v4314H486z" id="MyriadPro-Regular-49" transform="scale(.01563)"/><path d="M550 4800v-6400h429v6400H550z" id="MyriadPro-Regular-7c" transform="scale(.01563)"/><path d="M1011 0v1843c0 717-13 1235-45 1779l20 7c217-467 505-960 806-1440L3162 0h563v4314h-525V2509c0-672 13-1197 64-1773l-13-6c-205 441-454 896-774 1401L1094 4314H486V0h525z" id="MyriadPro-Regular-4e" transform="scale(.01563)"/><path d="M1165 3648c185 0 313 154 313 326 0 186-134 327-313 327s-327-147-327-327c0-172 135-326 320-326h7zm1184 0c185 0 313 154 313 326 0 186-134 327-313 327s-320-147-320-327c0-172 128-326 313-326h7zm-570-480c-857 0-1536-608-1536-1645C243 544 890-70 1728-70c749 0 1542 499 1542 1644 0 948-601 1594-1491 1594zm-13-422c666 0 928-666 928-1191 0-697-403-1203-940-1203-551 0-941 512-941 1190 0 589 288 1204 953 1204z" id="MyriadPro-Regular-f6" transform="scale(.01563)"/><path d="M3386 582c-224-108-570-179-909-179-1050 0-1658 679-1658 1735 0 1132 672 1779 1683 1779 359 0 660-77 871-179l134 454c-147 77-486 192-1024 192-1337 0-2253-915-2253-2266C230 704 1146-70 2362-70c524 0 934 108 1139 211l-115 441z" id="MyriadPro-Regular-43" transform="scale(.01563)"/><path d="M486 13c186-26 480-51 864-51 704 0 1191 128 1492 403 217 211 364 493 364 864 0 640-480 979-889 1081v13c454 167 729 531 729 947 0 340-134 596-358 762-269 218-627 314-1184 314-390 0-774-39-1018-90V13zm557 3865c90 20 237 39 493 39 563 0 947-199 947-704 0-416-345-723-934-723h-506v1388zm0-1811h461c608 0 1114-243 1114-832 0-627-532-838-1108-838-198 0-358 6-467 25v1645z" id="MyriadPro-Regular-42" transform="scale(.01563)"/><path d="M2010 0v1837l1446 2477h-634l-620-1191c-167-326-314-608-436-889h-12c-135 300-263 563-429 889L717 4314H83l1363-2484V0h564z" id="MyriadPro-Regular-59" transform="scale(.01563)"/></defs><use xlink:href="#MyriadPro-Regular-53"/><use x="49.3" xlink:href="#MyriadPro-Regular-74"/><use x="82.4" xlink:href="#MyriadPro-Regular-61"/><use x="130.6" xlink:href="#MyriadPro-Regular-63"/><use x="175.4" xlink:href="#MyriadPro-Regular-6b"/><use x="222.3" xlink:href="#MyriadPro-Regular-4f"/><use x="291.2" xlink:href="#MyriadPro-Regular-76"/><use x="339.3" xlink:href="#MyriadPro-Regular-65"/><use x="389.4" xlink:href="#MyriadPro-Regular-72"/><use x="422.1" xlink:href="#MyriadPro-Regular-66"/><use x="451.3" xlink:href="#MyriadPro-Regular-6c"/><use x="474.9" xlink:href="#MyriadPro-Regular-6f"/><use x="529.8" xlink:href="#MyriadPro-Regular-77"/><use x="603.4" xlink:href="#MyriadPro-Regular-20"/><use x="624.6" xlink:href="#MyriadPro-Regular-41"/><use x="685.8" xlink:href="#MyriadPro-Regular-50"/><use x="739" xlink:href="#MyriadPro-Regular-49"/><use x="762.9" xlink:href="#MyriadPro-Regular-20"/><use x="784.1" xlink:href="#MyriadPro-Regular-76"/><use x="832.2" xlink:href="#MyriadPro-Regular-69"/><use x="855.6" xlink:href="#MyriadPro-Regular-61"/><use x="903.8" xlink:href="#MyriadPro-Regular-20"/><use x="925" xlink:href="#MyriadPro-Regular-73"/><use x="964.6" xlink:href="#MyriadPro-Regular-74"/><use x="997.7" xlink:href="#MyriadPro-Regular-61"/><use x="1045.9" xlink:href="#MyriadPro-Regular-63"/><use x="1090.7" xlink:href="#MyriadPro-Regular-6b"/><use x="1137.6" xlink:href="#MyriadPro-Regular-74"/><use x="1170.7" xlink:href="#MyriadPro-Regular-61"/><use x="1218.9" xlink:href="#MyriadPro-Regular-67"/><use x="1274.8" xlink:href="#MyriadPro-Regular-73"/><use x="1314.4" xlink:href="#MyriadPro-Regular-20"/><use x="1335.6" xlink:href="#MyriadPro-Regular-7c"/><use x="1359.5" xlink:href="#MyriadPro-Regular-20"/><use x="1380.7" xlink:href="#MyriadPro-Regular-4e"/><use x="1446.5" xlink:href="#MyriadPro-Regular-69"/><use x="1469.9" xlink:href="#MyriadPro-Regular-63"/><use x="1514.7" xlink:href="#MyriadPro-Regular-6f"/><use x="1569.6" xlink:href="#MyriadPro-Regular-20"/><use x="1590.8" xlink:href="#MyriadPro-Regular-53"/><use x="1640.1" xlink:href="#MyriadPro-Regular-63"/><use x="1684.9" xlink:href="#MyriadPro-Regular-68"/><use x="1740.4" xlink:href="#MyriadPro-Regular-6c"/><use x="1764" xlink:href="#MyriadPro-Regular-f6"/><use x="1818.9" xlink:href="#MyriadPro-Regular-6d"/><use x="1902.3" xlink:href="#MyriadPro-Regular-65"/><use x="1952.4" xlink:href="#MyriadPro-Regular-72"/><use x="1985.1" xlink:href="#MyriadPro-Regular-20"/><use x="2006.3" xlink:href="#MyriadPro-Regular-7c"/><use x="2030.2" xlink:href="#MyriadPro-Regular-20"/><use x="2051.4" xlink:href="#MyriadPro-Regular-43"/><use x="2109.4" xlink:href="#MyriadPro-Regular-43"/><use x="2167.4" xlink:href="#MyriadPro-Regular-20"/><use x="2188.6" xlink:href="#MyriadPro-Regular-42"/><use x="2242.8" xlink:href="#MyriadPro-Regular-59"/></g><g style="fill:#969696" transform="matrix(.14 0 0 -.14 77.337 17.293)" id="text_20"><defs><path d="M486 13c282-32 615-51 1012-51 838 0 1504 217 1907 620 403 397 621 973 621 1677 0 698-224 1197-608 1549-378 352-948 538-1748 538-441 0-844-39-1184-90V13zm557 3833c147 32 365 58 653 58 1178 0 1754-646 1747-1664 0-1165-646-1830-1837-1830-217 0-422 6-563 32v3404z" id="MyriadPro-Regular-44" transform="scale(.01563)"/><path d="M58 3098 1203 243c26-70 39-115 39-147s-20-77-45-134c-128-288-320-506-474-628-166-140-352-230-493-275l141-473c141 25 416 121 691 364 384 333 660 877 1063 1940l845 2208h-596l-614-1818c-77-224-141-461-198-646h-13c-51 185-128 428-199 633L672 3098H58z" id="MyriadPro-Regular-79" transform="scale(.01563)"/><path d="M467 800c0-275-13-589-25-800h486l26 512h19c230-410 589-582 1037-582 691 0 1388 550 1388 1657 7 941-537 1581-1305 1581-499 0-858-224-1056-570h-13v1946H467V800zm557 998c0 90 19 167 32 231 115 429 474 691 858 691 601 0 921-531 921-1152 0-710-352-1190-941-1190-409 0-736 268-844 659-13 64-26 134-26 205v556z" id="MyriadPro-Regular-62" transform="scale(.01563)"/><path d="M2579-1267h563v3513c0 320 7 589 20 852h-532l-19-468h-13c-153 301-473 538-953 538-653 0-1402-512-1402-1670C243 557 832-70 1555-70c499 0 845 243 1011 550h13v-1747zm0 2528c0-83-19-192-45-269-128-390-441-614-806-614-621 0-915 537-915 1152 0 697 352 1190 934 1190 423 0 723-294 807-640 19-70 25-160 25-237v-582z" id="MyriadPro-Regular-71" transform="scale(.01563)"/></defs><use xlink:href="#MyriadPro-Regular-44"/><use x="66.6" xlink:href="#MyriadPro-Regular-61"/><use x="114.8" xlink:href="#MyriadPro-Regular-69"/><use x="138.2" xlink:href="#MyriadPro-Regular-6c"/><use x="161.8" xlink:href="#MyriadPro-Regular-79"/><use x="208.9" xlink:href="#MyriadPro-Regular-20"/><use x="230.1" xlink:href="#MyriadPro-Regular-6e"/><use x="285.6" xlink:href="#MyriadPro-Regular-75"/><use x="340.7" xlink:href="#MyriadPro-Regular-6d"/><use x="424.1" xlink:href="#MyriadPro-Regular-62"/><use x="481" xlink:href="#MyriadPro-Regular-65"/><use x="531.1" xlink:href="#MyriadPro-Regular-72"/><use x="563.8" xlink:href="#MyriadPro-Regular-20"/><use x="585" xlink:href="#MyriadPro-Regular-6f"/><use x="639.9" xlink:href="#MyriadPro-Regular-66"/><use x="669.1" xlink:href="#MyriadPro-Regular-20"/><use x="690.3" xlink:href="#MyriadPro-Regular-71"/><use x="746.6" xlink:href="#MyriadPro-Regular-75"/><use x="801.7" xlink:href="#MyriadPro-Regular-65"/><use x="851.8" xlink:href="#MyriadPro-Regular-73"/><use x="891.4" xlink:href="#MyriadPro-Regular-74"/><use x="924.5" xlink:href="#MyriadPro-Regular-69"/><use x="947.9" xlink:href="#MyriadPro-Regular-6f"/><use x="1002.8" xlink:href="#MyriadPro-Regular-6e"/><use x="1058.3" xlink:href="#MyriadPro-Regular-73"/><use x="1097.9" xlink:href="#MyriadPro-Regular-20"/><use x="1119.1" xlink:href="#MyriadPro-Regular-6f"/><use x="1174" xlink:href="#MyriadPro-Regular-6e"/><use x="1229.5" xlink:href="#MyriadPro-Regular-20"/><use x="1250.7" xlink:href="#MyriadPro-Regular-53"/><use x="1300" xlink:href="#MyriadPro-Regular-74"/><use x="1333.1" xlink:href="#MyriadPro-Regular-61"/><use x="1381.3" xlink:href="#MyriadPro-Regular-63"/><use x="1426.1" xlink:href="#MyriadPro-Regular-6b"/><use x="1473" xlink:href="#MyriadPro-Regular-4f"/><use x="1541.9" xlink:href="#MyriadPro-Regular-76"/><use x="1590" xlink:href="#MyriadPro-Regular-65"/><use x="1640.1" xlink:href="#MyriadPro-Regular-72"/><use x="1672.8" xlink:href="#MyriadPro-Regular-66"/><use x="1702" xlink:href="#MyriadPro-Regular-6c"/><use x="1725.6" xlink:href="#MyriadPro-Regular-6f"/><use x="1780.5" xlink:href="#MyriadPro-Regular-77"/></g><path clip-path="url(#p9cf92ed018)" d="m28.563 318.922 1.76-.145 2.282-1.52 2.282 2.181 2.32-1.322 2.209-.567 2.206-1.086 2.284.452 2.283-1.444 2.283-5.73 2.282 3.416h2.32l2.283 1.025 2.285-1.686 2.28-5.83 2.284 5.169 2.32 1.322 2.208-4.758 2.206-.531 2.284-1.543 2.283 1.212 2.283-16.585 2.282 8.32 2.32-1.983 2.283 3.912 2.285 3.691 2.28-6.424 2.284 6.755 2.32-8.926 2.208-2.538 2.206-3.413 2.284 1.631 2.283-5.598 2.283-1.234 2.283 4.87 2.32-3.636 2.282 5.598 2.285-4.606 2.281.165 2.283 6.447 2.32-9.257 2.245 1.574 2.244-9.508 2.284 7.67 2.283.264 2.283-.264 2.282-5.356 2.32 2.976 2.283-1.036 2.285-4.915 2.28 7.306 2.284 5.256 2.32-7.603 2.208.59 2.206-3.565 2.284 1.906 2.283 5.367 2.283-.584 2.283-1.4 2.32-3.967 2.282-9.664 2.285-.915 2.281 1.94 2.283 7.647 2.32-3.636 2.208-4.841 2.206 2.196 2.284 3.075 2.283 4.86 2.283-2.128 2.283 2.458 2.32 3.967 2.283-5.058 2.284-2.546 2.281-.187 2.283 5.807 2.32-6.611 2.208 2.951 2.206-.637 2.284-.144 2.283.474 2.283-6.281 2.283 3.306 2.32-5.62 2.283-7.593 2.284.32 2.281 15.053 2.283-2.821 2.32-.33 2.245.159 2.244-2.143 2.284-4.089 2.283 8.056 2.283-1.565 2.283 8.507 2.32-9.918 2.283-3.372 2.284 3.703 2.281 4.154 2.283 4.441 2.32-5.29 2.208-6.788 2.206 3.483 2.285 1.08 2.282 3.218 2.283 3.956 2.283-2.965 2.32-8.264 2.283-.044 2.284 1.366 2.281 4.783 2.283 9.763 2.32-4.628 2.208-9.918 2.206 18.844 2.285.628 2.282 5.653 2.283-11.802 2.283-.1 4.603-12.54 2.284 4.276 2.281.165 2.283 14.05 2.32-9.587 2.208-.803 2.206 2.456 2.285-.992 4.565-.683 2.283-2.623 2.32-5.95 2.283 6.865 2.284-9.84 2.281 3.008 2.283 8.562 2.32-2.314 2.246-7.98 2.243 2.03 2.285-12.596 2.282.364 2.283 5.443 2.283-6.105 2.32 17.522 2.283-13.125 2.284 8.827 2.281 4.496 2.283 8.727 2.32-13.223 2.208 6.765 2.206-8.749 2.285 5.114 2.282 3.482 2.283-.066 2.283 9.322 2.32-.992 2.283-10.038 2.284 6.071h0" style="fill:none;stroke:#2ca02c;stroke-linecap:square;stroke-width:1.5" id="line2d_22"/><path clip-path="url(#p9cf92ed018)" d="m28.563 290.098 1.76 15.125 2.282-.265 2.282-2.38 2.32 1.984 2.209-4.947 2.206-5.963 2.284-2.358 2.283-.948 2.283-5.2 2.282-10.337 2.32 8.264 2.283-.32 2.285-8.275 2.28-5.047 2.284 12.65 2.32-14.876 2.208-1.263 2.206 5.23 2.284 1.675 2.283-14.237 2.283 14.92 2.282-5.994 2.32-3.306 2.283 2.127 2.285-5.433 2.28-2.083 2.284 11.009 2.32-19.174 2.208-9.623 2.206-21.122 2.284 9.532 2.283-4.904 2.283 1.488 2.283-7.108 2.32.992 2.282 2.7 2.285 4.243 2.281 5.664 2.283 7.228 2.32-15.868 2.245-22.058 2.244 11.48 2.284-.596 2.283-.066 4.565-10.91 2.32 4.63 2.283-.486 2.285-.176 2.28 5.984 2.284 10.545 2.32-18.843 2.208-12.126 2.206 15.432 2.284-10.38 2.283-.86 2.283 4.959 2.283-10.249 2.32 2.645 2.282-8.11 2.285-16.684 2.281 8.827 2.283 19.603 2.32-11.24 2.208-7.119 2.206-.484 2.284-1.444 2.283 4.42 2.283 8.22 2.283-6.898 2.32 21.157 2.283-9.135 2.284 9.135 2.281-4.01 2.283-3.263 2.32.992 2.208-2.22 2.206 4.534 2.284 2.006 2.283-7.295 2.283-.904 2.283 8.177 2.32 7.273 2.283 3.339 2.284 1.95 2.281 1.466 2.283-1.797 2.32-9.917 2.245 4.092 2.244-3.431 2.284 14.127 2.283 5.708 2.283.783 2.283 15.416 2.32-18.182 2.283 16.088 2.284-.22 2.281-6.27 2.283 18.171 2.32-17.852 2.208 1.535 2.206-6.493 2.285 17.62 2.282-5.058 2.283-5.532 2.283 14.788 2.32-1.983 2.283.518 2.284 2.127 2.281-19.208 2.283 28.464 2.32-12.232 2.208 10.78 2.206 6.41 2.285 2.106 2.282-9.378 2.283 5.62 2.283 12.232 2.32-28.762 2.283 3.89 2.284 5.697 2.281 2.502 2.283-2.832 2.32 3.636 2.208-2.585 2.206 7.214 2.285-5.433 2.282 4.11 2.283 4.772 2.283-22.623 2.32 13.554 2.283 8.727 2.284-5.422 2.281-3.46 2.283-2.16 2.32 2.645 2.246-14.785 2.243 16.438 2.285-16.827 4.565 7.174 2.283 10.645 2.32 6.612 2.283-13.158 2.284 20.43 2.281-6.424 2.283 2.458 2.32-8.596 2.208 6.919 2.206-5.266 2.285 9.61 2.282-3.99 2.283-5.917 2.283 13.851 2.32.992 2.283-.154 2.284-3.482h0" style="fill:none;stroke:#ff7f0e;stroke-linecap:square;stroke-width:1.5" id="line2d_23"/><path clip-path="url(#p9cf92ed018)" d="m28.563 316.36 1.76 3.74 2.282-.453 2.282 1.113 2.32-.33 2.209-1.783 4.49 1 2.283-2.523 2.283 1.499 2.282-.838 2.32-1.983 2.283-1.279 2.285-5.664 2.28 2.931 2.284-10.204 2.32-4.958 2.208.425 2.206.566 2.284-4.275 2.283-6.634 2.283-3.273 2.282 4.926 2.32-5.95 2.283 2.049 2.285-14.943 2.28 1.962 2.284-12.871 2.32-1.653 2.208-32.008 2.206-1.05 2.284 16.154 2.283-16.485 2.283-11.868 2.283 5.587 2.32-4.96 2.282 13.72 2.285-5.124 2.281-15.03 2.283 14.369 2.32-26.447 2.245-14.945 2.244-4.56 2.284-11.802 2.283 16.43 2.283-15.405 2.282-13.025 2.32-8.265 2.283 37.687 2.285-23.141 2.28-26.05 2.284 28.364 2.32-33.39 2.208 9.564 2.206-16.175 2.284 7.196 2.283-5.543 4.566-9.918 2.32 2.314 2.282-8.033 2.285-33.29 2.281 30.216 2.283 16.066 2.32-52.233 2.208-3.07 2.206 11.335 2.284 8.088 2.283 24.64 2.283-1.069 2.283-9.84 2.32 15.537 2.283-24.143 4.565 36.893 2.283 29.566 2.32-58.845 2.208 4.805 2.206 6.104 2.284-17.499 2.283 5.929 2.283-15.835 2.283 11.537 2.32 16.53 2.283-24.651 2.284 16.717 2.281 23.934 2.283-10.38 2.32-3.637 2.245-24.36 2.244 3.864 2.284 19.14 2.283 7.637 2.283-1.487 2.283 18.017 2.32-16.53 2.283 2.612 2.284 20.86 2.281-10.612 2.283 16.232 2.32-16.199 2.208-12.184 2.206 12.184 2.285-8.231 2.282-1.356 2.283 6.48 2.283-6.81 2.32-16.53 2.283 15.141 2.284 21.224 2.281-22.932 2.283 30.866 2.32-13.885 2.208 28.136 4.49 4.758 2.283-1.157 2.283 10.722 2.283-.474 2.32-31.406 2.283-3.647 2.284-3.295 4.564 38.348 2.32-21.488 2.208-23.106 2.206-12.598 2.285 13.257 2.282 29.058 2.283 3.053 2.283-20.574 2.32.662 2.283-4 2.284-8.893 2.281-10.238 4.603 20.155 2.246-26.15 2.243-3.272 2.285-52.222 2.282 14.535 2.283 5.62 2.283 9.256 2.32 29.753 2.283.959 2.284 42.018 2.281-11.615 2.283 1.036 2.32-18.513 2.208 3.837 2.206-7.804 2.285 2.997 2.282 40.31 2.283-8.882 2.283 12.518 2.32 5.62 2.283-9.598 2.284 7.615h0" style="fill:none;stroke:#1f77b4;stroke-linecap:square;stroke-width:1.5" id="line2d_24"/></g></g><defs><clipPath id="p9cf92ed018"><path d="M28.563 57.293h357.12v266.112H28.563z"/></clipPath></defs></svg>