<svg height="475.651" viewBox="0 0 486.886 356.738" width="649.181" xmlns="http://www.w3.org/2000/svg" xmlns:xlink="http://www.w3.org/1999/xlink"><defs><style>*{stroke-linecap:butt;stroke-linejoin:round}</style></defs><g id="figure_1"><path d="M0 356.738h486.886V0H0z" fill="none" id="patch_1"/><g id="axes_1"><path d="M37.556 313.628h357.12V47.516H37.556z" fill="none" id="patch_2"/><path clip-path="url(#p5c2f51f4bd)" d="M37.556 309.697l1.893.953 2.453.544 2.455-.053 2.495.59 4.747-1.146 2.457-.643 2.455-.437 2.454-.239 2.455-2.183 2.495 1.8 2.455-.936 2.457.87 2.453-.227 2.455.13 4.87.633 2.372-1.288 2.456 1.032 2.455-1.686 2.455-.343 2.455-.148 2.495 1.21 2.455.19 2.456-.451 2.454-.09 2.454.548 2.496-1.963 2.374.38 2.373-.217 2.456-.98 2.455.195 2.455-.94 4.95.285 2.455 2.049 2.456-.478 2.453-1.01 2.455.52 2.495-.688 2.415-1.961 2.413 1.143 2.456-1.584 2.455 1.224 2.455-.007 2.455-3.2 2.495 1.047 2.455 2.762 2.456-1.747 2.453-.688 2.455 1.244 2.495-2.356 2.375-.192 2.372-3.67 2.457.105 2.455 1.237 2.455.69 2.455-1.934 2.495 3.273 2.454-1.508 2.457-3.793 2.453 2.204 2.455 1.559 2.495-1.015 2.374-3.85 2.373 2.378 2.457-.932 2.455 4.957 2.454-.324 2.455-1.934 2.495 2.454 2.455 1.543 2.457-.921 2.453.143 2.455 1.297 2.495-3.6 2.374.7 2.373-1.583 2.456.819 2.455-.329 2.455-2.917 2.455.987 2.495 2.88 2.455-.25 2.456-.667 2.454 2.764 2.454-1.553 2.495-1.963 2.415-3.079 2.413 2.49 2.457 1.299 2.454.108 2.455-3.084 2.455 2.658 2.495-1.112 2.455 2.68 2.457-1.699 2.453 1.125 2.455 1.624 2.495-.982 2.374-1.92 2.373.677 2.456 1.717 2.455-3.517 2.455-1.285 2.455.696 2.495 1.669 2.455 3.18 2.456-.857 2.453.08 2.455 2.244 2.495-1.407 2.375.354 4.829-.616 2.455.164 2.455-.13 2.454-.721 2.496-1.506 2.454 1.753 2.457-.476 2.453.206 2.455 3.099 2.495-3.469 2.374-.84 2.373 1.429 7.366.964 2.455-1.39 2.495 2.848 2.455-.646 2.457-1.94 2.453-.021 2.455 1.69 2.495-.785 2.414-.929 2.413 2.565 2.457-4.57 2.455 1.887 2.454-.602 4.95 4.038 2.455-.183 2.457 2.114 2.453-.627h0" fill="none" stroke="#7f7f7f" stroke-linecap="square" stroke-width="1.5" id="line2d_1"/><g id="matplotlib.axis_1"><g id="xtick_1"><g id="line2d_2"><defs><path d="M0 0v3.5" id="ma558598415" stroke="#969696" stroke-width=".4"/></defs><use x="74.982" xlink:href="#ma558598415" y="313.628" fill="#969696" stroke="#969696" stroke-width=".4"/></g><g transform="matrix(.14 0 0 -.14 59.412 330.678)" fill="#969696" id="text_1"><defs><path d="M4.39 45.125q0 12.39 6.391 18.781 6.406 6.407 17.938 6.407 9.656 0 15.812-5.86 6.157-5.86 6.157-15.14 0-7.22-3.547-12.188-3.532-4.953-10.422-8.703l-12.11-6.64Q13.922 15.921 12.5 8.296h38.188V0H2.593q.39 9.906 4.297 16.5 3.906 6.594 12.203 11.375l12.593 7.328q5.032 2.89 7.329 5.984 2.297 3.094 2.297 8.516 0 5.375-3.766 9.031-3.75 3.672-10.156 3.672-7.078 0-10.594-4.672-3.516-4.656-3.61-12.609z" id="HelveticaWorld-Regular-50"/><path d="M42.484 34.188q0 14.109-3.734 21.156-3.734 7.062-10.969 7.062-7.078 0-10.89-7.062-3.797-7.047-3.797-21.157 0-13.671 3.75-20.937Q20.609 6 27.78 6q7.235 0 10.969 7 3.734 7.016 3.734 21.188zm9.422 0q0-17.297-6.25-26.704-6.25-9.39-17.875-9.39-12.062 0-18.062 9.734-6 9.75-6 26.36 0 17.03 6.14 26.578 6.157 9.547 17.922 9.547 11.625 0 17.875-9.5t6.25-26.626z" id="HelveticaWorld-Regular-48"/><path d="M35.89 0h-9.374v49.906H10.109v6.985q8.594.28 12.782 2.75Q27.094 62.109 29 70.313h6.89z" id="HelveticaWorld-Regular-49"/></defs><use xlink:href="#HelveticaWorld-Regular-50"/><use x="55.615" xlink:href="#HelveticaWorld-Regular-48"/><use x="111.23" xlink:href="#HelveticaWorld-Regular-49"/><use x="166.846" xlink:href="#HelveticaWorld-Regular-48"/></g></g><g id="xtick_2"><use x="133.738" xlink:href="#ma558598415" y="313.628" fill="#969696" stroke="#969696" stroke-width=".4" id="line2d_3"/><g transform="matrix(.14 0 0 -.14 118.167 330.678)" fill="#969696" id="text_2"><use xlink:href="#HelveticaWorld-Regular-50"/><use x="55.615" xlink:href="#HelveticaWorld-Regular-48"/><use x="111.23" xlink:href="#HelveticaWorld-Regular-49"/><use x="166.846" xlink:href="#HelveticaWorld-Regular-50"/></g></g><g id="xtick_3"><use x="192.574" xlink:href="#ma558598415" y="313.628" fill="#969696" stroke="#969696" stroke-width=".4" id="line2d_4"/><g transform="matrix(.14 0 0 -.14 177.003 330.678)" fill="#969696" id="text_3"><defs><path d="M10.594 24.703h22.61v31.89h-.188zM42 17.093V0h-8.797v17.094H2.484v8.593L34.72 70.314H42v-45.61h10.297v-7.61z" id="HelveticaWorld-Regular-52"/></defs><use xlink:href="#HelveticaWorld-Regular-50"/><use x="55.615" xlink:href="#HelveticaWorld-Regular-48"/><use x="111.23" xlink:href="#HelveticaWorld-Regular-49"/><use x="166.846" xlink:href="#HelveticaWorld-Regular-52"/></g></g><g id="xtick_4"><use x="251.329" xlink:href="#ma558598415" y="313.628" fill="#969696" stroke="#969696" stroke-width=".4" id="line2d_5"/><g transform="matrix(.14 0 0 -.14 235.758 330.678)" fill="#969696" id="text_4"><defs><path d="M14.11 21.578q0-6.875 4.093-11.234Q22.313 6 28.906 6q6.297 0 10.032 4.438 3.734 4.453 3.734 11.687 0 6.297-3.688 10.547-3.687 4.25-10.468 4.25-6.594 0-10.5-4.156-3.907-4.157-3.907-11.188zM41.702 51.61q-.984 5.375-3.984 8.078-3 2.72-8.125 2.72-8.11 0-12.36-7.923-4.25-7.906-4.343-18.109l.203-.188q5.61 8.641 16.687 8.641 8.844 0 15.438-5.86 6.593-5.859 6.593-16.452 0-10.5-6.25-17.47-6.25-6.952-16.843-6.952-12.219 0-18.563 8.687-6.344 8.703-6.344 25.938 0 16.593 6.485 27.093 6.5 10.5 19.484 10.5 8.407 0 14.219-5.015 5.813-5 6.297-13.688z" id="HelveticaWorld-Regular-54"/></defs><use xlink:href="#HelveticaWorld-Regular-50"/><use x="55.615" xlink:href="#HelveticaWorld-Regular-48"/><use x="111.23" xlink:href="#HelveticaWorld-Regular-49"/><use x="166.846" xlink:href="#HelveticaWorld-Regular-54"/></g></g><g id="xtick_5"><use x="310.165" xlink:href="#ma558598415" y="313.628" fill="#969696" stroke="#969696" stroke-width=".4" id="line2d_6"/><g transform="matrix(.14 0 0 -.14 294.594 330.678)" fill="#969696" id="text_5"><defs><path d="M27.594 40.578q5.422 0 8.953 3.094 3.547 3.11 3.547 8.234 0 4.594-3.407 7.547-3.39 2.953-9.687 2.953-5.61 0-8.672-3.11-3.047-3.093-3.047-7.874 0-5.125 3.813-7.984 3.812-2.86 8.5-2.86zm.093-7.562q-6.78 0-10.64-3.766-3.86-3.766-3.86-9.234 0-6.297 3.907-10.157Q21 6 28.219 6q6.406 0 10.234 3.86 3.828 3.859 3.828 10.265 0 5.469-3.828 9.172-3.828 3.719-10.766 3.719zM49.22 52.203q0-10.594-9.032-14.797 6.204-2.781 8.86-7.36 2.656-4.562 2.656-9.733 0-10.016-6.453-16.125-6.438-6.094-17.375-6.094-9.563 0-16.813 5.25-7.25 5.25-7.25 17.062 0 11.922 11.907 16.907-9.516 3.796-9.516 13.671 0 8.297 5.64 13.813 5.641 5.516 15.641 5.516 10.016 0 15.875-5.204 5.86-5.203 5.86-12.906z" id="HelveticaWorld-Regular-56"/></defs><use xlink:href="#HelveticaWorld-Regular-50"/><use x="55.615" xlink:href="#HelveticaWorld-Regular-48"/><use x="111.23" xlink:href="#HelveticaWorld-Regular-49"/><use x="166.846" xlink:href="#HelveticaWorld-Regular-56"/></g></g><g id="xtick_6"><use x="368.92" xlink:href="#ma558598415" y="313.628" fill="#969696" stroke="#969696" stroke-width=".4" id="line2d_7"/><g transform="matrix(.14 0 0 -.14 353.35 330.678)" fill="#969696" id="text_6"><use xlink:href="#HelveticaWorld-Regular-50"/><use x="55.615" xlink:href="#HelveticaWorld-Regular-48"/><use x="111.23" xlink:href="#HelveticaWorld-Regular-50"/><use x="166.846" xlink:href="#HelveticaWorld-Regular-48"/></g></g></g><g id="matplotlib.axis_2"><g id="ytick_1"><path clip-path="url(#p5c2f51f4bd)" d="M37.556 313.628h357.12" fill="none" stroke="#969696" stroke-linecap="square" stroke-width=".3" id="line2d_8"/><g id="line2d_9"><defs><path d="M0 0h-3.5" id="mab59fabec3" stroke="#969696" stroke-width=".3"/></defs><use x="37.556" xlink:href="#mab59fabec3" y="313.628" fill="#969696" stroke="#969696" stroke-width=".3"/></g><use xlink:href="#HelveticaWorld-Regular-48" transform="matrix(.14 0 0 -.14 22.77 318.653)" fill="#969696" id="text_7"/></g><g id="ytick_2"><path clip-path="url(#p5c2f51f4bd)" d="M37.556 262.906h357.12" fill="none" stroke="#969696" stroke-linecap="square" stroke-width=".3" id="line2d_10"/><use x="37.556" xlink:href="#mab59fabec3" y="262.906" fill="#969696" stroke="#969696" stroke-width=".3" id="line2d_11"/><g transform="matrix(.14 0 0 -.14 14.985 267.93)" fill="#969696" id="text_8"><defs><path d="M14.703 40.922q5.813 4.39 13.625 4.39 9.469 0 16.281-6.296 6.813-6.297 6.813-16.22 0-10.78-6.578-17.796-6.563-7-18.422-7-10.313 0-16.266 5.047Q4.203 8.109 3.22 17.39h9.094q.671-5.672 4.437-8.672 3.766-3 10.453-3 6.485 0 10.64 4.484Q42 14.703 42 21.688q0 7.125-4.36 11.421-4.343 4.297-11.218 4.297-7.813 0-13.047-6.687l-7.563.39 5.266 37.594h36.438v-8.5H17.672z" id="HelveticaWorld-Regular-53"/></defs><use xlink:href="#HelveticaWorld-Regular-53"/><use x="55.615" xlink:href="#HelveticaWorld-Regular-48"/></g></g><g id="ytick_3"><path clip-path="url(#p5c2f51f4bd)" d="M37.556 212.184h357.12" fill="none" stroke="#969696" stroke-linecap="square" stroke-width=".3" id="line2d_12"/><use x="37.556" xlink:href="#mab59fabec3" y="212.184" fill="#969696" stroke="#969696" stroke-width=".3" id="line2d_13"/><g transform="matrix(.14 0 0 -.14 7.2 217.208)" fill="#969696" id="text_9"><use xlink:href="#HelveticaWorld-Regular-49"/><use x="55.615" xlink:href="#HelveticaWorld-Regular-48"/><use x="111.23" xlink:href="#HelveticaWorld-Regular-48"/></g></g><g id="ytick_4"><path clip-path="url(#p5c2f51f4bd)" d="M37.556 161.461h357.12" fill="none" stroke="#969696" stroke-linecap="square" stroke-width=".3" id="line2d_14"/><use x="37.556" xlink:href="#mab59fabec3" y="161.461" fill="#969696" stroke="#969696" stroke-width=".3" id="line2d_15"/><g transform="matrix(.14 0 0 -.14 7.2 166.486)" fill="#969696" id="text_10"><use xlink:href="#HelveticaWorld-Regular-49"/><use x="55.615" xlink:href="#HelveticaWorld-Regular-53"/><use x="111.23" xlink:href="#HelveticaWorld-Regular-48"/></g></g><g id="ytick_5"><path clip-path="url(#p5c2f51f4bd)" d="M37.556 110.74h357.12" fill="none" stroke="#969696" stroke-linecap="square" stroke-width=".3" id="line2d_16"/><use x="37.556" xlink:href="#mab59fabec3" y="110.739" fill="#969696" stroke="#969696" stroke-width=".3" id="line2d_17"/><g transform="matrix(.14 0 0 -.14 7.2 115.764)" fill="#969696" id="text_11"><use xlink:href="#HelveticaWorld-Regular-50"/><use x="55.615" xlink:href="#HelveticaWorld-Regular-48"/><use x="111.23" xlink:href="#HelveticaWorld-Regular-48"/></g></g><g id="ytick_6"><path clip-path="url(#p5c2f51f4bd)" d="M37.556 60.017h357.12" fill="none" stroke="#969696" stroke-linecap="square" stroke-width=".3" id="line2d_18"/><use x="37.556" xlink:href="#mab59fabec3" y="60.017" fill="#969696" stroke="#969696" stroke-width=".3" id="line2d_19"/><g transform="matrix(.14 0 0 -.14 7.2 65.042)" fill="#969696" id="text_12"><use xlink:href="#HelveticaWorld-Regular-50"/><use x="55.615" xlink:href="#HelveticaWorld-Regular-53"/><use x="111.23" xlink:href="#HelveticaWorld-Regular-48"/></g></g></g><path clip-path="url(#p5c2f51f4bd)" d="M76.23 313.628h29.378l2.374-.18 2.373.115 2.456-.002 2.455-.195 12.316-.065 2.453-.484 2.455.32 2.495-.49 2.415.107 2.413-.107 2.456-.338 2.455-.513 2.455.074 2.455.187 2.495-.981 2.455-.153 2.456-.633 2.453-.178 2.455.996 2.495-1.276 2.375.427 2.372-.983 2.457-.788 2.455.493 2.455-.797 2.455-.544 2.495.327 2.454.555 2.457-.719 2.453-.43 2.455 1.281 2.495-3.207 2.374-2.108 2.373.767 2.457-1.704 2.455.133 2.454 1.185 2.455-1.578 2.495-.949 2.455.904 2.457 1.027 2.453-1.568 2.455.03 2.495-1.67 2.374-3.026 2.373-.965 2.456 1.066 2.455-1.001 2.455-1.535 4.95.422 2.455.018 2.456.702 2.454-3.07 2.454 3.463 2.495-3.043 2.415-3.316 2.413 1.025 2.457.722 2.454.554 2.455-.994 2.455 2.925 2.495-.687 2.455.84 2.457 1.189 2.453-1.595 2.455 2.838 2.495-3.698 2.374-4.374 2.373 3.85 2.456 2.128 2.455-1.898 2.455-.097 2.455 2.191 2.495-2.618 2.455 2.388 4.91 2.13 2.454 3.369 2.495-1.375 2.375-3.366 2.372.487 2.457.074 2.455-1.252h2.455l2.454-1.768 2.496-3.043 2.454 2.31 2.457-2.277 2.453-.497 2.455 7.925 2.495-3.6 2.374-4.12 2.373 1.568 2.457 1.102 2.454-.84 2.455-.242 2.455-2.016 2.495 1.996 2.455-2.686 2.457 1.05 2.453-.17 2.455 3.868 2.495-1.211 2.414-1.86 2.413 1.533 2.457-2.466 2.455-.774 2.454-.477 2.455.706 2.495 2.65 2.455.364 2.457.913 2.453.304h0" fill="none" stroke="#e377c2" stroke-linecap="square" stroke-width="1.5" id="line2d_20"/><path clip-path="url(#p5c2f51f4bd)" d="M37.556 312.17l1.893.378 2.453.133 2.455.26 4.87-1.233 2.372-.043 2.457-1.148 2.455-.325 7.404-.523 2.455.476 2.457-.934 2.453-.283 2.455-.077 2.495-.295 2.374-1.268 2.373-.106 2.456-.35 2.455-.828 2.455.557 2.455-2.194 2.495-.36 2.455 1.134 2.456-1.526 2.454-1.957 2.454.713 2.496-.556 2.374-3.403 2.373-2.815 2.456.177 2.455.838 2.455-3.171 2.455.815 2.495.098 2.455-.372 2.456 2.433 2.453-3.684 2.455 3.913 2.495-2.52 2.415-5.962 2.413-1.597 2.456 1.668 2.455 1.474 2.455.014 2.455-1.356 2.495-.458 2.455 3.2 2.456-1.564 2.453-.972 2.455.285 2.495-1.472 2.375.303 2.372-1.612 2.457.062 2.455.396 2.455 3.797 2.455-5.433 2.495 2.323 2.454-.035 2.457-3.467 2.453-1.166 2.455 3.424 2.495-4.286 2.374-2.082 2.373.184 2.457-.824 2.455 7.27 2.454 2.097 2.455-3.733 2.495 4.221 2.455-1.401 2.457 2.187 2.453-1.41 2.455 2.817 2.495-3.305 2.374-1.11 2.373-4.715 2.456-1.633 2.455 7.589 2.455-.961 2.455.404 2.495.557 2.455-.927 2.456 1.45 2.454 1.762 2.454.267 2.495-1.407 2.415-3.413 2.413-1.757 2.457-1.603 2.454 3.042 2.455 4.195 2.455-.758 2.495 2.847 2.455-2.022 2.457.058 2.453.923 2.455.68 2.495-1.374 4.747-1.898 2.456-1.601 2.455.358 2.455 4.41 2.455.433 2.495.622 2.455.838 2.456 1.256 2.453-2.946 2.455 3.273 2.495-.425 2.375-1.873 2.372 2.004 2.457-1.56 2.455 1.69 2.455 2.064 2.454-1.082 2.496-2.389 2.454.191 2.457-1.467 2.453.216 2.455 4.366 2.495-2.095 2.374-3.278 2.373 1.053 2.457 1.307 2.454 2.096 2.455.778 2.455-1.792 2.495 1.243 2.455.177 2.457-2.467 2.453-1.422 2.455 3.058 2.495-1.67 2.414-3.222 2.413 1.03 2.457-5.18 2.455-.906 2.454 4.287 2.455 1.963 2.495.458 2.455 1.095 2.457 1.327 2.453-1.834h0" fill="none" stroke="#8c564b" stroke-linecap="square" stroke-width="1.5" id="line2d_21"/><g transform="matrix(.14 0 0 -.14 398.247 201.238)" fill="#1f77b4" id="text_13"><defs><path d="M6.594 52.297h8.297v-7.375h.203q5.906 8.89 15.812 8.89 9.813 0 13.922-8.5 3.75 4.594 7.266 6.547 3.515 1.953 8.703 1.953 6.781 0 11.484-4.453Q77 44.922 77 36.187V0h-8.781v33.797q0 6.094-2.297 9.094-2.297 3.015-7.422 3.015-5.172 0-8.75-4.203-3.563-4.203-3.563-9.812V0h-8.78v36.188q0 4.53-2.11 7.124-2.094 2.594-6.094 2.594-6.297 0-10.062-4.687-3.766-4.688-3.766-12.703V0H6.594z" id="HelveticaWorld-Regular-109"/><path d="M39.016 52.297h9.562L29.891.984q-.5-1.375-.985-2.593-4.25-11.329-7.328-15.547-3.078-4.235-9.953-4.235-3.61 0-5.906.782v8.015q2.484-.89 5.468-.89 3.22 0 4.704 2.03 1.5 2.032 4.421 9.938L.875 52.297h9.922L24.812 9.719H25z" id="HelveticaWorld-Regular-121"/><path d="M36.078 37.406q-.187 4.688-3.344 6.735-3.14 2.047-9.047 2.047-4.296 0-7.359-1.907-3.047-1.89-3.047-5.468 0-2.829 1.797-4.172 1.813-1.344 7.828-2.86l8.688-2.187q7.906-2 11.297-5.11 3.406-3.093 3.406-8.656 0-7.719-5.64-12.531-5.641-4.813-15.063-4.813-11 0-16.64 4.563-5.626 4.578-5.735 13.75h8.5q.203-5.422 3.594-8.063 3.39-2.625 10.171-2.625 5.516 0 8.766 2.188 3.25 2.203 3.25 6.11 0 2.78-2.11 4.437-2.093 1.672-8.296 3.078l-10.203 2.5q-6.203 1.562-9.157 4.656-2.953 3.094-2.953 8.031 0 7.72 5.516 12.203 5.531 4.5 14.406 4.5 9.485 0 14.531-4.624 5.047-4.61 5.344-11.782z" id="HelveticaWorld-Regular-115"/><path d="M41.5 23.688q0 11.125-3.5 16.671-3.484 5.547-10.61 5.547-6.874 0-10.593-4.5-3.703-4.484-3.703-15.093 0-9.422 3.75-14.813 3.765-5.39 10.36-5.39 5.812 0 10.046 4.39 4.25 4.39 4.25 13.188zm8.406-44.391H41.11V5.516h-.187Q35.89-1.516 27-1.516q-10.984 0-17 8.157-6 8.156-6 21.047 0 11.421 5.906 18.765 5.922 7.36 15.875 7.36 9.907 0 15.625-8.891h.203v7.375h8.297z" id="HelveticaWorld-Regular-113"/><path d="M15.375 0H6.594v71.781h8.781z" id="HelveticaWorld-Regular-108"/></defs><use xlink:href="#HelveticaWorld-Regular-109"/><use x="81.008" xlink:href="#HelveticaWorld-Regular-121"/><use x="129.117" xlink:href="#HelveticaWorld-Regular-115"/><use x="178.117" xlink:href="#HelveticaWorld-Regular-113"/><use x="234.611" xlink:href="#HelveticaWorld-Regular-108"/></g><g transform="matrix(.14 0 0 -.14 398.247 235.853)" fill="#ff7f0e" id="text_14"><defs><path d="M14.984 23.688q0-8.407 4.094-13 4.11-4.579 10.219-4.579 6.687 0 10.39 5.438 3.72 5.453 3.72 14.765 0 10.22-3.563 14.907-3.563 4.687-10.735 4.687-6.984 0-10.562-5.5-3.563-5.5-3.563-16.718zm-8.39 28.609h8.297v-7.375h.203q5.61 8.89 15.625 8.89 10.11 0 15.937-7.359 5.828-7.344 5.828-18.766 0-12.796-5.953-21Q40.578-1.515 29.5-1.515q-9.094 0-13.922 7.032h-.203v-26.22H6.594z" id="HelveticaWorld-Regular-112"/><path d="M12.703 26.219q0-8.735 3.953-14.375 3.953-5.64 11.219-5.64 7.531 0 11.438 5.905 3.906 5.907 3.906 14.11 0 8.297-3.907 14.078-3.906 5.797-11.437 5.797-6.969 0-11.078-5.453-4.094-5.438-4.094-14.422zm-8.984 0q0 11.672 6.484 19.625 6.5 7.968 17.672 7.968 11.438 0 17.875-8.062 6.453-8.047 6.453-19.531 0-11.516-6.406-19.625-6.39-8.11-17.922-8.11-11.078 0-17.625 7.86-6.531 7.86-6.531 19.875z" id="HelveticaWorld-Regular-111"/><path d="M17.188 45.016V10.984q0-2 1.093-3.046 1.11-1.047 3.938-1.047h3.375V0Q20.797-.688 19-.688q-5.516 0-8.063 2.641-2.53 2.64-2.53 8.547v34.516H1.311v7.28h7.094v14.595h8.781V52.297h8.407v-7.281z" id="HelveticaWorld-Regular-116"/><path d="M12.984 26.313q0-9.61 3.813-14.907Q20.609 6.11 27.094 6.11q6.312 0 10.312 4.579 4 4.593 4 13 0 11.03-3.5 16.625-3.484 5.593-10.61 5.593-7.171 0-10.75-4.765-3.562-4.766-3.562-14.828zM49.812 2.983q0-12.609-6.062-18.797-6.047-6.203-18.266-6.203-8.78 0-13.984 4.047Q6.297-13.922 5.516-6.39h8.796q.672-3.812 3.532-6.062 2.86-2.25 8.281-2.25 7.375 0 11.125 3.969 3.766 3.953 3.766 12.828v3.719h-.188q-4.937-7.329-13.922-7.329-11.187 0-17.093 8.25-5.907 8.25-5.907 20.953 0 11.625 5.953 18.875 5.97 7.25 15.829 7.25 9.906 0 15.625-8.89h.187v7.375h8.313z" id="HelveticaWorld-Regular-103"/><path d="M15.375 0H6.594v52.297h8.297v-8.688h.203q5.703 10.203 14.687 10.203 1.422 0 2.297-.296V44.39h-3.266q-5.906 0-9.671-4.016-3.766-4-3.766-9.953z" id="HelveticaWorld-Regular-114"/><path d="M42.484 30.328q-.687 8.485-4.5 12.031-3.797 3.547-10.109 3.547-6.39 0-10.328-4.5-3.922-4.484-4.172-11.078zm8.391-13.922q-1.453-8.11-7.953-13.422-5.719-4.5-15.047-4.593-10.984.093-17.438 7.203Q4 12.704 4 24.704q0 13.78 6.64 21.437 6.641 7.672 18.47 7.672 10.593 0 16.546-7.922 5.953-7.907 5.953-22.594H13.375q0-8.203 3.813-12.703Q21 6.109 28.608 6.109q5.375 0 9.235 3.235 3.86 3.25 4.25 7.062z" id="HelveticaWorld-Regular-101"/></defs><use xlink:href="#HelveticaWorld-Regular-112"/><use x="56.494" xlink:href="#HelveticaWorld-Regular-111"/><use x="112.402" xlink:href="#HelveticaWorld-Regular-115"/><use x="162.402" xlink:href="#HelveticaWorld-Regular-116"/><use x="190.088" xlink:href="#HelveticaWorld-Regular-103"/><use x="245.996" xlink:href="#HelveticaWorld-Regular-114"/><use x="277.564" xlink:href="#HelveticaWorld-Regular-101"/><use x="332.984" xlink:href="#HelveticaWorld-Regular-115"/><use x="381.984" xlink:href="#HelveticaWorld-Regular-113"/><use x="438.479" xlink:href="#HelveticaWorld-Regular-108"/></g><g transform="matrix(.14 0 0 -.14 398.247 249.945)" fill="#2ca02c" id="text_15"><defs><path d="M28.906 23.188H4.391v8.984h24.515z" id="HelveticaWorld-Regular-45"/><path d="M39.406 52.297h9.625L29.11 0h-9.437L.594 52.297h10.203L24.422 9.719h.187z" id="HelveticaWorld-Regular-118"/></defs><use xlink:href="#HelveticaWorld-Regular-115"/><use x="49" xlink:href="#HelveticaWorld-Regular-113"/><use x="105.494" xlink:href="#HelveticaWorld-Regular-108"/><use x="127.516" xlink:href="#HelveticaWorld-Regular-45"/><use x="160.816" xlink:href="#HelveticaWorld-Regular-115"/><use x="210.816" xlink:href="#HelveticaWorld-Regular-101"/><use x="266.236" xlink:href="#HelveticaWorld-Regular-114"/><use x="301.18" xlink:href="#HelveticaWorld-Regular-118"/><use x="348.789" xlink:href="#HelveticaWorld-Regular-101"/><use x="404.209" xlink:href="#HelveticaWorld-Regular-114"/></g><g transform="matrix(.14 0 0 -.14 398.247 263.853)" fill="#d62728" id="text_16"><defs><path d="M49.219 0h-8.844v32.172q0 7.422-2.594 10.578-2.578 3.156-8.578 3.156-5.906 0-9.875-4.5-3.953-4.484-3.953-12.89V0H6.594v52.297h8.297v-7.375h.203q6.203 8.89 15.812 8.89 8.89 0 13.594-4.718 4.719-4.703 4.719-13.5z" id="HelveticaWorld-Regular-110"/><path d="M13.094 26.313q0-9.704 3.844-14.954 3.859-5.25 10.265-5.25 6.094 0 10.188 4.485 4.109 4.5 4.109 13.094 0 11.03-3.5 16.625-3.484 5.593-10.61 5.593-6.78 0-10.546-4.453-3.75-4.437-3.75-15.14zM50.39 0h-8.297v7.172h-.203q-4.97-8.688-15.078-8.688-10.891 0-16.86 8.297Q4 15.094 4 27.688q0 11.625 5.906 18.875 5.922 7.25 15.875 7.25 9.813 0 15.625-8.891l.203.594V71.78h8.782z" id="HelveticaWorld-Regular-100"/><path d="M43.406 26.313q0 10.5-3.718 15.046-3.704 4.547-10.579 4.547-6.984-.11-10.562-5.453Q14.984 35.11 14.984 25q0-10.297 4.297-14.594Q23.578 6.11 29.297 6.11q6.5 0 10.297 5.344 3.812 5.344 3.812 14.86zM6.594 0v71.781h8.781V45.703h.203q5.61 8.11 15.14 8.11 9.766 0 15.766-7.25t6-18.876q0-13.093-6.062-21.156Q40.375-1.516 29.5-1.516q-9.578 0-14.406 8.016h-.203V0z" id="HelveticaWorld-Regular-98"/></defs><use xlink:href="#HelveticaWorld-Regular-109"/><use x="83.008" xlink:href="#HelveticaWorld-Regular-111"/><use x="138.916" xlink:href="#HelveticaWorld-Regular-110"/><use x="194.092" xlink:href="#HelveticaWorld-Regular-103"/><use x="250" xlink:href="#HelveticaWorld-Regular-111"/><use x="305.908" xlink:href="#HelveticaWorld-Regular-100"/><use x="362.891" xlink:href="#HelveticaWorld-Regular-98"/></g><g transform="matrix(.14 0 0 -.14 398.247 277.945)" fill="#9467bd" id="text_17"><defs><path d="M38.375 26.703q-.969-1.015-3.828-1.656-2.86-.625-10.672-1.656-5.766-.688-8.469-2.844-2.703-2.14-2.703-5.656 0-4.297 2.281-6.688 2.297-2.39 7.329-2.39 6.296 0 11.171 3.578 4.891 3.593 4.891 8.718zM6.203 36.375q.297 8.844 5.734 13.14 5.454 4.297 15.844 4.297 8.297 0 13.907-3.765 5.624-3.75 5.624-10.844V9.078Q47.313 6 50.094 6q1.125 0 2.89.39V0Q50.594-.984 48-.984q-4.5 0-6.703 1.921-2.188 1.938-2.281 6.047-7.516-8.5-18.891-8.5-7.422 0-11.922 4.204Q3.72 6.89 3.72 13.624q0 6.89 3.906 11.125Q11.531 29 19 29.89l15.516 1.891q4.203.64 4.203 6.203 0 4.11-3.047 6.297-3.047 2.203-9.25 2.203-5.516 0-8.485-2.437-2.953-2.438-3.53-7.672z" id="HelveticaWorld-Regular-97"/><path d="M39.594 34.719q-1.89 11.187-12.39 11.187-6.5 0-10.454-5.203-3.953-5.203-3.953-14.484 0-10.11 3.656-15.11 3.672-5 10.64-5 4.688 0 8.11 3.438 3.422 3.437 4.39 8.953h8.5q-1.312-9.703-6.859-14.86-5.547-5.156-14.328-5.156-10.297 0-16.89 7.047-6.594 7.063-6.594 19.172 0 13.281 6.594 21.188 6.593 7.922 18.5 7.922 8.687 0 13.843-5.204 5.157-5.203 5.735-13.89z" id="HelveticaWorld-Regular-99"/></defs><use xlink:href="#HelveticaWorld-Regular-111"/><use x="55.908" xlink:href="#HelveticaWorld-Regular-114"/><use x="87.477" xlink:href="#HelveticaWorld-Regular-97"/><use x="142.408" xlink:href="#HelveticaWorld-Regular-99"/><use x="193.678" xlink:href="#HelveticaWorld-Regular-108"/><use x="215.699" xlink:href="#HelveticaWorld-Regular-101"/></g><g transform="matrix(.14 0 0 -.14 398.247 291.945)" fill="#8c564b" id="text_18"><defs><path d="M6.594 61.813v9.968h8.781v-9.969zM15.375 0H6.594v52.297h8.781z" id="HelveticaWorld-Regular-105"/></defs><use xlink:href="#HelveticaWorld-Regular-115"/><use x="49" xlink:href="#HelveticaWorld-Regular-113"/><use x="105.494" xlink:href="#HelveticaWorld-Regular-108"/><use x="127.516" xlink:href="#HelveticaWorld-Regular-105"/><use x="149.537" xlink:href="#HelveticaWorld-Regular-116"/><use x="177.223" xlink:href="#HelveticaWorld-Regular-101"/></g><g transform="matrix(.14 0 0 -.14 398.247 305.945)" fill="#e377c2" id="text_19"><defs><path d="M49.219 0h-8.844v34.188q0 6.296-2.438 9-2.437 2.718-7.953 2.718-6.797 0-10.703-4.406-3.906-4.39-3.906-12.984V0H6.594v71.781h8.781V45.312h.203q6 8.5 15.328 8.5 8.594 0 13.453-4.5 4.86-4.484 4.86-13.718z" id="HelveticaWorld-Regular-104"/></defs><use xlink:href="#HelveticaWorld-Regular-101"/><use x="55.42" xlink:href="#HelveticaWorld-Regular-108"/><use x="77.441" xlink:href="#HelveticaWorld-Regular-97"/><use x="132.373" xlink:href="#HelveticaWorld-Regular-115"/><use x="182.373" xlink:href="#HelveticaWorld-Regular-116"/><use x="210.059" xlink:href="#HelveticaWorld-Regular-105"/><use x="232.08" xlink:href="#HelveticaWorld-Regular-99"/><use x="283.35" xlink:href="#HelveticaWorld-Regular-115"/><use x="333.35" xlink:href="#HelveticaWorld-Regular-101"/><use x="388.77" xlink:href="#HelveticaWorld-Regular-97"/><use x="443.701" xlink:href="#HelveticaWorld-Regular-114"/><use x="475.27" xlink:href="#HelveticaWorld-Regular-99"/><use x="526.539" xlink:href="#HelveticaWorld-Regular-104"/></g><g transform="matrix(.14 0 0 -.14 398.247 319.945)" fill="#7f7f7f" id="text_20"><use xlink:href="#HelveticaWorld-Regular-109"/><use x="83.008" xlink:href="#HelveticaWorld-Regular-115"/><use x="133.008" xlink:href="#HelveticaWorld-Regular-45"/><use x="166.309" xlink:href="#HelveticaWorld-Regular-97"/><use x="221.24" xlink:href="#HelveticaWorld-Regular-99"/><use x="272.51" xlink:href="#HelveticaWorld-Regular-99"/><use x="323.779" xlink:href="#HelveticaWorld-Regular-101"/><use x="379.199" xlink:href="#HelveticaWorld-Regular-115"/><use x="429.199" xlink:href="#HelveticaWorld-Regular-115"/></g><g transform="matrix(.09716 0 0 -.09716 37.556 347.399)" fill="#969696" id="text_21"><defs><path d="M50.39 50.781q-.296 6.844-5.109 10.719-4.797 3.875-12.656 3.875-7.922 0-12.172-3.25-4.234-3.234-4.234-9.344 0-3.265 1.843-5.61 1.86-2.343 6.641-3.468l20.516-4.687q8.297-1.813 12.297-6.875 4.015-5.047 4.015-12.313 0-10.64-7.812-16.187-7.813-5.547-20.313-5.547-9.531 0-15.031 2.437-5.484 2.453-9.734 7.766-4.25 5.328-4.25 14.89h9.093q0-8 5.313-12.406 5.328-4.39 14.5-4.39 8.89 0 13.844 3.156 4.953 3.156 4.953 8.953 0 5.281-2.953 7.89Q46.188 29 37.594 31l-15.469 3.625q-7.719 1.75-11.531 6.125Q6.78 45.125 6.78 51.516q0 9.672 6.516 15.922 6.531 6.25 18.203 6.25 13.172 0 20.328-5.5 7.156-5.485 7.688-17.407z" id="HelveticaWorld-Regular-83"/><path d="M50 0H38.719L22.406 26.422l-7.312-6.594V0h-8.5v71.781h8.5v-41.61l22.5 22.126H48.78L28.813 32.813z" id="HelveticaWorld-Regular-107"/><path d="M63.922 35.89q0 12.594-6.672 20.891-6.656 8.313-18.328 8.313-11.531 0-18.266-8.313-6.734-8.297-6.734-20.89 0-12.985 6.828-21.094 6.844-8.11 18.172-8.11 11.078 0 18.031 7.907 6.969 7.922 6.969 21.297zm9.953 0q0-16.062-9.281-26.937-9.266-10.86-25.672-10.86-16.516 0-25.766 10.86-9.25 10.875-9.25 26.938 0 16.109 9.25 26.953 9.25 10.843 25.766 10.843 16.89 0 25.922-11.046 9.031-11.032 9.031-26.75z" id="HelveticaWorld-Regular-79"/><path d="M17.188 45.016V0H8.405v45.016H1.22v7.28h7.187v8.985q0 5.907 3.578 8.703 3.594 2.813 10.032 2.813 2.203 0 3.968-.188v-7.906q-1.562.188-3.578.188-2.922 0-4.078-1.438-1.14-1.437-1.14-4.656v-6.5h8.796v-7.281z" id="HelveticaWorld-Regular-102"/><path d="M25.594 0h-8.985L1.516 52.297h9.468L21 11.187h.188l10.109 41.11h9.922l10.203-41.11h.187l10.594 41.11h8.703L55.812 0h-9.234L35.984 40.484h-.187z" id="HelveticaWorld-Regular-119"/><path d="M44 29.5L33.406 61.078h-.203L21.687 29.5zm-25.297-8.594L11.188 0h-9.97l27 71.781h10.985L65.187 0H54.594l-7.078 20.906z" id="HelveticaWorld-Regular-65"/><path d="M17.828 38.625H37.11q7.282 0 10.938 3.188 3.656 3.203 3.656 9.703 0 5.812-3.516 8.89-3.515 3.078-10.687 3.078H17.828zm0-38.625H8.11v71.781h32.266q9.625 0 15.484-5.594 5.86-5.593 5.86-14.578 0-9.328-5.672-15.312-5.656-5.969-15.672-5.969H17.828z" id="HelveticaWorld-Regular-80"/><path d="M17.828 0H8.11v71.781h9.72z" id="HelveticaWorld-Regular-73"/><path d="M9.422 73.688h7.281V-1.906H9.422z" id="HelveticaWorld-Regular-124"/><path d="M55.61 71.781h9.374V0h-10.78L17.577 58.016h-.187V0H8.109v71.781h11.375l35.938-57.969h.187z" id="HelveticaWorld-Regular-78"/><path d="M12.703 26.219q0-8.735 3.953-14.375 3.953-5.64 11.219-5.64 7.531 0 11.438 5.905 3.906 5.907 3.906 14.11 0 8.297-3.907 14.078-3.906 5.797-11.437 5.797-6.969 0-11.078-5.453-4.094-5.438-4.094-14.422zm-8.984 0q0 11.672 6.484 19.625 6.5 7.968 17.672 7.968 11.438 0 17.875-8.062 6.453-8.047 6.453-19.531 0-11.516-6.406-19.625-6.39-8.11-17.922-8.11-11.078 0-17.625 7.86-6.531 7.86-6.531 19.875zm36.734 35.406H31.47v10.156h8.984zm-16.219 0H15.25v10.156h8.984z" id="HelveticaWorld-Regular-246"/><path d="M58.016 50.203q-1.625 7.313-6.782 11.094-5.14 3.797-13.343 3.797-10.594 0-17.047-7.703-6.438-7.688-6.438-20.766 0-15.14 6.094-22.547 6.11-7.39 17.688-7.39 7.609 0 13.093 5.046 5.5 5.063 7.407 14.688h9.421Q66.22 12.594 57.625 5.344t-20.906-7.25q-14.703 0-23.516 10.11Q4.391 18.311 4.391 36.28q0 17.328 9.203 27.36 9.203 10.047 24.297 10.047 12.5 0 20.265-6.454 7.766-6.437 9.235-17.03z" id="HelveticaWorld-Regular-67"/><path d="M8.11 71.781h31.484q9.281 0 14.797-5.031 5.515-5.031 5.515-13.031 0-4.844-2.422-8.828-2.406-3.97-7.187-6.172 6.687-2.532 9.828-6.735 3.156-4.203 3.156-10.797 0-9.265-6.687-15.234Q49.906 0 38.922 0H8.109zm9.562-63.484h20.703q7.625 0 11.422 3.531 3.812 3.547 3.812 9.563 0 6.093-4.25 9.093Q45.125 33.5 36.812 33.5h-19.14zm0 33.11h17.625q7.719 0 11.312 2.796 3.594 2.813 3.594 8.781 0 5.125-3.406 7.813-3.39 2.687-11.39 2.687H17.671z" id="HelveticaWorld-Regular-66"/><path d="M37.313 0h-9.72v28.906L.485 71.781h11.329l20.609-34.469 20.562 34.47h11.422L37.312 28.905z" id="HelveticaWorld-Regular-89"/></defs><use xlink:href="#HelveticaWorld-Regular-83"/><use x="66.211" xlink:href="#HelveticaWorld-Regular-116"/><use x="93.896" xlink:href="#HelveticaWorld-Regular-97"/><use x="148.828" xlink:href="#HelveticaWorld-Regular-99"/><use x="200.098" xlink:href="#HelveticaWorld-Regular-107"/><use x="250.098" xlink:href="#HelveticaWorld-Regular-79"/><use x="327.881" xlink:href="#HelveticaWorld-Regular-118"/><use x="375.49" xlink:href="#HelveticaWorld-Regular-101"/><use x="430.91" xlink:href="#HelveticaWorld-Regular-114"/><use x="464.979" xlink:href="#HelveticaWorld-Regular-102"/><use x="492.664" xlink:href="#HelveticaWorld-Regular-108"/><use x="514.686" xlink:href="#HelveticaWorld-Regular-111"/><use x="569.094" xlink:href="#HelveticaWorld-Regular-119"/><use x="641.506" xlink:href="#HelveticaWorld-Regular-32"/><use x="665.92" xlink:href="#HelveticaWorld-Regular-65"/><use x="732.619" xlink:href="#HelveticaWorld-Regular-80"/><use x="797.268" xlink:href="#HelveticaWorld-Regular-73"/><use x="823.049" xlink:href="#HelveticaWorld-Regular-32"/><use x="847.463" xlink:href="#HelveticaWorld-Regular-118"/><use x="897.072" xlink:href="#HelveticaWorld-Regular-105"/><use x="919.094" xlink:href="#HelveticaWorld-Regular-97"/><use x="974.025" xlink:href="#HelveticaWorld-Regular-32"/><use x="998.439" xlink:href="#HelveticaWorld-Regular-115"/><use x="1048.439" xlink:href="#HelveticaWorld-Regular-116"/><use x="1076.125" xlink:href="#HelveticaWorld-Regular-97"/><use x="1131.057" xlink:href="#HelveticaWorld-Regular-99"/><use x="1182.326" xlink:href="#HelveticaWorld-Regular-107"/><use x="1232.326" xlink:href="#HelveticaWorld-Regular-116"/><use x="1260.012" xlink:href="#HelveticaWorld-Regular-97"/><use x="1314.943" xlink:href="#HelveticaWorld-Regular-103"/><use x="1370.852" xlink:href="#HelveticaWorld-Regular-115"/><use x="1420.852" xlink:href="#HelveticaWorld-Regular-32"/><use x="1445.266" xlink:href="#HelveticaWorld-Regular-124"/><use x="1471.242" xlink:href="#HelveticaWorld-Regular-32"/><use x="1495.656" xlink:href="#HelveticaWorld-Regular-78"/><use x="1568.752" xlink:href="#HelveticaWorld-Regular-105"/><use x="1590.773" xlink:href="#HelveticaWorld-Regular-99"/><use x="1642.043" xlink:href="#HelveticaWorld-Regular-111"/><use x="1697.951" xlink:href="#HelveticaWorld-Regular-32"/><use x="1722.365" xlink:href="#HelveticaWorld-Regular-83"/><use x="1788.576" xlink:href="#HelveticaWorld-Regular-99"/><use x="1839.846" xlink:href="#HelveticaWorld-Regular-104"/><use x="1895.021" xlink:href="#HelveticaWorld-Regular-108"/><use x="1917.043" xlink:href="#HelveticaWorld-Regular-246"/><use x="1972.951" xlink:href="#HelveticaWorld-Regular-109"/><use x="2055.959" xlink:href="#HelveticaWorld-Regular-101"/><use x="2111.379" xlink:href="#HelveticaWorld-Regular-114"/><use x="2143.947" xlink:href="#HelveticaWorld-Regular-32"/><use x="2168.361" xlink:href="#HelveticaWorld-Regular-124"/><use x="2194.338" xlink:href="#HelveticaWorld-Regular-32"/><use x="2218.752" xlink:href="#HelveticaWorld-Regular-67"/><use x="2291.066" xlink:href="#HelveticaWorld-Regular-67"/><use x="2363.381" xlink:href="#HelveticaWorld-Regular-32"/><use x="2387.795" xlink:href="#HelveticaWorld-Regular-66"/><use x="2450.607" xlink:href="#HelveticaWorld-Regular-89"/></g><g transform="matrix(.14 0 0 -.14 80.05 17.516)" fill="#969696" id="text_22"><defs><path d="M17.828 8.297h18.797q9.766 0 15.281 7.5 5.516 7.5 5.516 20.484 0 12.844-5.563 19.969-5.562 7.125-16.062 7.234H17.828zM8.11 71.78h29.094q14.11 0 22.094-9.703 7.984-9.687 7.984-25.156 0-16.61-7.984-26.766Q51.313 0 36.813 0H8.108z" id="HelveticaWorld-Regular-68"/><path d="M6.11 52.297h8.78V17.578q0-5.765 2.61-8.625Q20.125 6.11 25 6.11q6.781 0 10.594 4.797 3.812 4.813 3.812 12.578v28.813h8.782V0H39.89v7.625l-.188.188q-4.984-9.329-16.61-9.329-7.515 0-12.25 4.094Q6.11 6.688 6.11 14.703z" id="HelveticaWorld-Regular-117"/></defs><use xlink:href="#HelveticaWorld-Regular-68"/><use x="72.021" xlink:href="#HelveticaWorld-Regular-97"/><use x="126.953" xlink:href="#HelveticaWorld-Regular-105"/><use x="148.975" xlink:href="#HelveticaWorld-Regular-108"/><use x="170.996" xlink:href="#HelveticaWorld-Regular-121"/><use x="220.605" xlink:href="#HelveticaWorld-Regular-32"/><use x="245.02" xlink:href="#HelveticaWorld-Regular-110"/><use x="300.195" xlink:href="#HelveticaWorld-Regular-117"/><use x="354.98" xlink:href="#HelveticaWorld-Regular-109"/><use x="437.988" xlink:href="#HelveticaWorld-Regular-98"/><use x="494.482" xlink:href="#HelveticaWorld-Regular-101"/><use x="549.902" xlink:href="#HelveticaWorld-Regular-114"/><use x="582.471" xlink:href="#HelveticaWorld-Regular-32"/><use x="606.885" xlink:href="#HelveticaWorld-Regular-111"/><use x="662.793" xlink:href="#HelveticaWorld-Regular-102"/><use x="690.479" xlink:href="#HelveticaWorld-Regular-32"/><use x="714.893" xlink:href="#HelveticaWorld-Regular-113"/><use x="771.387" xlink:href="#HelveticaWorld-Regular-117"/><use x="826.172" xlink:href="#HelveticaWorld-Regular-101"/><use x="881.592" xlink:href="#HelveticaWorld-Regular-115"/><use x="931.592" xlink:href="#HelveticaWorld-Regular-116"/><use x="959.277" xlink:href="#HelveticaWorld-Regular-105"/><use x="981.299" xlink:href="#HelveticaWorld-Regular-111"/><use x="1037.207" xlink:href="#HelveticaWorld-Regular-110"/><use x="1092.383" xlink:href="#HelveticaWorld-Regular-115"/><use x="1142.383" xlink:href="#HelveticaWorld-Regular-32"/><use x="1166.797" xlink:href="#HelveticaWorld-Regular-111"/><use x="1222.705" xlink:href="#HelveticaWorld-Regular-110"/><use x="1277.881" xlink:href="#HelveticaWorld-Regular-32"/><use x="1302.295" xlink:href="#HelveticaWorld-Regular-83"/><use x="1368.506" xlink:href="#HelveticaWorld-Regular-116"/><use x="1396.191" xlink:href="#HelveticaWorld-Regular-97"/><use x="1451.123" xlink:href="#HelveticaWorld-Regular-99"/><use x="1502.393" xlink:href="#HelveticaWorld-Regular-107"/><use x="1552.393" xlink:href="#HelveticaWorld-Regular-79"/><use x="1630.176" xlink:href="#HelveticaWorld-Regular-118"/><use x="1677.785" xlink:href="#HelveticaWorld-Regular-101"/><use x="1733.205" xlink:href="#HelveticaWorld-Regular-114"/><use x="1767.273" xlink:href="#HelveticaWorld-Regular-102"/><use x="1794.959" xlink:href="#HelveticaWorld-Regular-108"/><use x="1816.98" xlink:href="#HelveticaWorld-Regular-111"/><use x="1871.389" xlink:href="#HelveticaWorld-Regular-119"/></g><path clip-path="url(#p5c2f51f4bd)" d="M37.556 304.181l1.893 3.262 2.453 1.857 2.455.598 2.495-.23 2.375-.895 2.372.143 2.457-.19 2.455-2.035 2.454-1.381 2.455-.55 2.495-.687 2.455 1.102 2.457-1.299 2.453-.73 2.455 1.581 2.495.393 2.374-1.781 2.373-.968 2.456 1.45 2.455.939 2.455-4.117 2.455 2.35 2.495-2.65 2.455 2.33 2.456-.793 2.454-2.42 2.454 1.439 2.496-2.52 2.374-.728 2.373-1.596 2.456.869 2.455-.247 4.91.786 2.495-1.67 2.455-3.705 2.456 1.939 2.453-3.63 2.455 3.302 2.495.131 2.415-4.793 2.413.703 2.456 1.909 2.455-1.615 2.455 1.817 2.455-3.093 2.495-1.08 2.455.657 2.456-2.228 2.453-4.907 2.455 8.147 2.495-3.076 2.375-4.996 2.372 4.734 2.457-6.5 4.91 2.84 2.455-1.936 2.495 2.39 4.911-9.556 2.453 1.9 2.455 4.416 2.495-1.931 2.374-6.43 2.373-.442 2.457-1.564 2.455 5.883 2.454 4.295 2.455-2.626 2.495 4.09 2.455-6.266 2.457.573 2.453-2.906 2.455 6.604 2.495.654 2.374-6.157 2.373-2.024 2.456-1.275 2.455 2.944 2.455.606 2.455-1.424 2.495 3.763 2.455-1.967 2.456 1.444 2.454-3.472 2.454 5.5 2.495-.032 2.415-6.871 2.413-.001 2.457-.118 2.454 4.24 2.455-1.197 2.455 6.466 2.495-1.767 2.455-.81 2.457-4.785 2.453 1.708 2.455 4.87 2.495-2.848 2.374-2.443 2.373-4.494 2.456 4.408 2.455-2.641 2.455 3.418 2.455.836 2.495.13 2.455 2.72 2.456-4.16 2.453.068 2.455 7.001 2.495-2.127 2.375-3.927 2.372-.163 2.457-.547 2.455.056 2.455 3.529 2.454-1.86 2.496-1.08 2.454 4.698 2.457-7.872 2.453.128 2.455 5.926 2.495 2.716 2.374-6.509 2.373.127 2.457-.062 2.454-.756 2.455 5.693 2.455-4.22 2.495 4.974 2.455-4.473 2.457-4.232 2.453 1.594 2.455 3.708 2.495 1.014 2.414-5.782 2.413 1.463 2.457-7.234 2.455 3.896 2.454-1.968 2.455 6.81 2.495 5.008 2.455-1.707 2.457-4.118 2.453 2.866h0" fill="none" stroke="#9467bd" stroke-linecap="square" stroke-width="1.5" id="line2d_22"/><path clip-path="url(#p5c2f51f4bd)" d="M54.056 313.628l2.455-.065 2.454.065 7.405-.135 2.457.07 2.453-.34 2.455.013 2.495-.72 2.374-.337 2.373.14 2.456-.077 2.455-.708 2.455-.476 2.455.181 2.495-1.243 2.455-.121 2.456-.73 2.454-.082 2.454-1.096 2.496-1.473 2.374-1.126 2.373.047 2.456-.579 2.455-.207 2.455-.807 2.455-1.385 2.495.065 2.455-.202 2.456-2.154 2.453-1.6 2.455 1.24 2.495-3.043 2.415-.36 2.413-2.062 2.456-2.571 2.455 2.277 2.455-.079 2.455-1.165 2.495-2.258 2.455 1.698 4.91-2.096 2.454 3.212 2.495-4.908 2.375-1.722 2.372.02 2.457-.694 2.455-1.826 2.455 2.469 2.455-3.745 2.495-2.225 2.454 1.642 2.457-1.053 2.453 1.188 2.455 1.332 2.495-4.68 2.374-6.05 2.373 1.96 2.457.201 2.455 4.74 2.454-3.42 2.455-.147 2.495 3.665 2.455-4.5 2.457 1.031 2.453-1.132 2.455 1.787 2.495-.753 2.374-7.925 2.373 3.606 2.456-9.903 2.455 1.296 2.455-1.803 2.455 2.032 2.495 3.469 2.455-1.037 2.456.71 2.454-.575 2.454 1.327 2.495-6.937 2.415-6.059 2.413 7.662 2.457-.321 2.454.649 2.455-3.118 2.455 5.932 2.495-3.73 2.455 3.682 2.457 1.226 2.453-3.965 2.455 4.62 2.495-8.312 2.374 1.361 2.373-.38 2.456 5.044 2.455-.822 2.455 4.035 2.455.448 2.495-1.276 2.455 4.784 2.456-2.657 2.453-3.531 2.455 4.185 2.495-9.26 2.375 2.618 2.372.163 4.912 10.897 2.455 2.725 2.454-12.902 2.496-5.662 2.454 3.144 2.457-2.555 2.453 3.874 2.455 2.966 2.495-3.37 2.374-4.497 2.373 4.529 2.457-1.522 2.454-.049 2.455.76 2.455-2.625 2.495 4.058 2.455-1.197 2.457-2.73 2.453-1.903 2.455 3.539 2.495-8.475 2.414.874 2.413-3.329 2.457-20.066 2.455 1.217 2.454 2.13 2.455 6.477 2.495 3.763 2.455 1.46 2.457 8.39 2.453-1.12h0" fill="none" stroke="#d62728" stroke-linecap="square" stroke-width="1.5" id="line2d_23"/><path clip-path="url(#p5c2f51f4bd)" d="M37.556 287.95l1.893 8.629 2.453 3.557 2.455 1.253 2.495-5.759 2.375-.95 2.372-1.635 2.457-2.478 2.455-1.416 2.454-1.256 2.455-3.817 2.495 3.436 2.455-3.406 2.457.363 2.453.11 2.455 1.984 2.495-3.141 2.374-2.113 2.373 3.127 2.456 1.26 2.455-1.161 2.455-.463 2.455-3.562 2.495-2.16 2.455-.23 2.456-1.44 2.454-.859 2.454 4.558 2.496-3.011 2.374-5.262 2.373-4.195 2.456 4.224 2.455.52 2.455.258 2.455.495 2.495-2.421 2.455.776 2.456 4.525 2.453-6.181 2.455 4.643 2.495-2.683 2.415-5.84 2.413-1.261 2.456 2.3 2.455-5.41 2.455-2.063 2.455 1.933 2.495-2.062 2.455.907 2.456-5.03 2.453-1.7 2.455 9.521 2.495-12.991 2.375-3.336 2.372-3.57 2.457-1.628 2.455 2.676 2.455-.951 2.455-10.666 2.495 4.287 4.911-13.188 2.453 6.345 2.455 2.098 2.495-8.967 2.374-7.413 2.373 4.6 2.457-6.143 2.455 15.927 2.454-1.962 2.455-6.121 2.495 6.054 2.455 2.434 2.457-1.158 2.453-5.57 2.455 12.966 2.495-9.981 2.374-8.763 2.373-3.803 2.456 3.426 2.455 3.806 2.455-8.743 2.455 2.853 2.495 2.29 2.455 4.596 2.456 2.833 2.454.785 2.454-.818 2.495-3.436 2.415-7.045 2.413-1.987 2.457 1.146 2.454 3.599 2.455-10.057 2.455 8.78 2.495-3.272 2.455-1.518 2.457 11.303 2.453-8.057 2.455 11.035 2.495-5.923 2.374-10.706 2.373-7.162 2.456 12.925 2.455-2.65 2.455 5.761 2.455.555 2.495-5.857 2.455 9.326 2.456-.72 2.453-3.71 2.455 18.894 2.495-9.882 2.375-4.654 2.372 7.042 2.457.909 2.455.368 2.455 2.27 2.454-4.136 2.496-1.145 2.454 5.145 2.457-8.712 2.453 8.746 2.455 9.907 2.495-10.014 2.374-10.888 2.373 7.976 2.457-2.56 2.454 7.665 2.455 6.063 2.455-11.037 2.495 5.857 2.455.987 2.457-5.339 2.453-3.013 2.455 15.84 4.91-14.933 2.412 2.335 2.457-4.662 2.455 7.64 2.454-2.433 2.455 5.902 2.495 9.162 2.455-1.673 2.457 2.557 2.453 2.921h0" fill="none" stroke="#2ca02c" stroke-linecap="square" stroke-width="1.5" id="line2d_24"/><path clip-path="url(#p5c2f51f4bd)" d="M37.556 311.219l1.893.806 2.453.555 2.455.067 2.495-.819 4.747.131 2.457-.495 2.455.004 2.454-.173 2.455-1.594 2.495-.589 2.455.932 2.457.54 2.453-.033 2.455-.555 2.495-1.244 2.374.347 2.373-1.067 2.456.828 4.91-3.212 2.455 2.483 2.495-1.506 4.911.557 2.454-1.06 4.95-.25 2.374-3.113 2.373-.682 2.456 2.15 2.455-1.987 2.455 1.751 2.455-1.783 2.495-.459 2.455.788 2.456-.1 2.453-1.253 2.455.336 2.495-.163 2.415-3.26 2.413.478 2.456-1.888 2.455.383 2.455.564 2.455.025 2.495-2.29 2.455.878 2.456-3.3 2.453 1.272 2.455 1.117 2.495-5.53 2.375 1.07 2.372 1.416 2.457-.711 2.455.22 2.455-.39 2.455-1.835 2.495.033 2.454.991 2.457-2.17 2.453-1.482 2.455-.023 2.495-2.356 2.374-6.157 2.373-.42 2.457 3.073 2.455 1.803 2.454.225 2.455-1.436 2.495 4.81 2.455-4.287 2.457.23 2.453.954 2.455 1.63 2.495-3.73 2.374-1.547 2.373.925 2.456-3.568 2.455.263 2.455-1.514 2.455-2.02 2.495 2.683 4.911-1.21 2.454 1.798 2.454-.588 2.495-1.538 2.415-7.425 2.413 3.433 2.457 1.79 2.454-.252 2.455-4.245 2.455 8.401 2.495-5.727 2.455 4.258 2.457-1.182 2.453-1.726 2.455 1.661 2.495-2.258 2.374-2.828 2.373-1.524 2.456 1.872 2.455-5.374 2.455 4.427 2.455 1.889 2.495-.033 2.455 3.757 2.456-3.953 2.453-2.709 2.455 9.09 2.495-6.577 2.375.91 2.372.104 2.457.396 2.455-1.05 2.455 2.504 2.454-3.093 2.496-1.473 2.454.846 2.457-3.562 2.453-.428 2.455 9.034 2.495-5.04 2.374-2.513 2.373-4.686 2.457-.751 2.454 3.108 2.455 6.022 2.455-11.291 2.495 7.396 2.455-2.665 2.457-5.385 2.453-.093 2.455 4.968 2.495-7.657 2.414-4.896 2.413-.896 2.457-6.195 2.455.304 2.454-3.009 2.455 3.86 2.495 4.484 2.455-1.108 2.457 1.467 2.453.698h0" fill="none" stroke="#ff7f0e" stroke-linecap="square" stroke-width="1.5" id="line2d_25"/><path clip-path="url(#p5c2f51f4bd)" d="M37.556 301.709l1.893 3.018 2.453-1.142 2.455.782 2.495-2.912 2.375-.906 2.372-2.4 2.457-1.056 2.455-2.216 2.454-4.885 2.455-5.39 2.495-4.058 2.455-.528 2.457-3.988 2.453-1.794 2.455-1.085 2.495-4.778 2.374-3.11 2.373-6.086 2.456.18 2.455-.507 2.455-5.748 2.455.97 2.495-6.348 2.455 2.808 2.456-2.546 2.454-10.473 2.454 3.306 2.496-19.536 2.374-11.887 2.373-9.056 2.456-.43 2.455 7.563 2.455-8.88 2.455-2.377 2.495-9.653 2.455 9.324 2.456 3.504 2.453-15.644 2.455 13.713 4.91-31.939 2.413-8.574 2.456-.826 2.455 2.855 2.455-7.353 2.455-7.961 2.495 5.464 2.455 7.028 2.456-12.329 2.453-4.51 2.455 14.982 2.495-29.026 2.375-10.472 2.372-7.788 2.457-2.898 2.455 20.372 2.455 3.231 2.455-14.39 2.495-4.156 2.454-6.443 2.457-8.871 2.453-2.457 2.455 9.46 2.495-25.918 2.374-21.77 2.373-5.653 2.457 2.255 2.455 43.035 2.454 20.368 2.455-3.482 2.495 17.933 2.455-13.606 2.457-4.262 2.453-2.129 2.455 17.313 2.495-7.003 2.374-20.713 2.373-2.75 2.456-4.126 2.455 13.256 2.455-5.31 2.455-7.288 2.495 25.655 2.455-9.609 2.456 4.995 2.454-.633 2.454 4.495 2.495-4.516 2.415-18.355 2.413-2.916 2.457-3.73 2.454 18.521 2.455 6.704 2.455 21.766 2.495-5.988 2.455 7.25 2.457 6.723 2.453-7.331 2.455 15.872 2.495-14.628 2.374-21.826 2.373-14.988 2.456 22.145 2.455 8.157 2.455 6.417 2.455 3.106 2.495 4.221 2.455 4.644 2.456 8.086 2.453-9.135 2.455 31.354 2.495-10.668 2.375-3.413 2.372 2.039 2.457-2.134 2.455 9.333 2.455 7.237 2.454-1.805 2.496 4.55 2.454 2.428 2.457-7.697 2.453-1.805 2.455 20.425 2.495-10.734 2.374-11.584 2.373-6.25 2.457 9.09 2.454 11.264 2.455 14.841 2.455-29.436 2.495 19.143 2.455-3.131 2.457-14.67 2.453-10.117 2.455 26.904 2.495-7.592 2.414-13.09 2.413-2.716 2.457-20.886 2.455 6.782 2.454 14.893 2.455 9.814 2.495 14.857 2.455-.223 2.457 9.974 2.453-5.375h0" fill="none" stroke="#1f77b4" stroke-linecap="square" stroke-width="1.5" id="line2d_26"/></g></g><defs><clipPath id="p5c2f51f4bd"><path d="M37.556 47.516h357.12v266.112H37.556z"/></clipPath></defs></svg>