<svg height="443.624" viewBox="0 0 440.18 332.718" width="586.907" xmlns="http://www.w3.org/2000/svg" xmlns:xlink="http://www.w3.org/1999/xlink"><defs><style>*{stroke-linecap:butt;stroke-linejoin:round}</style></defs><g id="figure_1"><path d="M0 332.718h440.18V0H0z" fill="none" id="patch_1"/><g id="axes_1"><path d="M29.77 289.628h357.12V23.516H29.77z" fill="none" id="patch_2"/><path clip-path="url(#p86203bc56a)" d="M29.77 284.816l1.961 4.52 2.541.282 2.543-.283h2.584l2.459-1.035 2.457.45h5.087l2.543.263 2.542-.556 2.584 1.171 2.543-.312 2.544.02 2.541-.928 5.127.635 2.459-.094 2.457-1.663 2.545 1.425 2.542.624 2.543-.322 2.542-.849 2.584.293 2.543-1.259 2.544.381 2.54-.078 2.543-.508 2.585 1.464 2.459-1.129 2.457-.92 2.544 2 2.543-.536 2.543-.069 2.542.069 2.584-.293 2.543-1.288 2.544-.176 2.54-1.337 2.543 2.215 2.585-1.756 2.5-1.262 2.5 1.555 2.544 2.273 2.542-2.273 2.543.76 2.542.118 2.584-4.391 2.543 4.576 2.544-3.405 2.541-.225 2.543 1.103 2.584-.293 2.459 1.286 2.457-2.457 2.545-.244 2.542 1.415 2.543-1.717 2.542 1.132 2.584.878 2.543-2.01 2.544 1.424 2.541-2.332 2.542 1.747 2.585-1.171 2.459-2.175 2.457 3.639 2.545-5.065 2.542 5.65 2.543-2.625 2.542-.888 2.584 1.464 2.543-3.903 2.544 6.538 2.54-3.513 2.543 2.927 2.585-4.098 2.459-2.07 2.457 2.362 2.544-1.844 2.543.088 2.542 1.425 2.543-4.06 2.584 5.27 2.543 1.21 2.544-1.796 2.54.283 2.543.01 2.584-1.757 2.501-.454 2.5 5.138 2.544-5.357 2.542-1.376 2.543.771 2.542-1.064h2.584l2.543 2.577 2.544 3.278 2.541-2.37 2.543.907 2.584-1.464 2.459 1.14 2.457 2.373 2.545.068 2.542-3.581 2.543.556 2.542-2.898 2.584 2.342 2.543-2.771 5.085 3.327 2.542 1.786 2.585 1.17 2.459-1.4 2.457-.941 2.544.293 2.543-.293 2.542-.01 2.543 1.474 2.584-5.563 5.087 4.684 2.54-.897 2.543 3.532 2.584-4.098 2.46.522 2.457.649 2.544-.908 2.543-.263 2.542-5.485 2.543 3.435 2.584 1.464 2.543-1.873 2.544-.762 2.54-.146 2.543 3.367 2.584-3.513 2.501.302 2.5-8.5 2.544 9.857 2.542-1.367 2.543-3.171h0" fill="none" stroke="#2ca02c" stroke-linecap="square" stroke-width="1.5" id="line2d_1"/><g id="matplotlib.axis_1"><g id="xtick_1"><g id="line2d_2"><defs><path d="M0 0v3.5" id="mc93d75a67f" stroke="#969696" stroke-width=".4"/></defs><use x="68.534" xlink:href="#mc93d75a67f" y="289.628" fill="#969696" stroke="#969696" stroke-width=".4"/></g><g id="text_1"><defs><path d="M4.39 45.125q0 12.39 6.391 18.781 6.406 6.407 17.938 6.407 9.656 0 15.812-5.86 6.157-5.86 6.157-15.14 0-7.22-3.547-12.188-3.532-4.953-10.422-8.703l-12.11-6.64Q13.922 15.921 12.5 8.296h38.188V0H2.593q.39 9.906 4.297 16.5 3.906 6.594 12.203 11.375l12.593 7.328q5.032 2.89 7.329 5.984 2.297 3.094 2.297 8.516 0 5.375-3.766 9.031-3.75 3.672-10.156 3.672-7.078 0-10.594-4.672-3.516-4.656-3.61-12.609z" id="HelveticaWorld-Regular-50"/><path d="M42.484 34.188q0 14.109-3.734 21.156-3.734 7.062-10.969 7.062-7.078 0-10.89-7.062-3.797-7.047-3.797-21.157 0-13.671 3.75-20.937Q20.609 6 27.78 6q7.235 0 10.969 7 3.734 7.016 3.734 21.188zm9.422 0q0-17.297-6.25-26.704-6.25-9.39-17.875-9.39-12.062 0-18.062 9.734-6 9.75-6 26.36 0 17.03 6.14 26.578 6.157 9.547 17.922 9.547 11.625 0 17.875-9.5t6.25-26.626z" id="HelveticaWorld-Regular-48"/><path d="M35.89 0h-9.374v49.906H10.109v6.985q8.594.28 12.782 2.75Q27.094 62.109 29 70.313h6.89z" id="HelveticaWorld-Regular-49"/></defs><g transform="matrix(.14 0 0 -.14 52.963 306.678)" fill="#969696"><use xlink:href="#HelveticaWorld-Regular-50"/><use x="55.615" xlink:href="#HelveticaWorld-Regular-48"/><use x="111.23" xlink:href="#HelveticaWorld-Regular-49"/><use x="166.846" xlink:href="#HelveticaWorld-Regular-48"/></g></g></g><g id="xtick_2"><use x="129.387" xlink:href="#mc93d75a67f" y="289.628" fill="#969696" stroke="#969696" stroke-width=".4" id="line2d_3"/><g transform="matrix(.14 0 0 -.14 113.817 306.678)" fill="#969696" id="text_2"><use xlink:href="#HelveticaWorld-Regular-50"/><use x="55.615" xlink:href="#HelveticaWorld-Regular-48"/><use x="111.23" xlink:href="#HelveticaWorld-Regular-49"/><use x="166.846" xlink:href="#HelveticaWorld-Regular-50"/></g></g><g id="xtick_3"><use x="190.325" xlink:href="#mc93d75a67f" y="289.628" fill="#969696" stroke="#969696" stroke-width=".4" id="line2d_4"/><g id="text_3"><defs><path d="M10.594 24.703h22.61v31.89h-.188zM42 17.093V0h-8.797v17.094H2.484v8.593L34.72 70.314H42v-45.61h10.297v-7.61z" id="HelveticaWorld-Regular-52"/></defs><g transform="matrix(.14 0 0 -.14 174.754 306.678)" fill="#969696"><use xlink:href="#HelveticaWorld-Regular-50"/><use x="55.615" xlink:href="#HelveticaWorld-Regular-48"/><use x="111.23" xlink:href="#HelveticaWorld-Regular-49"/><use x="166.846" xlink:href="#HelveticaWorld-Regular-52"/></g></g></g><g id="xtick_4"><use x="251.178" xlink:href="#mc93d75a67f" y="289.628" fill="#969696" stroke="#969696" stroke-width=".4" id="line2d_5"/><g id="text_4"><defs><path d="M14.11 21.578q0-6.875 4.093-11.234Q22.313 6 28.906 6q6.297 0 10.032 4.438 3.734 4.453 3.734 11.687 0 6.297-3.688 10.547-3.687 4.25-10.468 4.25-6.594 0-10.5-4.156-3.907-4.157-3.907-11.188zM41.702 51.61q-.984 5.375-3.984 8.078-3 2.72-8.125 2.72-8.11 0-12.36-7.923-4.25-7.906-4.343-18.109l.203-.188q5.61 8.641 16.687 8.641 8.844 0 15.438-5.86 6.593-5.859 6.593-16.452 0-10.5-6.25-17.47-6.25-6.952-16.843-6.952-12.219 0-18.563 8.687-6.344 8.703-6.344 25.938 0 16.593 6.485 27.093 6.5 10.5 19.484 10.5 8.407 0 14.219-5.015 5.813-5 6.297-13.688z" id="HelveticaWorld-Regular-54"/></defs><g transform="matrix(.14 0 0 -.14 235.608 306.678)" fill="#969696"><use xlink:href="#HelveticaWorld-Regular-50"/><use x="55.615" xlink:href="#HelveticaWorld-Regular-48"/><use x="111.23" xlink:href="#HelveticaWorld-Regular-49"/><use x="166.846" xlink:href="#HelveticaWorld-Regular-54"/></g></g></g><g id="xtick_5"><use x="312.115" xlink:href="#mc93d75a67f" y="289.628" fill="#969696" stroke="#969696" stroke-width=".4" id="line2d_6"/><g id="text_5"><defs><path d="M27.594 40.578q5.422 0 8.953 3.094 3.547 3.11 3.547 8.234 0 4.594-3.407 7.547-3.39 2.953-9.687 2.953-5.61 0-8.672-3.11-3.047-3.093-3.047-7.874 0-5.125 3.813-7.984 3.812-2.86 8.5-2.86zm.093-7.562q-6.78 0-10.64-3.766-3.86-3.766-3.86-9.234 0-6.297 3.907-10.157Q21 6 28.219 6q6.406 0 10.234 3.86 3.828 3.859 3.828 10.265 0 5.469-3.828 9.172-3.828 3.719-10.766 3.719zM49.22 52.203q0-10.594-9.032-14.797 6.204-2.781 8.86-7.36 2.656-4.562 2.656-9.733 0-10.016-6.453-16.125-6.438-6.094-17.375-6.094-9.563 0-16.813 5.25-7.25 5.25-7.25 17.062 0 11.922 11.907 16.907-9.516 3.796-9.516 13.671 0 8.297 5.64 13.813 5.641 5.516 15.641 5.516 10.016 0 15.875-5.204 5.86-5.203 5.86-12.906z" id="HelveticaWorld-Regular-56"/></defs><g transform="matrix(.14 0 0 -.14 296.545 306.678)" fill="#969696"><use xlink:href="#HelveticaWorld-Regular-50"/><use x="55.615" xlink:href="#HelveticaWorld-Regular-48"/><use x="111.23" xlink:href="#HelveticaWorld-Regular-49"/><use x="166.846" xlink:href="#HelveticaWorld-Regular-56"/></g></g></g><g id="xtick_6"><use x="372.969" xlink:href="#mc93d75a67f" y="289.628" fill="#969696" stroke="#969696" stroke-width=".4" id="line2d_7"/><g transform="matrix(.14 0 0 -.14 357.399 306.678)" fill="#969696" id="text_6"><use xlink:href="#HelveticaWorld-Regular-50"/><use x="55.615" xlink:href="#HelveticaWorld-Regular-48"/><use x="111.23" xlink:href="#HelveticaWorld-Regular-50"/><use x="166.846" xlink:href="#HelveticaWorld-Regular-48"/></g></g></g><g id="matplotlib.axis_2"><g id="ytick_1"><path clip-path="url(#p86203bc56a)" d="M29.77 244.544h357.12" fill="none" stroke="#969696" stroke-linecap="square" stroke-width=".3" id="line2d_8"/><g id="line2d_9"><defs><path d="M0 0h-3.5" id="md7a7d9220e" stroke="#969696" stroke-width=".3"/></defs><use x="29.771" xlink:href="#md7a7d9220e" y="244.544" fill="#969696" stroke="#969696" stroke-width=".3"/></g><g id="text_7"><defs><path d="M14.703 40.922q5.813 4.39 13.625 4.39 9.469 0 16.281-6.296 6.813-6.297 6.813-16.22 0-10.78-6.578-17.796-6.563-7-18.422-7-10.313 0-16.266 5.047Q4.203 8.109 3.22 17.39h9.094q.671-5.672 4.437-8.672 3.766-3 10.453-3 6.485 0 10.64 4.484Q42 14.703 42 21.688q0 7.125-4.36 11.421-4.343 4.297-11.218 4.297-7.813 0-13.047-6.687l-7.563.39 5.266 37.594h36.438v-8.5H17.672z" id="HelveticaWorld-Regular-53"/></defs><use xlink:href="#HelveticaWorld-Regular-53" transform="matrix(.14 0 0 -.14 14.985 249.57)" fill="#969696"/></g></g><g id="ytick_2"><path clip-path="url(#p86203bc56a)" d="M29.77 199.168h357.12" fill="none" stroke="#969696" stroke-linecap="square" stroke-width=".3" id="line2d_10"/><use x="29.771" xlink:href="#md7a7d9220e" y="199.168" fill="#969696" stroke="#969696" stroke-width=".3" id="line2d_11"/><g transform="matrix(.14 0 0 -.14 7.2 204.192)" fill="#969696" id="text_8"><use xlink:href="#HelveticaWorld-Regular-49"/><use x="55.615" xlink:href="#HelveticaWorld-Regular-48"/></g></g><g id="ytick_3"><path clip-path="url(#p86203bc56a)" d="M29.77 153.791h357.12" fill="none" stroke="#969696" stroke-linecap="square" stroke-width=".3" id="line2d_12"/><use x="29.771" xlink:href="#md7a7d9220e" y="153.791" fill="#969696" stroke="#969696" stroke-width=".3" id="line2d_13"/><g transform="matrix(.14 0 0 -.14 7.2 158.816)" fill="#969696" id="text_9"><use xlink:href="#HelveticaWorld-Regular-49"/><use x="55.615" xlink:href="#HelveticaWorld-Regular-53"/></g></g><g id="ytick_4"><path clip-path="url(#p86203bc56a)" d="M29.77 108.414h357.12" fill="none" stroke="#969696" stroke-linecap="square" stroke-width=".3" id="line2d_14"/><use x="29.771" xlink:href="#md7a7d9220e" y="108.414" fill="#969696" stroke="#969696" stroke-width=".3" id="line2d_15"/><g transform="matrix(.14 0 0 -.14 7.2 113.44)" fill="#969696" id="text_10"><use xlink:href="#HelveticaWorld-Regular-50"/><use x="55.615" xlink:href="#HelveticaWorld-Regular-48"/></g></g><g id="ytick_5"><path clip-path="url(#p86203bc56a)" d="M29.77 63.038h357.12" fill="none" stroke="#969696" stroke-linecap="square" stroke-width=".3" id="line2d_16"/><use x="29.771" xlink:href="#md7a7d9220e" y="63.038" fill="#969696" stroke="#969696" stroke-width=".3" id="line2d_17"/><g transform="matrix(.14 0 0 -.14 7.2 68.063)" fill="#969696" id="text_11"><use xlink:href="#HelveticaWorld-Regular-50"/><use x="55.615" xlink:href="#HelveticaWorld-Regular-53"/></g></g></g><path clip-path="url(#p86203bc56a)" d="M29.77 285.383l1.961 3.074 2.541-.351 2.543.058 2.584.293 2.459-1.453 2.457-.01 2.545-.4 2.542.4 2.543-.098 2.542-.488 2.584-1.171 2.543 2.566 2.544-1.102 2.541-1.318 2.543 3.367 2.584-3.513 2.459 1.767 2.457-2.353 2.545 1.64 2.542.41 2.543-2.83 2.542.488 2.584-1.171 2.543 1.288 2.544.468 2.54-1.073 2.543.78 2.585-3.805h2.459l2.457.292 2.544.918 2.543-1.503 2.543 1.503 2.542 1.717 2.584-6.733 2.543 2.898 2.544 2.371 2.54-3.883 2.543-.8 2.585 2.927 2.5-4.401 2.5-1.161 5.086-.293 2.543-4.44 2.542 4.44 5.127.097 2.544-3.317 2.541.292 2.543 3.513 2.584-6.147 2.459-5.145 2.457 4.56 2.545 2.312 2.542-1.435 2.543-1.288 2.542-.76 2.584-1.172 2.543.722 2.544 1.62 2.541-7.065 2.542 9.7 2.585-10.54 2.459-.867 2.457-5.28 2.545.332 2.542 8.45 2.543-1.19 2.542 4.41 2.584 3.221 2.543-1.58 2.544-5.739 2.54.596 2.543 2.917 2.585-3.22 2.459-3.565 2.457 3.272 2.544-7.875 2.543 5.533 2.542-7.045 2.543 9.973 2.584-1.464 2.543 1.776 2.544-1.19 2.54-.02 2.543 3.24 2.584-6.44 2.501.989 2.5 1.645 2.544-5.182 2.542 2.84 2.543-.117 2.542 5.972 2.584 3.513 2.543 1.103 2.544-8.422 2.541-3.981 2.543 8.373 2.584 2.634 2.459-3.293 2.457-.22 2.545-1.141 2.542 2.605 2.543 1.327 2.542-1.034 2.584-2.342 2.543 1.561 2.544 4.88 2.54-5.485 2.543 3.435 2.585-.293 2.459.92 2.457-2.676 2.544 2.85 2.543.077 2.542.225 2.543-.81 2.584-.586 2.543 5.328 2.544-4.742 2.54.507 2.543 2.713 2.584-.293 2.46-4.537 2.457-3.952 2.544 6.674 2.543.352 2.542 6.001 2.543-16.248 2.584 9.076 2.543.214 2.544-8.704 2.54-2.791 2.543 7.768 2.584-7.612 2.501 1.868 2.5-9.772 2.544 2.605 2.542-.849 2.543.85h0" fill="none" stroke="#ff7f0e" stroke-linecap="square" stroke-width="1.5" id="line2d_18"/><path clip-path="url(#p86203bc56a)" d="M29.77 278.577l1.961 6.66 2.541.751 2.543 1.884 2.584-.879 2.459-1.61 2.457-2.488 2.545 3.093 2.542-4.264 2.543 1.542 2.542-3.884 2.584-1.171 2.543.82 2.544-2.87 2.541-4.996 2.543 5.875 2.584-3.513 2.459.512 2.457-3.44 2.545 1.171 2.542-6.44 2.543-3.845 2.542 1.21 2.584-2.05 2.543-3.093 2.544-1.298 2.54 3.416 2.543-9.27 2.585-3.514 2.459-6.88 5.001-5.142 2.543.898 2.543 3.035 2.542-3.62 2.584-7.905 2.543 11.525 2.544-12.11 2.54-9.369 2.543 10.54 2.585-13.467 2.5-15.223 2.5 5.562 2.544-5.26 2.542-.01 2.543-19.35 2.542 19.643 2.584 7.026 2.543-1.864 2.544-1.356 2.541-18.912 2.543 18.912 5.043-26.107 2.457 8.25 2.545-5.895 2.542 1.503 2.543 13.623 2.542-36.458 2.584 17.565 2.543-11.964 2.544-32.827 2.541 9.534 2.542 13.886 2.585-31.91 2.459-11.752 2.457 3.263 2.545 6.85 2.542 21.254 2.543 12.325 2.542-6.177 2.584 7.026 2.543-4.177 2.544 1.25 2.54 6.01 2.543.137 2.585-12.881 2.459-17.053 2.457 5.343 2.544-3.074 2.543-1.903 2.542-6.87 2.543-2.498 2.584 16.394 2.543 8.187 2.544-18.14 2.54 3.015 2.543 13.671 2.584-23.127 2.501.787 2.5 6.532 2.544-20.552 2.542-1.112 2.543 19.868 2.542-5.523 2.584 18.443 2.543 6.44h2.544l2.541-6.654 2.543 4.313 2.584-4.977 2.459-25.093 2.457 6.942 2.545.966 2.542-5.064 2.543 22.61 2.542-14.12 2.584 14.637 2.543-10.802 2.544 8.167 2.54 1.21 2.543 43.874 2.585-34.837 2.459 20.545 2.457-4.737 2.544 2.986 2.543-.644 2.542 10.627 2.543-15.896 2.584-22.542 2.543 13.33 2.544-20.063 2.54 29.44 2.543 20.035 2.584-4.684 2.46-8.176 2.457-25.49 2.544 27.694 2.543-11.593 2.542 17.038 2.543-33.725 2.584 30.446 2.543-29.392 2.544-27.402 2.54.176 2.543 30.856 2.584-30.74 2.501-7.44 2.5-33.545 2.544-27.801 2.542-21.674 2.543 14.413h0" fill="none" stroke="#1f77b4" stroke-linecap="square" stroke-width="1.5" id="line2d_19"/><g id="text_12"><defs><path d="M6.11 52.297h8.78V17.578q0-5.765 2.61-8.625Q20.125 6.11 25 6.11q6.781 0 10.594 4.797 3.812 4.813 3.812 12.578v28.813h8.782V0H39.89v7.625l-.188.188q-4.984-9.329-16.61-9.329-7.515 0-12.25 4.094Q6.11 6.688 6.11 14.703z" id="HelveticaWorld-Regular-117"/><path d="M43.406 26.313q0 10.5-3.718 15.046-3.704 4.547-10.579 4.547-6.984-.11-10.562-5.453Q14.984 35.11 14.984 25q0-10.297 4.297-14.594Q23.578 6.11 29.297 6.11q6.5 0 10.297 5.344 3.812 5.344 3.812 14.86zM6.594 0v71.781h8.781V45.703h.203q5.61 8.11 15.14 8.11 9.766 0 15.766-7.25t6-18.876q0-13.093-6.062-21.156Q40.375-1.516 29.5-1.516q-9.578 0-14.406 8.016h-.203V0z" id="HelveticaWorld-Regular-98"/><path d="M49.219 0h-8.844v32.172q0 7.422-2.594 10.578-2.578 3.156-8.578 3.156-5.906 0-9.875-4.5-3.953-4.484-3.953-12.89V0H6.594v52.297h8.297v-7.375h.203q6.203 8.89 15.812 8.89 8.89 0 13.594-4.718 4.719-4.703 4.719-13.5z" id="HelveticaWorld-Regular-110"/><path d="M17.188 45.016V10.984q0-2 1.093-3.046 1.11-1.047 3.938-1.047h3.375V0Q20.797-.688 19-.688q-5.516 0-8.063 2.641-2.53 2.64-2.53 8.547v34.516H1.311v7.28h7.094v14.595h8.781V52.297h8.407v-7.281z" id="HelveticaWorld-Regular-116"/></defs><g transform="matrix(.14 0 0 -.14 390.462 41.505)" fill="#1f77b4"><use xlink:href="#HelveticaWorld-Regular-117"/><use x="54.785" xlink:href="#HelveticaWorld-Regular-98"/><use x="111.279" xlink:href="#HelveticaWorld-Regular-117"/><use x="166.064" xlink:href="#HelveticaWorld-Regular-110"/><use x="221.24" xlink:href="#HelveticaWorld-Regular-116"/><use x="248.926" xlink:href="#HelveticaWorld-Regular-117"/></g></g><g id="text_13"><defs><path d="M13.094 26.313q0-9.704 3.844-14.954 3.859-5.25 10.265-5.25 6.094 0 10.188 4.485 4.109 4.5 4.109 13.094 0 11.03-3.5 16.625-3.484 5.593-10.61 5.593-6.78 0-10.546-4.453-3.75-4.437-3.75-15.14zM50.39 0h-8.297v7.172h-.203q-4.97-8.688-15.078-8.688-10.891 0-16.86 8.297Q4 15.094 4 27.688q0 11.625 5.906 18.875 5.922 7.25 15.875 7.25 9.813 0 15.625-8.891l.203.594V71.78h8.782z" id="HelveticaWorld-Regular-100"/><path d="M42.484 30.328q-.687 8.485-4.5 12.031-3.797 3.547-10.109 3.547-6.39 0-10.328-4.5-3.922-4.484-4.172-11.078zm8.391-13.922q-1.453-8.11-7.953-13.422-5.719-4.5-15.047-4.593-10.984.093-17.438 7.203Q4 12.704 4 24.704q0 13.78 6.64 21.437 6.641 7.672 18.47 7.672 10.593 0 16.546-7.922 5.953-7.907 5.953-22.594H13.375q0-8.203 3.813-12.703Q21 6.109 28.608 6.109q5.375 0 9.235 3.235 3.86 3.25 4.25 7.062z" id="HelveticaWorld-Regular-101"/><path d="M6.594 61.813v9.968h8.781v-9.969zM15.375 0H6.594v52.297h8.781z" id="HelveticaWorld-Regular-105"/><path d="M38.375 26.703q-.969-1.015-3.828-1.656-2.86-.625-10.672-1.656-5.766-.688-8.469-2.844-2.703-2.14-2.703-5.656 0-4.297 2.281-6.688 2.297-2.39 7.329-2.39 6.296 0 11.171 3.578 4.891 3.593 4.891 8.718zM6.203 36.375q.297 8.844 5.734 13.14 5.454 4.297 15.844 4.297 8.297 0 13.907-3.765 5.624-3.75 5.624-10.844V9.078Q47.313 6 50.094 6q1.125 0 2.89.39V0Q50.594-.984 48-.984q-4.5 0-6.703 1.921-2.188 1.938-2.281 6.047-7.516-8.5-18.891-8.5-7.422 0-11.922 4.204Q3.72 6.89 3.72 13.624q0 6.89 3.906 11.125Q11.531 29 19 29.89l15.516 1.891q4.203.64 4.203 6.203 0 4.11-3.047 6.297-3.047 2.203-9.25 2.203-5.516 0-8.485-2.437-2.953-2.438-3.53-7.672z" id="HelveticaWorld-Regular-97"/></defs><g transform="matrix(.14 0 0 -.14 390.462 256.288)" fill="#ff7f0e"><use xlink:href="#HelveticaWorld-Regular-100"/><use x="56.982" xlink:href="#HelveticaWorld-Regular-101"/><use x="112.402" xlink:href="#HelveticaWorld-Regular-98"/><use x="168.896" xlink:href="#HelveticaWorld-Regular-105"/><use x="190.918" xlink:href="#HelveticaWorld-Regular-97"/><use x="245.85" xlink:href="#HelveticaWorld-Regular-110"/></g></g><g id="text_14"><defs><path d="M15.375 0H6.594v52.297h8.297v-8.688h.203q5.703 10.203 14.687 10.203 1.422 0 2.297-.296V44.39h-3.266q-5.906 0-9.671-4.016-3.766-4-3.766-9.953z" id="HelveticaWorld-Regular-114"/><path d="M49.219 0h-8.844v34.188q0 6.296-2.438 9-2.437 2.718-7.953 2.718-6.797 0-10.703-4.406-3.906-4.39-3.906-12.984V0H6.594v71.781h8.781V45.312h.203q6 8.5 15.328 8.5 8.594 0 13.453-4.5 4.86-4.484 4.86-13.718z" id="HelveticaWorld-Regular-104"/></defs><g transform="matrix(.14 0 0 -.14 390.462 276.858)" fill="#2ca02c"><use xlink:href="#HelveticaWorld-Regular-114"/><use x="31.568" xlink:href="#HelveticaWorld-Regular-101"/><use x="86.988" xlink:href="#HelveticaWorld-Regular-100"/><use x="143.971" xlink:href="#HelveticaWorld-Regular-104"/><use x="199.146" xlink:href="#HelveticaWorld-Regular-97"/><use x="254.078" xlink:href="#HelveticaWorld-Regular-116"/></g></g><g id="text_15"><defs><path d="M50.39 50.781q-.296 6.844-5.109 10.719-4.797 3.875-12.656 3.875-7.922 0-12.172-3.25-4.234-3.234-4.234-9.344 0-3.265 1.843-5.61 1.86-2.343 6.641-3.468l20.516-4.687q8.297-1.813 12.297-6.875 4.015-5.047 4.015-12.313 0-10.64-7.812-16.187-7.813-5.547-20.313-5.547-9.531 0-15.031 2.437-5.484 2.453-9.734 7.766-4.25 5.328-4.25 14.89h9.093q0-8 5.313-12.406 5.328-4.39 14.5-4.39 8.89 0 13.844 3.156 4.953 3.156 4.953 8.953 0 5.281-2.953 7.89Q46.188 29 37.594 31l-15.469 3.625q-7.719 1.75-11.531 6.125Q6.78 45.125 6.78 51.516q0 9.672 6.516 15.922 6.531 6.25 18.203 6.25 13.172 0 20.328-5.5 7.156-5.485 7.688-17.407z" id="HelveticaWorld-Regular-83"/><path d="M39.594 34.719q-1.89 11.187-12.39 11.187-6.5 0-10.454-5.203-3.953-5.203-3.953-14.484 0-10.11 3.656-15.11 3.672-5 10.64-5 4.688 0 8.11 3.438 3.422 3.437 4.39 8.953h8.5q-1.312-9.703-6.859-14.86-5.547-5.156-14.328-5.156-10.297 0-16.89 7.047-6.594 7.063-6.594 19.172 0 13.281 6.594 21.188 6.593 7.922 18.5 7.922 8.687 0 13.843-5.204 5.157-5.203 5.735-13.89z" id="HelveticaWorld-Regular-99"/><path d="M50 0H38.719L22.406 26.422l-7.312-6.594V0h-8.5v71.781h8.5v-41.61l22.5 22.126H48.78L28.813 32.813z" id="HelveticaWorld-Regular-107"/><path d="M63.922 35.89q0 12.594-6.672 20.891-6.656 8.313-18.328 8.313-11.531 0-18.266-8.313-6.734-8.297-6.734-20.89 0-12.985 6.828-21.094 6.844-8.11 18.172-8.11 11.078 0 18.031 7.907 6.969 7.922 6.969 21.297zm9.953 0q0-16.062-9.281-26.937-9.266-10.86-25.672-10.86-16.516 0-25.766 10.86-9.25 10.875-9.25 26.938 0 16.109 9.25 26.953 9.25 10.843 25.766 10.843 16.89 0 25.922-11.046 9.031-11.032 9.031-26.75z" id="HelveticaWorld-Regular-79"/><path d="M39.406 52.297h9.625L29.11 0h-9.437L.594 52.297h10.203L24.422 9.719h.187z" id="HelveticaWorld-Regular-118"/><path d="M17.188 45.016V0H8.405v45.016H1.22v7.28h7.187v8.985q0 5.907 3.578 8.703 3.594 2.813 10.032 2.813 2.203 0 3.968-.188v-7.906q-1.562.188-3.578.188-2.922 0-4.078-1.438-1.14-1.437-1.14-4.656v-6.5h8.796v-7.281z" id="HelveticaWorld-Regular-102"/><path d="M15.375 0H6.594v71.781h8.781z" id="HelveticaWorld-Regular-108"/><path d="M12.703 26.219q0-8.735 3.953-14.375 3.953-5.64 11.219-5.64 7.531 0 11.438 5.905 3.906 5.907 3.906 14.11 0 8.297-3.907 14.078-3.906 5.797-11.437 5.797-6.969 0-11.078-5.453-4.094-5.438-4.094-14.422zm-8.984 0q0 11.672 6.484 19.625 6.5 7.968 17.672 7.968 11.438 0 17.875-8.062 6.453-8.047 6.453-19.531 0-11.516-6.406-19.625-6.39-8.11-17.922-8.11-11.078 0-17.625 7.86-6.531 7.86-6.531 19.875z" id="HelveticaWorld-Regular-111"/><path d="M25.594 0h-8.985L1.516 52.297h9.468L21 11.187h.188l10.109 41.11h9.922l10.203-41.11h.187l10.594 41.11h8.703L55.812 0h-9.234L35.984 40.484h-.187z" id="HelveticaWorld-Regular-119"/><path d="M44 29.5L33.406 61.078h-.203L21.687 29.5zm-25.297-8.594L11.188 0h-9.97l27 71.781h10.985L65.187 0H54.594l-7.078 20.906z" id="HelveticaWorld-Regular-65"/><path d="M17.828 38.625H37.11q7.282 0 10.938 3.188 3.656 3.203 3.656 9.703 0 5.812-3.516 8.89-3.515 3.078-10.687 3.078H17.828zm0-38.625H8.11v71.781h32.266q9.625 0 15.484-5.594 5.86-5.593 5.86-14.578 0-9.328-5.672-15.312-5.656-5.969-15.672-5.969H17.828z" id="HelveticaWorld-Regular-80"/><path d="M17.828 0H8.11v71.781h9.72z" id="HelveticaWorld-Regular-73"/><path d="M9.422 73.688h7.281V-1.906H9.422z" id="HelveticaWorld-Regular-124"/><path d="M55.61 71.781h9.374V0h-10.78L17.577 58.016h-.187V0H8.109v71.781h11.375l35.938-57.969h.187z" id="HelveticaWorld-Regular-78"/><path d="M12.703 26.219q0-8.735 3.953-14.375 3.953-5.64 11.219-5.64 7.531 0 11.438 5.905 3.906 5.907 3.906 14.11 0 8.297-3.907 14.078-3.906 5.797-11.437 5.797-6.969 0-11.078-5.453-4.094-5.438-4.094-14.422zm-8.984 0q0 11.672 6.484 19.625 6.5 7.968 17.672 7.968 11.438 0 17.875-8.062 6.453-8.047 6.453-19.531 0-11.516-6.406-19.625-6.39-8.11-17.922-8.11-11.078 0-17.625 7.86-6.531 7.86-6.531 19.875zm36.734 35.406H31.47v10.156h8.984zm-16.219 0H15.25v10.156h8.984z" id="HelveticaWorld-Regular-246"/><path d="M6.594 52.297h8.297v-7.375h.203q5.906 8.89 15.812 8.89 9.813 0 13.922-8.5 3.75 4.594 7.266 6.547 3.515 1.953 8.703 1.953 6.781 0 11.484-4.453Q77 44.922 77 36.187V0h-8.781v33.797q0 6.094-2.297 9.094-2.297 3.015-7.422 3.015-5.172 0-8.75-4.203-3.563-4.203-3.563-9.812V0h-8.78v36.188q0 4.53-2.11 7.124-2.094 2.594-6.094 2.594-6.297 0-10.062-4.687-3.766-4.688-3.766-12.703V0H6.594z" id="HelveticaWorld-Regular-109"/><path d="M58.016 50.203q-1.625 7.313-6.782 11.094-5.14 3.797-13.343 3.797-10.594 0-17.047-7.703-6.438-7.688-6.438-20.766 0-15.14 6.094-22.547 6.11-7.39 17.688-7.39 7.609 0 13.093 5.046 5.5 5.063 7.407 14.688h9.421Q66.22 12.594 57.625 5.344t-20.906-7.25q-14.703 0-23.516 10.11Q4.391 18.311 4.391 36.28q0 17.328 9.203 27.36 9.203 10.047 24.297 10.047 12.5 0 20.265-6.454 7.766-6.437 9.235-17.03z" id="HelveticaWorld-Regular-67"/><path d="M8.11 71.781h31.484q9.281 0 14.797-5.031 5.515-5.031 5.515-13.031 0-4.844-2.422-8.828-2.406-3.97-7.187-6.172 6.687-2.532 9.828-6.735 3.156-4.203 3.156-10.797 0-9.265-6.687-15.234Q49.906 0 38.922 0H8.109zm9.562-63.484h20.703q7.625 0 11.422 3.531 3.812 3.547 3.812 9.563 0 6.093-4.25 9.093Q45.125 33.5 36.812 33.5h-19.14zm0 33.11h17.625q7.719 0 11.312 2.796 3.594 2.813 3.594 8.781 0 5.125-3.406 7.813-3.39 2.687-11.39 2.687H17.671z" id="HelveticaWorld-Regular-66"/><path d="M37.313 0h-9.72v28.906L.485 71.781h11.329l20.609-34.469 20.562 34.47h11.422L37.312 28.905z" id="HelveticaWorld-Regular-89"/></defs><g transform="matrix(.09716 0 0 -.09716 29.77 323.506)" fill="#969696"><use xlink:href="#HelveticaWorld-Regular-83"/><use x="66.211" xlink:href="#HelveticaWorld-Regular-116"/><use x="93.896" xlink:href="#HelveticaWorld-Regular-97"/><use x="148.828" xlink:href="#HelveticaWorld-Regular-99"/><use x="200.098" xlink:href="#HelveticaWorld-Regular-107"/><use x="250.098" xlink:href="#HelveticaWorld-Regular-79"/><use x="327.881" xlink:href="#HelveticaWorld-Regular-118"/><use x="375.49" xlink:href="#HelveticaWorld-Regular-101"/><use x="430.91" xlink:href="#HelveticaWorld-Regular-114"/><use x="464.979" xlink:href="#HelveticaWorld-Regular-102"/><use x="492.664" xlink:href="#HelveticaWorld-Regular-108"/><use x="514.686" xlink:href="#HelveticaWorld-Regular-111"/><use x="569.094" xlink:href="#HelveticaWorld-Regular-119"/><use x="641.506" xlink:href="#HelveticaWorld-Regular-32"/><use x="665.92" xlink:href="#HelveticaWorld-Regular-65"/><use x="732.619" xlink:href="#HelveticaWorld-Regular-80"/><use x="797.268" xlink:href="#HelveticaWorld-Regular-73"/><use x="823.049" xlink:href="#HelveticaWorld-Regular-32"/><use x="847.463" xlink:href="#HelveticaWorld-Regular-118"/><use x="897.072" xlink:href="#HelveticaWorld-Regular-105"/><use x="919.094" xlink:href="#HelveticaWorld-Regular-97"/><use x="974.025" xlink:href="#HelveticaWorld-Regular-32"/><use x="998.439" xlink:href="#HelveticaWorld-Regular-104"/><use x="1053.615" xlink:href="#HelveticaWorld-Regular-111"/><use x="1109.523" xlink:href="#HelveticaWorld-Regular-116"/><use x="1137.209" xlink:href="#HelveticaWorld-Regular-119"/><use x="1207.246" xlink:href="#HelveticaWorld-Regular-97"/><use x="1262.178" xlink:href="#HelveticaWorld-Regular-114"/><use x="1293.746" xlink:href="#HelveticaWorld-Regular-101"/><use x="1349.166" xlink:href="#HelveticaWorld-Regular-32"/><use x="1373.58" xlink:href="#HelveticaWorld-Regular-124"/><use x="1399.557" xlink:href="#HelveticaWorld-Regular-32"/><use x="1423.971" xlink:href="#HelveticaWorld-Regular-78"/><use x="1497.066" xlink:href="#HelveticaWorld-Regular-105"/><use x="1519.088" xlink:href="#HelveticaWorld-Regular-99"/><use x="1570.357" xlink:href="#HelveticaWorld-Regular-111"/><use x="1626.266" xlink:href="#HelveticaWorld-Regular-32"/><use x="1650.68" xlink:href="#HelveticaWorld-Regular-83"/><use x="1716.891" xlink:href="#HelveticaWorld-Regular-99"/><use x="1768.16" xlink:href="#HelveticaWorld-Regular-104"/><use x="1823.336" xlink:href="#HelveticaWorld-Regular-108"/><use x="1845.357" xlink:href="#HelveticaWorld-Regular-246"/><use x="1901.266" xlink:href="#HelveticaWorld-Regular-109"/><use x="1984.273" xlink:href="#HelveticaWorld-Regular-101"/><use x="2039.693" xlink:href="#HelveticaWorld-Regular-114"/><use x="2072.262" xlink:href="#HelveticaWorld-Regular-32"/><use x="2096.676" xlink:href="#HelveticaWorld-Regular-124"/><use x="2122.652" xlink:href="#HelveticaWorld-Regular-32"/><use x="2147.066" xlink:href="#HelveticaWorld-Regular-67"/><use x="2219.381" xlink:href="#HelveticaWorld-Regular-67"/><use x="2291.695" xlink:href="#HelveticaWorld-Regular-32"/><use x="2316.109" xlink:href="#HelveticaWorld-Regular-66"/><use x="2378.922" xlink:href="#HelveticaWorld-Regular-89"/></g></g><g id="text_16"><defs><path d="M17.828 8.297h18.797q9.766 0 15.281 7.5 5.516 7.5 5.516 20.484 0 12.844-5.563 19.969-5.562 7.125-16.062 7.234H17.828zM8.11 71.78h29.094q14.11 0 22.094-9.703 7.984-9.687 7.984-25.156 0-16.61-7.984-26.766Q51.313 0 36.813 0H8.108z" id="HelveticaWorld-Regular-68"/><path d="M39.016 52.297h9.562L29.891.984q-.5-1.375-.985-2.593-4.25-11.329-7.328-15.547-3.078-4.235-9.953-4.235-3.61 0-5.906.782v8.015q2.484-.89 5.468-.89 3.22 0 4.704 2.03 1.5 2.032 4.421 9.938L.875 52.297h9.922L24.812 9.719H25z" id="HelveticaWorld-Regular-121"/><path d="M41.5 23.688q0 11.125-3.5 16.671-3.484 5.547-10.61 5.547-6.874 0-10.593-4.5-3.703-4.484-3.703-15.093 0-9.422 3.75-14.813 3.765-5.39 10.36-5.39 5.812 0 10.046 4.39 4.25 4.39 4.25 13.188zm8.406-44.391H41.11V5.516h-.187Q35.89-1.516 27-1.516q-10.984 0-17 8.157-6 8.156-6 21.047 0 11.421 5.906 18.765 5.922 7.36 15.875 7.36 9.907 0 15.625-8.891h.203v7.375h8.297z" id="HelveticaWorld-Regular-113"/><path d="M36.078 37.406q-.187 4.688-3.344 6.735-3.14 2.047-9.047 2.047-4.296 0-7.359-1.907-3.047-1.89-3.047-5.468 0-2.829 1.797-4.172 1.813-1.344 7.828-2.86l8.688-2.187q7.906-2 11.297-5.11 3.406-3.093 3.406-8.656 0-7.719-5.64-12.531-5.641-4.813-15.063-4.813-11 0-16.64 4.563-5.626 4.578-5.735 13.75h8.5q.203-5.422 3.594-8.063 3.39-2.625 10.171-2.625 5.516 0 8.766 2.188 3.25 2.203 3.25 6.11 0 2.78-2.11 4.437-2.093 1.672-8.296 3.078l-10.203 2.5q-6.203 1.562-9.157 4.656-2.953 3.094-2.953 8.031 0 7.72 5.516 12.203 5.531 4.5 14.406 4.5 9.485 0 14.531-4.624 5.047-4.61 5.344-11.782z" id="HelveticaWorld-Regular-115"/></defs><g transform="matrix(.14 0 0 -.14 72.264 17.516)" fill="#969696"><use xlink:href="#HelveticaWorld-Regular-68"/><use x="72.021" xlink:href="#HelveticaWorld-Regular-97"/><use x="126.953" xlink:href="#HelveticaWorld-Regular-105"/><use x="148.975" xlink:href="#HelveticaWorld-Regular-108"/><use x="170.996" xlink:href="#HelveticaWorld-Regular-121"/><use x="220.605" xlink:href="#HelveticaWorld-Regular-32"/><use x="245.02" xlink:href="#HelveticaWorld-Regular-110"/><use x="300.195" xlink:href="#HelveticaWorld-Regular-117"/><use x="354.98" xlink:href="#HelveticaWorld-Regular-109"/><use x="437.988" xlink:href="#HelveticaWorld-Regular-98"/><use x="494.482" xlink:href="#HelveticaWorld-Regular-101"/><use x="549.902" xlink:href="#HelveticaWorld-Regular-114"/><use x="582.471" xlink:href="#HelveticaWorld-Regular-32"/><use x="606.885" xlink:href="#HelveticaWorld-Regular-111"/><use x="662.793" xlink:href="#HelveticaWorld-Regular-102"/><use x="690.479" xlink:href="#HelveticaWorld-Regular-32"/><use x="714.893" xlink:href="#HelveticaWorld-Regular-113"/><use x="771.387" xlink:href="#HelveticaWorld-Regular-117"/><use x="826.172" xlink:href="#HelveticaWorld-Regular-101"/><use x="881.592" xlink:href="#HelveticaWorld-Regular-115"/><use x="931.592" xlink:href="#HelveticaWorld-Regular-116"/><use x="959.277" xlink:href="#HelveticaWorld-Regular-105"/><use x="981.299" xlink:href="#HelveticaWorld-Regular-111"/><use x="1037.207" xlink:href="#HelveticaWorld-Regular-110"/><use x="1092.383" xlink:href="#HelveticaWorld-Regular-115"/><use x="1142.383" xlink:href="#HelveticaWorld-Regular-32"/><use x="1166.797" xlink:href="#HelveticaWorld-Regular-111"/><use x="1222.705" xlink:href="#HelveticaWorld-Regular-110"/><use x="1277.881" xlink:href="#HelveticaWorld-Regular-32"/><use x="1302.295" xlink:href="#HelveticaWorld-Regular-83"/><use x="1368.506" xlink:href="#HelveticaWorld-Regular-116"/><use x="1396.191" xlink:href="#HelveticaWorld-Regular-97"/><use x="1451.123" xlink:href="#HelveticaWorld-Regular-99"/><use x="1502.393" xlink:href="#HelveticaWorld-Regular-107"/><use x="1552.393" xlink:href="#HelveticaWorld-Regular-79"/><use x="1630.176" xlink:href="#HelveticaWorld-Regular-118"/><use x="1677.785" xlink:href="#HelveticaWorld-Regular-101"/><use x="1733.205" xlink:href="#HelveticaWorld-Regular-114"/><use x="1767.273" xlink:href="#HelveticaWorld-Regular-102"/><use x="1794.959" xlink:href="#HelveticaWorld-Regular-108"/><use x="1816.98" xlink:href="#HelveticaWorld-Regular-111"/><use x="1871.389" xlink:href="#HelveticaWorld-Regular-119"/></g></g></g></g><defs><clipPath id="p86203bc56a"><path d="M29.771 23.516h357.12v266.112H29.771z"/></clipPath></defs></svg>