<svg height="506.593" viewBox="0 0 480.209 379.945" width="640.279" xmlns="http://www.w3.org/2000/svg" xmlns:xlink="http://www.w3.org/1999/xlink"><defs><style>*{stroke-linecap:butt;stroke-linejoin:round}</style></defs><g id="figure_1"><path d="M0 379.945h480.21V0H0z" fill="none" id="patch_1"/><g id="axes_1"><path d="M45.341 313.628h357.12V47.516H45.341z" fill="none" id="patch_2"/><path clip-path="url(#p174abddcf0)" d="M45.341 313.058l9.36-.432 2.392-.612 2.389-.411 2.473-.56 2.472-.92 2.472-.065 2.472-1.196 7.457-.462 2.47-.254 2.472.008 2.513-1.465 2.39-.883 2.39-.09 2.473-.446 2.472-.789 2.472-1.253 2.472-3.176 2.512.434 2.472 1.2 2.473-.24 2.47-1.094 2.472.415 2.513-2.446 2.39-3.674 2.39-2.508 2.473-2.086 2.472-1.047 2.472.214 2.471-1.763 2.513-.905 2.472 3.089 2.473.956 2.47-2.992 2.472 2.634 2.512-3.147 2.432-2.55 2.43 2.017 2.473-1.54 2.472 1.218 2.472-.34 2.471-2.674 2.513.764 2.472 4.937 2.473-4.3 2.47.953 2.472 1.858 2.512-2.579 2.391-1.903 2.39-.522 2.473 1.488 2.472 2.738 2.471 2.397 2.472-1.969 2.513 1.577 2.471-3.765 2.474-2.655 2.47 2.046 2.472 1.192 2.512-2.839 2.391-4.732 2.39.408 2.473 1.343 2.471 4.565 2.472 2.127 2.472-2.19 2.512 3.365 2.472-1.204 2.474 1.33 2.47 2.147 2.472 2.402 2.512.308 2.39-3.62 2.39 1.615 2.474-1.466 2.471 2.567 4.944-1.318 2.512 2.348 2.472.083 2.474.983 2.47 2.928 2.472 1.088 2.512-.73 2.431-.93 2.43 1.527 2.473-.093 2.472 2.09 2.472-1.105 2.472 1.981 2.512.393 2.472.544 2.474.731 2.47.117 2.472.858 2.512.238 2.39-.156 2.39.24 2.473 1.89 2.472-.004 2.472-.596 2.472 1.142 2.512.8 4.946.924 2.47.146 2.472 1.403 2.512-.196 2.39.071 2.39.399 2.473.185 2.472-.052 2.472.566 2.472-.489 2.512.105 2.472.377 2.473.114 4.942 1.044 2.513-.42 2.39.01 2.39.15 2.473-.377 2.472.532 2.472-.17 2.472.023 2.512.483 2.472-.39 2.473-.619 2.47.185 2.472.446 2.513-.21 2.43.08 2.43-.108 2.474-.331 2.472.17 2.472.474 2.472-.208 2.512.533 2.472-.209 2.473-.044h0" fill="none" stroke="#c5b0d5" stroke-linecap="square" stroke-width="1.5" id="line2d_1"/><g id="matplotlib.axis_1"><g id="xtick_1"><g id="line2d_2"><defs><path d="M0 0v3.5" id="m8b4cd6a974" stroke="#969696" stroke-width=".4"/></defs><use x="83.026" xlink:href="#m8b4cd6a974" y="313.628" fill="#969696" stroke="#969696" stroke-width=".4"/></g><g transform="matrix(.14 0 0 -.14 67.456 330.678)" fill="#969696" id="text_1"><defs><path d="M4.39 45.125q0 12.39 6.391 18.781 6.406 6.407 17.938 6.407 9.656 0 15.812-5.86 6.157-5.86 6.157-15.14 0-7.22-3.547-12.188-3.532-4.953-10.422-8.703l-12.11-6.64Q13.922 15.921 12.5 8.296h38.188V0H2.593q.39 9.906 4.297 16.5 3.906 6.594 12.203 11.375l12.593 7.328q5.032 2.89 7.329 5.984 2.297 3.094 2.297 8.516 0 5.375-3.766 9.031-3.75 3.672-10.156 3.672-7.078 0-10.594-4.672-3.516-4.656-3.61-12.609z" id="HelveticaWorld-Regular-50"/><path d="M42.484 34.188q0 14.109-3.734 21.156-3.734 7.062-10.969 7.062-7.078 0-10.89-7.062-3.797-7.047-3.797-21.157 0-13.671 3.75-20.937Q20.609 6 27.78 6q7.235 0 10.969 7 3.734 7.016 3.734 21.188zm9.422 0q0-17.297-6.25-26.704-6.25-9.39-17.875-9.39-12.062 0-18.062 9.734-6 9.75-6 26.36 0 17.03 6.14 26.578 6.157 9.547 17.922 9.547 11.625 0 17.875-9.5t6.25-26.626z" id="HelveticaWorld-Regular-48"/><path d="M35.89 0h-9.374v49.906H10.109v6.985q8.594.28 12.782 2.75Q27.094 62.109 29 70.313h6.89z" id="HelveticaWorld-Regular-49"/></defs><use xlink:href="#HelveticaWorld-Regular-50"/><use x="55.615" xlink:href="#HelveticaWorld-Regular-48"/><use x="111.23" xlink:href="#HelveticaWorld-Regular-49"/><use x="166.846" xlink:href="#HelveticaWorld-Regular-48"/></g></g><g id="xtick_2"><use x="142.188" xlink:href="#m8b4cd6a974" y="313.628" fill="#969696" stroke="#969696" stroke-width=".4" id="line2d_3"/><g transform="matrix(.14 0 0 -.14 126.618 330.678)" fill="#969696" id="text_2"><use xlink:href="#HelveticaWorld-Regular-50"/><use x="55.615" xlink:href="#HelveticaWorld-Regular-48"/><use x="111.23" xlink:href="#HelveticaWorld-Regular-49"/><use x="166.846" xlink:href="#HelveticaWorld-Regular-50"/></g></g><g id="xtick_3"><use x="201.431" xlink:href="#m8b4cd6a974" y="313.628" fill="#969696" stroke="#969696" stroke-width=".4" id="line2d_4"/><g transform="matrix(.14 0 0 -.14 185.86 330.678)" fill="#969696" id="text_3"><defs><path d="M10.594 24.703h22.61v31.89h-.188zM42 17.093V0h-8.797v17.094H2.484v8.593L34.72 70.314H42v-45.61h10.297v-7.61z" id="HelveticaWorld-Regular-52"/></defs><use xlink:href="#HelveticaWorld-Regular-50"/><use x="55.615" xlink:href="#HelveticaWorld-Regular-48"/><use x="111.23" xlink:href="#HelveticaWorld-Regular-49"/><use x="166.846" xlink:href="#HelveticaWorld-Regular-52"/></g></g><g id="xtick_4"><use x="260.593" xlink:href="#m8b4cd6a974" y="313.628" fill="#969696" stroke="#969696" stroke-width=".4" id="line2d_5"/><g transform="matrix(.14 0 0 -.14 245.022 330.678)" fill="#969696" id="text_4"><defs><path d="M14.11 21.578q0-6.875 4.093-11.234Q22.313 6 28.906 6q6.297 0 10.032 4.438 3.734 4.453 3.734 11.687 0 6.297-3.688 10.547-3.687 4.25-10.468 4.25-6.594 0-10.5-4.156-3.907-4.157-3.907-11.188zM41.702 51.61q-.984 5.375-3.984 8.078-3 2.72-8.125 2.72-8.11 0-12.36-7.923-4.25-7.906-4.343-18.109l.203-.188q5.61 8.641 16.687 8.641 8.844 0 15.438-5.86 6.593-5.859 6.593-16.452 0-10.5-6.25-17.47-6.25-6.952-16.843-6.952-12.219 0-18.563 8.687-6.344 8.703-6.344 25.938 0 16.593 6.485 27.093 6.5 10.5 19.484 10.5 8.407 0 14.219-5.015 5.813-5 6.297-13.688z" id="HelveticaWorld-Regular-54"/></defs><use xlink:href="#HelveticaWorld-Regular-50"/><use x="55.615" xlink:href="#HelveticaWorld-Regular-48"/><use x="111.23" xlink:href="#HelveticaWorld-Regular-49"/><use x="166.846" xlink:href="#HelveticaWorld-Regular-54"/></g></g><g id="xtick_5"><use x="319.836" xlink:href="#m8b4cd6a974" y="313.628" fill="#969696" stroke="#969696" stroke-width=".4" id="line2d_6"/><g transform="matrix(.14 0 0 -.14 304.265 330.678)" fill="#969696" id="text_5"><defs><path d="M27.594 40.578q5.422 0 8.953 3.094 3.547 3.11 3.547 8.234 0 4.594-3.407 7.547-3.39 2.953-9.687 2.953-5.61 0-8.672-3.11-3.047-3.093-3.047-7.874 0-5.125 3.813-7.984 3.812-2.86 8.5-2.86zm.093-7.562q-6.78 0-10.64-3.766-3.86-3.766-3.86-9.234 0-6.297 3.907-10.157Q21 6 28.219 6q6.406 0 10.234 3.86 3.828 3.859 3.828 10.265 0 5.469-3.828 9.172-3.828 3.719-10.766 3.719zM49.22 52.203q0-10.594-9.032-14.797 6.204-2.781 8.86-7.36 2.656-4.562 2.656-9.733 0-10.016-6.453-16.125-6.438-6.094-17.375-6.094-9.563 0-16.813 5.25-7.25 5.25-7.25 17.062 0 11.922 11.907 16.907-9.516 3.796-9.516 13.671 0 8.297 5.64 13.813 5.641 5.516 15.641 5.516 10.016 0 15.875-5.204 5.86-5.203 5.86-12.906z" id="HelveticaWorld-Regular-56"/></defs><use xlink:href="#HelveticaWorld-Regular-50"/><use x="55.615" xlink:href="#HelveticaWorld-Regular-48"/><use x="111.23" xlink:href="#HelveticaWorld-Regular-49"/><use x="166.846" xlink:href="#HelveticaWorld-Regular-56"/></g></g><g id="xtick_6"><use x="378.997" xlink:href="#m8b4cd6a974" y="313.628" fill="#969696" stroke="#969696" stroke-width=".4" id="line2d_7"/><g transform="matrix(.14 0 0 -.14 363.427 330.678)" fill="#969696" id="text_6"><use xlink:href="#HelveticaWorld-Regular-50"/><use x="55.615" xlink:href="#HelveticaWorld-Regular-48"/><use x="111.23" xlink:href="#HelveticaWorld-Regular-50"/><use x="166.846" xlink:href="#HelveticaWorld-Regular-48"/></g></g></g><g id="matplotlib.axis_2"><g id="ytick_1"><path clip-path="url(#p174abddcf0)" d="M45.341 313.628h357.12" fill="none" stroke="#969696" stroke-linecap="square" stroke-width=".3" id="line2d_8"/><g id="line2d_9"><defs><path d="M0 0h-3.5" id="m529f108c94" stroke="#969696" stroke-width=".3"/></defs><use x="45.341" xlink:href="#m529f108c94" y="313.628" fill="#969696" stroke="#969696" stroke-width=".3"/></g><use xlink:href="#HelveticaWorld-Regular-48" transform="matrix(.14 0 0 -.14 30.556 318.653)" fill="#969696" id="text_7"/></g><g id="ytick_2"><path clip-path="url(#p174abddcf0)" d="M45.341 270.172h357.12" fill="none" stroke="#969696" stroke-linecap="square" stroke-width=".3" id="line2d_10"/><use x="45.341" xlink:href="#m529f108c94" y="270.172" fill="#969696" stroke="#969696" stroke-width=".3" id="line2d_11"/><g transform="matrix(.14 0 0 -.14 14.985 275.197)" fill="#969696" id="text_8"><use xlink:href="#HelveticaWorld-Regular-50"/><use x="55.615" xlink:href="#HelveticaWorld-Regular-48"/><use x="111.23" xlink:href="#HelveticaWorld-Regular-48"/></g></g><g id="ytick_3"><path clip-path="url(#p174abddcf0)" d="M45.341 226.716h357.12" fill="none" stroke="#969696" stroke-linecap="square" stroke-width=".3" id="line2d_12"/><use x="45.341" xlink:href="#m529f108c94" y="226.716" fill="#969696" stroke="#969696" stroke-width=".3" id="line2d_13"/><g transform="matrix(.14 0 0 -.14 14.985 231.74)" fill="#969696" id="text_9"><use xlink:href="#HelveticaWorld-Regular-52"/><use x="55.615" xlink:href="#HelveticaWorld-Regular-48"/><use x="111.23" xlink:href="#HelveticaWorld-Regular-48"/></g></g><g id="ytick_4"><path clip-path="url(#p174abddcf0)" d="M45.341 183.26h357.12" fill="none" stroke="#969696" stroke-linecap="square" stroke-width=".3" id="line2d_14"/><use x="45.341" xlink:href="#m529f108c94" y="183.26" fill="#969696" stroke="#969696" stroke-width=".3" id="line2d_15"/><g transform="matrix(.14 0 0 -.14 14.985 188.285)" fill="#969696" id="text_10"><use xlink:href="#HelveticaWorld-Regular-54"/><use x="55.615" xlink:href="#HelveticaWorld-Regular-48"/><use x="111.23" xlink:href="#HelveticaWorld-Regular-48"/></g></g><g id="ytick_5"><path clip-path="url(#p174abddcf0)" d="M45.341 139.804h357.12" fill="none" stroke="#969696" stroke-linecap="square" stroke-width=".3" id="line2d_16"/><use x="45.341" xlink:href="#m529f108c94" y="139.804" fill="#969696" stroke="#969696" stroke-width=".3" id="line2d_17"/><g transform="matrix(.14 0 0 -.14 14.985 144.829)" fill="#969696" id="text_11"><use xlink:href="#HelveticaWorld-Regular-56"/><use x="55.615" xlink:href="#HelveticaWorld-Regular-48"/><use x="111.23" xlink:href="#HelveticaWorld-Regular-48"/></g></g><g id="ytick_6"><path clip-path="url(#p174abddcf0)" d="M45.341 96.348h357.12" fill="none" stroke="#969696" stroke-linecap="square" stroke-width=".3" id="line2d_18"/><use x="45.341" xlink:href="#m529f108c94" y="96.348" fill="#969696" stroke="#969696" stroke-width=".3" id="line2d_19"/><g transform="matrix(.14 0 0 -.14 7.2 101.373)" fill="#969696" id="text_12"><use xlink:href="#HelveticaWorld-Regular-49"/><use x="55.615" xlink:href="#HelveticaWorld-Regular-48"/><use x="111.23" xlink:href="#HelveticaWorld-Regular-48"/><use x="166.846" xlink:href="#HelveticaWorld-Regular-48"/></g></g><g id="ytick_7"><path clip-path="url(#p174abddcf0)" d="M45.341 52.892h357.12" fill="none" stroke="#969696" stroke-linecap="square" stroke-width=".3" id="line2d_20"/><use x="45.341" xlink:href="#m529f108c94" y="52.892" fill="#969696" stroke="#969696" stroke-width=".3" id="line2d_21"/><g transform="matrix(.14 0 0 -.14 7.2 57.917)" fill="#969696" id="text_13"><use xlink:href="#HelveticaWorld-Regular-49"/><use x="55.615" xlink:href="#HelveticaWorld-Regular-50"/><use x="111.23" xlink:href="#HelveticaWorld-Regular-48"/><use x="166.846" xlink:href="#HelveticaWorld-Regular-48"/></g></g></g><path clip-path="url(#p174abddcf0)" d="M45.341 310.41l1.906 1.466 2.47.593 2.472.03 2.513-.336 2.39-.762 2.39-.086 9.889-1.198 2.512.112 4.945-.056 2.47-1.289 2.472.728 2.513-.799 2.39-.531 2.39.468 2.473-.575 2.472.014 2.472-.739 2.472-.207 2.512-.589 2.472.166 2.473.325 2.47-.245 2.472-.442 4.903-2.569 2.39-1.756 2.473.79 4.944-.615 2.471.169 2.513-1.949 2.472 1.845 2.473-.092 2.47-1.27 2.472.73 2.512-1.55 2.432-1.945 2.43-.066 2.473 1.043 2.472.478 2.472.188 2.471-.804 2.513.007 2.472.37 2.473-1.71 2.47.406 2.472 2.09 2.512-2.832 2.391-1.178 2.39-.651 2.473.116 2.472 1.433 2.471.356 2.472-1.036 2.513-.294 2.471.084 2.474-2.194 2.47.905 2.472 1.457 2.512-2.229 2.391-.88 2.39-.402 2.473.786 2.471 1.106 2.472 1.878 2.472-1.044 2.512.603 2.472.868 2.474.057 2.47 1.124 2.472.215 2.512-1.942 2.39-.502 2.39.278 2.474-.874 2.471.559 2.472-1.08 2.472.547 2.512 1.857 2.472.58 2.474.296 2.47 1.181 2.472-.017 2.512-.827 2.431-1.782 2.43.962 2.473-.19 2.472 1.136 2.472-.382 2.472 1.945 2.512.154 2.472-.767 2.474 1.167 2.47.043 2.472 1.323 2.512-1.345 4.78.26 2.473 1.768 2.472.117 2.472.36 2.472-.389 4.984 1.817 2.474-.254 2.47.58 2.472 1.39 2.512-1.01 2.39.173 2.39.529 2.473.258 2.472-.07 2.472.048 2.472.352 2.512.21 2.472.452 2.473-.683 4.942.834 2.513-.729 7.253.773 2.472.279 2.472.062 2.472-.44 2.512-.036 2.472.143 2.473-.69 2.47 1.095 2.472-.05 2.513-.463 2.43.365 2.43-.182 2.474-.821 2.472.982 2.472.633 2.472-.577 2.512 1.22 2.472.11 2.473.296h0" fill="none" stroke="#ff9896" stroke-linecap="square" stroke-width="1.5" id="line2d_22"/><path clip-path="url(#p174abddcf0)" d="M98.952 313.628l2.512-.007 2.472.007h4.943l2.472-.007 2.513.007h2.39l2.39-.007 2.473.007h17.343l2.472-.014 2.512.014 2.432-.022 2.43.008h2.473l2.472.007h4.943l2.513.007h2.472l2.473-.007 2.47.007h2.472l2.512-.007 2.391-.008 2.39.015 2.473-.021 2.472.014H190.288l2.471.007 2.474-.014 2.47.007 2.472-.028 2.512.028 2.391-.008 2.39.001 2.473-.007 2.471-.014 2.472.02 2.472-.006 2.512-.007 2.472-.066 2.474-.039 2.47.075 2.472-.033 2.512-.028 2.39-.13 2.39.081 2.474-.056 2.471.098 2.472-.098 2.472.028 2.512.063 2.472.003 2.474-.276 2.47-.18 2.472.089 2.512-.127 2.431-.335 2.43.027 2.473.186 2.472.024 2.472-.024 2.472.172 2.512-.022 2.472-.179 2.474.011 2.47-.214 2.472.235 2.512-.266 2.39.063 2.39-.322 2.473.225 2.472-1.662 2.472-1.322 2.472.383 2.512-.372 2.472.417 2.474-.6 2.47-.921 2.472.992 2.512-.484 2.39-.346 2.39-.705 2.473.007 2.472-.126 2.472.075 2.472-.895 2.512-.449 2.472.207 2.473-1.132 2.47.031 2.472 1.196 2.513-1.521 2.39-.188 2.39-.079 2.473-.082 2.472-.142 2.472-.85 2.472-1.21 2.512 1.058 2.472-.79 2.473-.22 2.47-.46 2.472 1.428 2.513-1.802 2.43-.336 2.43-.89 2.474-2.384 2.472.435 2.472 1.021 2.472 1.664 2.512.343 2.472-.971 2.473.06" fill="none" stroke="#98df8a" stroke-linecap="square" stroke-width="1.5" id="line2d_23"/><g transform="matrix(.14 0 0 -.14 406.032 109.26)" fill="#1f77b4" id="text_14"><defs><path d="M14.984 23.688q0-8.407 4.094-13 4.11-4.579 10.219-4.579 6.687 0 10.39 5.438 3.72 5.453 3.72 14.765 0 10.22-3.563 14.907-3.563 4.687-10.735 4.687-6.984 0-10.562-5.5-3.563-5.5-3.563-16.718zm-8.39 28.609h8.297v-7.375h.203q5.61 8.89 15.625 8.89 10.11 0 15.937-7.359 5.828-7.344 5.828-18.766 0-12.796-5.953-21Q40.578-1.515 29.5-1.515q-9.094 0-13.922 7.032h-.203v-26.22H6.594z" id="HelveticaWorld-Regular-112"/><path d="M39.016 52.297h9.562L29.891.984q-.5-1.375-.985-2.593-4.25-11.329-7.328-15.547-3.078-4.235-9.953-4.235-3.61 0-5.906.782v8.015q2.484-.89 5.468-.89 3.22 0 4.704 2.03 1.5 2.032 4.421 9.938L.875 52.297h9.922L24.812 9.719H25z" id="HelveticaWorld-Regular-121"/><path d="M17.188 45.016V10.984q0-2 1.093-3.046 1.11-1.047 3.938-1.047h3.375V0Q20.797-.688 19-.688q-5.516 0-8.063 2.641-2.53 2.64-2.53 8.547v34.516H1.311v7.28h7.094v14.595h8.781V52.297h8.407v-7.281z" id="HelveticaWorld-Regular-116"/><path d="M49.219 0h-8.844v34.188q0 6.296-2.438 9-2.437 2.718-7.953 2.718-6.797 0-10.703-4.406-3.906-4.39-3.906-12.984V0H6.594v71.781h8.781V45.312h.203q6 8.5 15.328 8.5 8.594 0 13.453-4.5 4.86-4.484 4.86-13.718z" id="HelveticaWorld-Regular-104"/><path d="M12.703 26.219q0-8.735 3.953-14.375 3.953-5.64 11.219-5.64 7.531 0 11.438 5.905 3.906 5.907 3.906 14.11 0 8.297-3.907 14.078-3.906 5.797-11.437 5.797-6.969 0-11.078-5.453-4.094-5.438-4.094-14.422zm-8.984 0q0 11.672 6.484 19.625 6.5 7.968 17.672 7.968 11.438 0 17.875-8.062 6.453-8.047 6.453-19.531 0-11.516-6.406-19.625-6.39-8.11-17.922-8.11-11.078 0-17.625 7.86-6.531 7.86-6.531 19.875z" id="HelveticaWorld-Regular-111"/><path d="M49.219 0h-8.844v32.172q0 7.422-2.594 10.578-2.578 3.156-8.578 3.156-5.906 0-9.875-4.5-3.953-4.484-3.953-12.89V0H6.594v52.297h8.297v-7.375h.203q6.203 8.89 15.812 8.89 8.89 0 13.594-4.718 4.719-4.703 4.719-13.5z" id="HelveticaWorld-Regular-110"/></defs><use xlink:href="#HelveticaWorld-Regular-112"/><use x="54.494" xlink:href="#HelveticaWorld-Regular-121"/><use x="105.104" xlink:href="#HelveticaWorld-Regular-116"/><use x="132.789" xlink:href="#HelveticaWorld-Regular-104"/><use x="187.965" xlink:href="#HelveticaWorld-Regular-111"/><use x="243.873" xlink:href="#HelveticaWorld-Regular-110"/></g><g transform="matrix(.14 0 0 -.14 406.032 167.428)" fill="#ff7f0e" id="text_15"><defs><path d="M15.375 61.813H6.594v9.968h8.781zm0-69.532q0-7.468-3.547-10.375Q8.297-21 2-21q-1.797 0-3.703.297v7.61H.594q3.703 0 4.843 1.109 1.157 1.093 1.157 5.296v58.985h8.781z" id="HelveticaWorld-Regular-106"/><path d="M38.375 26.703q-.969-1.015-3.828-1.656-2.86-.625-10.672-1.656-5.766-.688-8.469-2.844-2.703-2.14-2.703-5.656 0-4.297 2.281-6.688 2.297-2.39 7.329-2.39 6.296 0 11.171 3.578 4.891 3.593 4.891 8.718zM6.203 36.375q.297 8.844 5.734 13.14 5.454 4.297 15.844 4.297 8.297 0 13.907-3.765 5.624-3.75 5.624-10.844V9.078Q47.313 6 50.094 6q1.125 0 2.89.39V0Q50.594-.984 48-.984q-4.5 0-6.703 1.921-2.188 1.938-2.281 6.047-7.516-8.5-18.891-8.5-7.422 0-11.922 4.204Q3.72 6.89 3.72 13.624q0 6.89 3.906 11.125Q11.531 29 19 29.89l15.516 1.891q4.203.64 4.203 6.203 0 4.11-3.047 6.297-3.047 2.203-9.25 2.203-5.516 0-8.485-2.437-2.953-2.438-3.53-7.672z" id="HelveticaWorld-Regular-97"/><path d="M39.406 52.297h9.625L29.11 0h-9.437L.594 52.297h10.203L24.422 9.719h.187z" id="HelveticaWorld-Regular-118"/><path d="M36.078 37.406q-.187 4.688-3.344 6.735-3.14 2.047-9.047 2.047-4.296 0-7.359-1.907-3.047-1.89-3.047-5.468 0-2.829 1.797-4.172 1.813-1.344 7.828-2.86l8.688-2.187q7.906-2 11.297-5.11 3.406-3.093 3.406-8.656 0-7.719-5.64-12.531-5.641-4.813-15.063-4.813-11 0-16.64 4.563-5.626 4.578-5.735 13.75h8.5q.203-5.422 3.594-8.063 3.39-2.625 10.171-2.625 5.516 0 8.766 2.188 3.25 2.203 3.25 6.11 0 2.78-2.11 4.437-2.093 1.672-8.296 3.078l-10.203 2.5q-6.203 1.562-9.157 4.656-2.953 3.094-2.953 8.031 0 7.72 5.516 12.203 5.531 4.5 14.406 4.5 9.485 0 14.531-4.624 5.047-4.61 5.344-11.782z" id="HelveticaWorld-Regular-115"/><path d="M39.594 34.719q-1.89 11.187-12.39 11.187-6.5 0-10.454-5.203-3.953-5.203-3.953-14.484 0-10.11 3.656-15.11 3.672-5 10.64-5 4.688 0 8.11 3.438 3.422 3.437 4.39 8.953h8.5q-1.312-9.703-6.859-14.86-5.547-5.156-14.328-5.156-10.297 0-16.89 7.047-6.594 7.063-6.594 19.172 0 13.281 6.594 21.188 6.593 7.922 18.5 7.922 8.687 0 13.843-5.204 5.157-5.203 5.735-13.89z" id="HelveticaWorld-Regular-99"/><path d="M15.375 0H6.594v52.297h8.297v-8.688h.203q5.703 10.203 14.687 10.203 1.422 0 2.297-.296V44.39h-3.266q-5.906 0-9.671-4.016-3.766-4-3.766-9.953z" id="HelveticaWorld-Regular-114"/><path d="M6.594 61.813v9.968h8.781v-9.969zM15.375 0H6.594v52.297h8.781z" id="HelveticaWorld-Regular-105"/></defs><use xlink:href="#HelveticaWorld-Regular-106"/><use x="22.021" xlink:href="#HelveticaWorld-Regular-97"/><use x="74.703" xlink:href="#HelveticaWorld-Regular-118"/><use x="121.938" xlink:href="#HelveticaWorld-Regular-97"/><use x="176.869" xlink:href="#HelveticaWorld-Regular-115"/><use x="226.869" xlink:href="#HelveticaWorld-Regular-99"/><use x="278.139" xlink:href="#HelveticaWorld-Regular-114"/><use x="310.707" xlink:href="#HelveticaWorld-Regular-105"/><use x="332.729" xlink:href="#HelveticaWorld-Regular-112"/><use x="389.223" xlink:href="#HelveticaWorld-Regular-116"/></g><g transform="matrix(.14 0 0 -.14 406.032 201.805)" fill="#2ca02c" id="text_16"><use xlink:href="#HelveticaWorld-Regular-106"/><use x="22.021" xlink:href="#HelveticaWorld-Regular-97"/><use x="74.703" xlink:href="#HelveticaWorld-Regular-118"/><use x="121.938" xlink:href="#HelveticaWorld-Regular-97"/></g><g transform="matrix(.14 0 0 -.14 406.032 215.826)" fill="#d62728" id="text_17"><defs><path d="M22.61 41.5l-2-14.203h12.5L35.015 41.5zM35.89 0h-6.593l2.875 21h-12.5L16.797 0h-6.594l2.89 21H2.782l.938 6.297h10.297L15.922 41.5H5.609l.891 6.297h10.297l2.875 21h6.75l-2.938-21h12.407l2.922 21h6.703l-2.938-21h10.297L52 41.5H41.703l-2-14.203H50L49.125 21H38.812z" id="HelveticaWorld-Regular-35"/></defs><use xlink:href="#HelveticaWorld-Regular-99"/><use x="51.27" xlink:href="#HelveticaWorld-Regular-35"/></g><g transform="matrix(.14 0 0 -.14 406.032 229.826)" fill="#9467bd" id="text_18"><use xlink:href="#HelveticaWorld-Regular-112"/><use x="56.494" xlink:href="#HelveticaWorld-Regular-104"/><use x="111.67" xlink:href="#HelveticaWorld-Regular-112"/></g><use xlink:href="#HelveticaWorld-Regular-114" transform="matrix(.14 0 0 -.14 406.032 243.826)" fill="#8c564b" id="text_19"/><g transform="matrix(.14 0 0 -.14 406.032 257.826)" fill="#e377c2" id="text_20"><defs><path d="M25.688 50.484h7.328V28.906h21.578v-7.328H33.016V0h-7.328v21.578H4v7.328h21.688z" id="HelveticaWorld-Regular-43"/></defs><use xlink:href="#HelveticaWorld-Regular-99"/><use x="51.27" xlink:href="#HelveticaWorld-Regular-43"/><use x="109.863" xlink:href="#HelveticaWorld-Regular-43"/></g><g transform="matrix(.14 0 0 -.14 406.032 271.826)" fill="#7f7f7f" id="text_21"><defs><path d="M41.5 23.688q0 11.125-3.5 16.671-3.484 5.547-10.61 5.547-6.874 0-10.593-4.5-3.703-4.484-3.703-15.093 0-9.422 3.75-14.813 3.765-5.39 10.36-5.39 5.812 0 10.046 4.39 4.25 4.39 4.25 13.188zm8.406-44.391H41.11V5.516h-.187Q35.89-1.516 27-1.516q-10.984 0-17 8.157-6 8.156-6 21.047 0 11.421 5.906 18.765 5.922 7.36 15.875 7.36 9.907 0 15.625-8.891h.203v7.375h8.297z" id="HelveticaWorld-Regular-113"/><path d="M15.375 0H6.594v71.781h8.781z" id="HelveticaWorld-Regular-108"/></defs><use xlink:href="#HelveticaWorld-Regular-115"/><use x="49" xlink:href="#HelveticaWorld-Regular-113"/><use x="105.494" xlink:href="#HelveticaWorld-Regular-108"/></g><g transform="matrix(.14 0 0 -.14 406.032 285.778)" fill="#bcbd22" id="text_22"><defs><path d="M42.484 30.328q-.687 8.485-4.5 12.031-3.797 3.547-10.109 3.547-6.39 0-10.328-4.5-3.922-4.484-4.172-11.078zm8.391-13.922q-1.453-8.11-7.953-13.422-5.719-4.5-15.047-4.593-10.984.093-17.438 7.203Q4 12.704 4 24.704q0 13.78 6.64 21.437 6.641 7.672 18.47 7.672 10.593 0 16.546-7.922 5.953-7.907 5.953-22.594H13.375q0-8.203 3.813-12.703Q21 6.109 28.608 6.109q5.375 0 9.235 3.235 3.86 3.25 4.25 7.062z" id="HelveticaWorld-Regular-101"/></defs><use xlink:href="#HelveticaWorld-Regular-116"/><use x="27.686" xlink:href="#HelveticaWorld-Regular-121"/><use x="77.295" xlink:href="#HelveticaWorld-Regular-112"/><use x="133.789" xlink:href="#HelveticaWorld-Regular-101"/><use x="189.209" xlink:href="#HelveticaWorld-Regular-115"/><use x="239.209" xlink:href="#HelveticaWorld-Regular-99"/><use x="290.479" xlink:href="#HelveticaWorld-Regular-114"/><use x="323.047" xlink:href="#HelveticaWorld-Regular-105"/><use x="345.068" xlink:href="#HelveticaWorld-Regular-112"/><use x="401.563" xlink:href="#HelveticaWorld-Regular-116"/></g><g transform="matrix(.14 0 0 -.14 406.032 299.826)" fill="#17becf" id="text_23"><defs><path d="M25.594 0h-8.985L1.516 52.297h9.468L21 11.187h.188l10.109 41.11h9.922l10.203-41.11h.187l10.594 41.11h8.703L55.812 0h-9.234L35.984 40.484h-.187z" id="HelveticaWorld-Regular-119"/><path d="M17.188 45.016V0H8.405v45.016H1.22v7.28h7.187v8.985q0 5.907 3.578 8.703 3.594 2.813 10.032 2.813 2.203 0 3.968-.188v-7.906q-1.562.188-3.578.188-2.922 0-4.078-1.438-1.14-1.437-1.14-4.656v-6.5h8.796v-7.281z" id="HelveticaWorld-Regular-102"/></defs><use xlink:href="#HelveticaWorld-Regular-115"/><use x="48" xlink:href="#HelveticaWorld-Regular-119"/><use x="120.412" xlink:href="#HelveticaWorld-Regular-105"/><use x="142.434" xlink:href="#HelveticaWorld-Regular-102"/><use x="170.119" xlink:href="#HelveticaWorld-Regular-116"/></g><use xlink:href="#HelveticaWorld-Regular-99" transform="matrix(.14 0 0 -.14 406.032 313.826)" fill="#aec7e8" id="text_24"/><g transform="matrix(.14 0 0 -.14 406.032 327.826)" fill="#ffbb78" id="text_25"><defs><path d="M13.094 26.313q0-9.704 3.844-14.954 3.859-5.25 10.265-5.25 6.094 0 10.188 4.485 4.109 4.5 4.109 13.094 0 11.03-3.5 16.625-3.484 5.593-10.61 5.593-6.78 0-10.546-4.453-3.75-4.437-3.75-15.14zM50.39 0h-8.297v7.172h-.203q-4.97-8.688-15.078-8.688-10.891 0-16.86 8.297Q4 15.094 4 27.688q0 11.625 5.906 18.875 5.922 7.25 15.875 7.25 9.813 0 15.625-8.891l.203.594V71.78h8.782z" id="HelveticaWorld-Regular-100"/></defs><use xlink:href="#HelveticaWorld-Regular-100"/><use x="56.982" xlink:href="#HelveticaWorld-Regular-97"/><use x="111.914" xlink:href="#HelveticaWorld-Regular-114"/><use x="145.982" xlink:href="#HelveticaWorld-Regular-116"/></g><g transform="matrix(.14 0 0 -.14 406.032 341.826)" fill="#98df8a" id="text_26"><defs><path d="M50 0H38.719L22.406 26.422l-7.312-6.594V0h-8.5v71.781h8.5v-41.61l22.5 22.126H48.78L28.813 32.813z" id="HelveticaWorld-Regular-107"/></defs><use xlink:href="#HelveticaWorld-Regular-107"/><use x="47.625" xlink:href="#HelveticaWorld-Regular-111"/><use x="103.533" xlink:href="#HelveticaWorld-Regular-116"/><use x="131.219" xlink:href="#HelveticaWorld-Regular-108"/><use x="153.24" xlink:href="#HelveticaWorld-Regular-105"/><use x="175.262" xlink:href="#HelveticaWorld-Regular-110"/></g><g transform="matrix(.14 0 0 -.14 406.032 355.778)" fill="#ff9896" id="text_27"><defs><path d="M6.11 52.297h8.78V17.578q0-5.765 2.61-8.625Q20.125 6.11 25 6.11q6.781 0 10.594 4.797 3.812 4.813 3.812 12.578v28.813h8.782V0H39.89v7.625l-.188.188q-4.984-9.329-16.61-9.329-7.515 0-12.25 4.094Q6.11 6.688 6.11 14.703z" id="HelveticaWorld-Regular-117"/><path d="M43.406 26.313q0 10.5-3.718 15.046-3.704 4.547-10.579 4.547-6.984-.11-10.562-5.453Q14.984 35.11 14.984 25q0-10.297 4.297-14.594Q23.578 6.11 29.297 6.11q6.5 0 10.297 5.344 3.812 5.344 3.812 14.86zM6.594 0v71.781h8.781V45.703h.203q5.61 8.11 15.14 8.11 9.766 0 15.766-7.25t6-18.876q0-13.093-6.062-21.156Q40.375-1.516 29.5-1.516q-9.578 0-14.406 8.016h-.203V0z" id="HelveticaWorld-Regular-98"/></defs><use xlink:href="#HelveticaWorld-Regular-114"/><use x="32.568" xlink:href="#HelveticaWorld-Regular-117"/><use x="87.354" xlink:href="#HelveticaWorld-Regular-98"/><use x="141.848" xlink:href="#HelveticaWorld-Regular-121"/></g><g transform="matrix(.14 0 0 -.14 406.032 369.805)" fill="#c5b0d5" id="text_28"><defs><path d="M28.906 23.188H4.391v8.984h24.515z" id="HelveticaWorld-Regular-45"/></defs><use xlink:href="#HelveticaWorld-Regular-111"/><use x="55.908" xlink:href="#HelveticaWorld-Regular-98"/><use x="112.402" xlink:href="#HelveticaWorld-Regular-106"/><use x="134.424" xlink:href="#HelveticaWorld-Regular-101"/><use x="189.844" xlink:href="#HelveticaWorld-Regular-99"/><use x="241.113" xlink:href="#HelveticaWorld-Regular-116"/><use x="268.799" xlink:href="#HelveticaWorld-Regular-105"/><use x="290.82" xlink:href="#HelveticaWorld-Regular-118"/><use x="338.43" xlink:href="#HelveticaWorld-Regular-101"/><use x="393.85" xlink:href="#HelveticaWorld-Regular-45"/><use x="427.15" xlink:href="#HelveticaWorld-Regular-99"/></g><g transform="matrix(.09716 0 0 -.09716 45.341 347.399)" fill="#969696" id="text_29"><defs><path d="M50.39 50.781q-.296 6.844-5.109 10.719-4.797 3.875-12.656 3.875-7.922 0-12.172-3.25-4.234-3.234-4.234-9.344 0-3.265 1.843-5.61 1.86-2.343 6.641-3.468l20.516-4.687q8.297-1.813 12.297-6.875 4.015-5.047 4.015-12.313 0-10.64-7.812-16.187-7.813-5.547-20.313-5.547-9.531 0-15.031 2.437-5.484 2.453-9.734 7.766-4.25 5.328-4.25 14.89h9.093q0-8 5.313-12.406 5.328-4.39 14.5-4.39 8.89 0 13.844 3.156 4.953 3.156 4.953 8.953 0 5.281-2.953 7.89Q46.188 29 37.594 31l-15.469 3.625q-7.719 1.75-11.531 6.125Q6.78 45.125 6.78 51.516q0 9.672 6.516 15.922 6.531 6.25 18.203 6.25 13.172 0 20.328-5.5 7.156-5.485 7.688-17.407z" id="HelveticaWorld-Regular-83"/><path d="M63.922 35.89q0 12.594-6.672 20.891-6.656 8.313-18.328 8.313-11.531 0-18.266-8.313-6.734-8.297-6.734-20.89 0-12.985 6.828-21.094 6.844-8.11 18.172-8.11 11.078 0 18.031 7.907 6.969 7.922 6.969 21.297zm9.953 0q0-16.062-9.281-26.937-9.266-10.86-25.672-10.86-16.516 0-25.766 10.86-9.25 10.875-9.25 26.938 0 16.109 9.25 26.953 9.25 10.843 25.766 10.843 16.89 0 25.922-11.046 9.031-11.032 9.031-26.75z" id="HelveticaWorld-Regular-79"/><path d="M44 29.5L33.406 61.078h-.203L21.687 29.5zm-25.297-8.594L11.188 0h-9.97l27 71.781h10.985L65.187 0H54.594l-7.078 20.906z" id="HelveticaWorld-Regular-65"/><path d="M17.828 38.625H37.11q7.282 0 10.938 3.188 3.656 3.203 3.656 9.703 0 5.812-3.516 8.89-3.515 3.078-10.687 3.078H17.828zm0-38.625H8.11v71.781h32.266q9.625 0 15.484-5.594 5.86-5.593 5.86-14.578 0-9.328-5.672-15.312-5.656-5.969-15.672-5.969H17.828z" id="HelveticaWorld-Regular-80"/><path d="M17.828 0H8.11v71.781h9.72z" id="HelveticaWorld-Regular-73"/><path d="M12.984 26.313q0-9.61 3.813-14.907Q20.609 6.11 27.094 6.11q6.312 0 10.312 4.579 4 4.593 4 13 0 11.03-3.5 16.625-3.484 5.593-10.61 5.593-7.171 0-10.75-4.765-3.562-4.766-3.562-14.828zM49.812 2.983q0-12.609-6.062-18.797-6.047-6.203-18.266-6.203-8.78 0-13.984 4.047Q6.297-13.922 5.516-6.39h8.796q.672-3.812 3.532-6.062 2.86-2.25 8.281-2.25 7.375 0 11.125 3.969 3.766 3.953 3.766 12.828v3.719h-.188q-4.937-7.329-13.922-7.329-11.187 0-17.093 8.25-5.907 8.25-5.907 20.953 0 11.625 5.953 18.875 5.97 7.25 15.829 7.25 9.906 0 15.625-8.89h.187v7.375h8.313z" id="HelveticaWorld-Regular-103"/><path d="M9.422 73.688h7.281V-1.906H9.422z" id="HelveticaWorld-Regular-124"/><path d="M55.61 71.781h9.374V0h-10.78L17.577 58.016h-.187V0H8.109v71.781h11.375l35.938-57.969h.187z" id="HelveticaWorld-Regular-78"/><path d="M12.703 26.219q0-8.735 3.953-14.375 3.953-5.64 11.219-5.64 7.531 0 11.438 5.905 3.906 5.907 3.906 14.11 0 8.297-3.907 14.078-3.906 5.797-11.437 5.797-6.969 0-11.078-5.453-4.094-5.438-4.094-14.422zm-8.984 0q0 11.672 6.484 19.625 6.5 7.968 17.672 7.968 11.438 0 17.875-8.062 6.453-8.047 6.453-19.531 0-11.516-6.406-19.625-6.39-8.11-17.922-8.11-11.078 0-17.625 7.86-6.531 7.86-6.531 19.875zm36.734 35.406H31.47v10.156h8.984zm-16.219 0H15.25v10.156h8.984z" id="HelveticaWorld-Regular-246"/><path d="M6.594 52.297h8.297v-7.375h.203q5.906 8.89 15.812 8.89 9.813 0 13.922-8.5 3.75 4.594 7.266 6.547 3.515 1.953 8.703 1.953 6.781 0 11.484-4.453Q77 44.922 77 36.187V0h-8.781v33.797q0 6.094-2.297 9.094-2.297 3.015-7.422 3.015-5.172 0-8.75-4.203-3.563-4.203-3.563-9.812V0h-8.78v36.188q0 4.53-2.11 7.124-2.094 2.594-6.094 2.594-6.297 0-10.062-4.687-3.766-4.688-3.766-12.703V0H6.594z" id="HelveticaWorld-Regular-109"/><path d="M58.016 50.203q-1.625 7.313-6.782 11.094-5.14 3.797-13.343 3.797-10.594 0-17.047-7.703-6.438-7.688-6.438-20.766 0-15.14 6.094-22.547 6.11-7.39 17.688-7.39 7.609 0 13.093 5.046 5.5 5.063 7.407 14.688h9.421Q66.22 12.594 57.625 5.344t-20.906-7.25q-14.703 0-23.516 10.11Q4.391 18.311 4.391 36.28q0 17.328 9.203 27.36 9.203 10.047 24.297 10.047 12.5 0 20.265-6.454 7.766-6.437 9.235-17.03z" id="HelveticaWorld-Regular-67"/><path d="M8.11 71.781h31.484q9.281 0 14.797-5.031 5.515-5.031 5.515-13.031 0-4.844-2.422-8.828-2.406-3.97-7.187-6.172 6.687-2.532 9.828-6.735 3.156-4.203 3.156-10.797 0-9.265-6.687-15.234Q49.906 0 38.922 0H8.109zm9.562-63.484h20.703q7.625 0 11.422 3.531 3.812 3.547 3.812 9.563 0 6.093-4.25 9.093Q45.125 33.5 36.812 33.5h-19.14zm0 33.11h17.625q7.719 0 11.312 2.796 3.594 2.813 3.594 8.781 0 5.125-3.406 7.813-3.39 2.687-11.39 2.687H17.671z" id="HelveticaWorld-Regular-66"/><path d="M37.313 0h-9.72v28.906L.485 71.781h11.329l20.609-34.469 20.562 34.47h11.422L37.312 28.905z" id="HelveticaWorld-Regular-89"/></defs><use xlink:href="#HelveticaWorld-Regular-83"/><use x="66.211" xlink:href="#HelveticaWorld-Regular-116"/><use x="93.896" xlink:href="#HelveticaWorld-Regular-97"/><use x="148.828" xlink:href="#HelveticaWorld-Regular-99"/><use x="200.098" xlink:href="#HelveticaWorld-Regular-107"/><use x="250.098" xlink:href="#HelveticaWorld-Regular-79"/><use x="327.881" xlink:href="#HelveticaWorld-Regular-118"/><use x="375.49" xlink:href="#HelveticaWorld-Regular-101"/><use x="430.91" xlink:href="#HelveticaWorld-Regular-114"/><use x="464.979" xlink:href="#HelveticaWorld-Regular-102"/><use x="492.664" xlink:href="#HelveticaWorld-Regular-108"/><use x="514.686" xlink:href="#HelveticaWorld-Regular-111"/><use x="569.094" xlink:href="#HelveticaWorld-Regular-119"/><use x="641.506" xlink:href="#HelveticaWorld-Regular-32"/><use x="665.92" xlink:href="#HelveticaWorld-Regular-65"/><use x="732.619" xlink:href="#HelveticaWorld-Regular-80"/><use x="797.268" xlink:href="#HelveticaWorld-Regular-73"/><use x="823.049" xlink:href="#HelveticaWorld-Regular-32"/><use x="847.463" xlink:href="#HelveticaWorld-Regular-118"/><use x="897.072" xlink:href="#HelveticaWorld-Regular-105"/><use x="919.094" xlink:href="#HelveticaWorld-Regular-97"/><use x="974.025" xlink:href="#HelveticaWorld-Regular-32"/><use x="998.439" xlink:href="#HelveticaWorld-Regular-115"/><use x="1048.439" xlink:href="#HelveticaWorld-Regular-116"/><use x="1076.125" xlink:href="#HelveticaWorld-Regular-97"/><use x="1131.057" xlink:href="#HelveticaWorld-Regular-99"/><use x="1182.326" xlink:href="#HelveticaWorld-Regular-107"/><use x="1232.326" xlink:href="#HelveticaWorld-Regular-116"/><use x="1260.012" xlink:href="#HelveticaWorld-Regular-97"/><use x="1314.943" xlink:href="#HelveticaWorld-Regular-103"/><use x="1370.852" xlink:href="#HelveticaWorld-Regular-115"/><use x="1420.852" xlink:href="#HelveticaWorld-Regular-32"/><use x="1445.266" xlink:href="#HelveticaWorld-Regular-124"/><use x="1471.242" xlink:href="#HelveticaWorld-Regular-32"/><use x="1495.656" xlink:href="#HelveticaWorld-Regular-78"/><use x="1568.752" xlink:href="#HelveticaWorld-Regular-105"/><use x="1590.773" xlink:href="#HelveticaWorld-Regular-99"/><use x="1642.043" xlink:href="#HelveticaWorld-Regular-111"/><use x="1697.951" xlink:href="#HelveticaWorld-Regular-32"/><use x="1722.365" xlink:href="#HelveticaWorld-Regular-83"/><use x="1788.576" xlink:href="#HelveticaWorld-Regular-99"/><use x="1839.846" xlink:href="#HelveticaWorld-Regular-104"/><use x="1895.021" xlink:href="#HelveticaWorld-Regular-108"/><use x="1917.043" xlink:href="#HelveticaWorld-Regular-246"/><use x="1972.951" xlink:href="#HelveticaWorld-Regular-109"/><use x="2055.959" xlink:href="#HelveticaWorld-Regular-101"/><use x="2111.379" xlink:href="#HelveticaWorld-Regular-114"/><use x="2143.947" xlink:href="#HelveticaWorld-Regular-32"/><use x="2168.361" xlink:href="#HelveticaWorld-Regular-124"/><use x="2194.338" xlink:href="#HelveticaWorld-Regular-32"/><use x="2218.752" xlink:href="#HelveticaWorld-Regular-67"/><use x="2291.066" xlink:href="#HelveticaWorld-Regular-67"/><use x="2363.381" xlink:href="#HelveticaWorld-Regular-32"/><use x="2387.795" xlink:href="#HelveticaWorld-Regular-66"/><use x="2450.607" xlink:href="#HelveticaWorld-Regular-89"/></g><g transform="matrix(.14 0 0 -.14 87.834 17.516)" fill="#969696" id="text_30"><defs><path d="M17.828 8.297h18.797q9.766 0 15.281 7.5 5.516 7.5 5.516 20.484 0 12.844-5.563 19.969-5.562 7.125-16.062 7.234H17.828zM8.11 71.78h29.094q14.11 0 22.094-9.703 7.984-9.687 7.984-25.156 0-16.61-7.984-26.766Q51.313 0 36.813 0H8.108z" id="HelveticaWorld-Regular-68"/></defs><use xlink:href="#HelveticaWorld-Regular-68"/><use x="72.021" xlink:href="#HelveticaWorld-Regular-97"/><use x="126.953" xlink:href="#HelveticaWorld-Regular-105"/><use x="148.975" xlink:href="#HelveticaWorld-Regular-108"/><use x="170.996" xlink:href="#HelveticaWorld-Regular-121"/><use x="220.605" xlink:href="#HelveticaWorld-Regular-32"/><use x="245.02" xlink:href="#HelveticaWorld-Regular-110"/><use x="300.195" xlink:href="#HelveticaWorld-Regular-117"/><use x="354.98" xlink:href="#HelveticaWorld-Regular-109"/><use x="437.988" xlink:href="#HelveticaWorld-Regular-98"/><use x="494.482" xlink:href="#HelveticaWorld-Regular-101"/><use x="549.902" xlink:href="#HelveticaWorld-Regular-114"/><use x="582.471" xlink:href="#HelveticaWorld-Regular-32"/><use x="606.885" xlink:href="#HelveticaWorld-Regular-111"/><use x="662.793" xlink:href="#HelveticaWorld-Regular-102"/><use x="690.479" xlink:href="#HelveticaWorld-Regular-32"/><use x="714.893" xlink:href="#HelveticaWorld-Regular-113"/><use x="771.387" xlink:href="#HelveticaWorld-Regular-117"/><use x="826.172" xlink:href="#HelveticaWorld-Regular-101"/><use x="881.592" xlink:href="#HelveticaWorld-Regular-115"/><use x="931.592" xlink:href="#HelveticaWorld-Regular-116"/><use x="959.277" xlink:href="#HelveticaWorld-Regular-105"/><use x="981.299" xlink:href="#HelveticaWorld-Regular-111"/><use x="1037.207" xlink:href="#HelveticaWorld-Regular-110"/><use x="1092.383" xlink:href="#HelveticaWorld-Regular-115"/><use x="1142.383" xlink:href="#HelveticaWorld-Regular-32"/><use x="1166.797" xlink:href="#HelveticaWorld-Regular-111"/><use x="1222.705" xlink:href="#HelveticaWorld-Regular-110"/><use x="1277.881" xlink:href="#HelveticaWorld-Regular-32"/><use x="1302.295" xlink:href="#HelveticaWorld-Regular-83"/><use x="1368.506" xlink:href="#HelveticaWorld-Regular-116"/><use x="1396.191" xlink:href="#HelveticaWorld-Regular-97"/><use x="1451.123" xlink:href="#HelveticaWorld-Regular-99"/><use x="1502.393" xlink:href="#HelveticaWorld-Regular-107"/><use x="1552.393" xlink:href="#HelveticaWorld-Regular-79"/><use x="1630.176" xlink:href="#HelveticaWorld-Regular-118"/><use x="1677.785" xlink:href="#HelveticaWorld-Regular-101"/><use x="1733.205" xlink:href="#HelveticaWorld-Regular-114"/><use x="1767.273" xlink:href="#HelveticaWorld-Regular-102"/><use x="1794.959" xlink:href="#HelveticaWorld-Regular-108"/><use x="1816.98" xlink:href="#HelveticaWorld-Regular-111"/><use x="1871.389" xlink:href="#HelveticaWorld-Regular-119"/></g><path clip-path="url(#p174abddcf0)" d="M131.045 313.628l2.472-.014 2.473-.112 2.47.097 2.472.001 2.512-.028 2.432-.026 2.43.054 2.473-.146 2.472.013 2.472-.02 2.471-.057 2.513-.056 2.472.055 2.473-.328 2.47.017 2.472-.06 2.512-.098 2.391.04 2.39.037 2.473-.528 2.472.297 2.471-.13 2.472.186 2.513.042 2.471.069 2.474-.11 2.47-.455 2.472-.583 2.512-.168 2.391-.045 2.39.388 2.473.147 2.471.323 2.472-.2 2.472.053h2.512l2.472.056 2.474-.078 2.47.143 2.472.215 2.512.217 2.39-.162 2.39.148 2.474-.128 2.471.177 2.472.178 2.472-.094 2.512.246 2.472-.007 2.474-.084 2.47-.09 2.472.279 2.512-.147 2.431-.086 2.43.156 2.473.051 2.472.096 2.472-.19 2.472.134 2.512-.14 2.472.064 2.474.118 2.47-.06 2.472-.038h2.512l2.39-.025 2.39-.017 2.473.03 2.472-.367 2.472-.01 2.472.031 2.512.105 2.472.11 2.474-.124 2.47.153 2.472-.012 2.512.056 2.39-.35 2.39-1.29 2.473-.345 2.472-.356 2.472-.354 2.472-.354 2.512-.19 2.472.153 2.473-.202 2.47.238 2.472-.539 2.513-1.962 2.39.405 2.39.33 2.473-.979 2.472-.24 2.472.197 2.472-1.473 2.512-.294 2.472.144 2.473.354 2.47-.281 2.472-.322 2.513-.904 2.43-.602 2.43.356 2.474-4.989 2.472-1.985 2.472.646 2.472.89 2.512.097 2.472 1.432 2.473-.05" fill="none" stroke="#ffbb78" stroke-linecap="square" stroke-width="1.5" id="line2d_24"/><path clip-path="url(#p174abddcf0)" d="M45.341 310.206l1.906 1.299 2.47.247 2.472.58 2.513-.954 2.39-.326 2.39-.445 2.473-.303 2.472-.04 2.472-.3 2.472-.135 2.512.07 2.472-.414 2.473-1.282 2.47-1.586 2.472 1.047 2.513-.926 2.39-1.134 2.39.188 2.473-.754 2.472.32 2.472-.131 4.984-1.208 2.472-.422 2.473-.097 2.47-2.01 2.472 1.842 2.513.028 2.39-2.474 2.39-2.047 2.473-.015 2.472 1.999 2.472-.014 2.471 1.191 4.985-2.27 2.473-1.115 2.47-.95 2.472 1.861 2.512-1.57 2.432-2.444 2.43-1.124 2.473-.127 2.472 1.908 2.472.627 2.471.116 2.513.385 2.472-2.043 2.473-3.74 2.47-1.033 2.472 5.078 2.512-2.37 2.391-3.756 2.39-.098 2.473-1.52 2.472 3.258 2.471 1.088 2.472.23 2.513.077 2.471-3.537 2.474-5.133 2.47-1.32 2.472 6.5 2.512-1.683 2.391-4.645 2.39-1.242 2.473 2.982 2.471 6.214 2.472 2.817 2.472.182 2.512 1.143 2.472-4.693 2.474-3.262 2.47.025 2.472 4.587 2.512-.407 2.39-3.65 2.39-1.277 2.474-1.165 2.471 3.961 2.472 1.732 2.472 3.23 2.512 1.676 2.472-4.363 2.474-3.417 2.47-.415 2.472 4.578 2.512.274 2.431-3.197 2.43.309 2.473-.052 2.472 5.232 2.472 2.402 2.472.254 2.512.911 2.472-2.678 2.474-4.359 2.47-1.131 2.472 4.068 2.512.26 2.39-1.844 2.39.343 2.473.12 2.472 1.527 2.472 2.087 2.472 2.757 2.512.007 2.472-.859 2.474-4.398 2.47-1.845 2.472 6.022 2.512-.182 2.39-1.032 2.39-.783 2.473 1.443 2.472-.742 2.472 3.393 2.472 1.758 2.512-.729 2.472-1.68 2.473-4.137 2.47-1.122 2.472 2.79 2.513-.568 2.39.113 2.39-.905 2.473-1.278 2.472 2.897 2.472 1.543 2.472.034 2.512 1.486 2.472-4.374 2.473-3.686 2.47-1.058 2.472 4.149 2.513.736 2.43-.17 2.43-3.279 2.474-7.346 2.472.33 2.472 6.11 2.472 4.565 2.512 1.633 2.472-3.171 2.473-1.51h0" fill="none" stroke="#aec7e8" stroke-linecap="square" stroke-width="1.5" id="line2d_25"/><path clip-path="url(#p174abddcf0)" d="M52.19 313.628l41.818-.007 118.404-.063 2.472-17.392 2.472 5.925 2.512-.413 2.472-1.876 2.474-3.493 2.47-1.309 2.472 1.078 4.903-7.67 2.389-.082 2.474-3.973 2.471 2.543 4.944-9.504 2.512.532 2.472 2.605 2.474 2.848 2.47-1.138 2.472.592 2.512-2.93 2.431-2.004 2.43-.022 2.473 1.14 2.472 3.437 2.472-3.762 4.984.363 2.472-.863 2.474 2.166 2.47 1.55 2.472 4.03 2.512-2.811 2.39-1.103 2.39-.888 2.473 3.994 2.472-.356 2.472-1.628 2.472-.09 2.512 1.087 2.472 2.009 2.474.01 2.47.721 2.472 4.115 2.512-3.82 2.39-.211 2.39-1.969 2.473 2.515 2.472.611 2.472 2.482 2.472-4.893 2.512-.532 2.472 2.991 2.473-.18 2.47 1.426 2.472 2.344 2.513-1.1 2.39-.599 2.39.192 2.473-2.206 2.472.152 2.472-1.89 2.472-.843 2.512 4.549 2.472-.527 2.473-3.665 2.47.203 2.472 3.33 7.374-3.56 2.473-4.992 2.472.576 2.472 2.003 2.472 2.265 2.512 2.74 2.472 1.115 2.473 2.334h0" fill="none" stroke="#17becf" stroke-linecap="square" stroke-width="1.5" id="line2d_26"/><path clip-path="url(#p174abddcf0)" d="M163.179 313.628l2.473-1.941 2.47.906 2.472.468 2.512-.106 2.391.13 2.39-.27 2.473.132 2.472.149 2.471-.149 2.472-.076 2.513.007 2.471.127 2.474.049 2.47-.078 2.472-.203 2.512-.175 2.391.107 2.39.09 2.473-.18 2.471.046 2.472.2 2.472-.361 2.512.273 2.472.022 2.474-.162 2.47.22 2.472-.066 2.512-.154 2.39-.006 2.39-.106 2.474-.16 2.471-.464 2.472-.145 2.472-.15 2.512-.055 2.472-.092 2.474-.182 2.47-.585 2.472-.585 2.512-.82 2.431-1.26 2.43-.282 2.473-.928 2.472-.642 2.472-.568 2.472-.967 2.512-.631 2.472-.169 2.474-.665 2.47.245 2.472.414 2.512-1.108 2.39-1.168 2.39-.794 2.473.266 2.472-.82 2.472-.208 2.472-.037 2.512-.933 2.472 1.042 2.474.542 2.47-1.462 2.472 2.29 2.512-1.613 2.39-1.494 2.39-.37 2.473.39 2.472.451 2.472-.414 2.472-.756 2.512-1.83 2.472.956 2.473-1.32 2.47 1.545 2.472 1.181 2.513-2.74 2.39-2.338 2.39 1.644 2.473-1.065 2.472.7 2.472.343 2.472-1.927 2.512 1.767 2.472-.752 2.473-.86 2.47-2.073 2.472 2.949 2.513-.61 2.43-2.48 2.43-.772 2.474-5.063 2.472.661 2.472.831 2.472.403 2.512 2.922 2.472-.826 2.473.616" fill="none" stroke="#bcbd22" stroke-linecap="square" stroke-width="1.5" id="line2d_27"/><path clip-path="url(#p174abddcf0)" d="M45.341 308.481l1.906 1.404 2.47.738 2.472.012 4.904-2.19 2.389.557 2.473-.77 2.472-.526 2.472-.777 2.472-.927 2.512.358 2.472-2.553 2.473-.538 2.47 1.545 2.472.495 2.513-.484 2.39-1.207 2.39-.237 2.473.65 2.472-.566 2.472-1.62 2.472-1.064 2.512-.568 2.472.813 2.473-.385 2.47-1.324 2.472 1.036 2.513-3.224 2.39-.06 2.39-2.078 2.473 1.986 2.472-2.378 2.472-.25 2.471.51 4.985-.04 2.473.55 2.47-2.346 2.472 2.41 2.512-1.521 2.432-3.99 2.43-1.673 2.473 1.153 2.472-.488 2.472.705 2.471-2.226 2.513.225 2.472-.215 2.473-2.659 2.47-2.448 2.472 4.081 2.512-5.502 2.391-2.912 2.39-1.237 2.473.16 2.472 1.62 2.471.669 2.472-3.578 2.513.225 4.945-10.276 2.47.397 2.472 3.795 2.512-5.706 2.391-4.584 2.39-.336 2.473-2.39 2.471 9.16 2.472 1.415 2.472-1.968 2.512 4.556 2.472-2.393 2.474 7.804 2.47 7.218 2.472 1.564 2.512-1.857 2.39-2.628 2.39-1.115 2.474-.44 2.471 2.627 2.472-1.584 2.472.245 2.512 2.769 4.946.203 2.47-.53 2.472 2.037 2.512-1.745 2.431-3.646 2.43-.854 2.473-.087 2.472 1.832 2.472-1.926 2.472 5.353 2.512-.651 2.472.027 2.474-.946 2.47-2.002 2.472 5.1 2.512-1.493 2.39-3.733 2.39-3.212 2.473 3.454 2.472-1.934 2.472 1.08 2.472 1.269 2.512 1.5 2.472 1.62 2.474-1.656 2.47-1.118 2.472 7.048 2.512-3.462 2.39-2.338 2.39-1.363 2.473-.964 2.472.711 2.472 1.49 2.472-.852 2.512.568 2.472 3.746 2.473-3.585 2.47.696 2.472 5.507 2.513-3.4 2.39-4.86 2.39.165 2.473 1.421 4.944 4.252 2.472-4.608 2.512 4.437 2.472-3.226 2.473-2.83 2.47-1.421 2.472 4.919 2.513-1.991 2.43-3.556 2.43.486 2.474-5.196 2.472 1.586 2.472 1.905 2.472 3.128 2.512 3.953 2.472-2.815 2.473-.458h0" fill="none" stroke="#7f7f7f" stroke-linecap="square" stroke-width="1.5" id="line2d_28"/><path clip-path="url(#p174abddcf0)" d="M45.341 305.385l1.906 2.545 2.47.368 2.472.894 2.513-1.542 2.39-.587 2.39-.836 2.473-.008 2.472-1.142 2.472-.531 2.472-1.2 2.512.449 2.472-.785 2.473-1.22 2.47-.887L81.77 302l2.513-2.418 2.39-3.623 2.39.574 2.473-.96 2.472 1.08 2.472-3.507 2.472 1.642 2.512.33 2.472-1.364 2.473-.704 2.47-3.859 2.472 2.408 2.513-2.558 2.39-2.24 2.39-2.562 2.473-.907 2.472 2.954 2.472-.397 2.471.698 2.513-.75 2.472-.868L138.46 281l2.472 1.95 2.512-1.339 2.432-6.426 2.43 1.47 2.473-1.739 2.472 3.527 2.472 1.246 2.471-3.25 2.513.917 2.472.595 2.473-5.837 2.47-4.078 2.472 5.62 2.512-2.615 2.391-4.958 2.39-3.172 2.473-1.387 2.472 3.91 2.471 3.065 2.472-1.137 2.513 2.278 2.471-3.734 2.474-8.525 2.47-2.99 2.472 9.824 2.512-4.774 2.391-5.72 2.39-1.155 2.473 1.875 2.471 11.245 2.472 6.47 2.472-2.818 2.512 2.734 2.472-3.732 2.474-2.969 2.47.31 2.472 5.024 2.512-.456 2.39-7.076 2.39-1.559 2.474.005 2.471 3.948 2.472.643 2.472.184 2.512 5.846 2.472-1.633 2.474-6.589 2.47-1.987 2.472 5.394 2.512 3.245 2.431-6.41 2.43-.242 2.473-.632 2.472 7.032 2.472 1.529 4.984 6.398 2.472-2.19 2.474-4.665 2.47-2.238 2.472 7.48 2.512-2.964 2.39-.585 2.39-3.501 2.473 1.135 2.472 5.39 2.472 3.243 2.472-1.287 2.512 1.696 2.472 1.134 2.474-4.211 2.47.09 2.472 5.195 4.903-4.259 2.389-.893 2.473 2.528 2.472.941 2.472 3.296 2.472 1.211 2.512-.77 2.472.413 2.473-3.519 2.47-1.536 2.472 6.85 2.513-2.398 2.39-1.987 2.39-2.751 2.473-1.597 2.472 3.749 2.472 1.35 2.472-5.871 2.512 7.927 2.472-5.315 2.473-7.624 2.47-.401 2.472 6.317 2.513.28 2.43-2.569 2.43-3.332 2.474-14.19 2.472 1.202 2.472 5.824 2.472 5.306 2.512 3.94 2.472 3.277 2.473-2.338h0" fill="none" stroke="#e377c2" stroke-linecap="square" stroke-width="1.5" id="line2d_29"/><path clip-path="url(#p174abddcf0)" d="M45.341 313.547l1.906.081 19.652-.036 2.472-.321 2.512.028 2.472-.677 2.473.495 2.47-.17 2.472.12 2.513-.098 2.39-.287 2.39-.028 2.473-.185 2.472.185 7.456-1.01 4.945.484 2.47-.252 2.472.19 2.513-.19 2.39-.746 4.863-.95 2.472.448 2.472-.215 2.471.033 2.513-.932 2.472-.318 2.473.08 2.47-.051 2.472.1 2.512-.533 2.432-1.263 2.43-.146 2.473.11 2.472-.047 4.943-1.696 2.513.224 2.472-.023 2.473-1.21 2.47-.876 2.472 1.22 2.512-2.061 2.391-2.394 2.39-.01 2.473-.369 2.472.831 2.471-.353 2.472-.972 2.513.35 2.471 1.071 2.474-2.29 2.47-1.143 2.472 2.489 2.512-3.14 2.391-3.82 2.39.533 2.473-.074 2.471 1.665 2.472.804 2.472-1.162 2.512 1.136 2.472.193 2.474-2.317 2.47-.146 2.472 3.11 2.512-2.382 2.39-4.162 2.39-1.908 2.474.881 2.471.08 2.472-.84 2.472-3.044 2.512 3.435 2.472.333 2.474-1.686 2.47.158 2.472 3.374 2.512-2.55 2.431-2.154 4.903-3.009 2.472 3.389 2.472-1.383 2.472 1.72 2.512-.274 2.472 2.69 2.474-2.662 2.47.743 2.472 3.715 2.512-2.446 2.39-4.094 2.39-3.722 2.473 1.426 2.472.593 2.472-2.027 4.984.226 2.472 1.454 2.474-1.286 2.47-.857 2.472 6.717 2.512-3.372 2.39-5.593 2.39-.743 2.473 1.354 2.472 1.218 2.472.556 2.472.37 2.512.245 2.472 1.529 2.473-3.597 2.47-.676 2.472 8.21 2.513-5.144 2.39-6.38 2.39 1.95 2.473-2.612 2.472 3.496 2.472 1.617 2.472-3.58 2.512 3.498 2.472-.852 2.473-4.013 2.47.42 2.472 6.526 2.513-2.936 2.43-6.835 2.43-1.5 2.474-11.051 2.472 3.363 2.472 2.83 2.472 6.296 2.512 3.35 2.472-3.454 2.473-1.719h0" fill="none" stroke="#8c564b" stroke-linecap="square" stroke-width="1.5" id="line2d_30"/><path clip-path="url(#p174abddcf0)" d="M45.341 308.414l1.906.869 2.47.695 2.472.286 2.513-1.1 2.39-1.503 2.39-.376 2.473-.668 2.472-1.287 2.472-3.152 2.472-2.813 4.984-2.178 2.473-.15 2.47-2.913 2.472-.338 2.513-4.31 2.39-.447 2.39-1.74 2.473-.147 2.472-1.522 2.472-1.694 2.472-2.644 2.512-3.827 2.472 2.111 2.473 2.297 2.47-5.411 2.472-.715 4.903-14.504 2.39-4.84 2.473 1.394 2.472-1.29 2.472-1.476 2.471-2.792 2.513-1.717 2.472 4.132 2.473 1.91 2.47-6.372 2.472 4.48 2.512-6.975 2.432-9.365 2.43-2.01 2.473.979 2.472-1.113 2.472.106 2.471-5.86 2.513-.87 2.472 3.934 2.473-3.204 2.47-2.619 2.472 7.742 2.512-13.008 2.391-8.184 2.39-1.377 2.473 2.08 2.472 5.336 2.471-.092 2.472-8.452 2.513.182 2.471-2.913 2.474-4.341 2.47-.36 2.472 6.843 2.512-17.256 2.391-10.698 2.39-.278 2.473.342 2.471 24.855 2.472 9.352 2.472-5.742 2.512 7.717 2.472-4.155 2.474 1.288 2.47 1.139 2.472 7.833 2.512-8.797 2.39-9.234 2.39.088 2.474-3.948 2.471 6.527 2.472-1.986 2.472-3.81 2.512 8.095 2.472 1.907 2.474.399 2.47 1.086h2.472l2.512-5.761 2.431-9.771 2.43 5.86 2.473 1.09 2.472 3.788 2.472 2.411 2.472 8.481 2.512.344 2.472 2.27 2.474 1.998 2.47-.57 2.472 6.191 2.512-8.158 2.39-8.717 2.39-1.551 2.473 8.635 2.472-1.402 2.472 6.124 2.472 2.728 2.512 1.024 2.472 4.194 2.474 1.546 2.47-.779 2.472 12.778 2.512-7.107 2.39.016 2.39 1.947 2.473 4.114 2.472-1.402 2.472 5.103 2.472-2.95 2.512-1.851 2.472 4.062 2.473-2.289 2.47 5.157 2.472 9.688 2.513-8.053 2.39-6.985 2.39 2.127 2.473 1.775 2.472 3.594 2.472 1.83 2.472-9.287 2.512 8.579 2.472-.472 2.473-2.942 2.47-2.258 2.472 10.571 2.513-6.056 2.43-2.936 2.43 1.78 2.474-13.289 2.472 4.135 2.472 4.882 2.472 4.188 2.512 8.586 2.472-.671 2.473 3.594h0" fill="none" stroke="#9467bd" stroke-linecap="square" stroke-width="1.5" id="line2d_31"/><path clip-path="url(#p174abddcf0)" d="M45.341 296.232l1.906 3.448 4.942 2.776 2.513-5.474 2.39-3.506 2.39-2.01 2.473-1.898 2.472-.906 2.472-3.179 2.472-2.758 4.984-.668 2.473-1.567 2.47-.757 2.472 2.376 2.513-4.367 2.39-3.752 2.39-2.703 2.473.435 2.472.21 2.472-2.933 2.472-2.282 2.512-1.956 2.472 2.435 2.473-.879 2.47-5.749 2.472 3.177 2.513-6.336 2.39-7.878 2.39-6.266 2.473 2.796 2.472-3.09 2.472-.487 2.471 3.43 2.513-3.154 2.472 3.142 2.473 2.809 2.47-7.162 2.472 6.468 4.944-15.666 2.43-.806 2.473.842 2.472-.554 2.472-.728 2.471-4.438 2.513 2.804 2.472 2.228 2.473-7.57 2.47.588 2.472 11.854 2.512-13.044 2.391-8.133 2.39-2.493 2.473-.714 2.472 6.3 2.471 1.848 2.472-6.83 2.513 2.55 2.471-2.687 2.474-6.803 2.47.726 2.472 10.335 2.512-12.12 2.391-9.799 2.39 3.639 2.473 2.535 2.471 13.467 2.472 6.813 2.472-5.264 2.512 8.445 2.472-1.726 2.474 1.236 2.47 2.147 2.472 8.142 2.512-4.549 2.39-9.09 2.39-1.451 2.474-1.896 2.471 1.118 2.472-4.406 2.472-.88 2.512 6.323 2.472-.728 2.474 3.889 2.47-.065 2.472 4.53 2.512-1.409 2.431-8.922 2.43.028 2.473-4.055 2.472 4.847 2.472-.038 2.472 10.544 2.512-5.025 2.472 8.727 2.474.202 2.47-4.149 2.472 9.497 2.512-7.1 2.39-7.385 2.39-1.762 2.473 10.857 2.472-3.848 2.472 2.139 2.472 3.342 2.512 1.787 2.472 5.199 2.474-.075 2.47.596 2.472 10.71 2.512-5.502 2.39-.792 2.39-2.138 2.473 1.814 2.472-2.795 2.472 6.12 2.472-6.26 2.512-3.344 2.472 5.932 2.473-5.168 2.47 4.06 2.472 9.72 2.513-9.645 2.39-4.83 2.39 2.7 2.473-4.717 2.472 3.28 2.472 5.172 2.472-9.525 2.512 8.944 2.472-3.96 2.473-3.638 2.47.581 2.472 12.456 2.513-6.182 2.43-5.106 2.43 1.685 2.474-10.907 4.944 10.488 2.472 3.118 2.512 5.32 2.472 2.288 2.473 3.795h0" fill="none" stroke="#d62728" stroke-linecap="square" stroke-width="1.5" id="line2d_32"/><path clip-path="url(#p174abddcf0)" d="M45.341 300.89l1.906 4.664 4.942 2.236 2.513-2.243 2.39-1.293 2.39-.726 2.473-1.017 2.472-1.66 2.472-2.577 2.472-.528 2.512.504 2.472-1.04 2.473-1.174 2.47-2.426 2.472 1.157 2.513-7.31 2.39-1.664 2.39-3.39 2.473 3.008 2.472-1.102 2.472-1.824 2.472-.594 2.512-1.324 4.945-2.257 2.47-5.364 2.472.8 2.513-6.16 2.39-7.603 2.39-6.114 2.473 2.238 2.472-2.827 2.472 2.733 2.471.162 2.513-3.757 2.472.618 2.473.336 2.47-9.954 2.472 5.293 2.512-6.666 2.432-11.365 2.43-4.868 2.473-.139 2.472 1.786 2.472 5.095 2.471-5.396 2.513.154 2.472 1.758 2.473-10.491 2.47-4.009 2.472 11.543 2.512-9.315 2.391-10.94 2.39-4.83 2.473-5.984 2.472 10.49 2.471 6.183 2.472-5.348 2.513 1.072 2.471-12.325 2.474-13.797 2.47-4.534 2.472 13.709 2.512-8.713 2.391-18.868 2.39-4.633 2.473 2.832 2.471 25.513 2.472 10.664 2.472-6.382 2.512 11.579 2.472-10.962 2.474-4.409 2.47-3.833 2.472 14.6 2.512-1.164 2.39-14.063 2.39-8.528 2.474-4.845 2.471 13.635 2.472.626 2.472-1.832 2.512 11.481 2.472-3.073 2.474-7.21 2.47 1.097 2.472 12.908 2.512-.694 2.431-17.096 2.43-6.013 2.473-1.591 2.472 21.693 2.472 4.28 2.472 10.677 2.512-1.605 2.472.096 2.474-1.266 2.47-5.933 2.472 16.411 2.512-5.095 2.39-11.005 2.39-8.48 2.473 6.112 2.472.855 2.472 8.64 2.472 6.737 2.512 3.042 2.472 3.772 2.474-5.825 2.47-4.763 2.472 18.928 2.512-2.376 2.39-6.853 2.39-1.656 2.473-2.713 2.472 3.161 2.472 9.137 2.472-4.356 2.512.371 2.472 1.03 2.473-12.399 2.47 3.259 2.472 13.528 2.513-5.229 2.39-8.758 2.39-.697 2.473 2.829 2.472 3.416 2.472 5.594 2.472-13.85 2.512 15.72 2.472-7.454 2.473-11.841 2.47 2.78 2.472 16.06 2.513-6.014 2.43-6.969 2.43-7.827 2.474-22.49 2.472 11.17 2.472 12.586 2.472 7.678 2.512 10.689 2.472-1.317 2.473 1.611h0" fill="none" stroke="#2ca02c" stroke-linecap="square" stroke-width="1.5" id="line2d_33"/><path clip-path="url(#p174abddcf0)" d="M45.341 306.92l1.906 1.62 2.47.895 2.472-.194 2.513-1.157 2.39-1.82 2.39.313 2.473-.546 2.472-2.447 2.472-1.233 2.472-.996 2.512-.743 2.472.356 2.473-1.66 2.47-1.816 2.472-.02 4.903-4.26 2.39-.506 4.945-1.633 2.472-2.54 2.472-2.002 4.984-1.83 2.473.071 2.47-4.062 2.472-1.805 2.513-3.49 2.39-5.367 2.39-3.934 2.473-2.562 2.472-1.286 2.472-4.5 2.471-1.156 2.513-5.607 4.945 6.055 2.47-6.571 2.472 4.525 2.512-8.972 2.432-7.763 2.43-.164 2.473-2.343 2.472-3.397 2.472-.674 2.471-5.01 2.513-.555 2.472 6.355 2.473-6.18 2.47-2.316 2.472 7.167 2.512-14.775 2.391-10.093 2.39-.96 2.473-3.791 2.472 6.02 2.471-.385 2.472-12.288 2.513.091 2.471-10.603 2.474-10.003 2.47 4.404 2.472 7.693 2.512-21.756 2.391-16.374 2.39 5.223 2.473 3.479 2.471 16.679 2.472 6.12 2.472-8.475 2.512 11.733 2.472-1.787 2.474-1.276 2.47 2.413 2.472 11.093 2.512-10.716 2.39-14.9 2.39.889 2.474-7.478 2.471-3.828 2.472-8.456 2.472-4.49 2.512 13.128 2.472-.055 2.474 2.298 2.47-1.103 2.472 6.276 2.512-10.093 2.431-10.654 2.43-.385 2.473-.977 2.472 8.644 2.472.663 2.472 5.036 2.512-3.35 2.472 10.96 2.474 4.656 2.47-5.33 2.472 9.808 2.512-11.242 2.39-14.286 2.39-1.772 2.473 12.234 2.472-3.087 2.472.574 2.472 4.865 2.512 1.703 2.472 12.19 2.474-1.83 2.47-1.168 2.472 21.557 2.512-13.885 2.39-.915 2.39-.36 2.473 3.974 2.472 3.224 2.472 2.208 2.472-8.881 2.512-6.168 2.472 9.85 2.473-7.397 2.47 4.76 2.472 19.961 2.513-13.471 2.39-11.68 2.39.269 2.473 3.95 2.472 4.552 2.472 1.025 2.472-14.728 2.512 9.988 2.472-.837 2.473-8.296 2.47-3.408 2.472 18.597 2.513-14.137 2.43-8.47 2.43-9.186 2.474-38.321 2.472 3.71 2.472 9.986 2.472 5.196 2.512 18 2.472 4.34 2.473 6.6h0" fill="none" stroke="#ff7f0e" stroke-linecap="square" stroke-width="1.5" id="line2d_34"/><path clip-path="url(#p174abddcf0)" d="M45.341 307.87l1.906 2.177 4.942.49 2.513-1.331 4.78-.94 2.473-.2 2.472-1.468 4.944-1.121 2.512.154 2.472-.462 2.473-1.515 2.47-1.324 2.472.154 2.513-2.537 2.39-.807 2.39-.041 2.473 1.37 2.472-.936 2.472-1.897 2.472-2.231 2.512.729 2.472 1.162 2.473-2.368 2.47-.254 2.472 1.53 4.903-6.003 2.39-2.92 2.473 2.077 7.415-1.523 2.513-1.135 2.472 1.398 2.473.038 2.47-2.646 2.472 2.674 4.944-8.364 2.43-1.687 2.473-.27 2.472-.15 2.472-2.415 2.471-1.93 2.513-.912 2.472 3.03 2.473-4.936 2.47-3.32 2.472 5.97 2.512-5.874 2.391-6.4 2.39-1.1 2.473-3.938 2.472 2.732 2.471-.291 2.472-5.351 2.513 4.766 2.471-2.015 2.474-8.919 2.47-2.192 2.472 9.503 2.512-9.701 2.391-7.968 2.39-3.211 2.473 1.962 2.471 13.107 2.472.43 2.472-5.168 2.512 5.873 2.472.287 2.474-3.644 2.47-2.208 2.472 6.042 2.512-4.556 2.39-11.203 2.39-2.331 2.474-1.583 2.471 4.407 2.472-6.906 2.472-.874 2.512 7.745 2.472-.809 2.474-8.134 2.47-1.578 2.472 7.55 2.512-4.963 2.431-12.8 2.43.625 2.473-.378 2.472 7.058 2.472-1.532 2.472 3.53 2.512-.456 2.472 1.047 2.474-5.315 2.47-8.055 2.472 11.363 2.512-8.712 2.39-14.704 2.39-5.426 2.473 6.81 2.472-.005 2.472-2.812 2.472-2.486 2.512 3.224 2.472 3.463 2.474-7.017 2.47-4.122 2.472 18.217 2.512-8.992 2.39-13.193 2.39 1.221 2.473 2.74 2.472-.504 2.472 1.655 2.472-15.175 2.512-.063 2.472 8.959 2.473-13.48 2.47-4.504 2.472 22.587 2.513-9.28 2.39-19.74 2.39-5.632 2.473-4.347 2.472 10.157 2.472-3.79 2.472-16.943 2.512 17.088 2.472 2.846 2.473-26.515 2.47-9.966 2.472 29.472 4.944-35.945 2.43-14.303 2.473-53.476 2.472-1.545 2.472 14.48 2.472 16.521 2.512 29.312 2.472 1.563 2.473-3.659h0" fill="none" stroke="#1f77b4" stroke-linecap="square" stroke-width="1.5" id="line2d_35"/></g></g><defs><clipPath id="p174abddcf0"><path d="M45.341 47.516h357.12v266.112H45.341z"/></clipPath></defs></svg>