<svg height="489.243" viewBox="0 0 459.544 366.932" width="612.726" xmlns="http://www.w3.org/2000/svg" xmlns:xlink="http://www.w3.org/1999/xlink"><defs><style>*{stroke-linecap:butt;stroke-linejoin:round}</style></defs><g id="figure_1"><path d="M0 366.932h459.544V0H0z" style="fill:none" id="patch_1"/><g id="axes_1"><path d="M31.462 323.405h357.12V57.293H31.462z" style="fill:none" id="patch_2"/><g id="matplotlib.axis_1"><g id="xtick_1"><g id="line2d_1"><defs><path d="M0 0v3.5" id="md9f94ce147" style="stroke:#969696;stroke-width:.4"/></defs><use style="fill:#969696;stroke:#969696;stroke-width:.4" x="63.253" xlink:href="#md9f94ce147" y="323.405"/></g><g style="fill:#969696" transform="matrix(.14 0 0 -.14 48.89 340.345)" id="text_1"><defs><path d="M2944 0v467H1075v13l333 307c877 845 1434 1466 1434 2234 0 595-378 1209-1274 1209-480 0-890-179-1178-422l180-397c192 160 505 352 883 352 621 0 825-390 825-813-6-627-486-1164-1548-2176L288 346V0h2656z" id="MyriadPro-Regular-32" transform="scale(.01563)"/><path d="M1677 4230c-845 0-1447-768-1447-2163C243 691 794-70 1606-70c922 0 1447 780 1447 2195 0 1325-499 2105-1376 2105zm-32-435c582 0 845-672 845-1696 0-1062-276-1734-852-1734-512 0-844 614-844 1696 0 1133 358 1734 851 1734z" id="MyriadPro-Regular-30" transform="scale(.01563)"/><path d="M1510 0h544v4160h-480l-908-486 108-429 724 390h12V0z" id="MyriadPro-Regular-31" transform="scale(.01563)"/></defs><use xlink:href="#MyriadPro-Regular-32"/><use x="51.3" xlink:href="#MyriadPro-Regular-30"/><use x="102.6" xlink:href="#MyriadPro-Regular-31"/><use x="153.9" xlink:href="#MyriadPro-Regular-32"/></g></g><g id="xtick_2"><use style="fill:#969696;stroke:#969696;stroke-width:.4" x="96.545" xlink:href="#md9f94ce147" y="323.405" id="line2d_2"/><g style="fill:#969696" transform="matrix(.14 0 0 -.14 82.182 340.345)" id="text_2"><defs><path d="M269 211C474 77 883-70 1350-70c999 0 1517 582 1517 1248 0 582-416 966-928 1068v13c512 186 768 551 768 979 0 506-371 992-1190 992-448 0-871-160-1088-320l147-409c179 128 499 275 832 275 518 0 730-294 730-627 0-493-519-704-928-704H896v-423h314c544 0 1068-249 1075-832 6-345-218-806-941-806-390 0-762 160-922 262L269 211z" id="MyriadPro-Regular-33" transform="scale(.01563)"/></defs><use xlink:href="#MyriadPro-Regular-32"/><use x="51.3" xlink:href="#MyriadPro-Regular-30"/><use x="102.6" xlink:href="#MyriadPro-Regular-31"/><use x="153.9" xlink:href="#MyriadPro-Regular-33"/></g></g><g id="xtick_3"><use style="fill:#969696;stroke:#969696;stroke-width:.4" x="129.746" xlink:href="#md9f94ce147" y="323.405" id="line2d_3"/><g style="fill:#969696" transform="matrix(.14 0 0 -.14 115.383 340.345)" id="text_3"><defs><path d="M2560 0v1133h582v441h-582v2586h-608L96 1504v-371h1933V0h531zM666 1574v13l1017 1415c115 192 218 371 346 614h19c-13-218-19-435-19-653V1574H666z" id="MyriadPro-Regular-34" transform="scale(.01563)"/></defs><use xlink:href="#MyriadPro-Regular-32"/><use x="51.3" xlink:href="#MyriadPro-Regular-30"/><use x="102.6" xlink:href="#MyriadPro-Regular-31"/><use x="153.9" xlink:href="#MyriadPro-Regular-34"/></g></g><g id="xtick_4"><use style="fill:#969696;stroke:#969696;stroke-width:.4" x="162.948" xlink:href="#md9f94ce147" y="323.405" id="line2d_4"/><g style="fill:#969696" transform="matrix(.14 0 0 -.14 148.584 340.345)" id="text_4"><defs><path d="M2771 4160H781L512 2163c154 19 339 45 576 45 832 0 1190-384 1197-922 0-556-455-902-986-902-377 0-717 128-889 230L269 186C467 58 851-70 1306-70c902 0 1548 608 1548 1420 0 525-268 884-595 1069-256 154-576 224-896 224-153 0-243-13-339-25l160 1068h1587v474z" id="MyriadPro-Regular-35" transform="scale(.01563)"/></defs><use xlink:href="#MyriadPro-Regular-32"/><use x="51.3" xlink:href="#MyriadPro-Regular-30"/><use x="102.6" xlink:href="#MyriadPro-Regular-31"/><use x="153.9" xlink:href="#MyriadPro-Regular-35"/></g></g><g id="xtick_5"><use style="fill:#969696;stroke:#969696;stroke-width:.4" x="196.149" xlink:href="#md9f94ce147" y="323.405" id="line2d_5"/><g style="fill:#969696" transform="matrix(.14 0 0 -.14 181.786 340.345)" id="text_5"><defs><path d="M2662 4224c-102 0-243-6-409-32-525-64-986-275-1331-614-410-410-704-1056-704-1876C218 621 800-70 1690-70c864 0 1382 704 1382 1465 0 813-518 1344-1254 1344-461 0-807-217-1005-480h-19c96 685 563 1331 1446 1479 160 25 307 32 422 25v461zM1690 365c-589 0-903 505-916 1190 0 103 26 186 64 250 154 301 468 512 807 512 518 0 857-359 857-954s-326-998-806-998h-6z" id="MyriadPro-Regular-36" transform="scale(.01563)"/></defs><use xlink:href="#MyriadPro-Regular-32"/><use x="51.3" xlink:href="#MyriadPro-Regular-30"/><use x="102.6" xlink:href="#MyriadPro-Regular-31"/><use x="153.9" xlink:href="#MyriadPro-Regular-36"/></g></g><g id="xtick_6"><use style="fill:#969696;stroke:#969696;stroke-width:.4" x="229.441" xlink:href="#md9f94ce147" y="323.405" id="line2d_6"/><g style="fill:#969696" transform="matrix(.14 0 0 -.14 215.078 340.345)" id="text_6"><defs><path d="M365 4160v-467h2035v-13L595 0h583l1811 3789v371H365z" id="MyriadPro-Regular-37" transform="scale(.01563)"/></defs><use xlink:href="#MyriadPro-Regular-32"/><use x="51.3" xlink:href="#MyriadPro-Regular-30"/><use x="102.6" xlink:href="#MyriadPro-Regular-31"/><use x="153.9" xlink:href="#MyriadPro-Regular-37"/></g></g><g id="xtick_7"><use style="fill:#969696;stroke:#969696;stroke-width:.4" x="262.642" xlink:href="#md9f94ce147" y="323.405" id="line2d_7"/><g style="fill:#969696" transform="matrix(.14 0 0 -.14 248.28 340.345)" id="text_7"><defs><path d="M1062 2170c-512-218-825-589-825-1114C237 448 762-70 1632-70c794 0 1414 486 1414 1209 0 506-320 871-838 1075v20c512 243 685 620 685 972 0 519-403 1024-1210 1024-729 0-1286-448-1286-1107 0-358 198-717 659-934l6-19zm583-1831c-531 0-851 371-832 794 0 397 262 717 749 857 563-160 915-403 915-908 0-423-327-743-832-743zm6 3488c506 0 704-345 704-678 0-378-275-634-633-755-480 128-794 352-794 768 0 358 256 665 723 665z" id="MyriadPro-Regular-38" transform="scale(.01563)"/></defs><use xlink:href="#MyriadPro-Regular-32"/><use x="51.3" xlink:href="#MyriadPro-Regular-30"/><use x="102.6" xlink:href="#MyriadPro-Regular-31"/><use x="153.9" xlink:href="#MyriadPro-Regular-38"/></g></g><g id="xtick_8"><use style="fill:#969696;stroke:#969696;stroke-width:.4" x="295.844" xlink:href="#md9f94ce147" y="323.405" id="line2d_8"/><g style="fill:#969696" transform="matrix(.14 0 0 -.14 281.48 340.345)" id="text_8"><defs><path d="M614-64c135-6 314 0 519 32 448 51 889 243 1209 557 410 397 717 1037 717 1952 0 1062-525 1753-1376 1753S262 3539 262 2752c0-710 480-1274 1229-1274 416 0 749 167 979 448h20c-77-492-276-857-551-1107-237-224-544-358-870-403-192-19-333-32-455-19V-64zm1024 3866c589 0 852-544 852-1255 0-89-20-153-52-205-147-249-441-435-819-435-486 0-800 365-800 883 0 589 339 1012 813 1012h6z" id="MyriadPro-Regular-39" transform="scale(.01563)"/></defs><use xlink:href="#MyriadPro-Regular-32"/><use x="51.3" xlink:href="#MyriadPro-Regular-30"/><use x="102.6" xlink:href="#MyriadPro-Regular-31"/><use x="153.9" xlink:href="#MyriadPro-Regular-39"/></g></g><g id="xtick_9"><use style="fill:#969696;stroke:#969696;stroke-width:.4" x="329.045" xlink:href="#md9f94ce147" y="323.405" id="line2d_9"/><g style="fill:#969696" transform="matrix(.14 0 0 -.14 314.682 340.345)" id="text_9"><use xlink:href="#MyriadPro-Regular-32"/><use x="51.3" xlink:href="#MyriadPro-Regular-30"/><use x="102.6" xlink:href="#MyriadPro-Regular-32"/><use x="153.9" xlink:href="#MyriadPro-Regular-30"/></g></g><g id="xtick_10"><use style="fill:#969696;stroke:#969696;stroke-width:.4" x="362.337" xlink:href="#md9f94ce147" y="323.405" id="line2d_10"/><g style="fill:#969696" transform="matrix(.14 0 0 -.14 347.974 340.345)" id="text_10"><use xlink:href="#MyriadPro-Regular-32"/><use x="51.3" xlink:href="#MyriadPro-Regular-30"/><use x="102.6" xlink:href="#MyriadPro-Regular-32"/><use x="153.9" xlink:href="#MyriadPro-Regular-31"/></g></g></g><g id="matplotlib.axis_2"><g id="ytick_1"><path clip-path="url(#p11ed995580)" d="M31.462 323.405h357.12" style="fill:none;stroke:#969696;stroke-linecap:square;stroke-width:.3" id="line2d_11"/><g id="line2d_12"><defs><path d="M0 0h-3.5" id="mc8e9f69ad6" style="stroke:#969696;stroke-width:.3"/></defs><use style="fill:#969696;stroke:#969696;stroke-width:.3" x="31.462" xlink:href="#mc8e9f69ad6" y="323.405"/></g><g style="fill:#969696" transform="matrix(.14 0 0 -.14 7.2 328.375)" id="text_11"><defs><path d="M710-70c237 0 384 172 384 403 0 237-153 403-377 403S333 570 333 333c0-231 153-403 371-403h6z" id="MyriadPro-Regular-2e" transform="scale(.01563)"/></defs><use xlink:href="#MyriadPro-Regular-30"/><use x="51.3" xlink:href="#MyriadPro-Regular-2e"/><use x="72" xlink:href="#MyriadPro-Regular-30"/></g></g><g id="ytick_2"><path clip-path="url(#p11ed995580)" d="M31.462 290.407h357.12" style="fill:none;stroke:#969696;stroke-linecap:square;stroke-width:.3" id="line2d_13"/><use style="fill:#969696;stroke:#969696;stroke-width:.3" x="31.462" xlink:href="#mc8e9f69ad6" y="290.407" id="line2d_14"/><g style="fill:#969696" transform="matrix(.14 0 0 -.14 7.2 295.377)" id="text_12"><use xlink:href="#MyriadPro-Regular-30"/><use x="51.3" xlink:href="#MyriadPro-Regular-2e"/><use x="72" xlink:href="#MyriadPro-Regular-31"/></g></g><g id="ytick_3"><path clip-path="url(#p11ed995580)" d="M31.462 257.41h357.12" style="fill:none;stroke:#969696;stroke-linecap:square;stroke-width:.3" id="line2d_15"/><use style="fill:#969696;stroke:#969696;stroke-width:.3" x="31.462" xlink:href="#mc8e9f69ad6" y="257.409" id="line2d_16"/><g style="fill:#969696" transform="matrix(.14 0 0 -.14 7.2 262.38)" id="text_13"><use xlink:href="#MyriadPro-Regular-30"/><use x="51.3" xlink:href="#MyriadPro-Regular-2e"/><use x="72" xlink:href="#MyriadPro-Regular-32"/></g></g><g id="ytick_4"><path clip-path="url(#p11ed995580)" d="M31.462 224.411h357.12" style="fill:none;stroke:#969696;stroke-linecap:square;stroke-width:.3" id="line2d_17"/><use style="fill:#969696;stroke:#969696;stroke-width:.3" x="31.462" xlink:href="#mc8e9f69ad6" y="224.411" id="line2d_18"/><g style="fill:#969696" transform="matrix(.14 0 0 -.14 7.2 229.381)" id="text_14"><use xlink:href="#MyriadPro-Regular-30"/><use x="51.3" xlink:href="#MyriadPro-Regular-2e"/><use x="72" xlink:href="#MyriadPro-Regular-33"/></g></g><g id="ytick_5"><path clip-path="url(#p11ed995580)" d="M31.462 191.414h357.12" style="fill:none;stroke:#969696;stroke-linecap:square;stroke-width:.3" id="line2d_19"/><use style="fill:#969696;stroke:#969696;stroke-width:.3" x="31.462" xlink:href="#mc8e9f69ad6" y="191.414" id="line2d_20"/><g style="fill:#969696" transform="matrix(.14 0 0 -.14 7.2 196.384)" id="text_15"><use xlink:href="#MyriadPro-Regular-30"/><use x="51.3" xlink:href="#MyriadPro-Regular-2e"/><use x="72" xlink:href="#MyriadPro-Regular-34"/></g></g><g id="ytick_6"><path clip-path="url(#p11ed995580)" d="M31.462 158.416h357.12" style="fill:none;stroke:#969696;stroke-linecap:square;stroke-width:.3" id="line2d_21"/><use style="fill:#969696;stroke:#969696;stroke-width:.3" x="31.462" xlink:href="#mc8e9f69ad6" y="158.416" id="line2d_22"/><g style="fill:#969696" transform="matrix(.14 0 0 -.14 7.2 163.386)" id="text_16"><use xlink:href="#MyriadPro-Regular-30"/><use x="51.3" xlink:href="#MyriadPro-Regular-2e"/><use x="72" xlink:href="#MyriadPro-Regular-35"/></g></g><g id="ytick_7"><path clip-path="url(#p11ed995580)" d="M31.462 125.418h357.12" style="fill:none;stroke:#969696;stroke-linecap:square;stroke-width:.3" id="line2d_23"/><use style="fill:#969696;stroke:#969696;stroke-width:.3" x="31.462" xlink:href="#mc8e9f69ad6" y="125.418" id="line2d_24"/><g style="fill:#969696" transform="matrix(.14 0 0 -.14 7.2 130.388)" id="text_17"><use xlink:href="#MyriadPro-Regular-30"/><use x="51.3" xlink:href="#MyriadPro-Regular-2e"/><use x="72" xlink:href="#MyriadPro-Regular-36"/></g></g><g id="ytick_8"><path clip-path="url(#p11ed995580)" d="M31.462 92.42h357.12" style="fill:none;stroke:#969696;stroke-linecap:square;stroke-width:.3" id="line2d_25"/><use style="fill:#969696;stroke:#969696;stroke-width:.3" x="31.462" xlink:href="#mc8e9f69ad6" y="92.42" id="line2d_26"/><g style="fill:#969696" transform="matrix(.14 0 0 -.14 7.2 97.39)" id="text_18"><use xlink:href="#MyriadPro-Regular-30"/><use x="51.3" xlink:href="#MyriadPro-Regular-2e"/><use x="72" xlink:href="#MyriadPro-Regular-37"/></g></g><g id="ytick_9"><path clip-path="url(#p11ed995580)" d="M31.462 59.422h357.12" style="fill:none;stroke:#969696;stroke-linecap:square;stroke-width:.3" id="line2d_27"/><use style="fill:#969696;stroke:#969696;stroke-width:.3" x="31.462" xlink:href="#mc8e9f69ad6" y="59.422" id="line2d_28"/><g style="fill:#969696" transform="matrix(.14 0 0 -.14 7.2 64.392)" id="text_19"><use xlink:href="#MyriadPro-Regular-30"/><use x="51.3" xlink:href="#MyriadPro-Regular-2e"/><use x="72" xlink:href="#MyriadPro-Regular-38"/></g></g></g><path clip-path="url(#p11ed995580)" d="m161.538 323.405 2.82-10.644 2.683-1.14 2.681 11.784h2.777l2.774-21.289 2.774 21.29h11.145l2.773-11 2.774 11h2.82l2.729-22.758 2.727 12.113 2.776 10.644 2.774-10.644 2.775 10.644h2.774l2.82-10.644 2.774-.355 2.776 11 2.773-11 2.774.355 2.82-10.645 2.683 9.504 2.682 11.785h2.776l2.774-10.644 2.775-.355 2.774.355 2.82 10.644 2.774-21.998 2.777 21.998 2.772-11 2.774 11 2.82-21.289 2.684 9.504 2.681 1.14 2.776-.354 2.775-42.223 2.774 20.224 2.774 11.71h2.82l2.775 21.288 2.776-10.644 2.772 10.644 2.775-31.933 2.82 21.289 2.683-1.14 2.681-20.15 2.777-1.064 2.774 32.998 2.774-11 2.775.356h2.82l2.774-.355 2.776.355 2.773-44.352 2.774 33.707h2.82l2.729-24.225 2.727 13.58 2.776-12.063 2.774-30.514 2.775 30.514 2.774-9.225 2.82 31.933 2.774 10.29 2.776-10.29 2.773-11.709 2.774-9.58 2.82 10.645 2.683-3.422 2.682 3.422 2.776 9.935 2.774.71 2.775-11.71 2.774-30.869 2.82 42.578 2.774-22.708 2.777 22.708" style="fill:none;stroke:#d62728;stroke-linecap:square;stroke-width:1.5" id="line2d_29"/><path clip-path="url(#p11ed995580)" d="m72.895 323.405 2.774-10.644 2.775 10.644H92.36l2.774-21.289 2.82 21.29 2.683-11.786 2.682 11.785h2.776l2.775-10.644 2.774 10.644h2.774l2.82-10.644 2.774 10.644h2.777l2.772-32.998 2.774-62.802h2.82l2.684 36.875 2.681 26.992 2.776 20.934 2.775-84.801 2.774-3.194 2.774 3.194 2.82 10.644 2.775 52.158 2.776 1.065 2.772-34.063 2.775 23.418 2.82 21.29 2.683-49.422 2.681 49.421 2.777-33.707 2.774-94.027 2.774 72.028 2.775-114.606 2.82 127.734 2.774-101.122 2.776-79.834 2.773 123.83 2.774-6.74 2.82 10.644 2.729-8.075 2.727 61.297 2.776-46.126 2.774-49.674 2.775-16.322 2.774-90.123 2.82 138.378 2.774-26.256 2.776 36.9 2.773 29.096 2.774 56.06 2.82-63.866 2.683-10.265 2.682 20.91 2.776 63.157 2.774-52.513 2.775 19.515 2.774-30.16h2.82l2.774 52.158 2.777 1.065 2.772 9.935 2.774-20.58 2.82-106.445 2.684 101.883 2.681-6.082 2.776 9.225 2.775-9.225 2.774-12.774 2.774 12.774 2.82 31.933 2.775-44.707 2.776 34.063 2.772 20.934 2.775-20.934 2.82-21.29 2.683-29.272 2.681 50.562 2.777 20.934 2.774-42.223 2.774 31.224 2.775-31.224 2.82 21.289 2.774-1.065 2.776-20.224 2.773-12.774 2.774 55.352 2.82-10.645 2.729-69.74 2.727 69.74 2.776 10.29 2.774-10.29 2.775-11.709 2.774 11.71h2.82l2.774-.71 2.776-20.58 2.773 31.579 2.774-20.934 2.82-31.934 2.683-18.628 2.682 29.273 2.776 20.224 2.774 11.71 2.775-22.71 2.774 33.354 2.82-31.934 2.774 20.58 2.777-9.935" style="fill:none;stroke:#2ca02c;stroke-linecap:square;stroke-width:1.5" id="line2d_30"/><path clip-path="url(#p11ed995580)" d="m114.42 323.405 2.819-10.644 2.774 10.644H133.84l2.681-31.933 2.776 31.933 2.775-10.644 2.774-.355 2.774-10.29h2.82l2.775 10.29 2.776-10.29 2.772-.71 2.775 11.355 2.82-21.29 2.683-26.99 2.681 58.924 2.777-21.998 2.774 11.354 2.774-11.354 2.775-31.224 2.82-106.445 2.774 93.671 2.776 23.418 2.773 20.58 2.774 21.998 2.82-85.156 2.729 51.02 2.727-8.442 2.776 9.58 2.774-9.58 2.775-34.417 2.774 55.706 2.82-31.933 2.774 42.223 2.776-10.29 2.773-66.705 2.774 66.705 2.82-63.867 2.683 38.016 2.682 25.851 2.776-11.709 2.774-73.447 2.775 18.45 2.774 13.484 2.82 63.867 2.774-44.352 2.777 12.418 2.772-45.416 2.774 45.416h2.82l2.684-16.347 2.681 26.992 2.776-34.063 2.775 34.063 2.774-12.064 2.774-30.514 2.82 10.644 2.775 41.869 2.776-9.935 2.772-12.064 2.775 22.708 2.82-10.644 2.683-3.422 2.681-28.512 2.777 30.87 2.774 1.064 2.774-34.063 2.775 55.352 2.82-85.156 2.774 18.805 2.776 2.484 2.773-35.482 2.774 14.193 2.82 53.222 2.729-37.072 2.727 26.428 2.776 31.224 2.774-9.935 2.775-67.06 2.774 24.482 2.82 53.222 2.774-33.707 2.776 12.418 2.773-1.42 2.774 12.065h2.82l2.683-15.207 2.682 25.851 2.776-22.708 2.774-19.87 2.775-35.127 2.774 77.705 2.82 10.645 2.774-22.354 2.777-9.58" style="fill:none;stroke:#ff7f0e;stroke-linecap:square;stroke-width:1.5" id="line2d_31"/><g style="fill:#1f77b4" transform="matrix(.14 0 0 -.14 399.295 285.317)" id="text_20"><defs><path d="M467 0h551v1869c0 96 12 192 44 275 90 282 346 563 698 563 429 0 646-358 646-851V0h551v1914c0 102 19 204 45 281 96 275 345 512 665 512 455 0 672-358 672-953V0h551v1824c0 1075-608 1344-1018 1344-294 0-499-77-685-218-128-96-249-230-345-403h-13c-135 365-455 621-877 621-512 0-800-275-973-570h-19l-26 500H442c19-256 25-519 25-839V0z" id="MyriadPro-Regular-6d" transform="scale(.01563)"/><path d="m102 3098 1050-1517L51 0h621l448 698c115 185 224 345 326 537h13c109-185 211-358 333-537L2246 0h640L1798 1600l1056 1498h-608l-435-660c-102-166-205-326-307-512h-19c-103 173-199 333-314 506l-441 666H102z" id="MyriadPro-Regular-78" transform="scale(.01563)"/><path d="M3110 2246c0 378 13 628 26 852h-493l-25-468h-13c-135 256-429 538-967 538-710 0-1395-595-1395-1645C243 666 794 13 1562 13c480 0 812 230 985 518h13V186c0-781-422-1082-998-1082-384 0-704 115-909 243l-141-429c250-166 659-256 1030-256 391 0 826 90 1127 372 301 268 441 704 441 1414v1798zm-556-928c0-96-13-204-45-300-122-359-435-576-781-576-608 0-915 505-915 1113 0 717 384 1171 921 1171 410 0 685-268 788-595 25-77 32-160 32-256v-557z" id="MyriadPro-Regular-67" transform="scale(.01563)"/><path d="M467 0h557v1651c0 96 13 186 26 263 76 422 358 723 755 723 77 0 134-7 192-19v531c-51 13-96 19-160 19-378 0-717-262-858-678h-25l-20 608H442c19-288 25-602 25-967V0z" id="MyriadPro-Regular-72" transform="scale(.01563)"/><path d="M2643 1901c0 621-230 1267-1177 1267-391 0-762-109-1018-275l128-371c218 140 518 230 806 230 634 0 704-461 704-717v-64C890 1978 224 1568 224 819c0-448 320-889 947-889 442 0 775 217 947 460h20l44-390h512c-38 211-51 474-51 742v1159zm-544-858c0-57-13-121-32-179-89-262-345-518-749-518-288 0-531 172-531 537 0 602 698 711 1312 698v-538z" id="MyriadPro-Regular-61" transform="scale(.01563)"/><path d="M467-1267h557V416h13c185-307 544-486 953-486 730 0 1408 550 1408 1664 0 940-563 1574-1312 1574-505 0-870-224-1100-602h-13l-26 532H442c12-295 25-615 25-1012v-3353zm557 3059c0 77 19 160 38 230 109 423 468 698 852 698 595 0 921-531 921-1152 0-710-345-1197-941-1197-403 0-742 269-844 659-13 71-26 148-26 231v531z" id="MyriadPro-Regular-70" transform="scale(.01563)"/><path d="M467 0h563v1869c0 109 7 192 39 269 102 307 390 563 755 563 531 0 717-423 717-922V0h563v1843c0 1069-666 1325-1082 1325-211 0-409-64-576-160-172-96-313-237-403-397h-13v1933H467V0z" id="MyriadPro-Regular-68" transform="scale(.01563)"/></defs><use xlink:href="#MyriadPro-Regular-6d"/><use x="83.4" xlink:href="#MyriadPro-Regular-78"/><use x="129.7" xlink:href="#MyriadPro-Regular-67"/><use x="185.6" xlink:href="#MyriadPro-Regular-72"/><use x="218.3" xlink:href="#MyriadPro-Regular-61"/><use x="266.5" xlink:href="#MyriadPro-Regular-70"/><use x="323.4" xlink:href="#MyriadPro-Regular-68"/></g><g style="fill:#ff7f0e" transform="matrix(.14 0 0 -.14 399.295 271.213)" id="text_21"><defs><path d="M1779 3168c-857 0-1536-608-1536-1645C243 544 890-70 1728-70c749 0 1542 499 1542 1644 0 948-601 1594-1491 1594zm-13-422c666 0 928-666 928-1191 0-697-403-1203-940-1203-551 0-941 512-941 1190 0 589 288 1204 953 1204z" id="MyriadPro-Regular-6f" transform="scale(.01563)"/><path d="M-230-1350c300 0 710 102 960 352 275 281 371 672 371 1273v2823H538V493c0-743-58-992-212-1165C192-819-32-890-288-909l58-441zM826 4320c-212 0-359-154-359-352 0-186 135-346 346-346 224 0 358 160 352 346 0 198-135 352-339 352z" id="MyriadPro-Regular-6a" transform="scale(.01563)"/><path d="M250 147C467 19 781-70 1120-70c736 0 1158 390 1158 934 0 461-275 730-812 934-404 154-589 269-589 525 0 231 185 423 518 423 288 0 512-103 634-180l141 410c-173 102-448 192-762 192-666 0-1069-410-1069-909 0-371 263-678 819-877 416-153 576-300 576-569 0-256-192-461-601-461-282 0-576 115-743 224L250 147z" id="MyriadPro-Regular-73" transform="scale(.01563)"/></defs><use xlink:href="#MyriadPro-Regular-67"/><use x="55.9" xlink:href="#MyriadPro-Regular-6f"/><use x="110.8" xlink:href="#MyriadPro-Regular-6a"/><use x="135.1" xlink:href="#MyriadPro-Regular-73"/></g><g style="fill:#2ca02c" transform="matrix(.14 0 0 -.14 399.295 299.213)" id="text_22"><defs><path d="M1030 0v3098H467V0h563zM749 4320c-205 0-352-154-352-352 0-192 141-346 339-346 224 0 365 154 358 346 0 198-134 352-345 352z" id="MyriadPro-Regular-69" transform="scale(.01563)"/><path d="M467 0h563v1862c0 96 13 192 39 263 96 313 384 576 755 576 531 0 717-416 717-915V0h563v1850c0 1062-666 1318-1094 1318-512 0-871-288-1024-582h-13l-32 512H442c19-256 25-519 25-839V0z" id="MyriadPro-Regular-6e" transform="scale(.01563)"/><path d="M595 3667v-569H115v-429h480V979c0-365 58-640 218-806C947 19 1158-70 1421-70c217 0 390 38 499 83l-26 422c-83-25-172-38-326-38-314 0-422 217-422 601v1671h806v429h-806v742l-551-173z" id="MyriadPro-Regular-74" transform="scale(.01563)"/></defs><use xlink:href="#MyriadPro-Regular-6a"/><use x="24.3" xlink:href="#MyriadPro-Regular-6f"/><use x="79.2" xlink:href="#MyriadPro-Regular-69"/><use x="102.6" xlink:href="#MyriadPro-Regular-6e"/><use x="158.1" xlink:href="#MyriadPro-Regular-74"/><use x="191.2" xlink:href="#MyriadPro-Regular-6a"/><use x="215.5" xlink:href="#MyriadPro-Regular-73"/></g><g style="fill:#d62728" transform="matrix(.14 0 0 -.14 399.295 313.395)" id="text_23"><defs><path d="M2957 1446c6 58 19 148 19 263 0 569-269 1459-1280 1459-902 0-1453-736-1453-1670C243 563 813-70 1766-70c493 0 832 108 1031 198l-96 403c-211-89-455-160-858-160-563 0-1049 314-1062 1075h2176zM787 1850c45 390 295 915 864 915 634 0 787-557 781-915H787z" id="MyriadPro-Regular-65" transform="scale(.01563)"/><path d="M2579 4544V2694h-13c-140 250-460 474-934 474-755 0-1395-634-1389-1664C243 563 819-70 1568-70c506 0 883 262 1056 608h13l25-538h506c-19 211-26 525-26 800v3744h-563zm0-3245c0-89-6-166-25-243-103-422-448-672-826-672-608 0-915 518-915 1146 0 684 345 1196 928 1196 422 0 729-294 813-652 19-71 25-167 25-237v-538z" id="MyriadPro-Regular-64" transform="scale(.01563)"/></defs><use xlink:href="#MyriadPro-Regular-6d"/><use x="83.4" xlink:href="#MyriadPro-Regular-65"/><use x="133.5" xlink:href="#MyriadPro-Regular-72"/><use x="166.2" xlink:href="#MyriadPro-Regular-6d"/><use x="249.6" xlink:href="#MyriadPro-Regular-61"/><use x="297.8" xlink:href="#MyriadPro-Regular-69"/><use x="321.2" xlink:href="#MyriadPro-Regular-64"/></g><g style="fill:#969696" transform="matrix(.09716 0 0 -.09716 31.462 357.303)" id="text_24"><defs><path d="M269 211C499 58 954-70 1370-70c1017 0 1510 582 1510 1248 0 633-371 985-1101 1267-595 230-857 429-857 832 0 294 224 646 812 646 391 0 679-128 820-205l153 455c-192 109-512 211-953 211-839 0-1396-499-1396-1171 0-608 436-973 1140-1223 582-224 812-454 812-857 0-435-332-736-902-736-384 0-749 128-998 281L269 211z" id="MyriadPro-Regular-53" transform="scale(.01563)"/><path d="M2579 538c-160-71-371-154-691-154-614 0-1075 442-1075 1158 0 647 384 1172 1094 1172 307 0 519-71 653-148l128 436c-154 76-448 160-781 160-1011 0-1664-692-1664-1645C243 570 851-70 1786-70c416 0 742 108 889 185l-96 423z" id="MyriadPro-Regular-63" transform="scale(.01563)"/><path d="M1024 4544H467V0h557v1165l288 320L2381 0h685L1702 1824l1197 1274h-678l-909-1069c-90-109-198-243-275-352h-13v2867z" id="MyriadPro-Regular-6b" transform="scale(.01563)"/><path d="M2234 4384c-1152 0-2004-896-2004-2266C230 813 1030-70 2170-70c1100 0 2003 787 2003 2272 0 1280-762 2182-1939 2182zm-26-454c928 0 1376-896 1376-1754 0-979-499-1792-1382-1792-877 0-1376 826-1376 1747 0 947 460 1799 1382 1799z" id="MyriadPro-Regular-4f" transform="scale(.01563)"/><path d="M83 3098 1261 0h537l1216 3098h-588l-602-1741c-102-282-192-538-262-794h-20c-64 256-147 512-249 794L685 3098H83z" id="MyriadPro-Regular-76" transform="scale(.01563)"/><path d="M1082 0v2669h748v429h-748v166c0 474 121 896 601 896 160 0 275-32 359-70l76 435c-108 45-281 89-480 89-262 0-544-83-755-288-262-249-358-646-358-1081v-147H90v-429h435V0h557z" id="MyriadPro-Regular-66" transform="scale(.01563)"/><path d="M467 0h563v4544H467V0z" id="MyriadPro-Regular-6c" transform="scale(.01563)"/><path d="M115 3098 1050 0h512l499 1472c109 333 205 653 281 1024h13c77-365 167-672 275-1018L3104 0h512l998 3098h-556l-442-1556c-102-364-186-691-237-1004h-19c-70 313-160 640-275 1011l-480 1549h-474l-505-1575c-103-339-205-672-276-985h-19c-57 320-141 640-230 985L691 3098H115z" id="MyriadPro-Regular-77" transform="scale(.01563)"/><path d="M2714 1357 3174 0h596L2298 4314h-672L160 0h576l448 1357h1530zm-1415 435 423 1248c83 262 153 525 217 781h13c64-250 128-506 224-787l422-1242H1299z" id="MyriadPro-Regular-41" transform="scale(.01563)"/><path d="M486 0h557v1728c128-32 282-38 448-38 544 0 1024 160 1319 473 217 224 332 531 332 922 0 384-140 697-377 902-256 231-659 359-1210 359-448 0-800-39-1069-84V0zm557 3859c96 26 282 45 525 45 614 0 1018-275 1018-845 0-595-410-921-1082-921-186 0-339 12-461 44v1677z" id="MyriadPro-Regular-50" transform="scale(.01563)"/><path d="M486 4314V0h557v4314H486z" id="MyriadPro-Regular-49" transform="scale(.01563)"/><path d="M550 4800v-6400h429v6400H550z" id="MyriadPro-Regular-7c" transform="scale(.01563)"/><path d="M1011 0v1843c0 717-13 1235-45 1779l20 7c217-467 505-960 806-1440L3162 0h563v4314h-525V2509c0-672 13-1197 64-1773l-13-6c-205 441-454 896-774 1401L1094 4314H486V0h525z" id="MyriadPro-Regular-4e" transform="scale(.01563)"/><path d="M1165 3648c185 0 313 154 313 326 0 186-134 327-313 327s-327-147-327-327c0-172 135-326 320-326h7zm1184 0c185 0 313 154 313 326 0 186-134 327-313 327s-320-147-320-327c0-172 128-326 313-326h7zm-570-480c-857 0-1536-608-1536-1645C243 544 890-70 1728-70c749 0 1542 499 1542 1644 0 948-601 1594-1491 1594zm-13-422c666 0 928-666 928-1191 0-697-403-1203-940-1203-551 0-941 512-941 1190 0 589 288 1204 953 1204z" id="MyriadPro-Regular-f6" transform="scale(.01563)"/><path d="M3386 582c-224-108-570-179-909-179-1050 0-1658 679-1658 1735 0 1132 672 1779 1683 1779 359 0 660-77 871-179l134 454c-147 77-486 192-1024 192-1337 0-2253-915-2253-2266C230 704 1146-70 2362-70c524 0 934 108 1139 211l-115 441z" id="MyriadPro-Regular-43" transform="scale(.01563)"/><path d="M486 13c186-26 480-51 864-51 704 0 1191 128 1492 403 217 211 364 493 364 864 0 640-480 979-889 1081v13c454 167 729 531 729 947 0 340-134 596-358 762-269 218-627 314-1184 314-390 0-774-39-1018-90V13zm557 3865c90 20 237 39 493 39 563 0 947-199 947-704 0-416-345-723-934-723h-506v1388zm0-1811h461c608 0 1114-243 1114-832 0-627-532-838-1108-838-198 0-358 6-467 25v1645z" id="MyriadPro-Regular-42" transform="scale(.01563)"/><path d="M2010 0v1837l1446 2477h-634l-620-1191c-167-326-314-608-436-889h-12c-135 300-263 563-429 889L717 4314H83l1363-2484V0h564z" id="MyriadPro-Regular-59" transform="scale(.01563)"/></defs><use xlink:href="#MyriadPro-Regular-53"/><use x="49.3" xlink:href="#MyriadPro-Regular-74"/><use x="82.4" xlink:href="#MyriadPro-Regular-61"/><use x="130.6" xlink:href="#MyriadPro-Regular-63"/><use x="175.4" xlink:href="#MyriadPro-Regular-6b"/><use x="222.3" xlink:href="#MyriadPro-Regular-4f"/><use x="291.2" xlink:href="#MyriadPro-Regular-76"/><use x="339.3" xlink:href="#MyriadPro-Regular-65"/><use x="389.4" xlink:href="#MyriadPro-Regular-72"/><use x="422.1" xlink:href="#MyriadPro-Regular-66"/><use x="451.3" xlink:href="#MyriadPro-Regular-6c"/><use x="474.9" xlink:href="#MyriadPro-Regular-6f"/><use x="529.8" xlink:href="#MyriadPro-Regular-77"/><use x="603.4" xlink:href="#MyriadPro-Regular-20"/><use x="624.6" xlink:href="#MyriadPro-Regular-41"/><use x="685.8" xlink:href="#MyriadPro-Regular-50"/><use x="739" xlink:href="#MyriadPro-Regular-49"/><use x="762.9" xlink:href="#MyriadPro-Regular-20"/><use x="784.1" xlink:href="#MyriadPro-Regular-76"/><use x="832.2" xlink:href="#MyriadPro-Regular-69"/><use x="855.6" xlink:href="#MyriadPro-Regular-61"/><use x="903.8" xlink:href="#MyriadPro-Regular-20"/><use x="925" xlink:href="#MyriadPro-Regular-73"/><use x="964.6" xlink:href="#MyriadPro-Regular-74"/><use x="997.7" xlink:href="#MyriadPro-Regular-61"/><use x="1045.9" xlink:href="#MyriadPro-Regular-63"/><use x="1090.7" xlink:href="#MyriadPro-Regular-6b"/><use x="1137.6" xlink:href="#MyriadPro-Regular-74"/><use x="1170.7" xlink:href="#MyriadPro-Regular-61"/><use x="1218.9" xlink:href="#MyriadPro-Regular-67"/><use x="1274.8" xlink:href="#MyriadPro-Regular-73"/><use x="1314.4" xlink:href="#MyriadPro-Regular-20"/><use x="1335.6" xlink:href="#MyriadPro-Regular-7c"/><use x="1359.5" xlink:href="#MyriadPro-Regular-20"/><use x="1380.7" xlink:href="#MyriadPro-Regular-4e"/><use x="1446.5" xlink:href="#MyriadPro-Regular-69"/><use x="1469.9" xlink:href="#MyriadPro-Regular-63"/><use x="1514.7" xlink:href="#MyriadPro-Regular-6f"/><use x="1569.6" xlink:href="#MyriadPro-Regular-20"/><use x="1590.8" xlink:href="#MyriadPro-Regular-53"/><use x="1640.1" xlink:href="#MyriadPro-Regular-63"/><use x="1684.9" xlink:href="#MyriadPro-Regular-68"/><use x="1740.4" xlink:href="#MyriadPro-Regular-6c"/><use x="1764" xlink:href="#MyriadPro-Regular-f6"/><use x="1818.9" xlink:href="#MyriadPro-Regular-6d"/><use x="1902.3" xlink:href="#MyriadPro-Regular-65"/><use x="1952.4" xlink:href="#MyriadPro-Regular-72"/><use x="1985.1" xlink:href="#MyriadPro-Regular-20"/><use x="2006.3" xlink:href="#MyriadPro-Regular-7c"/><use x="2030.2" xlink:href="#MyriadPro-Regular-20"/><use x="2051.4" xlink:href="#MyriadPro-Regular-43"/><use x="2109.4" xlink:href="#MyriadPro-Regular-43"/><use x="2167.4" xlink:href="#MyriadPro-Regular-20"/><use x="2188.6" xlink:href="#MyriadPro-Regular-42"/><use x="2242.8" xlink:href="#MyriadPro-Regular-59"/></g><g style="fill:#969696" transform="matrix(.14 0 0 -.14 80.235 17.293)" id="text_25"><defs><path d="M486 13c282-32 615-51 1012-51 838 0 1504 217 1907 620 403 397 621 973 621 1677 0 698-224 1197-608 1549-378 352-948 538-1748 538-441 0-844-39-1184-90V13zm557 3833c147 32 365 58 653 58 1178 0 1754-646 1747-1664 0-1165-646-1830-1837-1830-217 0-422 6-563 32v3404z" id="MyriadPro-Regular-44" transform="scale(.01563)"/><path d="M58 3098 1203 243c26-70 39-115 39-147s-20-77-45-134c-128-288-320-506-474-628-166-140-352-230-493-275l141-473c141 25 416 121 691 364 384 333 660 877 1063 1940l845 2208h-596l-614-1818c-77-224-141-461-198-646h-13c-51 185-128 428-199 633L672 3098H58z" id="MyriadPro-Regular-79" transform="scale(.01563)"/><path d="M3059 3098h-563V1197c0-103-19-205-51-288-103-250-365-512-743-512-512 0-691 397-691 985v1716H448V1286C448 198 1030-70 1517-70c550 0 877 326 1024 576h13l32-506h499c-19 243-26 525-26 845v2253z" id="MyriadPro-Regular-75" transform="scale(.01563)"/><path d="M467 800c0-275-13-589-25-800h486l26 512h19c230-410 589-582 1037-582 691 0 1388 550 1388 1657 7 941-537 1581-1305 1581-499 0-858-224-1056-570h-13v1946H467V800zm557 998c0 90 19 167 32 231 115 429 474 691 858 691 601 0 921-531 921-1152 0-710-352-1190-941-1190-409 0-736 268-844 659-13 64-26 134-26 205v556z" id="MyriadPro-Regular-62" transform="scale(.01563)"/><path d="M2579-1267h563v3513c0 320 7 589 20 852h-532l-19-468h-13c-153 301-473 538-953 538-653 0-1402-512-1402-1670C243 557 832-70 1555-70c499 0 845 243 1011 550h13v-1747zm0 2528c0-83-19-192-45-269-128-390-441-614-806-614-621 0-915 537-915 1152 0 697 352 1190 934 1190 423 0 723-294 807-640 19-70 25-160 25-237v-582z" id="MyriadPro-Regular-71" transform="scale(.01563)"/></defs><use xlink:href="#MyriadPro-Regular-44"/><use x="66.6" xlink:href="#MyriadPro-Regular-61"/><use x="114.8" xlink:href="#MyriadPro-Regular-69"/><use x="138.2" xlink:href="#MyriadPro-Regular-6c"/><use x="161.8" xlink:href="#MyriadPro-Regular-79"/><use x="208.9" xlink:href="#MyriadPro-Regular-20"/><use x="230.1" xlink:href="#MyriadPro-Regular-6e"/><use x="285.6" xlink:href="#MyriadPro-Regular-75"/><use x="340.7" xlink:href="#MyriadPro-Regular-6d"/><use x="424.1" xlink:href="#MyriadPro-Regular-62"/><use x="481" xlink:href="#MyriadPro-Regular-65"/><use x="531.1" xlink:href="#MyriadPro-Regular-72"/><use x="563.8" xlink:href="#MyriadPro-Regular-20"/><use x="585" xlink:href="#MyriadPro-Regular-6f"/><use x="639.9" xlink:href="#MyriadPro-Regular-66"/><use x="669.1" xlink:href="#MyriadPro-Regular-20"/><use x="690.3" xlink:href="#MyriadPro-Regular-71"/><use x="746.6" xlink:href="#MyriadPro-Regular-75"/><use x="801.7" xlink:href="#MyriadPro-Regular-65"/><use x="851.8" xlink:href="#MyriadPro-Regular-73"/><use x="891.4" xlink:href="#MyriadPro-Regular-74"/><use x="924.5" xlink:href="#MyriadPro-Regular-69"/><use x="947.9" xlink:href="#MyriadPro-Regular-6f"/><use x="1002.8" xlink:href="#MyriadPro-Regular-6e"/><use x="1058.3" xlink:href="#MyriadPro-Regular-73"/><use x="1097.9" xlink:href="#MyriadPro-Regular-20"/><use x="1119.1" xlink:href="#MyriadPro-Regular-6f"/><use x="1174" xlink:href="#MyriadPro-Regular-6e"/><use x="1229.5" xlink:href="#MyriadPro-Regular-20"/><use x="1250.7" xlink:href="#MyriadPro-Regular-53"/><use x="1300" xlink:href="#MyriadPro-Regular-74"/><use x="1333.1" xlink:href="#MyriadPro-Regular-61"/><use x="1381.3" xlink:href="#MyriadPro-Regular-63"/><use x="1426.1" xlink:href="#MyriadPro-Regular-6b"/><use x="1473" xlink:href="#MyriadPro-Regular-4f"/><use x="1541.9" xlink:href="#MyriadPro-Regular-76"/><use x="1590" xlink:href="#MyriadPro-Regular-65"/><use x="1640.1" xlink:href="#MyriadPro-Regular-72"/><use x="1672.8" xlink:href="#MyriadPro-Regular-66"/><use x="1702" xlink:href="#MyriadPro-Regular-6c"/><use x="1725.6" xlink:href="#MyriadPro-Regular-6f"/><use x="1780.5" xlink:href="#MyriadPro-Regular-77"/></g><path clip-path="url(#p11ed995580)" d="m31.462 323.405 2.683-11.785 2.681 11.785h27.837l2.729-11.378 2.727 11.378H92.36l2.774-21.289 2.82 10.645 2.683 10.644 2.682-10.644 2.776-.355 2.775.355 2.774 10.644 2.774-21.289 2.82 21.29 2.774-32.999 2.777 1.065 2.772-1.065 2.774 11.71 2.82 10.644 2.684-24.71 2.681 14.065 2.776-.71 2.775 22 2.774-11 2.774.355 2.82 10.644 2.775-54.996 2.776 54.996 2.772-11 2.775.356 2.82-10.645 2.683 9.504 2.681 11.785 2.777-21.998 2.774 21.998h8.369l2.774-11 2.776.356 2.773-11.354 2.774.71 2.82 10.644 2.729-.734 2.727.734 2.776 10.644 2.774-31.933 2.775 9.935 2.774.71h2.82l2.774-22.71 2.776 33.354 2.773-22.354 2.774-20.224h2.82l2.683 29.652 2.682-29.652 2.776 9.225 2.774-41.159 2.775 30.16 2.774 44.352 2.82-31.934 2.774-12.418 2.777-72.738 2.772 61.738 2.774-8.515 2.82 31.933 2.684 7.223 2.681-7.223 2.776-56.416 2.775 35.127 2.774-35.127 2.774 56.416 2.82 10.645 2.775-1.065 2.776 11.71 2.772-55.707 2.775-18.805 2.82-10.645 2.683 47.52 2.681-36.875 2.777-14.193 2.774 35.482 2.774-57.48 2.775 36.19 2.82 10.645 2.774-35.836 2.776-6.742 2.773 50.74 2.774-29.45 2.82 10.644 2.729 38.907 2.727-6.974 2.776 8.87 2.774-62.092 2.775 18.095 2.774 13.838 2.82-10.644 2.774 40.804 2.776-30.16 2.773-13.838 2.774 45.772 2.82 10.644 2.683 19.008 2.682-8.363 2.776 20.934 2.774-20.934 2.775-45.062 2.774 23.773 2.82-63.867 2.774 73.092 2.777 1.42h0" style="fill:none;stroke:#1f77b4;stroke-linecap:square;stroke-width:1.5" id="line2d_32"/></g></g><defs><clipPath id="p11ed995580"><path d="M31.462 57.293h357.12v266.112H31.462z"/></clipPath></defs></svg>