<svg height="487.874" viewBox="0 0 505.611 365.906" width="674.147" xmlns="http://www.w3.org/2000/svg" xmlns:xlink="http://www.w3.org/1999/xlink"><defs><style>*{stroke-linecap:butt;stroke-linejoin:round}</style></defs><g id="figure_1"><path d="M0 365.906h505.61V0H0z" style="fill:none" id="patch_1"/><g id="axes_1"><path d="M37.556 313.628h357.12V47.516H37.556z" style="fill:none" id="patch_2"/><path clip-path="url(#p01ab81d581)" d="m127.59 313.628 2.39-.017h2.43l2.35.017h16.731l2.39-.017 2.389.017 2.39-.017 2.43-.053 2.31-.007 2.31-.01 2.392-.021 2.39.09 2.39-.108 2.39.021 2.43.018 2.39-.04 2.39.005 2.39-.04 2.389.022 2.43-.332 2.31.104 2.31.123 2.392-.207 2.39.137 2.39.026 2.39-.096 2.43.053 2.39-.246 2.39.158 2.39-.086 2.39.034 2.428-.053 2.312-.424 2.31-.048 2.391.13 2.39-.2 2.39-.235 2.39-.045 2.43.437 2.39-.32 2.39.215 2.39.256 2.39-.29 2.428-.456 2.351-.496 2.35.584 2.39-.409 2.39.234 2.39-.162 2.39.337 2.43-.193 2.39.11 2.391-.162 2.389-.11 2.39.162 2.429.193 2.311-.462 2.31-.046 2.392.171 2.39-.1 2.39-.099 2.39.168h2.429l2.39.104 2.391.036 2.389-.38 2.39.59 2.429.035 2.311-.285 2.31-.625 2.392.592 2.39.458 2.39-.042 2.39.095 2.429-.035 2.39-.042 2.391-.5 2.389.283 2.39-.091 2.429.122 2.311-.138 2.31.068 2.392.275 2.39-.327 2.39.363 2.39-.188 2.429.367 2.39-.215 2.392.023 2.388.085 2.39.125 2.429.105 2.35.01 2.35-.535 2.391-.139 2.39.191 2.39.026 2.39-.026 2.43.385 2.39-.088h2.391l2.388.109 2.39.172 2.43.035 2.311-.491 2.31.193" style="fill:none;stroke:#7f7f7f;stroke-linecap:square;stroke-width:1.5" id="line2d_1"/><g id="matplotlib.axis_1"><g id="xtick_1"><g id="line2d_2"><defs><path d="M0 0v3.5" id="m63719aeb4d" style="stroke:#969696;stroke-width:.4"/></defs><use style="fill:#969696;stroke:#969696;stroke-width:.4" x="73.993" xlink:href="#m63719aeb4d" y="313.628"/></g><g style="fill:#969696" transform="matrix(.14 0 0 -.14 58.422 330.678)" id="text_1"><defs><path d="M281 2888q0 793 409 1202 410 410 1148 410 618 0 1012-375t394-969q0-462-227-780-226-317-667-557l-775-425q-684-375-775-863h2444V0H166q25 634 275 1056t781 728l806 469q322 185 469 383t147 545q0 344-241 578-240 235-650 235-453 0-678-299-225-298-231-807H281z" id="HelveticaWorld-Regular-32" transform="scale(.01563)"/><path d="M2719 2188q0 903-239 1354-239 452-702 452-453 0-697-452-243-451-243-1354 0-875 240-1340 241-464 700-464 463 0 702 448 239 449 239 1356zm603 0q0-1107-400-1709-400-601-1144-601-772 0-1156 623-384 624-384 1687 0 1090 393 1701 394 611 1147 611 744 0 1144-608t400-1704z" id="HelveticaWorld-Regular-30" transform="scale(.01563)"/><path d="M2297 0h-600v3194H647v447q550 18 818 176 269 158 391 683h441V0z" id="HelveticaWorld-Regular-31" transform="scale(.01563)"/></defs><use xlink:href="#HelveticaWorld-Regular-32"/><use x="55.615" xlink:href="#HelveticaWorld-Regular-30"/><use x="111.23" xlink:href="#HelveticaWorld-Regular-31"/><use x="166.846" xlink:href="#HelveticaWorld-Regular-30"/></g></g><g id="xtick_2"><use style="fill:#969696;stroke:#969696;stroke-width:.4" x="131.195" xlink:href="#m63719aeb4d" y="313.628" id="line2d_3"/><g style="fill:#969696" transform="matrix(.14 0 0 -.14 115.624 330.678)" id="text_2"><use xlink:href="#HelveticaWorld-Regular-32"/><use x="55.615" xlink:href="#HelveticaWorld-Regular-30"/><use x="111.23" xlink:href="#HelveticaWorld-Regular-31"/><use x="166.846" xlink:href="#HelveticaWorld-Regular-32"/></g></g><g id="xtick_3"><use style="fill:#969696;stroke:#969696;stroke-width:.4" x="188.476" xlink:href="#m63719aeb4d" y="313.628" id="line2d_4"/><g style="fill:#969696" transform="matrix(.14 0 0 -.14 172.905 330.678)" id="text_3"><defs><path d="M678 1581h1447v2041h-12L678 1581zm2010-487V0h-563v1094H159v550l2063 2856h466V1581h659v-487h-659z" id="HelveticaWorld-Regular-34" transform="scale(.01563)"/></defs><use xlink:href="#HelveticaWorld-Regular-32"/><use x="55.615" xlink:href="#HelveticaWorld-Regular-30"/><use x="111.23" xlink:href="#HelveticaWorld-Regular-31"/><use x="166.846" xlink:href="#HelveticaWorld-Regular-34"/></g></g><g id="xtick_4"><use style="fill:#969696;stroke:#969696;stroke-width:.4" x="245.678" xlink:href="#m63719aeb4d" y="313.628" id="line2d_5"/><g style="fill:#969696" transform="matrix(.14 0 0 -.14 230.107 330.678)" id="text_4"><defs><path d="M903 1381q0-440 262-719 263-278 685-278 403 0 642 284 239 285 239 748 0 403-236 675t-670 272q-422 0-672-266t-250-716zm1766 1922q-63 344-255 517-192 174-520 174-519 0-791-507-272-506-278-1159l13-12q359 553 1068 553 566 0 988-375t422-1053q0-672-400-1118-400-445-1078-445-782 0-1188 556-406 557-406 1660 0 1062 415 1734 416 672 1247 672 538 0 910-321 372-320 403-876h-550z" id="HelveticaWorld-Regular-36" transform="scale(.01563)"/></defs><use xlink:href="#HelveticaWorld-Regular-32"/><use x="55.615" xlink:href="#HelveticaWorld-Regular-30"/><use x="111.23" xlink:href="#HelveticaWorld-Regular-31"/><use x="166.846" xlink:href="#HelveticaWorld-Regular-36"/></g></g><g id="xtick_5"><use style="fill:#969696;stroke:#969696;stroke-width:.4" x="302.958" xlink:href="#m63719aeb4d" y="313.628" id="line2d_6"/><g style="fill:#969696" transform="matrix(.14 0 0 -.14 287.388 330.678)" id="text_5"><defs><path d="M1766 2597q347 0 573 198 227 199 227 527 0 294-218 483-217 189-620 189-359 0-555-199-195-198-195-504 0-328 244-511t544-183zm6-484q-434 0-681-241t-247-591q0-403 250-650t712-247q410 0 655 247t245 657q0 350-245 587-245 238-689 238zm1378 1228q0-678-578-947 397-178 567-471 170-292 170-623 0-641-413-1032-412-390-1112-390-612 0-1076 336T244 1306q0 763 762 1082-609 243-609 875 0 531 361 884t1001 353q641 0 1016-333t375-826z" id="HelveticaWorld-Regular-38" transform="scale(.01563)"/></defs><use xlink:href="#HelveticaWorld-Regular-32"/><use x="55.615" xlink:href="#HelveticaWorld-Regular-30"/><use x="111.23" xlink:href="#HelveticaWorld-Regular-31"/><use x="166.846" xlink:href="#HelveticaWorld-Regular-38"/></g></g><g id="xtick_6"><use style="fill:#969696;stroke:#969696;stroke-width:.4" x="360.16" xlink:href="#m63719aeb4d" y="313.628" id="line2d_7"/><g style="fill:#969696" transform="matrix(.14 0 0 -.14 344.59 330.678)" id="text_6"><use xlink:href="#HelveticaWorld-Regular-32"/><use x="55.615" xlink:href="#HelveticaWorld-Regular-30"/><use x="111.23" xlink:href="#HelveticaWorld-Regular-32"/><use x="166.846" xlink:href="#HelveticaWorld-Regular-30"/></g></g></g><g id="matplotlib.axis_2"><g id="ytick_1"><path clip-path="url(#p01ab81d581)" d="M37.556 313.628h357.12" style="fill:none;stroke:#969696;stroke-linecap:square;stroke-width:.3" id="line2d_8"/><g id="line2d_9"><defs><path d="M0 0h-3.5" id="m49f6bdff77" style="stroke:#969696;stroke-width:.3"/></defs><use style="fill:#969696;stroke:#969696;stroke-width:.3" x="37.556" xlink:href="#m49f6bdff77" y="313.628"/></g><use xlink:href="#HelveticaWorld-Regular-30" transform="matrix(.14 0 0 -.14 22.77 318.653)" id="text_7"/></g><g id="ytick_2"><path clip-path="url(#p01ab81d581)" d="M37.556 259.383h357.12" style="fill:none;stroke:#969696;stroke-linecap:square;stroke-width:.3" id="line2d_10"/><use style="fill:#969696;stroke:#969696;stroke-width:.3" x="37.556" xlink:href="#m49f6bdff77" y="259.383" id="line2d_11"/><g style="fill:#969696" transform="matrix(.14 0 0 -.14 7.2 264.408)" id="text_8"><use xlink:href="#HelveticaWorld-Regular-31"/><use x="55.615" xlink:href="#HelveticaWorld-Regular-30"/><use x="111.23" xlink:href="#HelveticaWorld-Regular-30"/></g></g><g id="ytick_3"><path clip-path="url(#p01ab81d581)" d="M37.556 205.138h357.12" style="fill:none;stroke:#969696;stroke-linecap:square;stroke-width:.3" id="line2d_12"/><use style="fill:#969696;stroke:#969696;stroke-width:.3" x="37.556" xlink:href="#m49f6bdff77" y="205.138" id="line2d_13"/><g style="fill:#969696" transform="matrix(.14 0 0 -.14 7.2 210.162)" id="text_9"><use xlink:href="#HelveticaWorld-Regular-32"/><use x="55.615" xlink:href="#HelveticaWorld-Regular-30"/><use x="111.23" xlink:href="#HelveticaWorld-Regular-30"/></g></g><g id="ytick_4"><path clip-path="url(#p01ab81d581)" d="M37.556 150.892h357.12" style="fill:none;stroke:#969696;stroke-linecap:square;stroke-width:.3" id="line2d_14"/><use style="fill:#969696;stroke:#969696;stroke-width:.3" x="37.556" xlink:href="#m49f6bdff77" y="150.892" id="line2d_15"/><g style="fill:#969696" transform="matrix(.14 0 0 -.14 7.2 155.917)" id="text_10"><defs><path d="M1434 2559q141-12 294-12 397 0 626 183 230 183 230 554 0 300-214 505t-617 205q-447 0-655-263-207-262-220-703H325q0 703 369 1087 369 385 1084 385 635 0 1013-327 378-326 378-857 0-685-578-928v-13q750-256 750-1050 0-634-422-1041-422-406-1197-406-634 0-1044 333-409 333-459 1164h581q13-519 256-755 244-236 703-236 444 0 713 247t269 622q0 410-257 619-256 209-793 209-128 0-257-6v484z" id="HelveticaWorld-Regular-33" transform="scale(.01563)"/></defs><use xlink:href="#HelveticaWorld-Regular-33"/><use x="55.615" xlink:href="#HelveticaWorld-Regular-30"/><use x="111.23" xlink:href="#HelveticaWorld-Regular-30"/></g></g><g id="ytick_5"><path clip-path="url(#p01ab81d581)" d="M37.556 96.647h357.12" style="fill:none;stroke:#969696;stroke-linecap:square;stroke-width:.3" id="line2d_16"/><use style="fill:#969696;stroke:#969696;stroke-width:.3" x="37.556" xlink:href="#m49f6bdff77" y="96.647" id="line2d_17"/><g style="fill:#969696" transform="matrix(.14 0 0 -.14 7.2 101.672)" id="text_11"><use xlink:href="#HelveticaWorld-Regular-34"/><use x="55.615" xlink:href="#HelveticaWorld-Regular-30"/><use x="111.23" xlink:href="#HelveticaWorld-Regular-30"/></g></g></g><path clip-path="url(#p01ab81d581)" d="m110.822 313.628 2.39-.017 2.39.017h9.6l2.389-.018 2.39.018h7.129l2.391-.036 2.39-.069 2.39.07 2.39-.017 2.43-.018 2.39-.002 2.39-.068 2.389-.004 2.39.04 2.43-.07 2.31-.02 2.31.142 2.392-.147 2.39.007 2.39-.133 2.39-.06 2.43.035 2.39-.066 2.39-.021 2.39.003 2.389.05 2.43-.298 2.31.082 2.31-.1 2.392.14 2.39.018 2.39-.2 2.39.112 2.43-.175 2.39-.008 2.39-.167 2.39-.068 2.39.19 2.428-.07 2.312-.021 2.31-.066 2.391-.305 2.39.34 2.39-.159 2.39.02 2.43.174 2.39-.158 2.39-.28 2.39-.027 2.39.15 2.428-.105 2.351.168 2.35-.168 2.39-.172 2.39.207 2.39.046 2.39-.256 2.43-.052 2.39.091 2.391-.126 2.389-.127 2.39.6 2.429-.49 2.311-.254 2.31.13 2.392-.148 2.39.341 2.39.02 2.39-.422 2.429.28 2.39-.11 2.391.162 2.389-.217 2.39.672 2.429-.49 2.311.111 2.31-.146 2.392.16 2.39-.142 2.39-.02 2.39.125 2.429-.228 2.39.157 2.391.088 2.389-.106 2.39-.034 2.429.21 2.311-.064 2.31.344 2.392-.62 2.39.235 2.39.091 2.39-.16 2.429.612 2.39-.289 2.392-.411 2.388-.186 2.39.798 2.429-.262 2.35-.435 2.35.242 2.391-.379 2.39-.46 2.39.55 2.39-.288 2.43-.035 2.39.36 2.391.13 2.388.43 2.39.252 2.43-.192 2.311-.346 2.31.136" style="fill:none;stroke:#e377c2;stroke-linecap:square;stroke-width:1.5" id="line2d_18"/><path clip-path="url(#p01ab81d581)" d="m94.21 313.628 2.391-.017h2.388l2.39.017h4.741l2.31-.017 2.392-.019 2.39.036 2.39-.018h2.39l2.429-.07 2.39-.02 2.391-.12 2.389-.26 2.39.173 2.429.053 2.35-.261 2.35.313 2.391-.133 2.39-.602 2.39-.628 2.39-.544 2.43.7 2.39-.39 2.39-.083 2.389.046 2.39-.676 2.43-.122 2.31-.69 2.31.323 2.392.098 2.39-.343 2.39 1.066 2.39-1.346 2.43.787 2.39.053 2.39-.14 2.39-.24 2.389.047 2.43.402 2.31-.203 2.31.221 2.392-.322 2.39.147 2.39.594 2.39-.909 2.43.297 2.39-.02 2.39-.102 2.39-.224 2.39.067 2.428-.158 2.312-.502 2.31.695 2.391-.735 2.39.367 2.39-.023 2.39.093 2.43-.14 2.39.354 2.39.101 2.39-.68 2.39.523 2.428-.07 2.351-.318 2.35-.33 2.39.05 2.39.3 2.39.334 2.39.226 2.43-.087 2.39-.302 2.391.109 2.389-.163 2.39.25 2.429-.174 2.311-.147 2.31.339 2.392-.232 2.39-.03 2.39.572 2.39-.047 2.429-.018 2.39-.115 2.391.098 2.389.245 2.39-.106 2.429.105 2.311-.25 2.31-.764 2.392.31 2.39.092 2.39.36 2.39.025 2.429-.157 2.39-.284 2.391.931 2.389-.226 2.39.261 2.429-.595 2.311.241 2.31.126 2.392-.015 2.39-.544 2.39.147 2.39.098 2.429.84 2.39-.36 2.392-.41 2.388-.096 2.39.445 2.429-.35 2.35-.01 2.35-.304 2.391-.577 2.39-.263 2.39.968 2.39-.548 2.43.507 2.39.44 2.391.015 2.388-.269 2.39.689 2.43-1.382 2.311.117 2.31.53" style="fill:none;stroke:#8c564b;stroke-linecap:square;stroke-width:1.5" id="line2d_19"/><g style="fill:#1f77b4" transform="matrix(.14 0 0 -.14 398.247 257.76)" id="text_12"><defs><path d="M984 3956H422v638h562v-638zm0-4450q0-478-227-664-226-186-629-186-115 0-237 19v487H38q237 0 310 71 74 70 74 339v3775h562V-494z" id="HelveticaWorld-Regular-6a" transform="scale(.01563)"/><path d="M2656 1516q0 712-224 1067-223 355-679 355-440 0-678-288-237-287-237-966 0-603 240-948 241-345 663-345 372 0 643 281 272 281 272 844zm538-2841h-563V353h-12Q2297-97 1728-97q-703 0-1088 522-384 522-384 1347 0 731 378 1201 379 471 1016 471 634 0 1000-569h13v472h531v-4672z" id="HelveticaWorld-Regular-71" transform="scale(.01563)"/><path d="M391 3347h562V1125q0-369 167-552 168-182 480-182 434 0 678 307 244 308 244 805v1844h562V0h-531v488l-12 12Q2222-97 1478-97q-481 0-784 262-303 263-303 776v2406z" id="HelveticaWorld-Regular-75" transform="scale(.01563)"/><path d="M2719 1941q-44 543-288 770-243 227-647 227-409 0-661-288-251-287-267-709h1863zm537-891q-93-519-509-859-366-288-963-294-703 6-1116 461-412 455-412 1223 0 882 425 1372 425 491 1182 491 678 0 1059-507 381-506 381-1446H856q0-525 244-813 244-287 731-287 344 0 591 207 247 208 272 452h562z" id="HelveticaWorld-Regular-65" transform="scale(.01563)"/><path d="M984 0H422v3347h531v-556h13q365 653 940 653 91 0 147-19v-584h-209q-378 0-619-257-241-256-241-637V0z" id="HelveticaWorld-Regular-72" transform="scale(.01563)"/><path d="M2497 3347h612L1913 63q-32-88-63-166-272-725-469-995-197-271-637-271-231 0-378 50v513q159-57 350-57 206 0 301 130 96 130 283 636L56 3347h635l897-2725h12l897 2725z" id="HelveticaWorld-Regular-79" transform="scale(.01563)"/></defs><use xlink:href="#HelveticaWorld-Regular-6a"/><use x="22.021" xlink:href="#HelveticaWorld-Regular-71"/><use x="78.516" xlink:href="#HelveticaWorld-Regular-75"/><use x="133.301" xlink:href="#HelveticaWorld-Regular-65"/><use x="188.721" xlink:href="#HelveticaWorld-Regular-72"/><use x="223.664" xlink:href="#HelveticaWorld-Regular-79"/></g><g style="fill:#ff7f0e" transform="matrix(.14 0 0 -.14 398.247 271.807)" id="text_13"><defs><path d="M2456 1709q-62-65-245-106-183-40-683-106-369-44-542-182-173-137-173-362 0-275 146-428 147-153 469-153 403 0 715 229 313 230 313 558v550zM397 2328q19 566 367 841 349 275 1014 275 531 0 890-241 360-240 360-694V581q0-197 178-197 72 0 185 25V0q-153-63-319-63-288 0-429 123-140 124-146 387Q2016-97 1288-97q-475 0-763 269-287 269-287 700 0 441 250 712 250 272 728 329l993 121q269 41 269 397 0 263-195 403-195 141-592 141-353 0-543-156-189-156-226-491H397z" id="HelveticaWorld-Regular-61" transform="scale(.01563)"/><path d="M3138 0h-725l-825 1259L781 0H72l1169 1722L128 3347h716l775-1178 781 1178h684L1959 1722 3138 0z" id="HelveticaWorld-Regular-78" transform="scale(.01563)"/><path d="M422 3956v638h562v-638H422zM984 0H422v3347h562V0z" id="HelveticaWorld-Regular-69" transform="scale(.01563)"/><path d="M813 1678q0-559 253-920t718-361q482 0 732 378t250 903q0 531-250 901-250 371-732 371-446 0-709-349-262-348-262-923zm-575 0q0 747 415 1256 416 510 1131 510 732 0 1144-516 413-515 413-1250 0-737-410-1256Q2522-97 1784-97q-709 0-1128 503-418 503-418 1272z" id="HelveticaWorld-Regular-6f" transform="scale(.01563)"/><path d="M2309 2394q-12 300-214 431-201 131-579 131-275 0-471-122-195-121-195-350 0-181 115-267 116-86 501-183l556-140q506-128 723-327 218-198 218-554 0-494-361-802T1638-97Q934-97 573 195q-360 293-367 880h544q13-347 230-516 217-168 651-168 353 0 561 140 208 141 208 391 0 178-135 284-134 107-531 197l-653 160q-397 100-586 298t-189 514q0 494 353 781 354 288 922 288 607 0 930-296 323-295 342-754h-544z" id="HelveticaWorld-Regular-73" transform="scale(.01563)"/></defs><use xlink:href="#HelveticaWorld-Regular-61"/><use x="54.932" xlink:href="#HelveticaWorld-Regular-78"/><use x="104.932" xlink:href="#HelveticaWorld-Regular-69"/><use x="126.953" xlink:href="#HelveticaWorld-Regular-6f"/><use x="182.861" xlink:href="#HelveticaWorld-Regular-73"/></g><g style="fill:#2ca02c" transform="matrix(.14 0 0 -.14 398.247 285.807)" id="text_14"><defs><path d="M984 0H422v4594h562V0z" id="HelveticaWorld-Regular-6c" transform="scale(.01563)"/><path d="M2534 2222q-121 716-793 716-416 0-669-333t-253-927q0-647 234-967 235-320 681-320 300 0 519 220t281 573h544q-84-621-439-951T1722-97q-659 0-1081 451-422 452-422 1227 0 850 422 1356 422 507 1184 507 556 0 886-333t367-889h-544z" id="HelveticaWorld-Regular-63" transform="scale(.01563)"/><path d="M1100 2881V703q0-128 70-195 71-67 252-67h216V0q-307-44-422-44-353 0-516 169-162 169-162 547v2209H84v466h454v934h562v-934h538v-466h-538z" id="HelveticaWorld-Regular-74" transform="scale(.01563)"/><path d="M3150 0h-566v2059q0 475-166 677-165 202-549 202-378 0-632-288-253-287-253-825V0H422v3347h531v-472h13q397 569 1012 569 569 0 870-302 302-301 302-864V0z" id="HelveticaWorld-Regular-6e" transform="scale(.01563)"/></defs><use xlink:href="#HelveticaWorld-Regular-65"/><use x="55.42" xlink:href="#HelveticaWorld-Regular-6c"/><use x="77.441" xlink:href="#HelveticaWorld-Regular-65"/><use x="132.861" xlink:href="#HelveticaWorld-Regular-63"/><use x="184.131" xlink:href="#HelveticaWorld-Regular-74"/><use x="211.816" xlink:href="#HelveticaWorld-Regular-72"/><use x="243.385" xlink:href="#HelveticaWorld-Regular-6f"/><use x="299.293" xlink:href="#HelveticaWorld-Regular-6e"/></g><g style="fill:#d62728" transform="matrix(.14 0 0 -.14 398.247 299.807)" id="text_15"><defs><path d="M1638 0h-575L97 3347h606l641-2631h12l647 2631h635l653-2631h12l678 2631h557L3572 0h-591l-678 2591h-12L1638 0z" id="HelveticaWorld-Regular-77" transform="scale(.01563)"/><path d="M1850 1484H281v575h1569v-575z" id="HelveticaWorld-Regular-2d" transform="scale(.01563)"/><path d="M2778 1684q0 672-238 963-237 291-677 291-447-7-676-349-228-342-228-989 0-659 275-934t641-275q416 0 659 342 244 342 244 951zM422 0v4594h562V2925h13q359 519 969 519 625 0 1009-464t384-1208q0-838-388-1354Q2584-97 1888-97q-613 0-922 513h-13V0H422z" id="HelveticaWorld-Regular-62" transform="scale(.01563)"/><path d="M959 1516q0-538 262-832 263-293 654-293 428 0 665 348 238 349 238 945 0 654-228 954t-687 300q-447 0-676-352-228-352-228-1070zM422 3347h531v-472h13q359 569 1000 569 647 0 1020-471 373-470 373-1201 0-819-381-1344T1888-97q-582 0-891 450h-13v-1678H422v4672z" id="HelveticaWorld-Regular-70" transform="scale(.01563)"/></defs><use xlink:href="#HelveticaWorld-Regular-74"/><use x="27.686" xlink:href="#HelveticaWorld-Regular-77"/><use x="100.098" xlink:href="#HelveticaWorld-Regular-69"/><use x="122.119" xlink:href="#HelveticaWorld-Regular-74"/><use x="149.805" xlink:href="#HelveticaWorld-Regular-74"/><use x="177.49" xlink:href="#HelveticaWorld-Regular-65"/><use x="232.91" xlink:href="#HelveticaWorld-Regular-72"/><use x="265.479" xlink:href="#HelveticaWorld-Regular-2d"/><use x="298.779" xlink:href="#HelveticaWorld-Regular-62"/><use x="355.273" xlink:href="#HelveticaWorld-Regular-6f"/><use x="411.182" xlink:href="#HelveticaWorld-Regular-6f"/><use x="467.09" xlink:href="#HelveticaWorld-Regular-74"/><use x="494.775" xlink:href="#HelveticaWorld-Regular-73"/><use x="544.775" xlink:href="#HelveticaWorld-Regular-74"/><use x="572.461" xlink:href="#HelveticaWorld-Regular-72"/><use x="604.029" xlink:href="#HelveticaWorld-Regular-61"/><use x="658.961" xlink:href="#HelveticaWorld-Regular-70"/></g><g style="fill:#9467bd" transform="matrix(.14 0 0 -.14 398.247 313.787)" id="text_16"><defs><path d="M838 1684q0-621 246-957 247-336 657-336 390 0 652 287 263 288 263 838 0 706-224 1064-223 358-679 358-434 0-675-285-240-284-240-969zM3225 0h-531v459h-13Q2363-97 1716-97q-697 0-1079 531-381 532-381 1338 0 744 378 1208 379 464 1016 464 628 0 1000-569l13 38v1681h562V0z" id="HelveticaWorld-Regular-64" transform="scale(.01563)"/><path d="M1222 0H556v678h666V0z" id="HelveticaWorld-Regular-2e" transform="scale(.01563)"/></defs><use xlink:href="#HelveticaWorld-Regular-64"/><use x="56.982" xlink:href="#HelveticaWorld-Regular-33"/><use x="112.598" xlink:href="#HelveticaWorld-Regular-2e"/><use x="140.381" xlink:href="#HelveticaWorld-Regular-6a"/><use x="162.402" xlink:href="#HelveticaWorld-Regular-73"/></g><g style="fill:#8c564b" transform="matrix(.14 0 0 -.14 398.247 327.787)" id="text_17"><defs><path d="M3150 0h-566v2188q0 403-156 576-156 174-509 174-435 0-685-282-250-281-250-831V0H422v4594h562V2900h13q384 544 981 544 550 0 861-288 311-287 311-878V0z" id="HelveticaWorld-Regular-68" transform="scale(.01563)"/></defs><use xlink:href="#HelveticaWorld-Regular-74"/><use x="27.686" xlink:href="#HelveticaWorld-Regular-68"/><use x="82.861" xlink:href="#HelveticaWorld-Regular-72"/><use x="114.43" xlink:href="#HelveticaWorld-Regular-65"/><use x="169.85" xlink:href="#HelveticaWorld-Regular-65"/><use x="223.77" xlink:href="#HelveticaWorld-Regular-2e"/><use x="251.553" xlink:href="#HelveticaWorld-Regular-6a"/><use x="273.574" xlink:href="#HelveticaWorld-Regular-73"/></g><g style="fill:#e377c2" transform="matrix(.14 0 0 -.14 398.247 341.787)" id="text_18"><defs><path d="M422 3347h531v-472h13q378 569 1012 569 628 0 891-544 240 294 465 419t557 125q434 0 735-285 302-284 302-843V0h-562v2163q0 390-147 582-147 193-475 193-331 0-560-269-228-269-228-628V0h-562v2316q0 290-135 456-134 166-390 166-403 0-644-300t-241-813V0H422v3347z" id="HelveticaWorld-Regular-6d" transform="scale(.01563)"/></defs><use xlink:href="#HelveticaWorld-Regular-6d"/><use x="83.008" xlink:href="#HelveticaWorld-Regular-6f"/><use x="138.916" xlink:href="#HelveticaWorld-Regular-6d"/><use x="221.924" xlink:href="#HelveticaWorld-Regular-65"/><use x="277.344" xlink:href="#HelveticaWorld-Regular-6e"/><use x="332.52" xlink:href="#HelveticaWorld-Regular-74"/><use x="360.205" xlink:href="#HelveticaWorld-Regular-6a"/><use x="382.227" xlink:href="#HelveticaWorld-Regular-73"/></g><g style="fill:#7f7f7f" transform="matrix(.14 0 0 -.14 398.247 355.807)" id="text_19"><use xlink:href="#HelveticaWorld-Regular-6c"/><use x="22.021" xlink:href="#HelveticaWorld-Regular-6f"/><use x="77.93" xlink:href="#HelveticaWorld-Regular-64"/><use x="134.912" xlink:href="#HelveticaWorld-Regular-61"/><use x="189.844" xlink:href="#HelveticaWorld-Regular-73"/><use x="239.844" xlink:href="#HelveticaWorld-Regular-68"/></g><g style="fill:#969696" transform="matrix(.09716 0 0 -.09716 37.556 347.399)" id="text_20"><defs><path d="M3225 3250q-19 438-327 686-307 248-810 248-507 0-779-208-271-207-271-598 0-209 118-359 119-150 425-222l1313-300q531-116 787-440 257-323 257-788 0-681-500-1036T2138-122q-610 0-962 156-351 157-623 497-272 341-272 953h582q0-512 340-794 341-281 928-281 569 0 886 202t317 573q0 338-189 505t-739 295l-990 232q-494 112-738 392t-244 689q0 619 417 1019 418 400 1165 400 843 0 1301-352 458-351 492-1114h-584z" id="HelveticaWorld-Regular-53" transform="scale(.01563)"/><path d="M3200 0h-722L1434 1691l-468-422V0H422v4594h544V1931l1440 1416h716L1844 2100 3200 0z" id="HelveticaWorld-Regular-6b" transform="scale(.01563)"/><path d="M4091 2297q0 806-427 1337-426 532-1173 532-738 0-1169-532-431-531-431-1337 0-831 437-1350 438-519 1163-519 709 0 1154 506 446 507 446 1363zm637 0q0-1028-594-1724-593-695-1643-695-1057 0-1649 695-592 696-592 1724 0 1031 592 1725t1649 694q1081 0 1659-707 578-706 578-1712z" id="HelveticaWorld-Regular-4f" transform="scale(.01563)"/><path d="M2522 3347h616L1863 0h-604L38 3347h653l872-2725h12l947 2725z" id="HelveticaWorld-Regular-76" transform="scale(.01563)"/><path d="M1100 2881V0H538v2881H78v466h460v575q0 378 229 557 230 180 642 180 141 0 254-12v-506q-100 12-229 12-187 0-261-92-73-92-73-298v-416h563v-466h-563z" id="HelveticaWorld-Regular-66" transform="scale(.01563)"/><path d="m2816 1888-678 2021h-13l-737-2021h1428zm-1619-550L716 0H78l1728 4594h703L4172 0h-678l-453 1338H1197z" id="HelveticaWorld-Regular-41" transform="scale(.01563)"/><path d="M1141 2472h1234q466 0 700 204 234 205 234 621 0 372-225 569t-684 197H1141V2472zm0-2472H519v4594h2065q616 0 991-358t375-933q0-597-363-980-362-382-1003-382H1141V0z" id="HelveticaWorld-Regular-50" transform="scale(.01563)"/><path d="M1141 0H519v4594h622V0z" id="HelveticaWorld-Regular-49" transform="scale(.01563)"/><path d="M831 1684q0-615 244-954t659-339q404 0 660 293 256 294 256 832 0 706-224 1064-223 358-679 358-459 0-688-305-228-305-228-949zM3188 191q0-807-388-1203-387-397-1169-397-562 0-895 259T353-409h563q43-244 226-388t530-144q472 0 712 254 241 253 241 821v238h-12Q2297-97 1722-97q-716 0-1094 528T250 1772q0 744 381 1208 382 464 1013 464 634 0 1000-569h12v472h532V191z" id="HelveticaWorld-Regular-67" transform="scale(.01563)"/><path d="M603 4716h466V-122H603v4838z" id="HelveticaWorld-Regular-7c" transform="scale(.01563)"/><path d="M3559 4594h600V0h-690L1125 3713h-12V0H519v4594h728L3547 884h12v3710z" id="HelveticaWorld-Regular-4e" transform="scale(.01563)"/><path d="M813 1678q0-559 253-920t718-361q482 0 732 378t250 903q0 531-250 901-250 371-732 371-446 0-709-349-262-348-262-923zm-575 0q0 747 415 1256 416 510 1131 510 732 0 1144-516 413-515 413-1250 0-737-410-1256Q2522-97 1784-97q-709 0-1128 503-418 503-418 1272zm2351 2266h-575v650h575v-650zm-1038 0H976v650h575v-650z" id="HelveticaWorld-Regular-f6" transform="scale(.01563)"/><path d="M3713 3213q-104 468-434 710-329 243-854 243-678 0-1091-493-412-492-412-1329 0-969 390-1443 391-473 1132-473 487 0 838 323 352 324 474 940h603q-121-885-671-1349T2350-122q-941 0-1505 647T281 2322q0 1109 589 1751 589 643 1555 643 800 0 1297-413 497-412 591-1090h-600z" id="HelveticaWorld-Regular-43" transform="scale(.01563)"/><path d="M519 4594h2015q594 0 947-322t353-834q0-310-155-565-154-254-460-395 428-162 629-431 202-269 202-691 0-593-428-975Q3194 0 2491 0H519v4594zm612-4063h1325q488 0 731 226 244 227 244 612 0 390-272 582-271 193-803 193H1131V531zm0 2119h1128q494 0 724 179 230 180 230 562 0 328-218 500-217 172-729 172H1131V2650z" id="HelveticaWorld-Regular-42" transform="scale(.01563)"/><path d="M2388 0h-622v1850L31 4594h725l1319-2206 1316 2206h731L2388 1850V0z" id="HelveticaWorld-Regular-59" transform="scale(.01563)"/></defs><use xlink:href="#HelveticaWorld-Regular-53"/><use x="66.211" xlink:href="#HelveticaWorld-Regular-74"/><use x="93.896" xlink:href="#HelveticaWorld-Regular-61"/><use x="148.828" xlink:href="#HelveticaWorld-Regular-63"/><use x="200.098" xlink:href="#HelveticaWorld-Regular-6b"/><use x="250.098" xlink:href="#HelveticaWorld-Regular-4f"/><use x="327.881" xlink:href="#HelveticaWorld-Regular-76"/><use x="375.49" xlink:href="#HelveticaWorld-Regular-65"/><use x="430.91" xlink:href="#HelveticaWorld-Regular-72"/><use x="464.979" xlink:href="#HelveticaWorld-Regular-66"/><use x="492.664" xlink:href="#HelveticaWorld-Regular-6c"/><use x="514.686" xlink:href="#HelveticaWorld-Regular-6f"/><use x="569.094" xlink:href="#HelveticaWorld-Regular-77"/><use x="641.506" xlink:href="#HelveticaWorld-Regular-20"/><use x="665.92" xlink:href="#HelveticaWorld-Regular-41"/><use x="732.619" xlink:href="#HelveticaWorld-Regular-50"/><use x="797.268" xlink:href="#HelveticaWorld-Regular-49"/><use x="823.049" xlink:href="#HelveticaWorld-Regular-20"/><use x="847.463" xlink:href="#HelveticaWorld-Regular-76"/><use x="897.072" xlink:href="#HelveticaWorld-Regular-69"/><use x="919.094" xlink:href="#HelveticaWorld-Regular-61"/><use x="974.025" xlink:href="#HelveticaWorld-Regular-20"/><use x="998.439" xlink:href="#HelveticaWorld-Regular-73"/><use x="1048.439" xlink:href="#HelveticaWorld-Regular-74"/><use x="1076.125" xlink:href="#HelveticaWorld-Regular-61"/><use x="1131.057" xlink:href="#HelveticaWorld-Regular-63"/><use x="1182.326" xlink:href="#HelveticaWorld-Regular-6b"/><use x="1232.326" xlink:href="#HelveticaWorld-Regular-74"/><use x="1260.012" xlink:href="#HelveticaWorld-Regular-61"/><use x="1314.943" xlink:href="#HelveticaWorld-Regular-67"/><use x="1370.852" xlink:href="#HelveticaWorld-Regular-73"/><use x="1420.852" xlink:href="#HelveticaWorld-Regular-20"/><use x="1445.266" xlink:href="#HelveticaWorld-Regular-7c"/><use x="1471.242" xlink:href="#HelveticaWorld-Regular-20"/><use x="1495.656" xlink:href="#HelveticaWorld-Regular-4e"/><use x="1568.752" xlink:href="#HelveticaWorld-Regular-69"/><use x="1590.773" xlink:href="#HelveticaWorld-Regular-63"/><use x="1642.043" xlink:href="#HelveticaWorld-Regular-6f"/><use x="1697.951" xlink:href="#HelveticaWorld-Regular-20"/><use x="1722.365" xlink:href="#HelveticaWorld-Regular-53"/><use x="1788.576" xlink:href="#HelveticaWorld-Regular-63"/><use x="1839.846" xlink:href="#HelveticaWorld-Regular-68"/><use x="1895.021" xlink:href="#HelveticaWorld-Regular-6c"/><use x="1917.043" xlink:href="#HelveticaWorld-Regular-f6"/><use x="1972.951" xlink:href="#HelveticaWorld-Regular-6d"/><use x="2055.959" xlink:href="#HelveticaWorld-Regular-65"/><use x="2111.379" xlink:href="#HelveticaWorld-Regular-72"/><use x="2143.947" xlink:href="#HelveticaWorld-Regular-20"/><use x="2168.361" xlink:href="#HelveticaWorld-Regular-7c"/><use x="2194.338" xlink:href="#HelveticaWorld-Regular-20"/><use x="2218.752" xlink:href="#HelveticaWorld-Regular-43"/><use x="2291.066" xlink:href="#HelveticaWorld-Regular-43"/><use x="2363.381" xlink:href="#HelveticaWorld-Regular-20"/><use x="2387.795" xlink:href="#HelveticaWorld-Regular-42"/><use x="2450.607" xlink:href="#HelveticaWorld-Regular-59"/></g><g style="fill:#969696" transform="matrix(.14 0 0 -.14 80.05 17.516)" id="text_21"><defs><path d="M1141 531h1203q625 0 978 480t353 1311q0 822-356 1278t-1028 463H1141V531zM519 4594h1862q903 0 1414-621 511-620 511-1610 0-1063-511-1713T2356 0H519v4594z" id="HelveticaWorld-Regular-44" transform="scale(.01563)"/></defs><use xlink:href="#HelveticaWorld-Regular-44"/><use x="72.021" xlink:href="#HelveticaWorld-Regular-61"/><use x="126.953" xlink:href="#HelveticaWorld-Regular-69"/><use x="148.975" xlink:href="#HelveticaWorld-Regular-6c"/><use x="170.996" xlink:href="#HelveticaWorld-Regular-79"/><use x="220.605" xlink:href="#HelveticaWorld-Regular-20"/><use x="245.02" xlink:href="#HelveticaWorld-Regular-6e"/><use x="300.195" xlink:href="#HelveticaWorld-Regular-75"/><use x="354.98" xlink:href="#HelveticaWorld-Regular-6d"/><use x="437.988" xlink:href="#HelveticaWorld-Regular-62"/><use x="494.482" xlink:href="#HelveticaWorld-Regular-65"/><use x="549.902" xlink:href="#HelveticaWorld-Regular-72"/><use x="582.471" xlink:href="#HelveticaWorld-Regular-20"/><use x="606.885" xlink:href="#HelveticaWorld-Regular-6f"/><use x="662.793" xlink:href="#HelveticaWorld-Regular-66"/><use x="690.479" xlink:href="#HelveticaWorld-Regular-20"/><use x="714.893" xlink:href="#HelveticaWorld-Regular-71"/><use x="771.387" xlink:href="#HelveticaWorld-Regular-75"/><use x="826.172" xlink:href="#HelveticaWorld-Regular-65"/><use x="881.592" xlink:href="#HelveticaWorld-Regular-73"/><use x="931.592" xlink:href="#HelveticaWorld-Regular-74"/><use x="959.277" xlink:href="#HelveticaWorld-Regular-69"/><use x="981.299" xlink:href="#HelveticaWorld-Regular-6f"/><use x="1037.207" xlink:href="#HelveticaWorld-Regular-6e"/><use x="1092.383" xlink:href="#HelveticaWorld-Regular-73"/><use x="1142.383" xlink:href="#HelveticaWorld-Regular-20"/><use x="1166.797" xlink:href="#HelveticaWorld-Regular-6f"/><use x="1222.705" xlink:href="#HelveticaWorld-Regular-6e"/><use x="1277.881" xlink:href="#HelveticaWorld-Regular-20"/><use x="1302.295" xlink:href="#HelveticaWorld-Regular-53"/><use x="1368.506" xlink:href="#HelveticaWorld-Regular-74"/><use x="1396.191" xlink:href="#HelveticaWorld-Regular-61"/><use x="1451.123" xlink:href="#HelveticaWorld-Regular-63"/><use x="1502.393" xlink:href="#HelveticaWorld-Regular-6b"/><use x="1552.393" xlink:href="#HelveticaWorld-Regular-4f"/><use x="1630.176" xlink:href="#HelveticaWorld-Regular-76"/><use x="1677.785" xlink:href="#HelveticaWorld-Regular-65"/><use x="1733.205" xlink:href="#HelveticaWorld-Regular-72"/><use x="1767.273" xlink:href="#HelveticaWorld-Regular-66"/><use x="1794.959" xlink:href="#HelveticaWorld-Regular-6c"/><use x="1816.98" xlink:href="#HelveticaWorld-Regular-6f"/><use x="1871.389" xlink:href="#HelveticaWorld-Regular-77"/></g><path clip-path="url(#p01ab81d581)" d="m108.43 313.628 2.392-.018 2.39.018 2.39-.018h2.39l2.429-.07 2.39-.02 2.391-.032 2.389-.095 2.39-.062 2.429.017 2.35-.038 2.35-.364 2.391-.348 2.39-1.14 2.39.362 2.39-.554 2.43.07 2.39-.13 2.39-.587 2.389-1.276 2.39 1.153 2.43-.857 2.31-.893 2.31-.472 2.392-.54 2.39.61 2.39-1.677 2.39-.038 2.43.682 2.39.278 2.39-.488 2.39-1.067 2.389-.263 2.43-.122 2.31-1.766 2.31.086 2.392.112 2.39 1.06 2.39.531 2.39-.74 2.43 1.854 2.39.26 2.39-.155 2.39-.875 2.39 1.05 2.428-.315 2.312-.678 2.31-.127 2.391-1.25 2.39.533 2.39-.515 2.39-.587 2.43 1.33 2.39-.056 2.39.003 2.39-.726 2.39 1.11 2.428-1.416 2.351.11 2.35-.495 2.39.438 2.39-.49 2.39-.523 2.39.855 2.43-.088 2.39 1.62 2.391-1.042 2.389-.061 2.39 1.338 2.429-.525 2.311-.599 2.31-.59 2.392 1.605 2.39-.591 2.39.61 2.39 1.035 2.429-.385 2.39.724 2.391-.392 2.389-.187 2.39 1.832 2.429-1.155 2.311.07 2.31.263 2.392-.196 2.39.598 2.39.197 2.39-.424 2.429.297 2.39-.415 2.391.188 2.389.264 2.39 1.24 2.429.106 2.311-.451 2.31.276 2.392-.502 2.39-.776 2.39.613 2.39.192 2.429.298 2.39-.4 2.392.487 2.388-.414 2.39 1.429 2.429-.892 2.35-.793 2.35-.87 2.391-.953 2.39.288 2.39 1.339 2.39.271 2.43.665 2.39-.285 2.391-.782 2.388 1.017 2.39.855 2.43-.227 2.311-.584 2.31-.291" style="fill:none;stroke:#9467bd;stroke-linecap:square;stroke-width:1.5" id="line2d_20"/><path clip-path="url(#p01ab81d581)" d="M51.228 313.628h66.764l14.418-1.19 2.35-2.888 2.35.316 2.391-1.843 2.39-.082 2.39-.985 2.39-.66 2.43-.787 2.39-.433 2.39-.95 2.389-.515 2.39 1.198 2.43-3.5 2.31-2.928 2.31.479 2.392-.981 2.39.508 2.39-.725 2.39-3.055 2.43-1.382 2.39-2.253 2.39-.004 2.39 2.571 2.389-.716 2.43-2.1 2.31-4.024 2.31-1.733 2.392 1.92 2.39 2.857 2.39.162 2.39-2.682 2.43 2.66 2.39-1.117 2.39.907 2.39-1.124 2.39 2.279 2.428-2.818 2.312-3.229 2.31-.358 2.391-2.673 2.39-.599 2.39-1.354 2.39-1.166 2.43 3.045 2.39 1.955 2.39 1.807 2.39 2.098 2.39.562 2.428-1.435 2.351-3.637 2.35 1.17 2.39-1.415 2.39 3.795 2.39.617 2.39-.652 2.43-.98 2.39 3.223 2.391 2.341 2.389-1.762 2.39 1.097 2.429-1.05 2.311-.347 2.31-1.595 2.392 4.227 2.39-2.302 2.39 1.868 2.39 2.104 2.429-.595 2.39 3.138 2.391-.776 2.389-.634 2.39 4.746 2.429-2.957 2.311 2.036 2.31 3.039 2.392 1.471 2.39-.036 2.39.705 2.39.45 2.429 2.222 2.39.113 4.78.67 2.39 1.002 2.429-1.523 4.621 1.208 2.392.288 2.39-.148 2.39.365 2.39-.925 2.429 1.732 2.39-1.042 2.392-.498 2.388.498 2.39 1.042 2.429-.542 2.35-.098 2.35-1.057 2.391-2.31 2.39 1.242 2.39-.302 2.39-.538 2.43 2.188 2.39 1.261 2.391-.264 2.388.41 2.39.203 2.43-.735 2.311.41 2.31-.498h0" style="fill:none;stroke:#d62728;stroke-linecap:square;stroke-width:1.5" id="line2d_21"/><path clip-path="url(#p01ab81d581)" d="m196.703 313.628 2.39-.035 2.39.035 2.39-.017h2.43l2.39.017 2.39-.017 2.39-.055 2.39-.015 2.428-.018 2.312.086 2.31-.12 2.391-.005 2.39-.346 2.39.092 2.39-.302 2.43.193 2.39-.18 2.39-.118 2.39-.19 2.39.155 2.428-.297 2.351-.172 2.35-.493 2.39.084 2.39-.102 2.39-.277 2.39-.055 2.43-.7 2.39.411 2.391.201 2.389-.58 2.39.388 2.429-.438 2.311.74 2.31-.652 2.392.07 2.39-.123 2.39-.673 2.39.096 2.429.525 2.39.012 2.391-.117 2.389.262 2.39.158 2.429-.14 2.311-.155 2.31-.037 2.392.047 2.39-.222 2.39-.32 2.39.302 2.429.158 2.39-.352 2.391.107 2.389.2 2.39-.235 2.429.542 2.311-.616 2.31-.626 2.392-.131 2.39-.85 2.39.67 2.39-.81 2.429.876 2.39.096 2.392-.166 2.388-.214 2.39.161 2.429-1.015 2.35.551 2.35-.55 2.391-1.37 2.39 1.124 2.39.756 2.39-1.28 2.43.14 2.39.163 2.391.606 2.388.316 2.39-.088 2.43-.7 2.311.384 2.31-.35" style="fill:none;stroke:#2ca02c;stroke-linecap:square;stroke-width:1.5" id="line2d_22"/><path clip-path="url(#p01ab81d581)" d="m230.084 313.628 2.39-.035 2.43.035h7.17l2.39-.07 2.428.053 2.351-.039 2.35-.066 2.39-.004 2.39-.084 2.39-.007 2.39.042 2.43-.227 2.39.095 2.391-.078 2.389.06 2.39-.462 2.429-.438 2.311.043 2.31-.06 2.392-.114 2.39-.411 2.39-.059 2.39-.274 2.429-.315 2.39.3 2.391-.3 2.389-.297 2.39-.385 2.429-.087 2.311.2 2.31-.235 2.392.037 2.39-.527 2.39.183 2.39-.708 2.429.175 2.39-.244 2.391-.229 2.389-.042 2.39 1.18 2.429-1.015 2.311-.53 2.31-.45 2.392.254 2.39-.832 2.39.543 2.39-1.103 2.429.245 2.39.225 2.392-1.292 2.388-.39 2.39 1.177 2.429-.665 2.35-1.228 2.35.546 2.391-4.314 2.39.307 2.39 1.628 2.39-.666 2.43 1.225 2.39.58 2.391-.142 2.388.033 2.39.509 2.43-.332 2.311-.644 2.31-.529" style="fill:none;stroke:#ff7f0e;stroke-linecap:square;stroke-width:1.5" id="line2d_23"/><path clip-path="url(#p01ab81d581)" d="m37.556 310.475 1.843-1.379 2.388-.241 2.39.171 2.43-2.1 2.311-3.1 2.31-.224 2.392-2.685 2.39-3.947 2.39-4.425 2.39-3.257 2.429-4.112 2.39-1.292 4.78-3.472 2.39-.206 2.428-7.63 2.312-4.378 2.31-5.788 2.392 1.114 2.39 1.266 2.39-7.053 2.39-5.983 2.429-4.795 2.39.002 2.391.348 2.388-7.58 2.39-.767 2.43-12.091 4.621-23.973 2.392-2.425 2.39-3.227 2.39-4.223 2.39-7.764 2.429-8.539 2.39 6.575 2.391 3.662 2.389-10.316 2.39 5.889 2.429-14.42 2.35-22.773 2.35 4.575 2.391-.014 2.39-8.315 2.39-.545 2.39-6.717 2.43-3.797 2.39 14.745 2.39-12.593 2.389-3.898 2.39 20.137 2.43-30.517 2.31-16.753 2.31-5.978 2.392-3.703 2.39 13.065 2.39-1.818 2.39-15.103 2.43-.63 2.39-10.414 2.39-6.77 2.39 16.77 2.389 13.783 2.43-30.518L192 47.516l2.31 12.297 2.392 5.788 2.39 30.801 2.39 11.745 2.39-7.86 2.43 15.73 2.39-.872 2.39 7.557 2.39 4.774 2.39 21.526 2.428-10.761 2.312-20.632 2.31-1.469 2.391-4.196 2.39 1.607 2.39-9.11 2.39 3.598 2.43 12.178 2.39 1.256 2.39 5.114 4.78 18.146 2.428-9.782 2.351-14.567 2.35 10.14 2.39 1.003 2.39 7.816 2.39 8.729 2.39.913 2.43-1.522 2.39 11.186 2.391 9.742 2.389-6.216 2.39 8.63 2.429-5.056 2.311-14.992 2.31-1.685 2.392 17.533 2.39-2.081 2.39 2.19 2.39 8.816 2.429 1.103 2.39 14.112 2.391 3.281 2.389-1.455 2.39 21.928 2.429-7.174 2.311 5.116 2.31 3.476 2.392 7.013 4.78 9.06 2.39-3.352 2.429-7.7 2.39 10.78 2.391-1.33 2.389 4.856 2.39 13.272 2.429-7.349 2.311-3.56 2.31.445 2.392.682 2.39 6.615 2.39 4.885 2.39-5.357 2.429 10.761 2.39-1.806 2.392-.066 2.388-.314 2.39 7.54 2.429-5.196 2.35-4.475 2.35-.915 2.391-20.478 2.39 6.742 2.39 3.402 2.39 2.775 2.43 11.479 2.39 1.44 4.78 5.714 2.39 6.407 2.428-7.227 2.312.718 2.31.245h0" style="fill:none;stroke:#1f77b4;stroke-linecap:square;stroke-width:1.5" id="line2d_24"/></g></g><defs><clipPath id="p01ab81d581"><path d="M37.556 47.516h357.12v266.112H37.556z"/></clipPath></defs></svg>