<svg height="503.131" viewBox="0 0 515.89 377.348" width="687.853" xmlns="http://www.w3.org/2000/svg" xmlns:xlink="http://www.w3.org/1999/xlink"><defs><style>*{stroke-linecap:butt;stroke-linejoin:round}</style></defs><g id="figure_1"><path d="M0 377.348h515.89V0H0z" style="fill:none" id="patch_1"/><g id="axes_1"><path d="M28.563 323.405h357.12V57.293H28.563z" style="fill:none" id="patch_2"/><g id="matplotlib.axis_1"><g id="xtick_1"><g id="line2d_1"><defs><path d="M0 0v3.5" id="m6c82b5fc49" style="stroke:#969696;stroke-width:.4"/></defs><use style="fill:#969696;stroke:#969696;stroke-width:.4" x="50.984" xlink:href="#m6c82b5fc49" y="323.405"/></g><g style="fill:#969696" transform="matrix(.14 0 0 -.14 36.62 340.345)" id="text_1"><defs><path d="M2944 0v467H1075v13l333 307c877 845 1434 1466 1434 2234 0 595-378 1209-1274 1209-480 0-890-179-1178-422l180-397c192 160 505 352 883 352 621 0 825-390 825-813-6-627-486-1164-1548-2176L288 346V0h2656z" id="MyriadPro-Regular-32" transform="scale(.01563)"/><path d="M1677 4230c-845 0-1447-768-1447-2163C243 691 794-70 1606-70c922 0 1447 780 1447 2195 0 1325-499 2105-1376 2105zm-32-435c582 0 845-672 845-1696 0-1062-276-1734-852-1734-512 0-844 614-844 1696 0 1133 358 1734 851 1734z" id="MyriadPro-Regular-30" transform="scale(.01563)"/><path d="M1510 0h544v4160h-480l-908-486 108-429 724 390h12V0z" id="MyriadPro-Regular-31" transform="scale(.01563)"/></defs><use xlink:href="#MyriadPro-Regular-32"/><use x="51.3" xlink:href="#MyriadPro-Regular-30"/><use x="102.6" xlink:href="#MyriadPro-Regular-31"/><use x="153.9" xlink:href="#MyriadPro-Regular-30"/></g></g><g id="xtick_2"><use style="fill:#969696;stroke:#969696;stroke-width:.4" x="107.32" xlink:href="#m6c82b5fc49" y="323.405" id="line2d_2"/><g style="fill:#969696" transform="matrix(.14 0 0 -.14 92.957 340.345)" id="text_2"><use xlink:href="#MyriadPro-Regular-32"/><use x="51.3" xlink:href="#MyriadPro-Regular-30"/><use x="102.6" xlink:href="#MyriadPro-Regular-31"/><use x="153.9" xlink:href="#MyriadPro-Regular-32"/></g></g><g id="xtick_3"><use style="fill:#969696;stroke:#969696;stroke-width:.4" x="163.733" xlink:href="#m6c82b5fc49" y="323.405" id="line2d_3"/><g style="fill:#969696" transform="matrix(.14 0 0 -.14 149.37 340.345)" id="text_3"><defs><path d="M2560 0v1133h582v441h-582v2586h-608L96 1504v-371h1933V0h531zM666 1574v13l1017 1415c115 192 218 371 346 614h19c-13-218-19-435-19-653V1574H666z" id="MyriadPro-Regular-34" transform="scale(.01563)"/></defs><use xlink:href="#MyriadPro-Regular-32"/><use x="51.3" xlink:href="#MyriadPro-Regular-30"/><use x="102.6" xlink:href="#MyriadPro-Regular-31"/><use x="153.9" xlink:href="#MyriadPro-Regular-34"/></g></g><g id="xtick_4"><use style="fill:#969696;stroke:#969696;stroke-width:.4" x="220.07" xlink:href="#m6c82b5fc49" y="323.405" id="line2d_4"/><g style="fill:#969696" transform="matrix(.14 0 0 -.14 205.707 340.345)" id="text_4"><defs><path d="M2662 4224c-102 0-243-6-409-32-525-64-986-275-1331-614-410-410-704-1056-704-1876C218 621 800-70 1690-70c864 0 1382 704 1382 1465 0 813-518 1344-1254 1344-461 0-807-217-1005-480h-19c96 685 563 1331 1446 1479 160 25 307 32 422 25v461zM1690 365c-589 0-903 505-916 1190 0 103 26 186 64 250 154 301 468 512 807 512 518 0 857-359 857-954s-326-998-806-998h-6z" id="MyriadPro-Regular-36" transform="scale(.01563)"/></defs><use xlink:href="#MyriadPro-Regular-32"/><use x="51.3" xlink:href="#MyriadPro-Regular-30"/><use x="102.6" xlink:href="#MyriadPro-Regular-31"/><use x="153.9" xlink:href="#MyriadPro-Regular-36"/></g></g><g id="xtick_5"><use style="fill:#969696;stroke:#969696;stroke-width:.4" x="276.483" xlink:href="#m6c82b5fc49" y="323.405" id="line2d_5"/><g style="fill:#969696" transform="matrix(.14 0 0 -.14 262.12 340.345)" id="text_5"><defs><path d="M1062 2170c-512-218-825-589-825-1114C237 448 762-70 1632-70c794 0 1414 486 1414 1209 0 506-320 871-838 1075v20c512 243 685 620 685 972 0 519-403 1024-1210 1024-729 0-1286-448-1286-1107 0-358 198-717 659-934l6-19zm583-1831c-531 0-851 371-832 794 0 397 262 717 749 857 563-160 915-403 915-908 0-423-327-743-832-743zm6 3488c506 0 704-345 704-678 0-378-275-634-633-755-480 128-794 352-794 768 0 358 256 665 723 665z" id="MyriadPro-Regular-38" transform="scale(.01563)"/></defs><use xlink:href="#MyriadPro-Regular-32"/><use x="51.3" xlink:href="#MyriadPro-Regular-30"/><use x="102.6" xlink:href="#MyriadPro-Regular-31"/><use x="153.9" xlink:href="#MyriadPro-Regular-38"/></g></g><g id="xtick_6"><use style="fill:#969696;stroke:#969696;stroke-width:.4" x="332.82" xlink:href="#m6c82b5fc49" y="323.405" id="line2d_6"/><g style="fill:#969696" transform="matrix(.14 0 0 -.14 318.456 340.345)" id="text_6"><use xlink:href="#MyriadPro-Regular-32"/><use x="51.3" xlink:href="#MyriadPro-Regular-30"/><use x="102.6" xlink:href="#MyriadPro-Regular-32"/><use x="153.9" xlink:href="#MyriadPro-Regular-30"/></g></g></g><g id="matplotlib.axis_2"><g id="ytick_1"><path clip-path="url(#pa616e8f719)" d="M28.563 323.405h357.12" style="fill:none;stroke:#969696;stroke-linecap:square;stroke-width:.3" id="line2d_7"/><g id="line2d_8"><defs><path d="M0 0h-3.5" id="m8294bbd5fe" style="stroke:#969696;stroke-width:.3"/></defs><use style="fill:#969696;stroke:#969696;stroke-width:.3" x="28.563" xlink:href="#m8294bbd5fe" y="323.405"/></g><use xlink:href="#MyriadPro-Regular-30" style="fill:#969696" transform="matrix(.14 0 0 -.14 14.382 328.375)" id="text_7"/></g><g id="ytick_2"><path clip-path="url(#pa616e8f719)" d="M28.563 282.158h357.12" style="fill:none;stroke:#969696;stroke-linecap:square;stroke-width:.3" id="line2d_9"/><use style="fill:#969696;stroke:#969696;stroke-width:.3" x="28.563" xlink:href="#m8294bbd5fe" y="282.158" id="line2d_10"/><g style="fill:#969696" transform="matrix(.14 0 0 -.14 7.2 287.128)" id="text_8"><use xlink:href="#MyriadPro-Regular-31"/><use x="51.3" xlink:href="#MyriadPro-Regular-30"/></g></g><g id="ytick_3"><path clip-path="url(#pa616e8f719)" d="M28.563 240.91h357.12" style="fill:none;stroke:#969696;stroke-linecap:square;stroke-width:.3" id="line2d_11"/><use style="fill:#969696;stroke:#969696;stroke-width:.3" x="28.563" xlink:href="#m8294bbd5fe" y="240.91" id="line2d_12"/><g style="fill:#969696" transform="matrix(.14 0 0 -.14 7.2 245.88)" id="text_9"><use xlink:href="#MyriadPro-Regular-32"/><use x="51.3" xlink:href="#MyriadPro-Regular-30"/></g></g><g id="ytick_4"><path clip-path="url(#pa616e8f719)" d="M28.563 199.663h357.12" style="fill:none;stroke:#969696;stroke-linecap:square;stroke-width:.3" id="line2d_13"/><use style="fill:#969696;stroke:#969696;stroke-width:.3" x="28.563" xlink:href="#m8294bbd5fe" y="199.663" id="line2d_14"/><g style="fill:#969696" transform="matrix(.14 0 0 -.14 7.2 204.633)" id="text_10"><defs><path d="M269 211C474 77 883-70 1350-70c999 0 1517 582 1517 1248 0 582-416 966-928 1068v13c512 186 768 551 768 979 0 506-371 992-1190 992-448 0-871-160-1088-320l147-409c179 128 499 275 832 275 518 0 730-294 730-627 0-493-519-704-928-704H896v-423h314c544 0 1068-249 1075-832 6-345-218-806-941-806-390 0-762 160-922 262L269 211z" id="MyriadPro-Regular-33" transform="scale(.01563)"/></defs><use xlink:href="#MyriadPro-Regular-33"/><use x="51.3" xlink:href="#MyriadPro-Regular-30"/></g></g><g id="ytick_5"><path clip-path="url(#pa616e8f719)" d="M28.563 158.416h357.12" style="fill:none;stroke:#969696;stroke-linecap:square;stroke-width:.3" id="line2d_15"/><use style="fill:#969696;stroke:#969696;stroke-width:.3" x="28.563" xlink:href="#m8294bbd5fe" y="158.416" id="line2d_16"/><g style="fill:#969696" transform="matrix(.14 0 0 -.14 7.2 163.386)" id="text_11"><use xlink:href="#MyriadPro-Regular-34"/><use x="51.3" xlink:href="#MyriadPro-Regular-30"/></g></g><g id="ytick_6"><path clip-path="url(#pa616e8f719)" d="M28.563 117.168h357.12" style="fill:none;stroke:#969696;stroke-linecap:square;stroke-width:.3" id="line2d_17"/><use style="fill:#969696;stroke:#969696;stroke-width:.3" x="28.563" xlink:href="#m8294bbd5fe" y="117.168" id="line2d_18"/><g style="fill:#969696" transform="matrix(.14 0 0 -.14 7.2 122.138)" id="text_12"><defs><path d="M2771 4160H781L512 2163c154 19 339 45 576 45 832 0 1190-384 1197-922 0-556-455-902-986-902-377 0-717 128-889 230L269 186C467 58 851-70 1306-70c902 0 1548 608 1548 1420 0 525-268 884-595 1069-256 154-576 224-896 224-153 0-243-13-339-25l160 1068h1587v474z" id="MyriadPro-Regular-35" transform="scale(.01563)"/></defs><use xlink:href="#MyriadPro-Regular-35"/><use x="51.3" xlink:href="#MyriadPro-Regular-30"/></g></g><g id="ytick_7"><path clip-path="url(#pa616e8f719)" d="M28.563 75.921h357.12" style="fill:none;stroke:#969696;stroke-linecap:square;stroke-width:.3" id="line2d_19"/><use style="fill:#969696;stroke:#969696;stroke-width:.3" x="28.563" xlink:href="#m8294bbd5fe" y="75.921" id="line2d_20"/><g style="fill:#969696" transform="matrix(.14 0 0 -.14 7.2 80.891)" id="text_13"><use xlink:href="#MyriadPro-Regular-36"/><use x="51.3" xlink:href="#MyriadPro-Regular-30"/></g></g></g><path clip-path="url(#pa616e8f719)" d="m153.122 323.405 2.354-.275 2.355-.124 2.352-.15 2.354-.648 2.393.266 2.276.49 2.275-1.022 2.356.088 2.353.843 2.354-.155 2.354-.377 2.392-.932 2.354 1.171 2.355-.905 2.353.493 2.353-3.154 2.393 2.13 2.276-1.422 2.275.756 2.356-1.198h2.353l2.354-1.512 2.354.581 2.392-1.597 2.354 1.703 2.356.426 2.352.812 2.354.253 2.392-3.06 2.315 1.399 2.314.064 2.355 1.206 2.354-2.004 2.354 1.042 2.353-1.042 2.393 2.395 2.354-2.178 2.355-.483 2.352.895 2.354 1.1 2.392-2.528 2.277-.418 2.275 2.148 2.355.66 2.354-1.06 2.354-1.551 2.354-1.11 2.392.666 2.354 1.543 2.355-1.676 2.352 2.501 2.354-1.304h2.392l2.277-1.995 2.275 1.73 2.355 2.12 2.354-.258 2.354.395 2.354.004 2.392-1.33 2.354.226 2.355 3.1 2.352-1.175 2.354.643 2.393-.532 2.276.085 2.275-2.746 2.356-.337 2.353 2.732 2.354-.533 2.354.533 2.392-.799 2.354 1.229 2.355.767 2.353-1.042 2.353.643 2.393-1.33 2.315 2.417 2.314-.82 2.355-.773 2.354.107 2.353-.382 2.354 1.047 2.393-1.064 2.353-.945 2.356 2.142 2.352.883 2.354-.35 2.392-.267 2.277-.375 2.275.907 2.355-.465 2.354-.067 2.354.48 2.353-1.411 2.393 1.463 2.354-1.015 2.355 1.415" style="fill:none;stroke:#bcbd22;stroke-linecap:square;stroke-width:1.5" id="line2d_21"/><path clip-path="url(#pa616e8f719)" d="m70.894 323.405 2.356-.133 2.352.133h14.007l2.353-.137 2.354.137h84.582l2.392-.133 2.354.133h4.708l4.746-.266 2.276-.912 2.275-.152 2.356-1.832 2.353-1.362 2.354.537 4.746-1.069 2.354-.856 2.356 2.054 2.352-2.466 2.354-.063 2.392.533 2.315-1.115 2.314-1.946 2.355 1.766 2.354-.967 2.354.417 2.353-2.28 2.393.532 2.354 1.06 2.355-.128 2.352.678 2.354-1.078 2.392 1.33 2.277.072 2.275-1.934 2.355.373 2.354.026 2.354-.439 2.354-1.557 2.392 1.065 2.354 1.317 2.355 2.142 2.352-1.18 2.354-1.348 2.392.4 2.277-1.516 2.275 2.048 2.355-.133 2.354-1.73 2.354 3.38 2.354-4.045 2.392 3.193 2.354 1.402 2.355-1.402 2.352 3.051 2.354-2.652 2.393 1.198 2.276.993 2.275-.195 2.356-.031 2.353 1.76 2.354-1.898 2.354.701 2.392 1.996 2.354-1.597 4.708.963 2.353-.164 2.393-1.33 2.315.531 2.314-2.129 2.355-.483 2.354-.847 2.353 1.122 2.354 2.071h2.393l2.353-.284 2.356.683 2.352 1.517 2.354-1.517 2.392.799 2.277-.49 2.275.357 2.355 1.401 2.354-1.401 2.354 1.814 4.746-.883 2.354-.355 2.355 1.42 2.352-.87h0" style="fill:none;stroke:#7f7f7f;stroke-linecap:square;stroke-width:1.5" id="line2d_22"/><path clip-path="url(#pa616e8f719)" d="m237.704 323.405 2.354-.137 2.355.004 2.352.133 2.354-.133 2.392-.4 2.277-.645 2.275.646 2.355-.293 2.354-.505 2.354.643 2.354-1.043 2.392-.798 2.354.878 2.355-.213 2.352.213 2.354-.346 2.392.932 2.277-.262 2.275-.137 2.355.226 2.354-.626 2.354-1.024 2.354.226 2.392.532 2.354-.07 2.355-.861 2.352.173 2.354.891 2.393-.665 2.276.01 2.275-.143 2.356 1.007 2.353-.342 2.354.48 2.354.585 2.392-.799 2.354.35 2.355-.483 2.353.759 2.353-.093 2.393.399 2.315-1.06 2.314-.936 2.355-.098 2.354.098 2.353.177 2.354.887 2.393-.532 2.353.195 2.356.47 2.352-1.57 2.354 1.703 2.392-.665 2.277.642 2.275-.376 2.355.209 2.354-.342 2.354.48 2.353-.879 2.393-.133 2.354.324 2.355.874 2.352-1.15" style="fill:none;stroke:#e377c2;stroke-linecap:square;stroke-width:1.5" id="line2d_23"/><g style="fill:#1f77b4" transform="matrix(.14 0 0 -.14 396.397 255.376)" id="text_14"><defs><path d="M467 800c0-275-13-589-25-800h486l26 512h19c230-410 589-582 1037-582 691 0 1388 550 1388 1657 7 941-537 1581-1305 1581-499 0-858-224-1056-570h-13v1946H467V800zm557 998c0 90 19 167 32 231 115 429 474 691 858 691 601 0 921-531 921-1152 0-710-352-1190-941-1190-409 0-736 268-844 659-13 64-26 134-26 205v556z" id="MyriadPro-Regular-62" transform="scale(.01563)"/><path d="M1779 3168c-857 0-1536-608-1536-1645C243 544 890-70 1728-70c749 0 1542 499 1542 1644 0 948-601 1594-1491 1594zm-13-422c666 0 928-666 928-1191 0-697-403-1203-940-1203-551 0-941 512-941 1190 0 589 288 1204 953 1204z" id="MyriadPro-Regular-6f" transform="scale(.01563)"/><path d="M595 3667v-569H115v-429h480V979c0-365 58-640 218-806C947 19 1158-70 1421-70c217 0 390 38 499 83l-26 422c-83-25-172-38-326-38-314 0-422 217-422 601v1671h806v429h-806v742l-551-173z" id="MyriadPro-Regular-74" transform="scale(.01563)"/><path d="M250 147C467 19 781-70 1120-70c736 0 1158 390 1158 934 0 461-275 730-812 934-404 154-589 269-589 525 0 231 185 423 518 423 288 0 512-103 634-180l141 410c-173 102-448 192-762 192-666 0-1069-410-1069-909 0-371 263-678 819-877 416-153 576-300 576-569 0-256-192-461-601-461-282 0-576 115-743 224L250 147z" id="MyriadPro-Regular-73" transform="scale(.01563)"/><path d="M467 0h557v1651c0 96 13 186 26 263 76 422 358 723 755 723 77 0 134-7 192-19v531c-51 13-96 19-160 19-378 0-717-262-858-678h-25l-20 608H442c19-288 25-602 25-967V0z" id="MyriadPro-Regular-72" transform="scale(.01563)"/><path d="M2643 1901c0 621-230 1267-1177 1267-391 0-762-109-1018-275l128-371c218 140 518 230 806 230 634 0 704-461 704-717v-64C890 1978 224 1568 224 819c0-448 320-889 947-889 442 0 775 217 947 460h20l44-390h512c-38 211-51 474-51 742v1159zm-544-858c0-57-13-121-32-179-89-262-345-518-749-518-288 0-531 172-531 537 0 602 698 711 1312 698v-538z" id="MyriadPro-Regular-61" transform="scale(.01563)"/><path d="M467-1267h557V416h13c185-307 544-486 953-486 730 0 1408 550 1408 1664 0 940-563 1574-1312 1574-505 0-870-224-1100-602h-13l-26 532H442c12-295 25-615 25-1012v-3353zm557 3059c0 77 19 160 38 230 109 423 468 698 852 698 595 0 921-531 921-1152 0-710-345-1197-941-1197-403 0-742 269-844 659-13 71-26 148-26 231v531z" id="MyriadPro-Regular-70" transform="scale(.01563)"/><path d="M192 1939v-416h1581v416H192z" id="MyriadPro-Regular-2d" transform="scale(.01563)"/></defs><use xlink:href="#MyriadPro-Regular-62"/><use x="56.9" xlink:href="#MyriadPro-Regular-6f"/><use x="111.8" xlink:href="#MyriadPro-Regular-6f"/><use x="166.7" xlink:href="#MyriadPro-Regular-74"/><use x="199.8" xlink:href="#MyriadPro-Regular-73"/><use x="239.4" xlink:href="#MyriadPro-Regular-74"/><use x="272.5" xlink:href="#MyriadPro-Regular-72"/><use x="305.2" xlink:href="#MyriadPro-Regular-61"/><use x="353.4" xlink:href="#MyriadPro-Regular-70"/><use x="410.3" xlink:href="#MyriadPro-Regular-2d"/><use x="441" xlink:href="#MyriadPro-Regular-34"/></g><g style="fill:#ff7f0e" transform="matrix(.14 0 0 -.14 396.397 269.376)" id="text_15"><defs><path d="M1030 0v3098H467V0h563zM749 4320c-205 0-352-154-352-352 0-192 141-346 339-346 224 0 365 154 358 346 0 198-134 352-345 352z" id="MyriadPro-Regular-69" transform="scale(.01563)"/><path d="M467 0h563v4544H467V0z" id="MyriadPro-Regular-6c" transform="scale(.01563)"/><path d="M115 3098 1050 0h512l499 1472c109 333 205 653 281 1024h13c77-365 167-672 275-1018L3104 0h512l998 3098h-556l-442-1556c-102-364-186-691-237-1004h-19c-70 313-160 640-275 1011l-480 1549h-474l-505-1575c-103-339-205-672-276-985h-19c-57 320-141 640-230 985L691 3098H115z" id="MyriadPro-Regular-77" transform="scale(.01563)"/><path d="M467 0h563v1862c0 96 13 192 39 263 96 313 384 576 755 576 531 0 717-416 717-915V0h563v1850c0 1062-666 1318-1094 1318-512 0-871-288-1024-582h-13l-32 512H442c19-256 25-519 25-839V0z" id="MyriadPro-Regular-6e" transform="scale(.01563)"/><path d="M2579 4544V2694h-13c-140 250-460 474-934 474-755 0-1395-634-1389-1664C243 563 819-70 1568-70c506 0 883 262 1056 608h13l25-538h506c-19 211-26 525-26 800v3744h-563zm0-3245c0-89-6-166-25-243-103-422-448-672-826-672-608 0-915 518-915 1146 0 684 345 1196 928 1196 422 0 729-294 813-652 19-71 25-167 25-237v-538z" id="MyriadPro-Regular-64" transform="scale(.01563)"/><path d="M2579 538c-160-71-371-154-691-154-614 0-1075 442-1075 1158 0 647 384 1172 1094 1172 307 0 519-71 653-148l128 436c-154 76-448 160-781 160-1011 0-1664-692-1664-1645C243 570 851-70 1786-70c416 0 742 108 889 185l-96 423z" id="MyriadPro-Regular-63" transform="scale(.01563)"/></defs><use xlink:href="#MyriadPro-Regular-74"/><use x="33.1" xlink:href="#MyriadPro-Regular-61"/><use x="81.3" xlink:href="#MyriadPro-Regular-69"/><use x="104.7" xlink:href="#MyriadPro-Regular-6c"/><use x="128.3" xlink:href="#MyriadPro-Regular-77"/><use x="201.9" xlink:href="#MyriadPro-Regular-69"/><use x="225.3" xlink:href="#MyriadPro-Regular-6e"/><use x="280.8" xlink:href="#MyriadPro-Regular-64"/><use x="337.2" xlink:href="#MyriadPro-Regular-2d"/><use x="367.9" xlink:href="#MyriadPro-Regular-63"/><use x="412.7" xlink:href="#MyriadPro-Regular-73"/><use x="452.3" xlink:href="#MyriadPro-Regular-73"/></g><g style="fill:#2ca02c" transform="matrix(.14 0 0 -.14 396.397 297.376)" id="text_16"><defs><path d="M2957 1446c6 58 19 148 19 263 0 569-269 1459-1280 1459-902 0-1453-736-1453-1670C243 563 813-70 1766-70c493 0 832 108 1031 198l-96 403c-211-89-455-160-858-160-563 0-1049 314-1062 1075h2176zM787 1850c45 390 295 915 864 915 634 0 787-557 781-915H787z" id="MyriadPro-Regular-65" transform="scale(.01563)"/></defs><use xlink:href="#MyriadPro-Regular-74"/><use x="33.1" xlink:href="#MyriadPro-Regular-77"/><use x="106.7" xlink:href="#MyriadPro-Regular-69"/><use x="130.1" xlink:href="#MyriadPro-Regular-74"/><use x="163.2" xlink:href="#MyriadPro-Regular-74"/><use x="196.3" xlink:href="#MyriadPro-Regular-65"/><use x="246.4" xlink:href="#MyriadPro-Regular-72"/><use x="279.1" xlink:href="#MyriadPro-Regular-2d"/><use x="309.8" xlink:href="#MyriadPro-Regular-62"/><use x="366.7" xlink:href="#MyriadPro-Regular-6f"/><use x="421.6" xlink:href="#MyriadPro-Regular-6f"/><use x="476.5" xlink:href="#MyriadPro-Regular-74"/><use x="509.6" xlink:href="#MyriadPro-Regular-73"/><use x="549.2" xlink:href="#MyriadPro-Regular-74"/><use x="582.3" xlink:href="#MyriadPro-Regular-72"/><use x="615" xlink:href="#MyriadPro-Regular-61"/><use x="663.2" xlink:href="#MyriadPro-Regular-70"/></g><g style="fill:#d62728" transform="matrix(.14 0 0 -.14 396.397 283.376)" id="text_17"><use xlink:href="#MyriadPro-Regular-62"/><use x="56.9" xlink:href="#MyriadPro-Regular-6f"/><use x="111.8" xlink:href="#MyriadPro-Regular-6f"/><use x="166.7" xlink:href="#MyriadPro-Regular-74"/><use x="199.8" xlink:href="#MyriadPro-Regular-73"/><use x="239.4" xlink:href="#MyriadPro-Regular-74"/><use x="272.5" xlink:href="#MyriadPro-Regular-72"/><use x="305.2" xlink:href="#MyriadPro-Regular-61"/><use x="353.4" xlink:href="#MyriadPro-Regular-70"/><use x="410.3" xlink:href="#MyriadPro-Regular-2d"/><use x="441" xlink:href="#MyriadPro-Regular-35"/></g><g style="fill:#9467bd" transform="matrix(.14 0 0 -.14 396.397 311.376)" id="text_18"><use xlink:href="#MyriadPro-Regular-72"/><use x="32.7" xlink:href="#MyriadPro-Regular-65"/><use x="82.8" xlink:href="#MyriadPro-Regular-61"/><use x="131" xlink:href="#MyriadPro-Regular-63"/><use x="175.8" xlink:href="#MyriadPro-Regular-74"/><use x="208.9" xlink:href="#MyriadPro-Regular-2d"/><use x="239.6" xlink:href="#MyriadPro-Regular-62"/><use x="296.5" xlink:href="#MyriadPro-Regular-6f"/><use x="351.4" xlink:href="#MyriadPro-Regular-6f"/><use x="406.3" xlink:href="#MyriadPro-Regular-74"/><use x="439.4" xlink:href="#MyriadPro-Regular-73"/><use x="479" xlink:href="#MyriadPro-Regular-74"/><use x="512.1" xlink:href="#MyriadPro-Regular-72"/><use x="544.8" xlink:href="#MyriadPro-Regular-61"/><use x="593" xlink:href="#MyriadPro-Regular-70"/></g><g style="fill:#8c564b" transform="matrix(.14 0 0 -.14 396.397 339.376)" id="text_19"><use xlink:href="#MyriadPro-Regular-74"/><use x="33.1" xlink:href="#MyriadPro-Regular-77"/><use x="106.7" xlink:href="#MyriadPro-Regular-69"/><use x="130.1" xlink:href="#MyriadPro-Regular-74"/><use x="163.2" xlink:href="#MyriadPro-Regular-74"/><use x="196.3" xlink:href="#MyriadPro-Regular-65"/><use x="246.4" xlink:href="#MyriadPro-Regular-72"/><use x="279.1" xlink:href="#MyriadPro-Regular-2d"/><use x="309.8" xlink:href="#MyriadPro-Regular-62"/><use x="366.7" xlink:href="#MyriadPro-Regular-6f"/><use x="421.6" xlink:href="#MyriadPro-Regular-6f"/><use x="476.5" xlink:href="#MyriadPro-Regular-74"/><use x="509.6" xlink:href="#MyriadPro-Regular-73"/><use x="549.2" xlink:href="#MyriadPro-Regular-74"/><use x="582.3" xlink:href="#MyriadPro-Regular-72"/><use x="615" xlink:href="#MyriadPro-Regular-61"/><use x="663.2" xlink:href="#MyriadPro-Regular-70"/><use x="720.1" xlink:href="#MyriadPro-Regular-2d"/><use x="750.8" xlink:href="#MyriadPro-Regular-33"/></g><g style="fill:#e377c2" transform="matrix(.14 0 0 -.14 396.397 325.376)" id="text_20"><defs><path d="M3059 3098h-563V1197c0-103-19-205-51-288-103-250-365-512-743-512-512 0-691 397-691 985v1716H448V1286C448 198 1030-70 1517-70c550 0 877 326 1024 576h13l32-506h499c-19 243-26 525-26 845v2253z" id="MyriadPro-Regular-75" transform="scale(.01563)"/><path d="M467 0h551v1869c0 96 12 192 44 275 90 282 346 563 698 563 429 0 646-358 646-851V0h551v1914c0 102 19 204 45 281 96 275 345 512 665 512 455 0 672-358 672-953V0h551v1824c0 1075-608 1344-1018 1344-294 0-499-77-685-218-128-96-249-230-345-403h-13c-135 365-455 621-877 621-512 0-800-275-973-570h-19l-26 500H442c19-256 25-519 25-839V0z" id="MyriadPro-Regular-6d" transform="scale(.01563)"/></defs><use xlink:href="#MyriadPro-Regular-62"/><use x="56.9" xlink:href="#MyriadPro-Regular-75"/><use x="112" xlink:href="#MyriadPro-Regular-6c"/><use x="135.6" xlink:href="#MyriadPro-Regular-6d"/><use x="219" xlink:href="#MyriadPro-Regular-61"/></g><g style="fill:#7f7f7f" transform="matrix(.14 0 0 -.14 396.397 353.376)" id="text_21"><defs><path d="M115 0h2515v448H819v13c141 160 269 313 397 486l1382 1799 7 352H243v-455h1677v-13c-141-166-269-313-403-480L115 326V0z" id="MyriadPro-Regular-7a" transform="scale(.01563)"/></defs><use xlink:href="#MyriadPro-Regular-6d"/><use x="83.4" xlink:href="#MyriadPro-Regular-61"/><use x="131.6" xlink:href="#MyriadPro-Regular-74"/><use x="164.7" xlink:href="#MyriadPro-Regular-65"/><use x="214.8" xlink:href="#MyriadPro-Regular-72"/><use x="247.5" xlink:href="#MyriadPro-Regular-69"/><use x="270.9" xlink:href="#MyriadPro-Regular-61"/><use x="319.1" xlink:href="#MyriadPro-Regular-6c"/><use x="342.7" xlink:href="#MyriadPro-Regular-69"/><use x="366.1" xlink:href="#MyriadPro-Regular-7a"/><use x="408.9" xlink:href="#MyriadPro-Regular-65"/></g><g style="fill:#bcbd22" transform="matrix(.14 0 0 -.14 396.397 367.376)" id="text_22"><use xlink:href="#MyriadPro-Regular-73"/><use x="39.6" xlink:href="#MyriadPro-Regular-65"/><use x="89.7" xlink:href="#MyriadPro-Regular-6d"/><use x="173.1" xlink:href="#MyriadPro-Regular-61"/><use x="221.3" xlink:href="#MyriadPro-Regular-6e"/><use x="276.8" xlink:href="#MyriadPro-Regular-74"/><use x="309.9" xlink:href="#MyriadPro-Regular-69"/><use x="333.3" xlink:href="#MyriadPro-Regular-63"/><use x="378.1" xlink:href="#MyriadPro-Regular-2d"/><use x="408.8" xlink:href="#MyriadPro-Regular-75"/><use x="463.9" xlink:href="#MyriadPro-Regular-69"/></g><g style="fill:#969696" transform="matrix(.09716 0 0 -.09716 28.563 357.303)" id="text_23"><defs><path d="M269 211C499 58 954-70 1370-70c1017 0 1510 582 1510 1248 0 633-371 985-1101 1267-595 230-857 429-857 832 0 294 224 646 812 646 391 0 679-128 820-205l153 455c-192 109-512 211-953 211-839 0-1396-499-1396-1171 0-608 436-973 1140-1223 582-224 812-454 812-857 0-435-332-736-902-736-384 0-749 128-998 281L269 211z" id="MyriadPro-Regular-53" transform="scale(.01563)"/><path d="M1024 4544H467V0h557v1165l288 320L2381 0h685L1702 1824l1197 1274h-678l-909-1069c-90-109-198-243-275-352h-13v2867z" id="MyriadPro-Regular-6b" transform="scale(.01563)"/><path d="M2234 4384c-1152 0-2004-896-2004-2266C230 813 1030-70 2170-70c1100 0 2003 787 2003 2272 0 1280-762 2182-1939 2182zm-26-454c928 0 1376-896 1376-1754 0-979-499-1792-1382-1792-877 0-1376 826-1376 1747 0 947 460 1799 1382 1799z" id="MyriadPro-Regular-4f" transform="scale(.01563)"/><path d="M83 3098 1261 0h537l1216 3098h-588l-602-1741c-102-282-192-538-262-794h-20c-64 256-147 512-249 794L685 3098H83z" id="MyriadPro-Regular-76" transform="scale(.01563)"/><path d="M1082 0v2669h748v429h-748v166c0 474 121 896 601 896 160 0 275-32 359-70l76 435c-108 45-281 89-480 89-262 0-544-83-755-288-262-249-358-646-358-1081v-147H90v-429h435V0h557z" id="MyriadPro-Regular-66" transform="scale(.01563)"/><path d="M2714 1357 3174 0h596L2298 4314h-672L160 0h576l448 1357h1530zm-1415 435 423 1248c83 262 153 525 217 781h13c64-250 128-506 224-787l422-1242H1299z" id="MyriadPro-Regular-41" transform="scale(.01563)"/><path d="M486 0h557v1728c128-32 282-38 448-38 544 0 1024 160 1319 473 217 224 332 531 332 922 0 384-140 697-377 902-256 231-659 359-1210 359-448 0-800-39-1069-84V0zm557 3859c96 26 282 45 525 45 614 0 1018-275 1018-845 0-595-410-921-1082-921-186 0-339 12-461 44v1677z" id="MyriadPro-Regular-50" transform="scale(.01563)"/><path d="M486 4314V0h557v4314H486z" id="MyriadPro-Regular-49" transform="scale(.01563)"/><path d="M3110 2246c0 378 13 628 26 852h-493l-25-468h-13c-135 256-429 538-967 538-710 0-1395-595-1395-1645C243 666 794 13 1562 13c480 0 812 230 985 518h13V186c0-781-422-1082-998-1082-384 0-704 115-909 243l-141-429c250-166 659-256 1030-256 391 0 826 90 1127 372 301 268 441 704 441 1414v1798zm-556-928c0-96-13-204-45-300-122-359-435-576-781-576-608 0-915 505-915 1113 0 717 384 1171 921 1171 410 0 685-268 788-595 25-77 32-160 32-256v-557z" id="MyriadPro-Regular-67" transform="scale(.01563)"/><path d="M550 4800v-6400h429v6400H550z" id="MyriadPro-Regular-7c" transform="scale(.01563)"/><path d="M1011 0v1843c0 717-13 1235-45 1779l20 7c217-467 505-960 806-1440L3162 0h563v4314h-525V2509c0-672 13-1197 64-1773l-13-6c-205 441-454 896-774 1401L1094 4314H486V0h525z" id="MyriadPro-Regular-4e" transform="scale(.01563)"/><path d="M467 0h563v1869c0 109 7 192 39 269 102 307 390 563 755 563 531 0 717-423 717-922V0h563v1843c0 1069-666 1325-1082 1325-211 0-409-64-576-160-172-96-313-237-403-397h-13v1933H467V0z" id="MyriadPro-Regular-68" transform="scale(.01563)"/><path d="M1165 3648c185 0 313 154 313 326 0 186-134 327-313 327s-327-147-327-327c0-172 135-326 320-326h7zm1184 0c185 0 313 154 313 326 0 186-134 327-313 327s-320-147-320-327c0-172 128-326 313-326h7zm-570-480c-857 0-1536-608-1536-1645C243 544 890-70 1728-70c749 0 1542 499 1542 1644 0 948-601 1594-1491 1594zm-13-422c666 0 928-666 928-1191 0-697-403-1203-940-1203-551 0-941 512-941 1190 0 589 288 1204 953 1204z" id="MyriadPro-Regular-f6" transform="scale(.01563)"/><path d="M3386 582c-224-108-570-179-909-179-1050 0-1658 679-1658 1735 0 1132 672 1779 1683 1779 359 0 660-77 871-179l134 454c-147 77-486 192-1024 192-1337 0-2253-915-2253-2266C230 704 1146-70 2362-70c524 0 934 108 1139 211l-115 441z" id="MyriadPro-Regular-43" transform="scale(.01563)"/><path d="M486 13c186-26 480-51 864-51 704 0 1191 128 1492 403 217 211 364 493 364 864 0 640-480 979-889 1081v13c454 167 729 531 729 947 0 340-134 596-358 762-269 218-627 314-1184 314-390 0-774-39-1018-90V13zm557 3865c90 20 237 39 493 39 563 0 947-199 947-704 0-416-345-723-934-723h-506v1388zm0-1811h461c608 0 1114-243 1114-832 0-627-532-838-1108-838-198 0-358 6-467 25v1645z" id="MyriadPro-Regular-42" transform="scale(.01563)"/><path d="M2010 0v1837l1446 2477h-634l-620-1191c-167-326-314-608-436-889h-12c-135 300-263 563-429 889L717 4314H83l1363-2484V0h564z" id="MyriadPro-Regular-59" transform="scale(.01563)"/></defs><use xlink:href="#MyriadPro-Regular-53"/><use x="49.3" xlink:href="#MyriadPro-Regular-74"/><use x="82.4" xlink:href="#MyriadPro-Regular-61"/><use x="130.6" xlink:href="#MyriadPro-Regular-63"/><use x="175.4" xlink:href="#MyriadPro-Regular-6b"/><use x="222.3" xlink:href="#MyriadPro-Regular-4f"/><use x="291.2" xlink:href="#MyriadPro-Regular-76"/><use x="339.3" xlink:href="#MyriadPro-Regular-65"/><use x="389.4" xlink:href="#MyriadPro-Regular-72"/><use x="422.1" xlink:href="#MyriadPro-Regular-66"/><use x="451.3" xlink:href="#MyriadPro-Regular-6c"/><use x="474.9" xlink:href="#MyriadPro-Regular-6f"/><use x="529.8" xlink:href="#MyriadPro-Regular-77"/><use x="603.4" xlink:href="#MyriadPro-Regular-20"/><use x="624.6" xlink:href="#MyriadPro-Regular-41"/><use x="685.8" xlink:href="#MyriadPro-Regular-50"/><use x="739" xlink:href="#MyriadPro-Regular-49"/><use x="762.9" xlink:href="#MyriadPro-Regular-20"/><use x="784.1" xlink:href="#MyriadPro-Regular-76"/><use x="832.2" xlink:href="#MyriadPro-Regular-69"/><use x="855.6" xlink:href="#MyriadPro-Regular-61"/><use x="903.8" xlink:href="#MyriadPro-Regular-20"/><use x="925" xlink:href="#MyriadPro-Regular-73"/><use x="964.6" xlink:href="#MyriadPro-Regular-74"/><use x="997.7" xlink:href="#MyriadPro-Regular-61"/><use x="1045.9" xlink:href="#MyriadPro-Regular-63"/><use x="1090.7" xlink:href="#MyriadPro-Regular-6b"/><use x="1137.6" xlink:href="#MyriadPro-Regular-74"/><use x="1170.7" xlink:href="#MyriadPro-Regular-61"/><use x="1218.9" xlink:href="#MyriadPro-Regular-67"/><use x="1274.8" xlink:href="#MyriadPro-Regular-73"/><use x="1314.4" xlink:href="#MyriadPro-Regular-20"/><use x="1335.6" xlink:href="#MyriadPro-Regular-7c"/><use x="1359.5" xlink:href="#MyriadPro-Regular-20"/><use x="1380.7" xlink:href="#MyriadPro-Regular-4e"/><use x="1446.5" xlink:href="#MyriadPro-Regular-69"/><use x="1469.9" xlink:href="#MyriadPro-Regular-63"/><use x="1514.7" xlink:href="#MyriadPro-Regular-6f"/><use x="1569.6" xlink:href="#MyriadPro-Regular-20"/><use x="1590.8" xlink:href="#MyriadPro-Regular-53"/><use x="1640.1" xlink:href="#MyriadPro-Regular-63"/><use x="1684.9" xlink:href="#MyriadPro-Regular-68"/><use x="1740.4" xlink:href="#MyriadPro-Regular-6c"/><use x="1764" xlink:href="#MyriadPro-Regular-f6"/><use x="1818.9" xlink:href="#MyriadPro-Regular-6d"/><use x="1902.3" xlink:href="#MyriadPro-Regular-65"/><use x="1952.4" xlink:href="#MyriadPro-Regular-72"/><use x="1985.1" xlink:href="#MyriadPro-Regular-20"/><use x="2006.3" xlink:href="#MyriadPro-Regular-7c"/><use x="2030.2" xlink:href="#MyriadPro-Regular-20"/><use x="2051.4" xlink:href="#MyriadPro-Regular-43"/><use x="2109.4" xlink:href="#MyriadPro-Regular-43"/><use x="2167.4" xlink:href="#MyriadPro-Regular-20"/><use x="2188.6" xlink:href="#MyriadPro-Regular-42"/><use x="2242.8" xlink:href="#MyriadPro-Regular-59"/></g><g style="fill:#969696" transform="matrix(.14 0 0 -.14 77.337 17.293)" id="text_24"><defs><path d="M486 13c282-32 615-51 1012-51 838 0 1504 217 1907 620 403 397 621 973 621 1677 0 698-224 1197-608 1549-378 352-948 538-1748 538-441 0-844-39-1184-90V13zm557 3833c147 32 365 58 653 58 1178 0 1754-646 1747-1664 0-1165-646-1830-1837-1830-217 0-422 6-563 32v3404z" id="MyriadPro-Regular-44" transform="scale(.01563)"/><path d="M58 3098 1203 243c26-70 39-115 39-147s-20-77-45-134c-128-288-320-506-474-628-166-140-352-230-493-275l141-473c141 25 416 121 691 364 384 333 660 877 1063 1940l845 2208h-596l-614-1818c-77-224-141-461-198-646h-13c-51 185-128 428-199 633L672 3098H58z" id="MyriadPro-Regular-79" transform="scale(.01563)"/><path d="M2579-1267h563v3513c0 320 7 589 20 852h-532l-19-468h-13c-153 301-473 538-953 538-653 0-1402-512-1402-1670C243 557 832-70 1555-70c499 0 845 243 1011 550h13v-1747zm0 2528c0-83-19-192-45-269-128-390-441-614-806-614-621 0-915 537-915 1152 0 697 352 1190 934 1190 423 0 723-294 807-640 19-70 25-160 25-237v-582z" id="MyriadPro-Regular-71" transform="scale(.01563)"/></defs><use xlink:href="#MyriadPro-Regular-44"/><use x="66.6" xlink:href="#MyriadPro-Regular-61"/><use x="114.8" xlink:href="#MyriadPro-Regular-69"/><use x="138.2" xlink:href="#MyriadPro-Regular-6c"/><use x="161.8" xlink:href="#MyriadPro-Regular-79"/><use x="208.9" xlink:href="#MyriadPro-Regular-20"/><use x="230.1" xlink:href="#MyriadPro-Regular-6e"/><use x="285.6" xlink:href="#MyriadPro-Regular-75"/><use x="340.7" xlink:href="#MyriadPro-Regular-6d"/><use x="424.1" xlink:href="#MyriadPro-Regular-62"/><use x="481" xlink:href="#MyriadPro-Regular-65"/><use x="531.1" xlink:href="#MyriadPro-Regular-72"/><use x="563.8" xlink:href="#MyriadPro-Regular-20"/><use x="585" xlink:href="#MyriadPro-Regular-6f"/><use x="639.9" xlink:href="#MyriadPro-Regular-66"/><use x="669.1" xlink:href="#MyriadPro-Regular-20"/><use x="690.3" xlink:href="#MyriadPro-Regular-71"/><use x="746.6" xlink:href="#MyriadPro-Regular-75"/><use x="801.7" xlink:href="#MyriadPro-Regular-65"/><use x="851.8" xlink:href="#MyriadPro-Regular-73"/><use x="891.4" xlink:href="#MyriadPro-Regular-74"/><use x="924.5" xlink:href="#MyriadPro-Regular-69"/><use x="947.9" xlink:href="#MyriadPro-Regular-6f"/><use x="1002.8" xlink:href="#MyriadPro-Regular-6e"/><use x="1058.3" xlink:href="#MyriadPro-Regular-73"/><use x="1097.9" xlink:href="#MyriadPro-Regular-20"/><use x="1119.1" xlink:href="#MyriadPro-Regular-6f"/><use x="1174" xlink:href="#MyriadPro-Regular-6e"/><use x="1229.5" xlink:href="#MyriadPro-Regular-20"/><use x="1250.7" xlink:href="#MyriadPro-Regular-53"/><use x="1300" xlink:href="#MyriadPro-Regular-74"/><use x="1333.1" xlink:href="#MyriadPro-Regular-61"/><use x="1381.3" xlink:href="#MyriadPro-Regular-63"/><use x="1426.1" xlink:href="#MyriadPro-Regular-6b"/><use x="1473" xlink:href="#MyriadPro-Regular-4f"/><use x="1541.9" xlink:href="#MyriadPro-Regular-76"/><use x="1590" xlink:href="#MyriadPro-Regular-65"/><use x="1640.1" xlink:href="#MyriadPro-Regular-72"/><use x="1672.8" xlink:href="#MyriadPro-Regular-66"/><use x="1702" xlink:href="#MyriadPro-Regular-6c"/><use x="1725.6" xlink:href="#MyriadPro-Regular-6f"/><use x="1780.5" xlink:href="#MyriadPro-Regular-77"/></g><path clip-path="url(#pa616e8f719)" d="m99.062 323.405 2.356-.133 2.352.133h4.746l2.315-.142 2.314.142 2.355-.137 2.354.137h4.708l2.392-.133 2.354.133 2.355-.133 2.352-.004 2.354.004 2.392-.266 2.277.252 2.275-.385 2.355.257 2.354.009 2.354-.559 2.354-2.767 2.392-29.672 2.354-14.033 2.355-9.119 2.352 2.382 2.354 1.61 2.393-14.902 2.276-5.151 2.275 5.417 2.356 5.052 2.353-6.649 2.354 10.498 2.354-8.103 2.392 5.19 2.354-1.899 2.355.302 2.353 10.972 2.353 8.188 2.393-.799 2.276-2.832 2.275 1.103 2.356-3.322 2.353 6.914 2.354 1.748 2.354-8.667 2.392 2.262 2.354-10.644 2.356 7.451 2.352-3.739 2.354 4.67 2.392 1.863 2.315-6.974 2.314-1.275 2.355 3.091 2.354 2.23 2.354 3.132 2.353 2.058 2.393-.532 2.354 2.874 2.355 5.11 2.352-1.673 2.354 1.938 2.392 1.464 2.277-6.368 2.275 5.037 2.355 6.729 2.354-5.531 2.354 1.268 2.354 4.586 2.392 1.996 2.354 4.555 2.355-1.228 2.352 1.64 2.354 3.549 2.392-2.395 2.277.86 2.275-3.255 2.355 3.716 2.354-1.188 2.354.364 2.354 2.962 2.392 1.996 2.354 2.191 2.355 1.269 2.352-1.269 2.354 3.53h2.393l2.276 2.058 2.275-1.791 2.356 1.703 2.353.026 2.354 3.273 2.354-4.071 2.392 2.395 2.354.027 2.355 1.304 2.353 1.445 2.353-1.312 2.393.665 2.315 1.197 2.314-1.33 2.355-1.42 2.354.888 2.353.762 2.354.701 2.393-.133 2.353-.018 2.356-.248 2.352-.577 2.354 2.706 2.392-.266 2.277-1.36 2.275.428 2.355 1.38 2.354-.182 2.354-.78 2.353-.684 2.393 1.464 2.354.457 2.355-.19" style="fill:none;stroke:#8c564b;stroke-linecap:square;stroke-width:1.5" id="line2d_24"/><path clip-path="url(#pa616e8f719)" d="m178.898 323.405 2.392-.133 2.354-.142 2.355.009 2.353-.009 2.353.142 2.393-.133 2.276-.028 2.275-.77 2.356-.448 2.353.049 2.354.088 2.354.178 2.392-.133 2.354-.457 2.356-.209 2.352.209 2.354-.74h2.392l2.315.11 2.314.421 2.355-1.441 2.354 1.707 2.354-1.57 2.353-.558 2.393 2.261 2.354-1.565 2.355-2.027 2.352.927 2.354.27 2.392 1.198 2.277-2.214 2.275.75 2.355-.692 2.354-.372 2.354 1.747 2.354-1.747 2.392 2.129 2.354-.244 2.355-.155 2.352.292 2.354-.425 2.392-.133 2.277-1.003 2.275 2.2 2.355-.914 2.354 1.18 2.354.195 2.354-1.26 2.392.932 2.354.603 2.355-1.534 2.352-.94 2.354 1.073 2.393.798 2.276-3.806 2.275 1.943 2.356-.559 2.353-1.304 2.354 1.854 2.354-1.188 2.392-1.996 2.354 1.535 2.355.594 2.353-.32 2.353.719 2.393-5.588 2.315-.45 2.314 2.978L341 309.38l2.354 3.247 2.353-.772 2.354.505 2.393-2.927 2.353.36 2.356 3.366 2.352 3.233 2.354-4.165 2.392 1.73 2.277-.717 2.275-1.412 2.355 3.464 2.354-3.863 2.354 1.388 2.353-3.25 2.393 3.991 2.354-1.428 2.355-.967" style="fill:none;stroke:#9467bd;stroke-linecap:square;stroke-width:1.5" id="line2d_25"/><path clip-path="url(#pa616e8f719)" d="m150.73 323.405 2.392-.266 2.354.266h14.005l2.356-.137 2.353.137h4.708l2.392-.133 2.354.133h7.061l2.393-.133 2.276.133H225.895l2.355-.137 2.354.137h16.515l2.392-.399 2.277.105 2.275.294h2.355l2.354-.133 2.354-.004 2.354.137 2.392-.266 2.354.129 2.355.137H275.287l2.392-.133 2.277.133h16.438l2.355-.133 2.352.133h9.298l2.356-.275 2.353.275h18.908l2.315-.142 2.314.142h4.709l2.353-.55 2.354-1.047 2.393.799 2.353.11 2.356-.51 2.352-.04 2.354-6.08 2.392-3.859 2.277-3.554 2.275 1.692 2.355-.985 2.354-3.672 2.354-8.29 2.353-1.157 2.393 5.854 2.354-6.484 2.355-.7 2.352 2.075" style="fill:none;stroke:#d62728;stroke-linecap:square;stroke-width:1.5" id="line2d_26"/><path clip-path="url(#pa616e8f719)" d="m28.563 323.405 2.356-.137 2.353.137h16.515l2.393-.133 2.276.133h4.63l2.354-.133 2.354.133h9.456l2.352-.137 2.353.137h16.361l2.393-1.463 2.353-.874 2.356-1.92 2.352-.83 2.354-1.699 2.392-2.262 2.315-21.959 2.314 2.4 2.355-14.015 2.354-.621 2.354-7.491 2.354-5.016 2.392-5.988 2.354-3.295 2.355-7.216 2.352-3.921 2.354 9.11 2.392-26.611 2.277-22.263 2.275 3.635 2.355-7.456 2.354 3.863 2.354-5.513 2.354-23.227 2.392-10.511 2.354-17.133 2.355-.031 2.352 19.554 2.354-5.45 2.393-15.967 2.276-30.594 2.275-13.182 2.356 14.597 2.353 21.728 2.354 1.233 2.354-20.393 2.392 20.224 2.354-8.493 2.355 6.896 2.353-8.546 2.353 17.328 2.393-21.422 2.276-24.553 2.275-2.723 2.356-20.327 2.353-4.555 2.354-10.294 2.354-8.866 2.392 23.152 2.354 14.862 2.356 13.745 2.352 15.953 2.354 4.271 2.392-10.91 2.315-27.653 2.314 8.892 2.355-10.76 2.354 28.856 2.354 4.692 2.353-4.959 2.393-7.45 2.354 24.508 2.355 17.803 2.352-13.403 2.354 8.347 2.392-7.983 2.277-2.642 2.275-12.128 2.355 32.142 2.354-17.505 2.354 14.206 2.354 15.997 2.392-4.524 2.354 23.862 2.355-5.9 2.352-4.825 2.354 36.094 2.392-22.486 2.277 15.482 2.275 23.104 2.355 11.19 2.354-.28 2.354 5.367 2.354 3.415 2.392 16.898 2.354.86 2.355 2.733 2.352 2.355 2.354 7.624 2.393-11.576 2.276 4.895 2.275 4.286 2.356 2.195 2.353-1.13 2.354 2.78 2.354-7.038 2.392 13.172 2.354-7.921 2.355-3.788 2.353 3.788 2.353 7.921 2.393-4.125 2.315-.743 2.314-8.038L341 257.409l2.354 9.447 2.353-2.297 2.354-4.09 2.393 16.633 2.353 9.593 2.356-2.01 2.352 3.11 2.354 1.548 2.392-5.589 2.277 3.118 2.275-3.783 2.355 5.256 2.354 4.191 2.354-2.541 2.353 4.404 2.393-2.528 2.354 2.523 2.355 3.065h0" style="fill:none;stroke:#2ca02c;stroke-linecap:square;stroke-width:1.5" id="line2d_27"/><path clip-path="url(#pa616e8f719)" d="m270.581 323.405 2.352-.137 2.354-.129h2.392l2.277-.028 2.275.161 2.355-.28 2.354.147 2.354-.009 2.354-.39 2.392.399 2.354-.284 2.355.018 2.352.257 2.354-.39 2.393-.133 2.276-.97 2.275 1.236 2.356.12 2.353-1.45 2.354-.338 2.354.87 2.392.133 2.354-.59 2.355.057 2.353-1.57 2.353 1.038 2.393-.532 2.315.518 2.314-2.913 2.355-1.548 2.354.35 2.353.2 2.354 2.329 2.393-2.795 2.353-.359 2.356-.971 2.352-4.254 2.354.129 2.392-5.322 2.277-.247 2.275-.685 2.355-2.262 2.354 1.331 2.354-4.63 2.353 2.102 2.393-4.524 2.354-1.978 2.355.115" style="fill:none;stroke:#ff7f0e;stroke-linecap:square;stroke-width:1.5" id="line2d_28"/><path clip-path="url(#pa616e8f719)" d="m106.124 323.405 2.392-.133 2.315.133h2.314l2.355-.137 2.354.137 2.354-.137 2.354.137h2.392l2.354-.137 2.355.004 2.352.133H139.038l2.275-.133 2.355.133 2.354-.266 2.354.129 2.354.137 2.392-.133 2.354-.004 2.355-.528 2.352.39 2.354.142h2.393l2.276-.161 2.275.161 2.356-.142 2.353.142 2.354.133h2.354l2.392-.133 2.354-.004 2.355.004 2.353.133h9.297l2.356-.137 2.353.137h4.708l2.392-.399 2.354-.426 2.356-.772 2.352-1.29 2.354-.306 2.392.133 2.315-1.207 2.314.409 2.355-1.917 2.354 3.38 2.354-.492 2.353-2.834 2.393.532 2.354-2.785 2.355 1.854 2.352 1.033 2.354-3.428 2.392-4.79 2.277-3.636 2.275-1.42 2.355-1.713 2.354-.15 2.354-11.399 2.354 4.08 2.392-16.232 2.354-4.622 2.355-2.164 2.352-9.798 2.354 12.459 2.392-20.49 2.277-12.779 2.275.138 2.355 5.273 2.354-8.6 2.354 4.75 2.354.706 2.392 1.064 2.354.43 2.355 8.884 2.352.466 2.354 7.252 2.393-23.551 2.276 4.072 2.275 5.508 2.356 3.694 2.353-4.493 2.354 7.93 2.354-8.462 2.392 6.12 2.354 1.655 2.355-.723 2.353 1.135 2.353 8.179 2.393-6.254 2.315-7.111 2.314-.739L341 222.762l2.354 5.508 2.353 8.516 2.354 1.996 2.393-9.714 2.353 6.755 2.356 7.216 2.352 3.096 2.354 5.02 2.392 1.331 2.277 6.25 2.275-9.576 2.355 8.112 2.354 10.383 2.354-.621 2.353 6.076 2.393 3.326 2.354-.603 2.355 7.655 2.352.732" style="fill:none;stroke:#1f77b4;stroke-linecap:square;stroke-width:1.5" id="line2d_29"/></g></g><defs><clipPath id="pa616e8f719"><path d="M28.563 57.293h357.12v266.112H28.563z"/></clipPath></defs></svg>