<svg height="489.395" viewBox="0 0 488.281 367.046" width="651.042" xmlns="http://www.w3.org/2000/svg" xmlns:xlink="http://www.w3.org/1999/xlink"><defs><style>*{stroke-linecap:butt;stroke-linejoin:round}</style></defs><g id="figure_1"><path d="M0 367.046h488.281V0H0z" style="fill:none" id="patch_1"/><g id="axes_1"><path d="M37.55 323.519h357.12V57.407H37.55z" style="fill:none" id="patch_2"/><g id="matplotlib.axis_1"><g id="xtick_1"><g id="line2d_1"><defs><path d="M0 0v3.5" id="me08a0d9d6f" style="stroke:#969696;stroke-width:.4"/></defs><use style="fill:#969696;stroke:#969696;stroke-width:.4" x="73.036" xlink:href="#me08a0d9d6f" y="323.519"/></g><g style="fill:#969696" transform="matrix(.14 0 0 -.14 57.47 340.516)" id="text_1"><defs><path d="M3181 371H691c109 602 909 999 1344 1293 583 378 1127 845 1127 1594 0 832-608 1260-1389 1260-973 0-1453-665-1434-1587h403c-12 659 276 1248 1012 1248 544 0 1004-333 1004-915 0-358-128-595-371-845C1626 1658 262 1331 230 0h2951v371z" id="HelveticaNeue-Light-32" transform="scale(.01563)"/><path d="M1779 4179c1024 0 1159-1190 1159-1965 0-780-135-1971-1159-1971S621 1434 621 2214c0 775 134 1965 1158 1965zm0 339C474 4518 218 3258 218 2208 218 1165 474-96 1779-96c1306 0 1562 1261 1562 2310 0 1044-256 2304-1562 2304z" id="HelveticaNeue-Light-30" transform="scale(.01563)"/><path d="M621 3328h1184V0h403v4480h-326c-122-826-557-838-1261-864v-288z" id="HelveticaNeue-Light-31" transform="scale(.01563)"/></defs><use xlink:href="#HelveticaNeue-Light-32"/><use x="55.6" xlink:href="#HelveticaNeue-Light-30"/><use x="111.2" xlink:href="#HelveticaNeue-Light-31"/><use x="166.8" xlink:href="#HelveticaNeue-Light-30"/></g></g><g id="xtick_2"><use style="fill:#969696;stroke:#969696;stroke-width:.4" x="128.747" xlink:href="#me08a0d9d6f" y="323.519" id="line2d_2"/><g style="fill:#969696" transform="matrix(.14 0 0 -.14 113.18 340.516)" id="text_2"><use xlink:href="#HelveticaNeue-Light-32"/><use x="55.6" xlink:href="#HelveticaNeue-Light-30"/><use x="111.2" xlink:href="#HelveticaNeue-Light-31"/><use x="166.8" xlink:href="#HelveticaNeue-Light-32"/></g></g><g id="xtick_3"><use style="fill:#969696;stroke:#969696;stroke-width:.4" x="184.534" xlink:href="#me08a0d9d6f" y="323.519" id="line2d_3"/><g style="fill:#969696" transform="matrix(.14 0 0 -.14 168.967 340.516)" id="text_3"><defs><path d="M192 1114h2067V0h371v1114h672v339h-672v3027h-364L192 1504v-390zm365 339 1689 2438h13V1453H557z" id="HelveticaNeue-Light-34" transform="scale(.01563)"/></defs><use xlink:href="#HelveticaNeue-Light-32"/><use x="55.6" xlink:href="#HelveticaNeue-Light-30"/><use x="111.2" xlink:href="#HelveticaNeue-Light-31"/><use x="166.8" xlink:href="#HelveticaNeue-Light-34"/></g></g><g id="xtick_4"><use style="fill:#969696;stroke:#969696;stroke-width:.4" x="240.244" xlink:href="#me08a0d9d6f" y="323.519" id="line2d_4"/><g style="fill:#969696" transform="matrix(.14 0 0 -.14 224.678 340.516)" id="text_4"><defs><path d="M1856 2579c685 0 1082-531 1082-1184 0-621-436-1152-1076-1152-780 0-1120 519-1120 1152 0 659 410 1184 1114 1184zm1376 768c-96 781-589 1171-1376 1171-1466 0-1600-1702-1600-2233C256 538 736-96 1824-96c883 0 1517 646 1517 1517 0 877-583 1497-1479 1497-505 0-979-300-1190-742h-13c0 813 192 2003 1235 2003 519 0 864-339 935-832h403z" id="HelveticaNeue-Light-36" transform="scale(.01563)"/></defs><use xlink:href="#HelveticaNeue-Light-32"/><use x="55.6" xlink:href="#HelveticaNeue-Light-30"/><use x="111.2" xlink:href="#HelveticaNeue-Light-31"/><use x="166.8" xlink:href="#HelveticaNeue-Light-36"/></g></g><g id="xtick_5"><use style="fill:#969696;stroke:#969696;stroke-width:.4" x="296.031" xlink:href="#me08a0d9d6f" y="323.519" id="line2d_5"/><g style="fill:#969696" transform="matrix(.14 0 0 -.14 280.465 340.516)" id="text_5"><defs><path d="M1779 243c-627 0-1139 339-1139 1011 0 660 525 986 1139 973 602 13 1139-326 1139-973 0-684-512-1011-1139-1011zm1357 3155c0 768-698 1120-1363 1120-659 0-1357-352-1357-1120 0-492 262-844 730-985v-13c-551-102-896-563-909-1146C237 352 941-96 1779-96c839 0 1543 448 1543 1350 0 602-340 1031-916 1146v13c455 134 730 499 730 985zm-1357-832c-473-12-960 231-960 832 0 512 467 781 960 781 538 0 954-269 954-781 0-576-461-844-954-832z" id="HelveticaNeue-Light-38" transform="scale(.01563)"/></defs><use xlink:href="#HelveticaNeue-Light-32"/><use x="55.6" xlink:href="#HelveticaNeue-Light-30"/><use x="111.2" xlink:href="#HelveticaNeue-Light-31"/><use x="166.8" xlink:href="#HelveticaNeue-Light-38"/></g></g><g id="xtick_6"><use style="fill:#969696;stroke:#969696;stroke-width:.4" x="351.742" xlink:href="#me08a0d9d6f" y="323.519" id="line2d_6"/><g style="fill:#969696" transform="matrix(.14 0 0 -.14 336.175 340.516)" id="text_6"><use xlink:href="#HelveticaNeue-Light-32"/><use x="55.6" xlink:href="#HelveticaNeue-Light-30"/><use x="111.2" xlink:href="#HelveticaNeue-Light-32"/><use x="166.8" xlink:href="#HelveticaNeue-Light-30"/></g></g></g><g id="matplotlib.axis_2"><g id="ytick_1"><path clip-path="url(#pdb7e89d96b)" d="M37.55 323.519h357.12" style="fill:none;stroke:#969696;stroke-linecap:square;stroke-width:.3" id="line2d_7"/><g id="line2d_8"><defs><path d="M0 0h-3.5" id="mc732913ecd" style="stroke:#969696;stroke-width:.3"/></defs><use style="fill:#969696;stroke:#969696;stroke-width:.3" x="37.549" xlink:href="#mc732913ecd" y="323.519"/></g><use xlink:href="#HelveticaNeue-Light-30" style="fill:#969696" transform="matrix(.14 0 0 -.14 22.766 328.517)" id="text_7"/></g><g id="ytick_2"><path clip-path="url(#pdb7e89d96b)" d="M37.55 271.366h357.12" style="fill:none;stroke:#969696;stroke-linecap:square;stroke-width:.3" id="line2d_9"/><use style="fill:#969696;stroke:#969696;stroke-width:.3" x="37.549" xlink:href="#mc732913ecd" y="271.366" id="line2d_10"/><g style="fill:#969696" transform="matrix(.14 0 0 -.14 14.983 276.365)" id="text_8"><defs><path d="M230 1280C250 429 870-96 1702-96c858 0 1556 640 1556 1517 0 902-583 1549-1504 1549-346 0-724-154-948-416l-12 12 288 1485h1958v371H800L365 2099h345c218 339 602 531 999 531 665 0 1145-505 1145-1164 0-653-428-1223-1120-1223-614 0-1081 416-1100 1037H230z" id="HelveticaNeue-Light-35" transform="scale(.01563)"/></defs><use xlink:href="#HelveticaNeue-Light-35"/><use x="55.6" xlink:href="#HelveticaNeue-Light-30"/></g></g><g id="ytick_3"><path clip-path="url(#pdb7e89d96b)" d="M37.55 219.214h357.12" style="fill:none;stroke:#969696;stroke-linecap:square;stroke-width:.3" id="line2d_11"/><use style="fill:#969696;stroke:#969696;stroke-width:.3" x="37.549" xlink:href="#mc732913ecd" y="219.214" id="line2d_12"/><g style="fill:#969696" transform="matrix(.14 0 0 -.14 7.2 224.212)" id="text_9"><use xlink:href="#HelveticaNeue-Light-31"/><use x="55.6" xlink:href="#HelveticaNeue-Light-30"/><use x="111.2" xlink:href="#HelveticaNeue-Light-30"/></g></g><g id="ytick_4"><path clip-path="url(#pdb7e89d96b)" d="M37.55 167.062h357.12" style="fill:none;stroke:#969696;stroke-linecap:square;stroke-width:.3" id="line2d_13"/><use style="fill:#969696;stroke:#969696;stroke-width:.3" x="37.549" xlink:href="#mc732913ecd" y="167.062" id="line2d_14"/><g style="fill:#969696" transform="matrix(.14 0 0 -.14 7.2 172.06)" id="text_10"><use xlink:href="#HelveticaNeue-Light-31"/><use x="55.6" xlink:href="#HelveticaNeue-Light-35"/><use x="111.2" xlink:href="#HelveticaNeue-Light-30"/></g></g><g id="ytick_5"><path clip-path="url(#pdb7e89d96b)" d="M37.55 114.91h357.12" style="fill:none;stroke:#969696;stroke-linecap:square;stroke-width:.3" id="line2d_15"/><use style="fill:#969696;stroke:#969696;stroke-width:.3" x="37.549" xlink:href="#mc732913ecd" y="114.909" id="line2d_16"/><g style="fill:#969696" transform="matrix(.14 0 0 -.14 7.2 119.908)" id="text_11"><use xlink:href="#HelveticaNeue-Light-32"/><use x="55.6" xlink:href="#HelveticaNeue-Light-30"/><use x="111.2" xlink:href="#HelveticaNeue-Light-30"/></g></g><g id="ytick_6"><path clip-path="url(#pdb7e89d96b)" d="M37.55 62.757h357.12" style="fill:none;stroke:#969696;stroke-linecap:square;stroke-width:.3" id="line2d_17"/><use style="fill:#969696;stroke:#969696;stroke-width:.3" x="37.549" xlink:href="#mc732913ecd" y="62.757" id="line2d_18"/><g style="fill:#969696" transform="matrix(.14 0 0 -.14 7.2 67.755)" id="text_12"><use xlink:href="#HelveticaNeue-Light-32"/><use x="55.6" xlink:href="#HelveticaNeue-Light-35"/><use x="111.2" xlink:href="#HelveticaNeue-Light-30"/></g></g></g><path clip-path="url(#pdb7e89d96b)" d="m250.661 323.519 2.328-.104 2.328.003 2.365.034 2.328-.003 2.33.003 2.325.067 2.328-.135 2.366.068 2.251.03 2.25.003 2.329.034 2.328-.101 2.327.1 2.328-.167 2.366-.236 2.327-.083 2.33-.489 2.326.42 2.327.253 2.366-.942 2.251-.208 2.25.544 2.33-.412 2.327-.092 2.328.44 2.327-.81 2.366-.169 2.328.318 2.329-.52 2.326-.245 2.328.481 2.365-.74 2.252-.695 2.25.257 2.329-.729 2.327-.482 2.328.204 2.327-.944 2.366.538 2.328.198 2.33-1.577 2.325.638 2.328.607 2.366-1.11 2.29-1.548 2.287.538 2.33-1.999 2.327.384 2.327-.28 2.328.549 2.366.774 2.328.068 2.329 1.21 2.326 1.572 2.327.447 2.366-2.153 2.252.864 2.25-.46 2.328.641 2.328.805 2.328.586 2.327-.686" style="fill:none;stroke:#17becf;stroke-linecap:square;stroke-width:1.5" id="line2d_19"/><path clip-path="url(#pdb7e89d96b)" d="m266.993 323.519 2.366-.034 2.251.034 2.25-.168 2.329-.145 2.328-.057 2.327-.152 2.328-.05 2.366.134 2.327-.118 2.33-.117 2.326-.196 2.327-.241 2.366-.034 2.251-.272 2.25.272 2.33.031 2.327-.94 2.328-.277 2.327-.833 2.366.034 2.328-.8 2.329-1.017 2.326 1.504 2.328-.293 2.365-1.144 2.252-.076 2.25-1.674 2.329.058 2.327 1.12 2.328-.877 2.327-.67 2.366-1.178 2.328.005 2.33-.106 2.325.697 2.328-.193 2.366-1.58 2.29-.43 2.287 1.068 2.33-1.542 2.327-.577 2.327 1.273 2.328-1.172 2.366 2.153 2.328-1.781 2.329.132 2.326.32 2.327.925 2.366-1.278 2.252-.95 2.25-.026 2.328 1.225 2.328 1.13 2.328-2.695 2.327 1.585" style="fill:none;stroke:#bcbd22;stroke-linecap:square;stroke-width:1.5" id="line2d_20"/><path clip-path="url(#pdb7e89d96b)" d="m37.55 310.872 1.794 5.01 2.326 1.9 2.328-.084 2.366-3.13 2.251-.81 2.25-2.487 2.33-.964 2.327-4.385 2.327-3.403 2.328-1.14 2.366-2.288 2.327-.188 2.33-1.629 2.326-1.987 2.327-.435 2.366-6.864 2.251-4.105 2.25.202 2.33-.62 2.327-3.552 2.328-3.262 2.327-2.896 2.366-1.076 2.328-6.215 2.329-8.287 2.326-.266 2.328-1.517 2.365-9.421 2.252-11.294 2.25-8.928 2.329 10.334 2.327-.745 2.328-.472 2.328.338 2.365-9.556 2.328 5.046 2.33 3.87 2.325-4.253 2.328 9.166 4.655-25.797 2.288-2.87 2.33 3.473 2.327.53 2.328 1.522 2.327-9.832 2.366 2.49 2.328 13.426 2.329-11.542 2.326-.418 2.328 12.464L157.86 207l2.252-7.455 2.25-4.22 2.329.594 2.327 9.836 2.328-.414 2.327-10.992 2.366-8.883 2.328 3.013 2.33-2.575 2.325 8.937 2.328 4.387 2.366-12.584 2.25-6.246 2.25 1.199 2.33 5.387 2.327 6.053 2.328 5.733 2.328-2.268 2.366 8.143 2.327 12.587 2.33.232 2.325-1.588 2.328 6.602 2.366-6.73 2.251-7.97 2.25-2.83 4.657-.808 2.327-8.36 2.328-1.094 2.366 7.671 2.327 6.53 2.33 5.886 2.326 4.893 2.327 2.004 2.366-11.54 2.29-5.159 2.288 5.495 2.329-6.863 2.327 17.798 2.328-5.942 2.328 10.35 2.365.504 2.328 3.019 2.33 10.777 2.325-1.633 2.328 7.588 2.366-5.888 2.251-1.666 2.25 1.7 2.329 10.99 2.328-1.166 2.327 3.288 2.328-.327 2.366 4.543 2.327 7.362 2.33-2.517 2.326 2.551 2.327 8.182 2.366-6.998 2.251 2.678 2.25-1.77 2.33 2.08 2.327 3.203 2.328 2.36 2.327 1.913 2.366-2.086 2.328 2.33 2.329-5.796 2.326 6.42 2.328 4.549 2.365-10.767 2.252 2.37 2.25 1.365 2.329 4.779 2.327 2.69 2.328 1.412 2.327-2.556 2.366 2.019 2.328-1.166 2.33.426 2.325-.079 2.328 3.275 2.366-4.441 2.29 3.204 2.287-3.238 2.33-6.97 2.327 5.826 2.327 5.126 2.328-2.165 2.366 7.2 2.328 3.448 2.329-.554 2.326 1.11 2.327.707 2.366-4.811 2.252.156 2.25 2.94 2.328-3.129 2.328 5.349 2.328.84 2.327 1.078h0" style="fill:none;stroke:#7f7f7f;stroke-linecap:square;stroke-width:1.5" id="line2d_21"/><g style="fill:#1f77b4" transform="matrix(.14 0 0 -.14 405.383 137.952)" id="text_13"><defs><path d="M378 0h403v1926c13 647 397 1133 1037 1133 652 0 838-429 838-998V0h403v2125c0 787-281 1273-1209 1273-468 0-909-268-1056-665h-13v569H378V0z" id="HelveticaNeue-Light-6e" transform="scale(.01563)"/><path d="M1779 3398c-1011 0-1561-800-1561-1747S768-96 1779-96s1562 800 1562 1747-551 1747-1562 1747zm0-339c775 0 1159-704 1159-1408S2554 243 1779 243c-774 0-1158 704-1158 1408s384 1408 1158 1408z" id="HelveticaNeue-Light-6f" transform="scale(.01563)"/><path d="M646 1651c0 685 314 1408 1082 1408 858 0 1158-723 1158-1408S2586 243 1728 243C960 243 646 966 646 1651zm2644 2919h-404V2675h-12c-173 474-653 723-1146 723-1005 0-1485-812-1485-1747C243 717 723-96 1728-96c480 0 1005 294 1178 723h12V0h372v4570z" id="HelveticaNeue-Light-64" transform="scale(.01563)"/><path d="M3162 1542c32 928-391 1856-1453 1856-1050 0-1491-876-1491-1747C218 710 659-96 1709-96c832 0 1267 435 1440 1184h-403c-128-499-448-845-1037-845-775 0-1082 711-1088 1299h2541zM621 1882c64 601 429 1177 1088 1177 653 0 1030-569 1049-1177H621z" id="HelveticaNeue-Light-65" transform="scale(.01563)"/><path d="M1158 0v678H621V0h537z" id="HelveticaNeue-Light-2e" transform="scale(.01563)"/><path d="M390-403c0-275-51-480-364-480-64-7-154 0-218 6v-333c96 0 186-12 282-12 569 0 704 422 704 915v3609H390V-403zm0 4326h404v647H390v-647z" id="HelveticaNeue-Light-6a" transform="scale(.01563)"/><path d="M2765 2336c-26 717-551 1062-1210 1062-582 0-1241-256-1241-928 0-563 396-742 921-883l519-115c364-90 723-218 723-602 0-460-525-627-903-627-537 0-940 282-972 826H198C262 262 787-96 1555-96c615 0 1325 275 1325 992 0 576-480 845-941 915l-537 122c-276 70-685 198-685 557 0 428 422 569 781 569 460 0 844-224 864-723h403z" id="HelveticaNeue-Light-73" transform="scale(.01563)"/></defs><use xlink:href="#HelveticaNeue-Light-6e"/><use x="53.7" xlink:href="#HelveticaNeue-Light-6f"/><use x="109.3" xlink:href="#HelveticaNeue-Light-64"/><use x="166.7" xlink:href="#HelveticaNeue-Light-65"/><use x="218.6" xlink:href="#HelveticaNeue-Light-2e"/><use x="246.4" xlink:href="#HelveticaNeue-Light-6a"/><use x="264.9" xlink:href="#HelveticaNeue-Light-73"/></g><g style="fill:#ff7f0e" transform="matrix(.14 0 0 -.14 405.383 213.585)" id="text_14"><defs><path d="M2496 1280c6-646-538-1037-1152-1037-378 0-736 250-736 653 0 646 851 640 1536 762 109 19 288 51 339 147h13v-525zM749 2291c13 538 384 768 883 768 474 0 864-134 864-678 0-365-186-410-518-448-871-103-1773-135-1773-1063 0-665 499-966 1107-966 634 0 922 243 1203 672h13c0-346 64-576 474-576 108 0 172 6 262 26v339c-32-13-83-26-128-26-160 0-237 90-237 243v1754c0 883-633 1062-1216 1062-755 0-1299-332-1337-1107h403z" id="HelveticaNeue-Light-61" transform="scale(.01563)"/><path d="M1709 378c-743 0-1088 646-1088 1312 0 684 320 1369 1088 1369 761 0 1062-723 1062-1369 0-672-365-1312-1062-1312zm1465 2924h-403v-569h-13c-160 365-569 665-1049 665-954 0-1491-755-1491-1664C218 794 653 38 1709 38c473 0 864 276 1049 679h13V269c0-807-320-1248-1062-1248-448 0-877 173-967 659H339c58-704 711-998 1370-998 1081 0 1459 601 1465 1587v3033z" id="HelveticaNeue-Light-67" transform="scale(.01563)"/></defs><use xlink:href="#HelveticaNeue-Light-64"/><use x="57.4" xlink:href="#HelveticaNeue-Light-6a"/><use x="75.9" xlink:href="#HelveticaNeue-Light-61"/><use x="127.8" xlink:href="#HelveticaNeue-Light-6e"/><use x="181.5" xlink:href="#HelveticaNeue-Light-67"/><use x="237.1" xlink:href="#HelveticaNeue-Light-6f"/></g><g style="fill:#2ca02c" transform="matrix(.14 0 0 -.14 405.383 242.896)" id="text_15"><defs><path d="M390 0h404v4570H390V0z" id="HelveticaNeue-Light-6c" transform="scale(.01563)"/><path d="M384 0h403v1760c0 685 499 1222 1229 1184v403c-595 26-1043-288-1248-819h-13v774H384V0z" id="HelveticaNeue-Light-72" transform="scale(.01563)"/><path d="M1286 0h429l1235 3302h-416L1510 403h-12L461 3302H13L1286 0z" id="HelveticaNeue-Light-76" transform="scale(.01563)"/></defs><use xlink:href="#HelveticaNeue-Light-6c"/><use x="18.5" xlink:href="#HelveticaNeue-Light-61"/><use x="70.4" xlink:href="#HelveticaNeue-Light-72"/><use x="101.9" xlink:href="#HelveticaNeue-Light-61"/><use x="153.8" xlink:href="#HelveticaNeue-Light-76"/><use x="200.1" xlink:href="#HelveticaNeue-Light-65"/><use x="252" xlink:href="#HelveticaNeue-Light-6c"/></g><g style="fill:#d62728" transform="matrix(.14 0 0 -.14 405.383 258.158)" id="text_16"><defs><path d="M3027 1651c0-685-313-1408-1081-1408-858 0-1159 723-1159 1408 0 749 269 1408 1159 1408 768 0 1081-723 1081-1408zM384-1222h403V627h13C973 154 1453-96 1946-96c1004 0 1484 813 1484 1747 0 935-480 1747-1484 1747-532 0-992-275-1178-723h-13v627H384v-4524z" id="HelveticaNeue-Light-70" transform="scale(.01563)"/><path d="M390 0h404v3302H390V0zm0 3923h404v647H390v-647z" id="HelveticaNeue-Light-69" transform="scale(.01563)"/></defs><use xlink:href="#HelveticaNeue-Light-73"/><use x="48.1" xlink:href="#HelveticaNeue-Light-70"/><use x="105.5" xlink:href="#HelveticaNeue-Light-72"/><use x="137" xlink:href="#HelveticaNeue-Light-69"/><use x="155.5" xlink:href="#HelveticaNeue-Light-6e"/><use x="209.2" xlink:href="#HelveticaNeue-Light-67"/></g><g style="fill:#9467bd" transform="matrix(.14 0 0 -.14 405.383 272.263)" id="text_17"><defs><path d="M6 0h500l1017 1389L2560 0h512L1786 1722l1190 1580h-506l-921-1254-941 1254H102l1184-1587L6 0z" id="HelveticaNeue-Light-78" transform="scale(.01563)"/></defs><use xlink:href="#HelveticaNeue-Light-65"/><use x="51.9" xlink:href="#HelveticaNeue-Light-78"/><use x="100" xlink:href="#HelveticaNeue-Light-70"/><use x="157.4" xlink:href="#HelveticaNeue-Light-72"/><use x="188.9" xlink:href="#HelveticaNeue-Light-65"/><use x="240.8" xlink:href="#HelveticaNeue-Light-73"/><use x="288.9" xlink:href="#HelveticaNeue-Light-73"/></g><g style="fill:#8c564b" transform="matrix(.14 0 0 -.14 405.383 286.263)" id="text_18"><defs><path d="M1658 3302h-653v288c6 359-7 640 441 640 96 0 186-12 295-32v346c-128 19-224 26-339 26-647 0-807-397-800-967v-301H38v-339h564V0h403v2963h653v339z" id="HelveticaNeue-Light-66" transform="scale(.01563)"/><path d="M384 0h403v1254l653 544L2746 0h505L1747 2080l1408 1222h-537L787 1702v2868H384V0z" id="HelveticaNeue-Light-6b" transform="scale(.01563)"/></defs><use xlink:href="#HelveticaNeue-Light-66"/><use x="25.9" xlink:href="#HelveticaNeue-Light-6c"/><use x="44.4" xlink:href="#HelveticaNeue-Light-61"/><use x="96.3" xlink:href="#HelveticaNeue-Light-73"/><use x="144.4" xlink:href="#HelveticaNeue-Light-6b"/></g><g style="fill:#e377c2" transform="matrix(.14 0 0 -.14 405.383 300.263)" id="text_19"><defs><path d="M1024 4294H621v-992H45v-339h576V704c-7-563 179-742 717-742 121 0 236 12 358 12v346c-115-13-230-19-346-19-288 19-326 173-326 435v2227h672v339h-672v992z" id="HelveticaNeue-Light-74" transform="scale(.01563)"/></defs><use xlink:href="#HelveticaNeue-Light-6e"/><use x="53.7" xlink:href="#HelveticaNeue-Light-65"/><use x="105.6" xlink:href="#HelveticaNeue-Light-78"/><use x="153.7" xlink:href="#HelveticaNeue-Light-74"/><use x="183.3" xlink:href="#HelveticaNeue-Light-2e"/><use x="211.1" xlink:href="#HelveticaNeue-Light-6a"/><use x="229.6" xlink:href="#HelveticaNeue-Light-73"/></g><g style="fill:#7f7f7f" transform="matrix(.14 0 0 -.14 405.383 314.263)" id="text_20"><defs><path d="M3059 3302h-403V1568c0-672-301-1325-992-1325-640 0-864 314-883 909v2150H378V1158C378 390 704-96 1536-96c493 0 928 250 1139 691h13V0h371v3302z" id="HelveticaNeue-Light-75" transform="scale(.01563)"/><path d="M3027 1651c0-685-313-1408-1081-1408-858 0-1159 723-1159 1408s301 1408 1159 1408c768 0 1081-723 1081-1408zM384 0h371v627h13C954 179 1414-96 1946-96c1004 0 1484 813 1484 1747 0 935-480 1747-1484 1747-493 0-973-249-1146-723h-13v1895H384V0z" id="HelveticaNeue-Light-62" transform="scale(.01563)"/><path d="m1331 13-141-378c-134-307-217-518-576-518-89 0-179 13-275 32v-339c64-26 147-26 307-32 506 0 640 160 871 716l1433 3808h-403L1530 486 442 3302H13L1331 13z" id="HelveticaNeue-Light-79" transform="scale(.01563)"/><path d="M1984 1574v372H384v-372h1600z" id="HelveticaNeue-Light-2d" transform="scale(.01563)"/></defs><use xlink:href="#HelveticaNeue-Light-72"/><use x="31.5" xlink:href="#HelveticaNeue-Light-75"/><use x="85.2" xlink:href="#HelveticaNeue-Light-62"/><use x="142.6" xlink:href="#HelveticaNeue-Light-79"/><use x="188.9" xlink:href="#HelveticaNeue-Light-2d"/><use x="225.9" xlink:href="#HelveticaNeue-Light-6f"/><use x="281.5" xlink:href="#HelveticaNeue-Light-6e"/><use x="335.2" xlink:href="#HelveticaNeue-Light-2d"/><use x="372.2" xlink:href="#HelveticaNeue-Light-72"/><use x="403.7" xlink:href="#HelveticaNeue-Light-61"/><use x="455.6" xlink:href="#HelveticaNeue-Light-69"/><use x="474.1" xlink:href="#HelveticaNeue-Light-6c"/><use x="492.6" xlink:href="#HelveticaNeue-Light-73"/></g><g style="fill:#bcbd22" transform="matrix(.14 0 0 -.14 405.383 328.263)" id="text_21"><use xlink:href="#HelveticaNeue-Light-6e"/><use x="53.7" xlink:href="#HelveticaNeue-Light-75"/><use x="107.4" xlink:href="#HelveticaNeue-Light-78"/><use x="155.5" xlink:href="#HelveticaNeue-Light-74"/><use x="185.1" xlink:href="#HelveticaNeue-Light-2e"/><use x="212.9" xlink:href="#HelveticaNeue-Light-6a"/><use x="231.4" xlink:href="#HelveticaNeue-Light-73"/></g><g style="fill:#17becf" transform="matrix(.14 0 0 -.14 405.383 342.158)" id="text_22"><use xlink:href="#HelveticaNeue-Light-67"/><use x="55.6" xlink:href="#HelveticaNeue-Light-61"/><use x="107.5" xlink:href="#HelveticaNeue-Light-74"/><use x="137.1" xlink:href="#HelveticaNeue-Light-73"/><use x="185.2" xlink:href="#HelveticaNeue-Light-62"/><use x="242.6" xlink:href="#HelveticaNeue-Light-79"/></g><g style="fill:#969696" transform="matrix(.09716 0 0 -.09716 37.55 357.766)" id="text_23"><defs><path d="M230 1504C179 390 973-96 2054-96c1620 0 1748 992 1748 1306 0 748-538 1030-1184 1203l-1114 275c-371 90-691 269-691 698 0 678 550 908 1145 908 647 0 1223-352 1248-1049h436c6 934-788 1421-1690 1421-1286 0-1574-839-1574-1287 0-710 492-966 1030-1101l1018-249c422-103 940-307 940-826 0-665-729-928-1209-928-832 0-1511 288-1491 1229H230z" id="HelveticaNeue-Light-53" transform="scale(.01563)"/><path d="M3117 2266c-90 755-634 1132-1338 1132-1011 0-1561-800-1561-1747S768-96 1779-96c736 0 1255 486 1363 1280h-403c-51-550-461-941-960-941-774 0-1158 704-1158 1408s384 1408 1158 1408c525 0 826-301 935-793h403z" id="HelveticaNeue-Light-63" transform="scale(.01563)"/><path d="M218 2285C218 1037 934-96 2374-96c1434 0 2151 1133 2151 2381s-717 2381-2151 2381C934 4666 218 3533 218 2285zm435 0c0 998 512 2009 1721 2009 1204 0 1716-1011 1716-2009 0-999-512-2010-1716-2010-1209 0-1721 1011-1721 2010z" id="HelveticaNeue-Light-4f" transform="scale(.01563)"/><path d="M1114 0h441l807 2778h12L3187 0h442l1062 3302h-429L3418 474h-13l-807 2828h-454L1338 474h-13L480 3302H51L1114 0z" id="HelveticaNeue-Light-77" transform="scale(.01563)"/><path d="M-45 0h467l551 1421h2080L3610 0h467L2285 4570h-487L-45 0zm2067 4134 884-2342H1107l915 2342z" id="HelveticaNeue-Light-41" transform="scale(.01563)"/><path d="M461 0h435v1958h1594c819 0 1356 480 1356 1306s-537 1306-1356 1306H461V0zm435 4198h1498c601 0 1017-307 1017-934s-416-934-1017-934H896v1868z" id="HelveticaNeue-Light-50" transform="scale(.01563)"/><path d="M493 0h435v4570H493V0z" id="HelveticaNeue-Light-49" transform="scale(.01563)"/><path d="M544-1370h339v6400H544v-6400z" id="HelveticaNeue-Light-7c" transform="scale(.01563)"/><path d="M454 0h436v3866h12L3565 0h486v4570h-435V704h-13L941 4570H454V0z" id="HelveticaNeue-Light-4e" transform="scale(.01563)"/><path d="M378 0h403v1926c13 647 397 1133 1037 1133 652 0 838-429 838-998V0h403v2125c0 787-281 1273-1209 1273-468 0-909-268-1056-665h-13v1837H378V0z" id="HelveticaNeue-Light-68" transform="scale(.01563)"/><path d="M1779 3398c-1011 0-1561-800-1561-1747S768-96 1779-96s1562 800 1562 1747-551 1747-1562 1747zm0-339c775 0 1159-704 1159-1408S2554 243 1779 243c-774 0-1158 704-1158 1408s384 1408 1158 1408zm787 813v646h-435v-646h435zm-1132 0v646H998v-646h436z" id="HelveticaNeue-Light-f6" transform="scale(.01563)"/><path d="M384 0h403v1843c7 691 288 1216 986 1216 512 0 697-371 691-819V0h403v1869c0 614 199 1190 896 1190 576 0 781-294 781-838V0h403v2240c0 781-371 1158-1094 1158-435 0-851-211-1050-646-121 435-512 646-947 646-525 0-870-256-1082-652h-19v556H384V0z" id="HelveticaNeue-Light-6d" transform="scale(.01563)"/><path d="M4237 3187c-115 960-973 1479-1837 1479-1440 0-2157-1133-2157-2381S960-96 2400-96c1069 0 1779 717 1901 1837h-435c-84-813-621-1466-1466-1466-1210 0-1722 1011-1722 2010 0 998 512 2009 1722 2009 666 0 1248-403 1402-1107h435z" id="HelveticaNeue-Light-43" transform="scale(.01563)"/><path d="M896 2195h1498c761 0 1203-301 1203-883 0-730-557-947-1203-941H896v1824zM461 0h1933c1484 0 1638 864 1638 1299 0 595-378 1037-966 1114v13c473 102 793 544 793 1024 0 851-697 1120-1465 1120H461V0zm435 4198h1498c678 0 1030-288 1030-857 0-429-333-775-1030-775H896v1632z" id="HelveticaNeue-Light-42" transform="scale(.01563)"/><path d="M1734 0h436v1882l1804 2688h-518L1958 2253 454 4570H-64l1798-2688V0z" id="HelveticaNeue-Light-59" transform="scale(.01563)"/></defs><use xlink:href="#HelveticaNeue-Light-53"/><use x="63" xlink:href="#HelveticaNeue-Light-74"/><use x="92.6" xlink:href="#HelveticaNeue-Light-61"/><use x="144.5" xlink:href="#HelveticaNeue-Light-63"/><use x="196.4" xlink:href="#HelveticaNeue-Light-6b"/><use x="246.4" xlink:href="#HelveticaNeue-Light-4f"/><use x="320.5" xlink:href="#HelveticaNeue-Light-76"/><use x="366.8" xlink:href="#HelveticaNeue-Light-65"/><use x="418.7" xlink:href="#HelveticaNeue-Light-72"/><use x="450.2" xlink:href="#HelveticaNeue-Light-66"/><use x="476.1" xlink:href="#HelveticaNeue-Light-6c"/><use x="494.6" xlink:href="#HelveticaNeue-Light-6f"/><use x="550.2" xlink:href="#HelveticaNeue-Light-77"/><use x="624.3" xlink:href="#HelveticaNeue-Light-20"/><use x="652.1" xlink:href="#HelveticaNeue-Light-41"/><use x="715.1" xlink:href="#HelveticaNeue-Light-50"/><use x="778.1" xlink:href="#HelveticaNeue-Light-49"/><use x="800.3" xlink:href="#HelveticaNeue-Light-20"/><use x="828.1" xlink:href="#HelveticaNeue-Light-76"/><use x="874.4" xlink:href="#HelveticaNeue-Light-69"/><use x="892.9" xlink:href="#HelveticaNeue-Light-61"/><use x="944.8" xlink:href="#HelveticaNeue-Light-20"/><use x="972.6" xlink:href="#HelveticaNeue-Light-73"/><use x="1020.7" xlink:href="#HelveticaNeue-Light-74"/><use x="1050.3" xlink:href="#HelveticaNeue-Light-61"/><use x="1102.2" xlink:href="#HelveticaNeue-Light-63"/><use x="1154.1" xlink:href="#HelveticaNeue-Light-6b"/><use x="1204.1" xlink:href="#HelveticaNeue-Light-74"/><use x="1233.7" xlink:href="#HelveticaNeue-Light-61"/><use x="1285.6" xlink:href="#HelveticaNeue-Light-67"/><use x="1341.2" xlink:href="#HelveticaNeue-Light-73"/><use x="1389.3" xlink:href="#HelveticaNeue-Light-20"/><use x="1417.1" xlink:href="#HelveticaNeue-Light-7c"/><use x="1439.3" xlink:href="#HelveticaNeue-Light-20"/><use x="1467.1" xlink:href="#HelveticaNeue-Light-4e"/><use x="1537.5" xlink:href="#HelveticaNeue-Light-69"/><use x="1556" xlink:href="#HelveticaNeue-Light-63"/><use x="1607.9" xlink:href="#HelveticaNeue-Light-6f"/><use x="1663.5" xlink:href="#HelveticaNeue-Light-20"/><use x="1691.3" xlink:href="#HelveticaNeue-Light-53"/><use x="1754.3" xlink:href="#HelveticaNeue-Light-63"/><use x="1806.2" xlink:href="#HelveticaNeue-Light-68"/><use x="1859.9" xlink:href="#HelveticaNeue-Light-6c"/><use x="1878.4" xlink:href="#HelveticaNeue-Light-f6"/><use x="1934" xlink:href="#HelveticaNeue-Light-6d"/><use x="2017.3" xlink:href="#HelveticaNeue-Light-65"/><use x="2069.2" xlink:href="#HelveticaNeue-Light-72"/><use x="2100.7" xlink:href="#HelveticaNeue-Light-20"/><use x="2128.5" xlink:href="#HelveticaNeue-Light-7c"/><use x="2150.7" xlink:href="#HelveticaNeue-Light-20"/><use x="2178.499" xlink:href="#HelveticaNeue-Light-43"/><use x="2248.899" xlink:href="#HelveticaNeue-Light-43"/><use x="2319.299" xlink:href="#HelveticaNeue-Light-20"/><use x="2347.099" xlink:href="#HelveticaNeue-Light-42"/><use x="2413.799" xlink:href="#HelveticaNeue-Light-59"/></g><g style="fill:#969696" transform="matrix(.14 0 0 -.14 82.697 17.407)" id="text_24"><defs><path d="M896 4198h928c1312 7 1882-550 1882-1913S3136 365 1824 371H896v3827zM461 0h1581c1376 32 2099 787 2099 2285 0 1497-723 2253-2099 2285H461V0z" id="HelveticaNeue-Light-44" transform="scale(.01563)"/><path d="M646 1651c0 685 314 1408 1082 1408 858 0 1158-723 1158-1408S2586 243 1728 243C960 243 646 966 646 1651zm2644 1651h-372v-627h-12c-173 429-698 723-1178 723-1005 0-1485-812-1485-1747C243 717 723-96 1728-96c493 0 973 250 1146 723h12v-1849h404v4524z" id="HelveticaNeue-Light-71" transform="scale(.01563)"/></defs><use xlink:href="#HelveticaNeue-Light-44"/><use x="68.5" xlink:href="#HelveticaNeue-Light-61"/><use x="120.4" xlink:href="#HelveticaNeue-Light-69"/><use x="138.9" xlink:href="#HelveticaNeue-Light-6c"/><use x="157.4" xlink:href="#HelveticaNeue-Light-79"/><use x="203.7" xlink:href="#HelveticaNeue-Light-20"/><use x="231.5" xlink:href="#HelveticaNeue-Light-6e"/><use x="285.2" xlink:href="#HelveticaNeue-Light-75"/><use x="338.9" xlink:href="#HelveticaNeue-Light-6d"/><use x="422.2" xlink:href="#HelveticaNeue-Light-62"/><use x="479.6" xlink:href="#HelveticaNeue-Light-65"/><use x="531.5" xlink:href="#HelveticaNeue-Light-72"/><use x="563" xlink:href="#HelveticaNeue-Light-20"/><use x="590.8" xlink:href="#HelveticaNeue-Light-6f"/><use x="646.4" xlink:href="#HelveticaNeue-Light-66"/><use x="672.3" xlink:href="#HelveticaNeue-Light-20"/><use x="700.1" xlink:href="#HelveticaNeue-Light-71"/><use x="757.5" xlink:href="#HelveticaNeue-Light-75"/><use x="811.2" xlink:href="#HelveticaNeue-Light-65"/><use x="863.1" xlink:href="#HelveticaNeue-Light-73"/><use x="911.2" xlink:href="#HelveticaNeue-Light-74"/><use x="940.8" xlink:href="#HelveticaNeue-Light-69"/><use x="959.3" xlink:href="#HelveticaNeue-Light-6f"/><use x="1014.9" xlink:href="#HelveticaNeue-Light-6e"/><use x="1068.6" xlink:href="#HelveticaNeue-Light-73"/><use x="1116.7" xlink:href="#HelveticaNeue-Light-20"/><use x="1144.5" xlink:href="#HelveticaNeue-Light-6f"/><use x="1200.1" xlink:href="#HelveticaNeue-Light-6e"/><use x="1253.8" xlink:href="#HelveticaNeue-Light-20"/><use x="1281.6" xlink:href="#HelveticaNeue-Light-53"/><use x="1344.6" xlink:href="#HelveticaNeue-Light-74"/><use x="1374.2" xlink:href="#HelveticaNeue-Light-61"/><use x="1426.1" xlink:href="#HelveticaNeue-Light-63"/><use x="1478" xlink:href="#HelveticaNeue-Light-6b"/><use x="1528" xlink:href="#HelveticaNeue-Light-4f"/><use x="1602.1" xlink:href="#HelveticaNeue-Light-76"/><use x="1648.4" xlink:href="#HelveticaNeue-Light-65"/><use x="1700.3" xlink:href="#HelveticaNeue-Light-72"/><use x="1731.8" xlink:href="#HelveticaNeue-Light-66"/><use x="1757.7" xlink:href="#HelveticaNeue-Light-6c"/><use x="1776.2" xlink:href="#HelveticaNeue-Light-6f"/><use x="1831.8" xlink:href="#HelveticaNeue-Light-77"/></g><path clip-path="url(#pdb7e89d96b)" d="m262.34 323.519 2.325-.035 2.328-.032 2.366.067h2.251l2.25-.101 2.329.031 2.328-.502 2.327.05 2.328-.151 2.366.27 2.327-.258 2.33-.012 2.326-.057 2.327-.179 2.366.101 2.251.137 2.25-.305 2.33-.067 2.327.168 2.328-.377 2.327.142 2.366-.27 2.328-.01 2.329-.326 2.326-.405 2.328.136 2.365-1.615 2.252.582 2.25-.784 2.329.499 2.327-.97 2.328.692 2.327-.928 2.366.673 2.328-1.797 2.33.25 2.325-.076 2.328.008 2.366-1.312 2.29-1.617 2.287.035 2.33-3.894 2.327.664 2.327-.594 2.328.022 2.366-.134 2.328-.966 2.329.024 2.326-3.5 2.327 1.414 2.366-5.821 2.252-3.121 2.25.093 2.328.307 2.328-3.437 2.328.238 2.327-1.954" style="fill:none;stroke:#e377c2;stroke-linecap:square;stroke-width:1.5" id="line2d_22"/><path clip-path="url(#pdb7e89d96b)" d="m83.377 323.519 7.021-.135 2.328-.282 2.329.148 7.02.134 2.25-.461 2.25.26 2.33.023 2.327-.158 2.328.088 4.693-.492 2.328.11 2.33-.278 7.019.134 2.29-.53 2.287-.143 2.33.122 2.327-.458 2.328-.898 2.327.259 2.366-.875 2.328.755 2.329.254 2.326-1.68 2.328-.002 2.365-1.178 2.252.18 2.25.93 2.329-1.042 2.327.134 2.328-.621 2.327-1.162 2.366.437 2.328 1.35 2.33-1.922 2.325.914 2.328.13 2.366-.976 2.25-2.68 2.25.93 2.33-.15 2.327 1.328 2.328-1.676 2.328.565 2.366.942 2.327.544 2.33-.745 2.325.224 2.328-.325 4.617-2.83 4.58.06 2.327.38 2.327-2.987 2.328.128 2.366 1.043 2.327.776 2.33.401 2.326 1.163 2.327-.826 2.366-2.12 6.907 2.703 2.327-1.222 2.328 1.083 2.328-1.252 2.365 2.086 2.328.348 2.33-.886 2.325-3.356 2.328-.278 2.366.976 2.251-.752 2.25-1.94 2.329 3.49 2.328-1.437 2.327-2.145 2.328 2.178 2.366-.572 2.327.272 2.33 1.242 2.326-.582 2.327 1.592 2.366-1.043 2.251-2.694 2.25-.233 2.33-3.289 2.327 1.674 2.328-.735 2.327-1.789 2.366-1.077 2.328 2.414 2.329.009 2.326-4.25 2.328.75 2.365 2.625 2.252-2.022 2.25-.165 2.329-1.815 2.327-1.516 2.328 4.993 2.327-10.982 2.366 2.59 2.328 1.09 2.33-3.916 2.325-1.229 2.328 2.979 2.366-1.615 2.29-3.541 2.287-3.323 2.33-12.962 2.327-3.357 2.327-3.075 2.328 5.599 2.366 9.69 2.328 5.642 2.329 3.274 2.326 6.078 2.327 2.368 2.366-9.59 2.252-1.261 2.25 1.43 2.328-1.5 2.328-.553 2.328-3.237 2.327 7.208h0" style="fill:none;stroke:#8c564b;stroke-linecap:square;stroke-width:1.5" id="line2d_23"/><path clip-path="url(#pdb7e89d96b)" d="M76.47 323.519h20.911l4.693-.538 2.252.128 4.579-1.12 2.327-.085 2.328.259 2.328.077 2.365-1.413 2.328-.229 2.33.128 2.325.29 2.328-.424 2.366-1.447 2.29.633 2.287-.162 2.33-1.973 2.327.694 2.328-.59 4.693-1.462 2.328.697 2.329.077 2.326-1.328 2.328-.12 2.365-.908 2.252.36 2.25-1.84 2.329 1.5 4.655.417 2.327-1.58 2.366-1.918 2.328.195 2.33.074 2.325-1.117 2.328-1.474 2.366-.64 4.5-.605 2.33.042 2.327-.782 2.328 1.199 2.328-1.401 2.366-.236 2.327 3.375 4.655-2.781 2.328 1.66 2.366-2.792 4.5-.976 2.33.404 2.328-1.716 2.327-2.282 2.328.633 2.366.404 2.327-.168 2.33 1.11 2.326.837 2.327-.601 2.366-3.23 2.29-2 2.288.923 2.329-.933 2.327 1.303L252.99 298l2.328.184 2.365 1.48 2.328-2.186 2.33.605 2.325-2.586 2.328 5.749 2.366-4.374 2.251-2.781 2.25-.82 2.329 2.921 2.328.848 2.327.577 2.328-.51 2.366-.269 2.327.884 2.33-.346 2.326-2.053 2.327 5.317 2.366-6.258 2.251-2.116 2.25.77 2.33.375 2.327-.476 2.328 2.979 2.327-2.71 2.366-1.716 2.328.15 2.329-2.673 2.326 1.977 2.328 3.81 2.365-5.08 2.252-3.776 2.25 2.093 2.329-.141 2.327-2.383 2.328 4.608 2.327-5.752 2.366 3.634 2.328.066 2.33-2.152 2.325.136 2.328 1.446 2.366-6.225 2.29.68 2.287-5.592 2.33-12.839 2.327-1.024 2.327 8.36 2.328.186 2.366 2.39 2.328 4.586 2.329 2.748 2.326 2.016 2.327-1.41 2.366-3.432 2.252-.456 2.25-.924 2.328 2.084 2.328-.637 2.328 1.82 2.327 5.212h0" style="fill:none;stroke:#9467bd;stroke-linecap:square;stroke-width:1.5" id="line2d_24"/><path clip-path="url(#pdb7e89d96b)" d="m37.55 321.433 1.794.504 2.326.435 2.328.104 2.366-.707 2.251-.224 2.25.46 2.33-.78 2.327-1.44 2.327-.16 2.328-.447 2.366 1.11 2.327-.767 2.33-1.184 2.326.419 2.327-.486 2.366-2.086 2.251-1.606 2.25.866 2.33 1.121 2.327-.852 2.328-1.025 2.327-1.364 2.366.437 2.328-1.125 2.329.688 2.326-4.06 2.328 2.108 2.365-1.21 2.252-4.263 2.25-2.198 2.329 2.608 2.327.656 2.328-.796 2.328.257 2.365-1.48 2.328-3.47 2.33.71 2.325-1.093 2.328 1.666 2.366-4.004 2.29-3.183 2.287 1.299 2.33-.263 2.327-.511 2.328.894 2.327-4.562 2.366 1.178 2.328-.58 2.329-2.516 2.326.882 2.328 1.17 2.365-5.988 2.252.623 2.25-.421 2.329-1.886 2.327-1.277 2.328 6.423 2.327-5.01 2.366-.673 2.328-1.27 2.33-2.532 2.325 2.879 2.328-.22 2.366-7.605 2.25-3.383 2.25-2.875 2.33 1.601 2.327.115 2.328.79 2.328-5.804 2.366 8.715 2.327-6.04 2.33 3.82 2.325-5.038 2.328 6.989 2.366-4.24 2.251-3.732 2.25-4.545 2.33-1.877 2.327 6.621 2.327-4.083 2.328-3.353h2.366l2.327-1.48 2.33 6.19 2.326-.94 2.327 4.305 2.366-4.98 2.29-8.028 2.288.828 2.329-2.66 2.327 5.285 2.328 3.79 2.328 1.593 2.365-9.724 2.328 8.374 2.33 2.528 2.325-1.555 2.328 3.843 2.366-2.355 2.251-7.09 2.25-5.158 2.329 4.433 2.328-6.182 2.327 1.592 2.328 4.8 2.366-4.61 2.327 7.077 2.33.259 2.326-4.64 2.327 12.917 2.366-6.393 2.251-1.115 2.25-.77 2.33 3.08 2.327-.657 2.328 4.585 2.327-5.224 2.366-6.998 2.328 4.26 2.329-5.74 2.326 1.673 2.328 9.026 2.365.168 2.252-5.564 2.25-.29 2.329 3.996 2.327 2.228 2.328 5.282 2.327-10.834 2.366 8.21 2.328-1.862 2.33-4.329 2.325-2.103 2.328 8.765 2.366-6.527 2.29-3.37 2.287-7.666 2.33-11.228 2.327 6.349 2.327 4.777 2.328 1.683 2.366 9.388 2.328-.571 2.329 5.718 2.326-.746 2.327 8.553 2.366-6.124 2.252-.023 2.25-3.41 2.328 3.994 2.328 2.904 2.328-3.46 2.327 7.397h0" style="fill:none;stroke:#d62728;stroke-linecap:square;stroke-width:1.5" id="line2d_25"/><path clip-path="url(#pdb7e89d96b)" d="m115.888 323.519 2.365-.067 2.328.032 2.33.035H127.563l2.366-.034 2.29.034h4.617l2.327-.067 2.328-.385 2.327.115 2.366-.37 2.328-.475 2.329.072 2.326-1.115 2.328-.332 2.365-4.105 2.252.106 2.25-.476 2.329-.86 2.327-4.288 2.328-8.438 2.327 4.602 2.366.404 2.328-.66 2.33 2.41 2.325 1.484 2.328-1.518 2.366-4.744 2.25-4.307 2.25-4.172 2.33-3.234 2.327 2.964 2.328.061 2.328-1.81 2.366-1.447 2.327-1.715 2.33-.977 2.325-2.5 2.328 2.366 2.366-3.365 2.251-6.92 2.25 4.935 2.33-3.413 2.327 5.062 2.327-2.037 2.328-5.467 2.366 1.75 2.327 2.604 2.33-3.782 2.326.618 2.327-5.766 2.366-2.355 2.29-4.022 2.288-4.02 2.329-.49 2.327-6.508 2.328 5.464 2.328 5.875 2.365-5.484 2.328 4.372 2.33-2.22 2.325-5.985 2.328 3.429 2.366-8.547 2.251-4.41 2.25-3.362 2.329 7.014 2.328-2.505 2.327 1.88 2.328 1.114 2.366-2.826 2.327 4.32 2.33-4.354 2.326-.55 2.327 8.827 2.366-12.65 2.251-5.44 2.25 2.983 2.33-.916 2.327 2.43 2.328 2.229 2.327-4.82 2.366-8.21 2.328 3.886 2.329-1.867 2.326 3.605 2.328 8.205 2.365-9.724 2.252-2.531 2.25-1.472 2.329-1.014 2.327 2.73 2.328 4.328 2.327-16.24 2.366 5.788 2.328-7.385 2.33-.455 2.325-4.03 2.328 13.754 2.366-8.614 2.29-6.102 2.287-.862 2.33-19.176 2.327 4.674 2.327 8.4 2.328-.157 2.366 12.618 2.328-4.222 2.329 11.018 2.326.734 2.327 11.581 2.366-11.204 2.252-3.41 2.25.785 2.328 1.796 2.328 5.674 2.328-8.386 2.327 11.919" style="fill:none;stroke:#2ca02c;stroke-linecap:square;stroke-width:1.5" id="line2d_26"/><path clip-path="url(#pdb7e89d96b)" d="m37.55 320.846 1.794.351 4.654-.538 2.366-2.086 2.251-.344 2.25-1.507 2.33-.4 2.327-2.392 2.327-.876 2.328-2.758 2.366.605 2.327-1.707 2.33.26 2.326-1.546 2.327-3.534 2.366-3.365 2.251-3.827 2.25 4.466 2.33 1.288 2.327.597 2.328-3.9 2.327-.306 2.366-1.077 2.328.166 2.329 2.122 2.326-5.773 2.328 2.341 2.365-5.215 2.252-6.22 2.25-.812 2.329 2.327 2.327-4.716 2.328.161 2.328 3.069 2.365.471 2.328 1.71 2.33 3.303 2.325-6.327 2.328 4.847 2.366-7.436 2.29-2.126 2.287-3.056 2.33-.852 2.327.819 2.328 1.476 4.693-9.686 2.328 6.557 2.329-1.981 2.326 1.355 2.328 6.25 2.365-8.244 2.252-10.205 2.25 1.22 2.329-.147 2.327.955 2.328-1.338 4.693-3.91 2.328 9.23 2.33-3.645 2.325-2.996 2.328 9.557 2.366-12.685 2.25.37 2.25-6.628 2.33 7.404 2.327 5.987 2.328-2.023 2.328-1.173 2.366 4.845 2.327-1.447 2.33.808 2.325-1.503 2.328 2.882 2.366-5.249 2.251-2.451 2.25 1.105 2.33.584 2.327-3.713 4.655-9.185 2.366 8.613 2.327-2.356 2.33.91 2.326 3.193 2.327-1.747 2.366-3.533 2.29-3.788 2.288-.451 2.329 3.504 2.327 2.081 4.656 3.062 2.365-4.172 2.328 3.097 2.33 3.565 2.325.155 2.328 5.363 2.366-10.195 2.251-13.563 2.25 2.056 2.329 8.03 2.328-5.507 2.327 3.003 2.328-3.305 2.366-3.062 2.327-2.43 2.33 10.505 2.326-3.099 2.327 7.978 2.366-9.859 2.251-4.087 2.25 3.28 2.33-.928 2.327-6.777 2.328 1.562 2.327-2.504 2.366-8.042 2.328 9.016 2.329 3.5 2.326-1.831 2.328 7.686 4.617-23.29 2.25-.263 2.329-2.073 2.327 5.74 2.328 7.332 2.327-17.089 2.366 5.316 2.328-1.369 2.33-.414 2.325-9.738 2.328 12.53 2.366-12.146 2.29-7.018 2.287-14.92 2.33-31.92 2.327 1.168 2.327 11.766 2.328-3.826 2.366 16.655 2.328 8.24 2.329 6.262 2.326 9.14 2.327 5.968 2.366-14.839 2.252 2.514 2.25-.057 2.328 1.756 2.328-2.9 2.328 3.7 2.327 5.451h0" style="fill:none;stroke:#ff7f0e;stroke-linecap:square;stroke-width:1.5" id="line2d_27"/><path clip-path="url(#pdb7e89d96b)" d="M39.344 323.519H67.2l4.653-.202 2.366.135 9.158-.572 2.328.117 2.327-.925 2.366.101 2.328-1.123 6.983-1.165 2.365-.841 2.252-1.523 2.25-1.875 2.329-4.47 2.327.97 2.328-.726 2.328.087 2.365-3.802 2.328-2.44 2.33 5.468 2.325-3.45 2.328-3.986 2.366-2.927 2.29.85 2.287-2.532 2.33-3.714 2.327.012 2.328-.568 2.327-1.45 2.366-3.937 2.328 5.734 2.329-4.792 2.326-1.5 2.328 1.803 2.365-7.739 2.252-2.603 2.25-4.732 2.329 4.3 2.327-3.56 2.328 2.621 2.327-8.374 2.366-3.163 2.328 3.124 2.33-3.528 2.325-6.66 2.328-.641 4.617-19.693 2.25-1.202 2.329 8.707 2.327-2.92 2.328 2.12 2.328-3.6 2.366.572 2.327 1.88 2.33-1.106 2.325-1.779 2.328 6.018 2.366-9.084 2.251-12.42 2.25 3.402 2.33-8.255 2.327-1.67 2.327-11.716 2.328-2.281 2.366 2.725 2.327 2.233 2.33.694 2.326-4.24 2.327 3.265 2.366-16.32 2.29-4.498 2.288-4.115 2.329-.654 2.327 3.649 2.328-3.961 2.328 6.99 2.365-8.177 2.328 11.06 2.33-.697 2.325-2.918 2.328 9.816 2.366-18.439 4.5-15.275 2.33 12.876 2.328-2.042 2.327-8.353 2.328-1.808 2.366 3.936 2.327 8.893 2.33 1.571 2.326-7.864 2.327 19.439 2.366-22.409 2.251-.251 2.25 2.808 2.33 8.166 2.327-2.95 2.328 1.56 2.327-9.333 2.366-15.78 2.328 5.26 2.329-11.014 2.326 8.754 2.328 20.35 2.365-21.365 2.252-9.962 2.25-.031 2.329-4.36 2.327 4.023 2.328 8.529 2.327-22.492 2.366 18.438 2.328-2.344 2.33-8.288 2.325-9.443 2.328 25.223 2.366-26.345 2.29 1.241 2.287-18.132 2.33-51.663 2.327-4.863 2.327 18.631 2.328 3.24 2.366 14.03 2.328 7.242 2.329 17.387 2.326 8.898 2.327 8.195 2.366-23.317 2.252-5.372 2.25-7.683 2.328 11.523 2.328-.756 4.655 24.865h0" style="fill:none;stroke:#1f77b4;stroke-linecap:square;stroke-width:1.5" id="line2d_28"/></g></g><defs><clipPath id="pdb7e89d96b"><path d="M37.549 57.407h357.12v266.112H37.549z"/></clipPath></defs></svg>