<svg height="489.395" viewBox="0 0 466.26 367.046" width="621.68" xmlns="http://www.w3.org/2000/svg" xmlns:xlink="http://www.w3.org/1999/xlink"><defs><style>*{stroke-linecap:butt;stroke-linejoin:round}</style></defs><g id="figure_1"><path d="M0 367.046h466.26V0H0z" style="fill:none" id="patch_1"/><g id="axes_1"><path d="M37.55 323.519h357.12V57.407H37.55z" style="fill:none" id="patch_2"/><g id="matplotlib.axis_1"><g id="xtick_1"><g id="line2d_1"><defs><path d="M0 0v3.5" id="m7c16fd3974" style="stroke:#969696;stroke-width:.4"/></defs><use style="fill:#969696;stroke:#969696;stroke-width:.4" x="46.392" xlink:href="#m7c16fd3974" y="323.519"/></g><g style="fill:#969696" transform="matrix(.14 0 0 -.14 30.825 340.516)" id="text_1"><defs><path d="M3181 371H691c109 602 909 999 1344 1293 583 378 1127 845 1127 1594 0 832-608 1260-1389 1260-973 0-1453-665-1434-1587h403c-12 659 276 1248 1012 1248 544 0 1004-333 1004-915 0-358-128-595-371-845C1626 1658 262 1331 230 0h2951v371z" id="HelveticaNeue-Light-32" transform="scale(.01563)"/><path d="M1779 4179c1024 0 1159-1190 1159-1965 0-780-135-1971-1159-1971S621 1434 621 2214c0 775 134 1965 1158 1965zm0 339C474 4518 218 3258 218 2208 218 1165 474-96 1779-96c1306 0 1562 1261 1562 2310 0 1044-256 2304-1562 2304z" id="HelveticaNeue-Light-30" transform="scale(.01563)"/><path d="M621 3328h1184V0h403v4480h-326c-122-826-557-838-1261-864v-288z" id="HelveticaNeue-Light-31" transform="scale(.01563)"/></defs><use xlink:href="#HelveticaNeue-Light-32"/><use x="55.6" xlink:href="#HelveticaNeue-Light-30"/><use x="111.2" xlink:href="#HelveticaNeue-Light-31"/><use x="166.8" xlink:href="#HelveticaNeue-Light-30"/></g></g><g id="xtick_2"><use style="fill:#969696;stroke:#969696;stroke-width:.4" x="106.717" xlink:href="#m7c16fd3974" y="323.519" id="line2d_2"/><g style="fill:#969696" transform="matrix(.14 0 0 -.14 91.151 340.516)" id="text_2"><use xlink:href="#HelveticaNeue-Light-32"/><use x="55.6" xlink:href="#HelveticaNeue-Light-30"/><use x="111.2" xlink:href="#HelveticaNeue-Light-31"/><use x="166.8" xlink:href="#HelveticaNeue-Light-32"/></g></g><g id="xtick_3"><use style="fill:#969696;stroke:#969696;stroke-width:.4" x="167.126" xlink:href="#m7c16fd3974" y="323.519" id="line2d_3"/><g style="fill:#969696" transform="matrix(.14 0 0 -.14 151.56 340.516)" id="text_3"><defs><path d="M192 1114h2067V0h371v1114h672v339h-672v3027h-364L192 1504v-390zm365 339 1689 2438h13V1453H557z" id="HelveticaNeue-Light-34" transform="scale(.01563)"/></defs><use xlink:href="#HelveticaNeue-Light-32"/><use x="55.6" xlink:href="#HelveticaNeue-Light-30"/><use x="111.2" xlink:href="#HelveticaNeue-Light-31"/><use x="166.8" xlink:href="#HelveticaNeue-Light-34"/></g></g><g id="xtick_4"><use style="fill:#969696;stroke:#969696;stroke-width:.4" x="227.451" xlink:href="#m7c16fd3974" y="323.519" id="line2d_4"/><g style="fill:#969696" transform="matrix(.14 0 0 -.14 211.885 340.516)" id="text_4"><defs><path d="M1856 2579c685 0 1082-531 1082-1184 0-621-436-1152-1076-1152-780 0-1120 519-1120 1152 0 659 410 1184 1114 1184zm1376 768c-96 781-589 1171-1376 1171-1466 0-1600-1702-1600-2233C256 538 736-96 1824-96c883 0 1517 646 1517 1517 0 877-583 1497-1479 1497-505 0-979-300-1190-742h-13c0 813 192 2003 1235 2003 519 0 864-339 935-832h403z" id="HelveticaNeue-Light-36" transform="scale(.01563)"/></defs><use xlink:href="#HelveticaNeue-Light-32"/><use x="55.6" xlink:href="#HelveticaNeue-Light-30"/><use x="111.2" xlink:href="#HelveticaNeue-Light-31"/><use x="166.8" xlink:href="#HelveticaNeue-Light-36"/></g></g><g id="xtick_5"><use style="fill:#969696;stroke:#969696;stroke-width:.4" x="287.86" xlink:href="#m7c16fd3974" y="323.519" id="line2d_5"/><g style="fill:#969696" transform="matrix(.14 0 0 -.14 272.294 340.516)" id="text_5"><defs><path d="M1779 243c-627 0-1139 339-1139 1011 0 660 525 986 1139 973 602 13 1139-326 1139-973 0-684-512-1011-1139-1011zm1357 3155c0 768-698 1120-1363 1120-659 0-1357-352-1357-1120 0-492 262-844 730-985v-13c-551-102-896-563-909-1146C237 352 941-96 1779-96c839 0 1543 448 1543 1350 0 602-340 1031-916 1146v13c455 134 730 499 730 985zm-1357-832c-473-12-960 231-960 832 0 512 467 781 960 781 538 0 954-269 954-781 0-576-461-844-954-832z" id="HelveticaNeue-Light-38" transform="scale(.01563)"/></defs><use xlink:href="#HelveticaNeue-Light-32"/><use x="55.6" xlink:href="#HelveticaNeue-Light-30"/><use x="111.2" xlink:href="#HelveticaNeue-Light-31"/><use x="166.8" xlink:href="#HelveticaNeue-Light-38"/></g></g><g id="xtick_6"><use style="fill:#969696;stroke:#969696;stroke-width:.4" x="348.186" xlink:href="#m7c16fd3974" y="323.519" id="line2d_6"/><g style="fill:#969696" transform="matrix(.14 0 0 -.14 332.62 340.516)" id="text_6"><use xlink:href="#HelveticaNeue-Light-32"/><use x="55.6" xlink:href="#HelveticaNeue-Light-30"/><use x="111.2" xlink:href="#HelveticaNeue-Light-32"/><use x="166.8" xlink:href="#HelveticaNeue-Light-30"/></g></g></g><g id="matplotlib.axis_2"><g id="ytick_1"><path clip-path="url(#p8bc024fb03)" d="M37.55 323.519h357.12" style="fill:none;stroke:#969696;stroke-linecap:square;stroke-width:.3" id="line2d_7"/><g id="line2d_8"><defs><path d="M0 0h-3.5" id="m703a45f823" style="stroke:#969696;stroke-width:.3"/></defs><use style="fill:#969696;stroke:#969696;stroke-width:.3" x="37.549" xlink:href="#m703a45f823" y="323.519"/></g><use xlink:href="#HelveticaNeue-Light-30" style="fill:#969696" transform="matrix(.14 0 0 -.14 22.766 328.517)" id="text_7"/></g><g id="ytick_2"><path clip-path="url(#p8bc024fb03)" d="M37.55 285.193h357.12" style="fill:none;stroke:#969696;stroke-linecap:square;stroke-width:.3" id="line2d_9"/><use style="fill:#969696;stroke:#969696;stroke-width:.3" x="37.549" xlink:href="#m703a45f823" y="285.193" id="line2d_10"/><g style="fill:#969696" transform="matrix(.14 0 0 -.14 14.983 290.191)" id="text_8"><defs><path d="M230 1280C250 429 870-96 1702-96c858 0 1556 640 1556 1517 0 902-583 1549-1504 1549-346 0-724-154-948-416l-12 12 288 1485h1958v371H800L365 2099h345c218 339 602 531 999 531 665 0 1145-505 1145-1164 0-653-428-1223-1120-1223-614 0-1081 416-1100 1037H230z" id="HelveticaNeue-Light-35" transform="scale(.01563)"/></defs><use xlink:href="#HelveticaNeue-Light-35"/><use x="55.6" xlink:href="#HelveticaNeue-Light-30"/></g></g><g id="ytick_3"><path clip-path="url(#p8bc024fb03)" d="M37.55 246.866h357.12" style="fill:none;stroke:#969696;stroke-linecap:square;stroke-width:.3" id="line2d_11"/><use style="fill:#969696;stroke:#969696;stroke-width:.3" x="37.549" xlink:href="#m703a45f823" y="246.866" id="line2d_12"/><g style="fill:#969696" transform="matrix(.14 0 0 -.14 7.2 251.865)" id="text_9"><use xlink:href="#HelveticaNeue-Light-31"/><use x="55.6" xlink:href="#HelveticaNeue-Light-30"/><use x="111.2" xlink:href="#HelveticaNeue-Light-30"/></g></g><g id="ytick_4"><path clip-path="url(#p8bc024fb03)" d="M37.55 208.54h357.12" style="fill:none;stroke:#969696;stroke-linecap:square;stroke-width:.3" id="line2d_13"/><use style="fill:#969696;stroke:#969696;stroke-width:.3" x="37.549" xlink:href="#m703a45f823" y="208.54" id="line2d_14"/><g style="fill:#969696" transform="matrix(.14 0 0 -.14 7.2 213.539)" id="text_10"><use xlink:href="#HelveticaNeue-Light-31"/><use x="55.6" xlink:href="#HelveticaNeue-Light-35"/><use x="111.2" xlink:href="#HelveticaNeue-Light-30"/></g></g><g id="ytick_5"><path clip-path="url(#p8bc024fb03)" d="M37.55 170.214h357.12" style="fill:none;stroke:#969696;stroke-linecap:square;stroke-width:.3" id="line2d_15"/><use style="fill:#969696;stroke:#969696;stroke-width:.3" x="37.549" xlink:href="#m703a45f823" y="170.214" id="line2d_16"/><g style="fill:#969696" transform="matrix(.14 0 0 -.14 7.2 175.212)" id="text_11"><use xlink:href="#HelveticaNeue-Light-32"/><use x="55.6" xlink:href="#HelveticaNeue-Light-30"/><use x="111.2" xlink:href="#HelveticaNeue-Light-30"/></g></g><g id="ytick_6"><path clip-path="url(#p8bc024fb03)" d="M37.55 131.888h357.12" style="fill:none;stroke:#969696;stroke-linecap:square;stroke-width:.3" id="line2d_17"/><use style="fill:#969696;stroke:#969696;stroke-width:.3" x="37.549" xlink:href="#m703a45f823" y="131.888" id="line2d_18"/><g style="fill:#969696" transform="matrix(.14 0 0 -.14 7.2 136.886)" id="text_12"><use xlink:href="#HelveticaNeue-Light-32"/><use x="55.6" xlink:href="#HelveticaNeue-Light-35"/><use x="111.2" xlink:href="#HelveticaNeue-Light-30"/></g></g><g id="ytick_7"><path clip-path="url(#p8bc024fb03)" d="M37.55 93.561h357.12" style="fill:none;stroke:#969696;stroke-linecap:square;stroke-width:.3" id="line2d_19"/><use style="fill:#969696;stroke:#969696;stroke-width:.3" x="37.549" xlink:href="#m703a45f823" y="93.561" id="line2d_20"/><g style="fill:#969696" transform="matrix(.14 0 0 -.14 7.2 98.56)" id="text_13"><defs><path d="M211 1427C147 467 813-96 1741-96c825 0 1542 486 1542 1363 0 589-339 1011-921 1107v13c480 115 755 506 755 992 0 794-685 1139-1389 1139-870 0-1408-627-1414-1472h403c-13 666 345 1133 1017 1133 538 0 980-256 980-845 0-563-493-819-909-812h-339v-340h339c595 0 1075-313 1075-947 0-640-557-992-1146-992-723 0-1145 474-1120 1184H211z" id="HelveticaNeue-Light-33" transform="scale(.01563)"/></defs><use xlink:href="#HelveticaNeue-Light-33"/><use x="55.6" xlink:href="#HelveticaNeue-Light-30"/><use x="111.2" xlink:href="#HelveticaNeue-Light-30"/></g></g></g><path clip-path="url(#p8bc024fb03)" d="M37.55 323.519h10.123l62.804-.08 5-.176 2.52-.585 2.52-.999 2.521-.51 2.562-1.977 2.52-.451 2.523-2.319 5.039-1.384 2.562-6.701 2.438-3.543 2.436-4.27 2.522-5.622 5.04-3.552 2.521-9.05 2.562-6.454 2.52-2.841 2.523-4.577 2.518-.687 2.52 2.22 2.563-17.754 2.437-12.376 4.959-6.711 2.52-.125 2.52-3.401 2.521-13.685 2.562 2.3 2.52-3.562 2.522-1.582 2.52 2.45 2.52 4.844 5-23.673 2.435-4.762 5.043-10.979 2.52-10.961 2.52-9.34 2.563 11.894 2.52-.382 2.522.728 2.52 2.644 2.52 6.802 2.561-11.918 2.48-10.269 2.477 3.89 2.522-.743 2.52 6.207 2.521-1.327 2.52 12.775 2.562-1.508 2.52 13.568 2.523 17.736 2.519-2.43 2.52 10.219 2.562-3.24 2.438.23 2.436-2.826 2.522 16.568 2.52 3.164 2.52 7.107 2.521 8.248 2.562 7.295 2.52 3.85 2.523 9.453 2.518 1.355 2.52 11.057 2.563-1.904 2.438 2.555 2.436 6.47 5.042 2.176 2.52 4.916 2.521 1.464 2.562-.42 2.52.464 2.523-.044 2.518 3.212 2.52 3.415 2.563-2.448 2.437-.562 2.436 4.172 2.523.814 2.52 1.584 2.52 2.172 2.521-1.405 2.562 3.165 2.52.872 2.522-1.293 2.52 1.6 2.52 1.145 2.561-1.236 2.48 1.06 2.477-2.05 2.522-1.679 2.52 2.026 2.521-.007 2.52.947 2.562 2.2 2.52-1.538 2.523 1.76 2.519 1.97 2.52 2.358 2.562-1.434 2.438-.175 2.436-1.21 2.522.794 2.52.467 2.52-.748 2.521.946h0" style="fill:none;stroke:#d62728;stroke-linecap:square;stroke-width:1.5" id="line2d_21"/><path clip-path="url(#p8bc024fb03)" d="m170.844 323.519 2.437-.025 2.522.025 2.52-.099 2.52.099 2.521-.074 2.562.074 2.52-.051 2.522.001 2.52-.027 2.52.003 2.561-.025 2.438.071 2.436-.022 2.523-.078 2.52-.144 2.52-.674 2.52-.142 2.563.05 2.52-.265 2.522.363 2.52-.72 2.52-.343 2.561-1.137 2.48.02 2.477.054 2.522-1.635 2.52 1.017 2.521-.123 2.52-.1 2.562-1.508 2.52-.487 2.523-1.936 2.519-2.434 2.52-.83 2.562-1.88 2.438-1.007 2.436-3.22 2.522 2.262 2.52-2.708 2.52-.358 2.521-1.002 2.562-.222 2.52-3.273 2.523 2.382 2.518-2.05 2.52 2.594 2.563-1.78 2.438-4.753 2.436-3.48 2.522.418 2.52.372 2.52-.602 2.521-2.736 2.562-5.835 2.52.829 2.523-1.25 2.518-.82 2.52 6.161 2.563-6.577 2.437-3.59 2.436-1.578 2.523.525 2.52 2.245 2.52-2.296 2.521-3.194 2.562-.47 2.52-.705 2.522-3.547 2.52 3.317 2.52.91 2.561-4.08 2.48-2.508 2.477-2.56 2.522-12.407 2.52 2.961 2.521 5.777 2.52.01 2.562 4.524 2.52-2.898 2.523 4.728 2.519.995 2.52 5.286 2.562-6.33 2.438.81 2.436-2.393 2.522 2.218 2.52 5.225 2.52-1.392 2.521 2.134" style="fill:none;stroke:#2ca02c;stroke-linecap:square;stroke-width:1.5" id="line2d_22"/><path clip-path="url(#p8bc024fb03)" d="m143.118 323.519 2.522-.026 2.52.026H175.803l2.52-.025 2.52.025h2.521l2.562-.025 2.52.025 2.522-.025 2.52-.026 2.52.05 2.561-.024 2.438-.057 2.436-.437 2.523.161 2.52-.68 2.52-.495 2.52-.05 2.563-.197 2.52-.162 2.522-1.075 2.52-2.681 2.52-5.033 2.561-11.845 2.48-5.918 2.477-5.629 2.522-4.893 2.52-7.544 2.521-9.652 2.52-1.92 2.562-7.616 2.52-8.63 2.523-9.297 2.519-.336 2.52 3.08 2.562-9.025 2.438-19.192 2.436-5.09 2.522 7.69 2.52-3.09 2.52-7.283 2.521-5.451 2.562-3.71 2.52 7.066 2.523-.068 2.518-11.277 2.52 23.69 2.563-13.08 2.438-2.838 2.436 1.058 2.522-2.11 2.52-3.355 2.52 3.713 2.521-1.908 2.562-13.303 2.52 12.758 2.523-7.392 2.518 7.086 2.52 15.588 2.563-12.759 2.437-12.353 2.436 2.636 2.523 5.891 2.52 1.75 2.52 2.645 2.521-11.968 2.562 14.886 2.52-7.696 2.522-5.261 2.52-4.142 2.52 21.648 2.561-1.706 2.48-17.708 2.477 2.55 2.522-20.728 2.52 12.272 2.521 6.84 2.52-.831 2.562 23.342 2.52.05 2.523 10.557 2.519 4.902 2.52 14.163 2.562-9.124 2.438-3.712 2.436-8.256 2.522 12.014 2.52 1.487 2.52-3.48 2.521 9.24" style="fill:none;stroke:#ff7f0e;stroke-linecap:square;stroke-width:1.5" id="line2d_23"/><g style="fill:#1f77b4" transform="matrix(.14 0 0 -.14 405.383 109.512)" id="text_14"><defs><path d="M384 0h403v1760c0 685 499 1222 1229 1184v403c-595 26-1043-288-1248-819h-13v774H384V0z" id="HelveticaNeue-Light-72" transform="scale(.01563)"/><path d="M3162 1542c32 928-391 1856-1453 1856-1050 0-1491-876-1491-1747C218 710 659-96 1709-96c832 0 1267 435 1440 1184h-403c-128-499-448-845-1037-845-775 0-1082 711-1088 1299h2541zM621 1882c64 601 429 1177 1088 1177 653 0 1030-569 1049-1177H621z" id="HelveticaNeue-Light-65" transform="scale(.01563)"/><path d="M2496 1280c6-646-538-1037-1152-1037-378 0-736 250-736 653 0 646 851 640 1536 762 109 19 288 51 339 147h13v-525zM749 2291c13 538 384 768 883 768 474 0 864-134 864-678 0-365-186-410-518-448-871-103-1773-135-1773-1063 0-665 499-966 1107-966 634 0 922 243 1203 672h13c0-346 64-576 474-576 108 0 172 6 262 26v339c-32-13-83-26-128-26-160 0-237 90-237 243v1754c0 883-633 1062-1216 1062-755 0-1299-332-1337-1107h403z" id="HelveticaNeue-Light-61" transform="scale(.01563)"/><path d="M3117 2266c-90 755-634 1132-1338 1132-1011 0-1561-800-1561-1747S768-96 1779-96c736 0 1255 486 1363 1280h-403c-51-550-461-941-960-941-774 0-1158 704-1158 1408s384 1408 1158 1408c525 0 826-301 935-793h403z" id="HelveticaNeue-Light-63" transform="scale(.01563)"/><path d="M1024 4294H621v-992H45v-339h576V704c-7-563 179-742 717-742 121 0 236 12 358 12v346c-115-13-230-19-346-19-288 19-326 173-326 435v2227h672v339h-672v992z" id="HelveticaNeue-Light-74" transform="scale(.01563)"/><path d="M390-403c0-275-51-480-364-480-64-7-154 0-218 6v-333c96 0 186-12 282-12 569 0 704 422 704 915v3609H390V-403zm0 4326h404v647H390v-647z" id="HelveticaNeue-Light-6a" transform="scale(.01563)"/><path d="M2765 2336c-26 717-551 1062-1210 1062-582 0-1241-256-1241-928 0-563 396-742 921-883l519-115c364-90 723-218 723-602 0-460-525-627-903-627-537 0-940 282-972 826H198C262 262 787-96 1555-96c615 0 1325 275 1325 992 0 576-480 845-941 915l-537 122c-276 70-685 198-685 557 0 428 422 569 781 569 460 0 844-224 864-723h403z" id="HelveticaNeue-Light-73" transform="scale(.01563)"/></defs><use xlink:href="#HelveticaNeue-Light-72"/><use x="31.5" xlink:href="#HelveticaNeue-Light-65"/><use x="83.4" xlink:href="#HelveticaNeue-Light-61"/><use x="135.3" xlink:href="#HelveticaNeue-Light-63"/><use x="187.2" xlink:href="#HelveticaNeue-Light-74"/><use x="216.8" xlink:href="#HelveticaNeue-Light-6a"/><use x="235.3" xlink:href="#HelveticaNeue-Light-73"/></g><g style="fill:#ff7f0e" transform="matrix(.14 0 0 -.14 405.383 243.772)" id="text_15"><defs><path d="M378 0h403v1926c13 647 397 1133 1037 1133 652 0 838-429 838-998V0h403v2125c0 787-281 1273-1209 1273-468 0-909-268-1056-665h-13v569H378V0z" id="HelveticaNeue-Light-6e" transform="scale(.01563)"/><path d="M1709 378c-743 0-1088 646-1088 1312 0 684 320 1369 1088 1369 761 0 1062-723 1062-1369 0-672-365-1312-1062-1312zm1465 2924h-403v-569h-13c-160 365-569 665-1049 665-954 0-1491-755-1491-1664C218 794 653 38 1709 38c473 0 864 276 1049 679h13V269c0-807-320-1248-1062-1248-448 0-877 173-967 659H339c58-704 711-998 1370-998 1081 0 1459 601 1465 1587v3033z" id="HelveticaNeue-Light-67" transform="scale(.01563)"/><path d="M3059 3302h-403V1568c0-672-301-1325-992-1325-640 0-864 314-883 909v2150H378V1158C378 390 704-96 1536-96c493 0 928 250 1139 691h13V0h371v3302z" id="HelveticaNeue-Light-75" transform="scale(.01563)"/><path d="M390 0h404v4570H390V0z" id="HelveticaNeue-Light-6c" transform="scale(.01563)"/></defs><use xlink:href="#HelveticaNeue-Light-61"/><use x="51.9" xlink:href="#HelveticaNeue-Light-6e"/><use x="105.6" xlink:href="#HelveticaNeue-Light-67"/><use x="161.2" xlink:href="#HelveticaNeue-Light-75"/><use x="214.9" xlink:href="#HelveticaNeue-Light-6c"/><use x="233.4" xlink:href="#HelveticaNeue-Light-61"/><use x="285.3" xlink:href="#HelveticaNeue-Light-72"/></g><g style="fill:#2ca02c" transform="matrix(.14 0 0 -.14 405.383 279.26)" id="text_16"><defs><path d="M1286 0h429l1235 3302h-416L1510 403h-12L461 3302H13L1286 0z" id="HelveticaNeue-Light-76" transform="scale(.01563)"/><path d="M1158 0v678H621V0h537z" id="HelveticaNeue-Light-2e" transform="scale(.01563)"/></defs><use xlink:href="#HelveticaNeue-Light-76"/><use x="46.3" xlink:href="#HelveticaNeue-Light-75"/><use x="100" xlink:href="#HelveticaNeue-Light-65"/><use x="151.9" xlink:href="#HelveticaNeue-Light-2e"/><use x="179.7" xlink:href="#HelveticaNeue-Light-6a"/><use x="198.2" xlink:href="#HelveticaNeue-Light-73"/></g><g style="fill:#d62728" transform="matrix(.14 0 0 -.14 405.383 320.919)" id="text_17"><use xlink:href="#HelveticaNeue-Light-61"/><use x="51.9" xlink:href="#HelveticaNeue-Light-6e"/><use x="105.6" xlink:href="#HelveticaNeue-Light-67"/><use x="161.2" xlink:href="#HelveticaNeue-Light-75"/><use x="214.9" xlink:href="#HelveticaNeue-Light-6c"/><use x="233.4" xlink:href="#HelveticaNeue-Light-61"/><use x="285.3" xlink:href="#HelveticaNeue-Light-72"/><use x="316.8" xlink:href="#HelveticaNeue-Light-6a"/><use x="335.3" xlink:href="#HelveticaNeue-Light-73"/></g><g style="fill:#969696" transform="matrix(.09716 0 0 -.09716 37.55 357.766)" id="text_18"><defs><path d="M230 1504C179 390 973-96 2054-96c1620 0 1748 992 1748 1306 0 748-538 1030-1184 1203l-1114 275c-371 90-691 269-691 698 0 678 550 908 1145 908 647 0 1223-352 1248-1049h436c6 934-788 1421-1690 1421-1286 0-1574-839-1574-1287 0-710 492-966 1030-1101l1018-249c422-103 940-307 940-826 0-665-729-928-1209-928-832 0-1511 288-1491 1229H230z" id="HelveticaNeue-Light-53" transform="scale(.01563)"/><path d="M384 0h403v1254l653 544L2746 0h505L1747 2080l1408 1222h-537L787 1702v2868H384V0z" id="HelveticaNeue-Light-6b" transform="scale(.01563)"/><path d="M218 2285C218 1037 934-96 2374-96c1434 0 2151 1133 2151 2381s-717 2381-2151 2381C934 4666 218 3533 218 2285zm435 0c0 998 512 2009 1721 2009 1204 0 1716-1011 1716-2009 0-999-512-2010-1716-2010-1209 0-1721 1011-1721 2010z" id="HelveticaNeue-Light-4f" transform="scale(.01563)"/><path d="M1658 3302h-653v288c6 359-7 640 441 640 96 0 186-12 295-32v346c-128 19-224 26-339 26-647 0-807-397-800-967v-301H38v-339h564V0h403v2963h653v339z" id="HelveticaNeue-Light-66" transform="scale(.01563)"/><path d="M1779 3398c-1011 0-1561-800-1561-1747S768-96 1779-96s1562 800 1562 1747-551 1747-1562 1747zm0-339c775 0 1159-704 1159-1408S2554 243 1779 243c-774 0-1158 704-1158 1408s384 1408 1158 1408z" id="HelveticaNeue-Light-6f" transform="scale(.01563)"/><path d="M1114 0h441l807 2778h12L3187 0h442l1062 3302h-429L3418 474h-13l-807 2828h-454L1338 474h-13L480 3302H51L1114 0z" id="HelveticaNeue-Light-77" transform="scale(.01563)"/><path d="M-45 0h467l551 1421h2080L3610 0h467L2285 4570h-487L-45 0zm2067 4134 884-2342H1107l915 2342z" id="HelveticaNeue-Light-41" transform="scale(.01563)"/><path d="M461 0h435v1958h1594c819 0 1356 480 1356 1306s-537 1306-1356 1306H461V0zm435 4198h1498c601 0 1017-307 1017-934s-416-934-1017-934H896v1868z" id="HelveticaNeue-Light-50" transform="scale(.01563)"/><path d="M493 0h435v4570H493V0z" id="HelveticaNeue-Light-49" transform="scale(.01563)"/><path d="M390 0h404v3302H390V0zm0 3923h404v647H390v-647z" id="HelveticaNeue-Light-69" transform="scale(.01563)"/><path d="M544-1370h339v6400H544v-6400z" id="HelveticaNeue-Light-7c" transform="scale(.01563)"/><path d="M454 0h436v3866h12L3565 0h486v4570h-435V704h-13L941 4570H454V0z" id="HelveticaNeue-Light-4e" transform="scale(.01563)"/><path d="M378 0h403v1926c13 647 397 1133 1037 1133 652 0 838-429 838-998V0h403v2125c0 787-281 1273-1209 1273-468 0-909-268-1056-665h-13v1837H378V0z" id="HelveticaNeue-Light-68" transform="scale(.01563)"/><path d="M1779 3398c-1011 0-1561-800-1561-1747S768-96 1779-96s1562 800 1562 1747-551 1747-1562 1747zm0-339c775 0 1159-704 1159-1408S2554 243 1779 243c-774 0-1158 704-1158 1408s384 1408 1158 1408zm787 813v646h-435v-646h435zm-1132 0v646H998v-646h436z" id="HelveticaNeue-Light-f6" transform="scale(.01563)"/><path d="M384 0h403v1843c7 691 288 1216 986 1216 512 0 697-371 691-819V0h403v1869c0 614 199 1190 896 1190 576 0 781-294 781-838V0h403v2240c0 781-371 1158-1094 1158-435 0-851-211-1050-646-121 435-512 646-947 646-525 0-870-256-1082-652h-19v556H384V0z" id="HelveticaNeue-Light-6d" transform="scale(.01563)"/><path d="M4237 3187c-115 960-973 1479-1837 1479-1440 0-2157-1133-2157-2381S960-96 2400-96c1069 0 1779 717 1901 1837h-435c-84-813-621-1466-1466-1466-1210 0-1722 1011-1722 2010 0 998 512 2009 1722 2009 666 0 1248-403 1402-1107h435z" id="HelveticaNeue-Light-43" transform="scale(.01563)"/><path d="M896 2195h1498c761 0 1203-301 1203-883 0-730-557-947-1203-941H896v1824zM461 0h1933c1484 0 1638 864 1638 1299 0 595-378 1037-966 1114v13c473 102 793 544 793 1024 0 851-697 1120-1465 1120H461V0zm435 4198h1498c678 0 1030-288 1030-857 0-429-333-775-1030-775H896v1632z" id="HelveticaNeue-Light-42" transform="scale(.01563)"/><path d="M1734 0h436v1882l1804 2688h-518L1958 2253 454 4570H-64l1798-2688V0z" id="HelveticaNeue-Light-59" transform="scale(.01563)"/></defs><use xlink:href="#HelveticaNeue-Light-53"/><use x="63" xlink:href="#HelveticaNeue-Light-74"/><use x="92.6" xlink:href="#HelveticaNeue-Light-61"/><use x="144.5" xlink:href="#HelveticaNeue-Light-63"/><use x="196.4" xlink:href="#HelveticaNeue-Light-6b"/><use x="246.4" xlink:href="#HelveticaNeue-Light-4f"/><use x="320.5" xlink:href="#HelveticaNeue-Light-76"/><use x="366.8" xlink:href="#HelveticaNeue-Light-65"/><use x="418.7" xlink:href="#HelveticaNeue-Light-72"/><use x="450.2" xlink:href="#HelveticaNeue-Light-66"/><use x="476.1" xlink:href="#HelveticaNeue-Light-6c"/><use x="494.6" xlink:href="#HelveticaNeue-Light-6f"/><use x="550.2" xlink:href="#HelveticaNeue-Light-77"/><use x="624.3" xlink:href="#HelveticaNeue-Light-20"/><use x="652.1" xlink:href="#HelveticaNeue-Light-41"/><use x="715.1" xlink:href="#HelveticaNeue-Light-50"/><use x="778.1" xlink:href="#HelveticaNeue-Light-49"/><use x="800.3" xlink:href="#HelveticaNeue-Light-20"/><use x="828.1" xlink:href="#HelveticaNeue-Light-76"/><use x="874.4" xlink:href="#HelveticaNeue-Light-69"/><use x="892.9" xlink:href="#HelveticaNeue-Light-61"/><use x="944.8" xlink:href="#HelveticaNeue-Light-20"/><use x="972.6" xlink:href="#HelveticaNeue-Light-73"/><use x="1020.7" xlink:href="#HelveticaNeue-Light-74"/><use x="1050.3" xlink:href="#HelveticaNeue-Light-61"/><use x="1102.2" xlink:href="#HelveticaNeue-Light-63"/><use x="1154.1" xlink:href="#HelveticaNeue-Light-6b"/><use x="1204.1" xlink:href="#HelveticaNeue-Light-74"/><use x="1233.7" xlink:href="#HelveticaNeue-Light-61"/><use x="1285.6" xlink:href="#HelveticaNeue-Light-67"/><use x="1341.2" xlink:href="#HelveticaNeue-Light-73"/><use x="1389.3" xlink:href="#HelveticaNeue-Light-20"/><use x="1417.1" xlink:href="#HelveticaNeue-Light-7c"/><use x="1439.3" xlink:href="#HelveticaNeue-Light-20"/><use x="1467.1" xlink:href="#HelveticaNeue-Light-4e"/><use x="1537.5" xlink:href="#HelveticaNeue-Light-69"/><use x="1556" xlink:href="#HelveticaNeue-Light-63"/><use x="1607.9" xlink:href="#HelveticaNeue-Light-6f"/><use x="1663.5" xlink:href="#HelveticaNeue-Light-20"/><use x="1691.3" xlink:href="#HelveticaNeue-Light-53"/><use x="1754.3" xlink:href="#HelveticaNeue-Light-63"/><use x="1806.2" xlink:href="#HelveticaNeue-Light-68"/><use x="1859.9" xlink:href="#HelveticaNeue-Light-6c"/><use x="1878.4" xlink:href="#HelveticaNeue-Light-f6"/><use x="1934" xlink:href="#HelveticaNeue-Light-6d"/><use x="2017.3" xlink:href="#HelveticaNeue-Light-65"/><use x="2069.2" xlink:href="#HelveticaNeue-Light-72"/><use x="2100.7" xlink:href="#HelveticaNeue-Light-20"/><use x="2128.5" xlink:href="#HelveticaNeue-Light-7c"/><use x="2150.7" xlink:href="#HelveticaNeue-Light-20"/><use x="2178.499" xlink:href="#HelveticaNeue-Light-43"/><use x="2248.899" xlink:href="#HelveticaNeue-Light-43"/><use x="2319.299" xlink:href="#HelveticaNeue-Light-20"/><use x="2347.099" xlink:href="#HelveticaNeue-Light-42"/><use x="2413.799" xlink:href="#HelveticaNeue-Light-59"/></g><g style="fill:#969696" transform="matrix(.14 0 0 -.14 82.697 17.407)" id="text_19"><defs><path d="M896 4198h928c1312 7 1882-550 1882-1913S3136 365 1824 371H896v3827zM461 0h1581c1376 32 2099 787 2099 2285 0 1497-723 2253-2099 2285H461V0z" id="HelveticaNeue-Light-44" transform="scale(.01563)"/><path d="m1331 13-141-378c-134-307-217-518-576-518-89 0-179 13-275 32v-339c64-26 147-26 307-32 506 0 640 160 871 716l1433 3808h-403L1530 486 442 3302H13L1331 13z" id="HelveticaNeue-Light-79" transform="scale(.01563)"/><path d="M3027 1651c0-685-313-1408-1081-1408-858 0-1159 723-1159 1408s301 1408 1159 1408c768 0 1081-723 1081-1408zM384 0h371v627h13C954 179 1414-96 1946-96c1004 0 1484 813 1484 1747 0 935-480 1747-1484 1747-493 0-973-249-1146-723h-13v1895H384V0z" id="HelveticaNeue-Light-62" transform="scale(.01563)"/><path d="M646 1651c0 685 314 1408 1082 1408 858 0 1158-723 1158-1408S2586 243 1728 243C960 243 646 966 646 1651zm2644 1651h-372v-627h-12c-173 429-698 723-1178 723-1005 0-1485-812-1485-1747C243 717 723-96 1728-96c493 0 973 250 1146 723h12v-1849h404v4524z" id="HelveticaNeue-Light-71" transform="scale(.01563)"/></defs><use xlink:href="#HelveticaNeue-Light-44"/><use x="68.5" xlink:href="#HelveticaNeue-Light-61"/><use x="120.4" xlink:href="#HelveticaNeue-Light-69"/><use x="138.9" xlink:href="#HelveticaNeue-Light-6c"/><use x="157.4" xlink:href="#HelveticaNeue-Light-79"/><use x="203.7" xlink:href="#HelveticaNeue-Light-20"/><use x="231.5" xlink:href="#HelveticaNeue-Light-6e"/><use x="285.2" xlink:href="#HelveticaNeue-Light-75"/><use x="338.9" xlink:href="#HelveticaNeue-Light-6d"/><use x="422.2" xlink:href="#HelveticaNeue-Light-62"/><use x="479.6" xlink:href="#HelveticaNeue-Light-65"/><use x="531.5" xlink:href="#HelveticaNeue-Light-72"/><use x="563" xlink:href="#HelveticaNeue-Light-20"/><use x="590.8" xlink:href="#HelveticaNeue-Light-6f"/><use x="646.4" xlink:href="#HelveticaNeue-Light-66"/><use x="672.3" xlink:href="#HelveticaNeue-Light-20"/><use x="700.1" xlink:href="#HelveticaNeue-Light-71"/><use x="757.5" xlink:href="#HelveticaNeue-Light-75"/><use x="811.2" xlink:href="#HelveticaNeue-Light-65"/><use x="863.1" xlink:href="#HelveticaNeue-Light-73"/><use x="911.2" xlink:href="#HelveticaNeue-Light-74"/><use x="940.8" xlink:href="#HelveticaNeue-Light-69"/><use x="959.3" xlink:href="#HelveticaNeue-Light-6f"/><use x="1014.9" xlink:href="#HelveticaNeue-Light-6e"/><use x="1068.6" xlink:href="#HelveticaNeue-Light-73"/><use x="1116.7" xlink:href="#HelveticaNeue-Light-20"/><use x="1144.5" xlink:href="#HelveticaNeue-Light-6f"/><use x="1200.1" xlink:href="#HelveticaNeue-Light-6e"/><use x="1253.8" xlink:href="#HelveticaNeue-Light-20"/><use x="1281.6" xlink:href="#HelveticaNeue-Light-53"/><use x="1344.6" xlink:href="#HelveticaNeue-Light-74"/><use x="1374.2" xlink:href="#HelveticaNeue-Light-61"/><use x="1426.1" xlink:href="#HelveticaNeue-Light-63"/><use x="1478" xlink:href="#HelveticaNeue-Light-6b"/><use x="1528" xlink:href="#HelveticaNeue-Light-4f"/><use x="1602.1" xlink:href="#HelveticaNeue-Light-76"/><use x="1648.4" xlink:href="#HelveticaNeue-Light-65"/><use x="1700.3" xlink:href="#HelveticaNeue-Light-72"/><use x="1731.8" xlink:href="#HelveticaNeue-Light-66"/><use x="1757.7" xlink:href="#HelveticaNeue-Light-6c"/><use x="1776.2" xlink:href="#HelveticaNeue-Light-6f"/><use x="1831.8" xlink:href="#HelveticaNeue-Light-77"/></g><path clip-path="url(#p8bc024fb03)" d="m145.64 323.519 2.52-.025 2.52-.026 2.521.001 2.562.025 2.52-.205 2.523.082 2.518-.031 2.52-.39 2.563-.692 2.437-.19 2.437.24 2.522.214 2.52-.808 2.52-.137 2.521-.234 2.562.099 2.52-.58 2.522-.928 2.52-.963 2.52-.15 2.561-.668 2.438-4.736 2.436-.432 2.523-1.884 2.52.599 2.52-2.362 2.52-2.683 2.563 1.064 2.52-4.64 2.522-1.394 2.52-4.177 2.52-.372 2.561-3.734 2.48-1.258 2.477-6.012 2.522-1.63 2.52-.274 2.521-4.733 2.52-2.71 2.562-5.39 2.52 3.04 2.523.67 2.519-3.94 2.52 1.244 2.562-6.256 2.438-6.091 2.436-2.192 2.522-2.853 2.52-7.532 2.52-3.174 2.521-3.725 2.562 1.038 2.52 9.305 2.523-5.769 2.518-1.896 2.52 9.784 2.563-11.424 2.438-8.09 2.436-4.496 2.522-.083 2.52-2.587 2.52-1.859 2.521-9.614 2.562-14.787 2.52 6.67 2.523-7.09 2.518 2.081 2.52 11.47 2.563-14.738 2.437-14.161 2.436-1.911 2.523 2.553 2.52-4.21 2.52 6.459 2.521-21.542 2.562 9.347 2.52-5.027 2.522-10.576 2.52-6.798 2.52 14.439 2.561-23.095 2.48-12.62 2.477-15.519 2.522-58.433 2.52 6.26 2.521 3.194 2.52 2.493 2.562 21.932 2.52 4.933 2.523 8.766 2.519 5.082 2.52 16.48 2.562-32.516 2.438-4.768 2.436-12.392 2.522 8.54 2.52 8.027 2.52.43 2.521 11.982" style="fill:none;stroke:#1f77b4;stroke-linecap:square;stroke-width:1.5" id="line2d_24"/></g></g><defs><clipPath id="p8bc024fb03"><path d="M37.549 57.407h357.12v266.112H37.549z"/></clipPath></defs></svg>