<svg height="475.651" viewBox="0 0 464.081 356.738" width="618.775" xmlns="http://www.w3.org/2000/svg" xmlns:xlink="http://www.w3.org/1999/xlink"><defs><style>*{stroke-linecap:butt;stroke-linejoin:round}</style></defs><g id="figure_1"><path d="M0 356.738h464.08V0H0z" style="fill:none" id="patch_1"/><g id="axes_1"><path d="M29.77 313.628h357.12V47.516H29.77z" style="fill:none" id="patch_2"/><path clip-path="url(#p0f54e4d85a)" d="m29.77 313.628 1.807-.66 2.342.66 2.343-.165 2.38-.33 2.267-.052 2.265.382 2.344-2.56 2.343.252 2.343 1.962 2.343-.643 2.381.66 2.343.324 2.344-.654 2.342.313 2.343.017 2.381-.165 2.266-.801 2.265.8 2.344-1.384 2.343-.1 2.343 1.292 2.343.193 2.381-1.814 2.343 1.451 2.344.198 2.342-.539 2.343-.12 2.381.494 4.53-.495 2.345.462 2.343-.132 2.343-.72 2.343-.27 2.381-.988 2.343.066 2.345 1.582 2.34.632 2.344-1.786 2.381-1.154 2.305-.261 2.302.756 2.345.401 2.343-.071 2.343-.61 2.343-1.204 2.38 1.319 2.344-1.138 2.344 1.303 2.342-.11 2.343-1.374 2.38.99 2.267-2.415 2.264.6 2.345-.697 2.343 1.687 2.343.527 2.343-.857 2.381-.66 2.343 1.177 2.344-2.166 2.342 1.825 2.343-.835 2.38.33 2.267-2.939 2.264 1.29 2.345 2.665 2.343.302 2.343-2.517 2.343 1.034 2.381.164 2.343.336 2.344-1.49 2.342-.725 2.343 3.363 4.647-2.231 2.265-.077 2.344-.544 2.343.05 2.343-.39 2.343-.105 2.381 1.319 2.343.66 2.344.824 2.342-.995 2.343.665 2.381-.824 2.304-2.314 2.303.5 2.345 1.803 2.343.01 2.343-1.884 2.343 3.039 2.38-.99 2.344-1.198 2.344 1.198 2.342.506 2.342-.34 2.382-.495 2.266-.236 2.264-.424 2.345 2.347 2.343-.863 2.343.522 2.343-2.006 2.38 1.649 2.344-.495 2.344-1.484 2.342.462 2.343 3.166 2.38-3.133 2.267 1.537 2.264-2.032 2.345 3.699 2.343-1.555 2.343-.66 2.343.165 2.38.33 2.344.868 2.344-2.022 2.342-.874 2.343.709 2.38-.66 2.267 2.032 2.264.441 2.345-.478 2.343.973 2.343-.973 2.343-2.49 2.381-.164 2.343.95 2.344-4.412 2.342-.698 2.343.368 2.38-.33L349.52 299l2.303 2.593 2.345-3.98 2.343-1.131 2.343.45 2.342 2.847 2.382.165 2.343.566 2.344.093 2.342 1.61 2.342 3.501 2.382-4.946 2.266-.647 2.264 1.801 2.345-1.071 2.343.412 2.343 1.803h0" style="fill:none;stroke:#2ca02c;stroke-linecap:square;stroke-width:1.5" id="line2d_1"/><g id="matplotlib.axis_1"><g id="xtick_1"><g id="line2d_2"><defs><path d="M0 0v3.5" id="m0f960c9e20" style="stroke:#969696;stroke-width:.4"/></defs><use style="fill:#969696;stroke:#969696;stroke-width:.4" x="65.49" xlink:href="#m0f960c9e20" y="313.628"/></g><g style="fill:#969696" transform="matrix(.14 0 0 -.14 49.92 330.678)" id="text_1"><defs><path d="M281 2888q0 793 409 1202 410 410 1148 410 618 0 1012-375t394-969q0-462-227-780-226-317-667-557l-775-425q-684-375-775-863h2444V0H166q25 634 275 1056t781 728l806 469q322 185 469 383t147 545q0 344-241 578-240 235-650 235-453 0-678-299-225-298-231-807H281z" id="HelveticaWorld-Regular-32" transform="scale(.01563)"/><path d="M2719 2188q0 903-239 1354-239 452-702 452-453 0-697-452-243-451-243-1354 0-875 240-1340 241-464 700-464 463 0 702 448 239 449 239 1356zm603 0q0-1107-400-1709-400-601-1144-601-772 0-1156 623-384 624-384 1687 0 1090 393 1701 394 611 1147 611 744 0 1144-608t400-1704z" id="HelveticaWorld-Regular-30" transform="scale(.01563)"/><path d="M2297 0h-600v3194H647v447q550 18 818 176 269 158 391 683h441V0z" id="HelveticaWorld-Regular-31" transform="scale(.01563)"/></defs><use xlink:href="#HelveticaWorld-Regular-32"/><use x="55.615" xlink:href="#HelveticaWorld-Regular-30"/><use x="111.23" xlink:href="#HelveticaWorld-Regular-31"/><use x="166.846" xlink:href="#HelveticaWorld-Regular-30"/></g></g><g id="xtick_2"><use style="fill:#969696;stroke:#969696;stroke-width:.4" x="121.566" xlink:href="#m0f960c9e20" y="313.628" id="line2d_3"/><g style="fill:#969696" transform="matrix(.14 0 0 -.14 105.996 330.678)" id="text_2"><use xlink:href="#HelveticaWorld-Regular-32"/><use x="55.615" xlink:href="#HelveticaWorld-Regular-30"/><use x="111.23" xlink:href="#HelveticaWorld-Regular-31"/><use x="166.846" xlink:href="#HelveticaWorld-Regular-32"/></g></g><g id="xtick_3"><use style="fill:#969696;stroke:#969696;stroke-width:.4" x="177.719" xlink:href="#m0f960c9e20" y="313.628" id="line2d_4"/><g style="fill:#969696" transform="matrix(.14 0 0 -.14 162.149 330.678)" id="text_3"><defs><path d="M678 1581h1447v2041h-12L678 1581zm2010-487V0h-563v1094H159v550l2063 2856h466V1581h659v-487h-659z" id="HelveticaWorld-Regular-34" transform="scale(.01563)"/></defs><use xlink:href="#HelveticaWorld-Regular-32"/><use x="55.615" xlink:href="#HelveticaWorld-Regular-30"/><use x="111.23" xlink:href="#HelveticaWorld-Regular-31"/><use x="166.846" xlink:href="#HelveticaWorld-Regular-34"/></g></g><g id="xtick_4"><use style="fill:#969696;stroke:#969696;stroke-width:.4" x="233.795" xlink:href="#m0f960c9e20" y="313.628" id="line2d_5"/><g style="fill:#969696" transform="matrix(.14 0 0 -.14 218.225 330.678)" id="text_4"><defs><path d="M903 1381q0-440 262-719 263-278 685-278 403 0 642 284 239 285 239 748 0 403-236 675t-670 272q-422 0-672-266t-250-716zm1766 1922q-63 344-255 517-192 174-520 174-519 0-791-507-272-506-278-1159l13-12q359 553 1068 553 566 0 988-375t422-1053q0-672-400-1118-400-445-1078-445-782 0-1188 556-406 557-406 1660 0 1062 415 1734 416 672 1247 672 538 0 910-321 372-320 403-876h-550z" id="HelveticaWorld-Regular-36" transform="scale(.01563)"/></defs><use xlink:href="#HelveticaWorld-Regular-32"/><use x="55.615" xlink:href="#HelveticaWorld-Regular-30"/><use x="111.23" xlink:href="#HelveticaWorld-Regular-31"/><use x="166.846" xlink:href="#HelveticaWorld-Regular-36"/></g></g><g id="xtick_5"><use style="fill:#969696;stroke:#969696;stroke-width:.4" x="289.948" xlink:href="#m0f960c9e20" y="313.628" id="line2d_6"/><g style="fill:#969696" transform="matrix(.14 0 0 -.14 274.378 330.678)" id="text_5"><defs><path d="M1766 2597q347 0 573 198 227 199 227 527 0 294-218 483-217 189-620 189-359 0-555-199-195-198-195-504 0-328 244-511t544-183zm6-484q-434 0-681-241t-247-591q0-403 250-650t712-247q410 0 655 247t245 657q0 350-245 587-245 238-689 238zm1378 1228q0-678-578-947 397-178 567-471 170-292 170-623 0-641-413-1032-412-390-1112-390-612 0-1076 336T244 1306q0 763 762 1082-609 243-609 875 0 531 361 884t1001 353q641 0 1016-333t375-826z" id="HelveticaWorld-Regular-38" transform="scale(.01563)"/></defs><use xlink:href="#HelveticaWorld-Regular-32"/><use x="55.615" xlink:href="#HelveticaWorld-Regular-30"/><use x="111.23" xlink:href="#HelveticaWorld-Regular-31"/><use x="166.846" xlink:href="#HelveticaWorld-Regular-38"/></g></g><g id="xtick_6"><use style="fill:#969696;stroke:#969696;stroke-width:.4" x="346.024" xlink:href="#m0f960c9e20" y="313.628" id="line2d_7"/><g style="fill:#969696" transform="matrix(.14 0 0 -.14 330.454 330.678)" id="text_6"><use xlink:href="#HelveticaWorld-Regular-32"/><use x="55.615" xlink:href="#HelveticaWorld-Regular-30"/><use x="111.23" xlink:href="#HelveticaWorld-Regular-32"/><use x="166.846" xlink:href="#HelveticaWorld-Regular-30"/></g></g></g><g id="matplotlib.axis_2"><g id="ytick_1"><path clip-path="url(#p0f54e4d85a)" d="M29.77 313.628h357.12" style="fill:none;stroke:#969696;stroke-linecap:square;stroke-width:.3" id="line2d_8"/><g id="line2d_9"><defs><path d="M0 0h-3.5" id="mc20a478d4e" style="stroke:#969696;stroke-width:.3"/></defs><use style="fill:#969696;stroke:#969696;stroke-width:.3" x="29.771" xlink:href="#mc20a478d4e" y="313.628"/></g><use xlink:href="#HelveticaWorld-Regular-30" style="fill:#969696" transform="matrix(.14 0 0 -.14 14.985 318.653)" id="text_7"/></g><g id="ytick_2"><path clip-path="url(#p0f54e4d85a)" d="M29.77 262.518h357.12" style="fill:none;stroke:#969696;stroke-linecap:square;stroke-width:.3" id="line2d_10"/><use style="fill:#969696;stroke:#969696;stroke-width:.3" x="29.771" xlink:href="#mc20a478d4e" y="262.518" id="line2d_11"/><g style="fill:#969696" transform="matrix(.14 0 0 -.14 7.2 267.543)" id="text_8"><use xlink:href="#HelveticaWorld-Regular-31"/><use x="55.615" xlink:href="#HelveticaWorld-Regular-30"/></g></g><g id="ytick_3"><path clip-path="url(#p0f54e4d85a)" d="M29.77 211.409h357.12" style="fill:none;stroke:#969696;stroke-linecap:square;stroke-width:.3" id="line2d_12"/><use style="fill:#969696;stroke:#969696;stroke-width:.3" x="29.771" xlink:href="#mc20a478d4e" y="211.409" id="line2d_13"/><g style="fill:#969696" transform="matrix(.14 0 0 -.14 7.2 216.433)" id="text_9"><use xlink:href="#HelveticaWorld-Regular-32"/><use x="55.615" xlink:href="#HelveticaWorld-Regular-30"/></g></g><g id="ytick_4"><path clip-path="url(#p0f54e4d85a)" d="M29.77 160.299h357.12" style="fill:none;stroke:#969696;stroke-linecap:square;stroke-width:.3" id="line2d_14"/><use style="fill:#969696;stroke:#969696;stroke-width:.3" x="29.771" xlink:href="#mc20a478d4e" y="160.299" id="line2d_15"/><g style="fill:#969696" transform="matrix(.14 0 0 -.14 7.2 165.323)" id="text_10"><defs><path d="M1434 2559q141-12 294-12 397 0 626 183 230 183 230 554 0 300-214 505t-617 205q-447 0-655-263-207-262-220-703H325q0 703 369 1087 369 385 1084 385 635 0 1013-327 378-326 378-857 0-685-578-928v-13q750-256 750-1050 0-634-422-1041-422-406-1197-406-634 0-1044 333-409 333-459 1164h581q13-519 256-755 244-236 703-236 444 0 713 247t269 622q0 410-257 619-256 209-793 209-128 0-257-6v484z" id="HelveticaWorld-Regular-33" transform="scale(.01563)"/></defs><use xlink:href="#HelveticaWorld-Regular-33"/><use x="55.615" xlink:href="#HelveticaWorld-Regular-30"/></g></g><g id="ytick_5"><path clip-path="url(#p0f54e4d85a)" d="M29.77 109.189h357.12" style="fill:none;stroke:#969696;stroke-linecap:square;stroke-width:.3" id="line2d_16"/><use style="fill:#969696;stroke:#969696;stroke-width:.3" x="29.771" xlink:href="#mc20a478d4e" y="109.189" id="line2d_17"/><g style="fill:#969696" transform="matrix(.14 0 0 -.14 7.2 114.214)" id="text_11"><use xlink:href="#HelveticaWorld-Regular-34"/><use x="55.615" xlink:href="#HelveticaWorld-Regular-30"/></g></g><g id="ytick_6"><path clip-path="url(#p0f54e4d85a)" d="M29.77 58.079h357.12" style="fill:none;stroke:#969696;stroke-linecap:square;stroke-width:.3" id="line2d_18"/><use style="fill:#969696;stroke:#969696;stroke-width:.3" x="29.771" xlink:href="#mc20a478d4e" y="58.079" id="line2d_19"/><g style="fill:#969696" transform="matrix(.14 0 0 -.14 7.2 63.104)" id="text_12"><defs><path d="M941 2619q372 281 872 281 606 0 1042-403t436-1038q0-690-421-1139-420-448-1179-448-660 0-1041 323-381 324-444 918h582q43-363 284-555t669-192q415 0 681 287 266 288 266 735 0 456-279 731-278 275-718 275-500 0-835-428l-484 25 337 2406h2332v-544H1131L941 2619z" id="HelveticaWorld-Regular-35" transform="scale(.01563)"/></defs><use xlink:href="#HelveticaWorld-Regular-35"/><use x="55.615" xlink:href="#HelveticaWorld-Regular-30"/></g></g></g><path clip-path="url(#p0f54e4d85a)" d="m29.77 298.615 1.807 5.45 2.342 2.919 2.343-.445 2.38-2.803 2.267-4.345 2.265-2.085 2.344 4.908 2.343-5.073 2.343-2.253 2.343.44 2.381-.495 2.343-1.138 2.344-5.457 2.342 3.754 2.343 1.852 2.381-6.595 2.266-1.366 2.265-8.856 2.344 1.335 2.343 4.765 2.343-3.06 2.343 1.247 2.381-5.606 2.343-8.249 2.344 3.962 2.342-10.266 2.343 3.507 2.381-3.627 2.266-3.08 2.265-6.153 2.344-3.424 2.343-1.852h4.686l2.381-8.079 2.343 6.183 2.345-6.348 2.34-13.415 2.344-3.731 2.381-7.42 2.305-6.361 2.302-8.147 2.345 2.83 2.343-1.346 4.686.99 2.38-6.43 2.344-5.48 2.344-8.865 2.342-5.105 2.343 24.395 2.38-26.874 2.267-28.357 2.264-6.76 2.345 14.426 2.343-3.215 2.343 8.497 2.343-13.773 2.381-11.54 2.343-.242 2.344-17.4 2.342-30.814 2.343 37.574 2.38-29.182 2.267-38.291 2.264 20.65 2.345 11.804 2.343 22.983 2.343-.324 2.343-3.303 2.381 13.685 2.343-18.73 2.344-1.385 2.342-4.748 2.343 44.647 2.38-30.666 2.267-36.177 2.265-1.249 2.344.275 2.343 33.03 2.343-27.408 2.343 22.461 2.381 16.982 2.343 2.297 2.344-25.214 2.342 4.259 2.343 18.823 2.381-11.376L237.29 64.6l2.303 11.285 2.345-28.369 2.343 30.018 2.343 5.93 2.343 15.008 2.38-17.97 2.344 11.31 2.344 9.463 2.342-8.952 2.342 26.263 2.382-9.232 2.266-34.664 2.264-26.174 2.345 20.296 2.343 6.249 2.343-3.523 2.343 20.999 2.38 5.11 2.344 12.394 2.344-32.672 2.342 14.102 2.343 39.81 2.38-25.884 2.267-9.35 2.264 10.834 2.345 7.419 2.343 17.97 2.343 3.666 2.343 2.765 2.38-4.946 2.344-11.278 2.344-5.21 2.342 1.803 2.343 39.415 2.38-28.687 2.267-17.324 2.264 1.001 2.345-.197 2.343 2.34 2.343 18.444 2.343-21.246 2.381 18.3 2.343-5.742 2.344-33.332 2.342 16.806 2.343 33.48 2.38-18.795 2.305-25.447 2.303-10.33 2.345-26.27 2.343 12.915 2.343 15.366 2.342 26.346 2.382 20.939 2.343-16.449 2.344-3.665 2.342 1.962 2.342 57.391 2.382-22.917 2.266-25.384 2.264-3.303 2.345 7.501 2.343 17.889 2.343-18.91h0" style="fill:none;stroke:#ff7f0e;stroke-linecap:square;stroke-width:1.5" id="line2d_20"/><path clip-path="url(#p0f54e4d85a)" d="m29.77 306.281 1.807 2.401 2.342.176 2.343-.34 2.38-.166 2.267-4.216 2.265.095 2.344-.484 2.343.813 2.343-3.88 2.343 2.397 2.381-1.814 2.343.27 2.344 3.192 2.342-2.17 2.343 1.84 2.381-6.265 2.266-.382 2.265 1.537 2.344 2.418 2.343-.605 2.343-.418 2.343-2.714 2.381-4.452 2.343 2.567 2.344 1.555 2.342-6.496 2.343 3.693 2.381-4.781 2.266-.7 2.265-6.225 2.344 2.05 2.343-.896 2.343-1.83 2.343.841 2.381-.165 2.343-.846 2.345 7.606 2.34-8.288 2.344-1.604 2.381-8.738 2.305-5.39 2.302-2.854 2.345.357 2.343-7.446 2.343.29 2.343-5.896 2.38 8.408 2.344 4.644 2.344-7.941 2.342-5.347 2.343 13.26 2.38-15.167 2.267-5.918 2.264 5.588 2.345-3.556 2.343-8.15 2.343 3.38 2.343-12.778 2.381 6.43 2.343-5.748 2.344-7.276 2.342 8.98 2.343 6.517 2.38-15.827 2.267-8.226 2.264-1.337 2.345.643 2.343 2.82 2.343-4.182 2.343-9.338 2.381 9.563 2.343-5.507 2.344 5.837 2.342 18.355 2.343-7.639 2.38-20.609 2.267-9.05 2.265 4.764 2.344-9.546 2.343 13.338 2.343-16.405 2.343-9.48 2.381 5.77 2.343 12.57 2.344 9.193 2.342-11.92 2.343 6.81 2.381-10.552 2.304-27.153 2.303-1.04 2.345-3.16 2.343 17.339 2.343-6.095 2.343 8.238 2.38-18.136 2.344 10.41 2.344 4.594 2.342-6.64 2.342 14.718 2.382-19.455 2.266-13.978 2.264-2.673 2.345 23.774 2.343-28.72 2.343-5.353 2.343 13.101 2.38.165 2.344 2.748 2.344-.934 2.342 4.682 2.343 36.206 2.38-32.15 2.267-7.743 2.264.818 2.345 14.113 2.343 5.342 2.343-17.778 2.343-13.712 2.38 2.967 2.344 18.07 2.344-26.808 2.342 9.43 2.343 30.799 2.38-30.336 2.267.524 2.264-12.56 2.345 6.293 2.343-17.669 2.343 11.706 2.343-17.312 2.381 20.444 2.343-2.962 2.344-15.173 2.342 6.655 2.343 35.222 2.38-37.59 2.305-.74 2.303-15.418 2.345-16.91 4.686 8.859 2.342 20.746 2.382 13.849 2.343-18.58 2.344 23.032 2.342-4.463 2.342 23.258 2.382-17.147 2.266-24.389 2.264-11.058 2.345 14.344 2.343 23.741 2.343-10.282h0" style="fill:none;stroke:#1f77b4;stroke-linecap:square;stroke-width:1.5" id="line2d_21"/><g style="fill:#1f77b4" transform="matrix(.14 0 0 -.14 390.462 126.038)" id="text_13"><defs><path d="M959 1516q0-538 262-832 263-293 654-293 428 0 665 348 238 349 238 945 0 654-228 954t-687 300q-447 0-676-352-228-352-228-1070zM422 3347h531v-472h13q359 569 1000 569 647 0 1020-471 373-470 373-1201 0-819-381-1344T1888-97q-582 0-891 450h-13v-1678H422v4672z" id="HelveticaWorld-Regular-70" transform="scale(.01563)"/><path d="M813 1678q0-559 253-920t718-361q482 0 732 378t250 903q0 531-250 901-250 371-732 371-446 0-709-349-262-348-262-923zm-575 0q0 747 415 1256 416 510 1131 510 732 0 1144-516 413-515 413-1250 0-737-410-1256Q2522-97 1784-97q-709 0-1128 503-418 503-418 1272z" id="HelveticaWorld-Regular-6f" transform="scale(.01563)"/><path d="M1638 0h-575L97 3347h606l641-2631h12l647 2631h635l653-2631h12l678 2631h557L3572 0h-591l-678 2591h-12L1638 0z" id="HelveticaWorld-Regular-77" transform="scale(.01563)"/><path d="M2719 1941q-44 543-288 770-243 227-647 227-409 0-661-288-251-287-267-709h1863zm537-891q-93-519-509-859-366-288-963-294-703 6-1116 461-412 455-412 1223 0 882 425 1372 425 491 1182 491 678 0 1059-507 381-506 381-1446H856q0-525 244-813 244-287 731-287 344 0 591 207 247 208 272 452h562z" id="HelveticaWorld-Regular-65" transform="scale(.01563)"/><path d="M984 0H422v3347h531v-556h13q365 653 940 653 91 0 147-19v-584h-209q-378 0-619-257-241-256-241-637V0z" id="HelveticaWorld-Regular-72" transform="scale(.01563)"/><path d="M2309 2394q-12 300-214 431-201 131-579 131-275 0-471-122-195-121-195-350 0-181 115-267 116-86 501-183l556-140q506-128 723-327 218-198 218-554 0-494-361-802T1638-97Q934-97 573 195q-360 293-367 880h544q13-347 230-516 217-168 651-168 353 0 561 140 208 141 208 391 0 178-135 284-134 107-531 197l-653 160q-397 100-586 298t-189 514q0 494 353 781 354 288 922 288 607 0 930-296 323-295 342-754h-544z" id="HelveticaWorld-Regular-73" transform="scale(.01563)"/><path d="M3150 0h-566v2188q0 403-156 576-156 174-509 174-435 0-685-282-250-281-250-831V0H422v4594h562V2900h13q384 544 981 544 550 0 861-288 311-287 311-878V0z" id="HelveticaWorld-Regular-68" transform="scale(.01563)"/><path d="M984 0H422v4594h562V0z" id="HelveticaWorld-Regular-6c" transform="scale(.01563)"/></defs><use xlink:href="#HelveticaWorld-Regular-70"/><use x="56.494" xlink:href="#HelveticaWorld-Regular-6f"/><use x="110.902" xlink:href="#HelveticaWorld-Regular-77"/><use x="181.814" xlink:href="#HelveticaWorld-Regular-65"/><use x="237.234" xlink:href="#HelveticaWorld-Regular-72"/><use x="269.803" xlink:href="#HelveticaWorld-Regular-73"/><use x="319.803" xlink:href="#HelveticaWorld-Regular-68"/><use x="374.979" xlink:href="#HelveticaWorld-Regular-65"/><use x="430.398" xlink:href="#HelveticaWorld-Regular-6c"/><use x="452.42" xlink:href="#HelveticaWorld-Regular-6c"/></g><g style="fill:#ff7f0e" transform="matrix(.14 0 0 -.14 390.462 140.038)" id="text_14"><defs><path d="M2778 1684q0 672-238 963-237 291-677 291-447-7-676-349-228-342-228-989 0-659 275-934t641-275q416 0 659 342 244 342 244 951zM422 0v4594h562V2925h13q359 519 969 519 625 0 1009-464t384-1208q0-838-388-1354Q2584-97 1888-97q-613 0-922 513h-13V0H422z" id="HelveticaWorld-Regular-62" transform="scale(.01563)"/><path d="M2456 1709q-62-65-245-106-183-40-683-106-369-44-542-182-173-137-173-362 0-275 146-428 147-153 469-153 403 0 715 229 313 230 313 558v550zM397 2328q19 566 367 841 349 275 1014 275 531 0 890-241 360-240 360-694V581q0-197 178-197 72 0 185 25V0q-153-63-319-63-288 0-429 123-140 124-146 387Q2016-97 1288-97q-475 0-763 269-287 269-287 700 0 441 250 712 250 272 728 329l993 121q269 41 269 397 0 263-195 403-195 141-592 141-353 0-543-156-189-156-226-491H397z" id="HelveticaWorld-Regular-61" transform="scale(.01563)"/></defs><use xlink:href="#HelveticaWorld-Regular-62"/><use x="56.494" xlink:href="#HelveticaWorld-Regular-61"/><use x="111.426" xlink:href="#HelveticaWorld-Regular-73"/><use x="161.426" xlink:href="#HelveticaWorld-Regular-68"/></g><g style="fill:#2ca02c" transform="matrix(.14 0 0 -.14 390.462 306.641)" id="text_15"><defs><path d="M903 469h2060V0H153v441l2025 2440H316v466h2584v-459L903 469z" id="HelveticaWorld-Regular-7a" transform="scale(.01563)"/></defs><use xlink:href="#HelveticaWorld-Regular-7a"/><use x="49.219" xlink:href="#HelveticaWorld-Regular-73"/><use x="99.219" xlink:href="#HelveticaWorld-Regular-68"/></g><g style="fill:#969696" transform="matrix(.09716 0 0 -.09716 29.77 347.399)" id="text_16"><defs><path d="M3225 3250q-19 438-327 686-307 248-810 248-507 0-779-208-271-207-271-598 0-209 118-359 119-150 425-222l1313-300q531-116 787-440 257-323 257-788 0-681-500-1036T2138-122q-610 0-962 156-351 157-623 497-272 341-272 953h582q0-512 340-794 341-281 928-281 569 0 886 202t317 573q0 338-189 505t-739 295l-990 232q-494 112-738 392t-244 689q0 619 417 1019 418 400 1165 400 843 0 1301-352 458-351 492-1114h-584z" id="HelveticaWorld-Regular-53" transform="scale(.01563)"/><path d="M1100 2881V703q0-128 70-195 71-67 252-67h216V0q-307-44-422-44-353 0-516 169-162 169-162 547v2209H84v466h454v934h562v-934h538v-466h-538z" id="HelveticaWorld-Regular-74" transform="scale(.01563)"/><path d="M2534 2222q-121 716-793 716-416 0-669-333t-253-927q0-647 234-967 235-320 681-320 300 0 519 220t281 573h544q-84-621-439-951T1722-97q-659 0-1081 451-422 452-422 1227 0 850 422 1356 422 507 1184 507 556 0 886-333t367-889h-544z" id="HelveticaWorld-Regular-63" transform="scale(.01563)"/><path d="M3200 0h-722L1434 1691l-468-422V0H422v4594h544V1931l1440 1416h716L1844 2100 3200 0z" id="HelveticaWorld-Regular-6b" transform="scale(.01563)"/><path d="M4091 2297q0 806-427 1337-426 532-1173 532-738 0-1169-532-431-531-431-1337 0-831 437-1350 438-519 1163-519 709 0 1154 506 446 507 446 1363zm637 0q0-1028-594-1724-593-695-1643-695-1057 0-1649 695-592 696-592 1724 0 1031 592 1725t1649 694q1081 0 1659-707 578-706 578-1712z" id="HelveticaWorld-Regular-4f" transform="scale(.01563)"/><path d="M2522 3347h616L1863 0h-604L38 3347h653l872-2725h12l947 2725z" id="HelveticaWorld-Regular-76" transform="scale(.01563)"/><path d="M1100 2881V0H538v2881H78v466h460v575q0 378 229 557 230 180 642 180 141 0 254-12v-506q-100 12-229 12-187 0-261-92-73-92-73-298v-416h563v-466h-563z" id="HelveticaWorld-Regular-66" transform="scale(.01563)"/><path d="m2816 1888-678 2021h-13l-737-2021h1428zm-1619-550L716 0H78l1728 4594h703L4172 0h-678l-453 1338H1197z" id="HelveticaWorld-Regular-41" transform="scale(.01563)"/><path d="M1141 2472h1234q466 0 700 204 234 205 234 621 0 372-225 569t-684 197H1141V2472zm0-2472H519v4594h2065q616 0 991-358t375-933q0-597-363-980-362-382-1003-382H1141V0z" id="HelveticaWorld-Regular-50" transform="scale(.01563)"/><path d="M1141 0H519v4594h622V0z" id="HelveticaWorld-Regular-49" transform="scale(.01563)"/><path d="M422 3956v638h562v-638H422zM984 0H422v3347h562V0z" id="HelveticaWorld-Regular-69" transform="scale(.01563)"/><path d="M831 1684q0-615 244-954t659-339q404 0 660 293 256 294 256 832 0 706-224 1064-223 358-679 358-459 0-688-305-228-305-228-949zM3188 191q0-807-388-1203-387-397-1169-397-562 0-895 259T353-409h563q43-244 226-388t530-144q472 0 712 254 241 253 241 821v238h-12Q2297-97 1722-97q-716 0-1094 528T250 1772q0 744 381 1208 382 464 1013 464 634 0 1000-569h12v472h532V191z" id="HelveticaWorld-Regular-67" transform="scale(.01563)"/><path d="M603 4716h466V-122H603v4838z" id="HelveticaWorld-Regular-7c" transform="scale(.01563)"/><path d="M3559 4594h600V0h-690L1125 3713h-12V0H519v4594h728L3547 884h12v3710z" id="HelveticaWorld-Regular-4e" transform="scale(.01563)"/><path d="M813 1678q0-559 253-920t718-361q482 0 732 378t250 903q0 531-250 901-250 371-732 371-446 0-709-349-262-348-262-923zm-575 0q0 747 415 1256 416 510 1131 510 732 0 1144-516 413-515 413-1250 0-737-410-1256Q2522-97 1784-97q-709 0-1128 503-418 503-418 1272zm2351 2266h-575v650h575v-650zm-1038 0H976v650h575v-650z" id="HelveticaWorld-Regular-f6" transform="scale(.01563)"/><path d="M422 3347h531v-472h13q378 569 1012 569 628 0 891-544 240 294 465 419t557 125q434 0 735-285 302-284 302-843V0h-562v2163q0 390-147 582-147 193-475 193-331 0-560-269-228-269-228-628V0h-562v2316q0 290-135 456-134 166-390 166-403 0-644-300t-241-813V0H422v3347z" id="HelveticaWorld-Regular-6d" transform="scale(.01563)"/><path d="M3713 3213q-104 468-434 710-329 243-854 243-678 0-1091-493-412-492-412-1329 0-969 390-1443 391-473 1132-473 487 0 838 323 352 324 474 940h603q-121-885-671-1349T2350-122q-941 0-1505 647T281 2322q0 1109 589 1751 589 643 1555 643 800 0 1297-413 497-412 591-1090h-600z" id="HelveticaWorld-Regular-43" transform="scale(.01563)"/><path d="M519 4594h2015q594 0 947-322t353-834q0-310-155-565-154-254-460-395 428-162 629-431 202-269 202-691 0-593-428-975Q3194 0 2491 0H519v4594zm612-4063h1325q488 0 731 226 244 227 244 612 0 390-272 582-271 193-803 193H1131V531zm0 2119h1128q494 0 724 179 230 180 230 562 0 328-218 500-217 172-729 172H1131V2650z" id="HelveticaWorld-Regular-42" transform="scale(.01563)"/><path d="M2388 0h-622v1850L31 4594h725l1319-2206 1316 2206h731L2388 1850V0z" id="HelveticaWorld-Regular-59" transform="scale(.01563)"/></defs><use xlink:href="#HelveticaWorld-Regular-53"/><use x="66.211" xlink:href="#HelveticaWorld-Regular-74"/><use x="93.896" xlink:href="#HelveticaWorld-Regular-61"/><use x="148.828" xlink:href="#HelveticaWorld-Regular-63"/><use x="200.098" xlink:href="#HelveticaWorld-Regular-6b"/><use x="250.098" xlink:href="#HelveticaWorld-Regular-4f"/><use x="327.881" xlink:href="#HelveticaWorld-Regular-76"/><use x="375.49" xlink:href="#HelveticaWorld-Regular-65"/><use x="430.91" xlink:href="#HelveticaWorld-Regular-72"/><use x="464.979" xlink:href="#HelveticaWorld-Regular-66"/><use x="492.664" xlink:href="#HelveticaWorld-Regular-6c"/><use x="514.686" xlink:href="#HelveticaWorld-Regular-6f"/><use x="569.094" xlink:href="#HelveticaWorld-Regular-77"/><use x="641.506" xlink:href="#HelveticaWorld-Regular-20"/><use x="665.92" xlink:href="#HelveticaWorld-Regular-41"/><use x="732.619" xlink:href="#HelveticaWorld-Regular-50"/><use x="797.268" xlink:href="#HelveticaWorld-Regular-49"/><use x="823.049" xlink:href="#HelveticaWorld-Regular-20"/><use x="847.463" xlink:href="#HelveticaWorld-Regular-76"/><use x="897.072" xlink:href="#HelveticaWorld-Regular-69"/><use x="919.094" xlink:href="#HelveticaWorld-Regular-61"/><use x="974.025" xlink:href="#HelveticaWorld-Regular-20"/><use x="998.439" xlink:href="#HelveticaWorld-Regular-73"/><use x="1048.439" xlink:href="#HelveticaWorld-Regular-74"/><use x="1076.125" xlink:href="#HelveticaWorld-Regular-61"/><use x="1131.057" xlink:href="#HelveticaWorld-Regular-63"/><use x="1182.326" xlink:href="#HelveticaWorld-Regular-6b"/><use x="1232.326" xlink:href="#HelveticaWorld-Regular-74"/><use x="1260.012" xlink:href="#HelveticaWorld-Regular-61"/><use x="1314.943" xlink:href="#HelveticaWorld-Regular-67"/><use x="1370.852" xlink:href="#HelveticaWorld-Regular-73"/><use x="1420.852" xlink:href="#HelveticaWorld-Regular-20"/><use x="1445.266" xlink:href="#HelveticaWorld-Regular-7c"/><use x="1471.242" xlink:href="#HelveticaWorld-Regular-20"/><use x="1495.656" xlink:href="#HelveticaWorld-Regular-4e"/><use x="1568.752" xlink:href="#HelveticaWorld-Regular-69"/><use x="1590.773" xlink:href="#HelveticaWorld-Regular-63"/><use x="1642.043" xlink:href="#HelveticaWorld-Regular-6f"/><use x="1697.951" xlink:href="#HelveticaWorld-Regular-20"/><use x="1722.365" xlink:href="#HelveticaWorld-Regular-53"/><use x="1788.576" xlink:href="#HelveticaWorld-Regular-63"/><use x="1839.846" xlink:href="#HelveticaWorld-Regular-68"/><use x="1895.021" xlink:href="#HelveticaWorld-Regular-6c"/><use x="1917.043" xlink:href="#HelveticaWorld-Regular-f6"/><use x="1972.951" xlink:href="#HelveticaWorld-Regular-6d"/><use x="2055.959" xlink:href="#HelveticaWorld-Regular-65"/><use x="2111.379" xlink:href="#HelveticaWorld-Regular-72"/><use x="2143.947" xlink:href="#HelveticaWorld-Regular-20"/><use x="2168.361" xlink:href="#HelveticaWorld-Regular-7c"/><use x="2194.338" xlink:href="#HelveticaWorld-Regular-20"/><use x="2218.752" xlink:href="#HelveticaWorld-Regular-43"/><use x="2291.066" xlink:href="#HelveticaWorld-Regular-43"/><use x="2363.381" xlink:href="#HelveticaWorld-Regular-20"/><use x="2387.795" xlink:href="#HelveticaWorld-Regular-42"/><use x="2450.607" xlink:href="#HelveticaWorld-Regular-59"/></g><g style="fill:#969696" transform="matrix(.14 0 0 -.14 72.264 17.516)" id="text_17"><defs><path d="M1141 531h1203q625 0 978 480t353 1311q0 822-356 1278t-1028 463H1141V531zM519 4594h1862q903 0 1414-621 511-620 511-1610 0-1063-511-1713T2356 0H519v4594z" id="HelveticaWorld-Regular-44" transform="scale(.01563)"/><path d="M2497 3347h612L1913 63q-32-88-63-166-272-725-469-995-197-271-637-271-231 0-378 50v513q159-57 350-57 206 0 301 130 96 130 283 636L56 3347h635l897-2725h12l897 2725z" id="HelveticaWorld-Regular-79" transform="scale(.01563)"/><path d="M3150 0h-566v2059q0 475-166 677-165 202-549 202-378 0-632-288-253-287-253-825V0H422v3347h531v-472h13q397 569 1012 569 569 0 870-302 302-301 302-864V0z" id="HelveticaWorld-Regular-6e" transform="scale(.01563)"/><path d="M391 3347h562V1125q0-369 167-552 168-182 480-182 434 0 678 307 244 308 244 805v1844h562V0h-531v488l-12 12Q2222-97 1478-97q-481 0-784 262-303 263-303 776v2406z" id="HelveticaWorld-Regular-75" transform="scale(.01563)"/><path d="M2656 1516q0 712-224 1067-223 355-679 355-440 0-678-288-237-287-237-966 0-603 240-948 241-345 663-345 372 0 643 281 272 281 272 844zm538-2841h-563V353h-12Q2297-97 1728-97q-703 0-1088 522-384 522-384 1347 0 731 378 1201 379 471 1016 471 634 0 1000-569h13v472h531v-4672z" id="HelveticaWorld-Regular-71" transform="scale(.01563)"/></defs><use xlink:href="#HelveticaWorld-Regular-44"/><use x="72.021" xlink:href="#HelveticaWorld-Regular-61"/><use x="126.953" xlink:href="#HelveticaWorld-Regular-69"/><use x="148.975" xlink:href="#HelveticaWorld-Regular-6c"/><use x="170.996" xlink:href="#HelveticaWorld-Regular-79"/><use x="220.605" xlink:href="#HelveticaWorld-Regular-20"/><use x="245.02" xlink:href="#HelveticaWorld-Regular-6e"/><use x="300.195" xlink:href="#HelveticaWorld-Regular-75"/><use x="354.98" xlink:href="#HelveticaWorld-Regular-6d"/><use x="437.988" xlink:href="#HelveticaWorld-Regular-62"/><use x="494.482" xlink:href="#HelveticaWorld-Regular-65"/><use x="549.902" xlink:href="#HelveticaWorld-Regular-72"/><use x="582.471" xlink:href="#HelveticaWorld-Regular-20"/><use x="606.885" xlink:href="#HelveticaWorld-Regular-6f"/><use x="662.793" xlink:href="#HelveticaWorld-Regular-66"/><use x="690.479" xlink:href="#HelveticaWorld-Regular-20"/><use x="714.893" xlink:href="#HelveticaWorld-Regular-71"/><use x="771.387" xlink:href="#HelveticaWorld-Regular-75"/><use x="826.172" xlink:href="#HelveticaWorld-Regular-65"/><use x="881.592" xlink:href="#HelveticaWorld-Regular-73"/><use x="931.592" xlink:href="#HelveticaWorld-Regular-74"/><use x="959.277" xlink:href="#HelveticaWorld-Regular-69"/><use x="981.299" xlink:href="#HelveticaWorld-Regular-6f"/><use x="1037.207" xlink:href="#HelveticaWorld-Regular-6e"/><use x="1092.383" xlink:href="#HelveticaWorld-Regular-73"/><use x="1142.383" xlink:href="#HelveticaWorld-Regular-20"/><use x="1166.797" xlink:href="#HelveticaWorld-Regular-6f"/><use x="1222.705" xlink:href="#HelveticaWorld-Regular-6e"/><use x="1277.881" xlink:href="#HelveticaWorld-Regular-20"/><use x="1302.295" xlink:href="#HelveticaWorld-Regular-53"/><use x="1368.506" xlink:href="#HelveticaWorld-Regular-74"/><use x="1396.191" xlink:href="#HelveticaWorld-Regular-61"/><use x="1451.123" xlink:href="#HelveticaWorld-Regular-63"/><use x="1502.393" xlink:href="#HelveticaWorld-Regular-6b"/><use x="1552.393" xlink:href="#HelveticaWorld-Regular-4f"/><use x="1630.176" xlink:href="#HelveticaWorld-Regular-76"/><use x="1677.785" xlink:href="#HelveticaWorld-Regular-65"/><use x="1733.205" xlink:href="#HelveticaWorld-Regular-72"/><use x="1767.273" xlink:href="#HelveticaWorld-Regular-66"/><use x="1794.959" xlink:href="#HelveticaWorld-Regular-6c"/><use x="1816.98" xlink:href="#HelveticaWorld-Regular-6f"/><use x="1871.389" xlink:href="#HelveticaWorld-Regular-77"/></g></g></g><defs><clipPath id="p0f54e4d85a"><path d="M29.771 47.516h357.12v266.112H29.771z"/></clipPath></defs></svg>