<svg height="459.846" viewBox="0 0 554.592 344.885" width="739.455" xmlns="http://www.w3.org/2000/svg" xmlns:xlink="http://www.w3.org/1999/xlink"><defs><style>*{stroke-linecap:butt;stroke-linejoin:round}</style></defs><g id="figure_1"><path d="M0 344.885h554.592V0H0z" fill="none" id="patch_1"/><g id="axes_1"><path d="M26.27 300.716h372v-277.2h-372z" fill="none" id="patch_2"/><path clip-path="url(#p2a56d5a51a)" d="M128.304 300.716l3.009-.693 3.004.693H140.38l2.908-.767 2.907.074 3.008-.739 3.007-2.033 3.007.6 3.007.786 3.056-2.772 3.006 2.703 3.01-2.703 3.004 1.27 3.007-1.963 3.056-3.465 2.908 2.104 2.906-.025 3.009-4.527 3.007 4.527 3.007 2.634 3.006-3.327 3.056-.693 3.007-2.425 3.009 3.118 3.005-2.402 3.007.323 3.056-4.85 2.908.742 2.906 5.494 3.009-3.857 3.007 1.085 3.006-6.098 3.007-5.683 3.056 13.167 3.007-4.62 3.009 1.848 3.004-.416 3.007-.97 3.056 1.386 2.958-3.082 2.955 1.003 3.009-2.633 3.007-2.91 3.007 7.923 3.006-7.23 3.056 11.087 3.007-6.722 3.009-.208 3.005-1.224 3.007 8.847 3.056-4.158 2.908-8.935 2.906 9.628 3.009 4.643 3.007-6.722 3.006 2.426 3.007-.347 3.056-.693 3.007 2.472 3.009 1.686 3.004 1.894 3.007.878 3.056-7.623 2.908-.569 2.907 5.42 3.008 1.894 3.007-3.973 3.007 3.257 3.007-3.95 3.056.693 3.007 1.109 3.008.277 3.005-.993 3.007-3.165 3.056 6.93 2.908-4.43 2.906.965 3.01 1.848 3.006 2.31 3.007-4.458 3.006-2.472 3.057 2.772 3.006-5.313 3.01 1.155 3.004 6.006 3.007 3.696h3.056l2.957 1.984 2.956-8.22" fill="none" stroke="#8c564b" stroke-linecap="square" stroke-width="1.5" id="line2d_1"/><g id="matplotlib.axis_1"><g id="xtick_1"><g id="text_1"><defs><path d="M4.39 45.125q0 12.39 6.391 18.781 6.406 6.407 17.938 6.407 9.656 0 15.812-5.86 6.157-5.86 6.157-15.14 0-7.22-3.547-12.188-3.532-4.953-10.422-8.703l-12.11-6.64Q13.922 15.921 12.5 8.296h38.188V0H2.593q.39 9.906 4.297 16.5 3.906 6.594 12.203 11.375l12.593 7.328q5.032 2.89 7.329 5.984 2.297 3.094 2.297 8.516 0 5.375-3.766 9.031-3.75 3.672-10.156 3.672-7.078 0-10.594-4.672-3.516-4.656-3.61-12.609z" id="HelveticaWorld-Regular-50"/><path d="M42.484 34.188q0 14.109-3.734 21.156-3.734 7.062-10.969 7.062-7.078 0-10.89-7.062-3.797-7.047-3.797-21.157 0-13.671 3.75-20.937Q20.609 6 27.78 6q7.235 0 10.969 7 3.734 7.016 3.734 21.188zm9.422 0q0-17.297-6.25-26.704-6.25-9.39-17.875-9.39-12.062 0-18.062 9.734-6 9.75-6 26.36 0 17.03 6.14 26.578 6.157 9.547 17.922 9.547 11.625 0 17.875-9.5t6.25-26.626z" id="HelveticaWorld-Regular-48"/><path d="M35.89 0h-9.374v49.906H10.109v6.985q8.594.28 12.782 2.75Q27.094 62.109 29 70.313h6.89z" id="HelveticaWorld-Regular-49"/></defs><g transform="matrix(.14 0 0 -.14 15.235 314.266)"><use xlink:href="#HelveticaWorld-Regular-50"/><use x="55.615" xlink:href="#HelveticaWorld-Regular-48"/><use x="111.23" xlink:href="#HelveticaWorld-Regular-49"/><use x="166.846" xlink:href="#HelveticaWorld-Regular-48"/></g></g></g><g id="xtick_2"><g transform="matrix(.14 0 0 -.14 51.218 314.266)" id="text_2"><use xlink:href="#HelveticaWorld-Regular-50"/><use x="55.615" xlink:href="#HelveticaWorld-Regular-48"/><use x="111.23" xlink:href="#HelveticaWorld-Regular-49"/><use x="166.846" xlink:href="#HelveticaWorld-Regular-49"/></g></g><g id="xtick_3"><g transform="matrix(.14 0 0 -.14 87.2 314.266)" id="text_3"><use xlink:href="#HelveticaWorld-Regular-50"/><use x="55.615" xlink:href="#HelveticaWorld-Regular-48"/><use x="111.23" xlink:href="#HelveticaWorld-Regular-49"/><use x="166.846" xlink:href="#HelveticaWorld-Regular-50"/></g></g><g id="xtick_4"><g id="text_4"><defs><path d="M22.406 39.984q2.203-.187 4.594-.187 6.203 0 9.781 2.86 3.594 2.859 3.594 8.656 0 4.687-3.344 7.89-3.343 3.203-9.64 3.203-6.985 0-10.235-4.11-3.234-4.093-3.437-10.983h-8.64q0 10.984 5.765 16.984 5.765 6.016 16.937 6.016 9.922 0 15.828-5.11 5.907-5.094 5.907-13.39 0-10.704-9.032-14.5v-.204q11.72-4 11.72-16.406 0-9.906-6.595-16.265-6.593-6.344-18.703-6.344-9.906 0-16.312 5.203Q4.204 8.5 3.422 21.484H12.5q.203-8.109 4-11.797Q20.313 6 27.484 6q6.938 0 11.141 3.86 4.203 3.859 4.203 9.718 0 6.406-4.016 9.672-4 3.266-12.39 3.266-2 0-4.016-.094z" id="HelveticaWorld-Regular-51"/></defs><g transform="matrix(.14 0 0 -.14 123.282 314.266)"><use xlink:href="#HelveticaWorld-Regular-50"/><use x="55.615" xlink:href="#HelveticaWorld-Regular-48"/><use x="111.23" xlink:href="#HelveticaWorld-Regular-49"/><use x="166.846" xlink:href="#HelveticaWorld-Regular-51"/></g></g></g><g id="xtick_5"><g id="text_5"><defs><path d="M10.594 24.703h22.61v31.89h-.188zM42 17.093V0h-8.797v17.094H2.484v8.593L34.72 70.314H42v-45.61h10.297v-7.61z" id="HelveticaWorld-Regular-52"/></defs><g transform="matrix(.14 0 0 -.14 159.264 314.266)"><use xlink:href="#HelveticaWorld-Regular-50"/><use x="55.615" xlink:href="#HelveticaWorld-Regular-48"/><use x="111.23" xlink:href="#HelveticaWorld-Regular-49"/><use x="166.846" xlink:href="#HelveticaWorld-Regular-52"/></g></g></g><g id="xtick_6"><g id="text_6"><defs><path d="M14.703 40.922q5.813 4.39 13.625 4.39 9.469 0 16.281-6.296 6.813-6.297 6.813-16.22 0-10.78-6.578-17.796-6.563-7-18.422-7-10.313 0-16.266 5.047Q4.203 8.109 3.22 17.39h9.094q.671-5.672 4.437-8.672 3.766-3 10.453-3 6.485 0 10.64 4.484Q42 14.703 42 21.688q0 7.125-4.36 11.421-4.343 4.297-11.218 4.297-7.813 0-13.047-6.687l-7.563.39 5.266 37.594h36.438v-8.5H17.672z" id="HelveticaWorld-Regular-53"/></defs><g transform="matrix(.14 0 0 -.14 195.247 314.266)"><use xlink:href="#HelveticaWorld-Regular-50"/><use x="55.615" xlink:href="#HelveticaWorld-Regular-48"/><use x="111.23" xlink:href="#HelveticaWorld-Regular-49"/><use x="166.846" xlink:href="#HelveticaWorld-Regular-53"/></g></g></g><g id="xtick_7"><g id="text_7"><defs><path d="M14.11 21.578q0-6.875 4.093-11.234Q22.313 6 28.906 6q6.297 0 10.032 4.438 3.734 4.453 3.734 11.687 0 6.297-3.688 10.547-3.687 4.25-10.468 4.25-6.594 0-10.5-4.156-3.907-4.157-3.907-11.188zM41.702 51.61q-.984 5.375-3.984 8.078-3 2.72-8.125 2.72-8.11 0-12.36-7.923-4.25-7.906-4.343-18.109l.203-.188q5.61 8.641 16.687 8.641 8.844 0 15.438-5.86 6.593-5.859 6.593-16.452 0-10.5-6.25-17.47-6.25-6.952-16.843-6.952-12.219 0-18.563 8.687-6.344 8.703-6.344 25.938 0 16.593 6.485 27.093 6.5 10.5 19.484 10.5 8.407 0 14.219-5.015 5.813-5 6.297-13.688z" id="HelveticaWorld-Regular-54"/></defs><g transform="matrix(.14 0 0 -.14 231.23 314.266)"><use xlink:href="#HelveticaWorld-Regular-50"/><use x="55.615" xlink:href="#HelveticaWorld-Regular-48"/><use x="111.23" xlink:href="#HelveticaWorld-Regular-49"/><use x="166.846" xlink:href="#HelveticaWorld-Regular-54"/></g></g></g><g id="xtick_8"><g id="text_8"><defs><path d="M3.719 68.797h48.578v-7.719Q42.28 50.875 33.984 33.484 25.687 16.11 23.391 0h-9.672q1.469 13.281 9.719 30.531 8.25 17.266 18.953 29.672H3.719z" id="HelveticaWorld-Regular-55"/></defs><g transform="matrix(.14 0 0 -.14 267.31 314.266)"><use xlink:href="#HelveticaWorld-Regular-50"/><use x="55.615" xlink:href="#HelveticaWorld-Regular-48"/><use x="111.23" xlink:href="#HelveticaWorld-Regular-49"/><use x="166.846" xlink:href="#HelveticaWorld-Regular-55"/></g></g></g><g id="xtick_9"><g id="text_9"><defs><path d="M27.594 40.578q5.422 0 8.953 3.094 3.547 3.11 3.547 8.234 0 4.594-3.407 7.547-3.39 2.953-9.687 2.953-5.61 0-8.672-3.11-3.047-3.093-3.047-7.874 0-5.125 3.813-7.984 3.812-2.86 8.5-2.86zm.093-7.562q-6.78 0-10.64-3.766-3.86-3.766-3.86-9.234 0-6.297 3.907-10.157Q21 6 28.219 6q6.406 0 10.234 3.86 3.828 3.859 3.828 10.265 0 5.469-3.828 9.172-3.828 3.719-10.766 3.719zM49.22 52.203q0-10.594-9.032-14.797 6.204-2.781 8.86-7.36 2.656-4.562 2.656-9.733 0-10.016-6.453-16.125-6.438-6.094-17.375-6.094-9.563 0-16.813 5.25-7.25 5.25-7.25 17.062 0 11.922 11.907 16.907-9.516 3.796-9.516 13.671 0 8.297 5.64 13.813 5.641 5.516 15.641 5.516 10.016 0 15.875-5.204 5.86-5.203 5.86-12.906z" id="HelveticaWorld-Regular-56"/></defs><g transform="matrix(.14 0 0 -.14 303.294 314.266)"><use xlink:href="#HelveticaWorld-Regular-50"/><use x="55.615" xlink:href="#HelveticaWorld-Regular-48"/><use x="111.23" xlink:href="#HelveticaWorld-Regular-49"/><use x="166.846" xlink:href="#HelveticaWorld-Regular-56"/></g></g></g><g id="xtick_10"><g id="text_10"><defs><path d="M27.594 31.39q6 0 9.75 4.047 3.765 4.063 3.765 11.97 0 6.5-3.562 10.75-3.563 4.25-10.64 4.25-6.11 0-9.876-4.298-3.75-4.297-3.75-11.53 0-7.376 3.516-11.282 3.515-3.906 10.797-3.906zm-1.282-7.906q-10 0-16.062 6.203-6.047 6.204-6.047 16.5 0 10.407 6.094 17.266 6.11 6.86 16.515 6.86 12.11 0 18.36-8.157 6.25-8.156 6.25-24.453 0-16.906-6.406-28.266Q38.625-1.905 25.875-1.905q-9.953 0-15.422 5.593-5.469 5.594-5.469 13.204h8.829q.39-5.266 3.437-8.375 3.063-3.094 8.438-3.094 7.609 0 11.515 6.781Q41.11 19 42.578 31.688l-.187.203q-5.672-8.407-16.078-8.407z" id="HelveticaWorld-Regular-57"/></defs><g transform="matrix(.14 0 0 -.14 339.276 314.266)"><use xlink:href="#HelveticaWorld-Regular-50"/><use x="55.615" xlink:href="#HelveticaWorld-Regular-48"/><use x="111.23" xlink:href="#HelveticaWorld-Regular-49"/><use x="166.846" xlink:href="#HelveticaWorld-Regular-57"/></g></g></g><g id="xtick_11"><g transform="matrix(.14 0 0 -.14 375.26 314.266)" id="text_11"><use xlink:href="#HelveticaWorld-Regular-50"/><use x="55.615" xlink:href="#HelveticaWorld-Regular-48"/><use x="111.23" xlink:href="#HelveticaWorld-Regular-50"/><use x="166.846" xlink:href="#HelveticaWorld-Regular-48"/></g></g></g><g id="matplotlib.axis_2"><g id="ytick_1"><path clip-path="url(#p2a56d5a51a)" d="M26.27 300.716h372" fill="none" stroke="#000" stroke-dasharray="5,5" stroke-opacity=".3" stroke-width=".5" id="line2d_13"/><use xlink:href="#HelveticaWorld-Regular-48" transform="matrix(.14 0 0 -.14 14.985 305.74)" id="text_12"/></g><g id="ytick_2"><path clip-path="url(#p2a56d5a51a)" d="M26.27 257.75h372" fill="none" stroke="#000" stroke-dasharray="5,5" stroke-opacity=".3" stroke-width=".5" id="line2d_15"/><use xlink:href="#HelveticaWorld-Regular-50" transform="matrix(.14 0 0 -.14 14.985 262.775)" id="text_13"/></g><g id="ytick_3"><path clip-path="url(#p2a56d5a51a)" d="M26.27 214.784h372" fill="none" stroke="#000" stroke-dasharray="5,5" stroke-opacity=".3" stroke-width=".5" id="line2d_17"/><use xlink:href="#HelveticaWorld-Regular-52" transform="matrix(.14 0 0 -.14 14.985 219.809)" id="text_14"/></g><g id="ytick_4"><path clip-path="url(#p2a56d5a51a)" d="M26.27 171.818h372" fill="none" stroke="#000" stroke-dasharray="5,5" stroke-opacity=".3" stroke-width=".5" id="line2d_19"/><use xlink:href="#HelveticaWorld-Regular-54" transform="matrix(.14 0 0 -.14 14.985 176.843)" id="text_15"/></g><g id="ytick_5"><path clip-path="url(#p2a56d5a51a)" d="M26.27 128.852h372" fill="none" stroke="#000" stroke-dasharray="5,5" stroke-opacity=".3" stroke-width=".5" id="line2d_21"/><use xlink:href="#HelveticaWorld-Regular-56" transform="matrix(.14 0 0 -.14 14.985 133.877)" id="text_16"/></g><g id="ytick_6"><path clip-path="url(#p2a56d5a51a)" d="M26.27 85.886h372" fill="none" stroke="#000" stroke-dasharray="5,5" stroke-opacity=".3" stroke-width=".5" id="line2d_23"/><g transform="matrix(.14 0 0 -.14 7.2 90.91)" id="text_17"><use xlink:href="#HelveticaWorld-Regular-49"/><use x="55.615" xlink:href="#HelveticaWorld-Regular-48"/></g></g><g id="ytick_7"><path clip-path="url(#p2a56d5a51a)" d="M26.27 42.92h372" fill="none" stroke="#000" stroke-dasharray="5,5" stroke-opacity=".3" stroke-width=".5" id="line2d_25"/><g transform="matrix(.14 0 0 -.14 7.2 47.945)" id="text_18"><use xlink:href="#HelveticaWorld-Regular-49"/><use x="55.615" xlink:href="#HelveticaWorld-Regular-50"/></g></g></g><path clip-path="url(#p2a56d5a51a)" d="M47.17 300.716l3.007-.693 3.056.693L56.24 300l3.009.716 3.004-2.148 3.007 1.455h3.056l2.908-3.143 2.907 1.064 3.008 1.34 3.007.046 3.007-2.194 3.007.115 3.056-2.079L92.222 300l3.01-2.056 3.004-2.957 3.007-.508 3.056 3.465 2.957-1.673 2.956-3.178 3.009 4.759 3.006-10.996 3.007-1.894 3.007 5.36 3.056-2.773 3.007 6.006 3.009-12.243 3.004 1.502 3.007.577 3.056 1.386 2.908-10.147 2.907 6.682 3.008-2.079 3.007 5.544 3.007-6.976 3.007-2.726 3.056-4.158 3.006-6.006 3.01 10.164 3.004-13.028 3.007 9.563 3.056-6.93 2.908 2.277 2.906-5.742 3.009-.6 3.007.6 3.007-4.18 3.006 1.408 3.056-12.474 3.007 12.497 3.009-.023 3.005 10.765 3.007-3.142 3.056-13.86 2.908 4.01 2.906-.545 3.009-7.23 3.007 5.151 3.006 2.01 3.007 7 3.056-1.387 3.007 2.264 3.009-.185 3.004-9.84 3.007 6.375 3.056 4.158 2.958.43 2.955-2.509 3.009.139 3.007-.139 3.007 14.46 3.006-4.758 3.056-10.395 3.007.832 3.009 10.95 3.005-3.073 3.007 5.151 3.056-.693 2.908-4.356 2.906.891 3.009 11.897 3.007-21.599 3.006 2.98 3.007 5.336 3.056 11.088 3.007-2.818 3.009-4.112 3.004 4.828 3.007 3.488 3.056-5.544 2.908-2.599 2.907 8.836 3.008-5.613 3.007 8.385 3.007.208 3.007.485 3.056-6.93 3.007 2.149 3.008-.763 3.005-2.818 3.007 10.441 3.056-2.079 2.908-2.326 2.906-11.534 3.01 21.252 3.006-4.62 3.007-2.54 3.006 1.847h3.057l3.006-.416 3.01-2.356 3.004 3.073 3.007 5.243 3.056-1.386 2.957-2.055 2.956-4.875" fill="none" stroke="#9467bd" stroke-linecap="square" stroke-width="1.5" id="line2d_27"/><path clip-path="url(#p2a56d5a51a)" d="M26.27 300.716l3.007-.693 3.056.693h8.824l3.006-.693L47.17 300l3.007.716 3.056-.693L56.24 300l3.009.023 3.004-.023 3.007-.67 3.056-.693 2.908-.223 2.907.916 3.008.67 3.007-2.749 3.007-.831 3.007 2.217h3.056l3.006-2.217 3.01-.555 3.004-.161 3.007-.532 3.056-2.079 2.957.956 2.956-9.965 3.009 3.026 3.006.44 3.007-1.156 3.007-.23 3.056 1.385 3.007-1.87 3.009-8.525 3.004-5.798 3.007 9.956 3.056-4.85 2.908-11.806 2.907-8.292 3.008 7.115 3.007-.878 3.007.878 3.007 1.201 3.056-8.316 3.006 9.98 3.01-21.068 3.004.3 3.007 11.481 3.056-22.176 2.908 4.455 2.906-16.236 3.009 8.155 3.007 20.258 3.007-10.95 3.006-4.989 3.056-9.702 3.007 6.815 3.009 2.194 3.005 16.424 3.007-35.135 3.056-14.553 2.908 7.03 2.906 8.91 3.009 17.994 3.007 8.34 3.006-27.675 3.007 19.358 3.056 4.851 3.007 20.19 3.009-16.032 3.004 1.71 3.007 5.913 3.056-18.018 2.958 1.338 2.955 2.127 3.009.763 3.007 6.86 3.007-9.009 3.006 4.851 3.056-26.334 3.007 5.73 3.009 15.753 3.005 12.174 3.007 6.537 3.056-3.465 2.908-12.177 2.906-18.315 3.009 20.975 3.007-7.808 3.006-3.65 3.007 15.431 3.056 4.851 3.007 3.35 3.009-3.35 3.004 9.079 3.007 8.246 3.056-2.079 2.908-12.92 2.907 10.148 3.008 1.617 3.007-3.003 3.007 7.3 3.007 7.946 3.056-13.167 3.007 4.505 3.008 7.97 3.005-2.241 3.007 3.626 3.056 1.386 2.908 5.371 2.906-3.292 3.01 7.23 3.006-13.467 3.007 7.023 3.006-.786 3.057 3.465 3.006-2.68 3.01 3.373 3.004-3.372 3.007 5.451 3.056-1.386 2.957-.263 2.956-4.588" fill="none" stroke="#d62728" stroke-linecap="square" stroke-width="1.5" id="line2d_28"/><g id="text_19"><defs><path d="M38.375 26.703q-.969-1.015-3.828-1.656-2.86-.625-10.672-1.656-5.766-.688-8.469-2.844-2.703-2.14-2.703-5.656 0-4.297 2.281-6.688 2.297-2.39 7.329-2.39 6.296 0 11.171 3.578 4.891 3.593 4.891 8.718zM6.203 36.375q.297 8.844 5.734 13.14 5.454 4.297 15.844 4.297 8.297 0 13.907-3.765 5.624-3.75 5.624-10.844V9.078Q47.313 6 50.094 6q1.125 0 2.89.39V0Q50.594-.984 48-.984q-4.5 0-6.703 1.921-2.188 1.938-2.281 6.047-7.516-8.5-18.891-8.5-7.422 0-11.922 4.204Q3.72 6.89 3.72 13.624q0 6.89 3.906 11.125Q11.531 29 19 29.89l15.516 1.891q4.203.64 4.203 6.203 0 4.11-3.047 6.297-3.047 2.203-9.25 2.203-5.516 0-8.485-2.437-2.953-2.438-3.53-7.672z" id="HelveticaWorld-Regular-97"/><path d="M49.219 0h-8.844v32.172q0 7.422-2.594 10.578-2.578 3.156-8.578 3.156-5.906 0-9.875-4.5-3.953-4.484-3.953-12.89V0H6.594v52.297h8.297v-7.375h.203q6.203 8.89 15.812 8.89 8.89 0 13.594-4.718 4.719-4.703 4.719-13.5z" id="HelveticaWorld-Regular-110"/><path d="M36.078 37.406q-.187 4.688-3.344 6.735-3.14 2.047-9.047 2.047-4.296 0-7.359-1.907-3.047-1.89-3.047-5.468 0-2.829 1.797-4.172 1.813-1.344 7.828-2.86l8.688-2.187q7.906-2 11.297-5.11 3.406-3.093 3.406-8.656 0-7.719-5.64-12.531-5.641-4.813-15.063-4.813-11 0-16.64 4.563-5.626 4.578-5.735 13.75h8.5q.203-5.422 3.594-8.063 3.39-2.625 10.171-2.625 5.516 0 8.766 2.188 3.25 2.203 3.25 6.11 0 2.78-2.11 4.437-2.093 1.672-8.296 3.078l-10.203 2.5q-6.203 1.562-9.157 4.656-2.953 3.094-2.953 8.031 0 7.72 5.516 12.203 5.531 4.5 14.406 4.5 9.485 0 14.531-4.624 5.047-4.61 5.344-11.782z" id="HelveticaWorld-Regular-115"/><path d="M6.594 61.813v9.968h8.781v-9.969zM15.375 0H6.594v52.297h8.781z" id="HelveticaWorld-Regular-105"/><path d="M43.406 26.313q0 10.5-3.718 15.046-3.704 4.547-10.579 4.547-6.984-.11-10.562-5.453Q14.984 35.11 14.984 25q0-10.297 4.297-14.594Q23.578 6.11 29.297 6.11q6.5 0 10.297 5.344 3.812 5.344 3.812 14.86zM6.594 0v71.781h8.781V45.703h.203q5.61 8.11 15.14 8.11 9.766 0 15.766-7.25t6-18.876q0-13.093-6.062-21.156Q40.375-1.516 29.5-1.516q-9.578 0-14.406 8.016h-.203V0z" id="HelveticaWorld-Regular-98"/><path d="M15.375 0H6.594v71.781h8.781z" id="HelveticaWorld-Regular-108"/><path d="M42.484 30.328q-.687 8.485-4.5 12.031-3.797 3.547-10.109 3.547-6.39 0-10.328-4.5-3.922-4.484-4.172-11.078zm8.391-13.922q-1.453-8.11-7.953-13.422-5.719-4.5-15.047-4.593-10.984.093-17.438 7.203Q4 12.704 4 24.704q0 13.78 6.64 21.437 6.641 7.672 18.47 7.672 10.593 0 16.546-7.922 5.953-7.907 5.953-22.594H13.375q0-8.203 3.813-12.703Q21 6.109 28.608 6.109q5.375 0 9.235 3.235 3.86 3.25 4.25 7.062z" id="HelveticaWorld-Regular-101"/></defs><g transform="matrix(.14 0 0 -.14 401.99 43.724)" fill="#1f77b4"><use xlink:href="#HelveticaWorld-Regular-97"/><use x="54.932" xlink:href="#HelveticaWorld-Regular-110"/><use x="110.107" xlink:href="#HelveticaWorld-Regular-115"/><use x="160.107" xlink:href="#HelveticaWorld-Regular-105"/><use x="182.129" xlink:href="#HelveticaWorld-Regular-98"/><use x="238.623" xlink:href="#HelveticaWorld-Regular-108"/><use x="260.645" xlink:href="#HelveticaWorld-Regular-101"/></g></g><g id="text_20"><defs><path d="M17.188 45.016V10.984q0-2 1.093-3.046 1.11-1.047 3.938-1.047h3.375V0Q20.797-.688 19-.688q-5.516 0-8.063 2.641-2.53 2.64-2.53 8.547v34.516H1.311v7.28h7.094v14.595h8.781V52.297h8.407v-7.281z" id="HelveticaWorld-Regular-116"/><path d="M15.375 0H6.594v52.297h8.297v-8.688h.203q5.703 10.203 14.687 10.203 1.422 0 2.297-.296V44.39h-3.266q-5.906 0-9.671-4.016-3.766-4-3.766-9.953z" id="HelveticaWorld-Regular-114"/><path d="M17.188 45.016V0H8.405v45.016H1.22v7.28h7.187v8.985q0 5.907 3.578 8.703 3.594 2.813 10.032 2.813 2.203 0 3.968-.188v-7.906q-1.562.188-3.578.188-2.922 0-4.078-1.438-1.14-1.437-1.14-4.656v-6.5h8.796v-7.281z" id="HelveticaWorld-Regular-102"/><path d="M12.703 26.219q0-8.735 3.953-14.375 3.953-5.64 11.219-5.64 7.531 0 11.438 5.905 3.906 5.907 3.906 14.11 0 8.297-3.907 14.078-3.906 5.797-11.437 5.797-6.969 0-11.078-5.453-4.094-5.438-4.094-14.422zm-8.984 0q0 11.672 6.484 19.625 6.5 7.968 17.672 7.968 11.438 0 17.875-8.062 6.453-8.047 6.453-19.531 0-11.516-6.406-19.625-6.39-8.11-17.922-8.11-11.078 0-17.625 7.86-6.531 7.86-6.531 19.875z" id="HelveticaWorld-Regular-111"/><path d="M6.594 52.297h8.297v-7.375h.203q5.906 8.89 15.812 8.89 9.813 0 13.922-8.5 3.75 4.594 7.266 6.547 3.515 1.953 8.703 1.953 6.781 0 11.484-4.453Q77 44.922 77 36.187V0h-8.781v33.797q0 6.094-2.297 9.094-2.297 3.015-7.422 3.015-5.172 0-8.75-4.203-3.563-4.203-3.563-9.812V0h-8.78v36.188q0 4.53-2.11 7.124-2.094 2.594-6.094 2.594-6.297 0-10.062-4.687-3.766-4.688-3.766-12.703V0H6.594z" id="HelveticaWorld-Regular-109"/></defs><g transform="matrix(.14 0 0 -.14 401.99 149.06)" fill="#ff7f0e"><use xlink:href="#HelveticaWorld-Regular-116"/><use x="27.686" xlink:href="#HelveticaWorld-Regular-101"/><use x="83.105" xlink:href="#HelveticaWorld-Regular-114"/><use x="115.674" xlink:href="#HelveticaWorld-Regular-114"/><use x="147.242" xlink:href="#HelveticaWorld-Regular-97"/><use x="202.174" xlink:href="#HelveticaWorld-Regular-102"/><use x="227.859" xlink:href="#HelveticaWorld-Regular-111"/><use x="283.768" xlink:href="#HelveticaWorld-Regular-114"/><use x="316.336" xlink:href="#HelveticaWorld-Regular-109"/></g></g><g id="text_21"><defs><path d="M14.11 7.328h32.187V0H2.39v6.89l31.64 38.126H4.938v7.28h40.374v-7.171z" id="HelveticaWorld-Regular-122"/><path d="M28.906 23.188H4.391v8.984h24.515z" id="HelveticaWorld-Regular-45"/><path d="M39.594 34.719q-1.89 11.187-12.39 11.187-6.5 0-10.454-5.203-3.953-5.203-3.953-14.484 0-10.11 3.656-15.11 3.672-5 10.64-5 4.688 0 8.11 3.438 3.422 3.437 4.39 8.953h8.5q-1.312-9.703-6.859-14.86-5.547-5.156-14.328-5.156-10.297 0-16.89 7.047-6.594 7.063-6.594 19.172 0 13.281 6.594 21.188 6.593 7.922 18.5 7.922 8.687 0 13.843-5.204 5.157-5.203 5.735-13.89z" id="HelveticaWorld-Regular-99"/><path d="M6.11 52.297h8.78V17.578q0-5.765 2.61-8.625Q20.125 6.11 25 6.11q6.781 0 10.594 4.797 3.812 4.813 3.812 12.578v28.813h8.782V0H39.89v7.625l-.188.188q-4.984-9.329-16.61-9.329-7.515 0-12.25 4.094Q6.11 6.688 6.11 14.703z" id="HelveticaWorld-Regular-117"/><path d="M13.094 26.313q0-9.704 3.844-14.954 3.859-5.25 10.265-5.25 6.094 0 10.188 4.485 4.109 4.5 4.109 13.094 0 11.03-3.5 16.625-3.484 5.593-10.61 5.593-6.78 0-10.546-4.453-3.75-4.437-3.75-15.14zM50.39 0h-8.297v7.172h-.203q-4.97-8.688-15.078-8.688-10.891 0-16.86 8.297Q4 15.094 4 27.688q0 11.625 5.906 18.875 5.922 7.25 15.875 7.25 9.813 0 15.625-8.891l.203.594V71.78h8.782z" id="HelveticaWorld-Regular-100"/></defs><g transform="matrix(.14 0 0 -.14 401.99 211.43)" fill="#2ca02c"><use xlink:href="#HelveticaWorld-Regular-97"/><use x="54.932" xlink:href="#HelveticaWorld-Regular-109"/><use x="137.939" xlink:href="#HelveticaWorld-Regular-97"/><use x="192.871" xlink:href="#HelveticaWorld-Regular-122"/><use x="240.34" xlink:href="#HelveticaWorld-Regular-111"/><use x="296.248" xlink:href="#HelveticaWorld-Regular-110"/><use x="351.424" xlink:href="#HelveticaWorld-Regular-45"/><use x="384.725" xlink:href="#HelveticaWorld-Regular-99"/><use x="435.994" xlink:href="#HelveticaWorld-Regular-108"/><use x="458.016" xlink:href="#HelveticaWorld-Regular-111"/><use x="513.924" xlink:href="#HelveticaWorld-Regular-117"/><use x="568.709" xlink:href="#HelveticaWorld-Regular-100"/><use x="625.691" xlink:href="#HelveticaWorld-Regular-102"/><use x="651.377" xlink:href="#HelveticaWorld-Regular-111"/><use x="707.285" xlink:href="#HelveticaWorld-Regular-114"/><use x="739.854" xlink:href="#HelveticaWorld-Regular-109"/><use x="822.861" xlink:href="#HelveticaWorld-Regular-97"/><use x="877.793" xlink:href="#HelveticaWorld-Regular-116"/><use x="905.479" xlink:href="#HelveticaWorld-Regular-105"/><use x="927.5" xlink:href="#HelveticaWorld-Regular-111"/><use x="983.408" xlink:href="#HelveticaWorld-Regular-110"/></g></g><g id="text_22"><defs><path d="M49.219 0h-8.844v34.188q0 6.296-2.438 9-2.437 2.718-7.953 2.718-6.797 0-10.703-4.406-3.906-4.39-3.906-12.984V0H6.594v71.781h8.781V45.312h.203q6 8.5 15.328 8.5 8.594 0 13.453-4.5 4.86-4.484 4.86-13.718z" id="HelveticaWorld-Regular-104"/></defs><g transform="matrix(.14 0 0 -.14 401.99 273.338)" fill="#d62728"><use xlink:href="#HelveticaWorld-Regular-99"/><use x="51.27" xlink:href="#HelveticaWorld-Regular-104"/><use x="106.445" xlink:href="#HelveticaWorld-Regular-101"/><use x="160.865" xlink:href="#HelveticaWorld-Regular-102"/></g></g><g id="text_23"><defs><path d="M14.984 23.688q0-8.407 4.094-13 4.11-4.579 10.219-4.579 6.687 0 10.39 5.438 3.72 5.453 3.72 14.765 0 10.22-3.563 14.907-3.563 4.687-10.735 4.687-6.984 0-10.562-5.5-3.563-5.5-3.563-16.718zm-8.39 28.609h8.297v-7.375h.203q5.61 8.89 15.625 8.89 10.11 0 15.937-7.359 5.828-7.344 5.828-18.766 0-12.796-5.953-21Q40.578-1.515 29.5-1.515q-9.094 0-13.922 7.032h-.203v-26.22H6.594z" id="HelveticaWorld-Regular-112"/></defs><g transform="matrix(.14 0 0 -.14 401.99 289.508)" fill="#9467bd"><use xlink:href="#HelveticaWorld-Regular-112"/><use x="56.494" xlink:href="#HelveticaWorld-Regular-117"/><use x="111.279" xlink:href="#HelveticaWorld-Regular-112"/><use x="167.773" xlink:href="#HelveticaWorld-Regular-112"/><use x="224.268" xlink:href="#HelveticaWorld-Regular-101"/><use x="279.688" xlink:href="#HelveticaWorld-Regular-116"/></g></g><g id="text_24"><defs><path d="M50 0H38.719L22.406 26.422l-7.312-6.594V0h-8.5v71.781h8.5v-41.61l22.5 22.126H48.78L28.813 32.813z" id="HelveticaWorld-Regular-107"/></defs><g transform="matrix(.14 0 0 -.14 401.99 305.678)" fill="#8c564b"><use xlink:href="#HelveticaWorld-Regular-115"/><use x="50" xlink:href="#HelveticaWorld-Regular-97"/><use x="104.932" xlink:href="#HelveticaWorld-Regular-108"/><use x="126.953" xlink:href="#HelveticaWorld-Regular-116"/><use x="154.639" xlink:href="#HelveticaWorld-Regular-45"/><use x="187.939" xlink:href="#HelveticaWorld-Regular-115"/><use x="237.939" xlink:href="#HelveticaWorld-Regular-116"/><use x="265.625" xlink:href="#HelveticaWorld-Regular-97"/><use x="320.557" xlink:href="#HelveticaWorld-Regular-99"/><use x="371.826" xlink:href="#HelveticaWorld-Regular-107"/></g></g><g id="text_25"><defs><path d="M50.39 50.781q-.296 6.844-5.109 10.719-4.797 3.875-12.656 3.875-7.922 0-12.172-3.25-4.234-3.234-4.234-9.344 0-3.265 1.843-5.61 1.86-2.343 6.641-3.468l20.516-4.687q8.297-1.813 12.297-6.875 4.015-5.047 4.015-12.313 0-10.64-7.812-16.187-7.813-5.547-20.313-5.547-9.531 0-15.031 2.437-5.484 2.453-9.734 7.766-4.25 5.328-4.25 14.89h9.093q0-8 5.313-12.406 5.328-4.39 14.5-4.39 8.89 0 13.844 3.156 4.953 3.156 4.953 8.953 0 5.281-2.953 7.89Q46.188 29 37.594 31l-15.469 3.625q-7.719 1.75-11.531 6.125Q6.78 45.125 6.78 51.516q0 9.672 6.516 15.922 6.531 6.25 18.203 6.25 13.172 0 20.328-5.5 7.156-5.485 7.688-17.407z" id="HelveticaWorld-Regular-83"/><path d="M63.922 35.89q0 12.594-6.672 20.891-6.656 8.313-18.328 8.313-11.531 0-18.266-8.313-6.734-8.297-6.734-20.89 0-12.985 6.828-21.094 6.844-8.11 18.172-8.11 11.078 0 18.031 7.907 6.969 7.922 6.969 21.297zm9.953 0q0-16.062-9.281-26.937-9.266-10.86-25.672-10.86-16.516 0-25.766 10.86-9.25 10.875-9.25 26.938 0 16.109 9.25 26.953 9.25 10.843 25.766 10.843 16.89 0 25.922-11.046 9.031-11.032 9.031-26.75z" id="HelveticaWorld-Regular-79"/><path d="M39.406 52.297h9.625L29.11 0h-9.437L.594 52.297h10.203L24.422 9.719h.187z" id="HelveticaWorld-Regular-118"/><path d="M25.594 0h-8.985L1.516 52.297h9.468L21 11.187h.188l10.109 41.11h9.922l10.203-41.11h.187l10.594 41.11h8.703L55.812 0h-9.234L35.984 40.484h-.187z" id="HelveticaWorld-Regular-119"/><path d="M44 29.5L33.406 61.078h-.203L21.687 29.5zm-25.297-8.594L11.188 0h-9.97l27 71.781h10.985L65.187 0H54.594l-7.078 20.906z" id="HelveticaWorld-Regular-65"/><path d="M17.828 38.625H37.11q7.282 0 10.938 3.188 3.656 3.203 3.656 9.703 0 5.812-3.516 8.89-3.515 3.078-10.687 3.078H17.828zm0-38.625H8.11v71.781h32.266q9.625 0 15.484-5.594 5.86-5.593 5.86-14.578 0-9.328-5.672-15.312-5.656-5.969-15.672-5.969H17.828z" id="HelveticaWorld-Regular-80"/><path d="M17.828 0H8.11v71.781h9.72z" id="HelveticaWorld-Regular-73"/><path d="M9.422 73.688h7.281V-1.906H9.422z" id="HelveticaWorld-Regular-124"/><path d="M55.61 71.781h9.374V0h-10.78L17.577 58.016h-.187V0H8.109v71.781h11.375l35.938-57.969h.187z" id="HelveticaWorld-Regular-78"/><path d="M12.703 26.219q0-8.735 3.953-14.375 3.953-5.64 11.219-5.64 7.531 0 11.438 5.905 3.906 5.907 3.906 14.11 0 8.297-3.907 14.078-3.906 5.797-11.437 5.797-6.969 0-11.078-5.453-4.094-5.438-4.094-14.422zm-8.984 0q0 11.672 6.484 19.625 6.5 7.968 17.672 7.968 11.438 0 17.875-8.062 6.453-8.047 6.453-19.531 0-11.516-6.406-19.625-6.39-8.11-17.922-8.11-11.078 0-17.625 7.86-6.531 7.86-6.531 19.875zm36.734 35.406H31.47v10.156h8.984zm-16.219 0H15.25v10.156h8.984z" id="HelveticaWorld-Regular-246"/><path d="M58.016 50.203q-1.625 7.313-6.782 11.094-5.14 3.797-13.343 3.797-10.594 0-17.047-7.703-6.438-7.688-6.438-20.766 0-15.14 6.094-22.547 6.11-7.39 17.688-7.39 7.609 0 13.093 5.046 5.5 5.063 7.407 14.688h9.421Q66.22 12.594 57.625 5.344t-20.906-7.25q-14.703 0-23.516 10.11Q4.391 18.311 4.391 36.28q0 17.328 9.203 27.36 9.203 10.047 24.297 10.047 12.5 0 20.265-6.454 7.766-6.437 9.235-17.03z" id="HelveticaWorld-Regular-67"/><path d="M8.11 71.781h31.484q9.281 0 14.797-5.031 5.515-5.031 5.515-13.031 0-4.844-2.422-8.828-2.406-3.97-7.187-6.172 6.687-2.532 9.828-6.735 3.156-4.203 3.156-10.797 0-9.265-6.687-15.234Q49.906 0 38.922 0H8.109zm9.562-63.484h20.703q7.625 0 11.422 3.531 3.812 3.547 3.812 9.563 0 6.093-4.25 9.093Q45.125 33.5 36.812 33.5h-19.14zm0 33.11h17.625q7.719 0 11.312 2.796 3.594 2.813 3.594 8.781 0 5.125-3.406 7.813-3.39 2.687-11.39 2.687H17.671z" id="HelveticaWorld-Regular-66"/><path d="M37.313 0h-9.72v28.906L.485 71.781h11.329l20.609-34.469 20.562 34.47h11.422L37.312 28.905z" id="HelveticaWorld-Regular-89"/></defs><g transform="matrix(.1 0 0 -.1 26.27 335.614)" fill="#888"><use xlink:href="#HelveticaWorld-Regular-83"/><use x="66.211" xlink:href="#HelveticaWorld-Regular-116"/><use x="93.896" xlink:href="#HelveticaWorld-Regular-97"/><use x="148.828" xlink:href="#HelveticaWorld-Regular-99"/><use x="200.098" xlink:href="#HelveticaWorld-Regular-107"/><use x="250.098" xlink:href="#HelveticaWorld-Regular-79"/><use x="327.881" xlink:href="#HelveticaWorld-Regular-118"/><use x="375.49" xlink:href="#HelveticaWorld-Regular-101"/><use x="430.91" xlink:href="#HelveticaWorld-Regular-114"/><use x="464.979" xlink:href="#HelveticaWorld-Regular-102"/><use x="492.664" xlink:href="#HelveticaWorld-Regular-108"/><use x="514.686" xlink:href="#HelveticaWorld-Regular-111"/><use x="569.094" xlink:href="#HelveticaWorld-Regular-119"/><use x="641.506" xlink:href="#HelveticaWorld-Regular-32"/><use x="665.92" xlink:href="#HelveticaWorld-Regular-65"/><use x="732.619" xlink:href="#HelveticaWorld-Regular-80"/><use x="797.268" xlink:href="#HelveticaWorld-Regular-73"/><use x="823.049" xlink:href="#HelveticaWorld-Regular-32"/><use x="847.463" xlink:href="#HelveticaWorld-Regular-118"/><use x="897.072" xlink:href="#HelveticaWorld-Regular-105"/><use x="919.094" xlink:href="#HelveticaWorld-Regular-97"/><use x="974.025" xlink:href="#HelveticaWorld-Regular-32"/><use x="998.439" xlink:href="#HelveticaWorld-Regular-104"/><use x="1053.615" xlink:href="#HelveticaWorld-Regular-111"/><use x="1109.523" xlink:href="#HelveticaWorld-Regular-116"/><use x="1137.209" xlink:href="#HelveticaWorld-Regular-119"/><use x="1207.246" xlink:href="#HelveticaWorld-Regular-97"/><use x="1262.178" xlink:href="#HelveticaWorld-Regular-114"/><use x="1293.746" xlink:href="#HelveticaWorld-Regular-101"/><use x="1349.166" xlink:href="#HelveticaWorld-Regular-32"/><use x="1373.58" xlink:href="#HelveticaWorld-Regular-124"/><use x="1399.557" xlink:href="#HelveticaWorld-Regular-32"/><use x="1423.971" xlink:href="#HelveticaWorld-Regular-78"/><use x="1497.066" xlink:href="#HelveticaWorld-Regular-105"/><use x="1519.088" xlink:href="#HelveticaWorld-Regular-99"/><use x="1570.357" xlink:href="#HelveticaWorld-Regular-111"/><use x="1626.266" xlink:href="#HelveticaWorld-Regular-32"/><use x="1650.68" xlink:href="#HelveticaWorld-Regular-83"/><use x="1716.891" xlink:href="#HelveticaWorld-Regular-99"/><use x="1768.16" xlink:href="#HelveticaWorld-Regular-104"/><use x="1823.336" xlink:href="#HelveticaWorld-Regular-108"/><use x="1845.357" xlink:href="#HelveticaWorld-Regular-246"/><use x="1901.266" xlink:href="#HelveticaWorld-Regular-109"/><use x="1984.273" xlink:href="#HelveticaWorld-Regular-101"/><use x="2039.693" xlink:href="#HelveticaWorld-Regular-114"/><use x="2072.262" xlink:href="#HelveticaWorld-Regular-32"/><use x="2096.676" xlink:href="#HelveticaWorld-Regular-124"/><use x="2122.652" xlink:href="#HelveticaWorld-Regular-32"/><use x="2147.066" xlink:href="#HelveticaWorld-Regular-67"/><use x="2219.381" xlink:href="#HelveticaWorld-Regular-67"/><use x="2291.695" xlink:href="#HelveticaWorld-Regular-32"/><use x="2316.109" xlink:href="#HelveticaWorld-Regular-66"/><use x="2378.922" xlink:href="#HelveticaWorld-Regular-89"/></g></g><g id="text_26"><defs><path d="M17.828 8.297h18.797q9.766 0 15.281 7.5 5.516 7.5 5.516 20.484 0 12.844-5.563 19.969-5.562 7.125-16.062 7.234H17.828zM8.11 71.78h29.094q14.11 0 22.094-9.703 7.984-9.687 7.984-25.156 0-16.61-7.984-26.766Q51.313 0 36.813 0H8.108z" id="HelveticaWorld-Regular-68"/><path d="M39.016 52.297h9.562L29.891.984q-.5-1.375-.985-2.593-4.25-11.329-7.328-15.547-3.078-4.235-9.953-4.235-3.61 0-5.906.782v8.015q2.484-.89 5.468-.89 3.22 0 4.704 2.03 1.5 2.032 4.421 9.938L.875 52.297h9.922L24.812 9.719H25z" id="HelveticaWorld-Regular-121"/><path d="M41.5 23.688q0 11.125-3.5 16.671-3.484 5.547-10.61 5.547-6.874 0-10.593-4.5-3.703-4.484-3.703-15.093 0-9.422 3.75-14.813 3.765-5.39 10.36-5.39 5.812 0 10.046 4.39 4.25 4.39 4.25 13.188zm8.406-44.391H41.11V5.516h-.187Q35.89-1.516 27-1.516q-10.984 0-17 8.157-6 8.156-6 21.047 0 11.421 5.906 18.765 5.922 7.36 15.875 7.36 9.907 0 15.625-8.891h.203v7.375h8.297z" id="HelveticaWorld-Regular-113"/></defs><g transform="matrix(.14 0 0 -.14 76.204 17.516)"><use xlink:href="#HelveticaWorld-Regular-68"/><use x="72.021" xlink:href="#HelveticaWorld-Regular-97"/><use x="126.953" xlink:href="#HelveticaWorld-Regular-105"/><use x="148.975" xlink:href="#HelveticaWorld-Regular-108"/><use x="170.996" xlink:href="#HelveticaWorld-Regular-121"/><use x="220.605" xlink:href="#HelveticaWorld-Regular-32"/><use x="245.02" xlink:href="#HelveticaWorld-Regular-110"/><use x="300.195" xlink:href="#HelveticaWorld-Regular-117"/><use x="354.98" xlink:href="#HelveticaWorld-Regular-109"/><use x="437.988" xlink:href="#HelveticaWorld-Regular-98"/><use x="494.482" xlink:href="#HelveticaWorld-Regular-101"/><use x="549.902" xlink:href="#HelveticaWorld-Regular-114"/><use x="582.471" xlink:href="#HelveticaWorld-Regular-32"/><use x="606.885" xlink:href="#HelveticaWorld-Regular-111"/><use x="662.793" xlink:href="#HelveticaWorld-Regular-102"/><use x="690.479" xlink:href="#HelveticaWorld-Regular-32"/><use x="714.893" xlink:href="#HelveticaWorld-Regular-113"/><use x="771.387" xlink:href="#HelveticaWorld-Regular-117"/><use x="826.172" xlink:href="#HelveticaWorld-Regular-101"/><use x="881.592" xlink:href="#HelveticaWorld-Regular-115"/><use x="931.592" xlink:href="#HelveticaWorld-Regular-116"/><use x="959.277" xlink:href="#HelveticaWorld-Regular-105"/><use x="981.299" xlink:href="#HelveticaWorld-Regular-111"/><use x="1037.207" xlink:href="#HelveticaWorld-Regular-110"/><use x="1092.383" xlink:href="#HelveticaWorld-Regular-115"/><use x="1142.383" xlink:href="#HelveticaWorld-Regular-32"/><use x="1166.797" xlink:href="#HelveticaWorld-Regular-111"/><use x="1222.705" xlink:href="#HelveticaWorld-Regular-110"/><use x="1277.881" xlink:href="#HelveticaWorld-Regular-32"/><use x="1302.295" xlink:href="#HelveticaWorld-Regular-83"/><use x="1368.506" xlink:href="#HelveticaWorld-Regular-116"/><use x="1396.191" xlink:href="#HelveticaWorld-Regular-97"/><use x="1451.123" xlink:href="#HelveticaWorld-Regular-99"/><use x="1502.393" xlink:href="#HelveticaWorld-Regular-107"/><use x="1552.393" xlink:href="#HelveticaWorld-Regular-79"/><use x="1630.176" xlink:href="#HelveticaWorld-Regular-118"/><use x="1677.785" xlink:href="#HelveticaWorld-Regular-101"/><use x="1733.205" xlink:href="#HelveticaWorld-Regular-114"/><use x="1767.273" xlink:href="#HelveticaWorld-Regular-102"/><use x="1794.959" xlink:href="#HelveticaWorld-Regular-108"/><use x="1816.98" xlink:href="#HelveticaWorld-Regular-111"/><use x="1871.389" xlink:href="#HelveticaWorld-Regular-119"/></g></g><path clip-path="url(#p2a56d5a51a)" d="M71.224 300.716l2.907-.693 3.008.693H89.216l3.006-1.432 3.01.74 3.004.692 3.007-.693h3.056l2.957.693 2.956-.693 3.009-3.603 3.006.831 3.007 3.465 3.007-2.079 3.056-.693 3.007 1.34 3.009-2.033 3.004.6 3.007.786 3.056-3.465 2.908 4.01 2.907-4.703 3.008.508 3.007 5.036 3.007-.023 3.007-4.135 3.056 1.386 3.006 2.033 3.01-4.112 3.004.532 3.007-.532 3.056-1.386 2.908.025 2.906.668 3.009 1.94 3.007.832 3.007-3.696 3.006 5.775 3.056-.693 3.007-2.933 3.009-1.225 3.005-3.072 3.007-2.472 3.056.693 2.908 1.114 2.906 3.737 3.009-3.788 3.007 2.402 3.006 2.61 3.007-4.689 3.056-4.158 3.007 2.403 3.009 3.141 3.004-11.735 3.007 4.805 3.056-4.85 2.958 6.762 2.955-8.149 3.009.716 3.007-1.409 3.007 9.286 3.006-7.9 3.056-6.237 3.007 4.112 3.009-2.726 3.005.578 3.007-10.973 3.056-2.772 2.908-4.158 2.906-11.088 3.009 11.804 3.007 3.442 3.006-9.887 3.007-1.2 3.056 4.85 3.007-18.688 3.009 3.442 3.004 3.72 3.007 7.368 3.056-6.237 2.908-19.75 2.907 16.978 3.008-10.533 3.007 11.92 3.007-6.192 3.007-1.432 3.056-13.86 3.007 3.835 3.008 5.867 3.005-5.151 3.007 4.458 3.056-4.85 2.908-20.989 2.906 9.9 3.01 8.617 3.006-12.082 3.007 17.81 3.006-30.284 3.057 18.018 3.006-9.933 3.01-.462 3.004 6.191 3.007 15.292 3.056-31.878 2.957 23.204 2.956-12.116" fill="none" stroke="#2ca02c" stroke-linecap="square" stroke-width="1.5" id="line2d_29"/><path clip-path="url(#p2a56d5a51a)" d="M215.254 300.716l2.906-.693 3.009.693 3.007-.693 3.006-.023 3.007-2.056 3.056 2.08 3.007-.74 3.009.046 3.004 1.386 3.007-2.772h3.056l2.958-4.636 2.955-.908 3.009 1.155 3.007-3.234 3.007-1.062 3.006-3.096 3.056 4.851 3.007.393 3.009-4.55 3.005 1.686 3.007.392 3.056-6.93 2.908 5.668 2.906-10.519 3.009.647 3.007-21.437 3.006-1.478 3.007 3.557 3.056.693 3.007-1.386 3.009-8.316 3.004 12.613 3.007-6.376 3.056-16.632 2.908-10.444 2.907 11.83 3.008-2.726 3.007-3.51 3.007 12.82 3.007-22.523 3.056 2.08 3.007-5.337 3.008-2.287 3.005-5.59 3.007-2.726 3.056-23.562 2.908 6.237h2.906l3.01 9.31 3.006-24.556 3.007-15.546 3.006-28.806 3.057 15.94 3.006 5.705 3.01 17.163 3.004-22.176 3.007 23.562 3.056-23.562 2.957-28.15 2.956 23.3" fill="none" stroke="#ff7f0e" stroke-linecap="square" stroke-width="1.5" id="line2d_30"/><path clip-path="url(#p2a56d5a51a)" d="M134.317 300.716l3.007-.693h3.056l2.908.693 2.907-.693 3.008-.739 3.007-2.033 3.007 1.317 3.007-1.317 3.056-2.079 3.006-4.481 3.01-4.528 3.004.947 3.007-3.719 3.056-4.158 2.908-20.716 2.906-7.697 3.009 20.536 3.007 3.72 3.007-23.77 3.006 12.681 3.056-14.553 3.007 1.155 3.009-15.015 3.005 29.337 3.007-15.477h3.056l2.908-30.814 2.906-17.696 3.009 21.021 3.007-12.705 3.006-12.358 3.007-1.502 3.056-8.316 3.007-10.95 3.009-4.989 3.004 3.558 3.007 15.153 3.056-29.106 2.958-40.767 2.955 17.898 3.009-24.047 3.007-12.682 3.007 7.67 3.006 4.804 3.056-3.465 3.007-11.365 3.009-3.88 3.005 27.511 3.007-2.564 3.056 22.87 2.908-3.12 2.906 33.611 3.009.763 3.007-4.228 3.006-25.133 3.007 11.273 3.056-2.079 3.007 1.548 3.009 7.461 3.004-3.164 3.007 33.656 3.056 28.413 2.908-16.904 2.907 13.44 3.008-35.69 3.007-35.69 3.007 51.444 3.007-16.1 3.056-10.396 3.007 14.322 3.008-54.516 3.005-34.996 3.007 48.163 3.056-46.43 2.908-13.242 2.906-10.32 3.01-22.57 3.006 12.174 3.007 15.754 3.006-36.544 3.057-20.097 3.006 30.146 3.01-23.216 3.004 21.784 3.007 30.191 3.056-21.483 2.957-33.574 2.956 12.784" fill="none" stroke="#1f77b4" stroke-linecap="square" stroke-width="1.5" id="line2d_31"/></g></g><defs><clipPath id="p2a56d5a51a"><path d="M26.271 23.516h372v277.2h-372z"/></clipPath></defs></svg>