<svg height="502.017" viewBox="0 0 485.492 376.513" width="647.323" xmlns="http://www.w3.org/2000/svg" xmlns:xlink="http://www.w3.org/1999/xlink"><defs><style>*{stroke-linecap:butt;stroke-linejoin:round}</style></defs><g id="figure_1"><path d="M0 376.513h485.492V0H0z" style="fill:none" id="patch_1"/><g id="axes_1"><path d="M35.745 323.405h357.12V57.293H35.745z" style="fill:none" id="patch_2"/><g id="matplotlib.axis_1"><g id="xtick_1"><g id="line2d_1"><defs><path d="M0 0v3.5" id="m2098ad784e" style="stroke:#969696;stroke-width:.4"/></defs><use style="fill:#969696;stroke:#969696;stroke-width:.4" x="70.547" xlink:href="#m2098ad784e" y="323.405"/></g><g style="fill:#969696" transform="matrix(.14 0 0 -.14 56.184 340.345)" id="text_1"><defs><path d="M2944 0v467H1075v13l333 307c877 845 1434 1466 1434 2234 0 595-378 1209-1274 1209-480 0-890-179-1178-422l180-397c192 160 505 352 883 352 621 0 825-390 825-813-6-627-486-1164-1548-2176L288 346V0h2656z" id="MyriadPro-Regular-32" transform="scale(.01563)"/><path d="M1677 4230c-845 0-1447-768-1447-2163C243 691 794-70 1606-70c922 0 1447 780 1447 2195 0 1325-499 2105-1376 2105zm-32-435c582 0 845-672 845-1696 0-1062-276-1734-852-1734-512 0-844 614-844 1696 0 1133 358 1734 851 1734z" id="MyriadPro-Regular-30" transform="scale(.01563)"/><path d="M1510 0h544v4160h-480l-908-486 108-429 724 390h12V0z" id="MyriadPro-Regular-31" transform="scale(.01563)"/></defs><use xlink:href="#MyriadPro-Regular-32"/><use x="51.3" xlink:href="#MyriadPro-Regular-30"/><use x="102.6" xlink:href="#MyriadPro-Regular-31"/><use x="153.9" xlink:href="#MyriadPro-Regular-30"/></g></g><g id="xtick_2"><use style="fill:#969696;stroke:#969696;stroke-width:.4" x="125.183" xlink:href="#m2098ad784e" y="323.405" id="line2d_2"/><g style="fill:#969696" transform="matrix(.14 0 0 -.14 110.82 340.345)" id="text_2"><use xlink:href="#MyriadPro-Regular-32"/><use x="51.3" xlink:href="#MyriadPro-Regular-30"/><use x="102.6" xlink:href="#MyriadPro-Regular-31"/><use x="153.9" xlink:href="#MyriadPro-Regular-32"/></g></g><g id="xtick_3"><use style="fill:#969696;stroke:#969696;stroke-width:.4" x="179.894" xlink:href="#m2098ad784e" y="323.405" id="line2d_3"/><g style="fill:#969696" transform="matrix(.14 0 0 -.14 165.531 340.345)" id="text_3"><defs><path d="M2560 0v1133h582v441h-582v2586h-608L96 1504v-371h1933V0h531zM666 1574v13l1017 1415c115 192 218 371 346 614h19c-13-218-19-435-19-653V1574H666z" id="MyriadPro-Regular-34" transform="scale(.01563)"/></defs><use xlink:href="#MyriadPro-Regular-32"/><use x="51.3" xlink:href="#MyriadPro-Regular-30"/><use x="102.6" xlink:href="#MyriadPro-Regular-31"/><use x="153.9" xlink:href="#MyriadPro-Regular-34"/></g></g><g id="xtick_4"><use style="fill:#969696;stroke:#969696;stroke-width:.4" x="234.531" xlink:href="#m2098ad784e" y="323.405" id="line2d_4"/><g style="fill:#969696" transform="matrix(.14 0 0 -.14 220.167 340.345)" id="text_4"><defs><path d="M2662 4224c-102 0-243-6-409-32-525-64-986-275-1331-614-410-410-704-1056-704-1876C218 621 800-70 1690-70c864 0 1382 704 1382 1465 0 813-518 1344-1254 1344-461 0-807-217-1005-480h-19c96 685 563 1331 1446 1479 160 25 307 32 422 25v461zM1690 365c-589 0-903 505-916 1190 0 103 26 186 64 250 154 301 468 512 807 512 518 0 857-359 857-954s-326-998-806-998h-6z" id="MyriadPro-Regular-36" transform="scale(.01563)"/></defs><use xlink:href="#MyriadPro-Regular-32"/><use x="51.3" xlink:href="#MyriadPro-Regular-30"/><use x="102.6" xlink:href="#MyriadPro-Regular-31"/><use x="153.9" xlink:href="#MyriadPro-Regular-36"/></g></g><g id="xtick_5"><use style="fill:#969696;stroke:#969696;stroke-width:.4" x="289.242" xlink:href="#m2098ad784e" y="323.405" id="line2d_5"/><g style="fill:#969696" transform="matrix(.14 0 0 -.14 274.878 340.345)" id="text_5"><defs><path d="M1062 2170c-512-218-825-589-825-1114C237 448 762-70 1632-70c794 0 1414 486 1414 1209 0 506-320 871-838 1075v20c512 243 685 620 685 972 0 519-403 1024-1210 1024-729 0-1286-448-1286-1107 0-358 198-717 659-934l6-19zm583-1831c-531 0-851 371-832 794 0 397 262 717 749 857 563-160 915-403 915-908 0-423-327-743-832-743zm6 3488c506 0 704-345 704-678 0-378-275-634-633-755-480 128-794 352-794 768 0 358 256 665 723 665z" id="MyriadPro-Regular-38" transform="scale(.01563)"/></defs><use xlink:href="#MyriadPro-Regular-32"/><use x="51.3" xlink:href="#MyriadPro-Regular-30"/><use x="102.6" xlink:href="#MyriadPro-Regular-31"/><use x="153.9" xlink:href="#MyriadPro-Regular-38"/></g></g><g id="xtick_6"><use style="fill:#969696;stroke:#969696;stroke-width:.4" x="343.878" xlink:href="#m2098ad784e" y="323.405" id="line2d_6"/><g style="fill:#969696" transform="matrix(.14 0 0 -.14 329.515 340.345)" id="text_6"><use xlink:href="#MyriadPro-Regular-32"/><use x="51.3" xlink:href="#MyriadPro-Regular-30"/><use x="102.6" xlink:href="#MyriadPro-Regular-32"/><use x="153.9" xlink:href="#MyriadPro-Regular-30"/></g></g></g><g id="matplotlib.axis_2"><g id="ytick_1"><path clip-path="url(#p5042f9a260)" d="M35.745 323.405h357.12" style="fill:none;stroke:#969696;stroke-linecap:square;stroke-width:.3" id="line2d_7"/><g id="line2d_8"><defs><path d="M0 0h-3.5" id="m9b183b3bcc" style="stroke:#969696;stroke-width:.3"/></defs><use style="fill:#969696;stroke:#969696;stroke-width:.3" x="35.745" xlink:href="#m9b183b3bcc" y="323.405"/></g><use xlink:href="#MyriadPro-Regular-30" style="fill:#969696" transform="matrix(.14 0 0 -.14 21.563 328.375)" id="text_7"/></g><g id="ytick_2"><path clip-path="url(#p5042f9a260)" d="M35.745 272.683h357.12" style="fill:none;stroke:#969696;stroke-linecap:square;stroke-width:.3" id="line2d_9"/><use style="fill:#969696;stroke:#969696;stroke-width:.3" x="35.745" xlink:href="#m9b183b3bcc" y="272.683" id="line2d_10"/><g style="fill:#969696" transform="matrix(.14 0 0 -.14 14.382 277.653)" id="text_8"><defs><path d="M2771 4160H781L512 2163c154 19 339 45 576 45 832 0 1190-384 1197-922 0-556-455-902-986-902-377 0-717 128-889 230L269 186C467 58 851-70 1306-70c902 0 1548 608 1548 1420 0 525-268 884-595 1069-256 154-576 224-896 224-153 0-243-13-339-25l160 1068h1587v474z" id="MyriadPro-Regular-35" transform="scale(.01563)"/></defs><use xlink:href="#MyriadPro-Regular-35"/><use x="51.3" xlink:href="#MyriadPro-Regular-30"/></g></g><g id="ytick_3"><path clip-path="url(#p5042f9a260)" d="M35.745 221.96h357.12" style="fill:none;stroke:#969696;stroke-linecap:square;stroke-width:.3" id="line2d_11"/><use style="fill:#969696;stroke:#969696;stroke-width:.3" x="35.745" xlink:href="#m9b183b3bcc" y="221.961" id="line2d_12"/><g style="fill:#969696" transform="matrix(.14 0 0 -.14 7.2 226.93)" id="text_9"><use xlink:href="#MyriadPro-Regular-31"/><use x="51.3" xlink:href="#MyriadPro-Regular-30"/><use x="102.6" xlink:href="#MyriadPro-Regular-30"/></g></g><g id="ytick_4"><path clip-path="url(#p5042f9a260)" d="M35.745 171.238h357.12" style="fill:none;stroke:#969696;stroke-linecap:square;stroke-width:.3" id="line2d_13"/><use style="fill:#969696;stroke:#969696;stroke-width:.3" x="35.745" xlink:href="#m9b183b3bcc" y="171.238" id="line2d_14"/><g style="fill:#969696" transform="matrix(.14 0 0 -.14 7.2 176.208)" id="text_10"><use xlink:href="#MyriadPro-Regular-31"/><use x="51.3" xlink:href="#MyriadPro-Regular-35"/><use x="102.6" xlink:href="#MyriadPro-Regular-30"/></g></g><g id="ytick_5"><path clip-path="url(#p5042f9a260)" d="M35.745 120.516h357.12" style="fill:none;stroke:#969696;stroke-linecap:square;stroke-width:.3" id="line2d_15"/><use style="fill:#969696;stroke:#969696;stroke-width:.3" x="35.745" xlink:href="#m9b183b3bcc" y="120.516" id="line2d_16"/><g style="fill:#969696" transform="matrix(.14 0 0 -.14 7.2 125.486)" id="text_11"><use xlink:href="#MyriadPro-Regular-32"/><use x="51.3" xlink:href="#MyriadPro-Regular-30"/><use x="102.6" xlink:href="#MyriadPro-Regular-30"/></g></g><g id="ytick_6"><path clip-path="url(#p5042f9a260)" d="M35.745 69.794h357.12" style="fill:none;stroke:#969696;stroke-linecap:square;stroke-width:.3" id="line2d_17"/><use style="fill:#969696;stroke:#969696;stroke-width:.3" x="35.745" xlink:href="#m9b183b3bcc" y="69.794" id="line2d_18"/><g style="fill:#969696" transform="matrix(.14 0 0 -.14 7.2 74.764)" id="text_12"><use xlink:href="#MyriadPro-Regular-32"/><use x="51.3" xlink:href="#MyriadPro-Regular-35"/><use x="102.6" xlink:href="#MyriadPro-Regular-30"/></g></g></g><path clip-path="url(#p5042f9a260)" d="m35.745 322.771 1.76.34 2.281-.18 4.603.245 2.208-.35 2.206.056 2.285-.187 2.282.121 2.283-.256 2.283.06 2.32.196 2.283-.087 2.284.054 2.281-.156 2.283.156 6.734-.523 2.285.03 2.283.33 4.565-.327 2.32.294 2.283-.365 2.284-.028 2.281.163 2.283-.032 4.528-.804 2.207.182 2.284.586 2.283-.095 2.282-.92 2.283.364 2.32-.164 2.283.105 2.284-.3 4.564.228 2.32.524 2.246-.41 2.244-.67 6.85.459 2.282-.132 2.32-.393h4.567l2.281-.117 2.283 1 2.32-1.504 2.208-.7 2.207.536 2.284-.313 2.283.771 2.282-.095 2.283.259 2.32-.622 2.283-.415 2.284 1.168 2.282-.796 4.602.796 2.208-1.325 2.207.54 2.284.159 2.283.364 2.282-.703 2.283.343 2.32-.295 2.283.527 2.284.128 4.564-.556 2.32.36 2.208-.36 2.207.425 2.284-1.045 2.283.783 2.283.502 2.282-.142 2.32-.883 2.283.585 2.285-.29 2.28.29 4.604.364 2.245-.752 2.244-.492 2.284.576 2.283 1.093 2.282-.552 2.283.225 2.32-.262 4.567.49 2.282-1.163 2.282 1 2.32-.458 2.208-.148 2.207.312 2.284-.3 2.283.169 2.283.507 2.282-.278 2.32.033 2.283-.77 2.285.704 2.28.21 2.283-.144 2.32-.72 2.209-.194 2.206-.46 2.284.909 6.848.137 4.603-.239 4.566-.811 2.283.887 2.32-.59 2.208.203 2.206.518 2.284.132 2.283-.165 2.283.401 2.282-.467 4.603-.513 2.285-.076 2.28.143 2.284.806 4.565-.478 2.244-.667 2.284.914 2.283-.26 2.283-.382 2.282.153 2.32.982 2.283-.256 2.285-.791 2.28.892 2.284.613 2.32-.032 2.208-.706 2.206-.407 2.284.6 2.283-.567 2.283.465 2.282.222 2.32-.262 2.283.548 2.285.172h0" style="fill:none;stroke:#aec7e8;stroke-linecap:square;stroke-width:1.5" id="line2d_19"/><path clip-path="url(#p5042f9a260)" d="M55.653 323.405h6.886l36.486-.065 2.208-.116 2.207.148 9.132-.065 6.887.065 2.282-.136 9.092.136 4.567-.032 4.565-.033 18.186-.065 2.284-.276 2.283.112 2.282-.315 2.283-.012 2.32.425 2.283-.447 6.848.12 2.32-.262 2.208.13 2.207-.392 2.284.032 2.283.263 2.282-.094 4.603.126 4.567-.654 2.282.055 2.282.207 2.32-.262 2.208.356 2.207-.912 2.284.374 2.283.247 2.283-.416 2.282-.074 2.32.752 4.568-1.112 2.28.434 4.604-.303 2.245-.772 2.244-.57 2.284.563 2.283.353 2.282-1.063 2.283.801 2.32-.098 2.283-.534 2.284.305 2.282.033 2.282-.622 2.32.425 2.208-.709 2.207-.894 2.284.65 2.283-.126 2.283.43 2.282-.201 2.32-1.048 2.283 1.114h2.285l2.28-1.522 2.283 1.39 2.32.295 2.209-1.211 2.206.164 4.567-.622 2.283 1.033 2.282-1.164 2.32.327 2.283.194 2.285-.325 2.28-.79 2.284 1.968 2.32-1.636 2.208-.707 2.206.707 2.284.04 2.283.91 2.283-.437 2.282-1.266 2.32 1.342 2.283-.583 2.285-1.119 2.28.07 2.284.781 2.32-1.407 2.245.106 2.244.778 2.284-1.103 2.283-.174 2.283-.469 2.282 1.484 4.603.14 2.285 1.005 2.28-.836 2.284 1.556 2.32-1.701 2.208-1.02 2.206.921 2.284-.331 2.283.43 2.283.11 4.603.511 2.282-1.085 2.285 1.674h0" style="fill:none;stroke:#17becf;stroke-linecap:square;stroke-width:1.5" id="line2d_20"/><path clip-path="url(#p5042f9a260)" d="m35.745 319.474 1.76.953 2.281.543 2.283-.052 2.32.59 4.414-1.146 2.285-.643 2.282-.437 2.283-.239 2.283-2.183 2.32 1.8 2.283-.936 2.284.87 2.281-.227 2.283.13 4.528.633 2.206-1.288 2.285 1.032 2.283-1.686 2.282-.343 2.283-.148 2.32 1.21 2.283.19 2.284-.451 2.281-.09 2.283.548 2.32-1.964 2.208.381 2.207-.217 2.284-.98 2.283.195 2.282-.94 4.603.285 2.283 2.049 2.284-.478 2.282-1.01 2.282.519 2.32-.687 2.246-1.961 2.244 1.143 2.284-1.584 2.283 1.224 2.282-.007 2.283-3.2 2.32 1.047 2.283 2.762 2.284-1.748 2.281-.687 2.283 1.244 2.32-2.356 2.208-.192 2.207-3.67 2.284.105 2.283 1.237 2.282.69 2.283-1.934 2.32 3.273 2.283-1.508 2.284-3.794 2.282 2.205 2.282 1.559 2.32-1.015 2.208-3.85 2.207 2.378 2.284-.932 2.283 4.957 2.282-.324 2.283-1.934 2.32 2.454 2.283 1.542 2.284-.92 2.282.143 2.282 1.297 2.32-3.6 2.208.699 2.207-1.582 2.284.819 2.283-.329 2.283-2.918 2.282.988 2.32 2.88 2.283-.25 2.285-.667 2.28 2.764 2.283-1.553 2.32-1.964 2.246-3.078 2.244 2.49 2.284 1.299 2.283.108 2.282-3.084 2.283 2.658 2.32-1.112 2.283 2.68 2.284-1.699 2.282 1.125 2.282 1.624 2.32-.982 2.208-1.92 2.207.677 2.284 1.717 2.283-3.517 2.283-1.285 2.282.696 2.32 1.669 2.283 3.18 2.285-.857 2.28.08 2.283 2.244 2.32-1.407 2.209.354 4.49-.616 2.283.163 2.283-.13 2.282-.72 2.32-1.506 2.283 1.753 2.285-.476 2.28.206 2.284 3.099 2.32-3.47 2.208-.84 2.206 1.43 6.85.964 2.282-1.39 2.32 2.847 2.283-.645 2.285-1.94 2.28-.022 2.284 1.691 2.32-.785 2.245-.929 2.244 2.565 2.284-4.57 2.283 1.887 2.283-.602 4.603 4.038 2.282-.184 2.285 2.114 2.28-.626 2.284 1.215 2.32-1.276 2.208-1.506 2.206-.36 2.284 1.792 2.283.794 2.283-1.234 2.282.776 2.32 1.57 2.283-.52 2.285 1.273h0" style="fill:none;stroke:#bcbd22;stroke-linecap:square;stroke-width:1.5" id="line2d_21"/><g style="fill:#1f77b4" transform="matrix(.14 0 0 -.14 403.578 226.38)" id="text_13"><defs><path d="M467 0h551v1869c0 96 12 192 44 275 90 282 346 563 698 563 429 0 646-358 646-851V0h551v1914c0 102 19 204 45 281 96 275 345 512 665 512 455 0 672-358 672-953V0h551v1824c0 1075-608 1344-1018 1344-294 0-499-77-685-218-128-96-249-230-345-403h-13c-135 365-455 621-877 621-512 0-800-275-973-570h-19l-26 500H442c19-256 25-519 25-839V0z" id="MyriadPro-Regular-6d" transform="scale(.01563)"/><path d="M58 3098 1203 243c26-70 39-115 39-147s-20-77-45-134c-128-288-320-506-474-628-166-140-352-230-493-275l141-473c141 25 416 121 691 364 384 333 660 877 1063 1940l845 2208h-596l-614-1818c-77-224-141-461-198-646h-13c-51 185-128 428-199 633L672 3098H58z" id="MyriadPro-Regular-79" transform="scale(.01563)"/><path d="M250 147C467 19 781-70 1120-70c736 0 1158 390 1158 934 0 461-275 730-812 934-404 154-589 269-589 525 0 231 185 423 518 423 288 0 512-103 634-180l141 410c-173 102-448 192-762 192-666 0-1069-410-1069-909 0-371 263-678 819-877 416-153 576-300 576-569 0-256-192-461-601-461-282 0-576 115-743 224L250 147z" id="MyriadPro-Regular-73" transform="scale(.01563)"/><path d="M2579-1267h563v3513c0 320 7 589 20 852h-532l-19-468h-13c-153 301-473 538-953 538-653 0-1402-512-1402-1670C243 557 832-70 1555-70c499 0 845 243 1011 550h13v-1747zm0 2528c0-83-19-192-45-269-128-390-441-614-806-614-621 0-915 537-915 1152 0 697 352 1190 934 1190 423 0 723-294 807-640 19-70 25-160 25-237v-582z" id="MyriadPro-Regular-71" transform="scale(.01563)"/><path d="M467 0h563v4544H467V0z" id="MyriadPro-Regular-6c" transform="scale(.01563)"/></defs><use xlink:href="#MyriadPro-Regular-6d"/><use x="83.4" xlink:href="#MyriadPro-Regular-79"/><use x="130.5" xlink:href="#MyriadPro-Regular-73"/><use x="170.1" xlink:href="#MyriadPro-Regular-71"/><use x="226.4" xlink:href="#MyriadPro-Regular-6c"/></g><g style="fill:#ff7f0e" transform="matrix(.14 0 0 -.14 403.578 240.463)" id="text_14"><defs><path d="M467-1267h557V416h13c185-307 544-486 953-486 730 0 1408 550 1408 1664 0 940-563 1574-1312 1574-505 0-870-224-1100-602h-13l-26 532H442c12-295 25-615 25-1012v-3353zm557 3059c0 77 19 160 38 230 109 423 468 698 852 698 595 0 921-531 921-1152 0-710-345-1197-941-1197-403 0-742 269-844 659-13 71-26 148-26 231v531z" id="MyriadPro-Regular-70" transform="scale(.01563)"/><path d="M1779 3168c-857 0-1536-608-1536-1645C243 544 890-70 1728-70c749 0 1542 499 1542 1644 0 948-601 1594-1491 1594zm-13-422c666 0 928-666 928-1191 0-697-403-1203-940-1203-551 0-941 512-941 1190 0 589 288 1204 953 1204z" id="MyriadPro-Regular-6f" transform="scale(.01563)"/><path d="M595 3667v-569H115v-429h480V979c0-365 58-640 218-806C947 19 1158-70 1421-70c217 0 390 38 499 83l-26 422c-83-25-172-38-326-38-314 0-422 217-422 601v1671h806v429h-806v742l-551-173z" id="MyriadPro-Regular-74" transform="scale(.01563)"/><path d="M3110 2246c0 378 13 628 26 852h-493l-25-468h-13c-135 256-429 538-967 538-710 0-1395-595-1395-1645C243 666 794 13 1562 13c480 0 812 230 985 518h13V186c0-781-422-1082-998-1082-384 0-704 115-909 243l-141-429c250-166 659-256 1030-256 391 0 826 90 1127 372 301 268 441 704 441 1414v1798zm-556-928c0-96-13-204-45-300-122-359-435-576-781-576-608 0-915 505-915 1113 0 717 384 1171 921 1171 410 0 685-268 788-595 25-77 32-160 32-256v-557z" id="MyriadPro-Regular-67" transform="scale(.01563)"/><path d="M467 0h557v1651c0 96 13 186 26 263 76 422 358 723 755 723 77 0 134-7 192-19v531c-51 13-96 19-160 19-378 0-717-262-858-678h-25l-20 608H442c19-288 25-602 25-967V0z" id="MyriadPro-Regular-72" transform="scale(.01563)"/><path d="M2957 1446c6 58 19 148 19 263 0 569-269 1459-1280 1459-902 0-1453-736-1453-1670C243 563 813-70 1766-70c493 0 832 108 1031 198l-96 403c-211-89-455-160-858-160-563 0-1049 314-1062 1075h2176zM787 1850c45 390 295 915 864 915 634 0 787-557 781-915H787z" id="MyriadPro-Regular-65" transform="scale(.01563)"/></defs><use xlink:href="#MyriadPro-Regular-70"/><use x="56.9" xlink:href="#MyriadPro-Regular-6f"/><use x="111.8" xlink:href="#MyriadPro-Regular-73"/><use x="151.4" xlink:href="#MyriadPro-Regular-74"/><use x="184.5" xlink:href="#MyriadPro-Regular-67"/><use x="240.4" xlink:href="#MyriadPro-Regular-72"/><use x="273.1" xlink:href="#MyriadPro-Regular-65"/><use x="323.2" xlink:href="#MyriadPro-Regular-73"/><use x="362.8" xlink:href="#MyriadPro-Regular-71"/><use x="419.1" xlink:href="#MyriadPro-Regular-6c"/></g><g style="fill:#2ca02c" transform="matrix(.14 0 0 -.14 403.578 254.463)" id="text_15"><defs><path d="M467 0h563v1862c0 96 13 192 39 263 96 313 384 576 755 576 531 0 717-416 717-915V0h563v1850c0 1062-666 1318-1094 1318-512 0-871-288-1024-582h-13l-32 512H442c19-256 25-519 25-839V0z" id="MyriadPro-Regular-6e" transform="scale(.01563)"/><path d="M2579 4544V2694h-13c-140 250-460 474-934 474-755 0-1395-634-1389-1664C243 563 819-70 1568-70c506 0 883 262 1056 608h13l25-538h506c-19 211-26 525-26 800v3744h-563zm0-3245c0-89-6-166-25-243-103-422-448-672-826-672-608 0-915 518-915 1146 0 684 345 1196 928 1196 422 0 729-294 813-652 19-71 25-167 25-237v-538z" id="MyriadPro-Regular-64" transform="scale(.01563)"/><path d="M467 800c0-275-13-589-25-800h486l26 512h19c230-410 589-582 1037-582 691 0 1388 550 1388 1657 7 941-537 1581-1305 1581-499 0-858-224-1056-570h-13v1946H467V800zm557 998c0 90 19 167 32 231 115 429 474 691 858 691 601 0 921-531 921-1152 0-710-352-1190-941-1190-409 0-736 268-844 659-13 64-26 134-26 205v556z" id="MyriadPro-Regular-62" transform="scale(.01563)"/></defs><use xlink:href="#MyriadPro-Regular-6d"/><use x="83.4" xlink:href="#MyriadPro-Regular-6f"/><use x="138.3" xlink:href="#MyriadPro-Regular-6e"/><use x="193.8" xlink:href="#MyriadPro-Regular-67"/><use x="249.7" xlink:href="#MyriadPro-Regular-6f"/><use x="304.6" xlink:href="#MyriadPro-Regular-64"/><use x="361" xlink:href="#MyriadPro-Regular-62"/></g><g style="fill:#d62728" transform="matrix(.14 0 0 -.14 403.578 268.541)" id="text_16"><defs><path d="M192 1939v-416h1581v416H192z" id="MyriadPro-Regular-2d" transform="scale(.01563)"/><path d="M83 3098 1261 0h537l1216 3098h-588l-602-1741c-102-282-192-538-262-794h-20c-64 256-147 512-249 794L685 3098H83z" id="MyriadPro-Regular-76" transform="scale(.01563)"/></defs><use xlink:href="#MyriadPro-Regular-73"/><use x="39.6" xlink:href="#MyriadPro-Regular-71"/><use x="95.9" xlink:href="#MyriadPro-Regular-6c"/><use x="119.5" xlink:href="#MyriadPro-Regular-2d"/><use x="150.2" xlink:href="#MyriadPro-Regular-73"/><use x="189.8" xlink:href="#MyriadPro-Regular-65"/><use x="239.9" xlink:href="#MyriadPro-Regular-72"/><use x="272.6" xlink:href="#MyriadPro-Regular-76"/><use x="320.7" xlink:href="#MyriadPro-Regular-65"/><use x="370.8" xlink:href="#MyriadPro-Regular-72"/></g><g style="fill:#9467bd" transform="matrix(.14 0 0 -.14 403.578 282.541)" id="text_17"><defs><path d="M2643 1901c0 621-230 1267-1177 1267-391 0-762-109-1018-275l128-371c218 140 518 230 806 230 634 0 704-461 704-717v-64C890 1978 224 1568 224 819c0-448 320-889 947-889 442 0 775 217 947 460h20l44-390h512c-38 211-51 474-51 742v1159zm-544-858c0-57-13-121-32-179-89-262-345-518-749-518-288 0-531 172-531 537 0 602 698 711 1312 698v-538z" id="MyriadPro-Regular-61" transform="scale(.01563)"/><path d="M2579 538c-160-71-371-154-691-154-614 0-1075 442-1075 1158 0 647 384 1172 1094 1172 307 0 519-71 653-148l128 436c-154 76-448 160-781 160-1011 0-1664-692-1664-1645C243 570 851-70 1786-70c416 0 742 108 889 185l-96 423z" id="MyriadPro-Regular-63" transform="scale(.01563)"/></defs><use xlink:href="#MyriadPro-Regular-6f"/><use x="54.9" xlink:href="#MyriadPro-Regular-72"/><use x="87.6" xlink:href="#MyriadPro-Regular-61"/><use x="135.8" xlink:href="#MyriadPro-Regular-63"/><use x="180.6" xlink:href="#MyriadPro-Regular-6c"/><use x="204.2" xlink:href="#MyriadPro-Regular-65"/></g><g style="fill:#8c564b" transform="matrix(.14 0 0 -.14 403.578 296.541)" id="text_18"><defs><path d="M1030 0v3098H467V0h563zM749 4320c-205 0-352-154-352-352 0-192 141-346 339-346 224 0 365 154 358 346 0 198-134 352-345 352z" id="MyriadPro-Regular-69" transform="scale(.01563)"/></defs><use xlink:href="#MyriadPro-Regular-73"/><use x="39.6" xlink:href="#MyriadPro-Regular-71"/><use x="95.9" xlink:href="#MyriadPro-Regular-6c"/><use x="119.5" xlink:href="#MyriadPro-Regular-69"/><use x="142.9" xlink:href="#MyriadPro-Regular-74"/><use x="176" xlink:href="#MyriadPro-Regular-65"/></g><g style="fill:#e377c2" transform="matrix(.14 0 0 -.14 403.578 310.541)" id="text_19"><defs><path d="M467 0h563v1869c0 109 7 192 39 269 102 307 390 563 755 563 531 0 717-423 717-922V0h563v1843c0 1069-666 1325-1082 1325-211 0-409-64-576-160-172-96-313-237-403-397h-13v1933H467V0z" id="MyriadPro-Regular-68" transform="scale(.01563)"/></defs><use xlink:href="#MyriadPro-Regular-65"/><use x="50.1" xlink:href="#MyriadPro-Regular-6c"/><use x="73.7" xlink:href="#MyriadPro-Regular-61"/><use x="121.9" xlink:href="#MyriadPro-Regular-73"/><use x="161.5" xlink:href="#MyriadPro-Regular-74"/><use x="194.6" xlink:href="#MyriadPro-Regular-69"/><use x="218" xlink:href="#MyriadPro-Regular-63"/><use x="262.8" xlink:href="#MyriadPro-Regular-73"/><use x="302.4" xlink:href="#MyriadPro-Regular-65"/><use x="352.5" xlink:href="#MyriadPro-Regular-61"/><use x="400.7" xlink:href="#MyriadPro-Regular-72"/><use x="433.4" xlink:href="#MyriadPro-Regular-63"/><use x="478.2" xlink:href="#MyriadPro-Regular-68"/></g><g style="fill:#7f7f7f" transform="matrix(.14 0 0 -.14 403.578 324.541)" id="text_20"><use xlink:href="#MyriadPro-Regular-72"/><use x="32.7" xlink:href="#MyriadPro-Regular-65"/><use x="82.8" xlink:href="#MyriadPro-Regular-64"/><use x="139.2" xlink:href="#MyriadPro-Regular-69"/><use x="162.6" xlink:href="#MyriadPro-Regular-73"/></g><g style="fill:#bcbd22" transform="matrix(.14 0 0 -.14 403.578 338.541)" id="text_21"><use xlink:href="#MyriadPro-Regular-6d"/><use x="83.4" xlink:href="#MyriadPro-Regular-73"/><use x="123" xlink:href="#MyriadPro-Regular-2d"/><use x="153.7" xlink:href="#MyriadPro-Regular-61"/><use x="201.9" xlink:href="#MyriadPro-Regular-63"/><use x="246.7" xlink:href="#MyriadPro-Regular-63"/><use x="291.5" xlink:href="#MyriadPro-Regular-65"/><use x="341.6" xlink:href="#MyriadPro-Regular-73"/><use x="381.2" xlink:href="#MyriadPro-Regular-73"/></g><g style="fill:#17becf" transform="matrix(.14 0 0 -.14 403.578 352.541)" id="text_22"><use xlink:href="#MyriadPro-Regular-6d"/><use x="83.4" xlink:href="#MyriadPro-Regular-61"/><use x="131.6" xlink:href="#MyriadPro-Regular-72"/><use x="164.3" xlink:href="#MyriadPro-Regular-69"/><use x="187.7" xlink:href="#MyriadPro-Regular-61"/><use x="235.9" xlink:href="#MyriadPro-Regular-64"/><use x="292.3" xlink:href="#MyriadPro-Regular-62"/></g><g style="fill:#aec7e8" transform="matrix(.14 0 0 -.14 403.578 366.541)" id="text_23"><use xlink:href="#MyriadPro-Regular-64"/><use x="56.4" xlink:href="#MyriadPro-Regular-62"/><use x="113.3" xlink:href="#MyriadPro-Regular-32"/></g><g style="fill:#969696" transform="matrix(.09716 0 0 -.09716 35.745 357.303)" id="text_24"><defs><path d="M269 211C499 58 954-70 1370-70c1017 0 1510 582 1510 1248 0 633-371 985-1101 1267-595 230-857 429-857 832 0 294 224 646 812 646 391 0 679-128 820-205l153 455c-192 109-512 211-953 211-839 0-1396-499-1396-1171 0-608 436-973 1140-1223 582-224 812-454 812-857 0-435-332-736-902-736-384 0-749 128-998 281L269 211z" id="MyriadPro-Regular-53" transform="scale(.01563)"/><path d="M1024 4544H467V0h557v1165l288 320L2381 0h685L1702 1824l1197 1274h-678l-909-1069c-90-109-198-243-275-352h-13v2867z" id="MyriadPro-Regular-6b" transform="scale(.01563)"/><path d="M2234 4384c-1152 0-2004-896-2004-2266C230 813 1030-70 2170-70c1100 0 2003 787 2003 2272 0 1280-762 2182-1939 2182zm-26-454c928 0 1376-896 1376-1754 0-979-499-1792-1382-1792-877 0-1376 826-1376 1747 0 947 460 1799 1382 1799z" id="MyriadPro-Regular-4f" transform="scale(.01563)"/><path d="M1082 0v2669h748v429h-748v166c0 474 121 896 601 896 160 0 275-32 359-70l76 435c-108 45-281 89-480 89-262 0-544-83-755-288-262-249-358-646-358-1081v-147H90v-429h435V0h557z" id="MyriadPro-Regular-66" transform="scale(.01563)"/><path d="M115 3098 1050 0h512l499 1472c109 333 205 653 281 1024h13c77-365 167-672 275-1018L3104 0h512l998 3098h-556l-442-1556c-102-364-186-691-237-1004h-19c-70 313-160 640-275 1011l-480 1549h-474l-505-1575c-103-339-205-672-276-985h-19c-57 320-141 640-230 985L691 3098H115z" id="MyriadPro-Regular-77" transform="scale(.01563)"/><path d="M2714 1357 3174 0h596L2298 4314h-672L160 0h576l448 1357h1530zm-1415 435 423 1248c83 262 153 525 217 781h13c64-250 128-506 224-787l422-1242H1299z" id="MyriadPro-Regular-41" transform="scale(.01563)"/><path d="M486 0h557v1728c128-32 282-38 448-38 544 0 1024 160 1319 473 217 224 332 531 332 922 0 384-140 697-377 902-256 231-659 359-1210 359-448 0-800-39-1069-84V0zm557 3859c96 26 282 45 525 45 614 0 1018-275 1018-845 0-595-410-921-1082-921-186 0-339 12-461 44v1677z" id="MyriadPro-Regular-50" transform="scale(.01563)"/><path d="M486 4314V0h557v4314H486z" id="MyriadPro-Regular-49" transform="scale(.01563)"/><path d="M550 4800v-6400h429v6400H550z" id="MyriadPro-Regular-7c" transform="scale(.01563)"/><path d="M1011 0v1843c0 717-13 1235-45 1779l20 7c217-467 505-960 806-1440L3162 0h563v4314h-525V2509c0-672 13-1197 64-1773l-13-6c-205 441-454 896-774 1401L1094 4314H486V0h525z" id="MyriadPro-Regular-4e" transform="scale(.01563)"/><path d="M1165 3648c185 0 313 154 313 326 0 186-134 327-313 327s-327-147-327-327c0-172 135-326 320-326h7zm1184 0c185 0 313 154 313 326 0 186-134 327-313 327s-320-147-320-327c0-172 128-326 313-326h7zm-570-480c-857 0-1536-608-1536-1645C243 544 890-70 1728-70c749 0 1542 499 1542 1644 0 948-601 1594-1491 1594zm-13-422c666 0 928-666 928-1191 0-697-403-1203-940-1203-551 0-941 512-941 1190 0 589 288 1204 953 1204z" id="MyriadPro-Regular-f6" transform="scale(.01563)"/><path d="M3386 582c-224-108-570-179-909-179-1050 0-1658 679-1658 1735 0 1132 672 1779 1683 1779 359 0 660-77 871-179l134 454c-147 77-486 192-1024 192-1337 0-2253-915-2253-2266C230 704 1146-70 2362-70c524 0 934 108 1139 211l-115 441z" id="MyriadPro-Regular-43" transform="scale(.01563)"/><path d="M486 13c186-26 480-51 864-51 704 0 1191 128 1492 403 217 211 364 493 364 864 0 640-480 979-889 1081v13c454 167 729 531 729 947 0 340-134 596-358 762-269 218-627 314-1184 314-390 0-774-39-1018-90V13zm557 3865c90 20 237 39 493 39 563 0 947-199 947-704 0-416-345-723-934-723h-506v1388zm0-1811h461c608 0 1114-243 1114-832 0-627-532-838-1108-838-198 0-358 6-467 25v1645z" id="MyriadPro-Regular-42" transform="scale(.01563)"/><path d="M2010 0v1837l1446 2477h-634l-620-1191c-167-326-314-608-436-889h-12c-135 300-263 563-429 889L717 4314H83l1363-2484V0h564z" id="MyriadPro-Regular-59" transform="scale(.01563)"/></defs><use xlink:href="#MyriadPro-Regular-53"/><use x="49.3" xlink:href="#MyriadPro-Regular-74"/><use x="82.4" xlink:href="#MyriadPro-Regular-61"/><use x="130.6" xlink:href="#MyriadPro-Regular-63"/><use x="175.4" xlink:href="#MyriadPro-Regular-6b"/><use x="222.3" xlink:href="#MyriadPro-Regular-4f"/><use x="291.2" xlink:href="#MyriadPro-Regular-76"/><use x="339.3" xlink:href="#MyriadPro-Regular-65"/><use x="389.4" xlink:href="#MyriadPro-Regular-72"/><use x="422.1" xlink:href="#MyriadPro-Regular-66"/><use x="451.3" xlink:href="#MyriadPro-Regular-6c"/><use x="474.9" xlink:href="#MyriadPro-Regular-6f"/><use x="529.8" xlink:href="#MyriadPro-Regular-77"/><use x="603.4" xlink:href="#MyriadPro-Regular-20"/><use x="624.6" xlink:href="#MyriadPro-Regular-41"/><use x="685.8" xlink:href="#MyriadPro-Regular-50"/><use x="739" xlink:href="#MyriadPro-Regular-49"/><use x="762.9" xlink:href="#MyriadPro-Regular-20"/><use x="784.1" xlink:href="#MyriadPro-Regular-76"/><use x="832.2" xlink:href="#MyriadPro-Regular-69"/><use x="855.6" xlink:href="#MyriadPro-Regular-61"/><use x="903.8" xlink:href="#MyriadPro-Regular-20"/><use x="925" xlink:href="#MyriadPro-Regular-73"/><use x="964.6" xlink:href="#MyriadPro-Regular-74"/><use x="997.7" xlink:href="#MyriadPro-Regular-61"/><use x="1045.9" xlink:href="#MyriadPro-Regular-63"/><use x="1090.7" xlink:href="#MyriadPro-Regular-6b"/><use x="1137.6" xlink:href="#MyriadPro-Regular-74"/><use x="1170.7" xlink:href="#MyriadPro-Regular-61"/><use x="1218.9" xlink:href="#MyriadPro-Regular-67"/><use x="1274.8" xlink:href="#MyriadPro-Regular-73"/><use x="1314.4" xlink:href="#MyriadPro-Regular-20"/><use x="1335.6" xlink:href="#MyriadPro-Regular-7c"/><use x="1359.5" xlink:href="#MyriadPro-Regular-20"/><use x="1380.7" xlink:href="#MyriadPro-Regular-4e"/><use x="1446.5" xlink:href="#MyriadPro-Regular-69"/><use x="1469.9" xlink:href="#MyriadPro-Regular-63"/><use x="1514.7" xlink:href="#MyriadPro-Regular-6f"/><use x="1569.6" xlink:href="#MyriadPro-Regular-20"/><use x="1590.8" xlink:href="#MyriadPro-Regular-53"/><use x="1640.1" xlink:href="#MyriadPro-Regular-63"/><use x="1684.9" xlink:href="#MyriadPro-Regular-68"/><use x="1740.4" xlink:href="#MyriadPro-Regular-6c"/><use x="1764" xlink:href="#MyriadPro-Regular-f6"/><use x="1818.9" xlink:href="#MyriadPro-Regular-6d"/><use x="1902.3" xlink:href="#MyriadPro-Regular-65"/><use x="1952.4" xlink:href="#MyriadPro-Regular-72"/><use x="1985.1" xlink:href="#MyriadPro-Regular-20"/><use x="2006.3" xlink:href="#MyriadPro-Regular-7c"/><use x="2030.2" xlink:href="#MyriadPro-Regular-20"/><use x="2051.4" xlink:href="#MyriadPro-Regular-43"/><use x="2109.4" xlink:href="#MyriadPro-Regular-43"/><use x="2167.4" xlink:href="#MyriadPro-Regular-20"/><use x="2188.6" xlink:href="#MyriadPro-Regular-42"/><use x="2242.8" xlink:href="#MyriadPro-Regular-59"/></g><g style="fill:#969696" transform="matrix(.14 0 0 -.14 84.518 17.293)" id="text_25"><defs><path d="M486 13c282-32 615-51 1012-51 838 0 1504 217 1907 620 403 397 621 973 621 1677 0 698-224 1197-608 1549-378 352-948 538-1748 538-441 0-844-39-1184-90V13zm557 3833c147 32 365 58 653 58 1178 0 1754-646 1747-1664 0-1165-646-1830-1837-1830-217 0-422 6-563 32v3404z" id="MyriadPro-Regular-44" transform="scale(.01563)"/><path d="M3059 3098h-563V1197c0-103-19-205-51-288-103-250-365-512-743-512-512 0-691 397-691 985v1716H448V1286C448 198 1030-70 1517-70c550 0 877 326 1024 576h13l32-506h499c-19 243-26 525-26 845v2253z" id="MyriadPro-Regular-75" transform="scale(.01563)"/></defs><use xlink:href="#MyriadPro-Regular-44"/><use x="66.6" xlink:href="#MyriadPro-Regular-61"/><use x="114.8" xlink:href="#MyriadPro-Regular-69"/><use x="138.2" xlink:href="#MyriadPro-Regular-6c"/><use x="161.8" xlink:href="#MyriadPro-Regular-79"/><use x="208.9" xlink:href="#MyriadPro-Regular-20"/><use x="230.1" xlink:href="#MyriadPro-Regular-6e"/><use x="285.6" xlink:href="#MyriadPro-Regular-75"/><use x="340.7" xlink:href="#MyriadPro-Regular-6d"/><use x="424.1" xlink:href="#MyriadPro-Regular-62"/><use x="481" xlink:href="#MyriadPro-Regular-65"/><use x="531.1" xlink:href="#MyriadPro-Regular-72"/><use x="563.8" xlink:href="#MyriadPro-Regular-20"/><use x="585" xlink:href="#MyriadPro-Regular-6f"/><use x="639.9" xlink:href="#MyriadPro-Regular-66"/><use x="669.1" xlink:href="#MyriadPro-Regular-20"/><use x="690.3" xlink:href="#MyriadPro-Regular-71"/><use x="746.6" xlink:href="#MyriadPro-Regular-75"/><use x="801.7" xlink:href="#MyriadPro-Regular-65"/><use x="851.8" xlink:href="#MyriadPro-Regular-73"/><use x="891.4" xlink:href="#MyriadPro-Regular-74"/><use x="924.5" xlink:href="#MyriadPro-Regular-69"/><use x="947.9" xlink:href="#MyriadPro-Regular-6f"/><use x="1002.8" xlink:href="#MyriadPro-Regular-6e"/><use x="1058.3" xlink:href="#MyriadPro-Regular-73"/><use x="1097.9" xlink:href="#MyriadPro-Regular-20"/><use x="1119.1" xlink:href="#MyriadPro-Regular-6f"/><use x="1174" xlink:href="#MyriadPro-Regular-6e"/><use x="1229.5" xlink:href="#MyriadPro-Regular-20"/><use x="1250.7" xlink:href="#MyriadPro-Regular-53"/><use x="1300" xlink:href="#MyriadPro-Regular-74"/><use x="1333.1" xlink:href="#MyriadPro-Regular-61"/><use x="1381.3" xlink:href="#MyriadPro-Regular-63"/><use x="1426.1" xlink:href="#MyriadPro-Regular-6b"/><use x="1473" xlink:href="#MyriadPro-Regular-4f"/><use x="1541.9" xlink:href="#MyriadPro-Regular-76"/><use x="1590" xlink:href="#MyriadPro-Regular-65"/><use x="1640.1" xlink:href="#MyriadPro-Regular-72"/><use x="1672.8" xlink:href="#MyriadPro-Regular-66"/><use x="1702" xlink:href="#MyriadPro-Regular-6c"/><use x="1725.6" xlink:href="#MyriadPro-Regular-6f"/><use x="1780.5" xlink:href="#MyriadPro-Regular-77"/></g><path clip-path="url(#p5042f9a260)" d="m57.936 323.405 15.98-.145 4.49-.058 6.848-.157 2.32.033 4.567-.23 2.281-.018 2.283.117 2.32-.916 2.208.179 2.207-.081 2.284-.415 2.283.382 2.282-1.126 2.283.144 2.32.328 2.283-.269 4.566.034 2.282-.55 2.32.163 2.246-.423 2.244.292 4.567-1.309 2.282-.134 2.283.985 2.32-.818 2.283.712 2.284-1.072 2.281.835 2.283.18 2.32.457 4.415-1.145 4.567-.622 2.282.623 2.283.359 2.32-.818 2.283.222 2.284-.811 2.282-.44 2.282.538 2.32-.098 2.208.181 2.207-1.556 2.284.394 2.283 1.897 4.565-.982 2.32-.196 2.283.33 2.284.096 2.282.275 2.282.51 2.32-1.015 2.208-.767 2.207-.312 2.284.164 2.283-.328 2.283-.044 4.602-.447 2.283.075 9.169 1.005 2.245-.994 2.244-.25 2.284.307 2.283-.241 2.282.342 2.283 1.36 2.32-.917 2.283.03 2.284 1.312 2.282-1.48 2.282.825 2.32-.85 2.208-.5 2.207 1.056 2.284-.227 2.283-.951 2.283.511 2.282.242 2.32-.262 2.283.663 2.285.417 2.28-.688 2.283 1.342 2.32-1.08 2.209-.08 2.206-.803 6.85-.089 2.282-1.122 2.32-1.342 2.283 1.01 2.285-.42 2.28-.053 2.284 2.768 2.32-2.029 2.208.304 2.206-.565 2.284-.275 2.283.798 2.283.588 2.282-1.308 2.32-.196 2.283.896 2.285-.012 2.28-1.003 2.284.577 4.565-1.054 2.244-.844 2.284-1.486 2.283.7 2.283-.328 2.282.263 2.32.982 2.283-.061 2.285.814 4.564.949 2.32-.458 2.208.009 4.49-1.923 2.283 2.47 2.283-.982 2.282.95 2.32.36 2.283-.295 2.285.916h0" style="fill:none;stroke:#7f7f7f;stroke-linecap:square;stroke-width:1.5" id="line2d_22"/><path clip-path="url(#p5042f9a260)" d="M71.707 323.405H99.026l2.207-.181 2.207.116 2.284-.003 2.283-.194 11.452-.065 2.282-.484 2.282.32 2.32-.49 2.246.107 2.244-.108 2.284-.337 2.283-.513 2.282.074 2.283.187 2.32-.981 2.283-.153 2.284-.633 2.281-.179 2.283.997 2.32-1.276 2.208.427 2.207-.983 2.284-.788 2.283.493 2.282-.797 2.283-.544 2.32.327 2.283.555 2.284-.719 2.282-.43 2.282 1.281 2.32-3.207 2.208-2.108 2.207.766 2.284-1.703 2.283.133 2.282 1.185 2.283-1.578 2.32-.949 2.283.904 2.284 1.027 2.282-1.568 2.282.03 2.32-1.67 2.208-3.026 2.207-.966 2.284 1.067 2.283-1.001 2.283-1.535 4.602.422 2.283.018 2.285.702 2.28-3.07 2.283 3.463 2.32-3.043 2.246-3.316 2.244 1.025 2.284.722 2.283.554 2.282-.994 2.283 2.925 2.32-.687 2.283.84 2.284 1.188 2.282-1.594 2.282 2.838 2.32-3.698 2.208-4.374 2.207 3.85 2.284 2.128 2.283-1.898 2.283-.097 2.282 2.191 2.32-2.618 2.283 2.388 4.566 2.13 2.282 3.369 2.32-1.375 2.209-3.366 2.206.486 2.284.075 2.283-1.253 2.283.001 2.282-1.768 2.32-3.043 2.283 2.31 2.285-2.277 2.28-.497 2.284 7.925 2.32-3.6 2.208-4.12 2.206 1.568 2.284 1.102 2.283-.84 2.283-.242 2.282-2.016 2.32 1.996 2.283-2.686 2.285 1.05 2.28-.17 2.284 3.868 2.32-1.211 2.245-1.86 2.244 1.532 2.284-2.465 2.283-.774 2.283-.477 2.282.706 2.32 2.65 2.283.364 2.285.913 2.28.304 2.284 1.692 2.32.556 2.208-3.204 2.206-1.279 2.284.815 2.283 1.41 2.283-.362 2.282 1.966 2.32.556 2.283.961 2.285 2.868h0" style="fill:none;stroke:#e377c2;stroke-linecap:square;stroke-width:1.5" id="line2d_23"/><path clip-path="url(#p5042f9a260)" d="m35.745 321.947 1.76.378 2.281.133 2.283.26 4.528-1.233 2.206-.043 2.285-1.148 2.282-.325 6.886-.523 2.283.476 2.284-.935 2.281-.282 2.283-.078 2.32-.294 2.208-1.268 2.206-.107 2.285-.35 2.283-.828 2.282.558 2.283-2.194 2.32-.36 2.283 1.134 2.284-1.526 2.281-1.957 2.283.713 2.32-.556 2.208-3.404 2.207-2.814 2.284.177 2.283.838 2.282-3.171 2.283.814 2.32.099 2.283-.372 2.284 2.433 2.282-3.684 2.282 3.913 2.32-2.52 2.246-5.962 2.244-1.597 2.284 1.668 2.283 1.474 2.282.014 2.283-1.356 2.32-.458 2.283 3.2 2.284-1.564 2.281-.972 2.283.285 2.32-1.473 2.208.304 2.207-1.613 2.284.063 2.283.396 2.282 3.797 2.283-5.434 2.32 2.324 2.283-.035 2.284-3.467 2.282-1.166 2.282 3.424 2.32-4.287 2.208-2.081 2.207.183 2.284-.823 2.283 7.27 2.282 2.097 2.283-3.733 2.32 4.221 2.283-1.401 2.284 2.187 2.282-1.41 2.282 2.817 2.32-3.305 2.208-1.11 2.207-4.715 2.284-1.633 2.283 7.589 2.283-.961 2.282.404 2.32.557 2.283-.928 2.285 1.451 2.28 1.762 2.283.267 2.32-1.407 2.246-3.414 2.244-1.756 2.284-1.603 2.283 3.042 2.282 4.195 2.283-.759 2.32 2.847 2.283-2.02 2.284.057 2.282.923 2.282.68 2.32-1.374 4.415-1.898 2.284-1.601 2.283.358 2.283 4.41 2.282.433 2.32.621 2.283.84 2.285 1.255 2.28-2.946 2.283 3.273 2.32-.425 2.209-1.873 2.206 2.003 2.284-1.558 2.283 1.69 2.283 2.063 2.282-1.082 2.32-2.389 2.283.191 2.285-1.467 2.28.216 2.284 4.365 2.32-2.094 2.208-3.278 2.206 1.053 2.284 1.307 2.283 2.096 2.283.778 2.282-1.792 2.32 1.243 2.283.177 2.285-2.468 2.28-1.42 2.284 3.057 2.32-1.67 2.245-3.222 2.244 1.03 2.284-5.181 2.283-.905 2.283 4.286 2.282 1.964 2.32.458 2.283 1.095 2.285 1.327 2.28-1.834 2.284 2.783 2.32-2.324 2.208-.063 2.206-.264 2.284.341 2.283 1.884 2.283.619 4.603 2.032 2.282-.646 2.285 1.497h0" style="fill:none;stroke:#8c564b;stroke-linecap:square;stroke-width:1.5" id="line2d_24"/><path clip-path="url(#p5042f9a260)" d="m35.745 313.958 1.76 3.262 2.281 1.857 2.283.598 2.32-.23 2.208-.895 2.206.143 2.285-.191 2.282-2.034 2.283-1.381 2.283-.55 2.32-.687 2.283 1.101 2.284-1.298 2.281-.73 2.283 1.581 2.32.393 2.208-1.781 2.206-.968 2.285 1.45 2.283.939 2.282-4.117 2.283 2.35 2.32-2.65 2.283 2.33 2.284-.793 2.281-2.42 2.283 1.438 2.32-2.52 2.208-.727 2.207-1.596 2.284.869 2.283-.247 4.565.785 2.32-1.668 2.283-3.706 2.284 1.938 2.282-3.629 2.282 3.302 2.32.131 2.246-4.793 2.244.703 2.284 1.908 2.283-1.614 2.282 1.817 2.283-3.093 2.32-1.08 2.283.657 2.284-2.228 2.281-4.907 2.283 8.147 2.32-3.076 2.208-4.996 2.207 4.734 2.284-6.5 4.565 2.84 2.283-1.936 2.32 2.39 4.567-9.556 2.282 1.9 2.282 4.415 2.32-1.93 2.208-6.43 2.207-.442 2.284-1.565 2.283 5.884 2.282 4.295 2.283-2.626 2.32 4.09 2.283-6.266 2.284.573 2.282-2.906 2.282 6.603 2.32.655 2.208-6.157 2.207-2.024 2.284-1.275 2.283 2.944 2.283.606 2.282-1.424 2.32 3.763 2.283-1.967 2.285 1.443 2.28-3.472 2.283 5.501 2.32-.032 2.246-6.871 2.244-.001 2.284-.118 2.283 4.24 2.282-1.197 2.283 6.466 2.32-1.767 2.283-.81 2.284-4.786 2.282 1.709 2.282 4.869 2.32-2.847 2.208-2.443 2.207-4.495 2.284 4.408 2.283-2.64 2.283 3.418 2.282.836 2.32.13 2.283 2.72 2.285-4.16 2.28.068 2.283 7.001 2.32-2.127 2.209-3.927 2.206-.163 2.284-.547 2.283.056 2.283 3.528 2.282-1.86 2.32-1.08 2.283 4.699 2.285-7.872 2.28.128 2.284 5.925 2.32 2.717 2.208-6.509 2.206.127 2.284-.062 2.283-.756 2.283 5.693 2.282-4.22 2.32 4.974 2.283-4.473 2.285-4.232 2.28 1.594 2.284 3.708 2.32 1.014 2.245-5.782 2.244 1.462 2.284-7.233 2.283 3.896 2.283-1.968 2.282 6.81 2.32 5.008 2.283-1.708 2.285-4.117 2.28 2.866 2.284 6.656 2.32.426 2.208-6.024 2.206-.096 2.284-3.16 2.283 2.931 2.283 4.103 2.282 2.835 2.32-1.146 2.283.07 2.285 2.647h0" style="fill:none;stroke:#9467bd;stroke-linecap:square;stroke-width:1.5" id="line2d_25"/><path clip-path="url(#p5042f9a260)" d="m35.745 297.727 1.76 8.629 2.281 3.557 2.283 1.253 2.32-5.76 2.208-.95 2.206-1.634 2.285-2.479 2.282-1.415 2.283-1.256 2.283-3.817 2.32 3.436 2.283-3.406 2.284.363 2.281.11 2.283 1.984 2.32-3.141 2.208-2.113 2.206 3.127 2.285 1.26 2.283-1.162 2.282-.462 2.283-3.563 2.32-2.16 2.283-.228 2.284-1.44 2.281-.86 2.283 4.557 2.32-3.01 2.208-5.262 2.207-4.195 2.284 4.224 2.283.52 2.282.258 2.283.495 2.32-2.421 2.283.776 2.284 4.525 2.282-6.182 2.282 4.644 2.32-2.683 2.246-5.84 2.244-1.262 2.284 2.301 2.283-5.41 2.282-2.063 2.283 1.933 2.32-2.062 2.283.907 2.284-5.03 2.281-1.7 2.283 9.521 2.32-12.991 2.208-3.336 2.207-3.57 2.284-1.628 2.283 2.676 2.282-.951 2.283-10.666 2.32 4.287 4.567-13.188 2.282 6.345 2.282 2.098 2.32-8.967 2.208-7.413 2.207 4.6 2.284-6.143 2.283 15.927 2.282-1.962 2.283-6.121 2.32 6.054 2.283 2.434 2.284-1.158 2.282-5.57 2.282 12.966 2.32-9.981 2.208-8.763 2.207-3.803 2.284 3.426 2.283 3.806 2.283-8.743 2.282 2.852 2.32 2.291 2.283 4.596 2.285 2.832 2.28.786 2.283-.818 2.32-3.436 2.246-7.045 2.244-1.987 2.284 1.146 2.283 3.599 2.282-10.057 2.283 8.78 2.32-3.272 2.283-1.518 2.284 11.303 2.282-8.057 2.282 11.035 2.32-5.923 2.208-10.706 2.207-7.162 2.284 12.925 2.283-2.65 2.283 5.761 2.282.555 2.32-5.857 2.283 9.326 2.285-.72 2.28-3.71 2.283 18.894 2.32-9.883 2.209-4.653 2.206 7.042 2.284.909 2.283.367 2.283 2.27 2.282-4.135 2.32-1.145 2.283 5.145 2.285-8.712 2.28 8.746 2.284 9.907 2.32-10.014 2.208-10.888 2.206 7.976 2.284-2.56 2.283 7.665 2.283 6.063 2.282-11.037 2.32 5.857 2.283.987 2.285-5.34 2.28-3.012 2.284 15.84 4.565-14.933 2.244 2.335 2.284-4.662 2.283 7.64 2.283-2.433 2.282 5.902 2.32 9.162 2.283-1.673 2.285 2.557 2.28 2.921 2.284 9.056 2.32-10.897 2.208-2.27 2.206.306 2.284 5.428 2.283 6.288 2.283-4.901 2.282 8.075 2.32-1.636 2.283-2.483 2.285 3.104h0" style="fill:none;stroke:#d62728;stroke-linecap:square;stroke-width:1.5" id="line2d_26"/><path clip-path="url(#p5042f9a260)" d="m51.088 323.405 2.282-.065 2.283.065 6.886-.135 2.284.07 2.281-.34 2.283.012 2.32-.72 2.208-.336 2.206.14 2.285-.077 2.283-.708 2.282-.476 2.283.181 2.32-1.243 2.283-.121 2.284-.73 2.281-.082 2.283-1.096 2.32-1.473 2.208-1.126 2.207.046 2.284-.578 2.283-.207 2.282-.807 2.283-1.386 2.32.066 2.283-.202 2.284-2.154 2.282-1.6 2.282 1.24 2.32-3.043 2.246-.36 2.244-2.062 2.284-2.571 2.283 2.276 2.282-.078 2.283-1.165 2.32-2.258 2.283 1.698 4.565-2.096 2.283 3.212 2.32-4.908 2.208-1.722 2.207.02 2.284-.694 2.283-1.826 2.282 2.469 2.283-3.745 2.32-2.225 2.283 1.641 2.284-1.052 2.282 1.188 2.282 1.332 2.32-4.68 2.208-6.05 2.207 1.96 2.284.201 2.283 4.74 2.282-3.421 2.283-.146 2.32 3.665 2.283-4.5 2.284 1.031 2.282-1.132 2.282 1.787 2.32-.753 2.208-7.925 2.207 3.605 2.284-9.902 2.283 1.296 2.283-1.803 2.282 2.032 2.32 3.469 2.283-1.037 2.285.71 2.28-.575 2.283 1.327 2.32-6.937 2.246-6.059 2.244 7.662 2.284-.322 2.283.65 2.282-3.118 2.283 5.932 2.32-3.73 2.283 3.682 2.284 1.226 2.282-3.965 2.282 4.62 2.32-8.313 2.208 1.362 2.207-.38 2.284 5.044 2.283-.822 2.283 4.034 2.282.449 2.32-1.277 2.283 4.785 2.285-2.657 2.28-3.531 2.283 4.185 2.32-9.26 2.209 2.618 2.206.163 4.567 10.897 2.283 2.725 2.282-12.902 2.32-5.662 2.283 3.144 2.285-2.555 2.28 3.874 2.284 2.966 2.32-3.37 2.208-4.497 2.206 4.529 2.284-1.522 2.283-.049 2.283.76 2.282-2.625 2.32 4.058 2.283-1.197 2.285-2.73 2.28-1.903 2.284 3.539 2.32-8.476 2.245.875 2.244-3.329 2.284-20.066 2.283 1.217 2.283 2.13 2.282 6.476 2.32 3.764 2.283 1.46 2.285 8.39 2.28-1.12 2.284 3.64 2.32-4.713 2.208-1.912 2.206-1.36 2.284.085 2.283 4.823 2.283-2.32 2.282 7.033 2.32-.818 2.283-1.719 2.285 4.893h0" style="fill:none;stroke:#2ca02c;stroke-linecap:square;stroke-width:1.5" id="line2d_27"/><path clip-path="url(#p5042f9a260)" d="m35.745 320.996 1.76.806 2.281.555 2.283.066 2.32-.818 4.414.131 2.285-.495 2.282.004 2.283-.173 2.283-1.594 2.32-.589 2.283.932 2.284.54 2.281-.033 2.283-.555 2.32-1.244 2.208.347 2.206-1.067 2.285.828 4.565-3.212 2.283 2.482 2.32-1.505 4.567.556 2.281-1.06 4.603-.248 2.208-3.114 2.207-.682 2.284 2.15 2.283-1.987 2.282 1.75 2.283-1.783 2.32-.458 2.283.788 2.284-.1 2.282-1.253 2.282.336 2.32-.163 2.246-3.26 2.244.478 2.284-1.888 2.283.383 2.282.564 2.283.025 2.32-2.29 2.283.878 2.284-3.3 2.281 1.271 2.283 1.117 2.32-5.53 2.208 1.07 2.207 1.417 2.284-.711 2.283.22 2.282-.39 2.283-1.835 2.32.033 2.283.991 2.284-2.17 2.282-1.482 2.282-.023 2.32-2.356 2.208-6.157 2.207-.42 2.284 3.072 2.283 1.804 2.282.225 2.283-1.436 2.32 4.81 2.283-4.287 2.284.23 2.282.954 2.282 1.63 2.32-3.73 2.208-1.547 2.207.925 2.284-3.568 2.283.263 2.283-1.514 2.282-2.02 2.32 2.683 4.568-1.21 2.28 1.798 2.283-.588 2.32-1.538 2.246-7.425 2.244 3.433 2.284 1.79 2.283-.252 2.282-4.245 2.283 8.4 2.32-5.726 2.283 4.258 2.284-1.182 2.282-1.726 2.282 1.66 2.32-2.257 2.208-2.828 2.207-1.524 2.284 1.871 2.283-5.373 2.283 4.427 2.282 1.889 2.32-.033 2.283 3.757 2.285-3.953 2.28-2.709 2.283 9.09 2.32-6.578 2.209.91 2.206.105 2.284.396 2.283-1.05 2.283 2.504 2.282-3.094 2.32-1.472 2.283.846 2.285-3.562 2.28-.428 2.284 9.034 2.32-5.04 2.208-2.513 2.206-4.686 2.284-.751 2.283 3.107 2.283 6.023 2.282-11.291 2.32 7.396 2.283-2.665 2.285-5.386 2.28-.092 2.284 4.968 2.32-7.657 2.245-4.896 2.244-.896 2.284-6.195 2.283.304 2.283-3.01 2.282 3.861 2.32 4.483 2.283-1.107 2.285 1.467 2.28.697 2.284 10.004 2.32-7.428 2.208-6.068 2.206-1.982 2.284 4.528 2.283 1.231 2.283-1.367 2.282 5.36 2.32-1.244 2.283 1.295 2.285-1.884h0" style="fill:none;stroke:#ff7f0e;stroke-linecap:square;stroke-width:1.5" id="line2d_28"/><path clip-path="url(#p5042f9a260)" d="m35.745 311.485 1.76 3.02 2.281-1.143 2.283.782 2.32-2.912 2.208-.906 2.206-2.4 2.285-1.056 2.282-2.216 2.283-4.885 2.283-5.39 2.32-4.058 2.283-.528 2.284-3.988 2.281-1.794 2.283-1.086 2.32-4.777 2.208-3.11 2.206-6.086 2.285.18 2.283-.507 2.282-5.748 2.283.97 2.32-6.348 2.283 2.808 2.284-2.546 2.281-10.473 2.283 3.306 2.32-19.536 2.208-11.887 2.207-9.057 2.284-.428 2.283 7.562 2.282-8.881 2.283-2.376 2.32-9.653 2.283 9.324 2.284 3.503 2.282-15.643 2.282 13.713 4.566-31.939 2.244-8.574 2.284-.826 2.283 2.855 2.282-7.353 2.283-7.962 2.32 5.465 2.283 7.028 2.284-12.329 2.281-4.51 2.283 14.982 2.32-29.027 2.208-10.471 2.207-7.789 2.284-2.897 2.283 20.372 2.282 3.231 2.283-14.39 2.32-4.156 2.283-6.443 2.284-8.872 2.282-2.456 2.282 9.46 2.32-25.918 2.208-21.77 2.207-5.653 2.284 2.255 2.283 43.035 2.282 20.368 2.283-3.482 2.32 17.933 2.283-13.606 2.284-4.262 2.282-2.129 2.282 17.313 2.32-7.003 2.208-20.713 2.207-2.75 2.284-4.126 2.283 13.256 2.283-5.31 2.282-7.289 2.32 25.656 2.283-9.609 2.285 4.995 2.28-.633 2.283 4.494 2.32-4.516 2.246-18.354 2.244-2.916 2.284-3.73 2.283 18.521 2.282 6.704 2.283 21.766 2.32-5.988 2.283 7.25 2.284 6.723 2.282-7.332 2.282 15.873 2.32-14.628 2.208-21.826 2.207-14.989 2.284 22.146 2.283 8.157 2.283 6.417 2.282 3.106 2.32 4.221 2.283 4.644 2.285 8.086 2.28-9.135 2.283 31.354 2.32-10.668 2.209-3.414 2.206 2.04 2.284-2.134 2.283 9.333 2.283 7.237 2.282-1.805 2.32 4.549 2.283 2.43 2.285-7.699 2.28-1.804 2.284 20.424 2.32-10.733 2.208-11.584 2.206-6.25 2.284 9.09 2.283 11.264 2.283 14.841 2.282-29.436 2.32 19.143 2.283-3.131 2.285-14.67 2.28-10.117 2.284 26.904 2.32-7.592 2.245-13.09 2.244-2.716 2.284-20.886 2.283 6.782 2.283 14.893 2.282 9.814 2.32 14.857 2.283-.223 2.285 9.974 2.28-5.375 2.284 22.883 2.32-17.868 2.208-.65 2.206-8.545 2.284 2.793 2.283 8.398 2.283 2.525 2.282 11.35 2.32 4.68 2.283-3.282 2.285 4.69h0" style="fill:none;stroke:#1f77b4;stroke-linecap:square;stroke-width:1.5" id="line2d_29"/></g></g><defs><clipPath id="p5042f9a260"><path d="M35.745 57.293h357.12v266.112H35.745z"/></clipPath></defs></svg>