<svg height="475.651" viewBox="0 0 460.756 356.738" width="614.341" xmlns="http://www.w3.org/2000/svg" xmlns:xlink="http://www.w3.org/1999/xlink"><defs><style>*{stroke-linecap:butt;stroke-linejoin:round}</style></defs><g id="figure_1"><path d="M0 356.738h460.756V0H0z" fill="none" id="patch_1"/><g id="axes_1"><path d="M29.77 313.628h357.12V47.516H29.77z" fill="none" id="patch_2"/><path clip-path="url(#p2516da31be)" d="M104.215 313.628l2.984-.298 2.98-.627 2.982-.567 3.03-.298 2.884-3.496 2.882 2.6 2.984-2.247 2.981-1.035 2.982-.816 2.982 1.114 3.03-.895 2.982-1.452 2.984-1.83 2.98 1.213 2.981-.318 3.03-5.073 2.885-5.137 2.882 3.048 2.983-3.004 2.982.02 2.982-1.87 2.981-3.203 3.031 3.581 2.982-3.462 2.984 4.357 2.98.577 2.98-.875 3.031-3.283 2.884-7.119 2.882 6.522 2.984 3.522 2.982-.239 2.981-1.303 2.982-7.053 3.03 3.283 2.982 5.62 2.984-7.709 2.98 4.317 2.982 1.651 3.03.896 2.933-2.398 2.93 5.68 2.984-7.37 2.982 10.951 2.982-2.318 2.982-1.86 3.03.895 2.982 4.666 2.984-3.173 2.98 4.098 2.981.378 3.03 2.685 2.885-2.248 2.881 1.055 2.984-1.254 2.982 2.746 2.982-.895 2.981 2.088 3.03-.298 2.983.985 2.983 1.104 2.98-.796 2.982 3.183 3.03-2.387 2.884-.906 2.882 2.398 2.984.796 2.982-3.78 2.981 3.471 2.982.408 3.03-.597 2.982 1.731 2.984.358 2.98-1.283 2.981.09h3.03l2.885.703 2.882-.405 2.984.537 2.981.358 2.982-.358 2.982-.537 3.03.298 2.982-.686 2.984 1.88 2.98-.338 2.981-.557 3.03.597 2.933-.083 2.931-1.111 2.984 1.462 2.982-1.164 2.981 1.164 2.982.328 3.03-.298" fill="none" stroke="#e377c2" stroke-linecap="square" stroke-width="1.5" id="line2d_1"/><g id="matplotlib.axis_1"><g id="xtick_1"><g id="line2d_2"><defs><path d="M0 0v3.5" id="m67d054386e" stroke="#969696" stroke-width=".4"/></defs><use x="43.213" xlink:href="#m67d054386e" y="313.628" fill="#969696" stroke="#969696" stroke-width=".4"/></g><g transform="matrix(.14 0 0 -.14 27.642 330.678)" fill="#969696" id="text_1"><defs><path d="M4.39 45.125q0 12.39 6.391 18.781 6.406 6.407 17.938 6.407 9.656 0 15.812-5.86 6.157-5.86 6.157-15.14 0-7.22-3.547-12.188-3.532-4.953-10.422-8.703l-12.11-6.64Q13.922 15.921 12.5 8.296h38.188V0H2.593q.39 9.906 4.297 16.5 3.906 6.594 12.203 11.375l12.593 7.328q5.032 2.89 7.329 5.984 2.297 3.094 2.297 8.516 0 5.375-3.766 9.031-3.75 3.672-10.156 3.672-7.078 0-10.594-4.672-3.516-4.656-3.61-12.609z" id="HelveticaWorld-Regular-50"/><path d="M42.484 34.188q0 14.109-3.734 21.156-3.734 7.062-10.969 7.062-7.078 0-10.89-7.062-3.797-7.047-3.797-21.157 0-13.671 3.75-20.937Q20.609 6 27.78 6q7.235 0 10.969 7 3.734 7.016 3.734 21.188zm9.422 0q0-17.297-6.25-26.704-6.25-9.39-17.875-9.39-12.062 0-18.062 9.734-6 9.75-6 26.36 0 17.03 6.14 26.578 6.157 9.547 17.922 9.547 11.625 0 17.875-9.5t6.25-26.626z" id="HelveticaWorld-Regular-48"/><path d="M35.89 0h-9.374v49.906H10.109v6.985q8.594.28 12.782 2.75Q27.094 62.109 29 70.313h6.89z" id="HelveticaWorld-Regular-49"/></defs><use xlink:href="#HelveticaWorld-Regular-50"/><use x="55.615" xlink:href="#HelveticaWorld-Regular-48"/><use x="111.23" xlink:href="#HelveticaWorld-Regular-49"/><use x="166.846" xlink:href="#HelveticaWorld-Regular-49"/></g></g><g id="xtick_2"><use x="78.895" xlink:href="#m67d054386e" y="313.628" fill="#969696" stroke="#969696" stroke-width=".4" id="line2d_3"/><g transform="matrix(.14 0 0 -.14 63.325 330.678)" fill="#969696" id="text_2"><use xlink:href="#HelveticaWorld-Regular-50"/><use x="55.615" xlink:href="#HelveticaWorld-Regular-48"/><use x="111.23" xlink:href="#HelveticaWorld-Regular-49"/><use x="166.846" xlink:href="#HelveticaWorld-Regular-50"/></g></g><g id="xtick_3"><use x="114.676" xlink:href="#m67d054386e" y="313.628" fill="#969696" stroke="#969696" stroke-width=".4" id="line2d_4"/><g transform="matrix(.14 0 0 -.14 99.105 330.678)" fill="#969696" id="text_3"><defs><path d="M22.406 39.984q2.203-.187 4.594-.187 6.203 0 9.781 2.86 3.594 2.859 3.594 8.656 0 4.687-3.344 7.89-3.343 3.203-9.64 3.203-6.985 0-10.235-4.11-3.234-4.093-3.437-10.983h-8.64q0 10.984 5.765 16.984 5.765 6.016 16.937 6.016 9.922 0 15.828-5.11 5.907-5.094 5.907-13.39 0-10.704-9.032-14.5v-.204q11.72-4 11.72-16.406 0-9.906-6.595-16.265-6.593-6.344-18.703-6.344-9.906 0-16.312 5.203Q4.204 8.5 3.422 21.484H12.5q.203-8.109 4-11.797Q20.313 6 27.484 6q6.938 0 11.141 3.86 4.203 3.859 4.203 9.718 0 6.406-4.016 9.672-4 3.266-12.39 3.266-2 0-4.016-.094z" id="HelveticaWorld-Regular-51"/></defs><use xlink:href="#HelveticaWorld-Regular-50"/><use x="55.615" xlink:href="#HelveticaWorld-Regular-48"/><use x="111.23" xlink:href="#HelveticaWorld-Regular-49"/><use x="166.846" xlink:href="#HelveticaWorld-Regular-51"/></g></g><g id="xtick_4"><use x="150.359" xlink:href="#m67d054386e" y="313.628" fill="#969696" stroke="#969696" stroke-width=".4" id="line2d_5"/><g transform="matrix(.14 0 0 -.14 134.788 330.678)" fill="#969696" id="text_4"><defs><path d="M10.594 24.703h22.61v31.89h-.188zM42 17.093V0h-8.797v17.094H2.484v8.593L34.72 70.314H42v-45.61h10.297v-7.61z" id="HelveticaWorld-Regular-52"/></defs><use xlink:href="#HelveticaWorld-Regular-50"/><use x="55.615" xlink:href="#HelveticaWorld-Regular-48"/><use x="111.23" xlink:href="#HelveticaWorld-Regular-49"/><use x="166.846" xlink:href="#HelveticaWorld-Regular-52"/></g></g><g id="xtick_5"><use x="186.041" xlink:href="#m67d054386e" y="313.628" fill="#969696" stroke="#969696" stroke-width=".4" id="line2d_6"/><g transform="matrix(.14 0 0 -.14 170.47 330.678)" fill="#969696" id="text_5"><defs><path d="M14.703 40.922q5.813 4.39 13.625 4.39 9.469 0 16.281-6.296 6.813-6.297 6.813-16.22 0-10.78-6.578-17.796-6.563-7-18.422-7-10.313 0-16.266 5.047Q4.203 8.109 3.22 17.39h9.094q.671-5.672 4.437-8.672 3.766-3 10.453-3 6.485 0 10.64 4.484Q42 14.703 42 21.688q0 7.125-4.36 11.421-4.343 4.297-11.218 4.297-7.813 0-13.047-6.687l-7.563.39 5.266 37.594h36.438v-8.5H17.672z" id="HelveticaWorld-Regular-53"/></defs><use xlink:href="#HelveticaWorld-Regular-50"/><use x="55.615" xlink:href="#HelveticaWorld-Regular-48"/><use x="111.23" xlink:href="#HelveticaWorld-Regular-49"/><use x="166.846" xlink:href="#HelveticaWorld-Regular-53"/></g></g><g id="xtick_6"><use x="221.724" xlink:href="#m67d054386e" y="313.628" fill="#969696" stroke="#969696" stroke-width=".4" id="line2d_7"/><g transform="matrix(.14 0 0 -.14 206.153 330.678)" fill="#969696" id="text_6"><defs><path d="M14.11 21.578q0-6.875 4.093-11.234Q22.313 6 28.906 6q6.297 0 10.032 4.438 3.734 4.453 3.734 11.687 0 6.297-3.688 10.547-3.687 4.25-10.468 4.25-6.594 0-10.5-4.156-3.907-4.157-3.907-11.188zM41.702 51.61q-.984 5.375-3.984 8.078-3 2.72-8.125 2.72-8.11 0-12.36-7.923-4.25-7.906-4.343-18.109l.203-.188q5.61 8.641 16.687 8.641 8.844 0 15.438-5.86 6.593-5.859 6.593-16.452 0-10.5-6.25-17.47-6.25-6.952-16.843-6.952-12.219 0-18.563 8.687-6.344 8.703-6.344 25.938 0 16.593 6.485 27.093 6.5 10.5 19.484 10.5 8.407 0 14.219-5.015 5.813-5 6.297-13.688z" id="HelveticaWorld-Regular-54"/></defs><use xlink:href="#HelveticaWorld-Regular-50"/><use x="55.615" xlink:href="#HelveticaWorld-Regular-48"/><use x="111.23" xlink:href="#HelveticaWorld-Regular-49"/><use x="166.846" xlink:href="#HelveticaWorld-Regular-54"/></g></g><g id="xtick_7"><use x="257.504" xlink:href="#m67d054386e" y="313.628" fill="#969696" stroke="#969696" stroke-width=".4" id="line2d_8"/><g transform="matrix(.14 0 0 -.14 241.934 330.678)" fill="#969696" id="text_7"><defs><path d="M3.719 68.797h48.578v-7.719Q42.28 50.875 33.984 33.484 25.687 16.11 23.391 0h-9.672q1.469 13.281 9.719 30.531 8.25 17.266 18.953 29.672H3.719z" id="HelveticaWorld-Regular-55"/></defs><use xlink:href="#HelveticaWorld-Regular-50"/><use x="55.615" xlink:href="#HelveticaWorld-Regular-48"/><use x="111.23" xlink:href="#HelveticaWorld-Regular-49"/><use x="166.846" xlink:href="#HelveticaWorld-Regular-55"/></g></g><g id="xtick_8"><use x="293.187" xlink:href="#m67d054386e" y="313.628" fill="#969696" stroke="#969696" stroke-width=".4" id="line2d_9"/><g transform="matrix(.14 0 0 -.14 277.616 330.678)" fill="#969696" id="text_8"><defs><path d="M27.594 40.578q5.422 0 8.953 3.094 3.547 3.11 3.547 8.234 0 4.594-3.407 7.547-3.39 2.953-9.687 2.953-5.61 0-8.672-3.11-3.047-3.093-3.047-7.874 0-5.125 3.813-7.984 3.812-2.86 8.5-2.86zm.093-7.562q-6.78 0-10.64-3.766-3.86-3.766-3.86-9.234 0-6.297 3.907-10.157Q21 6 28.219 6q6.406 0 10.234 3.86 3.828 3.859 3.828 10.265 0 5.469-3.828 9.172-3.828 3.719-10.766 3.719zM49.22 52.203q0-10.594-9.032-14.797 6.204-2.781 8.86-7.36 2.656-4.562 2.656-9.733 0-10.016-6.453-16.125-6.438-6.094-17.375-6.094-9.563 0-16.813 5.25-7.25 5.25-7.25 17.062 0 11.922 11.907 16.907-9.516 3.796-9.516 13.671 0 8.297 5.64 13.813 5.641 5.516 15.641 5.516 10.016 0 15.875-5.204 5.86-5.203 5.86-12.906z" id="HelveticaWorld-Regular-56"/></defs><use xlink:href="#HelveticaWorld-Regular-50"/><use x="55.615" xlink:href="#HelveticaWorld-Regular-48"/><use x="111.23" xlink:href="#HelveticaWorld-Regular-49"/><use x="166.846" xlink:href="#HelveticaWorld-Regular-56"/></g></g><g id="xtick_9"><use x="328.87" xlink:href="#m67d054386e" y="313.628" fill="#969696" stroke="#969696" stroke-width=".4" id="line2d_10"/><g transform="matrix(.14 0 0 -.14 313.299 330.678)" fill="#969696" id="text_9"><defs><path d="M27.594 31.39q6 0 9.75 4.047 3.765 4.063 3.765 11.97 0 6.5-3.562 10.75-3.563 4.25-10.64 4.25-6.11 0-9.876-4.298-3.75-4.297-3.75-11.53 0-7.376 3.516-11.282 3.515-3.906 10.797-3.906zm-1.282-7.906q-10 0-16.062 6.203-6.047 6.204-6.047 16.5 0 10.407 6.094 17.266 6.11 6.86 16.515 6.86 12.11 0 18.36-8.157 6.25-8.156 6.25-24.453 0-16.906-6.406-28.266Q38.625-1.905 25.875-1.905q-9.953 0-15.422 5.593-5.469 5.594-5.469 13.204h8.829q.39-5.266 3.437-8.375 3.063-3.094 8.438-3.094 7.609 0 11.515 6.781Q41.11 19 42.578 31.688l-.187.203q-5.672-8.407-16.078-8.407z" id="HelveticaWorld-Regular-57"/></defs><use xlink:href="#HelveticaWorld-Regular-50"/><use x="55.615" xlink:href="#HelveticaWorld-Regular-48"/><use x="111.23" xlink:href="#HelveticaWorld-Regular-49"/><use x="166.846" xlink:href="#HelveticaWorld-Regular-57"/></g></g><g id="xtick_10"><use x="364.552" xlink:href="#m67d054386e" y="313.628" fill="#969696" stroke="#969696" stroke-width=".4" id="line2d_11"/><g transform="matrix(.14 0 0 -.14 348.982 330.678)" fill="#969696" id="text_10"><use xlink:href="#HelveticaWorld-Regular-50"/><use x="55.615" xlink:href="#HelveticaWorld-Regular-48"/><use x="111.23" xlink:href="#HelveticaWorld-Regular-50"/><use x="166.846" xlink:href="#HelveticaWorld-Regular-48"/></g></g></g><g id="matplotlib.axis_2"><g id="ytick_1"><path clip-path="url(#p2516da31be)" d="M29.77 313.628h357.12" fill="none" stroke="#969696" stroke-linecap="square" stroke-width=".3" id="line2d_12"/><g id="line2d_13"><defs><path d="M0 0h-3.5" id="ma6fbd0111a" stroke="#969696" stroke-width=".3"/></defs><use x="29.771" xlink:href="#ma6fbd0111a" y="313.628" fill="#969696" stroke="#969696" stroke-width=".3"/></g><use xlink:href="#HelveticaWorld-Regular-48" transform="matrix(.14 0 0 -.14 14.985 318.653)" fill="#969696" id="text_11"/></g><g id="ytick_2"><path clip-path="url(#p2516da31be)" d="M29.77 267.375h357.12" fill="none" stroke="#969696" stroke-linecap="square" stroke-width=".3" id="line2d_14"/><use x="29.771" xlink:href="#ma6fbd0111a" y="267.375" fill="#969696" stroke="#969696" stroke-width=".3" id="line2d_15"/><use xlink:href="#HelveticaWorld-Regular-53" transform="matrix(.14 0 0 -.14 14.985 272.4)" fill="#969696" id="text_12"/></g><g id="ytick_3"><path clip-path="url(#p2516da31be)" d="M29.77 221.121h357.12" fill="none" stroke="#969696" stroke-linecap="square" stroke-width=".3" id="line2d_16"/><use x="29.771" xlink:href="#ma6fbd0111a" y="221.121" fill="#969696" stroke="#969696" stroke-width=".3" id="line2d_17"/><g transform="matrix(.14 0 0 -.14 7.2 226.146)" fill="#969696" id="text_13"><use xlink:href="#HelveticaWorld-Regular-49"/><use x="55.615" xlink:href="#HelveticaWorld-Regular-48"/></g></g><g id="ytick_4"><path clip-path="url(#p2516da31be)" d="M29.77 174.868h357.12" fill="none" stroke="#969696" stroke-linecap="square" stroke-width=".3" id="line2d_18"/><use x="29.771" xlink:href="#ma6fbd0111a" y="174.868" fill="#969696" stroke="#969696" stroke-width=".3" id="line2d_19"/><g transform="matrix(.14 0 0 -.14 7.2 179.892)" fill="#969696" id="text_14"><use xlink:href="#HelveticaWorld-Regular-49"/><use x="55.615" xlink:href="#HelveticaWorld-Regular-53"/></g></g><g id="ytick_5"><path clip-path="url(#p2516da31be)" d="M29.77 128.614h357.12" fill="none" stroke="#969696" stroke-linecap="square" stroke-width=".3" id="line2d_20"/><use x="29.771" xlink:href="#ma6fbd0111a" y="128.614" fill="#969696" stroke="#969696" stroke-width=".3" id="line2d_21"/><g transform="matrix(.14 0 0 -.14 7.2 133.639)" fill="#969696" id="text_15"><use xlink:href="#HelveticaWorld-Regular-50"/><use x="55.615" xlink:href="#HelveticaWorld-Regular-48"/></g></g><g id="ytick_6"><path clip-path="url(#p2516da31be)" d="M29.77 82.36h357.12" fill="none" stroke="#969696" stroke-linecap="square" stroke-width=".3" id="line2d_22"/><use x="29.771" xlink:href="#ma6fbd0111a" y="82.361" fill="#969696" stroke="#969696" stroke-width=".3" id="line2d_23"/><g transform="matrix(.14 0 0 -.14 7.2 87.385)" fill="#969696" id="text_16"><use xlink:href="#HelveticaWorld-Regular-50"/><use x="55.615" xlink:href="#HelveticaWorld-Regular-53"/></g></g></g><path clip-path="url(#p2516da31be)" d="M89.258 313.628l2.982-.298 2.981-1.552 2.982.358 3.03-2.089 2.982-2.586 2.984.796 2.98-4.805 2.982-1.76 3.03-1.492 2.884-7.055 2.882-4.583 2.984.398 2.981-10.246 2.982-5.172 2.982 5.172 3.03-4.177 2.982-1.304 2.984-16.004 2.98-6.814 2.981-2.139 3.03-9.25 2.885-2.046 2.882 2.941 2.983.01 2.982.885 2.982 4.974 2.981-13.33 3.031 5.969 2.982-.348 2.984 14.075 2.98 10.593 2.98-7.31 3.031-6.267 2.884-1.62 2.882 5.2 2.984-6.346 2.982 5.451 2.981-3.6 2.982 3.004 3.03 10.742 2.982-1.412 2.984 5.888 2.98 9.221 2.982-9.817 3.03-.896 2.933 8.13 2.93 1.718 2.984-5.918 2.982 2.635 2.982 12.474 2.982 1.85 3.03-4.476 2.982 6.326 2.984 2.03 2.98.745 2.981 4.029 3.03-1.492 2.885 4.402 2.881-4.402 2.984-.378 2.982 7.241 2.982-3.232 2.981 4.724 3.03.299 2.983-.706 2.983 1.303 2.98.238 2.982 3.044 3.03-1.193 2.884-.992 2.882 1.588 2.984-2.138 2.982 1.542 2.981.925 2.982 1.163 3.03-1.79 2.982-3.074 2.984 6.953 2.98-1.094 2.981-.1 3.03-1.491 2.885-.17 2.882 1.96 2.984 1.343 2.981 1.641 2.982-1.333 2.982.438 3.03-1.194 2.982-1.094 2.984 1.094 2.98.14 2.981.756 3.03.895 2.933.411 2.931-3.694 2.984 1.015 2.982 1.67 2.981-1.053 2.982 1.054 3.03.597" fill="none" stroke="#8c564b" stroke-linecap="square" stroke-width="1.5" id="line2d_24"/><path clip-path="url(#p2516da31be)" d="M89.258 313.628l2.982-.597 2.981.289 2.982.01h3.03l2.982-.01 2.984.308h2.98l2.982-.298 3.03-.895 2.884.863 2.882-1.162 2.984-.358 2.981.358 2.982-.05 2.982-.845 3.03 1.194 2.982.885 2.984-.885 2.98-2.815 2.981 1.621 3.03-2.686 2.885-3.186 2.882-.991 2.983-1.234 2.982.04 2.982-4.357 2.981 2.268 3.031 1.79 2.982-2.516 2.984-.766 2.98-3.243 2.98 2.348 3.031-6.864 2.884 1.961 2.882-6.735 2.984 4.973 2.982-4.973 2.981 1.273 2.982 3.501 3.03-1.193 2.982 3.242 2.984-4.436 2.98-4.814 2.982-.259 3.03 6.864 2.933.689 2.93-4.569 2.984 3.75 2.982 5.8 2.982-3.95 2.982 1.86 3.03 1.492 2.982 2.815 2.984 2.258 2.98-1.332 2.981 1.034 3.03-2.686 2.885 4.647 2.881.725 2.984.288 2.982 2.696 2.982-3.93 2.981 3.035 3.03-.896 2.983 3.72 2.983-.437 2.98-.796 2.982 1.094 3.03.597 2.884 1.503 2.882-1.503 2.984.776 2.982.716 2.981.517 2.982-1.71 3.03-2.985 2.982 3.154 2.984-.468 2.98-.15 2.981.449 3.03-.597 2.885 2.792 2.882-1.897 2.984-1.671 2.981 2.268 2.982-1.343 2.982 1.044 3.03-2.685 2.982 2.566 2.984.716 2.98-.1 2.981 1.294h3.03l2.933-.443 2.931-1.646 2.984-1.054 2.982 1.352 2.981-.119 2.982-2.566 3.03.895" fill="none" stroke="#9467bd" stroke-linecap="square" stroke-width="1.5" id="line2d_25"/><g transform="matrix(.14 0 0 -.14 390.462 105.93)" fill="#1f77b4" id="text_17"><defs><path d="M49.219 0h-8.844v32.172q0 7.422-2.594 10.578-2.578 3.156-8.578 3.156-5.906 0-9.875-4.5-3.953-4.484-3.953-12.89V0H6.594v52.297h8.297v-7.375h.203q6.203 8.89 15.812 8.89 8.89 0 13.594-4.718 4.719-4.703 4.719-13.5z" id="HelveticaWorld-Regular-110"/><path d="M14.984 23.688q0-8.407 4.094-13 4.11-4.579 10.219-4.579 6.687 0 10.39 5.438 3.72 5.453 3.72 14.765 0 10.22-3.563 14.907-3.563 4.687-10.735 4.687-6.984 0-10.562-5.5-3.563-5.5-3.563-16.718zm-8.39 28.609h8.297v-7.375h.203q5.61 8.89 15.625 8.89 10.11 0 15.937-7.359 5.828-7.344 5.828-18.766 0-12.796-5.953-21Q40.578-1.515 29.5-1.515q-9.094 0-13.922 7.032h-.203v-26.22H6.594z" id="HelveticaWorld-Regular-112"/><path d="M6.594 52.297h8.297v-7.375h.203q5.906 8.89 15.812 8.89 9.813 0 13.922-8.5 3.75 4.594 7.266 6.547 3.515 1.953 8.703 1.953 6.781 0 11.484-4.453Q77 44.922 77 36.187V0h-8.781v33.797q0 6.094-2.297 9.094-2.297 3.015-7.422 3.015-5.172 0-8.75-4.203-3.563-4.203-3.563-9.812V0h-8.78v36.188q0 4.53-2.11 7.124-2.094 2.594-6.094 2.594-6.297 0-10.062-4.687-3.766-4.688-3.766-12.703V0H6.594z" id="HelveticaWorld-Regular-109"/></defs><use xlink:href="#HelveticaWorld-Regular-110"/><use x="55.176" xlink:href="#HelveticaWorld-Regular-112"/><use x="111.67" xlink:href="#HelveticaWorld-Regular-109"/></g><g transform="matrix(.14 0 0 -.14 390.462 143.828)" fill="#ff7f0e" id="text_18"><defs><path d="M25.594 0h-8.985L1.516 52.297h9.468L21 11.187h.188l10.109 41.11h9.922l10.203-41.11h.187l10.594 41.11h8.703L55.812 0h-9.234L35.984 40.484h-.187z" id="HelveticaWorld-Regular-119"/><path d="M42.484 30.328q-.687 8.485-4.5 12.031-3.797 3.547-10.109 3.547-6.39 0-10.328-4.5-3.922-4.484-4.172-11.078zm8.391-13.922q-1.453-8.11-7.953-13.422-5.719-4.5-15.047-4.593-10.984.093-17.438 7.203Q4 12.704 4 24.704q0 13.78 6.64 21.437 6.641 7.672 18.47 7.672 10.593 0 16.546-7.922 5.953-7.907 5.953-22.594H13.375q0-8.203 3.813-12.703Q21 6.109 28.608 6.109q5.375 0 9.235 3.235 3.86 3.25 4.25 7.062z" id="HelveticaWorld-Regular-101"/><path d="M43.406 26.313q0 10.5-3.718 15.046-3.704 4.547-10.579 4.547-6.984-.11-10.562-5.453Q14.984 35.11 14.984 25q0-10.297 4.297-14.594Q23.578 6.11 29.297 6.11q6.5 0 10.297 5.344 3.812 5.344 3.812 14.86zM6.594 0v71.781h8.781V45.703h.203q5.61 8.11 15.14 8.11 9.766 0 15.766-7.25t6-18.876q0-13.093-6.062-21.156Q40.375-1.516 29.5-1.516q-9.578 0-14.406 8.016h-.203V0z" id="HelveticaWorld-Regular-98"/><path d="M38.375 26.703q-.969-1.015-3.828-1.656-2.86-.625-10.672-1.656-5.766-.688-8.469-2.844-2.703-2.14-2.703-5.656 0-4.297 2.281-6.688 2.297-2.39 7.329-2.39 6.296 0 11.171 3.578 4.891 3.593 4.891 8.718zM6.203 36.375q.297 8.844 5.734 13.14 5.454 4.297 15.844 4.297 8.297 0 13.907-3.765 5.624-3.75 5.624-10.844V9.078Q47.313 6 50.094 6q1.125 0 2.89.39V0Q50.594-.984 48-.984q-4.5 0-6.703 1.921-2.188 1.938-2.281 6.047-7.516-8.5-18.891-8.5-7.422 0-11.922 4.204Q3.72 6.89 3.72 13.624q0 6.89 3.906 11.125Q11.531 29 19 29.89l15.516 1.891q4.203.64 4.203 6.203 0 4.11-3.047 6.297-3.047 2.203-9.25 2.203-5.516 0-8.485-2.437-2.953-2.438-3.53-7.672z" id="HelveticaWorld-Regular-97"/><path d="M39.594 34.719q-1.89 11.187-12.39 11.187-6.5 0-10.454-5.203-3.953-5.203-3.953-14.484 0-10.11 3.656-15.11 3.672-5 10.64-5 4.688 0 8.11 3.438 3.422 3.437 4.39 8.953h8.5q-1.312-9.703-6.859-14.86-5.547-5.156-14.328-5.156-10.297 0-16.89 7.047-6.594 7.063-6.594 19.172 0 13.281 6.594 21.188 6.593 7.922 18.5 7.922 8.687 0 13.843-5.204 5.157-5.203 5.735-13.89z" id="HelveticaWorld-Regular-99"/><path d="M50 0H38.719L22.406 26.422l-7.312-6.594V0h-8.5v71.781h8.5v-41.61l22.5 22.126H48.78L28.813 32.813z" id="HelveticaWorld-Regular-107"/></defs><use xlink:href="#HelveticaWorld-Regular-119"/><use x="70.912" xlink:href="#HelveticaWorld-Regular-101"/><use x="126.332" xlink:href="#HelveticaWorld-Regular-98"/><use x="182.826" xlink:href="#HelveticaWorld-Regular-112"/><use x="239.32" xlink:href="#HelveticaWorld-Regular-97"/><use x="294.252" xlink:href="#HelveticaWorld-Regular-99"/><use x="345.521" xlink:href="#HelveticaWorld-Regular-107"/></g><g transform="matrix(.14 0 0 -.14 390.462 279.324)" fill="#2ca02c" id="text_19"><defs><path d="M12.984 26.313q0-9.61 3.813-14.907Q20.609 6.11 27.094 6.11q6.312 0 10.312 4.579 4 4.593 4 13 0 11.03-3.5 16.625-3.484 5.593-10.61 5.593-7.171 0-10.75-4.765-3.562-4.766-3.562-14.828zM49.812 2.983q0-12.609-6.062-18.797-6.047-6.203-18.266-6.203-8.78 0-13.984 4.047Q6.297-13.922 5.516-6.39h8.796q.672-3.812 3.532-6.062 2.86-2.25 8.281-2.25 7.375 0 11.125 3.969 3.766 3.953 3.766 12.828v3.719h-.188q-4.937-7.329-13.922-7.329-11.187 0-17.093 8.25-5.907 8.25-5.907 20.953 0 11.625 5.953 18.875 5.97 7.25 15.829 7.25 9.906 0 15.625-8.89h.187v7.375h8.313z" id="HelveticaWorld-Regular-103"/><path d="M6.11 52.297h8.78V17.578q0-5.765 2.61-8.625Q20.125 6.11 25 6.11q6.781 0 10.594 4.797 3.812 4.813 3.812 12.578v28.813h8.782V0H39.89v7.625l-.188.188q-4.984-9.329-16.61-9.329-7.515 0-12.25 4.094Q6.11 6.688 6.11 14.703z" id="HelveticaWorld-Regular-117"/><path d="M15.375 0H6.594v71.781h8.781z" id="HelveticaWorld-Regular-108"/></defs><use xlink:href="#HelveticaWorld-Regular-103"/><use x="55.908" xlink:href="#HelveticaWorld-Regular-117"/><use x="110.693" xlink:href="#HelveticaWorld-Regular-108"/><use x="132.715" xlink:href="#HelveticaWorld-Regular-112"/></g><g transform="matrix(.14 0 0 -.14 390.462 293.32)" fill="#d62728" id="text_20"><defs><path d="M39.016 52.297h9.562L29.891.984q-.5-1.375-.985-2.593-4.25-11.329-7.328-15.547-3.078-4.235-9.953-4.235-3.61 0-5.906.782v8.015q2.484-.89 5.468-.89 3.22 0 4.704 2.03 1.5 2.032 4.421 9.938L.875 52.297h9.922L24.812 9.719H25z" id="HelveticaWorld-Regular-121"/><path d="M15.375 0H6.594v52.297h8.297v-8.688h.203q5.703 10.203 14.687 10.203 1.422 0 2.297-.296V44.39h-3.266q-5.906 0-9.671-4.016-3.766-4-3.766-9.953z" id="HelveticaWorld-Regular-114"/></defs><use xlink:href="#HelveticaWorld-Regular-121"/><use x="46.734" xlink:href="#HelveticaWorld-Regular-97"/><use x="101.666" xlink:href="#HelveticaWorld-Regular-114"/><use x="134.234" xlink:href="#HelveticaWorld-Regular-110"/></g><g transform="matrix(.14 0 0 -.14 390.462 307.439)" fill="#9467bd" id="text_21"><defs><path d="M12.703 26.219q0-8.735 3.953-14.375 3.953-5.64 11.219-5.64 7.531 0 11.438 5.905 3.906 5.907 3.906 14.11 0 8.297-3.907 14.078-3.906 5.797-11.437 5.797-6.969 0-11.078-5.453-4.094-5.438-4.094-14.422zm-8.984 0q0 11.672 6.484 19.625 6.5 7.968 17.672 7.968 11.438 0 17.875-8.062 6.453-8.047 6.453-19.531 0-11.516-6.406-19.625-6.39-8.11-17.922-8.11-11.078 0-17.625 7.86-6.531 7.86-6.531 19.875z" id="HelveticaWorld-Regular-111"/><path d="M36.078 37.406q-.187 4.688-3.344 6.735-3.14 2.047-9.047 2.047-4.296 0-7.359-1.907-3.047-1.89-3.047-5.468 0-2.829 1.797-4.172 1.813-1.344 7.828-2.86l8.688-2.187q7.906-2 11.297-5.11 3.406-3.093 3.406-8.656 0-7.719-5.64-12.531-5.641-4.813-15.063-4.813-11 0-16.64 4.563-5.626 4.578-5.735 13.75h8.5q.203-5.422 3.594-8.063 3.39-2.625 10.171-2.625 5.516 0 8.766 2.188 3.25 2.203 3.25 6.11 0 2.78-2.11 4.437-2.093 1.672-8.296 3.078l-10.203 2.5q-6.203 1.562-9.157 4.656-2.953 3.094-2.953 8.031 0 7.72 5.516 12.203 5.531 4.5 14.406 4.5 9.485 0 14.531-4.624 5.047-4.61 5.344-11.782z" id="HelveticaWorld-Regular-115"/><path d="M6.594 61.813v9.968h8.781v-9.969zM15.375 0H6.594v52.297h8.781z" id="HelveticaWorld-Regular-105"/><path d="M17.188 45.016V0H8.405v45.016H1.22v7.28h7.187v8.985q0 5.907 3.578 8.703 3.594 2.813 10.032 2.813 2.203 0 3.968-.188v-7.906q-1.562.188-3.578.188-2.922 0-4.078-1.438-1.14-1.437-1.14-4.656v-6.5h8.796v-7.281z" id="HelveticaWorld-Regular-102"/></defs><use xlink:href="#HelveticaWorld-Regular-98"/><use x="56.494" xlink:href="#HelveticaWorld-Regular-114"/><use x="88.063" xlink:href="#HelveticaWorld-Regular-111"/><use x="142.471" xlink:href="#HelveticaWorld-Regular-119"/><use x="213.383" xlink:href="#HelveticaWorld-Regular-115"/><use x="263.383" xlink:href="#HelveticaWorld-Regular-101"/><use x="318.803" xlink:href="#HelveticaWorld-Regular-114"/><use x="351.371" xlink:href="#HelveticaWorld-Regular-105"/><use x="373.393" xlink:href="#HelveticaWorld-Regular-102"/><use x="401.078" xlink:href="#HelveticaWorld-Regular-121"/></g><g transform="matrix(.14 0 0 -.14 390.462 321.232)" fill="#8c564b" id="text_22"><defs><path d="M17.188 45.016V10.984q0-2 1.093-3.046 1.11-1.047 3.938-1.047h3.375V0Q20.797-.688 19-.688q-5.516 0-8.063 2.641-2.53 2.64-2.53 8.547v34.516H1.311v7.28h7.094v14.595h8.781V52.297h8.407v-7.281z" id="HelveticaWorld-Regular-116"/></defs><use xlink:href="#HelveticaWorld-Regular-103"/><use x="55.908" xlink:href="#HelveticaWorld-Regular-114"/><use x="88.477" xlink:href="#HelveticaWorld-Regular-117"/><use x="143.262" xlink:href="#HelveticaWorld-Regular-110"/><use x="198.438" xlink:href="#HelveticaWorld-Regular-116"/></g><g transform="matrix(.14 0 0 -.14 390.462 335.416)" fill="#e377c2" id="text_23"><use xlink:href="#HelveticaWorld-Regular-98"/><use x="56.494" xlink:href="#HelveticaWorld-Regular-111"/><use x="110.902" xlink:href="#HelveticaWorld-Regular-119"/><use x="181.814" xlink:href="#HelveticaWorld-Regular-101"/><use x="237.234" xlink:href="#HelveticaWorld-Regular-114"/></g><g transform="matrix(.09716 0 0 -.09716 29.77 347.399)" fill="#969696" id="text_24"><defs><path d="M50.39 50.781q-.296 6.844-5.109 10.719-4.797 3.875-12.656 3.875-7.922 0-12.172-3.25-4.234-3.234-4.234-9.344 0-3.265 1.843-5.61 1.86-2.343 6.641-3.468l20.516-4.687q8.297-1.813 12.297-6.875 4.015-5.047 4.015-12.313 0-10.64-7.812-16.187-7.813-5.547-20.313-5.547-9.531 0-15.031 2.437-5.484 2.453-9.734 7.766-4.25 5.328-4.25 14.89h9.093q0-8 5.313-12.406 5.328-4.39 14.5-4.39 8.89 0 13.844 3.156 4.953 3.156 4.953 8.953 0 5.281-2.953 7.89Q46.188 29 37.594 31l-15.469 3.625q-7.719 1.75-11.531 6.125Q6.78 45.125 6.78 51.516q0 9.672 6.516 15.922 6.531 6.25 18.203 6.25 13.172 0 20.328-5.5 7.156-5.485 7.688-17.407z" id="HelveticaWorld-Regular-83"/><path d="M63.922 35.89q0 12.594-6.672 20.891-6.656 8.313-18.328 8.313-11.531 0-18.266-8.313-6.734-8.297-6.734-20.89 0-12.985 6.828-21.094 6.844-8.11 18.172-8.11 11.078 0 18.031 7.907 6.969 7.922 6.969 21.297zm9.953 0q0-16.062-9.281-26.937-9.266-10.86-25.672-10.86-16.516 0-25.766 10.86-9.25 10.875-9.25 26.938 0 16.109 9.25 26.953 9.25 10.843 25.766 10.843 16.89 0 25.922-11.046 9.031-11.032 9.031-26.75z" id="HelveticaWorld-Regular-79"/><path d="M39.406 52.297h9.625L29.11 0h-9.437L.594 52.297h10.203L24.422 9.719h.187z" id="HelveticaWorld-Regular-118"/><path d="M44 29.5L33.406 61.078h-.203L21.687 29.5zm-25.297-8.594L11.188 0h-9.97l27 71.781h10.985L65.187 0H54.594l-7.078 20.906z" id="HelveticaWorld-Regular-65"/><path d="M17.828 38.625H37.11q7.282 0 10.938 3.188 3.656 3.203 3.656 9.703 0 5.812-3.516 8.89-3.515 3.078-10.687 3.078H17.828zm0-38.625H8.11v71.781h32.266q9.625 0 15.484-5.594 5.86-5.593 5.86-14.578 0-9.328-5.672-15.312-5.656-5.969-15.672-5.969H17.828z" id="HelveticaWorld-Regular-80"/><path d="M17.828 0H8.11v71.781h9.72z" id="HelveticaWorld-Regular-73"/><path d="M9.422 73.688h7.281V-1.906H9.422z" id="HelveticaWorld-Regular-124"/><path d="M55.61 71.781h9.374V0h-10.78L17.577 58.016h-.187V0H8.109v71.781h11.375l35.938-57.969h.187z" id="HelveticaWorld-Regular-78"/><path d="M49.219 0h-8.844v34.188q0 6.296-2.438 9-2.437 2.718-7.953 2.718-6.797 0-10.703-4.406-3.906-4.39-3.906-12.984V0H6.594v71.781h8.781V45.312h.203q6 8.5 15.328 8.5 8.594 0 13.453-4.5 4.86-4.484 4.86-13.718z" id="HelveticaWorld-Regular-104"/><path d="M12.703 26.219q0-8.735 3.953-14.375 3.953-5.64 11.219-5.64 7.531 0 11.438 5.905 3.906 5.907 3.906 14.11 0 8.297-3.907 14.078-3.906 5.797-11.437 5.797-6.969 0-11.078-5.453-4.094-5.438-4.094-14.422zm-8.984 0q0 11.672 6.484 19.625 6.5 7.968 17.672 7.968 11.438 0 17.875-8.062 6.453-8.047 6.453-19.531 0-11.516-6.406-19.625-6.39-8.11-17.922-8.11-11.078 0-17.625 7.86-6.531 7.86-6.531 19.875zm36.734 35.406H31.47v10.156h8.984zm-16.219 0H15.25v10.156h8.984z" id="HelveticaWorld-Regular-246"/><path d="M58.016 50.203q-1.625 7.313-6.782 11.094-5.14 3.797-13.343 3.797-10.594 0-17.047-7.703-6.438-7.688-6.438-20.766 0-15.14 6.094-22.547 6.11-7.39 17.688-7.39 7.609 0 13.093 5.046 5.5 5.063 7.407 14.688h9.421Q66.22 12.594 57.625 5.344t-20.906-7.25q-14.703 0-23.516 10.11Q4.391 18.311 4.391 36.28q0 17.328 9.203 27.36 9.203 10.047 24.297 10.047 12.5 0 20.265-6.454 7.766-6.437 9.235-17.03z" id="HelveticaWorld-Regular-67"/><path d="M8.11 71.781h31.484q9.281 0 14.797-5.031 5.515-5.031 5.515-13.031 0-4.844-2.422-8.828-2.406-3.97-7.187-6.172 6.687-2.532 9.828-6.735 3.156-4.203 3.156-10.797 0-9.265-6.687-15.234Q49.906 0 38.922 0H8.109zm9.562-63.484h20.703q7.625 0 11.422 3.531 3.812 3.547 3.812 9.563 0 6.093-4.25 9.093Q45.125 33.5 36.812 33.5h-19.14zm0 33.11h17.625q7.719 0 11.312 2.796 3.594 2.813 3.594 8.781 0 5.125-3.406 7.813-3.39 2.687-11.39 2.687H17.671z" id="HelveticaWorld-Regular-66"/><path d="M37.313 0h-9.72v28.906L.485 71.781h11.329l20.609-34.469 20.562 34.47h11.422L37.312 28.905z" id="HelveticaWorld-Regular-89"/></defs><use xlink:href="#HelveticaWorld-Regular-83"/><use x="66.211" xlink:href="#HelveticaWorld-Regular-116"/><use x="93.896" xlink:href="#HelveticaWorld-Regular-97"/><use x="148.828" xlink:href="#HelveticaWorld-Regular-99"/><use x="200.098" xlink:href="#HelveticaWorld-Regular-107"/><use x="250.098" xlink:href="#HelveticaWorld-Regular-79"/><use x="327.881" xlink:href="#HelveticaWorld-Regular-118"/><use x="375.49" xlink:href="#HelveticaWorld-Regular-101"/><use x="430.91" xlink:href="#HelveticaWorld-Regular-114"/><use x="464.979" xlink:href="#HelveticaWorld-Regular-102"/><use x="492.664" xlink:href="#HelveticaWorld-Regular-108"/><use x="514.686" xlink:href="#HelveticaWorld-Regular-111"/><use x="569.094" xlink:href="#HelveticaWorld-Regular-119"/><use x="641.506" xlink:href="#HelveticaWorld-Regular-32"/><use x="665.92" xlink:href="#HelveticaWorld-Regular-65"/><use x="732.619" xlink:href="#HelveticaWorld-Regular-80"/><use x="797.268" xlink:href="#HelveticaWorld-Regular-73"/><use x="823.049" xlink:href="#HelveticaWorld-Regular-32"/><use x="847.463" xlink:href="#HelveticaWorld-Regular-118"/><use x="897.072" xlink:href="#HelveticaWorld-Regular-105"/><use x="919.094" xlink:href="#HelveticaWorld-Regular-97"/><use x="974.025" xlink:href="#HelveticaWorld-Regular-32"/><use x="998.439" xlink:href="#HelveticaWorld-Regular-115"/><use x="1048.439" xlink:href="#HelveticaWorld-Regular-116"/><use x="1076.125" xlink:href="#HelveticaWorld-Regular-97"/><use x="1131.057" xlink:href="#HelveticaWorld-Regular-99"/><use x="1182.326" xlink:href="#HelveticaWorld-Regular-107"/><use x="1232.326" xlink:href="#HelveticaWorld-Regular-116"/><use x="1260.012" xlink:href="#HelveticaWorld-Regular-97"/><use x="1314.943" xlink:href="#HelveticaWorld-Regular-103"/><use x="1370.852" xlink:href="#HelveticaWorld-Regular-115"/><use x="1420.852" xlink:href="#HelveticaWorld-Regular-32"/><use x="1445.266" xlink:href="#HelveticaWorld-Regular-124"/><use x="1471.242" xlink:href="#HelveticaWorld-Regular-32"/><use x="1495.656" xlink:href="#HelveticaWorld-Regular-78"/><use x="1568.752" xlink:href="#HelveticaWorld-Regular-105"/><use x="1590.773" xlink:href="#HelveticaWorld-Regular-99"/><use x="1642.043" xlink:href="#HelveticaWorld-Regular-111"/><use x="1697.951" xlink:href="#HelveticaWorld-Regular-32"/><use x="1722.365" xlink:href="#HelveticaWorld-Regular-83"/><use x="1788.576" xlink:href="#HelveticaWorld-Regular-99"/><use x="1839.846" xlink:href="#HelveticaWorld-Regular-104"/><use x="1895.021" xlink:href="#HelveticaWorld-Regular-108"/><use x="1917.043" xlink:href="#HelveticaWorld-Regular-246"/><use x="1972.951" xlink:href="#HelveticaWorld-Regular-109"/><use x="2055.959" xlink:href="#HelveticaWorld-Regular-101"/><use x="2111.379" xlink:href="#HelveticaWorld-Regular-114"/><use x="2143.947" xlink:href="#HelveticaWorld-Regular-32"/><use x="2168.361" xlink:href="#HelveticaWorld-Regular-124"/><use x="2194.338" xlink:href="#HelveticaWorld-Regular-32"/><use x="2218.752" xlink:href="#HelveticaWorld-Regular-67"/><use x="2291.066" xlink:href="#HelveticaWorld-Regular-67"/><use x="2363.381" xlink:href="#HelveticaWorld-Regular-32"/><use x="2387.795" xlink:href="#HelveticaWorld-Regular-66"/><use x="2450.607" xlink:href="#HelveticaWorld-Regular-89"/></g><g transform="matrix(.14 0 0 -.14 72.264 17.516)" fill="#969696" id="text_25"><defs><path d="M17.828 8.297h18.797q9.766 0 15.281 7.5 5.516 7.5 5.516 20.484 0 12.844-5.563 19.969-5.562 7.125-16.062 7.234H17.828zM8.11 71.78h29.094q14.11 0 22.094-9.703 7.984-9.687 7.984-25.156 0-16.61-7.984-26.766Q51.313 0 36.813 0H8.108z" id="HelveticaWorld-Regular-68"/><path d="M41.5 23.688q0 11.125-3.5 16.671-3.484 5.547-10.61 5.547-6.874 0-10.593-4.5-3.703-4.484-3.703-15.093 0-9.422 3.75-14.813 3.765-5.39 10.36-5.39 5.812 0 10.046 4.39 4.25 4.39 4.25 13.188zm8.406-44.391H41.11V5.516h-.187Q35.89-1.516 27-1.516q-10.984 0-17 8.157-6 8.156-6 21.047 0 11.421 5.906 18.765 5.922 7.36 15.875 7.36 9.907 0 15.625-8.891h.203v7.375h8.297z" id="HelveticaWorld-Regular-113"/></defs><use xlink:href="#HelveticaWorld-Regular-68"/><use x="72.021" xlink:href="#HelveticaWorld-Regular-97"/><use x="126.953" xlink:href="#HelveticaWorld-Regular-105"/><use x="148.975" xlink:href="#HelveticaWorld-Regular-108"/><use x="170.996" xlink:href="#HelveticaWorld-Regular-121"/><use x="220.605" xlink:href="#HelveticaWorld-Regular-32"/><use x="245.02" xlink:href="#HelveticaWorld-Regular-110"/><use x="300.195" xlink:href="#HelveticaWorld-Regular-117"/><use x="354.98" xlink:href="#HelveticaWorld-Regular-109"/><use x="437.988" xlink:href="#HelveticaWorld-Regular-98"/><use x="494.482" xlink:href="#HelveticaWorld-Regular-101"/><use x="549.902" xlink:href="#HelveticaWorld-Regular-114"/><use x="582.471" xlink:href="#HelveticaWorld-Regular-32"/><use x="606.885" xlink:href="#HelveticaWorld-Regular-111"/><use x="662.793" xlink:href="#HelveticaWorld-Regular-102"/><use x="690.479" xlink:href="#HelveticaWorld-Regular-32"/><use x="714.893" xlink:href="#HelveticaWorld-Regular-113"/><use x="771.387" xlink:href="#HelveticaWorld-Regular-117"/><use x="826.172" xlink:href="#HelveticaWorld-Regular-101"/><use x="881.592" xlink:href="#HelveticaWorld-Regular-115"/><use x="931.592" xlink:href="#HelveticaWorld-Regular-116"/><use x="959.277" xlink:href="#HelveticaWorld-Regular-105"/><use x="981.299" xlink:href="#HelveticaWorld-Regular-111"/><use x="1037.207" xlink:href="#HelveticaWorld-Regular-110"/><use x="1092.383" xlink:href="#HelveticaWorld-Regular-115"/><use x="1142.383" xlink:href="#HelveticaWorld-Regular-32"/><use x="1166.797" xlink:href="#HelveticaWorld-Regular-111"/><use x="1222.705" xlink:href="#HelveticaWorld-Regular-110"/><use x="1277.881" xlink:href="#HelveticaWorld-Regular-32"/><use x="1302.295" xlink:href="#HelveticaWorld-Regular-83"/><use x="1368.506" xlink:href="#HelveticaWorld-Regular-116"/><use x="1396.191" xlink:href="#HelveticaWorld-Regular-97"/><use x="1451.123" xlink:href="#HelveticaWorld-Regular-99"/><use x="1502.393" xlink:href="#HelveticaWorld-Regular-107"/><use x="1552.393" xlink:href="#HelveticaWorld-Regular-79"/><use x="1630.176" xlink:href="#HelveticaWorld-Regular-118"/><use x="1677.785" xlink:href="#HelveticaWorld-Regular-101"/><use x="1733.205" xlink:href="#HelveticaWorld-Regular-114"/><use x="1767.273" xlink:href="#HelveticaWorld-Regular-102"/><use x="1794.959" xlink:href="#HelveticaWorld-Regular-108"/><use x="1816.98" xlink:href="#HelveticaWorld-Regular-111"/><use x="1871.389" xlink:href="#HelveticaWorld-Regular-119"/></g><path clip-path="url(#p2516da31be)" d="M38.716 313.628l2.981-.298 3.031.298h56.505l2.982-.925 2.984.627 2.98-.935 2.982.338 3.03-.597 2.884 1.162 2.882.33 2.984-.308 2.981-.289 2.982-.02 2.982-.576 3.03-.299 2.982-.975 2.984.677 2.98-3.143 2.981-2.825 3.03 3.879 2.885-2.398 2.882-.586 2.983.696 2.982 3.482 2.982-6.257 2.981 1.78 3.031-1.193 2.982-2.129 2.984.338 2.98 2.437 2.98-.05 3.031-1.491 2.884-5.617 2.882 1.737 2.984-5.68 2.982 4.188 2.981-6.654 2.982.388 3.03 6.266 2.982-.179 2.984-.418 2.98 1.035 2.982-3.124 3.03-.895 2.933-.298 2.93 6.863 2.984-4.705 2.982-1.561 2.982.945 2.982-1.542 3.03 2.686 2.982 1.014 2.984-3.999 2.98 5.54 2.981-6.136 3.03.895 2.885-.991 2.881-3.187 2.984 3.561 2.982 2.407 2.982-.865 2.981 5.341 3.03-1.193 2.983-.448 2.983-1.044 2.98-4.506 2.982 6.893 3.03-.895 2.884.213 2.882-1.705 2.984 2.278 2.982-1.98 2.981-1.72 2.982 3.809 3.03-4.476 2.982.05 2.984.845 2.98 3.163 2.981 2.208 3.03-3.879 2.885-5.2 2.882 8.781 2.984 1.174 2.981.02 2.982-.637 2.982-1.75 3.03-3.88 2.982 5.938 2.984-17.576 2.98 1.542 2.981-.945 3.03 14.622 2.933 1.688 2.931-4.075 2.984-6.665 2.982-1.99 2.981-2.943 2.982 16.97 3.03-6.566" fill="none" stroke="#d62728" stroke-linecap="square" stroke-width="1.5" id="line2d_26"/><path clip-path="url(#p2516da31be)" d="M148.843 313.628l3.03-6.266 2.885-18.512 2.882 5.978 2.983-2.168 2.982-5.889 2.982-.278 2.981-9.57 3.031 8.058 2.982-6.814 2.984-1.84 2.98-4.944 2.98.468 3.031-13.429 2.884-7.236 2.882 3.655 2.984-16.143 2.982 1.521 2.981 3.412 2.982-10.275 3.03 4.476 2.982-7.768 2.984.308 2.98-2.467 2.982-5.59 3.03-5.67 2.933-3.499 2.93-1.574 2.984-2.785 2.982 11.737 2.982 6.456 2.982 5.182 3.03-8.355 2.982 9.648 2.984 3.482 2.98 2.686 2.981 12.831 3.03 2.984 2.885-11.19 2.881 8.206 2.984 6.903 2.982 1.154 2.982-2.695 2.981 8.365 3.03-.597 2.983 5.183 2.983-1.303 2.98-.24 2.982 11.878 3.03-2.388 2.884-1.097 2.882-1.588 2.984.288 2.982 9.26 2.981-1.551 2.982-2.626 3.03-.597 2.982-2.02 2.984-2.754 2.98-.329 2.981 6.894 3.03-10.146 2.885 6.16 2.882 1.897 2.984-1.721 2.981 6.495 2.982-2.795 2.982.706 3.03 4.178 2.982 2.208 2.984-6.087 2.98 1.77 2.981 8.077 3.03-5.968 2.933-4.363 2.931 6.452 2.984-2.656 2.982 5.342 2.981-1.333 2.982 3.72 3.03-4.178" fill="none" stroke="#2ca02c" stroke-linecap="square" stroke-width="1.5" id="line2d_27"/><path clip-path="url(#p2516da31be)" d="M154.758 313.628l2.882-.298 2.983-.318 2.982-.279 2.982-.03 2.981-.865 3.031-1.79 2.982 2.038 2.984-1.74 2.98-.11 2.98-3.173 3.031 2.984 2.884-3.687 2.882-6.757 2.984-3.551 2.982-3.312 2.981-6.247 2.982-4.198 3.03.597 2.982-6.883 2.984-8.336 2.98-12.324 2.982-11.549 3.03-23.276 2.933 3.15 2.93-19.562 2.984-12.285 2.982 4.825 2.982-9.142 2.982-8.465 3.03-31.93 2.982 4.01 2.984-4.905 2.98-33.64 2.981 29.164 3.03-21.784 2.885-54.119 2.881 17.713 2.984 8.366 2.982 10.732 2.982-6.724 2.981-2.228 3.03 30.736 2.983 2.02 2.983 1.86 2.98 8.007 2.982 3.332 3.03-2.089 2.884-16.55 2.882-39.252 2.984 31.432 2.982-5.172 2.981 22.749 2.982-11.111 3.03-35.213 2.982 10.246 2.984 15.716 2.98 10.803 2.981 11.578 3.03-9.25 2.885 4.081 2.882-18.406 2.984 23.097 2.981-2.208 2.982 2.517 2.982-10.275 3.03 15.517 2.982 3.7 2.984-12.652 2.98 2.785 2.981 7.062 3.03-6.863L369 110.432l2.931 18.48 2.984-44.393 2.982-.666 2.981 36.744 2.982.557 3.03 19.098" fill="none" stroke="#ff7f0e" stroke-linecap="square" stroke-width="1.5" id="line2d_28"/><path clip-path="url(#p2516da31be)" d="M29.77 313.628l2.982-1.233 2.984 1.233h8.992l2.884-1.652 2.882 1.055 2.984-.945 2.981-2.337 2.982.796 2.982.1 3.03-.3 2.982-3.5 2.984 3.8 2.98-4.726 2.981 1.144 3.03-3.58 2.934-.381 2.93-.515 2.984 4.566 2.982-1.88 2.981-.279 2.982-2.705 3.03.895 2.982 3.044 2.984-2.746 2.98-3.421 2.982 3.72 3.03-5.968 2.884-.043 2.882-2.942 2.984-.01 2.981-.288 2.982.288 2.982-5.063 3.03-2.088 2.982 4.376 2.984-5.57 2.98-10.464 2.981 8.673 3.03-.596 2.885-10.104 2.882-5.712 2.983 2.805 2.982 1.074 2.982 4.476 2.981-6.863 3.031-2.984 2.982-4.645 2.984 9.121 2.98 1.054 2.98-4.336 3.031-4.178 2.884-18.555 2.882 11.393 2.984-6.834 2.982.269 2.981-18.77 2.982 8.326 3.03 9.25 2.982-17.576 2.984-7.49 2.98-12.862 2.982 2.716 3.03-6.565 2.933-13.408 2.93 10.125 2.984-11.369 2.982 6.296 2.982-8.146 2.982 4.267 3.03-25.663 2.982 21.704 2.984-7.082 2.98-11.11 2.981 22.151 3.03-8.654 2.885-11.34 2.881-11.936 2.984 26.121 2.982-10.007 2.982-30.08 2.981 6.208 3.03 5.968 2.983.467 2.983 3.71 2.98-4.635 2.982 41.042 3.03-43.867 2.884 2.803 2.882-18.32 2.984 14.025 2.982-7.46 2.981-.865 2.982-5.7 3.03-6.565 2.982-11.479 2.984 1.333 2.98 12.235 2.981 19.695 3.03-26.559 2.885-12.629 2.882 6.363 2.984 10.355 2.981 6.654 2.982 1.98 2.982-9.44 3.03 5.67 2.982-10.106 2.984.557 2.98-19.676 2.981 18.78 3.03-27.453 2.933 3.272 2.931-21.475 2.984-36.337 2.982 16.94 2.981 12.046 2.982-2.198 3.03 28.05" fill="none" stroke="#1f77b4" stroke-linecap="square" stroke-width="1.5" id="line2d_29"/></g></g><defs><clipPath id="p2516da31be"><path d="M29.771 47.516h357.12v266.112H29.771z"/></clipPath></defs></svg>