<svg height="475.651" viewBox="0 0 453.59 356.738" width="604.786" xmlns="http://www.w3.org/2000/svg" xmlns:xlink="http://www.w3.org/1999/xlink"><defs><style>*{stroke-linecap:butt;stroke-linejoin:round}</style></defs><g id="figure_1"><path d="M0 356.738h453.59V0H0z" style="fill:none" id="patch_1"/><g id="axes_1"><path d="M29.77 313.628h357.12V47.516H29.77z" style="fill:none" id="patch_2"/><path clip-path="url(#pe36734403d)" d="m29.77 313.007 1.844.621h11.829l2.391-.662 2.39.662h2.39l2.39-.32h2.43l2.39.32 2.39-.32 2.39.32 2.389-.641h2.43l2.31.286 2.31-1.248 4.782.641 4.78-.64 2.43.32 2.39-.374 2.39-.588 2.39.588 2.39-.909 2.428.962 4.622.32 2.391-1.036 2.39.075 2.39-1.069 2.39 1.71 2.43-1.282 2.39.897 2.39-2.5 2.39.513 2.39.128 2.428-2.244 2.351 1.636 2.35.287 2.39-1.133 2.39 1.133 2.39-1.464 2.39.502 2.43-2.244 2.39 1.08 2.391-5.248 2.389-.716 2.39 1.678 2.429.32 2.311-1.809 2.31.527 2.392-2.373 2.39 4.617 4.78-7.053 2.429.962 2.39-1.176 2.391.214 2.389-1.87 2.39 5.397 2.429-6.092 2.311-.962 2.31 2.886 2.392.758 2.39 2.127 2.39-3.12 2.39.555h2.429l2.39-1.88 2.392 2.2 2.388.45 2.39 4.04 2.429-3.207 2.311-4.809 2.31-2.244 2.392 6.22 2.39-6.862 2.39.898 2.39 4.232 2.429-4.809 2.39 3.89 2.392-6.775 2.388 7.77 2.39-5.206 2.429-3.847 2.35 2.62 2.35 1.869 2.391.587 2.39.054 2.39-5.354 2.39-2.02 2.43 1.603 2.39 4.061 2.391-2.137 2.388 4.787 4.82-3.184 2.311-5.027 2.31-4.271 2.392 5.194 2.39-4.874 2.39 1.56 2.39-2.2 2.429 4.808 2.39-.288 2.391 2.212 2.388 4.083 2.39-4.404 2.43-1.603 2.311-3.057 2.31 4.02 2.392 5.706 2.39-11.478 2.39 4.52 2.39-1.955 2.429-15.71 2.39 14.684 2.391 2.63 2.388 5.653 2.39-5.975 2.43-.32 2.311 2.485 2.31-3.768 2.392.62 2.39-4.467 2.39 7.118 2.39-4.232 2.429 5.13 2.39 4.403 2.391-9.854 2.389 1.24 2.39 9.34 2.429-8.977 2.35 2.676 2.35-4.6 2.391-5.397 2.39 4.435 2.39 1.529 2.39 1.998 2.43-1.603 2.39 5.568 2.39 3.089 2.389-7.064 2.39 12.194 2.43-9.94 2.31 9.79 2.31-11.393h0" style="fill:none;stroke:#2ca02c;stroke-linecap:square;stroke-width:1.5" id="line2d_1"/><g id="matplotlib.axis_1"><g id="xtick_1"><g id="line2d_2"><defs><path d="M0 0v3.5" id="mdad39cfac4" style="stroke:#969696;stroke-width:.4"/></defs><use style="fill:#969696;stroke:#969696;stroke-width:.4" x="66.208" xlink:href="#mdad39cfac4" y="313.628"/></g><g style="fill:#969696" transform="matrix(.14 0 0 -.14 50.637 330.678)" id="text_1"><defs><path d="M281 2888q0 793 409 1202 410 410 1148 410 618 0 1012-375t394-969q0-462-227-780-226-317-667-557l-775-425q-684-375-775-863h2444V0H166q25 634 275 1056t781 728l806 469q322 185 469 383t147 545q0 344-241 578-240 235-650 235-453 0-678-299-225-298-231-807H281z" id="HelveticaWorld-Regular-32" transform="scale(.01563)"/><path d="M2719 2188q0 903-239 1354-239 452-702 452-453 0-697-452-243-451-243-1354 0-875 240-1340 241-464 700-464 463 0 702 448 239 449 239 1356zm603 0q0-1107-400-1709-400-601-1144-601-772 0-1156 623-384 624-384 1687 0 1090 393 1701 394 611 1147 611 744 0 1144-608t400-1704z" id="HelveticaWorld-Regular-30" transform="scale(.01563)"/><path d="M2297 0h-600v3194H647v447q550 18 818 176 269 158 391 683h441V0z" id="HelveticaWorld-Regular-31" transform="scale(.01563)"/></defs><use xlink:href="#HelveticaWorld-Regular-32"/><use x="55.615" xlink:href="#HelveticaWorld-Regular-30"/><use x="111.23" xlink:href="#HelveticaWorld-Regular-31"/><use x="166.846" xlink:href="#HelveticaWorld-Regular-30"/></g></g><g id="xtick_2"><use style="fill:#969696;stroke:#969696;stroke-width:.4" x="123.41" xlink:href="#mdad39cfac4" y="313.628" id="line2d_3"/><g style="fill:#969696" transform="matrix(.14 0 0 -.14 107.84 330.678)" id="text_2"><use xlink:href="#HelveticaWorld-Regular-32"/><use x="55.615" xlink:href="#HelveticaWorld-Regular-30"/><use x="111.23" xlink:href="#HelveticaWorld-Regular-31"/><use x="166.846" xlink:href="#HelveticaWorld-Regular-32"/></g></g><g id="xtick_3"><use style="fill:#969696;stroke:#969696;stroke-width:.4" x="180.69" xlink:href="#mdad39cfac4" y="313.628" id="line2d_4"/><g style="fill:#969696" transform="matrix(.14 0 0 -.14 165.12 330.678)" id="text_3"><defs><path d="M678 1581h1447v2041h-12L678 1581zm2010-487V0h-563v1094H159v550l2063 2856h466V1581h659v-487h-659z" id="HelveticaWorld-Regular-34" transform="scale(.01563)"/></defs><use xlink:href="#HelveticaWorld-Regular-32"/><use x="55.615" xlink:href="#HelveticaWorld-Regular-30"/><use x="111.23" xlink:href="#HelveticaWorld-Regular-31"/><use x="166.846" xlink:href="#HelveticaWorld-Regular-34"/></g></g><g id="xtick_4"><use style="fill:#969696;stroke:#969696;stroke-width:.4" x="237.892" xlink:href="#mdad39cfac4" y="313.628" id="line2d_5"/><g style="fill:#969696" transform="matrix(.14 0 0 -.14 222.322 330.678)" id="text_4"><defs><path d="M903 1381q0-440 262-719 263-278 685-278 403 0 642 284 239 285 239 748 0 403-236 675t-670 272q-422 0-672-266t-250-716zm1766 1922q-63 344-255 517-192 174-520 174-519 0-791-507-272-506-278-1159l13-12q359 553 1068 553 566 0 988-375t422-1053q0-672-400-1118-400-445-1078-445-782 0-1188 556-406 557-406 1660 0 1062 415 1734 416 672 1247 672 538 0 910-321 372-320 403-876h-550z" id="HelveticaWorld-Regular-36" transform="scale(.01563)"/></defs><use xlink:href="#HelveticaWorld-Regular-32"/><use x="55.615" xlink:href="#HelveticaWorld-Regular-30"/><use x="111.23" xlink:href="#HelveticaWorld-Regular-31"/><use x="166.846" xlink:href="#HelveticaWorld-Regular-36"/></g></g><g id="xtick_5"><use style="fill:#969696;stroke:#969696;stroke-width:.4" x="295.173" xlink:href="#mdad39cfac4" y="313.628" id="line2d_6"/><g style="fill:#969696" transform="matrix(.14 0 0 -.14 279.602 330.678)" id="text_5"><defs><path d="M1766 2597q347 0 573 198 227 199 227 527 0 294-218 483-217 189-620 189-359 0-555-199-195-198-195-504 0-328 244-511t544-183zm6-484q-434 0-681-241t-247-591q0-403 250-650t712-247q410 0 655 247t245 657q0 350-245 587-245 238-689 238zm1378 1228q0-678-578-947 397-178 567-471 170-292 170-623 0-641-413-1032-412-390-1112-390-612 0-1076 336T244 1306q0 763 762 1082-609 243-609 875 0 531 361 884t1001 353q641 0 1016-333t375-826z" id="HelveticaWorld-Regular-38" transform="scale(.01563)"/></defs><use xlink:href="#HelveticaWorld-Regular-32"/><use x="55.615" xlink:href="#HelveticaWorld-Regular-30"/><use x="111.23" xlink:href="#HelveticaWorld-Regular-31"/><use x="166.846" xlink:href="#HelveticaWorld-Regular-38"/></g></g><g id="xtick_6"><use style="fill:#969696;stroke:#969696;stroke-width:.4" x="352.375" xlink:href="#mdad39cfac4" y="313.628" id="line2d_7"/><g style="fill:#969696" transform="matrix(.14 0 0 -.14 336.804 330.678)" id="text_6"><use xlink:href="#HelveticaWorld-Regular-32"/><use x="55.615" xlink:href="#HelveticaWorld-Regular-30"/><use x="111.23" xlink:href="#HelveticaWorld-Regular-32"/><use x="166.846" xlink:href="#HelveticaWorld-Regular-30"/></g></g></g><g id="matplotlib.axis_2"><g id="ytick_1"><path clip-path="url(#pe36734403d)" d="M29.77 313.628h357.12" style="fill:none;stroke:#969696;stroke-linecap:square;stroke-width:.3" id="line2d_8"/><g id="line2d_9"><defs><path d="M0 0h-3.5" id="m28b5db52fc" style="stroke:#969696;stroke-width:.3"/></defs><use style="fill:#969696;stroke:#969696;stroke-width:.3" x="29.771" xlink:href="#m28b5db52fc" y="313.628"/></g><use xlink:href="#HelveticaWorld-Regular-30" transform="matrix(.14 0 0 -.14 14.985 318.653)" id="text_7"/></g><g id="ytick_2"><path clip-path="url(#pe36734403d)" d="M29.77 263.933h357.12" style="fill:none;stroke:#969696;stroke-linecap:square;stroke-width:.3" id="line2d_10"/><use style="fill:#969696;stroke:#969696;stroke-width:.3" x="29.771" xlink:href="#m28b5db52fc" y="263.933" id="line2d_11"/><g style="fill:#969696" transform="matrix(.14 0 0 -.14 14.985 268.957)" id="text_8"><defs><path d="M941 2619q372 281 872 281 606 0 1042-403t436-1038q0-690-421-1139-420-448-1179-448-660 0-1041 323-381 324-444 918h582q43-363 284-555t669-192q415 0 681 287 266 288 266 735 0 456-279 731-278 275-718 275-500 0-835-428l-484 25 337 2406h2332v-544H1131L941 2619z" id="HelveticaWorld-Regular-35" transform="scale(.01563)"/></defs><use xlink:href="#HelveticaWorld-Regular-35"/></g></g><g id="ytick_3"><path clip-path="url(#pe36734403d)" d="M29.77 214.237h357.12" style="fill:none;stroke:#969696;stroke-linecap:square;stroke-width:.3" id="line2d_12"/><use style="fill:#969696;stroke:#969696;stroke-width:.3" x="29.771" xlink:href="#m28b5db52fc" y="214.237" id="line2d_13"/><g style="fill:#969696" transform="matrix(.14 0 0 -.14 7.2 219.262)" id="text_9"><use xlink:href="#HelveticaWorld-Regular-31"/><use x="55.615" xlink:href="#HelveticaWorld-Regular-30"/></g></g><g id="ytick_4"><path clip-path="url(#pe36734403d)" d="M29.77 164.541h357.12" style="fill:none;stroke:#969696;stroke-linecap:square;stroke-width:.3" id="line2d_14"/><use style="fill:#969696;stroke:#969696;stroke-width:.3" x="29.771" xlink:href="#m28b5db52fc" y="164.541" id="line2d_15"/><g style="fill:#969696" transform="matrix(.14 0 0 -.14 7.2 169.566)" id="text_10"><use xlink:href="#HelveticaWorld-Regular-31"/><use x="55.615" xlink:href="#HelveticaWorld-Regular-35"/></g></g><g id="ytick_5"><path clip-path="url(#pe36734403d)" d="M29.77 114.846h357.12" style="fill:none;stroke:#969696;stroke-linecap:square;stroke-width:.3" id="line2d_16"/><use style="fill:#969696;stroke:#969696;stroke-width:.3" x="29.771" xlink:href="#m28b5db52fc" y="114.846" id="line2d_17"/><g style="fill:#969696" transform="matrix(.14 0 0 -.14 7.2 119.87)" id="text_11"><use xlink:href="#HelveticaWorld-Regular-32"/><use x="55.615" xlink:href="#HelveticaWorld-Regular-30"/></g></g><g id="ytick_6"><path clip-path="url(#pe36734403d)" d="M29.77 65.15h357.12" style="fill:none;stroke:#969696;stroke-linecap:square;stroke-width:.3" id="line2d_18"/><use style="fill:#969696;stroke:#969696;stroke-width:.3" x="29.771" xlink:href="#m28b5db52fc" y="65.15" id="line2d_19"/><g style="fill:#969696" transform="matrix(.14 0 0 -.14 7.2 70.175)" id="text_12"><use xlink:href="#HelveticaWorld-Regular-32"/><use x="55.615" xlink:href="#HelveticaWorld-Regular-35"/></g></g></g><path clip-path="url(#pe36734403d)" d="m124.624 313.628 2.351-.342 2.35.342 2.39-1.325 2.39 1.005 2.39-.011 2.39-.63 2.43-1.283 2.39-.075 2.391-.887 2.389.556 2.39.085 2.429-2.244 2.311 1.615 2.31-2.897 2.392-3.185 2.39 3.185 2.39-1.86 2.39-7.118 2.429 2.565 2.39 2.234 2.391-6.081 2.389 3.762 2.39 6.177 2.429-4.168 2.311-1.134 2.31-5.278 2.392 1.09 2.39 3.398 2.39-.748 2.39-5.664 2.429 7.374 2.39-2.704 2.392-1.464 2.388 1.795 2.39 5.259 2.429-5.13 2.311-5.382 2.31.893 2.392.716 2.39.567 2.39-2.555 2.39-.972 2.429.962 2.39-3.634 2.392 3.954 2.388-2.96 2.39 6.487 2.429-7.695 2.35 1.47 2.35-7.562 2.391 1.005 2.39-4.21 2.39 1.891 2.39.994 2.43-1.603 2.39-4.692 2.391 6.295 2.388-3.313 2.39 4.595 2.43 1.283 2.311-8.245 2.31-4.58 2.392-1.998 2.39.074 2.39-.737 2.39 2.982 2.429-4.81 2.39 7.46 2.391 1.518 2.388-9.138 2.39 13.626 2.43-7.374 2.311-8.382 2.31-.595 2.392-1.25 2.39-3.239 2.39-11.008 2.39 6.52 2.429.32 2.39-1.207 2.391-6.808 2.388-3.463 2.39 13.081 2.43-6.091 2.311-11.107 2.31-2.36 2.392 2.502 2.39 10.323 2.39-11.98 2.39 1.08 2.429 9.297 2.39-3.75 2.391-11.319 2.389-3.26 2.39 13.52 2.429-11.863 2.35-13.023 2.35 5.328 2.391-10.858 2.39 3.805 2.39 11.104 2.39-5.974 2.43-.641 2.39-.342 2.39.342 2.389 4.958 2.39 4.98 2.43-10.26 2.31-3.972 2.31-7.89" style="fill:none;stroke:#ff7f0e;stroke-linecap:square;stroke-width:1.5" id="line2d_20"/><path clip-path="url(#pe36734403d)" d="m29.77 312.386 1.844.922 2.388-.674 2.39.353 2.43-.32 2.31.961 4.702-2.65 2.39 1.047 2.39-.053 2.39-.588 2.43-1.283 2.39-2.105 2.39 1.785 2.39-.128 2.389-2.758h2.43l2.31-4.27 2.31 1.064 2.392 3.976 2.39-5.258 2.39-3.025 2.39 3.025 2.43-4.168 2.39 3.462 4.78-4.97 2.39-4.905 2.428-.64 2.312-5.6 2.31 1.11 2.391.428 2.39.855 2.39-5.825 2.39 3.58 2.43-10.58 2.39-4.264 2.39 6.509 2.39-4.19 2.39.342 2.428-19.878 2.351-2.421 2.35-1.747 2.39 2.832 2.39-2.512 2.39-4.114 4.82.588 2.39 3.719 2.391-2.757 2.389-4.532 2.39 2.287 4.74-43.558 2.31 22.077 2.392-2.672 2.39 6.52 2.39 8.057 2.39-11.905 2.429-.962 2.39-9.992 2.391 7.107 2.389-6.114 2.39 19.259 2.429-25.65 2.311-6.08 2.31-6.424 2.392 19.227 2.39 3.858 2.39 5.418 2.39-34.274 2.429 26.932 2.39-6.241 2.392 3.035 2.388 6.573 2.39 21.32 2.429-30.779 2.311-13.97 2.31 2.749 2.392 6.765 4.78-19.547 2.39-3.57 2.429-9.298 2.39 21.813 2.392-8.667 2.388-1.935 2.39 10.27 2.429-25.328 2.35-5.174 2.35 16.396 2.391-2.458 2.39 3.42 2.39-.439 2.39 3.003 2.43-21.48 2.39 2.575 2.391 13.776 2.388-2.843 2.39 18.553 2.43-6.733 2.311-13.145 2.31-33.345 2.392 25.393 2.39-5.835 2.39 5.835 2.39 1.219 2.429 1.923 2.39 10.773 2.391 2.373 2.388-3.698 2.39 28.385 2.43-27.573 2.311-11.485 2.31-9.355 2.392 35.6 2.39 6.08 2.39-20.327 2.39 12.632L313 189.23l2.39-8.785 2.391-1.154 2.388 12.75 2.39 2.96 2.43-14.107 2.311-3.928 2.31-11.782 2.392 12.28 2.39-1.7 2.39 5.675 2.39-13.69 2.429 11.862 2.39-18.382 2.391-16.565 2.389-11.595 2.39 14.48 2.429-20.84 2.35-3.637 2.35-22.653 2.391-42.557 2.39-10.345 2.39 1.4 2.39 31.624 2.43 38.794 2.39-10.12 2.39-16.17 2.389 21.802 2.39 10.26 2.43-35.589 2.31-5.908 2.31-16.535h0" style="fill:none;stroke:#1f77b4;stroke-linecap:square;stroke-width:1.5" id="line2d_21"/><g style="fill:#1f77b4" transform="matrix(.14 0 0 -.14 390.462 70.557)" id="text_13"><defs><path d="M831 1684q0-615 244-954t659-339q404 0 660 293 256 294 256 832 0 706-224 1064-223 358-679 358-459 0-688-305-228-305-228-949zM3188 191q0-807-388-1203-387-397-1169-397-562 0-895 259T353-409h563q43-244 226-388t530-144q472 0 712 254 241 253 241 821v238h-12Q2297-97 1722-97q-716 0-1094 528T250 1772q0 744 381 1208 382 464 1013 464 634 0 1000-569h12v472h532V191z" id="HelveticaWorld-Regular-67" transform="scale(.01563)"/><path d="M422 3956v638h562v-638H422zM984 0H422v3347h562V0z" id="HelveticaWorld-Regular-69" transform="scale(.01563)"/><path d="M1100 2881V703q0-128 70-195 71-67 252-67h216V0q-307-44-422-44-353 0-516 169-162 169-162 547v2209H84v466h454v934h562v-934h538v-466h-538z" id="HelveticaWorld-Regular-74" transform="scale(.01563)"/><path d="M3150 0h-566v2188q0 403-156 576-156 174-509 174-435 0-685-282-250-281-250-831V0H422v4594h562V2900h13q384 544 981 544 550 0 861-288 311-287 311-878V0z" id="HelveticaWorld-Regular-68" transform="scale(.01563)"/><path d="M391 3347h562V1125q0-369 167-552 168-182 480-182 434 0 678 307 244 308 244 805v1844h562V0h-531v488l-12 12Q2222-97 1478-97q-481 0-784 262-303 263-303 776v2406z" id="HelveticaWorld-Regular-75" transform="scale(.01563)"/><path d="M2778 1684q0 672-238 963-237 291-677 291-447-7-676-349-228-342-228-989 0-659 275-934t641-275q416 0 659 342 244 342 244 951zM422 0v4594h562V2925h13q359 519 969 519 625 0 1009-464t384-1208q0-838-388-1354Q2584-97 1888-97q-613 0-922 513h-13V0H422z" id="HelveticaWorld-Regular-62" transform="scale(.01563)"/></defs><use xlink:href="#HelveticaWorld-Regular-67"/><use x="55.908" xlink:href="#HelveticaWorld-Regular-69"/><use x="77.93" xlink:href="#HelveticaWorld-Regular-74"/><use x="105.615" xlink:href="#HelveticaWorld-Regular-68"/><use x="160.791" xlink:href="#HelveticaWorld-Regular-75"/><use x="215.576" xlink:href="#HelveticaWorld-Regular-62"/></g><g style="fill:#ff7f0e" transform="matrix(.14 0 0 -.14 390.462 215.156)" id="text_14"><defs><path d="M984 0H422v4594h562V0z" id="HelveticaWorld-Regular-6c" transform="scale(.01563)"/><path d="M2456 1709q-62-65-245-106-183-40-683-106-369-44-542-182-173-137-173-362 0-275 146-428 147-153 469-153 403 0 715 229 313 230 313 558v550zM397 2328q19 566 367 841 349 275 1014 275 531 0 890-241 360-240 360-694V581q0-197 178-197 72 0 185 25V0q-153-63-319-63-288 0-429 123-140 124-146 387Q2016-97 1288-97q-475 0-763 269-287 269-287 700 0 441 250 712 250 272 728 329l993 121q269 41 269 397 0 263-195 403-195 141-592 141-353 0-543-156-189-156-226-491H397z" id="HelveticaWorld-Regular-61" transform="scale(.01563)"/></defs><use xlink:href="#HelveticaWorld-Regular-67"/><use x="55.908" xlink:href="#HelveticaWorld-Regular-69"/><use x="77.93" xlink:href="#HelveticaWorld-Regular-74"/><use x="105.615" xlink:href="#HelveticaWorld-Regular-6c"/><use x="127.637" xlink:href="#HelveticaWorld-Regular-61"/><use x="182.568" xlink:href="#HelveticaWorld-Regular-62"/></g><g style="fill:#2ca02c" transform="matrix(.14 0 0 -.14 390.462 287.707)" id="text_15"><defs><path d="M2534 2222q-121 716-793 716-416 0-669-333t-253-927q0-647 234-967 235-320 681-320 300 0 519 220t281 573h544q-84-621-439-951T1722-97q-659 0-1081 451-422 452-422 1227 0 850 422 1356 422 507 1184 507 556 0 886-333t367-889h-544z" id="HelveticaWorld-Regular-63" transform="scale(.01563)"/><path d="M3200 0h-722L1434 1691l-468-422V0H422v4594h544V1931l1440 1416h716L1844 2100 3200 0z" id="HelveticaWorld-Regular-6b" transform="scale(.01563)"/><path d="M2719 1941q-44 543-288 770-243 227-647 227-409 0-661-288-251-287-267-709h1863zm537-891q-93-519-509-859-366-288-963-294-703 6-1116 461-412 455-412 1223 0 882 425 1372 425 491 1182 491 678 0 1059-507 381-506 381-1446H856q0-525 244-813 244-287 731-287 344 0 591 207 247 208 272 452h562z" id="HelveticaWorld-Regular-65" transform="scale(.01563)"/></defs><use xlink:href="#HelveticaWorld-Regular-62"/><use x="56.494" xlink:href="#HelveticaWorld-Regular-69"/><use x="78.516" xlink:href="#HelveticaWorld-Regular-74"/><use x="106.201" xlink:href="#HelveticaWorld-Regular-62"/><use x="162.695" xlink:href="#HelveticaWorld-Regular-75"/><use x="217.48" xlink:href="#HelveticaWorld-Regular-63"/><use x="268.75" xlink:href="#HelveticaWorld-Regular-6b"/><use x="316.375" xlink:href="#HelveticaWorld-Regular-65"/><use x="371.795" xlink:href="#HelveticaWorld-Regular-74"/></g><g style="fill:#969696" transform="matrix(.09716 0 0 -.09716 29.77 347.399)" id="text_16"><defs><path d="M3225 3250q-19 438-327 686-307 248-810 248-507 0-779-208-271-207-271-598 0-209 118-359 119-150 425-222l1313-300q531-116 787-440 257-323 257-788 0-681-500-1036T2138-122q-610 0-962 156-351 157-623 497-272 341-272 953h582q0-512 340-794 341-281 928-281 569 0 886 202t317 573q0 338-189 505t-739 295l-990 232q-494 112-738 392t-244 689q0 619 417 1019 418 400 1165 400 843 0 1301-352 458-351 492-1114h-584z" id="HelveticaWorld-Regular-53" transform="scale(.01563)"/><path d="M4091 2297q0 806-427 1337-426 532-1173 532-738 0-1169-532-431-531-431-1337 0-831 437-1350 438-519 1163-519 709 0 1154 506 446 507 446 1363zm637 0q0-1028-594-1724-593-695-1643-695-1057 0-1649 695-592 696-592 1724 0 1031 592 1725t1649 694q1081 0 1659-707 578-706 578-1712z" id="HelveticaWorld-Regular-4f" transform="scale(.01563)"/><path d="M2522 3347h616L1863 0h-604L38 3347h653l872-2725h12l947 2725z" id="HelveticaWorld-Regular-76" transform="scale(.01563)"/><path d="M984 0H422v3347h531v-556h13q365 653 940 653 91 0 147-19v-584h-209q-378 0-619-257-241-256-241-637V0z" id="HelveticaWorld-Regular-72" transform="scale(.01563)"/><path d="M1100 2881V0H538v2881H78v466h460v575q0 378 229 557 230 180 642 180 141 0 254-12v-506q-100 12-229 12-187 0-261-92-73-92-73-298v-416h563v-466h-563z" id="HelveticaWorld-Regular-66" transform="scale(.01563)"/><path d="M813 1678q0-559 253-920t718-361q482 0 732 378t250 903q0 531-250 901-250 371-732 371-446 0-709-349-262-348-262-923zm-575 0q0 747 415 1256 416 510 1131 510 732 0 1144-516 413-515 413-1250 0-737-410-1256Q2522-97 1784-97q-709 0-1128 503-418 503-418 1272z" id="HelveticaWorld-Regular-6f" transform="scale(.01563)"/><path d="M1638 0h-575L97 3347h606l641-2631h12l647 2631h635l653-2631h12l678 2631h557L3572 0h-591l-678 2591h-12L1638 0z" id="HelveticaWorld-Regular-77" transform="scale(.01563)"/><path d="m2816 1888-678 2021h-13l-737-2021h1428zm-1619-550L716 0H78l1728 4594h703L4172 0h-678l-453 1338H1197z" id="HelveticaWorld-Regular-41" transform="scale(.01563)"/><path d="M1141 2472h1234q466 0 700 204 234 205 234 621 0 372-225 569t-684 197H1141V2472zm0-2472H519v4594h2065q616 0 991-358t375-933q0-597-363-980-362-382-1003-382H1141V0z" id="HelveticaWorld-Regular-50" transform="scale(.01563)"/><path d="M1141 0H519v4594h622V0z" id="HelveticaWorld-Regular-49" transform="scale(.01563)"/><path d="M2309 2394q-12 300-214 431-201 131-579 131-275 0-471-122-195-121-195-350 0-181 115-267 116-86 501-183l556-140q506-128 723-327 218-198 218-554 0-494-361-802T1638-97Q934-97 573 195q-360 293-367 880h544q13-347 230-516 217-168 651-168 353 0 561 140 208 141 208 391 0 178-135 284-134 107-531 197l-653 160q-397 100-586 298t-189 514q0 494 353 781 354 288 922 288 607 0 930-296 323-295 342-754h-544z" id="HelveticaWorld-Regular-73" transform="scale(.01563)"/><path d="M603 4716h466V-122H603v4838z" id="HelveticaWorld-Regular-7c" transform="scale(.01563)"/><path d="M3559 4594h600V0h-690L1125 3713h-12V0H519v4594h728L3547 884h12v3710z" id="HelveticaWorld-Regular-4e" transform="scale(.01563)"/><path d="M813 1678q0-559 253-920t718-361q482 0 732 378t250 903q0 531-250 901-250 371-732 371-446 0-709-349-262-348-262-923zm-575 0q0 747 415 1256 416 510 1131 510 732 0 1144-516 413-515 413-1250 0-737-410-1256Q2522-97 1784-97q-709 0-1128 503-418 503-418 1272zm2351 2266h-575v650h575v-650zm-1038 0H976v650h575v-650z" id="HelveticaWorld-Regular-f6" transform="scale(.01563)"/><path d="M422 3347h531v-472h13q378 569 1012 569 628 0 891-544 240 294 465 419t557 125q434 0 735-285 302-284 302-843V0h-562v2163q0 390-147 582-147 193-475 193-331 0-560-269-228-269-228-628V0h-562v2316q0 290-135 456-134 166-390 166-403 0-644-300t-241-813V0H422v3347z" id="HelveticaWorld-Regular-6d" transform="scale(.01563)"/><path d="M3713 3213q-104 468-434 710-329 243-854 243-678 0-1091-493-412-492-412-1329 0-969 390-1443 391-473 1132-473 487 0 838 323 352 324 474 940h603q-121-885-671-1349T2350-122q-941 0-1505 647T281 2322q0 1109 589 1751 589 643 1555 643 800 0 1297-413 497-412 591-1090h-600z" id="HelveticaWorld-Regular-43" transform="scale(.01563)"/><path d="M519 4594h2015q594 0 947-322t353-834q0-310-155-565-154-254-460-395 428-162 629-431 202-269 202-691 0-593-428-975Q3194 0 2491 0H519v4594zm612-4063h1325q488 0 731 226 244 227 244 612 0 390-272 582-271 193-803 193H1131V531zm0 2119h1128q494 0 724 179 230 180 230 562 0 328-218 500-217 172-729 172H1131V2650z" id="HelveticaWorld-Regular-42" transform="scale(.01563)"/><path d="M2388 0h-622v1850L31 4594h725l1319-2206 1316 2206h731L2388 1850V0z" id="HelveticaWorld-Regular-59" transform="scale(.01563)"/></defs><use xlink:href="#HelveticaWorld-Regular-53"/><use x="66.211" xlink:href="#HelveticaWorld-Regular-74"/><use x="93.896" xlink:href="#HelveticaWorld-Regular-61"/><use x="148.828" xlink:href="#HelveticaWorld-Regular-63"/><use x="200.098" xlink:href="#HelveticaWorld-Regular-6b"/><use x="250.098" xlink:href="#HelveticaWorld-Regular-4f"/><use x="327.881" xlink:href="#HelveticaWorld-Regular-76"/><use x="375.49" xlink:href="#HelveticaWorld-Regular-65"/><use x="430.91" xlink:href="#HelveticaWorld-Regular-72"/><use x="464.979" xlink:href="#HelveticaWorld-Regular-66"/><use x="492.664" xlink:href="#HelveticaWorld-Regular-6c"/><use x="514.686" xlink:href="#HelveticaWorld-Regular-6f"/><use x="569.094" xlink:href="#HelveticaWorld-Regular-77"/><use x="641.506" xlink:href="#HelveticaWorld-Regular-20"/><use x="665.92" xlink:href="#HelveticaWorld-Regular-41"/><use x="732.619" xlink:href="#HelveticaWorld-Regular-50"/><use x="797.268" xlink:href="#HelveticaWorld-Regular-49"/><use x="823.049" xlink:href="#HelveticaWorld-Regular-20"/><use x="847.463" xlink:href="#HelveticaWorld-Regular-76"/><use x="897.072" xlink:href="#HelveticaWorld-Regular-69"/><use x="919.094" xlink:href="#HelveticaWorld-Regular-61"/><use x="974.025" xlink:href="#HelveticaWorld-Regular-20"/><use x="998.439" xlink:href="#HelveticaWorld-Regular-73"/><use x="1048.439" xlink:href="#HelveticaWorld-Regular-74"/><use x="1076.125" xlink:href="#HelveticaWorld-Regular-61"/><use x="1131.057" xlink:href="#HelveticaWorld-Regular-63"/><use x="1182.326" xlink:href="#HelveticaWorld-Regular-6b"/><use x="1232.326" xlink:href="#HelveticaWorld-Regular-74"/><use x="1260.012" xlink:href="#HelveticaWorld-Regular-61"/><use x="1314.943" xlink:href="#HelveticaWorld-Regular-67"/><use x="1370.852" xlink:href="#HelveticaWorld-Regular-73"/><use x="1420.852" xlink:href="#HelveticaWorld-Regular-20"/><use x="1445.266" xlink:href="#HelveticaWorld-Regular-7c"/><use x="1471.242" xlink:href="#HelveticaWorld-Regular-20"/><use x="1495.656" xlink:href="#HelveticaWorld-Regular-4e"/><use x="1568.752" xlink:href="#HelveticaWorld-Regular-69"/><use x="1590.773" xlink:href="#HelveticaWorld-Regular-63"/><use x="1642.043" xlink:href="#HelveticaWorld-Regular-6f"/><use x="1697.951" xlink:href="#HelveticaWorld-Regular-20"/><use x="1722.365" xlink:href="#HelveticaWorld-Regular-53"/><use x="1788.576" xlink:href="#HelveticaWorld-Regular-63"/><use x="1839.846" xlink:href="#HelveticaWorld-Regular-68"/><use x="1895.021" xlink:href="#HelveticaWorld-Regular-6c"/><use x="1917.043" xlink:href="#HelveticaWorld-Regular-f6"/><use x="1972.951" xlink:href="#HelveticaWorld-Regular-6d"/><use x="2055.959" xlink:href="#HelveticaWorld-Regular-65"/><use x="2111.379" xlink:href="#HelveticaWorld-Regular-72"/><use x="2143.947" xlink:href="#HelveticaWorld-Regular-20"/><use x="2168.361" xlink:href="#HelveticaWorld-Regular-7c"/><use x="2194.338" xlink:href="#HelveticaWorld-Regular-20"/><use x="2218.752" xlink:href="#HelveticaWorld-Regular-43"/><use x="2291.066" xlink:href="#HelveticaWorld-Regular-43"/><use x="2363.381" xlink:href="#HelveticaWorld-Regular-20"/><use x="2387.795" xlink:href="#HelveticaWorld-Regular-42"/><use x="2450.607" xlink:href="#HelveticaWorld-Regular-59"/></g><g style="fill:#969696" transform="matrix(.14 0 0 -.14 72.264 17.516)" id="text_17"><defs><path d="M1141 531h1203q625 0 978 480t353 1311q0 822-356 1278t-1028 463H1141V531zM519 4594h1862q903 0 1414-621 511-620 511-1610 0-1063-511-1713T2356 0H519v4594z" id="HelveticaWorld-Regular-44" transform="scale(.01563)"/><path d="M2497 3347h612L1913 63q-32-88-63-166-272-725-469-995-197-271-637-271-231 0-378 50v513q159-57 350-57 206 0 301 130 96 130 283 636L56 3347h635l897-2725h12l897 2725z" id="HelveticaWorld-Regular-79" transform="scale(.01563)"/><path d="M3150 0h-566v2059q0 475-166 677-165 202-549 202-378 0-632-288-253-287-253-825V0H422v3347h531v-472h13q397 569 1012 569 569 0 870-302 302-301 302-864V0z" id="HelveticaWorld-Regular-6e" transform="scale(.01563)"/><path d="M2656 1516q0 712-224 1067-223 355-679 355-440 0-678-288-237-287-237-966 0-603 240-948 241-345 663-345 372 0 643 281 272 281 272 844zm538-2841h-563V353h-12Q2297-97 1728-97q-703 0-1088 522-384 522-384 1347 0 731 378 1201 379 471 1016 471 634 0 1000-569h13v472h531v-4672z" id="HelveticaWorld-Regular-71" transform="scale(.01563)"/></defs><use xlink:href="#HelveticaWorld-Regular-44"/><use x="72.021" xlink:href="#HelveticaWorld-Regular-61"/><use x="126.953" xlink:href="#HelveticaWorld-Regular-69"/><use x="148.975" xlink:href="#HelveticaWorld-Regular-6c"/><use x="170.996" xlink:href="#HelveticaWorld-Regular-79"/><use x="220.605" xlink:href="#HelveticaWorld-Regular-20"/><use x="245.02" xlink:href="#HelveticaWorld-Regular-6e"/><use x="300.195" xlink:href="#HelveticaWorld-Regular-75"/><use x="354.98" xlink:href="#HelveticaWorld-Regular-6d"/><use x="437.988" xlink:href="#HelveticaWorld-Regular-62"/><use x="494.482" xlink:href="#HelveticaWorld-Regular-65"/><use x="549.902" xlink:href="#HelveticaWorld-Regular-72"/><use x="582.471" xlink:href="#HelveticaWorld-Regular-20"/><use x="606.885" xlink:href="#HelveticaWorld-Regular-6f"/><use x="662.793" xlink:href="#HelveticaWorld-Regular-66"/><use x="690.479" xlink:href="#HelveticaWorld-Regular-20"/><use x="714.893" xlink:href="#HelveticaWorld-Regular-71"/><use x="771.387" xlink:href="#HelveticaWorld-Regular-75"/><use x="826.172" xlink:href="#HelveticaWorld-Regular-65"/><use x="881.592" xlink:href="#HelveticaWorld-Regular-73"/><use x="931.592" xlink:href="#HelveticaWorld-Regular-74"/><use x="959.277" xlink:href="#HelveticaWorld-Regular-69"/><use x="981.299" xlink:href="#HelveticaWorld-Regular-6f"/><use x="1037.207" xlink:href="#HelveticaWorld-Regular-6e"/><use x="1092.383" xlink:href="#HelveticaWorld-Regular-73"/><use x="1142.383" xlink:href="#HelveticaWorld-Regular-20"/><use x="1166.797" xlink:href="#HelveticaWorld-Regular-6f"/><use x="1222.705" xlink:href="#HelveticaWorld-Regular-6e"/><use x="1277.881" xlink:href="#HelveticaWorld-Regular-20"/><use x="1302.295" xlink:href="#HelveticaWorld-Regular-53"/><use x="1368.506" xlink:href="#HelveticaWorld-Regular-74"/><use x="1396.191" xlink:href="#HelveticaWorld-Regular-61"/><use x="1451.123" xlink:href="#HelveticaWorld-Regular-63"/><use x="1502.393" xlink:href="#HelveticaWorld-Regular-6b"/><use x="1552.393" xlink:href="#HelveticaWorld-Regular-4f"/><use x="1630.176" xlink:href="#HelveticaWorld-Regular-76"/><use x="1677.785" xlink:href="#HelveticaWorld-Regular-65"/><use x="1733.205" xlink:href="#HelveticaWorld-Regular-72"/><use x="1767.273" xlink:href="#HelveticaWorld-Regular-66"/><use x="1794.959" xlink:href="#HelveticaWorld-Regular-6c"/><use x="1816.98" xlink:href="#HelveticaWorld-Regular-6f"/><use x="1871.389" xlink:href="#HelveticaWorld-Regular-77"/></g></g></g><defs><clipPath id="pe36734403d"><path d="M29.771 47.516h357.12v266.112H29.771z"/></clipPath></defs></svg>