<svg height="495.14" viewBox="0 0 486.886 371.355" width="649.181" xmlns="http://www.w3.org/2000/svg" xmlns:xlink="http://www.w3.org/1999/xlink"><defs><style>*{stroke-linecap:butt;stroke-linejoin:round}</style></defs><g id="figure_1"><path d="M0 371.355h486.886V0H0z" style="fill:none" id="patch_1"/><g id="axes_1"><path d="M37.556 313.628h357.12V47.516H37.556z" style="fill:none" id="patch_2"/><path clip-path="url(#pc15da0c105)" d="m37.556 313.565 1.807-.1 9.331.09 2.265-.189 7.03.026 2.343-.222 2.381-.098 2.343.218 2.345.011 2.341-.248 2.343-.505 2.381.066 2.266-.181 2.265-.048 2.344.296 2.343-.394 2.343-.721 2.343.851 2.381-1.243 4.688.49 2.341-.2 2.343.724 2.381-.621 2.266-.765 4.61-.082 2.342-1.837 4.686.818 2.381-1.08 2.343-.166 2.345.232 4.684.065 2.381-.458 2.305-.717 2.303-.068 2.344-1.15 2.343 1.28 2.343-.74 2.343.61 2.381-.916 2.343.17 2.345.386 2.341-.419 2.343-.203 2.381.884 2.266-1.826 2.265.288 2.344-.124 2.343-.367 2.343-.072 2.343-1.564 2.381 3.6 2.343-.92 2.345-.553 2.341.519 2.343 1.084 2.381-1.669 2.266-.222 2.265.746 2.344-.615 2.343 1.695 2.343.164 2.343-1.08 2.381 1.08 2.343-.405 2.345.993 2.341-1.196 2.343 1.654 2.381-1.145 2.266-.152 2.265-.568 2.344-.466 2.343 1.513 2.343-1.14 2.343-.365 2.381.164 2.343.944 2.345-.519 2.341 1.365 4.724-.383 2.305-1.517 2.303 1.19 2.344-.744 4.686-.744 2.343 1.291 2.381-.72 2.343 1.525 2.345-1.296 2.34.688 2.344 1.08 2.381-.23 2.266.381 2.265-1.69 2.344 1.236 2.343-.287 2.343.727 2.343-.04 2.381.295 2.343.083 2.345-.312 2.34.244 2.344 1.556 2.381-.622 2.266.622 2.265-1.342 2.344.598 2.343-.041 2.343-.263 2.343.197 2.381-1.603 2.343.932 2.345.311 2.341-.108 2.343.828 2.381-1.145 2.266.332 2.265-.954 2.344.872 2.343.699 2.343-.158 2.343.321 2.381-.163 2.343-.328 4.686 1.252 2.343.352 2.381-.556 2.305-1.222 2.303.927 2.344-.955 2.343.53 2.343.72 2.343-.164 2.381.098 2.343-.643 2.345.152 2.34 1.268 2.344.107 2.381.392 2.266-1.46 2.265.708 4.687.392 2.343-.41h0" style="fill:none;stroke:#ffbb78;stroke-linecap:square;stroke-width:1.5" id="line2d_1"/><g id="matplotlib.axis_1"><g id="xtick_1"><g id="line2d_2"><defs><path d="M0 0v3.5" id="m2b83da299f" style="stroke:#969696;stroke-width:.4"/></defs><use style="fill:#969696;stroke:#969696;stroke-width:.4" x="73.276" xlink:href="#m2b83da299f" y="313.628"/></g><g style="fill:#969696" transform="matrix(.14 0 0 -.14 57.705 330.678)" id="text_1"><defs><path d="M281 2888q0 793 409 1202 410 410 1148 410 618 0 1012-375t394-969q0-462-227-780-226-317-667-557l-775-425q-684-375-775-863h2444V0H166q25 634 275 1056t781 728l806 469q322 185 469 383t147 545q0 344-241 578-240 235-650 235-453 0-678-299-225-298-231-807H281z" id="HelveticaWorld-Regular-32" transform="scale(.01563)"/><path d="M2719 2188q0 903-239 1354-239 452-702 452-453 0-697-452-243-451-243-1354 0-875 240-1340 241-464 700-464 463 0 702 448 239 449 239 1356zm603 0q0-1107-400-1709-400-601-1144-601-772 0-1156 623-384 624-384 1687 0 1090 393 1701 394 611 1147 611 744 0 1144-608t400-1704z" id="HelveticaWorld-Regular-30" transform="scale(.01563)"/><path d="M2297 0h-600v3194H647v447q550 18 818 176 269 158 391 683h441V0z" id="HelveticaWorld-Regular-31" transform="scale(.01563)"/></defs><use xlink:href="#HelveticaWorld-Regular-32"/><use x="55.615" xlink:href="#HelveticaWorld-Regular-30"/><use x="111.23" xlink:href="#HelveticaWorld-Regular-31"/><use x="166.846" xlink:href="#HelveticaWorld-Regular-30"/></g></g><g id="xtick_2"><use style="fill:#969696;stroke:#969696;stroke-width:.4" x="129.352" xlink:href="#m2b83da299f" y="313.628" id="line2d_3"/><g style="fill:#969696" transform="matrix(.14 0 0 -.14 113.781 330.678)" id="text_2"><use xlink:href="#HelveticaWorld-Regular-32"/><use x="55.615" xlink:href="#HelveticaWorld-Regular-30"/><use x="111.23" xlink:href="#HelveticaWorld-Regular-31"/><use x="166.846" xlink:href="#HelveticaWorld-Regular-32"/></g></g><g id="xtick_3"><use style="fill:#969696;stroke:#969696;stroke-width:.4" x="185.505" xlink:href="#m2b83da299f" y="313.628" id="line2d_4"/><g style="fill:#969696" transform="matrix(.14 0 0 -.14 169.934 330.678)" id="text_3"><defs><path d="M678 1581h1447v2041h-12L678 1581zm2010-487V0h-563v1094H159v550l2063 2856h466V1581h659v-487h-659z" id="HelveticaWorld-Regular-34" transform="scale(.01563)"/></defs><use xlink:href="#HelveticaWorld-Regular-32"/><use x="55.615" xlink:href="#HelveticaWorld-Regular-30"/><use x="111.23" xlink:href="#HelveticaWorld-Regular-31"/><use x="166.846" xlink:href="#HelveticaWorld-Regular-34"/></g></g><g id="xtick_4"><use style="fill:#969696;stroke:#969696;stroke-width:.4" x="241.581" xlink:href="#m2b83da299f" y="313.628" id="line2d_5"/><g style="fill:#969696" transform="matrix(.14 0 0 -.14 226.01 330.678)" id="text_4"><defs><path d="M903 1381q0-440 262-719 263-278 685-278 403 0 642 284 239 285 239 748 0 403-236 675t-670 272q-422 0-672-266t-250-716zm1766 1922q-63 344-255 517-192 174-520 174-519 0-791-507-272-506-278-1159l13-12q359 553 1068 553 566 0 988-375t422-1053q0-672-400-1118-400-445-1078-445-782 0-1188 556-406 557-406 1660 0 1062 415 1734 416 672 1247 672 538 0 910-321 372-320 403-876h-550z" id="HelveticaWorld-Regular-36" transform="scale(.01563)"/></defs><use xlink:href="#HelveticaWorld-Regular-32"/><use x="55.615" xlink:href="#HelveticaWorld-Regular-30"/><use x="111.23" xlink:href="#HelveticaWorld-Regular-31"/><use x="166.846" xlink:href="#HelveticaWorld-Regular-36"/></g></g><g id="xtick_5"><use style="fill:#969696;stroke:#969696;stroke-width:.4" x="297.733" xlink:href="#m2b83da299f" y="313.628" id="line2d_6"/><g style="fill:#969696" transform="matrix(.14 0 0 -.14 282.163 330.678)" id="text_5"><defs><path d="M1766 2597q347 0 573 198 227 199 227 527 0 294-218 483-217 189-620 189-359 0-555-199-195-198-195-504 0-328 244-511t544-183zm6-484q-434 0-681-241t-247-591q0-403 250-650t712-247q410 0 655 247t245 657q0 350-245 587-245 238-689 238zm1378 1228q0-678-578-947 397-178 567-471 170-292 170-623 0-641-413-1032-412-390-1112-390-612 0-1076 336T244 1306q0 763 762 1082-609 243-609 875 0 531 361 884t1001 353q641 0 1016-333t375-826z" id="HelveticaWorld-Regular-38" transform="scale(.01563)"/></defs><use xlink:href="#HelveticaWorld-Regular-32"/><use x="55.615" xlink:href="#HelveticaWorld-Regular-30"/><use x="111.23" xlink:href="#HelveticaWorld-Regular-31"/><use x="166.846" xlink:href="#HelveticaWorld-Regular-38"/></g></g><g id="xtick_6"><use style="fill:#969696;stroke:#969696;stroke-width:.4" x="353.81" xlink:href="#m2b83da299f" y="313.628" id="line2d_7"/><g style="fill:#969696" transform="matrix(.14 0 0 -.14 338.239 330.678)" id="text_6"><use xlink:href="#HelveticaWorld-Regular-32"/><use x="55.615" xlink:href="#HelveticaWorld-Regular-30"/><use x="111.23" xlink:href="#HelveticaWorld-Regular-32"/><use x="166.846" xlink:href="#HelveticaWorld-Regular-30"/></g></g></g><g id="matplotlib.axis_2"><g id="ytick_1"><path clip-path="url(#pc15da0c105)" d="M37.556 313.628h357.12" style="fill:none;stroke:#969696;stroke-linecap:square;stroke-width:.3" id="line2d_8"/><g id="line2d_9"><defs><path d="M0 0h-3.5" id="m1ee0482f57" style="stroke:#969696;stroke-width:.3"/></defs><use style="fill:#969696;stroke:#969696;stroke-width:.3" x="37.556" xlink:href="#m1ee0482f57" y="313.628"/></g><use xlink:href="#HelveticaWorld-Regular-30" style="fill:#969696" transform="matrix(.14 0 0 -.14 22.77 318.653)" id="text_7"/></g><g id="ytick_2"><path clip-path="url(#pc15da0c105)" d="M37.556 262.906h357.12" style="fill:none;stroke:#969696;stroke-linecap:square;stroke-width:.3" id="line2d_10"/><use style="fill:#969696;stroke:#969696;stroke-width:.3" x="37.556" xlink:href="#m1ee0482f57" y="262.906" id="line2d_11"/><g style="fill:#969696" transform="matrix(.14 0 0 -.14 14.985 267.93)" id="text_8"><defs><path d="M941 2619q372 281 872 281 606 0 1042-403t436-1038q0-690-421-1139-420-448-1179-448-660 0-1041 323-381 324-444 918h582q43-363 284-555t669-192q415 0 681 287 266 288 266 735 0 456-279 731-278 275-718 275-500 0-835-428l-484 25 337 2406h2332v-544H1131L941 2619z" id="HelveticaWorld-Regular-35" transform="scale(.01563)"/></defs><use xlink:href="#HelveticaWorld-Regular-35"/><use x="55.615" xlink:href="#HelveticaWorld-Regular-30"/></g></g><g id="ytick_3"><path clip-path="url(#pc15da0c105)" d="M37.556 212.184h357.12" style="fill:none;stroke:#969696;stroke-linecap:square;stroke-width:.3" id="line2d_12"/><use style="fill:#969696;stroke:#969696;stroke-width:.3" x="37.556" xlink:href="#m1ee0482f57" y="212.184" id="line2d_13"/><g style="fill:#969696" transform="matrix(.14 0 0 -.14 7.2 217.208)" id="text_9"><use xlink:href="#HelveticaWorld-Regular-31"/><use x="55.615" xlink:href="#HelveticaWorld-Regular-30"/><use x="111.23" xlink:href="#HelveticaWorld-Regular-30"/></g></g><g id="ytick_4"><path clip-path="url(#pc15da0c105)" d="M37.556 161.461h357.12" style="fill:none;stroke:#969696;stroke-linecap:square;stroke-width:.3" id="line2d_14"/><use style="fill:#969696;stroke:#969696;stroke-width:.3" x="37.556" xlink:href="#m1ee0482f57" y="161.461" id="line2d_15"/><g style="fill:#969696" transform="matrix(.14 0 0 -.14 7.2 166.486)" id="text_10"><use xlink:href="#HelveticaWorld-Regular-31"/><use x="55.615" xlink:href="#HelveticaWorld-Regular-35"/><use x="111.23" xlink:href="#HelveticaWorld-Regular-30"/></g></g><g id="ytick_5"><path clip-path="url(#pc15da0c105)" d="M37.556 110.74h357.12" style="fill:none;stroke:#969696;stroke-linecap:square;stroke-width:.3" id="line2d_16"/><use style="fill:#969696;stroke:#969696;stroke-width:.3" x="37.556" xlink:href="#m1ee0482f57" y="110.739" id="line2d_17"/><g style="fill:#969696" transform="matrix(.14 0 0 -.14 7.2 115.764)" id="text_11"><use xlink:href="#HelveticaWorld-Regular-32"/><use x="55.615" xlink:href="#HelveticaWorld-Regular-30"/><use x="111.23" xlink:href="#HelveticaWorld-Regular-30"/></g></g><g id="ytick_6"><path clip-path="url(#pc15da0c105)" d="M37.556 60.017h357.12" style="fill:none;stroke:#969696;stroke-linecap:square;stroke-width:.3" id="line2d_18"/><use style="fill:#969696;stroke:#969696;stroke-width:.3" x="37.556" xlink:href="#m1ee0482f57" y="60.017" id="line2d_19"/><g style="fill:#969696" transform="matrix(.14 0 0 -.14 7.2 65.042)" id="text_12"><use xlink:href="#HelveticaWorld-Regular-32"/><use x="55.615" xlink:href="#HelveticaWorld-Regular-35"/><use x="111.23" xlink:href="#HelveticaWorld-Regular-30"/></g></g></g><path clip-path="url(#pc15da0c105)" d="m37.556 312.994 1.807.34 2.341-.18 4.724.245 2.266-.35 2.265.056 2.344-.187 2.343.121 2.343-.256 2.343.06 2.381.196 2.343-.087 2.345.054 2.341-.155 2.343.155 6.912-.523 2.344.03 2.343.33 4.686-.327 2.381.294 2.343-.365 2.345-.028 2.341.163 2.343-.032 4.647-.804 2.265.183 2.344.585 2.343-.095 2.343-.92 2.343.364 2.381-.163 2.343.104 2.345-.3 4.684.228 2.381.524 2.305-.41 2.303-.67 7.03.46 2.343-.133 2.381-.393h4.688l2.341-.117 2.343 1.001 2.381-1.505 2.266-.7 2.265.536 2.344-.313 2.343.771 2.343-.095 2.343.259 2.381-.622 2.343-.414 2.345 1.167 2.341-.795 4.724.795 2.266-1.324 2.265.538 2.344.16 2.343.364 2.343-.702 2.343.342 2.381-.295 2.343.527 2.345.128 4.684-.556 2.381.36 2.266-.36 2.265.425 2.344-1.045 2.343.783 2.343.502 2.343-.142 2.381-.883 2.343.585 2.345-.29 2.341.29 4.724.364 2.305-.752 2.303-.492 2.344.576 2.343 1.093 2.343-.552 2.343.225 2.381-.262 4.688.49 2.34-1.163 2.344 1 2.381-.458 2.266-.148 2.265.312 2.344-.3 2.343.169 2.343.507 2.343-.278 2.381.033 2.343-.77 2.345.704 2.34.21 2.344-.144 2.381-.72 2.266-.194 2.265-.46 2.344.909 7.029.137 4.724-.238 4.686-.812 2.343.887 2.381-.59 2.266.203 2.265.518 2.344.132 2.343-.165 2.343.401 2.343-.466 4.724-.514 2.345-.075 2.341.142 2.343.807 4.686-.479 2.303-.667 2.344.914 2.343-.26 2.343-.382 2.343.154 2.381.981 2.343-.256 2.345-.79 2.34.891 2.344.613 2.381-.032 2.266-.706 2.265-.407 2.344.6 2.343-.567 2.343.466h0" style="fill:none;stroke:#aec7e8;stroke-linecap:square;stroke-width:1.5" id="line2d_20"/><path clip-path="url(#pc15da0c105)" d="M57.99 313.628h7.066l37.448-.065 2.266-.116 2.265.149 9.373-.066 7.069.066 2.341-.137 9.332.137 4.687-.033 4.686-.033 18.665-.065 2.344-.276 2.343.112 2.343-.315 2.343-.012 2.381.425 2.343-.447 7.029.12 2.381-.262 2.266.13 2.265-.392 2.344.032 2.343.263 2.343-.094 4.724.127 4.688-.655 2.341.055 2.343.207 2.381-.262 2.266.357 2.265-.913 2.344.374 2.343.248 2.343-.417 2.343-.074 2.381.752 4.688-1.112 2.341.434 4.724-.303 2.305-.772 2.303-.57 2.344.563 2.343.353 2.343-1.063 2.343.801 2.381-.098 2.343-.534 2.345.305 2.34.033 2.344-.622 2.381.426 2.266-.71 2.265-.894 2.344.65 2.343-.126 2.343.43 2.343-.201 2.381-1.047 2.343 1.113h2.345l2.34-1.521 2.344 1.39 2.381.294 2.266-1.211 2.265.164 4.687-.622 2.343 1.033 2.343-1.164 2.381.327 2.343.194 2.345-.325 2.341-.79 2.343 1.968 2.381-1.636 2.266-.707 2.265.707 2.344.04 2.343.91 2.343-.437 2.343-1.265 2.381 1.341 2.343-.583 2.345-1.118 2.341.07 2.343.78 2.381-1.407 2.305.106 2.303.778 2.344-1.103 2.343-.173 2.343-.47 2.343 1.484 4.724.14 2.345 1.005 2.34-.836 2.344 1.556 2.381-1.701 2.266-1.02 2.265.921 2.344-.331 2.343.43 2.343.11h0" style="fill:none;stroke:#17becf;stroke-linecap:square;stroke-width:1.5" id="line2d_21"/><g style="fill:#1f77b4" transform="matrix(.14 0 0 -.14 398.247 207.209)" id="text_13"><defs><path d="M422 3347h531v-472h13q378 569 1012 569 628 0 891-544 240 294 465 419t557 125q434 0 735-285 302-284 302-843V0h-562v2163q0 390-147 582-147 193-475 193-331 0-560-269-228-269-228-628V0h-562v2316q0 290-135 456-134 166-390 166-403 0-644-300t-241-813V0H422v3347z" id="HelveticaWorld-Regular-6d" transform="scale(.01563)"/><path d="M2497 3347h612L1913 63q-32-88-63-166-272-725-469-995-197-271-637-271-231 0-378 50v513q159-57 350-57 206 0 301 130 96 130 283 636L56 3347h635l897-2725h12l897 2725z" id="HelveticaWorld-Regular-79" transform="scale(.01563)"/><path d="M2309 2394q-12 300-214 431-201 131-579 131-275 0-471-122-195-121-195-350 0-181 115-267 116-86 501-183l556-140q506-128 723-327 218-198 218-554 0-494-361-802T1638-97Q934-97 573 195q-360 293-367 880h544q13-347 230-516 217-168 651-168 353 0 561 140 208 141 208 391 0 178-135 284-134 107-531 197l-653 160q-397 100-586 298t-189 514q0 494 353 781 354 288 922 288 607 0 930-296 323-295 342-754h-544z" id="HelveticaWorld-Regular-73" transform="scale(.01563)"/><path d="M2656 1516q0 712-224 1067-223 355-679 355-440 0-678-288-237-287-237-966 0-603 240-948 241-345 663-345 372 0 643 281 272 281 272 844zm538-2841h-563V353h-12Q2297-97 1728-97q-703 0-1088 522-384 522-384 1347 0 731 378 1201 379 471 1016 471 634 0 1000-569h13v472h531v-4672z" id="HelveticaWorld-Regular-71" transform="scale(.01563)"/><path d="M984 0H422v4594h562V0z" id="HelveticaWorld-Regular-6c" transform="scale(.01563)"/></defs><use xlink:href="#HelveticaWorld-Regular-6d"/><use x="81.008" xlink:href="#HelveticaWorld-Regular-79"/><use x="129.117" xlink:href="#HelveticaWorld-Regular-73"/><use x="178.117" xlink:href="#HelveticaWorld-Regular-71"/><use x="234.611" xlink:href="#HelveticaWorld-Regular-6c"/></g><g style="fill:#ff7f0e" transform="matrix(.14 0 0 -.14 398.247 221.165)" id="text_14"><defs><path d="M959 1516q0-538 262-832 263-293 654-293 428 0 665 348 238 349 238 945 0 654-228 954t-687 300q-447 0-676-352-228-352-228-1070zM422 3347h531v-472h13q359 569 1000 569 647 0 1020-471 373-470 373-1201 0-819-381-1344T1888-97q-582 0-891 450h-13v-1678H422v4672z" id="HelveticaWorld-Regular-70" transform="scale(.01563)"/><path d="M813 1678q0-559 253-920t718-361q482 0 732 378t250 903q0 531-250 901-250 371-732 371-446 0-709-349-262-348-262-923zm-575 0q0 747 415 1256 416 510 1131 510 732 0 1144-516 413-515 413-1250 0-737-410-1256Q2522-97 1784-97q-709 0-1128 503-418 503-418 1272z" id="HelveticaWorld-Regular-6f" transform="scale(.01563)"/><path d="M1100 2881V703q0-128 70-195 71-67 252-67h216V0q-307-44-422-44-353 0-516 169-162 169-162 547v2209H84v466h454v934h562v-934h538v-466h-538z" id="HelveticaWorld-Regular-74" transform="scale(.01563)"/><path d="M831 1684q0-615 244-954t659-339q404 0 660 293 256 294 256 832 0 706-224 1064-223 358-679 358-459 0-688-305-228-305-228-949zM3188 191q0-807-388-1203-387-397-1169-397-562 0-895 259T353-409h563q43-244 226-388t530-144q472 0 712 254 241 253 241 821v238h-12Q2297-97 1722-97q-716 0-1094 528T250 1772q0 744 381 1208 382 464 1013 464 634 0 1000-569h12v472h532V191z" id="HelveticaWorld-Regular-67" transform="scale(.01563)"/><path d="M984 0H422v3347h531v-556h13q365 653 940 653 91 0 147-19v-584h-209q-378 0-619-257-241-256-241-637V0z" id="HelveticaWorld-Regular-72" transform="scale(.01563)"/><path d="M2719 1941q-44 543-288 770-243 227-647 227-409 0-661-288-251-287-267-709h1863zm537-891q-93-519-509-859-366-288-963-294-703 6-1116 461-412 455-412 1223 0 882 425 1372 425 491 1182 491 678 0 1059-507 381-506 381-1446H856q0-525 244-813 244-287 731-287 344 0 591 207 247 208 272 452h562z" id="HelveticaWorld-Regular-65" transform="scale(.01563)"/></defs><use xlink:href="#HelveticaWorld-Regular-70"/><use x="56.494" xlink:href="#HelveticaWorld-Regular-6f"/><use x="112.402" xlink:href="#HelveticaWorld-Regular-73"/><use x="162.402" xlink:href="#HelveticaWorld-Regular-74"/><use x="190.088" xlink:href="#HelveticaWorld-Regular-67"/><use x="245.996" xlink:href="#HelveticaWorld-Regular-72"/><use x="277.564" xlink:href="#HelveticaWorld-Regular-65"/><use x="332.984" xlink:href="#HelveticaWorld-Regular-73"/><use x="381.984" xlink:href="#HelveticaWorld-Regular-71"/><use x="438.479" xlink:href="#HelveticaWorld-Regular-6c"/></g><g style="fill:#2ca02c" transform="matrix(.14 0 0 -.14 398.247 235.165)" id="text_15"><defs><path d="M3150 0h-566v2059q0 475-166 677-165 202-549 202-378 0-632-288-253-287-253-825V0H422v3347h531v-472h13q397 569 1012 569 569 0 870-302 302-301 302-864V0z" id="HelveticaWorld-Regular-6e" transform="scale(.01563)"/><path d="M838 1684q0-621 246-957 247-336 657-336 390 0 652 287 263 288 263 838 0 706-224 1064-223 358-679 358-434 0-675-285-240-284-240-969zM3225 0h-531v459h-13Q2363-97 1716-97q-697 0-1079 531-381 532-381 1338 0 744 378 1208 379 464 1016 464 628 0 1000-569l13 38v1681h562V0z" id="HelveticaWorld-Regular-64" transform="scale(.01563)"/><path d="M2778 1684q0 672-238 963-237 291-677 291-447-7-676-349-228-342-228-989 0-659 275-934t641-275q416 0 659 342 244 342 244 951zM422 0v4594h562V2925h13q359 519 969 519 625 0 1009-464t384-1208q0-838-388-1354Q2584-97 1888-97q-613 0-922 513h-13V0H422z" id="HelveticaWorld-Regular-62" transform="scale(.01563)"/></defs><use xlink:href="#HelveticaWorld-Regular-6d"/><use x="83.008" xlink:href="#HelveticaWorld-Regular-6f"/><use x="138.916" xlink:href="#HelveticaWorld-Regular-6e"/><use x="194.092" xlink:href="#HelveticaWorld-Regular-67"/><use x="250" xlink:href="#HelveticaWorld-Regular-6f"/><use x="305.908" xlink:href="#HelveticaWorld-Regular-64"/><use x="362.891" xlink:href="#HelveticaWorld-Regular-62"/></g><g style="fill:#d62728" transform="matrix(.14 0 0 -.14 398.247 249.257)" id="text_16"><defs><path d="M1850 1484H281v575h1569v-575z" id="HelveticaWorld-Regular-2d" transform="scale(.01563)"/><path d="M2522 3347h616L1863 0h-604L38 3347h653l872-2725h12l947 2725z" id="HelveticaWorld-Regular-76" transform="scale(.01563)"/></defs><use xlink:href="#HelveticaWorld-Regular-73"/><use x="49" xlink:href="#HelveticaWorld-Regular-71"/><use x="105.494" xlink:href="#HelveticaWorld-Regular-6c"/><use x="127.516" xlink:href="#HelveticaWorld-Regular-2d"/><use x="160.816" xlink:href="#HelveticaWorld-Regular-73"/><use x="210.816" xlink:href="#HelveticaWorld-Regular-65"/><use x="266.236" xlink:href="#HelveticaWorld-Regular-72"/><use x="301.18" xlink:href="#HelveticaWorld-Regular-76"/><use x="348.789" xlink:href="#HelveticaWorld-Regular-65"/><use x="404.209" xlink:href="#HelveticaWorld-Regular-72"/></g><g style="fill:#9467bd" transform="matrix(.14 0 0 -.14 398.247 263.257)" id="text_17"><defs><path d="M2456 1709q-62-65-245-106-183-40-683-106-369-44-542-182-173-137-173-362 0-275 146-428 147-153 469-153 403 0 715 229 313 230 313 558v550zM397 2328q19 566 367 841 349 275 1014 275 531 0 890-241 360-240 360-694V581q0-197 178-197 72 0 185 25V0q-153-63-319-63-288 0-429 123-140 124-146 387Q2016-97 1288-97q-475 0-763 269-287 269-287 700 0 441 250 712 250 272 728 329l993 121q269 41 269 397 0 263-195 403-195 141-592 141-353 0-543-156-189-156-226-491H397z" id="HelveticaWorld-Regular-61" transform="scale(.01563)"/><path d="M2534 2222q-121 716-793 716-416 0-669-333t-253-927q0-647 234-967 235-320 681-320 300 0 519 220t281 573h544q-84-621-439-951T1722-97q-659 0-1081 451-422 452-422 1227 0 850 422 1356 422 507 1184 507 556 0 886-333t367-889h-544z" id="HelveticaWorld-Regular-63" transform="scale(.01563)"/></defs><use xlink:href="#HelveticaWorld-Regular-6f"/><use x="55.908" xlink:href="#HelveticaWorld-Regular-72"/><use x="87.477" xlink:href="#HelveticaWorld-Regular-61"/><use x="142.408" xlink:href="#HelveticaWorld-Regular-63"/><use x="193.678" xlink:href="#HelveticaWorld-Regular-6c"/><use x="215.699" xlink:href="#HelveticaWorld-Regular-65"/></g><g style="fill:#8c564b" transform="matrix(.14 0 0 -.14 398.247 277.257)" id="text_18"><defs><path d="M422 3956v638h562v-638H422zM984 0H422v3347h562V0z" id="HelveticaWorld-Regular-69" transform="scale(.01563)"/><path d="M3150 0h-566v2188q0 403-156 576-156 174-509 174-435 0-685-282-250-281-250-831V0H422v4594h562V2900h13q384 544 981 544 550 0 861-288 311-287 311-878V0z" id="HelveticaWorld-Regular-68" transform="scale(.01563)"/></defs><use xlink:href="#HelveticaWorld-Regular-65"/><use x="55.42" xlink:href="#HelveticaWorld-Regular-6c"/><use x="77.441" xlink:href="#HelveticaWorld-Regular-61"/><use x="132.373" xlink:href="#HelveticaWorld-Regular-73"/><use x="182.373" xlink:href="#HelveticaWorld-Regular-74"/><use x="210.059" xlink:href="#HelveticaWorld-Regular-69"/><use x="232.08" xlink:href="#HelveticaWorld-Regular-63"/><use x="283.35" xlink:href="#HelveticaWorld-Regular-73"/><use x="333.35" xlink:href="#HelveticaWorld-Regular-65"/><use x="388.77" xlink:href="#HelveticaWorld-Regular-61"/><use x="443.701" xlink:href="#HelveticaWorld-Regular-72"/><use x="475.27" xlink:href="#HelveticaWorld-Regular-63"/><use x="526.539" xlink:href="#HelveticaWorld-Regular-68"/></g><g style="fill:#e377c2" transform="matrix(.14 0 0 -.14 398.247 291.257)" id="text_19"><use xlink:href="#HelveticaWorld-Regular-73"/><use x="49" xlink:href="#HelveticaWorld-Regular-71"/><use x="105.494" xlink:href="#HelveticaWorld-Regular-6c"/><use x="127.516" xlink:href="#HelveticaWorld-Regular-69"/><use x="149.537" xlink:href="#HelveticaWorld-Regular-74"/><use x="177.223" xlink:href="#HelveticaWorld-Regular-65"/></g><g style="fill:#7f7f7f" transform="matrix(.14 0 0 -.14 398.247 305.257)" id="text_20"><use xlink:href="#HelveticaWorld-Regular-72"/><use x="31.568" xlink:href="#HelveticaWorld-Regular-65"/><use x="86.988" xlink:href="#HelveticaWorld-Regular-64"/><use x="143.971" xlink:href="#HelveticaWorld-Regular-69"/><use x="165.992" xlink:href="#HelveticaWorld-Regular-73"/></g><g style="fill:#bcbd22" transform="matrix(.14 0 0 -.14 398.247 319.257)" id="text_21"><use xlink:href="#HelveticaWorld-Regular-6d"/><use x="83.008" xlink:href="#HelveticaWorld-Regular-73"/><use x="133.008" xlink:href="#HelveticaWorld-Regular-2d"/><use x="166.309" xlink:href="#HelveticaWorld-Regular-61"/><use x="221.24" xlink:href="#HelveticaWorld-Regular-63"/><use x="272.51" xlink:href="#HelveticaWorld-Regular-63"/><use x="323.779" xlink:href="#HelveticaWorld-Regular-65"/><use x="379.199" xlink:href="#HelveticaWorld-Regular-73"/><use x="429.199" xlink:href="#HelveticaWorld-Regular-73"/></g><g style="fill:#17becf" transform="matrix(.14 0 0 -.14 398.247 333.257)" id="text_22"><use xlink:href="#HelveticaWorld-Regular-6d"/><use x="83.008" xlink:href="#HelveticaWorld-Regular-61"/><use x="137.939" xlink:href="#HelveticaWorld-Regular-72"/><use x="170.508" xlink:href="#HelveticaWorld-Regular-69"/><use x="192.529" xlink:href="#HelveticaWorld-Regular-61"/><use x="247.461" xlink:href="#HelveticaWorld-Regular-64"/><use x="304.443" xlink:href="#HelveticaWorld-Regular-62"/></g><g style="fill:#aec7e8" transform="matrix(.14 0 0 -.14 398.247 347.257)" id="text_23"><use xlink:href="#HelveticaWorld-Regular-64"/><use x="56.982" xlink:href="#HelveticaWorld-Regular-62"/><use x="113.477" xlink:href="#HelveticaWorld-Regular-32"/></g><g style="fill:#ffbb78" transform="matrix(.14 0 0 -.14 398.247 361.257)" id="text_24"><use xlink:href="#HelveticaWorld-Regular-73"/><use x="50" xlink:href="#HelveticaWorld-Regular-6f"/><use x="105.908" xlink:href="#HelveticaWorld-Regular-6c"/><use x="127.93" xlink:href="#HelveticaWorld-Regular-72"/></g><g style="fill:#969696" transform="matrix(.09716 0 0 -.09716 37.556 347.399)" id="text_25"><defs><path d="M3225 3250q-19 438-327 686-307 248-810 248-507 0-779-208-271-207-271-598 0-209 118-359 119-150 425-222l1313-300q531-116 787-440 257-323 257-788 0-681-500-1036T2138-122q-610 0-962 156-351 157-623 497-272 341-272 953h582q0-512 340-794 341-281 928-281 569 0 886 202t317 573q0 338-189 505t-739 295l-990 232q-494 112-738 392t-244 689q0 619 417 1019 418 400 1165 400 843 0 1301-352 458-351 492-1114h-584z" id="HelveticaWorld-Regular-53" transform="scale(.01563)"/><path d="M3200 0h-722L1434 1691l-468-422V0H422v4594h544V1931l1440 1416h716L1844 2100 3200 0z" id="HelveticaWorld-Regular-6b" transform="scale(.01563)"/><path d="M4091 2297q0 806-427 1337-426 532-1173 532-738 0-1169-532-431-531-431-1337 0-831 437-1350 438-519 1163-519 709 0 1154 506 446 507 446 1363zm637 0q0-1028-594-1724-593-695-1643-695-1057 0-1649 695-592 696-592 1724 0 1031 592 1725t1649 694q1081 0 1659-707 578-706 578-1712z" id="HelveticaWorld-Regular-4f" transform="scale(.01563)"/><path d="M1100 2881V0H538v2881H78v466h460v575q0 378 229 557 230 180 642 180 141 0 254-12v-506q-100 12-229 12-187 0-261-92-73-92-73-298v-416h563v-466h-563z" id="HelveticaWorld-Regular-66" transform="scale(.01563)"/><path d="M1638 0h-575L97 3347h606l641-2631h12l647 2631h635l653-2631h12l678 2631h557L3572 0h-591l-678 2591h-12L1638 0z" id="HelveticaWorld-Regular-77" transform="scale(.01563)"/><path d="m2816 1888-678 2021h-13l-737-2021h1428zm-1619-550L716 0H78l1728 4594h703L4172 0h-678l-453 1338H1197z" id="HelveticaWorld-Regular-41" transform="scale(.01563)"/><path d="M1141 2472h1234q466 0 700 204 234 205 234 621 0 372-225 569t-684 197H1141V2472zm0-2472H519v4594h2065q616 0 991-358t375-933q0-597-363-980-362-382-1003-382H1141V0z" id="HelveticaWorld-Regular-50" transform="scale(.01563)"/><path d="M1141 0H519v4594h622V0z" id="HelveticaWorld-Regular-49" transform="scale(.01563)"/><path d="M603 4716h466V-122H603v4838z" id="HelveticaWorld-Regular-7c" transform="scale(.01563)"/><path d="M3559 4594h600V0h-690L1125 3713h-12V0H519v4594h728L3547 884h12v3710z" id="HelveticaWorld-Regular-4e" transform="scale(.01563)"/><path d="M813 1678q0-559 253-920t718-361q482 0 732 378t250 903q0 531-250 901-250 371-732 371-446 0-709-349-262-348-262-923zm-575 0q0 747 415 1256 416 510 1131 510 732 0 1144-516 413-515 413-1250 0-737-410-1256Q2522-97 1784-97q-709 0-1128 503-418 503-418 1272zm2351 2266h-575v650h575v-650zm-1038 0H976v650h575v-650z" id="HelveticaWorld-Regular-f6" transform="scale(.01563)"/><path d="M3713 3213q-104 468-434 710-329 243-854 243-678 0-1091-493-412-492-412-1329 0-969 390-1443 391-473 1132-473 487 0 838 323 352 324 474 940h603q-121-885-671-1349T2350-122q-941 0-1505 647T281 2322q0 1109 589 1751 589 643 1555 643 800 0 1297-413 497-412 591-1090h-600z" id="HelveticaWorld-Regular-43" transform="scale(.01563)"/><path d="M519 4594h2015q594 0 947-322t353-834q0-310-155-565-154-254-460-395 428-162 629-431 202-269 202-691 0-593-428-975Q3194 0 2491 0H519v4594zm612-4063h1325q488 0 731 226 244 227 244 612 0 390-272 582-271 193-803 193H1131V531zm0 2119h1128q494 0 724 179 230 180 230 562 0 328-218 500-217 172-729 172H1131V2650z" id="HelveticaWorld-Regular-42" transform="scale(.01563)"/><path d="M2388 0h-622v1850L31 4594h725l1319-2206 1316 2206h731L2388 1850V0z" id="HelveticaWorld-Regular-59" transform="scale(.01563)"/></defs><use xlink:href="#HelveticaWorld-Regular-53"/><use x="66.211" xlink:href="#HelveticaWorld-Regular-74"/><use x="93.896" xlink:href="#HelveticaWorld-Regular-61"/><use x="148.828" xlink:href="#HelveticaWorld-Regular-63"/><use x="200.098" xlink:href="#HelveticaWorld-Regular-6b"/><use x="250.098" xlink:href="#HelveticaWorld-Regular-4f"/><use x="327.881" xlink:href="#HelveticaWorld-Regular-76"/><use x="375.49" xlink:href="#HelveticaWorld-Regular-65"/><use x="430.91" xlink:href="#HelveticaWorld-Regular-72"/><use x="464.979" xlink:href="#HelveticaWorld-Regular-66"/><use x="492.664" xlink:href="#HelveticaWorld-Regular-6c"/><use x="514.686" xlink:href="#HelveticaWorld-Regular-6f"/><use x="569.094" xlink:href="#HelveticaWorld-Regular-77"/><use x="641.506" xlink:href="#HelveticaWorld-Regular-20"/><use x="665.92" xlink:href="#HelveticaWorld-Regular-41"/><use x="732.619" xlink:href="#HelveticaWorld-Regular-50"/><use x="797.268" xlink:href="#HelveticaWorld-Regular-49"/><use x="823.049" xlink:href="#HelveticaWorld-Regular-20"/><use x="847.463" xlink:href="#HelveticaWorld-Regular-76"/><use x="897.072" xlink:href="#HelveticaWorld-Regular-69"/><use x="919.094" xlink:href="#HelveticaWorld-Regular-61"/><use x="974.025" xlink:href="#HelveticaWorld-Regular-20"/><use x="998.439" xlink:href="#HelveticaWorld-Regular-73"/><use x="1048.439" xlink:href="#HelveticaWorld-Regular-74"/><use x="1076.125" xlink:href="#HelveticaWorld-Regular-61"/><use x="1131.057" xlink:href="#HelveticaWorld-Regular-63"/><use x="1182.326" xlink:href="#HelveticaWorld-Regular-6b"/><use x="1232.326" xlink:href="#HelveticaWorld-Regular-74"/><use x="1260.012" xlink:href="#HelveticaWorld-Regular-61"/><use x="1314.943" xlink:href="#HelveticaWorld-Regular-67"/><use x="1370.852" xlink:href="#HelveticaWorld-Regular-73"/><use x="1420.852" xlink:href="#HelveticaWorld-Regular-20"/><use x="1445.266" xlink:href="#HelveticaWorld-Regular-7c"/><use x="1471.242" xlink:href="#HelveticaWorld-Regular-20"/><use x="1495.656" xlink:href="#HelveticaWorld-Regular-4e"/><use x="1568.752" xlink:href="#HelveticaWorld-Regular-69"/><use x="1590.773" xlink:href="#HelveticaWorld-Regular-63"/><use x="1642.043" xlink:href="#HelveticaWorld-Regular-6f"/><use x="1697.951" xlink:href="#HelveticaWorld-Regular-20"/><use x="1722.365" xlink:href="#HelveticaWorld-Regular-53"/><use x="1788.576" xlink:href="#HelveticaWorld-Regular-63"/><use x="1839.846" xlink:href="#HelveticaWorld-Regular-68"/><use x="1895.021" xlink:href="#HelveticaWorld-Regular-6c"/><use x="1917.043" xlink:href="#HelveticaWorld-Regular-f6"/><use x="1972.951" xlink:href="#HelveticaWorld-Regular-6d"/><use x="2055.959" xlink:href="#HelveticaWorld-Regular-65"/><use x="2111.379" xlink:href="#HelveticaWorld-Regular-72"/><use x="2143.947" xlink:href="#HelveticaWorld-Regular-20"/><use x="2168.361" xlink:href="#HelveticaWorld-Regular-7c"/><use x="2194.338" xlink:href="#HelveticaWorld-Regular-20"/><use x="2218.752" xlink:href="#HelveticaWorld-Regular-43"/><use x="2291.066" xlink:href="#HelveticaWorld-Regular-43"/><use x="2363.381" xlink:href="#HelveticaWorld-Regular-20"/><use x="2387.795" xlink:href="#HelveticaWorld-Regular-42"/><use x="2450.607" xlink:href="#HelveticaWorld-Regular-59"/></g><g style="fill:#969696" transform="matrix(.14 0 0 -.14 80.05 17.516)" id="text_26"><defs><path d="M1141 531h1203q625 0 978 480t353 1311q0 822-356 1278t-1028 463H1141V531zM519 4594h1862q903 0 1414-621 511-620 511-1610 0-1063-511-1713T2356 0H519v4594z" id="HelveticaWorld-Regular-44" transform="scale(.01563)"/><path d="M391 3347h562V1125q0-369 167-552 168-182 480-182 434 0 678 307 244 308 244 805v1844h562V0h-531v488l-12 12Q2222-97 1478-97q-481 0-784 262-303 263-303 776v2406z" id="HelveticaWorld-Regular-75" transform="scale(.01563)"/></defs><use xlink:href="#HelveticaWorld-Regular-44"/><use x="72.021" xlink:href="#HelveticaWorld-Regular-61"/><use x="126.953" xlink:href="#HelveticaWorld-Regular-69"/><use x="148.975" xlink:href="#HelveticaWorld-Regular-6c"/><use x="170.996" xlink:href="#HelveticaWorld-Regular-79"/><use x="220.605" xlink:href="#HelveticaWorld-Regular-20"/><use x="245.02" xlink:href="#HelveticaWorld-Regular-6e"/><use x="300.195" xlink:href="#HelveticaWorld-Regular-75"/><use x="354.98" xlink:href="#HelveticaWorld-Regular-6d"/><use x="437.988" xlink:href="#HelveticaWorld-Regular-62"/><use x="494.482" xlink:href="#HelveticaWorld-Regular-65"/><use x="549.902" xlink:href="#HelveticaWorld-Regular-72"/><use x="582.471" xlink:href="#HelveticaWorld-Regular-20"/><use x="606.885" xlink:href="#HelveticaWorld-Regular-6f"/><use x="662.793" xlink:href="#HelveticaWorld-Regular-66"/><use x="690.479" xlink:href="#HelveticaWorld-Regular-20"/><use x="714.893" xlink:href="#HelveticaWorld-Regular-71"/><use x="771.387" xlink:href="#HelveticaWorld-Regular-75"/><use x="826.172" xlink:href="#HelveticaWorld-Regular-65"/><use x="881.592" xlink:href="#HelveticaWorld-Regular-73"/><use x="931.592" xlink:href="#HelveticaWorld-Regular-74"/><use x="959.277" xlink:href="#HelveticaWorld-Regular-69"/><use x="981.299" xlink:href="#HelveticaWorld-Regular-6f"/><use x="1037.207" xlink:href="#HelveticaWorld-Regular-6e"/><use x="1092.383" xlink:href="#HelveticaWorld-Regular-73"/><use x="1142.383" xlink:href="#HelveticaWorld-Regular-20"/><use x="1166.797" xlink:href="#HelveticaWorld-Regular-6f"/><use x="1222.705" xlink:href="#HelveticaWorld-Regular-6e"/><use x="1277.881" xlink:href="#HelveticaWorld-Regular-20"/><use x="1302.295" xlink:href="#HelveticaWorld-Regular-53"/><use x="1368.506" xlink:href="#HelveticaWorld-Regular-74"/><use x="1396.191" xlink:href="#HelveticaWorld-Regular-61"/><use x="1451.123" xlink:href="#HelveticaWorld-Regular-63"/><use x="1502.393" xlink:href="#HelveticaWorld-Regular-6b"/><use x="1552.393" xlink:href="#HelveticaWorld-Regular-4f"/><use x="1630.176" xlink:href="#HelveticaWorld-Regular-76"/><use x="1677.785" xlink:href="#HelveticaWorld-Regular-65"/><use x="1733.205" xlink:href="#HelveticaWorld-Regular-72"/><use x="1767.273" xlink:href="#HelveticaWorld-Regular-66"/><use x="1794.959" xlink:href="#HelveticaWorld-Regular-6c"/><use x="1816.98" xlink:href="#HelveticaWorld-Regular-6f"/><use x="1871.389" xlink:href="#HelveticaWorld-Regular-77"/></g><path clip-path="url(#pc15da0c105)" d="m37.556 309.697 1.807.953 2.341.544 2.343-.053 2.381.59 4.53-1.146 2.345-.643 2.343-.437 2.343-.239 2.343-2.183 2.381 1.8 2.343-.936 2.345.87 2.341-.227 2.343.13 4.647.633 2.265-1.288 2.344 1.032 2.343-1.686 2.343-.343 2.343-.148 2.381 1.21 2.343.19 2.345-.451 2.341-.09 2.343.548 2.381-1.963 2.266.38 2.265-.217 2.344-.98 2.343.195 2.343-.94 4.724.285 2.343 2.049 2.345-.478 2.341-1.01 2.343.52 2.381-.688 2.305-1.961 2.303 1.143 2.344-1.584 2.343 1.224 2.343-.007 2.343-3.2 2.381 1.047 2.343 2.762 2.345-1.747 2.341-.688 2.343 1.244 2.381-2.356 2.266-.192 2.265-3.67 2.344.105 2.343 1.237 2.343.69 2.343-1.934 2.381 3.273 2.343-1.508 2.345-3.793 2.341 2.204 2.343 1.559 2.381-1.015 2.266-3.85 2.265 2.378 2.344-.932 2.343 4.957 2.343-.324 2.343-1.934 2.381 2.454 2.343 1.543 2.345-.921 2.341.143 2.343 1.297 2.381-3.6 2.266.7 2.265-1.583 2.344.819 2.343-.329 2.343-2.917 2.343.987 2.381 2.88 2.343-.25 2.345-.667 2.341 2.764 2.343-1.553 2.381-1.963 2.305-3.079 2.303 2.49 2.344 1.299 2.343.108 2.343-3.084 2.343 2.658 2.381-1.112 2.343 2.68 2.345-1.699 2.34 1.125 2.344 1.624 2.381-.982 2.266-1.92 2.265.677 2.344 1.717 2.343-3.517 2.343-1.285 2.343.696 2.381 1.669 2.343 3.18 2.345-.857 2.34.08 2.344 2.244 2.381-1.407 2.266.354 4.61-.616 2.342.164 2.343-.13 2.343-.721 2.381-1.506 2.343 1.753 2.345-.476 2.341.206 2.343 3.099 2.381-3.469 2.266-.84 2.265 1.429 7.03.964 2.343-1.39 2.381 2.848 2.343-.646 2.345-1.94 2.341-.021 2.343 1.69 2.381-.785 2.305-.929 2.303 2.565 2.344-4.57 2.343 1.887 2.343-.602 4.724 4.038 2.343-.183 2.345 2.114 2.34-.627 2.344 1.216 2.381-1.277 2.266-1.506 2.265-.359 2.344 1.791 2.343.794 2.343-1.233h0" style="fill:none;stroke:#bcbd22;stroke-linecap:square;stroke-width:1.5" id="line2d_22"/><path clip-path="url(#pc15da0c105)" d="m60.332 313.628 16.4-.145 4.61-.058 7.028-.157 2.381.033 4.688-.23 2.341-.018 2.343.117 2.381-.916 2.266.179 2.265-.081 2.344-.414 2.343.381 2.343-1.125 2.343.144 2.381.327 2.343-.269 4.686.034 2.343-.55 2.381.163 2.305-.423 2.303.292 4.687-1.309 2.343-.134 2.343.985 2.381-.818 2.343.712 2.345-1.072 2.341.836 2.343.178 2.381.459 4.53-1.146 4.688-.622 2.343.623 2.343.36 2.381-.819 2.343.223 2.345-.812 2.341-.44 2.343.538 2.381-.098 2.266.181 2.265-1.555 2.344.393 2.343 1.897 4.686-.981 2.381-.197 2.343.33 2.345.096 2.341.276 2.343.509 2.381-1.014 2.266-.768 2.265-.312 2.344.164 2.343-.328 2.343-.044 4.724-.447 2.343.075 9.41 1.005 2.305-.994 2.303-.25 2.344.307 2.343-.241 2.343.343 2.343 1.359 2.381-.917 2.343.03 2.345 1.312 2.34-1.48 2.344.826 2.381-.851 2.266-.5 2.265 1.056 2.344-.227 2.343-.951 2.343.512 2.343.24 2.381-.261 2.343.663 2.345.417 2.34-.687 2.344 1.341 2.381-1.08 2.266-.08 2.265-.803 7.03-.089 2.343-1.122 2.381-1.342 2.343 1.01 2.345-.42 2.341-.053 2.343 2.768 2.381-2.028 2.266.303 2.265-.565 2.344-.275 2.343.798 2.343.588 2.343-1.308 2.381-.196 2.343.896 2.345-.012 2.341-1.003 2.343.577 4.686-1.054 2.303-.844 2.344-1.485 2.343.7 2.343-.328 2.343.262 2.381.982 2.343-.06 2.345.813 4.684.949 2.381-.458 2.266.009 4.61-1.923 2.342 2.47 2.343-.982h0" style="fill:none;stroke:#7f7f7f;stroke-linecap:square;stroke-width:1.5" id="line2d_23"/><path clip-path="url(#pc15da0c105)" d="m37.556 312.17 1.807.378 2.341.133 2.343.26 4.647-1.233 2.265-.043 2.344-1.148 2.343-.325 7.067-.523 2.343.476 2.345-.934 2.341-.283 2.343-.077 2.381-.295 2.266-1.268 2.265-.106 2.344-.35 2.343-.828 2.343.557 2.343-2.194 2.381-.36 2.343 1.134 2.345-1.526 2.341-1.957 2.343.713 2.381-.556 2.266-3.403 2.265-2.815 2.344.177 2.343.838 2.343-3.171 2.343.815 2.381.098 2.343-.372 2.345 2.433 2.341-3.684 2.343 3.913 2.381-2.52 2.305-5.962 2.303-1.597 2.344 1.668 2.343 1.474 2.343.014 2.343-1.356 2.381-.458 2.343 3.2 2.345-1.564 2.341-.972 2.343.285 2.381-1.472 2.266.303 2.265-1.612 2.344.062 2.343.396 2.343 3.797 2.343-5.433 2.381 2.323 2.343-.035 2.345-3.467 2.341-1.166 2.343 3.424 2.381-4.286 2.266-2.082 2.265.184 2.344-.824 2.343 7.27 2.343 2.097 2.343-3.733 2.381 4.221 2.343-1.401 2.345 2.187 2.341-1.41 2.343 2.817 2.381-3.305L217 286.6l2.265-4.715 2.344-1.633 2.343 7.589 2.343-.961 2.343.404 2.381.557 2.343-.927 2.345 1.45 2.341 1.762 2.343.267 2.381-1.407 2.305-3.413 2.303-1.757 2.344-1.603 2.343 3.042 2.343 4.195 2.343-.758 2.381 2.847 2.343-2.022 2.345.058 2.34.923 2.344.68 2.381-1.374 4.53-1.898 2.345-1.601 2.343.358 2.343 4.41 2.343.433 2.381.622 2.343.838 2.345 1.256 2.34-2.946 2.344 3.273 2.381-.425 2.266-1.873 2.265 2.004 2.344-1.56 2.343 1.69 2.343 2.064 2.343-1.082 2.381-2.389 2.343.191 2.345-1.467 2.341.216 2.343 4.366 2.381-2.095 2.266-3.278 2.265 1.053 2.344 1.307 2.343 2.096 2.343.778 2.343-1.792 2.381 1.243 2.343.177 2.345-2.467 2.341-1.422 2.343 3.058 2.381-1.67 2.305-3.222 2.303 1.03 2.344-5.18 2.343-.906 2.343 4.287 2.343 1.963 2.381.458 2.343 1.095 2.345 1.327 2.34-1.834 2.344 2.783 2.381-2.324 2.266-.063 2.265-.264 2.344.341 2.343 1.884 2.343.619h0" style="fill:none;stroke:#e377c2;stroke-linecap:square;stroke-width:1.5" id="line2d_24"/><path clip-path="url(#pc15da0c105)" d="M74.466 313.628h28.038l2.266-.18 2.265.115 2.344-.002 2.343-.195 11.755-.065 2.341-.484 2.343.32 2.381-.49 2.305.107 2.303-.107 2.344-.338 2.343-.513 2.343.074 2.343.187 2.381-.981 2.343-.153 2.345-.633 2.341-.178 2.343.996 2.381-1.276 2.266.427 2.265-.983 2.344-.788 2.343.493 2.343-.797 2.343-.544 2.381.327 2.343.555 2.345-.719 2.341-.43 2.343 1.281 2.381-3.207 2.266-2.108 2.265.767 2.344-1.704 2.343.133 2.343 1.185 2.343-1.578 2.381-.949 2.343.904 2.345 1.027 2.341-1.568 2.343.03 2.381-1.67L217 296.89l2.265-.965 2.344 1.066 2.343-1.001 2.343-1.535 4.724.422 2.343.018 2.345.702 2.341-3.07 2.343 3.463 2.381-3.043 2.305-3.316 2.303 1.025 2.344.722 2.343.554 2.343-.994 2.343 2.925 2.381-.687 2.343.84 2.345 1.189 2.34-1.595 2.344 2.838 2.381-3.698 2.266-4.374 2.265 3.85 2.344 2.128 2.343-1.898 2.343-.097 2.343 2.191 2.381-2.618 2.343 2.388 4.686 2.13 2.343 3.369 2.381-1.375 2.266-3.366 2.265.487 2.344.074 2.343-1.252h2.343l2.343-1.768 2.381-3.043 2.343 2.31 2.345-2.277 2.341-.497 2.343 7.925 2.381-3.6 2.266-4.12 2.265 1.568 2.344 1.102 2.343-.84 2.343-.242 2.343-2.016 2.381 1.996 2.343-2.686 2.345 1.05 2.341-.17 2.343 3.868 2.381-1.211 2.305-1.86 2.303 1.533 2.344-2.466 2.343-.774 2.343-.477 2.343.706 2.381 2.65 2.343.364 2.345.913 2.34.304 2.344 1.692 2.381.556 2.266-3.204 2.265-1.279 2.344.815 2.343 1.41 2.343-.362h0" style="fill:none;stroke:#8c564b;stroke-linecap:square;stroke-width:1.5" id="line2d_25"/><path clip-path="url(#pc15da0c105)" d="m37.556 304.181 1.807 3.262 2.341 1.857 2.343.598 2.381-.23 2.266-.895 2.265.143 2.344-.19 2.343-2.035 2.343-1.381 2.343-.55 2.381-.687 2.343 1.102 2.345-1.299 2.341-.73 2.343 1.581 2.381.393 2.266-1.781 2.265-.968 2.344 1.45 2.343.939 2.343-4.117 2.343 2.35 2.381-2.65 2.343 2.33 2.345-.793 2.341-2.42 2.343 1.439 2.381-2.52 2.266-.728 2.265-1.596 2.344.869 2.343-.247 4.686.786 2.381-1.67 2.343-3.705 2.345 1.939 2.341-3.63 2.343 3.302 2.381.131 2.305-4.793 2.303.703 2.344 1.909 2.343-1.615 2.343 1.817 2.343-3.093 2.381-1.08 2.343.657 2.345-2.228 2.341-4.907 2.343 8.147 2.381-3.076 2.266-4.996 2.265 4.734 2.344-6.5 4.686 2.84 2.343-1.936 2.381 2.39 4.688-9.556 2.341 1.9 2.343 4.416 2.381-1.931 2.266-6.43 2.265-.442 2.344-1.564 2.343 5.883 2.343 4.295 2.343-2.626 2.381 4.09 2.343-6.266 2.345.573 2.341-2.906 2.343 6.604 2.381.654L217 273.34l2.265-2.024 2.344-1.275 2.343 2.944 2.343.606 2.343-1.424 2.381 3.763 2.343-1.967 2.345 1.444 2.341-3.472 2.343 5.5 2.381-.032 2.305-6.871 2.303-.001 2.344-.118 2.343 4.24 2.343-1.197 2.343 6.466 2.381-1.767 2.343-.81 2.345-4.785 2.34 1.708 2.344 4.87 2.381-2.848 2.266-2.443 2.265-4.494 2.344 4.408 2.343-2.641 2.343 3.418 2.343.836 2.381.13 2.343 2.72 2.345-4.16 2.34.068 2.344 7.001 2.381-2.127 2.266-3.927 2.265-.163 2.344-.547 2.343.056 2.343 3.529 2.343-1.86 2.381-1.08 2.343 4.698 2.345-7.872 2.341.128 2.343 5.926 2.381 2.716 2.266-6.509 2.265.127 2.344-.062 2.343-.756 2.343 5.693 2.343-4.22 2.381 4.974 2.343-4.473 2.345-4.232 2.341 1.594 2.343 3.708 2.381 1.014 2.305-5.782 2.303 1.463 2.344-7.234 2.343 3.896 2.343-1.968 2.343 6.81 2.381 5.008 2.343-1.707 2.345-4.118 2.34 2.866 2.344 6.657 2.381.425 2.266-6.024 2.265-.095 2.344-3.16 2.343 2.93 2.343 4.103h0" style="fill:none;stroke:#9467bd;stroke-linecap:square;stroke-width:1.5" id="line2d_26"/><path clip-path="url(#pc15da0c105)" d="m37.556 287.95 1.807 8.629 2.341 3.557 2.343 1.253 2.381-5.759 2.266-.95 2.265-1.635 2.344-2.478 2.343-1.416 2.343-1.256 2.343-3.817 2.381 3.436 2.343-3.406 2.345.363 2.341.11 2.343 1.984 2.381-3.141 2.266-2.113 2.265 3.127 2.344 1.26 2.343-1.161 2.343-.463 2.343-3.562 2.381-2.16 2.343-.23 2.345-1.44 2.341-.859 2.343 4.558 2.381-3.011 2.266-5.262 2.265-4.195 2.344 4.224 2.343.52 2.343.258 2.343.495 2.381-2.421 2.343.776 2.345 4.525 2.341-6.181 2.343 4.643 2.381-2.683 2.305-5.84 2.303-1.261 2.344 2.3 2.343-5.41 2.343-2.063 2.343 1.933 2.381-2.062 2.343.907 2.345-5.03 2.341-1.7 2.343 9.521 2.381-12.991 2.266-3.336 2.265-3.57 2.344-1.628 2.343 2.676 2.343-.951 2.343-10.666 2.381 4.287 4.688-13.188 2.341 6.345 2.343 2.098 2.381-8.967 2.266-7.413 2.265 4.6 2.344-6.143 2.343 15.927 2.343-1.962 2.343-6.121 2.381 6.054 2.343 2.434 2.345-1.158 2.341-5.57 2.343 12.966 2.381-9.981 2.266-8.763 2.265-3.803 2.344 3.426 2.343 3.806 2.343-8.743 2.343 2.853 2.381 2.29 2.343 4.596 2.345 2.833 2.341.785 2.343-.818 2.381-3.436 2.305-7.045 2.303-1.987 2.344 1.146 2.343 3.599 2.343-10.057 2.343 8.78 2.381-3.272 2.343-1.518 2.345 11.303 2.34-8.057 2.344 11.035 2.381-5.923 2.266-10.706 2.265-7.162 2.344 12.925 2.343-2.65 2.343 5.761 2.343.555 2.381-5.857 2.343 9.326 2.345-.72 2.34-3.71 2.344 18.894 2.381-9.882 2.266-4.654 2.265 7.042 2.344.909 2.343.368 2.343 2.27 2.343-4.136 2.381-1.145 2.343 5.145 2.345-8.712 2.341 8.746 2.343 9.907 2.381-10.014 2.266-10.888 2.265 7.976 2.344-2.56 2.343 7.665 2.343 6.063 2.343-11.037 2.381 5.857 2.343.987 2.345-5.339 2.341-3.013 2.343 15.84 4.686-14.933 2.303 2.335 2.344-4.662 2.343 7.64 2.343-2.433 2.343 5.902 2.381 9.162 2.343-1.673 2.345 2.557 2.34 2.921 2.344 9.056 2.381-10.897 2.266-2.27 2.265.306 2.344 5.428 2.343 6.288 2.343-4.901h0" style="fill:none;stroke:#d62728;stroke-linecap:square;stroke-width:1.5" id="line2d_27"/><path clip-path="url(#pc15da0c105)" d="m53.303 313.628 2.343-.065 2.343.065 7.067-.135 2.345.07 2.341-.34 2.343.013 2.381-.72 2.266-.337 2.265.14 2.344-.077 2.343-.708 2.343-.476 2.343.181 2.381-1.243 2.343-.121 2.345-.73 2.341-.082 2.343-1.096 2.381-1.473 2.266-1.126 2.265.047 2.344-.579 2.343-.207 2.343-.807 2.343-1.385 2.381.065 2.343-.202 2.345-2.154 2.341-1.6 2.343 1.24 2.381-3.043 2.305-.36 2.303-2.062 2.344-2.571 2.343 2.277 2.343-.079 2.343-1.165 2.381-2.258 2.343 1.698 4.686-2.096 2.343 3.212 2.381-4.908 2.266-1.722 2.265.02 2.344-.694 2.343-1.826 2.343 2.469 2.343-3.745 2.381-2.225 2.343 1.642 2.345-1.053 2.341 1.188 2.343 1.332 2.381-4.68 2.266-6.05 2.265 1.96 2.344.201 2.343 4.74 2.343-3.42 2.343-.147 2.381 3.665 2.343-4.5 2.345 1.031 2.341-1.132 2.343 1.787 2.381-.753 2.266-7.925 2.265 3.606 2.344-9.903 2.343 1.296 2.343-1.803 2.343 2.032 2.381 3.469 2.343-1.037 2.345.71 2.341-.575 2.343 1.327 2.381-6.937 2.305-6.059 2.303 7.662 2.344-.321 2.343.649 2.343-3.118 2.343 5.932 2.381-3.73 2.343 3.682 2.345 1.226 2.34-3.965 2.344 4.62 2.381-8.312 2.266 1.361 2.265-.38 2.344 5.044 2.343-.822 2.343 4.035 2.343.448 2.381-1.276 2.343 4.784 2.345-2.657 2.34-3.531 2.344 4.185 2.381-9.26 2.266 2.618 2.265.163 4.687 10.897 2.343 2.725 2.343-12.902 2.381-5.662 2.343 3.144 2.345-2.555 2.341 3.874 2.343 2.966 2.381-3.37 2.266-4.497 2.265 4.529 2.344-1.522 2.343-.049 2.343.76 2.343-2.625 2.381 4.058 2.343-1.197 2.345-2.73 2.341-1.903 2.343 3.539 2.381-8.475 2.305.874 2.303-3.329 2.344-20.066 2.343 1.217 2.343 2.13 2.343 6.477 2.381 3.763 2.343 1.46 2.345 8.39 2.34-1.12 2.344 3.64 2.381-4.713 2.266-1.912 2.265-1.36 2.344.085 2.343 4.823 2.343-2.32h0" style="fill:none;stroke:#2ca02c;stroke-linecap:square;stroke-width:1.5" id="line2d_28"/><path clip-path="url(#pc15da0c105)" d="m37.556 311.219 1.807.806 2.341.555 2.343.067 2.381-.819 4.53.131 2.345-.495 2.343.004 2.343-.173 2.343-1.594 2.381-.589 2.343.932 2.345.54 2.341-.033 2.343-.555 2.381-1.244 2.266.347 2.265-1.067 2.344.828 4.686-3.212 2.343 2.483 2.381-1.506 4.688.557 2.341-1.06 4.724-.25 2.266-3.113 2.265-.682 2.344 2.15 2.343-1.987 2.343 1.751 2.343-1.783 2.381-.459 2.343.788 2.345-.1 2.341-1.253 2.343.336 2.381-.163 2.305-3.26 2.303.478 2.344-1.888 2.343.383 2.343.564 2.343.025 2.381-2.29 2.343.878 2.345-3.3 2.341 1.272 2.343 1.117 2.381-5.53 2.266 1.07 2.265 1.416 2.344-.711 2.343.22 2.343-.39 2.343-1.835 2.381.033 2.343.991 2.345-2.17 2.341-1.482 2.343-.023 2.381-2.356 2.266-6.157 2.265-.42 2.344 3.073 2.343 1.803 2.343.225 2.343-1.436 2.381 4.81 2.343-4.287 2.345.23 2.341.954 2.343 1.63 2.381-3.73 2.266-1.547 2.265.925 2.344-3.568 2.343.263 2.343-1.514 2.343-2.02 2.381 2.683 4.688-1.21 2.341 1.798 2.343-.588 2.381-1.538 2.305-7.425 2.303 3.433 2.344 1.79 2.343-.252 2.343-4.245 2.343 8.401 2.381-5.727 2.343 4.258 2.345-1.182 2.34-1.726 2.344 1.661 2.381-2.258 2.266-2.828 2.265-1.524 2.344 1.872 2.343-5.374 2.343 4.427 2.343 1.889 2.381-.033 2.343 3.757 2.345-3.953 2.34-2.709 2.344 9.09 2.381-6.577 2.266.91 2.265.104 2.344.396 2.343-1.05 2.343 2.504 2.343-3.093 2.381-1.473 2.343.846 2.345-3.562 2.341-.428 2.343 9.034 2.381-5.04 2.266-2.513 2.265-4.686 2.344-.751 2.343 3.108 2.343 6.022 2.343-11.291 2.381 7.396 2.343-2.665 2.345-5.385 2.341-.093 2.343 4.968 2.381-7.657 2.305-4.896 2.303-.896 2.344-6.195 2.343.304 2.343-3.009 2.343 3.86 2.381 4.484 2.343-1.108 2.345 1.467 2.34.698 2.344 10.003 2.381-7.428 2.266-6.068 2.265-1.982 2.344 4.528 2.343 1.231 2.343-1.367h0" style="fill:none;stroke:#ff7f0e;stroke-linecap:square;stroke-width:1.5" id="line2d_29"/><path clip-path="url(#pc15da0c105)" d="m37.556 301.709 1.807 3.018 2.341-1.142 2.343.782 2.381-2.912 2.266-.906 2.265-2.4 2.344-1.056 2.343-2.216 2.343-4.885 2.343-5.39 2.381-4.058 2.343-.528 2.345-3.988 2.341-1.794 2.343-1.085 2.381-4.778 2.266-3.11 2.265-6.086 2.344.18 2.343-.507 2.343-5.748 2.343.97 2.381-6.348 2.343 2.808 2.345-2.546 2.341-10.473 2.343 3.306 2.381-19.536 2.266-11.887 2.265-9.056 2.344-.43 2.343 7.563 2.343-8.88 2.343-2.377 2.381-9.653 2.343 9.324 2.345 3.504 2.341-15.644 2.343 13.713 4.686-31.939 2.303-8.574 2.344-.826 2.343 2.855 2.343-7.353 2.343-7.961 2.381 5.464 2.343 7.028 2.345-12.329 2.341-4.51 2.343 14.982 2.381-29.026 2.266-10.472 2.265-7.788 2.344-2.898 2.343 20.372 2.343 3.231 2.343-14.39 2.381-4.156 2.343-6.443 2.345-8.871 2.341-2.457 2.343 9.46 2.381-25.918 2.266-21.77 2.265-5.653 2.344 2.255 2.343 43.035 2.343 20.368 2.343-3.482 2.381 17.933 2.343-13.606 2.345-4.262 2.341-2.129 2.343 17.313 2.381-7.003L217 97.225l2.265-2.75 2.344-4.126 2.343 13.256 2.343-5.31 2.343-7.288 2.381 25.655 2.343-9.609 2.345 4.995 2.341-.633 2.343 4.495 2.381-4.516 2.305-18.355 2.303-2.916 2.344-3.73 2.343 18.521 2.343 6.704 2.343 21.766 2.381-5.988 2.343 7.25 2.345 6.723 2.34-7.331 2.344 15.872 2.381-14.628 2.266-21.826 2.265-14.988 2.344 22.145 2.343 8.157 2.343 6.417 2.343 3.106 2.381 4.221 2.343 4.644 2.345 8.086 2.34-9.135 2.344 31.354 2.381-10.668 2.266-3.413 2.265 2.039 2.344-2.134 2.343 9.333 2.343 7.237 2.343-1.805 2.381 4.55 2.343 2.428 2.345-7.697 2.341-1.805 2.343 20.425 2.381-10.734 2.266-11.584 2.265-6.25 2.344 9.09 2.343 11.264 2.343 14.841 2.343-29.436 2.381 19.143 2.343-3.131 2.345-14.67 2.341-10.117 2.343 26.904 2.381-7.592 2.305-13.09 2.303-2.716 2.344-20.886 2.343 6.782 2.343 14.893 2.343 9.814 2.381 14.857 2.343-.223 2.345 9.974 2.34-5.375 2.344 22.883 2.381-17.868 2.266-.65 2.265-8.545 2.344 2.794 2.343 8.398 2.343 2.524h0" style="fill:none;stroke:#1f77b4;stroke-linecap:square;stroke-width:1.5" id="line2d_30"/></g></g><defs><clipPath id="pc15da0c105"><path d="M37.556 47.516h357.12v266.112H37.556z"/></clipPath></defs></svg>