<svg height="458.845" viewBox="0 0 480.209 344.134" width="640.279" xmlns="http://www.w3.org/2000/svg" xmlns:xlink="http://www.w3.org/1999/xlink"><defs><style>*{stroke-linecap:butt;stroke-linejoin:round}</style></defs><g id="figure_1"><path d="M0 344.134h480.21V0H0z" fill="none" id="patch_1"/><g id="axes_1"><path d="M45.341 289.628h357.12V23.516H45.341z" fill="none" id="patch_2"/><path clip-path="url(#p07fe97aaec)" d="M45.341 289.055l9.768-.435 2.494-.615 2.493-.414 2.581-.563 2.58-.925 2.579-.066 2.579-1.203 7.782-.465 2.577-.255 2.58.008 2.621-1.473 2.495-.888 2.493-.092 2.58-.448 2.58-.793 2.58-1.26 2.578-3.196 2.622.438 2.58 1.205 2.58-.24 2.578-1.1 2.579.417 2.621-2.46 2.495-3.696 2.493-2.523 2.581-2.097 2.58-1.054 2.578.216 2.58-1.774 2.621-.91 2.58 3.106 2.58.962 2.578-3.009 2.58 2.65 2.62-3.166 2.538-2.564 2.535 2.028 2.58-1.548 2.58 1.224 2.58-.343 2.579-2.688 2.621.768 2.58 4.965 2.58-4.323 2.578.958 2.58 1.869 2.62-2.595 2.495-1.914 2.493-.525 2.581 1.496 2.58 2.755 2.579 2.41 2.58-1.98 2.62 1.586 2.58-3.787 2.58-2.67 2.578 2.058 2.58 1.199 2.621-2.856 2.495-4.76 2.493.41 2.58 1.352 2.58 4.592 2.58 2.14 2.578-2.204 2.622 3.384 2.58-1.21 2.58 1.337 2.578 2.16 2.579 2.416 2.622.31 2.494-3.642 2.493 1.625 2.581-1.474 2.58 2.581 5.158-1.325 2.621 2.362 2.58.083 2.58.988 2.578 2.945 2.58 1.095 2.62-.733 2.538-.936 2.535 1.535 2.581-.094 2.58 2.103 2.579-1.112 2.579 1.993 2.621.395 2.58.548 2.58.735 2.578.117 2.58.863 2.62.24 2.496-.157 2.492.242 2.581 1.901 2.58-.005 2.579-.6 2.58 1.15 2.62.804 5.161.93 2.578.147 2.579 1.411 2.621-.197 2.495.071 2.493.401 2.58.186 2.58-.052 2.58.57 2.579-.492 2.621.105 2.58.38 2.58.114 5.157 1.05 2.622-.423 2.494.011 2.493.151 2.581-.38 2.58.536 2.579-.171 2.579.023 2.622.486 2.579-.392 2.58-.623 2.578.185 2.58.45 2.621-.212 2.537.081 2.535-.11 2.581-.332h0" fill="none" stroke="#c5b0d5" stroke-linecap="square" stroke-width="1.5" id="line2d_1"/><g id="matplotlib.axis_1"><g id="xtick_1"><g id="line2d_2"><defs><path d="M0 0v3.5" id="m3be111d5fe" stroke="#969696" stroke-width=".8"/></defs><use x="84.664" xlink:href="#m3be111d5fe" y="289.628" fill="#969696" stroke="#969696" stroke-width=".8"/></g><g id="text_1"><defs><path d="M4.39 45.125q0 12.39 6.391 18.781 6.406 6.407 17.938 6.407 9.656 0 15.812-5.86 6.157-5.86 6.157-15.14 0-7.22-3.547-12.188-3.532-4.953-10.422-8.703l-12.11-6.64Q13.922 15.921 12.5 8.296h38.188V0H2.593q.39 9.906 4.297 16.5 3.906 6.594 12.203 11.375l12.593 7.328q5.032 2.89 7.329 5.984 2.297 3.094 2.297 8.516 0 5.375-3.766 9.031-3.75 3.672-10.156 3.672-7.078 0-10.594-4.672-3.516-4.656-3.61-12.609z" id="HelveticaWorld-Regular-50"/><path d="M42.484 34.188q0 14.109-3.734 21.156-3.734 7.062-10.969 7.062-7.078 0-10.89-7.062-3.797-7.047-3.797-21.157 0-13.671 3.75-20.937Q20.609 6 27.78 6q7.235 0 10.969 7 3.734 7.016 3.734 21.188zm9.422 0q0-17.297-6.25-26.704-6.25-9.39-17.875-9.39-12.062 0-18.062 9.734-6 9.75-6 26.36 0 17.03 6.14 26.578 6.157 9.547 17.922 9.547 11.625 0 17.875-9.5t6.25-26.626z" id="HelveticaWorld-Regular-48"/><path d="M35.89 0h-9.374v49.906H10.109v6.985q8.594.28 12.782 2.75Q27.094 62.109 29 70.313h6.89z" id="HelveticaWorld-Regular-49"/></defs><g transform="matrix(.14 0 0 -.14 69.094 306.678)" fill="#969696"><use xlink:href="#HelveticaWorld-Regular-50"/><use x="55.615" xlink:href="#HelveticaWorld-Regular-48"/><use x="111.23" xlink:href="#HelveticaWorld-Regular-49"/><use x="166.846" xlink:href="#HelveticaWorld-Regular-48"/></g></g></g><g id="xtick_2"><use x="146.397" xlink:href="#m3be111d5fe" y="289.628" fill="#969696" stroke="#969696" stroke-width=".8" id="line2d_3"/><g transform="matrix(.14 0 0 -.14 130.826 306.678)" fill="#969696" id="text_2"><use xlink:href="#HelveticaWorld-Regular-50"/><use x="55.615" xlink:href="#HelveticaWorld-Regular-48"/><use x="111.23" xlink:href="#HelveticaWorld-Regular-49"/><use x="166.846" xlink:href="#HelveticaWorld-Regular-50"/></g></g><g id="xtick_3"><use x="208.214" xlink:href="#m3be111d5fe" y="289.628" fill="#969696" stroke="#969696" stroke-width=".8" id="line2d_4"/><g id="text_3"><defs><path d="M10.594 24.703h22.61v31.89h-.188zM42 17.093V0h-8.797v17.094H2.484v8.593L34.72 70.314H42v-45.61h10.297v-7.61z" id="HelveticaWorld-Regular-52"/></defs><g transform="matrix(.14 0 0 -.14 192.644 306.678)" fill="#969696"><use xlink:href="#HelveticaWorld-Regular-50"/><use x="55.615" xlink:href="#HelveticaWorld-Regular-48"/><use x="111.23" xlink:href="#HelveticaWorld-Regular-49"/><use x="166.846" xlink:href="#HelveticaWorld-Regular-52"/></g></g></g><g id="xtick_4"><use x="269.947" xlink:href="#m3be111d5fe" y="289.628" fill="#969696" stroke="#969696" stroke-width=".8" id="line2d_5"/><g id="text_4"><defs><path d="M14.11 21.578q0-6.875 4.093-11.234Q22.313 6 28.906 6q6.297 0 10.032 4.438 3.734 4.453 3.734 11.687 0 6.297-3.688 10.547-3.687 4.25-10.468 4.25-6.594 0-10.5-4.156-3.907-4.157-3.907-11.188zM41.702 51.61q-.984 5.375-3.984 8.078-3 2.72-8.125 2.72-8.11 0-12.36-7.923-4.25-7.906-4.343-18.109l.203-.188q5.61 8.641 16.687 8.641 8.844 0 15.438-5.86 6.593-5.859 6.593-16.452 0-10.5-6.25-17.47-6.25-6.952-16.843-6.952-12.219 0-18.563 8.687-6.344 8.703-6.344 25.938 0 16.593 6.485 27.093 6.5 10.5 19.484 10.5 8.407 0 14.219-5.015 5.813-5 6.297-13.688z" id="HelveticaWorld-Regular-54"/></defs><g transform="matrix(.14 0 0 -.14 254.377 306.678)" fill="#969696"><use xlink:href="#HelveticaWorld-Regular-50"/><use x="55.615" xlink:href="#HelveticaWorld-Regular-48"/><use x="111.23" xlink:href="#HelveticaWorld-Regular-49"/><use x="166.846" xlink:href="#HelveticaWorld-Regular-54"/></g></g></g><g id="xtick_5"><use x="331.765" xlink:href="#m3be111d5fe" y="289.628" fill="#969696" stroke="#969696" stroke-width=".8" id="line2d_6"/><g id="text_5"><defs><path d="M27.594 40.578q5.422 0 8.953 3.094 3.547 3.11 3.547 8.234 0 4.594-3.407 7.547-3.39 2.953-9.687 2.953-5.61 0-8.672-3.11-3.047-3.093-3.047-7.874 0-5.125 3.813-7.984 3.812-2.86 8.5-2.86zm.093-7.562q-6.78 0-10.64-3.766-3.86-3.766-3.86-9.234 0-6.297 3.907-10.157Q21 6 28.219 6q6.406 0 10.234 3.86 3.828 3.859 3.828 10.265 0 5.469-3.828 9.172-3.828 3.719-10.766 3.719zM49.22 52.203q0-10.594-9.032-14.797 6.204-2.781 8.86-7.36 2.656-4.562 2.656-9.733 0-10.016-6.453-16.125-6.438-6.094-17.375-6.094-9.563 0-16.813 5.25-7.25 5.25-7.25 17.062 0 11.922 11.907 16.907-9.516 3.796-9.516 13.671 0 8.297 5.64 13.813 5.641 5.516 15.641 5.516 10.016 0 15.875-5.204 5.86-5.203 5.86-12.906z" id="HelveticaWorld-Regular-56"/></defs><g transform="matrix(.14 0 0 -.14 316.194 306.678)" fill="#969696"><use xlink:href="#HelveticaWorld-Regular-50"/><use x="55.615" xlink:href="#HelveticaWorld-Regular-48"/><use x="111.23" xlink:href="#HelveticaWorld-Regular-49"/><use x="166.846" xlink:href="#HelveticaWorld-Regular-56"/></g></g></g><g id="xtick_6"><use x="393.497" xlink:href="#m3be111d5fe" y="289.628" fill="#969696" stroke="#969696" stroke-width=".8" id="line2d_7"/><g transform="matrix(.14 0 0 -.14 377.927 306.678)" fill="#969696" id="text_6"><use xlink:href="#HelveticaWorld-Regular-50"/><use x="55.615" xlink:href="#HelveticaWorld-Regular-48"/><use x="111.23" xlink:href="#HelveticaWorld-Regular-50"/><use x="166.846" xlink:href="#HelveticaWorld-Regular-48"/></g></g></g><g id="matplotlib.axis_2"><g id="ytick_1"><path clip-path="url(#p07fe97aaec)" d="M45.341 289.628h357.12" fill="none" stroke="#969696" stroke-linecap="square" stroke-width=".2" id="line2d_8"/><use xlink:href="#HelveticaWorld-Regular-48" transform="matrix(.14 0 0 -.14 30.556 294.653)" fill="#969696" id="text_7"/></g><g id="ytick_2"><path clip-path="url(#p07fe97aaec)" d="M45.341 245.919h357.12" fill="none" stroke="#969696" stroke-linecap="square" stroke-width=".2" id="line2d_9"/><g transform="matrix(.14 0 0 -.14 14.985 250.943)" fill="#969696" id="text_8"><use xlink:href="#HelveticaWorld-Regular-50"/><use x="55.615" xlink:href="#HelveticaWorld-Regular-48"/><use x="111.23" xlink:href="#HelveticaWorld-Regular-48"/></g></g><g id="ytick_3"><path clip-path="url(#p07fe97aaec)" d="M45.341 202.209h357.12" fill="none" stroke="#969696" stroke-linecap="square" stroke-width=".2" id="line2d_10"/><g transform="matrix(.14 0 0 -.14 14.985 207.234)" fill="#969696" id="text_9"><use xlink:href="#HelveticaWorld-Regular-52"/><use x="55.615" xlink:href="#HelveticaWorld-Regular-48"/><use x="111.23" xlink:href="#HelveticaWorld-Regular-48"/></g></g><g id="ytick_4"><path clip-path="url(#p07fe97aaec)" d="M45.341 158.5h357.12" fill="none" stroke="#969696" stroke-linecap="square" stroke-width=".2" id="line2d_11"/><g transform="matrix(.14 0 0 -.14 14.985 163.524)" fill="#969696" id="text_10"><use xlink:href="#HelveticaWorld-Regular-54"/><use x="55.615" xlink:href="#HelveticaWorld-Regular-48"/><use x="111.23" xlink:href="#HelveticaWorld-Regular-48"/></g></g><g id="ytick_5"><path clip-path="url(#p07fe97aaec)" d="M45.341 114.79h357.12" fill="none" stroke="#969696" stroke-linecap="square" stroke-width=".2" id="line2d_12"/><g transform="matrix(.14 0 0 -.14 14.985 119.814)" fill="#969696" id="text_11"><use xlink:href="#HelveticaWorld-Regular-56"/><use x="55.615" xlink:href="#HelveticaWorld-Regular-48"/><use x="111.23" xlink:href="#HelveticaWorld-Regular-48"/></g></g><g id="ytick_6"><path clip-path="url(#p07fe97aaec)" d="M45.341 71.08h357.12" fill="none" stroke="#969696" stroke-linecap="square" stroke-width=".2" id="line2d_13"/><g transform="matrix(.14 0 0 -.14 7.2 76.104)" fill="#969696" id="text_12"><use xlink:href="#HelveticaWorld-Regular-49"/><use x="55.615" xlink:href="#HelveticaWorld-Regular-48"/><use x="111.23" xlink:href="#HelveticaWorld-Regular-48"/><use x="166.846" xlink:href="#HelveticaWorld-Regular-48"/></g></g><g id="ytick_7"><path clip-path="url(#p07fe97aaec)" d="M45.341 27.37h357.12" fill="none" stroke="#969696" stroke-linecap="square" stroke-width=".2" id="line2d_14"/><g transform="matrix(.14 0 0 -.14 7.2 32.395)" fill="#969696" id="text_13"><use xlink:href="#HelveticaWorld-Regular-49"/><use x="55.615" xlink:href="#HelveticaWorld-Regular-50"/><use x="111.23" xlink:href="#HelveticaWorld-Regular-48"/><use x="166.846" xlink:href="#HelveticaWorld-Regular-48"/></g></g></g><path clip-path="url(#p07fe97aaec)" d="M45.341 286.391l1.99 1.475 2.577.597 2.579.03 2.622-.338 2.494-.767 2.493-.086 10.319-1.206 2.621.113 5.16-.056 2.578-1.296 2.58.732 2.621-.804 2.495-.535 2.493.471 2.58-.578 2.58.014 2.58-.743 2.578-.208 2.622-.592 2.58.166 2.58.327 2.578-.246 2.579-.445 5.116-2.583 2.493-1.767 2.581.795 5.158-.62 2.58.17 2.621-1.96 2.58 1.856 2.58-.093 2.578-1.276 2.58.734 2.62-1.559 2.538-1.956 2.535-.067 2.58 1.048 2.58.482 2.58.189 2.579-.81 2.621.008 2.58.372 2.58-1.719 2.578.408 2.58 2.102 2.62-2.848 2.495-1.185 2.493-.655 2.581.116 2.58 1.442 2.579.357 2.58-1.041 2.62-.296 2.58.084 2.58-2.206 2.578.91 2.58 1.466 2.621-2.242 2.495-.886 2.493-.404 2.58.79 2.58 1.113 2.58 1.89 2.578-1.051 2.622.606 2.58.874 2.58.057 2.578 1.13 2.579.216 2.622-1.952 2.494-.506 2.493.28 2.581-.879 2.58.562 2.579-1.086 2.579.55 2.621 1.868 2.58.583 2.58.298 2.578 1.188 2.58-.017 2.62-.832 2.538-1.792 2.535.967 2.581-.19 2.58 1.142 2.579-.385 2.579 1.957 2.621.155 2.58-.772 2.58 1.174 2.578.043 2.58 1.332 2.62-1.354 4.988.26 2.581 1.78 2.58.117 2.579.364 2.58-.392 5.2 1.827 2.581-.255 2.578.583 2.579 1.398 2.621-1.015 2.495.173 2.493.532 2.58.26 2.58-.07 2.58.048 2.579.354 2.621.212 2.58.453 2.58-.686 5.157.839 2.622-.733 7.568.777 2.58.28 2.579.063 2.579-.443 2.622-.036 2.579.143 2.58-.693 2.578 1.101 2.58-.05 2.621-.465 2.537.366 2.535-.183 2.581-.826h0" fill="none" stroke="#ff9896" stroke-linecap="square" stroke-width="1.5" id="line2d_15"/><path clip-path="url(#p07fe97aaec)" d="M134.77 289.628l2.578-.014 2.581-.113 2.578.098 2.58.001 2.62-.028 2.538-.027 2.535.055 2.58-.147 2.58.013 2.58-.02 2.579-.057 2.621-.057 2.58.056 2.58-.33 2.578.017 2.58-.06 2.62-.099 2.495.041 2.493.037 2.581-.531 2.58.298 2.579-.13 2.58.187 2.62.042 2.58.069 2.58-.111 2.578-.457 2.58-.587 2.621-.17 2.495-.044 2.493.39 2.58.148 2.58.325 2.58-.2 2.578.052h2.622l2.58.057 2.58-.078 2.578.143 2.579.216 2.622.219 2.494-.164 2.493.15 2.581-.13 2.58.179 2.579.178 2.579-.094 2.621.247 2.58-.007 2.58-.084 2.578-.09 2.58.28 2.62-.148 2.538-.086 2.535.156 2.581.052 2.58.096 2.579-.19 2.579.134 2.621-.141 2.58.065 2.58.118 2.578-.06 2.58-.038h2.62l2.496-.025 2.492-.018 2.581.03 2.58-.368 2.579-.01 2.58.031 2.62.106 2.58.11 2.581-.124 2.578.153 2.579-.012 2.621.056 2.495-.352 2.493-1.298 2.58-.346 2.58-.359 2.58-.355 2.579-.357 2.621-.19 2.58.153 2.58-.202 2.578.239 2.58-.542 2.62-1.974 2.495.407 2.493.333 2.581-.985 2.58-.242 2.579.198 2.579-1.481 2.622-.296 2.579.145 2.58.355 2.578-.282 2.58-.324 2.621-.91 2.537-.605 2.535.359 2.581-5.018" fill="none" stroke="#98df8a" stroke-linecap="square" stroke-width="1.5" id="line2d_16"/><g id="text_14"><defs><path d="M14.984 23.688q0-8.407 4.094-13 4.11-4.579 10.219-4.579 6.687 0 10.39 5.438 3.72 5.453 3.72 14.765 0 10.22-3.563 14.907-3.563 4.687-10.735 4.687-6.984 0-10.562-5.5-3.563-5.5-3.563-16.718zm-8.39 28.609h8.297v-7.375h.203q5.61 8.89 15.625 8.89 10.11 0 15.937-7.359 5.828-7.344 5.828-18.766 0-12.796-5.953-21Q40.578-1.515 29.5-1.515q-9.094 0-13.922 7.032h-.203v-26.22H6.594z" id="HelveticaWorld-Regular-112"/><path d="M39.016 52.297h9.562L29.891.984q-.5-1.375-.985-2.593-4.25-11.329-7.328-15.547-3.078-4.235-9.953-4.235-3.61 0-5.906.782v8.015q2.484-.89 5.468-.89 3.22 0 4.704 2.03 1.5 2.032 4.421 9.938L.875 52.297h9.922L24.812 9.719H25z" id="HelveticaWorld-Regular-121"/><path d="M17.188 45.016V10.984q0-2 1.093-3.046 1.11-1.047 3.938-1.047h3.375V0Q20.797-.688 19-.688q-5.516 0-8.063 2.641-2.53 2.64-2.53 8.547v34.516H1.311v7.28h7.094v14.595h8.781V52.297h8.407v-7.281z" id="HelveticaWorld-Regular-116"/><path d="M49.219 0h-8.844v34.188q0 6.296-2.438 9-2.437 2.718-7.953 2.718-6.797 0-10.703-4.406-3.906-4.39-3.906-12.984V0H6.594v71.781h8.781V45.312h.203q6 8.5 15.328 8.5 8.594 0 13.453-4.5 4.86-4.484 4.86-13.718z" id="HelveticaWorld-Regular-104"/><path d="M12.703 26.219q0-8.735 3.953-14.375 3.953-5.64 11.219-5.64 7.531 0 11.438 5.905 3.906 5.907 3.906 14.11 0 8.297-3.907 14.078-3.906 5.797-11.437 5.797-6.969 0-11.078-5.453-4.094-5.438-4.094-14.422zm-8.984 0q0 11.672 6.484 19.625 6.5 7.968 17.672 7.968 11.438 0 17.875-8.062 6.453-8.047 6.453-19.531 0-11.516-6.406-19.625-6.39-8.11-17.922-8.11-11.078 0-17.625 7.86-6.531 7.86-6.531 19.875z" id="HelveticaWorld-Regular-111"/><path d="M49.219 0h-8.844v32.172q0 7.422-2.594 10.578-2.578 3.156-8.578 3.156-5.906 0-9.875-4.5-3.953-4.484-3.953-12.89V0H6.594v52.297h8.297v-7.375h.203q6.203 8.89 15.812 8.89 8.89 0 13.594-4.718 4.719-4.703 4.719-13.5z" id="HelveticaWorld-Regular-110"/></defs><g transform="matrix(.14 0 0 -.14 406.032 27.044)" fill="#1f77b4"><use xlink:href="#HelveticaWorld-Regular-112"/><use x="54.494" xlink:href="#HelveticaWorld-Regular-121"/><use x="105.104" xlink:href="#HelveticaWorld-Regular-116"/><use x="132.789" xlink:href="#HelveticaWorld-Regular-104"/><use x="187.965" xlink:href="#HelveticaWorld-Regular-111"/><use x="243.873" xlink:href="#HelveticaWorld-Regular-110"/></g></g><g id="text_15"><defs><path d="M15.375 61.813H6.594v9.968h8.781zm0-69.532q0-7.468-3.547-10.375Q8.297-21 2-21q-1.797 0-3.703.297v7.61H.594q3.703 0 4.843 1.109 1.157 1.093 1.157 5.296v58.985h8.781z" id="HelveticaWorld-Regular-106"/><path d="M38.375 26.703q-.969-1.015-3.828-1.656-2.86-.625-10.672-1.656-5.766-.688-8.469-2.844-2.703-2.14-2.703-5.656 0-4.297 2.281-6.688 2.297-2.39 7.329-2.39 6.296 0 11.171 3.578 4.891 3.593 4.891 8.718zM6.203 36.375q.297 8.844 5.734 13.14 5.454 4.297 15.844 4.297 8.297 0 13.907-3.765 5.624-3.75 5.624-10.844V9.078Q47.313 6 50.094 6q1.125 0 2.89.39V0Q50.594-.984 48-.984q-4.5 0-6.703 1.921-2.188 1.938-2.281 6.047-7.516-8.5-18.891-8.5-7.422 0-11.922 4.204Q3.72 6.89 3.72 13.624q0 6.89 3.906 11.125Q11.531 29 19 29.89l15.516 1.891q4.203.64 4.203 6.203 0 4.11-3.047 6.297-3.047 2.203-9.25 2.203-5.516 0-8.485-2.437-2.953-2.438-3.53-7.672z" id="HelveticaWorld-Regular-97"/><path d="M39.406 52.297h9.625L29.11 0h-9.437L.594 52.297h10.203L24.422 9.719h.187z" id="HelveticaWorld-Regular-118"/><path d="M36.078 37.406q-.187 4.688-3.344 6.735-3.14 2.047-9.047 2.047-4.296 0-7.359-1.907-3.047-1.89-3.047-5.468 0-2.829 1.797-4.172 1.813-1.344 7.828-2.86l8.688-2.187q7.906-2 11.297-5.11 3.406-3.093 3.406-8.656 0-7.719-5.64-12.531-5.641-4.813-15.063-4.813-11 0-16.64 4.563-5.626 4.578-5.735 13.75h8.5q.203-5.422 3.594-8.063 3.39-2.625 10.171-2.625 5.516 0 8.766 2.188 3.25 2.203 3.25 6.11 0 2.78-2.11 4.437-2.093 1.672-8.296 3.078l-10.203 2.5q-6.203 1.562-9.157 4.656-2.953 3.094-2.953 8.031 0 7.72 5.516 12.203 5.531 4.5 14.406 4.5 9.485 0 14.531-4.624 5.047-4.61 5.344-11.782z" id="HelveticaWorld-Regular-115"/><path d="M39.594 34.719q-1.89 11.187-12.39 11.187-6.5 0-10.454-5.203-3.953-5.203-3.953-14.484 0-10.11 3.656-15.11 3.672-5 10.64-5 4.688 0 8.11 3.438 3.422 3.437 4.39 8.953h8.5q-1.312-9.703-6.859-14.86-5.547-5.156-14.328-5.156-10.297 0-16.89 7.047-6.594 7.063-6.594 19.172 0 13.281 6.594 21.188 6.593 7.922 18.5 7.922 8.687 0 13.843-5.204 5.157-5.203 5.735-13.89z" id="HelveticaWorld-Regular-99"/><path d="M15.375 0H6.594v52.297h8.297v-8.688h.203q5.703 10.203 14.687 10.203 1.422 0 2.297-.296V44.39h-3.266q-5.906 0-9.671-4.016-3.766-4-3.766-9.953z" id="HelveticaWorld-Regular-114"/><path d="M6.594 61.813v9.968h8.781v-9.969zM15.375 0H6.594v52.297h8.781z" id="HelveticaWorld-Regular-105"/></defs><g transform="matrix(.14 0 0 -.14 406.032 94.442)" fill="#ff7f0e"><use xlink:href="#HelveticaWorld-Regular-106"/><use x="22.021" xlink:href="#HelveticaWorld-Regular-97"/><use x="74.703" xlink:href="#HelveticaWorld-Regular-118"/><use x="121.938" xlink:href="#HelveticaWorld-Regular-97"/><use x="176.869" xlink:href="#HelveticaWorld-Regular-115"/><use x="226.869" xlink:href="#HelveticaWorld-Regular-99"/><use x="278.139" xlink:href="#HelveticaWorld-Regular-114"/><use x="310.707" xlink:href="#HelveticaWorld-Regular-105"/><use x="332.729" xlink:href="#HelveticaWorld-Regular-112"/><use x="389.223" xlink:href="#HelveticaWorld-Regular-116"/></g></g><g transform="matrix(.14 0 0 -.14 406.032 157.594)" fill="#2ca02c" id="text_16"><use xlink:href="#HelveticaWorld-Regular-106"/><use x="22.021" xlink:href="#HelveticaWorld-Regular-97"/><use x="74.703" xlink:href="#HelveticaWorld-Regular-118"/><use x="121.938" xlink:href="#HelveticaWorld-Regular-97"/></g><g id="text_17"><defs><path d="M22.61 41.5l-2-14.203h12.5L35.015 41.5zM35.89 0h-6.593l2.875 21h-12.5L16.797 0h-6.594l2.89 21H2.782l.938 6.297h10.297L15.922 41.5H5.609l.891 6.297h10.297l2.875 21h6.75l-2.938-21h12.407l2.922 21h6.703l-2.938-21h10.297L52 41.5H41.703l-2-14.203H50L49.125 21H38.812z" id="HelveticaWorld-Regular-35"/></defs><g transform="matrix(.14 0 0 -.14 406.032 172.314)" fill="#d62728"><use xlink:href="#HelveticaWorld-Regular-99"/><use x="51.27" xlink:href="#HelveticaWorld-Regular-35"/></g></g><g transform="matrix(.14 0 0 -.14 406.032 187.014)" fill="#9467bd" id="text_18"><use xlink:href="#HelveticaWorld-Regular-112"/><use x="56.494" xlink:href="#HelveticaWorld-Regular-104"/><use x="111.67" xlink:href="#HelveticaWorld-Regular-112"/></g><g id="text_19"><defs><path d="M25.688 50.484h7.328V28.906h21.578v-7.328H33.016V0h-7.328v21.578H4v7.328h21.688z" id="HelveticaWorld-Regular-43"/></defs><g transform="matrix(.14 0 0 -.14 406.032 201.714)" fill="#8c564b"><use xlink:href="#HelveticaWorld-Regular-99"/><use x="51.27" xlink:href="#HelveticaWorld-Regular-43"/><use x="109.863" xlink:href="#HelveticaWorld-Regular-43"/></g></g><use xlink:href="#HelveticaWorld-Regular-114" transform="matrix(.14 0 0 -.14 406.032 216.414)" fill="#e377c2" id="text_20"/><g id="text_21"><defs><path d="M41.5 23.688q0 11.125-3.5 16.671-3.484 5.547-10.61 5.547-6.874 0-10.593-4.5-3.703-4.484-3.703-15.093 0-9.422 3.75-14.813 3.765-5.39 10.36-5.39 5.812 0 10.046 4.39 4.25 4.39 4.25 13.188zm8.406-44.391H41.11V5.516h-.187Q35.89-1.516 27-1.516q-10.984 0-17 8.157-6 8.156-6 21.047 0 11.421 5.906 18.765 5.922 7.36 15.875 7.36 9.907 0 15.625-8.891h.203v7.375h8.297z" id="HelveticaWorld-Regular-113"/><path d="M15.375 0H6.594v71.781h8.781z" id="HelveticaWorld-Regular-108"/></defs><g transform="matrix(.14 0 0 -.14 406.032 231.114)" fill="#7f7f7f"><use xlink:href="#HelveticaWorld-Regular-115"/><use x="49" xlink:href="#HelveticaWorld-Regular-113"/><use x="105.494" xlink:href="#HelveticaWorld-Regular-108"/></g></g><g id="text_22"><defs><path d="M25.594 0h-8.985L1.516 52.297h9.468L21 11.187h.188l10.109 41.11h9.922l10.203-41.11h.187l10.594 41.11h8.703L55.812 0h-9.234L35.984 40.484h-.187z" id="HelveticaWorld-Regular-119"/><path d="M17.188 45.016V0H8.405v45.016H1.22v7.28h7.187v8.985q0 5.907 3.578 8.703 3.594 2.813 10.032 2.813 2.203 0 3.968-.188v-7.906q-1.562.188-3.578.188-2.922 0-4.078-1.438-1.14-1.437-1.14-4.656v-6.5h8.796v-7.281z" id="HelveticaWorld-Regular-102"/></defs><g transform="matrix(.14 0 0 -.14 406.032 245.814)" fill="#bcbd22"><use xlink:href="#HelveticaWorld-Regular-115"/><use x="48" xlink:href="#HelveticaWorld-Regular-119"/><use x="120.412" xlink:href="#HelveticaWorld-Regular-105"/><use x="142.434" xlink:href="#HelveticaWorld-Regular-102"/><use x="170.119" xlink:href="#HelveticaWorld-Regular-116"/></g></g><g id="text_23"><defs><path d="M42.484 30.328q-.687 8.485-4.5 12.031-3.797 3.547-10.109 3.547-6.39 0-10.328-4.5-3.922-4.484-4.172-11.078zm8.391-13.922q-1.453-8.11-7.953-13.422-5.719-4.5-15.047-4.593-10.984.093-17.438 7.203Q4 12.704 4 24.704q0 13.78 6.64 21.437 6.641 7.672 18.47 7.672 10.593 0 16.546-7.922 5.953-7.907 5.953-22.594H13.375q0-8.203 3.813-12.703Q21 6.109 28.608 6.109q5.375 0 9.235 3.235 3.86 3.25 4.25 7.062z" id="HelveticaWorld-Regular-101"/></defs><g transform="matrix(.14 0 0 -.14 406.032 260.466)" fill="#17becf"><use xlink:href="#HelveticaWorld-Regular-116"/><use x="27.686" xlink:href="#HelveticaWorld-Regular-121"/><use x="77.295" xlink:href="#HelveticaWorld-Regular-112"/><use x="133.789" xlink:href="#HelveticaWorld-Regular-101"/><use x="189.209" xlink:href="#HelveticaWorld-Regular-115"/><use x="239.209" xlink:href="#HelveticaWorld-Regular-99"/><use x="290.479" xlink:href="#HelveticaWorld-Regular-114"/><use x="323.047" xlink:href="#HelveticaWorld-Regular-105"/><use x="345.068" xlink:href="#HelveticaWorld-Regular-112"/><use x="401.563" xlink:href="#HelveticaWorld-Regular-116"/></g></g><use xlink:href="#HelveticaWorld-Regular-99" transform="matrix(.14 0 0 -.14 406.032 275.214)" fill="#aec7e8" id="text_24"/><g id="text_25"><defs><path d="M50 0H38.719L22.406 26.422l-7.312-6.594V0h-8.5v71.781h8.5v-41.61l22.5 22.126H48.78L28.813 32.813z" id="HelveticaWorld-Regular-107"/></defs><g transform="matrix(.14 0 0 -.14 406.032 289.914)" fill="#ffbb78"><use xlink:href="#HelveticaWorld-Regular-107"/><use x="47.625" xlink:href="#HelveticaWorld-Regular-111"/><use x="103.533" xlink:href="#HelveticaWorld-Regular-116"/><use x="131.219" xlink:href="#HelveticaWorld-Regular-108"/><use x="153.24" xlink:href="#HelveticaWorld-Regular-105"/><use x="175.262" xlink:href="#HelveticaWorld-Regular-110"/></g></g><g id="text_26"><defs><path d="M13.094 26.313q0-9.704 3.844-14.954 3.859-5.25 10.265-5.25 6.094 0 10.188 4.485 4.109 4.5 4.109 13.094 0 11.03-3.5 16.625-3.484 5.593-10.61 5.593-6.78 0-10.546-4.453-3.75-4.437-3.75-15.14zM50.39 0h-8.297v7.172h-.203q-4.97-8.688-15.078-8.688-10.891 0-16.86 8.297Q4 15.094 4 27.688q0 11.625 5.906 18.875 5.922 7.25 15.875 7.25 9.813 0 15.625-8.891l.203.594V71.78h8.782z" id="HelveticaWorld-Regular-100"/></defs><g transform="matrix(.14 0 0 -.14 406.032 304.614)" fill="#98df8a"><use xlink:href="#HelveticaWorld-Regular-100"/><use x="56.982" xlink:href="#HelveticaWorld-Regular-97"/><use x="111.914" xlink:href="#HelveticaWorld-Regular-114"/><use x="145.982" xlink:href="#HelveticaWorld-Regular-116"/></g></g><g id="text_27"><defs><path d="M6.11 52.297h8.78V17.578q0-5.765 2.61-8.625Q20.125 6.11 25 6.11q6.781 0 10.594 4.797 3.812 4.813 3.812 12.578v28.813h8.782V0H39.89v7.625l-.188.188q-4.984-9.329-16.61-9.329-7.515 0-12.25 4.094Q6.11 6.688 6.11 14.703z" id="HelveticaWorld-Regular-117"/><path d="M43.406 26.313q0 10.5-3.718 15.046-3.704 4.547-10.579 4.547-6.984-.11-10.562-5.453Q14.984 35.11 14.984 25q0-10.297 4.297-14.594Q23.578 6.11 29.297 6.11q6.5 0 10.297 5.344 3.812 5.344 3.812 14.86zM6.594 0v71.781h8.781V45.703h.203q5.61 8.11 15.14 8.11 9.766 0 15.766-7.25t6-18.876q0-13.093-6.062-21.156Q40.375-1.516 29.5-1.516q-9.578 0-14.406 8.016h-.203V0z" id="HelveticaWorld-Regular-98"/></defs><g transform="matrix(.14 0 0 -.14 406.032 319.266)" fill="#ff9896"><use xlink:href="#HelveticaWorld-Regular-114"/><use x="32.568" xlink:href="#HelveticaWorld-Regular-117"/><use x="87.354" xlink:href="#HelveticaWorld-Regular-98"/><use x="141.848" xlink:href="#HelveticaWorld-Regular-121"/></g></g><g id="text_28"><defs><path d="M28.906 23.188H4.391v8.984h24.515z" id="HelveticaWorld-Regular-45"/></defs><g transform="matrix(.14 0 0 -.14 406.032 333.994)" fill="#c5b0d5"><use xlink:href="#HelveticaWorld-Regular-111"/><use x="55.908" xlink:href="#HelveticaWorld-Regular-98"/><use x="112.402" xlink:href="#HelveticaWorld-Regular-106"/><use x="134.424" xlink:href="#HelveticaWorld-Regular-101"/><use x="189.844" xlink:href="#HelveticaWorld-Regular-99"/><use x="241.113" xlink:href="#HelveticaWorld-Regular-116"/><use x="268.799" xlink:href="#HelveticaWorld-Regular-105"/><use x="290.82" xlink:href="#HelveticaWorld-Regular-118"/><use x="338.43" xlink:href="#HelveticaWorld-Regular-101"/><use x="393.85" xlink:href="#HelveticaWorld-Regular-45"/><use x="427.15" xlink:href="#HelveticaWorld-Regular-99"/></g></g><g id="text_29"><defs><path d="M50.39 50.781q-.296 6.844-5.109 10.719-4.797 3.875-12.656 3.875-7.922 0-12.172-3.25-4.234-3.234-4.234-9.344 0-3.265 1.843-5.61 1.86-2.343 6.641-3.468l20.516-4.687q8.297-1.813 12.297-6.875 4.015-5.047 4.015-12.313 0-10.64-7.812-16.187-7.813-5.547-20.313-5.547-9.531 0-15.031 2.437-5.484 2.453-9.734 7.766-4.25 5.328-4.25 14.89h9.093q0-8 5.313-12.406 5.328-4.39 14.5-4.39 8.89 0 13.844 3.156 4.953 3.156 4.953 8.953 0 5.281-2.953 7.89Q46.188 29 37.594 31l-15.469 3.625q-7.719 1.75-11.531 6.125Q6.78 45.125 6.78 51.516q0 9.672 6.516 15.922 6.531 6.25 18.203 6.25 13.172 0 20.328-5.5 7.156-5.485 7.688-17.407z" id="HelveticaWorld-Regular-83"/><path d="M63.922 35.89q0 12.594-6.672 20.891-6.656 8.313-18.328 8.313-11.531 0-18.266-8.313-6.734-8.297-6.734-20.89 0-12.985 6.828-21.094 6.844-8.11 18.172-8.11 11.078 0 18.031 7.907 6.969 7.922 6.969 21.297zm9.953 0q0-16.062-9.281-26.937-9.266-10.86-25.672-10.86-16.516 0-25.766 10.86-9.25 10.875-9.25 26.938 0 16.109 9.25 26.953 9.25 10.843 25.766 10.843 16.89 0 25.922-11.046 9.031-11.032 9.031-26.75z" id="HelveticaWorld-Regular-79"/><path d="M44 29.5L33.406 61.078h-.203L21.687 29.5zm-25.297-8.594L11.188 0h-9.97l27 71.781h10.985L65.187 0H54.594l-7.078 20.906z" id="HelveticaWorld-Regular-65"/><path d="M17.828 38.625H37.11q7.282 0 10.938 3.188 3.656 3.203 3.656 9.703 0 5.812-3.516 8.89-3.515 3.078-10.687 3.078H17.828zm0-38.625H8.11v71.781h32.266q9.625 0 15.484-5.594 5.86-5.593 5.86-14.578 0-9.328-5.672-15.312-5.656-5.969-15.672-5.969H17.828z" id="HelveticaWorld-Regular-80"/><path d="M17.828 0H8.11v71.781h9.72z" id="HelveticaWorld-Regular-73"/><path d="M9.422 73.688h7.281V-1.906H9.422z" id="HelveticaWorld-Regular-124"/><path d="M55.61 71.781h9.374V0h-10.78L17.577 58.016h-.187V0H8.109v71.781h11.375l35.938-57.969h.187z" id="HelveticaWorld-Regular-78"/><path d="M12.703 26.219q0-8.735 3.953-14.375 3.953-5.64 11.219-5.64 7.531 0 11.438 5.905 3.906 5.907 3.906 14.11 0 8.297-3.907 14.078-3.906 5.797-11.437 5.797-6.969 0-11.078-5.453-4.094-5.438-4.094-14.422zm-8.984 0q0 11.672 6.484 19.625 6.5 7.968 17.672 7.968 11.438 0 17.875-8.062 6.453-8.047 6.453-19.531 0-11.516-6.406-19.625-6.39-8.11-17.922-8.11-11.078 0-17.625 7.86-6.531 7.86-6.531 19.875zm36.734 35.406H31.47v10.156h8.984zm-16.219 0H15.25v10.156h8.984z" id="HelveticaWorld-Regular-246"/><path d="M6.594 52.297h8.297v-7.375h.203q5.906 8.89 15.812 8.89 9.813 0 13.922-8.5 3.75 4.594 7.266 6.547 3.515 1.953 8.703 1.953 6.781 0 11.484-4.453Q77 44.922 77 36.187V0h-8.781v33.797q0 6.094-2.297 9.094-2.297 3.015-7.422 3.015-5.172 0-8.75-4.203-3.563-4.203-3.563-9.812V0h-8.78v36.188q0 4.53-2.11 7.124-2.094 2.594-6.094 2.594-6.297 0-10.062-4.687-3.766-4.688-3.766-12.703V0H6.594z" id="HelveticaWorld-Regular-109"/><path d="M58.016 50.203q-1.625 7.313-6.782 11.094-5.14 3.797-13.343 3.797-10.594 0-17.047-7.703-6.438-7.688-6.438-20.766 0-15.14 6.094-22.547 6.11-7.39 17.688-7.39 7.609 0 13.093 5.046 5.5 5.063 7.407 14.688h9.421Q66.22 12.594 57.625 5.344t-20.906-7.25q-14.703 0-23.516 10.11Q4.391 18.311 4.391 36.28q0 17.328 9.203 27.36 9.203 10.047 24.297 10.047 12.5 0 20.265-6.454 7.766-6.437 9.235-17.03z" id="HelveticaWorld-Regular-67"/><path d="M8.11 71.781h31.484q9.281 0 14.797-5.031 5.515-5.031 5.515-13.031 0-4.844-2.422-8.828-2.406-3.97-7.187-6.172 6.687-2.532 9.828-6.735 3.156-4.203 3.156-10.797 0-9.265-6.687-15.234Q49.906 0 38.922 0H8.109zm9.562-63.484h20.703q7.625 0 11.422 3.531 3.812 3.547 3.812 9.563 0 6.093-4.25 9.093Q45.125 33.5 36.812 33.5h-19.14zm0 33.11h17.625q7.719 0 11.312 2.796 3.594 2.813 3.594 8.781 0 5.125-3.406 7.813-3.39 2.687-11.39 2.687H17.671z" id="HelveticaWorld-Regular-66"/><path d="M37.313 0h-9.72v28.906L.485 71.781h11.329l20.609-34.469 20.562 34.47h11.422L37.312 28.905z" id="HelveticaWorld-Regular-89"/></defs><g transform="matrix(.09716 0 0 -.09716 45.341 323.214)" fill="#969696"><use xlink:href="#HelveticaWorld-Regular-83"/><use x="66.211" xlink:href="#HelveticaWorld-Regular-116"/><use x="93.896" xlink:href="#HelveticaWorld-Regular-97"/><use x="148.828" xlink:href="#HelveticaWorld-Regular-99"/><use x="200.098" xlink:href="#HelveticaWorld-Regular-107"/><use x="250.098" xlink:href="#HelveticaWorld-Regular-79"/><use x="327.881" xlink:href="#HelveticaWorld-Regular-118"/><use x="375.49" xlink:href="#HelveticaWorld-Regular-101"/><use x="430.91" xlink:href="#HelveticaWorld-Regular-114"/><use x="464.979" xlink:href="#HelveticaWorld-Regular-102"/><use x="492.664" xlink:href="#HelveticaWorld-Regular-108"/><use x="514.686" xlink:href="#HelveticaWorld-Regular-111"/><use x="569.094" xlink:href="#HelveticaWorld-Regular-119"/><use x="641.506" xlink:href="#HelveticaWorld-Regular-32"/><use x="665.92" xlink:href="#HelveticaWorld-Regular-65"/><use x="732.619" xlink:href="#HelveticaWorld-Regular-80"/><use x="797.268" xlink:href="#HelveticaWorld-Regular-73"/><use x="823.049" xlink:href="#HelveticaWorld-Regular-32"/><use x="847.463" xlink:href="#HelveticaWorld-Regular-118"/><use x="897.072" xlink:href="#HelveticaWorld-Regular-105"/><use x="919.094" xlink:href="#HelveticaWorld-Regular-97"/><use x="974.025" xlink:href="#HelveticaWorld-Regular-32"/><use x="998.439" xlink:href="#HelveticaWorld-Regular-104"/><use x="1053.615" xlink:href="#HelveticaWorld-Regular-111"/><use x="1109.523" xlink:href="#HelveticaWorld-Regular-116"/><use x="1137.209" xlink:href="#HelveticaWorld-Regular-119"/><use x="1207.246" xlink:href="#HelveticaWorld-Regular-97"/><use x="1262.178" xlink:href="#HelveticaWorld-Regular-114"/><use x="1293.746" xlink:href="#HelveticaWorld-Regular-101"/><use x="1349.166" xlink:href="#HelveticaWorld-Regular-32"/><use x="1373.58" xlink:href="#HelveticaWorld-Regular-124"/><use x="1399.557" xlink:href="#HelveticaWorld-Regular-32"/><use x="1423.971" xlink:href="#HelveticaWorld-Regular-78"/><use x="1497.066" xlink:href="#HelveticaWorld-Regular-105"/><use x="1519.088" xlink:href="#HelveticaWorld-Regular-99"/><use x="1570.357" xlink:href="#HelveticaWorld-Regular-111"/><use x="1626.266" xlink:href="#HelveticaWorld-Regular-32"/><use x="1650.68" xlink:href="#HelveticaWorld-Regular-83"/><use x="1716.891" xlink:href="#HelveticaWorld-Regular-99"/><use x="1768.16" xlink:href="#HelveticaWorld-Regular-104"/><use x="1823.336" xlink:href="#HelveticaWorld-Regular-108"/><use x="1845.357" xlink:href="#HelveticaWorld-Regular-246"/><use x="1901.266" xlink:href="#HelveticaWorld-Regular-109"/><use x="1984.273" xlink:href="#HelveticaWorld-Regular-101"/><use x="2039.693" xlink:href="#HelveticaWorld-Regular-114"/><use x="2072.262" xlink:href="#HelveticaWorld-Regular-32"/><use x="2096.676" xlink:href="#HelveticaWorld-Regular-124"/><use x="2122.652" xlink:href="#HelveticaWorld-Regular-32"/><use x="2147.066" xlink:href="#HelveticaWorld-Regular-67"/><use x="2219.381" xlink:href="#HelveticaWorld-Regular-67"/><use x="2291.695" xlink:href="#HelveticaWorld-Regular-32"/><use x="2316.109" xlink:href="#HelveticaWorld-Regular-66"/><use x="2378.922" xlink:href="#HelveticaWorld-Regular-89"/></g></g><g id="text_30"><defs><path d="M17.828 8.297h18.797q9.766 0 15.281 7.5 5.516 7.5 5.516 20.484 0 12.844-5.563 19.969-5.562 7.125-16.062 7.234H17.828zM8.11 71.78h29.094q14.11 0 22.094-9.703 7.984-9.687 7.984-25.156 0-16.61-7.984-26.766Q51.313 0 36.813 0H8.108z" id="HelveticaWorld-Regular-68"/></defs><g transform="matrix(.14 0 0 -.14 87.834 17.516)" fill="#969696"><use xlink:href="#HelveticaWorld-Regular-68"/><use x="72.021" xlink:href="#HelveticaWorld-Regular-97"/><use x="126.953" xlink:href="#HelveticaWorld-Regular-105"/><use x="148.975" xlink:href="#HelveticaWorld-Regular-108"/><use x="170.996" xlink:href="#HelveticaWorld-Regular-121"/><use x="220.605" xlink:href="#HelveticaWorld-Regular-32"/><use x="245.02" xlink:href="#HelveticaWorld-Regular-110"/><use x="300.195" xlink:href="#HelveticaWorld-Regular-117"/><use x="354.98" xlink:href="#HelveticaWorld-Regular-109"/><use x="437.988" xlink:href="#HelveticaWorld-Regular-98"/><use x="494.482" xlink:href="#HelveticaWorld-Regular-101"/><use x="549.902" xlink:href="#HelveticaWorld-Regular-114"/><use x="582.471" xlink:href="#HelveticaWorld-Regular-32"/><use x="606.885" xlink:href="#HelveticaWorld-Regular-111"/><use x="662.793" xlink:href="#HelveticaWorld-Regular-102"/><use x="690.479" xlink:href="#HelveticaWorld-Regular-32"/><use x="714.893" xlink:href="#HelveticaWorld-Regular-113"/><use x="771.387" xlink:href="#HelveticaWorld-Regular-117"/><use x="826.172" xlink:href="#HelveticaWorld-Regular-101"/><use x="881.592" xlink:href="#HelveticaWorld-Regular-115"/><use x="931.592" xlink:href="#HelveticaWorld-Regular-116"/><use x="959.277" xlink:href="#HelveticaWorld-Regular-105"/><use x="981.299" xlink:href="#HelveticaWorld-Regular-111"/><use x="1037.207" xlink:href="#HelveticaWorld-Regular-110"/><use x="1092.383" xlink:href="#HelveticaWorld-Regular-115"/><use x="1142.383" xlink:href="#HelveticaWorld-Regular-32"/><use x="1166.797" xlink:href="#HelveticaWorld-Regular-111"/><use x="1222.705" xlink:href="#HelveticaWorld-Regular-110"/><use x="1277.881" xlink:href="#HelveticaWorld-Regular-32"/><use x="1302.295" xlink:href="#HelveticaWorld-Regular-83"/><use x="1368.506" xlink:href="#HelveticaWorld-Regular-116"/><use x="1396.191" xlink:href="#HelveticaWorld-Regular-97"/><use x="1451.123" xlink:href="#HelveticaWorld-Regular-99"/><use x="1502.393" xlink:href="#HelveticaWorld-Regular-107"/><use x="1552.393" xlink:href="#HelveticaWorld-Regular-79"/><use x="1630.176" xlink:href="#HelveticaWorld-Regular-118"/><use x="1677.785" xlink:href="#HelveticaWorld-Regular-101"/><use x="1733.205" xlink:href="#HelveticaWorld-Regular-114"/><use x="1767.273" xlink:href="#HelveticaWorld-Regular-102"/><use x="1794.959" xlink:href="#HelveticaWorld-Regular-108"/><use x="1816.98" xlink:href="#HelveticaWorld-Regular-111"/><use x="1871.389" xlink:href="#HelveticaWorld-Regular-119"/></g></g><path clip-path="url(#p07fe97aaec)" d="M101.281 289.628l2.622-.007 2.58.007H111.64l2.579-.007 2.621.007h2.495l2.493-.007 2.581.007h18.097l2.58-.014 2.62.014 2.538-.022 2.535.008h2.58l2.58.007H163.1l2.621.007h2.58l2.58-.007 2.578.007h2.58l2.62-.007 2.495-.008 2.493.015 2.581-.022 2.58.015H196.586l2.58.007 2.58-.014 2.578.007 2.58-.028 2.621.028 2.495-.008 2.493.001 2.58-.008 2.58-.013 2.58.02 2.578-.006 2.622-.007 2.58-.066 2.58-.04 2.578.076 2.579-.033 2.622-.029 2.494-.13 2.493.081 2.581-.057 2.58.1 2.579-.1 2.579.029 2.621.063 2.58.003 2.58-.278 2.578-.18 2.58.089 2.62-.127 2.538-.337 2.535.027 2.581.187 2.58.024 2.579-.024 2.579.172 2.621-.021 2.58-.18 2.58.01 2.578-.214 2.58.236 2.62-.268 2.496.063 2.492-.324 2.581.227 2.58-1.672 2.579-1.33 2.58.385 2.62-.373 2.58.419 2.581-.603 2.578-.927 2.579.998 2.621-.487 2.495-.348 2.493-.71 2.58.008 2.58-.127 2.58.076 2.579-.9 2.621-.452 2.58.208 2.58-1.139 2.578.032 2.58 1.202 2.62-1.53 2.495-.189 2.493-.079 2.581-.082 2.58-.143 2.579-.855 2.579-1.218 2.622 1.065 2.579-.794 2.58-.222 2.578-.463 2.58 1.436 2.621-1.811 2.537-.338 2.535-.896 2.581-2.397" fill="none" stroke="#ffbb78" stroke-linecap="square" stroke-width="1.5" id="line2d_17"/><path clip-path="url(#p07fe97aaec)" d="M45.341 286.186l1.99 1.306 2.577.25 2.579.582 2.622-.959 2.494-.328 2.493-.447 2.581-.306 2.58-.04 2.579-.302 2.579-.135 2.621.07 2.58-.416 2.58-1.29 2.578-1.595 2.58 1.053 2.621-.93 2.495-1.141 2.493.188 2.58-.758 2.58.321 2.58-.131 5.2-1.215 2.58-.424 2.58-.098 2.578-2.022 2.579 1.853 2.621.028 2.495-2.488 2.493-2.06 2.581-.014 2.58 2.01 2.578-.014 2.58 1.198 5.2-2.284 2.581-1.12 2.578-.956 2.58 1.872 2.62-1.58 2.538-2.458 2.535-1.13 2.58-.128 2.58 1.919 2.58.631 2.579.116 2.621.388 2.58-2.056 2.58-3.76 2.578-1.04 2.58 5.107 2.62-2.382 2.495-3.78 2.493-.098 2.581-1.528 2.58 3.276 2.579 1.095 2.58.23 2.62.078 2.58-3.557 2.58-5.163 2.578-1.328 2.58 6.538 2.621-1.692 2.495-4.673 2.493-1.25 2.58 3 2.58 6.25 2.58 2.834 2.578.184 2.622 1.149 2.58-4.72 2.58-3.282 2.578.025 2.579 4.614 2.622-.409 2.494-3.672 2.493-1.284 2.581-1.172 2.58 3.985 2.579 1.741 2.579 3.25 2.621 1.685 2.58-4.389 2.58-3.436 2.578-.417 2.58 4.604 2.62.275 2.538-3.215 2.535.31 2.581-.051 2.58 5.262 2.579 2.416 2.579.256 2.621.916 2.58-2.694 2.58-4.384 2.578-1.138 2.58 4.092 2.62.26 2.496-1.854 2.492.346 2.581.12 2.58 1.537 2.579 2.099 2.58 2.772 2.62.007 2.58-.863 2.581-4.424 2.578-1.856 2.579 6.058 2.621-.184 2.495-1.038 2.493-.788 2.58 1.452 2.58-.747 2.58 3.414 2.579 1.768 2.621-.733 2.58-1.691 2.58-4.16 2.578-1.129 2.58 2.806 2.62-.57 2.495.113 2.493-.91 2.581-1.286 2.58 2.914 2.579 1.552 2.579.034 2.622 1.495 2.579-4.4 2.58-3.708 2.578-1.063 2.58 4.173 2.621.74 2.537-.172 2.535-3.297 2.581-7.389h0" fill="none" stroke="#aec7e8" stroke-linecap="square" stroke-width="1.5" id="line2d_18"/><path clip-path="url(#p07fe97aaec)" d="M168.3 289.628l2.58-1.953 2.578.912 2.58.47 2.62-.106 2.495.13 2.493-.27 2.581.132 2.58.15 2.579-.15 2.58-.076 2.62.007 2.58.128 2.58.048 2.578-.077 2.58-.205 2.621-.176 2.495.107 2.493.09 2.58-.18 2.58.046 2.58.201 2.578-.363 2.622.275 2.58.022 2.58-.163 2.578.222 2.579-.067 2.622-.155 2.494-.006 2.493-.107 2.581-.16 2.58-.467 2.579-.146 2.579-.15 2.621-.057 2.58-.091 2.58-.184 2.578-.588 2.58-.589 2.62-.825 2.538-1.266 2.535-.285 2.581-.933 2.58-.646 2.579-.57 2.579-.974 2.621-.634 2.58-.17 2.58-.67 2.578.247 2.58.416 2.62-1.113 2.496-1.176 2.492-.798 2.581.267 2.58-.824 2.579-.21 2.58-.037 2.62-.938 2.58 1.048 2.581.545 2.578-1.47 2.579 2.302 2.621-1.621 2.495-1.503 2.493-.372 2.58.392 2.58.454 2.58-.417 2.579-.76 2.621-1.84 2.58.96 2.58-1.327 2.578 1.553 2.58 1.19 2.62-2.757 2.495-2.352 2.493 1.654 2.581-1.071 2.58.704 2.579.345 2.579-1.938 2.622 1.776 2.579-.756 2.58-.865 2.578-2.085 2.58 2.966 2.621-.613 2.537-2.495 2.535-.776 2.581-5.092" fill="none" stroke="#17becf" stroke-linecap="square" stroke-width="1.5" id="line2d_19"/><path clip-path="url(#p07fe97aaec)" d="M52.487 289.628l43.636-.007 123.55-.063 2.58-17.494 2.578 5.96 2.622-.416 2.58-1.887 2.58-3.513 2.578-1.317 2.579 1.084 5.116-7.714 2.493-.083 2.581-3.996 2.58 2.558 5.158-9.56 2.621.536 2.58 2.62 2.58 2.865 2.578-1.146 2.58.596 2.62-2.947 2.538-2.016 2.535-.022 2.581 1.147 2.58 3.457 2.579-3.784 5.2.365 2.58-.868 2.58 2.18 2.578 1.557 2.58 4.054 2.62-2.827 2.496-1.11 2.492-.892 2.581 4.017 2.58-.358 2.579-1.638 2.58-.09 2.62 1.093 2.58 2.02 2.581.01 2.578.726 2.579 4.139 2.621-3.842 2.495-.213 2.493-1.98 2.58 2.53 2.58.614 2.58 2.496 2.579-4.92 2.621-.537 2.58 3.01 2.58-.182 2.578 1.435 2.58 2.357 2.62-1.106 2.495-.602 2.493.193 2.581-2.22 2.58.154 2.579-1.902 2.579-.847 2.622 4.575 2.579-.53 2.58-3.686 2.578.204 2.58 3.35 7.693-3.582 2.581-5.02h0" fill="none" stroke="#bcbd22" stroke-linecap="square" stroke-width="1.5" id="line2d_20"/><path clip-path="url(#p07fe97aaec)" d="M45.341 284.451l1.99 1.413 2.577.741 2.579.013 5.116-2.204 2.493.561 2.581-.774 2.58-.53 2.579-.781 2.579-.932 2.621.36 2.58-2.568 2.58-.542 2.578 1.554 2.58.498 2.621-.486 2.495-1.215 2.493-.238 2.58.655 2.58-.57 2.58-1.63 2.578-1.07 2.622-.571 2.58.817 2.58-.387 2.578-1.332 2.579 1.043 2.621-3.243 2.495-.061 2.493-2.09 2.581 1.998 2.58-2.392 2.578-.252 2.58.512 5.2-.039 2.581.554 2.578-2.36 2.58 2.424 2.62-1.53 2.538-4.013 2.535-1.684 2.58 1.16 2.58-.49 2.58.709 2.579-2.239 2.621.226 2.58-.217 2.58-2.674 2.578-2.461 2.58 4.104 2.62-5.534 2.495-2.929 2.493-1.245 2.581.162 2.58 1.629 2.579.673 2.58-3.599 2.62.226 5.16-10.335 2.578.398 2.58 3.817 2.621-5.738 2.495-4.611 2.493-.338 2.58-2.404 2.58 9.214 2.58 1.422 2.578-1.979 2.622 4.582 2.58-2.406 2.58 7.85 2.578 7.26 2.579 1.573 2.622-1.869 2.494-2.643 2.493-1.121 2.581-.443 2.58 2.642 2.579-1.593 2.579.247 2.621 2.785 5.16.204 2.578-.533 2.58 2.049 2.62-1.756 2.538-3.667 2.535-.859 2.581-.087 2.58 1.843 2.579-1.938 2.579 5.385 2.621-.656 2.58.028 2.58-.951 2.578-2.014 2.58 5.13 2.62-1.502 2.496-3.755 2.492-3.231 2.581 3.475 2.58-1.945 2.579 1.085 2.58 1.276 2.62 1.51 2.58 1.629 2.581-1.665 2.578-1.125 2.579 7.09 2.621-3.484 2.495-2.351 2.493-1.371 2.58-.97 2.58.716 2.58 1.499 2.579-.857 2.621.57 2.58 3.769 2.58-3.606 2.578.7 2.58 5.54 2.62-3.42 2.495-4.888 2.493.164 2.581 1.43 5.159 4.277 2.579-4.635 2.622 4.463 2.579-3.245 2.58-2.846 2.578-1.43 2.58 4.947 2.621-2.002 2.537-3.577 2.535.49 2.581-5.227h0" fill="none" stroke="#7f7f7f" stroke-linecap="square" stroke-width="1.5" id="line2d_21"/><path clip-path="url(#p07fe97aaec)" d="M45.341 289.546l1.99.082 20.505-.036 2.579-.323 2.621.028 2.58-.681 2.58.498 2.578-.17 2.58.12 2.621-.098 2.495-.29 2.493-.028 2.58-.185 2.58.185 7.78-1.015 5.16.487 2.578-.255 2.579.191 2.621-.19 2.495-.751 5.074-.954 2.58.45 2.578-.217 2.58.034 2.621-.938 2.58-.32 2.58.08 2.578-.051 2.58.1 2.62-.535 2.538-1.27 2.535-.147 2.58.11 2.58-.047 5.159-1.706 2.621.226 2.58-.024 2.58-1.217 2.578-.88 2.58 1.225 2.62-2.072 2.495-2.408 2.493-.01 2.581-.371 2.58.836 2.579-.355 2.58-.978 2.62.353 2.58 1.076 2.58-2.303 2.578-1.15 2.58 2.504 2.621-3.159 2.495-3.842 2.493.536 2.58-.075 2.58 1.675 2.58.81 2.578-1.17 2.622 1.143 2.58.194 2.58-2.33 2.578-.147 2.579 3.129 2.622-2.397 2.494-4.186 2.493-1.92 2.581.887 2.58.08 2.579-.845 2.579-3.061 2.621 3.454 2.58.335 2.58-1.695 2.578.158 2.58 3.395 2.62-2.566 2.538-2.166 5.116-3.026 2.58 3.408 2.579-1.39 2.579 1.728 2.621-.275 2.58 2.706 2.58-2.677 2.578.747 2.58 3.736 2.62-2.46 2.496-4.118 2.492-3.743 2.581 1.434 2.58.597 2.579-2.04 5.2.228 2.58 1.463 2.581-1.294 2.578-.862 2.579 6.756 2.621-3.391 2.495-5.626 2.493-.747 2.58 1.361 2.58 1.226 2.58.559 2.579.372 2.621.246 2.58 1.538 2.58-3.617 2.578-.68 2.58 8.258 2.62-5.174 2.495-6.418 2.493 1.962 2.581-2.628 2.58 3.516 2.579 1.627 2.579-3.6 2.622 3.517 2.579-.857 2.58-4.035 2.578.422 2.58 6.564 2.621-2.954 2.537-6.874 2.535-1.508 2.581-11.117h0" fill="none" stroke="#e377c2" stroke-linecap="square" stroke-width="1.5" id="line2d_22"/><path clip-path="url(#p07fe97aaec)" d="M45.341 281.337l1.99 2.56 2.577.37 2.579.899 2.622-1.551 2.494-.59 2.493-.842 2.581-.007 2.58-1.149 2.579-.534 2.579-1.207 2.621.451 2.58-.788 2.58-1.228 2.578-.892 2.58 1.103 2.621-2.432 2.495-3.644 2.493.577 2.58-.966 2.58 1.086 2.58-3.527 2.578 1.652 2.622.331 2.58-1.37 2.58-.71 2.578-3.88 2.579 2.421 2.621-2.573 2.495-2.252 2.493-2.577 2.581-.913 2.58 2.971 2.578-.4 2.58.704 2.621-.755 2.58-.873 5.158-3.992 2.58 1.96 2.62-1.346 2.538-6.464 2.535 1.48 2.58-1.75 2.58 3.547 2.58 1.254 2.579-3.27 2.621.924 2.58.598 2.58-5.872 2.578-4.102 2.58 5.653 2.62-2.63 2.495-4.987 2.493-3.19 2.581-1.395 2.58 3.933 2.579 3.083 2.58-1.144 2.62 2.29 2.58-3.754 2.58-8.576 2.578-3.007 2.58 9.881 2.621-4.8 2.495-5.755 2.493-1.162 2.58 1.887 2.58 11.31 2.58 6.509 2.578-2.835 2.622 2.75 2.58-3.755 2.58-2.986 2.578.313 2.579 5.052 2.622-.458 2.494-7.118 2.493-1.567 2.581.004 2.58 3.972 2.579.647 2.579.185 2.621 5.88 2.58-1.643 2.58-6.627 2.578-1.999 2.58 5.425 2.62 3.264 2.538-6.446 2.535-.244 2.581-.636 2.58 7.072 2.579 1.538 5.2 6.436 2.58-2.203 2.58-4.692 2.578-2.25 2.58 7.523 2.62-2.982 2.496-.588 2.492-3.522 2.581 1.142 2.58 5.422 2.579 3.262 2.58-1.296 2.62 1.707 2.58 1.14 2.581-4.235 2.578.09 2.579 5.225 5.116-4.283 2.493-.898 2.58 2.542 2.58.947 2.58 3.315 2.579 1.218 2.621-.775 2.58.417 2.58-3.54 2.578-1.545 2.58 6.889 2.62-2.411 2.495-1.999 2.493-2.767 2.581-1.606 2.58 3.77 2.579 1.358 2.579-5.905 2.622 7.973 2.579-5.346 2.58-7.668 2.578-.404 2.58 6.354 2.621.282 2.537-2.584 2.535-3.352 2.581-14.272h0" fill="none" stroke="#8c564b" stroke-linecap="square" stroke-width="1.5" id="line2d_23"/><path clip-path="url(#p07fe97aaec)" d="M45.341 284.383l1.99.874 2.577.7 2.579.287 2.622-1.107 2.494-1.511 2.493-.378 2.581-.672 2.58-1.295 2.579-3.17 2.579-2.83 5.2-2.19 2.582-.15 2.577-2.931 2.58-.34 2.621-4.336 2.495-.449 2.493-1.75 2.58-.148 2.58-1.53 2.58-1.704 2.578-2.66 2.622-3.85 2.58 2.124 2.58 2.31 2.578-5.442 2.579-.719 5.116-14.59 2.493-4.868 2.581 1.403 2.58-1.297 2.578-1.486 2.58-2.807 2.621-1.728 2.58 4.157 2.58 1.92 2.578-6.408 2.58 4.505 2.62-7.015 2.538-9.42 2.535-2.022 2.58.985 2.58-1.119 2.58.106 2.579-5.894 2.621-.874 2.58 3.956 2.58-3.223 2.578-2.634 2.58 7.788 2.62-13.085 2.495-8.232 2.493-1.384 2.581 2.092 2.58 5.367 2.579-.093 2.58-8.501 2.62.183 2.58-2.93 2.58-4.367 2.578-.361 2.58 6.883 2.621-17.357 2.495-10.76 2.493-.28 2.58.344 2.58 25 2.58 9.407 2.578-5.776 2.622 7.762 2.58-4.179 2.58 1.295 2.578 1.145 2.579 7.88 2.622-8.848 2.494-9.289 2.493.088 2.581-3.97 2.58 6.565 2.579-1.998 2.579-3.833 2.621 8.143 2.58 1.919 2.58.4 2.578 1.093h2.58l2.62-5.795 2.538-9.828 2.535 5.894 2.581 1.096 2.58 3.811 2.579 2.425 2.579 8.53 2.621.346 2.58 2.285 2.58 2.009 2.578-.574 2.58 6.228 2.62-8.206 2.496-8.768 2.492-1.56 2.581 8.685 2.58-1.41 2.579 6.16 2.58 2.744 2.62 1.03 2.58 4.218 2.581 1.555 2.578-.783 2.579 12.853 2.621-7.149 2.495.016 2.493 1.958 2.58 4.138 2.58-1.41 2.58 5.133 2.579-2.968 2.621-1.861 2.58 4.086 2.58-2.303 2.578 5.188 2.58 9.744 2.62-8.1 2.495-7.025 2.493 2.139 2.581 1.785 2.58 3.615 2.579 1.841 2.579-9.342 2.622 8.63 2.579-.475 2.58-2.959 2.578-2.272 2.58 10.633 2.621-6.091 2.537-2.954 2.535 1.79 2.581-13.366h0" fill="none" stroke="#9467bd" stroke-linecap="square" stroke-width="1.5" id="line2d_24"/><path clip-path="url(#p07fe97aaec)" d="M45.341 272.13l1.99 3.469 5.156 2.792 2.622-5.506 2.494-3.527 2.493-2.022 2.581-1.908 2.58-.912 2.579-3.197 2.579-2.774 5.2-.672 2.582-1.577 2.577-.761 2.58 2.39 2.621-4.393 2.495-3.773 2.493-2.72 2.58.439 2.58.21 2.58-2.95 2.578-2.295 2.622-1.967 2.58 2.448 2.58-.883 2.578-5.782 2.579 3.195 2.621-6.373 2.495-7.925 2.493-6.302 2.581 2.813 2.58-3.11 2.578-.489 2.58 3.45 2.621-3.172 2.58 3.16 2.58 2.826 2.578-7.204 2.58 6.506 5.158-15.758 2.535-.81 2.58.847 2.58-.558 2.58-.731 2.579-4.465 2.621 2.82 2.58 2.242 2.58-7.614 2.578.591 2.58 11.923 2.62-13.12 2.495-8.18 2.493-2.508 2.581-.718 2.58 6.337 2.579 1.859 2.58-6.871 2.62 2.566 2.58-2.703 2.58-6.843 2.578.73 2.58 10.395 2.621-12.19 2.495-9.856 2.493 3.66 2.58 2.55 2.58 13.545 2.58 6.853 2.578-5.295 2.622 8.495 2.58-1.736 2.58 1.243 2.578 2.159 2.579 8.19 2.622-4.576 2.494-9.143 2.493-1.46 2.581-1.906 2.58 1.124 2.579-4.431 2.579-.885 2.621 6.36 2.58-.733 2.58 3.912 2.578-.065 2.58 4.556 2.62-1.418 2.538-8.973 2.535.027 2.581-4.078 2.58 4.875 2.579-.038 2.579 10.606 2.621-5.055 2.58 8.779 2.58.202 2.578-4.173 2.58 9.553 2.62-7.142 2.496-7.428 2.492-1.772 2.581 10.92 2.58-3.87 2.579 2.15 2.58 3.363 2.62 1.798 2.58 5.228 2.581-.075 2.578.6 2.579 10.772 2.621-5.535 2.495-.796 2.493-2.15 2.58 1.825 2.58-2.812 2.58 6.155 2.579-6.296 2.621-3.363 2.58 5.966 2.58-5.198 2.578 4.083 2.58 9.777 2.62-9.7 2.495-4.859 2.493 2.715 2.581-4.744 2.58 3.3 2.579 5.201 2.579-9.58 2.622 8.996 2.579-3.983 2.58-3.66 2.578.585 2.58 12.529 2.621-6.218 2.537-5.135 2.535 1.694 2.581-10.97h0" fill="none" stroke="#d62728" stroke-linecap="square" stroke-width="1.5" id="line2d_25"/><path clip-path="url(#p07fe97aaec)" d="M45.341 276.816l1.99 4.69 5.156 2.25 2.622-2.256 2.494-1.3 2.493-.73 2.581-1.024 2.58-1.67 2.579-2.592 2.579-.53 2.621.507 2.58-1.048 2.58-1.18 2.578-2.44 2.58 1.164 2.621-7.353 2.495-1.673 2.493-3.41 2.58 3.025 2.58-1.108 2.58-1.835 2.578-.597 2.622-1.332 5.16-2.27 2.578-5.395 2.579.805 2.621-6.197 2.495-7.647 2.493-6.15 2.581 2.251 2.58-2.843 2.578 2.748 2.58.164 2.621-3.779 2.58.621 2.58.338 2.578-10.012 2.58 5.324 2.62-6.705 2.538-11.432 2.535-4.896 2.58-.14 2.58 1.797 2.58 5.125 2.579-5.428 2.621.155 2.58 1.768 2.58-10.552 2.578-4.032 2.58 11.61 2.62-9.369 2.495-11.005 2.493-4.857 2.581-6.02 2.58 10.553 2.579 6.218 2.58-5.38 2.62 1.08 2.58-12.397 2.58-13.879 2.578-4.56 2.58 13.789 2.621-8.763 2.495-18.978 2.493-4.66 2.58 2.848 2.58 25.661 2.58 10.727 2.578-6.42 2.622 11.647 2.58-11.026 2.58-4.434 2.578-3.856 2.579 14.684 2.622-1.17 2.494-14.145 2.493-8.577 2.581-4.874 2.58 13.715 2.579.63 2.579-1.843 2.621 11.548 2.58-3.091 2.58-7.251 2.578 1.102 2.58 12.983 2.62-.698 2.538-17.195 2.535-6.048 2.581-1.6 2.58 21.82 2.579 4.303 2.579 10.74 2.621-1.614 2.58.097 2.58-1.274 2.578-5.967 2.58 16.507 2.62-5.126 2.496-11.068 2.492-8.53 2.581 6.148 2.58.859 2.579 8.691 2.58 6.777 2.62 3.06 2.58 3.793 2.581-5.86 2.578-4.79 2.579 19.039 2.621-2.39 2.495-6.894 2.493-1.665 2.58-2.729 2.58 3.18 2.58 9.19 2.579-4.382 2.621.374 2.58 1.036 2.58-12.471 2.578 3.277 2.58 13.608 2.62-5.26 2.495-8.81 2.493-.7 2.581 2.845 2.58 3.436 2.579 5.627 2.579-13.931 2.622 15.813 2.579-7.499 2.58-11.91 2.578 2.797 2.58 16.153 2.621-6.048 2.537-7.01 2.535-7.873 2.581-22.621h0" fill="none" stroke="#2ca02c" stroke-linecap="square" stroke-width="1.5" id="line2d_26"/><path clip-path="url(#p07fe97aaec)" d="M45.341 282.88l1.99 1.63 2.577.9 2.579-.195 2.622-1.163 2.494-1.831 2.493.315 2.581-.55 2.58-2.46 2.579-1.24 2.579-1.002 2.621-.748 2.58.358 2.58-1.669 2.578-1.828 2.58-.019 5.116-4.286 2.493-.508 5.16-1.642 2.58-2.556 2.578-2.013 5.201-1.84 2.581.07 2.578-4.085 2.579-1.815 2.621-3.511 2.495-5.398 2.493-3.957 2.581-2.577 2.58-1.294 2.578-4.527 2.58-1.162 2.621-5.64 5.16 6.091 2.578-6.61 2.58 4.551 2.62-9.023 2.538-7.809 2.535-.165 2.58-2.357 2.58-3.417 2.58-.677 2.579-5.04 2.621-.557 2.58 6.39 2.58-6.214 2.578-2.33 2.58 7.209 2.62-14.862 2.495-10.152 2.493-.966 2.581-3.813 2.58 6.055 2.579-.387 2.58-12.359 2.62.092 2.58-10.666 2.58-10.061 2.578 4.43 2.58 7.738 2.621-21.883 2.495-16.47 2.493 5.253 2.58 3.5 2.58 16.776 2.58 6.157 2.578-8.526 2.622 11.802 2.58-1.798 2.58-1.283 2.578 2.427 2.579 11.158 2.622-10.779 2.494-14.986 2.493.893 2.581-7.521 2.58-3.85 2.579-8.506 2.579-4.516 2.621 13.205 2.58-.056 2.58 2.312 2.578-1.11 2.58 6.313 2.62-10.152 2.538-10.717 2.535-.387 2.581-.982 2.58 8.695 2.579.666 2.579 5.065 2.621-3.37 2.58 11.025 2.58 4.683 2.578-5.36 2.58 9.865 2.62-11.308 2.496-14.37 2.492-1.782 2.581 12.305 2.58-3.105 2.579.578 2.58 4.893 2.62 1.713 2.58 12.262 2.581-1.842 2.578-1.174 2.579 21.682 2.621-13.966 2.495-.92 2.493-.363 2.58 3.999 2.58 3.242 2.58 2.221 2.579-8.933 2.621-6.204 2.58 9.907 2.58-7.44 2.578 4.788 2.58 20.078 2.62-13.55 2.495-11.749 2.493.271 2.581 3.974 2.58 4.578 2.579 1.031 2.579-14.814 2.622 10.047 2.579-.842 2.58-8.344 2.578-3.429 2.58 18.706 2.621-14.22 2.537-8.52 2.535-9.239 2.581-38.545h0" fill="none" stroke="#ff7f0e" stroke-linecap="square" stroke-width="1.5" id="line2d_27"/><path clip-path="url(#p07fe97aaec)" d="M45.341 283.837l1.99 2.189 5.156.493 2.622-1.34 4.987-.944 2.581-.202 2.58-1.476 5.158-1.128 2.621.155 2.58-.465 2.58-1.523 2.578-1.332 2.58.155 2.621-2.552 2.495-.811 2.493-.042 2.58 1.377 2.58-.94 2.58-1.908 2.578-2.245 2.622.734 2.58 1.169 2.58-2.382 2.578-.255 2.579 1.538 5.116-6.038 2.493-2.937 2.581 2.09 7.738-1.533 2.621-1.142 2.58 1.407 2.58.039 2.578-2.662 2.58 2.69 5.158-8.413 2.535-1.697 2.58-.273 2.58-.15 2.58-2.429 2.579-1.942 2.621-.916 2.58 3.048 2.58-4.966 2.578-3.339 2.58 6.004 2.62-5.908 2.495-6.436 2.493-1.107 2.581-3.961 2.58 2.748 2.579-.293 2.58-5.382 2.62 4.794 2.58-2.028 2.58-8.97 2.578-2.205 2.58 9.558 2.621-9.757 2.495-8.015 2.493-3.23 2.58 1.974 2.58 13.184 2.58.432 2.578-5.198 2.622 5.908 2.58.288 2.58-3.665 2.578-2.222 2.579 6.078 2.622-4.582 2.494-11.27 2.493-2.344 2.581-1.592 2.58 4.433 2.579-6.946 2.579-.88 2.621 7.791 2.58-.814 2.58-8.182 2.578-1.587 2.58 7.594 2.62-4.992 2.538-12.875 2.535.63 2.581-.381 2.58 7.1 2.579-1.542 2.579 3.55 2.621-.458 2.58 1.054 2.58-5.347 2.578-8.101 2.58 11.428 2.62-8.763 2.496-14.79 2.492-5.457 2.581 6.85 2.58-.005 2.579-2.828 2.58-2.501 2.62 3.243 2.58 3.483 2.581-7.058 2.578-4.146 2.579 18.324 2.621-9.045 2.495-13.27 2.493 1.228 2.58 2.756 2.58-.507 2.58 1.665 2.579-15.264 2.621-.064 2.58 9.012 2.58-13.559 2.578-4.53 2.58 22.72 2.62-9.335 2.495-19.856 2.493-5.665 2.581-4.371 2.58 10.216 2.579-3.813 2.579-17.041 2.622 17.188 2.579 2.862 2.58-26.67 2.578-10.024 2.58 29.644 5.158-36.155 2.535-14.386 2.581-53.789h0" fill="none" stroke="#1f77b4" stroke-linecap="square" stroke-width="1.5" id="line2d_28"/></g></g><defs><clipPath id="p07fe97aaec"><path d="M45.341 23.516h357.12v266.112H45.341z"/></clipPath></defs></svg>