<svg height="475.651" viewBox="0 0 454.338 356.738" width="605.784" xmlns="http://www.w3.org/2000/svg" xmlns:xlink="http://www.w3.org/1999/xlink"><defs><style>*{stroke-linecap:butt;stroke-linejoin:round}</style></defs><g id="figure_1"><path d="M0 356.738h454.338V0H0z" fill="none" id="patch_1"/><g id="axes_1"><path d="M29.77 313.628h357.12V47.516H29.77z" fill="none" id="patch_2"/><path clip-path="url(#p3318211e52)" d="M29.77 309.867l1.934 1.82 2.504-.733 2.507 1.38 2.548.647 2.424-2.218 2.423.924 2.508 1.273 2.506-1.273 2.507-4.745 2.506 4.745 2.548-.647 2.507-.086 2.508-2.502 2.505-.841 2.506 2.782 2.548-2.588 2.424 2.241 2.423.994 2.508-2.092 2.507-1.143 2.506 1.812 2.507-4.4 2.547 5.176 2.507-.108 2.508 1.402 2.505-7.42 2.507 3.538 2.547 1.294 2.424-.485 2.423-1.456 2.508 1.79 2.507 1.445 2.506-6.794 2.507 7.441 2.548-4.53 2.506 1.1 2.508.842 2.505-2.179 2.507-1.056 2.547-3.883 2.466 7.452 4.972-3.181 2.506-.388 2.507 1.725 2.506-1.078 2.548-5.177 2.507 5.586 2.508-4.292 2.505 4.961 2.506-.431 2.548-3.883 2.424-1.178 2.423 3.12 2.508-4.983 5.013 6.018 2.507-4.27 2.547-2.589 2.507 5.522 2.508.301 2.505 1.036 2.507-.388 2.547-1.295 2.424 1.11 2.423-3.698 2.508 6.945 2.507-9.533 2.506 5.522 2.507-1.64 2.548 5.177 2.506-2.869 2.508.928 2.505 3.084 2.507-3.084 2.547-2.589 2.425-1.109 2.422-2.773 2.509 6.212 2.506.906 2.507-3.58 2.506 4.874 2.548-1.294 2.506-1.575 2.509 1.575 2.505 1.768 2.506.173 2.548-1.294 2.465 3.012 2.464-5.6 2.508-.971 2.507 3.559 2.506-6.234 2.507 4.94 2.547 4.529 2.507-1.445 2.508-2.437 2.505 1.768 2.507-2.415 2.547 1.294 2.424-.694 2.423.047 2.508 2.437 2.507.15 2.506-4.162 2.507 2.869 2.548 2.588 2.506.56 2.508-5.736 2.505-2.287 2.507 5.522 2.547-1.941h4.847l2.509 5.78 2.506-2.545 2.507-1.467 2.506-.474 2.548-2.588 2.506 5.737 2.509-3.15 2.505 4.487 2.506-3.84 2.548.648 2.424-.485 2.423 1.132 2.508.54 2.506-.54 2.507-.798 2.507 2.74 2.547-1.295 2.507-2.782 2.508.194 2.505 1.143 2.506.798 2.548-1.294 2.465-1.049 4.972 2.214 2.507-1.165 2.506 1.165 2.507-1.165 2.548 1.294h0" fill="none" stroke="#8c564b" stroke-linecap="square" stroke-width="1.5" id="line2d_1"/><g id="matplotlib.axis_1"><g id="xtick_1"><g id="line2d_2"><defs><path d="M0 0v3.5" id="m769025f82c" stroke="#969696" stroke-width=".4"/></defs><use x="67.985" xlink:href="#m769025f82c" y="313.628" fill="#969696" stroke="#969696" stroke-width=".4"/></g><g transform="matrix(.14 0 0 -.14 52.414 330.678)" fill="#969696" id="text_1"><defs><path d="M4.39 45.125q0 12.39 6.391 18.781 6.406 6.407 17.938 6.407 9.656 0 15.812-5.86 6.157-5.86 6.157-15.14 0-7.22-3.547-12.188-3.532-4.953-10.422-8.703l-12.11-6.64Q13.922 15.921 12.5 8.296h38.188V0H2.593q.39 9.906 4.297 16.5 3.906 6.594 12.203 11.375l12.593 7.328q5.032 2.89 7.329 5.984 2.297 3.094 2.297 8.516 0 5.375-3.766 9.031-3.75 3.672-10.156 3.672-7.078 0-10.594-4.672-3.516-4.656-3.61-12.609z" id="HelveticaWorld-Regular-50"/><path d="M42.484 34.188q0 14.109-3.734 21.156-3.734 7.062-10.969 7.062-7.078 0-10.89-7.062-3.797-7.047-3.797-21.157 0-13.671 3.75-20.937Q20.609 6 27.78 6q7.235 0 10.969 7 3.734 7.016 3.734 21.188zm9.422 0q0-17.297-6.25-26.704-6.25-9.39-17.875-9.39-12.062 0-18.062 9.734-6 9.75-6 26.36 0 17.03 6.14 26.578 6.157 9.547 17.922 9.547 11.625 0 17.875-9.5t6.25-26.626z" id="HelveticaWorld-Regular-48"/><path d="M35.89 0h-9.374v49.906H10.109v6.985q8.594.28 12.782 2.75Q27.094 62.109 29 70.313h6.89z" id="HelveticaWorld-Regular-49"/></defs><use xlink:href="#HelveticaWorld-Regular-50"/><use x="55.615" xlink:href="#HelveticaWorld-Regular-48"/><use x="111.23" xlink:href="#HelveticaWorld-Regular-49"/><use x="166.846" xlink:href="#HelveticaWorld-Regular-48"/></g></g><g id="xtick_2"><use x="127.978" xlink:href="#m769025f82c" y="313.628" fill="#969696" stroke="#969696" stroke-width=".4" id="line2d_3"/><g transform="matrix(.14 0 0 -.14 112.407 330.678)" fill="#969696" id="text_2"><use xlink:href="#HelveticaWorld-Regular-50"/><use x="55.615" xlink:href="#HelveticaWorld-Regular-48"/><use x="111.23" xlink:href="#HelveticaWorld-Regular-49"/><use x="166.846" xlink:href="#HelveticaWorld-Regular-50"/></g></g><g id="xtick_3"><use x="188.052" xlink:href="#m769025f82c" y="313.628" fill="#969696" stroke="#969696" stroke-width=".4" id="line2d_4"/><g transform="matrix(.14 0 0 -.14 172.482 330.678)" fill="#969696" id="text_3"><defs><path d="M10.594 24.703h22.61v31.89h-.188zM42 17.093V0h-8.797v17.094H2.484v8.593L34.72 70.314H42v-45.61h10.297v-7.61z" id="HelveticaWorld-Regular-52"/></defs><use xlink:href="#HelveticaWorld-Regular-50"/><use x="55.615" xlink:href="#HelveticaWorld-Regular-48"/><use x="111.23" xlink:href="#HelveticaWorld-Regular-49"/><use x="166.846" xlink:href="#HelveticaWorld-Regular-52"/></g></g><g id="xtick_4"><use x="248.045" xlink:href="#m769025f82c" y="313.628" fill="#969696" stroke="#969696" stroke-width=".4" id="line2d_5"/><g transform="matrix(.14 0 0 -.14 232.474 330.678)" fill="#969696" id="text_4"><defs><path d="M14.11 21.578q0-6.875 4.093-11.234Q22.313 6 28.906 6q6.297 0 10.032 4.438 3.734 4.453 3.734 11.687 0 6.297-3.688 10.547-3.687 4.25-10.468 4.25-6.594 0-10.5-4.156-3.907-4.157-3.907-11.188zM41.702 51.61q-.984 5.375-3.984 8.078-3 2.72-8.125 2.72-8.11 0-12.36-7.923-4.25-7.906-4.343-18.109l.203-.188q5.61 8.641 16.687 8.641 8.844 0 15.438-5.86 6.593-5.859 6.593-16.452 0-10.5-6.25-17.47-6.25-6.952-16.843-6.952-12.219 0-18.563 8.687-6.344 8.703-6.344 25.938 0 16.593 6.485 27.093 6.5 10.5 19.484 10.5 8.407 0 14.219-5.015 5.813-5 6.297-13.688z" id="HelveticaWorld-Regular-54"/></defs><use xlink:href="#HelveticaWorld-Regular-50"/><use x="55.615" xlink:href="#HelveticaWorld-Regular-48"/><use x="111.23" xlink:href="#HelveticaWorld-Regular-49"/><use x="166.846" xlink:href="#HelveticaWorld-Regular-54"/></g></g><g id="xtick_5"><use x="308.12" xlink:href="#m769025f82c" y="313.628" fill="#969696" stroke="#969696" stroke-width=".4" id="line2d_6"/><g transform="matrix(.14 0 0 -.14 292.549 330.678)" fill="#969696" id="text_5"><defs><path d="M27.594 40.578q5.422 0 8.953 3.094 3.547 3.11 3.547 8.234 0 4.594-3.407 7.547-3.39 2.953-9.687 2.953-5.61 0-8.672-3.11-3.047-3.093-3.047-7.874 0-5.125 3.813-7.984 3.812-2.86 8.5-2.86zm.093-7.562q-6.78 0-10.64-3.766-3.86-3.766-3.86-9.234 0-6.297 3.907-10.157Q21 6 28.219 6q6.406 0 10.234 3.86 3.828 3.859 3.828 10.265 0 5.469-3.828 9.172-3.828 3.719-10.766 3.719zM49.22 52.203q0-10.594-9.032-14.797 6.204-2.781 8.86-7.36 2.656-4.562 2.656-9.733 0-10.016-6.453-16.125-6.438-6.094-17.375-6.094-9.563 0-16.813 5.25-7.25 5.25-7.25 17.062 0 11.922 11.907 16.907-9.516 3.796-9.516 13.671 0 8.297 5.64 13.813 5.641 5.516 15.641 5.516 10.016 0 15.875-5.204 5.86-5.203 5.86-12.906z" id="HelveticaWorld-Regular-56"/></defs><use xlink:href="#HelveticaWorld-Regular-50"/><use x="55.615" xlink:href="#HelveticaWorld-Regular-48"/><use x="111.23" xlink:href="#HelveticaWorld-Regular-49"/><use x="166.846" xlink:href="#HelveticaWorld-Regular-56"/></g></g><g id="xtick_6"><use x="368.112" xlink:href="#m769025f82c" y="313.628" fill="#969696" stroke="#969696" stroke-width=".4" id="line2d_7"/><g transform="matrix(.14 0 0 -.14 352.542 330.678)" fill="#969696" id="text_6"><use xlink:href="#HelveticaWorld-Regular-50"/><use x="55.615" xlink:href="#HelveticaWorld-Regular-48"/><use x="111.23" xlink:href="#HelveticaWorld-Regular-50"/><use x="166.846" xlink:href="#HelveticaWorld-Regular-48"/></g></g></g><g id="matplotlib.axis_2"><g id="ytick_1"><path clip-path="url(#p3318211e52)" d="M29.77 313.628h357.12" fill="none" stroke="#969696" stroke-linecap="square" stroke-width=".3" id="line2d_8"/><g id="line2d_9"><defs><path d="M0 0h-3.5" id="m63b0cec574" stroke="#969696" stroke-width=".3"/></defs><use x="29.771" xlink:href="#m63b0cec574" y="313.628" fill="#969696" stroke="#969696" stroke-width=".3"/></g><use xlink:href="#HelveticaWorld-Regular-48" transform="matrix(.14 0 0 -.14 14.985 318.653)" fill="#969696" id="text_7"/></g><g id="ytick_2"><path clip-path="url(#p3318211e52)" d="M29.77 273.51h357.12" fill="none" stroke="#969696" stroke-linecap="square" stroke-width=".3" id="line2d_10"/><use x="29.771" xlink:href="#m63b0cec574" y="273.511" fill="#969696" stroke="#969696" stroke-width=".3" id="line2d_11"/><use xlink:href="#HelveticaWorld-Regular-50" transform="matrix(.14 0 0 -.14 14.985 278.536)" fill="#969696" id="text_8"/></g><g id="ytick_3"><path clip-path="url(#p3318211e52)" d="M29.77 233.393h357.12" fill="none" stroke="#969696" stroke-linecap="square" stroke-width=".3" id="line2d_12"/><use x="29.771" xlink:href="#m63b0cec574" y="233.393" fill="#969696" stroke="#969696" stroke-width=".3" id="line2d_13"/><use xlink:href="#HelveticaWorld-Regular-52" transform="matrix(.14 0 0 -.14 14.985 238.418)" fill="#969696" id="text_9"/></g><g id="ytick_4"><path clip-path="url(#p3318211e52)" d="M29.77 193.276h357.12" fill="none" stroke="#969696" stroke-linecap="square" stroke-width=".3" id="line2d_14"/><use x="29.771" xlink:href="#m63b0cec574" y="193.276" fill="#969696" stroke="#969696" stroke-width=".3" id="line2d_15"/><use xlink:href="#HelveticaWorld-Regular-54" transform="matrix(.14 0 0 -.14 14.985 198.3)" fill="#969696" id="text_10"/></g><g id="ytick_5"><path clip-path="url(#p3318211e52)" d="M29.77 153.159h357.12" fill="none" stroke="#969696" stroke-linecap="square" stroke-width=".3" id="line2d_16"/><use x="29.771" xlink:href="#m63b0cec574" y="153.159" fill="#969696" stroke="#969696" stroke-width=".3" id="line2d_17"/><use xlink:href="#HelveticaWorld-Regular-56" transform="matrix(.14 0 0 -.14 14.985 158.183)" fill="#969696" id="text_11"/></g><g id="ytick_6"><path clip-path="url(#p3318211e52)" d="M29.77 113.041h357.12" fill="none" stroke="#969696" stroke-linecap="square" stroke-width=".3" id="line2d_18"/><use x="29.771" xlink:href="#m63b0cec574" y="113.041" fill="#969696" stroke="#969696" stroke-width=".3" id="line2d_19"/><g transform="matrix(.14 0 0 -.14 7.2 118.066)" fill="#969696" id="text_12"><use xlink:href="#HelveticaWorld-Regular-49"/><use x="55.615" xlink:href="#HelveticaWorld-Regular-48"/></g></g><g id="ytick_7"><path clip-path="url(#p3318211e52)" d="M29.77 72.924h357.12" fill="none" stroke="#969696" stroke-linecap="square" stroke-width=".3" id="line2d_20"/><use x="29.771" xlink:href="#m63b0cec574" y="72.924" fill="#969696" stroke="#969696" stroke-width=".3" id="line2d_21"/><g transform="matrix(.14 0 0 -.14 7.2 77.949)" fill="#969696" id="text_13"><use xlink:href="#HelveticaWorld-Regular-49"/><use x="55.615" xlink:href="#HelveticaWorld-Regular-50"/></g></g></g><path clip-path="url(#p3318211e52)" d="M29.77 313.628l1.934-2.588 2.504.582 2.507 2.006 2.548-2.588 2.424 1.155 2.423.786 2.508-.69 2.506-2.545 2.507-2.135 2.506.194 2.548 1.94 2.507 1.209 2.508.733 2.505-2.74 2.506-1.142 2.548 2.588 2.424-3.212 2.423 1.918 2.508 2.523 2.507.712 2.506-4.055 2.507 2.114 2.547-2.588 2.507-.863 2.508 1.51 2.505-1.51 2.507 2.157 4.971-1.202 2.423 3.143 2.508-.086 2.507-1.208 2.506-2.804 2.507 5.392 2.548-5.823 2.506-.238 2.508 2.179 2.505-.841 2.507 2.135 2.547-3.882 2.466.847 2.464-4.73 2.508 5.63 2.506-7.57 2.507 7.57 2.506 2.135 2.548-3.882 2.507 2.415 2.508.173 2.505-3.516 2.506.928h2.548l2.424 1.317 2.423-9.082 2.508 8.843 2.507-3.667 2.506.324 2.507 4.206 2.547-4.53 2.507 5.004 2.508-6.945 2.505 6.277 2.507 3.429 2.547-5.176 2.424 2.033 2.423-.092 2.508-1.532 2.507-2.998 2.506.993 2.507 2.89 2.548-2.589 2.506 2.373 2.508-2.373 2.505.367 2.507 4.81 2.547-2.588 2.425-2.126 2.422.832 2.509 5.09 2.506-7.032 2.507 5.026 2.506-1.79 2.548-2.589 2.506-1.639 2.509 4.875 2.505-.863 2.506.863h2.548l2.465-5.935 2.464 3.994 2.508 3.753 2.507-1.165 2.506-1.51 2.507.216 2.547.647 2.507-2.2 2.508-6.859 2.505 10.202 2.507.15 2.547-.646 2.424-1.271 2.423.624 2.508 2.48 2.507-.54 2.506-.128 2.507-6.989 2.548 8.412 2.506 1.251 2.508-.604 2.505-4.076 2.507 2.135 2.547.647 2.425-3.929 2.422 3.282 2.509 1.208 2.506-1.855 2.507 1.855 2.506 2.027 2.548-2.588 2.506-.776 2.509.776 2.505 2.567 2.506-2.567h2.548l2.424-1.063 2.423-.231 2.508-2.157 2.506 3.451 2.507 1.898 2.507-.604h2.547l2.507-.733 2.508-1.855 2.505-4.163 2.506 4.81 2.548 1.294 2.465-1.562 2.464.268 2.508-.798 2.507.798 2.506 1.208 5.055-1.208h0" fill="none" stroke="#9467bd" stroke-linecap="square" stroke-width="1.5" id="line2d_22"/><path clip-path="url(#p3318211e52)" d="M34.208 313.628l5.055-1.294 2.424 1.294 2.423-.647 2.508-2.027 2.506.733 2.507.604 2.506-3.192 2.548.647 2.507-.798 2.508-.496 2.505 3.17 2.506.712h2.548l2.424-3.004 2.423 3.004 2.508-2.717 2.507.129 2.506-.798 2.507 4.033 2.547-3.235 2.507-.13 2.508.13 2.505-.798 2.507-1.79 2.547 1.94 2.424 1.665 2.423-2.958 2.508-1.532 2.507 3.473 2.506-2.135 2.507-1.1 2.548.647 2.506 1.121 2.508-1.768 2.505 2.437 2.507-1.79 2.547 1.94 2.466-5.153 2.464 3.213 2.508 2.459 2.506-4.4 2.507.388 2.506 2.2h2.548l2.507-5.543 2.508-.28 2.505 3.623 2.506-3.624 2.548.647 2.424.255 2.423-.902 2.508 2.287 2.507-3.58 2.506.905 2.507 1.682h2.547l2.507-10.374 2.508 9.727 2.505 8.326 2.507-14.796 2.547-1.941 2.424 3.65 2.423-.415 2.508-2.545 2.507 1.898 2.506 6.125 2.507-.949 2.548 2.588 2.506-.301 2.508.949 2.505.388 2.507-3.624 2.547 5.824 2.425-2.773 2.422-6.286 2.509 2.178 2.506-1.531 2.507 2.869 2.506-1.575 2.548 5.824 2.506-1.575 2.509-1.014 2.505-4.335 2.506 5.63 2.548 1.294 2.465-2.566 2.464-3.258 2.508 3.58 2.507 4.832 2.506-4.831 2.507-1.64 2.547 3.883 2.507-6.255 2.508 5.608 2.505 3.084 7.478-5.35 2.423.324 2.508 2.351 2.507-4.292 2.506 3.624 2.507.259 2.548-1.942 2.506 3.689 2.508.194 2.505-1.532 2.507-2.998 2.547 1.942 2.425-.902 2.422-1.687 2.509 5.651 2.506-8.886 2.507 10.224 2.506-3.106h2.548l2.506 3.774 2.509-.54 2.505-2.134 2.506-.453 4.972-4.992 2.423.462 2.508 1.64 2.506 2.243 2.507-.238 2.507-1.056 2.547-1.295 2.507-2.329 2.508 1.035 2.505-1.035 2.506 4.27 2.548-1.94 2.465 2.097 2.464.49 2.508-3.58 2.507 5.522 2.506-.173 2.507.173 2.548.647h0" fill="none" stroke="#d62728" stroke-linecap="square" stroke-width="1.5" id="line2d_23"/><g transform="matrix(.14 0 0 -.14 390.462 100.44)" fill="#1f77b4" id="text_14"><defs><path d="M39.594 34.719q-1.89 11.187-12.39 11.187-6.5 0-10.454-5.203-3.953-5.203-3.953-14.484 0-10.11 3.656-15.11 3.672-5 10.64-5 4.688 0 8.11 3.438 3.422 3.437 4.39 8.953h8.5q-1.312-9.703-6.859-14.86-5.547-5.156-14.328-5.156-10.297 0-16.89 7.047-6.594 7.063-6.594 19.172 0 13.281 6.594 21.188 6.593 7.922 18.5 7.922 8.687 0 13.843-5.204 5.157-5.203 5.735-13.89z" id="HelveticaWorld-Regular-99"/><path d="M6.594 52.297h8.297v-7.375h.203q5.906 8.89 15.812 8.89 9.813 0 13.922-8.5 3.75 4.594 7.266 6.547 3.515 1.953 8.703 1.953 6.781 0 11.484-4.453Q77 44.922 77 36.187V0h-8.781v33.797q0 6.094-2.297 9.094-2.297 3.015-7.422 3.015-5.172 0-8.75-4.203-3.563-4.203-3.563-9.812V0h-8.78v36.188q0 4.53-2.11 7.124-2.094 2.594-6.094 2.594-6.297 0-10.062-4.687-3.766-4.688-3.766-12.703V0H6.594z" id="HelveticaWorld-Regular-109"/><path d="M38.375 26.703q-.969-1.015-3.828-1.656-2.86-.625-10.672-1.656-5.766-.688-8.469-2.844-2.703-2.14-2.703-5.656 0-4.297 2.281-6.688 2.297-2.39 7.329-2.39 6.296 0 11.171 3.578 4.891 3.593 4.891 8.718zM6.203 36.375q.297 8.844 5.734 13.14 5.454 4.297 15.844 4.297 8.297 0 13.907-3.765 5.624-3.75 5.624-10.844V9.078Q47.313 6 50.094 6q1.125 0 2.89.39V0Q50.594-.984 48-.984q-4.5 0-6.703 1.921-2.188 1.938-2.281 6.047-7.516-8.5-18.891-8.5-7.422 0-11.922 4.204Q3.72 6.89 3.72 13.624q0 6.89 3.906 11.125Q11.531 29 19 29.89l15.516 1.891q4.203.64 4.203 6.203 0 4.11-3.047 6.297-3.047 2.203-9.25 2.203-5.516 0-8.485-2.437-2.953-2.438-3.53-7.672z" id="HelveticaWorld-Regular-97"/><path d="M50 0H38.719L22.406 26.422l-7.312-6.594V0h-8.5v71.781h8.5v-41.61l22.5 22.126H48.78L28.813 32.813z" id="HelveticaWorld-Regular-107"/><path d="M42.484 30.328q-.687 8.485-4.5 12.031-3.797 3.547-10.109 3.547-6.39 0-10.328-4.5-3.922-4.484-4.172-11.078zm8.391-13.922q-1.453-8.11-7.953-13.422-5.719-4.5-15.047-4.593-10.984.093-17.438 7.203Q4 12.704 4 24.704q0 13.78 6.64 21.437 6.641 7.672 18.47 7.672 10.593 0 16.546-7.922 5.953-7.907 5.953-22.594H13.375q0-8.203 3.813-12.703Q21 6.109 28.608 6.109q5.375 0 9.235 3.235 3.86 3.25 4.25 7.062z" id="HelveticaWorld-Regular-101"/></defs><use xlink:href="#HelveticaWorld-Regular-99"/><use x="51.27" xlink:href="#HelveticaWorld-Regular-109"/><use x="134.277" xlink:href="#HelveticaWorld-Regular-97"/><use x="189.209" xlink:href="#HelveticaWorld-Regular-107"/><use x="236.834" xlink:href="#HelveticaWorld-Regular-101"/></g><g transform="matrix(.14 0 0 -.14 390.462 211.087)" fill="#ff7f0e" id="text_15"><defs><path d="M17.188 45.016V0H8.405v45.016H1.22v7.28h7.187v8.985q0 5.907 3.578 8.703 3.594 2.813 10.032 2.813 2.203 0 3.968-.188v-7.906q-1.562.188-3.578.188-2.922 0-4.078-1.438-1.14-1.437-1.14-4.656v-6.5h8.796v-7.281z" id="HelveticaWorld-Regular-102"/><path d="M6.594 61.813v9.968h8.781v-9.969zM15.375 0H6.594v52.297h8.781z" id="HelveticaWorld-Regular-105"/><path d="M15.375 0H6.594v71.781h8.781z" id="HelveticaWorld-Regular-108"/></defs><use xlink:href="#HelveticaWorld-Regular-109"/><use x="83.008" xlink:href="#HelveticaWorld-Regular-97"/><use x="137.939" xlink:href="#HelveticaWorld-Regular-107"/><use x="185.564" xlink:href="#HelveticaWorld-Regular-101"/><use x="239.984" xlink:href="#HelveticaWorld-Regular-102"/><use x="267.67" xlink:href="#HelveticaWorld-Regular-105"/><use x="289.691" xlink:href="#HelveticaWorld-Regular-108"/><use x="311.713" xlink:href="#HelveticaWorld-Regular-101"/></g><g transform="matrix(.14 0 0 -.14 390.462 286.174)" fill="#2ca02c" id="text_16"><defs><path d="M43.406 26.313q0 10.5-3.718 15.046-3.704 4.547-10.579 4.547-6.984-.11-10.562-5.453Q14.984 35.11 14.984 25q0-10.297 4.297-14.594Q23.578 6.11 29.297 6.11q6.5 0 10.297 5.344 3.812 5.344 3.812 14.86zM6.594 0v71.781h8.781V45.703h.203q5.61 8.11 15.14 8.11 9.766 0 15.766-7.25t6-18.876q0-13.093-6.062-21.156Q40.375-1.516 29.5-1.516q-9.578 0-14.406 8.016h-.203V0z" id="HelveticaWorld-Regular-98"/><path d="M14.11 7.328h32.187V0H2.39v6.89l31.64 38.126H4.938v7.28h40.374v-7.171z" id="HelveticaWorld-Regular-122"/></defs><use xlink:href="#HelveticaWorld-Regular-98"/><use x="56.494" xlink:href="#HelveticaWorld-Regular-97"/><use x="111.426" xlink:href="#HelveticaWorld-Regular-122"/><use x="158.895" xlink:href="#HelveticaWorld-Regular-101"/><use x="214.314" xlink:href="#HelveticaWorld-Regular-108"/></g><g transform="matrix(.14 0 0 -.14 390.462 300.174)" fill="#d62728" id="text_17"><defs><path d="M41.5 23.688q0 11.125-3.5 16.671-3.484 5.547-10.61 5.547-6.874 0-10.593-4.5-3.703-4.484-3.703-15.093 0-9.422 3.75-14.813 3.765-5.39 10.36-5.39 5.812 0 10.046 4.39 4.25 4.39 4.25 13.188zm8.406-44.391H41.11V5.516h-.187Q35.89-1.516 27-1.516q-10.984 0-17 8.157-6 8.156-6 21.047 0 11.421 5.906 18.765 5.922 7.36 15.875 7.36 9.907 0 15.625-8.891h.203v7.375h8.297z" id="HelveticaWorld-Regular-113"/></defs><use xlink:href="#HelveticaWorld-Regular-113"/><use x="56.494" xlink:href="#HelveticaWorld-Regular-109"/><use x="139.502" xlink:href="#HelveticaWorld-Regular-97"/><use x="194.434" xlink:href="#HelveticaWorld-Regular-107"/><use x="242.059" xlink:href="#HelveticaWorld-Regular-101"/></g><g transform="matrix(.14 0 0 -.14 390.462 328.174)" fill="#9467bd" id="text_18"><defs><path d="M36.078 37.406q-.187 4.688-3.344 6.735-3.14 2.047-9.047 2.047-4.296 0-7.359-1.907-3.047-1.89-3.047-5.468 0-2.829 1.797-4.172 1.813-1.344 7.828-2.86l8.688-2.187q7.906-2 11.297-5.11 3.406-3.093 3.406-8.656 0-7.719-5.64-12.531-5.641-4.813-15.063-4.813-11 0-16.64 4.563-5.626 4.578-5.735 13.75h8.5q.203-5.422 3.594-8.063 3.39-2.625 10.171-2.625 5.516 0 8.766 2.188 3.25 2.203 3.25 6.11 0 2.78-2.11 4.437-2.093 1.672-8.296 3.078l-10.203 2.5q-6.203 1.562-9.157 4.656-2.953 3.094-2.953 8.031 0 7.72 5.516 12.203 5.531 4.5 14.406 4.5 9.485 0 14.531-4.624 5.047-4.61 5.344-11.782z" id="HelveticaWorld-Regular-115"/><path d="M12.703 26.219q0-8.735 3.953-14.375 3.953-5.64 11.219-5.64 7.531 0 11.438 5.905 3.906 5.907 3.906 14.11 0 8.297-3.907 14.078-3.906 5.797-11.437 5.797-6.969 0-11.078-5.453-4.094-5.438-4.094-14.422zm-8.984 0q0 11.672 6.484 19.625 6.5 7.968 17.672 7.968 11.438 0 17.875-8.062 6.453-8.047 6.453-19.531 0-11.516-6.406-19.625-6.39-8.11-17.922-8.11-11.078 0-17.625 7.86-6.531 7.86-6.531 19.875z" id="HelveticaWorld-Regular-111"/><path d="M49.219 0h-8.844v32.172q0 7.422-2.594 10.578-2.578 3.156-8.578 3.156-5.906 0-9.875-4.5-3.953-4.484-3.953-12.89V0H6.594v52.297h8.297v-7.375h.203q6.203 8.89 15.812 8.89 8.89 0 13.594-4.718 4.719-4.703 4.719-13.5z" id="HelveticaWorld-Regular-110"/></defs><use xlink:href="#HelveticaWorld-Regular-115"/><use x="50" xlink:href="#HelveticaWorld-Regular-99"/><use x="101.27" xlink:href="#HelveticaWorld-Regular-111"/><use x="157.178" xlink:href="#HelveticaWorld-Regular-110"/><use x="212.354" xlink:href="#HelveticaWorld-Regular-115"/></g><g transform="matrix(.14 0 0 -.14 390.462 314.174)" fill="#8c564b" id="text_19"><defs><path d="M6.11 52.297h8.78V17.578q0-5.765 2.61-8.625Q20.125 6.11 25 6.11q6.781 0 10.594 4.797 3.812 4.813 3.812 12.578v28.813h8.782V0H39.89v7.625l-.188.188q-4.984-9.329-16.61-9.329-7.515 0-12.25 4.094Q6.11 6.688 6.11 14.703z" id="HelveticaWorld-Regular-117"/><path d="M17.188 45.016V10.984q0-2 1.093-3.046 1.11-1.047 3.938-1.047h3.375V0Q20.797-.688 19-.688q-5.516 0-8.063 2.641-2.53 2.64-2.53 8.547v34.516H1.311v7.28h7.094v14.595h8.781V52.297h8.407v-7.281z" id="HelveticaWorld-Regular-116"/></defs><use xlink:href="#HelveticaWorld-Regular-97"/><use x="54.932" xlink:href="#HelveticaWorld-Regular-117"/><use x="109.717" xlink:href="#HelveticaWorld-Regular-116"/><use x="137.402" xlink:href="#HelveticaWorld-Regular-111"/><use x="193.311" xlink:href="#HelveticaWorld-Regular-116"/><use x="220.996" xlink:href="#HelveticaWorld-Regular-111"/><use x="276.904" xlink:href="#HelveticaWorld-Regular-111"/><use x="332.813" xlink:href="#HelveticaWorld-Regular-108"/><use x="354.834" xlink:href="#HelveticaWorld-Regular-115"/></g><g transform="matrix(.09716 0 0 -.09716 29.77 347.399)" fill="#969696" id="text_20"><defs><path d="M50.39 50.781q-.296 6.844-5.109 10.719-4.797 3.875-12.656 3.875-7.922 0-12.172-3.25-4.234-3.234-4.234-9.344 0-3.265 1.843-5.61 1.86-2.343 6.641-3.468l20.516-4.687q8.297-1.813 12.297-6.875 4.015-5.047 4.015-12.313 0-10.64-7.812-16.187-7.813-5.547-20.313-5.547-9.531 0-15.031 2.437-5.484 2.453-9.734 7.766-4.25 5.328-4.25 14.89h9.093q0-8 5.313-12.406 5.328-4.39 14.5-4.39 8.89 0 13.844 3.156 4.953 3.156 4.953 8.953 0 5.281-2.953 7.89Q46.188 29 37.594 31l-15.469 3.625q-7.719 1.75-11.531 6.125Q6.78 45.125 6.78 51.516q0 9.672 6.516 15.922 6.531 6.25 18.203 6.25 13.172 0 20.328-5.5 7.156-5.485 7.688-17.407z" id="HelveticaWorld-Regular-83"/><path d="M63.922 35.89q0 12.594-6.672 20.891-6.656 8.313-18.328 8.313-11.531 0-18.266-8.313-6.734-8.297-6.734-20.89 0-12.985 6.828-21.094 6.844-8.11 18.172-8.11 11.078 0 18.031 7.907 6.969 7.922 6.969 21.297zm9.953 0q0-16.062-9.281-26.937-9.266-10.86-25.672-10.86-16.516 0-25.766 10.86-9.25 10.875-9.25 26.938 0 16.109 9.25 26.953 9.25 10.843 25.766 10.843 16.89 0 25.922-11.046 9.031-11.032 9.031-26.75z" id="HelveticaWorld-Regular-79"/><path d="M39.406 52.297h9.625L29.11 0h-9.437L.594 52.297h10.203L24.422 9.719h.187z" id="HelveticaWorld-Regular-118"/><path d="M15.375 0H6.594v52.297h8.297v-8.688h.203q5.703 10.203 14.687 10.203 1.422 0 2.297-.296V44.39h-3.266q-5.906 0-9.671-4.016-3.766-4-3.766-9.953z" id="HelveticaWorld-Regular-114"/><path d="M25.594 0h-8.985L1.516 52.297h9.468L21 11.187h.188l10.109 41.11h9.922l10.203-41.11h.187l10.594 41.11h8.703L55.812 0h-9.234L35.984 40.484h-.187z" id="HelveticaWorld-Regular-119"/><path d="M44 29.5L33.406 61.078h-.203L21.687 29.5zm-25.297-8.594L11.188 0h-9.97l27 71.781h10.985L65.187 0H54.594l-7.078 20.906z" id="HelveticaWorld-Regular-65"/><path d="M17.828 38.625H37.11q7.282 0 10.938 3.188 3.656 3.203 3.656 9.703 0 5.812-3.516 8.89-3.515 3.078-10.687 3.078H17.828zm0-38.625H8.11v71.781h32.266q9.625 0 15.484-5.594 5.86-5.593 5.86-14.578 0-9.328-5.672-15.312-5.656-5.969-15.672-5.969H17.828z" id="HelveticaWorld-Regular-80"/><path d="M17.828 0H8.11v71.781h9.72z" id="HelveticaWorld-Regular-73"/><path d="M12.984 26.313q0-9.61 3.813-14.907Q20.609 6.11 27.094 6.11q6.312 0 10.312 4.579 4 4.593 4 13 0 11.03-3.5 16.625-3.484 5.593-10.61 5.593-7.171 0-10.75-4.765-3.562-4.766-3.562-14.828zM49.812 2.983q0-12.609-6.062-18.797-6.047-6.203-18.266-6.203-8.78 0-13.984 4.047Q6.297-13.922 5.516-6.39h8.796q.672-3.812 3.532-6.062 2.86-2.25 8.281-2.25 7.375 0 11.125 3.969 3.766 3.953 3.766 12.828v3.719h-.188q-4.937-7.329-13.922-7.329-11.187 0-17.093 8.25-5.907 8.25-5.907 20.953 0 11.625 5.953 18.875 5.97 7.25 15.829 7.25 9.906 0 15.625-8.89h.187v7.375h8.313z" id="HelveticaWorld-Regular-103"/><path d="M9.422 73.688h7.281V-1.906H9.422z" id="HelveticaWorld-Regular-124"/><path d="M55.61 71.781h9.374V0h-10.78L17.577 58.016h-.187V0H8.109v71.781h11.375l35.938-57.969h.187z" id="HelveticaWorld-Regular-78"/><path d="M49.219 0h-8.844v34.188q0 6.296-2.438 9-2.437 2.718-7.953 2.718-6.797 0-10.703-4.406-3.906-4.39-3.906-12.984V0H6.594v71.781h8.781V45.312h.203q6 8.5 15.328 8.5 8.594 0 13.453-4.5 4.86-4.484 4.86-13.718z" id="HelveticaWorld-Regular-104"/><path d="M12.703 26.219q0-8.735 3.953-14.375 3.953-5.64 11.219-5.64 7.531 0 11.438 5.905 3.906 5.907 3.906 14.11 0 8.297-3.907 14.078-3.906 5.797-11.437 5.797-6.969 0-11.078-5.453-4.094-5.438-4.094-14.422zm-8.984 0q0 11.672 6.484 19.625 6.5 7.968 17.672 7.968 11.438 0 17.875-8.062 6.453-8.047 6.453-19.531 0-11.516-6.406-19.625-6.39-8.11-17.922-8.11-11.078 0-17.625 7.86-6.531 7.86-6.531 19.875zm36.734 35.406H31.47v10.156h8.984zm-16.219 0H15.25v10.156h8.984z" id="HelveticaWorld-Regular-246"/><path d="M58.016 50.203q-1.625 7.313-6.782 11.094-5.14 3.797-13.343 3.797-10.594 0-17.047-7.703-6.438-7.688-6.438-20.766 0-15.14 6.094-22.547 6.11-7.39 17.688-7.39 7.609 0 13.093 5.046 5.5 5.063 7.407 14.688h9.421Q66.22 12.594 57.625 5.344t-20.906-7.25q-14.703 0-23.516 10.11Q4.391 18.311 4.391 36.28q0 17.328 9.203 27.36 9.203 10.047 24.297 10.047 12.5 0 20.265-6.454 7.766-6.437 9.235-17.03z" id="HelveticaWorld-Regular-67"/><path d="M8.11 71.781h31.484q9.281 0 14.797-5.031 5.515-5.031 5.515-13.031 0-4.844-2.422-8.828-2.406-3.97-7.187-6.172 6.687-2.532 9.828-6.735 3.156-4.203 3.156-10.797 0-9.265-6.687-15.234Q49.906 0 38.922 0H8.109zm9.562-63.484h20.703q7.625 0 11.422 3.531 3.812 3.547 3.812 9.563 0 6.093-4.25 9.093Q45.125 33.5 36.812 33.5h-19.14zm0 33.11h17.625q7.719 0 11.312 2.796 3.594 2.813 3.594 8.781 0 5.125-3.406 7.813-3.39 2.687-11.39 2.687H17.671z" id="HelveticaWorld-Regular-66"/><path d="M37.313 0h-9.72v28.906L.485 71.781h11.329l20.609-34.469 20.562 34.47h11.422L37.312 28.905z" id="HelveticaWorld-Regular-89"/></defs><use xlink:href="#HelveticaWorld-Regular-83"/><use x="66.211" xlink:href="#HelveticaWorld-Regular-116"/><use x="93.896" xlink:href="#HelveticaWorld-Regular-97"/><use x="148.828" xlink:href="#HelveticaWorld-Regular-99"/><use x="200.098" xlink:href="#HelveticaWorld-Regular-107"/><use x="250.098" xlink:href="#HelveticaWorld-Regular-79"/><use x="327.881" xlink:href="#HelveticaWorld-Regular-118"/><use x="375.49" xlink:href="#HelveticaWorld-Regular-101"/><use x="430.91" xlink:href="#HelveticaWorld-Regular-114"/><use x="464.979" xlink:href="#HelveticaWorld-Regular-102"/><use x="492.664" xlink:href="#HelveticaWorld-Regular-108"/><use x="514.686" xlink:href="#HelveticaWorld-Regular-111"/><use x="569.094" xlink:href="#HelveticaWorld-Regular-119"/><use x="641.506" xlink:href="#HelveticaWorld-Regular-32"/><use x="665.92" xlink:href="#HelveticaWorld-Regular-65"/><use x="732.619" xlink:href="#HelveticaWorld-Regular-80"/><use x="797.268" xlink:href="#HelveticaWorld-Regular-73"/><use x="823.049" xlink:href="#HelveticaWorld-Regular-32"/><use x="847.463" xlink:href="#HelveticaWorld-Regular-118"/><use x="897.072" xlink:href="#HelveticaWorld-Regular-105"/><use x="919.094" xlink:href="#HelveticaWorld-Regular-97"/><use x="974.025" xlink:href="#HelveticaWorld-Regular-32"/><use x="998.439" xlink:href="#HelveticaWorld-Regular-115"/><use x="1048.439" xlink:href="#HelveticaWorld-Regular-116"/><use x="1076.125" xlink:href="#HelveticaWorld-Regular-97"/><use x="1131.057" xlink:href="#HelveticaWorld-Regular-99"/><use x="1182.326" xlink:href="#HelveticaWorld-Regular-107"/><use x="1232.326" xlink:href="#HelveticaWorld-Regular-116"/><use x="1260.012" xlink:href="#HelveticaWorld-Regular-97"/><use x="1314.943" xlink:href="#HelveticaWorld-Regular-103"/><use x="1370.852" xlink:href="#HelveticaWorld-Regular-115"/><use x="1420.852" xlink:href="#HelveticaWorld-Regular-32"/><use x="1445.266" xlink:href="#HelveticaWorld-Regular-124"/><use x="1471.242" xlink:href="#HelveticaWorld-Regular-32"/><use x="1495.656" xlink:href="#HelveticaWorld-Regular-78"/><use x="1568.752" xlink:href="#HelveticaWorld-Regular-105"/><use x="1590.773" xlink:href="#HelveticaWorld-Regular-99"/><use x="1642.043" xlink:href="#HelveticaWorld-Regular-111"/><use x="1697.951" xlink:href="#HelveticaWorld-Regular-32"/><use x="1722.365" xlink:href="#HelveticaWorld-Regular-83"/><use x="1788.576" xlink:href="#HelveticaWorld-Regular-99"/><use x="1839.846" xlink:href="#HelveticaWorld-Regular-104"/><use x="1895.021" xlink:href="#HelveticaWorld-Regular-108"/><use x="1917.043" xlink:href="#HelveticaWorld-Regular-246"/><use x="1972.951" xlink:href="#HelveticaWorld-Regular-109"/><use x="2055.959" xlink:href="#HelveticaWorld-Regular-101"/><use x="2111.379" xlink:href="#HelveticaWorld-Regular-114"/><use x="2143.947" xlink:href="#HelveticaWorld-Regular-32"/><use x="2168.361" xlink:href="#HelveticaWorld-Regular-124"/><use x="2194.338" xlink:href="#HelveticaWorld-Regular-32"/><use x="2218.752" xlink:href="#HelveticaWorld-Regular-67"/><use x="2291.066" xlink:href="#HelveticaWorld-Regular-67"/><use x="2363.381" xlink:href="#HelveticaWorld-Regular-32"/><use x="2387.795" xlink:href="#HelveticaWorld-Regular-66"/><use x="2450.607" xlink:href="#HelveticaWorld-Regular-89"/></g><g transform="matrix(.14 0 0 -.14 72.264 17.516)" fill="#969696" id="text_21"><defs><path d="M17.828 8.297h18.797q9.766 0 15.281 7.5 5.516 7.5 5.516 20.484 0 12.844-5.563 19.969-5.562 7.125-16.062 7.234H17.828zM8.11 71.78h29.094q14.11 0 22.094-9.703 7.984-9.687 7.984-25.156 0-16.61-7.984-26.766Q51.313 0 36.813 0H8.108z" id="HelveticaWorld-Regular-68"/><path d="M39.016 52.297h9.562L29.891.984q-.5-1.375-.985-2.593-4.25-11.329-7.328-15.547-3.078-4.235-9.953-4.235-3.61 0-5.906.782v8.015q2.484-.89 5.468-.89 3.22 0 4.704 2.03 1.5 2.032 4.421 9.938L.875 52.297h9.922L24.812 9.719H25z" id="HelveticaWorld-Regular-121"/></defs><use xlink:href="#HelveticaWorld-Regular-68"/><use x="72.021" xlink:href="#HelveticaWorld-Regular-97"/><use x="126.953" xlink:href="#HelveticaWorld-Regular-105"/><use x="148.975" xlink:href="#HelveticaWorld-Regular-108"/><use x="170.996" xlink:href="#HelveticaWorld-Regular-121"/><use x="220.605" xlink:href="#HelveticaWorld-Regular-32"/><use x="245.02" xlink:href="#HelveticaWorld-Regular-110"/><use x="300.195" xlink:href="#HelveticaWorld-Regular-117"/><use x="354.98" xlink:href="#HelveticaWorld-Regular-109"/><use x="437.988" xlink:href="#HelveticaWorld-Regular-98"/><use x="494.482" xlink:href="#HelveticaWorld-Regular-101"/><use x="549.902" xlink:href="#HelveticaWorld-Regular-114"/><use x="582.471" xlink:href="#HelveticaWorld-Regular-32"/><use x="606.885" xlink:href="#HelveticaWorld-Regular-111"/><use x="662.793" xlink:href="#HelveticaWorld-Regular-102"/><use x="690.479" xlink:href="#HelveticaWorld-Regular-32"/><use x="714.893" xlink:href="#HelveticaWorld-Regular-113"/><use x="771.387" xlink:href="#HelveticaWorld-Regular-117"/><use x="826.172" xlink:href="#HelveticaWorld-Regular-101"/><use x="881.592" xlink:href="#HelveticaWorld-Regular-115"/><use x="931.592" xlink:href="#HelveticaWorld-Regular-116"/><use x="959.277" xlink:href="#HelveticaWorld-Regular-105"/><use x="981.299" xlink:href="#HelveticaWorld-Regular-111"/><use x="1037.207" xlink:href="#HelveticaWorld-Regular-110"/><use x="1092.383" xlink:href="#HelveticaWorld-Regular-115"/><use x="1142.383" xlink:href="#HelveticaWorld-Regular-32"/><use x="1166.797" xlink:href="#HelveticaWorld-Regular-111"/><use x="1222.705" xlink:href="#HelveticaWorld-Regular-110"/><use x="1277.881" xlink:href="#HelveticaWorld-Regular-32"/><use x="1302.295" xlink:href="#HelveticaWorld-Regular-83"/><use x="1368.506" xlink:href="#HelveticaWorld-Regular-116"/><use x="1396.191" xlink:href="#HelveticaWorld-Regular-97"/><use x="1451.123" xlink:href="#HelveticaWorld-Regular-99"/><use x="1502.393" xlink:href="#HelveticaWorld-Regular-107"/><use x="1552.393" xlink:href="#HelveticaWorld-Regular-79"/><use x="1630.176" xlink:href="#HelveticaWorld-Regular-118"/><use x="1677.785" xlink:href="#HelveticaWorld-Regular-101"/><use x="1733.205" xlink:href="#HelveticaWorld-Regular-114"/><use x="1767.273" xlink:href="#HelveticaWorld-Regular-102"/><use x="1794.959" xlink:href="#HelveticaWorld-Regular-108"/><use x="1816.98" xlink:href="#HelveticaWorld-Regular-111"/><use x="1871.389" xlink:href="#HelveticaWorld-Regular-119"/></g><path clip-path="url(#p3318211e52)" d="M221.747 313.628l2.422-1.294 2.509 1.294h10.067l2.506-2.006 2.509 2.006 2.505-4.011 2.506-.518 2.548-3.235 2.465 2.922 2.464.313 2.508-.82 2.507-4.357 2.506-2.998 2.507 2.998 2.547-1.94 2.507 4.96 2.508-6.255 2.505 2.912 2.507 2.265 2.547-1.295 2.424-3.836 2.423-3.281 2.508-13.912 2.507-4.206 2.506-13.178 2.507 15.767 2.548-.647 2.506 1.596 2.508 6.168 2.505-9.512 2.507 3.689 2.547 5.823 2.425-1.918 2.422 1.271 2.509-.841 2.506 4.076 2.507-14.105 2.506 5.047 2.548 11.647 2.506-6.665 2.509-1.747 2.505-2.265 2.506 10.677 2.548-7.118 2.424-2.126 2.423-.462 2.508 5.715 2.506-7.656 2.507 2.307 2.507-8.13 2.547 11 2.507-12.23 2.508-1.36 2.505-2.652 2.506 14.3 2.548-3.235 2.465-9.06 2.464 9.06 2.508-13.74 2.507 11.151 2.506-3.796 2.507 17.385 2.548-7.765" fill="none" stroke="#2ca02c" stroke-linecap="square" stroke-width="1.5" id="line2d_24"/><path clip-path="url(#p3318211e52)" d="M29.77 296.077l1.934 2.022 2.504 4.163 2.507 1.66 2.548-5.176 2.424-7.326 2.423 3.444 2.508 2.717 2.506-3.364 2.507-2.653 2.506.711 2.548-10.352 2.507 6.966 2.508.151 2.505-.15 2.506-6.32 2.548-7.118 2.424 5.223 2.423-21.4 2.508 19.585 2.507-13.114 2.506 9.102 2.507-19.455L86.68 276.1l2.507-6.6 5.013-11.366 2.507 8.26 2.547-9.706 2.424-11.115 2.423-7.65 2.508-11.883 2.507 18.354 2.506-10.33 2.507 15.507 2.548-5.824 2.506 9.038 2.508-10.332 2.505-11.064 2.507 3.3 2.547-5.177 2.466-30.01 2.464-15.93 2.508 32.438 2.506-13.027 2.507 7.678 2.506-11.56 2.548 24.588 2.507-25.732 2.508 4.379 2.505 6.32 2.506 11.797 2.548-14.882 2.424-36.65 2.423 6.239 2.508 6.082 2.507 26.27 2.506-27.607 2.507 9.49 2.547-6.47 2.507 8.346 2.508-25.817 2.505.41 2.507 22.237 2.547-13.588 2.424-30.666 2.423 16.43 2.508-13.804 2.507 18.334 2.506 42.511 2.507-14.04 2.548-11.648 2.506-6.406 2.508-9.123 2.505 8.455 2.507 20.662 2.547-4.53 2.425-54.721 2.422 33.37 2.509-6.148 2.506 11.97 2.507-27.348 2.506-3.71 2.548 20.059 2.506 23.768 2.509-23.768 2.505-5.651 2.506 27.003 2.548-3.235 2.465-2.833 2.464-4.284 2.508 4.745 2.507 2.372 2.506-17.75 2.507 30.691 2.547 6.47 2.507-4.4 2.508-11.776 2.505-.258 2.507 26.788 2.547-9.06 2.424-12.57 2.423-6.84 2.508 12.38 2.507-3.969 2.506 24.696 2.507-11.108 2.548 7.765 2.506 20.058 2.508-31.058 2.505-.367 2.507 27.543 2.547-23.294 2.425 19.296 2.422-21.237 2.509 12.402 2.506-12.402 2.507-2.976 2.506 17.858 2.548 16.824 2.506-11.28 2.509-37.896 2.505 31.878 2.506 10.18 2.548-10.353 2.424-15.206 2.423 8.089 2.508-.734 2.506 14.969 2.507-7.614 2.507 8.26 2.547 1.942 2.507-9.533 2.508-20.231 2.505 4.184 2.506 11.992 2.548-16.824 2.465 7.23 2.464-17.582 2.508-21.59 2.507 15.12 2.506 18.31 2.507 3.042 2.548 5.176h0" fill="none" stroke="#ff7f0e" stroke-linecap="square" stroke-width="1.5" id="line2d_25"/><path clip-path="url(#p3318211e52)" d="M29.77 312.375l1.934 1.253 2.504-1.337 2.507.69 2.548-1.294 2.424-.924 2.423-1.664 2.508-.151 2.506 2.74 2.507-2.071 2.506-3.753 2.548-2.589 2.507 2.33 2.508-1.036 2.505 1.704 2.506-2.35 2.548-1.295 2.424-2.611 2.423 5.2 2.508-5.63 2.507 4.982 2.506-8.325 2.507-2.674 2.547 2.588 2.507-3.926 2.508 4.573 2.505-5.91 2.507 11.086 2.547-9.058 2.424-4.368 2.423-3.397 2.508 3.731 2.507-8.908 2.506 4.228 2.507-10.051 2.548-3.235 2.506 13.954 2.508-9.425 2.505-5.284 2.507 3.99 2.547-1.294 2.466 2.722 2.464-13.075 2.508-.367 2.506 12.014 2.507-10.008 2.506-3.58 2.548 14.235 2.507-3.3 2.508-24.523 2.505 3.127 2.506 7.873 2.548-6.471 2.424-8.088 2.423-.324 2.508-5.694 2.507-4.012 2.506 12.704 2.507-11.41 2.547 22 2.507-19.95 2.508 5.715 2.505.97 2.507 4.207 2.547-5.824 2.424-10.56 2.423 5.384 2.508 7.462 2.507 5.479 2.506-14.17 2.507-16.889 2.548 16.824 2.506-4.616 2.508-.56 2.505-24.18 2.507 42.944 2.547-20.059 2.425-20.544 2.422 10.838 2.509-33.237 2.506 8.65 2.507 7.397 2.506-6.75 2.548 21.352 2.506-31.317 2.509 22.258 2.505.475 2.506 16.996 2.548-25.882 2.465-19.657 2.464 9.304 2.508 3.86 2.507-3.86 2.506-2.826 2.507 19.002 2.547 1.294 2.507-3.58 2.508-28.773 2.505 13.394 2.507 17.018 2.547-45.294 2.424 28.563 2.423-10.445 2.508-9.9 2.507-6.277 2.506-15.12 2.507 20.944 2.548-15.53 2.506 22 2.508-23.94 2.505 11.905 2.507 34.682 2.547-17.47 2.425.554 2.422-25.142 2.509-8.67 2.506-2.33 2.507.992 2.506 10.655 2.548 4.53 2.506-5.824 2.509-23.294 2.505 10.59 2.506 22.41 2.548-18.118 2.424-10.214 2.423-3.374 2.508 10.633 2.506 32.072 2.507-26.054 2.507-35.416 2.547 27.824 2.507-15.81 2.508 11.28 2.505-35.35 2.506 59.938 7.477-81.529 2.508-31.23L379.33 78.1l2.506 5.522 2.507-24.286 2.548 37.529h0" fill="none" stroke="#1f77b4" stroke-linecap="square" stroke-width="1.5" id="line2d_26"/></g></g><defs><clipPath id="p3318211e52"><path d="M29.771 47.516h357.12v266.112H29.771z"/></clipPath></defs></svg>