<svg height="443.234" viewBox="0 0 498.595 332.425" width="664.794" xmlns="http://www.w3.org/2000/svg" xmlns:xlink="http://www.w3.org/1999/xlink"><defs><style>*{stroke-linecap:butt;stroke-linejoin:round}</style></defs><g id="figure_1"><path d="M0 332.425h498.595V0H0z" fill="none" id="patch_1"/><g id="axes_1"><path d="M29.77 289.628h357.12V23.516H29.77z" fill="none" id="patch_2"/><path clip-path="url(#p80da4bef1e)" d="M29.77 288.988l1.99.31 2.577-1.036 2.58.374 2.62-.991 2.496 1.617 2.493-1.287 2.58 1.312 2.58-1.642 2.579-1.091 5.2.76 2.58-.76 2.581-1.885 2.578 2.568 2.579-1.576 2.621 1.984 2.495-2.043 2.493.39 2.58-.805 2.58.805 2.58-1.146 2.579.485 2.621-4.629 2.58 3.119 2.58-2.127 2.578 2.127 2.58-1.466 2.62-1.322 2.495-.555 2.493 2.208 2.581-2.281 2.58 3.603 2.579-7.36 2.58 1.08 2.62 2.974 2.58-1.664 2.58 1.003 2.578.364 2.58 2.28 2.621-4.297 2.537-2.188 2.535 2.519 2.581-.705 2.58.044 2.579-1.41 2.579 1.41 2.622-1.653 2.579-.1 2.58 1.753 2.578 2.005 2.58.309 2.621-1.984 2.495-4.132 2.493 6.116 2.58-1.334 2.58-.65 2.58 1.675 2.578 2.292 2.622-.991 2.58.066 2.58 2.248 2.578-1.224 2.579 2.215 2.621-.66 2.495-.969 2.493-.024 2.581 2.171 2.58-.187 2.579 1.212 2.579-2.204 2.621 1.323 2.58-1.852 2.58 1.19 2.578.518 2.58 1.135 2.62-1.322 2.496.602 2.492 2.373 2.582-.396 2.579-.926 2.579-.1 2.58 1.092h2.62l2.58.275 2.581-4.242 2.578 3.559 2.579-.253h2.621l2.537.877 2.535-3.522 2.581 3.581 2.58-.275 2.579-.75 2.58.75 2.62-1.653 2.58.562 2.581 2.744 2.577-1.72 2.58-.594 2.621.66 2.495 1.252 2.493-1.582 2.58-.077 2.58 1.069 2.58-.727 2.579-.926 2.621.661 2.58.948 2.58-.948 2.578.265 2.58.727 2.62-.33 2.495.188 2.493-.189 2.581.97 2.58-.64 2.579.298 2.579-.628 2.622-.33 2.579.617 2.58.044 5.158-.661 2.621.33 2.495 1.653 2.493-.66 2.58-1.39 2.58.397 2.58-.738 2.578.738 2.622-.66 5.16 1.321 2.578-1.057 2.579 1.057 2.621-1.322 2.537 1.254 2.536-1.915 2.58-.1h0" fill="none" stroke="#e377c2" stroke-linecap="square" stroke-width="1.5" id="line2d_1"/><g id="matplotlib.axis_1"><g id="xtick_1"><g id="line2d_2"><defs><path d="M0 0v3.5" id="m722a81f668" stroke="#969696" stroke-width=".8"/></defs><use x="69.094" xlink:href="#m722a81f668" y="289.628" fill="#969696" stroke="#969696" stroke-width=".8"/></g><g id="text_1"><defs><path d="M4.39 45.125q0 12.39 6.391 18.781 6.406 6.407 17.938 6.407 9.656 0 15.812-5.86 6.157-5.86 6.157-15.14 0-7.22-3.547-12.188-3.532-4.953-10.422-8.703l-12.11-6.64Q13.922 15.921 12.5 8.296h38.188V0H2.593q.39 9.906 4.297 16.5 3.906 6.594 12.203 11.375l12.593 7.328q5.032 2.89 7.329 5.984 2.297 3.094 2.297 8.516 0 5.375-3.766 9.031-3.75 3.672-10.156 3.672-7.078 0-10.594-4.672-3.516-4.656-3.61-12.609z" id="HelveticaWorld-Regular-50"/><path d="M42.484 34.188q0 14.109-3.734 21.156-3.734 7.062-10.969 7.062-7.078 0-10.89-7.062-3.797-7.047-3.797-21.157 0-13.671 3.75-20.937Q20.609 6 27.78 6q7.235 0 10.969 7 3.734 7.016 3.734 21.188zm9.422 0q0-17.297-6.25-26.704-6.25-9.39-17.875-9.39-12.062 0-18.062 9.734-6 9.75-6 26.36 0 17.03 6.14 26.578 6.157 9.547 17.922 9.547 11.625 0 17.875-9.5t6.25-26.626z" id="HelveticaWorld-Regular-48"/><path d="M35.89 0h-9.374v49.906H10.109v6.985q8.594.28 12.782 2.75Q27.094 62.109 29 70.313h6.89z" id="HelveticaWorld-Regular-49"/></defs><g transform="matrix(.14 0 0 -.14 53.523 306.678)" fill="#969696"><use xlink:href="#HelveticaWorld-Regular-50"/><use x="55.615" xlink:href="#HelveticaWorld-Regular-48"/><use x="111.23" xlink:href="#HelveticaWorld-Regular-49"/><use x="166.846" xlink:href="#HelveticaWorld-Regular-48"/></g></g></g><g id="xtick_2"><use x="130.826" xlink:href="#m722a81f668" y="289.628" fill="#969696" stroke="#969696" stroke-width=".8" id="line2d_3"/><g transform="matrix(.14 0 0 -.14 115.256 306.678)" fill="#969696" id="text_2"><use xlink:href="#HelveticaWorld-Regular-50"/><use x="55.615" xlink:href="#HelveticaWorld-Regular-48"/><use x="111.23" xlink:href="#HelveticaWorld-Regular-49"/><use x="166.846" xlink:href="#HelveticaWorld-Regular-50"/></g></g><g id="xtick_3"><use x="192.644" xlink:href="#m722a81f668" y="289.628" fill="#969696" stroke="#969696" stroke-width=".8" id="line2d_4"/><g id="text_3"><defs><path d="M10.594 24.703h22.61v31.89h-.188zM42 17.093V0h-8.797v17.094H2.484v8.593L34.72 70.314H42v-45.61h10.297v-7.61z" id="HelveticaWorld-Regular-52"/></defs><g transform="matrix(.14 0 0 -.14 177.073 306.678)" fill="#969696"><use xlink:href="#HelveticaWorld-Regular-50"/><use x="55.615" xlink:href="#HelveticaWorld-Regular-48"/><use x="111.23" xlink:href="#HelveticaWorld-Regular-49"/><use x="166.846" xlink:href="#HelveticaWorld-Regular-52"/></g></g></g><g id="xtick_4"><use x="254.377" xlink:href="#m722a81f668" y="289.628" fill="#969696" stroke="#969696" stroke-width=".8" id="line2d_5"/><g id="text_4"><defs><path d="M14.11 21.578q0-6.875 4.093-11.234Q22.313 6 28.906 6q6.297 0 10.032 4.438 3.734 4.453 3.734 11.687 0 6.297-3.688 10.547-3.687 4.25-10.468 4.25-6.594 0-10.5-4.156-3.907-4.157-3.907-11.188zM41.702 51.61q-.984 5.375-3.984 8.078-3 2.72-8.125 2.72-8.11 0-12.36-7.923-4.25-7.906-4.343-18.109l.203-.188q5.61 8.641 16.687 8.641 8.844 0 15.438-5.86 6.593-5.859 6.593-16.452 0-10.5-6.25-17.47-6.25-6.952-16.843-6.952-12.219 0-18.563 8.687-6.344 8.703-6.344 25.938 0 16.593 6.485 27.093 6.5 10.5 19.484 10.5 8.407 0 14.219-5.015 5.813-5 6.297-13.688z" id="HelveticaWorld-Regular-54"/></defs><g transform="matrix(.14 0 0 -.14 238.806 306.678)" fill="#969696"><use xlink:href="#HelveticaWorld-Regular-50"/><use x="55.615" xlink:href="#HelveticaWorld-Regular-48"/><use x="111.23" xlink:href="#HelveticaWorld-Regular-49"/><use x="166.846" xlink:href="#HelveticaWorld-Regular-54"/></g></g></g><g id="xtick_5"><use x="316.194" xlink:href="#m722a81f668" y="289.628" fill="#969696" stroke="#969696" stroke-width=".8" id="line2d_6"/><g id="text_5"><defs><path d="M27.594 40.578q5.422 0 8.953 3.094 3.547 3.11 3.547 8.234 0 4.594-3.407 7.547-3.39 2.953-9.687 2.953-5.61 0-8.672-3.11-3.047-3.093-3.047-7.874 0-5.125 3.813-7.984 3.812-2.86 8.5-2.86zm.093-7.562q-6.78 0-10.64-3.766-3.86-3.766-3.86-9.234 0-6.297 3.907-10.157Q21 6 28.219 6q6.406 0 10.234 3.86 3.828 3.859 3.828 10.265 0 5.469-3.828 9.172-3.828 3.719-10.766 3.719zM49.22 52.203q0-10.594-9.032-14.797 6.204-2.781 8.86-7.36 2.656-4.562 2.656-9.733 0-10.016-6.453-16.125-6.438-6.094-17.375-6.094-9.563 0-16.813 5.25-7.25 5.25-7.25 17.062 0 11.922 11.907 16.907-9.516 3.796-9.516 13.671 0 8.297 5.64 13.813 5.641 5.516 15.641 5.516 10.016 0 15.875-5.204 5.86-5.203 5.86-12.906z" id="HelveticaWorld-Regular-56"/></defs><g transform="matrix(.14 0 0 -.14 300.623 306.678)" fill="#969696"><use xlink:href="#HelveticaWorld-Regular-50"/><use x="55.615" xlink:href="#HelveticaWorld-Regular-48"/><use x="111.23" xlink:href="#HelveticaWorld-Regular-49"/><use x="166.846" xlink:href="#HelveticaWorld-Regular-56"/></g></g></g><g id="xtick_6"><use x="377.927" xlink:href="#m722a81f668" y="289.628" fill="#969696" stroke="#969696" stroke-width=".8" id="line2d_7"/><g transform="matrix(.14 0 0 -.14 362.356 306.678)" fill="#969696" id="text_6"><use xlink:href="#HelveticaWorld-Regular-50"/><use x="55.615" xlink:href="#HelveticaWorld-Regular-48"/><use x="111.23" xlink:href="#HelveticaWorld-Regular-50"/><use x="166.846" xlink:href="#HelveticaWorld-Regular-48"/></g></g></g><g id="matplotlib.axis_2"><g id="ytick_1"><path clip-path="url(#p80da4bef1e)" d="M29.77 289.628h357.12" fill="none" stroke="#969696" stroke-linecap="square" stroke-width=".2" id="line2d_8"/><use xlink:href="#HelveticaWorld-Regular-48" transform="matrix(.14 0 0 -.14 14.985 294.653)" fill="#969696" id="text_7"/></g><g id="ytick_2"><path clip-path="url(#p80da4bef1e)" d="M29.77 238.387h357.12" fill="none" stroke="#969696" stroke-linecap="square" stroke-width=".2" id="line2d_9"/><g id="text_8"><defs><path d="M14.703 40.922q5.813 4.39 13.625 4.39 9.469 0 16.281-6.296 6.813-6.297 6.813-16.22 0-10.78-6.578-17.796-6.563-7-18.422-7-10.313 0-16.266 5.047Q4.203 8.109 3.22 17.39h9.094q.671-5.672 4.437-8.672 3.766-3 10.453-3 6.485 0 10.64 4.484Q42 14.703 42 21.688q0 7.125-4.36 11.421-4.343 4.297-11.218 4.297-7.813 0-13.047-6.687l-7.563.39 5.266 37.594h36.438v-8.5H17.672z" id="HelveticaWorld-Regular-53"/></defs><use xlink:href="#HelveticaWorld-Regular-53" transform="matrix(.14 0 0 -.14 14.985 243.412)" fill="#969696"/></g></g><g id="ytick_3"><path clip-path="url(#p80da4bef1e)" d="M29.77 187.146h357.12" fill="none" stroke="#969696" stroke-linecap="square" stroke-width=".2" id="line2d_10"/><g transform="matrix(.14 0 0 -.14 7.2 192.17)" fill="#969696" id="text_9"><use xlink:href="#HelveticaWorld-Regular-49"/><use x="55.615" xlink:href="#HelveticaWorld-Regular-48"/></g></g><g id="ytick_4"><path clip-path="url(#p80da4bef1e)" d="M29.77 135.905h357.12" fill="none" stroke="#969696" stroke-linecap="square" stroke-width=".2" id="line2d_11"/><g transform="matrix(.14 0 0 -.14 7.2 140.93)" fill="#969696" id="text_10"><use xlink:href="#HelveticaWorld-Regular-49"/><use x="55.615" xlink:href="#HelveticaWorld-Regular-53"/></g></g><g id="ytick_5"><path clip-path="url(#p80da4bef1e)" d="M29.77 84.664h357.12" fill="none" stroke="#969696" stroke-linecap="square" stroke-width=".2" id="line2d_12"/><g transform="matrix(.14 0 0 -.14 7.2 89.689)" fill="#969696" id="text_11"><use xlink:href="#HelveticaWorld-Regular-50"/><use x="55.615" xlink:href="#HelveticaWorld-Regular-48"/></g></g><g id="ytick_6"><path clip-path="url(#p80da4bef1e)" d="M29.77 33.423h357.12" fill="none" stroke="#969696" stroke-linecap="square" stroke-width=".2" id="line2d_13"/><g transform="matrix(.14 0 0 -.14 7.2 38.448)" fill="#969696" id="text_12"><use xlink:href="#HelveticaWorld-Regular-50"/><use x="55.615" xlink:href="#HelveticaWorld-Regular-53"/></g></g></g><path clip-path="url(#p80da4bef1e)" d="M47.107 289.628l2.579-.33 2.579.33 2.58-.33 2.62.33h7.739l2.579-.66h2.621l2.495.294 2.493.036 2.58.33 2.58-.33 2.58-.695 2.579.033 2.621-.33 5.16.661 5.157-1.322 2.622 1.322 2.494-1.535 2.493-1.11 2.581.915 2.58-.584 2.579-1.466 2.58 1.797 2.62-.331 2.58-.44 2.58.11 2.578.914 2.58-2.568 2.621 2.976 2.537-.137 2.535-4.822 2.581 2.843 2.58.793 2.579-1.135 2.579-2.832 2.622 2.314 2.579-.506 2.58 1.498 2.578-2.865 2.58-1.432 2.621 3.305 2.495 1.3 2.493-2.953 2.58.463 2.58 1.521 5.158-4.298 2.622.992 2.58 3.152 2.58-.838 2.578-2.578 2.579-1.72 2.621 2.645 2.495-1.877 2.493.886 2.581-1.642 2.58 3.625 2.579-1.234 2.579 2.226 2.621-.661 2.58-1.565 2.58 1.565 2.578-.54 2.58.54 2.62.33 2.496.13 2.492-4.427 2.582 2.06 2.579.254 2.579-2.645 2.58 1.984 2.62.33 2.58 2.127 2.581-.143 2.578-1.565 2.579-.088 2.621 1.322 2.537-2.553 2.535-1.745 2.581 2.722 2.58-2.06 2.579 1.377 2.58-.386 2.62-1.983 2.58 3.394 2.581 1.895 2.577-.87 2.58-3.097 2.621-.992 2.495-1.499 2.493 2.491 2.58 4.805 2.58-5.797 2.58 2.722 2.579-1.73 2.621-3.636 2.58 2.292 2.58.352 2.578-1.035 2.58.705 2.62-.661L320 283.04l2.493-4.321 2.581-.022 2.58-.309 2.579-5.499 2.579 4.508 2.622-1.323 2.579 5.014 2.58-5.344 2.578.22 2.58 4.738 2.621-1.983 2.495-8.49 2.493 1.548 2.58.088 2.58 6.523 2.58-2.766 2.578-2.523 2.622-.33 2.58-1.588 2.58-1.057 2.578 1.057 2.579 4.563 2.621-11.902 2.537 4.23 2.536 2.713 2.58-7.46h0" fill="none" stroke="#8c564b" stroke-linecap="square" stroke-width="1.5" id="line2d_14"/><path clip-path="url(#p80da4bef1e)" d="M98.65 289.628l2.62-.33 2.495.33H129.516l2.621-.33 2.537.33 2.535-.33 2.581.33h2.58l2.579-.341 2.579.341h25.708l2.58-.341 2.578.01 2.622.331H188.754l2.579-.33h2.621l2.495.33 2.493-.33 2.581.33 2.58-.33 2.579.33h10.36l2.578-.341 2.58.341h2.62l2.496-.366 2.492.036 2.582-1.036 2.579-1.94 2.579-3.868 2.58-8.694 2.62-21.488 2.58 13.102 2.581.121 2.578 4.32 2.579.97 2.621-2.976 2.537 4.15 2.535-1.835 2.581 2.082 2.58-.099 2.579-4.342 2.58 3.68 2.62.662 2.58-4.342 2.581 3.68 2.577-2.313 2.58 5.62 2.621-.33 2.495-2.362 2.493.378 2.58-1.598 2.58 1.598 2.58 2.16 2.579-4.474 2.621.66 2.58-3.702 2.58 3.042 2.578-3.383 2.58 10.656 2.62-7.273 2.495 1.57 2.493-3.885 2.581 6.105 2.58-2.468 2.579 1.443 2.579-2.104 2.622-5.29 2.579-2.854 2.58.54 2.578 6.292 2.58 7.262 2.621-12.231 2.495 3.896 2.493-1.252 2.58 6.425 2.58.187 2.58-1.554 2.578-4.397 2.622 3.968 2.58 1.112 2.58-6.732 2.578 2.975 2.579.33 2.621-4.628 2.537-1.003 2.536 4.97 2.58-5.477" fill="none" stroke="#9467bd" stroke-linecap="square" stroke-width="1.5" id="line2d_15"/><g id="text_13"><defs><path d="M12.984 26.313q0-9.61 3.813-14.907Q20.609 6.11 27.094 6.11q6.312 0 10.312 4.579 4 4.593 4 13 0 11.03-3.5 16.625-3.484 5.593-10.61 5.593-7.171 0-10.75-4.765-3.562-4.766-3.562-14.828zM49.812 2.983q0-12.609-6.062-18.797-6.047-6.203-18.266-6.203-8.78 0-13.984 4.047Q6.297-13.922 5.516-6.39h8.796q.672-3.812 3.532-6.062 2.86-2.25 8.281-2.25 7.375 0 11.125 3.969 3.766 3.953 3.766 12.828v3.719h-.188q-4.937-7.329-13.922-7.329-11.187 0-17.093 8.25-5.907 8.25-5.907 20.953 0 11.625 5.953 18.875 5.97 7.25 15.829 7.25 9.906 0 15.625-8.89h.187v7.375h8.313z" id="HelveticaWorld-Regular-103"/><path d="M12.703 26.219q0-8.735 3.953-14.375 3.953-5.64 11.219-5.64 7.531 0 11.438 5.905 3.906 5.907 3.906 14.11 0 8.297-3.907 14.078-3.906 5.797-11.437 5.797-6.969 0-11.078-5.453-4.094-5.438-4.094-14.422zm-8.984 0q0 11.672 6.484 19.625 6.5 7.968 17.672 7.968 11.438 0 17.875-8.062 6.453-8.047 6.453-19.531 0-11.516-6.406-19.625-6.39-8.11-17.922-8.11-11.078 0-17.625 7.86-6.531 7.86-6.531 19.875z" id="HelveticaWorld-Regular-111"/><path d="M15.375 0H6.594v71.781h8.781z" id="HelveticaWorld-Regular-108"/><path d="M42.484 30.328q-.687 8.485-4.5 12.031-3.797 3.547-10.109 3.547-6.39 0-10.328-4.5-3.922-4.484-4.172-11.078zm8.391-13.922q-1.453-8.11-7.953-13.422-5.719-4.5-15.047-4.593-10.984.093-17.438 7.203Q4 12.704 4 24.704q0 13.78 6.64 21.437 6.641 7.672 18.47 7.672 10.593 0 16.546-7.922 5.953-7.907 5.953-22.594H13.375q0-8.203 3.813-12.703Q21 6.109 28.608 6.109q5.375 0 9.235 3.235 3.86 3.25 4.25 7.062z" id="HelveticaWorld-Regular-101"/><path d="M28.906 23.188H4.391v8.984h24.515z" id="HelveticaWorld-Regular-45"/><path d="M39.594 34.719q-1.89 11.187-12.39 11.187-6.5 0-10.454-5.203-3.953-5.203-3.953-14.484 0-10.11 3.656-15.11 3.672-5 10.64-5 4.688 0 8.11 3.438 3.422 3.437 4.39 8.953h8.5q-1.312-9.703-6.859-14.86-5.547-5.156-14.328-5.156-10.297 0-16.89 7.047-6.594 7.063-6.594 19.172 0 13.281 6.594 21.188 6.593 7.922 18.5 7.922 8.687 0 13.843-5.204 5.157-5.203 5.735-13.89z" id="HelveticaWorld-Regular-99"/><path d="M49.219 0h-8.844v34.188q0 6.296-2.438 9-2.437 2.718-7.953 2.718-6.797 0-10.703-4.406-3.906-4.39-3.906-12.984V0H6.594v71.781h8.781V45.312h.203q6 8.5 15.328 8.5 8.594 0 13.453-4.5 4.86-4.484 4.86-13.718z" id="HelveticaWorld-Regular-104"/><path d="M15.375 0H6.594v52.297h8.297v-8.688h.203q5.703 10.203 14.687 10.203 1.422 0 2.297-.296V44.39h-3.266q-5.906 0-9.671-4.016-3.766-4-3.766-9.953z" id="HelveticaWorld-Regular-114"/><path d="M6.594 52.297h8.297v-7.375h.203q5.906 8.89 15.812 8.89 9.813 0 13.922-8.5 3.75 4.594 7.266 6.547 3.515 1.953 8.703 1.953 6.781 0 11.484-4.453Q77 44.922 77 36.187V0h-8.781v33.797q0 6.094-2.297 9.094-2.297 3.015-7.422 3.015-5.172 0-8.75-4.203-3.563-4.203-3.563-9.812V0h-8.78v36.188q0 4.53-2.11 7.124-2.094 2.594-6.094 2.594-6.297 0-10.062-4.687-3.766-4.688-3.766-12.703V0H6.594z" id="HelveticaWorld-Regular-109"/></defs><g transform="matrix(.14 0 0 -.14 390.462 27)" fill="#1f77b4"><use xlink:href="#HelveticaWorld-Regular-103"/><use x="55.908" xlink:href="#HelveticaWorld-Regular-111"/><use x="111.816" xlink:href="#HelveticaWorld-Regular-111"/><use x="167.725" xlink:href="#HelveticaWorld-Regular-103"/><use x="223.633" xlink:href="#HelveticaWorld-Regular-108"/><use x="245.654" xlink:href="#HelveticaWorld-Regular-101"/><use x="301.074" xlink:href="#HelveticaWorld-Regular-45"/><use x="334.375" xlink:href="#HelveticaWorld-Regular-99"/><use x="385.645" xlink:href="#HelveticaWorld-Regular-104"/><use x="440.82" xlink:href="#HelveticaWorld-Regular-114"/><use x="472.389" xlink:href="#HelveticaWorld-Regular-111"/><use x="528.297" xlink:href="#HelveticaWorld-Regular-109"/><use x="611.305" xlink:href="#HelveticaWorld-Regular-101"/></g></g><g id="text_14"><defs><path d="M17.188 45.016V0H8.405v45.016H1.22v7.28h7.187v8.985q0 5.907 3.578 8.703 3.594 2.813 10.032 2.813 2.203 0 3.968-.188v-7.906q-1.562.188-3.578.188-2.922 0-4.078-1.438-1.14-1.437-1.14-4.656v-6.5h8.796v-7.281z" id="HelveticaWorld-Regular-102"/><path d="M6.594 61.813v9.968h8.781v-9.969zM15.375 0H6.594v52.297h8.781z" id="HelveticaWorld-Regular-105"/><path d="M49.031 0H37.703l-12.89 19.672L12.203 0H1.125l18.266 26.906L2 52.296h11.188l12.109-18.405L37.5 52.297h10.688l-17.579-25.39z" id="HelveticaWorld-Regular-120"/></defs><g transform="matrix(.14 0 0 -.14 390.462 212.243)" fill="#ff7f0e"><use xlink:href="#HelveticaWorld-Regular-102"/><use x="27.686" xlink:href="#HelveticaWorld-Regular-105"/><use x="49.707" xlink:href="#HelveticaWorld-Regular-114"/><use x="81.275" xlink:href="#HelveticaWorld-Regular-101"/><use x="135.695" xlink:href="#HelveticaWorld-Regular-102"/><use x="161.381" xlink:href="#HelveticaWorld-Regular-111"/><use x="214.414" xlink:href="#HelveticaWorld-Regular-120"/></g></g><g id="text_15"><defs><path d="M36.078 37.406q-.187 4.688-3.344 6.735-3.14 2.047-9.047 2.047-4.296 0-7.359-1.907-3.047-1.89-3.047-5.468 0-2.829 1.797-4.172 1.813-1.344 7.828-2.86l8.688-2.187q7.906-2 11.297-5.11 3.406-3.093 3.406-8.656 0-7.719-5.64-12.531-5.641-4.813-15.063-4.813-11 0-16.64 4.563-5.626 4.578-5.735 13.75h8.5q.203-5.422 3.594-8.063 3.39-2.625 10.171-2.625 5.516 0 8.766 2.188 3.25 2.203 3.25 6.11 0 2.78-2.11 4.437-2.093 1.672-8.296 3.078l-10.203 2.5q-6.203 1.562-9.157 4.656-2.953 3.094-2.953 8.031 0 7.72 5.516 12.203 5.531 4.5 14.406 4.5 9.485 0 14.531-4.624 5.047-4.61 5.344-11.782z" id="HelveticaWorld-Regular-115"/><path d="M38.375 26.703q-.969-1.015-3.828-1.656-2.86-.625-10.672-1.656-5.766-.688-8.469-2.844-2.703-2.14-2.703-5.656 0-4.297 2.281-6.688 2.297-2.39 7.329-2.39 6.296 0 11.171 3.578 4.891 3.593 4.891 8.718zM6.203 36.375q.297 8.844 5.734 13.14 5.454 4.297 15.844 4.297 8.297 0 13.907-3.765 5.624-3.75 5.624-10.844V9.078Q47.313 6 50.094 6q1.125 0 2.89.39V0Q50.594-.984 48-.984q-4.5 0-6.703 1.921-2.188 1.938-2.281 6.047-7.516-8.5-18.891-8.5-7.422 0-11.922 4.204Q3.72 6.89 3.72 13.624q0 6.89 3.906 11.125Q11.531 29 19 29.89l15.516 1.891q4.203.64 4.203 6.203 0 4.11-3.047 6.297-3.047 2.203-9.25 2.203-5.516 0-8.485-2.437-2.953-2.438-3.53-7.672z" id="HelveticaWorld-Regular-97"/></defs><g transform="matrix(.14 0 0 -.14 390.462 230.69)" fill="#2ca02c"><use xlink:href="#HelveticaWorld-Regular-115"/><use x="50" xlink:href="#HelveticaWorld-Regular-97"/><use x="104.932" xlink:href="#HelveticaWorld-Regular-102"/><use x="130.617" xlink:href="#HelveticaWorld-Regular-97"/><use x="185.549" xlink:href="#HelveticaWorld-Regular-114"/><use x="218.117" xlink:href="#HelveticaWorld-Regular-105"/></g></g><g id="text_16"><defs><path d="M49.219 0h-8.844v32.172q0 7.422-2.594 10.578-2.578 3.156-8.578 3.156-5.906 0-9.875-4.5-3.953-4.484-3.953-12.89V0H6.594v52.297h8.297v-7.375h.203q6.203 8.89 15.812 8.89 8.89 0 13.594-4.718 4.719-4.703 4.719-13.5z" id="HelveticaWorld-Regular-110"/><path d="M17.188 45.016V10.984q0-2 1.093-3.046 1.11-1.047 3.938-1.047h3.375V0Q20.797-.688 19-.688q-5.516 0-8.063 2.641-2.53 2.64-2.53 8.547v34.516H1.311v7.28h7.094v14.595h8.781V52.297h8.407v-7.281z" id="HelveticaWorld-Regular-116"/><path d="M14.984 23.688q0-8.407 4.094-13 4.11-4.579 10.219-4.579 6.687 0 10.39 5.438 3.72 5.453 3.72 14.765 0 10.22-3.563 14.907-3.563 4.687-10.735 4.687-6.984 0-10.562-5.5-3.563-5.5-3.563-16.718zm-8.39 28.609h8.297v-7.375h.203q5.61 8.89 15.625 8.89 10.11 0 15.937-7.359 5.828-7.344 5.828-18.766 0-12.796-5.953-21Q40.578-1.515 29.5-1.515q-9.094 0-13.922 7.032h-.203v-26.22H6.594z" id="HelveticaWorld-Regular-112"/></defs><g transform="matrix(.14 0 0 -.14 390.462 248.608)" fill="#d62728"><use xlink:href="#HelveticaWorld-Regular-105"/><use x="22.021" xlink:href="#HelveticaWorld-Regular-110"/><use x="77.197" xlink:href="#HelveticaWorld-Regular-116"/><use x="104.883" xlink:href="#HelveticaWorld-Regular-101"/><use x="160.303" xlink:href="#HelveticaWorld-Regular-114"/><use x="192.871" xlink:href="#HelveticaWorld-Regular-110"/><use x="248.047" xlink:href="#HelveticaWorld-Regular-101"/><use x="303.467" xlink:href="#HelveticaWorld-Regular-116"/><use x="331.152" xlink:href="#HelveticaWorld-Regular-45"/><use x="364.453" xlink:href="#HelveticaWorld-Regular-101"/><use x="416.998" xlink:href="#HelveticaWorld-Regular-120"/><use x="466.998" xlink:href="#HelveticaWorld-Regular-112"/><use x="523.492" xlink:href="#HelveticaWorld-Regular-108"/><use x="545.514" xlink:href="#HelveticaWorld-Regular-111"/><use x="601.422" xlink:href="#HelveticaWorld-Regular-114"/><use x="632.99" xlink:href="#HelveticaWorld-Regular-101"/><use x="688.41" xlink:href="#HelveticaWorld-Regular-114"/></g></g><g id="text_17"><defs><path d="M13.094 26.313q0-9.704 3.844-14.954 3.859-5.25 10.265-5.25 6.094 0 10.188 4.485 4.109 4.5 4.109 13.094 0 11.03-3.5 16.625-3.484 5.593-10.61 5.593-6.78 0-10.546-4.453-3.75-4.437-3.75-15.14zM50.39 0h-8.297v7.172h-.203q-4.97-8.688-15.078-8.688-10.891 0-16.86 8.297Q4 15.094 4 27.688q0 11.625 5.906 18.875 5.922 7.25 15.875 7.25 9.813 0 15.625-8.891l.203.594V71.78h8.782z" id="HelveticaWorld-Regular-100"/></defs><g transform="matrix(.14 0 0 -.14 390.462 277.987)" fill="#9467bd"><use xlink:href="#HelveticaWorld-Regular-109"/><use x="83.008" xlink:href="#HelveticaWorld-Regular-105"/><use x="105.029" xlink:href="#HelveticaWorld-Regular-99"/><use x="156.299" xlink:href="#HelveticaWorld-Regular-114"/><use x="187.867" xlink:href="#HelveticaWorld-Regular-111"/><use x="243.775" xlink:href="#HelveticaWorld-Regular-115"/><use x="293.775" xlink:href="#HelveticaWorld-Regular-111"/><use x="349.684" xlink:href="#HelveticaWorld-Regular-102"/><use x="377.369" xlink:href="#HelveticaWorld-Regular-116"/><use x="405.055" xlink:href="#HelveticaWorld-Regular-45"/><use x="438.355" xlink:href="#HelveticaWorld-Regular-101"/><use x="493.775" xlink:href="#HelveticaWorld-Regular-100"/><use x="550.758" xlink:href="#HelveticaWorld-Regular-103"/><use x="606.666" xlink:href="#HelveticaWorld-Regular-101"/></g></g><g id="text_18"><defs><path d="M6.11 52.297h8.78V17.578q0-5.765 2.61-8.625Q20.125 6.11 25 6.11q6.781 0 10.594 4.797 3.812 4.813 3.812 12.578v28.813h8.782V0H39.89v7.625l-.188.188q-4.984-9.329-16.61-9.329-7.515 0-12.25 4.094Q6.11 6.688 6.11 14.703z" id="HelveticaWorld-Regular-117"/></defs><g transform="matrix(.14 0 0 -.14 390.462 263.308)" fill="#8c564b"><use xlink:href="#HelveticaWorld-Regular-99"/><use x="51.27" xlink:href="#HelveticaWorld-Regular-104"/><use x="106.445" xlink:href="#HelveticaWorld-Regular-114"/><use x="138.014" xlink:href="#HelveticaWorld-Regular-111"/><use x="193.922" xlink:href="#HelveticaWorld-Regular-109"/><use x="276.93" xlink:href="#HelveticaWorld-Regular-105"/><use x="298.951" xlink:href="#HelveticaWorld-Regular-117"/><use x="353.736" xlink:href="#HelveticaWorld-Regular-109"/></g></g><g transform="matrix(.14 0 0 -.14 390.462 292.708)" fill="#e377c2" id="text_19"><use xlink:href="#HelveticaWorld-Regular-111"/><use x="55.908" xlink:href="#HelveticaWorld-Regular-112"/><use x="112.402" xlink:href="#HelveticaWorld-Regular-101"/><use x="167.822" xlink:href="#HelveticaWorld-Regular-114"/><use x="199.391" xlink:href="#HelveticaWorld-Regular-97"/></g><g id="text_20"><defs><path d="M50.39 50.781q-.296 6.844-5.109 10.719-4.797 3.875-12.656 3.875-7.922 0-12.172-3.25-4.234-3.234-4.234-9.344 0-3.265 1.843-5.61 1.86-2.343 6.641-3.468l20.516-4.687q8.297-1.813 12.297-6.875 4.015-5.047 4.015-12.313 0-10.64-7.812-16.187-7.813-5.547-20.313-5.547-9.531 0-15.031 2.437-5.484 2.453-9.734 7.766-4.25 5.328-4.25 14.89h9.093q0-8 5.313-12.406 5.328-4.39 14.5-4.39 8.89 0 13.844 3.156 4.953 3.156 4.953 8.953 0 5.281-2.953 7.89Q46.188 29 37.594 31l-15.469 3.625q-7.719 1.75-11.531 6.125Q6.78 45.125 6.78 51.516q0 9.672 6.516 15.922 6.531 6.25 18.203 6.25 13.172 0 20.328-5.5 7.156-5.485 7.688-17.407z" id="HelveticaWorld-Regular-83"/><path d="M50 0H38.719L22.406 26.422l-7.312-6.594V0h-8.5v71.781h8.5v-41.61l22.5 22.126H48.78L28.813 32.813z" id="HelveticaWorld-Regular-107"/><path d="M63.922 35.89q0 12.594-6.672 20.891-6.656 8.313-18.328 8.313-11.531 0-18.266-8.313-6.734-8.297-6.734-20.89 0-12.985 6.828-21.094 6.844-8.11 18.172-8.11 11.078 0 18.031 7.907 6.969 7.922 6.969 21.297zm9.953 0q0-16.062-9.281-26.937-9.266-10.86-25.672-10.86-16.516 0-25.766 10.86-9.25 10.875-9.25 26.938 0 16.109 9.25 26.953 9.25 10.843 25.766 10.843 16.89 0 25.922-11.046 9.031-11.032 9.031-26.75z" id="HelveticaWorld-Regular-79"/><path d="M39.406 52.297h9.625L29.11 0h-9.437L.594 52.297h10.203L24.422 9.719h.187z" id="HelveticaWorld-Regular-118"/><path d="M25.594 0h-8.985L1.516 52.297h9.468L21 11.187h.188l10.109 41.11h9.922l10.203-41.11h.187l10.594 41.11h8.703L55.812 0h-9.234L35.984 40.484h-.187z" id="HelveticaWorld-Regular-119"/><path d="M44 29.5L33.406 61.078h-.203L21.687 29.5zm-25.297-8.594L11.188 0h-9.97l27 71.781h10.985L65.187 0H54.594l-7.078 20.906z" id="HelveticaWorld-Regular-65"/><path d="M17.828 38.625H37.11q7.282 0 10.938 3.188 3.656 3.203 3.656 9.703 0 5.812-3.516 8.89-3.515 3.078-10.687 3.078H17.828zm0-38.625H8.11v71.781h32.266q9.625 0 15.484-5.594 5.86-5.593 5.86-14.578 0-9.328-5.672-15.312-5.656-5.969-15.672-5.969H17.828z" id="HelveticaWorld-Regular-80"/><path d="M17.828 0H8.11v71.781h9.72z" id="HelveticaWorld-Regular-73"/><path d="M9.422 73.688h7.281V-1.906H9.422z" id="HelveticaWorld-Regular-124"/><path d="M55.61 71.781h9.374V0h-10.78L17.577 58.016h-.187V0H8.109v71.781h11.375l35.938-57.969h.187z" id="HelveticaWorld-Regular-78"/><path d="M12.703 26.219q0-8.735 3.953-14.375 3.953-5.64 11.219-5.64 7.531 0 11.438 5.905 3.906 5.907 3.906 14.11 0 8.297-3.907 14.078-3.906 5.797-11.437 5.797-6.969 0-11.078-5.453-4.094-5.438-4.094-14.422zm-8.984 0q0 11.672 6.484 19.625 6.5 7.968 17.672 7.968 11.438 0 17.875-8.062 6.453-8.047 6.453-19.531 0-11.516-6.406-19.625-6.39-8.11-17.922-8.11-11.078 0-17.625 7.86-6.531 7.86-6.531 19.875zm36.734 35.406H31.47v10.156h8.984zm-16.219 0H15.25v10.156h8.984z" id="HelveticaWorld-Regular-246"/><path d="M58.016 50.203q-1.625 7.313-6.782 11.094-5.14 3.797-13.343 3.797-10.594 0-17.047-7.703-6.438-7.688-6.438-20.766 0-15.14 6.094-22.547 6.11-7.39 17.688-7.39 7.609 0 13.093 5.046 5.5 5.063 7.407 14.688h9.421Q66.22 12.594 57.625 5.344t-20.906-7.25q-14.703 0-23.516 10.11Q4.391 18.311 4.391 36.28q0 17.328 9.203 27.36 9.203 10.047 24.297 10.047 12.5 0 20.265-6.454 7.766-6.437 9.235-17.03z" id="HelveticaWorld-Regular-67"/><path d="M8.11 71.781h31.484q9.281 0 14.797-5.031 5.515-5.031 5.515-13.031 0-4.844-2.422-8.828-2.406-3.97-7.187-6.172 6.687-2.532 9.828-6.735 3.156-4.203 3.156-10.797 0-9.265-6.687-15.234Q49.906 0 38.922 0H8.109zm9.562-63.484h20.703q7.625 0 11.422 3.531 3.812 3.547 3.812 9.563 0 6.093-4.25 9.093Q45.125 33.5 36.812 33.5h-19.14zm0 33.11h17.625q7.719 0 11.312 2.796 3.594 2.813 3.594 8.781 0 5.125-3.406 7.813-3.39 2.687-11.39 2.687H17.671z" id="HelveticaWorld-Regular-66"/><path d="M37.313 0h-9.72v28.906L.485 71.781h11.329l20.609-34.469 20.562 34.47h11.422L37.312 28.905z" id="HelveticaWorld-Regular-89"/></defs><g transform="matrix(.09716 0 0 -.09716 29.77 323.214)" fill="#969696"><use xlink:href="#HelveticaWorld-Regular-83"/><use x="66.211" xlink:href="#HelveticaWorld-Regular-116"/><use x="93.896" xlink:href="#HelveticaWorld-Regular-97"/><use x="148.828" xlink:href="#HelveticaWorld-Regular-99"/><use x="200.098" xlink:href="#HelveticaWorld-Regular-107"/><use x="250.098" xlink:href="#HelveticaWorld-Regular-79"/><use x="327.881" xlink:href="#HelveticaWorld-Regular-118"/><use x="375.49" xlink:href="#HelveticaWorld-Regular-101"/><use x="430.91" xlink:href="#HelveticaWorld-Regular-114"/><use x="464.979" xlink:href="#HelveticaWorld-Regular-102"/><use x="492.664" xlink:href="#HelveticaWorld-Regular-108"/><use x="514.686" xlink:href="#HelveticaWorld-Regular-111"/><use x="569.094" xlink:href="#HelveticaWorld-Regular-119"/><use x="641.506" xlink:href="#HelveticaWorld-Regular-32"/><use x="665.92" xlink:href="#HelveticaWorld-Regular-65"/><use x="732.619" xlink:href="#HelveticaWorld-Regular-80"/><use x="797.268" xlink:href="#HelveticaWorld-Regular-73"/><use x="823.049" xlink:href="#HelveticaWorld-Regular-32"/><use x="847.463" xlink:href="#HelveticaWorld-Regular-118"/><use x="897.072" xlink:href="#HelveticaWorld-Regular-105"/><use x="919.094" xlink:href="#HelveticaWorld-Regular-97"/><use x="974.025" xlink:href="#HelveticaWorld-Regular-32"/><use x="998.439" xlink:href="#HelveticaWorld-Regular-104"/><use x="1053.615" xlink:href="#HelveticaWorld-Regular-111"/><use x="1109.523" xlink:href="#HelveticaWorld-Regular-116"/><use x="1137.209" xlink:href="#HelveticaWorld-Regular-119"/><use x="1207.246" xlink:href="#HelveticaWorld-Regular-97"/><use x="1262.178" xlink:href="#HelveticaWorld-Regular-114"/><use x="1293.746" xlink:href="#HelveticaWorld-Regular-101"/><use x="1349.166" xlink:href="#HelveticaWorld-Regular-32"/><use x="1373.58" xlink:href="#HelveticaWorld-Regular-124"/><use x="1399.557" xlink:href="#HelveticaWorld-Regular-32"/><use x="1423.971" xlink:href="#HelveticaWorld-Regular-78"/><use x="1497.066" xlink:href="#HelveticaWorld-Regular-105"/><use x="1519.088" xlink:href="#HelveticaWorld-Regular-99"/><use x="1570.357" xlink:href="#HelveticaWorld-Regular-111"/><use x="1626.266" xlink:href="#HelveticaWorld-Regular-32"/><use x="1650.68" xlink:href="#HelveticaWorld-Regular-83"/><use x="1716.891" xlink:href="#HelveticaWorld-Regular-99"/><use x="1768.16" xlink:href="#HelveticaWorld-Regular-104"/><use x="1823.336" xlink:href="#HelveticaWorld-Regular-108"/><use x="1845.357" xlink:href="#HelveticaWorld-Regular-246"/><use x="1901.266" xlink:href="#HelveticaWorld-Regular-109"/><use x="1984.273" xlink:href="#HelveticaWorld-Regular-101"/><use x="2039.693" xlink:href="#HelveticaWorld-Regular-114"/><use x="2072.262" xlink:href="#HelveticaWorld-Regular-32"/><use x="2096.676" xlink:href="#HelveticaWorld-Regular-124"/><use x="2122.652" xlink:href="#HelveticaWorld-Regular-32"/><use x="2147.066" xlink:href="#HelveticaWorld-Regular-67"/><use x="2219.381" xlink:href="#HelveticaWorld-Regular-67"/><use x="2291.695" xlink:href="#HelveticaWorld-Regular-32"/><use x="2316.109" xlink:href="#HelveticaWorld-Regular-66"/><use x="2378.922" xlink:href="#HelveticaWorld-Regular-89"/></g></g><g id="text_21"><defs><path d="M17.828 8.297h18.797q9.766 0 15.281 7.5 5.516 7.5 5.516 20.484 0 12.844-5.563 19.969-5.562 7.125-16.062 7.234H17.828zM8.11 71.78h29.094q14.11 0 22.094-9.703 7.984-9.687 7.984-25.156 0-16.61-7.984-26.766Q51.313 0 36.813 0H8.108z" id="HelveticaWorld-Regular-68"/><path d="M39.016 52.297h9.562L29.891.984q-.5-1.375-.985-2.593-4.25-11.329-7.328-15.547-3.078-4.235-9.953-4.235-3.61 0-5.906.782v8.015q2.484-.89 5.468-.89 3.22 0 4.704 2.03 1.5 2.032 4.421 9.938L.875 52.297h9.922L24.812 9.719H25z" id="HelveticaWorld-Regular-121"/><path d="M43.406 26.313q0 10.5-3.718 15.046-3.704 4.547-10.579 4.547-6.984-.11-10.562-5.453Q14.984 35.11 14.984 25q0-10.297 4.297-14.594Q23.578 6.11 29.297 6.11q6.5 0 10.297 5.344 3.812 5.344 3.812 14.86zM6.594 0v71.781h8.781V45.703h.203q5.61 8.11 15.14 8.11 9.766 0 15.766-7.25t6-18.876q0-13.093-6.062-21.156Q40.375-1.516 29.5-1.516q-9.578 0-14.406 8.016h-.203V0z" id="HelveticaWorld-Regular-98"/><path d="M41.5 23.688q0 11.125-3.5 16.671-3.484 5.547-10.61 5.547-6.874 0-10.593-4.5-3.703-4.484-3.703-15.093 0-9.422 3.75-14.813 3.765-5.39 10.36-5.39 5.812 0 10.046 4.39 4.25 4.39 4.25 13.188zm8.406-44.391H41.11V5.516h-.187Q35.89-1.516 27-1.516q-10.984 0-17 8.157-6 8.156-6 21.047 0 11.421 5.906 18.765 5.922 7.36 15.875 7.36 9.907 0 15.625-8.891h.203v7.375h8.297z" id="HelveticaWorld-Regular-113"/></defs><g transform="matrix(.14 0 0 -.14 72.264 17.516)" fill="#969696"><use xlink:href="#HelveticaWorld-Regular-68"/><use x="72.021" xlink:href="#HelveticaWorld-Regular-97"/><use x="126.953" xlink:href="#HelveticaWorld-Regular-105"/><use x="148.975" xlink:href="#HelveticaWorld-Regular-108"/><use x="170.996" xlink:href="#HelveticaWorld-Regular-121"/><use x="220.605" xlink:href="#HelveticaWorld-Regular-32"/><use x="245.02" xlink:href="#HelveticaWorld-Regular-110"/><use x="300.195" xlink:href="#HelveticaWorld-Regular-117"/><use x="354.98" xlink:href="#HelveticaWorld-Regular-109"/><use x="437.988" xlink:href="#HelveticaWorld-Regular-98"/><use x="494.482" xlink:href="#HelveticaWorld-Regular-101"/><use x="549.902" xlink:href="#HelveticaWorld-Regular-114"/><use x="582.471" xlink:href="#HelveticaWorld-Regular-32"/><use x="606.885" xlink:href="#HelveticaWorld-Regular-111"/><use x="662.793" xlink:href="#HelveticaWorld-Regular-102"/><use x="690.479" xlink:href="#HelveticaWorld-Regular-32"/><use x="714.893" xlink:href="#HelveticaWorld-Regular-113"/><use x="771.387" xlink:href="#HelveticaWorld-Regular-117"/><use x="826.172" xlink:href="#HelveticaWorld-Regular-101"/><use x="881.592" xlink:href="#HelveticaWorld-Regular-115"/><use x="931.592" xlink:href="#HelveticaWorld-Regular-116"/><use x="959.277" xlink:href="#HelveticaWorld-Regular-105"/><use x="981.299" xlink:href="#HelveticaWorld-Regular-111"/><use x="1037.207" xlink:href="#HelveticaWorld-Regular-110"/><use x="1092.383" xlink:href="#HelveticaWorld-Regular-115"/><use x="1142.383" xlink:href="#HelveticaWorld-Regular-32"/><use x="1166.797" xlink:href="#HelveticaWorld-Regular-111"/><use x="1222.705" xlink:href="#HelveticaWorld-Regular-110"/><use x="1277.881" xlink:href="#HelveticaWorld-Regular-32"/><use x="1302.295" xlink:href="#HelveticaWorld-Regular-83"/><use x="1368.506" xlink:href="#HelveticaWorld-Regular-116"/><use x="1396.191" xlink:href="#HelveticaWorld-Regular-97"/><use x="1451.123" xlink:href="#HelveticaWorld-Regular-99"/><use x="1502.393" xlink:href="#HelveticaWorld-Regular-107"/><use x="1552.393" xlink:href="#HelveticaWorld-Regular-79"/><use x="1630.176" xlink:href="#HelveticaWorld-Regular-118"/><use x="1677.785" xlink:href="#HelveticaWorld-Regular-101"/><use x="1733.205" xlink:href="#HelveticaWorld-Regular-114"/><use x="1767.273" xlink:href="#HelveticaWorld-Regular-102"/><use x="1794.959" xlink:href="#HelveticaWorld-Regular-108"/><use x="1816.98" xlink:href="#HelveticaWorld-Regular-111"/><use x="1871.389" xlink:href="#HelveticaWorld-Regular-119"/></g></g><path clip-path="url(#p80da4bef1e)" d="M29.77 249.276l1.99 10.269 2.577 5.83 2.58-2.524 2.62-2.314 2.496-11.902 2.493-5.289 2.58-.518 2.58-2.457 2.579-9.84 2.58-7.35 2.62-5.62 2.58 8.528 2.581-2.909 2.578 3.25 2.579-2.92 2.621-.33 2.495-7.485 2.493.873 2.58-10.975 2.58 2.71 2.58-.66 2.579 4.958 2.621-19.835 2.58-2.545 2.58 10.149 2.578-10.15 2.58 5.19 2.62-17.52 2.495-6.482 2.493-7.734 2.581 6.392 2.58-8.375 2.579-1.873 2.58-.11 2.62-26.778 2.58 21.763 2.58 1.378 2.578-1.036 2.58 10.623 2.621-20.497 2.537-23.745 2.535 13.167 2.581-2.777 2.58-2.513 2.579-9.102 2.579 4.805 2.622-5.951 2.579 7.978 2.58-16.573 2.578 17.256 2.58 31.34 2.621-34.05 2.495-15.81 2.493 14.157 2.58-10.667 2.58 4.055 2.58 6.193 2.578-5.201 5.201 9.642 2.581-9.973 2.578-9.157 2.579 25.686 2.621-13.554 2.495-7.52 2.493 8.182 2.581 20.683 2.58 6.755 2.579 19.89 2.579-11.956 2.621-.66 2.58 15.35 2.58 5.807 2.578-24.596 2.58 10.711 2.62-4.628 2.496 11.193 2.492-.945 2.582 2.116 2.579 16.728 2.579-12.97 2.58-4.882 2.62-11.24 2.58 21.587 2.581 14.778 2.578-4.53 2.579 16.43 2.621 8.596 2.537-.536 2.535-9.712 2.581-5.212 2.58 14.468 2.579 2.954 2.58-3.615 2.62-1.653 2.58 6.292 2.581 13.543 2.577-1.586 2.58.595 2.621-16.2 2.495 10.26 2.493-1.003 2.58 10.447 2.58-7.14 2.58-2.767 2.579 6.072 2.621-1.322 2.58 1.74 2.58 10.16 2.578-7.426 2.58 11.394 2.62-9.918 2.495.378 2.493 14.83 2.581-8.144 2.58-1.113 2.579 9.995 2.579.584 2.622-12.893 2.579 6.501 2.58-9.146 2.578 13.929 2.58-.375 2.621-2.314 2.495-7.462 2.493 6.47 2.58-4.518 2.58 8.485 2.58.055 2.578-2.7 2.622.662 2.58 2.38 2.58-8 2.578 13.466 2.579 2.071 2.621-3.967 2.537-4.206 2.536 4.537 2.58.54h0" fill="none" stroke="#d62728" stroke-linecap="square" stroke-width="1.5" id="line2d_16"/><path clip-path="url(#p80da4bef1e)" d="M29.77 285.145l1.99-.145 2.577-1.52 2.58 2.181 2.62-1.322 2.496-.567 2.493-1.086 2.58.452 2.58-1.444 2.579-5.73 2.58 3.416h2.62l2.58 1.025 2.581-1.686 2.578-5.83 2.579 5.169 2.621 1.322 2.495-4.758 2.493-.531 2.58-1.543 2.58 1.212 2.58-16.584 2.579 8.32 2.621-1.984 2.58 3.912 2.58 3.691 2.578-6.424 2.58 6.755 2.62-8.926 2.495-2.538 2.493-3.413 2.581 1.631 2.58-5.598 2.579-1.234 2.58 4.87 2.62-3.636 2.58 5.598 2.58-4.606 2.578.165 2.58 6.447 2.621-9.256 2.537 1.573 2.535-9.508 2.581 7.67 2.58.265 2.579-.265 2.579-5.355 2.622 2.975 2.579-1.036 2.58-4.915 2.578 7.306 2.58 5.257 2.621-7.604 2.495.59 2.493-3.565 2.58 1.906 2.58 5.367 2.58-.584 2.578-1.4 2.622-3.967 2.58-9.664 2.58-.915 2.578 1.94 2.579 7.647 2.621-3.636 2.495-4.84 2.493 2.195 2.581 3.075 2.58 4.86 2.579-2.128 2.579 2.458 2.621 3.967 2.58-5.058 2.58-2.546 2.578-.187 2.58 5.807 2.62-6.611 2.496 2.951 2.492-.637 2.582-.144 2.579.474 2.579-6.28 2.58 3.305 2.62-5.62 2.58-7.592 2.581.32 2.578 15.052 2.579-2.821 2.621-.33 2.537.159 2.535-2.143 2.581-4.089 2.58 8.056 2.579-1.565 2.58 8.507 2.62-9.917 2.58-3.372 2.581 3.702 2.577 4.154 2.58 4.441 2.621-5.289 2.495-6.789 2.493 3.483 2.58 1.08 2.58 3.218 2.58 3.956 2.579-2.964 2.621-8.265 2.58-.044 2.58 1.366 2.578 4.783 2.58 9.763 2.62-4.628 2.495-9.918 2.493 18.844 2.581.628 2.58 5.653 2.579-11.802 2.579-.1 5.2-12.54 2.582 4.276 2.577.165 2.58 14.05 2.621-9.587 2.495-.803 2.493 2.456 2.58-.992 5.16-.683 2.578-2.622 2.622-5.951 2.58 6.865 2.58-9.84 2.578 3.008 2.579 8.562 2.621-2.314 2.537-7.98 2.536 2.03 2.58-12.596h0" fill="none" stroke="#2ca02c" stroke-linecap="square" stroke-width="1.5" id="line2d_17"/><path clip-path="url(#p80da4bef1e)" d="M29.77 256.322l1.99 15.124 2.577-.265 2.58-2.38 2.62 1.984 2.496-4.947 2.493-5.963 2.58-2.358 2.58-.948 2.579-5.2 2.58-10.337 2.62 8.265 2.58-.32 2.581-8.276 2.578-5.047 2.579 12.65 2.621-14.876 2.495-1.263 2.493 5.23 2.58 1.675 2.58-14.237 2.58 14.92 2.579-5.994 2.621-3.306 2.58 2.127 2.58-5.433 2.578-2.083 2.58 11.01 2.62-19.175 2.495-9.622 2.493-21.123 2.581 9.532 2.58-4.903 2.579 1.487 2.58-7.107 2.62.991 2.58 2.7 2.58 4.243 2.578 5.664 2.58 7.229 2.621-15.869 2.537-22.058 2.535 11.48 2.581-.595 2.58-.067 5.158-10.909 2.622 4.628 2.579-.485 2.58-.176 2.578 5.984 2.58 10.545 2.621-18.843 2.495-12.126 2.493 15.432 2.58-10.38 2.58-.86 2.58 4.959 2.578-10.249 2.622 2.645 2.58-8.11 2.58-16.684 2.578 8.827 2.579 19.604 2.621-11.24 2.495-7.12 2.493-.484 2.581-1.443 2.58 4.418 2.579 8.221 2.579-6.898 2.621 21.157 2.58-9.135 2.58 9.135 2.578-4.01 2.58-3.263 2.62.992 2.496-2.22 2.492 4.534 2.582 2.006 2.579-7.295 2.579-.904 2.58 8.177 2.62 7.273 2.58 3.339 2.581 1.95 2.578 1.466 2.579-1.796 2.621-9.918 2.537 4.092 2.535-3.43 2.581 14.126 2.58 5.708 2.579.783 2.58 15.416 2.62-18.182 2.58 16.088 2.581-.22 2.577-6.27 2.58 18.171 2.621-17.852 2.495 1.535 2.493-6.493 2.58 17.62 2.58-5.058 2.58-5.532 2.579 14.788 2.621-1.983 2.58.518 2.58 2.127 2.578-19.208 2.58 28.464 2.62-12.232 2.495 10.78 2.493 6.41 2.581 2.106 2.58-9.378 2.579 5.62 2.579 12.232 2.622-28.761 2.579 3.89 2.58 5.697 2.578 2.501 2.58-2.832 2.621 3.636 2.495-2.585 2.493 7.214 2.58-5.433 2.58 4.11 2.58 4.772 2.578-22.623 2.622 13.554 2.58 8.727 2.58-5.421 2.578-3.46 2.579-2.16 2.621 2.644 2.537-14.785 2.536 16.438 2.58-16.827h0" fill="none" stroke="#ff7f0e" stroke-linecap="square" stroke-width="1.5" id="line2d_18"/><path clip-path="url(#p80da4bef1e)" d="M29.77 282.583l1.99 3.74 2.577-.452 2.58 1.113 2.62-.331 2.496-1.783 5.074 1 2.579-2.523 2.579 1.499 2.58-.838 2.62-1.983 2.58-1.279 2.581-5.664 2.578 2.932 2.579-10.205 2.621-4.958 2.495.425 2.493.566 2.58-4.275 2.58-6.634 2.58-3.273 2.579 4.926 2.621-5.95 2.58 2.049 2.58-14.943 2.578 1.962 2.58-12.87 2.62-1.654 2.495-32.008 2.493-1.05 2.581 16.154 2.58-16.485 2.579-11.868 2.58 5.587 2.62-4.96 2.58 13.72 2.58-5.124 2.578-15.03 2.58 14.369 2.621-26.447 2.537-14.945 2.535-4.56 2.581-11.802 2.58 16.43 2.579-15.405 2.579-13.025 2.622-8.265 2.579 37.687 2.58-23.14 2.578-26.051 2.58 28.364 2.621-33.39 2.495 9.564 2.493-16.175 2.58 7.196 2.58-5.543 5.158-9.918 2.622 2.315 2.58-8.034 2.58-33.29 2.578 30.216 2.579 16.066 2.621-52.232 2.495-3.07 2.493 11.334 2.581 8.089 2.58 24.64 2.579-1.07 2.579-9.84 2.621 15.538 2.58-24.144 5.158 36.893 2.58 29.566 2.62-58.845 2.496 4.806 2.492 6.104 2.582-17.5 2.579 5.929 2.579-15.835 2.58 11.537 2.62 16.53 2.58-24.651 2.581 16.717 2.578 23.934 2.579-10.38 2.621-3.637 2.537-24.36 2.535 3.864 2.581 19.14 2.58 7.637 2.579-1.487 2.58 18.017 2.62-16.53 2.58 2.612 2.581 20.86 2.577-10.612 2.58 16.232 2.621-16.199 2.495-12.184 2.493 12.184 2.58-8.231 2.58-1.356 2.58 6.48 2.579-6.81 2.621-16.53 2.58 15.141 2.58 21.224 2.578-22.932 2.58 30.866 2.62-13.885L320 126.023l5.074 4.758 2.58-1.157 2.579 10.722 2.579-.474 2.622-31.406 2.579-3.647 2.58-3.295 5.158 38.348 2.621-21.488 2.495-23.106 2.493-12.598 2.58 13.257 2.58 29.059 2.58 3.052 2.578-20.574 2.622.662 2.58-4 2.58-8.893 2.578-10.237 5.2 20.154 2.537-26.15 2.536-3.272 2.58-52.222h0" fill="none" stroke="#1f77b4" stroke-linecap="square" stroke-width="1.5" id="line2d_19"/></g></g><defs><clipPath id="p80da4bef1e"><path d="M29.771 23.516h357.12v266.112H29.771z"/></clipPath></defs></svg>