<svg height="549.663" viewBox="0 0 476.436 412.247" width="635.248" xmlns="http://www.w3.org/2000/svg" xmlns:xlink="http://www.w3.org/1999/xlink"><defs><style>*{stroke-linecap:butt;stroke-linejoin:round}</style></defs><g id="figure_1"><path d="M0 412.247h476.436V0H0z" style="fill:none" id="patch_1"/><g id="axes_1"><path d="M42.926 323.405h357.12V57.293H42.926z" style="fill:none" id="patch_2"/><g id="matplotlib.axis_1"><g id="xtick_1"><g id="line2d_1"><defs><path d="M0 0v3.5" id="m3935288279" style="stroke:#969696;stroke-width:.4"/></defs><use style="fill:#969696;stroke:#969696;stroke-width:.4" x="77.729" xlink:href="#m3935288279" y="323.405"/></g><g style="fill:#969696" transform="matrix(.14 0 0 -.14 63.366 340.345)" id="text_1"><defs><path d="M2944 0v467H1075v13l333 307c877 845 1434 1466 1434 2234 0 595-378 1209-1274 1209-480 0-890-179-1178-422l180-397c192 160 505 352 883 352 621 0 825-390 825-813-6-627-486-1164-1548-2176L288 346V0h2656z" id="MyriadPro-Regular-32" transform="scale(.01563)"/><path d="M1677 4230c-845 0-1447-768-1447-2163C243 691 794-70 1606-70c922 0 1447 780 1447 2195 0 1325-499 2105-1376 2105zm-32-435c582 0 845-672 845-1696 0-1062-276-1734-852-1734-512 0-844 614-844 1696 0 1133 358 1734 851 1734z" id="MyriadPro-Regular-30" transform="scale(.01563)"/><path d="M1510 0h544v4160h-480l-908-486 108-429 724 390h12V0z" id="MyriadPro-Regular-31" transform="scale(.01563)"/></defs><use xlink:href="#MyriadPro-Regular-32"/><use x="51.3" xlink:href="#MyriadPro-Regular-30"/><use x="102.6" xlink:href="#MyriadPro-Regular-31"/><use x="153.9" xlink:href="#MyriadPro-Regular-30"/></g></g><g id="xtick_2"><use style="fill:#969696;stroke:#969696;stroke-width:.4" x="132.365" xlink:href="#m3935288279" y="323.405" id="line2d_2"/><g style="fill:#969696" transform="matrix(.14 0 0 -.14 118.002 340.345)" id="text_2"><use xlink:href="#MyriadPro-Regular-32"/><use x="51.3" xlink:href="#MyriadPro-Regular-30"/><use x="102.6" xlink:href="#MyriadPro-Regular-31"/><use x="153.9" xlink:href="#MyriadPro-Regular-32"/></g></g><g id="xtick_3"><use style="fill:#969696;stroke:#969696;stroke-width:.4" x="187.076" xlink:href="#m3935288279" y="323.405" id="line2d_3"/><g style="fill:#969696" transform="matrix(.14 0 0 -.14 172.713 340.345)" id="text_3"><defs><path d="M2560 0v1133h582v441h-582v2586h-608L96 1504v-371h1933V0h531zM666 1574v13l1017 1415c115 192 218 371 346 614h19c-13-218-19-435-19-653V1574H666z" id="MyriadPro-Regular-34" transform="scale(.01563)"/></defs><use xlink:href="#MyriadPro-Regular-32"/><use x="51.3" xlink:href="#MyriadPro-Regular-30"/><use x="102.6" xlink:href="#MyriadPro-Regular-31"/><use x="153.9" xlink:href="#MyriadPro-Regular-34"/></g></g><g id="xtick_4"><use style="fill:#969696;stroke:#969696;stroke-width:.4" x="241.712" xlink:href="#m3935288279" y="323.405" id="line2d_4"/><g style="fill:#969696" transform="matrix(.14 0 0 -.14 227.349 340.345)" id="text_4"><defs><path d="M2662 4224c-102 0-243-6-409-32-525-64-986-275-1331-614-410-410-704-1056-704-1876C218 621 800-70 1690-70c864 0 1382 704 1382 1465 0 813-518 1344-1254 1344-461 0-807-217-1005-480h-19c96 685 563 1331 1446 1479 160 25 307 32 422 25v461zM1690 365c-589 0-903 505-916 1190 0 103 26 186 64 250 154 301 468 512 807 512 518 0 857-359 857-954s-326-998-806-998h-6z" id="MyriadPro-Regular-36" transform="scale(.01563)"/></defs><use xlink:href="#MyriadPro-Regular-32"/><use x="51.3" xlink:href="#MyriadPro-Regular-30"/><use x="102.6" xlink:href="#MyriadPro-Regular-31"/><use x="153.9" xlink:href="#MyriadPro-Regular-36"/></g></g><g id="xtick_5"><use style="fill:#969696;stroke:#969696;stroke-width:.4" x="296.423" xlink:href="#m3935288279" y="323.405" id="line2d_5"/><g style="fill:#969696" transform="matrix(.14 0 0 -.14 282.06 340.345)" id="text_5"><defs><path d="M1062 2170c-512-218-825-589-825-1114C237 448 762-70 1632-70c794 0 1414 486 1414 1209 0 506-320 871-838 1075v20c512 243 685 620 685 972 0 519-403 1024-1210 1024-729 0-1286-448-1286-1107 0-358 198-717 659-934l6-19zm583-1831c-531 0-851 371-832 794 0 397 262 717 749 857 563-160 915-403 915-908 0-423-327-743-832-743zm6 3488c506 0 704-345 704-678 0-378-275-634-633-755-480 128-794 352-794 768 0 358 256 665 723 665z" id="MyriadPro-Regular-38" transform="scale(.01563)"/></defs><use xlink:href="#MyriadPro-Regular-32"/><use x="51.3" xlink:href="#MyriadPro-Regular-30"/><use x="102.6" xlink:href="#MyriadPro-Regular-31"/><use x="153.9" xlink:href="#MyriadPro-Regular-38"/></g></g><g id="xtick_6"><use style="fill:#969696;stroke:#969696;stroke-width:.4" x="351.059" xlink:href="#m3935288279" y="323.405" id="line2d_6"/><g style="fill:#969696" transform="matrix(.14 0 0 -.14 336.696 340.345)" id="text_6"><use xlink:href="#MyriadPro-Regular-32"/><use x="51.3" xlink:href="#MyriadPro-Regular-30"/><use x="102.6" xlink:href="#MyriadPro-Regular-32"/><use x="153.9" xlink:href="#MyriadPro-Regular-30"/></g></g></g><g id="matplotlib.axis_2"><g id="ytick_1"><path clip-path="url(#pdd198e5dbf)" d="M42.926 323.405h357.12" style="fill:none;stroke:#969696;stroke-linecap:square;stroke-width:.3" id="line2d_7"/><g id="line2d_8"><defs><path d="M0 0h-3.5" id="m0a658b0ee8" style="stroke:#969696;stroke-width:.3"/></defs><use style="fill:#969696;stroke:#969696;stroke-width:.3" x="42.926" xlink:href="#m0a658b0ee8" y="323.405"/></g><use xlink:href="#MyriadPro-Regular-30" style="fill:#969696" transform="matrix(.14 0 0 -.14 28.745 328.375)" id="text_7"/></g><g id="ytick_2"><path clip-path="url(#pdd198e5dbf)" d="M42.926 279.95h357.12" style="fill:none;stroke:#969696;stroke-linecap:square;stroke-width:.3" id="line2d_9"/><use style="fill:#969696;stroke:#969696;stroke-width:.3" x="42.926" xlink:href="#m0a658b0ee8" y="279.949" id="line2d_10"/><g style="fill:#969696" transform="matrix(.14 0 0 -.14 14.382 284.92)" id="text_8"><use xlink:href="#MyriadPro-Regular-32"/><use x="51.3" xlink:href="#MyriadPro-Regular-30"/><use x="102.6" xlink:href="#MyriadPro-Regular-30"/></g></g><g id="ytick_3"><path clip-path="url(#pdd198e5dbf)" d="M42.926 236.493h357.12" style="fill:none;stroke:#969696;stroke-linecap:square;stroke-width:.3" id="line2d_11"/><use style="fill:#969696;stroke:#969696;stroke-width:.3" x="42.926" xlink:href="#m0a658b0ee8" y="236.493" id="line2d_12"/><g style="fill:#969696" transform="matrix(.14 0 0 -.14 14.382 241.463)" id="text_9"><use xlink:href="#MyriadPro-Regular-34"/><use x="51.3" xlink:href="#MyriadPro-Regular-30"/><use x="102.6" xlink:href="#MyriadPro-Regular-30"/></g></g><g id="ytick_4"><path clip-path="url(#pdd198e5dbf)" d="M42.926 193.037h357.12" style="fill:none;stroke:#969696;stroke-linecap:square;stroke-width:.3" id="line2d_13"/><use style="fill:#969696;stroke:#969696;stroke-width:.3" x="42.926" xlink:href="#m0a658b0ee8" y="193.037" id="line2d_14"/><g style="fill:#969696" transform="matrix(.14 0 0 -.14 14.382 198.007)" id="text_10"><use xlink:href="#MyriadPro-Regular-36"/><use x="51.3" xlink:href="#MyriadPro-Regular-30"/><use x="102.6" xlink:href="#MyriadPro-Regular-30"/></g></g><g id="ytick_5"><path clip-path="url(#pdd198e5dbf)" d="M42.926 149.581h357.12" style="fill:none;stroke:#969696;stroke-linecap:square;stroke-width:.3" id="line2d_15"/><use style="fill:#969696;stroke:#969696;stroke-width:.3" x="42.926" xlink:href="#m0a658b0ee8" y="149.581" id="line2d_16"/><g style="fill:#969696" transform="matrix(.14 0 0 -.14 14.382 154.551)" id="text_11"><use xlink:href="#MyriadPro-Regular-38"/><use x="51.3" xlink:href="#MyriadPro-Regular-30"/><use x="102.6" xlink:href="#MyriadPro-Regular-30"/></g></g><g id="ytick_6"><path clip-path="url(#pdd198e5dbf)" d="M42.926 106.125h357.12" style="fill:none;stroke:#969696;stroke-linecap:square;stroke-width:.3" id="line2d_17"/><use style="fill:#969696;stroke:#969696;stroke-width:.3" x="42.926" xlink:href="#m0a658b0ee8" y="106.125" id="line2d_18"/><g style="fill:#969696" transform="matrix(.14 0 0 -.14 7.2 111.095)" id="text_12"><use xlink:href="#MyriadPro-Regular-31"/><use x="51.3" xlink:href="#MyriadPro-Regular-30"/><use x="102.6" xlink:href="#MyriadPro-Regular-30"/><use x="153.9" xlink:href="#MyriadPro-Regular-30"/></g></g><g id="ytick_7"><path clip-path="url(#pdd198e5dbf)" d="M42.926 62.67h357.12" style="fill:none;stroke:#969696;stroke-linecap:square;stroke-width:.3" id="line2d_19"/><use style="fill:#969696;stroke:#969696;stroke-width:.3" x="42.926" xlink:href="#m0a658b0ee8" y="62.669" id="line2d_20"/><g style="fill:#969696" transform="matrix(.14 0 0 -.14 7.2 67.64)" id="text_13"><use xlink:href="#MyriadPro-Regular-31"/><use x="51.3" xlink:href="#MyriadPro-Regular-32"/><use x="102.6" xlink:href="#MyriadPro-Regular-30"/><use x="153.9" xlink:href="#MyriadPro-Regular-30"/></g></g></g><path clip-path="url(#pdd198e5dbf)" d="M90.153 323.405h34.204l43.26-.087 2.282-.06 4.566.063 11.45-.007 2.321-.19 4.414.078 4.567-.112 2.283-.047 4.603-.549 2.283.238 2.284-.574 2.281.11 2.283-.047 2.32-.449 2.208.306 2.206.108 4.567-.54 2.283.05 4.603.398 4.567.379 2.281-.067 2.283.088 2.32-.154 2.245-.036 2.244-.189 2.285.153 2.282-.174 2.283-.311 2.283.396 2.32-.449 2.283.451 2.284-.143 2.281.034 6.811-.25 9.056.308 2.283-.33 2.32.154 2.283.43 4.565-.232 2.283-.471 2.32.315 4.414-.413 2.285.352 2.282-.233 2.283.146 2.283-.076 2.32.091 2.283-.138 2.284.09 2.281-.134 2.283.007 2.32-.568 2.208.415 2.206.055 2.285-.423 2.283.086 6.885-.687 4.567.204 4.564-.077 2.32.266 2.246-.67 2.243.235 2.285-.704 2.282-.368 2.283.498 2.283-.246 2.32.091 2.283-.113 4.565.565 4.603-.69 2.208.108 2.207-.683 2.284-.277 2.283.887 2.282-.33 4.603.491 2.283.32 2.284-.193h0" style="fill:none;stroke:#f7b6d2;stroke-linecap:square;stroke-width:1.5" id="line2d_21"/><path clip-path="url(#pdd198e5dbf)" d="m42.926 323.35 13.059-.064 2.284-.076 2.283.111 2.283-.372 2.283.043 2.32-.092 2.282.049 2.285-.245 6.884-.035 2.208-.156 2.206.086 2.284-.374 4.566-.073 2.283-.044 2.32.106 2.283-.438 4.565.1 2.283-.048 2.32-.182 2.208-.36 4.49.156 2.283-.329 2.283-.12 2.283-.567 9.168-.316 2.283.68 2.32.099 4.49-.708 2.283.29 2.283-.024 4.566-.47 2.32.19 2.283-.637 2.284.118 2.281-.248 2.283.634 4.528-1.2 2.206-.118 2.284-.287 2.283.343 2.283-.364 4.603.154 2.283-.777 4.565-.529 4.603.745 2.208-1.037 4.49-.266 2.283.728 2.283-.85 2.283.556 2.32.231 2.283-.136 2.284.22 2.281-.633 2.283.563 2.32-.266 2.208-.558 2.206-.241 2.285-.381 2.282.08 2.283-1.225 4.603.566 2.283-.595 2.284.924 2.281-.112 2.283.084 2.32.484 2.245-1.303 2.244-.534 2.285-.028 2.282.743 2.283-.395 2.283.458 2.32-.75 2.283-.143 2.284.235 2.281-.727 2.283 1.441 2.32.057 2.208-.33 2.206-.575 2.285.906 2.282-.015 4.566-.561 2.32.56 2.283.11 2.284.55 2.281-.398 2.283 1.834 2.32-1.156 4.414-.848 2.285-.12 2.282.456 2.283.877 2.283.378 2.32.574 4.567-.203 2.281.323 2.283.483 2.32-.077 2.208-.265 2.206-.036 2.285-.482 2.283.033 2.282.214 2.283-.55 2.32 1.093 2.283-.232 4.565.196 2.283.947 2.32-.4 2.246-.774 2.243.123 2.285-1.533 2.282.033 2.283.496 4.603 1.81 2.283.044 2.284-.352 2.281.946 2.283.554 2.32-.092 2.208-.929 2.207-.353 2.284.769 2.283.394 2.282.15 2.283.369 4.603.014 2.284-.294h0" style="fill:none;stroke:#c49c94;stroke-linecap:square;stroke-width:1.5" id="line2d_22"/><path clip-path="url(#pdd198e5dbf)" d="m42.926 320.187 1.76 1.466 2.282.593 2.283.03 2.32-.336 2.208-.762 2.206-.086 9.133-1.198 2.32.112 4.567-.056 2.28-1.289 2.284.728 2.32-.8 2.208-.53 2.206.468 2.284-.576 2.283.015 2.283-.739 2.283-.207 2.32-.589 2.283.166 2.284.325 2.281-.245 2.283-.442 4.528-2.569 2.206-1.756 2.284.79 4.566-.615 2.283.169 2.32-1.949 2.283 1.845 2.284-.093 2.281-1.269 2.283.73 2.32-1.55 2.245-1.945 2.244-.066 2.284 1.042 2.283.48 2.283.187 2.283-.805 2.32.007 2.283.37 2.284-1.708 2.281.405 2.283 2.09 2.32-2.832 2.208-1.178 2.206-.651 2.284.116 2.283 1.433 2.283.355 2.283-1.035 2.32-.294 2.283.084 2.284-2.194 2.281.905 2.283 1.457 2.32-2.229 2.208-.88 2.206-.403 2.285.787 2.282 1.106 2.283 1.878 2.283-1.044 2.32.603 2.283.868 2.284.057 2.281 1.124 2.283.215 2.32-1.942 2.208-.502 2.206.278 2.285-.874 2.282.558 2.283-1.08 2.283.548 2.32 1.857 2.283.58 2.284.296 2.281 1.181 2.283-.017 2.32-.827 2.245-1.782 2.244.962 2.285-.19 2.282 1.136 2.283-.383 2.283 1.946 2.32.154 2.283-.767 2.284 1.167 2.281.043 2.283 1.323 2.32-1.345 4.414.259 2.285 1.769 2.282.116 2.283.362 2.283-.39 4.603 1.817 2.284-.254 2.281.58 2.283 1.39 2.32-1.01 2.208.173 2.206.528 2.285.258 2.282-.068 2.283.047 2.283.352 2.32.21 2.283.452 2.284-.683 4.564.834 2.32-.729 6.699.773 2.283.279 2.282.062 2.283-.44 2.32-.036 2.283.142 2.284-.689 2.281 1.095 2.283-.05 2.32-.463 2.246.364 2.243-.182 2.285-.82 2.282.982 2.283.633 2.283-.577 2.32 1.22 2.283.11 2.284.296 2.281-.42 2.283.588 2.32-.512 2.208-.608 2.207.812 2.284-.366 2.283 1.214 2.282-.265 4.603-.128 2.283-.148 2.284.373h0" style="fill:none;stroke:#c5b0d5;stroke-linecap:square;stroke-width:1.5" id="line2d_23"/><g style="fill:#1f77b4" transform="matrix(.14 0 0 -.14 410.76 143.823)" id="text_14"><defs><path d="M467-1267h557V416h13c185-307 544-486 953-486 730 0 1408 550 1408 1664 0 940-563 1574-1312 1574-505 0-870-224-1100-602h-13l-26 532H442c12-295 25-615 25-1012v-3353zm557 3059c0 77 19 160 38 230 109 423 468 698 852 698 595 0 921-531 921-1152 0-710-345-1197-941-1197-403 0-742 269-844 659-13 71-26 148-26 231v531z" id="MyriadPro-Regular-70" transform="scale(.01563)"/><path d="M58 3098 1203 243c26-70 39-115 39-147s-20-77-45-134c-128-288-320-506-474-628-166-140-352-230-493-275l141-473c141 25 416 121 691 364 384 333 660 877 1063 1940l845 2208h-596l-614-1818c-77-224-141-461-198-646h-13c-51 185-128 428-199 633L672 3098H58z" id="MyriadPro-Regular-79" transform="scale(.01563)"/><path d="M595 3667v-569H115v-429h480V979c0-365 58-640 218-806C947 19 1158-70 1421-70c217 0 390 38 499 83l-26 422c-83-25-172-38-326-38-314 0-422 217-422 601v1671h806v429h-806v742l-551-173z" id="MyriadPro-Regular-74" transform="scale(.01563)"/><path d="M467 0h563v1869c0 109 7 192 39 269 102 307 390 563 755 563 531 0 717-423 717-922V0h563v1843c0 1069-666 1325-1082 1325-211 0-409-64-576-160-172-96-313-237-403-397h-13v1933H467V0z" id="MyriadPro-Regular-68" transform="scale(.01563)"/><path d="M1779 3168c-857 0-1536-608-1536-1645C243 544 890-70 1728-70c749 0 1542 499 1542 1644 0 948-601 1594-1491 1594zm-13-422c666 0 928-666 928-1191 0-697-403-1203-940-1203-551 0-941 512-941 1190 0 589 288 1204 953 1204z" id="MyriadPro-Regular-6f" transform="scale(.01563)"/><path d="M467 0h563v1862c0 96 13 192 39 263 96 313 384 576 755 576 531 0 717-416 717-915V0h563v1850c0 1062-666 1318-1094 1318-512 0-871-288-1024-582h-13l-32 512H442c19-256 25-519 25-839V0z" id="MyriadPro-Regular-6e" transform="scale(.01563)"/></defs><use xlink:href="#MyriadPro-Regular-70"/><use x="56.9" xlink:href="#MyriadPro-Regular-79"/><use x="104" xlink:href="#MyriadPro-Regular-74"/><use x="137.1" xlink:href="#MyriadPro-Regular-68"/><use x="192.6" xlink:href="#MyriadPro-Regular-6f"/><use x="247.5" xlink:href="#MyriadPro-Regular-6e"/></g><g style="fill:#ff7f0e" transform="matrix(.14 0 0 -.14 410.76 192.094)" id="text_15"><defs><path d="M-230-1350c300 0 710 102 960 352 275 281 371 672 371 1273v2823H538V493c0-743-58-992-212-1165C192-819-32-890-288-909l58-441zM826 4320c-212 0-359-154-359-352 0-186 135-346 346-346 224 0 358 160 352 346 0 198-135 352-339 352z" id="MyriadPro-Regular-6a" transform="scale(.01563)"/><path d="M2643 1901c0 621-230 1267-1177 1267-391 0-762-109-1018-275l128-371c218 140 518 230 806 230 634 0 704-461 704-717v-64C890 1978 224 1568 224 819c0-448 320-889 947-889 442 0 775 217 947 460h20l44-390h512c-38 211-51 474-51 742v1159zm-544-858c0-57-13-121-32-179-89-262-345-518-749-518-288 0-531 172-531 537 0 602 698 711 1312 698v-538z" id="MyriadPro-Regular-61" transform="scale(.01563)"/><path d="M83 3098 1261 0h537l1216 3098h-588l-602-1741c-102-282-192-538-262-794h-20c-64 256-147 512-249 794L685 3098H83z" id="MyriadPro-Regular-76" transform="scale(.01563)"/><path d="M250 147C467 19 781-70 1120-70c736 0 1158 390 1158 934 0 461-275 730-812 934-404 154-589 269-589 525 0 231 185 423 518 423 288 0 512-103 634-180l141 410c-173 102-448 192-762 192-666 0-1069-410-1069-909 0-371 263-678 819-877 416-153 576-300 576-569 0-256-192-461-601-461-282 0-576 115-743 224L250 147z" id="MyriadPro-Regular-73" transform="scale(.01563)"/><path d="M2579 538c-160-71-371-154-691-154-614 0-1075 442-1075 1158 0 647 384 1172 1094 1172 307 0 519-71 653-148l128 436c-154 76-448 160-781 160-1011 0-1664-692-1664-1645C243 570 851-70 1786-70c416 0 742 108 889 185l-96 423z" id="MyriadPro-Regular-63" transform="scale(.01563)"/><path d="M467 0h557v1651c0 96 13 186 26 263 76 422 358 723 755 723 77 0 134-7 192-19v531c-51 13-96 19-160 19-378 0-717-262-858-678h-25l-20 608H442c19-288 25-602 25-967V0z" id="MyriadPro-Regular-72" transform="scale(.01563)"/><path d="M1030 0v3098H467V0h563zM749 4320c-205 0-352-154-352-352 0-192 141-346 339-346 224 0 365 154 358 346 0 198-134 352-345 352z" id="MyriadPro-Regular-69" transform="scale(.01563)"/></defs><use xlink:href="#MyriadPro-Regular-6a"/><use x="24.3" xlink:href="#MyriadPro-Regular-61"/><use x="72.5" xlink:href="#MyriadPro-Regular-76"/><use x="120.6" xlink:href="#MyriadPro-Regular-61"/><use x="168.8" xlink:href="#MyriadPro-Regular-73"/><use x="208.4" xlink:href="#MyriadPro-Regular-63"/><use x="253.2" xlink:href="#MyriadPro-Regular-72"/><use x="285.9" xlink:href="#MyriadPro-Regular-69"/><use x="309.3" xlink:href="#MyriadPro-Regular-70"/><use x="366.2" xlink:href="#MyriadPro-Regular-74"/></g><g style="fill:#2ca02c" transform="matrix(.14 0 0 -.14 410.76 206.094)" id="text_16"><use xlink:href="#MyriadPro-Regular-6a"/><use x="24.3" xlink:href="#MyriadPro-Regular-61"/><use x="72.5" xlink:href="#MyriadPro-Regular-76"/><use x="120.6" xlink:href="#MyriadPro-Regular-61"/></g><g style="fill:#d62728" transform="matrix(.14 0 0 -.14 410.76 220.275)" id="text_17"><defs><path d="m1203 1632 122 928h665l-121-928h-666zM979 0l167 1254h665L1645 0h384l166 1254h608v378h-550l115 928h582v378h-524l160 1222h-378l-166-1222h-666l160 1222h-371L998 2938H390v-378h551l-122-928H237v-378h525L595 0h384z" id="MyriadPro-Regular-23" transform="scale(.01563)"/></defs><use xlink:href="#MyriadPro-Regular-63"/><use x="44.8" xlink:href="#MyriadPro-Regular-23"/></g><g style="fill:#9467bd" transform="matrix(.14 0 0 -.14 410.76 234.275)" id="text_18"><use xlink:href="#MyriadPro-Regular-70"/><use x="56.9" xlink:href="#MyriadPro-Regular-68"/><use x="112.4" xlink:href="#MyriadPro-Regular-70"/></g><use xlink:href="#MyriadPro-Regular-72" style="fill:#8c564b" transform="matrix(.14 0 0 -.14 410.76 248.275)" id="text_19"/><g style="fill:#e377c2" transform="matrix(.14 0 0 -.14 410.76 262.275)" id="text_20"><defs><path d="M1702 3405V1901H256v-384h1446V0h410v1517h1446v384H2112v1504h-410z" id="MyriadPro-Regular-2b" transform="scale(.01563)"/></defs><use xlink:href="#MyriadPro-Regular-63"/><use x="44.8" xlink:href="#MyriadPro-Regular-2b"/><use x="104.4" xlink:href="#MyriadPro-Regular-2b"/></g><g style="fill:#7f7f7f" transform="matrix(.14 0 0 -.14 410.76 276.275)" id="text_21"><defs><path d="M2579-1267h563v3513c0 320 7 589 20 852h-532l-19-468h-13c-153 301-473 538-953 538-653 0-1402-512-1402-1670C243 557 832-70 1555-70c499 0 845 243 1011 550h13v-1747zm0 2528c0-83-19-192-45-269-128-390-441-614-806-614-621 0-915 537-915 1152 0 697 352 1190 934 1190 423 0 723-294 807-640 19-70 25-160 25-237v-582z" id="MyriadPro-Regular-71" transform="scale(.01563)"/><path d="M467 0h563v4544H467V0z" id="MyriadPro-Regular-6c" transform="scale(.01563)"/></defs><use xlink:href="#MyriadPro-Regular-73"/><use x="39.6" xlink:href="#MyriadPro-Regular-71"/><use x="95.9" xlink:href="#MyriadPro-Regular-6c"/></g><g style="fill:#bcbd22" transform="matrix(.14 0 0 -.14 410.76 289.954)" id="text_22"><defs><path d="M2957 1446c6 58 19 148 19 263 0 569-269 1459-1280 1459-902 0-1453-736-1453-1670C243 563 813-70 1766-70c493 0 832 108 1031 198l-96 403c-211-89-455-160-858-160-563 0-1049 314-1062 1075h2176zM787 1850c45 390 295 915 864 915 634 0 787-557 781-915H787z" id="MyriadPro-Regular-65" transform="scale(.01563)"/></defs><use xlink:href="#MyriadPro-Regular-74"/><use x="33.1" xlink:href="#MyriadPro-Regular-79"/><use x="80.2" xlink:href="#MyriadPro-Regular-70"/><use x="137.1" xlink:href="#MyriadPro-Regular-65"/><use x="187.2" xlink:href="#MyriadPro-Regular-73"/><use x="226.8" xlink:href="#MyriadPro-Regular-63"/><use x="271.6" xlink:href="#MyriadPro-Regular-72"/><use x="304.3" xlink:href="#MyriadPro-Regular-69"/><use x="327.7" xlink:href="#MyriadPro-Regular-70"/><use x="384.6" xlink:href="#MyriadPro-Regular-74"/></g><use xlink:href="#MyriadPro-Regular-63" style="fill:#17becf" transform="matrix(.14 0 0 -.14 410.76 304.275)" id="text_23"/><g style="fill:#aec7e8" transform="matrix(.14 0 0 -.14 410.76 318.275)" id="text_24"><defs><path d="M115 3098 1050 0h512l499 1472c109 333 205 653 281 1024h13c77-365 167-672 275-1018L3104 0h512l998 3098h-556l-442-1556c-102-364-186-691-237-1004h-19c-70 313-160 640-275 1011l-480 1549h-474l-505-1575c-103-339-205-672-276-985h-19c-57 320-141 640-230 985L691 3098H115z" id="MyriadPro-Regular-77" transform="scale(.01563)"/><path d="M1082 0v2669h748v429h-748v166c0 474 121 896 601 896 160 0 275-32 359-70l76 435c-108 45-281 89-480 89-262 0-544-83-755-288-262-249-358-646-358-1081v-147H90v-429h435V0h557z" id="MyriadPro-Regular-66" transform="scale(.01563)"/></defs><use xlink:href="#MyriadPro-Regular-73"/><use x="39.6" xlink:href="#MyriadPro-Regular-77"/><use x="113.2" xlink:href="#MyriadPro-Regular-69"/><use x="136.6" xlink:href="#MyriadPro-Regular-66"/><use x="165.8" xlink:href="#MyriadPro-Regular-74"/></g><g style="fill:#ffbb78" transform="matrix(.14 0 0 -.14 410.76 332.275)" id="text_25"><defs><path d="M2579 4544V2694h-13c-140 250-460 474-934 474-755 0-1395-634-1389-1664C243 563 819-70 1568-70c506 0 883 262 1056 608h13l25-538h506c-19 211-26 525-26 800v3744h-563zm0-3245c0-89-6-166-25-243-103-422-448-672-826-672-608 0-915 518-915 1146 0 684 345 1196 928 1196 422 0 729-294 813-652 19-71 25-167 25-237v-538z" id="MyriadPro-Regular-64" transform="scale(.01563)"/></defs><use xlink:href="#MyriadPro-Regular-64"/><use x="56.4" xlink:href="#MyriadPro-Regular-61"/><use x="104.6" xlink:href="#MyriadPro-Regular-72"/><use x="137.3" xlink:href="#MyriadPro-Regular-74"/></g><g style="fill:#98df8a" transform="matrix(.14 0 0 -.14 410.76 346.275)" id="text_26"><defs><path d="M1024 4544H467V0h557v1165l288 320L2381 0h685L1702 1824l1197 1274h-678l-909-1069c-90-109-198-243-275-352h-13v2867z" id="MyriadPro-Regular-6b" transform="scale(.01563)"/></defs><use xlink:href="#MyriadPro-Regular-6b"/><use x="46.9" xlink:href="#MyriadPro-Regular-6f"/><use x="101.8" xlink:href="#MyriadPro-Regular-74"/><use x="134.9" xlink:href="#MyriadPro-Regular-6c"/><use x="158.5" xlink:href="#MyriadPro-Regular-69"/><use x="181.9" xlink:href="#MyriadPro-Regular-6e"/></g><g style="fill:#ff9896" transform="matrix(.14 0 0 -.14 410.76 360.12)" id="text_27"><defs><path d="M3110 2246c0 378 13 628 26 852h-493l-25-468h-13c-135 256-429 538-967 538-710 0-1395-595-1395-1645C243 666 794 13 1562 13c480 0 812 230 985 518h13V186c0-781-422-1082-998-1082-384 0-704 115-909 243l-141-429c250-166 659-256 1030-256 391 0 826 90 1127 372 301 268 441 704 441 1414v1798zm-556-928c0-96-13-204-45-300-122-359-435-576-781-576-608 0-915 505-915 1113 0 717 384 1171 921 1171 410 0 685-268 788-595 25-77 32-160 32-256v-557z" id="MyriadPro-Regular-67" transform="scale(.01563)"/></defs><use xlink:href="#MyriadPro-Regular-67"/><use x="55.9" xlink:href="#MyriadPro-Regular-6f"/></g><g style="fill:#c5b0d5" transform="matrix(.14 0 0 -.14 410.76 374.115)" id="text_28"><defs><path d="M3059 3098h-563V1197c0-103-19-205-51-288-103-250-365-512-743-512-512 0-691 397-691 985v1716H448V1286C448 198 1030-70 1517-70c550 0 877 326 1024 576h13l32-506h499c-19 243-26 525-26 845v2253z" id="MyriadPro-Regular-75" transform="scale(.01563)"/><path d="M467 800c0-275-13-589-25-800h486l26 512h19c230-410 589-582 1037-582 691 0 1388 550 1388 1657 7 941-537 1581-1305 1581-499 0-858-224-1056-570h-13v1946H467V800zm557 998c0 90 19 167 32 231 115 429 474 691 858 691 601 0 921-531 921-1152 0-710-352-1190-941-1190-409 0-736 268-844 659-13 64-26 134-26 205v556z" id="MyriadPro-Regular-62" transform="scale(.01563)"/></defs><use xlink:href="#MyriadPro-Regular-72"/><use x="32.7" xlink:href="#MyriadPro-Regular-75"/><use x="87.8" xlink:href="#MyriadPro-Regular-62"/><use x="144.7" xlink:href="#MyriadPro-Regular-79"/></g><g style="fill:#c49c94" transform="matrix(.14 0 0 -.14 410.76 388.275)" id="text_29"><use xlink:href="#MyriadPro-Regular-73"/><use x="39.6" xlink:href="#MyriadPro-Regular-63"/><use x="84.4" xlink:href="#MyriadPro-Regular-61"/><use x="132.6" xlink:href="#MyriadPro-Regular-6c"/><use x="156.2" xlink:href="#MyriadPro-Regular-61"/></g><g style="fill:#f7b6d2" transform="matrix(.14 0 0 -.14 410.76 402.275)" id="text_30"><use xlink:href="#MyriadPro-Regular-72"/><use x="32.7" xlink:href="#MyriadPro-Regular-75"/><use x="87.8" xlink:href="#MyriadPro-Regular-73"/><use x="127.4" xlink:href="#MyriadPro-Regular-74"/></g><g style="fill:#969696" transform="matrix(.09716 0 0 -.09716 42.926 357.303)" id="text_31"><defs><path d="M269 211C499 58 954-70 1370-70c1017 0 1510 582 1510 1248 0 633-371 985-1101 1267-595 230-857 429-857 832 0 294 224 646 812 646 391 0 679-128 820-205l153 455c-192 109-512 211-953 211-839 0-1396-499-1396-1171 0-608 436-973 1140-1223 582-224 812-454 812-857 0-435-332-736-902-736-384 0-749 128-998 281L269 211z" id="MyriadPro-Regular-53" transform="scale(.01563)"/><path d="M2234 4384c-1152 0-2004-896-2004-2266C230 813 1030-70 2170-70c1100 0 2003 787 2003 2272 0 1280-762 2182-1939 2182zm-26-454c928 0 1376-896 1376-1754 0-979-499-1792-1382-1792-877 0-1376 826-1376 1747 0 947 460 1799 1382 1799z" id="MyriadPro-Regular-4f" transform="scale(.01563)"/><path d="M2714 1357 3174 0h596L2298 4314h-672L160 0h576l448 1357h1530zm-1415 435 423 1248c83 262 153 525 217 781h13c64-250 128-506 224-787l422-1242H1299z" id="MyriadPro-Regular-41" transform="scale(.01563)"/><path d="M486 0h557v1728c128-32 282-38 448-38 544 0 1024 160 1319 473 217 224 332 531 332 922 0 384-140 697-377 902-256 231-659 359-1210 359-448 0-800-39-1069-84V0zm557 3859c96 26 282 45 525 45 614 0 1018-275 1018-845 0-595-410-921-1082-921-186 0-339 12-461 44v1677z" id="MyriadPro-Regular-50" transform="scale(.01563)"/><path d="M486 4314V0h557v4314H486z" id="MyriadPro-Regular-49" transform="scale(.01563)"/><path d="M550 4800v-6400h429v6400H550z" id="MyriadPro-Regular-7c" transform="scale(.01563)"/><path d="M1011 0v1843c0 717-13 1235-45 1779l20 7c217-467 505-960 806-1440L3162 0h563v4314h-525V2509c0-672 13-1197 64-1773l-13-6c-205 441-454 896-774 1401L1094 4314H486V0h525z" id="MyriadPro-Regular-4e" transform="scale(.01563)"/><path d="M1165 3648c185 0 313 154 313 326 0 186-134 327-313 327s-327-147-327-327c0-172 135-326 320-326h7zm1184 0c185 0 313 154 313 326 0 186-134 327-313 327s-320-147-320-327c0-172 128-326 313-326h7zm-570-480c-857 0-1536-608-1536-1645C243 544 890-70 1728-70c749 0 1542 499 1542 1644 0 948-601 1594-1491 1594zm-13-422c666 0 928-666 928-1191 0-697-403-1203-940-1203-551 0-941 512-941 1190 0 589 288 1204 953 1204z" id="MyriadPro-Regular-f6" transform="scale(.01563)"/><path d="M467 0h551v1869c0 96 12 192 44 275 90 282 346 563 698 563 429 0 646-358 646-851V0h551v1914c0 102 19 204 45 281 96 275 345 512 665 512 455 0 672-358 672-953V0h551v1824c0 1075-608 1344-1018 1344-294 0-499-77-685-218-128-96-249-230-345-403h-13c-135 365-455 621-877 621-512 0-800-275-973-570h-19l-26 500H442c19-256 25-519 25-839V0z" id="MyriadPro-Regular-6d" transform="scale(.01563)"/><path d="M3386 582c-224-108-570-179-909-179-1050 0-1658 679-1658 1735 0 1132 672 1779 1683 1779 359 0 660-77 871-179l134 454c-147 77-486 192-1024 192-1337 0-2253-915-2253-2266C230 704 1146-70 2362-70c524 0 934 108 1139 211l-115 441z" id="MyriadPro-Regular-43" transform="scale(.01563)"/><path d="M486 13c186-26 480-51 864-51 704 0 1191 128 1492 403 217 211 364 493 364 864 0 640-480 979-889 1081v13c454 167 729 531 729 947 0 340-134 596-358 762-269 218-627 314-1184 314-390 0-774-39-1018-90V13zm557 3865c90 20 237 39 493 39 563 0 947-199 947-704 0-416-345-723-934-723h-506v1388zm0-1811h461c608 0 1114-243 1114-832 0-627-532-838-1108-838-198 0-358 6-467 25v1645z" id="MyriadPro-Regular-42" transform="scale(.01563)"/><path d="M2010 0v1837l1446 2477h-634l-620-1191c-167-326-314-608-436-889h-12c-135 300-263 563-429 889L717 4314H83l1363-2484V0h564z" id="MyriadPro-Regular-59" transform="scale(.01563)"/></defs><use xlink:href="#MyriadPro-Regular-53"/><use x="49.3" xlink:href="#MyriadPro-Regular-74"/><use x="82.4" xlink:href="#MyriadPro-Regular-61"/><use x="130.6" xlink:href="#MyriadPro-Regular-63"/><use x="175.4" xlink:href="#MyriadPro-Regular-6b"/><use x="222.3" xlink:href="#MyriadPro-Regular-4f"/><use x="291.2" xlink:href="#MyriadPro-Regular-76"/><use x="339.3" xlink:href="#MyriadPro-Regular-65"/><use x="389.4" xlink:href="#MyriadPro-Regular-72"/><use x="422.1" xlink:href="#MyriadPro-Regular-66"/><use x="451.3" xlink:href="#MyriadPro-Regular-6c"/><use x="474.9" xlink:href="#MyriadPro-Regular-6f"/><use x="529.8" xlink:href="#MyriadPro-Regular-77"/><use x="603.4" xlink:href="#MyriadPro-Regular-20"/><use x="624.6" xlink:href="#MyriadPro-Regular-41"/><use x="685.8" xlink:href="#MyriadPro-Regular-50"/><use x="739" xlink:href="#MyriadPro-Regular-49"/><use x="762.9" xlink:href="#MyriadPro-Regular-20"/><use x="784.1" xlink:href="#MyriadPro-Regular-76"/><use x="832.2" xlink:href="#MyriadPro-Regular-69"/><use x="855.6" xlink:href="#MyriadPro-Regular-61"/><use x="903.8" xlink:href="#MyriadPro-Regular-20"/><use x="925" xlink:href="#MyriadPro-Regular-73"/><use x="964.6" xlink:href="#MyriadPro-Regular-74"/><use x="997.7" xlink:href="#MyriadPro-Regular-61"/><use x="1045.9" xlink:href="#MyriadPro-Regular-63"/><use x="1090.7" xlink:href="#MyriadPro-Regular-6b"/><use x="1137.6" xlink:href="#MyriadPro-Regular-74"/><use x="1170.7" xlink:href="#MyriadPro-Regular-61"/><use x="1218.9" xlink:href="#MyriadPro-Regular-67"/><use x="1274.8" xlink:href="#MyriadPro-Regular-73"/><use x="1314.4" xlink:href="#MyriadPro-Regular-20"/><use x="1335.6" xlink:href="#MyriadPro-Regular-7c"/><use x="1359.5" xlink:href="#MyriadPro-Regular-20"/><use x="1380.7" xlink:href="#MyriadPro-Regular-4e"/><use x="1446.5" xlink:href="#MyriadPro-Regular-69"/><use x="1469.9" xlink:href="#MyriadPro-Regular-63"/><use x="1514.7" xlink:href="#MyriadPro-Regular-6f"/><use x="1569.6" xlink:href="#MyriadPro-Regular-20"/><use x="1590.8" xlink:href="#MyriadPro-Regular-53"/><use x="1640.1" xlink:href="#MyriadPro-Regular-63"/><use x="1684.9" xlink:href="#MyriadPro-Regular-68"/><use x="1740.4" xlink:href="#MyriadPro-Regular-6c"/><use x="1764" xlink:href="#MyriadPro-Regular-f6"/><use x="1818.9" xlink:href="#MyriadPro-Regular-6d"/><use x="1902.3" xlink:href="#MyriadPro-Regular-65"/><use x="1952.4" xlink:href="#MyriadPro-Regular-72"/><use x="1985.1" xlink:href="#MyriadPro-Regular-20"/><use x="2006.3" xlink:href="#MyriadPro-Regular-7c"/><use x="2030.2" xlink:href="#MyriadPro-Regular-20"/><use x="2051.4" xlink:href="#MyriadPro-Regular-43"/><use x="2109.4" xlink:href="#MyriadPro-Regular-43"/><use x="2167.4" xlink:href="#MyriadPro-Regular-20"/><use x="2188.6" xlink:href="#MyriadPro-Regular-42"/><use x="2242.8" xlink:href="#MyriadPro-Regular-59"/></g><g style="fill:#969696" transform="matrix(.14 0 0 -.14 91.7 17.293)" id="text_32"><defs><path d="M486 13c282-32 615-51 1012-51 838 0 1504 217 1907 620 403 397 621 973 621 1677 0 698-224 1197-608 1549-378 352-948 538-1748 538-441 0-844-39-1184-90V13zm557 3833c147 32 365 58 653 58 1178 0 1754-646 1747-1664 0-1165-646-1830-1837-1830-217 0-422 6-563 32v3404z" id="MyriadPro-Regular-44" transform="scale(.01563)"/></defs><use xlink:href="#MyriadPro-Regular-44"/><use x="66.6" xlink:href="#MyriadPro-Regular-61"/><use x="114.8" xlink:href="#MyriadPro-Regular-69"/><use x="138.2" xlink:href="#MyriadPro-Regular-6c"/><use x="161.8" xlink:href="#MyriadPro-Regular-79"/><use x="208.9" xlink:href="#MyriadPro-Regular-20"/><use x="230.1" xlink:href="#MyriadPro-Regular-6e"/><use x="285.6" xlink:href="#MyriadPro-Regular-75"/><use x="340.7" xlink:href="#MyriadPro-Regular-6d"/><use x="424.1" xlink:href="#MyriadPro-Regular-62"/><use x="481" xlink:href="#MyriadPro-Regular-65"/><use x="531.1" xlink:href="#MyriadPro-Regular-72"/><use x="563.8" xlink:href="#MyriadPro-Regular-20"/><use x="585" xlink:href="#MyriadPro-Regular-6f"/><use x="639.9" xlink:href="#MyriadPro-Regular-66"/><use x="669.1" xlink:href="#MyriadPro-Regular-20"/><use x="690.3" xlink:href="#MyriadPro-Regular-71"/><use x="746.6" xlink:href="#MyriadPro-Regular-75"/><use x="801.7" xlink:href="#MyriadPro-Regular-65"/><use x="851.8" xlink:href="#MyriadPro-Regular-73"/><use x="891.4" xlink:href="#MyriadPro-Regular-74"/><use x="924.5" xlink:href="#MyriadPro-Regular-69"/><use x="947.9" xlink:href="#MyriadPro-Regular-6f"/><use x="1002.8" xlink:href="#MyriadPro-Regular-6e"/><use x="1058.3" xlink:href="#MyriadPro-Regular-73"/><use x="1097.9" xlink:href="#MyriadPro-Regular-20"/><use x="1119.1" xlink:href="#MyriadPro-Regular-6f"/><use x="1174" xlink:href="#MyriadPro-Regular-6e"/><use x="1229.5" xlink:href="#MyriadPro-Regular-20"/><use x="1250.7" xlink:href="#MyriadPro-Regular-53"/><use x="1300" xlink:href="#MyriadPro-Regular-74"/><use x="1333.1" xlink:href="#MyriadPro-Regular-61"/><use x="1381.3" xlink:href="#MyriadPro-Regular-63"/><use x="1426.1" xlink:href="#MyriadPro-Regular-6b"/><use x="1473" xlink:href="#MyriadPro-Regular-4f"/><use x="1541.9" xlink:href="#MyriadPro-Regular-76"/><use x="1590" xlink:href="#MyriadPro-Regular-65"/><use x="1640.1" xlink:href="#MyriadPro-Regular-72"/><use x="1672.8" xlink:href="#MyriadPro-Regular-66"/><use x="1702" xlink:href="#MyriadPro-Regular-6c"/><use x="1725.6" xlink:href="#MyriadPro-Regular-6f"/><use x="1780.5" xlink:href="#MyriadPro-Regular-77"/></g><path clip-path="url(#pdd198e5dbf)" d="m72.005 323.405 2.28-.478 2.284.401 6.734.021 20.584-.07 9.018.075 2.283-.208 11.453-.021 2.281-.198 6.848.246 9.094-.29 4.603.017 2.283-.444 2.284.234 4.564-.077 2.32.084 2.208-.2 4.49-.004 2.283-.097 2.283-.266 6.886-.441 2.284.23 2.281-.035 2.283-.161 2.32-.442 2.208.526 2.206-.19 2.285-.689 2.282.515 2.283-.124 2.283-1.096 2.32.343h2.283l6.848.379 2.32-.841 2.208.321 2.206-.307 2.285.455 2.282.057 4.566-.505 4.603.188 2.284.085 2.281-.158 2.283.18 4.565-1.083 4.529-.3 2.282.296 4.566.294 2.32-.26 2.283.308 2.284-.006 2.281.267 2.283-.028 4.528-.825 2.206-.29 2.285.904 2.282-.434 2.283-.037 2.283-.44 4.603.65 4.565-.79 2.283 1.03 2.32-.119 2.208-.691 2.206.243 2.285-.26 2.282.077 2.283-.446 4.603-.31 2.283.115 2.284-.887 2.281.401 2.283.84 2.32-.154 4.414-.568 2.285.346 2.283-.052 2.282.472 2.283-1.137 2.32-.014 2.283.21 4.565-.022 2.283.253 2.32-.406 2.246-.515 2.243-.04 2.285-1.24 2.282.764 2.283.199 2.283.818 2.32-.484 2.283-.682 2.284 1.628 2.281.002 2.283 1.28 2.32-1.015 2.208-.767 2.207-.979 2.284.836 2.283.384 4.565.294 2.32-1.226 2.283.845 2.284-.558h0" style="fill:none;stroke:#ff9896;stroke-linecap:square;stroke-width:1.5" id="line2d_24"/><path clip-path="url(#pdd198e5dbf)" d="m92.436 323.405 38.769-.014 20.545.014 38.694-.015 15.942-.079 2.284-.039 4.564.042 15.867-.105 4.603.066 4.565-.457 2.283.09 2.32-.127 2.245-.335 2.244.027 2.285.186 9.168.15 2.283-.179 2.284.011 2.281-.214 2.283.235 2.32-.266 2.208.062 2.206-.322 2.285.226 2.282-1.662 2.283-1.322 2.283.382 2.32-.371 2.283.417 2.284-.6 2.281-.921 2.283.992 2.32-.484 2.208-.347 2.206-.704 2.285.007 2.282-.126 2.283.075 2.283-.895 2.32-.449 2.283.207 2.284-1.132 2.281.03 2.283 1.196 2.32-1.52 4.414-.267 4.568-.224 2.282-.85 2.283-1.21 2.32 1.058 2.283-.79 2.284-.22 2.281-.46 2.283 1.427 2.32-1.8 2.246-.337 2.243-.89 2.285-2.384 2.282.435 2.283 1.021 2.283 1.664 2.32.343 2.283-.971 2.284.06 2.281-.589 2.283 2.068 2.32-1.199 2.208.093 2.207-.387 2.284-.17 2.283.128 2.282-.729 2.283 1.121 4.603-.614 2.284.944h0" style="fill:none;stroke:#98df8a;stroke-linecap:square;stroke-width:1.5" id="line2d_25"/><path clip-path="url(#pdd198e5dbf)" d="m122.074 323.405 2.283-.014 2.284-.112 2.281.097 2.283.001 2.32-.028 2.245-.026 2.244.054 2.284-.146 2.283.013 2.283-.02 2.283-.057 2.32-.056 2.283.055 2.284-.329 2.281.018 2.283-.06 2.32-.098 2.208.04 2.206.037 2.284-.528 2.283.297 2.283-.13 2.283.186 2.32.042 2.283.069 2.284-.11 2.281-.455 2.283-.583 2.32-.168 2.208-.045 2.206.388 2.285.147 2.282.323 2.283-.2 2.283.052h2.32l2.283.057 2.284-.078 2.281.143 2.283.215 2.32.217 2.208-.162 2.206.148 2.285-.128 2.282.177 2.283.178 2.283-.094 2.32.246 2.283-.007 2.284-.085 2.281-.09 2.283.28 2.32-.147 2.245-.086 2.244.156 2.285.051 2.282.096 2.283-.19 2.283.134 2.32-.14 2.283.064 2.284.118 2.281-.06 2.283-.038h2.32l2.208-.025 2.206-.017 2.285.03 2.282-.367 2.283-.01 2.283.031 2.32.105 2.283.11 2.284-.124 2.281.153 2.283-.013 2.32.057 2.208-.35 2.206-1.29 2.285-.345 2.282-.356 2.283-.354 2.283-.354 2.32-.19 2.283.153 2.284-.202 2.281.238 2.283-.54 2.32-1.962 2.208.406 2.206.33 2.285-.979 2.283-.24 2.282.197 2.283-1.473 2.32-.294 2.283.144 2.284.353 2.281-.28 2.283-.322 2.32-.905 2.246-.602 2.243.357 2.285-4.989 2.282-1.985 2.283.645 2.283.89 2.32.098 2.283 1.431 2.284-.05 2.281.659 2.283 1.29 2.32-1.276 2.208-1.225 2.207-1.221 2.284-.023 2.283-.23 2.282.179 2.283 1.791 2.32-.883 2.283-.097 2.284 1.029" style="fill:none;stroke:#ffbb78;stroke-linecap:square;stroke-width:1.5" id="line2d_26"/><path clip-path="url(#pdd198e5dbf)" d="m49.25 323.405 38.62-.007 109.347-.063 2.283-17.392 2.283 5.925 2.32-.413 2.283-1.876 2.284-3.493 2.281-1.309 2.283 1.078 4.528-7.67 2.206-.082 2.285-3.973 2.282 2.543 4.566-9.505 2.32.533 2.283 2.605 2.284 2.848 2.281-1.139 2.283.592 2.32-2.93 2.245-2.003 2.244-.022 2.285 1.14 2.282 3.437 2.283-3.763 4.603.364 2.283-.863 2.284 2.166 2.281 1.55 2.283 4.03 2.32-2.811 2.208-1.103 2.206-.888 2.285 3.994 2.282-.356 2.283-1.628 2.283-.09 2.32 1.087 2.283 2.008 2.284.01 2.281.722 2.283 4.115 2.32-3.82 2.208-.211 2.206-1.969 2.285 2.515 2.282.611 2.283 2.482 2.283-4.893 2.32-.533 2.283 2.992 2.284-.18 2.281 1.426 2.283 2.344 2.32-1.1 2.208-.599 2.206.192 2.285-2.206 2.283.152 2.282-1.89 2.283-.843 2.32 4.549 2.283-.527 2.284-3.665 2.281.203 2.283 3.33 6.81-3.56 2.284-4.992 2.282.576 2.283 2.003 2.283 2.265 2.32 2.74 2.283 1.115 2.284 2.334 2.281.737 2.283 3.679 2.32-4.087 2.208-1.632 2.207.91 2.284 1.999 2.283 3.048 2.282.124 2.283-.257 2.32.238 2.283 1.28 2.284.85h0" style="fill:none;stroke:#aec7e8;stroke-linecap:square;stroke-width:1.5" id="line2d_27"/><path clip-path="url(#pdd198e5dbf)" d="m42.926 319.983 1.76 1.298 2.282.248 2.283.58 2.32-.954 2.208-.326 2.206-.445 2.284-.303 2.283-.04 2.283-.3 2.283-.135 2.32.07 2.282-.414 2.285-1.282 2.28-1.586 2.284 1.046 2.32-.925 2.208-1.134 2.206.188 2.284-.754 2.283.32 2.283-.131 4.603-1.208 2.283-.422 2.284-.097 2.281-2.01 2.283 1.842 2.32.028 2.208-2.474 2.206-2.047 2.284-.015 2.283 1.999 2.283-.014 2.283 1.191 4.603-2.27 2.284-1.115 2.281-.95 2.283 1.86 2.32-1.57 2.245-2.444 2.244-1.123 2.284-.127 2.283 1.908 2.283.627 2.283.116 2.32.385 2.283-2.044 2.284-3.738 2.281-1.034 2.283 5.078 2.32-2.37 2.208-3.757 2.206-.097 2.284-1.52 2.283 3.258 2.283 1.088 2.283.23 2.32.077 2.283-3.537 2.284-5.133 2.281-1.32 2.283 6.5 2.32-1.683 2.208-4.645 2.206-1.242 2.285 2.981 2.282 6.214 2.283 2.818 2.283.182 2.32 1.143 2.283-4.693 2.284-3.262 2.281.025 2.283 4.586 2.32-.406 2.208-3.651 2.206-1.276 2.285-1.165 2.282 3.961 2.283 1.731 2.283 3.232 2.32 1.675 2.283-4.363 2.284-3.417 2.281-.415 2.283 4.578 2.32.273 2.245-3.196 2.244.309 2.285-.052 2.282 5.231 2.283 2.403 2.283.254 2.32.911 2.283-2.679 2.284-4.358 2.281-1.132 2.283 4.069 2.32.26 2.208-1.844 2.206.343 2.285.12 2.282 1.527 2.283 2.087 2.283 2.756 2.32.007 2.283-.858 2.284-4.398 2.281-1.845 2.283 6.022 2.32-.182 2.208-1.032 2.206-.783 2.285 1.443 2.282-.743 2.283 3.394 2.283 1.758 2.32-.729 2.283-1.68 2.284-4.137 2.281-1.122 2.283 2.79 2.32-.568 2.208.113 2.206-.905 2.285-1.278 2.283 2.897 2.282 1.543 2.283.034 2.32 1.486 2.283-4.374 2.284-3.686 2.281-1.058 2.283 4.149 2.32.736 2.246-.171 2.243-3.278 2.285-7.346 2.282.33 2.283 6.109 2.283 4.566 2.32 1.633 2.283-3.172 2.284-1.51 2.281-3.27 2.283 3.817 2.32-2.082 2.208.958 2.207-.425 2.284 1.165 2.283 1.87 2.282 1.643 2.283 3.354 2.32.463 2.283-2.151 2.284-2.819h0" style="fill:none;stroke:#17becf;stroke-linecap:square;stroke-width:1.5" id="line2d_28"/><path clip-path="url(#pdd198e5dbf)" d="m151.75 323.405 2.284-1.941 2.281.905 2.283.468 2.32-.105 2.208.13 2.206-.27 2.284.132 2.283.148 2.283-.148 2.283-.076 2.32.007 2.283.127 2.284.048 2.281-.077 2.283-.203 2.32-.175 2.208.107 2.206.089 2.285-.18 2.282.047 2.283.2 2.283-.361 2.32.273 2.283.022 2.284-.162 2.281.22 2.283-.066 2.32-.154 2.208-.006 2.206-.106 2.285-.16 2.282-.464 2.283-.145 2.283-.15 2.32-.056 2.283-.09 2.284-.183 2.281-.585 2.283-.585 2.32-.82 2.245-1.26 2.244-.282 2.285-.928 2.282-.642 2.283-.568 2.283-.967 2.32-.631 2.283-.169 2.284-.665 2.281.245 2.283.413 2.32-1.107 2.208-1.168 2.206-.794 2.285.266 2.282-.82 2.283-.209 2.283-.036 2.32-.933 2.283 1.042 2.284.542 2.281-1.462 2.283 2.29 2.32-1.613 2.208-1.494 2.206-.37 2.285.39 2.282.451 2.283-.414 2.283-.756 2.32-1.83 2.283.956 2.284-1.32 2.281 1.544 2.283 1.182 2.32-2.74 2.208-2.339 2.206 1.645 2.285-1.065 2.283.7 2.282.343 2.283-1.927 2.32 1.767 2.283-.752 2.284-.86 2.281-2.074 2.283 2.95 2.32-.61 2.246-2.48 2.243-.772 2.285-5.063 2.282.66 2.283.832 2.283.403 2.32 2.922 2.283-.826 2.284.616 2.281 1.34 2.283 2.522 2.32-2.65 2.208-1.633 2.207-1.836 2.284 1.083 2.283 1.938 2.282-1.3 2.283 1.202 2.32-.63 2.283-.949 2.284.212" style="fill:none;stroke:#bcbd22;stroke-linecap:square;stroke-width:1.5" id="line2d_29"/><path clip-path="url(#pdd198e5dbf)" d="m42.926 318.258 1.76 1.404 2.282.737 2.283.013 4.528-2.19 2.206.557 2.284-.77 2.283-.527 2.283-.776 2.283-.927 2.32.358 2.282-2.553 2.285-.538 2.28 1.545 2.284.494 2.32-.483 2.208-1.207 2.206-.237 2.284.65 2.283-.566 2.283-1.62 2.283-1.064 2.32-.568 2.283.813 2.284-.386 2.281-1.323 2.283 1.036 2.32-3.224 2.208-.06 2.206-2.078 2.284 1.986 2.283-2.378 2.283-.25 2.283.509 4.603-.04 2.284.552 2.281-2.347 2.283 2.41 2.32-1.521 2.245-3.99 2.244-1.674 2.284 1.153 2.283-.487 2.283.705 2.283-2.226 2.32.225 2.283-.216 2.284-2.658 2.281-2.448 2.283 4.081 2.32-5.502 2.208-2.912 2.206-1.237 2.284.16 2.283 1.62 2.283.669 2.283-3.578 2.32.224 4.567-10.275 2.281.396 2.283 3.796 2.32-5.706 2.208-4.584 2.206-.336 2.285-2.39 2.282 9.16 2.283 1.415 2.283-1.968 2.32 4.556 2.283-2.393 2.284 7.804 2.281 7.218 2.283 1.564 2.32-1.857 2.208-2.628 2.206-1.115 2.285-.44 2.282 2.627 2.283-1.584 2.283.245 2.32 2.768 4.567.204 2.281-.53 2.283 2.037 2.32-1.746 2.245-3.645 2.244-.854 2.285-.087 2.282 1.832 2.283-1.926 2.283 5.353 2.32-.652 2.283.028 2.284-.946 2.281-2.002 2.283 5.1 2.32-1.493 2.208-3.733 2.206-3.213 2.285 3.455 2.282-1.934 2.283 1.08 2.283 1.268 2.32 1.5 2.283 1.62 2.284-1.655 2.281-1.118 2.283 7.048 2.32-3.463 2.208-2.338 2.206-1.362 2.285-.965 2.282.712 2.283 1.49 2.283-.852 2.32.568 2.283 3.746 2.284-3.585 2.281.695 2.283 5.508 2.32-3.4 2.208-4.86 2.206.165 2.285 1.421 4.565 4.252 2.283-4.608 2.32 4.437 2.283-3.226 2.284-2.83 2.281-1.421 2.283 4.918 2.32-1.99 2.246-3.556 2.243.486 2.285-5.196 2.282 1.586 2.283 1.905 2.283 3.128 2.32 3.953 2.283-2.815 2.284-.458 2.281-.332 2.283 5.567 2.32-.644 2.208-3.143 2.207-1.708 2.284 1.355 2.283 2.325 2.282-2.325 2.283 4 2.32-.084 2.283.248 2.284 1.413h0" style="fill:none;stroke:#7f7f7f;stroke-linecap:square;stroke-width:1.5" id="line2d_30"/><path clip-path="url(#pdd198e5dbf)" d="m42.926 315.162 1.76 2.545 2.282.368 2.283.893 2.32-1.542 2.208-.586 2.206-.836 2.284-.008 2.283-1.142 2.283-.531 2.283-1.2 2.32.448 2.282-.784 2.285-1.22 2.28-.887 2.284 1.097 2.32-2.418 2.208-3.623 2.206.574 2.284-.96 2.283 1.08 2.283-3.507 2.283 1.642 2.32.33 2.283-1.364 2.284-.704 2.281-3.859 2.283 2.408 2.32-2.559 2.208-2.238 2.206-2.563 2.284-.907 2.283 2.954 2.283-.397 2.283.698 2.32-.75 2.283-.868 4.565-3.97 2.283 1.95 2.32-1.338 2.245-6.426 2.244 1.47 2.284-1.739 2.283 3.527 2.283 1.246 2.283-3.25 2.32.917 2.283.595 2.284-5.837 2.281-4.078 2.283 5.62 2.32-2.615 2.208-4.958 2.206-3.172 2.284-1.387 2.283 3.91 2.283 3.065 2.283-1.138 2.32 2.278 2.283-3.733 2.284-8.525 2.281-2.99 2.283 9.823 2.32-4.773 2.208-5.72 2.206-1.156 2.285 1.876 2.282 11.245 2.283 6.47 2.283-2.818 2.32 2.734 2.283-3.732 2.284-2.97 2.281.312 2.283 5.023 2.32-.456 2.208-7.076 2.206-1.559 2.285.005 2.282 3.948 2.283.643 2.283.184 2.32 5.846 2.283-1.633 2.284-6.589 2.281-1.987 2.283 5.394 2.32 3.245 2.245-6.41 2.244-.242 2.285-.632 2.282 7.031 2.283 1.53 4.603 6.398 2.283-2.19 2.284-4.665 2.281-2.238 2.283 7.48 2.32-2.964 2.208-.585 2.206-3.502 2.285 1.136 2.282 5.39 2.283 3.243 2.283-1.288 2.32 1.697 2.283 1.134 2.284-4.211 2.281.09 2.283 5.194 4.528-4.258 2.206-.893 2.285 2.528 2.282.941 2.283 3.296 2.283 1.211 2.32-.77 2.283.413 2.284-3.519 2.281-1.536 2.283 6.849 2.32-2.397 2.208-1.987 2.206-2.751 2.285-1.597 2.283 3.749 2.282 1.35 2.283-5.871 2.32 7.927 2.283-5.316 2.284-7.623 2.281-.401 2.283 6.317 2.32.28 2.246-2.569 2.243-3.332 2.285-14.19 2.282 1.202 2.283 5.824 2.283 5.306 2.32 3.94 2.283 3.276 2.284-2.338 2.281-1.261 2.283 5.25 2.32-2.09 2.208-2.857 2.207.566 2.284 1.5 2.283-.26 2.282 2.65 2.283 4.661 2.32 1.935 2.283-4.424 2.284-.987h0" style="fill:none;stroke:#e377c2;stroke-linecap:square;stroke-width:1.5" id="line2d_31"/><path clip-path="url(#pdd198e5dbf)" d="m42.926 323.324 1.76.081 18.149-.036 2.283-.321 2.32.028 2.282-.678 2.285.495 2.28-.169 2.284.12 2.32-.098 2.208-.288 2.206-.027 2.284-.185 2.283.185 6.886-1.01 4.567.484 2.281-.253 2.283.19 2.32-.19 2.208-.746 4.49-.948 2.283.447 2.283-.216 2.283.034 2.32-.932 2.283-.318 2.284.08 2.281-.051 2.283.1 2.32-.533 2.245-1.263 2.244-.146 2.284.11 2.283-.047 4.566-1.696 2.32.224 2.283-.023 2.284-1.21 2.281-.876 2.283 1.22 2.32-2.062 2.208-2.393 2.206-.01 2.284-.37 2.283.832 2.283-.353 2.283-.972 2.32.35 2.283 1.071 2.284-2.29 2.281-1.143 2.283 2.489 2.32-3.14 2.208-3.82 2.206.533 2.285-.074 2.282 1.665 2.283.804 2.283-1.162 2.32 1.136 2.283.193 2.284-2.317 2.281-.146 2.283 3.11 2.32-2.382 2.208-4.162 2.206-1.908 2.285.88 2.282.08 2.283-.84 2.283-3.043 2.32 3.434 2.283.334 2.284-1.686 2.281.157 2.283 3.375 2.32-2.551 2.245-2.153 4.529-3.009 2.282 3.389 2.283-1.383 2.283 1.72 2.32-.274 2.283 2.69 2.284-2.662 2.281.743 2.283 3.715 2.32-2.447 2.208-4.094 2.206-3.72 2.285 1.425 2.282.593 2.283-2.027 4.603.226 2.283 1.454 2.284-1.286 2.281-.858 2.283 6.717 2.32-3.37 2.208-5.594 2.206-.743 2.285 1.354 2.282 1.218 2.283.556 2.283.37 2.32.245 2.283 1.529 2.284-3.597 2.281-.676 2.283 8.21 2.32-5.144 2.208-6.38 2.206 1.95 2.285-2.613 2.283 3.497 2.282 1.617 2.283-3.58 2.32 3.498 2.283-.853 2.284-4.012 2.281.42 2.283 6.526 2.32-2.937 2.246-6.834 2.243-1.5 2.285-11.051 2.282 3.363 2.283 2.83 2.283 6.296 2.32 3.35 2.283-3.454 2.284-1.719 2.281.589 2.283 7.892 2.32-2.446 2.208-3.995 2.207-3.217 2.284 2.302 2.283 2.723 2.282 1.673 2.283 3.353 4.603.971 2.284-1.946h0" style="fill:none;stroke:#8c564b;stroke-linecap:square;stroke-width:1.5" id="line2d_32"/><path clip-path="url(#pdd198e5dbf)" d="m42.926 318.19 1.76.87 2.282.695 2.283.286 2.32-1.1 2.208-1.503 2.206-.376 2.284-.668 2.283-1.288 2.283-3.152 2.283-2.812 4.602-2.178 2.285-.15 2.28-2.913 2.284-.338 2.32-4.311 2.208-.446 2.206-1.74 2.284-.147 2.283-1.522 2.283-1.694 2.283-2.645 2.32-3.827 2.283 2.112 2.284 2.297 2.281-5.411 2.283-.715 4.528-14.504 2.206-4.84 2.284 1.394 2.283-1.29 2.283-1.477 2.283-2.791 2.32-1.717 2.283 4.132 2.284 1.91 2.281-6.372 2.283 4.48 2.32-6.975 2.245-9.365 2.244-2.01 2.284.978 2.283-1.112 2.283.106 2.283-5.86 2.32-.87 2.283 3.934 2.284-3.204 2.281-2.62 2.283 7.743 2.32-13.008 2.208-8.184 2.206-1.377 2.284 2.08 2.283 5.336 2.283-.093 2.283-8.451 2.32.182 2.283-2.913 2.284-4.341 2.281-.36 2.283 6.843 2.32-17.256 2.208-10.698 2.206-.278 2.285.342 2.282 24.855 2.283 9.352 2.283-5.742 2.32 7.717 2.283-4.155 2.284 1.288 2.281 1.138 2.283 7.834 2.32-8.797 2.208-9.234 2.206.087 2.285-3.948 2.282 6.528 2.283-1.986 2.283-3.81 2.32 8.095 2.283 1.907 2.284.399 2.281 1.086h2.283l2.32-5.761 2.245-9.771 2.244 5.86 2.285 1.09 2.282 3.788 2.283 2.411 2.283 8.48 2.32.344 2.283 2.272 2.284 1.997 2.281-.57 2.283 6.191 2.32-8.158 2.208-8.717 2.206-1.552 2.285 8.636 2.282-1.402 2.283 6.124 2.283 2.728 2.32 1.023 2.283 4.194 2.284 1.547 2.281-.779 2.283 12.778 2.32-7.107 2.208.016 2.206 1.947 2.285 4.114 2.282-1.402 2.283 5.103 2.283-2.951 2.32-1.85 2.283 4.062 2.284-2.29 2.281 5.158 2.283 9.688 2.32-8.053 2.208-6.985 2.206 2.127 2.285 1.775 2.283 3.594 2.282 1.83 2.283-9.287 2.32 8.579 2.283-.472 2.284-2.942 2.281-2.258 2.283 10.571 2.32-6.056 2.246-2.937 2.243 1.78 2.285-13.288 2.282 4.135 2.283 4.882 2.283 4.188 2.32 8.586 2.283-.672 2.284 3.594 2.281-1.616 2.283 9.642 2.32-9.834 2.208-1.37 2.207 1.377 2.284 1.937 2.283 2.738 2.282.058 2.283 5.276 2.32-.49 2.283 1.044 2.284 1.549h0" style="fill:none;stroke:#9467bd;stroke-linecap:square;stroke-width:1.5" id="line2d_33"/><path clip-path="url(#pdd198e5dbf)" d="m42.926 306.01 1.76 3.447 4.565 2.776 2.32-5.474 2.208-3.507 2.206-2.01 2.284-1.897 2.283-.906 2.283-3.179 2.283-2.758 4.602-.668 2.285-1.568 2.28-.757 2.284 2.376 2.32-4.366 2.208-3.752 2.206-2.703 2.284.435 2.283.21 2.283-2.933 2.283-2.282 2.32-1.956 2.283 2.434 2.284-.878 2.281-5.749 2.283 3.177 2.32-6.336 2.208-7.878 2.206-6.267 2.284 2.797 2.283-3.09 2.283-.488 2.283 3.43 2.32-3.153 2.283 3.142 2.284 2.808 2.281-7.16 2.283 6.467 4.565-15.667 2.244-.805 2.284.842 2.283-.554 2.283-.728 2.283-4.438 2.32 2.804 2.283 2.228 2.284-7.57 2.281.588 2.283 11.854 2.32-13.044 2.208-8.133 2.206-2.493 2.284-.714 2.283 6.3 2.283 1.848 2.283-6.83 2.32 2.55 2.283-2.687 2.284-6.803 2.281.726 2.283 10.334 2.32-12.118 2.208-9.8 2.206 3.639 2.285 2.535 2.282 13.466 2.283 6.813 2.283-5.264 2.32 8.446 2.283-1.726 2.284 1.236 2.281 2.147 2.283 8.142 2.32-4.549 2.208-9.09 2.206-1.451 2.285-1.896 2.282 1.118 2.283-4.406 2.283-.88 2.32 6.323 2.283-.728 2.284 3.889 2.281-.065 2.283 4.53 2.32-1.41 2.245-8.92 2.244.026 2.285-4.054 2.282 4.846 2.283-.037 2.283 10.544 2.32-5.026 2.283 8.728 2.284.202 2.281-4.149 2.283 9.497 2.32-7.1 2.208-7.386 2.206-1.761 2.285 10.857 2.282-3.848 2.283 2.138 2.283 3.343 2.32 1.787 2.283 5.198 2.284-.074 2.281.596 2.283 10.71 2.32-5.503 2.208-.791 2.206-2.138 2.285 1.814 2.282-2.796 2.283 6.12 2.283-6.26 2.32-3.343 2.283 5.931 2.284-5.167 2.281 4.06 2.283 9.72 2.32-9.645 2.208-4.83 2.206 2.7 2.285-4.718 2.283 3.28 2.282 5.173 2.283-9.525 2.32 8.944 2.283-3.96 2.284-3.638 2.281.581 2.283 12.456 2.32-6.182 2.246-5.106 2.243 1.685 2.285-10.907 4.565 10.488 2.283 3.118 2.32 5.32 2.283 2.288 2.284 3.795 2.281-.05 2.283 11.734 2.32-11.46 2.208-2.933 2.207.656 2.284 3.313 2.283 2.904 2.282-.782 2.283 6.774 2.32.19 2.283-.923 2.284.06h0" style="fill:none;stroke:#d62728;stroke-linecap:square;stroke-width:1.5" id="line2d_34"/><path clip-path="url(#pdd198e5dbf)" d="m42.926 310.667 1.76 4.664 4.565 2.236 2.32-2.243 2.208-1.293 2.206-.726 2.284-1.017 2.283-1.66 2.283-2.577 2.283-.528 2.32.504 2.282-1.041 2.285-1.174 2.28-2.426 2.284 1.158 2.32-7.31 2.208-1.664 2.206-3.39 2.284 3.008 2.283-1.102 2.283-1.824 2.283-.594 2.32-1.324 4.567-2.257 2.281-5.364 2.283.8 2.32-6.16 2.208-7.603 2.206-6.114 2.284 2.238 2.283-2.827 2.283 2.733 2.283.162 2.32-3.757 2.283.618 2.284.335 2.281-9.953 2.283 5.292 2.32-6.665 2.245-11.365 2.244-4.868 2.284-.139 2.283 1.786 2.283 5.095 2.283-5.396 2.32.154 2.283 1.758 2.284-10.491 2.281-4.009 2.283 11.543 2.32-9.315 2.208-10.94 2.206-4.83 2.284-5.984 2.283 10.49 2.283 6.183 2.283-5.348 2.32 1.072 2.283-12.325 2.284-13.797 2.281-4.534 2.283 13.708 2.32-8.712 2.208-18.868 2.206-4.633 2.285 2.832 2.282 25.512 2.283 10.665 2.283-6.382 2.32 11.579 2.283-10.962 2.284-4.409 2.281-3.833 2.283 14.599 2.32-1.164 2.208-14.062 2.206-8.528 2.285-4.845 2.282 13.635 2.283.626 2.283-1.832 2.32 11.48 2.283-3.072 2.284-7.21 2.281 1.097 2.283 12.908 2.32-.694 2.245-17.096 2.244-6.013 2.285-1.591 2.282 21.693 2.283 4.279 2.283 10.678 2.32-1.605 2.283.096 2.284-1.266 2.281-5.933 2.283 16.411 2.32-5.095 2.208-11.005 2.206-8.48 2.285 6.112 2.282.854 2.283 8.641 2.283 6.737 2.32 3.042 2.283 3.772 2.284-5.825 2.281-4.764 2.283 18.929 2.32-2.376 2.208-6.854 2.206-1.655 2.285-2.713 2.282 3.161 2.283 9.137 2.283-4.357 2.32.372 2.283 1.03 2.284-12.399 2.281 3.259 2.283 13.528 2.32-5.229 2.208-8.759 2.206-.696 2.285 2.829 2.283 3.416 2.282 5.594 2.283-13.85 2.32 15.72 2.283-7.454 2.284-11.841 2.281 2.78 2.283 16.06 2.32-6.014 2.246-6.969 2.243-7.827 2.285-22.49 2.282 11.17 2.283 12.586 2.283 7.678 2.32 10.689 2.283-1.317 2.284 1.611 2.281.047 2.283 20.258 2.32-10.415 2.208-5.129 2.207-2.904 2.284 5.172 2.283.828 2.282 2.373 2.283 11.47 2.32 1.29 2.283-2.091 2.284 2.028h0" style="fill:none;stroke:#2ca02c;stroke-linecap:square;stroke-width:1.5" id="line2d_35"/><path clip-path="url(#pdd198e5dbf)" d="m42.926 316.697 1.76 1.62 2.282.895 2.283-.195 2.32-1.156 2.208-1.82 2.206.313 2.284-.546 2.283-2.447 2.283-1.233 2.283-.996 2.32-.743 2.282.356 2.285-1.66 2.28-1.817 2.284-.019 4.528-4.26 2.206-.506 4.567-1.633 2.283-2.54 2.283-2.002 4.603-1.83 2.284.07 2.281-4.06 2.283-1.806 2.32-3.49 2.208-5.367 2.206-3.934 2.284-2.562 2.283-1.286 2.283-4.5 2.283-1.156 2.32-5.608 4.567 6.056 2.281-6.571 2.283 4.525 2.32-8.972 2.245-7.763 2.244-.164 2.284-2.344 2.283-3.397 2.283-.673 2.283-5.01 2.32-.555 2.283 6.355 2.284-6.18 2.281-2.316 2.283 7.167 2.32-14.775 2.208-10.093 2.206-.96 2.284-3.791 2.283 6.02 2.283-.386 2.283-12.287 2.32.091 2.283-10.604 2.284-10.002 2.281 4.404 2.283 7.693 2.32-21.756 2.208-16.374 2.206 5.223 2.285 3.479 2.282 16.679 2.283 6.12 2.283-8.475 2.32 11.733 2.283-1.787 2.284-1.276 2.281 2.413 2.283 11.093 2.32-10.716 2.208-14.9 2.206.888 2.285-7.477 2.282-3.828 2.283-8.456 2.283-4.49 2.32 13.128 2.283-.055 2.284 2.298 2.281-1.103 2.283 6.276 2.32-10.093 2.245-10.655 2.244-.385 2.285-.976 2.282 8.644 2.283.663 2.283 5.036 2.32-3.35 2.283 10.96 2.284 4.655 2.281-5.329 2.283 9.808 2.32-11.242 2.208-14.286 2.206-1.772 2.285 12.234 2.282-3.087 2.283.574 2.283 4.865 2.32 1.703 2.283 12.19 2.284-1.83 2.281-1.168 2.283 21.557 2.32-13.885 2.208-.915 2.206-.36 2.285 3.974 2.282 3.223 2.283 2.21 2.283-8.882 2.32-6.168 2.283 9.849 2.284-7.396 2.281 4.76 2.283 19.96 2.32-13.47 2.208-11.68 2.206.269 2.285 3.95 2.283 4.552 2.282 1.025 2.283-14.728 2.32 9.988 2.283-.837 2.284-8.296 2.281-3.408 2.283 18.597 2.32-14.137 2.246-8.47 2.243-9.186 2.285-38.321 2.282 3.71 2.283 9.986 2.283 5.196 2.32 17.999 2.283 4.341 2.284 6.6 2.281 2.642 2.283 15.14 2.32-20.971 2.208-3.047 2.207-.612 2.284 5.202 2.283 6.055 2.282 1.528 2.283 10.962 2.32-.54 2.283-2.628 2.284 7.626h0" style="fill:none;stroke:#ff7f0e;stroke-linecap:square;stroke-width:1.5" id="line2d_36"/><path clip-path="url(#pdd198e5dbf)" d="m42.926 317.647 1.76 2.177 4.565.49 2.32-1.332 4.414-.939 2.284-.2 2.283-1.468 4.566-1.121 2.32.154 2.282-.462 2.285-1.515 2.28-1.324 2.284.154 2.32-2.538 2.208-.806 2.206-.042 2.284 1.37 2.283-.935 2.283-1.897 2.283-2.231 2.32.729 2.283 1.162 2.284-2.368 2.281-.254 2.283 1.53 4.528-6.003 2.206-2.92 2.284 2.077 6.849-1.523 2.32-1.136 2.283 1.399 2.284.038 2.281-2.646 2.283 2.674 4.565-8.364 2.244-1.687 2.284-.27 2.283-.15 2.283-2.415 2.283-1.93 2.32-.912 2.283 3.03 2.284-4.936 2.281-3.32 2.283 5.969 2.32-5.874 2.208-6.398 2.206-1.101 2.284-3.938 2.283 2.732 2.283-.291 2.283-5.351 2.32 4.766 2.283-2.015 2.284-8.919 2.281-2.192 2.283 9.502 2.32-9.7 2.208-7.968 2.206-3.212 2.285 1.963 2.282 13.107 2.283.43 2.283-5.168 2.32 5.873 2.283.287 2.284-3.644 2.281-2.209 2.283 6.043 2.32-4.556 2.208-11.204 2.206-2.33 2.285-1.583 2.282 4.407 2.283-6.906 2.283-.874 2.32 7.745 2.283-.809 2.284-8.134 2.281-1.578 2.283 7.55 2.32-4.963 2.245-12.8 2.244.625 2.285-.378 2.282 7.058 2.283-1.532 2.283 3.53 2.32-.456 2.283 1.047 2.284-5.316 2.281-8.054 2.283 11.363 2.32-8.713 2.208-14.703 2.206-5.426 2.285 6.81 2.282-.005 2.283-2.812 2.283-2.487 2.32 3.225 2.283 3.463 2.284-7.017 2.281-4.122 2.283 18.217 2.32-8.992 2.208-13.193 2.206 1.221 2.285 2.74 2.282-.504 2.283 1.655 2.283-15.175 2.32-.063 2.283 8.959 2.284-13.48 2.281-4.504 2.283 22.587 2.32-9.28 2.208-19.74 2.206-5.633 2.285-4.346 2.283 10.157 2.282-3.79 2.283-16.943 2.32 17.088 2.283 2.846 2.284-26.515 2.281-9.966 2.283 29.472 4.566-35.945 2.243-14.303 2.285-53.476 2.282-1.545 2.283 14.48 2.283 16.521 2.32 29.312 2.283 1.563 2.284-3.659 2.281-2.794 2.283 28.735 2.32-25.738 2.208-10.38 2.207-4.78 2.284 8.44 2.283 6.426 2.282 7.132 2.283 14.87 2.32 3.308 2.283 2.305 2.284-2.635h0" style="fill:none;stroke:#1f77b4;stroke-linecap:square;stroke-width:1.5" id="line2d_37"/></g></g><defs><clipPath id="pdd198e5dbf"><path d="M42.926 57.293h357.12v266.112H42.926z"/></clipPath></defs></svg>