<svg height="475.651" viewBox="0 0 502.423 356.738" width="669.898" xmlns="http://www.w3.org/2000/svg" xmlns:xlink="http://www.w3.org/1999/xlink"><defs><style>*{stroke-linecap:butt;stroke-linejoin:round}</style></defs><g id="figure_1"><path d="M0 356.738h502.423V0H0z" fill="none" id="patch_1"/><g id="axes_1"><path d="M37.556 313.628h357.12V47.516H37.556z" fill="none" id="patch_2"/><path clip-path="url(#p37be79fbc9)" d="M92.173 313.628l2.405-.07 2.408.07h4.809l2.445-.068 2.327.068 2.325-.205 2.407.064 2.405.073 2.406.068 2.405-.068h2.445l2.406-.003 2.407.003 2.404-.073 2.405-.064 2.445-.137 2.366.27 2.365-.202 2.407-.009 2.405.146 2.406.066 2.405-.134 2.445-.411 2.406.475 2.407.141 2.404-.283 2.405.215 2.445-.137 2.327-.477 2.325.134 2.407.194 2.406.149 2.405-.36 2.406.223 2.445-.206 2.405-.23 2.407.025 2.404-.167 2.406.236 2.445.342 2.326-1.174 2.325.695 2.407-.028 2.406.096 2.405-.45 2.406.176 2.445.411 2.405-.374 2.408-.242 2.403.525 2.406-.114 2.445-.137 2.327-.406 2.325-.074 2.407-.755 2.405.892 2.406-.185 2.405.117 2.445.137 2.406-.395 2.407.052 2.404-.194 2.405.194 2.445.274 2.366.277 2.365-1.167 2.407-.356 2.405.425 2.406.566 2.405-.635 2.445-.274 2.406.13 2.407 1.034 2.404-.68 2.405-.073 2.445-.616 2.327.244 2.325.851 2.407.372 2.406-.92 2.405-.99 2.406.99 2.445-.479 2.405 1.046 2.407-.156 2.404-.552 2.406.005 2.445.137 2.326-.531 2.325-.154 2.407-.094 2.406-.249 2.405 1.098 2.406-.618 2.445-.274 2.405.892 2.408-.96 2.403-.03 2.406.92 2.445-.411 2.327-.196 2.325.401 2.407-.997 2.405.38 2.406-.168 2.405-.653 2.445 1.096 2.406-.726 2.407-.027 2.404-.893 2.405 1.372 2.445-1.37 2.366.069 2.365.41 2.407-1.26 2.405.987 2.406-1.27 2.405 1.612 2.445-.958 2.406 1.186 2.407.046 2.404.804 2.405-.05 2.445.136 2.327-1.87" fill="none" stroke="#e377c2" stroke-linecap="square" stroke-width="1.5" id="line2d_1"/><g id="matplotlib.axis_1"><g id="xtick_1"><g id="line2d_2"><defs><path d="M0 0v3.5" id="m5a10d54fbc" stroke="#969696" stroke-width=".4"/></defs><use x="74.23" xlink:href="#m5a10d54fbc" y="313.628" fill="#969696" stroke="#969696" stroke-width=".4"/></g><g transform="matrix(.14 0 0 -.14 58.66 330.678)" fill="#969696" id="text_1"><defs><path d="M4.39 45.125q0 12.39 6.391 18.781 6.406 6.407 17.938 6.407 9.656 0 15.812-5.86 6.157-5.86 6.157-15.14 0-7.22-3.547-12.188-3.532-4.953-10.422-8.703l-12.11-6.64Q13.922 15.921 12.5 8.296h38.188V0H2.593q.39 9.906 4.297 16.5 3.906 6.594 12.203 11.375l12.593 7.328q5.032 2.89 7.329 5.984 2.297 3.094 2.297 8.516 0 5.375-3.766 9.031-3.75 3.672-10.156 3.672-7.078 0-10.594-4.672-3.516-4.656-3.61-12.609z" id="HelveticaWorld-Regular-50"/><path d="M42.484 34.188q0 14.109-3.734 21.156-3.734 7.062-10.969 7.062-7.078 0-10.89-7.062-3.797-7.047-3.797-21.157 0-13.671 3.75-20.937Q20.609 6 27.78 6q7.235 0 10.969 7 3.734 7.016 3.734 21.188zm9.422 0q0-17.297-6.25-26.704-6.25-9.39-17.875-9.39-12.062 0-18.062 9.734-6 9.75-6 26.36 0 17.03 6.14 26.578 6.157 9.547 17.922 9.547 11.625 0 17.875-9.5t6.25-26.626z" id="HelveticaWorld-Regular-48"/><path d="M35.89 0h-9.374v49.906H10.109v6.985q8.594.28 12.782 2.75Q27.094 62.109 29 70.313h6.89z" id="HelveticaWorld-Regular-49"/></defs><use xlink:href="#HelveticaWorld-Regular-50"/><use x="55.615" xlink:href="#HelveticaWorld-Regular-48"/><use x="111.23" xlink:href="#HelveticaWorld-Regular-49"/><use x="166.846" xlink:href="#HelveticaWorld-Regular-48"/></g></g><g id="xtick_2"><use x="131.805" xlink:href="#m5a10d54fbc" y="313.628" fill="#969696" stroke="#969696" stroke-width=".4" id="line2d_3"/><g transform="matrix(.14 0 0 -.14 116.234 330.678)" fill="#969696" id="text_2"><use xlink:href="#HelveticaWorld-Regular-50"/><use x="55.615" xlink:href="#HelveticaWorld-Regular-48"/><use x="111.23" xlink:href="#HelveticaWorld-Regular-49"/><use x="166.846" xlink:href="#HelveticaWorld-Regular-50"/></g></g><g id="xtick_3"><use x="189.458" xlink:href="#m5a10d54fbc" y="313.628" fill="#969696" stroke="#969696" stroke-width=".4" id="line2d_4"/><g transform="matrix(.14 0 0 -.14 173.888 330.678)" fill="#969696" id="text_3"><defs><path d="M10.594 24.703h22.61v31.89h-.188zM42 17.093V0h-8.797v17.094H2.484v8.593L34.72 70.314H42v-45.61h10.297v-7.61z" id="HelveticaWorld-Regular-52"/></defs><use xlink:href="#HelveticaWorld-Regular-50"/><use x="55.615" xlink:href="#HelveticaWorld-Regular-48"/><use x="111.23" xlink:href="#HelveticaWorld-Regular-49"/><use x="166.846" xlink:href="#HelveticaWorld-Regular-52"/></g></g><g id="xtick_4"><use x="247.033" xlink:href="#m5a10d54fbc" y="313.628" fill="#969696" stroke="#969696" stroke-width=".4" id="line2d_5"/><g transform="matrix(.14 0 0 -.14 231.462 330.678)" fill="#969696" id="text_4"><defs><path d="M14.11 21.578q0-6.875 4.093-11.234Q22.313 6 28.906 6q6.297 0 10.032 4.438 3.734 4.453 3.734 11.687 0 6.297-3.688 10.547-3.687 4.25-10.468 4.25-6.594 0-10.5-4.156-3.907-4.157-3.907-11.188zM41.702 51.61q-.984 5.375-3.984 8.078-3 2.72-8.125 2.72-8.11 0-12.36-7.923-4.25-7.906-4.343-18.109l.203-.188q5.61 8.641 16.687 8.641 8.844 0 15.438-5.86 6.593-5.859 6.593-16.452 0-10.5-6.25-17.47-6.25-6.952-16.843-6.952-12.219 0-18.563 8.687-6.344 8.703-6.344 25.938 0 16.593 6.485 27.093 6.5 10.5 19.484 10.5 8.407 0 14.219-5.015 5.813-5 6.297-13.688z" id="HelveticaWorld-Regular-54"/></defs><use xlink:href="#HelveticaWorld-Regular-50"/><use x="55.615" xlink:href="#HelveticaWorld-Regular-48"/><use x="111.23" xlink:href="#HelveticaWorld-Regular-49"/><use x="166.846" xlink:href="#HelveticaWorld-Regular-54"/></g></g><g id="xtick_5"><use x="304.686" xlink:href="#m5a10d54fbc" y="313.628" fill="#969696" stroke="#969696" stroke-width=".4" id="line2d_6"/><g transform="matrix(.14 0 0 -.14 289.115 330.678)" fill="#969696" id="text_5"><defs><path d="M27.594 40.578q5.422 0 8.953 3.094 3.547 3.11 3.547 8.234 0 4.594-3.407 7.547-3.39 2.953-9.687 2.953-5.61 0-8.672-3.11-3.047-3.093-3.047-7.874 0-5.125 3.813-7.984 3.812-2.86 8.5-2.86zm.093-7.562q-6.78 0-10.64-3.766-3.86-3.766-3.86-9.234 0-6.297 3.907-10.157Q21 6 28.219 6q6.406 0 10.234 3.86 3.828 3.859 3.828 10.265 0 5.469-3.828 9.172-3.828 3.719-10.766 3.719zM49.22 52.203q0-10.594-9.032-14.797 6.204-2.781 8.86-7.36 2.656-4.562 2.656-9.733 0-10.016-6.453-16.125-6.438-6.094-17.375-6.094-9.563 0-16.813 5.25-7.25 5.25-7.25 17.062 0 11.922 11.907 16.907-9.516 3.796-9.516 13.671 0 8.297 5.64 13.813 5.641 5.516 15.641 5.516 10.016 0 15.875-5.204 5.86-5.203 5.86-12.906z" id="HelveticaWorld-Regular-56"/></defs><use xlink:href="#HelveticaWorld-Regular-50"/><use x="55.615" xlink:href="#HelveticaWorld-Regular-48"/><use x="111.23" xlink:href="#HelveticaWorld-Regular-49"/><use x="166.846" xlink:href="#HelveticaWorld-Regular-56"/></g></g><g id="xtick_6"><use x="362.261" xlink:href="#m5a10d54fbc" y="313.628" fill="#969696" stroke="#969696" stroke-width=".4" id="line2d_7"/><g transform="matrix(.14 0 0 -.14 346.69 330.678)" fill="#969696" id="text_6"><use xlink:href="#HelveticaWorld-Regular-50"/><use x="55.615" xlink:href="#HelveticaWorld-Regular-48"/><use x="111.23" xlink:href="#HelveticaWorld-Regular-50"/><use x="166.846" xlink:href="#HelveticaWorld-Regular-48"/></g></g></g><g id="matplotlib.axis_2"><g id="ytick_1"><path clip-path="url(#p37be79fbc9)" d="M37.556 313.628h357.12" fill="none" stroke="#969696" stroke-linecap="square" stroke-width=".3" id="line2d_8"/><g id="line2d_9"><defs><path d="M0 0h-3.5" id="mf75753935d" stroke="#969696" stroke-width=".3"/></defs><use x="37.556" xlink:href="#mf75753935d" y="313.628" fill="#969696" stroke="#969696" stroke-width=".3"/></g><use xlink:href="#HelveticaWorld-Regular-48" transform="matrix(.14 0 0 -.14 22.77 318.653)" fill="#969696" id="text_7"/></g><g id="ytick_2"><path clip-path="url(#p37be79fbc9)" d="M37.556 271.175h357.12" fill="none" stroke="#969696" stroke-linecap="square" stroke-width=".3" id="line2d_10"/><use x="37.556" xlink:href="#mf75753935d" y="271.175" fill="#969696" stroke="#969696" stroke-width=".3" id="line2d_11"/><g transform="matrix(.14 0 0 -.14 14.985 276.2)" fill="#969696" id="text_8"><use xlink:href="#HelveticaWorld-Regular-50"/><use x="55.615" xlink:href="#HelveticaWorld-Regular-48"/></g></g><g id="ytick_3"><path clip-path="url(#p37be79fbc9)" d="M37.556 228.721h357.12" fill="none" stroke="#969696" stroke-linecap="square" stroke-width=".3" id="line2d_12"/><use x="37.556" xlink:href="#mf75753935d" y="228.721" fill="#969696" stroke="#969696" stroke-width=".3" id="line2d_13"/><g transform="matrix(.14 0 0 -.14 14.985 233.746)" fill="#969696" id="text_9"><use xlink:href="#HelveticaWorld-Regular-52"/><use x="55.615" xlink:href="#HelveticaWorld-Regular-48"/></g></g><g id="ytick_4"><path clip-path="url(#p37be79fbc9)" d="M37.556 186.268h357.12" fill="none" stroke="#969696" stroke-linecap="square" stroke-width=".3" id="line2d_14"/><use x="37.556" xlink:href="#mf75753935d" y="186.268" fill="#969696" stroke="#969696" stroke-width=".3" id="line2d_15"/><g transform="matrix(.14 0 0 -.14 14.985 191.293)" fill="#969696" id="text_10"><use xlink:href="#HelveticaWorld-Regular-54"/><use x="55.615" xlink:href="#HelveticaWorld-Regular-48"/></g></g><g id="ytick_5"><path clip-path="url(#p37be79fbc9)" d="M37.556 143.815h357.12" fill="none" stroke="#969696" stroke-linecap="square" stroke-width=".3" id="line2d_16"/><use x="37.556" xlink:href="#mf75753935d" y="143.815" fill="#969696" stroke="#969696" stroke-width=".3" id="line2d_17"/><g transform="matrix(.14 0 0 -.14 14.985 148.84)" fill="#969696" id="text_11"><use xlink:href="#HelveticaWorld-Regular-56"/><use x="55.615" xlink:href="#HelveticaWorld-Regular-48"/></g></g><g id="ytick_6"><path clip-path="url(#p37be79fbc9)" d="M37.556 101.361h357.12" fill="none" stroke="#969696" stroke-linecap="square" stroke-width=".3" id="line2d_18"/><use x="37.556" xlink:href="#mf75753935d" y="101.361" fill="#969696" stroke="#969696" stroke-width=".3" id="line2d_19"/><g transform="matrix(.14 0 0 -.14 7.2 106.386)" fill="#969696" id="text_12"><use xlink:href="#HelveticaWorld-Regular-49"/><use x="55.615" xlink:href="#HelveticaWorld-Regular-48"/><use x="111.23" xlink:href="#HelveticaWorld-Regular-48"/></g></g><g id="ytick_7"><path clip-path="url(#p37be79fbc9)" d="M37.556 58.908h357.12" fill="none" stroke="#969696" stroke-linecap="square" stroke-width=".3" id="line2d_20"/><use x="37.556" xlink:href="#mf75753935d" y="58.908" fill="#969696" stroke="#969696" stroke-width=".3" id="line2d_21"/><g transform="matrix(.14 0 0 -.14 7.2 63.933)" fill="#969696" id="text_13"><use xlink:href="#HelveticaWorld-Regular-49"/><use x="55.615" xlink:href="#HelveticaWorld-Regular-50"/><use x="111.23" xlink:href="#HelveticaWorld-Regular-48"/></g></g></g><path clip-path="url(#p37be79fbc9)" d="M37.556 313.496l4.259.061 7.177-.08 2.325-.191 2.407.2 2.406-.132 2.405-.009 2.406.283 2.445-.41 2.405-.014 2.407.287 7.255-.684 2.326.139 2.325.271 2.407.057 2.406-.467 4.811-.069 2.445-.137 2.405.673 2.408-.604 2.403-.174 2.406.379 2.445.137 2.327-.37 2.325.096 2.407.324 2.405-.735 7.256.617 2.406-.377 2.407.513 2.404-.442 2.405.58 2.445-.685 2.366.29 2.365-.085 2.407-.737 2.405 1.011 2.406-.516 2.405.037 2.445-.274 2.406.45 2.407.03 2.404-.243 2.405-.853 2.445.684 2.327-.367 2.325.573 4.813-.822 2.405.502 2.406-.023 2.445-.137 2.405.655 2.407.236 2.404-1.014 2.406.397 2.445-.137 2.326.301 2.325-.575 2.407-.127 2.406-.01 2.405.151 2.406-.698 2.445-.069 2.405.909 4.811.353 2.406-.166 2.445.068 2.327-.897 2.325.076 2.407-.142 2.405.758 2.406-.121 2.405-.906 2.445.684 2.406.222 2.407-.222 2.404-.627 4.85.559 2.366-.205 2.365-.411 2.407.27 2.405.072 2.406.352 2.405-.557 2.445.205 2.406.705 2.407-1.527 2.404.75 2.405-.133 2.445.547 2.327.03 2.325-.303 2.407-.142 2.406-1.365 2.405 1.294 2.406-.951 2.445.205 2.405 1.03 2.407-.55 2.404-.087 2.406.566 4.771-.834 2.325.149 2.407-.872 2.406.256 2.405.38 2.406.236h2.445l2.405.33 2.408-.399 2.403.188 2.406.634 4.772-1.433 2.325-.005 2.407 1.582 2.405-.28 2.406-.498 2.405-.667 2.445-.342 2.406.938 2.407-.733 2.404-.329 2.405.74 2.445-.753 4.73.137 2.408-1.539 2.405-.995 2.406 1.42 2.405-.256 2.445-.684 2.406 1.86 2.407-1.107 2.404.753 2.405.342 2.445.48 2.327-1.732h0" fill="none" stroke="#8c564b" stroke-linecap="square" stroke-width="1.5" id="line2d_22"/><path clip-path="url(#p37be79fbc9)" d="M37.556 313.496l1.855.132 2.404-.212 4.85-.13 2.327.115 2.325-.115 2.407.13 2.406.007 4.81-.343 2.446.206 2.405-.295 2.407.295 4.81-.342h2.445l2.326.381 2.325-.655 2.407.675 4.811-.778 2.406.377 2.445-.343 2.405.461 2.408-.324 2.403-.171 2.406.513 2.445-.753 4.652.137 2.407-.11 2.405-.37 2.406-.125 2.405.948 2.445-1.233 2.406.922 2.407-.785 2.404.148 2.405-.285 2.445.548 2.366-.763 2.365 1.31 2.407-.88 2.405-.215 4.811-.068 2.445.068 2.406-.422 2.407.833 4.81-.685 2.444.616 2.327-.259 2.325-.014 2.407.216 2.406-.422 2.405-.144 2.406-.267 2.445.48 4.812-.48 2.404.055 2.406 1.04 2.445-1.3 2.326.306 2.325.516 2.407-.986 2.406.849 2.405-.496 2.406.359 2.445-.617 2.405.683 2.408.276 2.403-1.054 2.406 1.19 2.445-.958 2.327.92 2.325-.851 2.407.052 2.405-.12 2.406-1.295 2.405.473 2.445-.069 2.406.658L241 311.71l2.404-.771 2.405-.12 2.445.275 2.366-.468 2.365-.08 2.407-1.164 2.405.48 2.406.086 2.405-1.045 2.445.958 2.406.3 2.407-.437 2.404-.625 2.405 1.036 2.445-.616 4.652.274 2.407-.906 2.406-.19 2.405.826 4.85-.141 2.406.212 2.407.404 2.404-.9 2.406.215 2.445.411 2.326-.342 2.325 1.027 2.407-2.16 2.406 2.57 2.405-.73 2.406-2.213 2.445.684 2.405 1.6 2.408-1.463 2.403.897 4.85 1.02 2.328-.322 2.325-1.116 2.407.135 2.405-.066 2.406.42 2.405-.625 2.445-1.096 2.406 2.075 2.407-2.007 4.81.754 2.444.274 4.73-.822 2.408.315 2.405-1 2.406.08 2.405-.696 2.445.616 2.406.434 2.407-.64 2.404.852 2.405-.03 4.772-1.117h0" fill="none" stroke="#9467bd" stroke-linecap="square" stroke-width="1.5" id="line2d_23"/><g transform="matrix(.14 0 0 -.14 398.247 114.24)" fill="#1f77b4" id="text_14"><defs><path d="M15.375 61.813H6.594v9.968h8.781zm0-69.532q0-7.468-3.547-10.375Q8.297-21 2-21q-1.797 0-3.703.297v7.61H.594q3.703 0 4.843 1.109 1.157 1.093 1.157 5.296v58.985h8.781z" id="HelveticaWorld-Regular-106"/><path d="M36.078 37.406q-.187 4.688-3.344 6.735-3.14 2.047-9.047 2.047-4.296 0-7.359-1.907-3.047-1.89-3.047-5.468 0-2.829 1.797-4.172 1.813-1.344 7.828-2.86l8.688-2.187q7.906-2 11.297-5.11 3.406-3.093 3.406-8.656 0-7.719-5.64-12.531-5.641-4.813-15.063-4.813-11 0-16.64 4.563-5.626 4.578-5.735 13.75h8.5q.203-5.422 3.594-8.063 3.39-2.625 10.171-2.625 5.516 0 8.766 2.188 3.25 2.203 3.25 6.11 0 2.78-2.11 4.437-2.093 1.672-8.296 3.078l-10.203 2.5q-6.203 1.562-9.157 4.656-2.953 3.094-2.953 8.031 0 7.72 5.516 12.203 5.531 4.5 14.406 4.5 9.485 0 14.531-4.624 5.047-4.61 5.344-11.782z" id="HelveticaWorld-Regular-115"/><path d="M12.703 26.219q0-8.735 3.953-14.375 3.953-5.64 11.219-5.64 7.531 0 11.438 5.905 3.906 5.907 3.906 14.11 0 8.297-3.907 14.078-3.906 5.797-11.437 5.797-6.969 0-11.078-5.453-4.094-5.438-4.094-14.422zm-8.984 0q0 11.672 6.484 19.625 6.5 7.968 17.672 7.968 11.438 0 17.875-8.062 6.453-8.047 6.453-19.531 0-11.516-6.406-19.625-6.39-8.11-17.922-8.11-11.078 0-17.625 7.86-6.531 7.86-6.531 19.875z" id="HelveticaWorld-Regular-111"/><path d="M49.219 0h-8.844v32.172q0 7.422-2.594 10.578-2.578 3.156-8.578 3.156-5.906 0-9.875-4.5-3.953-4.484-3.953-12.89V0H6.594v52.297h8.297v-7.375h.203q6.203 8.89 15.812 8.89 8.89 0 13.594-4.718 4.719-4.703 4.719-13.5z" id="HelveticaWorld-Regular-110"/></defs><use xlink:href="#HelveticaWorld-Regular-106"/><use x="22.021" xlink:href="#HelveticaWorld-Regular-115"/><use x="72.021" xlink:href="#HelveticaWorld-Regular-111"/><use x="127.93" xlink:href="#HelveticaWorld-Regular-110"/></g><g transform="matrix(.14 0 0 -.14 398.247 246.41)" fill="#ff7f0e" id="text_15"><defs><path d="M49.031 0H37.703l-12.89 19.672L12.203 0H1.125l18.266 26.906L2 52.296h11.188l12.109-18.405L37.5 52.297h10.688l-17.579-25.39z" id="HelveticaWorld-Regular-120"/><path d="M6.594 52.297h8.297v-7.375h.203q5.906 8.89 15.812 8.89 9.813 0 13.922-8.5 3.75 4.594 7.266 6.547 3.515 1.953 8.703 1.953 6.781 0 11.484-4.453Q77 44.922 77 36.187V0h-8.781v33.797q0 6.094-2.297 9.094-2.297 3.015-7.422 3.015-5.172 0-8.75-4.203-3.563-4.203-3.563-9.812V0h-8.78v36.188q0 4.53-2.11 7.124-2.094 2.594-6.094 2.594-6.297 0-10.062-4.687-3.766-4.688-3.766-12.703V0H6.594z" id="HelveticaWorld-Regular-109"/><path d="M15.375 0H6.594v71.781h8.781z" id="HelveticaWorld-Regular-108"/></defs><use xlink:href="#HelveticaWorld-Regular-120"/><use x="50" xlink:href="#HelveticaWorld-Regular-109"/><use x="133.008" xlink:href="#HelveticaWorld-Regular-108"/></g><g transform="matrix(.14 0 0 -.14 398.247 260.41)" fill="#2ca02c" id="text_16"><defs><path d="M39.594 34.719q-1.89 11.187-12.39 11.187-6.5 0-10.454-5.203-3.953-5.203-3.953-14.484 0-10.11 3.656-15.11 3.672-5 10.64-5 4.688 0 8.11 3.438 3.422 3.437 4.39 8.953h8.5q-1.312-9.703-6.859-14.86-5.547-5.156-14.328-5.156-10.297 0-16.89 7.047-6.594 7.063-6.594 19.172 0 13.281 6.594 21.188 6.593 7.922 18.5 7.922 8.687 0 13.843-5.204 5.157-5.203 5.735-13.89z" id="HelveticaWorld-Regular-99"/><path d="M39.406 52.297h9.625L29.11 0h-9.437L.594 52.297h10.203L24.422 9.719h.187z" id="HelveticaWorld-Regular-118"/></defs><use xlink:href="#HelveticaWorld-Regular-99"/><use x="51.27" xlink:href="#HelveticaWorld-Regular-115"/><use x="99.77" xlink:href="#HelveticaWorld-Regular-118"/></g><g transform="matrix(.14 0 0 -.14 398.247 287.854)" fill="#d62728" id="text_17"><defs><path d="M39.016 52.297h9.562L29.891.984q-.5-1.375-.985-2.593-4.25-11.329-7.328-15.547-3.078-4.235-9.953-4.235-3.61 0-5.906.782v8.015q2.484-.89 5.468-.89 3.22 0 4.704 2.03 1.5 2.032 4.421 9.938L.875 52.297h9.922L24.812 9.719H25z" id="HelveticaWorld-Regular-121"/><path d="M38.375 26.703q-.969-1.015-3.828-1.656-2.86-.625-10.672-1.656-5.766-.688-8.469-2.844-2.703-2.14-2.703-5.656 0-4.297 2.281-6.688 2.297-2.39 7.329-2.39 6.296 0 11.171 3.578 4.891 3.593 4.891 8.718zM6.203 36.375q.297 8.844 5.734 13.14 5.454 4.297 15.844 4.297 8.297 0 13.907-3.765 5.624-3.75 5.624-10.844V9.078Q47.313 6 50.094 6q1.125 0 2.89.39V0Q50.594-.984 48-.984q-4.5 0-6.703 1.921-2.188 1.938-2.281 6.047-7.516-8.5-18.891-8.5-7.422 0-11.922 4.204Q3.72 6.89 3.72 13.624q0 6.89 3.906 11.125Q11.531 29 19 29.89l15.516 1.891q4.203.64 4.203 6.203 0 4.11-3.047 6.297-3.047 2.203-9.25 2.203-5.516 0-8.485-2.437-2.953-2.438-3.53-7.672z" id="HelveticaWorld-Regular-97"/></defs><use xlink:href="#HelveticaWorld-Regular-121"/><use x="46.734" xlink:href="#HelveticaWorld-Regular-97"/><use x="101.666" xlink:href="#HelveticaWorld-Regular-109"/><use x="184.674" xlink:href="#HelveticaWorld-Regular-108"/></g><g transform="matrix(.14 0 0 -.14 398.247 301.974)" fill="#9467bd" id="text_18"><defs><path d="M14.984 23.688q0-8.407 4.094-13 4.11-4.579 10.219-4.579 6.687 0 10.39 5.438 3.72 5.453 3.72 14.765 0 10.22-3.563 14.907-3.563 4.687-10.735 4.687-6.984 0-10.562-5.5-3.563-5.5-3.563-16.718zm-8.39 28.609h8.297v-7.375h.203q5.61 8.89 15.625 8.89 10.11 0 15.937-7.359 5.828-7.344 5.828-18.766 0-12.796-5.953-21Q40.578-1.515 29.5-1.515q-9.094 0-13.922 7.032h-.203v-26.22H6.594z" id="HelveticaWorld-Regular-112"/><path d="M15.375 0H6.594v52.297h8.297v-8.688h.203q5.703 10.203 14.687 10.203 1.422 0 2.297-.296V44.39h-3.266q-5.906 0-9.671-4.016-3.766-4-3.766-9.953z" id="HelveticaWorld-Regular-114"/><path d="M17.188 45.016V10.984q0-2 1.093-3.046 1.11-1.047 3.938-1.047h3.375V0Q20.797-.688 19-.688q-5.516 0-8.063 2.641-2.53 2.64-2.53 8.547v34.516H1.311v7.28h7.094v14.595h8.781V52.297h8.407v-7.281z" id="HelveticaWorld-Regular-116"/><path d="M28.906 23.188H4.391v8.984h24.515z" id="HelveticaWorld-Regular-45"/><path d="M43.406 26.313q0 10.5-3.718 15.046-3.704 4.547-10.579 4.547-6.984-.11-10.562-5.453Q14.984 35.11 14.984 25q0-10.297 4.297-14.594Q23.578 6.11 29.297 6.11q6.5 0 10.297 5.344 3.812 5.344 3.812 14.86zM6.594 0v71.781h8.781V45.703h.203q5.61 8.11 15.14 8.11 9.766 0 15.766-7.25t6-18.876q0-13.093-6.062-21.156Q40.375-1.516 29.5-1.516q-9.578 0-14.406 8.016h-.203V0z" id="HelveticaWorld-Regular-98"/><path d="M6.11 52.297h8.78V17.578q0-5.765 2.61-8.625Q20.125 6.11 25 6.11q6.781 0 10.594 4.797 3.812 4.813 3.812 12.578v28.813h8.782V0H39.89v7.625l-.188.188q-4.984-9.329-16.61-9.329-7.515 0-12.25 4.094Q6.11 6.688 6.11 14.703z" id="HelveticaWorld-Regular-117"/><path d="M17.188 45.016V0H8.405v45.016H1.22v7.28h7.187v8.985q0 5.907 3.578 8.703 3.594 2.813 10.032 2.813 2.203 0 3.968-.188v-7.906q-1.562.188-3.578.188-2.922 0-4.078-1.438-1.14-1.437-1.14-4.656v-6.5h8.796v-7.281z" id="HelveticaWorld-Regular-102"/><path d="M42.484 30.328q-.687 8.485-4.5 12.031-3.797 3.547-10.109 3.547-6.39 0-10.328-4.5-3.922-4.484-4.172-11.078zm8.391-13.922q-1.453-8.11-7.953-13.422-5.719-4.5-15.047-4.593-10.984.093-17.438 7.203Q4 12.704 4 24.704q0 13.78 6.64 21.437 6.641 7.672 18.47 7.672 10.593 0 16.546-7.922 5.953-7.907 5.953-22.594H13.375q0-8.203 3.813-12.703Q21 6.109 28.608 6.109q5.375 0 9.235 3.235 3.86 3.25 4.25 7.062z" id="HelveticaWorld-Regular-101"/></defs><use xlink:href="#HelveticaWorld-Regular-112"/><use x="56.494" xlink:href="#HelveticaWorld-Regular-114"/><use x="88.063" xlink:href="#HelveticaWorld-Regular-111"/><use x="143.971" xlink:href="#HelveticaWorld-Regular-116"/><use x="171.656" xlink:href="#HelveticaWorld-Regular-111"/><use x="227.564" xlink:href="#HelveticaWorld-Regular-99"/><use x="278.834" xlink:href="#HelveticaWorld-Regular-111"/><use x="334.742" xlink:href="#HelveticaWorld-Regular-108"/><use x="356.764" xlink:href="#HelveticaWorld-Regular-45"/><use x="390.064" xlink:href="#HelveticaWorld-Regular-98"/><use x="446.559" xlink:href="#HelveticaWorld-Regular-117"/><use x="501.344" xlink:href="#HelveticaWorld-Regular-102"/><use x="529.029" xlink:href="#HelveticaWorld-Regular-102"/><use x="554.715" xlink:href="#HelveticaWorld-Regular-101"/><use x="610.135" xlink:href="#HelveticaWorld-Regular-114"/><use x="642.703" xlink:href="#HelveticaWorld-Regular-115"/></g><g transform="matrix(.14 0 0 -.14 398.247 315.903)" fill="#8c564b" id="text_19"><defs><path d="M6.594 61.813v9.968h8.781v-9.969zM15.375 0H6.594v52.297h8.781z" id="HelveticaWorld-Regular-105"/><path d="M50 0H38.719L22.406 26.422l-7.312-6.594V0h-8.5v71.781h8.5v-41.61l22.5 22.126H48.78L28.813 32.813z" id="HelveticaWorld-Regular-107"/></defs><use xlink:href="#HelveticaWorld-Regular-112"/><use x="56.494" xlink:href="#HelveticaWorld-Regular-105"/><use x="78.516" xlink:href="#HelveticaWorld-Regular-99"/><use x="129.785" xlink:href="#HelveticaWorld-Regular-107"/><use x="179.785" xlink:href="#HelveticaWorld-Regular-108"/><use x="201.807" xlink:href="#HelveticaWorld-Regular-101"/></g><g transform="matrix(.14 0 0 -.14 398.247 329.903)" fill="#e377c2" id="text_20"><use xlink:href="#HelveticaWorld-Regular-97"/><use x="52.682" xlink:href="#HelveticaWorld-Regular-118"/><use x="102.291" xlink:href="#HelveticaWorld-Regular-114"/><use x="133.859" xlink:href="#HelveticaWorld-Regular-111"/></g><g transform="matrix(.09716 0 0 -.09716 37.556 347.399)" fill="#969696" id="text_21"><defs><path d="M50.39 50.781q-.296 6.844-5.109 10.719-4.797 3.875-12.656 3.875-7.922 0-12.172-3.25-4.234-3.234-4.234-9.344 0-3.265 1.843-5.61 1.86-2.343 6.641-3.468l20.516-4.687q8.297-1.813 12.297-6.875 4.015-5.047 4.015-12.313 0-10.64-7.812-16.187-7.813-5.547-20.313-5.547-9.531 0-15.031 2.437-5.484 2.453-9.734 7.766-4.25 5.328-4.25 14.89h9.093q0-8 5.313-12.406 5.328-4.39 14.5-4.39 8.89 0 13.844 3.156 4.953 3.156 4.953 8.953 0 5.281-2.953 7.89Q46.188 29 37.594 31l-15.469 3.625q-7.719 1.75-11.531 6.125Q6.78 45.125 6.78 51.516q0 9.672 6.516 15.922 6.531 6.25 18.203 6.25 13.172 0 20.328-5.5 7.156-5.485 7.688-17.407z" id="HelveticaWorld-Regular-83"/><path d="M63.922 35.89q0 12.594-6.672 20.891-6.656 8.313-18.328 8.313-11.531 0-18.266-8.313-6.734-8.297-6.734-20.89 0-12.985 6.828-21.094 6.844-8.11 18.172-8.11 11.078 0 18.031 7.907 6.969 7.922 6.969 21.297zm9.953 0q0-16.062-9.281-26.937-9.266-10.86-25.672-10.86-16.516 0-25.766 10.86-9.25 10.875-9.25 26.938 0 16.109 9.25 26.953 9.25 10.843 25.766 10.843 16.89 0 25.922-11.046 9.031-11.032 9.031-26.75z" id="HelveticaWorld-Regular-79"/><path d="M25.594 0h-8.985L1.516 52.297h9.468L21 11.187h.188l10.109 41.11h9.922l10.203-41.11h.187l10.594 41.11h8.703L55.812 0h-9.234L35.984 40.484h-.187z" id="HelveticaWorld-Regular-119"/><path d="M44 29.5L33.406 61.078h-.203L21.687 29.5zm-25.297-8.594L11.188 0h-9.97l27 71.781h10.985L65.187 0H54.594l-7.078 20.906z" id="HelveticaWorld-Regular-65"/><path d="M17.828 38.625H37.11q7.282 0 10.938 3.188 3.656 3.203 3.656 9.703 0 5.812-3.516 8.89-3.515 3.078-10.687 3.078H17.828zm0-38.625H8.11v71.781h32.266q9.625 0 15.484-5.594 5.86-5.593 5.86-14.578 0-9.328-5.672-15.312-5.656-5.969-15.672-5.969H17.828z" id="HelveticaWorld-Regular-80"/><path d="M17.828 0H8.11v71.781h9.72z" id="HelveticaWorld-Regular-73"/><path d="M12.984 26.313q0-9.61 3.813-14.907Q20.609 6.11 27.094 6.11q6.312 0 10.312 4.579 4 4.593 4 13 0 11.03-3.5 16.625-3.484 5.593-10.61 5.593-7.171 0-10.75-4.765-3.562-4.766-3.562-14.828zM49.812 2.983q0-12.609-6.062-18.797-6.047-6.203-18.266-6.203-8.78 0-13.984 4.047Q6.297-13.922 5.516-6.39h8.796q.672-3.812 3.532-6.062 2.86-2.25 8.281-2.25 7.375 0 11.125 3.969 3.766 3.953 3.766 12.828v3.719h-.188q-4.937-7.329-13.922-7.329-11.187 0-17.093 8.25-5.907 8.25-5.907 20.953 0 11.625 5.953 18.875 5.97 7.25 15.829 7.25 9.906 0 15.625-8.89h.187v7.375h8.313z" id="HelveticaWorld-Regular-103"/><path d="M9.422 73.688h7.281V-1.906H9.422z" id="HelveticaWorld-Regular-124"/><path d="M55.61 71.781h9.374V0h-10.78L17.577 58.016h-.187V0H8.109v71.781h11.375l35.938-57.969h.187z" id="HelveticaWorld-Regular-78"/><path d="M49.219 0h-8.844v34.188q0 6.296-2.438 9-2.437 2.718-7.953 2.718-6.797 0-10.703-4.406-3.906-4.39-3.906-12.984V0H6.594v71.781h8.781V45.312h.203q6 8.5 15.328 8.5 8.594 0 13.453-4.5 4.86-4.484 4.86-13.718z" id="HelveticaWorld-Regular-104"/><path d="M12.703 26.219q0-8.735 3.953-14.375 3.953-5.64 11.219-5.64 7.531 0 11.438 5.905 3.906 5.907 3.906 14.11 0 8.297-3.907 14.078-3.906 5.797-11.437 5.797-6.969 0-11.078-5.453-4.094-5.438-4.094-14.422zm-8.984 0q0 11.672 6.484 19.625 6.5 7.968 17.672 7.968 11.438 0 17.875-8.062 6.453-8.047 6.453-19.531 0-11.516-6.406-19.625-6.39-8.11-17.922-8.11-11.078 0-17.625 7.86-6.531 7.86-6.531 19.875zm36.734 35.406H31.47v10.156h8.984zm-16.219 0H15.25v10.156h8.984z" id="HelveticaWorld-Regular-246"/><path d="M58.016 50.203q-1.625 7.313-6.782 11.094-5.14 3.797-13.343 3.797-10.594 0-17.047-7.703-6.438-7.688-6.438-20.766 0-15.14 6.094-22.547 6.11-7.39 17.688-7.39 7.609 0 13.093 5.046 5.5 5.063 7.407 14.688h9.421Q66.22 12.594 57.625 5.344t-20.906-7.25q-14.703 0-23.516 10.11Q4.391 18.311 4.391 36.28q0 17.328 9.203 27.36 9.203 10.047 24.297 10.047 12.5 0 20.265-6.454 7.766-6.437 9.235-17.03z" id="HelveticaWorld-Regular-67"/><path d="M8.11 71.781h31.484q9.281 0 14.797-5.031 5.515-5.031 5.515-13.031 0-4.844-2.422-8.828-2.406-3.97-7.187-6.172 6.687-2.532 9.828-6.735 3.156-4.203 3.156-10.797 0-9.265-6.687-15.234Q49.906 0 38.922 0H8.109zm9.562-63.484h20.703q7.625 0 11.422 3.531 3.812 3.547 3.812 9.563 0 6.093-4.25 9.093Q45.125 33.5 36.812 33.5h-19.14zm0 33.11h17.625q7.719 0 11.312 2.796 3.594 2.813 3.594 8.781 0 5.125-3.406 7.813-3.39 2.687-11.39 2.687H17.671z" id="HelveticaWorld-Regular-66"/><path d="M37.313 0h-9.72v28.906L.485 71.781h11.329l20.609-34.469 20.562 34.47h11.422L37.312 28.905z" id="HelveticaWorld-Regular-89"/></defs><use xlink:href="#HelveticaWorld-Regular-83"/><use x="66.211" xlink:href="#HelveticaWorld-Regular-116"/><use x="93.896" xlink:href="#HelveticaWorld-Regular-97"/><use x="148.828" xlink:href="#HelveticaWorld-Regular-99"/><use x="200.098" xlink:href="#HelveticaWorld-Regular-107"/><use x="250.098" xlink:href="#HelveticaWorld-Regular-79"/><use x="327.881" xlink:href="#HelveticaWorld-Regular-118"/><use x="375.49" xlink:href="#HelveticaWorld-Regular-101"/><use x="430.91" xlink:href="#HelveticaWorld-Regular-114"/><use x="464.979" xlink:href="#HelveticaWorld-Regular-102"/><use x="492.664" xlink:href="#HelveticaWorld-Regular-108"/><use x="514.686" xlink:href="#HelveticaWorld-Regular-111"/><use x="569.094" xlink:href="#HelveticaWorld-Regular-119"/><use x="641.506" xlink:href="#HelveticaWorld-Regular-32"/><use x="665.92" xlink:href="#HelveticaWorld-Regular-65"/><use x="732.619" xlink:href="#HelveticaWorld-Regular-80"/><use x="797.268" xlink:href="#HelveticaWorld-Regular-73"/><use x="823.049" xlink:href="#HelveticaWorld-Regular-32"/><use x="847.463" xlink:href="#HelveticaWorld-Regular-118"/><use x="897.072" xlink:href="#HelveticaWorld-Regular-105"/><use x="919.094" xlink:href="#HelveticaWorld-Regular-97"/><use x="974.025" xlink:href="#HelveticaWorld-Regular-32"/><use x="998.439" xlink:href="#HelveticaWorld-Regular-115"/><use x="1048.439" xlink:href="#HelveticaWorld-Regular-116"/><use x="1076.125" xlink:href="#HelveticaWorld-Regular-97"/><use x="1131.057" xlink:href="#HelveticaWorld-Regular-99"/><use x="1182.326" xlink:href="#HelveticaWorld-Regular-107"/><use x="1232.326" xlink:href="#HelveticaWorld-Regular-116"/><use x="1260.012" xlink:href="#HelveticaWorld-Regular-97"/><use x="1314.943" xlink:href="#HelveticaWorld-Regular-103"/><use x="1370.852" xlink:href="#HelveticaWorld-Regular-115"/><use x="1420.852" xlink:href="#HelveticaWorld-Regular-32"/><use x="1445.266" xlink:href="#HelveticaWorld-Regular-124"/><use x="1471.242" xlink:href="#HelveticaWorld-Regular-32"/><use x="1495.656" xlink:href="#HelveticaWorld-Regular-78"/><use x="1568.752" xlink:href="#HelveticaWorld-Regular-105"/><use x="1590.773" xlink:href="#HelveticaWorld-Regular-99"/><use x="1642.043" xlink:href="#HelveticaWorld-Regular-111"/><use x="1697.951" xlink:href="#HelveticaWorld-Regular-32"/><use x="1722.365" xlink:href="#HelveticaWorld-Regular-83"/><use x="1788.576" xlink:href="#HelveticaWorld-Regular-99"/><use x="1839.846" xlink:href="#HelveticaWorld-Regular-104"/><use x="1895.021" xlink:href="#HelveticaWorld-Regular-108"/><use x="1917.043" xlink:href="#HelveticaWorld-Regular-246"/><use x="1972.951" xlink:href="#HelveticaWorld-Regular-109"/><use x="2055.959" xlink:href="#HelveticaWorld-Regular-101"/><use x="2111.379" xlink:href="#HelveticaWorld-Regular-114"/><use x="2143.947" xlink:href="#HelveticaWorld-Regular-32"/><use x="2168.361" xlink:href="#HelveticaWorld-Regular-124"/><use x="2194.338" xlink:href="#HelveticaWorld-Regular-32"/><use x="2218.752" xlink:href="#HelveticaWorld-Regular-67"/><use x="2291.066" xlink:href="#HelveticaWorld-Regular-67"/><use x="2363.381" xlink:href="#HelveticaWorld-Regular-32"/><use x="2387.795" xlink:href="#HelveticaWorld-Regular-66"/><use x="2450.607" xlink:href="#HelveticaWorld-Regular-89"/></g><g transform="matrix(.14 0 0 -.14 80.05 17.516)" fill="#969696" id="text_22"><defs><path d="M17.828 8.297h18.797q9.766 0 15.281 7.5 5.516 7.5 5.516 20.484 0 12.844-5.563 19.969-5.562 7.125-16.062 7.234H17.828zM8.11 71.78h29.094q14.11 0 22.094-9.703 7.984-9.687 7.984-25.156 0-16.61-7.984-26.766Q51.313 0 36.813 0H8.108z" id="HelveticaWorld-Regular-68"/><path d="M41.5 23.688q0 11.125-3.5 16.671-3.484 5.547-10.61 5.547-6.874 0-10.593-4.5-3.703-4.484-3.703-15.093 0-9.422 3.75-14.813 3.765-5.39 10.36-5.39 5.812 0 10.046 4.39 4.25 4.39 4.25 13.188zm8.406-44.391H41.11V5.516h-.187Q35.89-1.516 27-1.516q-10.984 0-17 8.157-6 8.156-6 21.047 0 11.421 5.906 18.765 5.922 7.36 15.875 7.36 9.907 0 15.625-8.891h.203v7.375h8.297z" id="HelveticaWorld-Regular-113"/></defs><use xlink:href="#HelveticaWorld-Regular-68"/><use x="72.021" xlink:href="#HelveticaWorld-Regular-97"/><use x="126.953" xlink:href="#HelveticaWorld-Regular-105"/><use x="148.975" xlink:href="#HelveticaWorld-Regular-108"/><use x="170.996" xlink:href="#HelveticaWorld-Regular-121"/><use x="220.605" xlink:href="#HelveticaWorld-Regular-32"/><use x="245.02" xlink:href="#HelveticaWorld-Regular-110"/><use x="300.195" xlink:href="#HelveticaWorld-Regular-117"/><use x="354.98" xlink:href="#HelveticaWorld-Regular-109"/><use x="437.988" xlink:href="#HelveticaWorld-Regular-98"/><use x="494.482" xlink:href="#HelveticaWorld-Regular-101"/><use x="549.902" xlink:href="#HelveticaWorld-Regular-114"/><use x="582.471" xlink:href="#HelveticaWorld-Regular-32"/><use x="606.885" xlink:href="#HelveticaWorld-Regular-111"/><use x="662.793" xlink:href="#HelveticaWorld-Regular-102"/><use x="690.479" xlink:href="#HelveticaWorld-Regular-32"/><use x="714.893" xlink:href="#HelveticaWorld-Regular-113"/><use x="771.387" xlink:href="#HelveticaWorld-Regular-117"/><use x="826.172" xlink:href="#HelveticaWorld-Regular-101"/><use x="881.592" xlink:href="#HelveticaWorld-Regular-115"/><use x="931.592" xlink:href="#HelveticaWorld-Regular-116"/><use x="959.277" xlink:href="#HelveticaWorld-Regular-105"/><use x="981.299" xlink:href="#HelveticaWorld-Regular-111"/><use x="1037.207" xlink:href="#HelveticaWorld-Regular-110"/><use x="1092.383" xlink:href="#HelveticaWorld-Regular-115"/><use x="1142.383" xlink:href="#HelveticaWorld-Regular-32"/><use x="1166.797" xlink:href="#HelveticaWorld-Regular-111"/><use x="1222.705" xlink:href="#HelveticaWorld-Regular-110"/><use x="1277.881" xlink:href="#HelveticaWorld-Regular-32"/><use x="1302.295" xlink:href="#HelveticaWorld-Regular-83"/><use x="1368.506" xlink:href="#HelveticaWorld-Regular-116"/><use x="1396.191" xlink:href="#HelveticaWorld-Regular-97"/><use x="1451.123" xlink:href="#HelveticaWorld-Regular-99"/><use x="1502.393" xlink:href="#HelveticaWorld-Regular-107"/><use x="1552.393" xlink:href="#HelveticaWorld-Regular-79"/><use x="1630.176" xlink:href="#HelveticaWorld-Regular-118"/><use x="1677.785" xlink:href="#HelveticaWorld-Regular-101"/><use x="1733.205" xlink:href="#HelveticaWorld-Regular-114"/><use x="1767.273" xlink:href="#HelveticaWorld-Regular-102"/><use x="1794.959" xlink:href="#HelveticaWorld-Regular-108"/><use x="1816.98" xlink:href="#HelveticaWorld-Regular-111"/><use x="1871.389" xlink:href="#HelveticaWorld-Regular-119"/></g><path clip-path="url(#p37be79fbc9)" d="M37.556 313.496l1.855-.347 2.404.338 7.177-.39 2.325.394 4.813-.342 4.81.274 2.446-.343 2.405.194 2.407-.262 7.255.068 2.326-.816 2.325.2 2.407.457 2.406-.32 2.405.107 2.406-.45 2.445.07 2.405.31 2.408-1.27 2.403.067 2.406 1.235 2.445-.069 2.327-1.93 2.325 1.177 2.407.153 2.405-.564 2.406-.073 2.405.279 2.445-.411 2.406.627 2.407.4 2.404-.612 2.405-.073 2.445-.959 2.366.671 2.365-.397 2.407.687 2.405-.687 2.406.192 2.405-.397 2.445.342 2.406.055 2.407.22 2.404-.857 2.405.514 2.445-.274 2.327-.619 2.325 1.714 2.407-.415 4.811.637 2.406-1.043 2.445-.548 2.405.459 2.407.637 2.404-.283 2.406.42 2.445-1.37 2.326.702 2.325.051 2.407-1.219 2.406.124 2.405.372 2.406-.92 2.445 1.027 2.405-.532 2.408.121 2.403.516 2.406.306 2.445-1.164 2.327.711 2.325-1.396 2.407.977 2.405-1.045 2.406-1.29 2.405 1.974h2.445l4.813-1.027 2.404.114 4.85-.388 2.366.584 2.365-.584 2.407-.814 2.405 1.02 2.406-.525 2.405.045 2.445-.479 2.406.788 2.407 1.54 2.404-.691 2.405.623 2.445-.753 2.327-1.326 2.325.846 2.407 2.096 4.811-2.052 2.406.572 2.445-1.917 2.405 2.194 2.407-2.536 2.404.838 7.177-1.33 2.325.218 2.407-.091 2.406-.388 2.405-.815 2.406-.35 2.445 1.576 2.405 1.958 2.408-2.438 2.403.598 2.406-.118 2.445-1.986 2.327 1.306 2.325-.074 2.407 1.509 2.405-.824 2.406-.591 2.405-.915 2.445-2.808 2.406.114 2.407-1.14 2.404.291 2.405 2.31 2.445-.753 2.366-1.976 2.365.401 2.407-3.378 2.405-.936 2.406.44 2.405-.508 2.445.821 2.406 1.103 2.407-2.13 2.404 3.97 2.405-.067 2.445-1.232 2.327-2.876h0" fill="none" stroke="#d62728" stroke-linecap="square" stroke-width="1.5" id="line2d_24"/><path clip-path="url(#p37be79fbc9)" d="M37.556 311.506l1.855.273 2.404.646 2.405-.098 2.445-.342 2.327.127 2.325-.059 2.407-.972 2.406.356 2.405-.427 2.406-.668 2.445.273 2.405-.17 2.407-.309 2.404-1.32 2.406 1.526 2.445-.069 2.326-1.497 2.325-.763 2.407 1.37 2.406-1.575 2.405-1.043 2.406-1.901 2.445 2.602 2.405.502 2.408-.434 2.403-1.194 2.406.989 2.445-4.314 2.327.91 2.325-1.526 2.407.97 2.405-1.313 2.406 1.1 2.405-2.058 2.445.205 2.406 1.995 2.407-2.337 2.404-.21 2.405.073 2.445-1.301 2.366-.387 2.365-.64 2.407-.222 2.405-3.75 2.406 2.618 2.405-4.603 2.445-.685 2.406 3.732 2.407-2.705 2.404.016 2.405.942 2.445-3.286 2.327-3.913 2.325-.88 2.407-1.99 2.406 3.154 2.405-7.825 2.406 1.114 2.445-.068 2.405-1.682 2.407-11.465 2.404.71 2.406 11.067 2.445-11.503 2.326-6.71 2.325-1.233 2.407 3.143 2.406 8.497 2.405-4.393 2.406-3.276 2.445 8.286 2.405.013 2.408.466 2.403-2.588 2.406 4.3 2.445-1.507 2.327-8.904 2.325.277 2.407-6.902 2.405 8.271 2.406-10.89 2.405-1.23 2.445 9.381 2.406-1.216 2.407-2.002 2.404-.12 2.405.942 2.445.068 2.366-7.874 2.365-2.054 2.407-.493 2.405 4.464 2.406-1.776 2.405 7.802 2.445-1.027 2.406-1.468 2.407 1.262 2.404-.979 2.405 2.76 2.445-1.438 2.327-8.57 2.325-6.358 2.407 8.37 2.406-5.014 2.405-2.557 2.406 4.61 2.445 7.122 2.405-1.967 2.407-6.592 2.404-3.739 2.406 17.776 2.445-2.602 2.326-4.12 2.325 9.872 2.407 1.22 2.406.765 2.405 1.712 2.406 3.013 2.445-1.712 2.405 8.393 2.408-9.42 2.403-.062 2.406 12.113 2.445-7.874 2.327-6.346 2.325-3.035 2.407 5.142 2.405.062 2.406 2.486 2.405-4.06 2.445 5.066 2.406-4.332 2.407-8.404 2.404.267 2.405 8.36 2.445-2.875 2.366-9.445 2.365 3.008 2.407-11.925 2.405-1.495 2.406 1.778 2.405 1.577 2.445 9.175 2.406.922 2.407-3.524 2.404-1.64 2.405 14.513 2.445-3.218 2.327-10.457h0" fill="none" stroke="#2ca02c" stroke-linecap="square" stroke-width="1.5" id="line2d_25"/><path clip-path="url(#p37be79fbc9)" d="M37.556 288.422l1.855 8.293 2.404 1.418 2.405 2.896 2.445-3.492 2.327-4.15 2.325-2.081 4.813-2.876 2.405-10.18 2.406.046 2.445-.41 2.405-1.404 2.407-.72 2.404-.979 2.406-1.485 2.445-2.602 2.326-7.633 2.325-.379 2.407 4.67 2.406-3.3 2.405-8.658 2.406 1.4 2.445-1.986 2.405 1.718 2.408-1.307 2.403-14.613 2.406 9.272 2.445-12.53 2.327-4.686 2.325-9.626 4.812-6.162 2.406-9.169 2.405 9.1 2.445-4.588 2.406 10.276 2.407-1.58 2.404-1.816 2.405 4.83 2.445-9.176 2.366-18.823 2.365 5.334 2.407-1.057 2.405-9.967 2.406 11.311 2.405-10.353 2.445 4.45 2.406 6.116 2.407-6.252 2.404.45 2.405 19.339 2.445-19.994 2.327-11.313 2.325 5.698 2.407-18 2.406 13.686 2.405 5.63 2.406-9.26 2.445 5.273 2.405-20.565 2.407-4.017 2.404-4.968 2.406 16.677 2.445-26.773 2.326-11.445 2.325 10.418 2.407 3.552 2.406 12.813 2.405 7.069 2.406-2.755 2.445 13.215 2.405-2.96 2.408 2.755 2.403-1.552 2.406 12.576 2.445-1.917 2.327-16.522 2.325-2.514 2.407-3.156 2.405 9.456 2.406-16.107 2.405 2.686 2.445 16.16 2.406 6.343 2.407-1.618 2.404-1 2.405 12.298 4.811-19.735 2.365-7.38 2.407 10.005 2.405 5.195 2.406-4.062 2.405 11.8 2.445-.411 2.406 9.413 2.407 4.145 2.404-3.155 2.405 8.564 2.445-7.258 2.327-16.326 2.325 3.795 2.407 12.64 2.406-4.286 2.405.183 2.406 10.362 2.445-3.013 2.405 15.222 2.407-3.787 2.404-6.26 2.406 25.159 2.445-7.806 2.326-8.701 2.325 9.865 2.407 4.478 2.406-.918 2.405 9.126 2.406-5.223 2.445 4.588 2.405 6.083 2.408-6.494 2.403 4.654 2.406 17.258 2.445-11.298 2.327-4.676 2.325-1.076 2.407 3.684 2.405.903 2.406 5.748 2.405-5.337 4.85-4.357 2.408-6.53 2.404 3.841 2.405 9.169 2.445-10.682 2.366-2.798 2.365 1.84 2.407-17.906 2.405 4.896 2.406 2.25 2.405 1.858 2.445 10.75 2.406-.792 2.407 1.135 2.404.28 2.405 9.922 2.445-4.861 2.327-4.287h0" fill="none" stroke="#ff7f0e" stroke-linecap="square" stroke-width="1.5" id="line2d_26"/><path clip-path="url(#p37be79fbc9)" d="M37.556 310.444l1.855-.513 2.404 1.22 2.405-.125 2.445-2.054 2.327.26 2.325-.26 2.407-2.066 2.406-.81 2.405-1.737 2.406-.454 2.445-.822 2.405-2.05 2.407 1.16 2.404-1.3 2.406-1.096 2.445-2.055 4.651-4.313 2.407-1.593 2.406.976 2.405-1.33 2.406-3.942 2.445-.616 2.405-1.386 2.408-4.092 2.403-3.832 2.406 1.024 2.445-7.669 2.327-9.574 2.325 1.22 2.407-4.671 2.405-6.763 2.406-3.922 2.405.361 2.445-5.204 2.406 2.509 2.407 6.667 2.404-10.488 2.405 1.244 2.445-1.85 2.366-23.488 2.365-3.079 2.407 1.205 2.405-4.355 2.406-3.57 2.405-2.729 2.445 7.19 2.406.634 2.407-14.671 2.404-2.381 2.405 13.405 2.445-23.281 2.327-14.727 2.325-12.32 2.407 3.668 2.406 5.644 2.405-1.47 2.406-10.58 2.445-5.89 2.405.267 2.407-16.632 2.404 2.41 2.406 10.12 2.445-28.826 2.326-30.236 2.325 1.34 2.407 3.522 2.406 37.151 2.405-10.83 2.406-12.588 2.445 19.241 2.405-1.771 2.408 3.415 2.403-3.486 2.406 22.316 2.445-21.775 2.327-17.28 2.325-15.93 2.407-4.973 2.405.797 2.406-7.73 2.405-16.304 2.445 26.773 2.406 6.582L241 85.27l2.404-4.994 2.405 17.799 2.445-14.928 2.366-34.706 2.365 8.755 2.407-9.68 2.405 23.991 2.406-9.91 2.405 11.006 2.445-8.354 2.406 22.607 2.407 9.78 2.404-21.454 2.405 30.15 2.445-27.389 2.327-20.324 2.325-10.01 2.407 23.327 2.406-8.81 2.405 2.655 2.406 4.672 2.445 12.941 2.405 14.722 2.407-.89 2.404-14.323 2.406 34.728 2.445-19.447 2.326 9.939 2.325 15.602 2.407-1.34 2.406-5.507 2.405 21.427 2.406-2.46 2.445-.548 2.405 18.645 2.408-21.452 2.403 11.334 2.406 23.998 2.445-6.3 2.327-22.469 2.325-7.248 4.812 18.488 2.406 5.277 2.405-15.343 2.445 10.34 2.406-.8 2.407-16.456 2.404-9.37 2.405 29.707 2.445-9.587 2.366-29.55 2.365-4.892 2.407-40.16 2.405 7.293 2.406 12.095 2.405-.591 2.445 19.24 2.406 7.884 2.407 12.659 2.404 1.705 2.405 18.426 2.445-28.896 2.327-7.588h0" fill="none" stroke="#1f77b4" stroke-linecap="square" stroke-width="1.5" id="line2d_27"/></g></g><defs><clipPath id="p37be79fbc9"><path d="M37.556 47.516h357.12v266.112H37.556z"/></clipPath></defs></svg>