<svg height="520.302" viewBox="0 0 473.327 390.226" width="631.103" xmlns="http://www.w3.org/2000/svg" xmlns:xlink="http://www.w3.org/1999/xlink"><defs><style>*{stroke-linecap:butt;stroke-linejoin:round}</style></defs><g id="figure_1"><path d="M0 390.226h473.327V0H0z" fill="none" id="patch_1"/><g id="axes_1"><path d="M45.341 313.628h357.12V47.516H45.341z" fill="none" id="patch_2"/><path clip-path="url(#p04b3c91530)" d="M95.434 313.628h36.28l45.885-.087 2.421-.06 4.843.063 12.146-.007 2.461-.19 4.682.078 4.844-.112 2.422-.047 4.882-.549 2.421.238 2.423-.574 2.42.11 2.421-.047 2.461-.449 2.342.306 2.34.108 4.845-.54 2.42.05 4.883.399 4.844.378 2.42-.067 2.421.088 2.461-.154 2.382-.036 2.38-.188 2.423.152 2.42-.173 2.422-.312 2.422.396 2.46-.449 2.422.451 2.423-.143 2.42.035 7.224-.25 9.605.308 2.422-.33 2.46.153 2.422.43 4.842-.232 2.422-.471 2.46.315 4.683-.413 2.423.352 2.421-.233 2.421.146 2.422-.076 2.46.091 2.422-.138 2.423.09 2.42-.134 2.42.007 2.462-.568 2.342.415 2.34.055 2.423-.423 2.421.086 7.304-.686 4.844.203 4.84-.077 2.462.266 2.381-.67 2.38.236 2.423-.705 2.422-.368 2.42.498 2.422-.246 2.461.092 2.421-.113 4.843.564 4.882-.69h0" fill="none" stroke="#c49c94" stroke-linecap="square" stroke-width="1.5" id="line2d_1"/><g id="matplotlib.axis_1"><g id="xtick_1"><g id="line2d_2"><defs><path d="M0 0v3.5" id="m9838fefe2a" stroke="#969696" stroke-width=".4"/></defs><use x="82.256" xlink:href="#m9838fefe2a" y="313.628" fill="#969696" stroke="#969696" stroke-width=".4"/></g><g transform="matrix(.14 0 0 -.14 66.685 330.678)" fill="#969696" id="text_1"><defs><path d="M4.39 45.125q0 12.39 6.391 18.781 6.406 6.407 17.938 6.407 9.656 0 15.812-5.86 6.157-5.86 6.157-15.14 0-7.22-3.547-12.188-3.532-4.953-10.422-8.703l-12.11-6.64Q13.922 15.921 12.5 8.296h38.188V0H2.593q.39 9.906 4.297 16.5 3.906 6.594 12.203 11.375l12.593 7.328q5.032 2.89 7.329 5.984 2.297 3.094 2.297 8.516 0 5.375-3.766 9.031-3.75 3.672-10.156 3.672-7.078 0-10.594-4.672-3.516-4.656-3.61-12.609z" id="HelveticaWorld-Regular-50"/><path d="M42.484 34.188q0 14.109-3.734 21.156-3.734 7.062-10.969 7.062-7.078 0-10.89-7.062-3.797-7.047-3.797-21.157 0-13.671 3.75-20.937Q20.609 6 27.78 6q7.235 0 10.969 7 3.734 7.016 3.734 21.188zm9.422 0q0-17.297-6.25-26.704-6.25-9.39-17.875-9.39-12.062 0-18.062 9.734-6 9.75-6 26.36 0 17.03 6.14 26.578 6.157 9.547 17.922 9.547 11.625 0 17.875-9.5t6.25-26.626z" id="HelveticaWorld-Regular-48"/><path d="M35.89 0h-9.374v49.906H10.109v6.985q8.594.28 12.782 2.75Q27.094 62.109 29 70.313h6.89z" id="HelveticaWorld-Regular-49"/></defs><use xlink:href="#HelveticaWorld-Regular-50"/><use x="55.615" xlink:href="#HelveticaWorld-Regular-48"/><use x="111.23" xlink:href="#HelveticaWorld-Regular-49"/><use x="166.846" xlink:href="#HelveticaWorld-Regular-48"/></g></g><g id="xtick_2"><use x="140.208" xlink:href="#m9838fefe2a" y="313.628" fill="#969696" stroke="#969696" stroke-width=".4" id="line2d_3"/><g transform="matrix(.14 0 0 -.14 124.637 330.678)" fill="#969696" id="text_2"><use xlink:href="#HelveticaWorld-Regular-50"/><use x="55.615" xlink:href="#HelveticaWorld-Regular-48"/><use x="111.23" xlink:href="#HelveticaWorld-Regular-49"/><use x="166.846" xlink:href="#HelveticaWorld-Regular-50"/></g></g><g id="xtick_3"><use x="198.24" xlink:href="#m9838fefe2a" y="313.628" fill="#969696" stroke="#969696" stroke-width=".4" id="line2d_4"/><g transform="matrix(.14 0 0 -.14 182.669 330.678)" fill="#969696" id="text_3"><defs><path d="M10.594 24.703h22.61v31.89h-.188zM42 17.093V0h-8.797v17.094H2.484v8.593L34.72 70.314H42v-45.61h10.297v-7.61z" id="HelveticaWorld-Regular-52"/></defs><use xlink:href="#HelveticaWorld-Regular-50"/><use x="55.615" xlink:href="#HelveticaWorld-Regular-48"/><use x="111.23" xlink:href="#HelveticaWorld-Regular-49"/><use x="166.846" xlink:href="#HelveticaWorld-Regular-52"/></g></g><g id="xtick_4"><use x="256.192" xlink:href="#m9838fefe2a" y="313.628" fill="#969696" stroke="#969696" stroke-width=".4" id="line2d_5"/><g transform="matrix(.14 0 0 -.14 240.621 330.678)" fill="#969696" id="text_4"><defs><path d="M14.11 21.578q0-6.875 4.093-11.234Q22.313 6 28.906 6q6.297 0 10.032 4.438 3.734 4.453 3.734 11.687 0 6.297-3.688 10.547-3.687 4.25-10.468 4.25-6.594 0-10.5-4.156-3.907-4.157-3.907-11.188zM41.702 51.61q-.984 5.375-3.984 8.078-3 2.72-8.125 2.72-8.11 0-12.36-7.923-4.25-7.906-4.343-18.109l.203-.188q5.61 8.641 16.687 8.641 8.844 0 15.438-5.86 6.593-5.859 6.593-16.452 0-10.5-6.25-17.47-6.25-6.952-16.843-6.952-12.219 0-18.563 8.687-6.344 8.703-6.344 25.938 0 16.593 6.485 27.093 6.5 10.5 19.484 10.5 8.407 0 14.219-5.015 5.813-5 6.297-13.688z" id="HelveticaWorld-Regular-54"/></defs><use xlink:href="#HelveticaWorld-Regular-50"/><use x="55.615" xlink:href="#HelveticaWorld-Regular-48"/><use x="111.23" xlink:href="#HelveticaWorld-Regular-49"/><use x="166.846" xlink:href="#HelveticaWorld-Regular-54"/></g></g><g id="xtick_5"><use x="314.223" xlink:href="#m9838fefe2a" y="313.628" fill="#969696" stroke="#969696" stroke-width=".4" id="line2d_6"/><g transform="matrix(.14 0 0 -.14 298.653 330.678)" fill="#969696" id="text_5"><defs><path d="M27.594 40.578q5.422 0 8.953 3.094 3.547 3.11 3.547 8.234 0 4.594-3.407 7.547-3.39 2.953-9.687 2.953-5.61 0-8.672-3.11-3.047-3.093-3.047-7.874 0-5.125 3.813-7.984 3.812-2.86 8.5-2.86zm.093-7.562q-6.78 0-10.64-3.766-3.86-3.766-3.86-9.234 0-6.297 3.907-10.157Q21 6 28.219 6q6.406 0 10.234 3.86 3.828 3.859 3.828 10.265 0 5.469-3.828 9.172-3.828 3.719-10.766 3.719zM49.22 52.203q0-10.594-9.032-14.797 6.204-2.781 8.86-7.36 2.656-4.562 2.656-9.733 0-10.016-6.453-16.125-6.438-6.094-17.375-6.094-9.563 0-16.813 5.25-7.25 5.25-7.25 17.062 0 11.922 11.907 16.907-9.516 3.796-9.516 13.671 0 8.297 5.64 13.813 5.641 5.516 15.641 5.516 10.016 0 15.875-5.204 5.86-5.203 5.86-12.906z" id="HelveticaWorld-Regular-56"/></defs><use xlink:href="#HelveticaWorld-Regular-50"/><use x="55.615" xlink:href="#HelveticaWorld-Regular-48"/><use x="111.23" xlink:href="#HelveticaWorld-Regular-49"/><use x="166.846" xlink:href="#HelveticaWorld-Regular-56"/></g></g><g id="xtick_6"><use x="372.175" xlink:href="#m9838fefe2a" y="313.628" fill="#969696" stroke="#969696" stroke-width=".4" id="line2d_7"/><g transform="matrix(.14 0 0 -.14 356.605 330.678)" fill="#969696" id="text_6"><use xlink:href="#HelveticaWorld-Regular-50"/><use x="55.615" xlink:href="#HelveticaWorld-Regular-48"/><use x="111.23" xlink:href="#HelveticaWorld-Regular-50"/><use x="166.846" xlink:href="#HelveticaWorld-Regular-48"/></g></g></g><g id="matplotlib.axis_2"><g id="ytick_1"><path clip-path="url(#p04b3c91530)" d="M45.341 313.628h357.12" fill="none" stroke="#969696" stroke-linecap="square" stroke-width=".3" id="line2d_8"/><g id="line2d_9"><defs><path d="M0 0h-3.5" id="m4b9207d06d" stroke="#969696" stroke-width=".3"/></defs><use x="45.341" xlink:href="#m4b9207d06d" y="313.628" fill="#969696" stroke="#969696" stroke-width=".3"/></g><use xlink:href="#HelveticaWorld-Regular-48" transform="matrix(.14 0 0 -.14 30.556 318.653)" fill="#969696" id="text_7"/></g><g id="ytick_2"><path clip-path="url(#p04b3c91530)" d="M45.341 270.172h357.12" fill="none" stroke="#969696" stroke-linecap="square" stroke-width=".3" id="line2d_10"/><use x="45.341" xlink:href="#m4b9207d06d" y="270.172" fill="#969696" stroke="#969696" stroke-width=".3" id="line2d_11"/><g transform="matrix(.14 0 0 -.14 14.985 275.197)" fill="#969696" id="text_8"><use xlink:href="#HelveticaWorld-Regular-50"/><use x="55.615" xlink:href="#HelveticaWorld-Regular-48"/><use x="111.23" xlink:href="#HelveticaWorld-Regular-48"/></g></g><g id="ytick_3"><path clip-path="url(#p04b3c91530)" d="M45.341 226.716h357.12" fill="none" stroke="#969696" stroke-linecap="square" stroke-width=".3" id="line2d_12"/><use x="45.341" xlink:href="#m4b9207d06d" y="226.716" fill="#969696" stroke="#969696" stroke-width=".3" id="line2d_13"/><g transform="matrix(.14 0 0 -.14 14.985 231.74)" fill="#969696" id="text_9"><use xlink:href="#HelveticaWorld-Regular-52"/><use x="55.615" xlink:href="#HelveticaWorld-Regular-48"/><use x="111.23" xlink:href="#HelveticaWorld-Regular-48"/></g></g><g id="ytick_4"><path clip-path="url(#p04b3c91530)" d="M45.341 183.26h357.12" fill="none" stroke="#969696" stroke-linecap="square" stroke-width=".3" id="line2d_14"/><use x="45.341" xlink:href="#m4b9207d06d" y="183.26" fill="#969696" stroke="#969696" stroke-width=".3" id="line2d_15"/><g transform="matrix(.14 0 0 -.14 14.985 188.285)" fill="#969696" id="text_10"><use xlink:href="#HelveticaWorld-Regular-54"/><use x="55.615" xlink:href="#HelveticaWorld-Regular-48"/><use x="111.23" xlink:href="#HelveticaWorld-Regular-48"/></g></g><g id="ytick_5"><path clip-path="url(#p04b3c91530)" d="M45.341 139.804h357.12" fill="none" stroke="#969696" stroke-linecap="square" stroke-width=".3" id="line2d_16"/><use x="45.341" xlink:href="#m4b9207d06d" y="139.804" fill="#969696" stroke="#969696" stroke-width=".3" id="line2d_17"/><g transform="matrix(.14 0 0 -.14 14.985 144.829)" fill="#969696" id="text_11"><use xlink:href="#HelveticaWorld-Regular-56"/><use x="55.615" xlink:href="#HelveticaWorld-Regular-48"/><use x="111.23" xlink:href="#HelveticaWorld-Regular-48"/></g></g><g id="ytick_6"><path clip-path="url(#p04b3c91530)" d="M45.341 96.348h357.12" fill="none" stroke="#969696" stroke-linecap="square" stroke-width=".3" id="line2d_18"/><use x="45.341" xlink:href="#m4b9207d06d" y="96.348" fill="#969696" stroke="#969696" stroke-width=".3" id="line2d_19"/><g transform="matrix(.14 0 0 -.14 7.2 101.373)" fill="#969696" id="text_12"><use xlink:href="#HelveticaWorld-Regular-49"/><use x="55.615" xlink:href="#HelveticaWorld-Regular-48"/><use x="111.23" xlink:href="#HelveticaWorld-Regular-48"/><use x="166.846" xlink:href="#HelveticaWorld-Regular-48"/></g></g><g id="ytick_7"><path clip-path="url(#p04b3c91530)" d="M45.341 52.892h357.12" fill="none" stroke="#969696" stroke-linecap="square" stroke-width=".3" id="line2d_20"/><use x="45.341" xlink:href="#m4b9207d06d" y="52.892" fill="#969696" stroke="#969696" stroke-width=".3" id="line2d_21"/><g transform="matrix(.14 0 0 -.14 7.2 57.917)" fill="#969696" id="text_13"><use xlink:href="#HelveticaWorld-Regular-49"/><use x="55.615" xlink:href="#HelveticaWorld-Regular-50"/><use x="111.23" xlink:href="#HelveticaWorld-Regular-48"/><use x="166.846" xlink:href="#HelveticaWorld-Regular-48"/></g></g></g><path clip-path="url(#p04b3c91530)" d="M45.341 310.41l1.867 1.466 2.42.593 2.421.03 2.461-.336 2.342-.762 2.34-.086 9.687-1.198 2.461.112 4.845-.056 2.42-1.289 2.42.728 2.461-.799 2.342-.531 2.34.468 2.424-.575 2.42.014 2.422-.739 2.421-.207 2.461-.589 2.422.166 2.423.325 2.42-.245 2.42-.442 4.803-2.569 2.34-1.756 2.424.79 4.842-.615 2.421.169 2.461-1.949 2.422 1.845 2.423-.092 2.42-1.27 2.42.73 2.462-1.55 2.381-1.945 2.38-.066 2.423 1.043 2.421.478 2.422.188 2.42-.804 2.462.007 2.421.37 2.423-1.71 2.42.406 2.421 2.09 2.461-2.832 2.342-1.178 2.34-.651 2.423.116 2.421 1.433 2.422.356 2.421-1.036 2.46-.294 2.422.084 2.423-2.194 2.42.905 2.421 1.457 2.461-2.229 2.342-.88 2.34-.402 2.423.786 2.421 1.106 2.422 1.878 2.421-1.044 2.461.603 2.421.868 2.423.057 2.42 1.124 2.421.215 2.461-1.942 2.342-.502 2.34.278 2.423-.874 2.422.559 2.42-1.08 2.422.547 2.461 1.857 2.421.58 2.423.296 2.42 1.181 2.421-.017 2.461-.827 2.382-1.782 2.38.962 2.423-.19 2.42 1.136 2.422-.382 2.422 1.945 2.46.154 2.422-.767 2.423 1.167 2.42.043 2.42 1.323 2.462-1.345 4.682.26 2.423 1.768 2.421.117 2.421.36 2.422-.389 4.882 1.817 2.423-.254 2.42.58 2.42 1.39 2.462-1.01 2.342.173 2.34.529 2.423.258 2.421-.07 2.421.048 2.422.352 2.46.21 2.422.452 2.423-.683 4.84.834 2.462-.729 7.105.773 2.421.279 2.421.062 2.422-.44 2.46-.036 2.422.143 2.423-.69 2.42 1.095 2.42-.05 2.462-.463 2.381.365 2.38-.182 2.423-.821 2.422.982 2.42.633 2.422-.577 2.461 1.22 2.421.11 2.423.296 2.42-.42 2.421.588 2.461-.511h0" fill="none" stroke="#c5b0d5" stroke-linecap="square" stroke-width="1.5" id="line2d_22"/><path clip-path="url(#p04b3c91530)" d="M76.185 313.628l2.42-.478 2.42.401 7.144.021 21.833-.07 9.566.076 2.42-.21 12.149-.02 2.42-.198 7.263.246 9.646-.29 4.882.018 2.421-.445 2.423.234 4.841-.077 2.461.084 2.342-.2 4.763-.004 2.421-.097 2.422-.265 7.303-.442 2.423.23 2.42-.035 2.421-.16 2.461-.442 2.342.525 2.34-.19 2.423-.689 2.421.515 2.422-.124 2.421-1.096 2.461.344h2.421l7.264.378 2.461-.841 2.342.321 2.34-.307 2.423.455 2.422.057 4.842-.505 4.882.188 2.423.085 2.42-.158 2.421.18 4.843-1.083 4.803-.3 2.42.296 4.844.294 2.46-.259 2.422.307 2.423-.006 2.42.267 2.42-.028 4.804-.825 2.34-.29 2.423.904 2.421-.434 2.421-.037 2.422-.44 4.882.65 4.842-.79 2.422 1.03 2.46-.119 2.343-.691 2.34.243 2.423-.26 2.421.077 2.421-.446 4.883-.31 2.42.115 2.424-.886 2.42.4 2.42.84 2.462-.154 4.682-.568 2.423.346 2.421-.051 2.421.471 2.422-1.137 2.46-.014 2.422.21 4.843-.022 2.42.253 2.462-.406 2.381-.515 2.38-.039 2.423-1.242 2.422.765 2.42.199 2.422.818 2.461-.484 2.421-.682 2.423 1.628 2.42.002L400 309.52l2.461-1.016h0" fill="none" stroke="#ff9896" stroke-linecap="square" stroke-width="1.5" id="line2d_23"/><g transform="matrix(.14 0 0 -.14 406.032 109.464)" fill="#1f77b4" id="text_14"><defs><path d="M14.984 23.688q0-8.407 4.094-13 4.11-4.579 10.219-4.579 6.687 0 10.39 5.438 3.72 5.453 3.72 14.765 0 10.22-3.563 14.907-3.563 4.687-10.735 4.687-6.984 0-10.562-5.5-3.563-5.5-3.563-16.718zm-8.39 28.609h8.297v-7.375h.203q5.61 8.89 15.625 8.89 10.11 0 15.937-7.359 5.828-7.344 5.828-18.766 0-12.796-5.953-21Q40.578-1.515 29.5-1.515q-9.094 0-13.922 7.032h-.203v-26.22H6.594z" id="HelveticaWorld-Regular-112"/><path d="M39.016 52.297h9.562L29.891.984q-.5-1.375-.985-2.593-4.25-11.329-7.328-15.547-3.078-4.235-9.953-4.235-3.61 0-5.906.782v8.015q2.484-.89 5.468-.89 3.22 0 4.704 2.03 1.5 2.032 4.421 9.938L.875 52.297h9.922L24.812 9.719H25z" id="HelveticaWorld-Regular-121"/><path d="M17.188 45.016V10.984q0-2 1.093-3.046 1.11-1.047 3.938-1.047h3.375V0Q20.797-.688 19-.688q-5.516 0-8.063 2.641-2.53 2.64-2.53 8.547v34.516H1.311v7.28h7.094v14.595h8.781V52.297h8.407v-7.281z" id="HelveticaWorld-Regular-116"/><path d="M49.219 0h-8.844v34.188q0 6.296-2.438 9-2.437 2.718-7.953 2.718-6.797 0-10.703-4.406-3.906-4.39-3.906-12.984V0H6.594v71.781h8.781V45.312h.203q6 8.5 15.328 8.5 8.594 0 13.453-4.5 4.86-4.484 4.86-13.718z" id="HelveticaWorld-Regular-104"/><path d="M12.703 26.219q0-8.735 3.953-14.375 3.953-5.64 11.219-5.64 7.531 0 11.438 5.905 3.906 5.907 3.906 14.11 0 8.297-3.907 14.078-3.906 5.797-11.437 5.797-6.969 0-11.078-5.453-4.094-5.438-4.094-14.422zm-8.984 0q0 11.672 6.484 19.625 6.5 7.968 17.672 7.968 11.438 0 17.875-8.062 6.453-8.047 6.453-19.531 0-11.516-6.406-19.625-6.39-8.11-17.922-8.11-11.078 0-17.625 7.86-6.531 7.86-6.531 19.875z" id="HelveticaWorld-Regular-111"/><path d="M49.219 0h-8.844v32.172q0 7.422-2.594 10.578-2.578 3.156-8.578 3.156-5.906 0-9.875-4.5-3.953-4.484-3.953-12.89V0H6.594v52.297h8.297v-7.375h.203q6.203 8.89 15.812 8.89 8.89 0 13.594-4.718 4.719-4.703 4.719-13.5z" id="HelveticaWorld-Regular-110"/></defs><use xlink:href="#HelveticaWorld-Regular-112"/><use x="54.494" xlink:href="#HelveticaWorld-Regular-121"/><use x="105.104" xlink:href="#HelveticaWorld-Regular-116"/><use x="132.789" xlink:href="#HelveticaWorld-Regular-104"/><use x="187.965" xlink:href="#HelveticaWorld-Regular-111"/><use x="243.873" xlink:href="#HelveticaWorld-Regular-110"/></g><g transform="matrix(.14 0 0 -.14 406.032 164.239)" fill="#ff7f0e" id="text_15"><defs><path d="M15.375 61.813H6.594v9.968h8.781zm0-69.532q0-7.468-3.547-10.375Q8.297-21 2-21q-1.797 0-3.703.297v7.61H.594q3.703 0 4.843 1.109 1.157 1.093 1.157 5.296v58.985h8.781z" id="HelveticaWorld-Regular-106"/><path d="M38.375 26.703q-.969-1.015-3.828-1.656-2.86-.625-10.672-1.656-5.766-.688-8.469-2.844-2.703-2.14-2.703-5.656 0-4.297 2.281-6.688 2.297-2.39 7.329-2.39 6.296 0 11.171 3.578 4.891 3.593 4.891 8.718zM6.203 36.375q.297 8.844 5.734 13.14 5.454 4.297 15.844 4.297 8.297 0 13.907-3.765 5.624-3.75 5.624-10.844V9.078Q47.313 6 50.094 6q1.125 0 2.89.39V0Q50.594-.984 48-.984q-4.5 0-6.703 1.921-2.188 1.938-2.281 6.047-7.516-8.5-18.891-8.5-7.422 0-11.922 4.204Q3.72 6.89 3.72 13.624q0 6.89 3.906 11.125Q11.531 29 19 29.89l15.516 1.891q4.203.64 4.203 6.203 0 4.11-3.047 6.297-3.047 2.203-9.25 2.203-5.516 0-8.485-2.437-2.953-2.438-3.53-7.672z" id="HelveticaWorld-Regular-97"/><path d="M39.406 52.297h9.625L29.11 0h-9.437L.594 52.297h10.203L24.422 9.719h.187z" id="HelveticaWorld-Regular-118"/><path d="M36.078 37.406q-.187 4.688-3.344 6.735-3.14 2.047-9.047 2.047-4.296 0-7.359-1.907-3.047-1.89-3.047-5.468 0-2.829 1.797-4.172 1.813-1.344 7.828-2.86l8.688-2.187q7.906-2 11.297-5.11 3.406-3.093 3.406-8.656 0-7.719-5.64-12.531-5.641-4.813-15.063-4.813-11 0-16.64 4.563-5.626 4.578-5.735 13.75h8.5q.203-5.422 3.594-8.063 3.39-2.625 10.171-2.625 5.516 0 8.766 2.188 3.25 2.203 3.25 6.11 0 2.78-2.11 4.437-2.093 1.672-8.296 3.078l-10.203 2.5q-6.203 1.562-9.157 4.656-2.953 3.094-2.953 8.031 0 7.72 5.516 12.203 5.531 4.5 14.406 4.5 9.485 0 14.531-4.624 5.047-4.61 5.344-11.782z" id="HelveticaWorld-Regular-115"/><path d="M39.594 34.719q-1.89 11.187-12.39 11.187-6.5 0-10.454-5.203-3.953-5.203-3.953-14.484 0-10.11 3.656-15.11 3.672-5 10.64-5 4.688 0 8.11 3.438 3.422 3.437 4.39 8.953h8.5q-1.312-9.703-6.859-14.86-5.547-5.156-14.328-5.156-10.297 0-16.89 7.047-6.594 7.063-6.594 19.172 0 13.281 6.594 21.188 6.593 7.922 18.5 7.922 8.687 0 13.843-5.204 5.157-5.203 5.735-13.89z" id="HelveticaWorld-Regular-99"/><path d="M15.375 0H6.594v52.297h8.297v-8.688h.203q5.703 10.203 14.687 10.203 1.422 0 2.297-.296V44.39h-3.266q-5.906 0-9.671-4.016-3.766-4-3.766-9.953z" id="HelveticaWorld-Regular-114"/><path d="M6.594 61.813v9.968h8.781v-9.969zM15.375 0H6.594v52.297h8.781z" id="HelveticaWorld-Regular-105"/></defs><use xlink:href="#HelveticaWorld-Regular-106"/><use x="22.021" xlink:href="#HelveticaWorld-Regular-97"/><use x="74.703" xlink:href="#HelveticaWorld-Regular-118"/><use x="121.938" xlink:href="#HelveticaWorld-Regular-97"/><use x="176.869" xlink:href="#HelveticaWorld-Regular-115"/><use x="226.869" xlink:href="#HelveticaWorld-Regular-99"/><use x="278.139" xlink:href="#HelveticaWorld-Regular-114"/><use x="310.707" xlink:href="#HelveticaWorld-Regular-105"/><use x="332.729" xlink:href="#HelveticaWorld-Regular-112"/><use x="389.223" xlink:href="#HelveticaWorld-Regular-116"/></g><g transform="matrix(.14 0 0 -.14 406.032 198.107)" fill="#2ca02c" id="text_16"><use xlink:href="#HelveticaWorld-Regular-106"/><use x="22.021" xlink:href="#HelveticaWorld-Regular-97"/><use x="74.703" xlink:href="#HelveticaWorld-Regular-118"/><use x="121.938" xlink:href="#HelveticaWorld-Regular-97"/></g><g transform="matrix(.14 0 0 -.14 406.032 212.128)" fill="#d62728" id="text_17"><defs><path d="M22.61 41.5l-2-14.203h12.5L35.015 41.5zM35.89 0h-6.593l2.875 21h-12.5L16.797 0h-6.594l2.89 21H2.782l.938 6.297h10.297L15.922 41.5H5.609l.891 6.297h10.297l2.875 21h6.75l-2.938-21h12.407l2.922 21h6.703l-2.938-21h10.297L52 41.5H41.703l-2-14.203H50L49.125 21H38.812z" id="HelveticaWorld-Regular-35"/></defs><use xlink:href="#HelveticaWorld-Regular-99"/><use x="51.27" xlink:href="#HelveticaWorld-Regular-35"/></g><g transform="matrix(.14 0 0 -.14 406.032 226.128)" fill="#9467bd" id="text_18"><use xlink:href="#HelveticaWorld-Regular-112"/><use x="56.494" xlink:href="#HelveticaWorld-Regular-104"/><use x="111.67" xlink:href="#HelveticaWorld-Regular-112"/></g><use xlink:href="#HelveticaWorld-Regular-114" transform="matrix(.14 0 0 -.14 406.032 240.128)" fill="#8c564b" id="text_19"/><g transform="matrix(.14 0 0 -.14 406.032 254.128)" fill="#e377c2" id="text_20"><defs><path d="M25.688 50.484h7.328V28.906h21.578v-7.328H33.016V0h-7.328v21.578H4v7.328h21.688z" id="HelveticaWorld-Regular-43"/></defs><use xlink:href="#HelveticaWorld-Regular-99"/><use x="51.27" xlink:href="#HelveticaWorld-Regular-43"/><use x="109.863" xlink:href="#HelveticaWorld-Regular-43"/></g><g transform="matrix(.14 0 0 -.14 406.032 268.128)" fill="#7f7f7f" id="text_21"><defs><path d="M41.5 23.688q0 11.125-3.5 16.671-3.484 5.547-10.61 5.547-6.874 0-10.593-4.5-3.703-4.484-3.703-15.093 0-9.422 3.75-14.813 3.765-5.39 10.36-5.39 5.812 0 10.046 4.39 4.25 4.39 4.25 13.188zm8.406-44.391H41.11V5.516h-.187Q35.89-1.516 27-1.516q-10.984 0-17 8.157-6 8.156-6 21.047 0 11.421 5.906 18.765 5.922 7.36 15.875 7.36 9.907 0 15.625-8.891h.203v7.375h8.297z" id="HelveticaWorld-Regular-113"/><path d="M15.375 0H6.594v71.781h8.781z" id="HelveticaWorld-Regular-108"/></defs><use xlink:href="#HelveticaWorld-Regular-115"/><use x="49" xlink:href="#HelveticaWorld-Regular-113"/><use x="105.494" xlink:href="#HelveticaWorld-Regular-108"/></g><g transform="matrix(.14 0 0 -.14 406.032 282.08)" fill="#bcbd22" id="text_22"><defs><path d="M42.484 30.328q-.687 8.485-4.5 12.031-3.797 3.547-10.109 3.547-6.39 0-10.328-4.5-3.922-4.484-4.172-11.078zm8.391-13.922q-1.453-8.11-7.953-13.422-5.719-4.5-15.047-4.593-10.984.093-17.438 7.203Q4 12.704 4 24.704q0 13.78 6.64 21.437 6.641 7.672 18.47 7.672 10.593 0 16.546-7.922 5.953-7.907 5.953-22.594H13.375q0-8.203 3.813-12.703Q21 6.109 28.608 6.109q5.375 0 9.235 3.235 3.86 3.25 4.25 7.062z" id="HelveticaWorld-Regular-101"/></defs><use xlink:href="#HelveticaWorld-Regular-116"/><use x="27.686" xlink:href="#HelveticaWorld-Regular-121"/><use x="77.295" xlink:href="#HelveticaWorld-Regular-112"/><use x="133.789" xlink:href="#HelveticaWorld-Regular-101"/><use x="189.209" xlink:href="#HelveticaWorld-Regular-115"/><use x="239.209" xlink:href="#HelveticaWorld-Regular-99"/><use x="290.479" xlink:href="#HelveticaWorld-Regular-114"/><use x="323.047" xlink:href="#HelveticaWorld-Regular-105"/><use x="345.068" xlink:href="#HelveticaWorld-Regular-112"/><use x="401.563" xlink:href="#HelveticaWorld-Regular-116"/></g><use xlink:href="#HelveticaWorld-Regular-99" transform="matrix(.14 0 0 -.14 406.032 296.128)" fill="#17becf" id="text_23"/><g transform="matrix(.14 0 0 -.14 406.032 310.128)" fill="#aec7e8" id="text_24"><defs><path d="M25.594 0h-8.985L1.516 52.297h9.468L21 11.187h.188l10.109 41.11h9.922l10.203-41.11h.187l10.594 41.11h8.703L55.812 0h-9.234L35.984 40.484h-.187z" id="HelveticaWorld-Regular-119"/><path d="M17.188 45.016V0H8.405v45.016H1.22v7.28h7.187v8.985q0 5.907 3.578 8.703 3.594 2.813 10.032 2.813 2.203 0 3.968-.188v-7.906q-1.562.188-3.578.188-2.922 0-4.078-1.438-1.14-1.437-1.14-4.656v-6.5h8.796v-7.281z" id="HelveticaWorld-Regular-102"/></defs><use xlink:href="#HelveticaWorld-Regular-115"/><use x="48" xlink:href="#HelveticaWorld-Regular-119"/><use x="120.412" xlink:href="#HelveticaWorld-Regular-105"/><use x="142.434" xlink:href="#HelveticaWorld-Regular-102"/><use x="170.119" xlink:href="#HelveticaWorld-Regular-116"/></g><g transform="matrix(.14 0 0 -.14 406.032 324.128)" fill="#ffbb78" id="text_25"><defs><path d="M13.094 26.313q0-9.704 3.844-14.954 3.859-5.25 10.265-5.25 6.094 0 10.188 4.485 4.109 4.5 4.109 13.094 0 11.03-3.5 16.625-3.484 5.593-10.61 5.593-6.78 0-10.546-4.453-3.75-4.437-3.75-15.14zM50.39 0h-8.297v7.172h-.203q-4.97-8.688-15.078-8.688-10.891 0-16.86 8.297Q4 15.094 4 27.688q0 11.625 5.906 18.875 5.922 7.25 15.875 7.25 9.813 0 15.625-8.891l.203.594V71.78h8.782z" id="HelveticaWorld-Regular-100"/></defs><use xlink:href="#HelveticaWorld-Regular-100"/><use x="56.982" xlink:href="#HelveticaWorld-Regular-97"/><use x="111.914" xlink:href="#HelveticaWorld-Regular-114"/><use x="145.982" xlink:href="#HelveticaWorld-Regular-116"/></g><g transform="matrix(.14 0 0 -.14 406.032 338.128)" fill="#98df8a" id="text_26"><defs><path d="M50 0H38.719L22.406 26.422l-7.312-6.594V0h-8.5v71.781h8.5v-41.61l22.5 22.126H48.78L28.813 32.813z" id="HelveticaWorld-Regular-107"/></defs><use xlink:href="#HelveticaWorld-Regular-107"/><use x="47.625" xlink:href="#HelveticaWorld-Regular-111"/><use x="103.533" xlink:href="#HelveticaWorld-Regular-116"/><use x="131.219" xlink:href="#HelveticaWorld-Regular-108"/><use x="153.24" xlink:href="#HelveticaWorld-Regular-105"/><use x="175.262" xlink:href="#HelveticaWorld-Regular-110"/></g><g transform="matrix(.14 0 0 -.14 406.032 351.944)" fill="#ff9896" id="text_27"><defs><path d="M12.984 26.313q0-9.61 3.813-14.907Q20.609 6.11 27.094 6.11q6.312 0 10.312 4.579 4 4.593 4 13 0 11.03-3.5 16.625-3.484 5.593-10.61 5.593-7.171 0-10.75-4.765-3.562-4.766-3.562-14.828zM49.812 2.983q0-12.609-6.062-18.797-6.047-6.203-18.266-6.203-8.78 0-13.984 4.047Q6.297-13.922 5.516-6.39h8.796q.672-3.812 3.532-6.062 2.86-2.25 8.281-2.25 7.375 0 11.125 3.969 3.766 3.953 3.766 12.828v3.719h-.188q-4.937-7.329-13.922-7.329-11.187 0-17.093 8.25-5.907 8.25-5.907 20.953 0 11.625 5.953 18.875 5.97 7.25 15.829 7.25 9.906 0 15.625-8.89h.187v7.375h8.313z" id="HelveticaWorld-Regular-103"/></defs><use xlink:href="#HelveticaWorld-Regular-103"/><use x="55.908" xlink:href="#HelveticaWorld-Regular-111"/></g><g transform="matrix(.14 0 0 -.14 406.032 366.08)" fill="#c5b0d5" id="text_28"><defs><path d="M6.11 52.297h8.78V17.578q0-5.765 2.61-8.625Q20.125 6.11 25 6.11q6.781 0 10.594 4.797 3.812 4.813 3.812 12.578v28.813h8.782V0H39.89v7.625l-.188.188q-4.984-9.329-16.61-9.329-7.515 0-12.25 4.094Q6.11 6.688 6.11 14.703z" id="HelveticaWorld-Regular-117"/><path d="M43.406 26.313q0 10.5-3.718 15.046-3.704 4.547-10.579 4.547-6.984-.11-10.562-5.453Q14.984 35.11 14.984 25q0-10.297 4.297-14.594Q23.578 6.11 29.297 6.11q6.5 0 10.297 5.344 3.812 5.344 3.812 14.86zM6.594 0v71.781h8.781V45.703h.203q5.61 8.11 15.14 8.11 9.766 0 15.766-7.25t6-18.876q0-13.093-6.062-21.156Q40.375-1.516 29.5-1.516q-9.578 0-14.406 8.016h-.203V0z" id="HelveticaWorld-Regular-98"/></defs><use xlink:href="#HelveticaWorld-Regular-114"/><use x="32.568" xlink:href="#HelveticaWorld-Regular-117"/><use x="87.354" xlink:href="#HelveticaWorld-Regular-98"/><use x="141.848" xlink:href="#HelveticaWorld-Regular-121"/></g><g transform="matrix(.14 0 0 -.14 406.032 380.128)" fill="#c49c94" id="text_29"><use xlink:href="#HelveticaWorld-Regular-114"/><use x="32.568" xlink:href="#HelveticaWorld-Regular-117"/><use x="87.354" xlink:href="#HelveticaWorld-Regular-115"/><use x="137.354" xlink:href="#HelveticaWorld-Regular-116"/></g><g transform="matrix(.09716 0 0 -.09716 45.341 347.399)" fill="#969696" id="text_30"><defs><path d="M50.39 50.781q-.296 6.844-5.109 10.719-4.797 3.875-12.656 3.875-7.922 0-12.172-3.25-4.234-3.234-4.234-9.344 0-3.265 1.843-5.61 1.86-2.343 6.641-3.468l20.516-4.687q8.297-1.813 12.297-6.875 4.015-5.047 4.015-12.313 0-10.64-7.812-16.187-7.813-5.547-20.313-5.547-9.531 0-15.031 2.437-5.484 2.453-9.734 7.766-4.25 5.328-4.25 14.89h9.093q0-8 5.313-12.406 5.328-4.39 14.5-4.39 8.89 0 13.844 3.156 4.953 3.156 4.953 8.953 0 5.281-2.953 7.89Q46.188 29 37.594 31l-15.469 3.625q-7.719 1.75-11.531 6.125Q6.78 45.125 6.78 51.516q0 9.672 6.516 15.922 6.531 6.25 18.203 6.25 13.172 0 20.328-5.5 7.156-5.485 7.688-17.407z" id="HelveticaWorld-Regular-83"/><path d="M63.922 35.89q0 12.594-6.672 20.891-6.656 8.313-18.328 8.313-11.531 0-18.266-8.313-6.734-8.297-6.734-20.89 0-12.985 6.828-21.094 6.844-8.11 18.172-8.11 11.078 0 18.031 7.907 6.969 7.922 6.969 21.297zm9.953 0q0-16.062-9.281-26.937-9.266-10.86-25.672-10.86-16.516 0-25.766 10.86-9.25 10.875-9.25 26.938 0 16.109 9.25 26.953 9.25 10.843 25.766 10.843 16.89 0 25.922-11.046 9.031-11.032 9.031-26.75z" id="HelveticaWorld-Regular-79"/><path d="M44 29.5L33.406 61.078h-.203L21.687 29.5zm-25.297-8.594L11.188 0h-9.97l27 71.781h10.985L65.187 0H54.594l-7.078 20.906z" id="HelveticaWorld-Regular-65"/><path d="M17.828 38.625H37.11q7.282 0 10.938 3.188 3.656 3.203 3.656 9.703 0 5.812-3.516 8.89-3.515 3.078-10.687 3.078H17.828zm0-38.625H8.11v71.781h32.266q9.625 0 15.484-5.594 5.86-5.593 5.86-14.578 0-9.328-5.672-15.312-5.656-5.969-15.672-5.969H17.828z" id="HelveticaWorld-Regular-80"/><path d="M17.828 0H8.11v71.781h9.72z" id="HelveticaWorld-Regular-73"/><path d="M9.422 73.688h7.281V-1.906H9.422z" id="HelveticaWorld-Regular-124"/><path d="M55.61 71.781h9.374V0h-10.78L17.577 58.016h-.187V0H8.109v71.781h11.375l35.938-57.969h.187z" id="HelveticaWorld-Regular-78"/><path d="M12.703 26.219q0-8.735 3.953-14.375 3.953-5.64 11.219-5.64 7.531 0 11.438 5.905 3.906 5.907 3.906 14.11 0 8.297-3.907 14.078-3.906 5.797-11.437 5.797-6.969 0-11.078-5.453-4.094-5.438-4.094-14.422zm-8.984 0q0 11.672 6.484 19.625 6.5 7.968 17.672 7.968 11.438 0 17.875-8.062 6.453-8.047 6.453-19.531 0-11.516-6.406-19.625-6.39-8.11-17.922-8.11-11.078 0-17.625 7.86-6.531 7.86-6.531 19.875zm36.734 35.406H31.47v10.156h8.984zm-16.219 0H15.25v10.156h8.984z" id="HelveticaWorld-Regular-246"/><path d="M6.594 52.297h8.297v-7.375h.203q5.906 8.89 15.812 8.89 9.813 0 13.922-8.5 3.75 4.594 7.266 6.547 3.515 1.953 8.703 1.953 6.781 0 11.484-4.453Q77 44.922 77 36.187V0h-8.781v33.797q0 6.094-2.297 9.094-2.297 3.015-7.422 3.015-5.172 0-8.75-4.203-3.563-4.203-3.563-9.812V0h-8.78v36.188q0 4.53-2.11 7.124-2.094 2.594-6.094 2.594-6.297 0-10.062-4.687-3.766-4.688-3.766-12.703V0H6.594z" id="HelveticaWorld-Regular-109"/><path d="M58.016 50.203q-1.625 7.313-6.782 11.094-5.14 3.797-13.343 3.797-10.594 0-17.047-7.703-6.438-7.688-6.438-20.766 0-15.14 6.094-22.547 6.11-7.39 17.688-7.39 7.609 0 13.093 5.046 5.5 5.063 7.407 14.688h9.421Q66.22 12.594 57.625 5.344t-20.906-7.25q-14.703 0-23.516 10.11Q4.391 18.311 4.391 36.28q0 17.328 9.203 27.36 9.203 10.047 24.297 10.047 12.5 0 20.265-6.454 7.766-6.437 9.235-17.03z" id="HelveticaWorld-Regular-67"/><path d="M8.11 71.781h31.484q9.281 0 14.797-5.031 5.515-5.031 5.515-13.031 0-4.844-2.422-8.828-2.406-3.97-7.187-6.172 6.687-2.532 9.828-6.735 3.156-4.203 3.156-10.797 0-9.265-6.687-15.234Q49.906 0 38.922 0H8.109zm9.562-63.484h20.703q7.625 0 11.422 3.531 3.812 3.547 3.812 9.563 0 6.093-4.25 9.093Q45.125 33.5 36.812 33.5h-19.14zm0 33.11h17.625q7.719 0 11.312 2.796 3.594 2.813 3.594 8.781 0 5.125-3.406 7.813-3.39 2.687-11.39 2.687H17.671z" id="HelveticaWorld-Regular-66"/><path d="M37.313 0h-9.72v28.906L.485 71.781h11.329l20.609-34.469 20.562 34.47h11.422L37.312 28.905z" id="HelveticaWorld-Regular-89"/></defs><use xlink:href="#HelveticaWorld-Regular-83"/><use x="66.211" xlink:href="#HelveticaWorld-Regular-116"/><use x="93.896" xlink:href="#HelveticaWorld-Regular-97"/><use x="148.828" xlink:href="#HelveticaWorld-Regular-99"/><use x="200.098" xlink:href="#HelveticaWorld-Regular-107"/><use x="250.098" xlink:href="#HelveticaWorld-Regular-79"/><use x="327.881" xlink:href="#HelveticaWorld-Regular-118"/><use x="375.49" xlink:href="#HelveticaWorld-Regular-101"/><use x="430.91" xlink:href="#HelveticaWorld-Regular-114"/><use x="464.979" xlink:href="#HelveticaWorld-Regular-102"/><use x="492.664" xlink:href="#HelveticaWorld-Regular-108"/><use x="514.686" xlink:href="#HelveticaWorld-Regular-111"/><use x="569.094" xlink:href="#HelveticaWorld-Regular-119"/><use x="641.506" xlink:href="#HelveticaWorld-Regular-32"/><use x="665.92" xlink:href="#HelveticaWorld-Regular-65"/><use x="732.619" xlink:href="#HelveticaWorld-Regular-80"/><use x="797.268" xlink:href="#HelveticaWorld-Regular-73"/><use x="823.049" xlink:href="#HelveticaWorld-Regular-32"/><use x="847.463" xlink:href="#HelveticaWorld-Regular-118"/><use x="897.072" xlink:href="#HelveticaWorld-Regular-105"/><use x="919.094" xlink:href="#HelveticaWorld-Regular-97"/><use x="974.025" xlink:href="#HelveticaWorld-Regular-32"/><use x="998.439" xlink:href="#HelveticaWorld-Regular-115"/><use x="1048.439" xlink:href="#HelveticaWorld-Regular-116"/><use x="1076.125" xlink:href="#HelveticaWorld-Regular-97"/><use x="1131.057" xlink:href="#HelveticaWorld-Regular-99"/><use x="1182.326" xlink:href="#HelveticaWorld-Regular-107"/><use x="1232.326" xlink:href="#HelveticaWorld-Regular-116"/><use x="1260.012" xlink:href="#HelveticaWorld-Regular-97"/><use x="1314.943" xlink:href="#HelveticaWorld-Regular-103"/><use x="1370.852" xlink:href="#HelveticaWorld-Regular-115"/><use x="1420.852" xlink:href="#HelveticaWorld-Regular-32"/><use x="1445.266" xlink:href="#HelveticaWorld-Regular-124"/><use x="1471.242" xlink:href="#HelveticaWorld-Regular-32"/><use x="1495.656" xlink:href="#HelveticaWorld-Regular-78"/><use x="1568.752" xlink:href="#HelveticaWorld-Regular-105"/><use x="1590.773" xlink:href="#HelveticaWorld-Regular-99"/><use x="1642.043" xlink:href="#HelveticaWorld-Regular-111"/><use x="1697.951" xlink:href="#HelveticaWorld-Regular-32"/><use x="1722.365" xlink:href="#HelveticaWorld-Regular-83"/><use x="1788.576" xlink:href="#HelveticaWorld-Regular-99"/><use x="1839.846" xlink:href="#HelveticaWorld-Regular-104"/><use x="1895.021" xlink:href="#HelveticaWorld-Regular-108"/><use x="1917.043" xlink:href="#HelveticaWorld-Regular-246"/><use x="1972.951" xlink:href="#HelveticaWorld-Regular-109"/><use x="2055.959" xlink:href="#HelveticaWorld-Regular-101"/><use x="2111.379" xlink:href="#HelveticaWorld-Regular-114"/><use x="2143.947" xlink:href="#HelveticaWorld-Regular-32"/><use x="2168.361" xlink:href="#HelveticaWorld-Regular-124"/><use x="2194.338" xlink:href="#HelveticaWorld-Regular-32"/><use x="2218.752" xlink:href="#HelveticaWorld-Regular-67"/><use x="2291.066" xlink:href="#HelveticaWorld-Regular-67"/><use x="2363.381" xlink:href="#HelveticaWorld-Regular-32"/><use x="2387.795" xlink:href="#HelveticaWorld-Regular-66"/><use x="2450.607" xlink:href="#HelveticaWorld-Regular-89"/></g><g transform="matrix(.14 0 0 -.14 87.834 17.516)" fill="#969696" id="text_31"><defs><path d="M17.828 8.297h18.797q9.766 0 15.281 7.5 5.516 7.5 5.516 20.484 0 12.844-5.563 19.969-5.562 7.125-16.062 7.234H17.828zM8.11 71.78h29.094q14.11 0 22.094-9.703 7.984-9.687 7.984-25.156 0-16.61-7.984-26.766Q51.313 0 36.813 0H8.108z" id="HelveticaWorld-Regular-68"/></defs><use xlink:href="#HelveticaWorld-Regular-68"/><use x="72.021" xlink:href="#HelveticaWorld-Regular-97"/><use x="126.953" xlink:href="#HelveticaWorld-Regular-105"/><use x="148.975" xlink:href="#HelveticaWorld-Regular-108"/><use x="170.996" xlink:href="#HelveticaWorld-Regular-121"/><use x="220.605" xlink:href="#HelveticaWorld-Regular-32"/><use x="245.02" xlink:href="#HelveticaWorld-Regular-110"/><use x="300.195" xlink:href="#HelveticaWorld-Regular-117"/><use x="354.98" xlink:href="#HelveticaWorld-Regular-109"/><use x="437.988" xlink:href="#HelveticaWorld-Regular-98"/><use x="494.482" xlink:href="#HelveticaWorld-Regular-101"/><use x="549.902" xlink:href="#HelveticaWorld-Regular-114"/><use x="582.471" xlink:href="#HelveticaWorld-Regular-32"/><use x="606.885" xlink:href="#HelveticaWorld-Regular-111"/><use x="662.793" xlink:href="#HelveticaWorld-Regular-102"/><use x="690.479" xlink:href="#HelveticaWorld-Regular-32"/><use x="714.893" xlink:href="#HelveticaWorld-Regular-113"/><use x="771.387" xlink:href="#HelveticaWorld-Regular-117"/><use x="826.172" xlink:href="#HelveticaWorld-Regular-101"/><use x="881.592" xlink:href="#HelveticaWorld-Regular-115"/><use x="931.592" xlink:href="#HelveticaWorld-Regular-116"/><use x="959.277" xlink:href="#HelveticaWorld-Regular-105"/><use x="981.299" xlink:href="#HelveticaWorld-Regular-111"/><use x="1037.207" xlink:href="#HelveticaWorld-Regular-110"/><use x="1092.383" xlink:href="#HelveticaWorld-Regular-115"/><use x="1142.383" xlink:href="#HelveticaWorld-Regular-32"/><use x="1166.797" xlink:href="#HelveticaWorld-Regular-111"/><use x="1222.705" xlink:href="#HelveticaWorld-Regular-110"/><use x="1277.881" xlink:href="#HelveticaWorld-Regular-32"/><use x="1302.295" xlink:href="#HelveticaWorld-Regular-83"/><use x="1368.506" xlink:href="#HelveticaWorld-Regular-116"/><use x="1396.191" xlink:href="#HelveticaWorld-Regular-97"/><use x="1451.123" xlink:href="#HelveticaWorld-Regular-99"/><use x="1502.393" xlink:href="#HelveticaWorld-Regular-107"/><use x="1552.393" xlink:href="#HelveticaWorld-Regular-79"/><use x="1630.176" xlink:href="#HelveticaWorld-Regular-118"/><use x="1677.785" xlink:href="#HelveticaWorld-Regular-101"/><use x="1733.205" xlink:href="#HelveticaWorld-Regular-114"/><use x="1767.273" xlink:href="#HelveticaWorld-Regular-102"/><use x="1794.959" xlink:href="#HelveticaWorld-Regular-108"/><use x="1816.98" xlink:href="#HelveticaWorld-Regular-111"/><use x="1871.389" xlink:href="#HelveticaWorld-Regular-119"/></g><path clip-path="url(#p04b3c91530)" d="M97.855 313.628l2.461-.007 2.422.007h4.843l2.42-.007 2.462.007h2.341l2.34-.007 2.424.007h16.989l2.42-.014 2.462.014 2.381-.022 2.38.008h2.423l2.421.007H155.886l2.462.007h2.421l2.423-.007 2.42.007h2.421l2.461-.007 2.342-.008 2.34.015 2.423-.021 2.421.014h7.303l2.422.007 2.423-.014 2.42.007 2.421-.028 2.461.028 2.342-.008 2.34.001 2.423-.007 2.421-.014 2.422.02 2.421-.006 2.461-.007 2.421-.066 2.423-.039 2.42.075 2.421-.033 2.461-.028 2.342-.13 2.34.081 2.423-.056 2.422.098 2.42-.098 2.422.028 2.461.063 2.421.003 2.423-.276 2.42-.18 2.421.089 2.461-.127 2.382-.335 2.38.027 2.423.186 2.42.024 2.422-.024 2.422.172 2.46-.022 2.422-.179 2.423.011 2.42-.214 2.42.235 2.462-.266 2.342.063 2.34-.322 2.423.225 2.421-1.662 2.421-1.322 2.422.383 2.46-.372 2.422.417 2.423-.6 2.42-.921 2.42.992 2.462-.484 2.342-.346 2.34-.705 2.423.007 2.421-.126 2.421.075 2.422-.895 2.46-.449 2.422.207 2.423-1.132 2.42.031 2.42 1.196 2.462-1.521 2.342-.188 2.34-.079 2.423-.082 2.421-.142 2.421-.85 2.422-1.21 2.46 1.058 2.422-.79 2.423-.22 2.42-.46 2.42 1.428 2.462-1.802 2.381-.336 2.38-.89 2.423-2.384 2.422.435 2.42 1.021 2.422 1.664 2.461.343 2.421-.971 2.423.06 2.42-.589 2.421 2.068 2.461-1.199" fill="none" stroke="#98df8a" stroke-linecap="square" stroke-width="1.5" id="line2d_24"/><path clip-path="url(#p04b3c91530)" d="M129.292 313.628l2.422-.014 2.423-.112 2.42.097 2.42.001 2.462-.028 2.381-.026 2.38.054 2.423-.146 2.421.013 2.422-.02 2.42-.057 2.462-.056 2.421.055 2.423-.328 2.42.017 2.421-.06 2.461-.098 2.342.04 2.34.037 2.423-.528 2.421.297 2.422-.13 2.421.186 2.46.042 2.422.069 2.423-.11 2.42-.455 2.421-.583 2.461-.168 2.342-.045 2.34.388 2.423.147 2.421.323 2.422-.2 2.421.053h2.461l2.421.056 2.423-.078 2.42.143 2.421.215 2.461.217 2.342-.162 2.34.148 2.423-.128 2.422.177 2.42.178 2.422-.094 2.461.246 2.421-.007 2.423-.084 2.42-.09 2.421.279 2.461-.147 2.382-.086 2.38.156 2.423.051 2.42.096 2.422-.19 2.422.134 2.46-.14 2.422.064 2.423.118 2.42-.06 2.42-.038h2.462l2.342-.025 2.34-.017 2.423.03 2.421-.367 2.421-.01 2.422.031 2.46.105 2.422.11 2.423-.124 2.42.153 2.42-.012 2.462.056 2.342-.35 2.34-1.29 2.423-.345 2.421-.356 2.421-.354 2.422-.354 2.46-.19 2.422.153 2.423-.202 2.42.238 2.42-.539 2.462-1.962 2.342.405 2.34.33 2.423-.979 2.421-.24 2.421.197 2.422-1.473 2.46-.294 2.422.144 2.423.354 2.42-.281 2.42-.322 2.462-.904 2.381-.602 2.38.356 2.423-4.989 2.422-1.985 2.42.646 2.422.89 2.461.097 2.421 1.432 2.423-.05 2.42.658 2.421 1.29 2.461-1.276" fill="none" stroke="#ffbb78" stroke-linecap="square" stroke-width="1.5" id="line2d_25"/><path clip-path="url(#p04b3c91530)" d="M52.05 313.628l40.963-.007 115.983-.063 2.422-17.392 2.421 5.925 2.461-.413 2.421-1.876 2.423-3.493 2.42-1.309 2.421 1.078 4.803-7.67 2.34-.082 2.423-3.973 2.422 2.543 4.842-9.504 2.461.532 2.421 2.605 2.423 2.848 2.42-1.138 2.421.592 2.461-2.93 2.382-2.004 2.38-.022 2.423 1.14 2.42 3.437 2.422-3.762 4.882.363 2.422-.863 2.423 2.166 2.42 1.55 2.42 4.03 2.462-2.811 2.342-1.103 2.34-.888 2.423 3.994 2.421-.356 2.421-1.628 2.422-.09 2.46 1.087 2.422 2.009 2.423.01 2.42.721 2.42 4.115 2.462-3.82 2.342-.211 2.34-1.969 2.423 2.515 2.421.611 2.421 2.482 2.422-4.893 2.46-.532 2.422 2.991 2.423-.18 2.42 1.426 2.42 2.344 2.462-1.1 2.342-.599 2.34.192 2.423-2.206 2.421.152 2.421-1.89 2.422-.843 2.46 4.549 2.422-.527 2.423-3.665 2.42.203 2.42 3.33 7.223-3.56 2.423-4.992 2.422.576 2.42 2.003 2.422 2.265 2.461 2.74 2.421 1.115 2.423 2.334 2.42.737 2.421 3.679 2.461-4.086h0" fill="none" stroke="#aec7e8" stroke-linecap="square" stroke-width="1.5" id="line2d_26"/><path clip-path="url(#p04b3c91530)" d="M45.341 310.206l1.867 1.299 2.42.247 2.421.58 2.461-.954 2.342-.326 2.34-.445 2.423-.303 2.422-.04 2.421-.3 2.421-.135 2.461.07 2.422-.414 2.423-1.282 2.42-1.586 2.42 1.047 2.461-.926 2.342-1.134 2.34.188 2.424-.754 2.42.32 2.422-.131 4.882-1.208 2.422-.422 2.423-.097 2.42-2.01 2.42 1.842 2.462.028 2.341-2.474 2.34-2.047 2.424-.015 2.42 1.999 2.422-.014 2.421 1.191 4.883-2.27 2.423-1.115 2.42-.95 2.42 1.861 2.462-1.57 2.381-2.444 2.38-1.124 2.423-.127 2.421 1.908 2.422.627 2.42.116 2.462.385 2.421-2.043 2.423-3.74 2.42-1.033 2.421 5.078 2.461-2.37 2.342-3.756 2.34-.098 2.423-1.52 2.421 3.258 2.422 1.088 2.421.23 2.46.077 2.422-3.537 2.423-5.133 2.42-1.32 2.421 6.5 2.461-1.683 2.342-4.645 2.34-1.242 2.423 2.982 2.421 6.214 2.422 2.817 2.421.182 2.461 1.143 2.421-4.693 2.423-3.262 2.42.025 2.421 4.587 2.461-.407 2.342-3.65 2.34-1.277 2.423-1.165 2.422 3.961 2.42 1.732 2.422 3.23 2.461 1.676 2.421-4.363 2.423-3.417 2.42-.415 2.421 4.578 2.461.274 2.382-3.197 2.38.309 2.423-.052 2.42 5.232 2.422 2.402 2.422.254 2.46.911 2.422-2.678 2.423-4.359 2.42-1.131 2.42 4.068 2.462.26 2.342-1.844 2.34.343 2.423.12 2.421 1.527 2.421 2.087 2.422 2.757 2.46.007 2.422-.859 2.423-4.398 2.42-1.845 2.42 6.022 2.462-.182 2.342-1.032 2.34-.783 2.423 1.443 2.421-.742 2.421 3.393 2.422 1.758 2.46-.729 2.422-1.68 2.423-4.137 2.42-1.122 2.42 2.79 2.462-.568 2.342.113 2.34-.905 2.423-1.278 2.421 2.897 2.421 1.543 2.422.034 2.46 1.486 2.422-4.374 2.423-3.686 2.42-1.058 2.42 4.149 2.462.736 2.381-.17 2.38-3.279 2.423-7.346 2.422.33 2.42 6.11 2.422 4.565 2.461 1.633 2.421-3.171 2.423-1.51 2.42-3.27L400 293.87l2.461-2.082h0" fill="none" stroke="#17becf" stroke-linecap="square" stroke-width="1.5" id="line2d_27"/><path clip-path="url(#p04b3c91530)" d="M160.77 313.628l2.422-1.941 2.42.906 2.421.468 2.461-.106 2.342.13 2.34-.27 2.423.132 2.421.149 2.422-.149 2.421-.076 2.46.007 2.422.127 2.423.049 2.42-.078 2.421-.203 2.461-.175 2.342.107 2.34.09 2.423-.18 2.421.046 2.422.2 2.421-.361 2.461.273 2.421.022 2.423-.162 2.42.22 2.421-.066 2.461-.154 2.342-.006 2.34-.106 2.423-.16 2.422-.464 2.42-.145 2.422-.15 2.461-.055 2.421-.092 2.423-.182 2.42-.585 2.421-.585 2.461-.82 2.382-1.26 2.38-.282 2.423-.928 2.42-.642 2.422-.568 2.422-.967 2.46-.631 2.422-.169 2.423-.665 2.42.245 2.42.414 2.462-1.108 2.342-1.168 2.34-.794 2.423.266 2.421-.82 2.421-.208 2.422-.037 2.46-.933 2.422 1.042 2.423.542 2.42-1.462 2.42 2.29 2.462-1.613 2.342-1.494 2.34-.37 2.423.39 2.421.451 2.421-.414 2.422-.756 2.46-1.83 2.422.956 2.423-1.32 2.42 1.545 2.42 1.181 2.462-2.74 2.342-2.338 2.34 1.644 2.423-1.065 2.421.7 2.421.343 2.422-1.927 2.46 1.767 2.422-.752 2.423-.86 2.42-2.073 2.42 2.949 2.462-.61 2.381-2.48 2.38-.772 2.423-5.063 2.422.661 2.42.831 2.422.403 2.461 2.922 2.421-.826 2.423.616 2.42 1.34 2.421 2.522 2.461-2.65" fill="none" stroke="#bcbd22" stroke-linecap="square" stroke-width="1.5" id="line2d_28"/><path clip-path="url(#p04b3c91530)" d="M45.341 308.481l1.867 1.404 2.42.738 2.421.012 4.803-2.19 2.34.557 2.423-.77 2.422-.526 2.421-.777 2.421-.927 2.461.358 2.422-2.553 2.423-.538 2.42 1.545 2.42.495 2.461-.484 2.342-1.207 2.34-.237 2.424.65 2.42-.566 2.422-1.62 2.421-1.064 2.461-.568 2.422.813 2.423-.385 2.42-1.324 2.42 1.036 2.462-3.224 2.341-.06 2.34-2.078 2.424 1.986 2.42-2.378 2.422-.25 2.421.51 4.883-.04 2.423.55 2.42-2.346 2.42 2.41 2.462-1.521 2.381-3.99 2.38-1.673 2.423 1.153 2.421-.488 2.422.705 2.42-2.226 2.462.225 2.421-.215 2.423-2.659 2.42-2.448 2.421 4.081 2.461-5.502 2.342-2.912 2.34-1.237 2.423.16 2.421 1.62 2.422.669 2.421-3.578 2.46.225 4.845-10.276 2.42.397 2.421 3.795 2.461-5.706 2.342-4.584 2.34-.336 2.423-2.39 2.421 9.16 2.422 1.415 2.421-1.968 2.461 4.556 2.421-2.393 2.423 7.804 2.42 7.218 2.421 1.564 2.461-1.857 2.342-2.628 2.34-1.115 2.423-.44 2.422 2.627 2.42-1.584 2.422.245 2.461 2.769 4.844.203 2.42-.53 2.421 2.037 2.461-1.745 2.382-3.646 2.38-.854 2.423-.087 2.42 1.832 2.422-1.926 2.422 5.353 2.46-.651 2.422.027 2.423-.946 2.42-2.002 2.42 5.1 2.462-1.493 2.342-3.733 2.34-3.212 2.423 3.454 2.421-1.934 2.421 1.08 2.422 1.269 2.46 1.5 2.422 1.62 2.423-1.656 2.42-1.118 2.42 7.048 2.462-3.462 2.342-2.338 2.34-1.363 2.423-.964 2.421.711 2.421 1.49 2.422-.852 2.46.568 2.422 3.746 2.423-3.585 2.42.696 2.42 5.507 2.462-3.4 2.342-4.86 2.34.165 2.423 1.421 4.842 4.252 2.422-4.608 2.46 4.437 2.422-3.226 2.423-2.83 2.42-1.421 2.42 4.919 2.462-1.991 2.381-3.556 2.38.486 2.423-5.196 2.422 1.586 2.42 1.905 2.422 3.128 2.461 3.953 2.421-2.815 2.423-.458 2.42-.332 2.421 5.568 2.461-.645h0" fill="none" stroke="#7f7f7f" stroke-linecap="square" stroke-width="1.5" id="line2d_29"/><path clip-path="url(#p04b3c91530)" d="M45.341 305.385l1.867 2.545 2.42.368 2.421.894 2.461-1.542 2.342-.587 2.34-.836 2.423-.008 2.422-1.142 2.421-.531 2.421-1.2 2.461.449 2.422-.785 2.423-1.22 2.42-.887 2.42 1.097 2.461-2.418 2.342-3.623 2.34.574 2.424-.96 2.42 1.08 2.422-3.507 2.421 1.642 2.461.33 2.422-1.364 2.423-.704 2.42-3.859L110 291.6l2.462-2.558 2.341-2.24 2.34-2.562 2.424-.907 2.42 2.954 2.422-.397 2.421.698 2.461-.75 2.422-.868 4.842-3.969 2.422 1.95 2.46-1.339 2.382-6.426 2.38 1.47 2.423-1.739 2.421 3.527 2.422 1.246 2.42-3.25 2.462.917 2.421.595 2.423-5.837 2.42-4.078 2.421 5.62 2.461-2.615 2.342-4.958 2.34-3.172 2.423-1.387 2.421 3.91 2.422 3.065 2.421-1.137 2.46 2.278 2.422-3.734 2.423-8.525 2.42-2.99 2.421 9.824 2.461-4.774 2.342-5.72 2.34-1.155 2.423 1.875 2.421 11.245 2.422 6.47 2.421-2.818 2.461 2.734 2.421-3.732 2.423-2.969 2.42.31 2.421 5.024 2.461-.456 2.342-7.076 2.34-1.559 2.423.005 2.422 3.948 2.42.643 2.422.184 2.461 5.846 2.421-1.633 2.423-6.589 2.42-1.987 2.421 5.394 2.461 3.245 2.382-6.41 2.38-.242 2.423-.632 2.42 7.032 2.422 1.529 4.882 6.398 2.422-2.19 2.423-4.665 2.42-2.238 2.42 7.48 2.462-2.964 2.342-.585 2.34-3.501 2.423 1.135 2.421 5.39 2.421 3.243 2.422-1.287 2.46 1.696 2.422 1.134 2.423-4.211 2.42.09 2.42 5.195 4.804-4.259 2.34-.893 2.423 2.528 2.421.941 2.421 3.296 2.422 1.211 2.46-.77 2.422.413 2.423-3.519 2.42-1.536 2.42 6.85 2.462-2.398 2.342-1.987 2.34-2.751 2.423-1.597 2.421 3.749 2.421 1.35 2.422-5.871 2.46 7.927 2.422-5.315 2.423-7.624 2.42-.401 2.42 6.317 2.462.28 2.381-2.569 2.38-3.332 2.423-14.19 2.422 1.202 2.42 5.824 2.422 5.306 2.461 3.94 2.421 3.277 2.423-2.338 2.42-1.262 2.421 5.25 2.461-2.089h0" fill="none" stroke="#e377c2" stroke-linecap="square" stroke-width="1.5" id="line2d_30"/><path clip-path="url(#p04b3c91530)" d="M45.341 313.547l1.867.081 19.25-.036 2.421-.321 2.461.028 2.422-.677 2.423.495 2.42-.17 2.42.12 2.461-.098 2.342-.287 2.34-.028 2.424-.185 2.42.185 7.304-1.01 4.845.484 2.42-.252 2.42.19 2.462-.19 2.341-.746 4.764-.95 2.42.448 2.422-.215 2.421.033 2.461-.932 2.422-.318 2.423.08 2.42-.051 2.42.1 2.462-.533 2.381-1.263 2.38-.146 2.423.11 2.421-.047 4.843-1.696 2.46.224 2.422-.023 2.423-1.21 2.42-.876 2.421 1.22 2.461-2.061 2.342-2.394 2.34-.01 2.423-.369 2.421.831 2.422-.353 2.421-.972 2.46.35 2.422 1.071 2.423-2.29 2.42-1.143 2.421 2.489 2.461-3.14 2.342-3.82 2.34.533 2.423-.074 2.421 1.665 2.422.804 2.421-1.162 2.461 1.136 2.421.193 2.423-2.317 2.42-.146 2.421 3.11 2.461-2.382 2.342-4.162 2.34-1.908 2.423.881 2.422.08 2.42-.84 2.422-3.044 2.461 3.435 2.421.333 2.423-1.686 2.42.158 2.421 3.374 2.461-2.55 2.382-2.154 4.803-3.009 2.42 3.389 2.422-1.383 2.422 1.72 2.46-.274 2.422 2.69 2.423-2.662 2.42.743 2.42 3.715 2.462-2.446 2.342-4.094 2.34-3.722 2.423 1.426 2.421.593 2.421-2.027 4.883.226 2.42 1.454 2.424-1.286 2.42-.857 2.42 6.717 2.462-3.372 2.342-5.593 2.34-.743 2.423 1.354 2.421 1.218 2.421.556 2.422.37 2.46.245 2.422 1.529 2.423-3.597 2.42-.676 2.42 8.21 2.462-5.144 2.342-6.38 2.34 1.95 2.423-2.612 2.421 3.496 2.421 1.617 2.422-3.58 2.46 3.498 2.422-.852 2.423-4.013 2.42.42 2.42 6.526 2.462-2.936 2.381-6.835 2.38-1.5 2.423-11.051 2.422 3.363 2.42 2.83 2.422 6.296 2.461 3.35 2.421-3.454 2.423-1.719 2.42.59 2.421 7.891 2.461-2.446h0" fill="none" stroke="#8c564b" stroke-linecap="square" stroke-width="1.5" id="line2d_31"/><path clip-path="url(#p04b3c91530)" d="M45.341 308.414l1.867.869 2.42.695 2.421.286 2.461-1.1 2.342-1.503 2.34-.376 2.423-.668 2.422-1.287 2.421-3.152 2.421-2.813 4.883-2.178 2.423-.15 2.42-2.913 2.42-.338 2.461-4.31 2.342-.447 2.34-1.74 2.424-.147 2.42-1.522 2.422-1.694 2.421-2.644 2.461-3.827 2.422 2.111 2.423 2.297 2.42-5.411 2.42-.715 4.803-14.504 2.34-4.84 2.424 1.394 2.42-1.29 2.422-1.476 2.421-2.792 2.461-1.717 2.422 4.132 2.423 1.91 2.42-6.372 2.42 4.48 2.462-6.975 2.381-9.365 2.38-2.01 2.423.979 2.421-1.113 2.422.106 2.42-5.86 2.462-.87 2.421 3.934 2.423-3.204 2.42-2.619 2.421 7.742 2.461-13.008 2.342-8.184 2.34-1.377 2.423 2.08 2.421 5.336 2.422-.092 2.421-8.452 2.46.182 2.422-2.913 2.423-4.341 2.42-.36 2.421 6.843 2.461-17.256 2.342-10.698 2.34-.278 2.423.342 2.421 24.855 2.422 9.352 2.421-5.742 2.461 7.717 2.421-4.155 2.423 1.288 2.42 1.139 2.421 7.833 2.461-8.797 2.342-9.234 2.34.088 2.423-3.948 2.422 6.527 2.42-1.986 2.422-3.81 2.461 8.095 2.421 1.907 2.423.399 2.42 1.086h2.421l2.461-5.761 2.382-9.771 2.38 5.86 2.423 1.09 2.42 3.788 2.422 2.411 2.422 8.481 2.46.344 2.422 2.27 2.423 1.998 2.42-.57 2.42 6.191 2.462-8.158 2.342-8.717 2.34-1.551 2.423 8.635 2.421-1.402 2.421 6.124 2.422 2.728 2.46 1.024 2.422 4.194 2.423 1.546 2.42-.779 2.42 12.778 2.462-7.107 2.342.016 2.34 1.947 2.423 4.114 2.421-1.402 2.421 5.103 2.422-2.95 2.46-1.851 2.422 4.062 2.423-2.289 2.42 5.157 2.42 9.688 2.462-8.053 2.342-6.985 2.34 2.127 2.423 1.775 2.421 3.594 2.421 1.83 2.422-9.287 2.46 8.579 2.422-.472 2.423-2.942 2.42-2.258 2.42 10.571 2.462-6.056 2.381-2.936 2.38 1.78 2.423-13.289 2.422 4.135 2.42 4.882 2.422 4.188 2.461 8.586 2.421-.671 2.423 3.594 2.42-1.617 2.421 9.642 2.461-9.834h0" fill="none" stroke="#9467bd" stroke-linecap="square" stroke-width="1.5" id="line2d_32"/><path clip-path="url(#p04b3c91530)" d="M45.341 296.232l1.867 3.448 4.841 2.776 2.461-5.474 2.342-3.506 2.34-2.01 2.423-1.898 2.422-.906 2.421-3.179 2.421-2.758 4.883-.668 2.423-1.567 2.42-.757 2.42 2.376 2.461-4.367 2.342-3.752 2.34-2.703 2.424.435 2.42.21 2.422-2.933 2.421-2.282 2.461-1.956 2.422 2.435 2.423-.879 2.42-5.749 2.42 3.177 2.462-6.336 2.341-7.878 2.34-6.266 2.424 2.796 2.42-3.09 2.422-.487 2.421 3.43 2.461-3.154 2.422 3.142 2.423 2.809 2.42-7.162 2.42 6.468 4.843-15.666 2.38-.806 2.423.842 2.421-.554 2.422-.728 2.42-4.438 2.462 2.804 2.421 2.228 2.423-7.57 2.42.588 2.421 11.854 2.461-13.044 2.342-8.133 2.34-2.493 2.423-.714 2.421 6.3 2.422 1.848 2.421-6.83 2.46 2.55 2.422-2.687 2.423-6.803 2.42.726 2.421 10.335 2.461-12.12 2.342-9.799 2.34 3.639 2.423 2.535 2.421 13.467 2.422 6.813 2.421-5.264 2.461 8.445 2.421-1.726 2.423 1.236 2.42 2.147 2.421 8.142 2.461-4.549 2.342-9.09 2.34-1.451 2.423-1.896 2.422 1.118 2.42-4.406 2.422-.88 2.461 6.323 2.421-.728 2.423 3.889 2.42-.065 2.421 4.53 2.461-1.409 2.382-8.922 2.38.028 2.423-4.055 2.42 4.847 2.422-.038 2.422 10.544 2.46-5.025 2.422 8.727 2.423.202 2.42-4.149 2.42 9.497 2.462-7.1 2.342-7.385 2.34-1.762 2.423 10.857 2.421-3.848 2.421 2.139 2.422 3.342 2.46 1.787 2.422 5.199 2.423-.075 2.42.596 2.42 10.71 2.462-5.502 2.342-.792 2.34-2.138 2.423 1.814 2.421-2.795 2.421 6.12 2.422-6.26 2.46-3.344 2.422 5.932 2.423-5.168 2.42 4.06 2.42 9.72 2.462-9.645 2.342-4.83 2.34 2.7 2.423-4.717 2.421 3.28 2.421 5.172 2.422-9.525 2.46 8.944 2.422-3.96 2.423-3.638 2.42.581 2.42 12.456 2.462-6.182 2.381-5.106 2.38 1.685 2.423-10.907 4.843 10.488 2.421 3.118 2.461 5.32 2.421 2.288 2.423 3.795 2.42-.05L400 267.292l2.461-11.46h0" fill="none" stroke="#d62728" stroke-linecap="square" stroke-width="1.5" id="line2d_33"/><path clip-path="url(#p04b3c91530)" d="M45.341 300.89l1.867 4.664 4.841 2.236 2.461-2.243 2.342-1.293 2.34-.726 2.423-1.017 2.422-1.66 2.421-2.577 2.421-.528 2.461.504 2.422-1.04 2.423-1.174 2.42-2.426 2.42 1.157 2.461-7.31 2.342-1.664 2.34-3.39 2.424 3.008 2.42-1.102 2.422-1.824 2.421-.594 2.461-1.324 4.845-2.257 2.42-5.364 2.42.8 2.462-6.16 2.341-7.603 2.34-6.114 2.424 2.238 2.42-2.827 2.422 2.733 2.421.162 2.461-3.757 2.422.618 2.423.336 2.42-9.954 2.42 5.293 2.462-6.666 2.381-11.365 2.38-4.868 2.423-.139 2.421 1.786 2.422 5.095 2.42-5.396 2.462.154 2.421 1.758 2.423-10.491 2.42-4.009 2.421 11.543 2.461-9.315 2.342-10.94 2.34-4.83 2.423-5.984 2.421 10.49 2.422 6.183 2.421-5.348 2.46 1.072 2.422-12.325 2.423-13.797 2.42-4.534 2.421 13.709 2.461-8.713 2.342-18.868 2.34-4.633 2.423 2.832 2.421 25.513 2.422 10.664 2.421-6.382 2.461 11.579 2.421-10.962 2.423-4.409 2.42-3.833 2.421 14.6 2.461-1.164 2.342-14.063 2.34-8.528 2.423-4.845 2.422 13.635 2.42.626 2.422-1.832 2.461 11.481 2.421-3.073 2.423-7.21 2.42 1.097 2.421 12.908 2.461-.694 2.382-17.096 2.38-6.013 2.423-1.591 2.42 21.693 2.422 4.28 2.422 10.677 2.46-1.605 2.422.096 2.423-1.266 2.42-5.933 2.42 16.411 2.462-5.095 2.342-11.005 2.34-8.48 2.423 6.112 2.421.855 2.421 8.64 2.422 6.737 2.46 3.042 2.422 3.772 2.423-5.825 2.42-4.763 2.42 18.928 2.462-2.376 2.342-6.853 2.34-1.656 2.423-2.713 2.421 3.161 2.421 9.137 2.422-4.356 2.46.371 2.422 1.03 2.423-12.399 2.42 3.259 2.42 13.528 2.462-5.229 2.342-8.758 2.34-.697 2.423 2.829 2.421 3.416 2.421 5.594 2.422-13.85 2.46 15.72 2.422-7.454 2.423-11.841 2.42 2.78 2.42 16.06 2.462-6.014 2.381-6.969 2.38-7.827 2.423-22.49 2.422 11.17 2.42 12.586 2.422 7.678 2.461 10.689 2.421-1.317 2.423 1.611 2.42.047L400 246.916l2.461-10.415h0" fill="none" stroke="#2ca02c" stroke-linecap="square" stroke-width="1.5" id="line2d_34"/><path clip-path="url(#p04b3c91530)" d="M45.341 306.92l1.867 1.62 2.42.895 2.421-.194 2.461-1.157 2.342-1.82 2.34.313 2.423-.546 2.422-2.447 2.421-1.233 2.421-.996 2.461-.743 2.422.356 2.423-1.66 2.42-1.816 2.42-.02 4.803-4.26 2.34-.506 4.845-1.633 2.421-2.54 2.421-2.002 4.883-1.83 2.423.071 2.42-4.062 2.42-1.805 2.462-3.49 2.341-5.367 2.34-3.934 2.424-2.562 2.42-1.286 2.422-4.5 2.421-1.156 2.461-5.607 4.845 6.055 2.42-6.571 2.42 4.525 2.462-8.972 2.381-7.763 2.38-.164 2.423-2.343 2.421-3.397 2.422-.674 2.42-5.01 2.462-.555 2.421 6.355 2.423-6.18 2.42-2.316 2.421 7.167 2.461-14.775 2.342-10.093 2.34-.96 2.423-3.791 2.421 6.02 2.422-.385 2.421-12.288 2.46.091 2.422-10.603 2.423-10.003 2.42 4.404 2.421 7.693 2.461-21.756 2.342-16.374 2.34 5.223 2.423 3.479 2.421 16.679 2.422 6.12 2.421-8.475 2.461 11.733 2.421-1.787 2.423-1.276 2.42 2.413 2.421 11.093 2.461-10.716 2.342-14.9 2.34.889 2.423-7.478 2.422-3.828 2.42-8.456 2.422-4.49 2.461 13.128 2.421-.055 2.423 2.298 2.42-1.103 2.421 6.276 2.461-10.093 2.382-10.654 2.38-.385 2.423-.977 2.42 8.644 2.422.663 2.422 5.036 2.46-3.35 2.422 10.96 2.423 4.656 2.42-5.33 2.42 9.808 2.462-11.242 2.342-14.286 2.34-1.772 2.423 12.234 2.421-3.087 2.421.574 2.422 4.865 2.46 1.703 2.422 12.19 2.423-1.83 2.42-1.168 2.42 21.557 2.462-13.885 2.342-.915 2.34-.36 2.423 3.974 2.421 3.224 2.421 2.208 2.422-8.881 2.46-6.168 2.422 9.85 2.423-7.397 2.42 4.76 2.42 19.961 2.462-13.471 2.342-11.68 2.34.269 2.423 3.95 2.421 4.552 2.421 1.025 2.422-14.728 2.46 9.988 2.422-.837 2.423-8.296 2.42-3.408 2.42 18.597 2.462-14.137 2.381-8.47 2.38-9.186 2.423-38.321 2.422 3.71 2.42 9.986 2.422 5.196 2.461 18 2.421 4.34 2.423 6.6 2.42 2.642 2.421 15.14 2.461-20.97h0" fill="none" stroke="#ff7f0e" stroke-linecap="square" stroke-width="1.5" id="line2d_35"/><path clip-path="url(#p04b3c91530)" d="M45.341 307.87l1.867 2.177 4.841.49 2.461-1.331 4.683-.94 2.422-.2 2.422-1.468 4.842-1.121 2.461.154 2.422-.462 2.423-1.515 2.42-1.324 2.42.154 2.461-2.537 2.342-.807 2.34-.041 2.424 1.37 2.42-.936 2.422-1.897 2.421-2.231 2.461.729 2.422 1.162 2.423-2.368 2.42-.254 2.42 1.53 4.803-6.003 2.34-2.92 2.424 2.077 7.263-1.523 2.461-1.135 2.422 1.398 2.423.038 2.42-2.646 2.42 2.674 4.843-8.364 2.38-1.687 2.423-.27 2.421-.15 2.422-2.415 2.42-1.93 2.462-.912 2.421 3.03 2.423-4.936 2.42-3.32 2.421 5.97 2.461-5.874 2.342-6.4 2.34-1.1 2.423-3.938 2.421 2.732 2.422-.291 2.421-5.351 2.46 4.766 2.422-2.015 2.423-8.919 2.42-2.192 2.421 9.503 2.461-9.701 2.342-7.968 2.34-3.211 2.423 1.962 2.421 13.107 2.422.43 2.421-5.168 2.461 5.873 2.421.287 2.423-3.644 2.42-2.208 2.421 6.042 2.461-4.556 2.342-11.203 2.34-2.331 2.423-1.583 2.422 4.407 2.42-6.906 2.422-.874 2.461 7.745 2.421-.809 2.423-8.134 2.42-1.578 2.421 7.55 2.461-4.963 2.382-12.8 2.38.625 2.423-.378 2.42 7.058 2.422-1.532 2.422 3.53 2.46-.456 2.422 1.047 2.423-5.315 2.42-8.055 2.42 11.363 2.462-8.712 2.342-14.704 2.34-5.426 2.423 6.81 2.421-.005 2.421-2.812 2.422-2.486 2.46 3.224 2.422 3.463 2.423-7.017 2.42-4.122 2.42 18.217 2.462-8.992 2.342-13.193 2.34 1.221 2.423 2.74 2.421-.504 2.421 1.655 2.422-15.175 2.46-.063 2.422 8.959 2.423-13.48 2.42-4.504 2.42 22.587 2.462-9.28 2.342-19.74 2.34-5.632 2.423-4.347 2.421 10.157 2.421-3.79 2.422-16.943 2.46 17.088 2.422 2.846 2.423-26.515 2.42-9.966 2.42 29.472 4.843-35.945 2.38-14.303 2.423-53.476 2.422-1.545 2.42 14.48 2.422 16.521 2.461 29.312 2.421 1.563 2.423-3.659 2.42-2.794L400 131.674l2.461-25.737h0" fill="none" stroke="#1f77b4" stroke-linecap="square" stroke-width="1.5" id="line2d_36"/></g></g><defs><clipPath id="p04b3c91530"><path d="M45.341 47.516h357.12v266.112H45.341z"/></clipPath></defs></svg>