<svg height="510.311" viewBox="0 0 480.209 382.733" width="640.279" xmlns="http://www.w3.org/2000/svg" xmlns:xlink="http://www.w3.org/1999/xlink"><defs><style>*{stroke-linecap:butt;stroke-linejoin:round}</style></defs><g id="figure_1"><path d="M0 382.733h480.21V0H0z" fill="none" id="patch_1"/><g id="axes_1"><path d="M45.341 313.628h357.12V47.516H45.341z" fill="none" id="patch_2"/><path clip-path="url(#pb88c17ac01)" d="M45.341 313.058l9.233-.432 2.358-.612 2.357-.411 2.44-.56 2.437-.92 2.439-.065 2.438-1.196 7.356-.462 2.436-.254 2.438.008 2.478-1.465 2.358-.883 2.357-.09 2.44-.446 2.438-.789 2.438-1.253 2.438-3.176 2.478.434 2.438 1.2 2.44-.24 2.436-1.094 2.438.415 2.478-2.446 2.358-3.674 2.357-2.508 2.44-2.086 2.438-1.047 2.438.214 2.438-1.763 2.478-.905 2.438 3.089 2.44.956 2.436-2.992 2.438 2.634 2.478-3.147 2.399-2.55 2.396 2.017 2.44-1.54 2.438 1.218 2.438-.34 2.438-2.674 2.478.764 2.438 4.937 2.44-4.3 2.436.953 2.438 1.858 2.478-2.579 2.359-1.903 2.356-.522 2.44 1.488 2.438 2.738 2.438 2.397 2.438-1.969 2.478 1.577 2.438-3.765 2.44-2.655 2.436 2.046 2.439 1.192 2.478-2.839 2.358-4.732 2.356.408 2.44 1.343 2.438 4.565 2.438 2.127 2.438-2.19 2.478 3.365 2.438-1.204 2.44 1.33 2.437 2.147 2.438 2.402 2.478.308 2.358-3.62 2.356 1.615 2.44-1.466 2.438 2.567 4.876-1.318 2.478 2.348 2.438.083 2.44.983 2.437 2.928 2.438 1.088 2.478-.73 2.398-.93 2.396 1.527 2.44-.093 2.438 2.09 2.438-1.105 2.438 1.981 2.478.393 2.439.544 2.44.731 2.436.117 2.438.858 2.478.238 2.358-.156 2.357.24 2.44 1.89 2.437-.004 2.438-.596 2.439 1.142 2.478.8 4.877.924 2.437.146 2.438 1.403 2.478-.196 2.358.071 2.357.399 2.44.185 2.437-.052 2.439.566 2.438-.489 2.478.105 2.438.377 2.44.114 4.874 1.044 2.478-.42 2.358.01 2.357.15 2.44-.377 2.438.532 2.438-.17 2.438.023 2.478.483 2.438-.39 2.44-.619 2.436.185 2.438.446 2.478-.21 2.398.08 2.397-.108 2.44-.331 2.438.17 2.438.474 2.438-.208 2.478.533 2.438-.209 2.44-.044 2.436.334 2.438.451h0" fill="none" stroke="#c5b0d5" stroke-linecap="square" stroke-width="1.5" id="line2d_1"/><g id="matplotlib.axis_1"><g id="xtick_1"><g id="line2d_2"><defs><path d="M0 0v3.5" id="me6c625f8ef" stroke="#969696" stroke-width=".4"/></defs><use x="82.512" xlink:href="#me6c625f8ef" y="313.628" fill="#969696" stroke="#969696" stroke-width=".4"/></g><g transform="matrix(.14 0 0 -.14 66.941 330.678)" fill="#969696" id="text_1"><defs><path d="M4.39 45.125q0 12.39 6.391 18.781 6.406 6.407 17.938 6.407 9.656 0 15.812-5.86 6.157-5.86 6.157-15.14 0-7.22-3.547-12.188-3.532-4.953-10.422-8.703l-12.11-6.64Q13.922 15.921 12.5 8.296h38.188V0H2.593q.39 9.906 4.297 16.5 3.906 6.594 12.203 11.375l12.593 7.328q5.032 2.89 7.329 5.984 2.297 3.094 2.297 8.516 0 5.375-3.766 9.031-3.75 3.672-10.156 3.672-7.078 0-10.594-4.672-3.516-4.656-3.61-12.609z" id="HelveticaWorld-Regular-50"/><path d="M42.484 34.188q0 14.109-3.734 21.156-3.734 7.062-10.969 7.062-7.078 0-10.89-7.062-3.797-7.047-3.797-21.157 0-13.671 3.75-20.937Q20.609 6 27.78 6q7.235 0 10.969 7 3.734 7.016 3.734 21.188zm9.422 0q0-17.297-6.25-26.704-6.25-9.39-17.875-9.39-12.062 0-18.062 9.734-6 9.75-6 26.36 0 17.03 6.14 26.578 6.157 9.547 17.922 9.547 11.625 0 17.875-9.5t6.25-26.626z" id="HelveticaWorld-Regular-48"/><path d="M35.89 0h-9.374v49.906H10.109v6.985q8.594.28 12.782 2.75Q27.094 62.109 29 70.313h6.89z" id="HelveticaWorld-Regular-49"/></defs><use xlink:href="#HelveticaWorld-Regular-50"/><use x="55.615" xlink:href="#HelveticaWorld-Regular-48"/><use x="111.23" xlink:href="#HelveticaWorld-Regular-49"/><use x="166.846" xlink:href="#HelveticaWorld-Regular-48"/></g></g><g id="xtick_2"><use x="140.866" xlink:href="#me6c625f8ef" y="313.628" fill="#969696" stroke="#969696" stroke-width=".4" id="line2d_3"/><g transform="matrix(.14 0 0 -.14 125.296 330.678)" fill="#969696" id="text_2"><use xlink:href="#HelveticaWorld-Regular-50"/><use x="55.615" xlink:href="#HelveticaWorld-Regular-48"/><use x="111.23" xlink:href="#HelveticaWorld-Regular-49"/><use x="166.846" xlink:href="#HelveticaWorld-Regular-50"/></g></g><g id="xtick_3"><use x="199.301" xlink:href="#me6c625f8ef" y="313.628" fill="#969696" stroke="#969696" stroke-width=".4" id="line2d_4"/><g transform="matrix(.14 0 0 -.14 183.73 330.678)" fill="#969696" id="text_3"><defs><path d="M10.594 24.703h22.61v31.89h-.188zM42 17.093V0h-8.797v17.094H2.484v8.593L34.72 70.314H42v-45.61h10.297v-7.61z" id="HelveticaWorld-Regular-52"/></defs><use xlink:href="#HelveticaWorld-Regular-50"/><use x="55.615" xlink:href="#HelveticaWorld-Regular-48"/><use x="111.23" xlink:href="#HelveticaWorld-Regular-49"/><use x="166.846" xlink:href="#HelveticaWorld-Regular-52"/></g></g><g id="xtick_4"><use x="257.655" xlink:href="#me6c625f8ef" y="313.628" fill="#969696" stroke="#969696" stroke-width=".4" id="line2d_5"/><g transform="matrix(.14 0 0 -.14 242.084 330.678)" fill="#969696" id="text_4"><defs><path d="M14.11 21.578q0-6.875 4.093-11.234Q22.313 6 28.906 6q6.297 0 10.032 4.438 3.734 4.453 3.734 11.687 0 6.297-3.688 10.547-3.687 4.25-10.468 4.25-6.594 0-10.5-4.156-3.907-4.157-3.907-11.188zM41.702 51.61q-.984 5.375-3.984 8.078-3 2.72-8.125 2.72-8.11 0-12.36-7.923-4.25-7.906-4.343-18.109l.203-.188q5.61 8.641 16.687 8.641 8.844 0 15.438-5.86 6.593-5.859 6.593-16.452 0-10.5-6.25-17.47-6.25-6.952-16.843-6.952-12.219 0-18.563 8.687-6.344 8.703-6.344 25.938 0 16.593 6.485 27.093 6.5 10.5 19.484 10.5 8.407 0 14.219-5.015 5.813-5 6.297-13.688z" id="HelveticaWorld-Regular-54"/></defs><use xlink:href="#HelveticaWorld-Regular-50"/><use x="55.615" xlink:href="#HelveticaWorld-Regular-48"/><use x="111.23" xlink:href="#HelveticaWorld-Regular-49"/><use x="166.846" xlink:href="#HelveticaWorld-Regular-54"/></g></g><g id="xtick_5"><use x="316.089" xlink:href="#me6c625f8ef" y="313.628" fill="#969696" stroke="#969696" stroke-width=".4" id="line2d_6"/><g transform="matrix(.14 0 0 -.14 300.518 330.678)" fill="#969696" id="text_5"><defs><path d="M27.594 40.578q5.422 0 8.953 3.094 3.547 3.11 3.547 8.234 0 4.594-3.407 7.547-3.39 2.953-9.687 2.953-5.61 0-8.672-3.11-3.047-3.093-3.047-7.874 0-5.125 3.813-7.984 3.812-2.86 8.5-2.86zm.093-7.562q-6.78 0-10.64-3.766-3.86-3.766-3.86-9.234 0-6.297 3.907-10.157Q21 6 28.219 6q6.406 0 10.234 3.86 3.828 3.859 3.828 10.265 0 5.469-3.828 9.172-3.828 3.719-10.766 3.719zM49.22 52.203q0-10.594-9.032-14.797 6.204-2.781 8.86-7.36 2.656-4.562 2.656-9.733 0-10.016-6.453-16.125-6.438-6.094-17.375-6.094-9.563 0-16.813 5.25-7.25 5.25-7.25 17.062 0 11.922 11.907 16.907-9.516 3.796-9.516 13.671 0 8.297 5.64 13.813 5.641 5.516 15.641 5.516 10.016 0 15.875-5.204 5.86-5.203 5.86-12.906z" id="HelveticaWorld-Regular-56"/></defs><use xlink:href="#HelveticaWorld-Regular-50"/><use x="55.615" xlink:href="#HelveticaWorld-Regular-48"/><use x="111.23" xlink:href="#HelveticaWorld-Regular-49"/><use x="166.846" xlink:href="#HelveticaWorld-Regular-56"/></g></g><g id="xtick_6"><use x="374.443" xlink:href="#me6c625f8ef" y="313.628" fill="#969696" stroke="#969696" stroke-width=".4" id="line2d_7"/><g transform="matrix(.14 0 0 -.14 358.873 330.678)" fill="#969696" id="text_6"><use xlink:href="#HelveticaWorld-Regular-50"/><use x="55.615" xlink:href="#HelveticaWorld-Regular-48"/><use x="111.23" xlink:href="#HelveticaWorld-Regular-50"/><use x="166.846" xlink:href="#HelveticaWorld-Regular-48"/></g></g></g><g id="matplotlib.axis_2"><g id="ytick_1"><path clip-path="url(#pb88c17ac01)" d="M45.341 313.628h357.12" fill="none" stroke="#969696" stroke-linecap="square" stroke-width=".3" id="line2d_8"/><g id="line2d_9"><defs><path d="M0 0h-3.5" id="mdbc2495d48" stroke="#969696" stroke-width=".3"/></defs><use x="45.341" xlink:href="#mdbc2495d48" y="313.628" fill="#969696" stroke="#969696" stroke-width=".3"/></g><use xlink:href="#HelveticaWorld-Regular-48" transform="matrix(.14 0 0 -.14 30.556 318.653)" fill="#969696" id="text_7"/></g><g id="ytick_2"><path clip-path="url(#pb88c17ac01)" d="M45.341 270.172h357.12" fill="none" stroke="#969696" stroke-linecap="square" stroke-width=".3" id="line2d_10"/><use x="45.341" xlink:href="#mdbc2495d48" y="270.172" fill="#969696" stroke="#969696" stroke-width=".3" id="line2d_11"/><g transform="matrix(.14 0 0 -.14 14.985 275.197)" fill="#969696" id="text_8"><use xlink:href="#HelveticaWorld-Regular-50"/><use x="55.615" xlink:href="#HelveticaWorld-Regular-48"/><use x="111.23" xlink:href="#HelveticaWorld-Regular-48"/></g></g><g id="ytick_3"><path clip-path="url(#pb88c17ac01)" d="M45.341 226.716h357.12" fill="none" stroke="#969696" stroke-linecap="square" stroke-width=".3" id="line2d_12"/><use x="45.341" xlink:href="#mdbc2495d48" y="226.716" fill="#969696" stroke="#969696" stroke-width=".3" id="line2d_13"/><g transform="matrix(.14 0 0 -.14 14.985 231.74)" fill="#969696" id="text_9"><use xlink:href="#HelveticaWorld-Regular-52"/><use x="55.615" xlink:href="#HelveticaWorld-Regular-48"/><use x="111.23" xlink:href="#HelveticaWorld-Regular-48"/></g></g><g id="ytick_4"><path clip-path="url(#pb88c17ac01)" d="M45.341 183.26h357.12" fill="none" stroke="#969696" stroke-linecap="square" stroke-width=".3" id="line2d_14"/><use x="45.341" xlink:href="#mdbc2495d48" y="183.26" fill="#969696" stroke="#969696" stroke-width=".3" id="line2d_15"/><g transform="matrix(.14 0 0 -.14 14.985 188.285)" fill="#969696" id="text_10"><use xlink:href="#HelveticaWorld-Regular-54"/><use x="55.615" xlink:href="#HelveticaWorld-Regular-48"/><use x="111.23" xlink:href="#HelveticaWorld-Regular-48"/></g></g><g id="ytick_5"><path clip-path="url(#pb88c17ac01)" d="M45.341 139.804h357.12" fill="none" stroke="#969696" stroke-linecap="square" stroke-width=".3" id="line2d_16"/><use x="45.341" xlink:href="#mdbc2495d48" y="139.804" fill="#969696" stroke="#969696" stroke-width=".3" id="line2d_17"/><g transform="matrix(.14 0 0 -.14 14.985 144.829)" fill="#969696" id="text_11"><use xlink:href="#HelveticaWorld-Regular-56"/><use x="55.615" xlink:href="#HelveticaWorld-Regular-48"/><use x="111.23" xlink:href="#HelveticaWorld-Regular-48"/></g></g><g id="ytick_6"><path clip-path="url(#pb88c17ac01)" d="M45.341 96.348h357.12" fill="none" stroke="#969696" stroke-linecap="square" stroke-width=".3" id="line2d_18"/><use x="45.341" xlink:href="#mdbc2495d48" y="96.348" fill="#969696" stroke="#969696" stroke-width=".3" id="line2d_19"/><g transform="matrix(.14 0 0 -.14 7.2 101.373)" fill="#969696" id="text_12"><use xlink:href="#HelveticaWorld-Regular-49"/><use x="55.615" xlink:href="#HelveticaWorld-Regular-48"/><use x="111.23" xlink:href="#HelveticaWorld-Regular-48"/><use x="166.846" xlink:href="#HelveticaWorld-Regular-48"/></g></g><g id="ytick_7"><path clip-path="url(#pb88c17ac01)" d="M45.341 52.892h357.12" fill="none" stroke="#969696" stroke-linecap="square" stroke-width=".3" id="line2d_20"/><use x="45.341" xlink:href="#mdbc2495d48" y="52.892" fill="#969696" stroke="#969696" stroke-width=".3" id="line2d_21"/><g transform="matrix(.14 0 0 -.14 7.2 57.917)" fill="#969696" id="text_13"><use xlink:href="#HelveticaWorld-Regular-49"/><use x="55.615" xlink:href="#HelveticaWorld-Regular-50"/><use x="111.23" xlink:href="#HelveticaWorld-Regular-48"/><use x="166.846" xlink:href="#HelveticaWorld-Regular-48"/></g></g></g><path clip-path="url(#pb88c17ac01)" d="M45.341 310.41l1.88 1.466 2.437.593 2.438.03 2.478-.336 2.358-.762 2.357-.086 9.754-1.198 2.478.112 4.878-.056 2.436-1.289 2.438.728 2.478-.799 2.358-.531 2.357.468 2.44-.575 2.438.014 2.438-.739 2.438-.207 2.478-.589 2.438.166 2.44.325 2.436-.245 2.438-.442 4.836-2.569 2.357-1.756 2.44.79 4.876-.615 2.438.169 2.478-1.949 2.438 1.845 2.44-.092 2.436-1.27 2.438.73 2.478-1.55 2.399-1.945 2.396-.066 2.44 1.043 2.438.478 2.438.188 2.438-.804 2.478.007 2.438.37 2.44-1.71 2.436.406 2.438 2.09 2.478-2.832 2.359-1.178 2.356-.651 2.44.116 2.438 1.433 2.438.356 2.438-1.036 2.478-.294 2.438.084 2.44-2.194 2.436.905 2.439 1.457 2.478-2.229 2.358-.88 2.356-.402 2.44.786 2.438 1.106 2.438 1.878 2.438-1.044 2.478.603 2.438.868 2.44.057 2.437 1.124 2.438.215 2.478-1.942 2.358-.502 2.356.278 2.44-.874 2.438.559 2.438-1.08 2.438.547 2.478 1.857 2.438.58 2.44.296 2.437 1.181 2.438-.017 2.478-.827 2.398-1.782 2.396.962 2.44-.19 2.438 1.136 2.438-.382 2.438 1.945 2.478.154 2.439-.767 2.44 1.167 2.436.043 2.438 1.323 2.478-1.345 4.715.26 2.44 1.768 2.437.117 2.438.36 2.439-.389 4.916 1.817 2.44-.254 2.436.58 2.438 1.39 2.478-1.01 2.358.173 2.357.529 2.44.258 2.437-.07 2.439.048 2.438.352 2.478.21 2.438.452 2.44-.683 4.874.834 2.478-.729 7.155.773 2.438.279 2.438.062 2.438-.44 2.478-.036 2.438.143 2.44-.69 2.436 1.095 2.438-.05 2.478-.463 2.398.365 2.397-.182 2.44-.821 2.438.982 2.438.633 2.438-.577 2.478 1.22 2.438.11 2.44.296 2.436-.42 2.438.378h0" fill="none" stroke="#ff9896" stroke-linecap="square" stroke-width="1.5" id="line2d_22"/><path clip-path="url(#pb88c17ac01)" d="M98.22 313.628l2.478-.007 2.438.007H108.012l2.438-.007 2.478.007h2.358l2.357-.007 2.44.007h17.106l2.438-.014 2.478.014 2.399-.022 2.396.008h2.44l2.438.007h4.876l2.478.007h2.438l2.44-.007 2.436.007h2.438l2.478-.007 2.359-.008 2.356.015 2.44-.021 2.438.014H188.309l2.438.007 2.44-.014 2.436.007 2.439-.028 2.478.028 2.358-.008 2.356.001 2.44-.007 2.438-.014 2.438.02 2.438-.006 2.478-.007 2.438-.066 2.44-.039 2.437.075 2.438-.033 2.478-.028 2.358-.13 2.356.081 2.44-.056 2.438.098 2.438-.098 2.438.028 2.478.063 2.438.003 2.44-.276 2.437-.18 2.438.089 2.478-.127 2.398-.335 2.396.027 2.44.186 2.438.024 2.438-.024 2.438.172 2.478-.022 2.439-.179 2.44.011 2.436-.214 2.438.235 2.478-.266 2.358.063 2.357-.322 2.44.225 2.437-1.662 2.438-1.322 2.439.383 2.478-.372 2.438.417 2.44-.6 2.436-.921 2.438.992 2.478-.484 2.358-.346 2.357-.705 2.44.007 2.437-.126 2.439.075 2.438-.895 2.478-.449 2.438.207 2.44-1.132 2.436.031 2.438 1.196 2.478-1.521 2.358-.188 2.357-.079 2.44-.082 2.438-.142 2.438-.85 2.438-1.21 2.478 1.058 2.438-.79 2.44-.22 2.436-.46 2.438 1.428 2.478-1.802 2.398-.336 2.397-.89 2.44-2.384 2.438.435 2.438 1.021 2.438 1.664 2.478.343 2.438-.971 2.44.06 2.436-.589 2.438 1.353" fill="none" stroke="#98df8a" stroke-linecap="square" stroke-width="1.5" id="line2d_23"/><g transform="matrix(.14 0 0 -.14 406.032 118.688)" fill="#1f77b4" id="text_14"><defs><path d="M14.984 23.688q0-8.407 4.094-13 4.11-4.579 10.219-4.579 6.687 0 10.39 5.438 3.72 5.453 3.72 14.765 0 10.22-3.563 14.907-3.563 4.687-10.735 4.687-6.984 0-10.562-5.5-3.563-5.5-3.563-16.718zm-8.39 28.609h8.297v-7.375h.203q5.61 8.89 15.625 8.89 10.11 0 15.937-7.359 5.828-7.344 5.828-18.766 0-12.796-5.953-21Q40.578-1.515 29.5-1.515q-9.094 0-13.922 7.032h-.203v-26.22H6.594z" id="HelveticaWorld-Regular-112"/><path d="M39.016 52.297h9.562L29.891.984q-.5-1.375-.985-2.593-4.25-11.329-7.328-15.547-3.078-4.235-9.953-4.235-3.61 0-5.906.782v8.015q2.484-.89 5.468-.89 3.22 0 4.704 2.03 1.5 2.032 4.421 9.938L.875 52.297h9.922L24.812 9.719H25z" id="HelveticaWorld-Regular-121"/><path d="M17.188 45.016V10.984q0-2 1.093-3.046 1.11-1.047 3.938-1.047h3.375V0Q20.797-.688 19-.688q-5.516 0-8.063 2.641-2.53 2.64-2.53 8.547v34.516H1.311v7.28h7.094v14.595h8.781V52.297h8.407v-7.281z" id="HelveticaWorld-Regular-116"/><path d="M49.219 0h-8.844v34.188q0 6.296-2.438 9-2.437 2.718-7.953 2.718-6.797 0-10.703-4.406-3.906-4.39-3.906-12.984V0H6.594v71.781h8.781V45.312h.203q6 8.5 15.328 8.5 8.594 0 13.453-4.5 4.86-4.484 4.86-13.718z" id="HelveticaWorld-Regular-104"/><path d="M12.703 26.219q0-8.735 3.953-14.375 3.953-5.64 11.219-5.64 7.531 0 11.438 5.905 3.906 5.907 3.906 14.11 0 8.297-3.907 14.078-3.906 5.797-11.437 5.797-6.969 0-11.078-5.453-4.094-5.438-4.094-14.422zm-8.984 0q0 11.672 6.484 19.625 6.5 7.968 17.672 7.968 11.438 0 17.875-8.062 6.453-8.047 6.453-19.531 0-11.516-6.406-19.625-6.39-8.11-17.922-8.11-11.078 0-17.625 7.86-6.531 7.86-6.531 19.875z" id="HelveticaWorld-Regular-111"/><path d="M49.219 0h-8.844v32.172q0 7.422-2.594 10.578-2.578 3.156-8.578 3.156-5.906 0-9.875-4.5-3.953-4.484-3.953-12.89V0H6.594v52.297h8.297v-7.375h.203q6.203 8.89 15.812 8.89 8.89 0 13.594-4.718 4.719-4.703 4.719-13.5z" id="HelveticaWorld-Regular-110"/></defs><use xlink:href="#HelveticaWorld-Regular-112"/><use x="54.494" xlink:href="#HelveticaWorld-Regular-121"/><use x="105.104" xlink:href="#HelveticaWorld-Regular-116"/><use x="132.789" xlink:href="#HelveticaWorld-Regular-104"/><use x="187.965" xlink:href="#HelveticaWorld-Regular-111"/><use x="243.873" xlink:href="#HelveticaWorld-Regular-110"/></g><g transform="matrix(.14 0 0 -.14 406.032 174.668)" fill="#ff7f0e" id="text_15"><defs><path d="M15.375 61.813H6.594v9.968h8.781zm0-69.532q0-7.468-3.547-10.375Q8.297-21 2-21q-1.797 0-3.703.297v7.61H.594q3.703 0 4.843 1.109 1.157 1.093 1.157 5.296v58.985h8.781z" id="HelveticaWorld-Regular-106"/><path d="M38.375 26.703q-.969-1.015-3.828-1.656-2.86-.625-10.672-1.656-5.766-.688-8.469-2.844-2.703-2.14-2.703-5.656 0-4.297 2.281-6.688 2.297-2.39 7.329-2.39 6.296 0 11.171 3.578 4.891 3.593 4.891 8.718zM6.203 36.375q.297 8.844 5.734 13.14 5.454 4.297 15.844 4.297 8.297 0 13.907-3.765 5.624-3.75 5.624-10.844V9.078Q47.313 6 50.094 6q1.125 0 2.89.39V0Q50.594-.984 48-.984q-4.5 0-6.703 1.921-2.188 1.938-2.281 6.047-7.516-8.5-18.891-8.5-7.422 0-11.922 4.204Q3.72 6.89 3.72 13.624q0 6.89 3.906 11.125Q11.531 29 19 29.89l15.516 1.891q4.203.64 4.203 6.203 0 4.11-3.047 6.297-3.047 2.203-9.25 2.203-5.516 0-8.485-2.437-2.953-2.438-3.53-7.672z" id="HelveticaWorld-Regular-97"/><path d="M39.406 52.297h9.625L29.11 0h-9.437L.594 52.297h10.203L24.422 9.719h.187z" id="HelveticaWorld-Regular-118"/><path d="M36.078 37.406q-.187 4.688-3.344 6.735-3.14 2.047-9.047 2.047-4.296 0-7.359-1.907-3.047-1.89-3.047-5.468 0-2.829 1.797-4.172 1.813-1.344 7.828-2.86l8.688-2.187q7.906-2 11.297-5.11 3.406-3.093 3.406-8.656 0-7.719-5.64-12.531-5.641-4.813-15.063-4.813-11 0-16.64 4.563-5.626 4.578-5.735 13.75h8.5q.203-5.422 3.594-8.063 3.39-2.625 10.171-2.625 5.516 0 8.766 2.188 3.25 2.203 3.25 6.11 0 2.78-2.11 4.437-2.093 1.672-8.296 3.078l-10.203 2.5q-6.203 1.562-9.157 4.656-2.953 3.094-2.953 8.031 0 7.72 5.516 12.203 5.531 4.5 14.406 4.5 9.485 0 14.531-4.624 5.047-4.61 5.344-11.782z" id="HelveticaWorld-Regular-115"/><path d="M39.594 34.719q-1.89 11.187-12.39 11.187-6.5 0-10.454-5.203-3.953-5.203-3.953-14.484 0-10.11 3.656-15.11 3.672-5 10.64-5 4.688 0 8.11 3.438 3.422 3.437 4.39 8.953h8.5q-1.312-9.703-6.859-14.86-5.547-5.156-14.328-5.156-10.297 0-16.89 7.047-6.594 7.063-6.594 19.172 0 13.281 6.594 21.188 6.593 7.922 18.5 7.922 8.687 0 13.843-5.204 5.157-5.203 5.735-13.89z" id="HelveticaWorld-Regular-99"/><path d="M15.375 0H6.594v52.297h8.297v-8.688h.203q5.703 10.203 14.687 10.203 1.422 0 2.297-.296V44.39h-3.266q-5.906 0-9.671-4.016-3.766-4-3.766-9.953z" id="HelveticaWorld-Regular-114"/><path d="M6.594 61.813v9.968h8.781v-9.969zM15.375 0H6.594v52.297h8.781z" id="HelveticaWorld-Regular-105"/></defs><use xlink:href="#HelveticaWorld-Regular-106"/><use x="22.021" xlink:href="#HelveticaWorld-Regular-97"/><use x="74.703" xlink:href="#HelveticaWorld-Regular-118"/><use x="121.938" xlink:href="#HelveticaWorld-Regular-97"/><use x="176.869" xlink:href="#HelveticaWorld-Regular-115"/><use x="226.869" xlink:href="#HelveticaWorld-Regular-99"/><use x="278.139" xlink:href="#HelveticaWorld-Regular-114"/><use x="310.707" xlink:href="#HelveticaWorld-Regular-105"/><use x="332.729" xlink:href="#HelveticaWorld-Regular-112"/><use x="389.223" xlink:href="#HelveticaWorld-Regular-116"/></g><g transform="matrix(.14 0 0 -.14 406.032 204.593)" fill="#2ca02c" id="text_16"><use xlink:href="#HelveticaWorld-Regular-106"/><use x="22.021" xlink:href="#HelveticaWorld-Regular-97"/><use x="74.703" xlink:href="#HelveticaWorld-Regular-118"/><use x="121.938" xlink:href="#HelveticaWorld-Regular-97"/></g><g transform="matrix(.14 0 0 -.14 406.032 218.614)" fill="#d62728" id="text_17"><defs><path d="M22.61 41.5l-2-14.203h12.5L35.015 41.5zM35.89 0h-6.593l2.875 21h-12.5L16.797 0h-6.594l2.89 21H2.782l.938 6.297h10.297L15.922 41.5H5.609l.891 6.297h10.297l2.875 21h6.75l-2.938-21h12.407l2.922 21h6.703l-2.938-21h10.297L52 41.5H41.703l-2-14.203H50L49.125 21H38.812z" id="HelveticaWorld-Regular-35"/></defs><use xlink:href="#HelveticaWorld-Regular-99"/><use x="51.27" xlink:href="#HelveticaWorld-Regular-35"/></g><g transform="matrix(.14 0 0 -.14 406.032 232.614)" fill="#9467bd" id="text_18"><use xlink:href="#HelveticaWorld-Regular-112"/><use x="56.494" xlink:href="#HelveticaWorld-Regular-104"/><use x="111.67" xlink:href="#HelveticaWorld-Regular-112"/></g><g transform="matrix(.14 0 0 -.14 406.032 246.614)" fill="#8c564b" id="text_19"><defs><path d="M25.688 50.484h7.328V28.906h21.578v-7.328H33.016V0h-7.328v21.578H4v7.328h21.688z" id="HelveticaWorld-Regular-43"/></defs><use xlink:href="#HelveticaWorld-Regular-99"/><use x="51.27" xlink:href="#HelveticaWorld-Regular-43"/><use x="109.863" xlink:href="#HelveticaWorld-Regular-43"/></g><use xlink:href="#HelveticaWorld-Regular-114" transform="matrix(.14 0 0 -.14 406.032 260.614)" fill="#e377c2" id="text_20"/><g transform="matrix(.14 0 0 -.14 406.032 274.614)" fill="#7f7f7f" id="text_21"><defs><path d="M41.5 23.688q0 11.125-3.5 16.671-3.484 5.547-10.61 5.547-6.874 0-10.593-4.5-3.703-4.484-3.703-15.093 0-9.422 3.75-14.813 3.765-5.39 10.36-5.39 5.812 0 10.046 4.39 4.25 4.39 4.25 13.188zm8.406-44.391H41.11V5.516h-.187Q35.89-1.516 27-1.516q-10.984 0-17 8.157-6 8.156-6 21.047 0 11.421 5.906 18.765 5.922 7.36 15.875 7.36 9.907 0 15.625-8.891h.203v7.375h8.297z" id="HelveticaWorld-Regular-113"/><path d="M15.375 0H6.594v71.781h8.781z" id="HelveticaWorld-Regular-108"/></defs><use xlink:href="#HelveticaWorld-Regular-115"/><use x="49" xlink:href="#HelveticaWorld-Regular-113"/><use x="105.494" xlink:href="#HelveticaWorld-Regular-108"/></g><use xlink:href="#HelveticaWorld-Regular-99" transform="matrix(.14 0 0 -.14 406.032 288.614)" fill="#bcbd22" id="text_22"/><g transform="matrix(.14 0 0 -.14 406.032 302.566)" fill="#17becf" id="text_23"><defs><path d="M42.484 30.328q-.687 8.485-4.5 12.031-3.797 3.547-10.109 3.547-6.39 0-10.328-4.5-3.922-4.484-4.172-11.078zm8.391-13.922q-1.453-8.11-7.953-13.422-5.719-4.5-15.047-4.593-10.984.093-17.438 7.203Q4 12.704 4 24.704q0 13.78 6.64 21.437 6.641 7.672 18.47 7.672 10.593 0 16.546-7.922 5.953-7.907 5.953-22.594H13.375q0-8.203 3.813-12.703Q21 6.109 28.608 6.109q5.375 0 9.235 3.235 3.86 3.25 4.25 7.062z" id="HelveticaWorld-Regular-101"/></defs><use xlink:href="#HelveticaWorld-Regular-116"/><use x="27.686" xlink:href="#HelveticaWorld-Regular-121"/><use x="77.295" xlink:href="#HelveticaWorld-Regular-112"/><use x="133.789" xlink:href="#HelveticaWorld-Regular-101"/><use x="189.209" xlink:href="#HelveticaWorld-Regular-115"/><use x="239.209" xlink:href="#HelveticaWorld-Regular-99"/><use x="290.479" xlink:href="#HelveticaWorld-Regular-114"/><use x="323.047" xlink:href="#HelveticaWorld-Regular-105"/><use x="345.068" xlink:href="#HelveticaWorld-Regular-112"/><use x="401.563" xlink:href="#HelveticaWorld-Regular-116"/></g><g transform="matrix(.14 0 0 -.14 406.032 316.614)" fill="#aec7e8" id="text_24"><defs><path d="M25.594 0h-8.985L1.516 52.297h9.468L21 11.187h.188l10.109 41.11h9.922l10.203-41.11h.187l10.594 41.11h8.703L55.812 0h-9.234L35.984 40.484h-.187z" id="HelveticaWorld-Regular-119"/><path d="M17.188 45.016V0H8.405v45.016H1.22v7.28h7.187v8.985q0 5.907 3.578 8.703 3.594 2.813 10.032 2.813 2.203 0 3.968-.188v-7.906q-1.562.188-3.578.188-2.922 0-4.078-1.438-1.14-1.437-1.14-4.656v-6.5h8.796v-7.281z" id="HelveticaWorld-Regular-102"/></defs><use xlink:href="#HelveticaWorld-Regular-115"/><use x="48" xlink:href="#HelveticaWorld-Regular-119"/><use x="120.412" xlink:href="#HelveticaWorld-Regular-105"/><use x="142.434" xlink:href="#HelveticaWorld-Regular-102"/><use x="170.119" xlink:href="#HelveticaWorld-Regular-116"/></g><g transform="matrix(.14 0 0 -.14 406.032 330.614)" fill="#ffbb78" id="text_25"><defs><path d="M13.094 26.313q0-9.704 3.844-14.954 3.859-5.25 10.265-5.25 6.094 0 10.188 4.485 4.109 4.5 4.109 13.094 0 11.03-3.5 16.625-3.484 5.593-10.61 5.593-6.78 0-10.546-4.453-3.75-4.437-3.75-15.14zM50.39 0h-8.297v7.172h-.203q-4.97-8.688-15.078-8.688-10.891 0-16.86 8.297Q4 15.094 4 27.688q0 11.625 5.906 18.875 5.922 7.25 15.875 7.25 9.813 0 15.625-8.891l.203.594V71.78h8.782z" id="HelveticaWorld-Regular-100"/></defs><use xlink:href="#HelveticaWorld-Regular-100"/><use x="56.982" xlink:href="#HelveticaWorld-Regular-97"/><use x="111.914" xlink:href="#HelveticaWorld-Regular-114"/><use x="145.982" xlink:href="#HelveticaWorld-Regular-116"/></g><g transform="matrix(.14 0 0 -.14 406.032 344.614)" fill="#98df8a" id="text_26"><defs><path d="M50 0H38.719L22.406 26.422l-7.312-6.594V0h-8.5v71.781h8.5v-41.61l22.5 22.126H48.78L28.813 32.813z" id="HelveticaWorld-Regular-107"/></defs><use xlink:href="#HelveticaWorld-Regular-107"/><use x="47.625" xlink:href="#HelveticaWorld-Regular-111"/><use x="103.533" xlink:href="#HelveticaWorld-Regular-116"/><use x="131.219" xlink:href="#HelveticaWorld-Regular-108"/><use x="153.24" xlink:href="#HelveticaWorld-Regular-105"/><use x="175.262" xlink:href="#HelveticaWorld-Regular-110"/></g><g transform="matrix(.14 0 0 -.14 406.032 358.566)" fill="#ff9896" id="text_27"><defs><path d="M6.11 52.297h8.78V17.578q0-5.765 2.61-8.625Q20.125 6.11 25 6.11q6.781 0 10.594 4.797 3.812 4.813 3.812 12.578v28.813h8.782V0H39.89v7.625l-.188.188q-4.984-9.329-16.61-9.329-7.515 0-12.25 4.094Q6.11 6.688 6.11 14.703z" id="HelveticaWorld-Regular-117"/><path d="M43.406 26.313q0 10.5-3.718 15.046-3.704 4.547-10.579 4.547-6.984-.11-10.562-5.453Q14.984 35.11 14.984 25q0-10.297 4.297-14.594Q23.578 6.11 29.297 6.11q6.5 0 10.297 5.344 3.812 5.344 3.812 14.86zM6.594 0v71.781h8.781V45.703h.203q5.61 8.11 15.14 8.11 9.766 0 15.766-7.25t6-18.876q0-13.093-6.062-21.156Q40.375-1.516 29.5-1.516q-9.578 0-14.406 8.016h-.203V0z" id="HelveticaWorld-Regular-98"/></defs><use xlink:href="#HelveticaWorld-Regular-114"/><use x="32.568" xlink:href="#HelveticaWorld-Regular-117"/><use x="87.354" xlink:href="#HelveticaWorld-Regular-98"/><use x="141.848" xlink:href="#HelveticaWorld-Regular-121"/></g><g transform="matrix(.14 0 0 -.14 406.032 372.593)" fill="#c5b0d5" id="text_28"><defs><path d="M28.906 23.188H4.391v8.984h24.515z" id="HelveticaWorld-Regular-45"/></defs><use xlink:href="#HelveticaWorld-Regular-111"/><use x="55.908" xlink:href="#HelveticaWorld-Regular-98"/><use x="112.402" xlink:href="#HelveticaWorld-Regular-106"/><use x="134.424" xlink:href="#HelveticaWorld-Regular-101"/><use x="189.844" xlink:href="#HelveticaWorld-Regular-99"/><use x="241.113" xlink:href="#HelveticaWorld-Regular-116"/><use x="268.799" xlink:href="#HelveticaWorld-Regular-105"/><use x="290.82" xlink:href="#HelveticaWorld-Regular-118"/><use x="338.43" xlink:href="#HelveticaWorld-Regular-101"/><use x="393.85" xlink:href="#HelveticaWorld-Regular-45"/><use x="427.15" xlink:href="#HelveticaWorld-Regular-99"/></g><g transform="matrix(.09716 0 0 -.09716 45.341 347.399)" fill="#969696" id="text_29"><defs><path d="M50.39 50.781q-.296 6.844-5.109 10.719-4.797 3.875-12.656 3.875-7.922 0-12.172-3.25-4.234-3.234-4.234-9.344 0-3.265 1.843-5.61 1.86-2.343 6.641-3.468l20.516-4.687q8.297-1.813 12.297-6.875 4.015-5.047 4.015-12.313 0-10.64-7.812-16.187-7.813-5.547-20.313-5.547-9.531 0-15.031 2.437-5.484 2.453-9.734 7.766-4.25 5.328-4.25 14.89h9.093q0-8 5.313-12.406 5.328-4.39 14.5-4.39 8.89 0 13.844 3.156 4.953 3.156 4.953 8.953 0 5.281-2.953 7.89Q46.188 29 37.594 31l-15.469 3.625q-7.719 1.75-11.531 6.125Q6.78 45.125 6.78 51.516q0 9.672 6.516 15.922 6.531 6.25 18.203 6.25 13.172 0 20.328-5.5 7.156-5.485 7.688-17.407z" id="HelveticaWorld-Regular-83"/><path d="M63.922 35.89q0 12.594-6.672 20.891-6.656 8.313-18.328 8.313-11.531 0-18.266-8.313-6.734-8.297-6.734-20.89 0-12.985 6.828-21.094 6.844-8.11 18.172-8.11 11.078 0 18.031 7.907 6.969 7.922 6.969 21.297zm9.953 0q0-16.062-9.281-26.937-9.266-10.86-25.672-10.86-16.516 0-25.766 10.86-9.25 10.875-9.25 26.938 0 16.109 9.25 26.953 9.25 10.843 25.766 10.843 16.89 0 25.922-11.046 9.031-11.032 9.031-26.75z" id="HelveticaWorld-Regular-79"/><path d="M44 29.5L33.406 61.078h-.203L21.687 29.5zm-25.297-8.594L11.188 0h-9.97l27 71.781h10.985L65.187 0H54.594l-7.078 20.906z" id="HelveticaWorld-Regular-65"/><path d="M17.828 38.625H37.11q7.282 0 10.938 3.188 3.656 3.203 3.656 9.703 0 5.812-3.516 8.89-3.515 3.078-10.687 3.078H17.828zm0-38.625H8.11v71.781h32.266q9.625 0 15.484-5.594 5.86-5.593 5.86-14.578 0-9.328-5.672-15.312-5.656-5.969-15.672-5.969H17.828z" id="HelveticaWorld-Regular-80"/><path d="M17.828 0H8.11v71.781h9.72z" id="HelveticaWorld-Regular-73"/><path d="M12.984 26.313q0-9.61 3.813-14.907Q20.609 6.11 27.094 6.11q6.312 0 10.312 4.579 4 4.593 4 13 0 11.03-3.5 16.625-3.484 5.593-10.61 5.593-7.171 0-10.75-4.765-3.562-4.766-3.562-14.828zM49.812 2.983q0-12.609-6.062-18.797-6.047-6.203-18.266-6.203-8.78 0-13.984 4.047Q6.297-13.922 5.516-6.39h8.796q.672-3.812 3.532-6.062 2.86-2.25 8.281-2.25 7.375 0 11.125 3.969 3.766 3.953 3.766 12.828v3.719h-.188q-4.937-7.329-13.922-7.329-11.187 0-17.093 8.25-5.907 8.25-5.907 20.953 0 11.625 5.953 18.875 5.97 7.25 15.829 7.25 9.906 0 15.625-8.89h.187v7.375h8.313z" id="HelveticaWorld-Regular-103"/><path d="M9.422 73.688h7.281V-1.906H9.422z" id="HelveticaWorld-Regular-124"/><path d="M55.61 71.781h9.374V0h-10.78L17.577 58.016h-.187V0H8.109v71.781h11.375l35.938-57.969h.187z" id="HelveticaWorld-Regular-78"/><path d="M12.703 26.219q0-8.735 3.953-14.375 3.953-5.64 11.219-5.64 7.531 0 11.438 5.905 3.906 5.907 3.906 14.11 0 8.297-3.907 14.078-3.906 5.797-11.437 5.797-6.969 0-11.078-5.453-4.094-5.438-4.094-14.422zm-8.984 0q0 11.672 6.484 19.625 6.5 7.968 17.672 7.968 11.438 0 17.875-8.062 6.453-8.047 6.453-19.531 0-11.516-6.406-19.625-6.39-8.11-17.922-8.11-11.078 0-17.625 7.86-6.531 7.86-6.531 19.875zm36.734 35.406H31.47v10.156h8.984zm-16.219 0H15.25v10.156h8.984z" id="HelveticaWorld-Regular-246"/><path d="M6.594 52.297h8.297v-7.375h.203q5.906 8.89 15.812 8.89 9.813 0 13.922-8.5 3.75 4.594 7.266 6.547 3.515 1.953 8.703 1.953 6.781 0 11.484-4.453Q77 44.922 77 36.187V0h-8.781v33.797q0 6.094-2.297 9.094-2.297 3.015-7.422 3.015-5.172 0-8.75-4.203-3.563-4.203-3.563-9.812V0h-8.78v36.188q0 4.53-2.11 7.124-2.094 2.594-6.094 2.594-6.297 0-10.062-4.687-3.766-4.688-3.766-12.703V0H6.594z" id="HelveticaWorld-Regular-109"/><path d="M58.016 50.203q-1.625 7.313-6.782 11.094-5.14 3.797-13.343 3.797-10.594 0-17.047-7.703-6.438-7.688-6.438-20.766 0-15.14 6.094-22.547 6.11-7.39 17.688-7.39 7.609 0 13.093 5.046 5.5 5.063 7.407 14.688h9.421Q66.22 12.594 57.625 5.344t-20.906-7.25q-14.703 0-23.516 10.11Q4.391 18.311 4.391 36.28q0 17.328 9.203 27.36 9.203 10.047 24.297 10.047 12.5 0 20.265-6.454 7.766-6.437 9.235-17.03z" id="HelveticaWorld-Regular-67"/><path d="M8.11 71.781h31.484q9.281 0 14.797-5.031 5.515-5.031 5.515-13.031 0-4.844-2.422-8.828-2.406-3.97-7.187-6.172 6.687-2.532 9.828-6.735 3.156-4.203 3.156-10.797 0-9.265-6.687-15.234Q49.906 0 38.922 0H8.109zm9.562-63.484h20.703q7.625 0 11.422 3.531 3.812 3.547 3.812 9.563 0 6.093-4.25 9.093Q45.125 33.5 36.812 33.5h-19.14zm0 33.11h17.625q7.719 0 11.312 2.796 3.594 2.813 3.594 8.781 0 5.125-3.406 7.813-3.39 2.687-11.39 2.687H17.671z" id="HelveticaWorld-Regular-66"/><path d="M37.313 0h-9.72v28.906L.485 71.781h11.329l20.609-34.469 20.562 34.47h11.422L37.312 28.905z" id="HelveticaWorld-Regular-89"/></defs><use xlink:href="#HelveticaWorld-Regular-83"/><use x="66.211" xlink:href="#HelveticaWorld-Regular-116"/><use x="93.896" xlink:href="#HelveticaWorld-Regular-97"/><use x="148.828" xlink:href="#HelveticaWorld-Regular-99"/><use x="200.098" xlink:href="#HelveticaWorld-Regular-107"/><use x="250.098" xlink:href="#HelveticaWorld-Regular-79"/><use x="327.881" xlink:href="#HelveticaWorld-Regular-118"/><use x="375.49" xlink:href="#HelveticaWorld-Regular-101"/><use x="430.91" xlink:href="#HelveticaWorld-Regular-114"/><use x="464.979" xlink:href="#HelveticaWorld-Regular-102"/><use x="492.664" xlink:href="#HelveticaWorld-Regular-108"/><use x="514.686" xlink:href="#HelveticaWorld-Regular-111"/><use x="569.094" xlink:href="#HelveticaWorld-Regular-119"/><use x="641.506" xlink:href="#HelveticaWorld-Regular-32"/><use x="665.92" xlink:href="#HelveticaWorld-Regular-65"/><use x="732.619" xlink:href="#HelveticaWorld-Regular-80"/><use x="797.268" xlink:href="#HelveticaWorld-Regular-73"/><use x="823.049" xlink:href="#HelveticaWorld-Regular-32"/><use x="847.463" xlink:href="#HelveticaWorld-Regular-118"/><use x="897.072" xlink:href="#HelveticaWorld-Regular-105"/><use x="919.094" xlink:href="#HelveticaWorld-Regular-97"/><use x="974.025" xlink:href="#HelveticaWorld-Regular-32"/><use x="998.439" xlink:href="#HelveticaWorld-Regular-115"/><use x="1048.439" xlink:href="#HelveticaWorld-Regular-116"/><use x="1076.125" xlink:href="#HelveticaWorld-Regular-97"/><use x="1131.057" xlink:href="#HelveticaWorld-Regular-99"/><use x="1182.326" xlink:href="#HelveticaWorld-Regular-107"/><use x="1232.326" xlink:href="#HelveticaWorld-Regular-116"/><use x="1260.012" xlink:href="#HelveticaWorld-Regular-97"/><use x="1314.943" xlink:href="#HelveticaWorld-Regular-103"/><use x="1370.852" xlink:href="#HelveticaWorld-Regular-115"/><use x="1420.852" xlink:href="#HelveticaWorld-Regular-32"/><use x="1445.266" xlink:href="#HelveticaWorld-Regular-124"/><use x="1471.242" xlink:href="#HelveticaWorld-Regular-32"/><use x="1495.656" xlink:href="#HelveticaWorld-Regular-78"/><use x="1568.752" xlink:href="#HelveticaWorld-Regular-105"/><use x="1590.773" xlink:href="#HelveticaWorld-Regular-99"/><use x="1642.043" xlink:href="#HelveticaWorld-Regular-111"/><use x="1697.951" xlink:href="#HelveticaWorld-Regular-32"/><use x="1722.365" xlink:href="#HelveticaWorld-Regular-83"/><use x="1788.576" xlink:href="#HelveticaWorld-Regular-99"/><use x="1839.846" xlink:href="#HelveticaWorld-Regular-104"/><use x="1895.021" xlink:href="#HelveticaWorld-Regular-108"/><use x="1917.043" xlink:href="#HelveticaWorld-Regular-246"/><use x="1972.951" xlink:href="#HelveticaWorld-Regular-109"/><use x="2055.959" xlink:href="#HelveticaWorld-Regular-101"/><use x="2111.379" xlink:href="#HelveticaWorld-Regular-114"/><use x="2143.947" xlink:href="#HelveticaWorld-Regular-32"/><use x="2168.361" xlink:href="#HelveticaWorld-Regular-124"/><use x="2194.338" xlink:href="#HelveticaWorld-Regular-32"/><use x="2218.752" xlink:href="#HelveticaWorld-Regular-67"/><use x="2291.066" xlink:href="#HelveticaWorld-Regular-67"/><use x="2363.381" xlink:href="#HelveticaWorld-Regular-32"/><use x="2387.795" xlink:href="#HelveticaWorld-Regular-66"/><use x="2450.607" xlink:href="#HelveticaWorld-Regular-89"/></g><g transform="matrix(.14 0 0 -.14 87.834 17.516)" fill="#969696" id="text_30"><defs><path d="M17.828 8.297h18.797q9.766 0 15.281 7.5 5.516 7.5 5.516 20.484 0 12.844-5.563 19.969-5.562 7.125-16.062 7.234H17.828zM8.11 71.78h29.094q14.11 0 22.094-9.703 7.984-9.687 7.984-25.156 0-16.61-7.984-26.766Q51.313 0 36.813 0H8.108z" id="HelveticaWorld-Regular-68"/></defs><use xlink:href="#HelveticaWorld-Regular-68"/><use x="72.021" xlink:href="#HelveticaWorld-Regular-97"/><use x="126.953" xlink:href="#HelveticaWorld-Regular-105"/><use x="148.975" xlink:href="#HelveticaWorld-Regular-108"/><use x="170.996" xlink:href="#HelveticaWorld-Regular-121"/><use x="220.605" xlink:href="#HelveticaWorld-Regular-32"/><use x="245.02" xlink:href="#HelveticaWorld-Regular-110"/><use x="300.195" xlink:href="#HelveticaWorld-Regular-117"/><use x="354.98" xlink:href="#HelveticaWorld-Regular-109"/><use x="437.988" xlink:href="#HelveticaWorld-Regular-98"/><use x="494.482" xlink:href="#HelveticaWorld-Regular-101"/><use x="549.902" xlink:href="#HelveticaWorld-Regular-114"/><use x="582.471" xlink:href="#HelveticaWorld-Regular-32"/><use x="606.885" xlink:href="#HelveticaWorld-Regular-111"/><use x="662.793" xlink:href="#HelveticaWorld-Regular-102"/><use x="690.479" xlink:href="#HelveticaWorld-Regular-32"/><use x="714.893" xlink:href="#HelveticaWorld-Regular-113"/><use x="771.387" xlink:href="#HelveticaWorld-Regular-117"/><use x="826.172" xlink:href="#HelveticaWorld-Regular-101"/><use x="881.592" xlink:href="#HelveticaWorld-Regular-115"/><use x="931.592" xlink:href="#HelveticaWorld-Regular-116"/><use x="959.277" xlink:href="#HelveticaWorld-Regular-105"/><use x="981.299" xlink:href="#HelveticaWorld-Regular-111"/><use x="1037.207" xlink:href="#HelveticaWorld-Regular-110"/><use x="1092.383" xlink:href="#HelveticaWorld-Regular-115"/><use x="1142.383" xlink:href="#HelveticaWorld-Regular-32"/><use x="1166.797" xlink:href="#HelveticaWorld-Regular-111"/><use x="1222.705" xlink:href="#HelveticaWorld-Regular-110"/><use x="1277.881" xlink:href="#HelveticaWorld-Regular-32"/><use x="1302.295" xlink:href="#HelveticaWorld-Regular-83"/><use x="1368.506" xlink:href="#HelveticaWorld-Regular-116"/><use x="1396.191" xlink:href="#HelveticaWorld-Regular-97"/><use x="1451.123" xlink:href="#HelveticaWorld-Regular-99"/><use x="1502.393" xlink:href="#HelveticaWorld-Regular-107"/><use x="1552.393" xlink:href="#HelveticaWorld-Regular-79"/><use x="1630.176" xlink:href="#HelveticaWorld-Regular-118"/><use x="1677.785" xlink:href="#HelveticaWorld-Regular-101"/><use x="1733.205" xlink:href="#HelveticaWorld-Regular-114"/><use x="1767.273" xlink:href="#HelveticaWorld-Regular-102"/><use x="1794.959" xlink:href="#HelveticaWorld-Regular-108"/><use x="1816.98" xlink:href="#HelveticaWorld-Regular-111"/><use x="1871.389" xlink:href="#HelveticaWorld-Regular-119"/></g><path clip-path="url(#pb88c17ac01)" d="M129.875 313.628l2.438-.014 2.44-.112 2.436.097 2.438.001 2.478-.028 2.399-.026 2.396.054 2.44-.146 2.438.013 2.438-.02 2.438-.057 2.478-.056 2.438.055 2.44-.328 2.436.017 2.438-.06 2.478-.098 2.359.04 2.356.037 2.44-.528 2.438.297 2.438-.13 2.438.186 2.478.042 2.438.069 2.44-.11 2.436-.455 2.439-.583 2.478-.168 2.358-.045 2.356.388 2.44.147 2.438.323 2.438-.2 2.438.053h2.478l2.438.056 2.44-.078 2.437.143 2.438.215 2.478.217 2.358-.162 2.356.148 2.44-.128 2.438.177 2.438.178 2.438-.094 2.478.246 2.438-.007 2.44-.084 2.437-.09 2.438.279 2.478-.147 2.398-.086 2.396.156 2.44.051 2.438.096 2.438-.19 2.438.134 2.478-.14 2.439.064 2.44.118 2.436-.06 2.438-.038h2.478l2.358-.025 2.357-.017 2.44.03 2.437-.367 2.438-.01 2.439.031 2.478.105 2.438.11 2.44-.124 2.436.153 2.438-.012 2.478.056 2.358-.35 2.357-1.29 2.44-.345 2.437-.356 2.439-.354 2.438-.354 2.478-.19 2.438.153 2.44-.202 2.436.238 2.438-.539 2.478-1.962 2.358.405 2.357.33 2.44-.979 2.438-.24 2.438.197 2.438-1.473 2.478-.294 2.438.144 2.44.354 2.436-.281 2.438-.322 2.478-.904 2.398-.602 2.397.356 2.44-4.989 2.438-1.985 2.438.646 2.438.89 2.478.097 2.438 1.432 2.44-.05 2.436.658 2.438.512" fill="none" stroke="#ffbb78" stroke-linecap="square" stroke-width="1.5" id="line2d_24"/><path clip-path="url(#pb88c17ac01)" d="M52.096 313.628l41.248-.007 116.788-.063 2.438-17.392 2.438 5.925 2.478-.413 2.438-1.876 2.44-3.493 2.437-1.309 2.438 1.078 4.836-7.67 2.356-.082 2.44-3.973 2.438 2.543 4.876-9.504 2.478.532 2.438 2.605 2.44 2.848 2.437-1.138 2.438.592 2.478-2.93 2.398-2.004 2.396-.022 2.44 1.14 2.438 3.437 2.438-3.762 4.916.363 2.439-.863 2.44 2.166 2.436 1.55 2.438 4.03 2.478-2.811 2.358-1.103 2.357-.888 2.44 3.994 2.437-.356 2.438-1.628 2.439-.09 2.478 1.087 2.438 2.009 2.44.01 2.436.721 2.438 4.115 2.478-3.82 2.358-.211 2.357-1.969 2.44 2.515 2.437.611 2.439 2.482 2.438-4.893 2.478-.532 2.438 2.991 2.44-.18 2.436 1.426 2.438 2.344 2.478-1.1 2.358-.599 2.357.192 2.44-2.206 2.438.152 2.438-1.89 2.438-.843 2.478 4.549 2.438-.527 2.44-3.665 2.436.203 2.438 3.33 7.273-3.56 2.44-4.992 2.438.576 2.438 2.003 2.438 2.265 2.478 2.74 2.438 1.115 2.44 2.334 2.436.737 2.438 1.983h0" fill="none" stroke="#aec7e8" stroke-linecap="square" stroke-width="1.5" id="line2d_25"/><path clip-path="url(#pb88c17ac01)" d="M161.57 313.628l2.44-1.941 2.436.906 2.438.468 2.478-.106 2.359.13 2.356-.27 2.44.132 2.438.149 2.438-.149 2.438-.076 2.478.007 2.438.127 2.44.049 2.436-.078 2.439-.203 2.478-.175 2.358.107 2.356.09 2.44-.18 2.438.046 2.438.2 2.438-.361 2.478.273 2.438.022 2.44-.162 2.437.22 2.438-.066 2.478-.154 2.358-.006 2.356-.106 2.44-.16 2.438-.464 2.438-.145 2.438-.15 2.478-.055 2.438-.092 2.44-.182 2.437-.585 2.438-.585 2.478-.82 2.398-1.26 2.396-.282 2.44-.928 2.438-.642 2.438-.568 2.438-.967 2.478-.631 2.439-.169 2.44-.665 2.436.245 2.438.414 2.478-1.108 2.358-1.168 2.357-.794 2.44.266 2.437-.82 2.438-.208 2.439-.037 2.478-.933 2.438 1.042 2.44.542 2.436-1.462 2.438 2.29 2.478-1.613 2.358-1.494 2.357-.37 2.44.39 2.437.451 2.439-.414 2.438-.756 2.478-1.83 2.438.956 2.44-1.32 2.436 1.545 2.438 1.181 2.478-2.74 2.358-2.338 2.357 1.644 2.44-1.065 2.438.7 2.438.343 2.438-1.927 2.478 1.767 2.438-.752 2.44-.86 2.436-2.073 2.438 2.949 2.478-.61 2.398-2.48 2.397-.772 2.44-5.063 2.438.661 2.438.831 2.438.403 2.478 2.922 2.438-.826 2.44.616 2.436 1.34 2.438 1.576" fill="none" stroke="#17becf" stroke-linecap="square" stroke-width="1.5" id="line2d_26"/><path clip-path="url(#pb88c17ac01)" d="M45.341 310.206l1.88 1.299 2.437.247 2.438.58 2.478-.954 2.358-.326 2.357-.445 2.44-.303 2.437-.04 2.439-.3 2.438-.135 2.478.07 2.438-.414 2.44-1.282 2.436-1.586 2.438 1.047 2.478-.926 2.358-1.134 2.357.188 2.44-.754 2.438.32 2.438-.131 4.916-1.208 2.438-.422 2.44-.097 2.436-2.01 2.438 1.842 2.478.028 2.358-2.474 2.357-2.047 2.44-.015 2.438 1.999 2.438-.014 2.438 1.191 4.916-2.27 2.44-1.115 2.436-.95 2.438 1.861 2.478-1.57 2.399-2.444 2.396-1.124 2.44-.127 2.438 1.908 2.438.627 2.438.116 2.478.385 2.438-2.043 2.44-3.74 2.436-1.033 2.438 5.078 2.478-2.37 2.359-3.756 2.356-.098 2.44-1.52 2.438 3.258 2.438 1.088 2.438.23 2.478.077 2.438-3.537 2.44-5.133 2.436-1.32 2.439 6.5 2.478-1.683 2.358-4.645 2.356-1.242 2.44 2.982 2.438 6.214 2.438 2.817 2.438.182 2.478 1.143 2.438-4.693 2.44-3.262 2.437.025 2.438 4.587 2.478-.407 2.358-3.65 2.356-1.277 2.44-1.165 2.438 3.961 2.438 1.732 2.438 3.23 2.478 1.676 2.438-4.363 2.44-3.417 2.437-.415 2.438 4.578 2.478.274 2.398-3.197 2.396.309 2.44-.052 2.438 5.232 2.438 2.402 2.438.254 2.478.911 2.439-2.678 2.44-4.359 2.436-1.131 2.438 4.068 2.478.26 2.358-1.844 2.357.343 2.44.12 2.437 1.527 2.438 2.087 2.439 2.757 2.478.007 2.438-.859 2.44-4.398 2.436-1.845 2.438 6.022 2.478-.182 2.358-1.032 2.357-.783 2.44 1.443 2.437-.742 2.439 3.393 2.438 1.758 2.478-.729 2.438-1.68 2.44-4.137 2.436-1.122 2.438 2.79 2.478-.568 2.358.113 2.357-.905 2.44-1.278 2.438 2.897 2.438 1.543 2.438.034 2.478 1.486 2.438-4.374 2.44-3.686 2.436-1.058 2.438 4.149 2.478.736 2.398-.17 2.397-3.279 2.44-7.346 2.438.33 2.438 6.11 2.438 4.565 2.478 1.633 2.438-3.171 2.44-1.51 2.436-3.27 2.438 2.218h0" fill="none" stroke="#bcbd22" stroke-linecap="square" stroke-width="1.5" id="line2d_27"/><path clip-path="url(#pb88c17ac01)" d="M45.341 308.481l1.88 1.404 2.437.738 2.438.012 4.836-2.19 2.357.557 2.44-.77 2.437-.526 2.439-.777 2.438-.927 2.478.358 2.438-2.553 2.44-.538 2.436 1.545 2.438.495 2.478-.484 2.358-1.207 2.357-.237 2.44.65 2.438-.566 2.438-1.62 2.438-1.064 2.478-.568 2.438.813 2.44-.385 2.436-1.324 2.438 1.036 2.478-3.224 2.358-.06 2.357-2.078 2.44 1.986 2.438-2.378 2.438-.25 2.438.51 4.916-.04 2.44.55 2.436-2.346 2.438 2.41 2.478-1.521 2.399-3.99 2.396-1.673 2.44 1.153 2.438-.488 2.438.705 2.438-2.226 2.478.225 2.438-.215 2.44-2.659 2.436-2.448 2.438 4.081 2.478-5.502 2.359-2.912 2.356-1.237 2.44.16 2.438 1.62 2.438.669 2.438-3.578 2.478.225 4.878-10.276 2.436.397 2.439 3.795 2.478-5.706 2.358-4.584 2.356-.336 2.44-2.39 2.438 9.16 2.438 1.415 2.438-1.968 2.478 4.556 2.438-2.393 2.44 7.804 2.437 7.218 2.438 1.564 2.478-1.857 2.358-2.628 2.356-1.115 2.44-.44 2.438 2.627 2.438-1.584 2.438.245 2.478 2.769 4.878.203 2.437-.53 2.438 2.037 2.478-1.745 2.398-3.646 2.396-.854 2.44-.087 2.438 1.832 2.438-1.926 2.438 5.353 2.478-.651 2.439.027 2.44-.946 2.436-2.002 2.438 5.1 2.478-1.493 2.358-3.733 2.357-3.212 2.44 3.454 2.437-1.934 2.438 1.08 2.439 1.269 2.478 1.5 2.438 1.62 2.44-1.656 2.436-1.118 2.438 7.048 2.478-3.462 2.358-2.338 2.357-1.363 2.44-.964 2.437.711 2.439 1.49 2.438-.852 2.478.568 2.438 3.746 2.44-3.585 2.436.696 2.438 5.507 2.478-3.4 2.358-4.86 2.357.165 2.44 1.421 4.876 4.252 2.438-4.608 2.478 4.437 2.438-3.226 2.44-2.83 2.436-1.421 2.438 4.919 2.478-1.991 2.398-3.556 2.397.486 2.44-5.196 2.438 1.586 2.438 1.905 2.438 3.128 2.478 3.953 2.438-2.815 2.44-.458 2.436-.332 2.438 3.843h0" fill="none" stroke="#7f7f7f" stroke-linecap="square" stroke-width="1.5" id="line2d_28"/><path clip-path="url(#pb88c17ac01)" d="M45.341 313.547l1.88.081 19.384-.036 2.438-.321 2.478.028 2.438-.677 2.44.495 2.436-.17 2.438.12 2.478-.098 2.358-.287 2.357-.028 2.44-.185 2.438.185 7.354-1.01 4.878.484 2.436-.252 2.438.19 2.478-.19 2.358-.746 4.797-.95 2.438.448 2.438-.215 2.438.033 2.478-.932 2.438-.318 2.44.08 2.436-.051 2.438.1 2.478-.533 2.399-1.263 2.396-.146 2.44.11 2.438-.047 4.876-1.696 2.478.224 2.438-.023 2.44-1.21 2.436-.876 2.438 1.22 2.478-2.061 2.359-2.394 2.356-.01 2.44-.369 2.438.831 2.438-.353 2.438-.972 2.478.35 2.438 1.071 2.44-2.29 2.436-1.143 2.439 2.489 2.478-3.14 2.358-3.82 2.356.533 2.44-.074 2.438 1.665 2.438.804 2.438-1.162 2.478 1.136 2.438.193 2.44-2.317 2.437-.146 2.438 3.11 2.478-2.382 2.358-4.162 2.356-1.908 2.44.881 2.438.08 2.438-.84 2.438-3.044 2.478 3.435 2.438.333 2.44-1.686 2.437.158 2.438 3.374 2.478-2.55 2.398-2.154 4.836-3.009 2.438 3.389 2.438-1.383 2.438 1.72 2.478-.274 2.439 2.69 2.44-2.662 2.436.743 2.438 3.715 2.478-2.446 2.358-4.094 2.357-3.722 2.44 1.426 2.437.593 2.438-2.027 4.917.226 2.438 1.454 2.44-1.286 2.436-.857 2.438 6.717 2.478-3.372 2.358-5.593 2.357-.743 2.44 1.354 2.437 1.218 2.439.556 2.438.37 2.478.245 2.438 1.529 2.44-3.597 2.436-.676 2.438 8.21 2.478-5.144 2.358-6.38 2.357 1.95 2.44-2.612 2.438 3.496 2.438 1.617 2.438-3.58 2.478 3.498 2.438-.852 2.44-4.013 2.436.42 2.438 6.526 2.478-2.936 2.398-6.835 2.397-1.5 2.44-11.051 2.438 3.363 2.438 2.83 2.438 6.296 2.478 3.35 2.438-3.454 2.44-1.719 2.436.59 2.438 6.118h0" fill="none" stroke="#e377c2" stroke-linecap="square" stroke-width="1.5" id="line2d_29"/><path clip-path="url(#pb88c17ac01)" d="M45.341 305.385l1.88 2.545 2.437.368 2.438.894 2.478-1.542 2.358-.587 2.357-.836 2.44-.008 2.437-1.142 2.439-.531 2.438-1.2 2.478.449 2.438-.785 2.44-1.22 2.436-.887L81.273 302l2.478-2.418 2.358-3.623 2.357.574 2.44-.96 2.438 1.08 2.438-3.507 2.438 1.642 2.478.33 2.438-1.364 2.44-.704 2.436-3.859 2.438 2.408 2.478-2.558 2.358-2.24 2.357-2.562 2.44-.907 2.438 2.954 2.438-.397 2.438.698 2.478-.75 2.438-.868L137.19 281l2.438 1.95 2.478-1.339 2.399-6.426 2.396 1.47 2.44-1.739 2.438 3.527 2.438 1.246 2.438-3.25 2.478.917 2.438.595 2.44-5.837 2.436-4.078 2.438 5.62 2.478-2.615 2.359-4.958 2.356-3.172 2.44-1.387 2.438 3.91 2.438 3.065 2.438-1.137 2.478 2.278 2.438-3.734 2.44-8.525 2.436-2.99 2.439 9.824 2.478-4.774 2.358-5.72 2.356-1.155 2.44 1.875 2.438 11.245 2.438 6.47 2.438-2.818 2.478 2.734 2.438-3.732 2.44-2.969 2.437.31 2.438 5.024 2.478-.456 2.358-7.076 2.356-1.559 2.44.005 2.438 3.948 2.438.643 2.438.184 2.478 5.846 2.438-1.633 2.44-6.589 2.437-1.987 2.438 5.394 2.478 3.245 2.398-6.41 2.396-.242 2.44-.632 2.438 7.032 2.438 1.529 4.916 6.398 2.439-2.19 2.44-4.665 2.436-2.238 2.438 7.48 2.478-2.964 2.358-.585 2.357-3.501 2.44 1.135 2.437 5.39 2.438 3.243 2.439-1.287 2.478 1.696 2.438 1.134 2.44-4.211 2.436.09 2.438 5.195 4.836-4.259 2.357-.893 2.44 2.528 2.437.941 2.439 3.296 2.438 1.211 2.478-.77 2.438.413 2.44-3.519 2.436-1.536 2.438 6.85 2.478-2.398 2.358-1.987 2.357-2.751 2.44-1.597 2.438 3.749 2.438 1.35 2.438-5.871 2.478 7.927 2.438-5.315 2.44-7.624 2.436-.401 2.438 6.317 2.478.28 2.398-2.569 2.397-3.332 2.44-14.19 2.438 1.202 2.438 5.824 2.438 5.306 2.478 3.94 2.438 3.277 2.44-2.338 2.436-1.262 2.438 1.626h0" fill="none" stroke="#8c564b" stroke-linecap="square" stroke-width="1.5" id="line2d_30"/><path clip-path="url(#pb88c17ac01)" d="M45.341 308.414l1.88.869 2.437.695 2.438.286 2.478-1.1 2.358-1.503 2.357-.376 2.44-.668 2.437-1.287 2.439-3.152 2.438-2.813 4.916-2.178 2.44-.15 2.436-2.913 2.438-.338 2.478-4.31 2.358-.447 2.357-1.74 2.44-.147 2.438-1.522 2.438-1.694 2.438-2.644 2.478-3.827 2.438 2.111 2.44 2.297 2.436-5.411 2.438-.715 4.836-14.504 2.357-4.84 2.44 1.394 2.438-1.29 2.438-1.476 2.438-2.792 2.478-1.717 2.438 4.132 2.44 1.91 2.436-6.372 2.438 4.48 2.478-6.975 2.399-9.365 2.396-2.01 2.44.979 2.438-1.113 2.438.106 2.438-5.86 2.478-.87 2.438 3.934 2.44-3.204 2.436-2.619 2.438 7.742 2.478-13.008 2.359-8.184 2.356-1.377 2.44 2.08 2.438 5.336 2.438-.092 2.438-8.452 2.478.182 2.438-2.913 2.44-4.341 2.436-.36 2.439 6.843 2.478-17.256 2.358-10.698 2.356-.278 2.44.342 2.438 24.855 2.438 9.352 2.438-5.742 2.478 7.717 2.438-4.155 2.44 1.288 2.437 1.139 2.438 7.833 2.478-8.797 2.358-9.234 2.356.088 2.44-3.948 2.438 6.527 2.438-1.986 2.438-3.81 2.478 8.095 2.438 1.907 2.44.399 2.437 1.086h2.438l2.478-5.761 2.398-9.771 2.396 5.86 2.44 1.09 2.438 3.788 2.438 2.411 2.438 8.481 2.478.344 2.439 2.27 2.44 1.998 2.436-.57 2.438 6.191 2.478-8.158 2.358-8.717 2.357-1.551 2.44 8.635 2.437-1.402 2.438 6.124 2.439 2.728 2.478 1.024 2.438 4.194 2.44 1.546 2.436-.779 2.438 12.778 2.478-7.107 2.358.016 2.357 1.947 2.44 4.114 2.437-1.402 2.439 5.103 2.438-2.95 2.478-1.851 2.438 4.062 2.44-2.289 2.436 5.157 2.438 9.688 2.478-8.053 2.358-6.985 2.357 2.127 2.44 1.775 2.438 3.594 2.438 1.83 2.438-9.287 2.478 8.579 2.438-.472 2.44-2.942 2.436-2.258 2.438 10.571 2.478-6.056 2.398-2.936 2.397 1.78 2.44-13.289 2.438 4.135 2.438 4.882 2.438 4.188 2.478 8.586 2.438-.671 2.44 3.594 2.436-1.617 2.438 2.934h0" fill="none" stroke="#9467bd" stroke-linecap="square" stroke-width="1.5" id="line2d_31"/><path clip-path="url(#pb88c17ac01)" d="M45.341 296.232l1.88 3.448 4.875 2.776 2.478-5.474 2.358-3.506 2.357-2.01 2.44-1.898 2.437-.906 2.439-3.179 2.438-2.758 4.916-.668 2.44-1.567 2.436-.757 2.438 2.376 2.478-4.367 2.358-3.752 2.357-2.703 2.44.435 2.438.21 2.438-2.933 2.438-2.282 2.478-1.956 2.438 2.435 2.44-.879 2.436-5.749 2.438 3.177 2.478-6.336 2.358-7.878 2.357-6.266 2.44 2.796 2.438-3.09 2.438-.487 2.438 3.43 2.478-3.154 2.438 3.142 2.44 2.809 2.436-7.162 2.438 6.468 4.877-15.666 2.396-.806 2.44.842 2.438-.554 2.438-.728 2.438-4.438 2.478 2.804 2.438 2.228 2.44-7.57 2.436.588 2.438 11.854 2.478-13.044 2.359-8.133 2.356-2.493 2.44-.714 2.438 6.3 2.438 1.848 2.438-6.83 2.478 2.55 2.438-2.687 2.44-6.803 2.436.726 2.439 10.335 2.478-12.12 2.358-9.799 2.356 3.639 2.44 2.535 2.438 13.467 2.438 6.813 2.438-5.264 2.478 8.445 2.438-1.726 2.44 1.236 2.437 2.147 2.438 8.142 2.478-4.549 2.358-9.09 2.356-1.451 2.44-1.896 2.438 1.118 2.438-4.406 2.438-.88 2.478 6.323 2.438-.728 2.44 3.889 2.437-.065 2.438 4.53 2.478-1.409 2.398-8.922 2.396.028 2.44-4.055 2.438 4.847 2.438-.038 2.438 10.544 2.478-5.025 2.439 8.727 2.44.202 2.436-4.149 2.438 9.497 2.478-7.1 2.358-7.385 2.357-1.762 2.44 10.857 2.437-3.848 2.438 2.139 2.439 3.342 2.478 1.787 2.438 5.199 2.44-.075 2.436.596 2.438 10.71 2.478-5.502 2.358-.792 2.357-2.138 2.44 1.814 2.437-2.795 2.439 6.12 2.438-6.26 2.478-3.344 2.438 5.932 2.44-5.168 2.436 4.06 2.438 9.72 2.478-9.645 2.358-4.83 2.357 2.7 2.44-4.717 2.438 3.28 2.438 5.172 2.438-9.525 2.478 8.944 2.438-3.96 2.44-3.638 2.436.581 2.438 12.456 2.478-6.182 2.398-5.106 2.397 1.685 2.44-10.907 4.876 10.488 2.438 3.118 2.478 5.32 2.438 2.288 2.44 3.795 2.436-.05 2.438 5.216h0" fill="none" stroke="#d62728" stroke-linecap="square" stroke-width="1.5" id="line2d_32"/><path clip-path="url(#pb88c17ac01)" d="M45.341 300.89l1.88 4.664 4.875 2.236 2.478-2.243 2.358-1.293 2.357-.726 2.44-1.017 2.437-1.66 2.439-2.577 2.438-.528 2.478.504 2.438-1.04 2.44-1.174 2.436-2.426 2.438 1.157 2.478-7.31 2.358-1.664 2.357-3.39 2.44 3.008 2.438-1.102 2.438-1.824 2.438-.594 2.478-1.324 4.878-2.257 2.436-5.364 2.438.8 2.478-6.16 2.358-7.603 2.357-6.114 2.44 2.238 2.438-2.827 2.438 2.733 2.438.162 2.478-3.757 2.438.618 2.44.336 2.436-9.954 2.438 5.293 2.478-6.666 2.399-11.365 2.396-4.868 2.44-.139 2.438 1.786 2.438 5.095 2.438-5.396 2.478.154 2.438 1.758 2.44-10.491 2.436-4.009 2.438 11.543 2.478-9.315 2.359-10.94 2.356-4.83 2.44-5.984 2.438 10.49 2.438 6.183 2.438-5.348 2.478 1.072 2.438-12.325 2.44-13.797 2.436-4.534 2.439 13.709 2.478-8.713 2.358-18.868 2.356-4.633 2.44 2.832 2.438 25.513 2.438 10.664 2.438-6.382 2.478 11.579 2.438-10.962 2.44-4.409 2.437-3.833 2.438 14.6 2.478-1.164 2.358-14.063 2.356-8.528 2.44-4.845 2.438 13.635 2.438.626 2.438-1.832 2.478 11.481 2.438-3.073 2.44-7.21 2.437 1.097 2.438 12.908 2.478-.694 2.398-17.096 2.396-6.013 2.44-1.591 2.438 21.693 2.438 4.28 2.438 10.677 2.478-1.605 2.439.096 2.44-1.266 2.436-5.933 2.438 16.411 2.478-5.095 2.358-11.005 2.357-8.48 2.44 6.112 2.437.855 2.438 8.64 2.439 6.737 2.478 3.042 2.438 3.772 2.44-5.825 2.436-4.763 2.438 18.928 2.478-2.376 2.358-6.853 2.357-1.656 2.44-2.713 2.437 3.161 2.439 9.137 2.438-4.356 2.478.371 2.438 1.03 2.44-12.399 2.436 3.259 2.438 13.528 2.478-5.229 2.358-8.758 2.357-.697 2.44 2.829 2.438 3.416 2.438 5.594 2.438-13.85 2.478 15.72 2.438-7.454 2.44-11.841 2.436 2.78 2.438 16.06 2.478-6.014 2.398-6.969 2.397-7.827 2.44-22.49 2.438 11.17 2.438 12.586 2.438 7.678 2.478 10.689 2.438-1.317 2.44 1.611 2.436.047 2.438 11.868h0" fill="none" stroke="#2ca02c" stroke-linecap="square" stroke-width="1.5" id="line2d_33"/><path clip-path="url(#pb88c17ac01)" d="M45.341 306.92l1.88 1.62 2.437.895 2.438-.194 2.478-1.157 2.358-1.82 2.357.313 2.44-.546 2.437-2.447 2.439-1.233 2.438-.996 2.478-.743 2.438.356 2.44-1.66 2.436-1.816 2.438-.02 4.836-4.26 2.357-.506 4.878-1.633 2.438-2.54 2.438-2.002 4.916-1.83 2.44.071 2.436-4.062 2.438-1.805 2.478-3.49 2.358-5.367 2.357-3.934 2.44-2.562 2.438-1.286 2.438-4.5 2.438-1.156 2.478-5.607 4.878 6.055 2.436-6.571 2.438 4.525 2.478-8.972 2.399-7.763 2.396-.164 2.44-2.343 2.438-3.397 2.438-.674 2.438-5.01 2.478-.555 2.438 6.355 2.44-6.18 2.436-2.316 2.438 7.167 2.478-14.775 2.359-10.093 2.356-.96 2.44-3.791 2.438 6.02 2.438-.385 2.438-12.288 2.478.091 2.438-10.603 2.44-10.003 2.436 4.404 2.439 7.693 2.478-21.756 2.358-16.374 2.356 5.223 2.44 3.479 2.438 16.679 2.438 6.12 2.438-8.475 2.478 11.733 2.438-1.787 2.44-1.276 2.437 2.413 2.438 11.093 2.478-10.716 2.358-14.9 2.356.889 2.44-7.478 2.438-3.828 2.438-8.456 2.438-4.49 2.478 13.128 2.438-.055 2.44 2.298 2.437-1.103 2.438 6.276 2.478-10.093 2.398-10.654 2.396-.385 2.44-.977 2.438 8.644 2.438.663 2.438 5.036 2.478-3.35 2.439 10.96 2.44 4.656 2.436-5.33 2.438 9.808 2.478-11.242 2.358-14.286 2.357-1.772 2.44 12.234 2.437-3.087 2.438.574 2.439 4.865 2.478 1.703 2.438 12.19 2.44-1.83 2.436-1.168 2.438 21.557 2.478-13.885 2.358-.915 2.357-.36 2.44 3.974 2.437 3.224 2.439 2.208 2.438-8.881 2.478-6.168 2.438 9.85 2.44-7.397 2.436 4.76 2.438 19.961 2.478-13.471 2.358-11.68 2.357.269 2.44 3.95 2.438 4.552 2.438 1.025 2.438-14.728 2.478 9.988 2.438-.837 2.44-8.296 2.436-3.408 2.438 18.597 2.478-14.137 2.398-8.47 2.397-9.186 2.44-38.321 2.438 3.71 2.438 9.986 2.438 5.196 2.478 18 2.438 4.34 2.44 6.6 2.436 2.642 2.438 4.599h0" fill="none" stroke="#ff7f0e" stroke-linecap="square" stroke-width="1.5" id="line2d_34"/><path clip-path="url(#pb88c17ac01)" d="M45.341 307.87l1.88 2.177 4.875.49 2.478-1.331 4.715-.94 2.44-.2 2.437-1.468 4.877-1.121 2.478.154 2.438-.462 2.44-1.515 2.436-1.324 2.438.154 2.478-2.537 2.358-.807 2.357-.041 2.44 1.37 2.438-.936 2.438-1.897 2.438-2.231 2.478.729 2.438 1.162 2.44-2.368 2.436-.254 2.438 1.53 4.836-6.003 2.357-2.92 2.44 2.077 7.314-1.523 2.478-1.135 2.438 1.398 2.44.038 2.436-2.646 2.438 2.674 4.877-8.364 2.396-1.687 2.44-.27 2.438-.15 2.438-2.415 2.438-1.93 2.478-.912 2.438 3.03 2.44-4.936 2.436-3.32 2.438 5.97 2.478-5.874 2.359-6.4 2.356-1.1 2.44-3.938 2.438 2.732 2.438-.291 2.438-5.351 2.478 4.766 2.438-2.015 2.44-8.919 2.436-2.192 2.439 9.503 2.478-9.701 2.358-7.968 2.356-3.211 2.44 1.962 2.438 13.107 2.438.43 2.438-5.168 2.478 5.873 2.438.287 2.44-3.644 2.437-2.208 2.438 6.042 2.478-4.556 2.358-11.203 2.356-2.331 2.44-1.583 2.438 4.407 2.438-6.906 2.438-.874 2.478 7.745 2.438-.809 2.44-8.134 2.437-1.578 2.438 7.55 2.478-4.963 2.398-12.8 2.396.625 2.44-.378 2.438 7.058 2.438-1.532 2.438 3.53 2.478-.456 2.439 1.047 2.44-5.315 2.436-8.055 2.438 11.363 2.478-8.712 2.358-14.704 2.357-5.426 2.44 6.81 2.437-.005 2.438-2.812 2.439-2.486 2.478 3.224 2.438 3.463 2.44-7.017 2.436-4.122 2.438 18.217 2.478-8.992 2.358-13.193 2.357 1.221 2.44 2.74 2.437-.504 2.439 1.655 2.438-15.175 2.478-.063 2.438 8.959 2.44-13.48 2.436-4.504 2.438 22.587 2.478-9.28 2.358-19.74 2.357-5.632 2.44-4.347 2.438 10.157 2.438-3.79 2.438-16.943 2.478 17.088 2.438 2.846 2.44-26.515 2.436-9.966 2.438 29.472 4.876-35.945 2.397-14.303 2.44-53.476 2.438-1.545 2.438 14.48 2.438 16.521 2.478 29.312 2.438 1.563 2.44-3.659 2.436-2.794 2.438 12.221h0" fill="none" stroke="#1f77b4" stroke-linecap="square" stroke-width="1.5" id="line2d_35"/></g></g><defs><clipPath id="pb88c17ac01"><path d="M45.341 47.516h357.12v266.112H45.341z"/></clipPath></defs></svg>