<svg height="538.383" viewBox="0 0 479.475 403.788" width="639.299" xmlns="http://www.w3.org/2000/svg" xmlns:xlink="http://www.w3.org/1999/xlink"><defs><style>*{stroke-linecap:butt;stroke-linejoin:round}</style></defs><g id="figure_1"><path d="M0 403.788h479.475V0H0z" style="fill:none" id="patch_1"/><g id="axes_1"><path d="M45.333 323.519h357.12V57.407H45.332z" style="fill:none" id="patch_2"/><g id="matplotlib.axis_1"><g id="xtick_1"><g id="line2d_1"><defs><path d="M0 0v3.5" id="m5177be4c18" style="stroke:#969696;stroke-width:.4"/></defs><use style="fill:#969696;stroke:#969696;stroke-width:.4" x="80.819" xlink:href="#m5177be4c18" y="323.519"/></g><g style="fill:#969696" transform="matrix(.14 0 0 -.14 65.253 340.516)" id="text_1"><defs><path d="M3181 371H691c109 602 909 999 1344 1293 583 378 1127 845 1127 1594 0 832-608 1260-1389 1260-973 0-1453-665-1434-1587h403c-12 659 276 1248 1012 1248 544 0 1004-333 1004-915 0-358-128-595-371-845C1626 1658 262 1331 230 0h2951v371z" id="HelveticaNeue-Light-32" transform="scale(.01563)"/><path d="M1779 4179c1024 0 1159-1190 1159-1965 0-780-135-1971-1159-1971S621 1434 621 2214c0 775 134 1965 1158 1965zm0 339C474 4518 218 3258 218 2208 218 1165 474-96 1779-96c1306 0 1562 1261 1562 2310 0 1044-256 2304-1562 2304z" id="HelveticaNeue-Light-30" transform="scale(.01563)"/><path d="M621 3328h1184V0h403v4480h-326c-122-826-557-838-1261-864v-288z" id="HelveticaNeue-Light-31" transform="scale(.01563)"/></defs><use xlink:href="#HelveticaNeue-Light-32"/><use x="55.6" xlink:href="#HelveticaNeue-Light-30"/><use x="111.2" xlink:href="#HelveticaNeue-Light-31"/><use x="166.8" xlink:href="#HelveticaNeue-Light-30"/></g></g><g id="xtick_2"><use style="fill:#969696;stroke:#969696;stroke-width:.4" x="136.53" xlink:href="#m5177be4c18" y="323.519" id="line2d_2"/><g style="fill:#969696" transform="matrix(.14 0 0 -.14 120.964 340.516)" id="text_2"><use xlink:href="#HelveticaNeue-Light-32"/><use x="55.6" xlink:href="#HelveticaNeue-Light-30"/><use x="111.2" xlink:href="#HelveticaNeue-Light-31"/><use x="166.8" xlink:href="#HelveticaNeue-Light-32"/></g></g><g id="xtick_3"><use style="fill:#969696;stroke:#969696;stroke-width:.4" x="192.317" xlink:href="#m5177be4c18" y="323.519" id="line2d_3"/><g style="fill:#969696" transform="matrix(.14 0 0 -.14 176.75 340.516)" id="text_3"><defs><path d="M192 1114h2067V0h371v1114h672v339h-672v3027h-364L192 1504v-390zm365 339 1689 2438h13V1453H557z" id="HelveticaNeue-Light-34" transform="scale(.01563)"/></defs><use xlink:href="#HelveticaNeue-Light-32"/><use x="55.6" xlink:href="#HelveticaNeue-Light-30"/><use x="111.2" xlink:href="#HelveticaNeue-Light-31"/><use x="166.8" xlink:href="#HelveticaNeue-Light-34"/></g></g><g id="xtick_4"><use style="fill:#969696;stroke:#969696;stroke-width:.4" x="248.027" xlink:href="#m5177be4c18" y="323.519" id="line2d_4"/><g style="fill:#969696" transform="matrix(.14 0 0 -.14 232.461 340.516)" id="text_4"><defs><path d="M1856 2579c685 0 1082-531 1082-1184 0-621-436-1152-1076-1152-780 0-1120 519-1120 1152 0 659 410 1184 1114 1184zm1376 768c-96 781-589 1171-1376 1171-1466 0-1600-1702-1600-2233C256 538 736-96 1824-96c883 0 1517 646 1517 1517 0 877-583 1497-1479 1497-505 0-979-300-1190-742h-13c0 813 192 2003 1235 2003 519 0 864-339 935-832h403z" id="HelveticaNeue-Light-36" transform="scale(.01563)"/></defs><use xlink:href="#HelveticaNeue-Light-32"/><use x="55.6" xlink:href="#HelveticaNeue-Light-30"/><use x="111.2" xlink:href="#HelveticaNeue-Light-31"/><use x="166.8" xlink:href="#HelveticaNeue-Light-36"/></g></g><g id="xtick_5"><use style="fill:#969696;stroke:#969696;stroke-width:.4" x="303.814" xlink:href="#m5177be4c18" y="323.519" id="line2d_5"/><g style="fill:#969696" transform="matrix(.14 0 0 -.14 288.248 340.516)" id="text_5"><defs><path d="M1779 243c-627 0-1139 339-1139 1011 0 660 525 986 1139 973 602 13 1139-326 1139-973 0-684-512-1011-1139-1011zm1357 3155c0 768-698 1120-1363 1120-659 0-1357-352-1357-1120 0-492 262-844 730-985v-13c-551-102-896-563-909-1146C237 352 941-96 1779-96c839 0 1543 448 1543 1350 0 602-340 1031-916 1146v13c455 134 730 499 730 985zm-1357-832c-473-12-960 231-960 832 0 512 467 781 960 781 538 0 954-269 954-781 0-576-461-844-954-832z" id="HelveticaNeue-Light-38" transform="scale(.01563)"/></defs><use xlink:href="#HelveticaNeue-Light-32"/><use x="55.6" xlink:href="#HelveticaNeue-Light-30"/><use x="111.2" xlink:href="#HelveticaNeue-Light-31"/><use x="166.8" xlink:href="#HelveticaNeue-Light-38"/></g></g><g id="xtick_6"><use style="fill:#969696;stroke:#969696;stroke-width:.4" x="359.525" xlink:href="#m5177be4c18" y="323.519" id="line2d_6"/><g style="fill:#969696" transform="matrix(.14 0 0 -.14 343.959 340.516)" id="text_6"><use xlink:href="#HelveticaNeue-Light-32"/><use x="55.6" xlink:href="#HelveticaNeue-Light-30"/><use x="111.2" xlink:href="#HelveticaNeue-Light-32"/><use x="166.8" xlink:href="#HelveticaNeue-Light-30"/></g></g></g><g id="matplotlib.axis_2"><g id="ytick_1"><path clip-path="url(#p5cedc9995e)" d="M45.333 323.519h357.12" style="fill:none;stroke:#969696;stroke-linecap:square;stroke-width:.3" id="line2d_7"/><g id="line2d_8"><defs><path d="M0 0h-3.5" id="m6c4b56123d" style="stroke:#969696;stroke-width:.3"/></defs><use style="fill:#969696;stroke:#969696;stroke-width:.3" x="45.333" xlink:href="#m6c4b56123d" y="323.519"/></g><use xlink:href="#HelveticaNeue-Light-30" style="fill:#969696" transform="matrix(.14 0 0 -.14 30.55 328.517)" id="text_7"/></g><g id="ytick_2"><path clip-path="url(#p5cedc9995e)" d="M45.333 280.063h357.12" style="fill:none;stroke:#969696;stroke-linecap:square;stroke-width:.3" id="line2d_9"/><use style="fill:#969696;stroke:#969696;stroke-width:.3" x="45.333" xlink:href="#m6c4b56123d" y="280.063" id="line2d_10"/><g style="fill:#969696" transform="matrix(.14 0 0 -.14 14.983 285.061)" id="text_8"><use xlink:href="#HelveticaNeue-Light-32"/><use x="55.6" xlink:href="#HelveticaNeue-Light-30"/><use x="111.2" xlink:href="#HelveticaNeue-Light-30"/></g></g><g id="ytick_3"><path clip-path="url(#p5cedc9995e)" d="M45.333 236.607h357.12" style="fill:none;stroke:#969696;stroke-linecap:square;stroke-width:.3" id="line2d_11"/><use style="fill:#969696;stroke:#969696;stroke-width:.3" x="45.333" xlink:href="#m6c4b56123d" y="236.607" id="line2d_12"/><g style="fill:#969696" transform="matrix(.14 0 0 -.14 14.983 241.605)" id="text_9"><use xlink:href="#HelveticaNeue-Light-34"/><use x="55.6" xlink:href="#HelveticaNeue-Light-30"/><use x="111.2" xlink:href="#HelveticaNeue-Light-30"/></g></g><g id="ytick_4"><path clip-path="url(#p5cedc9995e)" d="M45.333 193.15h357.12" style="fill:none;stroke:#969696;stroke-linecap:square;stroke-width:.3" id="line2d_13"/><use style="fill:#969696;stroke:#969696;stroke-width:.3" x="45.333" xlink:href="#m6c4b56123d" y="193.151" id="line2d_14"/><g style="fill:#969696" transform="matrix(.14 0 0 -.14 14.983 198.15)" id="text_10"><use xlink:href="#HelveticaNeue-Light-36"/><use x="55.6" xlink:href="#HelveticaNeue-Light-30"/><use x="111.2" xlink:href="#HelveticaNeue-Light-30"/></g></g><g id="ytick_5"><path clip-path="url(#p5cedc9995e)" d="M45.333 149.695h357.12" style="fill:none;stroke:#969696;stroke-linecap:square;stroke-width:.3" id="line2d_15"/><use style="fill:#969696;stroke:#969696;stroke-width:.3" x="45.333" xlink:href="#m6c4b56123d" y="149.695" id="line2d_16"/><g style="fill:#969696" transform="matrix(.14 0 0 -.14 14.983 154.693)" id="text_11"><use xlink:href="#HelveticaNeue-Light-38"/><use x="55.6" xlink:href="#HelveticaNeue-Light-30"/><use x="111.2" xlink:href="#HelveticaNeue-Light-30"/></g></g><g id="ytick_6"><path clip-path="url(#p5cedc9995e)" d="M45.333 106.239h357.12" style="fill:none;stroke:#969696;stroke-linecap:square;stroke-width:.3" id="line2d_17"/><use style="fill:#969696;stroke:#969696;stroke-width:.3" x="45.333" xlink:href="#m6c4b56123d" y="106.239" id="line2d_18"/><g style="fill:#969696" transform="matrix(.14 0 0 -.14 7.2 111.237)" id="text_12"><use xlink:href="#HelveticaNeue-Light-31"/><use x="55.6" xlink:href="#HelveticaNeue-Light-30"/><use x="111.2" xlink:href="#HelveticaNeue-Light-30"/><use x="166.8" xlink:href="#HelveticaNeue-Light-30"/></g></g><g id="ytick_7"><path clip-path="url(#p5cedc9995e)" d="M45.333 62.783h357.12" style="fill:none;stroke:#969696;stroke-linecap:square;stroke-width:.3" id="line2d_19"/><use style="fill:#969696;stroke:#969696;stroke-width:.3" x="45.333" xlink:href="#m6c4b56123d" y="62.783" id="line2d_20"/><g style="fill:#969696" transform="matrix(.14 0 0 -.14 7.2 67.781)" id="text_13"><use xlink:href="#HelveticaNeue-Light-31"/><use x="55.6" xlink:href="#HelveticaNeue-Light-32"/><use x="111.2" xlink:href="#HelveticaNeue-Light-30"/><use x="166.8" xlink:href="#HelveticaNeue-Light-30"/></g></g></g><path clip-path="url(#p5cedc9995e)" d="m45.333 320.3 1.795 1.467 2.326.593 2.327.03 2.366-.336 2.251-.762 2.25-.086 9.312-1.199 2.366.112 4.657-.056 2.326-1.288 2.327.728 2.366-.8 2.252-.53 2.25.468 2.329-.576 2.327.015 2.328-.74 2.327-.206 2.366-.59 2.328.167 2.33.325 2.325-.246 2.328-.441 4.617-2.569 2.25-1.756 2.329.79 4.655-.615 2.328.169 2.366-1.949 2.327 1.845 2.33-.093 2.325-1.269 2.328.73 2.366-1.55 2.29-1.945 2.287-.066 2.33 1.042 2.327.479 2.328.188 2.327-.805 2.366.007 2.328.37 2.329-1.709 2.326.406 2.328 2.09 2.365-2.832 2.252-1.178 2.25-.651 2.329.115 2.327 1.434 2.328.355 2.328-1.035 2.365-.295 2.328.084 2.33-2.193 2.325.904 2.328 1.458 2.366-2.23 2.251-.88 2.25-.402 2.329.787 2.328 1.106 2.327 1.878 2.328-1.044 2.366.602 2.327.87 2.33.056 2.326 1.124 2.327.214 2.366-1.941 2.251-.503 2.25.279 2.33-.874 2.327.558 2.328-1.08 2.327.547 2.366 1.858 2.328.58 2.329.296 2.326 1.181 2.327-.017 2.366-.828 2.29-1.781 2.288.961 2.329-.19 2.327 1.137 2.328-.383 2.328 1.946 2.366.154 2.327-.767 2.33 1.166 2.325.043 2.328 1.324 2.366-1.346 4.5.26 2.33 1.769 2.328.116 2.327.362 2.328-.39 4.693 1.816 2.33-.253 2.326.58 2.327 1.39 2.366-1.01 2.251.172 2.25.53 2.33.257 2.327-.069 2.328.047 2.327.353 2.366.21 2.328.451 2.329-.682 4.654.834 2.365-.729 6.83.773 2.328.278 2.328.062 2.328-.44 2.365-.035 2.328.142 2.33-.689 2.325 1.095 2.328-.05 2.366-.463 2.29.364 2.287-.182 2.33-.82 2.327.981 2.328.633 2.327-.577 2.366 1.22 2.328.11 2.329.297 2.326-.42 2.328.588 2.365-.512 2.252-.608 2.25.811 2.329-.365 2.327 1.214 2.328-.266 2.327-.029h0" style="fill:none;stroke:#c49c94;stroke-linecap:square;stroke-width:1.5" id="line2d_21"/><path clip-path="url(#p5cedc9995e)" d="M93.488 323.519h34.876l44.11-.087 2.328-.06 4.656.063 11.676-.007 2.366-.19 4.5.078 4.658-.113 2.327-.046 4.694-.55 2.327.238 2.33-.574 2.326.11 2.327-.047 2.366-.448 2.251.306 2.25.107 4.657-.54 2.328.05 4.693.4 4.657.378 2.326-.068 2.327.089 2.366-.154 2.29-.037 2.288-.188 2.329.153 2.327-.174 2.328-.311 2.328.395 2.366-.448 2.327.45 2.33-.142 2.325.034 6.945-.25 9.234.308 2.328-.33 2.366.154 2.327.43 4.656-.232 2.327-.471 2.366.315 4.501-.413 2.33.352 2.327-.233 2.328.146 2.327-.076 2.366.09 2.328-.137 2.329.089 2.326-.133 2.328.007 2.365-.568 2.252.415 2.25.055 2.329-.423 2.327.086 7.021-.687 4.657.203 4.654-.077 2.366.267 2.29-.671 2.287.236 2.33-.704 2.327-.368 2.328.498 2.327-.246 2.366.091 2.328-.113 4.655.565 4.693-.69 2.252.108 2.25-.683 2.329-.278 2.327.888 2.328-.33 2.327.204h0" style="fill:none;stroke:#c5b0d5;stroke-linecap:square;stroke-width:1.5" id="line2d_22"/><path clip-path="url(#p5cedc9995e)" d="m74.983 323.519 2.326-.478 2.327.4 6.867.022 20.989-.07 9.196.075 2.327-.208 11.678-.021 2.326-.198 6.983.246 9.273-.29 4.693.017 2.328-.444 2.329.234 4.654-.077 2.365.084 2.252-.2 4.579-.005 2.327-.096 2.328-.266 7.021-.442 2.33.231 2.325-.035 2.328-.161 2.366-.442 2.251.525 2.25-.188 2.329-.69 2.328.514 2.327-.123 2.328-1.096 2.366.343h2.327l6.983.379 2.366-.841 2.251.321 2.25-.307 2.33.455 2.327.056 4.655-.504 4.694.187 2.329.086 2.326-.158 2.327.179 4.656-1.083 4.617-.298 2.327.295 4.656.294 2.366-.26 2.327.308 2.33-.006 2.325.267 2.328-.029 4.617-.824 2.25-.29 2.33.904 2.327-.434 2.327-.037 2.328-.44 4.693.65 4.656-.79 2.327 1.03 2.366-.12 2.251-.69 2.25.242 2.33-.259 2.327.077 2.328-.446 4.693-.31 2.328.114 2.329-.886 2.326.401 2.328.84 2.365-.154 4.501-.568 2.33.346 2.327-.052 2.328.472 2.328-1.138 2.365-.014 2.328.21 4.655-.022 2.328.254 2.366-.407 2.29-.515 2.287-.038 2.33-1.242 2.327.765 2.328.198 2.327.818 2.366-.483 2.328-.682 2.329 1.628 2.326.001 2.328 1.282 2.365-1.017 2.252-.766 2.25-.979 2.329.836 2.327.384 4.655.294h0" style="fill:none;stroke:#ff9896;stroke-linecap:square;stroke-width:1.5" id="line2d_23"/><g style="fill:#1f77b4" transform="matrix(.14 0 0 -.14 413.166 141.196)" id="text_14"><defs><path d="M3027 1651c0-685-313-1408-1081-1408-858 0-1159 723-1159 1408 0 749 269 1408 1159 1408 768 0 1081-723 1081-1408zM384-1222h403V627h13C973 154 1453-96 1946-96c1004 0 1484 813 1484 1747 0 935-480 1747-1484 1747-532 0-992-275-1178-723h-13v627H384v-4524z" id="HelveticaNeue-Light-70" transform="scale(.01563)"/><path d="m1331 13-141-378c-134-307-217-518-576-518-89 0-179 13-275 32v-339c64-26 147-26 307-32 506 0 640 160 871 716l1433 3808h-403L1530 486 442 3302H13L1331 13z" id="HelveticaNeue-Light-79" transform="scale(.01563)"/><path d="M1024 4294H621v-992H45v-339h576V704c-7-563 179-742 717-742 121 0 236 12 358 12v346c-115-13-230-19-346-19-288 19-326 173-326 435v2227h672v339h-672v992z" id="HelveticaNeue-Light-74" transform="scale(.01563)"/><path d="M378 0h403v1926c13 647 397 1133 1037 1133 652 0 838-429 838-998V0h403v2125c0 787-281 1273-1209 1273-468 0-909-268-1056-665h-13v1837H378V0z" id="HelveticaNeue-Light-68" transform="scale(.01563)"/><path d="M1779 3398c-1011 0-1561-800-1561-1747S768-96 1779-96s1562 800 1562 1747-551 1747-1562 1747zm0-339c775 0 1159-704 1159-1408S2554 243 1779 243c-774 0-1158 704-1158 1408s384 1408 1158 1408z" id="HelveticaNeue-Light-6f" transform="scale(.01563)"/><path d="M378 0h403v1926c13 647 397 1133 1037 1133 652 0 838-429 838-998V0h403v2125c0 787-281 1273-1209 1273-468 0-909-268-1056-665h-13v569H378V0z" id="HelveticaNeue-Light-6e" transform="scale(.01563)"/></defs><use xlink:href="#HelveticaNeue-Light-70"/><use x="57.4" xlink:href="#HelveticaNeue-Light-79"/><use x="103.7" xlink:href="#HelveticaNeue-Light-74"/><use x="133.3" xlink:href="#HelveticaNeue-Light-68"/><use x="187" xlink:href="#HelveticaNeue-Light-6f"/><use x="242.6" xlink:href="#HelveticaNeue-Light-6e"/></g><g style="fill:#ff7f0e" transform="matrix(.14 0 0 -.14 413.166 194.325)" id="text_15"><defs><path d="M390-403c0-275-51-480-364-480-64-7-154 0-218 6v-333c96 0 186-12 282-12 569 0 704 422 704 915v3609H390V-403zm0 4326h404v647H390v-647z" id="HelveticaNeue-Light-6a" transform="scale(.01563)"/><path d="M2496 1280c6-646-538-1037-1152-1037-378 0-736 250-736 653 0 646 851 640 1536 762 109 19 288 51 339 147h13v-525zM749 2291c13 538 384 768 883 768 474 0 864-134 864-678 0-365-186-410-518-448-871-103-1773-135-1773-1063 0-665 499-966 1107-966 634 0 922 243 1203 672h13c0-346 64-576 474-576 108 0 172 6 262 26v339c-32-13-83-26-128-26-160 0-237 90-237 243v1754c0 883-633 1062-1216 1062-755 0-1299-332-1337-1107h403z" id="HelveticaNeue-Light-61" transform="scale(.01563)"/><path d="M1286 0h429l1235 3302h-416L1510 403h-12L461 3302H13L1286 0z" id="HelveticaNeue-Light-76" transform="scale(.01563)"/><path d="M2765 2336c-26 717-551 1062-1210 1062-582 0-1241-256-1241-928 0-563 396-742 921-883l519-115c364-90 723-218 723-602 0-460-525-627-903-627-537 0-940 282-972 826H198C262 262 787-96 1555-96c615 0 1325 275 1325 992 0 576-480 845-941 915l-537 122c-276 70-685 198-685 557 0 428 422 569 781 569 460 0 844-224 864-723h403z" id="HelveticaNeue-Light-73" transform="scale(.01563)"/><path d="M3117 2266c-90 755-634 1132-1338 1132-1011 0-1561-800-1561-1747S768-96 1779-96c736 0 1255 486 1363 1280h-403c-51-550-461-941-960-941-774 0-1158 704-1158 1408s384 1408 1158 1408c525 0 826-301 935-793h403z" id="HelveticaNeue-Light-63" transform="scale(.01563)"/><path d="M384 0h403v1760c0 685 499 1222 1229 1184v403c-595 26-1043-288-1248-819h-13v774H384V0z" id="HelveticaNeue-Light-72" transform="scale(.01563)"/><path d="M390 0h404v3302H390V0zm0 3923h404v647H390v-647z" id="HelveticaNeue-Light-69" transform="scale(.01563)"/></defs><use xlink:href="#HelveticaNeue-Light-6a"/><use x="18.5" xlink:href="#HelveticaNeue-Light-61"/><use x="70.4" xlink:href="#HelveticaNeue-Light-76"/><use x="116.7" xlink:href="#HelveticaNeue-Light-61"/><use x="168.6" xlink:href="#HelveticaNeue-Light-73"/><use x="216.7" xlink:href="#HelveticaNeue-Light-63"/><use x="268.6" xlink:href="#HelveticaNeue-Light-72"/><use x="300.1" xlink:href="#HelveticaNeue-Light-69"/><use x="318.6" xlink:href="#HelveticaNeue-Light-70"/><use x="376" xlink:href="#HelveticaNeue-Light-74"/></g><g style="fill:#2ca02c" transform="matrix(.14 0 0 -.14 413.166 211.914)" id="text_16"><use xlink:href="#HelveticaNeue-Light-6a"/><use x="18.5" xlink:href="#HelveticaNeue-Light-61"/><use x="70.4" xlink:href="#HelveticaNeue-Light-76"/><use x="116.7" xlink:href="#HelveticaNeue-Light-61"/></g><g style="fill:#d62728" transform="matrix(.14 0 0 -.14 413.166 225.914)" id="text_17"><defs><path d="M3181 1715h-672l141 999h710v288h-672l198 1420h-320l-198-1420h-902l198 1420h-320l-198-1420H403v-288h704l-141-999H224v-288h704L730 0h320l198 1427h902L1952 0h320l198 1427h711v288zm-851 999-141-999h-903l141 999h903z" id="HelveticaNeue-Light-23" transform="scale(.01563)"/></defs><use xlink:href="#HelveticaNeue-Light-63"/><use x="51.9" xlink:href="#HelveticaNeue-Light-23"/></g><g style="fill:#9467bd" transform="matrix(.14 0 0 -.14 413.166 239.914)" id="text_18"><use xlink:href="#HelveticaNeue-Light-70"/><use x="57.4" xlink:href="#HelveticaNeue-Light-68"/><use x="111.1" xlink:href="#HelveticaNeue-Light-70"/></g><use xlink:href="#HelveticaNeue-Light-72" style="fill:#8c564b" transform="matrix(.14 0 0 -.14 413.166 253.914)" id="text_19"/><g style="fill:#e377c2" transform="matrix(.14 0 0 -.14 413.166 267.914)" id="text_20"><defs><path d="M1754 1779H314v-339h1440V0h339v1440h1440v339H2093v1440h-339V1779z" id="HelveticaNeue-Light-2b" transform="scale(.01563)"/></defs><use xlink:href="#HelveticaNeue-Light-63"/><use x="51.9" xlink:href="#HelveticaNeue-Light-2b"/><use x="111.9" xlink:href="#HelveticaNeue-Light-2b"/></g><g style="fill:#7f7f7f" transform="matrix(.14 0 0 -.14 413.166 281.914)" id="text_21"><defs><path d="M646 1651c0 685 314 1408 1082 1408 858 0 1158-723 1158-1408S2586 243 1728 243C960 243 646 966 646 1651zm2644 1651h-372v-627h-12c-173 429-698 723-1178 723-1005 0-1485-812-1485-1747C243 717 723-96 1728-96c493 0 973 250 1146 723h12v-1849h404v4524z" id="HelveticaNeue-Light-71" transform="scale(.01563)"/><path d="M390 0h404v4570H390V0z" id="HelveticaNeue-Light-6c" transform="scale(.01563)"/></defs><use xlink:href="#HelveticaNeue-Light-73"/><use x="48.1" xlink:href="#HelveticaNeue-Light-71"/><use x="105.5" xlink:href="#HelveticaNeue-Light-6c"/></g><g style="fill:#bcbd22" transform="matrix(.14 0 0 -.14 413.166 295.914)" id="text_22"><defs><path d="M3162 1542c32 928-391 1856-1453 1856-1050 0-1491-876-1491-1747C218 710 659-96 1709-96c832 0 1267 435 1440 1184h-403c-128-499-448-845-1037-845-775 0-1082 711-1088 1299h2541zM621 1882c64 601 429 1177 1088 1177 653 0 1030-569 1049-1177H621z" id="HelveticaNeue-Light-65" transform="scale(.01563)"/></defs><use xlink:href="#HelveticaNeue-Light-74"/><use x="29.6" xlink:href="#HelveticaNeue-Light-79"/><use x="75.9" xlink:href="#HelveticaNeue-Light-70"/><use x="133.3" xlink:href="#HelveticaNeue-Light-65"/><use x="185.2" xlink:href="#HelveticaNeue-Light-73"/><use x="233.3" xlink:href="#HelveticaNeue-Light-63"/><use x="285.2" xlink:href="#HelveticaNeue-Light-72"/><use x="316.7" xlink:href="#HelveticaNeue-Light-69"/><use x="335.2" xlink:href="#HelveticaNeue-Light-70"/><use x="392.6" xlink:href="#HelveticaNeue-Light-74"/></g><g style="fill:#17becf" transform="matrix(.14 0 0 -.14 413.166 309.914)" id="text_23"><defs><path d="M1114 0h441l807 2778h12L3187 0h442l1062 3302h-429L3418 474h-13l-807 2828h-454L1338 474h-13L480 3302H51L1114 0z" id="HelveticaNeue-Light-77" transform="scale(.01563)"/><path d="M1658 3302h-653v288c6 359-7 640 441 640 96 0 186-12 295-32v346c-128 19-224 26-339 26-647 0-807-397-800-967v-301H38v-339h564V0h403v2963h653v339z" id="HelveticaNeue-Light-66" transform="scale(.01563)"/></defs><use xlink:href="#HelveticaNeue-Light-73"/><use x="48.1" xlink:href="#HelveticaNeue-Light-77"/><use x="122.2" xlink:href="#HelveticaNeue-Light-69"/><use x="140.7" xlink:href="#HelveticaNeue-Light-66"/><use x="166.6" xlink:href="#HelveticaNeue-Light-74"/></g><g style="fill:#aec7e8" transform="matrix(.14 0 0 -.14 413.166 323.914)" id="text_24"><defs><path d="M646 1651c0 685 314 1408 1082 1408 858 0 1158-723 1158-1408S2586 243 1728 243C960 243 646 966 646 1651zm2644 2919h-404V2675h-12c-173 474-653 723-1146 723-1005 0-1485-812-1485-1747C243 717 723-96 1728-96c480 0 1005 294 1178 723h12V0h372v4570z" id="HelveticaNeue-Light-64" transform="scale(.01563)"/></defs><use xlink:href="#HelveticaNeue-Light-64"/><use x="57.4" xlink:href="#HelveticaNeue-Light-61"/><use x="109.3" xlink:href="#HelveticaNeue-Light-72"/><use x="140.8" xlink:href="#HelveticaNeue-Light-74"/></g><use xlink:href="#HelveticaNeue-Light-63" style="fill:#ffbb78" transform="matrix(.14 0 0 -.14 413.166 337.914)" id="text_25"/><g style="fill:#98df8a" transform="matrix(.14 0 0 -.14 413.166 351.914)" id="text_26"><defs><path d="M384 0h403v1254l653 544L2746 0h505L1747 2080l1408 1222h-537L787 1702v2868H384V0z" id="HelveticaNeue-Light-6b" transform="scale(.01563)"/></defs><use xlink:href="#HelveticaNeue-Light-6b"/><use x="50" xlink:href="#HelveticaNeue-Light-6f"/><use x="105.6" xlink:href="#HelveticaNeue-Light-74"/><use x="135.2" xlink:href="#HelveticaNeue-Light-6c"/><use x="153.7" xlink:href="#HelveticaNeue-Light-69"/><use x="172.2" xlink:href="#HelveticaNeue-Light-6e"/></g><g style="fill:#ff9896" transform="matrix(.14 0 0 -.14 413.166 365.704)" id="text_27"><defs><path d="M1709 378c-743 0-1088 646-1088 1312 0 684 320 1369 1088 1369 761 0 1062-723 1062-1369 0-672-365-1312-1062-1312zm1465 2924h-403v-569h-13c-160 365-569 665-1049 665-954 0-1491-755-1491-1664C218 794 653 38 1709 38c473 0 864 276 1049 679h13V269c0-807-320-1248-1062-1248-448 0-877 173-967 659H339c58-704 711-998 1370-998 1081 0 1459 601 1465 1587v3033z" id="HelveticaNeue-Light-67" transform="scale(.01563)"/></defs><use xlink:href="#HelveticaNeue-Light-67"/><use x="55.6" xlink:href="#HelveticaNeue-Light-6f"/></g><g style="fill:#c5b0d5" transform="matrix(.14 0 0 -.14 413.166 379.914)" id="text_28"><defs><path d="M3059 3302h-403V1568c0-672-301-1325-992-1325-640 0-864 314-883 909v2150H378V1158C378 390 704-96 1536-96c493 0 928 250 1139 691h13V0h371v3302z" id="HelveticaNeue-Light-75" transform="scale(.01563)"/></defs><use xlink:href="#HelveticaNeue-Light-72"/><use x="31.5" xlink:href="#HelveticaNeue-Light-75"/><use x="85.2" xlink:href="#HelveticaNeue-Light-73"/><use x="133.3" xlink:href="#HelveticaNeue-Light-74"/></g><g style="fill:#c49c94" transform="matrix(.14 0 0 -.14 413.166 393.914)" id="text_29"><defs><path d="M3027 1651c0-685-313-1408-1081-1408-858 0-1159 723-1159 1408s301 1408 1159 1408c768 0 1081-723 1081-1408zM384 0h371v627h13C954 179 1414-96 1946-96c1004 0 1484 813 1484 1747 0 935-480 1747-1484 1747-493 0-973-249-1146-723h-13v1895H384V0z" id="HelveticaNeue-Light-62" transform="scale(.01563)"/></defs><use xlink:href="#HelveticaNeue-Light-72"/><use x="31.5" xlink:href="#HelveticaNeue-Light-75"/><use x="85.2" xlink:href="#HelveticaNeue-Light-62"/><use x="142.6" xlink:href="#HelveticaNeue-Light-79"/></g><g style="fill:#969696" transform="matrix(.09716 0 0 -.09716 45.333 357.766)" id="text_30"><defs><path d="M230 1504C179 390 973-96 2054-96c1620 0 1748 992 1748 1306 0 748-538 1030-1184 1203l-1114 275c-371 90-691 269-691 698 0 678 550 908 1145 908 647 0 1223-352 1248-1049h436c6 934-788 1421-1690 1421-1286 0-1574-839-1574-1287 0-710 492-966 1030-1101l1018-249c422-103 940-307 940-826 0-665-729-928-1209-928-832 0-1511 288-1491 1229H230z" id="HelveticaNeue-Light-53" transform="scale(.01563)"/><path d="M218 2285C218 1037 934-96 2374-96c1434 0 2151 1133 2151 2381s-717 2381-2151 2381C934 4666 218 3533 218 2285zm435 0c0 998 512 2009 1721 2009 1204 0 1716-1011 1716-2009 0-999-512-2010-1716-2010-1209 0-1721 1011-1721 2010z" id="HelveticaNeue-Light-4f" transform="scale(.01563)"/><path d="M-45 0h467l551 1421h2080L3610 0h467L2285 4570h-487L-45 0zm2067 4134 884-2342H1107l915 2342z" id="HelveticaNeue-Light-41" transform="scale(.01563)"/><path d="M461 0h435v1958h1594c819 0 1356 480 1356 1306s-537 1306-1356 1306H461V0zm435 4198h1498c601 0 1017-307 1017-934s-416-934-1017-934H896v1868z" id="HelveticaNeue-Light-50" transform="scale(.01563)"/><path d="M493 0h435v4570H493V0z" id="HelveticaNeue-Light-49" transform="scale(.01563)"/><path d="M544-1370h339v6400H544v-6400z" id="HelveticaNeue-Light-7c" transform="scale(.01563)"/><path d="M454 0h436v3866h12L3565 0h486v4570h-435V704h-13L941 4570H454V0z" id="HelveticaNeue-Light-4e" transform="scale(.01563)"/><path d="M1779 3398c-1011 0-1561-800-1561-1747S768-96 1779-96s1562 800 1562 1747-551 1747-1562 1747zm0-339c775 0 1159-704 1159-1408S2554 243 1779 243c-774 0-1158 704-1158 1408s384 1408 1158 1408zm787 813v646h-435v-646h435zm-1132 0v646H998v-646h436z" id="HelveticaNeue-Light-f6" transform="scale(.01563)"/><path d="M384 0h403v1843c7 691 288 1216 986 1216 512 0 697-371 691-819V0h403v1869c0 614 199 1190 896 1190 576 0 781-294 781-838V0h403v2240c0 781-371 1158-1094 1158-435 0-851-211-1050-646-121 435-512 646-947 646-525 0-870-256-1082-652h-19v556H384V0z" id="HelveticaNeue-Light-6d" transform="scale(.01563)"/><path d="M4237 3187c-115 960-973 1479-1837 1479-1440 0-2157-1133-2157-2381S960-96 2400-96c1069 0 1779 717 1901 1837h-435c-84-813-621-1466-1466-1466-1210 0-1722 1011-1722 2010 0 998 512 2009 1722 2009 666 0 1248-403 1402-1107h435z" id="HelveticaNeue-Light-43" transform="scale(.01563)"/><path d="M896 2195h1498c761 0 1203-301 1203-883 0-730-557-947-1203-941H896v1824zM461 0h1933c1484 0 1638 864 1638 1299 0 595-378 1037-966 1114v13c473 102 793 544 793 1024 0 851-697 1120-1465 1120H461V0zm435 4198h1498c678 0 1030-288 1030-857 0-429-333-775-1030-775H896v1632z" id="HelveticaNeue-Light-42" transform="scale(.01563)"/><path d="M1734 0h436v1882l1804 2688h-518L1958 2253 454 4570H-64l1798-2688V0z" id="HelveticaNeue-Light-59" transform="scale(.01563)"/></defs><use xlink:href="#HelveticaNeue-Light-53"/><use x="63" xlink:href="#HelveticaNeue-Light-74"/><use x="92.6" xlink:href="#HelveticaNeue-Light-61"/><use x="144.5" xlink:href="#HelveticaNeue-Light-63"/><use x="196.4" xlink:href="#HelveticaNeue-Light-6b"/><use x="246.4" xlink:href="#HelveticaNeue-Light-4f"/><use x="320.5" xlink:href="#HelveticaNeue-Light-76"/><use x="366.8" xlink:href="#HelveticaNeue-Light-65"/><use x="418.7" xlink:href="#HelveticaNeue-Light-72"/><use x="450.2" xlink:href="#HelveticaNeue-Light-66"/><use x="476.1" xlink:href="#HelveticaNeue-Light-6c"/><use x="494.6" xlink:href="#HelveticaNeue-Light-6f"/><use x="550.2" xlink:href="#HelveticaNeue-Light-77"/><use x="624.3" xlink:href="#HelveticaNeue-Light-20"/><use x="652.1" xlink:href="#HelveticaNeue-Light-41"/><use x="715.1" xlink:href="#HelveticaNeue-Light-50"/><use x="778.1" xlink:href="#HelveticaNeue-Light-49"/><use x="800.3" xlink:href="#HelveticaNeue-Light-20"/><use x="828.1" xlink:href="#HelveticaNeue-Light-76"/><use x="874.4" xlink:href="#HelveticaNeue-Light-69"/><use x="892.9" xlink:href="#HelveticaNeue-Light-61"/><use x="944.8" xlink:href="#HelveticaNeue-Light-20"/><use x="972.6" xlink:href="#HelveticaNeue-Light-73"/><use x="1020.7" xlink:href="#HelveticaNeue-Light-74"/><use x="1050.3" xlink:href="#HelveticaNeue-Light-61"/><use x="1102.2" xlink:href="#HelveticaNeue-Light-63"/><use x="1154.1" xlink:href="#HelveticaNeue-Light-6b"/><use x="1204.1" xlink:href="#HelveticaNeue-Light-74"/><use x="1233.7" xlink:href="#HelveticaNeue-Light-61"/><use x="1285.6" xlink:href="#HelveticaNeue-Light-67"/><use x="1341.2" xlink:href="#HelveticaNeue-Light-73"/><use x="1389.3" xlink:href="#HelveticaNeue-Light-20"/><use x="1417.1" xlink:href="#HelveticaNeue-Light-7c"/><use x="1439.3" xlink:href="#HelveticaNeue-Light-20"/><use x="1467.1" xlink:href="#HelveticaNeue-Light-4e"/><use x="1537.5" xlink:href="#HelveticaNeue-Light-69"/><use x="1556" xlink:href="#HelveticaNeue-Light-63"/><use x="1607.9" xlink:href="#HelveticaNeue-Light-6f"/><use x="1663.5" xlink:href="#HelveticaNeue-Light-20"/><use x="1691.3" xlink:href="#HelveticaNeue-Light-53"/><use x="1754.3" xlink:href="#HelveticaNeue-Light-63"/><use x="1806.2" xlink:href="#HelveticaNeue-Light-68"/><use x="1859.9" xlink:href="#HelveticaNeue-Light-6c"/><use x="1878.4" xlink:href="#HelveticaNeue-Light-f6"/><use x="1934" xlink:href="#HelveticaNeue-Light-6d"/><use x="2017.3" xlink:href="#HelveticaNeue-Light-65"/><use x="2069.2" xlink:href="#HelveticaNeue-Light-72"/><use x="2100.7" xlink:href="#HelveticaNeue-Light-20"/><use x="2128.5" xlink:href="#HelveticaNeue-Light-7c"/><use x="2150.7" xlink:href="#HelveticaNeue-Light-20"/><use x="2178.499" xlink:href="#HelveticaNeue-Light-43"/><use x="2248.899" xlink:href="#HelveticaNeue-Light-43"/><use x="2319.299" xlink:href="#HelveticaNeue-Light-20"/><use x="2347.099" xlink:href="#HelveticaNeue-Light-42"/><use x="2413.799" xlink:href="#HelveticaNeue-Light-59"/></g><g style="fill:#969696" transform="matrix(.14 0 0 -.14 90.48 17.407)" id="text_31"><defs><path d="M896 4198h928c1312 7 1882-550 1882-1913S3136 365 1824 371H896v3827zM461 0h1581c1376 32 2099 787 2099 2285 0 1497-723 2253-2099 2285H461V0z" id="HelveticaNeue-Light-44" transform="scale(.01563)"/></defs><use xlink:href="#HelveticaNeue-Light-44"/><use x="68.5" xlink:href="#HelveticaNeue-Light-61"/><use x="120.4" xlink:href="#HelveticaNeue-Light-69"/><use x="138.9" xlink:href="#HelveticaNeue-Light-6c"/><use x="157.4" xlink:href="#HelveticaNeue-Light-79"/><use x="203.7" xlink:href="#HelveticaNeue-Light-20"/><use x="231.5" xlink:href="#HelveticaNeue-Light-6e"/><use x="285.2" xlink:href="#HelveticaNeue-Light-75"/><use x="338.9" xlink:href="#HelveticaNeue-Light-6d"/><use x="422.2" xlink:href="#HelveticaNeue-Light-62"/><use x="479.6" xlink:href="#HelveticaNeue-Light-65"/><use x="531.5" xlink:href="#HelveticaNeue-Light-72"/><use x="563" xlink:href="#HelveticaNeue-Light-20"/><use x="590.8" xlink:href="#HelveticaNeue-Light-6f"/><use x="646.4" xlink:href="#HelveticaNeue-Light-66"/><use x="672.3" xlink:href="#HelveticaNeue-Light-20"/><use x="700.1" xlink:href="#HelveticaNeue-Light-71"/><use x="757.5" xlink:href="#HelveticaNeue-Light-75"/><use x="811.2" xlink:href="#HelveticaNeue-Light-65"/><use x="863.1" xlink:href="#HelveticaNeue-Light-73"/><use x="911.2" xlink:href="#HelveticaNeue-Light-74"/><use x="940.8" xlink:href="#HelveticaNeue-Light-69"/><use x="959.3" xlink:href="#HelveticaNeue-Light-6f"/><use x="1014.9" xlink:href="#HelveticaNeue-Light-6e"/><use x="1068.6" xlink:href="#HelveticaNeue-Light-73"/><use x="1116.7" xlink:href="#HelveticaNeue-Light-20"/><use x="1144.5" xlink:href="#HelveticaNeue-Light-6f"/><use x="1200.1" xlink:href="#HelveticaNeue-Light-6e"/><use x="1253.8" xlink:href="#HelveticaNeue-Light-20"/><use x="1281.6" xlink:href="#HelveticaNeue-Light-53"/><use x="1344.6" xlink:href="#HelveticaNeue-Light-74"/><use x="1374.2" xlink:href="#HelveticaNeue-Light-61"/><use x="1426.1" xlink:href="#HelveticaNeue-Light-63"/><use x="1478" xlink:href="#HelveticaNeue-Light-6b"/><use x="1528" xlink:href="#HelveticaNeue-Light-4f"/><use x="1602.1" xlink:href="#HelveticaNeue-Light-76"/><use x="1648.4" xlink:href="#HelveticaNeue-Light-65"/><use x="1700.3" xlink:href="#HelveticaNeue-Light-72"/><use x="1731.8" xlink:href="#HelveticaNeue-Light-66"/><use x="1757.7" xlink:href="#HelveticaNeue-Light-6c"/><use x="1776.2" xlink:href="#HelveticaNeue-Light-6f"/><use x="1831.8" xlink:href="#HelveticaNeue-Light-77"/></g><path clip-path="url(#p5cedc9995e)" d="m95.815 323.519 39.532-.014 20.949.014 39.455-.016 16.255-.078 2.33-.04 4.653.043 16.18-.105 4.693.066 4.655-.457 2.327.09 2.366-.127 2.29-.335 2.288.027 2.329.186 9.349.15 2.327-.18 2.33.012 2.325-.214 2.328.235 2.366-.266 2.251.062 2.25-.322 2.33.226 2.327-1.663 2.327-1.321 2.328.382 2.366-.371 2.327.416 2.33-.599 2.326-.922 2.327.993 2.366-.484 2.251-.347 2.25-.704 2.33.006 2.327-.126 2.328.076 2.327-.896 2.366-.448 2.328.207 2.329-1.132 2.326.03 2.328 1.196 2.365-1.52 4.501-.267 4.657-.224 2.328-.85 2.328-1.211 2.365 1.058 2.328-.789 2.33-.22 2.325-.46 2.328 1.427 2.366-1.801 2.29-.336 2.287-.89 2.33-2.384 2.327.435 2.328 1.02 2.327 1.664 2.366.344 2.328-.971 2.329.06 2.326-.59 2.328 2.068 2.365-1.198 2.252.093 2.25-.387 2.329-.17 2.327.127 2.328-.728 2.327 1.121h0" style="fill:none;stroke:#98df8a;stroke-linecap:square;stroke-width:1.5" id="line2d_24"/><path clip-path="url(#p5cedc9995e)" d="m45.333 320.097 1.795 1.298 2.326.248 2.327.58 2.366-.954 2.251-.326 2.25-.445 2.33-.304 2.327-.04 2.328-.3 2.327-.134 2.366.07 2.328-.414 2.329-1.282 2.326-1.586 2.327 1.046 2.366-.925 2.252-1.134 2.25.188 2.329-.754 2.327.32 2.328-.132 4.693-1.208 2.328-.421 2.33-.097 2.325-2.01 2.328 1.842 2.366.028 2.25-2.474 2.25-2.047 2.33-.015 2.327 1.998 2.328-.014 2.328 1.192 4.693-2.27 2.33-1.115 2.325-.95 2.328 1.86 2.366-1.57 2.29-2.444 2.287-1.123 2.33-.127 2.327 1.907 2.328.628 2.327.115 2.366.386 2.328-2.044 2.329-3.739 2.326-1.034 2.328 5.079 2.365-2.37 2.252-3.757 2.25-.097 2.329-1.52 2.327 3.258 2.328 1.088 2.328.23 2.365.077 2.328-3.538 2.33-5.133 2.325-1.32 2.328 6.5 2.366-1.682 2.251-4.645 2.25-1.243 2.329 2.982 2.328 6.214 2.327 2.818 2.328.182 2.366 1.143 2.327-4.693 2.33-3.263 2.326.026 2.327 4.586 2.366-.406 2.251-3.651 2.25-1.277 2.33-1.165 2.327 3.962 2.328 1.731 2.327 3.231 2.366 1.676 2.328-4.364 2.329-3.417 2.326-.414 2.327 4.578 2.366.273 2.29-3.196 2.288.308 2.329-.05 2.327 5.23 2.328 2.403 2.328.254 2.366.91 2.327-2.678 2.33-4.358 2.325-1.132 2.328 4.068 2.366.26 2.251-1.844 2.25.344 2.33.12 2.327 1.527 2.327 2.087 2.328 2.756 2.366.007 2.327-.858 2.33-4.399 2.326-1.844 2.327 6.022 2.366-.182 2.251-1.032 2.25-.784 2.33 1.444 2.327-.743 2.328 3.394 2.327 1.758 2.366-.73 2.328-1.68 2.329-4.137 2.326-1.121 2.328 2.79 2.365-.568 2.252.113 2.25-.905 2.329-1.278 2.327 2.897 2.328 1.543 2.328.034 2.365 1.486 2.328-4.374 2.33-3.687 2.325-1.057 2.328 4.148 2.366.736 2.29-.17 2.287-3.278 2.33-7.346 2.327.33 2.328 6.109 2.327 4.566 2.366 1.633 2.328-3.172 2.329-1.51 2.326-3.27 2.328 3.816 2.365-2.081 2.252.958 2.25-.426 2.329 1.166 2.327 1.87 2.328 1.643 2.327 3.354h0" style="fill:none;stroke:#ffbb78;stroke-linecap:square;stroke-width:1.5" id="line2d_25"/><path clip-path="url(#p5cedc9995e)" d="m126.037 323.519 2.327-.015 2.33-.111 2.325.097h2.328l2.366-.027 2.29-.027 2.287.055 2.33-.146 2.327.013 2.328-.02 2.327-.057 2.366-.057 2.328.056 2.329-.329 2.326.017 2.328-.059 2.365-.098 2.252.04 2.25.037 2.329-.528 2.327.297 2.328-.13 2.328.186 2.365.042 2.328.069 2.33-.111 2.325-.454 2.328-.584 2.366-.168 2.251-.045 2.25.389 2.329.147 2.328.322 2.327-.199 2.328.052h2.366l2.327.057 2.33-.078 2.326.143 2.327.215 2.366.217 2.251-.163 2.25.149 2.33-.128 2.327.177 2.328.177 2.327-.093 2.366.245 2.328-.007 2.329-.084 2.326-.09 2.327.28 2.366-.148 2.29-.085 2.288.155 2.329.052 2.327.096 2.328-.19 2.328.133 2.366-.14 2.327.065 2.33.118 2.325-.06 2.328-.039h2.366l2.251-.024 2.25-.018 2.33.03 2.327-.366 2.327-.01 2.328.03 2.366.106 2.327.11 2.33-.124 2.326.153 2.327-.013 2.366.056 2.251-.35 2.25-1.29 2.33-.344 2.327-.357 2.328-.353 2.327-.355 2.366-.189 2.328.153 2.329-.202 2.326.238 2.328-.54 2.365-1.962 2.252.406 2.25.33 2.329-.98 2.327-.24 2.328.197 2.328-1.472 2.365-.294 2.328.144 2.33.353 2.325-.28 2.328-.323 2.366-.904 2.29-.602 2.287.357 2.33-4.989 2.327-1.985 2.328.645 2.327.89 2.366.098 2.328 1.431 2.329-.05 2.326.659 2.328 1.29 2.365-1.276 2.252-1.225 2.25-1.222 2.329-.023 2.327-.229 2.328.179 2.327 1.79" style="fill:none;stroke:#aec7e8;stroke-linecap:square;stroke-width:1.5" id="line2d_26"/><path clip-path="url(#p5cedc9995e)" d="m51.781 323.519 39.38-.007 111.497-.063 2.327-17.392 2.328 5.925 2.366-.414 2.327-1.875 2.33-3.493 2.326-1.31 2.327 1.078 4.617-7.67 2.25-.082 2.33-3.972 2.327 2.542 4.655-9.504 2.366.533 2.328 2.605 2.329 2.848 2.326-1.139 2.327.592 2.366-2.93 2.29-2.003 2.288-.022 2.329 1.14 2.327 3.437 2.328-3.763 4.694.363 2.327-.863 2.33 2.167 2.325 1.549 2.328 4.03 2.366-2.81 2.251-1.104 2.25-.887 2.33 3.994 2.327-.356 2.327-1.629 2.328-.089 2.366 1.087 2.327 2.008 2.33.01 2.326.722 2.327 4.115 2.366-3.82 2.251-.211 2.25-1.969 2.33 2.515 2.327.611 2.328 2.481 2.327-4.892 2.366-.533 2.328 2.992 2.329-.181 2.326 1.427 2.328 2.344 2.365-1.1 2.252-.6 2.25.193 2.329-2.206 2.327.152 2.328-1.89 2.328-.843 2.365 4.548 2.328-.526 2.33-3.665 2.325.203 2.328 3.33 6.943-3.561 2.33-4.99 2.327.574 2.328 2.003 2.327 2.266 2.366 2.74 2.328 1.115 2.329 2.334 2.326.736 2.328 3.68 2.365-4.087 2.252-1.632 2.25.91 2.329 1.999 2.327 3.048 2.328.124 2.327-.257h0" style="fill:none;stroke:#17becf;stroke-linecap:square;stroke-width:1.5" id="line2d_27"/><path clip-path="url(#p5cedc9995e)" d="m156.296 323.519 2.329-1.942 2.326.906 2.328.468 2.365-.105 2.252.13 2.25-.27 2.329.132 2.327.148 2.328-.148 2.328-.076 2.365.007 2.328.127 2.33.048 2.325-.077 2.328-.203 2.366-.175 2.251.106 2.25.09 2.329-.18 2.328.047 2.327.2 2.328-.362 2.366.274 2.327.022 2.33-.162 2.326.22 2.327-.066 2.366-.154 2.251-.006 2.25-.107 2.33-.16 2.327-.463 2.328-.145 2.327-.15 2.366-.056 2.328-.09 2.329-.183 2.326-.586 2.327-.585 2.366-.82 2.29-1.258 2.288-.284 2.329-.927 2.327-.643 2.328-.567 2.328-.968 2.366-.63 2.327-.17 2.33-.665 2.325.246 2.328.413 2.366-1.107 2.251-1.169 2.25-.794 2.33.267 2.327-.82 2.327-.209 2.328-.037 2.366-.932 2.327 1.042 2.33.542 2.326-1.462 2.327 2.29 2.366-1.613 2.251-1.494 2.25-.37 2.33.39 2.327.45 2.328-.414 2.327-.756 2.366-1.83 2.328.957 2.329-1.32 2.326 1.544 2.328 1.182 2.365-2.74 2.252-2.339 2.25 1.645 2.329-1.065 2.327.7 2.328.343 2.328-1.927 2.365 1.766 2.328-.752 2.33-.86 2.325-2.073 2.328 2.95 2.366-.61 2.29-2.48 2.287-.773 2.33-5.062 2.327.66 2.328.832 2.327.402 2.366 2.923 2.328-.826 2.329.616 2.326 1.34 2.328 2.522 2.365-2.65 2.252-1.633 2.25-1.836 2.329 1.083 2.327 1.938 2.328-1.3 2.327 1.202" style="fill:none;stroke:#bcbd22;stroke-linecap:square;stroke-width:1.5" id="line2d_28"/><path clip-path="url(#p5cedc9995e)" d="m45.333 318.372 1.795 1.404 2.326.737 2.327.013 4.617-2.19 2.25.557 2.33-.77 2.327-.527 2.328-.777 2.327-.926 2.366.358 2.328-2.553 2.329-.538 2.326 1.545 2.327.494 2.366-.483 2.252-1.208 2.25-.236 2.329.65 2.327-.566 2.328-1.62 2.327-1.065 2.366-.567 2.328.813 2.33-.386 2.325-1.324 2.328 1.037 2.366-3.224 2.25-.061 2.25-2.077 2.33 1.986 2.327-2.379 2.328-.25 2.328.51 4.693-.04 2.33.551 2.325-2.347 2.328 2.41 2.366-1.52 2.29-3.99 2.287-1.674 2.33 1.153 2.327-.487 2.328.704 2.327-2.225 2.366.224 2.328-.215 2.329-2.658 2.326-2.448 2.328 4.08 2.365-5.501 2.252-2.912 2.25-1.238 2.329.16 2.327 1.62 2.328.67 2.328-3.578 2.365.224 4.657-10.275 2.326.396 2.328 3.795 2.366-5.705 2.251-4.584 2.25-.336 2.329-2.39 2.328 9.16 2.327 1.415 2.328-1.968 2.366 4.555 2.327-2.392 2.33 7.803 2.326 7.218 2.327 1.565 2.366-1.858 2.251-2.627 2.25-1.115 2.33-.44 2.327 2.626 2.328-1.584 2.327.246 2.366 2.768 4.657.203 2.326-.53 2.327 2.037 2.366-1.745 2.29-3.645 2.288-.855 2.329-.087 2.327 1.833 2.328-1.927 2.328 5.354 2.366-.652 2.327.028 2.33-.946 2.325-2.002 2.328 5.1 2.366-1.493 2.251-3.733 2.25-3.213 2.33 3.455 2.327-1.934 2.327 1.08 2.328 1.268 2.366 1.5 2.327 1.62 2.33-1.655 2.326-1.119 2.327 7.049 2.366-3.463 2.251-2.338 2.25-1.363 2.33-.964 2.327.712 2.328 1.49 2.327-.852 2.366.568 2.328 3.746 2.329-3.585 2.326.695 2.328 5.508 2.365-3.4 2.252-4.86 2.25.164 2.329 1.422 4.655 4.252 2.328-4.608 2.365 4.437 2.328-3.226 2.33-2.83 2.325-1.422 2.328 4.92 2.366-1.991 2.29-3.557 2.287.487 2.33-5.197 2.327 1.587 2.328 1.904 2.327 3.129 2.366 3.953 2.328-2.816 2.329-.458 2.326-.331 2.328 5.567 2.365-.645 2.252-3.142 2.25-1.708 2.329 1.355 2.327 2.325 2.328-2.325 2.327 4h0" style="fill:none;stroke:#7f7f7f;stroke-linecap:square;stroke-width:1.5" id="line2d_29"/><path clip-path="url(#p5cedc9995e)" d="m45.333 315.276 1.795 2.545 2.326.367 2.327.894 2.366-1.542 2.251-.586 2.25-.837 2.33-.007 2.327-1.142 2.328-.531 2.327-1.2 2.366.448 2.328-.784 2.329-1.22 2.326-.887 2.327 1.097 2.366-2.418 2.252-3.624 2.25.575 2.329-.961 2.327 1.08 2.328-3.506 2.327 1.642 2.366.329 2.328-1.363 2.33-.705 2.325-3.858 2.328 2.407 2.366-2.558 2.25-2.238 2.25-2.563 2.33-.907 2.327 2.954 2.328-.398 2.328.699 2.366-.75 2.327-.868 4.655-3.97 2.328 1.95 2.366-1.338 2.29-6.427 2.287 1.471 2.33-1.74 2.327 3.528 2.328 1.246 2.327-3.251 2.366.918 2.328.594 2.329-5.837 2.326-4.078 2.328 5.62 2.365-2.614 2.252-4.959 2.25-3.171 2.329-1.387 2.327 3.91 2.328 3.065 2.328-1.138 2.365 2.278 2.328-3.733 2.33-8.526 2.325-2.99 2.328 9.824 2.366-4.773 2.251-5.72 2.25-1.156 2.329 1.876 2.328 11.245 2.327 6.47 2.328-2.818 2.366 2.733 2.327-3.732 2.33-2.968 2.326.31 2.327 5.024 2.366-.456 2.251-7.077 2.25-1.558 2.33.004 2.327 3.949 2.328.643 2.327.184 2.366 5.846 2.328-1.634 2.329-6.588 2.326-1.987 2.327 5.393 2.366 3.246 2.29-6.41 2.288-.242 2.329-.633 2.327 7.032 2.328 1.53 4.694 6.397 2.327-2.19 2.33-4.664 2.325-2.238 2.328 7.48 2.366-2.965 2.251-.584 2.25-3.502 2.33 1.135 2.327 5.39 2.327 3.244 2.328-1.288 2.366 1.696 2.327 1.134 2.33-4.21 2.326.09 2.327 5.194 4.617-4.258 2.25-.893 2.33 2.527 2.327.942 2.328 3.295 2.327 1.212 2.366-.771 2.328.414 2.329-3.52 2.326-1.535 2.328 6.849 2.365-2.397 2.252-1.987 2.25-2.752 2.329-1.596 2.327 3.748 2.328 1.35 2.328-5.87 2.365 7.927 2.328-5.316 2.33-7.623 2.325-.402 2.328 6.318 2.366.28 2.29-2.569 2.287-3.333 2.33-14.189 2.327 1.202 2.328 5.824 2.327 5.306 2.366 3.939 2.328 3.277 2.329-2.338 2.326-1.261 2.328 5.25 2.365-2.09 2.252-2.858 2.25.567 2.329 1.499 2.327-.259 2.328 2.65 2.327 4.66h0" style="fill:none;stroke:#e377c2;stroke-linecap:square;stroke-width:1.5" id="line2d_30"/><path clip-path="url(#p5cedc9995e)" d="m45.333 323.437 1.795.082 18.505-.036 2.327-.322 2.366.028 2.328-.677 2.329.495 2.326-.169 2.327.12 2.366-.098 2.252-.288 2.25-.027 2.329-.185 2.327.185 7.021-1.01 4.657.484 2.326-.253 2.328.19 2.366-.19 2.25-.746 4.58-.949 2.327.448 2.328-.216 2.328.034 2.366-.932 2.327-.319 2.33.08 2.325-.05 2.328.1 2.366-.533 2.29-1.263 2.287-.146 2.33.11 2.327-.047 4.655-1.696 2.366.224 2.328-.023 2.329-1.21 2.326-.876 2.328 1.219 2.365-2.06 2.252-2.394 2.25-.01 2.329-.37 2.327.832 2.328-.353 2.328-.972 2.365.35 2.328 1.07 2.33-2.29 2.325-1.142 2.328 2.489 2.366-3.14 2.251-3.82 2.25.532 2.329-.074 2.328 1.665 2.327.805 2.328-1.162 2.366 1.135 2.327.194 2.33-2.317 2.326-.146 2.327 3.11 2.366-2.383 2.251-4.161 2.25-1.908 2.33.88 2.327.08 2.328-.84 2.327-3.043 2.366 3.434 2.328.333 2.329-1.686 2.326.158 2.327 3.375 2.366-2.551 2.29-2.154 4.617-3.008 2.327 3.388 2.328-1.382 2.328 1.719 2.366-.273 2.327 2.69 2.33-2.662 2.325.742 2.328 3.715 2.366-2.446 2.251-4.094 2.25-3.72 2.33 1.425 2.327.593 2.327-2.027 4.694.225 2.327 1.455 2.33-1.286 2.326-.858 2.327 6.717 2.366-3.371 2.251-5.594 2.25-.742 2.33 1.353 2.327 1.219 2.328.556 2.327.37 2.366.244 2.328 1.53 2.329-3.597 2.326-.677 2.328 8.212 2.365-5.145 2.252-6.38 2.25 1.95 2.329-2.613 2.327 3.496 2.328 1.618 2.328-3.58 2.365 3.497 2.328-.852 2.33-4.012 2.325.42 2.328 6.526 2.366-2.937 2.29-6.834 2.287-1.5 2.33-11.051 2.327 3.363 2.328 2.83 2.327 6.295 2.366 3.35 2.328-3.453 2.329-1.72 2.326.59 2.328 7.892 2.365-2.446 2.252-3.995 2.25-3.218 2.329 2.303 2.327 2.723 2.328 1.673 2.327 3.352h0" style="fill:none;stroke:#8c564b;stroke-linecap:square;stroke-width:1.5" id="line2d_31"/><path clip-path="url(#p5cedc9995e)" d="m45.333 318.304 1.795.87 2.326.695 2.327.286 2.366-1.1 2.251-1.504 2.25-.375 2.33-.668 2.327-1.288 2.328-3.152 2.327-2.813 4.694-2.177 2.329-.15 2.326-2.914 2.327-.338 2.366-4.31 2.252-.446 2.25-1.741 2.329-.147 2.327-1.521 2.328-1.694 2.327-2.645 2.366-3.827 2.328 2.112 2.33 2.297 2.325-5.412 2.328-.714 4.617-14.505 2.25-4.84 2.329 1.395 2.327-1.29 2.328-1.477 2.328-2.791 2.366-1.717 2.327 4.132 2.33 1.91 2.325-6.372 2.328 4.479 2.366-6.974 2.29-9.365 2.287-2.01 2.33.978 2.327-1.112 2.328.105 2.327-5.86 2.366-.868 2.328 3.933 2.329-3.205 2.326-2.618 2.328 7.742 2.365-13.009 2.252-8.184 2.25-1.376 2.329 2.08 2.327 5.336 2.328-.093 2.328-8.451 2.365.182 2.328-2.913 2.33-4.342 2.325-.359 2.328 6.843 2.366-17.256 2.251-10.698 2.25-.279 2.329.343 2.328 24.855 2.327 9.352 2.328-5.743 2.366 7.717 2.327-4.154 2.33 1.288 2.326 1.138 2.327 7.833 2.366-8.796 2.251-9.234 2.25.087 2.33-3.948 2.327 6.528 2.328-1.987 2.327-3.81 2.366 8.095 2.328 1.908 2.329.398 2.326 1.087h2.327l2.366-5.762 2.29-9.77 2.288 5.86 2.329 1.089 2.327 3.789 2.328 2.41 2.328 8.482 2.366.343 2.327 2.272 2.33 1.997 2.325-.57 2.328 6.19 2.366-8.158 2.251-8.716 2.25-1.552 2.33 8.636 2.327-1.403 2.327 6.125 2.328 2.728 2.366 1.023 2.327 4.194 2.33 1.547 2.326-.78 2.327 12.78 2.366-7.108 2.251.015 2.25 1.947 2.33 4.114 2.327-1.401 2.328 5.102 2.327-2.95 2.366-1.85 2.328 4.062 2.329-2.29 2.326 5.158 2.328 9.688 2.365-8.054 2.252-6.984 2.25 2.127 2.329 1.774 2.327 3.595 2.328 1.83 2.328-9.288 2.365 8.58 2.328-.472 2.33-2.942 2.325-2.259 2.328 10.572 2.366-6.056 2.29-2.937 2.287 1.78 2.33-13.288 2.327 4.135 2.328 4.882 2.327 4.187 2.366 8.586 2.328-.67 2.329 3.593 2.326-1.617 2.328 9.643 2.365-9.834 2.252-1.37 2.25 1.377 2.329 1.937 2.327 2.738 2.328.058 2.327 5.276h0" style="fill:none;stroke:#9467bd;stroke-linecap:square;stroke-width:1.5" id="line2d_32"/><path clip-path="url(#p5cedc9995e)" d="m45.333 306.123 1.795 3.448 4.653 2.775 2.366-5.474 2.251-3.506 2.25-2.01 2.33-1.897 2.327-.906 2.328-3.18 2.327-2.757 4.694-.668 2.329-1.568 2.326-.757L79.636 292l2.366-4.366 2.252-3.752 2.25-2.704 2.329.436 2.327.21 2.328-2.933 2.327-2.283 2.366-1.955 2.328 2.434 2.33-.878 2.325-5.749 2.328 3.177 2.366-6.337 2.25-7.878 2.25-6.266 2.33 2.797 2.327-3.091 2.328-.487 2.328 3.43 2.366-3.153 2.327 3.142 2.33 2.808 2.325-7.161 2.328 6.467 4.655-15.666 2.288-.805 2.33.842 2.327-.555 2.328-.727 2.327-4.438 2.366 2.803 2.328 2.229 2.329-7.57 2.326.588 2.328 11.854 2.365-13.044 2.252-8.133 2.25-2.493 2.329-.714 2.327 6.3 2.328 1.848 2.328-6.831 2.365 2.551 2.328-2.687 2.33-6.803 2.325.726 2.328 10.334 2.366-12.118 2.251-9.8 2.25 3.639 2.329 2.535 2.328 13.466 2.327 6.813 2.328-5.264 2.366 8.446 2.327-1.726 2.33 1.235 2.326 2.147 2.327 8.143 2.366-4.55 2.251-9.09 2.25-1.45 2.33-1.896 2.327 1.117 2.328-4.405 2.327-.88 2.366 6.323 2.328-.728 2.329 3.889 2.326-.065 2.327 4.53 2.366-1.41 2.29-8.92 2.288.026 2.329-4.054 2.327 4.846 2.328-.037 2.328 10.544 2.366-5.026 2.327 8.728 2.33.202 2.325-4.15 2.328 9.498 2.366-7.1 2.251-7.386 2.25-1.761 2.33 10.856 2.327-3.847 2.327 2.138 2.328 3.343 2.366 1.787 2.327 5.198 2.33-.074 2.326.596 2.327 10.71 2.366-5.503 2.251-.791 2.25-2.139 2.33 1.815 2.327-2.796 2.328 6.12 2.327-6.26 2.366-3.343 2.328 5.931 2.329-5.167 2.326 4.059 2.328 9.72 2.365-9.644 2.252-4.83 2.25 2.7 2.329-4.718 2.327 3.28 2.328 5.172 2.328-9.524 2.365 8.943 2.328-3.96 2.33-3.638 2.325.582 2.328 12.455 2.366-6.182 2.29-5.105 2.287 1.685 2.33-10.907 4.655 10.487 2.327 3.118 2.366 5.32 2.328 2.289 2.329 3.795 2.326-.05 2.328 11.734 2.365-11.46 2.252-2.933 2.25.655 2.329 3.314 2.327 2.903 2.328-.78 2.327 6.773h0" style="fill:none;stroke:#d62728;stroke-linecap:square;stroke-width:1.5" id="line2d_33"/><path clip-path="url(#p5cedc9995e)" d="m45.333 310.78 1.795 4.664 4.653 2.236 2.366-2.243 2.251-1.292 2.25-.726 2.33-1.018 2.327-1.66 2.328-2.577 2.327-.528 2.366.505 2.328-1.041 2.329-1.174 2.326-2.426 2.327 1.158 2.366-7.31 2.252-1.664 2.25-3.39 2.329 3.007 2.327-1.1 2.328-1.826 2.327-.593 2.366-1.325 4.657-2.257 2.326-5.363 2.328.8 2.366-6.16 2.25-7.603 2.25-6.114 2.33 2.238 2.327-2.827 2.328 2.732 2.328.163 2.366-3.757 2.327.618 2.33.335 2.325-9.954 2.328 5.293 2.366-6.665 2.29-11.366 2.287-4.867 2.33-.14 2.327 1.787 2.328 5.094 2.327-5.396 2.366.155 2.328 1.758 2.329-10.492 2.326-4.008 2.328 11.543 2.365-9.315 2.252-10.941 2.25-4.83 2.329-5.983 2.327 10.49 2.328 6.182 2.328-5.347 2.365 1.072 2.328-12.325 2.33-13.798 2.325-4.533 2.328 13.708 2.366-8.712 2.251-18.868 2.25-4.633 2.329 2.832 2.328 25.512 2.327 10.665 2.328-6.382 2.366 11.579 2.327-10.962 2.33-4.41 2.326-3.832 2.327 14.599 2.366-1.164 2.251-14.062 2.25-8.528 2.33-4.846 2.327 13.635 2.328.626 2.327-1.831 2.366 11.48 2.328-3.072 2.329-7.21 2.326 1.097 2.327 12.907 2.366-.693 2.29-17.096 2.288-6.013 2.329-1.592 2.327 21.694 2.328 4.279 2.328 10.678 2.366-1.605 2.327.096 2.33-1.267 2.325-5.932 2.328 16.41 2.366-5.095 2.251-11.004 2.25-8.48 2.33 6.112 2.327.854 2.327 8.64 2.328 6.738 2.366 3.042 2.327 3.772 2.33-5.826 2.326-4.763 2.327 18.929 2.366-2.377 2.251-6.853 2.25-1.656 2.33-2.712 2.327 3.161 2.328 9.137 2.327-4.357 2.366.372 2.328 1.03 2.329-12.399 2.326 3.259 2.328 13.528 2.365-5.229 2.252-8.759 2.25-.696 2.329 2.829 2.327 3.416 2.328 5.593 2.328-13.85 2.365 15.721 2.328-7.455 2.33-11.84 2.325 2.78 2.328 16.06 2.366-6.014 2.29-6.97 2.287-7.826 2.33-22.49 2.327 11.17 2.328 12.586 2.327 7.678 2.366 10.688 2.328-1.317 2.329 1.612 2.326.047 2.328 20.258 2.365-10.416 2.252-5.128 2.25-2.904 2.329 5.172 2.327.828 2.328 2.373 2.327 11.47h0" style="fill:none;stroke:#2ca02c;stroke-linecap:square;stroke-width:1.5" id="line2d_34"/><path clip-path="url(#p5cedc9995e)" d="m45.333 316.81 1.795 1.62 2.326.895 2.327-.194 2.366-1.156 2.251-1.82 2.25.313 2.33-.547 2.327-2.446 2.328-1.233 2.327-.996 2.366-.743 2.328.356 2.329-1.66 2.326-1.817 2.327-.019 4.618-4.26 2.25-.506 4.656-1.633 2.328-2.541 2.327-2.001 4.694-1.83 2.33.07 2.325-4.061 2.328-1.805 2.366-3.49 2.25-5.367 2.25-3.934 2.33-2.562 2.327-1.286 2.328-4.5 2.328-1.157 2.366-5.607 4.656 6.056 2.326-6.572 2.328 4.525 2.366-8.971 2.29-7.763 2.287-.164 2.33-2.344 2.327-3.397 2.328-.673 2.327-5.011 2.366-.554 2.328 6.354 2.329-6.179 2.326-2.316 2.328 7.167 2.365-14.775 2.252-10.093 2.25-.96 2.329-3.792 2.327 6.02 2.328-.385 2.328-12.287 2.365.09 2.328-10.603 2.33-10.003 2.325 4.405 2.328 7.693 2.366-21.756 2.251-16.374 2.25 5.223 2.329 3.478 2.328 16.68 2.327 6.12 2.328-8.475 2.366 11.733 2.327-1.787 2.33-1.276 2.326 2.413 2.327 11.093 2.366-10.717 2.251-14.899 2.25.888 2.33-7.478 2.327-3.827 2.328-8.456 2.327-4.49 2.366 13.128 2.328-.056 2.329 2.299 2.326-1.104 2.327 6.276 2.366-10.093 2.29-10.654 2.288-.385 2.329-.976 2.327 8.644 2.328.663 2.328 5.035 2.366-3.35 2.327 10.96 2.33 4.656 2.325-5.33 2.328 9.809 2.366-11.242 2.251-14.286 2.25-1.772 2.33 12.234 2.327-3.087 2.327.573 2.328 4.866 2.366 1.703 2.327 12.19 2.33-1.83 2.326-1.169 2.327 21.557 2.366-13.884 2.251-.915 2.25-.361 2.33 3.975 2.327 3.223 2.328 2.209 2.327-8.881 2.366-6.168 2.328 9.849 2.329-7.396 2.326 4.76 2.328 19.96 2.365-13.47 2.252-11.681 2.25.27 2.329 3.95 2.327 4.552 2.328 1.025 2.328-14.728 2.365 9.988 2.328-.837 2.33-8.296 2.325-3.408 2.328 18.597 2.366-14.138 2.29-8.47 2.287-9.185 2.33-38.321 2.327 3.71 2.328 9.986 2.327 5.196 2.366 17.999 2.328 4.341 2.329 6.6 2.326 2.642 2.328 15.14 2.365-20.971 2.252-3.048 2.25-.611 2.329 5.202 2.327 6.055 2.328 1.528 2.327 10.962h0" style="fill:none;stroke:#ff7f0e;stroke-linecap:square;stroke-width:1.5" id="line2d_35"/><path clip-path="url(#p5cedc9995e)" d="m45.333 317.761 1.795 2.176 4.653.49 2.366-1.33 4.501-.94 2.33-.2 2.327-1.468 4.655-1.122 2.366.155 2.328-.463 2.329-1.514 2.326-1.325 2.327.155 2.366-2.538 2.252-.806 2.25-.042 2.329 1.37 2.327-.935 2.328-1.897 2.327-2.232 2.366.73 2.328 1.162 2.33-2.368 2.325-.254 2.328 1.53 4.617-6.004 2.25-2.92 2.329 2.078 6.983-1.523 2.366-1.136 2.327 1.398 2.33.039 2.325-2.646 2.328 2.674 4.655-8.364 2.288-1.687 2.33-.271 2.327-.15 2.328-2.414 2.327-1.931 2.366-.911 2.328 3.03 2.329-4.937 2.326-3.32 2.328 5.97 2.365-5.874 2.252-6.399 2.25-1.1 2.329-3.938 2.327 2.732 2.328-.292 2.328-5.35 2.365 4.766 2.328-2.016 2.33-8.918 2.325-2.192 2.328 9.502 2.366-9.7 2.251-7.969 2.25-3.21 2.329 1.962 2.328 13.107 2.327.43 2.328-5.168 2.366 5.873 2.327.286 2.33-3.643 2.326-2.209 2.327 6.043 2.366-4.556 2.251-11.204 2.25-2.33 2.33-1.583 2.327 4.407 2.328-6.906 2.327-.874 2.366 7.745 2.328-.81 2.329-8.134 2.326-1.577 2.327 7.55 2.366-4.963 2.29-12.8 2.288.625 2.329-.378 2.327 7.058 2.328-1.532 2.328 3.53 2.366-.456 2.327 1.047 2.33-5.316 2.325-8.054 2.328 11.362 2.366-8.712 2.251-14.703 2.25-5.427 2.33 6.811 2.327-.005 2.327-2.812 2.328-2.487 2.366 3.224 2.327 3.464 2.33-7.017 2.326-4.122 2.327 18.217 2.366-8.993 2.251-13.192 2.25 1.22 2.33 2.74 2.327-.503 2.328 1.655 2.327-15.176 2.366-.063 2.328 8.96 2.329-13.48 2.326-4.504 2.328 22.587 2.365-9.28 2.252-19.74 2.25-5.633 2.329-4.346 2.327 10.157 2.328-3.79 2.328-16.943 2.365 17.088 2.328 2.846 2.33-26.516 2.325-9.966 2.328 29.473 4.655-35.945 2.288-14.303 2.33-53.477 2.327-1.544 2.328 14.48 2.327 16.52 2.366 29.313 2.328 1.563 2.329-3.66 2.326-2.793 2.328 28.734 2.365-25.737 2.252-10.38 2.25-4.78 2.329 8.44 2.327 6.426 2.328 7.132 2.327 14.87h0" style="fill:none;stroke:#1f77b4;stroke-linecap:square;stroke-width:1.5" id="line2d_36"/></g></g><defs><clipPath id="p5cedc9995e"><path d="M45.333 57.407h357.12v266.112H45.333z"/></clipPath></defs></svg>