<svg xmlns:xlink="http://www.w3.org/1999/xlink" width="681.506" height="489.243" viewBox="0 0 511.13 366.932" xmlns="http://www.w3.org/2000/svg"><defs><style>*{stroke-linejoin:round;stroke-linecap:butt}</style></defs><g id="figure_1"><path d="M0 366.932h511.13V0H0v366.932z" style="fill:none" id="patch_1"/><g id="axes_1"><path d="M28.563 323.405h357.12V57.293H28.563v266.112z" style="fill:none" id="patch_2"/><g id="matplotlib.axis_1"><g id="xtick_1"><g id="line2d_1"><defs><path id="m5aff7239c0" d="M0 0v3.5" style="stroke:#969696;stroke-width:.4"/></defs><use xlink:href="#m5aff7239c0" x="63.816" y="323.405" style="fill:#969696;stroke:#969696;stroke-width:.4"/></g><g style="fill:#969696" transform="matrix(.14 0 0 -.14 49.453 340.345)" id="text_1"><defs><path id="MyriadPro-Regular-32" d="M2944 0v467H1075v13l333 307c877 845 1434 1466 1434 2234 0 595-378 1209-1274 1209-480 0-890-179-1178-422l180-397c192 160 505 352 883 352 621 0 825-390 825-813-6-627-486-1164-1548-2176L288 346V0h2656z" transform="scale(.01563)"/><path id="MyriadPro-Regular-30" d="M1677 4230c-845 0-1447-768-1447-2163C243 691 794-70 1606-70c922 0 1447 780 1447 2195 0 1325-499 2105-1376 2105zm-32-435c582 0 845-672 845-1696 0-1062-276-1734-852-1734-512 0-844 614-844 1696 0 1133 358 1734 851 1734z" transform="scale(.01563)"/><path id="MyriadPro-Regular-31" d="M1510 0h544v4160h-480l-908-486 108-429 724 390h12V0z" transform="scale(.01563)"/></defs><use xlink:href="#MyriadPro-Regular-32"/><use xlink:href="#MyriadPro-Regular-30" x="51.3"/><use xlink:href="#MyriadPro-Regular-31" x="102.6"/><use xlink:href="#MyriadPro-Regular-30" x="153.9"/></g></g><g id="xtick_2"><use xlink:href="#m5aff7239c0" x="119.16" y="323.405" style="fill:#969696;stroke:#969696;stroke-width:.4" id="line2d_2"/><g style="fill:#969696" transform="matrix(.14 0 0 -.14 104.797 340.345)" id="text_2"><use xlink:href="#MyriadPro-Regular-32"/><use xlink:href="#MyriadPro-Regular-30" x="51.3"/><use xlink:href="#MyriadPro-Regular-31" x="102.6"/><use xlink:href="#MyriadPro-Regular-32" x="153.9"/></g></g><g id="xtick_3"><use xlink:href="#m5aff7239c0" x="174.58" y="323.405" style="fill:#969696;stroke:#969696;stroke-width:.4" id="line2d_3"/><g style="fill:#969696" transform="matrix(.14 0 0 -.14 160.217 340.345)" id="text_3"><defs><path id="MyriadPro-Regular-34" d="M2560 0v1133h582v441h-582v2586h-608L96 1504v-371h1933V0h531zM666 1574v13l1017 1415c115 192 218 371 346 614h19c-13-218-19-435-19-653V1574H666z" transform="scale(.01563)"/></defs><use xlink:href="#MyriadPro-Regular-32"/><use xlink:href="#MyriadPro-Regular-30" x="51.3"/><use xlink:href="#MyriadPro-Regular-31" x="102.6"/><use xlink:href="#MyriadPro-Regular-34" x="153.9"/></g></g><g id="xtick_4"><use xlink:href="#m5aff7239c0" x="229.924" y="323.405" style="fill:#969696;stroke:#969696;stroke-width:.4" id="line2d_4"/><g style="fill:#969696" transform="matrix(.14 0 0 -.14 215.56 340.345)" id="text_4"><defs><path id="MyriadPro-Regular-36" d="M2662 4224c-102 0-243-6-409-32-525-64-986-275-1331-614-410-410-704-1056-704-1876C218 621 800-70 1690-70c864 0 1382 704 1382 1465 0 813-518 1344-1254 1344-461 0-807-217-1005-480h-19c96 685 563 1331 1446 1479 160 25 307 32 422 25v461zM1690 365c-589 0-903 505-916 1190 0 103 26 186 64 250 154 301 468 512 807 512 518 0 857-359 857-954s-326-998-806-998h-6z" transform="scale(.01563)"/></defs><use xlink:href="#MyriadPro-Regular-32"/><use xlink:href="#MyriadPro-Regular-30" x="51.3"/><use xlink:href="#MyriadPro-Regular-31" x="102.6"/><use xlink:href="#MyriadPro-Regular-36" x="153.9"/></g></g><g id="xtick_5"><use xlink:href="#m5aff7239c0" x="285.344" y="323.405" style="fill:#969696;stroke:#969696;stroke-width:.4" id="line2d_5"/><g style="fill:#969696" transform="matrix(.14 0 0 -.14 270.98 340.345)" id="text_5"><defs><path id="MyriadPro-Regular-38" d="M1062 2170c-512-218-825-589-825-1114C237 448 762-70 1632-70c794 0 1414 486 1414 1209 0 506-320 871-838 1075v20c512 243 685 620 685 972 0 519-403 1024-1210 1024-729 0-1286-448-1286-1107 0-358 198-717 659-934l6-19zm583-1831c-531 0-851 371-832 794 0 397 262 717 749 857 563-160 915-403 915-908 0-423-327-743-832-743zm6 3488c506 0 704-345 704-678 0-378-275-634-633-755-480 128-794 352-794 768 0 358 256 665 723 665z" transform="scale(.01563)"/></defs><use xlink:href="#MyriadPro-Regular-32"/><use xlink:href="#MyriadPro-Regular-30" x="51.3"/><use xlink:href="#MyriadPro-Regular-31" x="102.6"/><use xlink:href="#MyriadPro-Regular-38" x="153.9"/></g></g><g id="xtick_6"><use xlink:href="#m5aff7239c0" x="340.688" y="323.405" style="fill:#969696;stroke:#969696;stroke-width:.4" id="line2d_6"/><g style="fill:#969696" transform="matrix(.14 0 0 -.14 326.325 340.345)" id="text_6"><use xlink:href="#MyriadPro-Regular-32"/><use xlink:href="#MyriadPro-Regular-30" x="51.3"/><use xlink:href="#MyriadPro-Regular-32" x="102.6"/><use xlink:href="#MyriadPro-Regular-30" x="153.9"/></g></g></g><g id="matplotlib.axis_2"><g id="ytick_1"><path d="M28.563 323.405h357.12" clip-path="url(#pcf5da11293)" style="fill:none;stroke:#969696;stroke-width:.3;stroke-linecap:square" id="line2d_7"/><g id="line2d_8"><defs><path id="m479f4de963" d="M0 0h-3.5" style="stroke:#969696;stroke-width:.3"/></defs><use xlink:href="#m479f4de963" x="28.563" y="323.405" style="fill:#969696;stroke:#969696;stroke-width:.3"/></g><use xlink:href="#MyriadPro-Regular-30" style="fill:#969696" transform="matrix(.14 0 0 -.14 14.382 328.375)" id="text_7"/></g><g id="ytick_2"><path d="M28.563 293.054h357.12" clip-path="url(#pcf5da11293)" style="fill:none;stroke:#969696;stroke-width:.3;stroke-linecap:square" id="line2d_9"/><use xlink:href="#m479f4de963" x="28.563" y="293.054" style="fill:#969696;stroke:#969696;stroke-width:.3" id="line2d_10"/><g style="fill:#969696" transform="matrix(.14 0 0 -.14 14.382 298.024)" id="text_8"><defs><path id="MyriadPro-Regular-35" d="M2771 4160H781L512 2163c154 19 339 45 576 45 832 0 1190-384 1197-922 0-556-455-902-986-902-377 0-717 128-889 230L269 186C467 58 851-70 1306-70c902 0 1548 608 1548 1420 0 525-268 884-595 1069-256 154-576 224-896 224-153 0-243-13-339-25l160 1068h1587v474z" transform="scale(.01563)"/></defs><use xlink:href="#MyriadPro-Regular-35"/></g></g><g id="ytick_3"><path d="M28.563 262.703h357.12" clip-path="url(#pcf5da11293)" style="fill:none;stroke:#969696;stroke-width:.3;stroke-linecap:square" id="line2d_11"/><use xlink:href="#m479f4de963" x="28.563" y="262.703" style="fill:#969696;stroke:#969696;stroke-width:.3" id="line2d_12"/><g style="fill:#969696" transform="matrix(.14 0 0 -.14 7.2 267.673)" id="text_9"><use xlink:href="#MyriadPro-Regular-31"/><use xlink:href="#MyriadPro-Regular-30" x="51.3"/></g></g><g id="ytick_4"><path d="M28.563 232.351h357.12" clip-path="url(#pcf5da11293)" style="fill:none;stroke:#969696;stroke-width:.3;stroke-linecap:square" id="line2d_13"/><use xlink:href="#m479f4de963" x="28.563" y="232.351" style="fill:#969696;stroke:#969696;stroke-width:.3" id="line2d_14"/><g style="fill:#969696" transform="matrix(.14 0 0 -.14 7.2 237.321)" id="text_10"><use xlink:href="#MyriadPro-Regular-31"/><use xlink:href="#MyriadPro-Regular-35" x="51.3"/></g></g><g id="ytick_5"><path d="M28.563 202h357.12" clip-path="url(#pcf5da11293)" style="fill:none;stroke:#969696;stroke-width:.3;stroke-linecap:square" id="line2d_15"/><use xlink:href="#m479f4de963" x="28.563" y="202" style="fill:#969696;stroke:#969696;stroke-width:.3" id="line2d_16"/><g style="fill:#969696" transform="matrix(.14 0 0 -.14 7.2 206.97)" id="text_11"><use xlink:href="#MyriadPro-Regular-32"/><use xlink:href="#MyriadPro-Regular-30" x="51.3"/></g></g><g id="ytick_6"><path d="M28.563 171.649h357.12" clip-path="url(#pcf5da11293)" style="fill:none;stroke:#969696;stroke-width:.3;stroke-linecap:square" id="line2d_17"/><use xlink:href="#m479f4de963" x="28.563" y="171.649" style="fill:#969696;stroke:#969696;stroke-width:.3" id="line2d_18"/><g style="fill:#969696" transform="matrix(.14 0 0 -.14 7.2 176.619)" id="text_12"><use xlink:href="#MyriadPro-Regular-32"/><use xlink:href="#MyriadPro-Regular-35" x="51.3"/></g></g><g id="ytick_7"><path d="M28.563 141.298h357.12" clip-path="url(#pcf5da11293)" style="fill:none;stroke:#969696;stroke-width:.3;stroke-linecap:square" id="line2d_19"/><use xlink:href="#m479f4de963" x="28.563" y="141.298" style="fill:#969696;stroke:#969696;stroke-width:.3" id="line2d_20"/><g style="fill:#969696" transform="matrix(.14 0 0 -.14 7.2 146.268)" id="text_13"><defs><path id="MyriadPro-Regular-33" d="M269 211C474 77 883-70 1350-70c999 0 1517 582 1517 1248 0 582-416 966-928 1068v13c512 186 768 551 768 979 0 506-371 992-1190 992-448 0-871-160-1088-320l147-409c179 128 499 275 832 275 518 0 730-294 730-627 0-493-519-704-928-704H896v-423h314c544 0 1068-249 1075-832 6-345-218-806-941-806-390 0-762 160-922 262L269 211z" transform="scale(.01563)"/></defs><use xlink:href="#MyriadPro-Regular-33"/><use xlink:href="#MyriadPro-Regular-30" x="51.3"/></g></g><g id="ytick_8"><path d="M28.563 110.946h357.12" clip-path="url(#pcf5da11293)" style="fill:none;stroke:#969696;stroke-width:.3;stroke-linecap:square" id="line2d_21"/><use xlink:href="#m479f4de963" x="28.563" y="110.946" style="fill:#969696;stroke:#969696;stroke-width:.3" id="line2d_22"/><g style="fill:#969696" transform="matrix(.14 0 0 -.14 7.2 115.916)" id="text_14"><use xlink:href="#MyriadPro-Regular-33"/><use xlink:href="#MyriadPro-Regular-35" x="51.3"/></g></g><g id="ytick_9"><path d="M28.563 80.595h357.12" clip-path="url(#pcf5da11293)" style="fill:none;stroke:#969696;stroke-width:.3;stroke-linecap:square" id="line2d_23"/><use xlink:href="#m479f4de963" x="28.563" y="80.595" style="fill:#969696;stroke:#969696;stroke-width:.3" id="line2d_24"/><g style="fill:#969696" transform="matrix(.14 0 0 -.14 7.2 85.565)" id="text_15"><use xlink:href="#MyriadPro-Regular-34"/><use xlink:href="#MyriadPro-Regular-30" x="51.3"/></g></g></g><path d="m28.563 304.815 1.783 10.17 2.311.933 2.312-.737 2.35.783 2.237-2.315 2.235.553 2.314-1.521 2.312-5.92 2.313-1.567 2.312 6.462 2.35-3.133 2.312-.698 2.314.502 2.311-.3 2.312 1.475 2.35-9.399 2.237 5.525 2.235-4.546 2.314-1.553 2.312 1.162 2.313 4.706 2.312-1.378 2.35-7.636 2.312-2.115 2.314 8.38 2.311-8.785 2.312 4.674 2.35 3.329L94.9 288.5l2.235 12.973 2.314-3.16 2.312 3.356 2.312-8.211 2.313 1.553 2.35-2.35 2.312-8.106 2.314 12.218 2.311-6.553 2.312-1.28 2.35-1.957 2.275-6.49 2.273-2.518 2.314-4.347 2.312 16.488 2.312-11.025 2.313-3.074 2.35 7.833 2.312 4.549 2.314-9.249 2.31 1.358 2.313 2.558 2.35-4.7 2.237-1.14 2.235 4.861 2.314-1.175 2.312 1.959 2.312-2.363 2.313-3.12h2.35l2.312 2.917 2.314-8.4 2.31 4.556 2.313-.052 2.35-2.742 2.237-4.678 2.235-.609 2.314 7.474 2.312 11.129 2.312-1.821 2.313-2.487 2.35-4.896 2.312 5.561 2.314 2.664 2.31-1.854 2.313 10.47 2.35-1.371 2.237-6.266 2.235 12.14 2.314-4.654 2.312 6.808 2.312-3.773 2.312 2.207 2.35 1.762 2.313 3.316 2.314-6.645 2.31 5.835L228.75 305l2.35-5.875 2.275-2.512 2.272 2.316 2.314 3.231 2.313 3.427 2.312-4.034 2.312 5.992 2.35-1.762 2.313.829 2.314-5.137 2.31 5.541 2.313 3.466 2.35-2.35 2.236-8.356 2.235 9.531 2.314-.874 2.313.483 2.312 1.743 2.312.802 2.35-3.328 2.313 3.537 2.314 1.945 2.31-1.742 2.313-1.39 4.586 2.734 2.235-.58 2.314.045 6.937.933 4.663-1.945 2.314 2.337 2.31-1.325 2.313 2.108 2.35-1.958 2.236 2.336 2.235-.77 2.314-1.716 2.313-2.787 2.312 5.62 2.312 1.625 2.35.196 2.313-5.463 2.314 2.134 2.31-1.123 2.313 1.319 2.35-1.37 2.274 4.294 2.273-2.14 2.314-3.317 2.312 1.75 2.313-.738 2.312 3.675 2.35-.783 2.312-2.285 2.314 1.11 2.311-.908 2.312 1.3 2.35-2.546 2.237 2.923 2.235-1.748 2.314 4.118 2.312-2.356 2.313.333 2.312 2.213 2.35.587h0" clip-path="url(#pcf5da11293)" style="fill:none;stroke:#d62728;stroke-width:1.5;stroke-linecap:square" id="line2d_25"/><path d="m28.563 322.267 4.094.329 2.312.417 2.35-.391 2.237.133 2.235-.133 2.314-.026 2.312-.366 2.313-.646 4.662 1.234 2.312-1.032 2.314.053 2.311-.457 2.312.652 2.35-.195 2.237-.385 2.235-.986 2.314.711 2.312.268 2.313-1.28 2.312 1.084 2.35-.587 2.312.11 2.314-1.09 2.311.281 2.312.503 2.35-2.546 2.237-1.888 2.235 2.867 2.314-.96 2.312 2.135 2.312-2.539 2.313 2.148 2.35-1.958 2.312-.392h2.314l2.311.405 2.312-.405 2.35-.98 2.275-.485 2.273 2.052 2.314-.992 2.312-.77 2.312.568 2.313-1.155 2.35.391 2.312 1.37 2.314-2.74 2.31 1.73 2.313-4.08 2.35-2.35 2.237 1.587 2.235 2.33 2.314-2.142 2.312-.209 2.312.816 2.313-1.99 2.35 3.328 2.312-.528 2.314-6.913 2.31 1.247 2.313 1.103 2.35-3.524 2.237 1.063 2.235 3.049 2.314-2.703 2.312 2.311 2.312.927 2.313.64 2.35 2.154 2.312-1.985 2.314-3.302 2.31 5.528 2.313-2.787h2.35l2.237.503 2.235-1.482 2.314-2.709 2.312 5.254 2.312-1.814 2.312 2.402 2.35-2.35 2.313-1.469 2.314.882 2.31 2.154 2.313.587 2.35-.783 4.547-3.916 2.314 3.302 2.313.614 2.312-.21 2.312-1.748 2.35 1.566 2.313-2.448 2.314 4.21 2.31.444 2.313-1.618 2.35-.784 2.236-.3 4.55 1.488 2.312-2.363 2.312 1.959 2.312-2.35 2.35 2.937 2.313 1.436 2.314-3.786 2.31 3.179 2.313.346 2.35 1.175 2.236.098 2.235-1.273 2.314.261 2.313 1.893 2.312-2.702 2.312.156 2.35 1.175 2.313.49 2.314-.098 2.31 1.919 2.313-1.136 2.35-4.112 2.236 4.294 2.235-1.553 2.314 2.71 2.313-3.297 2.312 2.284 2.312-2.48 2.35 3.133 2.313-2.878 2.314 1.312 2.31.711 2.313-2.082 2.35-.392 2.274-2.417 2.273 2.809 4.626-1.958 2.313 2.826 2.312-.868 2.35 2.154 2.312.13 2.314-.13 2.311-1.69 2.312 3.844 2.35.979 2.237-4.665 2.235 2.707 2.314-1.652 2.312 1.26 2.313-3.08 2.312 1.71 2.35.195h0" clip-path="url(#pcf5da11293)" style="fill:none;stroke:#2ca02c;stroke-width:1.5;stroke-linecap:square" id="line2d_26"/><path d="m28.563 305.574 1.783 10.586 2.311-.444 2.312 2.206 2.35-1.958 2.237-5.783 2.235-.483 2.314-4.301 2.312-.398 2.313 4.242 2.312-1.697 2.35-2.741 2.312 1.605 2.314-7.088 2.311 4.458 2.312-.738 2.35-6.853 2.237 2.07 2.235-3.832 4.626 12.14 2.313-9.667 2.312 1.834 2.35.392 2.312-8.094 2.314 4.178 2.311-1.952 2.312-4.902 2.35-9.79 2.237 6.252 2.235-4.294 2.314-3.048 2.312 4.027 2.312 1.84 2.313 10.692 2.35-18.798 2.312-2.213 2.314 1.625 2.311 5.66 2.312-10.163 2.35 1.958 2.275-4.585 2.273-.898 2.314 8.831 2.312-1.978 2.312 2.18 2.313-9.425 2.35-3.133 2.312 8.714 2.314 7.147 2.31-18.276 2.313 16.71 2.35-8.029 2.237-10.343 2.235 2.51 2.314 1.176 2.312-2.154 2.312 17.33 2.313-12.435 2.35-3.329 2.312 4.432 2.314-2.082 2.31 2.891 2.313 3.57 2.35-7.636 2.237 2.014 4.549-4.827 2.312 11.82 2.312 2.141 2.313-8.798 2.35 4.7 2.312-.96 2.314-2.174 4.623 11.358 2.35-12.14 2.237-4.155 2.235 12.966 2.314 5.476 2.312-2.539 2.312 8.205 2.312-7.813 2.35.979 2.313-2.474 2.314 3.453 2.31-1.227 2.313 5.143 2.35-3.133 2.275.027 2.272 3.693 2.314.138 2.313 3.191 2.312-1.573 2.312 2.748 2.35 4.504 2.313-4.014 2.314-3.231 2.31 1.005 2.313 5.26 2.35-3.132 2.236-2.07 2.235 1.482 2.314 5.137 2.313.346 2.312-2.167 2.312-8.211 2.35 14.099 2.313-10.542 2.314 9.563 2.31.352 2.313 4.347 2.35-4.308 2.236-2.294 2.235.336 2.314 3.74 2.313 1.939 2.312-.927 2.312-3.969 2.35 2.546 2.313.613 2.314-1.984 2.31 2.592 2.313-1.025 2.35-.392 2.236-4.553 2.235 5.924 2.314 3.485 2.313 2.585 2.312 1.664 2.312-2.251 2.35-.392 4.627-3.72 2.31-3.956 2.313 7.089 2.35-7.05 2.274-.29 2.273.29 2.314-16.833 2.312-2.944 2.313 7.395 2.312 6.312 2.35-.98 2.312 4.988 2.314-3.42 2.311 11.918 2.312-3.499 2.35-5.678 4.472 3.916 2.314-3.035 2.312 7.93 2.313-.443 2.312 2.206 2.35 4.112h0" clip-path="url(#pcf5da11293)" style="fill:none;stroke:#ff7f0e;stroke-width:1.5;stroke-linecap:square" id="line2d_27"/><g style="fill:#1f77b4" transform="matrix(.14 0 0 -.14 396.397 60.877)" id="text_16"><defs><path id="MyriadPro-Regular-76" d="M83 3098 1261 0h537l1216 3098h-588l-602-1741c-102-282-192-538-262-794h-20c-64 256-147 512-249 794L685 3098H83z" transform="scale(.01563)"/><path id="MyriadPro-Regular-69" d="M1030 0v3098H467V0h563zM749 4320c-205 0-352-154-352-352 0-192 141-346 339-346 224 0 365 154 358 346 0 198-134 352-345 352z" transform="scale(.01563)"/><path id="MyriadPro-Regular-73" d="M250 147C467 19 781-70 1120-70c736 0 1158 390 1158 934 0 461-275 730-812 934-404 154-589 269-589 525 0 231 185 423 518 423 288 0 512-103 634-180l141 410c-173 102-448 192-762 192-666 0-1069-410-1069-909 0-371 263-678 819-877 416-153 576-300 576-569 0-256-192-461-601-461-282 0-576 115-743 224L250 147z" transform="scale(.01563)"/><path id="MyriadPro-Regular-75" d="M3059 3098h-563V1197c0-103-19-205-51-288-103-250-365-512-743-512-512 0-691 397-691 985v1716H448V1286C448 198 1030-70 1517-70c550 0 877 326 1024 576h13l32-506h499c-19 243-26 525-26 845v2253z" transform="scale(.01563)"/><path id="MyriadPro-Regular-61" d="M2643 1901c0 621-230 1267-1177 1267-391 0-762-109-1018-275l128-371c218 140 518 230 806 230 634 0 704-461 704-717v-64C890 1978 224 1568 224 819c0-448 320-889 947-889 442 0 775 217 947 460h20l44-390h512c-38 211-51 474-51 742v1159zm-544-858c0-57-13-121-32-179-89-262-345-518-749-518-288 0-531 172-531 537 0 602 698 711 1312 698v-538z" transform="scale(.01563)"/><path id="MyriadPro-Regular-6c" d="M467 0h563v4544H467V0z" transform="scale(.01563)"/><path id="MyriadPro-Regular-2d" d="M192 1939v-416h1581v416H192z" transform="scale(.01563)"/><path id="MyriadPro-Regular-74" d="M595 3667v-569H115v-429h480V979c0-365 58-640 218-806C947 19 1158-70 1421-70c217 0 390 38 499 83l-26 422c-83-25-172-38-326-38-314 0-422 217-422 601v1671h806v429h-806v742l-551-173z" transform="scale(.01563)"/><path id="MyriadPro-Regular-64" d="M2579 4544V2694h-13c-140 250-460 474-934 474-755 0-1395-634-1389-1664C243 563 819-70 1568-70c506 0 883 262 1056 608h13l25-538h506c-19 211-26 525-26 800v3744h-563zm0-3245c0-89-6-166-25-243-103-422-448-672-826-672-608 0-915 518-915 1146 0 684 345 1196 928 1196 422 0 729-294 813-652 19-71 25-167 25-237v-538z" transform="scale(.01563)"/><path id="MyriadPro-Regular-6f" d="M1779 3168c-857 0-1536-608-1536-1645C243 544 890-70 1728-70c749 0 1542 499 1542 1644 0 948-601 1594-1491 1594zm-13-422c666 0 928-666 928-1191 0-697-403-1203-940-1203-551 0-941 512-941 1190 0 589 288 1204 953 1204z" transform="scale(.01563)"/><path id="MyriadPro-Regular-63" d="M2579 538c-160-71-371-154-691-154-614 0-1075 442-1075 1158 0 647 384 1172 1094 1172 307 0 519-71 653-148l128 436c-154 76-448 160-781 160-1011 0-1664-692-1664-1645C243 570 851-70 1786-70c416 0 742 108 889 185l-96 423z" transform="scale(.01563)"/><path id="MyriadPro-Regular-65" d="M2957 1446c6 58 19 148 19 263 0 569-269 1459-1280 1459-902 0-1453-736-1453-1670C243 563 813-70 1766-70c493 0 832 108 1031 198l-96 403c-211-89-455-160-858-160-563 0-1049 314-1062 1075h2176zM787 1850c45 390 295 915 864 915 634 0 787-557 781-915H787z" transform="scale(.01563)"/></defs><use xlink:href="#MyriadPro-Regular-76"/><use xlink:href="#MyriadPro-Regular-69" x="48.1"/><use xlink:href="#MyriadPro-Regular-73" x="71.5"/><use xlink:href="#MyriadPro-Regular-75" x="111.1"/><use xlink:href="#MyriadPro-Regular-61" x="166.2"/><use xlink:href="#MyriadPro-Regular-6c" x="214.4"/><use xlink:href="#MyriadPro-Regular-2d" x="238"/><use xlink:href="#MyriadPro-Regular-73" x="268.7"/><use xlink:href="#MyriadPro-Regular-74" x="308.3"/><use xlink:href="#MyriadPro-Regular-75" x="341.4"/><use xlink:href="#MyriadPro-Regular-64" x="396.5"/><use xlink:href="#MyriadPro-Regular-69" x="452.9"/><use xlink:href="#MyriadPro-Regular-6f" x="476.3"/><use xlink:href="#MyriadPro-Regular-2d" x="531.2"/><use xlink:href="#MyriadPro-Regular-63" x="561.9"/><use xlink:href="#MyriadPro-Regular-6f" x="606.7"/><use xlink:href="#MyriadPro-Regular-64" x="661.6"/><use xlink:href="#MyriadPro-Regular-65" x="718"/></g><g style="fill:#ff7f0e" transform="matrix(.14 0 0 -.14 396.397 303.917)" id="text_17"><defs><path id="MyriadPro-Regular-6d" d="M467 0h551v1869c0 96 12 192 44 275 90 282 346 563 698 563 429 0 646-358 646-851V0h551v1914c0 102 19 204 45 281 96 275 345 512 665 512 455 0 672-358 672-953V0h551v1824c0 1075-608 1344-1018 1344-294 0-499-77-685-218-128-96-249-230-345-403h-13c-135 365-455 621-877 621-512 0-800-275-973-570h-19l-26 500H442c19-256 25-519 25-839V0z" transform="scale(.01563)"/></defs><use xlink:href="#MyriadPro-Regular-76"/><use xlink:href="#MyriadPro-Regular-69" x="48.1"/><use xlink:href="#MyriadPro-Regular-6d" x="71.5"/></g><g style="fill:#2ca02c" transform="matrix(.14 0 0 -.14 396.397 317.917)" id="text_18"><defs><path id="MyriadPro-Regular-6e" d="M467 0h563v1862c0 96 13 192 39 263 96 313 384 576 755 576 531 0 717-416 717-915V0h563v1850c0 1062-666 1318-1094 1318-512 0-871-288-1024-582h-13l-32 512H442c19-256 25-519 25-839V0z" transform="scale(.01563)"/><path id="MyriadPro-Regular-70" d="M467-1267h557V416h13c185-307 544-486 953-486 730 0 1408 550 1408 1664 0 940-563 1574-1312 1574-505 0-870-224-1100-602h-13l-26 532H442c12-295 25-615 25-1012v-3353zm557 3059c0 77 19 160 38 230 109 423 468 698 852 698 595 0 921-531 921-1152 0-710-345-1197-941-1197-403 0-742 269-844 659-13 71-26 148-26 231v531z" transform="scale(.01563)"/><path id="MyriadPro-Regular-2b" d="M1702 3405V1901H256v-384h1446V0h410v1517h1446v384H2112v1504h-410z" transform="scale(.01563)"/></defs><use xlink:href="#MyriadPro-Regular-6e"/><use xlink:href="#MyriadPro-Regular-6f" x="55.5"/><use xlink:href="#MyriadPro-Regular-74" x="110.4"/><use xlink:href="#MyriadPro-Regular-65" x="143.5"/><use xlink:href="#MyriadPro-Regular-70" x="193.6"/><use xlink:href="#MyriadPro-Regular-61" x="250.5"/><use xlink:href="#MyriadPro-Regular-64" x="298.7"/><use xlink:href="#MyriadPro-Regular-2b" x="355.1"/><use xlink:href="#MyriadPro-Regular-2b" x="414.7"/></g><g style="fill:#d62728" transform="matrix(.14 0 0 -.14 396.397 331.917)" id="text_19"><use xlink:href="#MyriadPro-Regular-65"/><use xlink:href="#MyriadPro-Regular-6d" x="50.1"/><use xlink:href="#MyriadPro-Regular-61" x="133.5"/><use xlink:href="#MyriadPro-Regular-63" x="181.7"/><use xlink:href="#MyriadPro-Regular-73" x="226.5"/></g><g style="fill:#969696" transform="matrix(.09716 0 0 -.09716 28.563 357.303)" id="text_20"><defs><path id="MyriadPro-Regular-53" d="M269 211C499 58 954-70 1370-70c1017 0 1510 582 1510 1248 0 633-371 985-1101 1267-595 230-857 429-857 832 0 294 224 646 812 646 391 0 679-128 820-205l153 455c-192 109-512 211-953 211-839 0-1396-499-1396-1171 0-608 436-973 1140-1223 582-224 812-454 812-857 0-435-332-736-902-736-384 0-749 128-998 281L269 211z" transform="scale(.01563)"/><path id="MyriadPro-Regular-6b" d="M1024 4544H467V0h557v1165l288 320L2381 0h685L1702 1824l1197 1274h-678l-909-1069c-90-109-198-243-275-352h-13v2867z" transform="scale(.01563)"/><path id="MyriadPro-Regular-4f" d="M2234 4384c-1152 0-2004-896-2004-2266C230 813 1030-70 2170-70c1100 0 2003 787 2003 2272 0 1280-762 2182-1939 2182zm-26-454c928 0 1376-896 1376-1754 0-979-499-1792-1382-1792-877 0-1376 826-1376 1747 0 947 460 1799 1382 1799z" transform="scale(.01563)"/><path id="MyriadPro-Regular-72" d="M467 0h557v1651c0 96 13 186 26 263 76 422 358 723 755 723 77 0 134-7 192-19v531c-51 13-96 19-160 19-378 0-717-262-858-678h-25l-20 608H442c19-288 25-602 25-967V0z" transform="scale(.01563)"/><path id="MyriadPro-Regular-66" d="M1082 0v2669h748v429h-748v166c0 474 121 896 601 896 160 0 275-32 359-70l76 435c-108 45-281 89-480 89-262 0-544-83-755-288-262-249-358-646-358-1081v-147H90v-429h435V0h557z" transform="scale(.01563)"/><path id="MyriadPro-Regular-77" d="M115 3098 1050 0h512l499 1472c109 333 205 653 281 1024h13c77-365 167-672 275-1018L3104 0h512l998 3098h-556l-442-1556c-102-364-186-691-237-1004h-19c-70 313-160 640-275 1011l-480 1549h-474l-505-1575c-103-339-205-672-276-985h-19c-57 320-141 640-230 985L691 3098H115z" transform="scale(.01563)"/><path id="MyriadPro-Regular-41" d="M2714 1357 3174 0h596L2298 4314h-672L160 0h576l448 1357h1530zm-1415 435 423 1248c83 262 153 525 217 781h13c64-250 128-506 224-787l422-1242H1299z" transform="scale(.01563)"/><path id="MyriadPro-Regular-50" d="M486 0h557v1728c128-32 282-38 448-38 544 0 1024 160 1319 473 217 224 332 531 332 922 0 384-140 697-377 902-256 231-659 359-1210 359-448 0-800-39-1069-84V0zm557 3859c96 26 282 45 525 45 614 0 1018-275 1018-845 0-595-410-921-1082-921-186 0-339 12-461 44v1677z" transform="scale(.01563)"/><path id="MyriadPro-Regular-49" d="M486 4314V0h557v4314H486z" transform="scale(.01563)"/><path id="MyriadPro-Regular-67" d="M3110 2246c0 378 13 628 26 852h-493l-25-468h-13c-135 256-429 538-967 538-710 0-1395-595-1395-1645C243 666 794 13 1562 13c480 0 812 230 985 518h13V186c0-781-422-1082-998-1082-384 0-704 115-909 243l-141-429c250-166 659-256 1030-256 391 0 826 90 1127 372 301 268 441 704 441 1414v1798zm-556-928c0-96-13-204-45-300-122-359-435-576-781-576-608 0-915 505-915 1113 0 717 384 1171 921 1171 410 0 685-268 788-595 25-77 32-160 32-256v-557z" transform="scale(.01563)"/><path id="MyriadPro-Regular-7c" d="M550 4800v-6400h429v6400H550z" transform="scale(.01563)"/><path id="MyriadPro-Regular-4e" d="M1011 0v1843c0 717-13 1235-45 1779l20 7c217-467 505-960 806-1440L3162 0h563v4314h-525V2509c0-672 13-1197 64-1773l-13-6c-205 441-454 896-774 1401L1094 4314H486V0h525z" transform="scale(.01563)"/><path id="MyriadPro-Regular-68" d="M467 0h563v1869c0 109 7 192 39 269 102 307 390 563 755 563 531 0 717-423 717-922V0h563v1843c0 1069-666 1325-1082 1325-211 0-409-64-576-160-172-96-313-237-403-397h-13v1933H467V0z" transform="scale(.01563)"/><path id="MyriadPro-Regular-f6" d="M1165 3648c185 0 313 154 313 326 0 186-134 327-313 327s-327-147-327-327c0-172 135-326 320-326h7zm1184 0c185 0 313 154 313 326 0 186-134 327-313 327s-320-147-320-327c0-172 128-326 313-326h7zm-570-480c-857 0-1536-608-1536-1645C243 544 890-70 1728-70c749 0 1542 499 1542 1644 0 948-601 1594-1491 1594zm-13-422c666 0 928-666 928-1191 0-697-403-1203-940-1203-551 0-941 512-941 1190 0 589 288 1204 953 1204z" transform="scale(.01563)"/><path id="MyriadPro-Regular-43" d="M3386 582c-224-108-570-179-909-179-1050 0-1658 679-1658 1735 0 1132 672 1779 1683 1779 359 0 660-77 871-179l134 454c-147 77-486 192-1024 192-1337 0-2253-915-2253-2266C230 704 1146-70 2362-70c524 0 934 108 1139 211l-115 441z" transform="scale(.01563)"/><path id="MyriadPro-Regular-42" d="M486 13c186-26 480-51 864-51 704 0 1191 128 1492 403 217 211 364 493 364 864 0 640-480 979-889 1081v13c454 167 729 531 729 947 0 340-134 596-358 762-269 218-627 314-1184 314-390 0-774-39-1018-90V13zm557 3865c90 20 237 39 493 39 563 0 947-199 947-704 0-416-345-723-934-723h-506v1388zm0-1811h461c608 0 1114-243 1114-832 0-627-532-838-1108-838-198 0-358 6-467 25v1645z" transform="scale(.01563)"/><path id="MyriadPro-Regular-59" d="M2010 0v1837l1446 2477h-634l-620-1191c-167-326-314-608-436-889h-12c-135 300-263 563-429 889L717 4314H83l1363-2484V0h564z" transform="scale(.01563)"/></defs><use xlink:href="#MyriadPro-Regular-53"/><use xlink:href="#MyriadPro-Regular-74" x="49.3"/><use xlink:href="#MyriadPro-Regular-61" x="82.4"/><use xlink:href="#MyriadPro-Regular-63" x="130.6"/><use xlink:href="#MyriadPro-Regular-6b" x="175.4"/><use xlink:href="#MyriadPro-Regular-4f" x="222.3"/><use xlink:href="#MyriadPro-Regular-76" x="291.2"/><use xlink:href="#MyriadPro-Regular-65" x="339.3"/><use xlink:href="#MyriadPro-Regular-72" x="389.4"/><use xlink:href="#MyriadPro-Regular-66" x="422.1"/><use xlink:href="#MyriadPro-Regular-6c" x="451.3"/><use xlink:href="#MyriadPro-Regular-6f" x="474.9"/><use xlink:href="#MyriadPro-Regular-77" x="529.8"/><use xlink:href="#MyriadPro-Regular-20" x="603.4"/><use xlink:href="#MyriadPro-Regular-41" x="624.6"/><use xlink:href="#MyriadPro-Regular-50" x="685.8"/><use xlink:href="#MyriadPro-Regular-49" x="739"/><use xlink:href="#MyriadPro-Regular-20" x="762.9"/><use xlink:href="#MyriadPro-Regular-76" x="784.1"/><use xlink:href="#MyriadPro-Regular-69" x="832.2"/><use xlink:href="#MyriadPro-Regular-61" x="855.6"/><use xlink:href="#MyriadPro-Regular-20" x="903.8"/><use xlink:href="#MyriadPro-Regular-73" x="925"/><use xlink:href="#MyriadPro-Regular-74" x="964.6"/><use xlink:href="#MyriadPro-Regular-61" x="997.7"/><use xlink:href="#MyriadPro-Regular-63" x="1045.9"/><use xlink:href="#MyriadPro-Regular-6b" x="1090.7"/><use xlink:href="#MyriadPro-Regular-74" x="1137.6"/><use xlink:href="#MyriadPro-Regular-61" x="1170.7"/><use xlink:href="#MyriadPro-Regular-67" x="1218.9"/><use xlink:href="#MyriadPro-Regular-73" x="1274.8"/><use xlink:href="#MyriadPro-Regular-20" x="1314.4"/><use xlink:href="#MyriadPro-Regular-7c" x="1335.6"/><use xlink:href="#MyriadPro-Regular-20" x="1359.5"/><use xlink:href="#MyriadPro-Regular-4e" x="1380.7"/><use xlink:href="#MyriadPro-Regular-69" x="1446.5"/><use xlink:href="#MyriadPro-Regular-63" x="1469.9"/><use xlink:href="#MyriadPro-Regular-6f" x="1514.7"/><use xlink:href="#MyriadPro-Regular-20" x="1569.6"/><use xlink:href="#MyriadPro-Regular-53" x="1590.8"/><use xlink:href="#MyriadPro-Regular-63" x="1640.1"/><use xlink:href="#MyriadPro-Regular-68" x="1684.9"/><use xlink:href="#MyriadPro-Regular-6c" x="1740.4"/><use xlink:href="#MyriadPro-Regular-f6" x="1764"/><use xlink:href="#MyriadPro-Regular-6d" x="1818.9"/><use xlink:href="#MyriadPro-Regular-65" x="1902.3"/><use xlink:href="#MyriadPro-Regular-72" x="1952.4"/><use xlink:href="#MyriadPro-Regular-20" x="1985.1"/><use xlink:href="#MyriadPro-Regular-7c" x="2006.3"/><use xlink:href="#MyriadPro-Regular-20" x="2030.2"/><use xlink:href="#MyriadPro-Regular-43" x="2051.4"/><use xlink:href="#MyriadPro-Regular-43" x="2109.4"/><use xlink:href="#MyriadPro-Regular-20" x="2167.4"/><use xlink:href="#MyriadPro-Regular-42" x="2188.6"/><use xlink:href="#MyriadPro-Regular-59" x="2242.8"/></g><g style="fill:#969696" transform="matrix(.14 0 0 -.14 77.337 17.293)" id="text_21"><defs><path id="MyriadPro-Regular-44" d="M486 13c282-32 615-51 1012-51 838 0 1504 217 1907 620 403 397 621 973 621 1677 0 698-224 1197-608 1549-378 352-948 538-1748 538-441 0-844-39-1184-90V13zm557 3833c147 32 365 58 653 58 1178 0 1754-646 1747-1664 0-1165-646-1830-1837-1830-217 0-422 6-563 32v3404z" transform="scale(.01563)"/><path id="MyriadPro-Regular-79" d="M58 3098 1203 243c26-70 39-115 39-147s-20-77-45-134c-128-288-320-506-474-628-166-140-352-230-493-275l141-473c141 25 416 121 691 364 384 333 660 877 1063 1940l845 2208h-596l-614-1818c-77-224-141-461-198-646h-13c-51 185-128 428-199 633L672 3098H58z" transform="scale(.01563)"/><path id="MyriadPro-Regular-62" d="M467 800c0-275-13-589-25-800h486l26 512h19c230-410 589-582 1037-582 691 0 1388 550 1388 1657 7 941-537 1581-1305 1581-499 0-858-224-1056-570h-13v1946H467V800zm557 998c0 90 19 167 32 231 115 429 474 691 858 691 601 0 921-531 921-1152 0-710-352-1190-941-1190-409 0-736 268-844 659-13 64-26 134-26 205v556z" transform="scale(.01563)"/><path id="MyriadPro-Regular-71" d="M2579-1267h563v3513c0 320 7 589 20 852h-532l-19-468h-13c-153 301-473 538-953 538-653 0-1402-512-1402-1670C243 557 832-70 1555-70c499 0 845 243 1011 550h13v-1747zm0 2528c0-83-19-192-45-269-128-390-441-614-806-614-621 0-915 537-915 1152 0 697 352 1190 934 1190 423 0 723-294 807-640 19-70 25-160 25-237v-582z" transform="scale(.01563)"/></defs><use xlink:href="#MyriadPro-Regular-44"/><use xlink:href="#MyriadPro-Regular-61" x="66.6"/><use xlink:href="#MyriadPro-Regular-69" x="114.8"/><use xlink:href="#MyriadPro-Regular-6c" x="138.2"/><use xlink:href="#MyriadPro-Regular-79" x="161.8"/><use xlink:href="#MyriadPro-Regular-20" x="208.9"/><use xlink:href="#MyriadPro-Regular-6e" x="230.1"/><use xlink:href="#MyriadPro-Regular-75" x="285.6"/><use xlink:href="#MyriadPro-Regular-6d" x="340.7"/><use xlink:href="#MyriadPro-Regular-62" x="424.1"/><use xlink:href="#MyriadPro-Regular-65" x="481"/><use xlink:href="#MyriadPro-Regular-72" x="531.1"/><use xlink:href="#MyriadPro-Regular-20" x="563.8"/><use xlink:href="#MyriadPro-Regular-6f" x="585"/><use xlink:href="#MyriadPro-Regular-66" x="639.9"/><use xlink:href="#MyriadPro-Regular-20" x="669.1"/><use xlink:href="#MyriadPro-Regular-71" x="690.3"/><use xlink:href="#MyriadPro-Regular-75" x="746.6"/><use xlink:href="#MyriadPro-Regular-65" x="801.7"/><use xlink:href="#MyriadPro-Regular-73" x="851.8"/><use xlink:href="#MyriadPro-Regular-74" x="891.4"/><use xlink:href="#MyriadPro-Regular-69" x="924.5"/><use xlink:href="#MyriadPro-Regular-6f" x="947.9"/><use xlink:href="#MyriadPro-Regular-6e" x="1002.8"/><use xlink:href="#MyriadPro-Regular-73" x="1058.3"/><use xlink:href="#MyriadPro-Regular-20" x="1097.9"/><use xlink:href="#MyriadPro-Regular-6f" x="1119.1"/><use xlink:href="#MyriadPro-Regular-6e" x="1174"/><use xlink:href="#MyriadPro-Regular-20" x="1229.5"/><use xlink:href="#MyriadPro-Regular-53" x="1250.7"/><use xlink:href="#MyriadPro-Regular-74" x="1300"/><use xlink:href="#MyriadPro-Regular-61" x="1333.1"/><use xlink:href="#MyriadPro-Regular-63" x="1381.3"/><use xlink:href="#MyriadPro-Regular-6b" x="1426.1"/><use xlink:href="#MyriadPro-Regular-4f" x="1473"/><use xlink:href="#MyriadPro-Regular-76" x="1541.9"/><use xlink:href="#MyriadPro-Regular-65" x="1590"/><use xlink:href="#MyriadPro-Regular-72" x="1640.1"/><use xlink:href="#MyriadPro-Regular-66" x="1672.8"/><use xlink:href="#MyriadPro-Regular-6c" x="1702"/><use xlink:href="#MyriadPro-Regular-6f" x="1725.6"/><use xlink:href="#MyriadPro-Regular-77" x="1780.5"/></g><path d="m157.18 323.405 2.313-.202 2.313.006 2.35.196h6.936l2.313-.196 2.35.196H207.9l2.314-17.806 2.312-14.7 2.312 19.354 2.312 1.403 2.35 2.35 2.313.9 2.314-4.816 2.31-2.872 2.313-3.394 2.35.391 2.275 2.235 2.272-6.738 2.314-5.242 2.313 5.046 2.312-3.022 2.312-3.244 2.35 2.35 2.313-5.784 2.314-4.203 2.31-.855 2.313 2.03 2.35-6.266 2.236-11.099 2.235-5.154 2.314 2.885 2.313 1.423 2.312-3.446 2.312-5.366 2.35-5.678 2.313 1.331 2.314 4.152 2.31-6.984 2.313 14.816 2.35-11.553 2.236-15.26 2.235.378 2.314-6.997 2.313 7.976 2.312-10 2.312-6.644 2.35 8.616 2.313 3.087 2.314-12.878 2.31 7.82 2.313 4.125 2.35-8.616 2.236-10.714 2.235-2.21 2.314 4.465 2.313-19.934 2.312 6.58 2.312-19.896 2.35 9.008 2.313-16.227 2.314-5.508 2.31-4.609 2.313 8.72 2.35-15.077 2.274 3.315 2.273-36.212 2.314-53.013 2.312-10.04 2.313 1.137 2.312 15.116 2.35 17.036 2.312-3.015 2.314 4.778 2.311-4.171 2.312 16.899 2.35-28.785 2.237-18.379 2.235-1.203 2.314 7.794 2.312 11.592 2.313-21.912 2.312 39.144 2.35-44.842" clip-path="url(#pcf5da11293)" style="fill:none;stroke:#1f77b4;stroke-width:1.5;stroke-linecap:square" id="line2d_28"/></g></g><defs><clipPath id="pcf5da11293"><path d="M28.563 57.293h357.12v266.112H28.563z"/></clipPath></defs></svg>