<svg height="489.243" viewBox="0 0 475.865 366.932" width="634.487" xmlns="http://www.w3.org/2000/svg" xmlns:xlink="http://www.w3.org/1999/xlink"><defs><style>*{stroke-linecap:butt;stroke-linejoin:round}</style></defs><g id="figure_1"><path d="M0 366.932h475.865V0H0z" style="fill:none" id="patch_1"/><g id="axes_1"><path d="M38.643 323.405h357.12V57.293H38.643z" style="fill:none" id="patch_2"/><g id="matplotlib.axis_1"><g id="xtick_1"><g id="line2d_1"><defs><path d="M0 0v3.5" id="m046d62ea03" style="stroke:#969696;stroke-width:.4"/></defs><use style="fill:#969696;stroke:#969696;stroke-width:.4" x="42.391" xlink:href="#m046d62ea03" y="323.405"/></g><g style="fill:#969696" transform="matrix(.14 0 0 -.14 28.028 340.345)" id="text_1"><defs><path d="M2944 0v467H1075v13l333 307c877 845 1434 1466 1434 2234 0 595-378 1209-1274 1209-480 0-890-179-1178-422l180-397c192 160 505 352 883 352 621 0 825-390 825-813-6-627-486-1164-1548-2176L288 346V0h2656z" id="MyriadPro-Regular-32" transform="scale(.01563)"/><path d="M1677 4230c-845 0-1447-768-1447-2163C243 691 794-70 1606-70c922 0 1447 780 1447 2195 0 1325-499 2105-1376 2105zm-32-435c582 0 845-672 845-1696 0-1062-276-1734-852-1734-512 0-844 614-844 1696 0 1133 358 1734 851 1734z" id="MyriadPro-Regular-30" transform="scale(.01563)"/><path d="M1510 0h544v4160h-480l-908-486 108-429 724 390h12V0z" id="MyriadPro-Regular-31" transform="scale(.01563)"/></defs><use xlink:href="#MyriadPro-Regular-32"/><use x="51.3" xlink:href="#MyriadPro-Regular-30"/><use x="102.6" xlink:href="#MyriadPro-Regular-31"/><use x="153.9" xlink:href="#MyriadPro-Regular-30"/></g></g><g id="xtick_2"><use style="fill:#969696;stroke:#969696;stroke-width:.4" x="101.87" xlink:href="#m046d62ea03" y="323.405" id="line2d_2"/><g style="fill:#969696" transform="matrix(.14 0 0 -.14 87.507 340.345)" id="text_2"><use xlink:href="#MyriadPro-Regular-32"/><use x="51.3" xlink:href="#MyriadPro-Regular-30"/><use x="102.6" xlink:href="#MyriadPro-Regular-31"/><use x="153.9" xlink:href="#MyriadPro-Regular-32"/></g></g><g id="xtick_3"><use style="fill:#969696;stroke:#969696;stroke-width:.4" x="161.431" xlink:href="#m046d62ea03" y="323.405" id="line2d_3"/><g style="fill:#969696" transform="matrix(.14 0 0 -.14 147.068 340.345)" id="text_3"><defs><path d="M2560 0v1133h582v441h-582v2586h-608L96 1504v-371h1933V0h531zM666 1574v13l1017 1415c115 192 218 371 346 614h19c-13-218-19-435-19-653V1574H666z" id="MyriadPro-Regular-34" transform="scale(.01563)"/></defs><use xlink:href="#MyriadPro-Regular-32"/><use x="51.3" xlink:href="#MyriadPro-Regular-30"/><use x="102.6" xlink:href="#MyriadPro-Regular-31"/><use x="153.9" xlink:href="#MyriadPro-Regular-34"/></g></g><g id="xtick_4"><use style="fill:#969696;stroke:#969696;stroke-width:.4" x="220.91" xlink:href="#m046d62ea03" y="323.405" id="line2d_4"/><g style="fill:#969696" transform="matrix(.14 0 0 -.14 206.547 340.345)" id="text_4"><defs><path d="M2662 4224c-102 0-243-6-409-32-525-64-986-275-1331-614-410-410-704-1056-704-1876C218 621 800-70 1690-70c864 0 1382 704 1382 1465 0 813-518 1344-1254 1344-461 0-807-217-1005-480h-19c96 685 563 1331 1446 1479 160 25 307 32 422 25v461zM1690 365c-589 0-903 505-916 1190 0 103 26 186 64 250 154 301 468 512 807 512 518 0 857-359 857-954s-326-998-806-998h-6z" id="MyriadPro-Regular-36" transform="scale(.01563)"/></defs><use xlink:href="#MyriadPro-Regular-32"/><use x="51.3" xlink:href="#MyriadPro-Regular-30"/><use x="102.6" xlink:href="#MyriadPro-Regular-31"/><use x="153.9" xlink:href="#MyriadPro-Regular-36"/></g></g><g id="xtick_5"><use style="fill:#969696;stroke:#969696;stroke-width:.4" x="280.471" xlink:href="#m046d62ea03" y="323.405" id="line2d_5"/><g style="fill:#969696" transform="matrix(.14 0 0 -.14 266.108 340.345)" id="text_5"><defs><path d="M1062 2170c-512-218-825-589-825-1114C237 448 762-70 1632-70c794 0 1414 486 1414 1209 0 506-320 871-838 1075v20c512 243 685 620 685 972 0 519-403 1024-1210 1024-729 0-1286-448-1286-1107 0-358 198-717 659-934l6-19zm583-1831c-531 0-851 371-832 794 0 397 262 717 749 857 563-160 915-403 915-908 0-423-327-743-832-743zm6 3488c506 0 704-345 704-678 0-378-275-634-633-755-480 128-794 352-794 768 0 358 256 665 723 665z" id="MyriadPro-Regular-38" transform="scale(.01563)"/></defs><use xlink:href="#MyriadPro-Regular-32"/><use x="51.3" xlink:href="#MyriadPro-Regular-30"/><use x="102.6" xlink:href="#MyriadPro-Regular-31"/><use x="153.9" xlink:href="#MyriadPro-Regular-38"/></g></g><g id="xtick_6"><use style="fill:#969696;stroke:#969696;stroke-width:.4" x="339.95" xlink:href="#m046d62ea03" y="323.405" id="line2d_6"/><g style="fill:#969696" transform="matrix(.14 0 0 -.14 325.587 340.345)" id="text_6"><use xlink:href="#MyriadPro-Regular-32"/><use x="51.3" xlink:href="#MyriadPro-Regular-30"/><use x="102.6" xlink:href="#MyriadPro-Regular-32"/><use x="153.9" xlink:href="#MyriadPro-Regular-30"/></g></g></g><g id="matplotlib.axis_2"><g id="ytick_1"><path clip-path="url(#p025aa5f9a6)" d="M38.643 323.405h357.12" style="fill:none;stroke:#969696;stroke-linecap:square;stroke-width:.3" id="line2d_7"/><g id="line2d_8"><defs><path d="M0 0h-3.5" id="m62a3c048a0" style="stroke:#969696;stroke-width:.3"/></defs><use style="fill:#969696;stroke:#969696;stroke-width:.3" x="38.643" xlink:href="#m62a3c048a0" y="323.405"/></g><g style="fill:#969696" transform="matrix(.14 0 0 -.14 14.382 328.375)" id="text_7"><defs><path d="M710-70c237 0 384 172 384 403 0 237-153 403-377 403S333 570 333 333c0-231 153-403 371-403h6z" id="MyriadPro-Regular-2e" transform="scale(.01563)"/></defs><use xlink:href="#MyriadPro-Regular-30"/><use x="51.3" xlink:href="#MyriadPro-Regular-2e"/><use x="72" xlink:href="#MyriadPro-Regular-30"/></g></g><g id="ytick_2"><path clip-path="url(#p025aa5f9a6)" d="M38.643 288.08h357.12" style="fill:none;stroke:#969696;stroke-linecap:square;stroke-width:.3" id="line2d_9"/><use style="fill:#969696;stroke:#969696;stroke-width:.3" x="38.643" xlink:href="#m62a3c048a0" y="288.081" id="line2d_10"/><g style="fill:#969696" transform="matrix(.14 0 0 -.14 14.382 293.05)" id="text_8"><defs><path d="M2771 4160H781L512 2163c154 19 339 45 576 45 832 0 1190-384 1197-922 0-556-455-902-986-902-377 0-717 128-889 230L269 186C467 58 851-70 1306-70c902 0 1548 608 1548 1420 0 525-268 884-595 1069-256 154-576 224-896 224-153 0-243-13-339-25l160 1068h1587v474z" id="MyriadPro-Regular-35" transform="scale(.01563)"/></defs><use xlink:href="#MyriadPro-Regular-32"/><use x="51.3" xlink:href="#MyriadPro-Regular-2e"/><use x="72" xlink:href="#MyriadPro-Regular-35"/></g></g><g id="ytick_3"><path clip-path="url(#p025aa5f9a6)" d="M38.643 252.756h357.12" style="fill:none;stroke:#969696;stroke-linecap:square;stroke-width:.3" id="line2d_11"/><use style="fill:#969696;stroke:#969696;stroke-width:.3" x="38.643" xlink:href="#m62a3c048a0" y="252.756" id="line2d_12"/><g style="fill:#969696" transform="matrix(.14 0 0 -.14 14.382 257.726)" id="text_9"><use xlink:href="#MyriadPro-Regular-35"/><use x="51.3" xlink:href="#MyriadPro-Regular-2e"/><use x="72" xlink:href="#MyriadPro-Regular-30"/></g></g><g id="ytick_4"><path clip-path="url(#p025aa5f9a6)" d="M38.643 217.431h357.12" style="fill:none;stroke:#969696;stroke-linecap:square;stroke-width:.3" id="line2d_13"/><use style="fill:#969696;stroke:#969696;stroke-width:.3" x="38.643" xlink:href="#m62a3c048a0" y="217.431" id="line2d_14"/><g style="fill:#969696" transform="matrix(.14 0 0 -.14 14.382 222.401)" id="text_10"><defs><path d="M365 4160v-467h2035v-13L595 0h583l1811 3789v371H365z" id="MyriadPro-Regular-37" transform="scale(.01563)"/></defs><use xlink:href="#MyriadPro-Regular-37"/><use x="51.3" xlink:href="#MyriadPro-Regular-2e"/><use x="72" xlink:href="#MyriadPro-Regular-35"/></g></g><g id="ytick_5"><path clip-path="url(#p025aa5f9a6)" d="M38.643 182.107h357.12" style="fill:none;stroke:#969696;stroke-linecap:square;stroke-width:.3" id="line2d_15"/><use style="fill:#969696;stroke:#969696;stroke-width:.3" x="38.643" xlink:href="#m62a3c048a0" y="182.107" id="line2d_16"/><g style="fill:#969696" transform="matrix(.14 0 0 -.14 7.2 187.077)" id="text_11"><use xlink:href="#MyriadPro-Regular-31"/><use x="51.3" xlink:href="#MyriadPro-Regular-30"/><use x="102.6" xlink:href="#MyriadPro-Regular-2e"/><use x="123.3" xlink:href="#MyriadPro-Regular-30"/></g></g><g id="ytick_6"><path clip-path="url(#p025aa5f9a6)" d="M38.643 146.782h357.12" style="fill:none;stroke:#969696;stroke-linecap:square;stroke-width:.3" id="line2d_17"/><use style="fill:#969696;stroke:#969696;stroke-width:.3" x="38.643" xlink:href="#m62a3c048a0" y="146.782" id="line2d_18"/><g style="fill:#969696" transform="matrix(.14 0 0 -.14 7.2 151.752)" id="text_12"><use xlink:href="#MyriadPro-Regular-31"/><use x="51.3" xlink:href="#MyriadPro-Regular-32"/><use x="102.6" xlink:href="#MyriadPro-Regular-2e"/><use x="123.3" xlink:href="#MyriadPro-Regular-35"/></g></g><g id="ytick_7"><path clip-path="url(#p025aa5f9a6)" d="M38.643 111.458h357.12" style="fill:none;stroke:#969696;stroke-linecap:square;stroke-width:.3" id="line2d_19"/><use style="fill:#969696;stroke:#969696;stroke-width:.3" x="38.643" xlink:href="#m62a3c048a0" y="111.458" id="line2d_20"/><g style="fill:#969696" transform="matrix(.14 0 0 -.14 7.2 116.428)" id="text_13"><use xlink:href="#MyriadPro-Regular-31"/><use x="51.3" xlink:href="#MyriadPro-Regular-35"/><use x="102.6" xlink:href="#MyriadPro-Regular-2e"/><use x="123.3" xlink:href="#MyriadPro-Regular-30"/></g></g><g id="ytick_8"><path clip-path="url(#p025aa5f9a6)" d="M38.643 76.133h357.12" style="fill:none;stroke:#969696;stroke-linecap:square;stroke-width:.3" id="line2d_21"/><use style="fill:#969696;stroke:#969696;stroke-width:.3" x="38.643" xlink:href="#m62a3c048a0" y="76.133" id="line2d_22"/><g style="fill:#969696" transform="matrix(.14 0 0 -.14 7.2 81.103)" id="text_14"><use xlink:href="#MyriadPro-Regular-31"/><use x="51.3" xlink:href="#MyriadPro-Regular-37"/><use x="102.6" xlink:href="#MyriadPro-Regular-2e"/><use x="123.3" xlink:href="#MyriadPro-Regular-35"/></g></g></g><path clip-path="url(#p025aa5f9a6)" d="m167.5 323.405 2.486-.47 2.485-.441 2.486.911 2.485-1.823 2.525.912 2.486-2.857 2.486-.79 2.484-3.92 2.485-1.094 2.526 2.735 2.403-1.237 2.402-.586 2.487-1.23 2.485-9.71 2.485 3.115 2.485 4.634 2.526.912 2.485-6.959 2.487 7.415 2.483 2.476 2.485-1.565 2.526-.911 2.445-4.621 2.442-3.584 2.487 8.797 2.485-4.695 2.485-.486 2.485 7.324 2.526-5.926 2.485 6.61 2.487 2.05 2.483-.167 2.486-3.935 2.525.912 2.404-.375 2.402-3.728 2.487 4.3 2.485-2.02 2.485-1.277 2.485-2.37 2.526 5.47 2.485-3.1 2.487 5.379 2.483-2.082 2.485 2.082 2.526-2.28 2.404.636 2.402-1.091 2.486 1.595 2.485-4.786 2.486 2.902 2.485 2.568 2.525.456 2.486 1.215 2.486-2.127 2.484.714 2.485 3.388h2.526l2.403-2.816 2.402.537 2.487.775 2.485.593 2.485-.593 2.485-4.421 2.526 5.014 2.485 2.233 2.487-3.6 2.483 3.6 2.485.046 2.526-1.823 2.445 1.241 2.442 1.493 2.487-1.899 2.485-.835 2.485 1.777 2.485-1.322 2.526-.911 2.485-1.535 2.487 2.902 2.483-.076 2.486.532h2.525l2.404.814 2.402-.814 2.487.41 2.485.046 2.485-.517 2.485 1.428 2.526-1.367 2.485 1.352 2.487-.44 2.483-.973" style="fill:none;stroke:#bcbd22;stroke-linecap:square;stroke-width:1.5" id="line2d_23"/><path clip-path="url(#p025aa5f9a6)" d="m259.287 323.405 2.485-.456 2.485.456H281.734l2.404-.505 2.402-.862 2.486-1.459 2.485-3.555 2.486 2.613 2.485-1.701 2.525 3.19 2.486-.076 2.486.532 2.484-1.003 2.485-1.732 2.526.456 2.403 1.579 2.402-2.035 2.487 1.261 2.485.107 2.485.835 2.485-1.747 2.526-.456 2.485.32 2.487-1.687 2.483 3.1 2.485-1.277 2.526-.456 2.445 2.61 2.442-5.345 2.487 4.938 2.485-2.203 2.485-6.275 2.485 3.996 2.526 1.823 2.485.304 2.487-2.583 2.483-.243 2.486 2.978 2.525-5.014 2.404 3.012 2.402 1.09 2.487-3.008 2.485 2.553 2.485-4.908 2.485 3.54h2.526l2.485-.714 2.487 3.905" style="fill:none;stroke:#7f7f7f;stroke-linecap:square;stroke-width:1.5" id="line2d_24"/><path clip-path="url(#p025aa5f9a6)" d="m251.994 323.405 2.404-.505 2.402.505 2.487-2.355 2.485.076 2.485 1.337 2.485-.425 2.526-.456 2.485 1.823 2.487-1.367 2.483-.046 2.485-.41 2.526.912 2.404-.098 2.402-2.181 2.486.835 2.485.988 2.486-1.93 2.485 1.018 2.525 1.368 2.486-.03 2.486-3.617 2.484 2.674 2.485-1.762 2.526.456 2.403 2.18 2.402-4.915 2.487-.198 2.485 2.02 2.485 1.277 2.485.091 2.526-1.823 2.485 4.087 2.487-4.087 2.483.32 2.485.592 2.526-1.368 2.445-.345 2.442 1.257 2.487-4.376 2.485 4.832 2.485-6.245 2.485.775 2.526 3.647 2.485-2.067 2.487-1.124 2.483-1.702 2.486 4.437 2.525-1.823 2.404-1.335 2.402 1.335 2.487-.73 2.485-1.094 2.485-.319 2.485.32 2.526 1.823 2.485-1.672 2.487 1.216" style="fill:none;stroke:#e377c2;stroke-linecap:square;stroke-width:1.5" id="line2d_25"/><g style="fill:#1f77b4" transform="matrix(.14 0 0 -.14 406.477 228.748)" id="text_15"><defs><path d="M2579 538c-160-71-371-154-691-154-614 0-1075 442-1075 1158 0 647 384 1172 1094 1172 307 0 519-71 653-148l128 436c-154 76-448 160-781 160-1011 0-1664-692-1664-1645C243 570 851-70 1786-70c416 0 742 108 889 185l-96 423z" id="MyriadPro-Regular-63" transform="scale(.01563)"/><path d="M467 0h563v1869c0 109 7 192 39 269 102 307 390 563 755 563 531 0 717-423 717-922V0h563v1843c0 1069-666 1325-1082 1325-211 0-409-64-576-160-172-96-313-237-403-397h-13v1933H467V0z" id="MyriadPro-Regular-68" transform="scale(.01563)"/><path d="M2643 1901c0 621-230 1267-1177 1267-391 0-762-109-1018-275l128-371c218 140 518 230 806 230 634 0 704-461 704-717v-64C890 1978 224 1568 224 819c0-448 320-889 947-889 442 0 775 217 947 460h20l44-390h512c-38 211-51 474-51 742v1159zm-544-858c0-57-13-121-32-179-89-262-345-518-749-518-288 0-531 172-531 537 0 602 698 711 1312 698v-538z" id="MyriadPro-Regular-61" transform="scale(.01563)"/><path d="M467 0h557v1651c0 96 13 186 26 263 76 422 358 723 755 723 77 0 134-7 192-19v531c-51 13-96 19-160 19-378 0-717-262-858-678h-25l-20 608H442c19-288 25-602 25-967V0z" id="MyriadPro-Regular-72" transform="scale(.01563)"/><path d="M595 3667v-569H115v-429h480V979c0-365 58-640 218-806C947 19 1158-70 1421-70c217 0 390 38 499 83l-26 422c-83-25-172-38-326-38-314 0-422 217-422 601v1671h806v429h-806v742l-551-173z" id="MyriadPro-Regular-74" transform="scale(.01563)"/><path d="M-230-1350c300 0 710 102 960 352 275 281 371 672 371 1273v2823H538V493c0-743-58-992-212-1165C192-819-32-890-288-909l58-441zM826 4320c-212 0-359-154-359-352 0-186 135-346 346-346 224 0 358 160 352 346 0 198-135 352-339 352z" id="MyriadPro-Regular-6a" transform="scale(.01563)"/><path d="M250 147C467 19 781-70 1120-70c736 0 1158 390 1158 934 0 461-275 730-812 934-404 154-589 269-589 525 0 231 185 423 518 423 288 0 512-103 634-180l141 410c-173 102-448 192-762 192-666 0-1069-410-1069-909 0-371 263-678 819-877 416-153 576-300 576-569 0-256-192-461-601-461-282 0-576 115-743 224L250 147z" id="MyriadPro-Regular-73" transform="scale(.01563)"/></defs><use xlink:href="#MyriadPro-Regular-63"/><use x="44.8" xlink:href="#MyriadPro-Regular-68"/><use x="100.3" xlink:href="#MyriadPro-Regular-61"/><use x="148.5" xlink:href="#MyriadPro-Regular-72"/><use x="181.2" xlink:href="#MyriadPro-Regular-74"/><use x="214.3" xlink:href="#MyriadPro-Regular-2e"/><use x="235" xlink:href="#MyriadPro-Regular-6a"/><use x="259.3" xlink:href="#MyriadPro-Regular-73"/></g><g style="fill:#ff7f0e" transform="matrix(.14 0 0 -.14 406.477 242.748)" id="text_16"><defs><path d="M2957 1446c6 58 19 148 19 263 0 569-269 1459-1280 1459-902 0-1453-736-1453-1670C243 563 813-70 1766-70c493 0 832 108 1031 198l-96 403c-211-89-455-160-858-160-563 0-1049 314-1062 1075h2176zM787 1850c45 390 295 915 864 915 634 0 787-557 781-915H787z" id="MyriadPro-Regular-65" transform="scale(.01563)"/></defs><use xlink:href="#MyriadPro-Regular-74"/><use x="33.1" xlink:href="#MyriadPro-Regular-68"/><use x="88.6" xlink:href="#MyriadPro-Regular-72"/><use x="121.3" xlink:href="#MyriadPro-Regular-65"/><use x="171.4" xlink:href="#MyriadPro-Regular-65"/><use x="221.5" xlink:href="#MyriadPro-Regular-2e"/><use x="242.2" xlink:href="#MyriadPro-Regular-6a"/><use x="266.5" xlink:href="#MyriadPro-Regular-73"/></g><g style="fill:#2ca02c" transform="matrix(.14 0 0 -.14 406.477 256.748)" id="text_17"><defs><path d="M2579 4544V2694h-13c-140 250-460 474-934 474-755 0-1395-634-1389-1664C243 563 819-70 1568-70c506 0 883 262 1056 608h13l25-538h506c-19 211-26 525-26 800v3744h-563zm0-3245c0-89-6-166-25-243-103-422-448-672-826-672-608 0-915 518-915 1146 0 684 345 1196 928 1196 422 0 729-294 813-652 19-71 25-167 25-237v-538z" id="MyriadPro-Regular-64" transform="scale(.01563)"/><path d="M269 211C474 77 883-70 1350-70c999 0 1517 582 1517 1248 0 582-416 966-928 1068v13c512 186 768 551 768 979 0 506-371 992-1190 992-448 0-871-160-1088-320l147-409c179 128 499 275 832 275 518 0 730-294 730-627 0-493-519-704-928-704H896v-423h314c544 0 1068-249 1075-832 6-345-218-806-941-806-390 0-762 160-922 262L269 211z" id="MyriadPro-Regular-33" transform="scale(.01563)"/></defs><use xlink:href="#MyriadPro-Regular-64"/><use x="56.4" xlink:href="#MyriadPro-Regular-33"/><use x="107.7" xlink:href="#MyriadPro-Regular-2e"/><use x="128.4" xlink:href="#MyriadPro-Regular-6a"/><use x="152.7" xlink:href="#MyriadPro-Regular-73"/></g><g style="fill:#d62728" transform="matrix(.14 0 0 -.14 406.477 277.772)" id="text_18"><defs><path d="M1030 0v3098H467V0h563zM749 4320c-205 0-352-154-352-352 0-192 141-346 339-346 224 0 365 154 358 346 0 198-134 352-345 352z" id="MyriadPro-Regular-69" transform="scale(.01563)"/><path d="M3110 2246c0 378 13 628 26 852h-493l-25-468h-13c-135 256-429 538-967 538-710 0-1395-595-1395-1645C243 666 794 13 1562 13c480 0 812 230 985 518h13V186c0-781-422-1082-998-1082-384 0-704 115-909 243l-141-429c250-166 659-256 1030-256 391 0 826 90 1127 372 301 268 441 704 441 1414v1798zm-556-928c0-96-13-204-45-300-122-359-435-576-781-576-608 0-915 505-915 1113 0 717 384 1171 921 1171 410 0 685-268 788-595 25-77 32-160 32-256v-557z" id="MyriadPro-Regular-67" transform="scale(.01563)"/></defs><use xlink:href="#MyriadPro-Regular-68"/><use x="55.5" xlink:href="#MyriadPro-Regular-69"/><use x="78.9" xlink:href="#MyriadPro-Regular-67"/><use x="134.8" xlink:href="#MyriadPro-Regular-68"/><use x="190.3" xlink:href="#MyriadPro-Regular-63"/><use x="235.1" xlink:href="#MyriadPro-Regular-68"/><use x="290.6" xlink:href="#MyriadPro-Regular-61"/><use x="338.8" xlink:href="#MyriadPro-Regular-72"/><use x="371.5" xlink:href="#MyriadPro-Regular-74"/><use x="404.6" xlink:href="#MyriadPro-Regular-73"/></g><g style="fill:#9467bd" transform="matrix(.14 0 0 -.14 406.477 291.85)" id="text_19"><use xlink:href="#MyriadPro-Regular-65"/><use x="50.1" xlink:href="#MyriadPro-Regular-63"/><use x="94.9" xlink:href="#MyriadPro-Regular-68"/><use x="150.4" xlink:href="#MyriadPro-Regular-61"/><use x="198.6" xlink:href="#MyriadPro-Regular-72"/><use x="231.3" xlink:href="#MyriadPro-Regular-74"/><use x="264.4" xlink:href="#MyriadPro-Regular-73"/></g><g style="fill:#8c564b" transform="matrix(.14 0 0 -.14 406.477 305.835)" id="text_20"><defs><path d="M1082 0v2669h748v429h-748v166c0 474 121 896 601 896 160 0 275-32 359-70l76 435c-108 45-281 89-480 89-262 0-544-83-755-288-262-249-358-646-358-1081v-147H90v-429h435V0h557z" id="MyriadPro-Regular-66" transform="scale(.01563)"/><path d="M467 800c0-275-13-589-25-800h486l26 512h19c230-410 589-582 1037-582 691 0 1388 550 1388 1657 7 941-537 1581-1305 1581-499 0-858-224-1056-570h-13v1946H467V800zm557 998c0 90 19 167 32 231 115 429 474 691 858 691 601 0 921-531 921-1152 0-710-352-1190-941-1190-409 0-736 268-844 659-13 64-26 134-26 205v556z" id="MyriadPro-Regular-62" transform="scale(.01563)"/></defs><use xlink:href="#MyriadPro-Regular-66"/><use x="29.2" xlink:href="#MyriadPro-Regular-61"/><use x="77.4" xlink:href="#MyriadPro-Regular-62"/><use x="134.3" xlink:href="#MyriadPro-Regular-72"/><use x="167" xlink:href="#MyriadPro-Regular-69"/><use x="190.4" xlink:href="#MyriadPro-Regular-63"/><use x="235.2" xlink:href="#MyriadPro-Regular-6a"/><use x="259.5" xlink:href="#MyriadPro-Regular-73"/></g><g style="fill:#e377c2" transform="matrix(.14 0 0 -.14 406.477 319.85)" id="text_21"><use xlink:href="#MyriadPro-Regular-72"/><use x="32.7" xlink:href="#MyriadPro-Regular-65"/><use x="82.8" xlink:href="#MyriadPro-Regular-63"/><use x="127.6" xlink:href="#MyriadPro-Regular-68"/><use x="183.1" xlink:href="#MyriadPro-Regular-61"/><use x="231.3" xlink:href="#MyriadPro-Regular-72"/><use x="264" xlink:href="#MyriadPro-Regular-74"/><use x="297.1" xlink:href="#MyriadPro-Regular-73"/></g><g style="fill:#7f7f7f" transform="matrix(.14 0 0 -.14 406.477 333.689)" id="text_22"><defs><path d="M467-1267h557V416h13c185-307 544-486 953-486 730 0 1408 550 1408 1664 0 940-563 1574-1312 1574-505 0-870-224-1100-602h-13l-26 532H442c12-295 25-615 25-1012v-3353zm557 3059c0 77 19 160 38 230 109 423 468 698 852 698 595 0 921-531 921-1152 0-710-345-1197-941-1197-403 0-742 269-844 659-13 71-26 148-26 231v531z" id="MyriadPro-Regular-70" transform="scale(.01563)"/><path d="M467 0h563v4544H467V0z" id="MyriadPro-Regular-6c" transform="scale(.01563)"/><path d="M1779 3168c-857 0-1536-608-1536-1645C243 544 890-70 1728-70c749 0 1542 499 1542 1644 0 948-601 1594-1491 1594zm-13-422c666 0 928-666 928-1191 0-697-403-1203-940-1203-551 0-941 512-941 1190 0 589 288 1204 953 1204z" id="MyriadPro-Regular-6f" transform="scale(.01563)"/><path d="M58 3098 1203 243c26-70 39-115 39-147s-20-77-45-134c-128-288-320-506-474-628-166-140-352-230-493-275l141-473c141 25 416 121 691 364 384 333 660 877 1063 1940l845 2208h-596l-614-1818c-77-224-141-461-198-646h-13c-51 185-128 428-199 633L672 3098H58z" id="MyriadPro-Regular-79" transform="scale(.01563)"/></defs><use xlink:href="#MyriadPro-Regular-70"/><use x="56.9" xlink:href="#MyriadPro-Regular-6c"/><use x="80.5" xlink:href="#MyriadPro-Regular-6f"/><use x="135.4" xlink:href="#MyriadPro-Regular-74"/><use x="168.5" xlink:href="#MyriadPro-Regular-6c"/><use x="192.1" xlink:href="#MyriadPro-Regular-79"/><use x="239.2" xlink:href="#MyriadPro-Regular-2e"/><use x="259.9" xlink:href="#MyriadPro-Regular-6a"/><use x="284.2" xlink:href="#MyriadPro-Regular-73"/></g><g style="fill:#bcbd22" transform="matrix(.14 0 0 -.14 406.477 347.668)" id="text_23"><use xlink:href="#MyriadPro-Regular-63"/><use x="44.8" xlink:href="#MyriadPro-Regular-33"/><use x="96.1" xlink:href="#MyriadPro-Regular-2e"/><use x="116.8" xlink:href="#MyriadPro-Regular-6a"/><use x="141.1" xlink:href="#MyriadPro-Regular-73"/></g><g style="fill:#969696" transform="matrix(.09716 0 0 -.09716 38.643 357.303)" id="text_24"><defs><path d="M269 211C499 58 954-70 1370-70c1017 0 1510 582 1510 1248 0 633-371 985-1101 1267-595 230-857 429-857 832 0 294 224 646 812 646 391 0 679-128 820-205l153 455c-192 109-512 211-953 211-839 0-1396-499-1396-1171 0-608 436-973 1140-1223 582-224 812-454 812-857 0-435-332-736-902-736-384 0-749 128-998 281L269 211z" id="MyriadPro-Regular-53" transform="scale(.01563)"/><path d="M1024 4544H467V0h557v1165l288 320L2381 0h685L1702 1824l1197 1274h-678l-909-1069c-90-109-198-243-275-352h-13v2867z" id="MyriadPro-Regular-6b" transform="scale(.01563)"/><path d="M2234 4384c-1152 0-2004-896-2004-2266C230 813 1030-70 2170-70c1100 0 2003 787 2003 2272 0 1280-762 2182-1939 2182zm-26-454c928 0 1376-896 1376-1754 0-979-499-1792-1382-1792-877 0-1376 826-1376 1747 0 947 460 1799 1382 1799z" id="MyriadPro-Regular-4f" transform="scale(.01563)"/><path d="M83 3098 1261 0h537l1216 3098h-588l-602-1741c-102-282-192-538-262-794h-20c-64 256-147 512-249 794L685 3098H83z" id="MyriadPro-Regular-76" transform="scale(.01563)"/><path d="M115 3098 1050 0h512l499 1472c109 333 205 653 281 1024h13c77-365 167-672 275-1018L3104 0h512l998 3098h-556l-442-1556c-102-364-186-691-237-1004h-19c-70 313-160 640-275 1011l-480 1549h-474l-505-1575c-103-339-205-672-276-985h-19c-57 320-141 640-230 985L691 3098H115z" id="MyriadPro-Regular-77" transform="scale(.01563)"/><path d="M2714 1357 3174 0h596L2298 4314h-672L160 0h576l448 1357h1530zm-1415 435 423 1248c83 262 153 525 217 781h13c64-250 128-506 224-787l422-1242H1299z" id="MyriadPro-Regular-41" transform="scale(.01563)"/><path d="M486 0h557v1728c128-32 282-38 448-38 544 0 1024 160 1319 473 217 224 332 531 332 922 0 384-140 697-377 902-256 231-659 359-1210 359-448 0-800-39-1069-84V0zm557 3859c96 26 282 45 525 45 614 0 1018-275 1018-845 0-595-410-921-1082-921-186 0-339 12-461 44v1677z" id="MyriadPro-Regular-50" transform="scale(.01563)"/><path d="M486 4314V0h557v4314H486z" id="MyriadPro-Regular-49" transform="scale(.01563)"/><path d="M550 4800v-6400h429v6400H550z" id="MyriadPro-Regular-7c" transform="scale(.01563)"/><path d="M1011 0v1843c0 717-13 1235-45 1779l20 7c217-467 505-960 806-1440L3162 0h563v4314h-525V2509c0-672 13-1197 64-1773l-13-6c-205 441-454 896-774 1401L1094 4314H486V0h525z" id="MyriadPro-Regular-4e" transform="scale(.01563)"/><path d="M1165 3648c185 0 313 154 313 326 0 186-134 327-313 327s-327-147-327-327c0-172 135-326 320-326h7zm1184 0c185 0 313 154 313 326 0 186-134 327-313 327s-320-147-320-327c0-172 128-326 313-326h7zm-570-480c-857 0-1536-608-1536-1645C243 544 890-70 1728-70c749 0 1542 499 1542 1644 0 948-601 1594-1491 1594zm-13-422c666 0 928-666 928-1191 0-697-403-1203-940-1203-551 0-941 512-941 1190 0 589 288 1204 953 1204z" id="MyriadPro-Regular-f6" transform="scale(.01563)"/><path d="M467 0h551v1869c0 96 12 192 44 275 90 282 346 563 698 563 429 0 646-358 646-851V0h551v1914c0 102 19 204 45 281 96 275 345 512 665 512 455 0 672-358 672-953V0h551v1824c0 1075-608 1344-1018 1344-294 0-499-77-685-218-128-96-249-230-345-403h-13c-135 365-455 621-877 621-512 0-800-275-973-570h-19l-26 500H442c19-256 25-519 25-839V0z" id="MyriadPro-Regular-6d" transform="scale(.01563)"/><path d="M3386 582c-224-108-570-179-909-179-1050 0-1658 679-1658 1735 0 1132 672 1779 1683 1779 359 0 660-77 871-179l134 454c-147 77-486 192-1024 192-1337 0-2253-915-2253-2266C230 704 1146-70 2362-70c524 0 934 108 1139 211l-115 441z" id="MyriadPro-Regular-43" transform="scale(.01563)"/><path d="M486 13c186-26 480-51 864-51 704 0 1191 128 1492 403 217 211 364 493 364 864 0 640-480 979-889 1081v13c454 167 729 531 729 947 0 340-134 596-358 762-269 218-627 314-1184 314-390 0-774-39-1018-90V13zm557 3865c90 20 237 39 493 39 563 0 947-199 947-704 0-416-345-723-934-723h-506v1388zm0-1811h461c608 0 1114-243 1114-832 0-627-532-838-1108-838-198 0-358 6-467 25v1645z" id="MyriadPro-Regular-42" transform="scale(.01563)"/><path d="M2010 0v1837l1446 2477h-634l-620-1191c-167-326-314-608-436-889h-12c-135 300-263 563-429 889L717 4314H83l1363-2484V0h564z" id="MyriadPro-Regular-59" transform="scale(.01563)"/></defs><use xlink:href="#MyriadPro-Regular-53"/><use x="49.3" xlink:href="#MyriadPro-Regular-74"/><use x="82.4" xlink:href="#MyriadPro-Regular-61"/><use x="130.6" xlink:href="#MyriadPro-Regular-63"/><use x="175.4" xlink:href="#MyriadPro-Regular-6b"/><use x="222.3" xlink:href="#MyriadPro-Regular-4f"/><use x="291.2" xlink:href="#MyriadPro-Regular-76"/><use x="339.3" xlink:href="#MyriadPro-Regular-65"/><use x="389.4" xlink:href="#MyriadPro-Regular-72"/><use x="422.1" xlink:href="#MyriadPro-Regular-66"/><use x="451.3" xlink:href="#MyriadPro-Regular-6c"/><use x="474.9" xlink:href="#MyriadPro-Regular-6f"/><use x="529.8" xlink:href="#MyriadPro-Regular-77"/><use x="603.4" xlink:href="#MyriadPro-Regular-20"/><use x="624.6" xlink:href="#MyriadPro-Regular-41"/><use x="685.8" xlink:href="#MyriadPro-Regular-50"/><use x="739" xlink:href="#MyriadPro-Regular-49"/><use x="762.9" xlink:href="#MyriadPro-Regular-20"/><use x="784.1" xlink:href="#MyriadPro-Regular-76"/><use x="832.2" xlink:href="#MyriadPro-Regular-69"/><use x="855.6" xlink:href="#MyriadPro-Regular-61"/><use x="903.8" xlink:href="#MyriadPro-Regular-20"/><use x="925" xlink:href="#MyriadPro-Regular-73"/><use x="964.6" xlink:href="#MyriadPro-Regular-74"/><use x="997.7" xlink:href="#MyriadPro-Regular-61"/><use x="1045.9" xlink:href="#MyriadPro-Regular-63"/><use x="1090.7" xlink:href="#MyriadPro-Regular-6b"/><use x="1137.6" xlink:href="#MyriadPro-Regular-74"/><use x="1170.7" xlink:href="#MyriadPro-Regular-61"/><use x="1218.9" xlink:href="#MyriadPro-Regular-67"/><use x="1274.8" xlink:href="#MyriadPro-Regular-73"/><use x="1314.4" xlink:href="#MyriadPro-Regular-20"/><use x="1335.6" xlink:href="#MyriadPro-Regular-7c"/><use x="1359.5" xlink:href="#MyriadPro-Regular-20"/><use x="1380.7" xlink:href="#MyriadPro-Regular-4e"/><use x="1446.5" xlink:href="#MyriadPro-Regular-69"/><use x="1469.9" xlink:href="#MyriadPro-Regular-63"/><use x="1514.7" xlink:href="#MyriadPro-Regular-6f"/><use x="1569.6" xlink:href="#MyriadPro-Regular-20"/><use x="1590.8" xlink:href="#MyriadPro-Regular-53"/><use x="1640.1" xlink:href="#MyriadPro-Regular-63"/><use x="1684.9" xlink:href="#MyriadPro-Regular-68"/><use x="1740.4" xlink:href="#MyriadPro-Regular-6c"/><use x="1764" xlink:href="#MyriadPro-Regular-f6"/><use x="1818.9" xlink:href="#MyriadPro-Regular-6d"/><use x="1902.3" xlink:href="#MyriadPro-Regular-65"/><use x="1952.4" xlink:href="#MyriadPro-Regular-72"/><use x="1985.1" xlink:href="#MyriadPro-Regular-20"/><use x="2006.3" xlink:href="#MyriadPro-Regular-7c"/><use x="2030.2" xlink:href="#MyriadPro-Regular-20"/><use x="2051.4" xlink:href="#MyriadPro-Regular-43"/><use x="2109.4" xlink:href="#MyriadPro-Regular-43"/><use x="2167.4" xlink:href="#MyriadPro-Regular-20"/><use x="2188.6" xlink:href="#MyriadPro-Regular-42"/><use x="2242.8" xlink:href="#MyriadPro-Regular-59"/></g><g style="fill:#969696" transform="matrix(.14 0 0 -.14 87.417 17.293)" id="text_25"><defs><path d="M486 13c282-32 615-51 1012-51 838 0 1504 217 1907 620 403 397 621 973 621 1677 0 698-224 1197-608 1549-378 352-948 538-1748 538-441 0-844-39-1184-90V13zm557 3833c147 32 365 58 653 58 1178 0 1754-646 1747-1664 0-1165-646-1830-1837-1830-217 0-422 6-563 32v3404z" id="MyriadPro-Regular-44" transform="scale(.01563)"/><path d="M467 0h563v1862c0 96 13 192 39 263 96 313 384 576 755 576 531 0 717-416 717-915V0h563v1850c0 1062-666 1318-1094 1318-512 0-871-288-1024-582h-13l-32 512H442c19-256 25-519 25-839V0z" id="MyriadPro-Regular-6e" transform="scale(.01563)"/><path d="M3059 3098h-563V1197c0-103-19-205-51-288-103-250-365-512-743-512-512 0-691 397-691 985v1716H448V1286C448 198 1030-70 1517-70c550 0 877 326 1024 576h13l32-506h499c-19 243-26 525-26 845v2253z" id="MyriadPro-Regular-75" transform="scale(.01563)"/><path d="M2579-1267h563v3513c0 320 7 589 20 852h-532l-19-468h-13c-153 301-473 538-953 538-653 0-1402-512-1402-1670C243 557 832-70 1555-70c499 0 845 243 1011 550h13v-1747zm0 2528c0-83-19-192-45-269-128-390-441-614-806-614-621 0-915 537-915 1152 0 697 352 1190 934 1190 423 0 723-294 807-640 19-70 25-160 25-237v-582z" id="MyriadPro-Regular-71" transform="scale(.01563)"/></defs><use xlink:href="#MyriadPro-Regular-44"/><use x="66.6" xlink:href="#MyriadPro-Regular-61"/><use x="114.8" xlink:href="#MyriadPro-Regular-69"/><use x="138.2" xlink:href="#MyriadPro-Regular-6c"/><use x="161.8" xlink:href="#MyriadPro-Regular-79"/><use x="208.9" xlink:href="#MyriadPro-Regular-20"/><use x="230.1" xlink:href="#MyriadPro-Regular-6e"/><use x="285.6" xlink:href="#MyriadPro-Regular-75"/><use x="340.7" xlink:href="#MyriadPro-Regular-6d"/><use x="424.1" xlink:href="#MyriadPro-Regular-62"/><use x="481" xlink:href="#MyriadPro-Regular-65"/><use x="531.1" xlink:href="#MyriadPro-Regular-72"/><use x="563.8" xlink:href="#MyriadPro-Regular-20"/><use x="585" xlink:href="#MyriadPro-Regular-6f"/><use x="639.9" xlink:href="#MyriadPro-Regular-66"/><use x="669.1" xlink:href="#MyriadPro-Regular-20"/><use x="690.3" xlink:href="#MyriadPro-Regular-71"/><use x="746.6" xlink:href="#MyriadPro-Regular-75"/><use x="801.7" xlink:href="#MyriadPro-Regular-65"/><use x="851.8" xlink:href="#MyriadPro-Regular-73"/><use x="891.4" xlink:href="#MyriadPro-Regular-74"/><use x="924.5" xlink:href="#MyriadPro-Regular-69"/><use x="947.9" xlink:href="#MyriadPro-Regular-6f"/><use x="1002.8" xlink:href="#MyriadPro-Regular-6e"/><use x="1058.3" xlink:href="#MyriadPro-Regular-73"/><use x="1097.9" xlink:href="#MyriadPro-Regular-20"/><use x="1119.1" xlink:href="#MyriadPro-Regular-6f"/><use x="1174" xlink:href="#MyriadPro-Regular-6e"/><use x="1229.5" xlink:href="#MyriadPro-Regular-20"/><use x="1250.7" xlink:href="#MyriadPro-Regular-53"/><use x="1300" xlink:href="#MyriadPro-Regular-74"/><use x="1333.1" xlink:href="#MyriadPro-Regular-61"/><use x="1381.3" xlink:href="#MyriadPro-Regular-63"/><use x="1426.1" xlink:href="#MyriadPro-Regular-6b"/><use x="1473" xlink:href="#MyriadPro-Regular-4f"/><use x="1541.9" xlink:href="#MyriadPro-Regular-76"/><use x="1590" xlink:href="#MyriadPro-Regular-65"/><use x="1640.1" xlink:href="#MyriadPro-Regular-72"/><use x="1672.8" xlink:href="#MyriadPro-Regular-66"/><use x="1702" xlink:href="#MyriadPro-Regular-6c"/><use x="1725.6" xlink:href="#MyriadPro-Regular-6f"/><use x="1780.5" xlink:href="#MyriadPro-Regular-77"/></g><path clip-path="url(#p025aa5f9a6)" d="m63.413 323.405 2.486-.456 2.484.456h5.01l2.404-.505 2.402.505h7.457l2.485-.456 5.011-.015 2.487-.44 2.483.44 2.485-1.808h2.526l2.445-.644 2.442 1.1 2.487-.06 2.485-1.763 2.485.35 2.485-.806 2.526 3.19 2.485-2.385 2.487-1.717 2.483.775 2.486-2.598 2.525.912 2.404-3.663 2.402-1.351 2.487 1.52 2.485 2.126 2.485-3.069 2.485 1.246 2.526-6.837 2.485-14.662 2.487 11.927 2.483-9.1 2.485 13.202 2.526-3.646 2.404-1.953 2.402 6.055 2.486-4.239 2.485 4.695 2.486-1.398 2.485-.425 2.525 7.293 2.486-1.216 2.486-13.37 4.969 11.85 2.526-5.013 2.403-2.214 2.402-5.99 2.487.607 2.485-4.254 2.485 3.783 2.485 4.422 2.526 5.013 2.485-9.435 2.487-1.048 2.483-.836 2.485-7.368 2.526-4.558 2.445 12.982 2.442-.22 2.487-5.075 2.485 4.62 2.485.561 2.485 11.29 2.526-10.484 2.485-4.103 2.487 4.558 2.483-1.732 2.486 3.556 2.525-3.19 2.404.846 2.402-4.038 2.487 8.478 2.485.183 2.485-13.841 2.485 9.738 2.526 4.558 2.485-10.529 2.487 8.25 2.483-19.553 2.485 18.186 2.526-8.204 2.404-2.817 2.402 4.64 2.486 8.447 2.485 2.036 2.486-.152 2.485-4.406 2.525 4.102 2.486 5.485 2.486-7.308 2.484.714 2.485 5.212 2.526-.912 2.403 2.328 2.402 4.053 2.487-5.97 2.485 5.514 2.485-3.63 2.485-.016 2.526-.912 2.485-.486 2.487.03 2.483 1.854 2.485 6.807 2.526-5.926 2.445-.848 2.442.393 2.487-2.78 2.485 4.147 2.485-8.387 2.485-1.185 2.526 8.66 2.485-6.533 2.487 8.357 2.483-5.53 2.486.516 2.525-4.558 2.404-3.663 2.402.016 2.487 1.565 2.485 4.817 2.485-3.404 2.485 2.948 2.526.911 4.972 4.558 2.483.532h0" style="fill:none;stroke:#8c564b;stroke-linecap:square;stroke-width:1.5" id="line2d_26"/><path clip-path="url(#p025aa5f9a6)" d="m189.908 323.405 2.526-1.367 2.403 1.367 2.402-.456 2.487.456h2.485l2.485-.47 2.485.47H212.192l2.487-1.367 2.483.896 2.485.471 2.526-.456 2.445.456h2.442l2.487-1.413 2.485 1.413 2.485-1.413 2.485-2.233 2.526 1.367 2.485.866 2.487.957 2.483-1.428 2.486.973 2.525.911 2.404-4.037 2.402 1.758 2.487-1.018 2.485-2.172 2.485 1.23 2.485 2.416 2.526.912 2.485.44 2.487-.44 2.483-.502 2.485-2.233 2.526 2.279 2.404-.651 2.402-2.084 2.486 1.276 2.485.091 2.486-1.975 2.485-1.215 2.525.456 2.486.288 2.486-1.2 2.484.258 2.485 2.933 2.526-2.735 2.403-1.14 2.402 2.507 2.487.32 2.485-.32 2.485 1.261 2.485-5.819 2.526 4.558 2.485 1.732 2.487-3.555 2.483-.213 2.485 3.404 2.526-3.191 2.445-3.364 2.442 1.54 2.487-5.454 2.485 6.366 2.485-4.01 2.485.364 2.526-1.368 2.485-.41 2.487 1.322 2.483 1.033 2.486 3.98 2.525-1.366 2.404-7.391 2.402 4.2 2.487.106 2.485-3.753 2.485 3.282 2.485-.09 2.526.91 2.485-4.588 2.487-1.337 2.483 3.692" style="fill:none;stroke:#9467bd;stroke-linecap:square;stroke-width:1.5" id="line2d_27"/><path clip-path="url(#p025aa5f9a6)" d="m38.643 323.405 2.485-.456 2.526.456h12.263l2.485-1.823 2.525.456 2.486-.988 2.486.988 2.484-.988 2.485.076 2.526-1.367 2.403-.391 2.402-3.256 2.487-1.185 2.485 1.641 2.485-.699 2.485-7.05 2.526-3.19 2.485 1.762 2.487-6.776 2.483-.289 2.485-6.548 2.526 1.823 2.445-2.404 2.442-4.433 2.487 1.2 2.485-13.962 2.485-2.522 5.011-15.254 2.485 5.363 2.487 12.413 2.483-10.058 2.486 4.588 2.525-25.069 2.404-110.792 2.402-46.46 2.487 21.834 2.485 3.692 2.485 1.96 2.485 14.448 2.526 50.594 2.485 7.962 2.487-8.417 2.483 32.437 2.485 6.761 2.526-25.069 2.404-16.848 2.402-6.853 2.486 17.989 2.485-10.696 2.486 4.573 2.485-50.154 2.525 46.948 2.486.38 2.486 5.545 4.969 20.967 2.526-29.627 2.403.423 2.402 13.707 2.487 5.94 2.485-20.981 2.485 10.62 2.485-6.062 2.526 8.204 2.485 1.155 2.487 6.594 2.483 4.239 2.485 28.122 2.526-27.348 2.445-35.71 2.442 21.125 2.487-21.514 2.485 7.84 2.485 12.413 2.485-.107 2.526-2.734 2.485 1.428 2.487 9.055 2.483 9.784 2.486 25.768 2.525-18.687 2.404-7.619 2.402-1.953 2.487 31.222 2.485-30.31 2.485 6.76 2.485-10.407 2.526 17.32 2.485 4.862 2.487-1.215 2.483 1.686 2.485 19.28 2.526-10.027 2.404-21.162 2.402-8.465 2.486 26.968 2.485-3.722 2.486 19.265 2.485-26.558 2.525 20.511 2.486-.076 2.486 3.722 2.484 2.872 2.485 21.286 2.526-16.409 2.403-18.2 2.402 24.126 2.487-23.99 2.485 6.67 2.485 25.828 2.485-16.257 2.526 5.925 2.485-4.269 2.487 10.65 2.483 7.248 2.485-8.16 2.526-.455 2.445-8.487 2.442 8.031 2.487-15.42 2.485-2.356 2.485 1.884 2.485 14.98 2.526 1.368 2.485 4.847 2.487-.289 2.483.76 2.486 4.71 2.525 9.116 2.404-12.144 2.402-5.177 2.487-3.1 2.485 4.468 2.485 2.127 2.485 11.547 2.526 1.367 2.485-2.081 2.487 7.55 2.483-3.311h0" style="fill:none;stroke:#d62728;stroke-linecap:square;stroke-width:1.5" id="line2d_28"/><path clip-path="url(#p025aa5f9a6)" d="m78.2 323.405 2.486-.47 2.485.47 2.485-.47 2.485.014 2.526-1.823 2.485-.547 2.487-.82 2.483-2.477 2.485-1.625 2.526.455 2.445-.99 2.442-9.493 2.487-9.07 2.485-29.673 2.485 9.42 2.485-14.434 2.526 1.823 2.485-3.403 2.487-15.285 2.483-33.228 2.486 30.038 2.525-22.335 2.404-23.245 2.402-12.307 2.487-14.07 2.485 15.893 2.485-43.68 2.485-.988 2.526 17.776 2.485 7.232 2.487-12.702 2.483-27.804 2.485-6.837 2.526-3.19 2.404-45.987 2.402 2.23 2.486 2.917 2.485 27.621 2.486 13.826 2.485-19.295 2.525 48.315 2.486 6.776 2.486-4.041 2.484-22.806 2.485 27.364 2.526-8.205 2.403-17.678 2.402-3.289 2.487-32.574 2.485 13.886 2.485-13.415 2.485-15.3 2.526 34.64 2.485-1.442 2.487.076 2.483-18.916 2.485 28.943 2.526-36.92 2.445 2.86 2.442-12.887 2.487 11.41 2.485-12.778 2.485-13.598 2.485 22.258 2.526-2.279 2.485 42.192 2.487-27.15 2.483-1.58 2.486 34.853 2.525-13.674L256.8 80.92l2.487 41.842 2.485-15.406 2.485 15.877 2.485 26.969 2.526-10.028 2.485 18.855 2.487-10.195 2.483-4.877 2.485 47.723 2.526-30.083 2.404 1.84 2.402 6.82 2.486-5.105 2.485 15.588 2.486 5.136 2.485-11.061 2.525 7.749 2.486-10.818 2.486 4.892 2.484 6.883 2.485 32.316 2.526 2.735 2.403-11.737 2.402 7.179 2.487-13.066 2.485-20.208 2.485 15.969 2.485 4.998 2.526 7.749 2.485-10.392 2.487 12.67 2.483-10.786 2.485 37.223 2.526-23.246 2.445-20.636 2.442-22.665 2.487-24.84 2.485 7.52 2.485 34.869 2.485 7.065 2.526 17.32 2.485-7.43 2.487-20.374 2.483 26.497 2.486 22.274 2.525-5.926 2.404-15.204 2.402-7.586 2.487 16.333L380.812 209l2.485 19.265 2.485-7.414 2.526 33.273 2.485-13.613 2.487 8.144 2.483-2.963h0" style="fill:none;stroke:#2ca02c;stroke-linecap:square;stroke-width:1.5" id="line2d_29"/><path clip-path="url(#p025aa5f9a6)" d="m63.413 323.405 2.486-.456 2.484-.015 2.485.471h4.93l4.888-.942 2.485.942 2.485-.47 2.485.014 2.526-1.823 2.485-.547 2.487-3.1 2.483-6.79 2.485 4.512 2.526 1.367 2.445-6.805 2.442 8.173 2.487-3.48 4.97-32.027 2.485-14.176 2.526 18.232 2.485-10.18 2.487-2.126 2.483 1.185 2.486-17.594 2.525-3.19 2.404-17.972 2.402 8.4 2.487 2.567 2.485-8.949 2.485 27.789 2.485-35.082 2.526 20.511 2.485 1.383 2.487-3.662 2.483-6.229 2.485 1.215 2.526 10.484 2.404-5.307 2.402 5.763 2.486-8.387 2.485 3.829 2.486 15.482 2.485-23.687 2.525 7.749 2.486-.547 2.486-2.644 2.484-5.834 2.485 1.732 2.526-4.102 2.403-13.072 2.402 18.086 2.487-19.129 2.485 9.557 2.485-.608 2.485 2.431 2.526-3.646 2.485 9.222 2.487 2.628 2.483-17.7 2.485 13.598 2.526-1.823 4.887-16.865 2.487 1.322 2.485 7.794 2.485 8.691 2.485 5.895 2.526-2.279 2.485-7.855 2.487 2.841 2.483-4.254 2.486 6.533 2.525-4.558 2.404-3.825 2.402 8.84 2.487-6.048 2.485-.79 2.485 14.92 2.485-1.246 2.526-.456 2.485-3.008 2.487 2.553 2.483 6.396 2.485-2.75 2.526 2.735 2.404-6.512 2.402-19.925 2.486 8.083 2.485 2.4 2.486 9.375 2.485.653 2.525-4.102 2.486-7.384 2.486 24.249 2.484-5.88 2.485 6.791 2.526-15.497 2.403 6.284 2.402 3.288 2.487-.395 2.485-14.19 2.485 3.828 2.485 2.553 2.526 21.878 2.485-9.36 2.487-10.695 2.483-2.492 2.485 11.608 2.526-9.116 2.445-.283 2.442-7.922 2.487-15.01 2.485-6.868 2.485 25.236 2.485-14.297 2.526 13.218 2.485 11.44 2.487.411 2.483-7.004 2.486 17.943 2.525-36.008 2.404 3.06 2.402 13.805 2.487-.684 2.485-17.093 2.485 6.731 2.485.562 5.01 2.735h2.488" style="fill:none;stroke:#ff7f0e;stroke-linecap:square;stroke-width:1.5" id="line2d_30"/><path clip-path="url(#p025aa5f9a6)" d="m130.429 323.405 2.525-.456 2.404.456h2.402l2.487-.942 2.485.03 2.485-2.385 2.485 2.386h2.526l2.485.911 2.487-1.367 2.483-2.4 2.485-3.07 2.526-.911 2.404 1.692 2.402 1.954 2.486.334 2.485.122 2.486-1.535 2.485-3.48 2.525-2.278 2.486 2.461 2.486-1.55 2.484 1.55 2.485-1.094 2.526-6.837 2.403-8.823 2.402 1.075 2.487 2.962 2.485-2.962 2.485-5.987 2.485-9.51 2.526 13.673 2.485 4.786 2.487-3.418 2.483-5.06 2.485 1.413 2.526 3.647 2.445-1.21 2.442 1.21 2.487-14.95 2.485-19.691 2.485 12.155 2.485-8.053 2.526 6.837 2.485-3.023 2.487 7.125 2.483-3.357 2.486-1.656 2.525 4.558 2.404-2.768 2.402-31.873 2.487 18.08 2.485 3.798 2.485-19.812 2.485 1.58 2.526 5.926 2.485 5.21 2.487 19.403 2.483-7.156 2.485 8.067 2.526-10.483 2.404 9.783 2.402-17.987 2.486 8.265 2.485-2.34 2.486 8.463 2.485-8.463 2.525-2.279 2.486-.091 2.486 3.737 2.484 7.567 2.485 6.107 2.526-16.864 2.403-8.823 2.402 13.837 2.487-2.735 2.485 3.646 2.485-2.704 2.485-.486 2.526.455 2.485 7.096 2.487-9.375 2.483 4.194 2.485 10.392 2.526-8.66 2.445-7.969 2.442-15.277 2.487-13.81 2.485 1.503 2.485-2.446 2.485-7.126 2.526 22.335 2.485-7.673 2.487 5.85 2.483 9.222 2.486-3.297 2.525-1.823 2.404 2.328 2.402-18.737 2.487-12.383 2.485 2.355 2.485 1.413 2.485 21.833 2.526-2.735 2.485-21.924 2.487 15.999 2.483-5.637" style="fill:none;stroke:#1f77b4;stroke-linecap:square;stroke-width:1.5" id="line2d_31"/></g></g><defs><clipPath id="p025aa5f9a6"><path d="M38.643 57.293h357.12v266.112H38.643z"/></clipPath></defs></svg>