<svg height="475.651" viewBox="0 0 453.036 356.738" width="604.048" xmlns="http://www.w3.org/2000/svg" xmlns:xlink="http://www.w3.org/1999/xlink"><defs><style>*{stroke-linecap:butt;stroke-linejoin:round}</style></defs><g id="figure_1"><path d="M0 356.738h453.036V0H0z" style="fill:none" id="patch_1"/><g id="axes_1"><path d="M29.77 313.628h357.12V47.516H29.77z" style="fill:none" id="patch_2"/><path clip-path="url(#p7ff8d351ca)" d="m85.555 313.628 2.796-.298 2.796-1.552 2.796.358 2.842-2.089 2.796-2.586 2.798.796 2.794-4.805 2.796-1.76 2.842-1.492 2.705-7.055 2.702-4.583 2.798.398 2.796-10.246 2.796-5.172 2.797 5.172 2.841-4.177 2.797-1.304 2.798-16.004 2.794-6.814 2.796-2.139 2.842-9.25 2.704-2.046 2.703 2.941 2.798.01 2.796.885 2.796 4.974 2.796-13.33 2.842 5.969 2.796-.348 2.798 14.075 2.794 10.593 2.796-7.31 2.842-6.267 2.705-1.62 2.702 5.2 2.798-6.346 2.796 5.451 2.796-3.6 2.796 3.004 2.842 10.742 2.796-1.412 2.798 5.888 2.794 9.221 2.797-9.817 2.841-.896 2.75 8.13 2.75 1.718 2.797-5.918 2.796 2.635 2.796 12.474 2.796 1.85 2.842-4.476 2.796 6.326 2.798 2.03 2.795.745 2.796 4.029 2.842-1.492 2.704 4.402 2.702-4.402 2.798-.378 2.797 7.241 2.796-3.232 2.796 4.724 2.842.299 2.796-.706 2.798 1.303 2.794.238 2.796 3.044 2.842-1.193 2.704-.992 2.703 1.588 2.798-2.138 2.796 1.542 2.796.925 2.796 1.163 2.842-1.79 2.796-3.074 2.798 6.953 2.794-1.094 2.796-.1 2.842-1.491 2.705-.17 2.702 1.96 2.798 1.343 2.796 1.641 2.796-1.333 2.796.438 2.842-1.194 2.796-1.094 2.798 1.094 2.795.14 2.796.756 2.842.895 2.75.411 2.748-3.694 2.798 1.015 2.796 1.67 2.796-1.053 2.797 1.054 2.841.597 2.797-1.343 2.798 3.133 2.794-1.591 2.796.1 2.842.894 2.704-.554 2.703.554 2.798-1.92" style="fill:none;stroke:#8c564b;stroke-linecap:square;stroke-width:1.5" id="line2d_1"/><g id="matplotlib.axis_1"><g id="xtick_1"><g id="line2d_2"><defs><path d="M0 0v3.5" id="m5db36bce0f" style="stroke:#969696;stroke-width:.4"/></defs><use style="fill:#969696;stroke:#969696;stroke-width:.4" x="42.376" xlink:href="#m5db36bce0f" y="313.628"/></g><g style="fill:#969696" transform="matrix(.14 0 0 -.14 26.805 330.678)" id="text_1"><defs><path d="M281 2888q0 793 409 1202 410 410 1148 410 618 0 1012-375t394-969q0-462-227-780-226-317-667-557l-775-425q-684-375-775-863h2444V0H166q25 634 275 1056t781 728l806 469q322 185 469 383t147 545q0 344-241 578-240 235-650 235-453 0-678-299-225-298-231-807H281z" id="HelveticaWorld-Regular-32" transform="scale(.01563)"/><path d="M2719 2188q0 903-239 1354-239 452-702 452-453 0-697-452-243-451-243-1354 0-875 240-1340 241-464 700-464 463 0 702 448 239 449 239 1356zm603 0q0-1107-400-1709-400-601-1144-601-772 0-1156 623-384 624-384 1687 0 1090 393 1701 394 611 1147 611 744 0 1144-608t400-1704z" id="HelveticaWorld-Regular-30" transform="scale(.01563)"/><path d="M2297 0h-600v3194H647v447q550 18 818 176 269 158 391 683h441V0z" id="HelveticaWorld-Regular-31" transform="scale(.01563)"/></defs><use xlink:href="#HelveticaWorld-Regular-32"/><use x="55.615" xlink:href="#HelveticaWorld-Regular-30"/><use x="111.23" xlink:href="#HelveticaWorld-Regular-31"/><use x="166.846" xlink:href="#HelveticaWorld-Regular-31"/></g></g><g id="xtick_2"><use style="fill:#969696;stroke:#969696;stroke-width:.4" x="75.837" xlink:href="#m5db36bce0f" y="313.628" id="line2d_3"/><g style="fill:#969696" transform="matrix(.14 0 0 -.14 60.267 330.678)" id="text_2"><use xlink:href="#HelveticaWorld-Regular-32"/><use x="55.615" xlink:href="#HelveticaWorld-Regular-30"/><use x="111.23" xlink:href="#HelveticaWorld-Regular-31"/><use x="166.846" xlink:href="#HelveticaWorld-Regular-32"/></g></g><g id="xtick_3"><use style="fill:#969696;stroke:#969696;stroke-width:.4" x="109.39" xlink:href="#m5db36bce0f" y="313.628" id="line2d_4"/><g style="fill:#969696" transform="matrix(.14 0 0 -.14 93.82 330.678)" id="text_3"><defs><path d="M1434 2559q141-12 294-12 397 0 626 183 230 183 230 554 0 300-214 505t-617 205q-447 0-655-263-207-262-220-703H325q0 703 369 1087 369 385 1084 385 635 0 1013-327 378-326 378-857 0-685-578-928v-13q750-256 750-1050 0-634-422-1041-422-406-1197-406-634 0-1044 333-409 333-459 1164h581q13-519 256-755 244-236 703-236 444 0 713 247t269 622q0 410-257 619-256 209-793 209-128 0-257-6v484z" id="HelveticaWorld-Regular-33" transform="scale(.01563)"/></defs><use xlink:href="#HelveticaWorld-Regular-32"/><use x="55.615" xlink:href="#HelveticaWorld-Regular-30"/><use x="111.23" xlink:href="#HelveticaWorld-Regular-31"/><use x="166.846" xlink:href="#HelveticaWorld-Regular-33"/></g></g><g id="xtick_4"><use style="fill:#969696;stroke:#969696;stroke-width:.4" x="142.852" xlink:href="#m5db36bce0f" y="313.628" id="line2d_5"/><g style="fill:#969696" transform="matrix(.14 0 0 -.14 127.281 330.678)" id="text_4"><defs><path d="M678 1581h1447v2041h-12L678 1581zm2010-487V0h-563v1094H159v550l2063 2856h466V1581h659v-487h-659z" id="HelveticaWorld-Regular-34" transform="scale(.01563)"/></defs><use xlink:href="#HelveticaWorld-Regular-32"/><use x="55.615" xlink:href="#HelveticaWorld-Regular-30"/><use x="111.23" xlink:href="#HelveticaWorld-Regular-31"/><use x="166.846" xlink:href="#HelveticaWorld-Regular-34"/></g></g><g id="xtick_5"><use style="fill:#969696;stroke:#969696;stroke-width:.4" x="176.313" xlink:href="#m5db36bce0f" y="313.628" id="line2d_6"/><g style="fill:#969696" transform="matrix(.14 0 0 -.14 160.743 330.678)" id="text_5"><defs><path d="M941 2619q372 281 872 281 606 0 1042-403t436-1038q0-690-421-1139-420-448-1179-448-660 0-1041 323-381 324-444 918h582q43-363 284-555t669-192q415 0 681 287 266 288 266 735 0 456-279 731-278 275-718 275-500 0-835-428l-484 25 337 2406h2332v-544H1131L941 2619z" id="HelveticaWorld-Regular-35" transform="scale(.01563)"/></defs><use xlink:href="#HelveticaWorld-Regular-32"/><use x="55.615" xlink:href="#HelveticaWorld-Regular-30"/><use x="111.23" xlink:href="#HelveticaWorld-Regular-31"/><use x="166.846" xlink:href="#HelveticaWorld-Regular-35"/></g></g><g id="xtick_6"><use style="fill:#969696;stroke:#969696;stroke-width:.4" x="209.775" xlink:href="#m5db36bce0f" y="313.628" id="line2d_7"/><g style="fill:#969696" transform="matrix(.14 0 0 -.14 194.204 330.678)" id="text_6"><defs><path d="M903 1381q0-440 262-719 263-278 685-278 403 0 642 284 239 285 239 748 0 403-236 675t-670 272q-422 0-672-266t-250-716zm1766 1922q-63 344-255 517-192 174-520 174-519 0-791-507-272-506-278-1159l13-12q359 553 1068 553 566 0 988-375t422-1053q0-672-400-1118-400-445-1078-445-782 0-1188 556-406 557-406 1660 0 1062 415 1734 416 672 1247 672 538 0 910-321 372-320 403-876h-550z" id="HelveticaWorld-Regular-36" transform="scale(.01563)"/></defs><use xlink:href="#HelveticaWorld-Regular-32"/><use x="55.615" xlink:href="#HelveticaWorld-Regular-30"/><use x="111.23" xlink:href="#HelveticaWorld-Regular-31"/><use x="166.846" xlink:href="#HelveticaWorld-Regular-36"/></g></g><g id="xtick_7"><use style="fill:#969696;stroke:#969696;stroke-width:.4" x="243.328" xlink:href="#m5db36bce0f" y="313.628" id="line2d_8"/><g style="fill:#969696" transform="matrix(.14 0 0 -.14 227.757 330.678)" id="text_7"><defs><path d="M238 4403h3109v-494q-641-653-1172-1766Q1644 1031 1497 0H878q94 850 622 1954 528 1105 1213 1899H238v550z" id="HelveticaWorld-Regular-37" transform="scale(.01563)"/></defs><use xlink:href="#HelveticaWorld-Regular-32"/><use x="55.615" xlink:href="#HelveticaWorld-Regular-30"/><use x="111.23" xlink:href="#HelveticaWorld-Regular-31"/><use x="166.846" xlink:href="#HelveticaWorld-Regular-37"/></g></g><g id="xtick_8"><use style="fill:#969696;stroke:#969696;stroke-width:.4" x="276.789" xlink:href="#m5db36bce0f" y="313.628" id="line2d_9"/><g style="fill:#969696" transform="matrix(.14 0 0 -.14 261.218 330.678)" id="text_8"><defs><path d="M1766 2597q347 0 573 198 227 199 227 527 0 294-218 483-217 189-620 189-359 0-555-199-195-198-195-504 0-328 244-511t544-183zm6-484q-434 0-681-241t-247-591q0-403 250-650t712-247q410 0 655 247t245 657q0 350-245 587-245 238-689 238zm1378 1228q0-678-578-947 397-178 567-471 170-292 170-623 0-641-413-1032-412-390-1112-390-612 0-1076 336T244 1306q0 763 762 1082-609 243-609 875 0 531 361 884t1001 353q641 0 1016-333t375-826z" id="HelveticaWorld-Regular-38" transform="scale(.01563)"/></defs><use xlink:href="#HelveticaWorld-Regular-32"/><use x="55.615" xlink:href="#HelveticaWorld-Regular-30"/><use x="111.23" xlink:href="#HelveticaWorld-Regular-31"/><use x="166.846" xlink:href="#HelveticaWorld-Regular-38"/></g></g><g id="xtick_9"><use style="fill:#969696;stroke:#969696;stroke-width:.4" x="310.25" xlink:href="#m5db36bce0f" y="313.628" id="line2d_10"/><g style="fill:#969696" transform="matrix(.14 0 0 -.14 294.68 330.678)" id="text_9"><defs><path d="M1766 2009q384 0 624 259 241 260 241 766 0 416-228 688t-681 272q-391 0-632-275-240-275-240-738 0-472 225-722t691-250zm-82-506q-640 0-1028 397-387 397-387 1056 0 666 390 1105 391 439 1057 439 775 0 1175-522t400-1565q0-1082-410-1809-409-726-1225-726-637 0-987 358t-350 845h565q25-337 220-536 196-198 540-198 487 0 737 434 250 435 344 1247l-12 13q-363-538-1029-538z" id="HelveticaWorld-Regular-39" transform="scale(.01563)"/></defs><use xlink:href="#HelveticaWorld-Regular-32"/><use x="55.615" xlink:href="#HelveticaWorld-Regular-30"/><use x="111.23" xlink:href="#HelveticaWorld-Regular-31"/><use x="166.846" xlink:href="#HelveticaWorld-Regular-39"/></g></g><g id="xtick_10"><use style="fill:#969696;stroke:#969696;stroke-width:.4" x="343.712" xlink:href="#m5db36bce0f" y="313.628" id="line2d_11"/><g style="fill:#969696" transform="matrix(.14 0 0 -.14 328.141 330.678)" id="text_10"><use xlink:href="#HelveticaWorld-Regular-32"/><use x="55.615" xlink:href="#HelveticaWorld-Regular-30"/><use x="111.23" xlink:href="#HelveticaWorld-Regular-32"/><use x="166.846" xlink:href="#HelveticaWorld-Regular-30"/></g></g><g id="xtick_11"><use style="fill:#969696;stroke:#969696;stroke-width:.4" x="377.265" xlink:href="#m5db36bce0f" y="313.628" id="line2d_12"/><g style="fill:#969696" transform="matrix(.14 0 0 -.14 361.694 330.678)" id="text_11"><use xlink:href="#HelveticaWorld-Regular-32"/><use x="55.615" xlink:href="#HelveticaWorld-Regular-30"/><use x="111.23" xlink:href="#HelveticaWorld-Regular-32"/><use x="166.846" xlink:href="#HelveticaWorld-Regular-31"/></g></g></g><g id="matplotlib.axis_2"><g id="ytick_1"><path clip-path="url(#p7ff8d351ca)" d="M29.77 313.628h357.12" style="fill:none;stroke:#969696;stroke-linecap:square;stroke-width:.3" id="line2d_13"/><g id="line2d_14"><defs><path d="M0 0h-3.5" id="mb79adf9efd" style="stroke:#969696;stroke-width:.3"/></defs><use style="fill:#969696;stroke:#969696;stroke-width:.3" x="29.771" xlink:href="#mb79adf9efd" y="313.628"/></g><use xlink:href="#HelveticaWorld-Regular-30" transform="matrix(.14 0 0 -.14 14.985 318.653)" id="text_12"/></g><g id="ytick_2"><path clip-path="url(#p7ff8d351ca)" d="M29.77 267.375h357.12" style="fill:none;stroke:#969696;stroke-linecap:square;stroke-width:.3" id="line2d_15"/><use style="fill:#969696;stroke:#969696;stroke-width:.3" x="29.771" xlink:href="#mb79adf9efd" y="267.375" id="line2d_16"/><use xlink:href="#HelveticaWorld-Regular-35" transform="matrix(.14 0 0 -.14 14.985 272.4)" id="text_13"/></g><g id="ytick_3"><path clip-path="url(#p7ff8d351ca)" d="M29.77 221.121h357.12" style="fill:none;stroke:#969696;stroke-linecap:square;stroke-width:.3" id="line2d_17"/><use style="fill:#969696;stroke:#969696;stroke-width:.3" x="29.771" xlink:href="#mb79adf9efd" y="221.121" id="line2d_18"/><g style="fill:#969696" transform="matrix(.14 0 0 -.14 7.2 226.146)" id="text_14"><use xlink:href="#HelveticaWorld-Regular-31"/><use x="55.615" xlink:href="#HelveticaWorld-Regular-30"/></g></g><g id="ytick_4"><path clip-path="url(#p7ff8d351ca)" d="M29.77 174.868h357.12" style="fill:none;stroke:#969696;stroke-linecap:square;stroke-width:.3" id="line2d_19"/><use style="fill:#969696;stroke:#969696;stroke-width:.3" x="29.771" xlink:href="#mb79adf9efd" y="174.868" id="line2d_20"/><g style="fill:#969696" transform="matrix(.14 0 0 -.14 7.2 179.892)" id="text_15"><use xlink:href="#HelveticaWorld-Regular-31"/><use x="55.615" xlink:href="#HelveticaWorld-Regular-35"/></g></g><g id="ytick_5"><path clip-path="url(#p7ff8d351ca)" d="M29.77 128.614h357.12" style="fill:none;stroke:#969696;stroke-linecap:square;stroke-width:.3" id="line2d_21"/><use style="fill:#969696;stroke:#969696;stroke-width:.3" x="29.771" xlink:href="#mb79adf9efd" y="128.614" id="line2d_22"/><g style="fill:#969696" transform="matrix(.14 0 0 -.14 7.2 133.639)" id="text_16"><use xlink:href="#HelveticaWorld-Regular-32"/><use x="55.615" xlink:href="#HelveticaWorld-Regular-30"/></g></g><g id="ytick_6"><path clip-path="url(#p7ff8d351ca)" d="M29.77 82.36h357.12" style="fill:none;stroke:#969696;stroke-linecap:square;stroke-width:.3" id="line2d_23"/><use style="fill:#969696;stroke:#969696;stroke-width:.3" x="29.771" xlink:href="#mb79adf9efd" y="82.361" id="line2d_24"/><g style="fill:#969696" transform="matrix(.14 0 0 -.14 7.2 87.385)" id="text_17"><use xlink:href="#HelveticaWorld-Regular-32"/><use x="55.615" xlink:href="#HelveticaWorld-Regular-35"/></g></g></g><path clip-path="url(#p7ff8d351ca)" d="m38.159 313.628 2.796-.298 2.842.298h52.988l2.796-.925 2.798.627 2.794-.935 2.796.338 2.842-.597 2.705 1.162 2.702.33 2.798-.308 2.796-.289 2.796-.02 2.797-.576 2.841-.299 2.797-.975 2.798.677 2.794-3.143 2.796-2.825 2.842 3.879 2.704-2.398 2.703-.586 2.798.696 2.796 3.482 2.796-6.257 2.796 1.78 2.842-1.193 2.796-2.129 2.798.338 2.794 2.437 2.796-.05 2.842-1.491 2.705-5.617 2.702 1.737 2.798-5.68 2.796 4.188 2.796-6.654 2.796.388 2.842 6.266 2.796-.179 2.798-.418 2.794 1.035 2.797-3.124 2.841-.895 2.75-.298 2.75 6.863 2.797-4.705 2.796-1.561 2.796.945 2.796-1.542 2.842 2.686 2.796 1.014 2.798-3.999 2.795 5.54 2.796-6.136 2.842.895 2.704-.991 2.702-3.187 2.798 3.561 2.797 2.407 2.796-.865 2.796 5.341 2.842-1.193 2.796-.448 2.798-1.044 2.794-4.506 2.796 6.893 2.842-.895 2.704.213 2.703-1.705 2.798 2.278 2.796-1.98 2.796-1.72 2.796 3.809 2.842-4.476 2.796.05 2.798.845 2.794 3.163 2.796 2.208 2.842-3.879 2.705-5.2 2.702 8.781 2.798 1.174 2.796.02 2.796-.637 2.796-1.75 2.842-3.88 2.796 5.938 2.798-17.576 2.795 1.542 2.796-.945 2.842 14.622 2.75 1.688 2.748-4.075 2.798-6.665 2.796-1.99 2.796-2.943 2.797 16.97 2.841-6.566 2.797 2.238 2.798-2.536 2.794 8.395 2.796 3.243 2.842-2.09 2.704-4.038 2.703 4.934 2.798 1.96" style="fill:none;stroke:#9467bd;stroke-linecap:square;stroke-width:1.5" id="line2d_25"/><path clip-path="url(#p7ff8d351ca)" d="m202.763 313.628 2.794-.308 2.797.01h2.841l2.75.298 2.75-.298 2.797-.935 2.796.636 2.796-.328 2.796.328 2.842-1.193 2.796-1.91 2.798-3.163 2.795 3.163 2.796 1.015 2.842-.299 2.704-.32 2.702 1.514 2.798-2.527 2.797 1.035 2.796-.418 2.796 1.015 2.842-.896 2.796 2.656 2.798-2.357 2.794 2.049 2.796-1.154 2.842.597 2.704-2.174 2.703 1.875 2.798.547 2.796-1.442 2.796-.1 2.796.697 2.842-2.089 2.796-.766 2.798 2.855 2.794.229 2.796.666 2.842-2.089 2.705 1.269 2.702-.672 2.798.826 2.796-1.124 2.796-.726 2.796-2.557 2.842 1.492 2.796.14 2.798.457 2.795-2 2.796 1.403 2.842-2.387 2.75 2.675 2.748-4.465 2.798.925 2.796-1.82 2.796-.03 2.797 3.61 2.841-.298 2.797-2.08 2.798-.606 2.794 4.307 2.796-2.815 2.842 4.178 2.704-1.407 2.703-1.279 2.798.706" style="fill:none;stroke:#d62728;stroke-linecap:square;stroke-width:1.5" id="line2d_26"/><g style="fill:#1f77b4" transform="matrix(.14 0 0 -.14 390.462 105.98)" id="text_18"><defs><path d="M3150 0h-566v2059q0 475-166 677-165 202-549 202-378 0-632-288-253-287-253-825V0H422v3347h531v-472h13q397 569 1012 569 569 0 870-302 302-301 302-864V0z" id="HelveticaWorld-Regular-6e" transform="scale(.01563)"/><path d="M959 1516q0-538 262-832 263-293 654-293 428 0 665 348 238 349 238 945 0 654-228 954t-687 300q-447 0-676-352-228-352-228-1070zM422 3347h531v-472h13q359 569 1000 569 647 0 1020-471 373-470 373-1201 0-819-381-1344T1888-97q-582 0-891 450h-13v-1678H422v4672z" id="HelveticaWorld-Regular-70" transform="scale(.01563)"/><path d="M422 3347h531v-472h13q378 569 1012 569 628 0 891-544 240 294 465 419t557 125q434 0 735-285 302-284 302-843V0h-562v2163q0 390-147 582-147 193-475 193-331 0-560-269-228-269-228-628V0h-562v2316q0 290-135 456-134 166-390 166-403 0-644-300t-241-813V0H422v3347z" id="HelveticaWorld-Regular-6d" transform="scale(.01563)"/></defs><use xlink:href="#HelveticaWorld-Regular-6e"/><use x="55.176" xlink:href="#HelveticaWorld-Regular-70"/><use x="111.67" xlink:href="#HelveticaWorld-Regular-6d"/></g><g style="fill:#ff7f0e" transform="matrix(.14 0 0 -.14 390.462 144.832)" id="text_19"><defs><path d="M1638 0h-575L97 3347h606l641-2631h12l647 2631h635l653-2631h12l678 2631h557L3572 0h-591l-678 2591h-12L1638 0z" id="HelveticaWorld-Regular-77" transform="scale(.01563)"/><path d="M2719 1941q-44 543-288 770-243 227-647 227-409 0-661-288-251-287-267-709h1863zm537-891q-93-519-509-859-366-288-963-294-703 6-1116 461-412 455-412 1223 0 882 425 1372 425 491 1182 491 678 0 1059-507 381-506 381-1446H856q0-525 244-813 244-287 731-287 344 0 591 207 247 208 272 452h562z" id="HelveticaWorld-Regular-65" transform="scale(.01563)"/><path d="M2778 1684q0 672-238 963-237 291-677 291-447-7-676-349-228-342-228-989 0-659 275-934t641-275q416 0 659 342 244 342 244 951zM422 0v4594h562V2925h13q359 519 969 519 625 0 1009-464t384-1208q0-838-388-1354Q2584-97 1888-97q-613 0-922 513h-13V0H422z" id="HelveticaWorld-Regular-62" transform="scale(.01563)"/><path d="M2456 1709q-62-65-245-106-183-40-683-106-369-44-542-182-173-137-173-362 0-275 146-428 147-153 469-153 403 0 715 229 313 230 313 558v550zM397 2328q19 566 367 841 349 275 1014 275 531 0 890-241 360-240 360-694V581q0-197 178-197 72 0 185 25V0q-153-63-319-63-288 0-429 123-140 124-146 387Q2016-97 1288-97q-475 0-763 269-287 269-287 700 0 441 250 712 250 272 728 329l993 121q269 41 269 397 0 263-195 403-195 141-592 141-353 0-543-156-189-156-226-491H397z" id="HelveticaWorld-Regular-61" transform="scale(.01563)"/><path d="M2534 2222q-121 716-793 716-416 0-669-333t-253-927q0-647 234-967 235-320 681-320 300 0 519 220t281 573h544q-84-621-439-951T1722-97q-659 0-1081 451-422 452-422 1227 0 850 422 1356 422 507 1184 507 556 0 886-333t367-889h-544z" id="HelveticaWorld-Regular-63" transform="scale(.01563)"/><path d="M3200 0h-722L1434 1691l-468-422V0H422v4594h544V1931l1440 1416h716L1844 2100 3200 0z" id="HelveticaWorld-Regular-6b" transform="scale(.01563)"/></defs><use xlink:href="#HelveticaWorld-Regular-77"/><use x="70.912" xlink:href="#HelveticaWorld-Regular-65"/><use x="126.332" xlink:href="#HelveticaWorld-Regular-62"/><use x="182.826" xlink:href="#HelveticaWorld-Regular-70"/><use x="239.32" xlink:href="#HelveticaWorld-Regular-61"/><use x="294.252" xlink:href="#HelveticaWorld-Regular-63"/><use x="345.521" xlink:href="#HelveticaWorld-Regular-6b"/></g><g style="fill:#2ca02c" transform="matrix(.14 0 0 -.14 390.462 289.79)" id="text_20"><defs><path d="M831 1684q0-615 244-954t659-339q404 0 660 293 256 294 256 832 0 706-224 1064-223 358-679 358-459 0-688-305-228-305-228-949zM3188 191q0-807-388-1203-387-397-1169-397-562 0-895 259T353-409h563q43-244 226-388t530-144q472 0 712 254 241 253 241 821v238h-12Q2297-97 1722-97q-716 0-1094 528T250 1772q0 744 381 1208 382 464 1013 464 634 0 1000-569h12v472h532V191z" id="HelveticaWorld-Regular-67" transform="scale(.01563)"/><path d="M391 3347h562V1125q0-369 167-552 168-182 480-182 434 0 678 307 244 308 244 805v1844h562V0h-531v488l-12 12Q2222-97 1478-97q-481 0-784 262-303 263-303 776v2406z" id="HelveticaWorld-Regular-75" transform="scale(.01563)"/><path d="M984 0H422v4594h562V0z" id="HelveticaWorld-Regular-6c" transform="scale(.01563)"/></defs><use xlink:href="#HelveticaWorld-Regular-67"/><use x="55.908" xlink:href="#HelveticaWorld-Regular-75"/><use x="110.693" xlink:href="#HelveticaWorld-Regular-6c"/><use x="132.715" xlink:href="#HelveticaWorld-Regular-70"/></g><g style="fill:#d62728" transform="matrix(.14 0 0 -.14 390.462 303.862)" id="text_21"><defs><path d="M984 0H422v3347h531v-556h13q365 653 940 653 91 0 147-19v-584h-209q-378 0-619-257-241-256-241-637V0z" id="HelveticaWorld-Regular-72" transform="scale(.01563)"/><path d="M813 1678q0-559 253-920t718-361q482 0 732 378t250 903q0 531-250 901-250 371-732 371-446 0-709-349-262-348-262-923zm-575 0q0 747 415 1256 416 510 1131 510 732 0 1144-516 413-515 413-1250 0-737-410-1256Q2522-97 1784-97q-709 0-1128 503-418 503-418 1272z" id="HelveticaWorld-Regular-6f" transform="scale(.01563)"/><path d="M984 3956H422v638h562v-638zm0-4450q0-478-227-664-226-186-629-186-115 0-237 19v487H38q237 0 310 71 74 70 74 339v3775h562V-494z" id="HelveticaWorld-Regular-6a" transform="scale(.01563)"/><path d="M2309 2394q-12 300-214 431-201 131-579 131-275 0-471-122-195-121-195-350 0-181 115-267 116-86 501-183l556-140q506-128 723-327 218-198 218-554 0-494-361-802T1638-97Q934-97 573 195q-360 293-367 880h544q13-347 230-516 217-168 651-168 353 0 561 140 208 141 208 391 0 178-135 284-134 107-531 197l-653 160q-397 100-586 298t-189 514q0 494 353 781 354 288 922 288 607 0 930-296 323-295 342-754h-544z" id="HelveticaWorld-Regular-73" transform="scale(.01563)"/></defs><use xlink:href="#HelveticaWorld-Regular-72"/><use x="31.568" xlink:href="#HelveticaWorld-Regular-6f"/><use x="87.477" xlink:href="#HelveticaWorld-Regular-6c"/><use x="109.498" xlink:href="#HelveticaWorld-Regular-6c"/><use x="131.52" xlink:href="#HelveticaWorld-Regular-75"/><use x="186.305" xlink:href="#HelveticaWorld-Regular-70"/><use x="242.799" xlink:href="#HelveticaWorld-Regular-6a"/><use x="264.82" xlink:href="#HelveticaWorld-Regular-73"/></g><g style="fill:#9467bd" transform="matrix(.14 0 0 -.14 390.462 331.786)" id="text_22"><defs><path d="M2497 3347h612L1913 63q-32-88-63-166-272-725-469-995-197-271-637-271-231 0-378 50v513q159-57 350-57 206 0 301 130 96 130 283 636L56 3347h635l897-2725h12l897 2725z" id="HelveticaWorld-Regular-79" transform="scale(.01563)"/></defs><use xlink:href="#HelveticaWorld-Regular-79"/><use x="46.734" xlink:href="#HelveticaWorld-Regular-61"/><use x="101.666" xlink:href="#HelveticaWorld-Regular-72"/><use x="134.234" xlink:href="#HelveticaWorld-Regular-6e"/></g><g style="fill:#8c564b" transform="matrix(.14 0 0 -.14 390.462 317.699)" id="text_23"><defs><path d="M1100 2881V703q0-128 70-195 71-67 252-67h216V0q-307-44-422-44-353 0-516 169-162 169-162 547v2209H84v466h454v934h562v-934h538v-466h-538z" id="HelveticaWorld-Regular-74" transform="scale(.01563)"/></defs><use xlink:href="#HelveticaWorld-Regular-67"/><use x="55.908" xlink:href="#HelveticaWorld-Regular-72"/><use x="88.477" xlink:href="#HelveticaWorld-Regular-75"/><use x="143.262" xlink:href="#HelveticaWorld-Regular-6e"/><use x="198.438" xlink:href="#HelveticaWorld-Regular-74"/></g><g style="fill:#969696" transform="matrix(.09716 0 0 -.09716 29.77 347.399)" id="text_24"><defs><path d="M3225 3250q-19 438-327 686-307 248-810 248-507 0-779-208-271-207-271-598 0-209 118-359 119-150 425-222l1313-300q531-116 787-440 257-323 257-788 0-681-500-1036T2138-122q-610 0-962 156-351 157-623 497-272 341-272 953h582q0-512 340-794 341-281 928-281 569 0 886 202t317 573q0 338-189 505t-739 295l-990 232q-494 112-738 392t-244 689q0 619 417 1019 418 400 1165 400 843 0 1301-352 458-351 492-1114h-584z" id="HelveticaWorld-Regular-53" transform="scale(.01563)"/><path d="M4091 2297q0 806-427 1337-426 532-1173 532-738 0-1169-532-431-531-431-1337 0-831 437-1350 438-519 1163-519 709 0 1154 506 446 507 446 1363zm637 0q0-1028-594-1724-593-695-1643-695-1057 0-1649 695-592 696-592 1724 0 1031 592 1725t1649 694q1081 0 1659-707 578-706 578-1712z" id="HelveticaWorld-Regular-4f" transform="scale(.01563)"/><path d="M2522 3347h616L1863 0h-604L38 3347h653l872-2725h12l947 2725z" id="HelveticaWorld-Regular-76" transform="scale(.01563)"/><path d="M1100 2881V0H538v2881H78v466h460v575q0 378 229 557 230 180 642 180 141 0 254-12v-506q-100 12-229 12-187 0-261-92-73-92-73-298v-416h563v-466h-563z" id="HelveticaWorld-Regular-66" transform="scale(.01563)"/><path d="m2816 1888-678 2021h-13l-737-2021h1428zm-1619-550L716 0H78l1728 4594h703L4172 0h-678l-453 1338H1197z" id="HelveticaWorld-Regular-41" transform="scale(.01563)"/><path d="M1141 2472h1234q466 0 700 204 234 205 234 621 0 372-225 569t-684 197H1141V2472zm0-2472H519v4594h2065q616 0 991-358t375-933q0-597-363-980-362-382-1003-382H1141V0z" id="HelveticaWorld-Regular-50" transform="scale(.01563)"/><path d="M1141 0H519v4594h622V0z" id="HelveticaWorld-Regular-49" transform="scale(.01563)"/><path d="M422 3956v638h562v-638H422zM984 0H422v3347h562V0z" id="HelveticaWorld-Regular-69" transform="scale(.01563)"/><path d="M603 4716h466V-122H603v4838z" id="HelveticaWorld-Regular-7c" transform="scale(.01563)"/><path d="M3559 4594h600V0h-690L1125 3713h-12V0H519v4594h728L3547 884h12v3710z" id="HelveticaWorld-Regular-4e" transform="scale(.01563)"/><path d="M3150 0h-566v2188q0 403-156 576-156 174-509 174-435 0-685-282-250-281-250-831V0H422v4594h562V2900h13q384 544 981 544 550 0 861-288 311-287 311-878V0z" id="HelveticaWorld-Regular-68" transform="scale(.01563)"/><path d="M813 1678q0-559 253-920t718-361q482 0 732 378t250 903q0 531-250 901-250 371-732 371-446 0-709-349-262-348-262-923zm-575 0q0 747 415 1256 416 510 1131 510 732 0 1144-516 413-515 413-1250 0-737-410-1256Q2522-97 1784-97q-709 0-1128 503-418 503-418 1272zm2351 2266h-575v650h575v-650zm-1038 0H976v650h575v-650z" id="HelveticaWorld-Regular-f6" transform="scale(.01563)"/><path d="M3713 3213q-104 468-434 710-329 243-854 243-678 0-1091-493-412-492-412-1329 0-969 390-1443 391-473 1132-473 487 0 838 323 352 324 474 940h603q-121-885-671-1349T2350-122q-941 0-1505 647T281 2322q0 1109 589 1751 589 643 1555 643 800 0 1297-413 497-412 591-1090h-600z" id="HelveticaWorld-Regular-43" transform="scale(.01563)"/><path d="M519 4594h2015q594 0 947-322t353-834q0-310-155-565-154-254-460-395 428-162 629-431 202-269 202-691 0-593-428-975Q3194 0 2491 0H519v4594zm612-4063h1325q488 0 731 226 244 227 244 612 0 390-272 582-271 193-803 193H1131V531zm0 2119h1128q494 0 724 179 230 180 230 562 0 328-218 500-217 172-729 172H1131V2650z" id="HelveticaWorld-Regular-42" transform="scale(.01563)"/><path d="M2388 0h-622v1850L31 4594h725l1319-2206 1316 2206h731L2388 1850V0z" id="HelveticaWorld-Regular-59" transform="scale(.01563)"/></defs><use xlink:href="#HelveticaWorld-Regular-53"/><use x="66.211" xlink:href="#HelveticaWorld-Regular-74"/><use x="93.896" xlink:href="#HelveticaWorld-Regular-61"/><use x="148.828" xlink:href="#HelveticaWorld-Regular-63"/><use x="200.098" xlink:href="#HelveticaWorld-Regular-6b"/><use x="250.098" xlink:href="#HelveticaWorld-Regular-4f"/><use x="327.881" xlink:href="#HelveticaWorld-Regular-76"/><use x="375.49" xlink:href="#HelveticaWorld-Regular-65"/><use x="430.91" xlink:href="#HelveticaWorld-Regular-72"/><use x="464.979" xlink:href="#HelveticaWorld-Regular-66"/><use x="492.664" xlink:href="#HelveticaWorld-Regular-6c"/><use x="514.686" xlink:href="#HelveticaWorld-Regular-6f"/><use x="569.094" xlink:href="#HelveticaWorld-Regular-77"/><use x="641.506" xlink:href="#HelveticaWorld-Regular-20"/><use x="665.92" xlink:href="#HelveticaWorld-Regular-41"/><use x="732.619" xlink:href="#HelveticaWorld-Regular-50"/><use x="797.268" xlink:href="#HelveticaWorld-Regular-49"/><use x="823.049" xlink:href="#HelveticaWorld-Regular-20"/><use x="847.463" xlink:href="#HelveticaWorld-Regular-76"/><use x="897.072" xlink:href="#HelveticaWorld-Regular-69"/><use x="919.094" xlink:href="#HelveticaWorld-Regular-61"/><use x="974.025" xlink:href="#HelveticaWorld-Regular-20"/><use x="998.439" xlink:href="#HelveticaWorld-Regular-73"/><use x="1048.439" xlink:href="#HelveticaWorld-Regular-74"/><use x="1076.125" xlink:href="#HelveticaWorld-Regular-61"/><use x="1131.057" xlink:href="#HelveticaWorld-Regular-63"/><use x="1182.326" xlink:href="#HelveticaWorld-Regular-6b"/><use x="1232.326" xlink:href="#HelveticaWorld-Regular-74"/><use x="1260.012" xlink:href="#HelveticaWorld-Regular-61"/><use x="1314.943" xlink:href="#HelveticaWorld-Regular-67"/><use x="1370.852" xlink:href="#HelveticaWorld-Regular-73"/><use x="1420.852" xlink:href="#HelveticaWorld-Regular-20"/><use x="1445.266" xlink:href="#HelveticaWorld-Regular-7c"/><use x="1471.242" xlink:href="#HelveticaWorld-Regular-20"/><use x="1495.656" xlink:href="#HelveticaWorld-Regular-4e"/><use x="1568.752" xlink:href="#HelveticaWorld-Regular-69"/><use x="1590.773" xlink:href="#HelveticaWorld-Regular-63"/><use x="1642.043" xlink:href="#HelveticaWorld-Regular-6f"/><use x="1697.951" xlink:href="#HelveticaWorld-Regular-20"/><use x="1722.365" xlink:href="#HelveticaWorld-Regular-53"/><use x="1788.576" xlink:href="#HelveticaWorld-Regular-63"/><use x="1839.846" xlink:href="#HelveticaWorld-Regular-68"/><use x="1895.021" xlink:href="#HelveticaWorld-Regular-6c"/><use x="1917.043" xlink:href="#HelveticaWorld-Regular-f6"/><use x="1972.951" xlink:href="#HelveticaWorld-Regular-6d"/><use x="2055.959" xlink:href="#HelveticaWorld-Regular-65"/><use x="2111.379" xlink:href="#HelveticaWorld-Regular-72"/><use x="2143.947" xlink:href="#HelveticaWorld-Regular-20"/><use x="2168.361" xlink:href="#HelveticaWorld-Regular-7c"/><use x="2194.338" xlink:href="#HelveticaWorld-Regular-20"/><use x="2218.752" xlink:href="#HelveticaWorld-Regular-43"/><use x="2291.066" xlink:href="#HelveticaWorld-Regular-43"/><use x="2363.381" xlink:href="#HelveticaWorld-Regular-20"/><use x="2387.795" xlink:href="#HelveticaWorld-Regular-42"/><use x="2450.607" xlink:href="#HelveticaWorld-Regular-59"/></g><g style="fill:#969696" transform="matrix(.14 0 0 -.14 72.264 17.516)" id="text_25"><defs><path d="M1141 531h1203q625 0 978 480t353 1311q0 822-356 1278t-1028 463H1141V531zM519 4594h1862q903 0 1414-621 511-620 511-1610 0-1063-511-1713T2356 0H519v4594z" id="HelveticaWorld-Regular-44" transform="scale(.01563)"/><path d="M2656 1516q0 712-224 1067-223 355-679 355-440 0-678-288-237-287-237-966 0-603 240-948 241-345 663-345 372 0 643 281 272 281 272 844zm538-2841h-563V353h-12Q2297-97 1728-97q-703 0-1088 522-384 522-384 1347 0 731 378 1201 379 471 1016 471 634 0 1000-569h13v472h531v-4672z" id="HelveticaWorld-Regular-71" transform="scale(.01563)"/></defs><use xlink:href="#HelveticaWorld-Regular-44"/><use x="72.021" xlink:href="#HelveticaWorld-Regular-61"/><use x="126.953" xlink:href="#HelveticaWorld-Regular-69"/><use x="148.975" xlink:href="#HelveticaWorld-Regular-6c"/><use x="170.996" xlink:href="#HelveticaWorld-Regular-79"/><use x="220.605" xlink:href="#HelveticaWorld-Regular-20"/><use x="245.02" xlink:href="#HelveticaWorld-Regular-6e"/><use x="300.195" xlink:href="#HelveticaWorld-Regular-75"/><use x="354.98" xlink:href="#HelveticaWorld-Regular-6d"/><use x="437.988" xlink:href="#HelveticaWorld-Regular-62"/><use x="494.482" xlink:href="#HelveticaWorld-Regular-65"/><use x="549.902" xlink:href="#HelveticaWorld-Regular-72"/><use x="582.471" xlink:href="#HelveticaWorld-Regular-20"/><use x="606.885" xlink:href="#HelveticaWorld-Regular-6f"/><use x="662.793" xlink:href="#HelveticaWorld-Regular-66"/><use x="690.479" xlink:href="#HelveticaWorld-Regular-20"/><use x="714.893" xlink:href="#HelveticaWorld-Regular-71"/><use x="771.387" xlink:href="#HelveticaWorld-Regular-75"/><use x="826.172" xlink:href="#HelveticaWorld-Regular-65"/><use x="881.592" xlink:href="#HelveticaWorld-Regular-73"/><use x="931.592" xlink:href="#HelveticaWorld-Regular-74"/><use x="959.277" xlink:href="#HelveticaWorld-Regular-69"/><use x="981.299" xlink:href="#HelveticaWorld-Regular-6f"/><use x="1037.207" xlink:href="#HelveticaWorld-Regular-6e"/><use x="1092.383" xlink:href="#HelveticaWorld-Regular-73"/><use x="1142.383" xlink:href="#HelveticaWorld-Regular-20"/><use x="1166.797" xlink:href="#HelveticaWorld-Regular-6f"/><use x="1222.705" xlink:href="#HelveticaWorld-Regular-6e"/><use x="1277.881" xlink:href="#HelveticaWorld-Regular-20"/><use x="1302.295" xlink:href="#HelveticaWorld-Regular-53"/><use x="1368.506" xlink:href="#HelveticaWorld-Regular-74"/><use x="1396.191" xlink:href="#HelveticaWorld-Regular-61"/><use x="1451.123" xlink:href="#HelveticaWorld-Regular-63"/><use x="1502.393" xlink:href="#HelveticaWorld-Regular-6b"/><use x="1552.393" xlink:href="#HelveticaWorld-Regular-4f"/><use x="1630.176" xlink:href="#HelveticaWorld-Regular-76"/><use x="1677.785" xlink:href="#HelveticaWorld-Regular-65"/><use x="1733.205" xlink:href="#HelveticaWorld-Regular-72"/><use x="1767.273" xlink:href="#HelveticaWorld-Regular-66"/><use x="1794.959" xlink:href="#HelveticaWorld-Regular-6c"/><use x="1816.98" xlink:href="#HelveticaWorld-Regular-6f"/><use x="1871.389" xlink:href="#HelveticaWorld-Regular-77"/></g><path clip-path="url(#p7ff8d351ca)" d="m141.43 313.628 2.843-6.266 2.704-18.512 2.703 5.978 2.798-2.168 2.796-5.889 2.796-.278 2.796-9.57 2.842 8.058 2.796-6.814 2.798-1.84 2.794-4.944 2.796.468 2.842-13.429 2.705-7.236 2.702 3.655 2.798-16.143 2.796 1.521 2.796 3.412 2.796-10.275 2.842 4.476 2.796-7.768 2.798.308 2.794-2.467 2.797-5.59 2.841-5.67 2.75-3.499 2.75-1.574 2.797-2.785 2.796 11.737 2.796 6.456 2.796 5.182 2.842-8.355 2.796 9.648 2.798 3.482 2.795 2.686 2.796 12.831 2.842 2.984 2.704-11.19 2.702 8.206 2.798 6.903 2.797 1.154 2.796-2.695 2.796 8.365 2.842-.597 2.796 5.183 2.798-1.303 2.794-.24 2.796 11.878 2.842-2.388 2.704-1.097 2.703-1.588 2.798.288 2.796 9.26 2.796-1.551 2.796-2.626 2.842-.597 2.796-2.02 2.798-2.754 2.794-.329 2.796 6.894 2.842-10.146 2.705 6.16 2.702 1.897 2.798-1.721 2.796 6.495 2.796-2.795 2.796.706 2.842 4.178 2.796 2.208 2.798-6.087 2.795 1.77 2.796 8.077 2.842-5.968 2.75-4.363 2.748 6.452 2.798-2.656 2.796 5.342 2.796-1.333 2.797 3.72 2.841-4.178 2.797 4.775 2.798-3.581 2.794 2.347 2.796 5.113 2.842-2.089 2.704-1.46 2.703 2.654 2.798 4.108" style="fill:none;stroke:#2ca02c;stroke-linecap:square;stroke-width:1.5" id="line2d_27"/><path clip-path="url(#p7ff8d351ca)" d="m146.977 313.628 2.703-.298 2.798-.318 2.796-.279 2.796-.03 2.796-.865 2.842-1.79 2.796 2.038 2.798-1.74 2.794-.11 2.796-3.173 2.842 2.984 2.705-3.687 2.702-6.757 2.798-3.551 2.796-3.312 2.796-6.247 2.796-4.198 2.842.597 2.796-6.883 2.798-8.336 2.794-12.324 2.797-11.549 2.841-23.276 2.75 3.15 2.75-19.562 2.797-12.285 2.796 4.825 2.796-9.142 2.796-8.465 2.842-31.93 2.796 4.01 2.798-4.905 2.795-33.64 2.796 29.164 2.842-21.784 2.704-54.119 2.702 17.713 2.798 8.366 2.797 10.732 2.796-6.724 2.796-2.228 2.842 30.736 2.796 2.02 2.798 1.86 2.794 8.007 2.796 3.332 2.842-2.089 2.704-16.55 2.703-39.252 2.798 31.432 2.796-5.172 2.796 22.749 2.796-11.111 2.842-35.213 2.796 10.246 2.798 15.716 2.794 10.803 2.796 11.578 2.842-9.25 2.705 4.081 2.702-18.406 2.798 23.097 2.796-2.208 2.796 2.517 2.796-10.275 2.842 15.517 2.796 3.7 2.798-12.652 2.795 2.785 2.796 7.062 2.842-6.863 2.75-21.465 2.748 18.48 2.798-44.393 2.796-.666 2.796 36.744 2.797.557 2.841 19.098 2.797 6.555 2.798-24.161 2.794 1.343 2.796 24.917 2.842-31.035 2.704 2.814 2.703 10.615 2.798 9.957" style="fill:none;stroke:#ff7f0e;stroke-linecap:square;stroke-width:1.5" id="line2d_28"/><path clip-path="url(#p7ff8d351ca)" d="m29.77 313.628 2.797-1.233 2.798 1.233h8.432l2.704-1.652 2.703 1.055 2.798-.945 2.796-2.337 2.796.796 2.796.1 2.842-.3 2.796-3.5 2.798 3.8 2.794-4.726 2.796 1.144 2.842-3.58 2.75-.381 2.749-.515 2.798 4.566 2.796-1.88 2.796-.279 2.796-2.705 2.842.895 2.796 3.044 2.798-2.746 2.794-3.421 2.796 3.72 2.842-5.968 2.705-.043 2.702-2.942 2.798-.01 2.796-.288 2.796.288 2.797-5.063 2.841-2.088 2.797 4.376 2.798-5.57 2.794-10.464 2.796 8.673 2.842-.596 2.704-10.104 2.703-5.712 2.798 2.805 2.796 1.074 2.796 4.476 2.796-6.863 2.842-2.984 2.796-4.645 2.798 9.121 2.794 1.054 2.796-4.336 2.842-4.178 2.705-18.555 2.702 11.393 2.798-6.834 2.796.269 2.796-18.77 2.796 8.326 2.842 9.25 2.796-17.576 2.798-7.49 2.794-12.862 2.797 2.716 2.841-6.565 2.75-13.408 2.75 10.125 2.797-11.369 2.796 6.296 2.796-8.146 2.796 4.267 2.842-25.663 2.796 21.704 2.798-7.082 2.795-11.11 2.796 22.151 2.842-8.654 2.704-11.34 2.702-11.936 2.798 26.121 2.797-10.007 2.796-30.08 2.796 6.208 2.842 5.968 2.796.467 2.798 3.71 2.794-4.635 2.796 41.042 2.842-43.867 2.704 2.803 2.703-18.32 2.798 14.025 2.796-7.46 2.796-.865 2.796-5.7 2.842-6.565 2.796-11.479 2.798 1.333 2.794 12.235 2.796 19.695L311.671 131l2.705-12.629 2.702 6.363 2.798 10.355 2.796 6.654 2.796 1.98 2.796-9.44 2.842 5.67 2.796-10.106 2.798.557 2.795-19.676 2.796 18.78 2.842-27.453 2.75 3.272 2.748-21.475 2.798-36.337 2.796 16.94 2.796 12.046 2.797-2.198 2.841 28.05 2.797 10.534 2.798 7.669 2.794-.269 2.796 13.697 2.842-45.955 2.704-20.206 2.703-10.828 2.798 45.408h0" style="fill:none;stroke:#1f77b4;stroke-linecap:square;stroke-width:1.5" id="line2d_29"/></g></g><defs><clipPath id="p7ff8d351ca"><path d="M29.771 47.516h357.12v266.112H29.771z"/></clipPath></defs></svg>