<svg height="459.523" viewBox="0 0 454.338 344.642" width="605.784" xmlns="http://www.w3.org/2000/svg" xmlns:xlink="http://www.w3.org/1999/xlink"><defs><style>*{stroke-linecap:butt;stroke-linejoin:round}</style></defs><g id="figure_1"><path d="M0 344.642h454.338V0H0z" fill="none" id="patch_1"/><g id="axes_1"><path d="M29.77 313.628h357.12V47.516H29.77z" fill="none" id="patch_2"/><path clip-path="url(#p52d658166c)" d="M46.003 298.113l1.698 1.655 2.2-.667 2.2 1.255 2.238.588 2.129-2.017 2.127.84 2.203 1.157L63 299.768l2.201-4.314 2.202 4.314 2.237-.589 2.201-.078 2.203-2.275 2.2-.764 2.2 2.53 2.238-2.354 2.129 2.038 2.127.903 2.203-1.902 2.201-1.039 2.201 1.647 2.201-4 2.238 4.706 2.2-.098 2.204 1.275 2.2-6.745 2.2 3.215 2.238 1.177 2.129-.442 2.127-1.323 2.203 1.627 2.201 1.314 2.201-6.176 2.201 6.764 2.238-4.117 2.2 1 2.203.764 2.2-1.98 2.201-.96 2.238-3.53 2.165 6.775 4.366-2.893 2.201-.353 2.201 1.569 2.201-.98 2.238-4.706 2.2 5.078 2.203-3.902 2.2 4.51 2.201-.392 2.238-3.53 2.129-1.071 2.127 2.836 2.203-4.53 4.402 5.471 2.201-3.882 2.238-2.353 2.2 5.02 2.203.274 2.2.941 2.201-.353 2.237-1.176 2.13 1.008 2.127-3.361 2.203 6.314 2.2-8.667 2.202 5.02 2.201-1.49 2.237 4.705 2.202-2.608 2.202.843 2.2 2.804 2.201-2.804 2.237-2.352 2.13-1.009 2.127-2.52 2.203 5.646 2.2.824 2.202-3.255 2.201 4.431 2.237-1.176 2.201-1.432 2.203 1.432 2.2 1.608 2.2.156 2.238-1.176 2.165 2.738 2.164-5.091 2.203-.882 2.2 3.235 2.202-5.667 2.201 4.49 2.237 4.118 2.201-1.314 2.203-2.215 2.2 1.608 2.201-2.197 2.237 1.177 2.13-.63 2.127.042 2.202 2.215 2.202.138 2.2-3.785 2.202 2.608 2.237 2.353 2.201.51 2.203-5.216 2.2-2.078 2.2 5.02 2.238-1.765h4.257l2.202 5.255 2.201-2.314 2.202-1.333 2.2-.432 2.238-2.353 2.201 5.216 2.203-2.863 2.2 4.079 2.2-3.49 2.238.588 2.129-.442 2.127 1.03 2.203.49 2.201-.49 2.201-.726 2.202 2.49 2.237-1.176 2.201-2.53 2.203.177 2.2 1.04 2.2.725 2.238-1.177 2.165-.953 4.366 2.012 2.201-1.059 2.202 1.06 2.2-1.06 2.238 1.177 2.201 1.706 2.203-1.706 2.2 1.706 2.2-2.883 2.238 2.942h0" fill="none" stroke="#8c564b" stroke-linecap="square" stroke-width="1.5" id="line2d_1"/><g id="matplotlib.axis_1"><g id="xtick_1"><g id="line2d_2"><defs><path d="M0 0v3.5" id="mba1547278f" stroke="#71777e" stroke-width=".4"/></defs><use x="79.562" xlink:href="#mba1547278f" y="313.628" fill="#71777e" stroke="#71777e" stroke-width=".4"/></g><g transform="matrix(.14 0 0 -.14 63.992 330.678)" fill="#71777e" id="text_1"><defs><path d="M4.39 45.125q0 12.39 6.391 18.781 6.406 6.407 17.938 6.407 9.656 0 15.812-5.86 6.157-5.86 6.157-15.14 0-7.22-3.547-12.188-3.532-4.953-10.422-8.703l-12.11-6.64Q13.922 15.921 12.5 8.296h38.188V0H2.593q.39 9.906 4.297 16.5 3.906 6.594 12.203 11.375l12.593 7.328q5.032 2.89 7.329 5.984 2.297 3.094 2.297 8.516 0 5.375-3.766 9.031-3.75 3.672-10.156 3.672-7.078 0-10.594-4.672-3.516-4.656-3.61-12.609z" id="HelveticaWorld-Regular-50"/><path d="M42.484 34.188q0 14.109-3.734 21.156-3.734 7.062-10.969 7.062-7.078 0-10.89-7.062-3.797-7.047-3.797-21.157 0-13.671 3.75-20.937Q20.609 6 27.78 6q7.235 0 10.969 7 3.734 7.016 3.734 21.188zm9.422 0q0-17.297-6.25-26.704-6.25-9.39-17.875-9.39-12.062 0-18.062 9.734-6 9.75-6 26.36 0 17.03 6.14 26.578 6.157 9.547 17.922 9.547 11.625 0 17.875-9.5t6.25-26.626z" id="HelveticaWorld-Regular-48"/><path d="M35.89 0h-9.374v49.906H10.109v6.985q8.594.28 12.782 2.75Q27.094 62.109 29 70.313h6.89z" id="HelveticaWorld-Regular-49"/></defs><use xlink:href="#HelveticaWorld-Regular-50"/><use x="55.615" xlink:href="#HelveticaWorld-Regular-48"/><use x="111.23" xlink:href="#HelveticaWorld-Regular-49"/><use x="166.846" xlink:href="#HelveticaWorld-Regular-48"/></g></g><g id="xtick_2"><use x="132.246" xlink:href="#mba1547278f" y="313.628" fill="#71777e" stroke="#71777e" stroke-width=".4" id="line2d_3"/><g transform="matrix(.14 0 0 -.14 116.675 330.678)" fill="#71777e" id="text_2"><use xlink:href="#HelveticaWorld-Regular-50"/><use x="55.615" xlink:href="#HelveticaWorld-Regular-48"/><use x="111.23" xlink:href="#HelveticaWorld-Regular-49"/><use x="166.846" xlink:href="#HelveticaWorld-Regular-50"/></g></g><g id="xtick_3"><use x="185.002" xlink:href="#mba1547278f" y="313.628" fill="#71777e" stroke="#71777e" stroke-width=".4" id="line2d_4"/><g transform="matrix(.14 0 0 -.14 169.431 330.678)" fill="#71777e" id="text_3"><defs><path d="M10.594 24.703h22.61v31.89h-.188zM42 17.093V0h-8.797v17.094H2.484v8.593L34.72 70.314H42v-45.61h10.297v-7.61z" id="HelveticaWorld-Regular-52"/></defs><use xlink:href="#HelveticaWorld-Regular-50"/><use x="55.615" xlink:href="#HelveticaWorld-Regular-48"/><use x="111.23" xlink:href="#HelveticaWorld-Regular-49"/><use x="166.846" xlink:href="#HelveticaWorld-Regular-52"/></g></g><g id="xtick_4"><use x="237.686" xlink:href="#mba1547278f" y="313.628" fill="#71777e" stroke="#71777e" stroke-width=".4" id="line2d_5"/><g transform="matrix(.14 0 0 -.14 222.115 330.678)" fill="#71777e" id="text_4"><defs><path d="M14.11 21.578q0-6.875 4.093-11.234Q22.313 6 28.906 6q6.297 0 10.032 4.438 3.734 4.453 3.734 11.687 0 6.297-3.688 10.547-3.687 4.25-10.468 4.25-6.594 0-10.5-4.156-3.907-4.157-3.907-11.188zM41.702 51.61q-.984 5.375-3.984 8.078-3 2.72-8.125 2.72-8.11 0-12.36-7.923-4.25-7.906-4.343-18.109l.203-.188q5.61 8.641 16.687 8.641 8.844 0 15.438-5.86 6.593-5.859 6.593-16.452 0-10.5-6.25-17.47-6.25-6.952-16.843-6.952-12.219 0-18.563 8.687-6.344 8.703-6.344 25.938 0 16.593 6.485 27.093 6.5 10.5 19.484 10.5 8.407 0 14.219-5.015 5.813-5 6.297-13.688z" id="HelveticaWorld-Regular-54"/></defs><use xlink:href="#HelveticaWorld-Regular-50"/><use x="55.615" xlink:href="#HelveticaWorld-Regular-48"/><use x="111.23" xlink:href="#HelveticaWorld-Regular-49"/><use x="166.846" xlink:href="#HelveticaWorld-Regular-54"/></g></g><g id="xtick_5"><use x="290.441" xlink:href="#mba1547278f" y="313.628" fill="#71777e" stroke="#71777e" stroke-width=".4" id="line2d_6"/><g transform="matrix(.14 0 0 -.14 274.87 330.678)" fill="#71777e" id="text_5"><defs><path d="M27.594 40.578q5.422 0 8.953 3.094 3.547 3.11 3.547 8.234 0 4.594-3.407 7.547-3.39 2.953-9.687 2.953-5.61 0-8.672-3.11-3.047-3.093-3.047-7.874 0-5.125 3.813-7.984 3.812-2.86 8.5-2.86zm.093-7.562q-6.78 0-10.64-3.766-3.86-3.766-3.86-9.234 0-6.297 3.907-10.157Q21 6 28.219 6q6.406 0 10.234 3.86 3.828 3.859 3.828 10.265 0 5.469-3.828 9.172-3.828 3.719-10.766 3.719zM49.22 52.203q0-10.594-9.032-14.797 6.204-2.781 8.86-7.36 2.656-4.562 2.656-9.733 0-10.016-6.453-16.125-6.438-6.094-17.375-6.094-9.563 0-16.813 5.25-7.25 5.25-7.25 17.062 0 11.922 11.907 16.907-9.516 3.796-9.516 13.671 0 8.297 5.64 13.813 5.641 5.516 15.641 5.516 10.016 0 15.875-5.204 5.86-5.203 5.86-12.906z" id="HelveticaWorld-Regular-56"/></defs><use xlink:href="#HelveticaWorld-Regular-50"/><use x="55.615" xlink:href="#HelveticaWorld-Regular-48"/><use x="111.23" xlink:href="#HelveticaWorld-Regular-49"/><use x="166.846" xlink:href="#HelveticaWorld-Regular-56"/></g></g><g id="xtick_6"><use x="343.125" xlink:href="#mba1547278f" y="313.628" fill="#71777e" stroke="#71777e" stroke-width=".4" id="line2d_7"/><g transform="matrix(.14 0 0 -.14 327.555 330.678)" fill="#71777e" id="text_6"><use xlink:href="#HelveticaWorld-Regular-50"/><use x="55.615" xlink:href="#HelveticaWorld-Regular-48"/><use x="111.23" xlink:href="#HelveticaWorld-Regular-50"/><use x="166.846" xlink:href="#HelveticaWorld-Regular-48"/></g></g></g><g id="matplotlib.axis_2"><g id="ytick_1"><path clip-path="url(#p52d658166c)" d="M29.77 301.532h357.12" fill="none" stroke="#71777e" stroke-linecap="square" stroke-width=".3" id="line2d_8"/><g id="line2d_9"><defs><path d="M0 0h-3.5" id="m43d14a9e8d" stroke="#71777e" stroke-width=".3"/></defs><use x="29.771" xlink:href="#m43d14a9e8d" y="301.532" fill="#71777e" stroke="#71777e" stroke-width=".3"/></g><use xlink:href="#HelveticaWorld-Regular-48" transform="matrix(.14 0 0 -.14 14.985 306.557)" fill="#71777e" id="text_7"/></g><g id="ytick_2"><path clip-path="url(#p52d658166c)" d="M29.77 265.062h357.12" fill="none" stroke="#71777e" stroke-linecap="square" stroke-width=".3" id="line2d_10"/><use x="29.771" xlink:href="#m43d14a9e8d" y="265.062" fill="#71777e" stroke="#71777e" stroke-width=".3" id="line2d_11"/><use xlink:href="#HelveticaWorld-Regular-50" transform="matrix(.14 0 0 -.14 14.985 270.087)" fill="#71777e" id="text_8"/></g><g id="ytick_3"><path clip-path="url(#p52d658166c)" d="M29.77 228.592h357.12" fill="none" stroke="#71777e" stroke-linecap="square" stroke-width=".3" id="line2d_12"/><use x="29.771" xlink:href="#m43d14a9e8d" y="228.592" fill="#71777e" stroke="#71777e" stroke-width=".3" id="line2d_13"/><use xlink:href="#HelveticaWorld-Regular-52" transform="matrix(.14 0 0 -.14 14.985 233.616)" fill="#71777e" id="text_9"/></g><g id="ytick_4"><path clip-path="url(#p52d658166c)" d="M29.77 192.121h357.12" fill="none" stroke="#71777e" stroke-linecap="square" stroke-width=".3" id="line2d_14"/><use x="29.771" xlink:href="#m43d14a9e8d" y="192.121" fill="#71777e" stroke="#71777e" stroke-width=".3" id="line2d_15"/><use xlink:href="#HelveticaWorld-Regular-54" transform="matrix(.14 0 0 -.14 14.985 197.146)" fill="#71777e" id="text_10"/></g><g id="ytick_5"><path clip-path="url(#p52d658166c)" d="M29.77 155.65h357.12" fill="none" stroke="#71777e" stroke-linecap="square" stroke-width=".3" id="line2d_16"/><use x="29.771" xlink:href="#m43d14a9e8d" y="155.651" fill="#71777e" stroke="#71777e" stroke-width=".3" id="line2d_17"/><use xlink:href="#HelveticaWorld-Regular-56" transform="matrix(.14 0 0 -.14 14.985 160.676)" fill="#71777e" id="text_11"/></g><g id="ytick_6"><path clip-path="url(#p52d658166c)" d="M29.77 119.18h357.12" fill="none" stroke="#71777e" stroke-linecap="square" stroke-width=".3" id="line2d_18"/><use x="29.771" xlink:href="#m43d14a9e8d" y="119.18" fill="#71777e" stroke="#71777e" stroke-width=".3" id="line2d_19"/><g transform="matrix(.14 0 0 -.14 7.2 124.205)" fill="#71777e" id="text_12"><use xlink:href="#HelveticaWorld-Regular-49"/><use x="55.615" xlink:href="#HelveticaWorld-Regular-48"/></g></g><g id="ytick_7"><path clip-path="url(#p52d658166c)" d="M29.77 82.71h357.12" fill="none" stroke="#71777e" stroke-linecap="square" stroke-width=".3" id="line2d_20"/><use x="29.771" xlink:href="#m43d14a9e8d" y="82.71" fill="#71777e" stroke="#71777e" stroke-width=".3" id="line2d_21"/><g transform="matrix(.14 0 0 -.14 7.2 87.735)" fill="#71777e" id="text_13"><use xlink:href="#HelveticaWorld-Regular-49"/><use x="55.615" xlink:href="#HelveticaWorld-Regular-50"/></g></g></g><path clip-path="url(#p52d658166c)" d="M49.9 301.532l4.439-1.176 2.129 1.176 2.127-.588 2.203-1.843 2.201.667 2.201.549 2.202-2.902 2.237.588 2.201-.726 2.203-.45 2.2 2.882 2.2.647h2.238l2.129-2.731 2.127 2.73 2.203-2.47 2.201.118 2.201-.726 2.201 3.667 2.238-2.941 2.2-.118 2.204.118 2.2-.726 2.2-1.627 2.238 1.765 2.129 1.512 2.127-2.689 2.203-1.392 2.201 3.157 2.201-1.941 2.201-1 2.238.588 2.2 1.02 2.203-1.608 2.2 2.215 2.201-1.627 2.238 1.765 2.165-4.686 2.163 2.92 2.203 2.236 2.201-4 2.201.353 2.201 2h2.238l2.2-5.039 2.203-.255 2.2 3.294 2.201-3.294 2.238.588 2.129.231 2.127-.819 2.203 2.079 2.2-3.255 2.202.823 2.201 1.53h2.238l2.2-9.432 2.203 8.843 2.2 7.569 2.201-13.451 2.237-1.765 2.13 3.32 2.127-.379 2.203-2.313 2.2 1.725 2.202 5.569 2.201-.863 2.237 2.353 2.202-.274 2.202.862 2.2.353 2.201-3.294 2.237 5.294 2.13-2.52 2.127-5.715 2.203 1.98 2.2-1.392 2.202 2.608 2.201-1.431 2.237 5.294 2.201-1.432 2.203-.921 2.2-3.941 2.2 5.117 2.238 1.177 2.165-2.333 2.164-2.961 2.203 3.255 2.2 4.392 2.202-4.392 2.201-1.49 2.237 3.529 2.201-5.687 2.203 5.098 2.2 2.804 6.567-4.862 2.128.294 2.202 2.137 2.202-3.902 2.2 3.294 2.202.235 2.237-1.764 2.201 3.353 2.203.176 2.2-1.392 2.2-2.725 2.238 1.764 2.13-.82 2.127-1.533 2.202 5.138 2.201-8.079 2.202 9.294 2.2-2.823h2.238l2.201 3.431 2.203-.49 2.2-1.941 2.2-.412 4.367-4.538 2.127.42 2.203 1.49 2.201 2.04 2.201-.216 2.202-.96 2.237-1.177 2.201-2.118 2.203.941 2.2-.94 2.2 3.881 2.238-1.764 2.165 1.906 2.164.447 2.202-3.255 2.201 5.02 2.202-.157 2.2.156 2.238.589 2.201-1.961 2.203.784 2.2-1.392 2.2.216 2.238 1.764h0" fill="none" stroke="#9467bd" stroke-linecap="square" stroke-width="1.5" id="line2d_22"/><path clip-path="url(#p52d658166c)" d="M46.003 301.532l1.698-2.353 2.2.53 2.2 1.823 2.238-2.353 2.129 1.05 2.127.715 2.203-.627L63 298.003l2.201-1.941 2.202.176 2.237 1.765 2.201 1.098 2.203.667 2.2-2.49 2.2-1.04 2.238 2.353 2.129-2.92 2.127 1.744 2.203 2.294 2.201.647 2.201-3.686 2.201 1.921 2.238-2.353 2.2-.784 2.204 1.372 2.2-1.372 2.2 1.96 4.367-1.092 2.127 2.857 2.203-.078 2.201-1.098 2.201-2.55 2.201 4.903 2.238-5.294 2.2-.216 2.203 1.98 2.2-.764 2.201 1.94 2.238-3.529 2.165.771 2.163-4.3 2.203 5.118 2.201-6.883 2.201 6.883 2.201 1.94 2.238-3.529 2.2 2.197 2.203.156 2.2-3.196 2.201.843h2.238l2.129 1.198 2.127-8.256 2.203 8.039 2.2-3.333 2.202.294 2.201 3.823 2.238-4.117 2.2 4.549 2.203-6.314 2.2 5.706 2.201 3.117 2.237-4.706 2.13 1.85 2.127-.085 2.203-1.392 2.2-2.725 2.202.902 2.201 2.627 2.237-2.353 2.202 2.157 2.202-2.157 2.2.333 2.201 4.373 2.237-2.353 2.13-1.933 2.127.756 2.203 4.628 2.2-6.392 2.202 4.568 2.201-1.627 2.237-2.353 2.201-1.49 2.203 4.431 2.2-.784 2.2.784h2.238l2.165-5.395 2.164 3.63 2.203 3.412 2.2-1.059 2.202-1.372 2.201.196 2.237.588 2.201-2 2.203-6.235 2.2 9.274 2.201.138 2.237-.589 2.13-1.155 2.127.567 2.202 2.255 2.202-.49 2.2-.118 2.202-6.353 2.237 7.647 2.201 1.138 2.203-.55 2.2-3.705 2.2 1.94 2.238.59 2.13-3.572 2.127 2.983 2.202 1.098 2.201-1.686 2.202 1.686 2.2 1.843 2.238-2.353 2.201-.706 2.203.706 2.2 2.333 2.2-2.333h2.238l2.129-.966 2.127-.21 2.203-1.961 2.201 3.137 2.201 1.726 2.202-.55h2.237l2.201-.666 2.203-1.686 2.2-3.785 2.2 4.373 2.238 1.176 2.165-1.42 2.164.244 2.202-.726 2.201.726 2.202 1.098 4.438-1.098 2.201 1.098 2.203.078 2.2-.686 2.2.098 2.238-2.353h0" fill="none" stroke="#d62728" stroke-linecap="square" stroke-width="1.5" id="line2d_23"/><g transform="matrix(.14 0 0 -.14 390.462 133.932)" fill="#1f77b4" id="text_14"><defs><path d="M39.594 34.719q-1.89 11.187-12.39 11.187-6.5 0-10.454-5.203-3.953-5.203-3.953-14.484 0-10.11 3.656-15.11 3.672-5 10.64-5 4.688 0 8.11 3.438 3.422 3.437 4.39 8.953h8.5q-1.312-9.703-6.859-14.86-5.547-5.156-14.328-5.156-10.297 0-16.89 7.047-6.594 7.063-6.594 19.172 0 13.281 6.594 21.188 6.593 7.922 18.5 7.922 8.687 0 13.843-5.204 5.157-5.203 5.735-13.89z" id="HelveticaWorld-Regular-99"/><path d="M6.594 52.297h8.297v-7.375h.203q5.906 8.89 15.812 8.89 9.813 0 13.922-8.5 3.75 4.594 7.266 6.547 3.515 1.953 8.703 1.953 6.781 0 11.484-4.453Q77 44.922 77 36.187V0h-8.781v33.797q0 6.094-2.297 9.094-2.297 3.015-7.422 3.015-5.172 0-8.75-4.203-3.563-4.203-3.563-9.812V0h-8.78v36.188q0 4.53-2.11 7.124-2.094 2.594-6.094 2.594-6.297 0-10.062-4.687-3.766-4.688-3.766-12.703V0H6.594z" id="HelveticaWorld-Regular-109"/><path d="M38.375 26.703q-.969-1.015-3.828-1.656-2.86-.625-10.672-1.656-5.766-.688-8.469-2.844-2.703-2.14-2.703-5.656 0-4.297 2.281-6.688 2.297-2.39 7.329-2.39 6.296 0 11.171 3.578 4.891 3.593 4.891 8.718zM6.203 36.375q.297 8.844 5.734 13.14 5.454 4.297 15.844 4.297 8.297 0 13.907-3.765 5.624-3.75 5.624-10.844V9.078Q47.313 6 50.094 6q1.125 0 2.89.39V0Q50.594-.984 48-.984q-4.5 0-6.703 1.921-2.188 1.938-2.281 6.047-7.516-8.5-18.891-8.5-7.422 0-11.922 4.204Q3.72 6.89 3.72 13.624q0 6.89 3.906 11.125Q11.531 29 19 29.89l15.516 1.891q4.203.64 4.203 6.203 0 4.11-3.047 6.297-3.047 2.203-9.25 2.203-5.516 0-8.485-2.437-2.953-2.438-3.53-7.672z" id="HelveticaWorld-Regular-97"/><path d="M50 0H38.719L22.406 26.422l-7.312-6.594V0h-8.5v71.781h8.5v-41.61l22.5 22.126H48.78L28.813 32.813z" id="HelveticaWorld-Regular-107"/><path d="M42.484 30.328q-.687 8.485-4.5 12.031-3.797 3.547-10.109 3.547-6.39 0-10.328-4.5-3.922-4.484-4.172-11.078zm8.391-13.922q-1.453-8.11-7.953-13.422-5.719-4.5-15.047-4.593-10.984.093-17.438 7.203Q4 12.704 4 24.704q0 13.78 6.64 21.437 6.641 7.672 18.47 7.672 10.593 0 16.546-7.922 5.953-7.907 5.953-22.594H13.375q0-8.203 3.813-12.703Q21 6.109 28.608 6.109q5.375 0 9.235 3.235 3.86 3.25 4.25 7.062z" id="HelveticaWorld-Regular-101"/></defs><use xlink:href="#HelveticaWorld-Regular-99"/><use x="51.27" xlink:href="#HelveticaWorld-Regular-109"/><use x="134.277" xlink:href="#HelveticaWorld-Regular-97"/><use x="189.209" xlink:href="#HelveticaWorld-Regular-107"/><use x="236.834" xlink:href="#HelveticaWorld-Regular-101"/></g><g transform="matrix(.14 0 0 -.14 390.462 207.461)" fill="#ff7f0e" id="text_15"><defs><path d="M17.188 45.016V0H8.405v45.016H1.22v7.28h7.187v8.985q0 5.907 3.578 8.703 3.594 2.813 10.032 2.813 2.203 0 3.968-.188v-7.906q-1.562.188-3.578.188-2.922 0-4.078-1.438-1.14-1.437-1.14-4.656v-6.5h8.796v-7.281z" id="HelveticaWorld-Regular-102"/><path d="M6.594 61.813v9.968h8.781v-9.969zM15.375 0H6.594v52.297h8.781z" id="HelveticaWorld-Regular-105"/><path d="M15.375 0H6.594v71.781h8.781z" id="HelveticaWorld-Regular-108"/></defs><use xlink:href="#HelveticaWorld-Regular-109"/><use x="83.008" xlink:href="#HelveticaWorld-Regular-97"/><use x="137.939" xlink:href="#HelveticaWorld-Regular-107"/><use x="185.564" xlink:href="#HelveticaWorld-Regular-101"/><use x="239.984" xlink:href="#HelveticaWorld-Regular-102"/><use x="267.67" xlink:href="#HelveticaWorld-Regular-105"/><use x="289.691" xlink:href="#HelveticaWorld-Regular-108"/><use x="311.713" xlink:href="#HelveticaWorld-Regular-101"/></g><g transform="matrix(.14 0 0 -.14 390.462 274.549)" fill="#2ca02c" id="text_16"><defs><path d="M43.406 26.313q0 10.5-3.718 15.046-3.704 4.547-10.579 4.547-6.984-.11-10.562-5.453Q14.984 35.11 14.984 25q0-10.297 4.297-14.594Q23.578 6.11 29.297 6.11q6.5 0 10.297 5.344 3.812 5.344 3.812 14.86zM6.594 0v71.781h8.781V45.703h.203q5.61 8.11 15.14 8.11 9.766 0 15.766-7.25t6-18.876q0-13.093-6.062-21.156Q40.375-1.516 29.5-1.516q-9.578 0-14.406 8.016h-.203V0z" id="HelveticaWorld-Regular-98"/><path d="M14.11 7.328h32.187V0H2.39v6.89l31.64 38.126H4.938v7.28h40.374v-7.171z" id="HelveticaWorld-Regular-122"/></defs><use xlink:href="#HelveticaWorld-Regular-98"/><use x="56.494" xlink:href="#HelveticaWorld-Regular-97"/><use x="111.426" xlink:href="#HelveticaWorld-Regular-122"/><use x="158.895" xlink:href="#HelveticaWorld-Regular-101"/><use x="214.314" xlink:href="#HelveticaWorld-Regular-108"/></g><g transform="matrix(.14 0 0 -.14 390.462 288.549)" fill="#d62728" id="text_17"><defs><path d="M36.078 37.406q-.187 4.688-3.344 6.735-3.14 2.047-9.047 2.047-4.296 0-7.359-1.907-3.047-1.89-3.047-5.468 0-2.829 1.797-4.172 1.813-1.344 7.828-2.86l8.688-2.187q7.906-2 11.297-5.11 3.406-3.093 3.406-8.656 0-7.719-5.64-12.531-5.641-4.813-15.063-4.813-11 0-16.64 4.563-5.626 4.578-5.735 13.75h8.5q.203-5.422 3.594-8.063 3.39-2.625 10.171-2.625 5.516 0 8.766 2.188 3.25 2.203 3.25 6.11 0 2.78-2.11 4.437-2.093 1.672-8.296 3.078l-10.203 2.5q-6.203 1.562-9.157 4.656-2.953 3.094-2.953 8.031 0 7.72 5.516 12.203 5.531 4.5 14.406 4.5 9.485 0 14.531-4.624 5.047-4.61 5.344-11.782z" id="HelveticaWorld-Regular-115"/><path d="M12.703 26.219q0-8.735 3.953-14.375 3.953-5.64 11.219-5.64 7.531 0 11.438 5.905 3.906 5.907 3.906 14.11 0 8.297-3.907 14.078-3.906 5.797-11.437 5.797-6.969 0-11.078-5.453-4.094-5.438-4.094-14.422zm-8.984 0q0 11.672 6.484 19.625 6.5 7.968 17.672 7.968 11.438 0 17.875-8.062 6.453-8.047 6.453-19.531 0-11.516-6.406-19.625-6.39-8.11-17.922-8.11-11.078 0-17.625 7.86-6.531 7.86-6.531 19.875z" id="HelveticaWorld-Regular-111"/><path d="M49.219 0h-8.844v32.172q0 7.422-2.594 10.578-2.578 3.156-8.578 3.156-5.906 0-9.875-4.5-3.953-4.484-3.953-12.89V0H6.594v52.297h8.297v-7.375h.203q6.203 8.89 15.812 8.89 8.89 0 13.594-4.718 4.719-4.703 4.719-13.5z" id="HelveticaWorld-Regular-110"/></defs><use xlink:href="#HelveticaWorld-Regular-115"/><use x="50" xlink:href="#HelveticaWorld-Regular-99"/><use x="101.27" xlink:href="#HelveticaWorld-Regular-111"/><use x="157.178" xlink:href="#HelveticaWorld-Regular-110"/><use x="212.354" xlink:href="#HelveticaWorld-Regular-115"/></g><g transform="matrix(.14 0 0 -.14 390.462 302.549)" fill="#9467bd" id="text_18"><defs><path d="M41.5 23.688q0 11.125-3.5 16.671-3.484 5.547-10.61 5.547-6.874 0-10.593-4.5-3.703-4.484-3.703-15.093 0-9.422 3.75-14.813 3.765-5.39 10.36-5.39 5.812 0 10.046 4.39 4.25 4.39 4.25 13.188zm8.406-44.391H41.11V5.516h-.187Q35.89-1.516 27-1.516q-10.984 0-17 8.157-6 8.156-6 21.047 0 11.421 5.906 18.765 5.922 7.36 15.875 7.36 9.907 0 15.625-8.891h.203v7.375h8.297z" id="HelveticaWorld-Regular-113"/></defs><use xlink:href="#HelveticaWorld-Regular-113"/><use x="56.494" xlink:href="#HelveticaWorld-Regular-109"/><use x="139.502" xlink:href="#HelveticaWorld-Regular-97"/><use x="194.434" xlink:href="#HelveticaWorld-Regular-107"/><use x="242.059" xlink:href="#HelveticaWorld-Regular-101"/></g><g transform="matrix(.14 0 0 -.14 390.462 316.549)" fill="#8c564b" id="text_19"><defs><path d="M6.11 52.297h8.78V17.578q0-5.765 2.61-8.625Q20.125 6.11 25 6.11q6.781 0 10.594 4.797 3.812 4.813 3.812 12.578v28.813h8.782V0H39.89v7.625l-.188.188q-4.984-9.329-16.61-9.329-7.515 0-12.25 4.094Q6.11 6.688 6.11 14.703z" id="HelveticaWorld-Regular-117"/><path d="M17.188 45.016V10.984q0-2 1.093-3.046 1.11-1.047 3.938-1.047h3.375V0Q20.797-.688 19-.688q-5.516 0-8.063 2.641-2.53 2.64-2.53 8.547v34.516H1.311v7.28h7.094v14.595h8.781V52.297h8.407v-7.281z" id="HelveticaWorld-Regular-116"/></defs><use xlink:href="#HelveticaWorld-Regular-97"/><use x="54.932" xlink:href="#HelveticaWorld-Regular-117"/><use x="109.717" xlink:href="#HelveticaWorld-Regular-116"/><use x="137.402" xlink:href="#HelveticaWorld-Regular-111"/><use x="193.311" xlink:href="#HelveticaWorld-Regular-116"/><use x="220.996" xlink:href="#HelveticaWorld-Regular-111"/><use x="276.904" xlink:href="#HelveticaWorld-Regular-111"/><use x="332.813" xlink:href="#HelveticaWorld-Regular-108"/><use x="354.834" xlink:href="#HelveticaWorld-Regular-115"/></g><g transform="matrix(.09716 0 0 -.09716 29.77 335.303)" fill="#71777e" id="text_20"><defs><path d="M50.39 50.781q-.296 6.844-5.109 10.719-4.797 3.875-12.656 3.875-7.922 0-12.172-3.25-4.234-3.234-4.234-9.344 0-3.265 1.843-5.61 1.86-2.343 6.641-3.468l20.516-4.687q8.297-1.813 12.297-6.875 4.015-5.047 4.015-12.313 0-10.64-7.812-16.187-7.813-5.547-20.313-5.547-9.531 0-15.031 2.437-5.484 2.453-9.734 7.766-4.25 5.328-4.25 14.89h9.093q0-8 5.313-12.406 5.328-4.39 14.5-4.39 8.89 0 13.844 3.156 4.953 3.156 4.953 8.953 0 5.281-2.953 7.89Q46.188 29 37.594 31l-15.469 3.625q-7.719 1.75-11.531 6.125Q6.78 45.125 6.78 51.516q0 9.672 6.516 15.922 6.531 6.25 18.203 6.25 13.172 0 20.328-5.5 7.156-5.485 7.688-17.407z" id="HelveticaWorld-Regular-83"/><path d="M63.922 35.89q0 12.594-6.672 20.891-6.656 8.313-18.328 8.313-11.531 0-18.266-8.313-6.734-8.297-6.734-20.89 0-12.985 6.828-21.094 6.844-8.11 18.172-8.11 11.078 0 18.031 7.907 6.969 7.922 6.969 21.297zm9.953 0q0-16.062-9.281-26.937-9.266-10.86-25.672-10.86-16.516 0-25.766 10.86-9.25 10.875-9.25 26.938 0 16.109 9.25 26.953 9.25 10.843 25.766 10.843 16.89 0 25.922-11.046 9.031-11.032 9.031-26.75z" id="HelveticaWorld-Regular-79"/><path d="M39.406 52.297h9.625L29.11 0h-9.437L.594 52.297h10.203L24.422 9.719h.187z" id="HelveticaWorld-Regular-118"/><path d="M15.375 0H6.594v52.297h8.297v-8.688h.203q5.703 10.203 14.687 10.203 1.422 0 2.297-.296V44.39h-3.266q-5.906 0-9.671-4.016-3.766-4-3.766-9.953z" id="HelveticaWorld-Regular-114"/><path d="M25.594 0h-8.985L1.516 52.297h9.468L21 11.187h.188l10.109 41.11h9.922l10.203-41.11h.187l10.594 41.11h8.703L55.812 0h-9.234L35.984 40.484h-.187z" id="HelveticaWorld-Regular-119"/><path d="M44 29.5L33.406 61.078h-.203L21.687 29.5zm-25.297-8.594L11.188 0h-9.97l27 71.781h10.985L65.187 0H54.594l-7.078 20.906z" id="HelveticaWorld-Regular-65"/><path d="M17.828 38.625H37.11q7.282 0 10.938 3.188 3.656 3.203 3.656 9.703 0 5.812-3.516 8.89-3.515 3.078-10.687 3.078H17.828zm0-38.625H8.11v71.781h32.266q9.625 0 15.484-5.594 5.86-5.593 5.86-14.578 0-9.328-5.672-15.312-5.656-5.969-15.672-5.969H17.828z" id="HelveticaWorld-Regular-80"/><path d="M17.828 0H8.11v71.781h9.72z" id="HelveticaWorld-Regular-73"/><path d="M12.984 26.313q0-9.61 3.813-14.907Q20.609 6.11 27.094 6.11q6.312 0 10.312 4.579 4 4.593 4 13 0 11.03-3.5 16.625-3.484 5.593-10.61 5.593-7.171 0-10.75-4.765-3.562-4.766-3.562-14.828zM49.812 2.983q0-12.609-6.062-18.797-6.047-6.203-18.266-6.203-8.78 0-13.984 4.047Q6.297-13.922 5.516-6.39h8.796q.672-3.812 3.532-6.062 2.86-2.25 8.281-2.25 7.375 0 11.125 3.969 3.766 3.953 3.766 12.828v3.719h-.188q-4.937-7.329-13.922-7.329-11.187 0-17.093 8.25-5.907 8.25-5.907 20.953 0 11.625 5.953 18.875 5.97 7.25 15.829 7.25 9.906 0 15.625-8.89h.187v7.375h8.313z" id="HelveticaWorld-Regular-103"/><path d="M9.422 73.688h7.281V-1.906H9.422z" id="HelveticaWorld-Regular-124"/><path d="M55.61 71.781h9.374V0h-10.78L17.577 58.016h-.187V0H8.109v71.781h11.375l35.938-57.969h.187z" id="HelveticaWorld-Regular-78"/><path d="M49.219 0h-8.844v34.188q0 6.296-2.438 9-2.437 2.718-7.953 2.718-6.797 0-10.703-4.406-3.906-4.39-3.906-12.984V0H6.594v71.781h8.781V45.312h.203q6 8.5 15.328 8.5 8.594 0 13.453-4.5 4.86-4.484 4.86-13.718z" id="HelveticaWorld-Regular-104"/><path d="M12.703 26.219q0-8.735 3.953-14.375 3.953-5.64 11.219-5.64 7.531 0 11.438 5.905 3.906 5.907 3.906 14.11 0 8.297-3.907 14.078-3.906 5.797-11.437 5.797-6.969 0-11.078-5.453-4.094-5.438-4.094-14.422zm-8.984 0q0 11.672 6.484 19.625 6.5 7.968 17.672 7.968 11.438 0 17.875-8.062 6.453-8.047 6.453-19.531 0-11.516-6.406-19.625-6.39-8.11-17.922-8.11-11.078 0-17.625 7.86-6.531 7.86-6.531 19.875zm36.734 35.406H31.47v10.156h8.984zm-16.219 0H15.25v10.156h8.984z" id="HelveticaWorld-Regular-246"/><path d="M58.016 50.203q-1.625 7.313-6.782 11.094-5.14 3.797-13.343 3.797-10.594 0-17.047-7.703-6.438-7.688-6.438-20.766 0-15.14 6.094-22.547 6.11-7.39 17.688-7.39 7.609 0 13.093 5.046 5.5 5.063 7.407 14.688h9.421Q66.22 12.594 57.625 5.344t-20.906-7.25q-14.703 0-23.516 10.11Q4.391 18.311 4.391 36.28q0 17.328 9.203 27.36 9.203 10.047 24.297 10.047 12.5 0 20.265-6.454 7.766-6.437 9.235-17.03z" id="HelveticaWorld-Regular-67"/><path d="M8.11 71.781h31.484q9.281 0 14.797-5.031 5.515-5.031 5.515-13.031 0-4.844-2.422-8.828-2.406-3.97-7.187-6.172 6.687-2.532 9.828-6.735 3.156-4.203 3.156-10.797 0-9.265-6.687-15.234Q49.906 0 38.922 0H8.109zm9.562-63.484h20.703q7.625 0 11.422 3.531 3.812 3.547 3.812 9.563 0 6.093-4.25 9.093Q45.125 33.5 36.812 33.5h-19.14zm0 33.11h17.625q7.719 0 11.312 2.796 3.594 2.813 3.594 8.781 0 5.125-3.406 7.813-3.39 2.687-11.39 2.687H17.671z" id="HelveticaWorld-Regular-66"/><path d="M37.313 0h-9.72v28.906L.485 71.781h11.329l20.609-34.469 20.562 34.47h11.422L37.312 28.905z" id="HelveticaWorld-Regular-89"/></defs><use xlink:href="#HelveticaWorld-Regular-83"/><use x="66.211" xlink:href="#HelveticaWorld-Regular-116"/><use x="93.896" xlink:href="#HelveticaWorld-Regular-97"/><use x="148.828" xlink:href="#HelveticaWorld-Regular-99"/><use x="200.098" xlink:href="#HelveticaWorld-Regular-107"/><use x="250.098" xlink:href="#HelveticaWorld-Regular-79"/><use x="327.881" xlink:href="#HelveticaWorld-Regular-118"/><use x="375.49" xlink:href="#HelveticaWorld-Regular-101"/><use x="430.91" xlink:href="#HelveticaWorld-Regular-114"/><use x="464.979" xlink:href="#HelveticaWorld-Regular-102"/><use x="492.664" xlink:href="#HelveticaWorld-Regular-108"/><use x="514.686" xlink:href="#HelveticaWorld-Regular-111"/><use x="569.094" xlink:href="#HelveticaWorld-Regular-119"/><use x="641.506" xlink:href="#HelveticaWorld-Regular-32"/><use x="665.92" xlink:href="#HelveticaWorld-Regular-65"/><use x="732.619" xlink:href="#HelveticaWorld-Regular-80"/><use x="797.268" xlink:href="#HelveticaWorld-Regular-73"/><use x="823.049" xlink:href="#HelveticaWorld-Regular-32"/><use x="847.463" xlink:href="#HelveticaWorld-Regular-118"/><use x="897.072" xlink:href="#HelveticaWorld-Regular-105"/><use x="919.094" xlink:href="#HelveticaWorld-Regular-97"/><use x="974.025" xlink:href="#HelveticaWorld-Regular-32"/><use x="998.439" xlink:href="#HelveticaWorld-Regular-115"/><use x="1048.439" xlink:href="#HelveticaWorld-Regular-116"/><use x="1076.125" xlink:href="#HelveticaWorld-Regular-97"/><use x="1131.057" xlink:href="#HelveticaWorld-Regular-99"/><use x="1182.326" xlink:href="#HelveticaWorld-Regular-107"/><use x="1232.326" xlink:href="#HelveticaWorld-Regular-116"/><use x="1260.012" xlink:href="#HelveticaWorld-Regular-97"/><use x="1314.943" xlink:href="#HelveticaWorld-Regular-103"/><use x="1370.852" xlink:href="#HelveticaWorld-Regular-115"/><use x="1420.852" xlink:href="#HelveticaWorld-Regular-32"/><use x="1445.266" xlink:href="#HelveticaWorld-Regular-124"/><use x="1471.242" xlink:href="#HelveticaWorld-Regular-32"/><use x="1495.656" xlink:href="#HelveticaWorld-Regular-78"/><use x="1568.752" xlink:href="#HelveticaWorld-Regular-105"/><use x="1590.773" xlink:href="#HelveticaWorld-Regular-99"/><use x="1642.043" xlink:href="#HelveticaWorld-Regular-111"/><use x="1697.951" xlink:href="#HelveticaWorld-Regular-32"/><use x="1722.365" xlink:href="#HelveticaWorld-Regular-83"/><use x="1788.576" xlink:href="#HelveticaWorld-Regular-99"/><use x="1839.846" xlink:href="#HelveticaWorld-Regular-104"/><use x="1895.021" xlink:href="#HelveticaWorld-Regular-108"/><use x="1917.043" xlink:href="#HelveticaWorld-Regular-246"/><use x="1972.951" xlink:href="#HelveticaWorld-Regular-109"/><use x="2055.959" xlink:href="#HelveticaWorld-Regular-101"/><use x="2111.379" xlink:href="#HelveticaWorld-Regular-114"/><use x="2143.947" xlink:href="#HelveticaWorld-Regular-32"/><use x="2168.361" xlink:href="#HelveticaWorld-Regular-124"/><use x="2194.338" xlink:href="#HelveticaWorld-Regular-32"/><use x="2218.752" xlink:href="#HelveticaWorld-Regular-67"/><use x="2291.066" xlink:href="#HelveticaWorld-Regular-67"/><use x="2363.381" xlink:href="#HelveticaWorld-Regular-32"/><use x="2387.795" xlink:href="#HelveticaWorld-Regular-66"/><use x="2450.607" xlink:href="#HelveticaWorld-Regular-89"/></g><g transform="matrix(.14 0 0 -.14 72.264 17.516)" fill="#71777e" id="text_21"><defs><path d="M17.828 8.297h18.797q9.766 0 15.281 7.5 5.516 7.5 5.516 20.484 0 12.844-5.563 19.969-5.562 7.125-16.062 7.234H17.828zM8.11 71.78h29.094q14.11 0 22.094-9.703 7.984-9.687 7.984-25.156 0-16.61-7.984-26.766Q51.313 0 36.813 0H8.108z" id="HelveticaWorld-Regular-68"/><path d="M39.016 52.297h9.562L29.891.984q-.5-1.375-.985-2.593-4.25-11.329-7.328-15.547-3.078-4.235-9.953-4.235-3.61 0-5.906.782v8.015q2.484-.89 5.468-.89 3.22 0 4.704 2.03 1.5 2.032 4.421 9.938L.875 52.297h9.922L24.812 9.719H25z" id="HelveticaWorld-Regular-121"/></defs><use xlink:href="#HelveticaWorld-Regular-68"/><use x="72.021" xlink:href="#HelveticaWorld-Regular-97"/><use x="126.953" xlink:href="#HelveticaWorld-Regular-105"/><use x="148.975" xlink:href="#HelveticaWorld-Regular-108"/><use x="170.996" xlink:href="#HelveticaWorld-Regular-121"/><use x="220.605" xlink:href="#HelveticaWorld-Regular-32"/><use x="245.02" xlink:href="#HelveticaWorld-Regular-110"/><use x="300.195" xlink:href="#HelveticaWorld-Regular-117"/><use x="354.98" xlink:href="#HelveticaWorld-Regular-109"/><use x="437.988" xlink:href="#HelveticaWorld-Regular-98"/><use x="494.482" xlink:href="#HelveticaWorld-Regular-101"/><use x="549.902" xlink:href="#HelveticaWorld-Regular-114"/><use x="582.471" xlink:href="#HelveticaWorld-Regular-32"/><use x="606.885" xlink:href="#HelveticaWorld-Regular-111"/><use x="662.793" xlink:href="#HelveticaWorld-Regular-102"/><use x="690.479" xlink:href="#HelveticaWorld-Regular-32"/><use x="714.893" xlink:href="#HelveticaWorld-Regular-113"/><use x="771.387" xlink:href="#HelveticaWorld-Regular-117"/><use x="826.172" xlink:href="#HelveticaWorld-Regular-101"/><use x="881.592" xlink:href="#HelveticaWorld-Regular-115"/><use x="931.592" xlink:href="#HelveticaWorld-Regular-116"/><use x="959.277" xlink:href="#HelveticaWorld-Regular-105"/><use x="981.299" xlink:href="#HelveticaWorld-Regular-111"/><use x="1037.207" xlink:href="#HelveticaWorld-Regular-110"/><use x="1092.383" xlink:href="#HelveticaWorld-Regular-115"/><use x="1142.383" xlink:href="#HelveticaWorld-Regular-32"/><use x="1166.797" xlink:href="#HelveticaWorld-Regular-111"/><use x="1222.705" xlink:href="#HelveticaWorld-Regular-110"/><use x="1277.881" xlink:href="#HelveticaWorld-Regular-32"/><use x="1302.295" xlink:href="#HelveticaWorld-Regular-83"/><use x="1368.506" xlink:href="#HelveticaWorld-Regular-116"/><use x="1396.191" xlink:href="#HelveticaWorld-Regular-97"/><use x="1451.123" xlink:href="#HelveticaWorld-Regular-99"/><use x="1502.393" xlink:href="#HelveticaWorld-Regular-107"/><use x="1552.393" xlink:href="#HelveticaWorld-Regular-79"/><use x="1630.176" xlink:href="#HelveticaWorld-Regular-118"/><use x="1677.785" xlink:href="#HelveticaWorld-Regular-101"/><use x="1733.205" xlink:href="#HelveticaWorld-Regular-114"/><use x="1767.273" xlink:href="#HelveticaWorld-Regular-102"/><use x="1794.959" xlink:href="#HelveticaWorld-Regular-108"/><use x="1816.98" xlink:href="#HelveticaWorld-Regular-111"/><use x="1871.389" xlink:href="#HelveticaWorld-Regular-119"/></g><path clip-path="url(#p52d658166c)" d="M214.591 301.532l2.128-1.176 2.203 1.176h8.84l2.201-1.823 2.203 1.823 2.2-3.647 2.2-.47 2.238-2.942 2.165 2.658 2.164.284 2.203-.745 2.2-3.961 2.202-2.726 2.201 2.726 2.237-1.765 2.201 4.51 2.203-5.686 2.2 2.647 2.201 2.058 2.237-1.176 2.13-3.487 2.127-2.984 2.202-12.647 2.202-3.823 2.2-11.98 2.202 14.333 2.237-.588 2.201 1.45 2.203 5.608 2.2-8.647 2.2 3.353 2.238 5.294 2.13-1.743 2.127 1.155 2.202-.764 2.201 3.705 2.202-12.823 2.2 4.588 2.238 10.588 2.201-6.058 2.203-1.589 2.2-2.059 2.2 9.706 2.238-6.47 2.129-1.933 2.127-.42 2.203 5.196 2.201-6.96 2.201 2.097 2.202-7.392 2.237 10 2.201-11.118 2.203-1.235 2.2-2.412 2.2 13 2.238-2.94 2.165-8.236 2.164 8.235 2.202-12.49 2.201 10.137 2.202-3.45 2.2 15.803 2.238-7.059 2.201-.235 2.203 6.706 2.2-1.235 2.2-2.883 2.238-3.53" fill="none" stroke="#2ca02c" stroke-linecap="square" stroke-width="1.5" id="line2d_24"/><path clip-path="url(#p52d658166c)" d="M46.003 285.576l1.698 1.839 2.2 3.784 2.2 1.51 2.238-4.706 2.129-6.66 2.127 3.13 2.203 2.471L63 283.885l2.201-2.411 2.202.647 2.237-9.412 2.201 6.333 2.203.137 2.2-.137 2.2-5.745 2.238-6.47 2.129 4.747 2.127-19.453 2.203 17.804 2.201-11.922 2.201 8.275 2.201-17.687 2.238 18.824 2.2-6 4.403-10.333 2.201 7.51 2.238-8.824 2.129-10.105 2.127-6.954 2.203-10.804 2.201 16.686 2.201-9.392 2.201 14.098 2.238-5.294 2.2 8.216 2.203-9.392 2.2-10.059 2.201 3 2.238-4.706 2.165-27.282 2.163-14.482 2.203 29.49 2.201-11.843 2.201 6.98 2.201-10.51 2.238 22.353 2.2-23.392 2.203 3.98 2.2 5.745 2.201 10.726 2.238-13.53 2.129-33.319 2.127 5.673 2.203 5.53 2.2 23.881 2.202-25.098 2.201 8.628 2.238-5.883 2.2 7.589 2.203-23.47 2.2.372 2.201 20.215 2.237-12.353 2.13-27.877 2.127 14.936 2.203-12.549 2.2 16.667 2.202 38.647 2.201-12.765 2.237-10.588 2.202-5.823 2.202-8.295 2.2 7.687 2.201 18.784 2.237-4.118 2.13-49.747 2.127 30.336 2.203-5.589 2.2 10.883 2.202-24.863 2.201-3.372 2.237 18.235 2.201 21.607 2.203-21.607 2.2-5.137 2.2 24.548 2.238-2.94 2.165-2.577 2.164-3.894 2.203 4.313 2.2 2.157 2.202-16.137 2.201 27.902 2.237 5.882 2.201-4 2.203-10.706 2.2-.235 2.201 24.353 2.237-8.235 2.13-11.429 2.127-6.218 2.202 11.255 2.202-3.608 2.2 22.45 2.202-10.097 2.237 7.058 2.201 18.236 2.203-28.236 2.2-.333 2.2 25.04 2.238-21.177 2.13 17.542 2.127-19.307 2.202 11.275 2.201-11.275 2.202-2.706 2.2 16.235 2.238 15.294 2.201-10.254 2.203-34.451 2.2 28.98 2.2 9.255 2.238-9.412 2.129-13.823 2.127 7.353 2.203-.667 2.201 13.608 2.201-6.922 2.202 7.51 2.237 1.765 2.201-8.667 2.203-18.392 2.2 3.804 2.2 10.902 2.238-15.294 2.165 6.572 2.164-15.984 2.202-19.627 2.201 13.745 2.202 16.647 2.2 2.764 2.238 4.706 2.201 3.47 2.203-5.234 2.2-25.765 2.2 29.882 2.238-3.53h0" fill="none" stroke="#ff7f0e" stroke-linecap="square" stroke-width="1.5" id="line2d_25"/><path clip-path="url(#p52d658166c)" d="M46.003 300.393l1.698 1.14 2.2-1.216 2.2.627 2.238-1.176 2.129-.84 2.127-1.513 2.203-.138 2.201 2.49 2.201-1.882 2.202-3.412 2.237-2.352 2.201 2.117 2.203-.941 2.2 1.549 2.2-2.137 2.238-1.177 2.129-2.374 2.127 4.727 2.203-5.117 2.201 4.529 2.201-7.569 2.201-2.43 2.238 2.352 2.2-3.569 2.204 4.157 2.2-5.372 2.2 10.078 2.238-8.235 2.129-3.97 2.127-3.089 2.203 3.392 2.201-8.098 2.201 3.843 2.201-9.137 2.238-2.941 2.2 12.686 2.203-8.568 2.2-4.804 2.201 3.627 2.238-1.176 2.165 2.474 2.163-11.886 2.203-.333 2.201 10.921 2.201-9.098 2.201-3.255 2.238 12.941 2.2-3 2.203-22.294 2.2 2.844 2.201 7.156 2.238-5.882 2.129-7.353 2.127-.294 2.203-5.176 2.2-3.647 2.202 11.548 2.201-10.372 2.238 20 2.2-18.137 2.203 5.196 2.2.882 2.201 3.824 2.237-5.294 2.13-9.601 2.127 4.895 2.203 6.784 2.2 4.98 2.202-12.882 2.201-15.353 2.237 15.294 2.202-4.196 2.202-.51 2.2-21.98 2.201 39.04 2.237-18.236 2.13-18.676 2.127 9.852 2.203-30.215 2.2 7.863 2.202 6.725 2.201-6.137 2.237 19.412 2.201-28.47 2.203 20.234 2.2.432 2.2 15.45 2.238-23.529 2.165-17.87 2.164 8.459 2.203 3.51 2.2-3.51 2.202-2.569 2.201 17.274 2.237 1.177 2.201-3.255 2.203-26.157 2.2 12.177 2.201 15.47 2.237-41.176 2.13 25.966 2.127-9.496 2.202-9 2.202-5.705 2.2-13.745 2.202 19.039 2.237-14.118 2.201 20 2.203-21.765 2.2 10.824 2.2 31.53 2.238-15.883 2.13.504 2.127-22.857 2.202-7.882 2.201-2.118 2.202.902 2.2 9.686 2.238 4.118 2.201-5.294 2.203-21.176 2.2 9.627 2.2 20.372 2.238-16.47 2.129-9.286 2.127-3.067 2.203 9.667 2.201 29.156 2.201-23.686 2.202-32.196 2.237 25.294 2.201-14.372 2.203 10.255 2.2-32.137 2.2 54.49 6.567-74.118 2.202-28.392 2.201 27.804 2.202 5.02 2.2-22.079 2.238 34.118 2.201 8.02 2.203 1.391 2.2-5.647 2.2 32.118 2.238-10h0" fill="none" stroke="#1f77b4" stroke-linecap="square" stroke-width="1.5" id="line2d_26"/></g></g><defs><clipPath id="p52d658166c"><path d="M29.771 47.516h357.12v266.112H29.771z"/></clipPath></defs></svg>