<svg height="475.651" viewBox="0 0 482.399 356.738" width="643.199" xmlns="http://www.w3.org/2000/svg" xmlns:xlink="http://www.w3.org/1999/xlink"><defs><style>*{stroke-linecap:butt;stroke-linejoin:round}</style></defs><g id="figure_1"><path d="M0 356.738h482.399V0H0z" fill="none" id="patch_1"/><g id="axes_1"><path d="M37.556 313.628h357.12V47.516H37.556z" fill="none" id="patch_2"/><path clip-path="url(#pe2c42169be)" d="M257.798 313.628l2.406-.104 2.405.003 2.445.034 2.406-.002 2.407.002 2.404.067 2.405-.134 2.445.067 2.327.03 2.325.004 2.407.033 2.406-.1 2.405.1 2.406-.168 2.445-.236 2.405-.083 2.407-.489 2.404.42 2.406.253 2.445-.942 2.326-.208 2.325.545 2.407-.413 2.406-.092 2.405.44 2.406-.81 2.445-.168 2.405.317 2.408-.52 2.403-.245 2.406.481 2.445-.74 2.327-.694 2.325.257 2.407-.73 2.405-.482 2.406.205 2.405-.945 2.445.539 2.406.197 2.407-1.577 2.404.638 2.405.607 2.445-1.11 2.366-1.548 2.365.538 2.407-1.998 2.405.383 2.406-.28 2.405.55 2.445.773 2.406.069 2.407 1.21 2.404 1.571 2.405.448 2.445-2.154 2.327.864" fill="none" stroke="#17becf" stroke-linecap="square" stroke-width="1.5" id="line2d_1"/><g id="matplotlib.axis_1"><g id="xtick_1"><g id="line2d_2"><defs><path d="M0 0v3.5" id="m129f964105" stroke="#969696" stroke-width=".4"/></defs><use x="74.23" xlink:href="#m129f964105" y="313.628" fill="#969696" stroke="#969696" stroke-width=".4"/></g><g transform="matrix(.14 0 0 -.14 58.66 330.678)" fill="#969696" id="text_1"><defs><path d="M4.39 45.125q0 12.39 6.391 18.781 6.406 6.407 17.938 6.407 9.656 0 15.812-5.86 6.157-5.86 6.157-15.14 0-7.22-3.547-12.188-3.532-4.953-10.422-8.703l-12.11-6.64Q13.922 15.921 12.5 8.296h38.188V0H2.593q.39 9.906 4.297 16.5 3.906 6.594 12.203 11.375l12.593 7.328q5.032 2.89 7.329 5.984 2.297 3.094 2.297 8.516 0 5.375-3.766 9.031-3.75 3.672-10.156 3.672-7.078 0-10.594-4.672-3.516-4.656-3.61-12.609z" id="HelveticaWorld-Regular-50"/><path d="M42.484 34.188q0 14.109-3.734 21.156-3.734 7.062-10.969 7.062-7.078 0-10.89-7.062-3.797-7.047-3.797-21.157 0-13.671 3.75-20.937Q20.609 6 27.78 6q7.235 0 10.969 7 3.734 7.016 3.734 21.188zm9.422 0q0-17.297-6.25-26.704-6.25-9.39-17.875-9.39-12.062 0-18.062 9.734-6 9.75-6 26.36 0 17.03 6.14 26.578 6.157 9.547 17.922 9.547 11.625 0 17.875-9.5t6.25-26.626z" id="HelveticaWorld-Regular-48"/><path d="M35.89 0h-9.374v49.906H10.109v6.985q8.594.28 12.782 2.75Q27.094 62.109 29 70.313h6.89z" id="HelveticaWorld-Regular-49"/></defs><use xlink:href="#HelveticaWorld-Regular-50"/><use x="55.615" xlink:href="#HelveticaWorld-Regular-48"/><use x="111.23" xlink:href="#HelveticaWorld-Regular-49"/><use x="166.846" xlink:href="#HelveticaWorld-Regular-48"/></g></g><g id="xtick_2"><use x="131.805" xlink:href="#m129f964105" y="313.628" fill="#969696" stroke="#969696" stroke-width=".4" id="line2d_3"/><g transform="matrix(.14 0 0 -.14 116.234 330.678)" fill="#969696" id="text_2"><use xlink:href="#HelveticaWorld-Regular-50"/><use x="55.615" xlink:href="#HelveticaWorld-Regular-48"/><use x="111.23" xlink:href="#HelveticaWorld-Regular-49"/><use x="166.846" xlink:href="#HelveticaWorld-Regular-50"/></g></g><g id="xtick_3"><use x="189.458" xlink:href="#m129f964105" y="313.628" fill="#969696" stroke="#969696" stroke-width=".4" id="line2d_4"/><g transform="matrix(.14 0 0 -.14 173.888 330.678)" fill="#969696" id="text_3"><defs><path d="M10.594 24.703h22.61v31.89h-.188zM42 17.093V0h-8.797v17.094H2.484v8.593L34.72 70.314H42v-45.61h10.297v-7.61z" id="HelveticaWorld-Regular-52"/></defs><use xlink:href="#HelveticaWorld-Regular-50"/><use x="55.615" xlink:href="#HelveticaWorld-Regular-48"/><use x="111.23" xlink:href="#HelveticaWorld-Regular-49"/><use x="166.846" xlink:href="#HelveticaWorld-Regular-52"/></g></g><g id="xtick_4"><use x="247.033" xlink:href="#m129f964105" y="313.628" fill="#969696" stroke="#969696" stroke-width=".4" id="line2d_5"/><g transform="matrix(.14 0 0 -.14 231.462 330.678)" fill="#969696" id="text_4"><defs><path d="M14.11 21.578q0-6.875 4.093-11.234Q22.313 6 28.906 6q6.297 0 10.032 4.438 3.734 4.453 3.734 11.687 0 6.297-3.688 10.547-3.687 4.25-10.468 4.25-6.594 0-10.5-4.156-3.907-4.157-3.907-11.188zM41.702 51.61q-.984 5.375-3.984 8.078-3 2.72-8.125 2.72-8.11 0-12.36-7.923-4.25-7.906-4.343-18.109l.203-.188q5.61 8.641 16.687 8.641 8.844 0 15.438-5.86 6.593-5.859 6.593-16.452 0-10.5-6.25-17.47-6.25-6.952-16.843-6.952-12.219 0-18.563 8.687-6.344 8.703-6.344 25.938 0 16.593 6.485 27.093 6.5 10.5 19.484 10.5 8.407 0 14.219-5.015 5.813-5 6.297-13.688z" id="HelveticaWorld-Regular-54"/></defs><use xlink:href="#HelveticaWorld-Regular-50"/><use x="55.615" xlink:href="#HelveticaWorld-Regular-48"/><use x="111.23" xlink:href="#HelveticaWorld-Regular-49"/><use x="166.846" xlink:href="#HelveticaWorld-Regular-54"/></g></g><g id="xtick_5"><use x="304.686" xlink:href="#m129f964105" y="313.628" fill="#969696" stroke="#969696" stroke-width=".4" id="line2d_6"/><g transform="matrix(.14 0 0 -.14 289.115 330.678)" fill="#969696" id="text_5"><defs><path d="M27.594 40.578q5.422 0 8.953 3.094 3.547 3.11 3.547 8.234 0 4.594-3.407 7.547-3.39 2.953-9.687 2.953-5.61 0-8.672-3.11-3.047-3.093-3.047-7.874 0-5.125 3.813-7.984 3.812-2.86 8.5-2.86zm.093-7.562q-6.78 0-10.64-3.766-3.86-3.766-3.86-9.234 0-6.297 3.907-10.157Q21 6 28.219 6q6.406 0 10.234 3.86 3.828 3.859 3.828 10.265 0 5.469-3.828 9.172-3.828 3.719-10.766 3.719zM49.22 52.203q0-10.594-9.032-14.797 6.204-2.781 8.86-7.36 2.656-4.562 2.656-9.733 0-10.016-6.453-16.125-6.438-6.094-17.375-6.094-9.563 0-16.813 5.25-7.25 5.25-7.25 17.062 0 11.922 11.907 16.907-9.516 3.796-9.516 13.671 0 8.297 5.64 13.813 5.641 5.516 15.641 5.516 10.016 0 15.875-5.204 5.86-5.203 5.86-12.906z" id="HelveticaWorld-Regular-56"/></defs><use xlink:href="#HelveticaWorld-Regular-50"/><use x="55.615" xlink:href="#HelveticaWorld-Regular-48"/><use x="111.23" xlink:href="#HelveticaWorld-Regular-49"/><use x="166.846" xlink:href="#HelveticaWorld-Regular-56"/></g></g><g id="xtick_6"><use x="362.261" xlink:href="#m129f964105" y="313.628" fill="#969696" stroke="#969696" stroke-width=".4" id="line2d_7"/><g transform="matrix(.14 0 0 -.14 346.69 330.678)" fill="#969696" id="text_6"><use xlink:href="#HelveticaWorld-Regular-50"/><use x="55.615" xlink:href="#HelveticaWorld-Regular-48"/><use x="111.23" xlink:href="#HelveticaWorld-Regular-50"/><use x="166.846" xlink:href="#HelveticaWorld-Regular-48"/></g></g></g><g id="matplotlib.axis_2"><g id="ytick_1"><path clip-path="url(#pe2c42169be)" d="M37.556 313.628h357.12" fill="none" stroke="#969696" stroke-linecap="square" stroke-width=".3" id="line2d_8"/><g id="line2d_9"><defs><path d="M0 0h-3.5" id="me04af1ff0e" stroke="#969696" stroke-width=".3"/></defs><use x="37.556" xlink:href="#me04af1ff0e" y="313.628" fill="#969696" stroke="#969696" stroke-width=".3"/></g><use xlink:href="#HelveticaWorld-Regular-48" transform="matrix(.14 0 0 -.14 22.77 318.653)" fill="#969696" id="text_7"/></g><g id="ytick_2"><path clip-path="url(#pe2c42169be)" d="M37.556 261.476h357.12" fill="none" stroke="#969696" stroke-linecap="square" stroke-width=".3" id="line2d_10"/><use x="37.556" xlink:href="#me04af1ff0e" y="261.476" fill="#969696" stroke="#969696" stroke-width=".3" id="line2d_11"/><g transform="matrix(.14 0 0 -.14 14.985 266.5)" fill="#969696" id="text_8"><defs><path d="M14.703 40.922q5.813 4.39 13.625 4.39 9.469 0 16.281-6.296 6.813-6.297 6.813-16.22 0-10.78-6.578-17.796-6.563-7-18.422-7-10.313 0-16.266 5.047Q4.203 8.109 3.22 17.39h9.094q.671-5.672 4.437-8.672 3.766-3 10.453-3 6.485 0 10.64 4.484Q42 14.703 42 21.688q0 7.125-4.36 11.421-4.343 4.297-11.218 4.297-7.813 0-13.047-6.687l-7.563.39 5.266 37.594h36.438v-8.5H17.672z" id="HelveticaWorld-Regular-53"/></defs><use xlink:href="#HelveticaWorld-Regular-53"/><use x="55.615" xlink:href="#HelveticaWorld-Regular-48"/></g></g><g id="ytick_3"><path clip-path="url(#pe2c42169be)" d="M37.556 209.323h357.12" fill="none" stroke="#969696" stroke-linecap="square" stroke-width=".3" id="line2d_12"/><use x="37.556" xlink:href="#me04af1ff0e" y="209.323" fill="#969696" stroke="#969696" stroke-width=".3" id="line2d_13"/><g transform="matrix(.14 0 0 -.14 7.2 214.348)" fill="#969696" id="text_9"><use xlink:href="#HelveticaWorld-Regular-49"/><use x="55.615" xlink:href="#HelveticaWorld-Regular-48"/><use x="111.23" xlink:href="#HelveticaWorld-Regular-48"/></g></g><g id="ytick_4"><path clip-path="url(#pe2c42169be)" d="M37.556 157.17h357.12" fill="none" stroke="#969696" stroke-linecap="square" stroke-width=".3" id="line2d_14"/><use x="37.556" xlink:href="#me04af1ff0e" y="157.171" fill="#969696" stroke="#969696" stroke-width=".3" id="line2d_15"/><g transform="matrix(.14 0 0 -.14 7.2 162.196)" fill="#969696" id="text_10"><use xlink:href="#HelveticaWorld-Regular-49"/><use x="55.615" xlink:href="#HelveticaWorld-Regular-53"/><use x="111.23" xlink:href="#HelveticaWorld-Regular-48"/></g></g><g id="ytick_5"><path clip-path="url(#pe2c42169be)" d="M37.556 105.019h357.12" fill="none" stroke="#969696" stroke-linecap="square" stroke-width=".3" id="line2d_16"/><use x="37.556" xlink:href="#me04af1ff0e" y="105.019" fill="#969696" stroke="#969696" stroke-width=".3" id="line2d_17"/><g transform="matrix(.14 0 0 -.14 7.2 110.043)" fill="#969696" id="text_11"><use xlink:href="#HelveticaWorld-Regular-50"/><use x="55.615" xlink:href="#HelveticaWorld-Regular-48"/><use x="111.23" xlink:href="#HelveticaWorld-Regular-48"/></g></g><g id="ytick_6"><path clip-path="url(#pe2c42169be)" d="M37.556 52.866h357.12" fill="none" stroke="#969696" stroke-linecap="square" stroke-width=".3" id="line2d_18"/><use x="37.556" xlink:href="#me04af1ff0e" y="52.866" fill="#969696" stroke="#969696" stroke-width=".3" id="line2d_19"/><g transform="matrix(.14 0 0 -.14 7.2 57.89)" fill="#969696" id="text_12"><use xlink:href="#HelveticaWorld-Regular-50"/><use x="55.615" xlink:href="#HelveticaWorld-Regular-53"/><use x="111.23" xlink:href="#HelveticaWorld-Regular-48"/></g></g></g><path clip-path="url(#pe2c42169be)" d="M274.676 313.628l2.445-.033 2.327.033 2.325-.168 2.407-.145 2.406-.057 2.405-.151 2.406-.05 2.445.134 2.405-.119 2.407-.117 2.404-.196 2.406-.241 2.445-.034 2.326-.271 2.325.271 2.407.032 2.406-.94 2.405-.277 2.406-.834 2.445.034 2.405-.8 2.408-1.017 2.403 1.504 2.406-.293 2.445-1.144 2.327-.075 2.325-1.674 2.407.057 2.405 1.12 2.406-.877 2.405-.67 2.445-1.178 2.406.006 2.407-.107 2.404.698 2.405-.193 2.445-1.582 2.366-.429 2.365 1.069 2.407-1.542 2.405-.578 2.406 1.273 2.405-1.172 2.445 2.153 2.406-1.78 2.407.132 2.404.32 2.405.925 2.445-1.279 2.327-.95" fill="none" stroke="#bcbd22" stroke-linecap="square" stroke-width="1.5" id="line2d_20"/><path clip-path="url(#pe2c42169be)" d="M269.867 313.628l2.404-.035 2.405-.032 2.445.067h2.327l2.325-.1 2.407.03 2.406-.502 2.405.05 2.406-.15 2.445.268 2.405-.256 2.407-.013 2.404-.057 2.406-.178 2.445.1 2.326.138 2.325-.306 2.407-.067 2.406.168 2.405-.376 2.406.14 2.445-.268 2.405-.011 2.408-.326 2.403-.405 2.406.136 2.445-1.615 2.327.583 2.325-.785 2.407.5 2.405-.97 2.406.691 2.405-.927 2.445.673 2.406-1.797 2.407.249 2.404-.075 2.405.007 2.445-1.312 2.366-1.617 2.365.036 2.407-3.894 2.405.664 2.406-.595 2.405.023 2.445-.135 2.406-.965 2.407.023 2.404-3.5 2.405 1.414 2.445-5.82 2.327-3.122" fill="none" stroke="#7f7f7f" stroke-linecap="square" stroke-width="1.5" id="line2d_21"/><g transform="matrix(.14 0 0 -.14 398.247 100.005)" fill="#1f77b4" id="text_13"><defs><path d="M49.219 0h-8.844v32.172q0 7.422-2.594 10.578-2.578 3.156-8.578 3.156-5.906 0-9.875-4.5-3.953-4.484-3.953-12.89V0H6.594v52.297h8.297v-7.375h.203q6.203 8.89 15.812 8.89 8.89 0 13.594-4.718 4.719-4.703 4.719-13.5z" id="HelveticaWorld-Regular-110"/><path d="M12.703 26.219q0-8.735 3.953-14.375 3.953-5.64 11.219-5.64 7.531 0 11.438 5.905 3.906 5.907 3.906 14.11 0 8.297-3.907 14.078-3.906 5.797-11.437 5.797-6.969 0-11.078-5.453-4.094-5.438-4.094-14.422zm-8.984 0q0 11.672 6.484 19.625 6.5 7.968 17.672 7.968 11.438 0 17.875-8.062 6.453-8.047 6.453-19.531 0-11.516-6.406-19.625-6.39-8.11-17.922-8.11-11.078 0-17.625 7.86-6.531 7.86-6.531 19.875z" id="HelveticaWorld-Regular-111"/><path d="M13.094 26.313q0-9.704 3.844-14.954 3.859-5.25 10.265-5.25 6.094 0 10.188 4.485 4.109 4.5 4.109 13.094 0 11.03-3.5 16.625-3.484 5.593-10.61 5.593-6.78 0-10.546-4.453-3.75-4.437-3.75-15.14zM50.39 0h-8.297v7.172h-.203q-4.97-8.688-15.078-8.688-10.891 0-16.86 8.297Q4 15.094 4 27.688q0 11.625 5.906 18.875 5.922 7.25 15.875 7.25 9.813 0 15.625-8.891l.203.594V71.78h8.782z" id="HelveticaWorld-Regular-100"/><path d="M42.484 30.328q-.687 8.485-4.5 12.031-3.797 3.547-10.109 3.547-6.39 0-10.328-4.5-3.922-4.484-4.172-11.078zm8.391-13.922q-1.453-8.11-7.953-13.422-5.719-4.5-15.047-4.593-10.984.093-17.438 7.203Q4 12.704 4 24.704q0 13.78 6.64 21.437 6.641 7.672 18.47 7.672 10.593 0 16.546-7.922 5.953-7.907 5.953-22.594H13.375q0-8.203 3.813-12.703Q21 6.109 28.608 6.109q5.375 0 9.235 3.235 3.86 3.25 4.25 7.062z" id="HelveticaWorld-Regular-101"/><path d="M19.094 0H8.687v10.594h10.407z" id="HelveticaWorld-Regular-46"/><path d="M15.375 61.813H6.594v9.968h8.781zm0-69.532q0-7.468-3.547-10.375Q8.297-21 2-21q-1.797 0-3.703.297v7.61H.594q3.703 0 4.843 1.109 1.157 1.093 1.157 5.296v58.985h8.781z" id="HelveticaWorld-Regular-106"/><path d="M36.078 37.406q-.187 4.688-3.344 6.735-3.14 2.047-9.047 2.047-4.296 0-7.359-1.907-3.047-1.89-3.047-5.468 0-2.829 1.797-4.172 1.813-1.344 7.828-2.86l8.688-2.187q7.906-2 11.297-5.11 3.406-3.093 3.406-8.656 0-7.719-5.64-12.531-5.641-4.813-15.063-4.813-11 0-16.64 4.563-5.626 4.578-5.735 13.75h8.5q.203-5.422 3.594-8.063 3.39-2.625 10.171-2.625 5.516 0 8.766 2.188 3.25 2.203 3.25 6.11 0 2.78-2.11 4.437-2.093 1.672-8.296 3.078l-10.203 2.5q-6.203 1.562-9.157 4.656-2.953 3.094-2.953 8.031 0 7.72 5.516 12.203 5.531 4.5 14.406 4.5 9.485 0 14.531-4.624 5.047-4.61 5.344-11.782z" id="HelveticaWorld-Regular-115"/></defs><use xlink:href="#HelveticaWorld-Regular-110"/><use x="55.176" xlink:href="#HelveticaWorld-Regular-111"/><use x="111.084" xlink:href="#HelveticaWorld-Regular-100"/><use x="168.066" xlink:href="#HelveticaWorld-Regular-101"/><use x="221.986" xlink:href="#HelveticaWorld-Regular-46"/><use x="249.77" xlink:href="#HelveticaWorld-Regular-106"/><use x="271.791" xlink:href="#HelveticaWorld-Regular-115"/></g><g transform="matrix(.14 0 0 -.14 398.247 195.671)" fill="#ff7f0e" id="text_14"><defs><path d="M38.375 26.703q-.969-1.015-3.828-1.656-2.86-.625-10.672-1.656-5.766-.688-8.469-2.844-2.703-2.14-2.703-5.656 0-4.297 2.281-6.688 2.297-2.39 7.329-2.39 6.296 0 11.171 3.578 4.891 3.593 4.891 8.718zM6.203 36.375q.297 8.844 5.734 13.14 5.454 4.297 15.844 4.297 8.297 0 13.907-3.765 5.624-3.75 5.624-10.844V9.078Q47.313 6 50.094 6q1.125 0 2.89.39V0Q50.594-.984 48-.984q-4.5 0-6.703 1.921-2.188 1.938-2.281 6.047-7.516-8.5-18.891-8.5-7.422 0-11.922 4.204Q3.72 6.89 3.72 13.624q0 6.89 3.906 11.125Q11.531 29 19 29.89l15.516 1.891q4.203.64 4.203 6.203 0 4.11-3.047 6.297-3.047 2.203-9.25 2.203-5.516 0-8.485-2.437-2.953-2.438-3.53-7.672z" id="HelveticaWorld-Regular-97"/><path d="M12.984 26.313q0-9.61 3.813-14.907Q20.609 6.11 27.094 6.11q6.312 0 10.312 4.579 4 4.593 4 13 0 11.03-3.5 16.625-3.484 5.593-10.61 5.593-7.171 0-10.75-4.765-3.562-4.766-3.562-14.828zM49.812 2.983q0-12.609-6.062-18.797-6.047-6.203-18.266-6.203-8.78 0-13.984 4.047Q6.297-13.922 5.516-6.39h8.796q.672-3.812 3.532-6.062 2.86-2.25 8.281-2.25 7.375 0 11.125 3.969 3.766 3.953 3.766 12.828v3.719h-.188q-4.937-7.329-13.922-7.329-11.187 0-17.093 8.25-5.907 8.25-5.907 20.953 0 11.625 5.953 18.875 5.97 7.25 15.829 7.25 9.906 0 15.625-8.89h.187v7.375h8.313z" id="HelveticaWorld-Regular-103"/></defs><use xlink:href="#HelveticaWorld-Regular-100"/><use x="56.982" xlink:href="#HelveticaWorld-Regular-106"/><use x="79.004" xlink:href="#HelveticaWorld-Regular-97"/><use x="133.936" xlink:href="#HelveticaWorld-Regular-110"/><use x="189.111" xlink:href="#HelveticaWorld-Regular-103"/><use x="245.02" xlink:href="#HelveticaWorld-Regular-111"/></g><g transform="matrix(.14 0 0 -.14 398.247 221.131)" fill="#2ca02c" id="text_15"><defs><path d="M15.375 0H6.594v71.781h8.781z" id="HelveticaWorld-Regular-108"/><path d="M15.375 0H6.594v52.297h8.297v-8.688h.203q5.703 10.203 14.687 10.203 1.422 0 2.297-.296V44.39h-3.266q-5.906 0-9.671-4.016-3.766-4-3.766-9.953z" id="HelveticaWorld-Regular-114"/><path d="M39.406 52.297h9.625L29.11 0h-9.437L.594 52.297h10.203L24.422 9.719h.187z" id="HelveticaWorld-Regular-118"/></defs><use xlink:href="#HelveticaWorld-Regular-108"/><use x="22.021" xlink:href="#HelveticaWorld-Regular-97"/><use x="76.953" xlink:href="#HelveticaWorld-Regular-114"/><use x="108.521" xlink:href="#HelveticaWorld-Regular-97"/><use x="161.203" xlink:href="#HelveticaWorld-Regular-118"/><use x="208.813" xlink:href="#HelveticaWorld-Regular-101"/><use x="264.232" xlink:href="#HelveticaWorld-Regular-108"/></g><g transform="matrix(.14 0 0 -.14 398.247 244.943)" fill="#d62728" id="text_16"><defs><path d="M14.984 23.688q0-8.407 4.094-13 4.11-4.579 10.219-4.579 6.687 0 10.39 5.438 3.72 5.453 3.72 14.765 0 10.22-3.563 14.907-3.563 4.687-10.735 4.687-6.984 0-10.562-5.5-3.563-5.5-3.563-16.718zm-8.39 28.609h8.297v-7.375h.203q5.61 8.89 15.625 8.89 10.11 0 15.937-7.359 5.828-7.344 5.828-18.766 0-12.796-5.953-21Q40.578-1.515 29.5-1.515q-9.094 0-13.922 7.032h-.203v-26.22H6.594z" id="HelveticaWorld-Regular-112"/><path d="M6.594 61.813v9.968h8.781v-9.969zM15.375 0H6.594v52.297h8.781z" id="HelveticaWorld-Regular-105"/></defs><use xlink:href="#HelveticaWorld-Regular-115"/><use x="50" xlink:href="#HelveticaWorld-Regular-112"/><use x="106.494" xlink:href="#HelveticaWorld-Regular-114"/><use x="139.063" xlink:href="#HelveticaWorld-Regular-105"/><use x="161.084" xlink:href="#HelveticaWorld-Regular-110"/><use x="216.26" xlink:href="#HelveticaWorld-Regular-103"/></g><g transform="matrix(.14 0 0 -.14 398.247 259.035)" fill="#9467bd" id="text_17"><defs><path d="M49.031 0H37.703l-12.89 19.672L12.203 0H1.125l18.266 26.906L2 52.296h11.188l12.109-18.405L37.5 52.297h10.688l-17.579-25.39z" id="HelveticaWorld-Regular-120"/></defs><use xlink:href="#HelveticaWorld-Regular-101"/><use x="52.545" xlink:href="#HelveticaWorld-Regular-120"/><use x="102.545" xlink:href="#HelveticaWorld-Regular-112"/><use x="159.039" xlink:href="#HelveticaWorld-Regular-114"/><use x="190.607" xlink:href="#HelveticaWorld-Regular-101"/><use x="246.027" xlink:href="#HelveticaWorld-Regular-115"/><use x="296.027" xlink:href="#HelveticaWorld-Regular-115"/></g><g transform="matrix(.14 0 0 -.14 398.247 273.035)" fill="#8c564b" id="text_18"><defs><path d="M17.188 45.016V0H8.405v45.016H1.22v7.28h7.187v8.985q0 5.907 3.578 8.703 3.594 2.813 10.032 2.813 2.203 0 3.968-.188v-7.906q-1.562.188-3.578.188-2.922 0-4.078-1.438-1.14-1.437-1.14-4.656v-6.5h8.796v-7.281z" id="HelveticaWorld-Regular-102"/><path d="M50 0H38.719L22.406 26.422l-7.312-6.594V0h-8.5v71.781h8.5v-41.61l22.5 22.126H48.78L28.813 32.813z" id="HelveticaWorld-Regular-107"/></defs><use xlink:href="#HelveticaWorld-Regular-102"/><use x="27.686" xlink:href="#HelveticaWorld-Regular-108"/><use x="49.707" xlink:href="#HelveticaWorld-Regular-97"/><use x="104.639" xlink:href="#HelveticaWorld-Regular-115"/><use x="154.639" xlink:href="#HelveticaWorld-Regular-107"/></g><g transform="matrix(.14 0 0 -.14 398.247 286.987)" fill="#e377c2" id="text_19"><defs><path d="M6.11 52.297h8.78V17.578q0-5.765 2.61-8.625Q20.125 6.11 25 6.11q6.781 0 10.594 4.797 3.812 4.813 3.812 12.578v28.813h8.782V0H39.89v7.625l-.188.188q-4.984-9.329-16.61-9.329-7.515 0-12.25 4.094Q6.11 6.688 6.11 14.703z" id="HelveticaWorld-Regular-117"/><path d="M43.406 26.313q0 10.5-3.718 15.046-3.704 4.547-10.579 4.547-6.984-.11-10.562-5.453Q14.984 35.11 14.984 25q0-10.297 4.297-14.594Q23.578 6.11 29.297 6.11q6.5 0 10.297 5.344 3.812 5.344 3.812 14.86zM6.594 0v71.781h8.781V45.703h.203q5.61 8.11 15.14 8.11 9.766 0 15.766-7.25t6-18.876q0-13.093-6.062-21.156Q40.375-1.516 29.5-1.516q-9.578 0-14.406 8.016h-.203V0z" id="HelveticaWorld-Regular-98"/><path d="M39.016 52.297h9.562L29.891.984q-.5-1.375-.985-2.593-4.25-11.329-7.328-15.547-3.078-4.235-9.953-4.235-3.61 0-5.906.782v8.015q2.484-.89 5.468-.89 3.22 0 4.704 2.03 1.5 2.032 4.421 9.938L.875 52.297h9.922L24.812 9.719H25z" id="HelveticaWorld-Regular-121"/><path d="M28.906 23.188H4.391v8.984h24.515z" id="HelveticaWorld-Regular-45"/></defs><use xlink:href="#HelveticaWorld-Regular-114"/><use x="32.568" xlink:href="#HelveticaWorld-Regular-117"/><use x="87.354" xlink:href="#HelveticaWorld-Regular-98"/><use x="141.848" xlink:href="#HelveticaWorld-Regular-121"/><use x="191.457" xlink:href="#HelveticaWorld-Regular-45"/><use x="224.758" xlink:href="#HelveticaWorld-Regular-111"/><use x="280.666" xlink:href="#HelveticaWorld-Regular-110"/><use x="335.842" xlink:href="#HelveticaWorld-Regular-45"/><use x="369.143" xlink:href="#HelveticaWorld-Regular-114"/><use x="400.711" xlink:href="#HelveticaWorld-Regular-97"/><use x="455.643" xlink:href="#HelveticaWorld-Regular-105"/><use x="477.664" xlink:href="#HelveticaWorld-Regular-108"/><use x="499.686" xlink:href="#HelveticaWorld-Regular-115"/></g><g transform="matrix(.14 0 0 -.14 398.247 301.014)" fill="#7f7f7f" id="text_20"><defs><path d="M17.188 45.016V10.984q0-2 1.093-3.046 1.11-1.047 3.938-1.047h3.375V0Q20.797-.688 19-.688q-5.516 0-8.063 2.641-2.53 2.64-2.53 8.547v34.516H1.311v7.28h7.094v14.595h8.781V52.297h8.407v-7.281z" id="HelveticaWorld-Regular-116"/></defs><use xlink:href="#HelveticaWorld-Regular-110"/><use x="55.176" xlink:href="#HelveticaWorld-Regular-101"/><use x="107.721" xlink:href="#HelveticaWorld-Regular-120"/><use x="157.721" xlink:href="#HelveticaWorld-Regular-116"/><use x="185.406" xlink:href="#HelveticaWorld-Regular-46"/><use x="213.189" xlink:href="#HelveticaWorld-Regular-106"/><use x="235.211" xlink:href="#HelveticaWorld-Regular-115"/></g><g transform="matrix(.14 0 0 -.14 398.247 315.014)" fill="#bcbd22" id="text_21"><use xlink:href="#HelveticaWorld-Regular-110"/><use x="55.176" xlink:href="#HelveticaWorld-Regular-117"/><use x="109.961" xlink:href="#HelveticaWorld-Regular-120"/><use x="159.961" xlink:href="#HelveticaWorld-Regular-116"/><use x="187.646" xlink:href="#HelveticaWorld-Regular-46"/><use x="215.43" xlink:href="#HelveticaWorld-Regular-106"/><use x="237.451" xlink:href="#HelveticaWorld-Regular-115"/></g><g transform="matrix(.14 0 0 -.14 398.247 328.943)" fill="#17becf" id="text_22"><use xlink:href="#HelveticaWorld-Regular-103"/><use x="55.908" xlink:href="#HelveticaWorld-Regular-97"/><use x="110.84" xlink:href="#HelveticaWorld-Regular-116"/><use x="138.525" xlink:href="#HelveticaWorld-Regular-115"/><use x="188.525" xlink:href="#HelveticaWorld-Regular-98"/><use x="243.02" xlink:href="#HelveticaWorld-Regular-121"/></g><g transform="matrix(.09716 0 0 -.09716 37.556 347.399)" fill="#969696" id="text_23"><defs><path d="M50.39 50.781q-.296 6.844-5.109 10.719-4.797 3.875-12.656 3.875-7.922 0-12.172-3.25-4.234-3.234-4.234-9.344 0-3.265 1.843-5.61 1.86-2.343 6.641-3.468l20.516-4.687q8.297-1.813 12.297-6.875 4.015-5.047 4.015-12.313 0-10.64-7.812-16.187-7.813-5.547-20.313-5.547-9.531 0-15.031 2.437-5.484 2.453-9.734 7.766-4.25 5.328-4.25 14.89h9.093q0-8 5.313-12.406 5.328-4.39 14.5-4.39 8.89 0 13.844 3.156 4.953 3.156 4.953 8.953 0 5.281-2.953 7.89Q46.188 29 37.594 31l-15.469 3.625q-7.719 1.75-11.531 6.125Q6.78 45.125 6.78 51.516q0 9.672 6.516 15.922 6.531 6.25 18.203 6.25 13.172 0 20.328-5.5 7.156-5.485 7.688-17.407z" id="HelveticaWorld-Regular-83"/><path d="M39.594 34.719q-1.89 11.187-12.39 11.187-6.5 0-10.454-5.203-3.953-5.203-3.953-14.484 0-10.11 3.656-15.11 3.672-5 10.64-5 4.688 0 8.11 3.438 3.422 3.437 4.39 8.953h8.5q-1.312-9.703-6.859-14.86-5.547-5.156-14.328-5.156-10.297 0-16.89 7.047-6.594 7.063-6.594 19.172 0 13.281 6.594 21.188 6.593 7.922 18.5 7.922 8.687 0 13.843-5.204 5.157-5.203 5.735-13.89z" id="HelveticaWorld-Regular-99"/><path d="M63.922 35.89q0 12.594-6.672 20.891-6.656 8.313-18.328 8.313-11.531 0-18.266-8.313-6.734-8.297-6.734-20.89 0-12.985 6.828-21.094 6.844-8.11 18.172-8.11 11.078 0 18.031 7.907 6.969 7.922 6.969 21.297zm9.953 0q0-16.062-9.281-26.937-9.266-10.86-25.672-10.86-16.516 0-25.766 10.86-9.25 10.875-9.25 26.938 0 16.109 9.25 26.953 9.25 10.843 25.766 10.843 16.89 0 25.922-11.046 9.031-11.032 9.031-26.75z" id="HelveticaWorld-Regular-79"/><path d="M25.594 0h-8.985L1.516 52.297h9.468L21 11.187h.188l10.109 41.11h9.922l10.203-41.11h.187l10.594 41.11h8.703L55.812 0h-9.234L35.984 40.484h-.187z" id="HelveticaWorld-Regular-119"/><path d="M44 29.5L33.406 61.078h-.203L21.687 29.5zm-25.297-8.594L11.188 0h-9.97l27 71.781h10.985L65.187 0H54.594l-7.078 20.906z" id="HelveticaWorld-Regular-65"/><path d="M17.828 38.625H37.11q7.282 0 10.938 3.188 3.656 3.203 3.656 9.703 0 5.812-3.516 8.89-3.515 3.078-10.687 3.078H17.828zm0-38.625H8.11v71.781h32.266q9.625 0 15.484-5.594 5.86-5.593 5.86-14.578 0-9.328-5.672-15.312-5.656-5.969-15.672-5.969H17.828z" id="HelveticaWorld-Regular-80"/><path d="M17.828 0H8.11v71.781h9.72z" id="HelveticaWorld-Regular-73"/><path d="M9.422 73.688h7.281V-1.906H9.422z" id="HelveticaWorld-Regular-124"/><path d="M55.61 71.781h9.374V0h-10.78L17.577 58.016h-.187V0H8.109v71.781h11.375l35.938-57.969h.187z" id="HelveticaWorld-Regular-78"/><path d="M49.219 0h-8.844v34.188q0 6.296-2.438 9-2.437 2.718-7.953 2.718-6.797 0-10.703-4.406-3.906-4.39-3.906-12.984V0H6.594v71.781h8.781V45.312h.203q6 8.5 15.328 8.5 8.594 0 13.453-4.5 4.86-4.484 4.86-13.718z" id="HelveticaWorld-Regular-104"/><path d="M12.703 26.219q0-8.735 3.953-14.375 3.953-5.64 11.219-5.64 7.531 0 11.438 5.905 3.906 5.907 3.906 14.11 0 8.297-3.907 14.078-3.906 5.797-11.437 5.797-6.969 0-11.078-5.453-4.094-5.438-4.094-14.422zm-8.984 0q0 11.672 6.484 19.625 6.5 7.968 17.672 7.968 11.438 0 17.875-8.062 6.453-8.047 6.453-19.531 0-11.516-6.406-19.625-6.39-8.11-17.922-8.11-11.078 0-17.625 7.86-6.531 7.86-6.531 19.875zm36.734 35.406H31.47v10.156h8.984zm-16.219 0H15.25v10.156h8.984z" id="HelveticaWorld-Regular-246"/><path d="M6.594 52.297h8.297v-7.375h.203q5.906 8.89 15.812 8.89 9.813 0 13.922-8.5 3.75 4.594 7.266 6.547 3.515 1.953 8.703 1.953 6.781 0 11.484-4.453Q77 44.922 77 36.187V0h-8.781v33.797q0 6.094-2.297 9.094-2.297 3.015-7.422 3.015-5.172 0-8.75-4.203-3.563-4.203-3.563-9.812V0h-8.78v36.188q0 4.53-2.11 7.124-2.094 2.594-6.094 2.594-6.297 0-10.062-4.687-3.766-4.688-3.766-12.703V0H6.594z" id="HelveticaWorld-Regular-109"/><path d="M58.016 50.203q-1.625 7.313-6.782 11.094-5.14 3.797-13.343 3.797-10.594 0-17.047-7.703-6.438-7.688-6.438-20.766 0-15.14 6.094-22.547 6.11-7.39 17.688-7.39 7.609 0 13.093 5.046 5.5 5.063 7.407 14.688h9.421Q66.22 12.594 57.625 5.344t-20.906-7.25q-14.703 0-23.516 10.11Q4.391 18.311 4.391 36.28q0 17.328 9.203 27.36 9.203 10.047 24.297 10.047 12.5 0 20.265-6.454 7.766-6.437 9.235-17.03z" id="HelveticaWorld-Regular-67"/><path d="M8.11 71.781h31.484q9.281 0 14.797-5.031 5.515-5.031 5.515-13.031 0-4.844-2.422-8.828-2.406-3.97-7.187-6.172 6.687-2.532 9.828-6.735 3.156-4.203 3.156-10.797 0-9.265-6.687-15.234Q49.906 0 38.922 0H8.109zm9.562-63.484h20.703q7.625 0 11.422 3.531 3.812 3.547 3.812 9.563 0 6.093-4.25 9.093Q45.125 33.5 36.812 33.5h-19.14zm0 33.11h17.625q7.719 0 11.312 2.796 3.594 2.813 3.594 8.781 0 5.125-3.406 7.813-3.39 2.687-11.39 2.687H17.671z" id="HelveticaWorld-Regular-66"/><path d="M37.313 0h-9.72v28.906L.485 71.781h11.329l20.609-34.469 20.562 34.47h11.422L37.312 28.905z" id="HelveticaWorld-Regular-89"/></defs><use xlink:href="#HelveticaWorld-Regular-83"/><use x="66.211" xlink:href="#HelveticaWorld-Regular-116"/><use x="93.896" xlink:href="#HelveticaWorld-Regular-97"/><use x="148.828" xlink:href="#HelveticaWorld-Regular-99"/><use x="200.098" xlink:href="#HelveticaWorld-Regular-107"/><use x="250.098" xlink:href="#HelveticaWorld-Regular-79"/><use x="327.881" xlink:href="#HelveticaWorld-Regular-118"/><use x="375.49" xlink:href="#HelveticaWorld-Regular-101"/><use x="430.91" xlink:href="#HelveticaWorld-Regular-114"/><use x="464.979" xlink:href="#HelveticaWorld-Regular-102"/><use x="492.664" xlink:href="#HelveticaWorld-Regular-108"/><use x="514.686" xlink:href="#HelveticaWorld-Regular-111"/><use x="569.094" xlink:href="#HelveticaWorld-Regular-119"/><use x="641.506" xlink:href="#HelveticaWorld-Regular-32"/><use x="665.92" xlink:href="#HelveticaWorld-Regular-65"/><use x="732.619" xlink:href="#HelveticaWorld-Regular-80"/><use x="797.268" xlink:href="#HelveticaWorld-Regular-73"/><use x="823.049" xlink:href="#HelveticaWorld-Regular-32"/><use x="847.463" xlink:href="#HelveticaWorld-Regular-118"/><use x="897.072" xlink:href="#HelveticaWorld-Regular-105"/><use x="919.094" xlink:href="#HelveticaWorld-Regular-97"/><use x="974.025" xlink:href="#HelveticaWorld-Regular-32"/><use x="998.439" xlink:href="#HelveticaWorld-Regular-115"/><use x="1048.439" xlink:href="#HelveticaWorld-Regular-116"/><use x="1076.125" xlink:href="#HelveticaWorld-Regular-97"/><use x="1131.057" xlink:href="#HelveticaWorld-Regular-99"/><use x="1182.326" xlink:href="#HelveticaWorld-Regular-107"/><use x="1232.326" xlink:href="#HelveticaWorld-Regular-116"/><use x="1260.012" xlink:href="#HelveticaWorld-Regular-97"/><use x="1314.943" xlink:href="#HelveticaWorld-Regular-103"/><use x="1370.852" xlink:href="#HelveticaWorld-Regular-115"/><use x="1420.852" xlink:href="#HelveticaWorld-Regular-32"/><use x="1445.266" xlink:href="#HelveticaWorld-Regular-124"/><use x="1471.242" xlink:href="#HelveticaWorld-Regular-32"/><use x="1495.656" xlink:href="#HelveticaWorld-Regular-78"/><use x="1568.752" xlink:href="#HelveticaWorld-Regular-105"/><use x="1590.773" xlink:href="#HelveticaWorld-Regular-99"/><use x="1642.043" xlink:href="#HelveticaWorld-Regular-111"/><use x="1697.951" xlink:href="#HelveticaWorld-Regular-32"/><use x="1722.365" xlink:href="#HelveticaWorld-Regular-83"/><use x="1788.576" xlink:href="#HelveticaWorld-Regular-99"/><use x="1839.846" xlink:href="#HelveticaWorld-Regular-104"/><use x="1895.021" xlink:href="#HelveticaWorld-Regular-108"/><use x="1917.043" xlink:href="#HelveticaWorld-Regular-246"/><use x="1972.951" xlink:href="#HelveticaWorld-Regular-109"/><use x="2055.959" xlink:href="#HelveticaWorld-Regular-101"/><use x="2111.379" xlink:href="#HelveticaWorld-Regular-114"/><use x="2143.947" xlink:href="#HelveticaWorld-Regular-32"/><use x="2168.361" xlink:href="#HelveticaWorld-Regular-124"/><use x="2194.338" xlink:href="#HelveticaWorld-Regular-32"/><use x="2218.752" xlink:href="#HelveticaWorld-Regular-67"/><use x="2291.066" xlink:href="#HelveticaWorld-Regular-67"/><use x="2363.381" xlink:href="#HelveticaWorld-Regular-32"/><use x="2387.795" xlink:href="#HelveticaWorld-Regular-66"/><use x="2450.607" xlink:href="#HelveticaWorld-Regular-89"/></g><g transform="matrix(.14 0 0 -.14 80.05 17.516)" fill="#969696" id="text_24"><defs><path d="M17.828 8.297h18.797q9.766 0 15.281 7.5 5.516 7.5 5.516 20.484 0 12.844-5.563 19.969-5.562 7.125-16.062 7.234H17.828zM8.11 71.78h29.094q14.11 0 22.094-9.703 7.984-9.687 7.984-25.156 0-16.61-7.984-26.766Q51.313 0 36.813 0H8.108z" id="HelveticaWorld-Regular-68"/><path d="M41.5 23.688q0 11.125-3.5 16.671-3.484 5.547-10.61 5.547-6.874 0-10.593-4.5-3.703-4.484-3.703-15.093 0-9.422 3.75-14.813 3.765-5.39 10.36-5.39 5.812 0 10.046 4.39 4.25 4.39 4.25 13.188zm8.406-44.391H41.11V5.516h-.187Q35.89-1.516 27-1.516q-10.984 0-17 8.157-6 8.156-6 21.047 0 11.421 5.906 18.765 5.922 7.36 15.875 7.36 9.907 0 15.625-8.891h.203v7.375h8.297z" id="HelveticaWorld-Regular-113"/></defs><use xlink:href="#HelveticaWorld-Regular-68"/><use x="72.021" xlink:href="#HelveticaWorld-Regular-97"/><use x="126.953" xlink:href="#HelveticaWorld-Regular-105"/><use x="148.975" xlink:href="#HelveticaWorld-Regular-108"/><use x="170.996" xlink:href="#HelveticaWorld-Regular-121"/><use x="220.605" xlink:href="#HelveticaWorld-Regular-32"/><use x="245.02" xlink:href="#HelveticaWorld-Regular-110"/><use x="300.195" xlink:href="#HelveticaWorld-Regular-117"/><use x="354.98" xlink:href="#HelveticaWorld-Regular-109"/><use x="437.988" xlink:href="#HelveticaWorld-Regular-98"/><use x="494.482" xlink:href="#HelveticaWorld-Regular-101"/><use x="549.902" xlink:href="#HelveticaWorld-Regular-114"/><use x="582.471" xlink:href="#HelveticaWorld-Regular-32"/><use x="606.885" xlink:href="#HelveticaWorld-Regular-111"/><use x="662.793" xlink:href="#HelveticaWorld-Regular-102"/><use x="690.479" xlink:href="#HelveticaWorld-Regular-32"/><use x="714.893" xlink:href="#HelveticaWorld-Regular-113"/><use x="771.387" xlink:href="#HelveticaWorld-Regular-117"/><use x="826.172" xlink:href="#HelveticaWorld-Regular-101"/><use x="881.592" xlink:href="#HelveticaWorld-Regular-115"/><use x="931.592" xlink:href="#HelveticaWorld-Regular-116"/><use x="959.277" xlink:href="#HelveticaWorld-Regular-105"/><use x="981.299" xlink:href="#HelveticaWorld-Regular-111"/><use x="1037.207" xlink:href="#HelveticaWorld-Regular-110"/><use x="1092.383" xlink:href="#HelveticaWorld-Regular-115"/><use x="1142.383" xlink:href="#HelveticaWorld-Regular-32"/><use x="1166.797" xlink:href="#HelveticaWorld-Regular-111"/><use x="1222.705" xlink:href="#HelveticaWorld-Regular-110"/><use x="1277.881" xlink:href="#HelveticaWorld-Regular-32"/><use x="1302.295" xlink:href="#HelveticaWorld-Regular-83"/><use x="1368.506" xlink:href="#HelveticaWorld-Regular-116"/><use x="1396.191" xlink:href="#HelveticaWorld-Regular-97"/><use x="1451.123" xlink:href="#HelveticaWorld-Regular-99"/><use x="1502.393" xlink:href="#HelveticaWorld-Regular-107"/><use x="1552.393" xlink:href="#HelveticaWorld-Regular-79"/><use x="1630.176" xlink:href="#HelveticaWorld-Regular-118"/><use x="1677.785" xlink:href="#HelveticaWorld-Regular-101"/><use x="1733.205" xlink:href="#HelveticaWorld-Regular-114"/><use x="1767.273" xlink:href="#HelveticaWorld-Regular-102"/><use x="1794.959" xlink:href="#HelveticaWorld-Regular-108"/><use x="1816.98" xlink:href="#HelveticaWorld-Regular-111"/><use x="1871.389" xlink:href="#HelveticaWorld-Regular-119"/></g><path clip-path="url(#pe2c42169be)" d="M37.556 300.981l1.855 5.01 2.404 1.9 2.405-.084 2.445-3.129 2.327-.81 2.325-2.487 2.407-.965 2.406-4.385 2.405-3.403 2.406-1.14 2.445-2.287 2.405-.189 2.407-1.628 2.404-1.988 2.406-.435 2.445-6.864 2.326-4.105 2.325.202 2.407-.619 2.406-3.553 2.405-3.261 2.406-2.896 2.445-1.077 2.405-6.215 2.408-8.287 2.403-.266 2.406-1.517 2.445-9.421 2.327-11.293 2.325-8.929 2.407 10.334 2.405-.744 2.406-.473 2.405.338 2.445-9.556 2.406 5.046 2.407 3.87 2.404-4.252 2.405 9.165 4.811-25.796 2.365-2.87 2.407 3.473 2.405.53 2.406 1.52 2.405-9.83 2.445 2.49 2.406 13.425 2.407-11.542 2.404-.418 2.405 12.464 2.445-16.924 2.327-7.456 2.325-4.22 2.407.595 2.406 9.836 2.405-.414 2.406-10.993 2.445-8.882 2.405 3.012 2.407-2.575 2.404 8.938 2.406 4.386 2.445-12.584 2.326-6.246 2.325 1.2 2.407 5.386 2.406 6.053 2.405 5.734 2.406-2.268 2.445 8.142 2.405 12.588 2.408.232 2.403-1.588 2.406 6.601 2.445-6.73 2.327-7.97 2.325-2.83 4.812-.807 2.406-8.36 2.405-1.095 2.445 7.671 2.406 6.531 2.407 5.885 2.404 4.893 2.405 2.005 2.445-11.541 2.366-5.159 2.365 5.495 2.407-6.863 2.405 17.798 2.406-5.942 2.405 10.35 2.445.505 2.406 3.018 2.407 10.777 2.404-1.633 2.405 7.588 2.445-5.888 2.327-1.665 2.325 1.699 2.407 10.991 2.406-1.166 2.405 3.287 2.406-.326 2.445 4.542 2.405 7.362 2.407-2.517 2.404 2.552 2.406 8.181 2.445-6.998 2.326 2.678 2.325-1.77 2.407 2.08 2.406 3.203 2.405 2.36 2.406 1.913 2.445-2.086 2.405 2.33 2.408-5.796 2.403 6.421 2.406 4.548 2.445-10.767 2.327 2.37 2.325 1.365 2.407 4.779 2.405 2.69 2.406 1.413 2.405-2.556 2.445 2.018 2.406-1.166 2.407.426 2.404-.078 2.405 3.275 2.445-4.442 2.366 3.205 2.365-3.238 2.407-6.97 2.405 5.826 2.406 5.125 2.405-2.164 2.445 7.2 2.406 3.448 2.407-.554 2.404 1.11 2.405.706 2.445-4.811 2.327.156h0" fill="none" stroke="#e377c2" stroke-linecap="square" stroke-width="1.5" id="line2d_22"/><path clip-path="url(#pe2c42169be)" d="M84.917 313.628l7.256-.134 2.405-.283 2.408.148 7.254.135 2.327-.462 2.325.26 2.407.023 2.405-.158 2.406.089 4.85-.493 2.406.11 2.407-.278 7.254.135 2.366-.53 2.365-.143 2.407.121 2.405-.458 2.406-.898 2.405.26 2.445-.876 2.406.755 2.407.255 2.404-1.68 2.405-.003 2.445-1.177 2.327.179 2.325.931 2.407-1.043 2.406.135 2.405-.622 2.406-1.162 2.445.438 2.405 1.35 2.407-1.922 2.404.914 2.406.129 2.445-.976 2.326-2.68 2.325.93 2.407-.15 2.406 1.328 2.405-1.676 2.406.566 2.445.942 2.405.544 2.408-.746 2.403.224 2.406-.325 4.772-2.829 4.732.06 2.405.38 2.406-2.988 2.405.128 2.445 1.043 2.406.776 2.407.402 2.404 1.163 2.405-.827 2.445-2.12 7.138 2.703 2.405-1.222 2.406 1.083 2.405-1.251 2.445 2.086 2.406.347 2.407-.886 2.404-3.355 2.405-.278 2.445.975 2.327-.752 2.325-1.94 2.407 3.49 2.406-1.437 2.405-2.144 2.406 2.178 2.445-.572 2.405.271 2.407 1.243 2.404-.582 2.406 1.591 2.445-1.043 2.326-2.694 2.325-.233 2.407-3.288 2.406 1.673 2.405-.735 2.406-1.789 2.445-1.076 2.405 2.413 2.408.01 2.403-4.251 2.406.751 2.445 2.624 2.327-2.022 2.325-.165 2.407-1.814 2.405-1.517 2.406 4.994 2.405-10.983 2.445 2.591 2.406 1.09 2.407-3.916 2.404-1.23 2.405 2.98 2.445-1.616 2.366-3.54 2.365-3.324 2.407-12.961 2.405-3.357 2.406-3.076 2.405 5.6 2.445 9.69 2.406 5.64 2.407 3.276 2.404 6.078 2.405 2.367 2.445-9.59 2.327-1.26h0" fill="none" stroke="#8c564b" stroke-linecap="square" stroke-width="1.5" id="line2d_23"/><path clip-path="url(#pe2c42169be)" d="M77.78 313.628H99.388l4.85-.538 2.328.128 4.732-1.12 2.405-.085 2.406.26 2.405.077 2.445-1.413 2.406-.23 2.407.129 2.404.289 2.405-.424 2.445-1.447 2.366.634 2.365-.163 2.407-1.973 2.405.695 2.406-.59 4.85-1.463 2.406.698 2.407.076 2.404-1.328 2.405-.119 2.445-.908 2.327.36 2.325-1.84 2.407 1.499 4.811.417 2.406-1.58 2.445-1.918 2.405.195 2.407.074 2.404-1.117 2.406-1.474 2.445-.639 4.651-.606 2.407.042 2.406-.782 2.405 1.2 2.406-1.402 2.445-.235 2.405 3.375 4.811-2.782 2.406 1.661 2.445-2.793 4.652-.975 2.407.403 2.405-1.716 2.406-2.282 2.405.634 2.445.404 2.406-.169 2.407 1.11 2.404.837 2.405-.6 2.445-3.23 2.366-2.001 2.365.923 2.407-.933 2.405 1.303 2.406-2.068 2.405.184 2.445 1.48 2.406-2.185 2.407.604 2.404-2.586 2.405 5.75 2.445-4.375 2.327-2.78 2.325-.82 2.407 2.92 2.406.848 2.405.578 2.406-.51 2.445-.27 2.405.884 2.407-.345 2.404-2.054 2.406 5.317 2.445-6.258 2.326-2.116 2.325.77 2.407.375 2.406-.476 2.405 2.98 2.406-2.71 2.445-1.716 2.405.149 2.408-2.673 2.403 1.977 2.406 3.81 2.445-5.08 2.327-3.776 2.325 2.093 2.407-.141 2.405-2.382 2.406 4.607 2.405-5.751 2.445 3.634 2.406.066 2.407-2.152 2.404.135 2.405 1.446 2.445-6.225 2.366.68 2.365-5.592 2.407-12.839 2.405-1.024 2.406 8.36 2.405.187 2.445 2.389 2.406 4.587 2.407 2.748 2.404 2.015 2.405-1.41 2.445-3.432 2.327-.455h0" fill="none" stroke="#9467bd" stroke-linecap="square" stroke-width="1.5" id="line2d_24"/><path clip-path="url(#pe2c42169be)" d="M37.556 311.542l1.855.505 2.404.434 2.405.104 2.445-.706 2.327-.225 2.325.46 2.407-.78 2.406-1.44 2.405-.16 2.406-.446 2.445 1.11 2.405-.768 2.407-1.183 2.404.418 2.406-.486 2.445-2.086 2.326-1.605 2.325.865 2.407 1.122 2.406-.853 2.405-1.025 2.406-1.364 2.445.438 2.405-1.125 2.408.687 2.403-4.06 2.406 2.109 2.445-1.212 2.327-4.262 2.325-2.198 2.407 2.608 2.405.656 2.406-.795 2.405.257 2.445-1.48 2.406-3.47 2.407.71 2.404-1.093 2.405 1.665 2.445-4.004 2.366-3.182 2.365 1.298 2.407-.262 2.405-.512 2.406.894 2.405-4.561 2.445 1.177 2.406-.58 2.407-2.515 2.404.881 2.405 1.171 2.445-5.989 2.327.624 2.325-.422 2.407-1.885 2.406-1.278 2.405 6.423 2.406-5.01 2.445-.673 2.405-1.27 2.407-2.532 2.404 2.88 2.406-.222 2.445-7.604 2.326-3.382 2.325-2.876 2.407 1.602 2.406.114 2.405.79 2.406-5.803 2.445 8.714 2.405-6.04 2.408 3.82 2.403-5.037 2.406 6.988 2.445-4.24 2.327-3.732 2.325-4.545 2.407-1.877 2.405 6.622 2.406-4.084 2.405-3.352h2.445l2.406-1.48 2.407 6.19 2.404-.94 2.405 4.305 2.445-4.98 2.366-8.029 2.365.829 2.407-2.66 2.405 5.284 2.406 3.79 2.405 1.594 2.445-9.724 2.406 8.373 2.407 2.528 2.404-1.554 2.405 3.842 2.445-2.355 2.327-7.09 2.325-5.157 2.407 4.432 2.406-6.182 2.405 1.593 2.406 4.8 2.445-4.61 2.405 7.076 2.407.26 2.404-4.64 2.406 12.916 2.445-6.393 2.326-1.115 2.325-.769 2.407 3.079 2.406-.656 2.405 4.585 2.406-5.224 2.445-6.999 2.405 4.26 2.408-5.74 2.403 1.673 2.406 9.026 2.445.168 2.327-5.563 2.325-.291 2.407 3.996 2.405 2.229 2.406 5.28 2.405-10.832 2.445 8.21 2.406-1.862 2.407-4.33 2.404-2.102 2.405 8.765 2.445-6.528 2.366-3.37 2.365-7.666 2.407-11.228 2.405 6.35 2.406 4.776 2.405 1.683 2.445 9.388 2.406-.571 2.407 5.719 2.404-.747 2.405 8.553 2.445-6.124 2.327-.023h0" fill="none" stroke="#d62728" stroke-linecap="square" stroke-width="1.5" id="line2d_25"/><path clip-path="url(#pe2c42169be)" d="M118.515 313.628l2.445-.067 2.406.032 2.407.035H130.582l2.445-.033 2.366.033h4.772l2.405-.067 2.406-.385 2.405.116 2.445-.37 2.406-.476 2.407.072 2.404-1.115 2.405-.332 2.445-4.105 2.327.106 2.325-.476 2.407-.86 2.406-4.288 2.405-8.437 2.406 4.601 2.445.404 2.405-.66 2.407 2.41 2.404 1.485 2.406-1.519 2.445-4.744 2.326-4.307 2.325-4.172 2.407-3.233 2.406 2.964 2.405.06 2.406-1.81 2.445-1.447 2.405-1.714 2.408-.977 2.403-2.5 2.406 2.365 2.445-3.365 2.327-6.92 2.325 4.935 2.407-3.413 2.405 5.062 2.406-2.037 2.405-5.466 2.445 1.75 2.406 2.604 2.407-3.782 2.404.618 2.405-5.766 2.445-2.356 2.366-4.022 2.365-4.02 2.407-.49 2.405-6.508 2.406 5.465 2.405 5.874 2.445-5.484 2.406 4.373 2.407-2.22 2.404-5.985 2.405 3.428 2.445-8.546 2.327-4.411 2.325-3.362 2.407 7.015 2.406-2.506 2.405 1.88 2.406 1.115 2.445-2.827 2.405 4.32 2.407-4.353 2.404-.55 2.406 8.827 2.445-12.651 2.326-5.44 2.325 2.983 2.407-.916 2.406 2.43 2.405 2.23 2.406-4.82 2.445-8.21 2.405 3.885 2.408-1.866 2.403 3.604 2.406 8.206 2.445-9.724 2.327-2.532 2.325-1.472 2.407-1.014 2.405 2.73 2.406 4.328 2.405-16.24 2.445 5.788 2.406-7.384 2.407-.456 2.404-4.03 2.405 13.754 2.445-8.613 2.366-6.103 2.365-.862 2.407-19.175 2.405 4.673 2.406 8.4 2.405-.156 2.445 12.617 2.406-4.221 2.407 11.018 2.404.733 2.405 11.582 2.445-11.205 2.327-3.409" fill="none" stroke="#2ca02c" stroke-linecap="square" stroke-width="1.5" id="line2d_26"/><path clip-path="url(#pe2c42169be)" d="M37.556 310.955l1.855.352 4.81-.539 2.444-2.086 2.327-.343 2.325-1.507 2.407-.4 2.406-2.393 2.405-.876 2.406-2.758 2.445.606 2.405-1.707 2.407.26 2.404-1.547 2.406-3.534 2.445-3.364 2.326-3.828 2.325 4.467 2.407 1.287 2.406.597 2.405-3.9 2.406-.306 2.445-1.076 2.405.166 2.408 2.122 2.403-5.773 2.406 2.34L104.24 282l2.327-6.22 2.325-.812 2.407 2.327 2.405-4.716 2.406.162 2.405 3.068 2.445.471 2.406 1.71 2.407 3.304 2.404-6.328 2.405 4.847 2.445-7.436 2.366-2.125 2.365-3.056 2.407-.853 2.405.82 2.406 1.475 4.85-9.686 2.406 6.557 2.407-1.98 2.404 1.354 2.405 6.25 2.445-8.244 2.327-10.205 2.325 1.221 2.407-.148 2.406.956 2.405-1.338 4.85-3.911 2.406 9.23 2.407-3.645 2.404-2.995 2.406 9.556 2.445-12.684 2.326.368 2.325-6.627 2.407 7.405 2.406 5.987 2.405-2.024 2.406-1.173 2.445 4.845 2.405-1.446 2.408.807 2.403-1.503 2.406 2.883 2.445-5.25 2.327-2.45 2.325 1.105 2.407.583 2.405-3.712 4.811-9.186 2.445 8.614 2.406-2.357 2.407.91 2.404 3.193 2.405-1.746 2.445-3.533 2.366-3.788 2.365-.452 2.407 3.504 2.405 2.082 4.811 3.062 2.445-4.173 2.406 3.097 2.407 3.565 2.404.155 2.405 5.363 2.445-10.195 2.327-13.563 2.325 2.056 2.407 8.03 2.406-5.506 2.405 3.002 2.406-3.305 2.445-3.062 2.405-2.43 2.407 10.505 2.404-3.099 2.406 7.978 2.445-9.858 2.326-4.087 2.325 3.28 2.407-.928 2.406-6.778 2.405 1.562 2.406-2.504 2.445-8.042 2.405 9.017 2.408 3.5 2.403-1.832 2.406 7.686 4.772-23.29 2.325-.262 2.407-2.074 2.405 5.741 2.406 7.332 2.405-17.09 2.445 5.317 2.406-1.37 2.407-.413 2.404-9.739 2.405 12.531 2.445-12.146 2.366-7.018 2.365-14.92 2.407-31.92 2.405 1.167 2.406 11.766 2.405-3.825 2.445 16.655 2.406 8.24 2.407 6.262 2.404 9.14 2.405 5.967 2.445-14.838 2.327 2.514h0" fill="none" stroke="#ff7f0e" stroke-linecap="square" stroke-width="1.5" id="line2d_27"/><path clip-path="url(#pe2c42169be)" d="M39.411 313.628h28.787l4.81-.202 2.445.135 9.464-.572 2.405.118 2.406-.926 2.445.101 2.405-1.122 7.217-1.166 2.445-.84 2.327-1.523 2.325-1.876 2.407-4.47 2.405.97 2.406-.726 2.405.087 2.445-3.802 2.406-2.44 2.407 5.468 2.404-3.45 2.405-3.985 2.445-2.928 2.366.85 2.365-2.532 2.407-3.714 2.405.013 2.406-.569 2.405-1.45 2.445-3.937 2.406 5.735 2.407-4.793 2.404-1.5 2.405 1.803 2.445-7.738 2.327-2.603 2.325-4.732 2.407 4.3 2.406-3.56 2.405 2.62 2.406-8.374 2.445-3.163 2.405 3.124 2.407-3.527 2.404-6.66 2.406-.642 4.771-19.693 2.325-1.201 2.407 8.706 2.406-2.92 2.405 2.12 2.406-3.6 2.445.572 2.405 1.881 2.408-1.107 2.403-1.778 2.406 6.018 2.445-9.085 2.327-12.42 2.325 3.403 2.407-8.256 2.405-1.67 2.406-11.716 2.405-2.281 2.445 2.725 2.406 2.233 2.407.695 2.404-4.24 2.405 3.264 2.445-16.319 2.366-4.5 2.365-4.113 2.407-.654 2.405 3.648 2.406-3.961 2.405 6.99 2.445-8.177 2.406 11.061 2.407-.697 2.404-2.919 2.405 9.816 2.445-18.438 4.652-15.276 2.407 12.877 2.406-2.043 2.405-8.353 2.406-1.808 2.445 3.937 2.405 8.892 2.407 1.572 2.404-7.865 2.406 19.44 2.445-22.41 2.326-.25 2.325 2.808 2.407 8.166 2.406-2.951 2.405 1.56 2.406-9.332 2.445-15.78 2.405 5.26 2.408-11.014 2.403 8.753 2.406 20.351 2.445-21.366 2.327-9.961 2.325-.032 2.407-4.36 2.405 4.024 2.406 8.528 2.405-22.492 2.445 18.439 2.406-2.344 2.407-8.289 2.404-9.443 2.405 25.224 2.445-26.346 2.366 1.242 2.365-18.132 2.407-51.664 2.405-4.863 2.406 18.632 2.405 3.239 2.445 14.03 2.406 7.242 2.407 17.388 2.404 8.897 2.405 8.195 2.445-23.317 2.327-5.371h0" fill="none" stroke="#1f77b4" stroke-linecap="square" stroke-width="1.5" id="line2d_28"/></g></g><defs><clipPath id="pe2c42169be"><path d="M37.556 47.516h357.12v266.112H37.556z"/></clipPath></defs></svg>