<svg height="485.163" viewBox="0 0 493.928 363.872" width="658.57" xmlns="http://www.w3.org/2000/svg" xmlns:xlink="http://www.w3.org/1999/xlink"><defs><style>*{stroke-linecap:butt;stroke-linejoin:round}</style></defs><g id="figure_1"><path d="M0 363.872h493.928V0H0z" fill="none" id="patch_1"/><g id="axes_1"><path d="M34.056 300.716h372v-277.2h-372z" fill="none" id="patch_2"/><g id="matplotlib.axis_1"><g id="xtick_1"><g id="text_1"><defs><path d="M4.39 45.125q0 12.39 6.391 18.781 6.406 6.407 17.938 6.407 9.656 0 15.812-5.86 6.157-5.86 6.157-15.14 0-7.22-3.547-12.188-3.532-4.953-10.422-8.703l-12.11-6.64Q13.922 15.921 12.5 8.296h38.188V0H2.593q.39 9.906 4.297 16.5 3.906 6.594 12.203 11.375l12.593 7.328q5.032 2.89 7.329 5.984 2.297 3.094 2.297 8.516 0 5.375-3.766 9.031-3.75 3.672-10.156 3.672-7.078 0-10.594-4.672-3.516-4.656-3.61-12.609z" id="HelveticaWorld-Regular-50"/><path d="M42.484 34.188q0 14.109-3.734 21.156-3.734 7.062-10.969 7.062-7.078 0-10.89-7.062-3.797-7.047-3.797-21.157 0-13.671 3.75-20.937Q20.609 6 27.78 6q7.235 0 10.969 7 3.734 7.016 3.734 21.188zm9.422 0q0-17.297-6.25-26.704-6.25-9.39-17.875-9.39-12.062 0-18.062 9.734-6 9.75-6 26.36 0 17.03 6.14 26.578 6.157 9.547 17.922 9.547 11.625 0 17.875-9.5t6.25-26.626z" id="HelveticaWorld-Regular-48"/><path d="M35.89 0h-9.374v49.906H10.109v6.985q8.594.28 12.782 2.75Q27.094 62.109 29 70.313h6.89z" id="HelveticaWorld-Regular-49"/></defs><g transform="matrix(.14 0 0 -.14 59.745 314.266)"><use xlink:href="#HelveticaWorld-Regular-50"/><use x="55.615" xlink:href="#HelveticaWorld-Regular-48"/><use x="111.23" xlink:href="#HelveticaWorld-Regular-49"/><use x="166.846" xlink:href="#HelveticaWorld-Regular-48"/></g></g></g><g id="xtick_2"><g transform="matrix(.14 0 0 -.14 124.518 314.266)" id="text_2"><use xlink:href="#HelveticaWorld-Regular-50"/><use x="55.615" xlink:href="#HelveticaWorld-Regular-48"/><use x="111.23" xlink:href="#HelveticaWorld-Regular-49"/><use x="166.846" xlink:href="#HelveticaWorld-Regular-50"/></g></g><g id="xtick_3"><g id="text_3"><defs><path d="M10.594 24.703h22.61v31.89h-.188zM42 17.093V0h-8.797v17.094H2.484v8.593L34.72 70.314H42v-45.61h10.297v-7.61z" id="HelveticaWorld-Regular-52"/></defs><g transform="matrix(.14 0 0 -.14 189.38 314.266)"><use xlink:href="#HelveticaWorld-Regular-50"/><use x="55.615" xlink:href="#HelveticaWorld-Regular-48"/><use x="111.23" xlink:href="#HelveticaWorld-Regular-49"/><use x="166.846" xlink:href="#HelveticaWorld-Regular-52"/></g></g></g><g id="xtick_4"><g id="text_4"><defs><path d="M14.11 21.578q0-6.875 4.093-11.234Q22.313 6 28.906 6q6.297 0 10.032 4.438 3.734 4.453 3.734 11.687 0 6.297-3.688 10.547-3.687 4.25-10.468 4.25-6.594 0-10.5-4.156-3.907-4.157-3.907-11.188zM41.702 51.61q-.984 5.375-3.984 8.078-3 2.72-8.125 2.72-8.11 0-12.36-7.923-4.25-7.906-4.343-18.109l.203-.188q5.61 8.641 16.687 8.641 8.844 0 15.438-5.86 6.593-5.859 6.593-16.452 0-10.5-6.25-17.47-6.25-6.952-16.843-6.952-12.219 0-18.563 8.687-6.344 8.703-6.344 25.938 0 16.593 6.485 27.093 6.5 10.5 19.484 10.5 8.407 0 14.219-5.015 5.813-5 6.297-13.688z" id="HelveticaWorld-Regular-54"/></defs><g transform="matrix(.14 0 0 -.14 254.153 314.266)"><use xlink:href="#HelveticaWorld-Regular-50"/><use x="55.615" xlink:href="#HelveticaWorld-Regular-48"/><use x="111.23" xlink:href="#HelveticaWorld-Regular-49"/><use x="166.846" xlink:href="#HelveticaWorld-Regular-54"/></g></g></g><g id="xtick_5"><g id="text_5"><defs><path d="M27.594 40.578q5.422 0 8.953 3.094 3.547 3.11 3.547 8.234 0 4.594-3.407 7.547-3.39 2.953-9.687 2.953-5.61 0-8.672-3.11-3.047-3.093-3.047-7.874 0-5.125 3.813-7.984 3.812-2.86 8.5-2.86zm.093-7.562q-6.78 0-10.64-3.766-3.86-3.766-3.86-9.234 0-6.297 3.907-10.157Q21 6 28.219 6q6.406 0 10.234 3.86 3.828 3.859 3.828 10.265 0 5.469-3.828 9.172-3.828 3.719-10.766 3.719zM49.22 52.203q0-10.594-9.032-14.797 6.204-2.781 8.86-7.36 2.656-4.562 2.656-9.733 0-10.016-6.453-16.125-6.438-6.094-17.375-6.094-9.563 0-16.813 5.25-7.25 5.25-7.25 17.062 0 11.922 11.907 16.907-9.516 3.796-9.516 13.671 0 8.297 5.64 13.813 5.641 5.516 15.641 5.516 10.016 0 15.875-5.204 5.86-5.203 5.86-12.906z" id="HelveticaWorld-Regular-56"/></defs><g transform="matrix(.14 0 0 -.14 319.015 314.266)"><use xlink:href="#HelveticaWorld-Regular-50"/><use x="55.615" xlink:href="#HelveticaWorld-Regular-48"/><use x="111.23" xlink:href="#HelveticaWorld-Regular-49"/><use x="166.846" xlink:href="#HelveticaWorld-Regular-56"/></g></g></g><g id="xtick_6"><g transform="matrix(.14 0 0 -.14 383.788 314.266)" id="text_6"><use xlink:href="#HelveticaWorld-Regular-50"/><use x="55.615" xlink:href="#HelveticaWorld-Regular-48"/><use x="111.23" xlink:href="#HelveticaWorld-Regular-50"/><use x="166.846" xlink:href="#HelveticaWorld-Regular-48"/></g></g></g><g id="matplotlib.axis_2"><g id="ytick_1"><path clip-path="url(#p3ab14a1caa)" d="M34.056 300.716h372" fill="none" stroke="#000" stroke-dasharray="5,5" stroke-opacity=".3" stroke-width=".5" id="line2d_7"/><use xlink:href="#HelveticaWorld-Regular-48" transform="matrix(.14 0 0 -.14 22.77 305.74)" id="text_7"/></g><g id="ytick_2"><path clip-path="url(#p3ab14a1caa)" d="M34.056 266.228h372" fill="none" stroke="#000" stroke-dasharray="5,5" stroke-opacity=".3" stroke-width=".5" id="line2d_9"/><g id="text_8"><defs><path d="M14.703 40.922q5.813 4.39 13.625 4.39 9.469 0 16.281-6.296 6.813-6.297 6.813-16.22 0-10.78-6.578-17.796-6.563-7-18.422-7-10.313 0-16.266 5.047Q4.203 8.109 3.22 17.39h9.094q.671-5.672 4.437-8.672 3.766-3 10.453-3 6.485 0 10.64 4.484Q42 14.703 42 21.688q0 7.125-4.36 11.421-4.343 4.297-11.218 4.297-7.813 0-13.047-6.687l-7.563.39 5.266 37.594h36.438v-8.5H17.672z" id="HelveticaWorld-Regular-53"/></defs><g transform="matrix(.14 0 0 -.14 14.985 271.252)"><use xlink:href="#HelveticaWorld-Regular-50"/><use x="55.615" xlink:href="#HelveticaWorld-Regular-53"/></g></g></g><g id="ytick_3"><path clip-path="url(#p3ab14a1caa)" d="M34.056 231.739h372" fill="none" stroke="#000" stroke-dasharray="5,5" stroke-opacity=".3" stroke-width=".5" id="line2d_11"/><g transform="matrix(.14 0 0 -.14 14.985 236.764)" id="text_9"><use xlink:href="#HelveticaWorld-Regular-53"/><use x="55.615" xlink:href="#HelveticaWorld-Regular-48"/></g></g><g id="ytick_4"><path clip-path="url(#p3ab14a1caa)" d="M34.056 197.25h372" fill="none" stroke="#000" stroke-dasharray="5,5" stroke-opacity=".3" stroke-width=".5" id="line2d_13"/><g id="text_10"><defs><path d="M3.719 68.797h48.578v-7.719Q42.28 50.875 33.984 33.484 25.687 16.11 23.391 0h-9.672q1.469 13.281 9.719 30.531 8.25 17.266 18.953 29.672H3.719z" id="HelveticaWorld-Regular-55"/></defs><g transform="matrix(.14 0 0 -.14 14.985 202.275)"><use xlink:href="#HelveticaWorld-Regular-55"/><use x="55.615" xlink:href="#HelveticaWorld-Regular-53"/></g></g></g><g id="ytick_5"><path clip-path="url(#p3ab14a1caa)" d="M34.056 162.762h372" fill="none" stroke="#000" stroke-dasharray="5,5" stroke-opacity=".3" stroke-width=".5" id="line2d_15"/><g transform="matrix(.14 0 0 -.14 7.2 167.786)" id="text_11"><use xlink:href="#HelveticaWorld-Regular-49"/><use x="55.615" xlink:href="#HelveticaWorld-Regular-48"/><use x="111.23" xlink:href="#HelveticaWorld-Regular-48"/></g></g><g id="ytick_6"><path clip-path="url(#p3ab14a1caa)" d="M34.056 128.273h372" fill="none" stroke="#000" stroke-dasharray="5,5" stroke-opacity=".3" stroke-width=".5" id="line2d_17"/><g transform="matrix(.14 0 0 -.14 7.2 133.298)" id="text_12"><use xlink:href="#HelveticaWorld-Regular-49"/><use x="55.615" xlink:href="#HelveticaWorld-Regular-50"/><use x="111.23" xlink:href="#HelveticaWorld-Regular-53"/></g></g><g id="ytick_7"><path clip-path="url(#p3ab14a1caa)" d="M34.056 93.784h372" fill="none" stroke="#000" stroke-dasharray="5,5" stroke-opacity=".3" stroke-width=".5" id="line2d_19"/><g transform="matrix(.14 0 0 -.14 7.2 98.809)" id="text_13"><use xlink:href="#HelveticaWorld-Regular-49"/><use x="55.615" xlink:href="#HelveticaWorld-Regular-53"/><use x="111.23" xlink:href="#HelveticaWorld-Regular-48"/></g></g><g id="ytick_8"><path clip-path="url(#p3ab14a1caa)" d="M34.056 59.295h372" fill="none" stroke="#000" stroke-dasharray="5,5" stroke-opacity=".3" stroke-width=".5" id="line2d_21"/><g transform="matrix(.14 0 0 -.14 7.2 64.32)" id="text_14"><use xlink:href="#HelveticaWorld-Regular-49"/><use x="55.615" xlink:href="#HelveticaWorld-Regular-55"/><use x="111.23" xlink:href="#HelveticaWorld-Regular-53"/></g></g><g id="ytick_9"><path clip-path="url(#p3ab14a1caa)" d="M34.056 24.807h372" fill="none" stroke="#000" stroke-dasharray="5,5" stroke-opacity=".3" stroke-width=".5" id="line2d_23"/><g transform="matrix(.14 0 0 -.14 7.2 29.831)" id="text_15"><use xlink:href="#HelveticaWorld-Regular-50"/><use x="55.615" xlink:href="#HelveticaWorld-Regular-48"/><use x="111.23" xlink:href="#HelveticaWorld-Regular-48"/></g></g></g><path clip-path="url(#p3ab14a1caa)" d="M34.056 300.716H68.53l5.41-.267 2.75.178 7.942-.555 2.706-.201 2.707.155 2.706-1.223 2.75.133 2.707-1.485 5.413-.873 2.706-.668 2.75-1.112 2.618-2.014 2.616-2.481 2.708-5.911 2.706 1.283 2.706-.961 2.707.115 2.75-5.028 2.707-3.227 2.708 7.232 2.704-4.565 2.706-5.27 2.751-3.872 2.662 1.123 2.66-3.348 2.708-4.911 2.706.016 2.707-.752 2.706-1.918 2.75-5.207 2.707 7.585 2.708-6.339 2.704-1.985 2.707 2.386 2.75-10.236 2.618-3.442 2.616-6.259 2.708 5.687 2.706-4.708 2.706 3.467L190 230.18l2.751-4.183 2.706 4.131 2.709-4.665 2.704-8.808 2.706-.849 5.368-26.046 2.616-1.59 2.708 11.516 2.706-3.86 2.707 2.803 2.706-4.762 2.75.757 2.707 2.487 2.708-1.464 2.704-2.352 2.707 7.96 2.75-12.016 2.618-16.427 2.616 4.5 2.708-10.919 2.706-2.208 2.706-15.496 2.707-3.017 2.75 3.605 2.707 2.953 2.708.918 2.704-5.608 2.706 4.318 2.751-21.584 2.662-5.95 2.66-5.442 2.708-.865 2.706 4.826 2.707-5.24 2.706 9.245 2.75-10.814 2.707 14.63 2.708-.924 2.704-3.86 2.707 12.983 2.75-24.387 5.234-20.203 2.708 17.03 2.706-2.7 2.706-11.05 2.706-2.39 2.751 5.206 2.706 11.762 2.708 2.078 2.705-10.401 2.706 25.71 2.75-29.638 2.618-.332 2.616 3.714 2.708 10.8 2.706-3.902 2.707 2.063 2.706-12.343 2.75-20.871 2.707 6.957 2.708-14.567 2.704 11.578 2.707 26.916 2.75-28.259 2.618-13.175 2.616-.042 2.708-5.766 2.706 5.321 2.706 11.28 2.707-29.748 2.75 24.387 2.707-3.1 2.708-10.963 2.704-12.49 2.706 33.362 2.751-34.845 2.662 1.642 2.66-23.982h0" fill="none" stroke="#1f77b4" stroke-linecap="square" stroke-width="1.5" id="line2d_25"/><path clip-path="url(#p3ab14a1caa)" d="M34.056 283.99l2.087 6.624 2.704 2.515 2.707-.112 2.75-4.138 2.618-1.071 2.616-3.29 2.708-1.276 2.706-5.8 2.706-4.5 2.706-1.508 2.751-3.026 2.706-.25 2.709-2.153 2.704-2.628 2.706-.576 2.75-9.078 2.618-5.43 2.616.267 2.708-.818 2.706-4.7 2.707-4.313 2.706-3.83 2.75-1.425 2.707-8.219 2.708-10.96 2.705-.352 2.706-2.007 2.75-12.46 2.618-14.937 2.616-11.81 2.708 13.669 2.706-.985 2.706-.625 2.707.447 2.75-12.639 2.707 6.674 2.708 5.12 2.704-5.626 2.706 12.122 5.413-34.118 2.66-3.797 2.708 4.594 2.706.702 2.707 2.011 2.706-13.003 2.75 3.293 2.707 17.758 2.708-15.266 2.704-.553 2.707 16.485 2.75-22.385 2.618-9.86 2.616-5.582 2.708.787 2.706 13.009 2.706-.547 2.706-14.54 2.751-11.748 2.706 3.985 2.709-3.406 2.704 11.821 2.706 5.802 2.75-16.644 2.618-8.261 2.616 1.586 2.708 7.125 2.706 8.005 2.707 7.583 2.706-2.999 2.75 10.77 2.707 16.647 2.708.307 2.704-2.1 2.707 8.731 2.75-8.9 2.618-10.542 2.616-3.743 5.414-1.068 2.706-11.057 2.707-1.448 2.75 10.146 2.707 8.638 2.708 7.783 2.704 6.472 2.706 2.651 2.751-15.264 2.662-6.822 2.66 7.267 2.708-9.077 2.706 23.54 2.707-7.859 2.706 13.689 2.75.667 2.707 3.992 2.708 14.254 2.704-2.16 2.707 10.037 2.75-7.788 2.618-2.203 2.616 2.247 2.708 14.538 2.706-1.543 2.706 4.348 2.706-.432 2.751 6.008 2.706 9.737 2.708-3.329 2.705 3.375 2.706 10.821 2.75-9.256 2.618 3.542 2.616-2.34 2.708 2.75 2.706 4.236 2.707 3.122 2.706 2.53 2.75-2.76 2.707 3.082 2.708-7.665 2.704 8.492 2.707 6.015 2.75-14.24 2.618 3.134 2.616 1.806 2.708 6.32 2.706 3.559 2.706 1.867 2.707-3.38 2.75 2.67 2.707-1.543 2.708.564 2.704-.104 2.706 4.332 2.751-5.875 2.662 4.239 2.66-4.283h0" fill="none" stroke="#ff7f0e" stroke-linecap="square" stroke-width="1.5" id="line2d_26"/><path clip-path="url(#p3ab14a1caa)" d="M34.056 297.181l2.087.465 5.41-.712 2.751-2.76 2.618-.454 2.616-1.993 2.708-.53 2.706-3.164 2.706-1.158 2.706-3.648 2.751.801 2.706-2.258 2.709.345 2.704-2.046 2.706-4.674 2.75-4.45 2.618-5.062 2.616 5.907 2.708 1.703 2.706.79 2.707-5.158 2.706-.405 2.75-1.424 2.707.22 2.708 2.806 2.705-7.635 2.706 3.096 2.75-6.898 2.618-8.227 2.616-1.074 2.708 3.078 2.706-6.238 2.706.214 2.707 4.059 2.75.623 2.707 2.262 2.708 4.368 2.704-8.369 2.706 6.411 2.751-9.835 2.662-2.81 2.66-4.043 2.708-1.127 2.706 1.083 2.707 1.952 5.457-12.81 2.706 8.671 2.708-2.62 2.704 1.792 2.707 8.266 2.75-10.903 2.618-13.497 2.616 1.615 2.708-.196 2.706 1.264 2.706-1.77 5.457-5.172 2.706 12.208 2.709-4.82 2.704-3.963 2.706 12.64 2.75-16.777 2.618.488 2.616-8.765 2.708 9.793 2.706 7.918 2.707-2.676 2.706-1.552 2.75 6.409 2.707-1.914 2.708 1.068 2.704-1.988 2.707 3.813 2.75-6.942 2.618-3.243 2.616 1.462 2.708.772 2.706-4.91 5.413-12.15 2.75 11.393L260.23 211l2.708 1.203 2.704 4.223 2.706-2.31 2.751-4.672 2.662-5.01 2.66-.598 2.708 4.635 2.706 2.753 5.413 4.05 2.75-5.519 2.707 4.096 2.708 4.715 2.704.205 2.707 7.094 2.75-13.484 2.618-17.94 2.616 2.72 2.708 10.62 2.706-7.282 2.706 3.97 2.706-4.37 2.751-4.05 2.706-3.213 2.708 13.893 2.705-4.099 2.706 10.552 2.75-13.04 2.618-5.405 2.616 4.338 2.708-1.227 2.706-8.964 2.707 2.066 2.706-3.312 2.75-10.636 2.707 11.925 2.708 4.63 2.704-2.423 2.707 10.166 5.368-30.803 2.616-.348 2.708-2.743 2.706 7.593 2.706 9.697 2.707-22.602 2.75 7.031 2.707-1.811 2.708-.547 2.704-12.88 2.706 16.573 2.751-16.065 2.662-9.282 2.66-19.733h0" fill="none" stroke="#2ca02c" stroke-linecap="square" stroke-width="1.5" id="line2d_27"/><path clip-path="url(#p3ab14a1caa)" d="M34.056 297.957l2.087.668 2.704.574 2.707.138 2.75-.935 2.618-.297 2.616.609 2.708-1.033 2.706-1.904 2.706-.211 2.706-.59 2.751 1.468 2.706-1.016 2.709-1.565 2.704.553 2.706-.642 2.75-2.76 2.618-2.122 2.616 1.144 2.708 1.483 2.706-1.127 2.707-1.356 2.706-1.804 2.75.579 2.707-1.488 2.708.91 2.705-5.37 2.706 2.788 2.75-1.602 2.618-5.637 2.616-2.907 2.708 3.449 2.706.868 2.706-1.052 2.707.34 2.75-1.959 2.707-4.59 2.708.941 2.704-1.446 2.706 2.203 2.751-5.296 2.662-4.21 2.66 1.718 2.708-.347 2.706-.676 2.707 1.182 2.706-6.033 2.75 1.557 2.707-.767 2.708-3.327 2.704 1.166 2.707 1.549 2.75-7.921 2.618.824 2.616-.557 2.708-2.494 2.706-1.69 2.706 8.496 2.706-6.626 2.751-.89 2.706-1.681 2.709-3.348 2.704 3.808 2.706-.293 2.75-10.057 2.618-4.474 2.616-3.803 2.708 2.118 2.706.151 2.707 1.045 2.706-7.675 2.75 11.526 2.707-7.99 2.708 5.052 2.704-6.661 2.707 9.243 2.75-5.608 2.618-4.936 2.616-6.011 2.708-2.483 2.706 8.758 2.706-5.401 2.707-4.434h2.75l2.707-1.958 2.708 8.188 2.704-1.245 2.706 5.695 2.751-6.586 2.662-10.619 2.66 1.096 2.708-3.519 2.706 6.99 2.707 5.012 2.706 2.108 2.75-12.86 2.707 11.074 2.708 3.344 2.704-2.056 2.707 5.082 2.75-3.115 2.618-9.378 2.616-6.821 2.708 5.862 2.706-8.176 2.706 2.106 2.706 6.35 2.751-6.097 2.706 9.358 2.708.343 2.705-6.137 2.706 17.084 2.75-8.455 2.618-1.475 2.616-1.017 2.708 4.072 2.706-.868 2.707 6.064 2.706-6.91 2.75-9.256 2.707 5.635 2.708-7.593 2.704 2.213 2.707 11.939 2.75.222 2.618-7.359 2.616-.384 2.708 5.285 2.706 2.948 2.706 6.985 2.707-14.328 2.75 10.858 2.707-2.462 2.708-5.726 2.704-2.781 2.706 11.592 2.751-8.633 2.662-4.458 2.66-10.139h0" fill="none" stroke="#d62728" stroke-linecap="square" stroke-width="1.5" id="line2d_28"/><path clip-path="url(#p3ab14a1caa)" d="M34.056 300.716l118.144-.089 2.707-.509 2.706.153 2.75-.49 2.707-.628 2.708.095 2.704-1.475 2.707-.439 2.75-5.43 2.618.14 2.616-.629 2.708-1.137 2.706-5.671 2.706-11.16 2.706 6.087 2.751.534 2.706-.873 2.709 3.187 2.704 1.964 2.706-2.009 5.368-11.97 2.616-5.519 2.708-4.277 2.706 3.921 2.707.08 2.706-2.394 2.75-1.914 2.707-2.268 2.708-1.292 2.704-3.306 2.707 3.128 2.75-4.45 2.618-9.153 2.616 6.527 2.708-4.513 2.706 6.694 2.706-2.694 2.707-7.23 2.75 2.314 2.707 3.445 2.708-5.002 2.704.817 2.706-7.626 2.751-3.115 5.322-10.636 2.708-.65 2.706-8.606 2.707 7.227 2.706 7.77 2.75-7.254 2.707 5.784 2.708-2.936 2.704-7.917 2.707 4.535 2.75-11.303 2.618-5.835 2.616-4.445 2.708 9.277 2.706-3.314 2.706 2.486 2.706 1.475 2.751-3.739 2.706 5.713 2.708-5.757 2.705-.727 2.706 11.674 2.75-16.732 2.618-7.194 2.616 3.945 2.708-1.212 2.706 3.215 2.707 2.947 2.706-6.374 2.75-10.858 2.707 5.138 2.708-2.468 2.704 4.767 2.707 10.853 2.75-12.861 2.618-3.349 2.616-1.947 2.708-1.34 2.706 3.61 2.706 5.724 2.707-21.478 2.75 7.655 2.707-9.767 2.708-.602 2.704-5.33 2.706 18.19 2.751-11.392 2.662-8.071 2.66-1.14h0" fill="none" stroke="#9467bd" stroke-linecap="square" stroke-width="1.5" id="line2d_29"/><path clip-path="url(#p3ab14a1caa)" d="M34.056 300.716h64.152l2.708-.133 2.705.133 5.456-.712 2.618.17 5.324-1.481 2.706-.113 2.706.343 2.707.102 2.75-1.869 2.707-.302 2.708.169 2.704.382 2.706-.56 2.751-1.914 2.662.838 2.66-.215 2.708-2.61 2.706.919 2.707-.78 5.457-1.935 2.706.923 2.708.101 2.704-1.756 2.707-.158 2.75-1.201 2.618.475 2.616-2.433 2.708 1.983 5.412.552 2.706-2.09 2.751-2.537 2.706.258 2.709.098 2.704-1.477 2.706-1.95 2.75-.845 2.618-.329 2.616-.472 2.708.055 2.706-1.034 2.707 1.586 2.706-1.853 2.75-.312 2.707 4.464 5.412-3.679 2.707 2.197 2.75-3.694 5.234-1.29 2.708.534 2.706-2.27 2.706-3.018 2.707.838 2.75.534 2.707-.223 2.708 1.469 2.704 1.106 2.706-.795 2.751-4.272 2.662-2.645 2.66 1.221 2.708-1.234 2.706 1.724 2.707-2.736 2.706.244 2.75 1.958 2.707-2.891 2.708.8 2.704-3.422 2.707 7.604 2.75-5.785 2.618-3.678 2.616-1.084 2.708 3.863 2.706 1.122 2.706.763 2.706-.674 2.751-.356 2.706 1.168 2.708-.456 2.705-2.717 2.706 7.033 2.75-8.277 2.618-2.799 2.616 1.019 2.708.495 2.706-.629 2.707 3.94 2.706-3.584 2.75-2.27 2.707.198 2.708-3.535 2.704 2.615 2.707 5.04 2.75-6.72 2.618-4.994 2.616 2.769 2.708-.187 2.706-3.151 2.706 6.094 2.707-7.607 2.75 4.806 2.707.088 2.708-2.847 2.704.18 2.706 1.912 2.751-8.233 2.662.9 2.66-7.397h0" fill="none" stroke="#8c564b" stroke-linecap="square" stroke-width="1.5" id="line2d_30"/><path clip-path="url(#p3ab14a1caa)" d="M34.056 300.716l58.695-.089 2.75-.089 2.707-.374 2.708.196 8.161.178 2.618-.61 2.616.343 2.708.031 2.706-.209 2.706.117 2.707-.25 2.75-.4 2.707.145 2.708-.368 2.704.092 2.706-.048 2.751.134 2.662-.702 2.66-.188 2.708.16 2.706-.605 2.707-1.189 2.706.343 2.75-1.157 2.707.998 2.708.337 2.704-2.222 2.707-.003 2.75-1.557 2.618.236 2.616 1.232 2.708-1.38 2.706.179 2.706-.822 2.706-1.537 2.751.578 2.706 1.786 2.709-2.542 2.704 1.209 2.706.17 2.75-1.29 2.618-3.544 2.616 1.23 2.708-.199 2.706 1.756 2.707-2.216 2.706.748 2.75 1.246 2.707.72 2.708-.987 2.704.297 2.707-.43 2.75-2.003 2.618-1.739 5.324.079 2.706.503 2.706-3.952 2.707.17 2.75 1.379 2.707 1.026 2.708.531 2.704 1.539 2.706-1.094 2.751-2.803 8.03 3.575 2.706-1.617 2.707 1.433 2.706-1.656 2.75 2.76 2.707.46 2.708-1.173 2.704-4.438 2.707-.368 2.75 1.29 2.618-.994 2.616-2.565 2.708 4.614 2.706-1.9 2.706-2.836 2.706 2.88 2.751-.756 2.706.36 2.708 1.643 2.705-.77 2.706 2.105 2.75-1.38 2.618-3.563 2.616-.308 2.708-4.35 2.706 2.213 2.707-.971 2.706-2.366 2.75-1.424 2.707 3.192 2.708.012 2.704-5.622 2.707.994 2.75 3.47 2.618-2.674 2.616-.218 2.708-2.4 2.706-2.005 2.706 6.604 2.707-14.526 2.75 3.427 2.707 1.442 2.708-5.18 2.704-1.626 2.706 3.94 2.751-2.136 2.662-4.684 2.66-4.394h0" fill="none" stroke="#e377c2" stroke-linecap="square" stroke-width="1.5" id="line2d_31"/><path clip-path="url(#p3ab14a1caa)" d="M34.056 299.337l2.087.623 2.704.526 2.707.052 7.984-.667 2.708-.902 2.706-.166 2.706-1.903 2.706-.99 2.751.757 2.706-.043 2.709.354 2.704-.814 2.706.948 2.75-1.558 5.234.045 2.708.289 2.706-2.247 2.707.178 2.706-3.205 2.75 2.27 2.707-1.135 2.708.378 2.705-.056 2.706.279 2.75-1.691 2.618-1.472 2.616-.086 2.708-3.514 2.706.666 2.706 1.312 2.707-3.492 2.75-.623 2.707 1.585 2.708 1.93 2.704-2.527 2.706 3.328 2.751-1.869 2.662-3.21 2.66-.35 2.708-1.026 2.706.76 2.707 2.505 2.706-4.197 2.75-3.026 2.707 5.705 2.708 1.37 2.704.01 2.707 2.26 2.75-5.34 2.618-3.848 2.616 4.427 2.708.293 2.706-2.34 2.706 1.283 2.706-2.04 2.751 2.047 2.706-.973 2.709 1.018 2.704.775 2.706 1.005 2.75-3.471 2.618-1.925 2.616 1.034 2.708.874 2.706 5.09 2.707-.353 2.706-.715 2.75 3.871 2.707-.995 2.708.328 2.704-.144 2.707 2.591 2.75-2.047 2.618-1.651 2.616 2.452 2.708-2.173 2.706.571 2.706.027 2.707-1.006 5.457 3.673 2.708-1.626 2.704 2.684 2.706-1.215 2.751.756 2.662-1.477 2.66 2.234 2.708-1.31 2.706 2.556 2.707-2.418 2.706 2.062 2.75-1.157 2.707 2.544 2.708.838 2.704-1.436 2.707 2.148h2.75l2.618-1.435 2.616-.701 2.708-.15 2.706-.34 2.706 1.812 2.706.68 2.751.98 2.706-.603 2.708 1.137 2.705-1.505 2.706 2.395 2.75-1.246 2.618.842 2.616-.22 2.708 1.126 5.413-1.287 2.706 1.096 2.75-.49 2.707-.284 2.708.018 2.704 1.73 2.707-.084 2.75-1.023 2.618.896 2.616.172 2.708-.56 2.706.115 2.706.3 2.707-.167 2.75.801 2.707-.405 2.708-.663 2.704.157 2.706 1.045 2.751-1.246 2.662 1.464 2.66-1.153h0" fill="none" stroke="#7f7f7f" stroke-linecap="square" stroke-width="1.5" id="line2d_32"/><path clip-path="url(#p3ab14a1caa)" d="M34.056 300.716l145.117-.089 2.708-.233 2.706.1 2.706-.1 2.706-.968 2.751-.49 2.706.263 2.709-.352 2.704-.89 2.706.223 2.75-2.448 2.618-.041 2.616-1.427 2.708.428 2.706.55 2.707-.55 2.706.862 2.75-1.29 2.707 1.164 2.708-1.476 2.704 1.338 5.457-.492 2.618-1.177 2.616-1.583 2.708-1.025 2.706 3.651 2.706-3.375 2.707.126 2.75.4 2.707 1.498 2.708.55 2.704 2.025 2.706.334 2.751.133 2.662-.776 2.66.687 2.708-.654 2.706.699 2.707.037 2.706 1.12 5.457.213 5.412-.138 2.707.637 2.75-.98 2.618.215 2.616.631 2.708-.227 2.706.94 2.706-.756 2.706.177 2.751.623 2.706-.432 2.708.387 2.705-.663 2.706.886 2.75-.312 2.618.126 2.616-.927 2.708-.233 2.706.856 2.707.662 2.706-.484 2.75-.089 2.707.159 5.412.506 2.707-.22 2.75.267 2.618.094 2.616.307 2.708-.54 2.706.406 2.706.054 5.457-.9 2.707.624 2.708.4 2.704-.17 8.119.293 2.66-.256h0" fill="none" stroke="#bcbd22" stroke-linecap="square" stroke-width="1.5" id="line2d_33"/><path clip-path="url(#p3ab14a1caa)" d="M34.056 300.716h272.136l5.324-.414 2.706-.075 2.706-.2 2.706-.067 2.751.178 8.119-.571 2.706-.32 2.75-.044 2.618-.359 2.616.36 2.708.04 2.706-1.242 2.707-.367 2.706-1.102 2.75.045 2.707-1.058 2.708-1.345 2.704 1.989 2.707-.387 2.75-1.513 2.618-.1 2.616-2.215 2.708.076 2.706 1.482 2.706-1.16 2.707-.887 2.75-1.558 2.707.008 2.708-.141 2.704.923 2.706-.256 2.751-2.091 2.662-.568 2.66 1.413h0" fill="none" stroke="#17becf" stroke-linecap="square" stroke-width="1.5" id="line2d_34"/><path clip-path="url(#p3ab14a1caa)" d="M34.056 300.716h272.136l2.616-.133 2.708.041 2.706-.664 2.706.066 2.706-.2 2.751.356 2.706-.34 5.413-.091 2.706-.236 5.368.314 2.616-.403 2.708-.09 2.706.223 2.707-.498 2.706.187 2.75-.356 2.707-.015 5.412-.966 2.707.18 2.75-2.136 2.618.77 2.616-1.037 2.708.66 2.706-1.283 2.706.915 2.707-1.227 2.75.89 2.707-2.376 2.708.329 5.41-.089 2.751-1.736 2.662-2.139 2.66.048h0" fill="none" stroke="#aec7e8" stroke-linecap="square" stroke-width="1.5" id="line2d_35"/><path clip-path="url(#p3ab14a1caa)" d="M34.056 300.716h247.78l2.706-.138 10.87.05 2.705.088 2.707-.178 5.368.129 10.736.05 8.163-.645 2.708-.646 2.705.554 2.706.336 2.75-1.246 2.618-.275 2.616.72 2.708-.546 2.706-.122 2.707.582 2.706-1.071 2.75-.223 2.707.42 2.708-.687 2.704-.325 2.707.637 5.368-1.898 2.616.34 2.708-.964 2.706-.638 2.706.27 2.707-1.249 2.75.712 2.707.261 2.708-2.086 5.41 1.647 2.751-1.469 2.662-2.047 2.66.712h0" fill="none" stroke="#ffbb78" stroke-linecap="square" stroke-width="1.5" id="line2d_36"/><path clip-path="url(#p3ab14a1caa)" d="M34.056 300.716l172.27-.044 2.617-.4 2.616.266 5.414-.089h5.413l2.75-.311 2.707.256 2.708-.034 2.704.126 2.707-.304 7.984.178 2.708-.38 2.706.291 2.706-.153 2.707-.648 2.75.534 10.825.134 2.751-.445 2.662-.07 2.66.292 2.708.111 2.706-.022 2.707.16 5.457-.16 2.706.068 2.708-.112 5.41.534 2.751-.4 2.618.13 2.616-.487 2.708.06 2.706.474 2.706-.474 2.706.252 2.751.044 2.706-.25 2.708.384 2.705.121 2.706-.3 2.75.09 2.618.233 2.616-.456 8.12.02 2.707.114 2.75.267 2.707-.381 2.708.203 2.704-.158 2.707.113 5.368-.067 2.616-.066 5.414.133 2.706-.067 2.707-.2 2.75.534 2.707-.425 2.708.247 5.41-.222 2.751-.4 2.662.11 2.66.512h0" fill="none" stroke="#98df8a" stroke-linecap="square" stroke-width="1.5" id="line2d_37"/><path clip-path="url(#p3ab14a1caa)" d="M34.056 300.716l231.586-.092 2.706-.264 2.751.356 8.03-.23 2.706.097 2.707-.097 2.706.141 2.75-.089 2.707-.374 2.708-.115 2.704.161 2.707-.161 2.75.089 5.234-.49 2.708.24 2.706.027 2.706-.256 2.706.701 2.751-.311 2.706-.436 2.708.391 2.705-.575 2.706.308 2.75.579 2.618-.585 2.616.407 2.708.072 2.706-.161 2.707-.023 2.706.2 2.75-.266 2.707.25 2.708-.117 5.41.045 2.751-.178 2.618.165 2.616-.032 2.708-.434 5.412.551 2.707-.206 5.457-.07 5.412.322 2.706-.519 2.751.4 5.322-.177h0" fill="none" stroke="#ff9896" stroke-linecap="square" stroke-width="1.5" id="line2d_38"/><g id="text_16"><defs><path d="M49.219 0h-8.844v32.172q0 7.422-2.594 10.578-2.578 3.156-8.578 3.156-5.906 0-9.875-4.5-3.953-4.484-3.953-12.89V0H6.594v52.297h8.297v-7.375h.203q6.203 8.89 15.812 8.89 8.89 0 13.594-4.718 4.719-4.703 4.719-13.5z" id="HelveticaWorld-Regular-110"/><path d="M12.703 26.219q0-8.735 3.953-14.375 3.953-5.64 11.219-5.64 7.531 0 11.438 5.905 3.906 5.907 3.906 14.11 0 8.297-3.907 14.078-3.906 5.797-11.437 5.797-6.969 0-11.078-5.453-4.094-5.438-4.094-14.422zm-8.984 0q0 11.672 6.484 19.625 6.5 7.968 17.672 7.968 11.438 0 17.875-8.062 6.453-8.047 6.453-19.531 0-11.516-6.406-19.625-6.39-8.11-17.922-8.11-11.078 0-17.625 7.86-6.531 7.86-6.531 19.875z" id="HelveticaWorld-Regular-111"/><path d="M13.094 26.313q0-9.704 3.844-14.954 3.859-5.25 10.265-5.25 6.094 0 10.188 4.485 4.109 4.5 4.109 13.094 0 11.03-3.5 16.625-3.484 5.593-10.61 5.593-6.78 0-10.546-4.453-3.75-4.437-3.75-15.14zM50.39 0h-8.297v7.172h-.203q-4.97-8.688-15.078-8.688-10.891 0-16.86 8.297Q4 15.094 4 27.688q0 11.625 5.906 18.875 5.922 7.25 15.875 7.25 9.813 0 15.625-8.891l.203.594V71.78h8.782z" id="HelveticaWorld-Regular-100"/><path d="M42.484 30.328q-.687 8.485-4.5 12.031-3.797 3.547-10.109 3.547-6.39 0-10.328-4.5-3.922-4.484-4.172-11.078zm8.391-13.922q-1.453-8.11-7.953-13.422-5.719-4.5-15.047-4.593-10.984.093-17.438 7.203Q4 12.704 4 24.704q0 13.78 6.64 21.437 6.641 7.672 18.47 7.672 10.593 0 16.546-7.922 5.953-7.907 5.953-22.594H13.375q0-8.203 3.813-12.703Q21 6.109 28.608 6.109q5.375 0 9.235 3.235 3.86 3.25 4.25 7.062z" id="HelveticaWorld-Regular-101"/><path d="M19.094 0H8.687v10.594h10.407z" id="HelveticaWorld-Regular-46"/><path d="M15.375 61.813H6.594v9.968h8.781zm0-69.532q0-7.468-3.547-10.375Q8.297-21 2-21q-1.797 0-3.703.297v7.61H.594q3.703 0 4.843 1.109 1.157 1.093 1.157 5.296v58.985h8.781z" id="HelveticaWorld-Regular-106"/><path d="M36.078 37.406q-.187 4.688-3.344 6.735-3.14 2.047-9.047 2.047-4.296 0-7.359-1.907-3.047-1.89-3.047-5.468 0-2.829 1.797-4.172 1.813-1.344 7.828-2.86l8.688-2.187q7.906-2 11.297-5.11 3.406-3.093 3.406-8.656 0-7.719-5.64-12.531-5.641-4.813-15.063-4.813-11 0-16.64 4.563-5.626 4.578-5.735 13.75h8.5q.203-5.422 3.594-8.063 3.39-2.625 10.171-2.625 5.516 0 8.766 2.188 3.25 2.203 3.25 6.11 0 2.78-2.11 4.437-2.093 1.672-8.296 3.078l-10.203 2.5q-6.203 1.562-9.157 4.656-2.953 3.094-2.953 8.031 0 7.72 5.516 12.203 5.531 4.5 14.406 4.5 9.485 0 14.531-4.624 5.047-4.61 5.344-11.782z" id="HelveticaWorld-Regular-115"/></defs><g transform="matrix(.14 0 0 -.14 409.776 27.07)" fill="#1f77b4"><use xlink:href="#HelveticaWorld-Regular-110"/><use x="55.176" xlink:href="#HelveticaWorld-Regular-111"/><use x="111.084" xlink:href="#HelveticaWorld-Regular-100"/><use x="168.066" xlink:href="#HelveticaWorld-Regular-101"/><use x="221.986" xlink:href="#HelveticaWorld-Regular-46"/><use x="249.77" xlink:href="#HelveticaWorld-Regular-106"/><use x="271.791" xlink:href="#HelveticaWorld-Regular-115"/></g></g><g id="text_17"><defs><path d="M15.375 0H6.594v52.297h8.297v-8.688h.203q5.703 10.203 14.687 10.203 1.422 0 2.297-.296V44.39h-3.266q-5.906 0-9.671-4.016-3.766-4-3.766-9.953z" id="HelveticaWorld-Regular-114"/><path d="M6.11 52.297h8.78V17.578q0-5.765 2.61-8.625Q20.125 6.11 25 6.11q6.781 0 10.594 4.797 3.812 4.813 3.812 12.578v28.813h8.782V0H39.89v7.625l-.188.188q-4.984-9.329-16.61-9.329-7.515 0-12.25 4.094Q6.11 6.688 6.11 14.703z" id="HelveticaWorld-Regular-117"/><path d="M43.406 26.313q0 10.5-3.718 15.046-3.704 4.547-10.579 4.547-6.984-.11-10.562-5.453Q14.984 35.11 14.984 25q0-10.297 4.297-14.594Q23.578 6.11 29.297 6.11q6.5 0 10.297 5.344 3.812 5.344 3.812 14.86zM6.594 0v71.781h8.781V45.703h.203q5.61 8.11 15.14 8.11 9.766 0 15.766-7.25t6-18.876q0-13.093-6.062-21.156Q40.375-1.516 29.5-1.516q-9.578 0-14.406 8.016h-.203V0z" id="HelveticaWorld-Regular-98"/><path d="M39.016 52.297h9.562L29.891.984q-.5-1.375-.985-2.593-4.25-11.329-7.328-15.547-3.078-4.235-9.953-4.235-3.61 0-5.906.782v8.015q2.484-.89 5.468-.89 3.22 0 4.704 2.03 1.5 2.032 4.421 9.938L.875 52.297h9.922L24.812 9.719H25z" id="HelveticaWorld-Regular-121"/><path d="M28.906 23.188H4.391v8.984h24.515z" id="HelveticaWorld-Regular-45"/><path d="M38.375 26.703q-.969-1.015-3.828-1.656-2.86-.625-10.672-1.656-5.766-.688-8.469-2.844-2.703-2.14-2.703-5.656 0-4.297 2.281-6.688 2.297-2.39 7.329-2.39 6.296 0 11.171 3.578 4.891 3.593 4.891 8.718zM6.203 36.375q.297 8.844 5.734 13.14 5.454 4.297 15.844 4.297 8.297 0 13.907-3.765 5.624-3.75 5.624-10.844V9.078Q47.313 6 50.094 6q1.125 0 2.89.39V0Q50.594-.984 48-.984q-4.5 0-6.703 1.921-2.188 1.938-2.281 6.047-7.516-8.5-18.891-8.5-7.422 0-11.922 4.204Q3.72 6.89 3.72 13.624q0 6.89 3.906 11.125Q11.531 29 19 29.89l15.516 1.891q4.203.64 4.203 6.203 0 4.11-3.047 6.297-3.047 2.203-9.25 2.203-5.516 0-8.485-2.437-2.953-2.438-3.53-7.672z" id="HelveticaWorld-Regular-97"/><path d="M6.594 61.813v9.968h8.781v-9.969zM15.375 0H6.594v52.297h8.781z" id="HelveticaWorld-Regular-105"/><path d="M15.375 0H6.594v71.781h8.781z" id="HelveticaWorld-Regular-108"/></defs><g transform="matrix(.14 0 0 -.14 409.776 224.366)" fill="#ff7f0e"><use xlink:href="#HelveticaWorld-Regular-114"/><use x="32.568" xlink:href="#HelveticaWorld-Regular-117"/><use x="87.354" xlink:href="#HelveticaWorld-Regular-98"/><use x="141.848" xlink:href="#HelveticaWorld-Regular-121"/><use x="191.457" xlink:href="#HelveticaWorld-Regular-45"/><use x="224.758" xlink:href="#HelveticaWorld-Regular-111"/><use x="280.666" xlink:href="#HelveticaWorld-Regular-110"/><use x="335.842" xlink:href="#HelveticaWorld-Regular-45"/><use x="369.143" xlink:href="#HelveticaWorld-Regular-114"/><use x="400.711" xlink:href="#HelveticaWorld-Regular-97"/><use x="455.643" xlink:href="#HelveticaWorld-Regular-105"/><use x="477.664" xlink:href="#HelveticaWorld-Regular-108"/><use x="499.686" xlink:href="#HelveticaWorld-Regular-115"/></g></g><g id="text_18"><defs><path d="M12.984 26.313q0-9.61 3.813-14.907Q20.609 6.11 27.094 6.11q6.312 0 10.312 4.579 4 4.593 4 13 0 11.03-3.5 16.625-3.484 5.593-10.61 5.593-7.171 0-10.75-4.765-3.562-4.766-3.562-14.828zM49.812 2.983q0-12.609-6.062-18.797-6.047-6.203-18.266-6.203-8.78 0-13.984 4.047Q6.297-13.922 5.516-6.39h8.796q.672-3.812 3.532-6.062 2.86-2.25 8.281-2.25 7.375 0 11.125 3.969 3.766 3.953 3.766 12.828v3.719h-.188q-4.937-7.329-13.922-7.329-11.187 0-17.093 8.25-5.907 8.25-5.907 20.953 0 11.625 5.953 18.875 5.97 7.25 15.829 7.25 9.906 0 15.625-8.89h.187v7.375h8.313z" id="HelveticaWorld-Regular-103"/></defs><g transform="matrix(.14 0 0 -.14 409.776 128.864)" fill="#2ca02c"><use xlink:href="#HelveticaWorld-Regular-100"/><use x="56.982" xlink:href="#HelveticaWorld-Regular-106"/><use x="79.004" xlink:href="#HelveticaWorld-Regular-97"/><use x="133.936" xlink:href="#HelveticaWorld-Regular-110"/><use x="189.111" xlink:href="#HelveticaWorld-Regular-103"/><use x="245.02" xlink:href="#HelveticaWorld-Regular-111"/></g></g><g id="text_19"><defs><path d="M14.984 23.688q0-8.407 4.094-13 4.11-4.579 10.219-4.579 6.687 0 10.39 5.438 3.72 5.453 3.72 14.765 0 10.22-3.563 14.907-3.563 4.687-10.735 4.687-6.984 0-10.562-5.5-3.563-5.5-3.563-16.718zm-8.39 28.609h8.297v-7.375h.203q5.61 8.89 15.625 8.89 10.11 0 15.937-7.359 5.828-7.344 5.828-18.766 0-12.796-5.953-21Q40.578-1.515 29.5-1.515q-9.094 0-13.922 7.032h-.203v-26.22H6.594z" id="HelveticaWorld-Regular-112"/></defs><g transform="matrix(.14 0 0 -.14 409.776 191.982)" fill="#d62728"><use xlink:href="#HelveticaWorld-Regular-115"/><use x="50" xlink:href="#HelveticaWorld-Regular-112"/><use x="106.494" xlink:href="#HelveticaWorld-Regular-114"/><use x="139.063" xlink:href="#HelveticaWorld-Regular-105"/><use x="161.084" xlink:href="#HelveticaWorld-Regular-110"/><use x="216.26" xlink:href="#HelveticaWorld-Regular-103"/></g></g><g id="text_20"><defs><path d="M39.406 52.297h9.625L29.11 0h-9.437L.594 52.297h10.203L24.422 9.719h.187z" id="HelveticaWorld-Regular-118"/></defs><g transform="matrix(.14 0 0 -.14 409.776 162.866)" fill="#9467bd"><use xlink:href="#HelveticaWorld-Regular-108"/><use x="22.021" xlink:href="#HelveticaWorld-Regular-97"/><use x="76.953" xlink:href="#HelveticaWorld-Regular-114"/><use x="108.521" xlink:href="#HelveticaWorld-Regular-97"/><use x="161.203" xlink:href="#HelveticaWorld-Regular-118"/><use x="208.813" xlink:href="#HelveticaWorld-Regular-101"/><use x="264.232" xlink:href="#HelveticaWorld-Regular-108"/></g></g><g id="text_21"><defs><path d="M49.031 0H37.703l-12.89 19.672L12.203 0H1.125l18.266 26.906L2 52.296h11.188l12.109-18.405L37.5 52.297h10.688l-17.579-25.39z" id="HelveticaWorld-Regular-120"/></defs><g transform="matrix(.14 0 0 -.14 409.776 208.244)" fill="#8c564b"><use xlink:href="#HelveticaWorld-Regular-101"/><use x="52.545" xlink:href="#HelveticaWorld-Regular-120"/><use x="102.545" xlink:href="#HelveticaWorld-Regular-112"/><use x="159.039" xlink:href="#HelveticaWorld-Regular-114"/><use x="190.607" xlink:href="#HelveticaWorld-Regular-101"/><use x="246.027" xlink:href="#HelveticaWorld-Regular-115"/><use x="296.027" xlink:href="#HelveticaWorld-Regular-115"/></g></g><g id="text_22"><defs><path d="M17.188 45.016V0H8.405v45.016H1.22v7.28h7.187v8.985q0 5.907 3.578 8.703 3.594 2.813 10.032 2.813 2.203 0 3.968-.188v-7.906q-1.562.188-3.578.188-2.922 0-4.078-1.438-1.14-1.437-1.14-4.656v-6.5h8.796v-7.281z" id="HelveticaWorld-Regular-102"/><path d="M50 0H38.719L22.406 26.422l-7.312-6.594V0h-8.5v71.781h8.5v-41.61l22.5 22.126H48.78L28.813 32.813z" id="HelveticaWorld-Regular-107"/></defs><g transform="matrix(.14 0 0 -.14 409.776 240.584)" fill="#e377c2"><use xlink:href="#HelveticaWorld-Regular-102"/><use x="27.686" xlink:href="#HelveticaWorld-Regular-108"/><use x="49.707" xlink:href="#HelveticaWorld-Regular-97"/><use x="104.639" xlink:href="#HelveticaWorld-Regular-115"/><use x="154.639" xlink:href="#HelveticaWorld-Regular-107"/></g></g><g id="text_23"><defs><path d="M39.594 34.719q-1.89 11.187-12.39 11.187-6.5 0-10.454-5.203-3.953-5.203-3.953-14.484 0-10.11 3.656-15.11 3.672-5 10.64-5 4.688 0 8.11 3.438 3.422 3.437 4.39 8.953h8.5q-1.312-9.703-6.859-14.86-5.547-5.156-14.328-5.156-10.297 0-16.89 7.047-6.594 7.063-6.594 19.172 0 13.281 6.594 21.188 6.593 7.922 18.5 7.922 8.687 0 13.843-5.204 5.157-5.203 5.735-13.89z" id="HelveticaWorld-Regular-99"/><path d="M49.219 0h-8.844v34.188q0 6.296-2.438 9-2.437 2.718-7.953 2.718-6.797 0-10.703-4.406-3.906-4.39-3.906-12.984V0H6.594v71.781h8.781V45.312h.203q6 8.5 15.328 8.5 8.594 0 13.453-4.5 4.86-4.484 4.86-13.718z" id="HelveticaWorld-Regular-104"/></defs><g transform="matrix(.14 0 0 -.14 409.776 305.264)" fill="#7f7f7f"><use xlink:href="#HelveticaWorld-Regular-99"/><use x="51.27" xlink:href="#HelveticaWorld-Regular-97"/><use x="106.201" xlink:href="#HelveticaWorld-Regular-107"/><use x="153.826" xlink:href="#HelveticaWorld-Regular-101"/><use x="209.246" xlink:href="#HelveticaWorld-Regular-112"/><use x="265.74" xlink:href="#HelveticaWorld-Regular-104"/><use x="320.916" xlink:href="#HelveticaWorld-Regular-112"/></g></g><g transform="matrix(.14 0 0 -.14 409.776 321.413)" fill="#bcbd22" id="text_24"><use xlink:href="#HelveticaWorld-Regular-115"/><use x="50" xlink:href="#HelveticaWorld-Regular-97"/><use x="104.932" xlink:href="#HelveticaWorld-Regular-105"/><use x="126.953" xlink:href="#HelveticaWorld-Regular-108"/><use x="148.975" xlink:href="#HelveticaWorld-Regular-115"/><use x="197.475" xlink:href="#HelveticaWorld-Regular-46"/><use x="225.258" xlink:href="#HelveticaWorld-Regular-106"/><use x="247.279" xlink:href="#HelveticaWorld-Regular-115"/></g><g id="text_25"><defs><path d="M17.188 45.016V10.984q0-2 1.093-3.046 1.11-1.047 3.938-1.047h3.375V0Q20.797-.688 19-.688q-5.516 0-8.063 2.641-2.53 2.64-2.53 8.547v34.516H1.311v7.28h7.094v14.595h8.781V52.297h8.407v-7.281z" id="HelveticaWorld-Regular-116"/></defs><g transform="matrix(.14 0 0 -.14 409.776 256.733)" fill="#17becf"><use xlink:href="#HelveticaWorld-Regular-110"/><use x="55.176" xlink:href="#HelveticaWorld-Regular-117"/><use x="109.961" xlink:href="#HelveticaWorld-Regular-120"/><use x="159.961" xlink:href="#HelveticaWorld-Regular-116"/><use x="187.646" xlink:href="#HelveticaWorld-Regular-46"/><use x="215.43" xlink:href="#HelveticaWorld-Regular-106"/><use x="237.451" xlink:href="#HelveticaWorld-Regular-115"/></g></g><g transform="matrix(.14 0 0 -.14 409.776 272.903)" fill="#aec7e8" id="text_26"><use xlink:href="#HelveticaWorld-Regular-110"/><use x="55.176" xlink:href="#HelveticaWorld-Regular-101"/><use x="107.721" xlink:href="#HelveticaWorld-Regular-120"/><use x="157.721" xlink:href="#HelveticaWorld-Regular-116"/><use x="185.406" xlink:href="#HelveticaWorld-Regular-46"/><use x="213.189" xlink:href="#HelveticaWorld-Regular-106"/><use x="235.211" xlink:href="#HelveticaWorld-Regular-115"/></g><g transform="matrix(.14 0 0 -.14 409.776 289.002)" fill="#ffbb78" id="text_27"><use xlink:href="#HelveticaWorld-Regular-103"/><use x="55.908" xlink:href="#HelveticaWorld-Regular-97"/><use x="110.84" xlink:href="#HelveticaWorld-Regular-116"/><use x="138.525" xlink:href="#HelveticaWorld-Regular-115"/><use x="188.525" xlink:href="#HelveticaWorld-Regular-98"/><use x="243.02" xlink:href="#HelveticaWorld-Regular-121"/></g><g transform="matrix(.14 0 0 -.14 409.776 353.774)" fill="#98df8a" id="text_28"><use xlink:href="#HelveticaWorld-Regular-107"/><use x="47.625" xlink:href="#HelveticaWorld-Regular-111"/><use x="103.533" xlink:href="#HelveticaWorld-Regular-97"/></g><g transform="matrix(.14 0 0 -.14 409.776 337.654)" fill="#ff9896" id="text_29"><use xlink:href="#HelveticaWorld-Regular-102"/><use x="25.686" xlink:href="#HelveticaWorld-Regular-101"/><use x="81.105" xlink:href="#HelveticaWorld-Regular-97"/><use x="136.037" xlink:href="#HelveticaWorld-Regular-116"/><use x="163.723" xlink:href="#HelveticaWorld-Regular-104"/><use x="218.898" xlink:href="#HelveticaWorld-Regular-101"/><use x="274.318" xlink:href="#HelveticaWorld-Regular-114"/><use x="306.887" xlink:href="#HelveticaWorld-Regular-115"/><use x="356.887" xlink:href="#HelveticaWorld-Regular-106"/><use x="378.908" xlink:href="#HelveticaWorld-Regular-115"/></g><g id="text_30"><defs><path d="M17.828 8.297h18.797q9.766 0 15.281 7.5 5.516 7.5 5.516 20.484 0 12.844-5.563 19.969-5.562 7.125-16.062 7.234H17.828zM8.11 71.78h29.094q14.11 0 22.094-9.703 7.984-9.687 7.984-25.156 0-16.61-7.984-26.766Q51.313 0 36.813 0H8.108z" id="HelveticaWorld-Regular-68"/><path d="M19.094 41H8.687v10.594h10.407zm0-41H8.687v10.594h10.407z" id="HelveticaWorld-Regular-58"/><path d="M50.39 50.781q-.296 6.844-5.109 10.719-4.797 3.875-12.656 3.875-7.922 0-12.172-3.25-4.234-3.234-4.234-9.344 0-3.265 1.843-5.61 1.86-2.343 6.641-3.468l20.516-4.687q8.297-1.813 12.297-6.875 4.015-5.047 4.015-12.313 0-10.64-7.812-16.187-7.813-5.547-20.313-5.547-9.531 0-15.031 2.437-5.484 2.453-9.734 7.766-4.25 5.328-4.25 14.89h9.093q0-8 5.313-12.406 5.328-4.39 14.5-4.39 8.89 0 13.844 3.156 4.953 3.156 4.953 8.953 0 5.281-2.953 7.89Q46.188 29 37.594 31l-15.469 3.625q-7.719 1.75-11.531 6.125Q6.78 45.125 6.78 51.516q0 9.672 6.516 15.922 6.531 6.25 18.203 6.25 13.172 0 20.328-5.5 7.156-5.485 7.688-17.407z" id="HelveticaWorld-Regular-83"/><path d="M63.922 35.89q0 12.594-6.672 20.891-6.656 8.313-18.328 8.313-11.531 0-18.266-8.313-6.734-8.297-6.734-20.89 0-12.985 6.828-21.094 6.844-8.11 18.172-8.11 11.078 0 18.031 7.907 6.969 7.922 6.969 21.297zm9.953 0q0-16.062-9.281-26.937-9.266-10.86-25.672-10.86-16.516 0-25.766 10.86-9.25 10.875-9.25 26.938 0 16.109 9.25 26.953 9.25 10.843 25.766 10.843 16.89 0 25.922-11.046 9.031-11.032 9.031-26.75z" id="HelveticaWorld-Regular-79"/><path d="M25.594 0h-8.985L1.516 52.297h9.468L21 11.187h.188l10.109 41.11h9.922l10.203-41.11h.187l10.594 41.11h8.703L55.812 0h-9.234L35.984 40.484h-.187z" id="HelveticaWorld-Regular-119"/><path d="M44 29.5L33.406 61.078h-.203L21.687 29.5zm-25.297-8.594L11.188 0h-9.97l27 71.781h10.985L65.187 0H54.594l-7.078 20.906z" id="HelveticaWorld-Regular-65"/><path d="M17.828 38.625H37.11q7.282 0 10.938 3.188 3.656 3.203 3.656 9.703 0 5.812-3.516 8.89-3.515 3.078-10.687 3.078H17.828zm0-38.625H8.11v71.781h32.266q9.625 0 15.484-5.594 5.86-5.593 5.86-14.578 0-9.328-5.672-15.312-5.656-5.969-15.672-5.969H17.828z" id="HelveticaWorld-Regular-80"/><path d="M17.828 0H8.11v71.781h9.72z" id="HelveticaWorld-Regular-73"/><path d="M9.422 73.688h7.281V-1.906H9.422z" id="HelveticaWorld-Regular-124"/><path d="M55.61 71.781h9.374V0h-10.78L17.577 58.016h-.187V0H8.109v71.781h11.375l35.938-57.969h.187z" id="HelveticaWorld-Regular-78"/><path d="M12.703 26.219q0-8.735 3.953-14.375 3.953-5.64 11.219-5.64 7.531 0 11.438 5.905 3.906 5.907 3.906 14.11 0 8.297-3.907 14.078-3.906 5.797-11.437 5.797-6.969 0-11.078-5.453-4.094-5.438-4.094-14.422zm-8.984 0q0 11.672 6.484 19.625 6.5 7.968 17.672 7.968 11.438 0 17.875-8.062 6.453-8.047 6.453-19.531 0-11.516-6.406-19.625-6.39-8.11-17.922-8.11-11.078 0-17.625 7.86-6.531 7.86-6.531 19.875zm36.734 35.406H31.47v10.156h8.984zm-16.219 0H15.25v10.156h8.984z" id="HelveticaWorld-Regular-246"/><path d="M6.594 52.297h8.297v-7.375h.203q5.906 8.89 15.812 8.89 9.813 0 13.922-8.5 3.75 4.594 7.266 6.547 3.515 1.953 8.703 1.953 6.781 0 11.484-4.453Q77 44.922 77 36.187V0h-8.781v33.797q0 6.094-2.297 9.094-2.297 3.015-7.422 3.015-5.172 0-8.75-4.203-3.563-4.203-3.563-9.812V0h-8.78v36.188q0 4.53-2.11 7.124-2.094 2.594-6.094 2.594-6.297 0-10.062-4.687-3.766-4.688-3.766-12.703V0H6.594z" id="HelveticaWorld-Regular-109"/><path d="M17.672 8.594h36.531V0H8.11v71.781h9.563z" id="HelveticaWorld-Regular-76"/><path d="M58.016 50.203q-1.625 7.313-6.782 11.094-5.14 3.797-13.343 3.797-10.594 0-17.047-7.703-6.438-7.688-6.438-20.766 0-15.14 6.094-22.547 6.11-7.39 17.688-7.39 7.609 0 13.093 5.046 5.5 5.063 7.407 14.688h9.421Q66.22 12.594 57.625 5.344t-20.906-7.25q-14.703 0-23.516 10.11Q4.391 18.311 4.391 36.28q0 17.328 9.203 27.36 9.203 10.047 24.297 10.047 12.5 0 20.265-6.454 7.766-6.437 9.235-17.03z" id="HelveticaWorld-Regular-67"/><path d="M8.11 71.781h31.484q9.281 0 14.797-5.031 5.515-5.031 5.515-13.031 0-4.844-2.422-8.828-2.406-3.97-7.187-6.172 6.687-2.532 9.828-6.735 3.156-4.203 3.156-10.797 0-9.265-6.687-15.234Q49.906 0 38.922 0H8.109zm9.562-63.484h20.703q7.625 0 11.422 3.531 3.812 3.547 3.812 9.563 0 6.093-4.25 9.093Q45.125 33.5 36.812 33.5h-19.14zm0 33.11h17.625q7.719 0 11.312 2.796 3.594 2.813 3.594 8.781 0 5.125-3.406 7.813-3.39 2.687-11.39 2.687H17.671z" id="HelveticaWorld-Regular-66"/><path d="M37.313 0h-9.72v28.906L.485 71.781h11.329l20.609-34.469 20.562 34.47h11.422L37.312 28.905z" id="HelveticaWorld-Regular-89"/></defs><g transform="matrix(.1 0 0 -.1 34.056 335.614)" fill="#888"><use xlink:href="#HelveticaWorld-Regular-68"/><use x="72.021" xlink:href="#HelveticaWorld-Regular-97"/><use x="126.953" xlink:href="#HelveticaWorld-Regular-116"/><use x="154.639" xlink:href="#HelveticaWorld-Regular-97"/><use x="209.57" xlink:href="#HelveticaWorld-Regular-32"/><use x="233.984" xlink:href="#HelveticaWorld-Regular-115"/><use x="283.984" xlink:href="#HelveticaWorld-Regular-111"/><use x="339.893" xlink:href="#HelveticaWorld-Regular-117"/><use x="394.678" xlink:href="#HelveticaWorld-Regular-114"/><use x="426.246" xlink:href="#HelveticaWorld-Regular-99"/><use x="477.516" xlink:href="#HelveticaWorld-Regular-101"/><use x="532.936" xlink:href="#HelveticaWorld-Regular-58"/><use x="555.719" xlink:href="#HelveticaWorld-Regular-32"/><use x="580.133" xlink:href="#HelveticaWorld-Regular-83"/><use x="646.344" xlink:href="#HelveticaWorld-Regular-116"/><use x="674.029" xlink:href="#HelveticaWorld-Regular-97"/><use x="728.961" xlink:href="#HelveticaWorld-Regular-99"/><use x="780.23" xlink:href="#HelveticaWorld-Regular-107"/><use x="830.23" xlink:href="#HelveticaWorld-Regular-79"/><use x="908.014" xlink:href="#HelveticaWorld-Regular-118"/><use x="955.623" xlink:href="#HelveticaWorld-Regular-101"/><use x="1011.043" xlink:href="#HelveticaWorld-Regular-114"/><use x="1045.111" xlink:href="#HelveticaWorld-Regular-102"/><use x="1072.797" xlink:href="#HelveticaWorld-Regular-108"/><use x="1094.818" xlink:href="#HelveticaWorld-Regular-111"/><use x="1149.227" xlink:href="#HelveticaWorld-Regular-119"/><use x="1221.639" xlink:href="#HelveticaWorld-Regular-32"/><use x="1246.053" xlink:href="#HelveticaWorld-Regular-65"/><use x="1312.752" xlink:href="#HelveticaWorld-Regular-80"/><use x="1377.4" xlink:href="#HelveticaWorld-Regular-73"/><use x="1403.182" xlink:href="#HelveticaWorld-Regular-32"/><use x="1427.596" xlink:href="#HelveticaWorld-Regular-124"/><use x="1453.572" xlink:href="#HelveticaWorld-Regular-32"/><use x="1477.986" xlink:href="#HelveticaWorld-Regular-65"/><use x="1543.686" xlink:href="#HelveticaWorld-Regular-117"/><use x="1598.471" xlink:href="#HelveticaWorld-Regular-116"/><use x="1626.156" xlink:href="#HelveticaWorld-Regular-104"/><use x="1681.332" xlink:href="#HelveticaWorld-Regular-111"/><use x="1737.24" xlink:href="#HelveticaWorld-Regular-114"/><use x="1772.809" xlink:href="#HelveticaWorld-Regular-58"/><use x="1795.592" xlink:href="#HelveticaWorld-Regular-32"/><use x="1820.006" xlink:href="#HelveticaWorld-Regular-78"/><use x="1893.102" xlink:href="#HelveticaWorld-Regular-105"/><use x="1915.123" xlink:href="#HelveticaWorld-Regular-99"/><use x="1966.393" xlink:href="#HelveticaWorld-Regular-111"/><use x="2022.301" xlink:href="#HelveticaWorld-Regular-32"/><use x="2046.715" xlink:href="#HelveticaWorld-Regular-83"/><use x="2112.926" xlink:href="#HelveticaWorld-Regular-99"/><use x="2164.195" xlink:href="#HelveticaWorld-Regular-104"/><use x="2219.371" xlink:href="#HelveticaWorld-Regular-108"/><use x="2241.393" xlink:href="#HelveticaWorld-Regular-246"/><use x="2297.301" xlink:href="#HelveticaWorld-Regular-109"/><use x="2380.309" xlink:href="#HelveticaWorld-Regular-101"/><use x="2435.729" xlink:href="#HelveticaWorld-Regular-114"/><use x="2468.297" xlink:href="#HelveticaWorld-Regular-32"/><use x="2492.711" xlink:href="#HelveticaWorld-Regular-124"/><use x="2518.688" xlink:href="#HelveticaWorld-Regular-32"/><use x="2543.102" xlink:href="#HelveticaWorld-Regular-76"/><use x="2598.717" xlink:href="#HelveticaWorld-Regular-105"/><use x="2620.738" xlink:href="#HelveticaWorld-Regular-99"/><use x="2672.008" xlink:href="#HelveticaWorld-Regular-101"/><use x="2727.428" xlink:href="#HelveticaWorld-Regular-110"/><use x="2782.604" xlink:href="#HelveticaWorld-Regular-115"/><use x="2832.604" xlink:href="#HelveticaWorld-Regular-101"/><use x="2888.023" xlink:href="#HelveticaWorld-Regular-58"/><use x="2910.807" xlink:href="#HelveticaWorld-Regular-32"/><use x="2935.221" xlink:href="#HelveticaWorld-Regular-67"/><use x="3007.535" xlink:href="#HelveticaWorld-Regular-67"/><use x="3079.85" xlink:href="#HelveticaWorld-Regular-32"/><use x="3104.264" xlink:href="#HelveticaWorld-Regular-66"/><use x="3167.076" xlink:href="#HelveticaWorld-Regular-89"/></g></g><g id="text_31"><defs><path d="M41.5 23.688q0 11.125-3.5 16.671-3.484 5.547-10.61 5.547-6.874 0-10.593-4.5-3.703-4.484-3.703-15.093 0-9.422 3.75-14.813 3.765-5.39 10.36-5.39 5.812 0 10.046 4.39 4.25 4.39 4.25 13.188zm8.406-44.391H41.11V5.516h-.187Q35.89-1.516 27-1.516q-10.984 0-17 8.157-6 8.156-6 21.047 0 11.421 5.906 18.765 5.922 7.36 15.875 7.36 9.907 0 15.625-8.891h.203v7.375h8.297z" id="HelveticaWorld-Regular-113"/></defs><g transform="matrix(.14 0 0 -.14 83.99 17.516)"><use xlink:href="#HelveticaWorld-Regular-68"/><use x="72.021" xlink:href="#HelveticaWorld-Regular-97"/><use x="126.953" xlink:href="#HelveticaWorld-Regular-105"/><use x="148.975" xlink:href="#HelveticaWorld-Regular-108"/><use x="170.996" xlink:href="#HelveticaWorld-Regular-121"/><use x="220.605" xlink:href="#HelveticaWorld-Regular-32"/><use x="245.02" xlink:href="#HelveticaWorld-Regular-110"/><use x="300.195" xlink:href="#HelveticaWorld-Regular-117"/><use x="354.98" xlink:href="#HelveticaWorld-Regular-109"/><use x="437.988" xlink:href="#HelveticaWorld-Regular-98"/><use x="494.482" xlink:href="#HelveticaWorld-Regular-101"/><use x="549.902" xlink:href="#HelveticaWorld-Regular-114"/><use x="582.471" xlink:href="#HelveticaWorld-Regular-32"/><use x="606.885" xlink:href="#HelveticaWorld-Regular-111"/><use x="662.793" xlink:href="#HelveticaWorld-Regular-102"/><use x="690.479" xlink:href="#HelveticaWorld-Regular-32"/><use x="714.893" xlink:href="#HelveticaWorld-Regular-113"/><use x="771.387" xlink:href="#HelveticaWorld-Regular-117"/><use x="826.172" xlink:href="#HelveticaWorld-Regular-101"/><use x="881.592" xlink:href="#HelveticaWorld-Regular-115"/><use x="931.592" xlink:href="#HelveticaWorld-Regular-116"/><use x="959.277" xlink:href="#HelveticaWorld-Regular-105"/><use x="981.299" xlink:href="#HelveticaWorld-Regular-111"/><use x="1037.207" xlink:href="#HelveticaWorld-Regular-110"/><use x="1092.383" xlink:href="#HelveticaWorld-Regular-115"/><use x="1142.383" xlink:href="#HelveticaWorld-Regular-32"/><use x="1166.797" xlink:href="#HelveticaWorld-Regular-111"/><use x="1222.705" xlink:href="#HelveticaWorld-Regular-110"/><use x="1277.881" xlink:href="#HelveticaWorld-Regular-32"/><use x="1302.295" xlink:href="#HelveticaWorld-Regular-83"/><use x="1368.506" xlink:href="#HelveticaWorld-Regular-116"/><use x="1396.191" xlink:href="#HelveticaWorld-Regular-97"/><use x="1451.123" xlink:href="#HelveticaWorld-Regular-99"/><use x="1502.393" xlink:href="#HelveticaWorld-Regular-107"/><use x="1552.393" xlink:href="#HelveticaWorld-Regular-79"/><use x="1630.176" xlink:href="#HelveticaWorld-Regular-118"/><use x="1677.785" xlink:href="#HelveticaWorld-Regular-101"/><use x="1733.205" xlink:href="#HelveticaWorld-Regular-114"/><use x="1767.273" xlink:href="#HelveticaWorld-Regular-102"/><use x="1794.959" xlink:href="#HelveticaWorld-Regular-108"/><use x="1816.98" xlink:href="#HelveticaWorld-Regular-111"/><use x="1871.389" xlink:href="#HelveticaWorld-Regular-119"/></g></g></g></g><defs><clipPath id="p3ab14a1caa"><path d="M34.056 23.516h372v277.2h-372z"/></clipPath></defs></svg>