<svg height="475.651" viewBox="0 0 486.512 356.738" width="648.682" xmlns="http://www.w3.org/2000/svg" xmlns:xlink="http://www.w3.org/1999/xlink"><defs><style>*{stroke-linecap:butt;stroke-linejoin:round}</style></defs><g id="figure_1"><path d="M0 356.738h486.512V0H0z" fill="none" id="patch_1"/><g id="axes_1"><path d="M33.66 313.628h357.12V47.516H33.66z" fill="none" id="patch_2"/><path clip-path="url(#p14572766ac)" d="M150.688 313.628l2.456-11.088 2.454 11.088 2.454-22.176 2.495 22.176H167.751l2.455-11.088 2.455 11.088H233.87l2.495-11.088 2.455 11.088H248.68l2.414-11.852 2.413.764 2.457 11.088h34.287l2.455-11.088 2.495 11.088H302.566l2.455-11.088 2.495 11.088h17.064l2.454-11.457 2.457 11.457 2.453-11.457 2.455 11.457h7.242l2.457-11.457 2.454 11.457H376.011l2.455-11.457 2.454.37h2.495l2.455 11.087h4.91" fill="none" stroke="#9467bd" stroke-linecap="square" stroke-width="1.5" id="line2d_1"/><g id="matplotlib.axis_1"><g id="xtick_1"><g id="line2d_2"><defs><path d="M0 0v3.5" id="mcceee75ef9" stroke="#969696" stroke-width=".4"/></defs><use x="71.086" xlink:href="#mcceee75ef9" y="313.628" fill="#969696" stroke="#969696" stroke-width=".4"/></g><g transform="matrix(.14 0 0 -.14 55.516 330.678)" fill="#969696" id="text_1"><defs><path d="M4.39 45.125q0 12.39 6.391 18.781 6.406 6.407 17.938 6.407 9.656 0 15.812-5.86 6.157-5.86 6.157-15.14 0-7.22-3.547-12.188-3.532-4.953-10.422-8.703l-12.11-6.64Q13.922 15.921 12.5 8.296h38.188V0H2.593q.39 9.906 4.297 16.5 3.906 6.594 12.203 11.375l12.593 7.328q5.032 2.89 7.329 5.984 2.297 3.094 2.297 8.516 0 5.375-3.766 9.031-3.75 3.672-10.156 3.672-7.078 0-10.594-4.672-3.516-4.656-3.61-12.609z" id="HelveticaWorld-Regular-50"/><path d="M42.484 34.188q0 14.109-3.734 21.156-3.734 7.062-10.969 7.062-7.078 0-10.89-7.062-3.797-7.047-3.797-21.157 0-13.671 3.75-20.937Q20.609 6 27.78 6q7.235 0 10.969 7 3.734 7.016 3.734 21.188zm9.422 0q0-17.297-6.25-26.704-6.25-9.39-17.875-9.39-12.062 0-18.062 9.734-6 9.75-6 26.36 0 17.03 6.14 26.578 6.157 9.547 17.922 9.547 11.625 0 17.875-9.5t6.25-26.626z" id="HelveticaWorld-Regular-48"/><path d="M35.89 0h-9.374v49.906H10.109v6.985q8.594.28 12.782 2.75Q27.094 62.109 29 70.313h6.89z" id="HelveticaWorld-Regular-49"/></defs><use xlink:href="#HelveticaWorld-Regular-50"/><use x="55.615" xlink:href="#HelveticaWorld-Regular-48"/><use x="111.23" xlink:href="#HelveticaWorld-Regular-49"/><use x="166.846" xlink:href="#HelveticaWorld-Regular-48"/></g></g><g id="xtick_2"><use x="129.842" xlink:href="#mcceee75ef9" y="313.628" fill="#969696" stroke="#969696" stroke-width=".4" id="line2d_3"/><g transform="matrix(.14 0 0 -.14 114.271 330.678)" fill="#969696" id="text_2"><use xlink:href="#HelveticaWorld-Regular-50"/><use x="55.615" xlink:href="#HelveticaWorld-Regular-48"/><use x="111.23" xlink:href="#HelveticaWorld-Regular-49"/><use x="166.846" xlink:href="#HelveticaWorld-Regular-50"/></g></g><g id="xtick_3"><use x="188.678" xlink:href="#mcceee75ef9" y="313.628" fill="#969696" stroke="#969696" stroke-width=".4" id="line2d_4"/><g transform="matrix(.14 0 0 -.14 173.107 330.678)" fill="#969696" id="text_3"><defs><path d="M10.594 24.703h22.61v31.89h-.188zM42 17.093V0h-8.797v17.094H2.484v8.593L34.72 70.314H42v-45.61h10.297v-7.61z" id="HelveticaWorld-Regular-52"/></defs><use xlink:href="#HelveticaWorld-Regular-50"/><use x="55.615" xlink:href="#HelveticaWorld-Regular-48"/><use x="111.23" xlink:href="#HelveticaWorld-Regular-49"/><use x="166.846" xlink:href="#HelveticaWorld-Regular-52"/></g></g><g id="xtick_4"><use x="247.433" xlink:href="#mcceee75ef9" y="313.628" fill="#969696" stroke="#969696" stroke-width=".4" id="line2d_5"/><g transform="matrix(.14 0 0 -.14 231.862 330.678)" fill="#969696" id="text_4"><defs><path d="M14.11 21.578q0-6.875 4.093-11.234Q22.313 6 28.906 6q6.297 0 10.032 4.438 3.734 4.453 3.734 11.687 0 6.297-3.688 10.547-3.687 4.25-10.468 4.25-6.594 0-10.5-4.156-3.907-4.157-3.907-11.188zM41.702 51.61q-.984 5.375-3.984 8.078-3 2.72-8.125 2.72-8.11 0-12.36-7.923-4.25-7.906-4.343-18.109l.203-.188q5.61 8.641 16.687 8.641 8.844 0 15.438-5.86 6.593-5.859 6.593-16.452 0-10.5-6.25-17.47-6.25-6.952-16.843-6.952-12.219 0-18.563 8.687-6.344 8.703-6.344 25.938 0 16.593 6.485 27.093 6.5 10.5 19.484 10.5 8.407 0 14.219-5.015 5.813-5 6.297-13.688z" id="HelveticaWorld-Regular-54"/></defs><use xlink:href="#HelveticaWorld-Regular-50"/><use x="55.615" xlink:href="#HelveticaWorld-Regular-48"/><use x="111.23" xlink:href="#HelveticaWorld-Regular-49"/><use x="166.846" xlink:href="#HelveticaWorld-Regular-54"/></g></g><g id="xtick_5"><use x="306.269" xlink:href="#mcceee75ef9" y="313.628" fill="#969696" stroke="#969696" stroke-width=".4" id="line2d_6"/><g transform="matrix(.14 0 0 -.14 290.698 330.678)" fill="#969696" id="text_5"><defs><path d="M27.594 40.578q5.422 0 8.953 3.094 3.547 3.11 3.547 8.234 0 4.594-3.407 7.547-3.39 2.953-9.687 2.953-5.61 0-8.672-3.11-3.047-3.093-3.047-7.874 0-5.125 3.813-7.984 3.812-2.86 8.5-2.86zm.093-7.562q-6.78 0-10.64-3.766-3.86-3.766-3.86-9.234 0-6.297 3.907-10.157Q21 6 28.219 6q6.406 0 10.234 3.86 3.828 3.859 3.828 10.265 0 5.469-3.828 9.172-3.828 3.719-10.766 3.719zM49.22 52.203q0-10.594-9.032-14.797 6.204-2.781 8.86-7.36 2.656-4.562 2.656-9.733 0-10.016-6.453-16.125-6.438-6.094-17.375-6.094-9.563 0-16.813 5.25-7.25 5.25-7.25 17.062 0 11.922 11.907 16.907-9.516 3.796-9.516 13.671 0 8.297 5.64 13.813 5.641 5.516 15.641 5.516 10.016 0 15.875-5.204 5.86-5.203 5.86-12.906z" id="HelveticaWorld-Regular-56"/></defs><use xlink:href="#HelveticaWorld-Regular-50"/><use x="55.615" xlink:href="#HelveticaWorld-Regular-48"/><use x="111.23" xlink:href="#HelveticaWorld-Regular-49"/><use x="166.846" xlink:href="#HelveticaWorld-Regular-56"/></g></g><g id="xtick_6"><use x="365.024" xlink:href="#mcceee75ef9" y="313.628" fill="#969696" stroke="#969696" stroke-width=".4" id="line2d_7"/><g transform="matrix(.14 0 0 -.14 349.454 330.678)" fill="#969696" id="text_6"><use xlink:href="#HelveticaWorld-Regular-50"/><use x="55.615" xlink:href="#HelveticaWorld-Regular-48"/><use x="111.23" xlink:href="#HelveticaWorld-Regular-50"/><use x="166.846" xlink:href="#HelveticaWorld-Regular-48"/></g></g></g><g id="matplotlib.axis_2"><g id="ytick_1"><path clip-path="url(#p14572766ac)" d="M33.66 313.628h357.12" fill="none" stroke="#969696" stroke-linecap="square" stroke-width=".3" id="line2d_8"/><g id="line2d_9"><defs><path d="M0 0h-3.5" id="m55c13c51a0" stroke="#969696" stroke-width=".3"/></defs><use x="33.66" xlink:href="#m55c13c51a0" y="313.628" fill="#969696" stroke="#969696" stroke-width=".3"/></g><g transform="matrix(.14 0 0 -.14 7.2 318.653)" fill="#969696" id="text_7"><defs><path d="M19.094 0H8.687v10.594h10.407z" id="HelveticaWorld-Regular-46"/></defs><use xlink:href="#HelveticaWorld-Regular-48"/><use x="55.615" xlink:href="#HelveticaWorld-Regular-46"/><use x="83.398" xlink:href="#HelveticaWorld-Regular-48"/></g></g><g id="ytick_2"><path clip-path="url(#p14572766ac)" d="M33.66 279.255h357.12" fill="none" stroke="#969696" stroke-linecap="square" stroke-width=".3" id="line2d_10"/><use x="33.66" xlink:href="#m55c13c51a0" y="279.255" fill="#969696" stroke="#969696" stroke-width=".3" id="line2d_11"/><g transform="matrix(.14 0 0 -.14 7.2 284.28)" fill="#969696" id="text_8"><use xlink:href="#HelveticaWorld-Regular-48"/><use x="55.615" xlink:href="#HelveticaWorld-Regular-46"/><use x="83.398" xlink:href="#HelveticaWorld-Regular-49"/></g></g><g id="ytick_3"><path clip-path="url(#p14572766ac)" d="M33.66 244.883h357.12" fill="none" stroke="#969696" stroke-linecap="square" stroke-width=".3" id="line2d_12"/><use x="33.66" xlink:href="#m55c13c51a0" y="244.883" fill="#969696" stroke="#969696" stroke-width=".3" id="line2d_13"/><g transform="matrix(.14 0 0 -.14 7.2 249.907)" fill="#969696" id="text_9"><use xlink:href="#HelveticaWorld-Regular-48"/><use x="55.615" xlink:href="#HelveticaWorld-Regular-46"/><use x="83.398" xlink:href="#HelveticaWorld-Regular-50"/></g></g><g id="ytick_4"><path clip-path="url(#p14572766ac)" d="M33.66 210.51h357.12" fill="none" stroke="#969696" stroke-linecap="square" stroke-width=".3" id="line2d_14"/><use x="33.66" xlink:href="#m55c13c51a0" y="210.51" fill="#969696" stroke="#969696" stroke-width=".3" id="line2d_15"/><g transform="matrix(.14 0 0 -.14 7.2 215.535)" fill="#969696" id="text_10"><defs><path d="M22.406 39.984q2.203-.187 4.594-.187 6.203 0 9.781 2.86 3.594 2.859 3.594 8.656 0 4.687-3.344 7.89-3.343 3.203-9.64 3.203-6.985 0-10.235-4.11-3.234-4.093-3.437-10.983h-8.64q0 10.984 5.765 16.984 5.765 6.016 16.937 6.016 9.922 0 15.828-5.11 5.907-5.094 5.907-13.39 0-10.704-9.032-14.5v-.204q11.72-4 11.72-16.406 0-9.906-6.595-16.265-6.593-6.344-18.703-6.344-9.906 0-16.312 5.203Q4.204 8.5 3.422 21.484H12.5q.203-8.109 4-11.797Q20.313 6 27.484 6q6.938 0 11.141 3.86 4.203 3.859 4.203 9.718 0 6.406-4.016 9.672-4 3.266-12.39 3.266-2 0-4.016-.094z" id="HelveticaWorld-Regular-51"/></defs><use xlink:href="#HelveticaWorld-Regular-48"/><use x="55.615" xlink:href="#HelveticaWorld-Regular-46"/><use x="83.398" xlink:href="#HelveticaWorld-Regular-51"/></g></g><g id="ytick_5"><path clip-path="url(#p14572766ac)" d="M33.66 176.137h357.12" fill="none" stroke="#969696" stroke-linecap="square" stroke-width=".3" id="line2d_16"/><use x="33.66" xlink:href="#m55c13c51a0" y="176.137" fill="#969696" stroke="#969696" stroke-width=".3" id="line2d_17"/><g transform="matrix(.14 0 0 -.14 7.2 181.162)" fill="#969696" id="text_11"><use xlink:href="#HelveticaWorld-Regular-48"/><use x="55.615" xlink:href="#HelveticaWorld-Regular-46"/><use x="83.398" xlink:href="#HelveticaWorld-Regular-52"/></g></g><g id="ytick_6"><path clip-path="url(#p14572766ac)" d="M33.66 141.764h357.12" fill="none" stroke="#969696" stroke-linecap="square" stroke-width=".3" id="line2d_18"/><use x="33.66" xlink:href="#m55c13c51a0" y="141.764" fill="#969696" stroke="#969696" stroke-width=".3" id="line2d_19"/><g transform="matrix(.14 0 0 -.14 7.2 146.789)" fill="#969696" id="text_12"><defs><path d="M14.703 40.922q5.813 4.39 13.625 4.39 9.469 0 16.281-6.296 6.813-6.297 6.813-16.22 0-10.78-6.578-17.796-6.563-7-18.422-7-10.313 0-16.266 5.047Q4.203 8.109 3.22 17.39h9.094q.671-5.672 4.437-8.672 3.766-3 10.453-3 6.485 0 10.64 4.484Q42 14.703 42 21.688q0 7.125-4.36 11.421-4.343 4.297-11.218 4.297-7.813 0-13.047-6.687l-7.563.39 5.266 37.594h36.438v-8.5H17.672z" id="HelveticaWorld-Regular-53"/></defs><use xlink:href="#HelveticaWorld-Regular-48"/><use x="55.615" xlink:href="#HelveticaWorld-Regular-46"/><use x="83.398" xlink:href="#HelveticaWorld-Regular-53"/></g></g><g id="ytick_7"><path clip-path="url(#p14572766ac)" d="M33.66 107.391h357.12" fill="none" stroke="#969696" stroke-linecap="square" stroke-width=".3" id="line2d_20"/><use x="33.66" xlink:href="#m55c13c51a0" y="107.391" fill="#969696" stroke="#969696" stroke-width=".3" id="line2d_21"/><g transform="matrix(.14 0 0 -.14 7.2 112.416)" fill="#969696" id="text_13"><use xlink:href="#HelveticaWorld-Regular-48"/><use x="55.615" xlink:href="#HelveticaWorld-Regular-46"/><use x="83.398" xlink:href="#HelveticaWorld-Regular-54"/></g></g><g id="ytick_8"><path clip-path="url(#p14572766ac)" d="M33.66 73.019h357.12" fill="none" stroke="#969696" stroke-linecap="square" stroke-width=".3" id="line2d_22"/><use x="33.66" xlink:href="#m55c13c51a0" y="73.019" fill="#969696" stroke="#969696" stroke-width=".3" id="line2d_23"/><g transform="matrix(.14 0 0 -.14 7.2 78.043)" fill="#969696" id="text_14"><defs><path d="M3.719 68.797h48.578v-7.719Q42.28 50.875 33.984 33.484 25.687 16.11 23.391 0h-9.672q1.469 13.281 9.719 30.531 8.25 17.266 18.953 29.672H3.719z" id="HelveticaWorld-Regular-55"/></defs><use xlink:href="#HelveticaWorld-Regular-48"/><use x="55.615" xlink:href="#HelveticaWorld-Regular-46"/><use x="83.398" xlink:href="#HelveticaWorld-Regular-55"/></g></g></g><path clip-path="url(#p14572766ac)" d="M33.66 292.145l1.893 21.483h17.062l2.454-22.915 2.455 11.827 2.495 11.088h29.378l2.455-11.457 2.456 11.457h7.404l2.374-12.276 2.373 12.276h4.911l2.455-11.457 2.455 11.457h2.495l2.455-11.457 2.456 11.457 2.453-11.457 2.455 11.457h2.495l2.415-11.852 2.413 11.852 2.456-22.915 2.455 22.915 2.455-11.457 2.455-10.719h2.495l2.455 22.176 2.456-22.176 2.454-.739 2.454 11.827 2.495 11.088 2.375-12.276 2.373 1.188 2.456-11.827 2.455-10.349 2.455 10.35 2.455-10.35 2.495 22.176 2.455-23.285 2.456-21.067 2.453 32.525 2.455 11.827h2.495l2.375-25.74 2.372 25.74 2.457-34.742 2.455 23.654 2.454 10.719 2.455-10.719 2.495 11.088 2.455-.37 2.457-10.718 2.453-35.112 2.455 35.112h2.495l2.374-2.376 2.373 24.552 2.456-68.745 2.455 68.745 2.455-11.457 2.455.37 2.495-22.177 2.455-1.109 2.456-9.979 2.454 44.352 2.454-33.264 2.496-22.176 2.414 19.882 2.413-30.97 2.457 43.613 2.454 22.915 2.455-34.373 2.455 12.197 2.495 22.176 2.455-34.373 2.457 23.285 2.453-.37 2.455-10.718 2.495 22.176 2.374-12.276 2.373 1.188 2.456-11.827 2.455 11.827 2.455-23.285 2.455-9.979 2.495 11.088 2.455 21.807 2.456-32.895 2.453 21.437 2.455 11.827h2.495l2.375-50.292 2.372 28.116 2.457 21.807 2.455.37 2.455-11.828 2.455.74h2.495l2.454-35.113 2.457 35.112 2.453 10.719 2.455-10.719 2.495-44.352 2.374 17.424 2.373 26.928 2.457-12.197 2.454 12.197 2.455 10.719 2.455 11.457 2.495-33.264 2.455 10.35 2.457.738 2.453 10.719 2.455.37 2.495-33.265 2.414-38.617 2.413 27.53 2.457-13.306 2.455-31.047 2.455 42.504 2.454-64.68 2.495 88.704 2.455-12.566 2.457 12.566 2.453 10.35h0" fill="none" stroke="#d62728" stroke-linecap="square" stroke-width="1.5" id="line2d_24"/><path clip-path="url(#p14572766ac)" d="M155.598 313.628l2.454-22.176 2.495 22.176H187.43l2.495-11.088 2.375 11.088 2.372-11.088 2.457-.37 2.455.37 2.454-.37 2.455.37h2.495l2.455 11.088h4.91l2.455-11.088h2.495l2.374-25.74 2.373 25.74 2.456-11.827 2.455 22.915h2.455l2.455-11.088 2.495-11.088 2.455-.739 2.456 22.915 2.454-11.457 2.454.37 2.496 11.087h2.414l2.413-11.088 2.457-23.285 2.454 23.285 2.455-11.827 2.455 11.827 2.495-11.088 2.455 22.176 2.457-22.176 2.453 10.719 2.455.37 2.495 11.087 2.374-12.276 2.373 12.276 2.456-22.915 2.455 11.827 2.455-11.827 2.455 11.827 2.495 11.088H305.02l2.495-11.088 2.375-13.464 2.372-19.8 2.457 32.895 2.455-10.719 2.455 22.176 2.455-11.088 2.495 11.088 2.454-22.915 2.457 22.915H334.399l2.495-33.264 2.374 33.264 2.373-11.088 2.457-.37 2.454 11.458h2.455l2.455-33.264 2.495 33.264 2.455-11.457 2.457.37 2.453-.37 2.455-10.719 2.495 22.176h2.414l2.413-44.352 2.457 44.352 2.455-33.264 2.455 21.807 2.454-32.895 2.495 22.176 2.455 10.719 2.457.37 2.453-11.828" fill="none" stroke="#2ca02c" stroke-linecap="square" stroke-width="1.5" id="line2d_25"/><g transform="matrix(.14 0 0 -.14 394.351 179.529)" fill="#1f77b4" id="text_15"><defs><path d="M12.984 26.313q0-9.61 3.813-14.907Q20.609 6.11 27.094 6.11q6.312 0 10.312 4.579 4 4.593 4 13 0 11.03-3.5 16.625-3.484 5.593-10.61 5.593-7.171 0-10.75-4.765-3.562-4.766-3.562-14.828zM49.812 2.983q0-12.609-6.062-18.797-6.047-6.203-18.266-6.203-8.78 0-13.984 4.047Q6.297-13.922 5.516-6.39h8.796q.672-3.812 3.532-6.062 2.86-2.25 8.281-2.25 7.375 0 11.125 3.969 3.766 3.953 3.766 12.828v3.719h-.188q-4.937-7.329-13.922-7.329-11.187 0-17.093 8.25-5.907 8.25-5.907 20.953 0 11.625 5.953 18.875 5.97 7.25 15.829 7.25 9.906 0 15.625-8.89h.187v7.375h8.313z" id="HelveticaWorld-Regular-103"/><path d="M49.219 0h-8.844v32.172q0 7.422-2.594 10.578-2.578 3.156-8.578 3.156-5.906 0-9.875-4.5-3.953-4.484-3.953-12.89V0H6.594v52.297h8.297v-7.375h.203q6.203 8.89 15.812 8.89 8.89 0 13.594-4.718 4.719-4.703 4.719-13.5z" id="HelveticaWorld-Regular-110"/><path d="M12.703 26.219q0-8.735 3.953-14.375 3.953-5.64 11.219-5.64 7.531 0 11.438 5.905 3.906 5.907 3.906 14.11 0 8.297-3.907 14.078-3.906 5.797-11.437 5.797-6.969 0-11.078-5.453-4.094-5.438-4.094-14.422zm-8.984 0q0 11.672 6.484 19.625 6.5 7.968 17.672 7.968 11.438 0 17.875-8.062 6.453-8.047 6.453-19.531 0-11.516-6.406-19.625-6.39-8.11-17.922-8.11-11.078 0-17.625 7.86-6.531 7.86-6.531 19.875z" id="HelveticaWorld-Regular-111"/><path d="M6.594 52.297h8.297v-7.375h.203q5.906 8.89 15.812 8.89 9.813 0 13.922-8.5 3.75 4.594 7.266 6.547 3.515 1.953 8.703 1.953 6.781 0 11.484-4.453Q77 44.922 77 36.187V0h-8.781v33.797q0 6.094-2.297 9.094-2.297 3.015-7.422 3.015-5.172 0-8.75-4.203-3.563-4.203-3.563-9.812V0h-8.78v36.188q0 4.53-2.11 7.124-2.094 2.594-6.094 2.594-6.297 0-10.062-4.687-3.766-4.688-3.766-12.703V0H6.594z" id="HelveticaWorld-Regular-109"/><path d="M42.484 30.328q-.687 8.485-4.5 12.031-3.797 3.547-10.109 3.547-6.39 0-10.328-4.5-3.922-4.484-4.172-11.078zm8.391-13.922q-1.453-8.11-7.953-13.422-5.719-4.5-15.047-4.593-10.984.093-17.438 7.203Q4 12.704 4 24.704q0 13.78 6.64 21.437 6.641 7.672 18.47 7.672 10.593 0 16.546-7.922 5.953-7.907 5.953-22.594H13.375q0-8.203 3.813-12.703Q21 6.109 28.608 6.109q5.375 0 9.235 3.235 3.86 3.25 4.25 7.062z" id="HelveticaWorld-Regular-101"/></defs><use xlink:href="#HelveticaWorld-Regular-103"/><use x="55.908" xlink:href="#HelveticaWorld-Regular-110"/><use x="111.084" xlink:href="#HelveticaWorld-Regular-111"/><use x="166.992" xlink:href="#HelveticaWorld-Regular-109"/><use x="250" xlink:href="#HelveticaWorld-Regular-101"/></g><g transform="matrix(.14 0 0 -.14 394.351 225.543)" fill="#ff7f0e" id="text_16"><defs><path d="M50 0H38.719L22.406 26.422l-7.312-6.594V0h-8.5v71.781h8.5v-41.61l22.5 22.126H48.78L28.813 32.813z" id="HelveticaWorld-Regular-107"/><path d="M13.094 26.313q0-9.704 3.844-14.954 3.859-5.25 10.265-5.25 6.094 0 10.188 4.485 4.109 4.5 4.109 13.094 0 11.03-3.5 16.625-3.484 5.593-10.61 5.593-6.78 0-10.546-4.453-3.75-4.437-3.75-15.14zM50.39 0h-8.297v7.172h-.203q-4.97-8.688-15.078-8.688-10.891 0-16.86 8.297Q4 15.094 4 27.688q0 11.625 5.906 18.875 5.922 7.25 15.875 7.25 9.813 0 15.625-8.891l.203.594V71.78h8.782z" id="HelveticaWorld-Regular-100"/></defs><use xlink:href="#HelveticaWorld-Regular-107"/><use x="47.625" xlink:href="#HelveticaWorld-Regular-100"/><use x="104.607" xlink:href="#HelveticaWorld-Regular-101"/></g><g transform="matrix(.14 0 0 -.14 394.351 301.289)" fill="#2ca02c" id="text_17"><defs><path d="M39.594 34.719q-1.89 11.187-12.39 11.187-6.5 0-10.454-5.203-3.953-5.203-3.953-14.484 0-10.11 3.656-15.11 3.672-5 10.64-5 4.688 0 8.11 3.438 3.422 3.437 4.39 8.953h8.5q-1.312-9.703-6.859-14.86-5.547-5.156-14.328-5.156-10.297 0-16.89 7.047-6.594 7.063-6.594 19.172 0 13.281 6.594 21.188 6.593 7.922 18.5 7.922 8.687 0 13.843-5.204 5.157-5.203 5.735-13.89z" id="HelveticaWorld-Regular-99"/><path d="M6.594 61.813v9.968h8.781v-9.969zM15.375 0H6.594v52.297h8.781z" id="HelveticaWorld-Regular-105"/><path d="M38.375 26.703q-.969-1.015-3.828-1.656-2.86-.625-10.672-1.656-5.766-.688-8.469-2.844-2.703-2.14-2.703-5.656 0-4.297 2.281-6.688 2.297-2.39 7.329-2.39 6.296 0 11.171 3.578 4.891 3.593 4.891 8.718zM6.203 36.375q.297 8.844 5.734 13.14 5.454 4.297 15.844 4.297 8.297 0 13.907-3.765 5.624-3.75 5.624-10.844V9.078Q47.313 6 50.094 6q1.125 0 2.89.39V0Q50.594-.984 48-.984q-4.5 0-6.703 1.921-2.188 1.938-2.281 6.047-7.516-8.5-18.891-8.5-7.422 0-11.922 4.204Q3.72 6.89 3.72 13.624q0 6.89 3.906 11.125Q11.531 29 19 29.89l15.516 1.891q4.203.64 4.203 6.203 0 4.11-3.047 6.297-3.047 2.203-9.25 2.203-5.516 0-8.485-2.437-2.953-2.438-3.53-7.672z" id="HelveticaWorld-Regular-97"/></defs><use xlink:href="#HelveticaWorld-Regular-99"/><use x="51.27" xlink:href="#HelveticaWorld-Regular-105"/><use x="73.291" xlink:href="#HelveticaWorld-Regular-110"/><use x="128.467" xlink:href="#HelveticaWorld-Regular-110"/><use x="183.643" xlink:href="#HelveticaWorld-Regular-97"/><use x="238.574" xlink:href="#HelveticaWorld-Regular-109"/><use x="321.582" xlink:href="#HelveticaWorld-Regular-111"/><use x="377.49" xlink:href="#HelveticaWorld-Regular-110"/></g><g transform="matrix(.14 0 0 -.14 394.351 287.289)" fill="#d62728" id="text_18"><defs><path d="M49.031 0H37.703l-12.89 19.672L12.203 0H1.125l18.266 26.906L2 52.296h11.188l12.109-18.405L37.5 52.297h10.688l-17.579-25.39z" id="HelveticaWorld-Regular-120"/><path d="M17.188 45.016V0H8.405v45.016H1.22v7.28h7.187v8.985q0 5.907 3.578 8.703 3.594 2.813 10.032 2.813 2.203 0 3.968-.188v-7.906q-1.562.188-3.578.188-2.922 0-4.078-1.438-1.14-1.437-1.14-4.656v-6.5h8.796v-7.281z" id="HelveticaWorld-Regular-102"/></defs><use xlink:href="#HelveticaWorld-Regular-120"/><use x="50" xlink:href="#HelveticaWorld-Regular-102"/><use x="76.686" xlink:href="#HelveticaWorld-Regular-99"/><use x="127.955" xlink:href="#HelveticaWorld-Regular-101"/></g><g transform="matrix(.14 0 0 -.14 394.351 317.204)" fill="#9467bd" id="text_19"><defs><path d="M17.188 45.016V10.984q0-2 1.093-3.046 1.11-1.047 3.938-1.047h3.375V0Q20.797-.688 19-.688q-5.516 0-8.063 2.641-2.53 2.64-2.53 8.547v34.516H1.311v7.28h7.094v14.595h8.781V52.297h8.407v-7.281z" id="HelveticaWorld-Regular-116"/><path d="M28.906 23.188H4.391v8.984h24.515z" id="HelveticaWorld-Regular-45"/><path d="M36.078 37.406q-.187 4.688-3.344 6.735-3.14 2.047-9.047 2.047-4.296 0-7.359-1.907-3.047-1.89-3.047-5.468 0-2.829 1.797-4.172 1.813-1.344 7.828-2.86l8.688-2.187q7.906-2 11.297-5.11 3.406-3.093 3.406-8.656 0-7.719-5.64-12.531-5.641-4.813-15.063-4.813-11 0-16.64 4.563-5.626 4.578-5.735 13.75h8.5q.203-5.422 3.594-8.063 3.39-2.625 10.171-2.625 5.516 0 8.766 2.188 3.25 2.203 3.25 6.11 0 2.78-2.11 4.437-2.093 1.672-8.296 3.078l-10.203 2.5q-6.203 1.562-9.157 4.656-2.953 3.094-2.953 8.031 0 7.72 5.516 12.203 5.531 4.5 14.406 4.5 9.485 0 14.531-4.624 5.047-4.61 5.344-11.782z" id="HelveticaWorld-Regular-115"/><path d="M14.984 23.688q0-8.407 4.094-13 4.11-4.579 10.219-4.579 6.687 0 10.39 5.438 3.72 5.453 3.72 14.765 0 10.22-3.563 14.907-3.563 4.687-10.735 4.687-6.984 0-10.562-5.5-3.563-5.5-3.563-16.718zm-8.39 28.609h8.297v-7.375h.203q5.61 8.89 15.625 8.89 10.11 0 15.937-7.359 5.828-7.344 5.828-18.766 0-12.796-5.953-21Q40.578-1.515 29.5-1.515q-9.094 0-13.922 7.032h-.203v-26.22H6.594z" id="HelveticaWorld-Regular-112"/></defs><use xlink:href="#HelveticaWorld-Regular-109"/><use x="83.008" xlink:href="#HelveticaWorld-Regular-97"/><use x="137.939" xlink:href="#HelveticaWorld-Regular-116"/><use x="165.625" xlink:href="#HelveticaWorld-Regular-101"/><use x="221.045" xlink:href="#HelveticaWorld-Regular-45"/><use x="254.346" xlink:href="#HelveticaWorld-Regular-100"/><use x="311.328" xlink:href="#HelveticaWorld-Regular-101"/><use x="366.748" xlink:href="#HelveticaWorld-Regular-115"/><use x="416.748" xlink:href="#HelveticaWorld-Regular-107"/><use x="466.748" xlink:href="#HelveticaWorld-Regular-116"/><use x="494.434" xlink:href="#HelveticaWorld-Regular-111"/><use x="550.342" xlink:href="#HelveticaWorld-Regular-112"/></g><g transform="matrix(.09716 0 0 -.09716 33.66 347.399)" fill="#969696" id="text_20"><defs><path d="M50.39 50.781q-.296 6.844-5.109 10.719-4.797 3.875-12.656 3.875-7.922 0-12.172-3.25-4.234-3.234-4.234-9.344 0-3.265 1.843-5.61 1.86-2.343 6.641-3.468l20.516-4.687q8.297-1.813 12.297-6.875 4.015-5.047 4.015-12.313 0-10.64-7.812-16.187-7.813-5.547-20.313-5.547-9.531 0-15.031 2.437-5.484 2.453-9.734 7.766-4.25 5.328-4.25 14.89h9.093q0-8 5.313-12.406 5.328-4.39 14.5-4.39 8.89 0 13.844 3.156 4.953 3.156 4.953 8.953 0 5.281-2.953 7.89Q46.188 29 37.594 31l-15.469 3.625q-7.719 1.75-11.531 6.125Q6.78 45.125 6.78 51.516q0 9.672 6.516 15.922 6.531 6.25 18.203 6.25 13.172 0 20.328-5.5 7.156-5.485 7.688-17.407z" id="HelveticaWorld-Regular-83"/><path d="M63.922 35.89q0 12.594-6.672 20.891-6.656 8.313-18.328 8.313-11.531 0-18.266-8.313-6.734-8.297-6.734-20.89 0-12.985 6.828-21.094 6.844-8.11 18.172-8.11 11.078 0 18.031 7.907 6.969 7.922 6.969 21.297zm9.953 0q0-16.062-9.281-26.937-9.266-10.86-25.672-10.86-16.516 0-25.766 10.86-9.25 10.875-9.25 26.938 0 16.109 9.25 26.953 9.25 10.843 25.766 10.843 16.89 0 25.922-11.046 9.031-11.032 9.031-26.75z" id="HelveticaWorld-Regular-79"/><path d="M39.406 52.297h9.625L29.11 0h-9.437L.594 52.297h10.203L24.422 9.719h.187z" id="HelveticaWorld-Regular-118"/><path d="M15.375 0H6.594v52.297h8.297v-8.688h.203q5.703 10.203 14.687 10.203 1.422 0 2.297-.296V44.39h-3.266q-5.906 0-9.671-4.016-3.766-4-3.766-9.953z" id="HelveticaWorld-Regular-114"/><path d="M15.375 0H6.594v71.781h8.781z" id="HelveticaWorld-Regular-108"/><path d="M25.594 0h-8.985L1.516 52.297h9.468L21 11.187h.188l10.109 41.11h9.922l10.203-41.11h.187l10.594 41.11h8.703L55.812 0h-9.234L35.984 40.484h-.187z" id="HelveticaWorld-Regular-119"/><path d="M44 29.5L33.406 61.078h-.203L21.687 29.5zm-25.297-8.594L11.188 0h-9.97l27 71.781h10.985L65.187 0H54.594l-7.078 20.906z" id="HelveticaWorld-Regular-65"/><path d="M17.828 38.625H37.11q7.282 0 10.938 3.188 3.656 3.203 3.656 9.703 0 5.812-3.516 8.89-3.515 3.078-10.687 3.078H17.828zm0-38.625H8.11v71.781h32.266q9.625 0 15.484-5.594 5.86-5.593 5.86-14.578 0-9.328-5.672-15.312-5.656-5.969-15.672-5.969H17.828z" id="HelveticaWorld-Regular-80"/><path d="M17.828 0H8.11v71.781h9.72z" id="HelveticaWorld-Regular-73"/><path d="M9.422 73.688h7.281V-1.906H9.422z" id="HelveticaWorld-Regular-124"/><path d="M55.61 71.781h9.374V0h-10.78L17.577 58.016h-.187V0H8.109v71.781h11.375l35.938-57.969h.187z" id="HelveticaWorld-Regular-78"/><path d="M49.219 0h-8.844v34.188q0 6.296-2.438 9-2.437 2.718-7.953 2.718-6.797 0-10.703-4.406-3.906-4.39-3.906-12.984V0H6.594v71.781h8.781V45.312h.203q6 8.5 15.328 8.5 8.594 0 13.453-4.5 4.86-4.484 4.86-13.718z" id="HelveticaWorld-Regular-104"/><path d="M12.703 26.219q0-8.735 3.953-14.375 3.953-5.64 11.219-5.64 7.531 0 11.438 5.905 3.906 5.907 3.906 14.11 0 8.297-3.907 14.078-3.906 5.797-11.437 5.797-6.969 0-11.078-5.453-4.094-5.438-4.094-14.422zm-8.984 0q0 11.672 6.484 19.625 6.5 7.968 17.672 7.968 11.438 0 17.875-8.062 6.453-8.047 6.453-19.531 0-11.516-6.406-19.625-6.39-8.11-17.922-8.11-11.078 0-17.625 7.86-6.531 7.86-6.531 19.875zm36.734 35.406H31.47v10.156h8.984zm-16.219 0H15.25v10.156h8.984z" id="HelveticaWorld-Regular-246"/><path d="M58.016 50.203q-1.625 7.313-6.782 11.094-5.14 3.797-13.343 3.797-10.594 0-17.047-7.703-6.438-7.688-6.438-20.766 0-15.14 6.094-22.547 6.11-7.39 17.688-7.39 7.609 0 13.093 5.046 5.5 5.063 7.407 14.688h9.421Q66.22 12.594 57.625 5.344t-20.906-7.25q-14.703 0-23.516 10.11Q4.391 18.311 4.391 36.28q0 17.328 9.203 27.36 9.203 10.047 24.297 10.047 12.5 0 20.265-6.454 7.766-6.437 9.235-17.03z" id="HelveticaWorld-Regular-67"/><path d="M8.11 71.781h31.484q9.281 0 14.797-5.031 5.515-5.031 5.515-13.031 0-4.844-2.422-8.828-2.406-3.97-7.187-6.172 6.687-2.532 9.828-6.735 3.156-4.203 3.156-10.797 0-9.265-6.687-15.234Q49.906 0 38.922 0H8.109zm9.562-63.484h20.703q7.625 0 11.422 3.531 3.812 3.547 3.812 9.563 0 6.093-4.25 9.093Q45.125 33.5 36.812 33.5h-19.14zm0 33.11h17.625q7.719 0 11.312 2.796 3.594 2.813 3.594 8.781 0 5.125-3.406 7.813-3.39 2.687-11.39 2.687H17.671z" id="HelveticaWorld-Regular-66"/><path d="M37.313 0h-9.72v28.906L.485 71.781h11.329l20.609-34.469 20.562 34.47h11.422L37.312 28.905z" id="HelveticaWorld-Regular-89"/></defs><use xlink:href="#HelveticaWorld-Regular-83"/><use x="66.211" xlink:href="#HelveticaWorld-Regular-116"/><use x="93.896" xlink:href="#HelveticaWorld-Regular-97"/><use x="148.828" xlink:href="#HelveticaWorld-Regular-99"/><use x="200.098" xlink:href="#HelveticaWorld-Regular-107"/><use x="250.098" xlink:href="#HelveticaWorld-Regular-79"/><use x="327.881" xlink:href="#HelveticaWorld-Regular-118"/><use x="375.49" xlink:href="#HelveticaWorld-Regular-101"/><use x="430.91" xlink:href="#HelveticaWorld-Regular-114"/><use x="464.979" xlink:href="#HelveticaWorld-Regular-102"/><use x="492.664" xlink:href="#HelveticaWorld-Regular-108"/><use x="514.686" xlink:href="#HelveticaWorld-Regular-111"/><use x="569.094" xlink:href="#HelveticaWorld-Regular-119"/><use x="641.506" xlink:href="#HelveticaWorld-Regular-32"/><use x="665.92" xlink:href="#HelveticaWorld-Regular-65"/><use x="732.619" xlink:href="#HelveticaWorld-Regular-80"/><use x="797.268" xlink:href="#HelveticaWorld-Regular-73"/><use x="823.049" xlink:href="#HelveticaWorld-Regular-32"/><use x="847.463" xlink:href="#HelveticaWorld-Regular-118"/><use x="897.072" xlink:href="#HelveticaWorld-Regular-105"/><use x="919.094" xlink:href="#HelveticaWorld-Regular-97"/><use x="974.025" xlink:href="#HelveticaWorld-Regular-32"/><use x="998.439" xlink:href="#HelveticaWorld-Regular-115"/><use x="1048.439" xlink:href="#HelveticaWorld-Regular-116"/><use x="1076.125" xlink:href="#HelveticaWorld-Regular-97"/><use x="1131.057" xlink:href="#HelveticaWorld-Regular-99"/><use x="1182.326" xlink:href="#HelveticaWorld-Regular-107"/><use x="1232.326" xlink:href="#HelveticaWorld-Regular-116"/><use x="1260.012" xlink:href="#HelveticaWorld-Regular-97"/><use x="1314.943" xlink:href="#HelveticaWorld-Regular-103"/><use x="1370.852" xlink:href="#HelveticaWorld-Regular-115"/><use x="1420.852" xlink:href="#HelveticaWorld-Regular-32"/><use x="1445.266" xlink:href="#HelveticaWorld-Regular-124"/><use x="1471.242" xlink:href="#HelveticaWorld-Regular-32"/><use x="1495.656" xlink:href="#HelveticaWorld-Regular-78"/><use x="1568.752" xlink:href="#HelveticaWorld-Regular-105"/><use x="1590.773" xlink:href="#HelveticaWorld-Regular-99"/><use x="1642.043" xlink:href="#HelveticaWorld-Regular-111"/><use x="1697.951" xlink:href="#HelveticaWorld-Regular-32"/><use x="1722.365" xlink:href="#HelveticaWorld-Regular-83"/><use x="1788.576" xlink:href="#HelveticaWorld-Regular-99"/><use x="1839.846" xlink:href="#HelveticaWorld-Regular-104"/><use x="1895.021" xlink:href="#HelveticaWorld-Regular-108"/><use x="1917.043" xlink:href="#HelveticaWorld-Regular-246"/><use x="1972.951" xlink:href="#HelveticaWorld-Regular-109"/><use x="2055.959" xlink:href="#HelveticaWorld-Regular-101"/><use x="2111.379" xlink:href="#HelveticaWorld-Regular-114"/><use x="2143.947" xlink:href="#HelveticaWorld-Regular-32"/><use x="2168.361" xlink:href="#HelveticaWorld-Regular-124"/><use x="2194.338" xlink:href="#HelveticaWorld-Regular-32"/><use x="2218.752" xlink:href="#HelveticaWorld-Regular-67"/><use x="2291.066" xlink:href="#HelveticaWorld-Regular-67"/><use x="2363.381" xlink:href="#HelveticaWorld-Regular-32"/><use x="2387.795" xlink:href="#HelveticaWorld-Regular-66"/><use x="2450.607" xlink:href="#HelveticaWorld-Regular-89"/></g><g transform="matrix(.14 0 0 -.14 76.153 17.516)" fill="#969696" id="text_21"><defs><path d="M17.828 8.297h18.797q9.766 0 15.281 7.5 5.516 7.5 5.516 20.484 0 12.844-5.563 19.969-5.562 7.125-16.062 7.234H17.828zM8.11 71.78h29.094q14.11 0 22.094-9.703 7.984-9.687 7.984-25.156 0-16.61-7.984-26.766Q51.313 0 36.813 0H8.108z" id="HelveticaWorld-Regular-68"/><path d="M39.016 52.297h9.562L29.891.984q-.5-1.375-.985-2.593-4.25-11.329-7.328-15.547-3.078-4.235-9.953-4.235-3.61 0-5.906.782v8.015q2.484-.89 5.468-.89 3.22 0 4.704 2.03 1.5 2.032 4.421 9.938L.875 52.297h9.922L24.812 9.719H25z" id="HelveticaWorld-Regular-121"/><path d="M6.11 52.297h8.78V17.578q0-5.765 2.61-8.625Q20.125 6.11 25 6.11q6.781 0 10.594 4.797 3.812 4.813 3.812 12.578v28.813h8.782V0H39.89v7.625l-.188.188q-4.984-9.329-16.61-9.329-7.515 0-12.25 4.094Q6.11 6.688 6.11 14.703z" id="HelveticaWorld-Regular-117"/><path d="M43.406 26.313q0 10.5-3.718 15.046-3.704 4.547-10.579 4.547-6.984-.11-10.562-5.453Q14.984 35.11 14.984 25q0-10.297 4.297-14.594Q23.578 6.11 29.297 6.11q6.5 0 10.297 5.344 3.812 5.344 3.812 14.86zM6.594 0v71.781h8.781V45.703h.203q5.61 8.11 15.14 8.11 9.766 0 15.766-7.25t6-18.876q0-13.093-6.062-21.156Q40.375-1.516 29.5-1.516q-9.578 0-14.406 8.016h-.203V0z" id="HelveticaWorld-Regular-98"/><path d="M41.5 23.688q0 11.125-3.5 16.671-3.484 5.547-10.61 5.547-6.874 0-10.593-4.5-3.703-4.484-3.703-15.093 0-9.422 3.75-14.813 3.765-5.39 10.36-5.39 5.812 0 10.046 4.39 4.25 4.39 4.25 13.188zm8.406-44.391H41.11V5.516h-.187Q35.89-1.516 27-1.516q-10.984 0-17 8.157-6 8.156-6 21.047 0 11.421 5.906 18.765 5.922 7.36 15.875 7.36 9.907 0 15.625-8.891h.203v7.375h8.297z" id="HelveticaWorld-Regular-113"/></defs><use xlink:href="#HelveticaWorld-Regular-68"/><use x="72.021" xlink:href="#HelveticaWorld-Regular-97"/><use x="126.953" xlink:href="#HelveticaWorld-Regular-105"/><use x="148.975" xlink:href="#HelveticaWorld-Regular-108"/><use x="170.996" xlink:href="#HelveticaWorld-Regular-121"/><use x="220.605" xlink:href="#HelveticaWorld-Regular-32"/><use x="245.02" xlink:href="#HelveticaWorld-Regular-110"/><use x="300.195" xlink:href="#HelveticaWorld-Regular-117"/><use x="354.98" xlink:href="#HelveticaWorld-Regular-109"/><use x="437.988" xlink:href="#HelveticaWorld-Regular-98"/><use x="494.482" xlink:href="#HelveticaWorld-Regular-101"/><use x="549.902" xlink:href="#HelveticaWorld-Regular-114"/><use x="582.471" xlink:href="#HelveticaWorld-Regular-32"/><use x="606.885" xlink:href="#HelveticaWorld-Regular-111"/><use x="662.793" xlink:href="#HelveticaWorld-Regular-102"/><use x="690.479" xlink:href="#HelveticaWorld-Regular-32"/><use x="714.893" xlink:href="#HelveticaWorld-Regular-113"/><use x="771.387" xlink:href="#HelveticaWorld-Regular-117"/><use x="826.172" xlink:href="#HelveticaWorld-Regular-101"/><use x="881.592" xlink:href="#HelveticaWorld-Regular-115"/><use x="931.592" xlink:href="#HelveticaWorld-Regular-116"/><use x="959.277" xlink:href="#HelveticaWorld-Regular-105"/><use x="981.299" xlink:href="#HelveticaWorld-Regular-111"/><use x="1037.207" xlink:href="#HelveticaWorld-Regular-110"/><use x="1092.383" xlink:href="#HelveticaWorld-Regular-115"/><use x="1142.383" xlink:href="#HelveticaWorld-Regular-32"/><use x="1166.797" xlink:href="#HelveticaWorld-Regular-111"/><use x="1222.705" xlink:href="#HelveticaWorld-Regular-110"/><use x="1277.881" xlink:href="#HelveticaWorld-Regular-32"/><use x="1302.295" xlink:href="#HelveticaWorld-Regular-83"/><use x="1368.506" xlink:href="#HelveticaWorld-Regular-116"/><use x="1396.191" xlink:href="#HelveticaWorld-Regular-97"/><use x="1451.123" xlink:href="#HelveticaWorld-Regular-99"/><use x="1502.393" xlink:href="#HelveticaWorld-Regular-107"/><use x="1552.393" xlink:href="#HelveticaWorld-Regular-79"/><use x="1630.176" xlink:href="#HelveticaWorld-Regular-118"/><use x="1677.785" xlink:href="#HelveticaWorld-Regular-101"/><use x="1733.205" xlink:href="#HelveticaWorld-Regular-114"/><use x="1767.273" xlink:href="#HelveticaWorld-Regular-102"/><use x="1794.959" xlink:href="#HelveticaWorld-Regular-108"/><use x="1816.98" xlink:href="#HelveticaWorld-Regular-111"/><use x="1871.389" xlink:href="#HelveticaWorld-Regular-119"/></g><path clip-path="url(#p14572766ac)" d="M33.66 292.145l1.893-22.869 2.453 9.98 2.455-65.42 2.495 66.528 2.375-15.84 2.372 4.752 2.457 32.895 2.455-32.895 2.454 9.98 2.455 12.196h2.495l2.455 10.719 2.457-21.807 2.453-1.109 2.455 34.373 2.495-22.176 2.374 9.9 2.373 1.188 2.456-23.285 2.455 1.11 2.455 21.806 2.455-55.07 2.495 55.44 2.455-34.743 2.456 23.654 2.454-23.654 2.455-20.698 2.495 44.352 2.374-14.652 2.373-18.612 2.456 32.525 2.455-10.349 2.455-1.109 2.455 1.11 2.495-44.353 2.455 54.701 2.456.74 2.453-12.198 2.455 23.285 2.495-66.528 2.415-5.353 2.413 16.441 2.456 43.613 2.455-43.613 2.455-2.217 2.455 24.393 2.495-11.088 2.455 9.61 2.456 12.566 2.454-12.566 2.454 12.566 2.495 22.176 2.375-25.74 2.373-29.7 2.456 55.07 2.455-21.806 2.455 10.35 2.455-54.702 2.495 66.528 2.455-34.742 2.456 23.654 2.453-69.485 2.455 47.31 2.495-44.353L192.3 276.8l2.372-62.964 2.457 65.42 2.455-32.156 2.454 43.613 2.455-65.789 2.495 44.352 2.455 32.895 2.457-88.335 2.453 42.504 2.455 1.848 2.495 33.264 2.374-14.652 2.373-7.524 2.456-47.309 2.455 25.133 2.455 32.155 2.455-21.067 2.495-44.352 2.455 31.047 2.456 35.481 2.454-46.939 2.454 24.763 2.496-11.088 2.414 7.265 2.413-7.265 2.457-2.217 2.454 57.657 2.455-23.285 2.455-21.067 2.495 22.176 2.455-24.024 2.457 46.2 2.453-57.657 2.455 68.745 2.495-55.44 2.374 6.336 2.373-6.336 2.456-36.22 2.455 36.22 2.455 21.067 2.455-21.067 2.495-11.088 2.455 43.613 2.456 11.827 2.453-11.827 2.455-21.437 2.495-11.088 2.375 6.336 2.372 4.752 2.457 21.437 2.455-32.525 2.455-24.763 2.455 35.851 2.495-22.176 2.454 43.613 2.457-43.613 2.453 9.24 2.455 24.024h2.495l2.374-3.564 2.373-40.788 2.457 20.328 2.454 46.2 2.455-.37 2.455-32.894 2.495-44.352 2.455 19.959 2.457-19.959 2.453-60.245 2.455 115.685 2.495-55.44 2.414 41.293 2.413-96.733 2.457-62.093 2.455 95.357 2.455-60.984 2.454 5.544 2.495-22.176 2.455 16.632 2.457 72.072 2.453 8.131h0" fill="none" stroke="#ff7f0e" stroke-linecap="square" stroke-width="1.5" id="line2d_26"/><path clip-path="url(#p14572766ac)" d="M33.66 249.18l1.893 42.272 2.453-12.197 2.455 12.197h2.495l2.375-63.756 2.372 41.58 2.457 21.437 2.455-32.525 2.454-36.22 2.455 58.396 2.495 22.176 2.455-46.2 2.457-9.24 2.453-2.217 2.455-19.959 2.495 11.088 2.374 53.064 2.373-19.8 2.456-81.681 2.455 70.593 2.455 9.61 2.455-87.226 2.495 55.44 2.455-14.045 2.456-30.307 2.454 76.138 2.455-87.226 2.495 11.088 2.374 60.588 2.373-49.5 2.456 7.762 2.455-85.378 2.455 39.547 2.455 26.981 2.495 22.176 2.455 31.047 2.456-19.959 2.453-128.99 2.455 151.166 2.495-77.616 2.415 1.912 2.413-24.088 2.456-17.001 2.455 83.53 2.455-26.242 2.455 4.065 2.495-11.088 2.455 18.48 2.456 3.696 2.454 7.762 2.454-41.026 2.495 33.264 2.375-60.984 2.373 60.984 2.456 42.135 2.455 24.393 2.455-47.309 2.455-8.13 2.495-22.177 2.455-61.353 2.456 83.53 2.453-26.242 2.455 37.33h2.495L192.3 276.8l2.372-85.14 2.457 7.392 2.455 14.784 2.454 65.42 2.455-76.508 2.495 88.704 2.455-23.654 2.457-76.138 2.453 7.392 2.455 81.312 2.495-66.528 2.374-84.348L224.05 247.1l2.456-116.793 2.455 61.353 2.455 7.392 2.455 36.96 2.495-44.352 2.455 30.307 2.456-19.219 2.454 7.762 2.454 25.502 2.496-33.264 2.414 39.764 2.413-28.676 2.457 31.047 2.454-53.223 2.455-38.438 2.455 93.878 2.495-22.176 2.455 19.959 2.457-53.223 2.453 41.765 2.455-19.589 2.495-11.088 2.374.396 2.373 32.868 2.456-82.79 2.455 60.614 2.455-3.326 2.455 69.854 2.495-22.176 2.455-24.763 2.456 13.675 2.453-36.59 2.455-7.762 2.495 22.176 2.375 27.324 2.372-38.412 2.457 42.504 2.455-53.592 2.455 30.677 2.455 2.587 2.495 44.352 2.454-35.481 2.457-19.959 2.453 19.959 2.455 24.393 2.495-33.264 2.374 16.236 2.373-5.148 2.457-2.217 2.454 24.393 2.455-24.393 2.455-19.959 2.495-99.792 2.455 131.208 2.457-42.504 2.453-60.614 2.455 49.526 2.495-11.088 2.414 39 2.413-50.088 2.457-27.35 2.455-105.706 2.455 117.163 2.454 38.07 2.495-33.265 2.455-39.177 2.457 94.617 2.453-48.787h0" fill="none" stroke="#1f77b4" stroke-linecap="square" stroke-width="1.5" id="line2d_27"/></g></g><defs><clipPath id="p14572766ac"><path d="M33.66 47.516h357.12v266.112H33.66z"/></clipPath></defs></svg>