<svg height="459.846" viewBox="0 0 522.158 344.885" width="696.21" xmlns="http://www.w3.org/2000/svg" xmlns:xlink="http://www.w3.org/1999/xlink"><defs><style>*{stroke-linecap:butt;stroke-linejoin:round}</style></defs><g id="figure_1"><path d="M0 344.885h522.158V0H0z" fill="none" id="patch_1"/><g id="axes_1"><path d="M26.27 300.716h372v-277.2h-372z" fill="none" id="patch_2"/><path clip-path="url(#p262e7b9a93)" d="M66.155 300.716l2.75-.28 2.618.28 2.616-.28 2.708.28H93.13l2.704-.288 2.706.288h16.105l2.706-.28h2.75l2.707-2.318 2.708-.476 2.705.476 2.706-1.593 2.75-.28 2.663-5.087 2.66-.222 2.708 1.984 2.706 2.208 2.706.968 2.707-4.042 2.75 2.235 2.707.363 2.708 1.593 2.704-1.593 2.706 2.99 2.751.28 2.618-2.156 2.615-4.271 2.708-.019 2.707 3.093 2.706-.783 2.706-1.732 2.75-2.236 2.707-5.272 2.708 1.08 2.705-1.08 2.706 3.316 2.75-2.794 2.618-5.39 2.616 2.316 2.708-1.202 2.706 2.6 2.706.288 2.707 4.741 2.75-4.47 2.707-6.335 2.708 7.731 2.704 2.087 2.706-.969 2.751-2.235 2.618-.22 2.615-3.693 2.708 4.807 2.707 3.577 2.706-2.711 2.706 2.99 2.75.559 2.707-1.528 2.708 2.366 2.705-2.654 2.706 4.051 2.75-1.117 2.663-.395 2.66-1.84 2.708-.988 2.706-.13 2.706 3.017 2.707 1.453 2.75-3.353 2.706 1.612 2.709.065 2.704 1.378 2.706 2.813 2.751-2.515 2.618 3.683 2.615-4.8 2.708 2.84 2.707-.884 2.706.885 2.706.512 2.75 2.235 2.707-1.304 2.708 2.422 2.705-2.422 2.706 1.025 2.75-1.397 2.618.888 2.616 1.347 2.708 1.602 2.706-.764 2.706.187 2.707-1.025 2.75-1.397 2.707.978 2.708.978 2.704-.4 2.706.4 2.751 1.956 2.618-2.315 2.615-.48 2.708.438 2.707 1.24 2.706-.084 2.706.083 2.75.56 2.707 1.089 2.708-3.046 2.705-.419 2.706 2.375 2.75-1.397 2.663.067 2.66-.346" fill="none" stroke="#8c564b" stroke-linecap="square" stroke-width="1.5" id="line2d_1"/><g id="matplotlib.axis_1"><g id="xtick_1"><g id="text_1"><defs><path d="M4.39 45.125q0 12.39 6.391 18.781 6.406 6.407 17.938 6.407 9.656 0 15.812-5.86 6.157-5.86 6.157-15.14 0-7.22-3.547-12.188-3.532-4.953-10.422-8.703l-12.11-6.64Q13.922 15.921 12.5 8.296h38.188V0H2.593q.39 9.906 4.297 16.5 3.906 6.594 12.203 11.375l12.593 7.328q5.032 2.89 7.329 5.984 2.297 3.094 2.297 8.516 0 5.375-3.766 9.031-3.75 3.672-10.156 3.672-7.078 0-10.594-4.672-3.516-4.656-3.61-12.609z" id="HelveticaWorld-Regular-50"/><path d="M42.484 34.188q0 14.109-3.734 21.156-3.734 7.062-10.969 7.062-7.078 0-10.89-7.062-3.797-7.047-3.797-21.157 0-13.671 3.75-20.937Q20.609 6 27.78 6q7.235 0 10.969 7 3.734 7.016 3.734 21.188zm9.422 0q0-17.297-6.25-26.704-6.25-9.39-17.875-9.39-12.062 0-18.062 9.734-6 9.75-6 26.36 0 17.03 6.14 26.578 6.157 9.547 17.922 9.547 11.625 0 17.875-9.5t6.25-26.626z" id="HelveticaWorld-Regular-48"/><path d="M35.89 0h-9.374v49.906H10.109v6.985q8.594.28 12.782 2.75Q27.094 62.109 29 70.313h6.89z" id="HelveticaWorld-Regular-49"/></defs><g transform="matrix(.14 0 0 -.14 51.96 314.266)"><use xlink:href="#HelveticaWorld-Regular-50"/><use x="55.615" xlink:href="#HelveticaWorld-Regular-48"/><use x="111.23" xlink:href="#HelveticaWorld-Regular-49"/><use x="166.846" xlink:href="#HelveticaWorld-Regular-48"/></g></g></g><g id="xtick_2"><g transform="matrix(.14 0 0 -.14 116.733 314.266)" id="text_2"><use xlink:href="#HelveticaWorld-Regular-50"/><use x="55.615" xlink:href="#HelveticaWorld-Regular-48"/><use x="111.23" xlink:href="#HelveticaWorld-Regular-49"/><use x="166.846" xlink:href="#HelveticaWorld-Regular-50"/></g></g><g id="xtick_3"><g id="text_3"><defs><path d="M10.594 24.703h22.61v31.89h-.188zM42 17.093V0h-8.797v17.094H2.484v8.593L34.72 70.314H42v-45.61h10.297v-7.61z" id="HelveticaWorld-Regular-52"/></defs><g transform="matrix(.14 0 0 -.14 181.595 314.266)"><use xlink:href="#HelveticaWorld-Regular-50"/><use x="55.615" xlink:href="#HelveticaWorld-Regular-48"/><use x="111.23" xlink:href="#HelveticaWorld-Regular-49"/><use x="166.846" xlink:href="#HelveticaWorld-Regular-52"/></g></g></g><g id="xtick_4"><g id="text_4"><defs><path d="M14.11 21.578q0-6.875 4.093-11.234Q22.313 6 28.906 6q6.297 0 10.032 4.438 3.734 4.453 3.734 11.687 0 6.297-3.688 10.547-3.687 4.25-10.468 4.25-6.594 0-10.5-4.156-3.907-4.157-3.907-11.188zM41.702 51.61q-.984 5.375-3.984 8.078-3 2.72-8.125 2.72-8.11 0-12.36-7.923-4.25-7.906-4.343-18.109l.203-.188q5.61 8.641 16.687 8.641 8.844 0 15.438-5.86 6.593-5.859 6.593-16.452 0-10.5-6.25-17.47-6.25-6.952-16.843-6.952-12.219 0-18.563 8.687-6.344 8.703-6.344 25.938 0 16.593 6.485 27.093 6.5 10.5 19.484 10.5 8.407 0 14.219-5.015 5.813-5 6.297-13.688z" id="HelveticaWorld-Regular-54"/></defs><g transform="matrix(.14 0 0 -.14 246.368 314.266)"><use xlink:href="#HelveticaWorld-Regular-50"/><use x="55.615" xlink:href="#HelveticaWorld-Regular-48"/><use x="111.23" xlink:href="#HelveticaWorld-Regular-49"/><use x="166.846" xlink:href="#HelveticaWorld-Regular-54"/></g></g></g><g id="xtick_5"><g id="text_5"><defs><path d="M27.594 40.578q5.422 0 8.953 3.094 3.547 3.11 3.547 8.234 0 4.594-3.407 7.547-3.39 2.953-9.687 2.953-5.61 0-8.672-3.11-3.047-3.093-3.047-7.874 0-5.125 3.813-7.984 3.812-2.86 8.5-2.86zm.093-7.562q-6.78 0-10.64-3.766-3.86-3.766-3.86-9.234 0-6.297 3.907-10.157Q21 6 28.219 6q6.406 0 10.234 3.86 3.828 3.859 3.828 10.265 0 5.469-3.828 9.172-3.828 3.719-10.766 3.719zM49.22 52.203q0-10.594-9.032-14.797 6.204-2.781 8.86-7.36 2.656-4.562 2.656-9.733 0-10.016-6.453-16.125-6.438-6.094-17.375-6.094-9.563 0-16.813 5.25-7.25 5.25-7.25 17.062 0 11.922 11.907 16.907-9.516 3.796-9.516 13.671 0 8.297 5.64 13.813 5.641 5.516 15.641 5.516 10.016 0 15.875-5.204 5.86-5.203 5.86-12.906z" id="HelveticaWorld-Regular-56"/></defs><g transform="matrix(.14 0 0 -.14 311.23 314.266)"><use xlink:href="#HelveticaWorld-Regular-50"/><use x="55.615" xlink:href="#HelveticaWorld-Regular-48"/><use x="111.23" xlink:href="#HelveticaWorld-Regular-49"/><use x="166.846" xlink:href="#HelveticaWorld-Regular-56"/></g></g></g><g id="xtick_6"><g transform="matrix(.14 0 0 -.14 376.003 314.266)" id="text_6"><use xlink:href="#HelveticaWorld-Regular-50"/><use x="55.615" xlink:href="#HelveticaWorld-Regular-48"/><use x="111.23" xlink:href="#HelveticaWorld-Regular-50"/><use x="166.846" xlink:href="#HelveticaWorld-Regular-48"/></g></g></g><g id="matplotlib.axis_2"><g id="ytick_1"><path clip-path="url(#p262e7b9a93)" d="M26.27 300.716h372" fill="none" stroke="#000" stroke-dasharray="5,5" stroke-opacity=".3" stroke-width=".5" id="line2d_8"/><use xlink:href="#HelveticaWorld-Regular-48" transform="matrix(.14 0 0 -.14 14.985 305.74)" id="text_7"/></g><g id="ytick_2"><path clip-path="url(#p262e7b9a93)" d="M26.27 257.404h372" fill="none" stroke="#000" stroke-dasharray="5,5" stroke-opacity=".3" stroke-width=".5" id="line2d_10"/><g id="text_8"><defs><path d="M14.703 40.922q5.813 4.39 13.625 4.39 9.469 0 16.281-6.296 6.813-6.297 6.813-16.22 0-10.78-6.578-17.796-6.563-7-18.422-7-10.313 0-16.266 5.047Q4.203 8.109 3.22 17.39h9.094q.671-5.672 4.437-8.672 3.766-3 10.453-3 6.485 0 10.64 4.484Q42 14.703 42 21.688q0 7.125-4.36 11.421-4.343 4.297-11.218 4.297-7.813 0-13.047-6.687l-7.563.39 5.266 37.594h36.438v-8.5H17.672z" id="HelveticaWorld-Regular-53"/></defs><use xlink:href="#HelveticaWorld-Regular-53" transform="matrix(.14 0 0 -.14 14.985 262.428)"/></g></g><g id="ytick_3"><path clip-path="url(#p262e7b9a93)" d="M26.27 214.091h372" fill="none" stroke="#000" stroke-dasharray="5,5" stroke-opacity=".3" stroke-width=".5" id="line2d_12"/><g transform="matrix(.14 0 0 -.14 7.2 219.116)" id="text_9"><use xlink:href="#HelveticaWorld-Regular-49"/><use x="55.615" xlink:href="#HelveticaWorld-Regular-48"/></g></g><g id="ytick_4"><path clip-path="url(#p262e7b9a93)" d="M26.27 170.779h372" fill="none" stroke="#000" stroke-dasharray="5,5" stroke-opacity=".3" stroke-width=".5" id="line2d_14"/><g transform="matrix(.14 0 0 -.14 7.2 175.803)" id="text_10"><use xlink:href="#HelveticaWorld-Regular-49"/><use x="55.615" xlink:href="#HelveticaWorld-Regular-53"/></g></g><g id="ytick_5"><path clip-path="url(#p262e7b9a93)" d="M26.27 127.466h372" fill="none" stroke="#000" stroke-dasharray="5,5" stroke-opacity=".3" stroke-width=".5" id="line2d_16"/><g transform="matrix(.14 0 0 -.14 7.2 132.49)" id="text_11"><use xlink:href="#HelveticaWorld-Regular-50"/><use x="55.615" xlink:href="#HelveticaWorld-Regular-48"/></g></g><g id="ytick_6"><path clip-path="url(#p262e7b9a93)" d="M26.27 84.154h372" fill="none" stroke="#000" stroke-dasharray="5,5" stroke-opacity=".3" stroke-width=".5" id="line2d_18"/><g transform="matrix(.14 0 0 -.14 7.2 89.178)" id="text_12"><use xlink:href="#HelveticaWorld-Regular-50"/><use x="55.615" xlink:href="#HelveticaWorld-Regular-53"/></g></g><g id="ytick_7"><path clip-path="url(#p262e7b9a93)" d="M26.27 40.841h372" fill="none" stroke="#000" stroke-dasharray="5,5" stroke-opacity=".3" stroke-width=".5" id="line2d_20"/><g id="text_13"><defs><path d="M22.406 39.984q2.203-.187 4.594-.187 6.203 0 9.781 2.86 3.594 2.859 3.594 8.656 0 4.687-3.344 7.89-3.343 3.203-9.64 3.203-6.985 0-10.235-4.11-3.234-4.093-3.437-10.983h-8.64q0 10.984 5.765 16.984 5.765 6.016 16.937 6.016 9.922 0 15.828-5.11 5.907-5.094 5.907-13.39 0-10.704-9.032-14.5v-.204q11.72-4 11.72-16.406 0-9.906-6.595-16.265-6.593-6.344-18.703-6.344-9.906 0-16.312 5.203Q4.204 8.5 3.422 21.484H12.5q.203-8.109 4-11.797Q20.313 6 27.484 6q6.938 0 11.141 3.86 4.203 3.859 4.203 9.718 0 6.406-4.016 9.672-4 3.266-12.39 3.266-2 0-4.016-.094z" id="HelveticaWorld-Regular-51"/></defs><g transform="matrix(.14 0 0 -.14 7.2 45.866)"><use xlink:href="#HelveticaWorld-Regular-51"/><use x="55.615" xlink:href="#HelveticaWorld-Regular-48"/></g></g></g></g><path clip-path="url(#p262e7b9a93)" d="M26.27 274.187l2.088 14.514 2.704 1.332 2.706-1.053 2.751 1.118 2.618-3.304 2.615.789 2.708-2.17 2.707-8.449 2.706-2.235 2.706 9.221 2.75-4.47 2.707-.998 2.708.718 2.705-.429 2.706 2.105 2.75-13.413 2.618 7.885 2.616-6.487 2.708-2.217 2.706 1.658 2.706 6.715 2.707-1.965 2.75-10.898 2.707-3.018 2.708 11.96 2.704-12.537 2.706 6.669 2.751 4.75 2.618-19.071 2.615 18.512 2.708-4.508 2.707 4.788 2.706-11.718 2.706 2.217 2.75-3.353 2.707-11.569 2.708 17.437 2.705-9.352 2.706-1.825 2.75-2.795 2.663-9.26 2.66-3.594 2.708-6.203 2.706 23.528 2.706-15.732 2.707-4.387 2.75 11.177 2.707 6.492 2.708-13.198 2.704 1.937 2.706 3.652 2.751-6.707 2.618-1.627 2.615 6.936 2.708-1.676 2.707 2.794 2.706-3.372 2.706-4.452h2.75l2.707 4.163 2.708-11.987 2.705 6.501 2.706-.074 2.75-3.912 2.618-6.677 2.616-.868 2.708 10.665 2.706 15.881 2.706-2.599 2.707-3.548 2.75-6.986 2.707 7.936 2.708 3.8 2.704-2.645 2.706 14.94 2.751-1.956 2.618-8.942 2.615 17.325 2.708-6.641 2.707 9.715 2.706-5.384 2.706 3.149 2.75 2.514 2.707 4.732 2.708-9.482 2.705 8.327 2.706 1.453 2.75-8.383 2.663-3.584 2.66 3.305 2.708 4.61 2.706 4.89 2.706-5.756 2.707 8.551 2.75-2.515 2.706 1.183 2.709-7.33 2.704 7.907 2.706 4.947 2.751-3.354 2.618-11.926 2.615 13.603 2.708-1.248 2.707.689 2.706 2.487 2.706 1.146 2.75-4.75 2.707 5.048 2.708 2.775 2.705-2.487 2.706-1.983 5.368 3.902 2.616-.829 2.708.066 2.706.493 5.413.838 5.457-2.775 2.708 3.334 2.704-1.89 2.706 3.008 2.751-2.794 2.618 3.333 2.615-1.098 2.708-2.45 2.707-3.977 2.706 8.02 2.706 2.32 2.75.279 2.707-7.796 2.708 3.045 2.705-1.602 2.706 1.882 2.75-1.956 2.663 6.128 2.66-3.054h0" fill="none" stroke="#9467bd" stroke-linecap="square" stroke-width="1.5" id="line2d_22"/><path clip-path="url(#p262e7b9a93)" d="M26.27 299.092l4.792.47 2.706.595 2.751-.558 2.618.19 2.615-.19 2.708-.038 2.707-.521 2.706-.923 5.457 1.76 2.706-1.47 2.708.074 2.705-.652 2.706.931 2.75-.28 2.618-.548 2.616-1.407 2.708 1.015 2.706.382 2.706-1.826 2.707 1.546 2.75-.838 2.707.159 2.708-1.556 2.704.4 2.706.718 2.751-3.633 2.618-2.695 2.615 4.092 2.708-1.369 2.707 3.046 2.706-3.624 2.706 3.065 2.75-2.794 2.707-.56h2.708l2.705.578 2.706-.577 2.75-1.397 2.663-.694 2.66 2.93 2.708-1.417 2.706-1.099 2.706.81 2.707-1.648 2.75.559 2.707 1.956 2.708-3.912 2.704 2.468 2.706-5.822 2.751-3.353 2.618 2.266 2.615 3.323 2.708-3.055 2.707-.298 2.706 1.164 2.706-2.84 2.75 4.75 2.707-.755 2.708-9.864 2.705 1.779 2.706 1.574 2.75-5.03 2.618 1.517 2.616 4.351 2.708-3.856 2.706 3.298 2.706 1.322 2.707.913 2.75 3.074 2.707-2.832 2.708-4.713 2.704 7.89 2.706-3.978h2.751l2.618.719 2.615-2.116 2.708-3.865 2.707 7.498 2.706-2.59 2.706 3.428 2.75-3.353 2.707-2.096 2.708 1.257 2.705 3.074 2.706.839 2.75-1.118 2.663-2.708 2.66-2.88 2.708 4.712 2.706.876 2.706-.298 2.707-2.497 2.75 2.236 2.706-3.493 2.709 6.008 2.704.633 2.706-2.31 2.751-1.117 2.618-.43 5.323 2.125 2.707-3.372 2.706 2.794 2.706-3.353 2.75 4.192 2.707 2.049 2.708-5.403 2.705 4.537 2.706.493 2.75 1.677 2.618.14 2.616-1.817 2.708.373 2.706 2.701 2.706-3.856 2.707.223 2.75 1.677 2.707.699 2.708-.14 2.704 2.738 2.706-1.62 2.751-5.869 2.618 6.128 2.615-2.216 2.708 3.866 2.707-4.704 2.706 3.26 2.706-3.54 2.75 4.472 2.707-4.108 2.708 1.872 2.705 1.015 2.706-2.97 2.75-.56 2.663-3.45 2.66 4.01h0" fill="none" stroke="#d62728" stroke-linecap="square" stroke-width="1.5" id="line2d_23"/><g id="text_14"><defs><path d="M39.406 52.297h9.625L29.11 0h-9.437L.594 52.297h10.203L24.422 9.719h.187z" id="HelveticaWorld-Regular-118"/><path d="M6.594 61.813v9.968h8.781v-9.969zM15.375 0H6.594v52.297h8.781z" id="HelveticaWorld-Regular-105"/><path d="M36.078 37.406q-.187 4.688-3.344 6.735-3.14 2.047-9.047 2.047-4.296 0-7.359-1.907-3.047-1.89-3.047-5.468 0-2.829 1.797-4.172 1.813-1.344 7.828-2.86l8.688-2.187q7.906-2 11.297-5.11 3.406-3.093 3.406-8.656 0-7.719-5.64-12.531-5.641-4.813-15.063-4.813-11 0-16.64 4.563-5.626 4.578-5.735 13.75h8.5q.203-5.422 3.594-8.063 3.39-2.625 10.171-2.625 5.516 0 8.766 2.188 3.25 2.203 3.25 6.11 0 2.78-2.11 4.437-2.093 1.672-8.296 3.078l-10.203 2.5q-6.203 1.562-9.157 4.656-2.953 3.094-2.953 8.031 0 7.72 5.516 12.203 5.531 4.5 14.406 4.5 9.485 0 14.531-4.624 5.047-4.61 5.344-11.782z" id="HelveticaWorld-Regular-115"/><path d="M6.11 52.297h8.78V17.578q0-5.765 2.61-8.625Q20.125 6.11 25 6.11q6.781 0 10.594 4.797 3.812 4.813 3.812 12.578v28.813h8.782V0H39.89v7.625l-.188.188q-4.984-9.329-16.61-9.329-7.515 0-12.25 4.094Q6.11 6.688 6.11 14.703z" id="HelveticaWorld-Regular-117"/><path d="M38.375 26.703q-.969-1.015-3.828-1.656-2.86-.625-10.672-1.656-5.766-.688-8.469-2.844-2.703-2.14-2.703-5.656 0-4.297 2.281-6.688 2.297-2.39 7.329-2.39 6.296 0 11.171 3.578 4.891 3.593 4.891 8.718zM6.203 36.375q.297 8.844 5.734 13.14 5.454 4.297 15.844 4.297 8.297 0 13.907-3.765 5.624-3.75 5.624-10.844V9.078Q47.313 6 50.094 6q1.125 0 2.89.39V0Q50.594-.984 48-.984q-4.5 0-6.703 1.921-2.188 1.938-2.281 6.047-7.516-8.5-18.891-8.5-7.422 0-11.922 4.204Q3.72 6.89 3.72 13.624q0 6.89 3.906 11.125Q11.531 29 19 29.89l15.516 1.891q4.203.64 4.203 6.203 0 4.11-3.047 6.297-3.047 2.203-9.25 2.203-5.516 0-8.485-2.437-2.953-2.438-3.53-7.672z" id="HelveticaWorld-Regular-97"/><path d="M15.375 0H6.594v71.781h8.781z" id="HelveticaWorld-Regular-108"/><path d="M28.906 23.188H4.391v8.984h24.515z" id="HelveticaWorld-Regular-45"/><path d="M17.188 45.016V10.984q0-2 1.093-3.046 1.11-1.047 3.938-1.047h3.375V0Q20.797-.688 19-.688q-5.516 0-8.063 2.641-2.53 2.64-2.53 8.547v34.516H1.311v7.28h7.094v14.595h8.781V52.297h8.407v-7.281z" id="HelveticaWorld-Regular-116"/><path d="M13.094 26.313q0-9.704 3.844-14.954 3.859-5.25 10.265-5.25 6.094 0 10.188 4.485 4.109 4.5 4.109 13.094 0 11.03-3.5 16.625-3.484 5.593-10.61 5.593-6.78 0-10.546-4.453-3.75-4.437-3.75-15.14zM50.39 0h-8.297v7.172h-.203q-4.97-8.688-15.078-8.688-10.891 0-16.86 8.297Q4 15.094 4 27.688q0 11.625 5.906 18.875 5.922 7.25 15.875 7.25 9.813 0 15.625-8.891l.203.594V71.78h8.782z" id="HelveticaWorld-Regular-100"/><path d="M12.703 26.219q0-8.735 3.953-14.375 3.953-5.64 11.219-5.64 7.531 0 11.438 5.905 3.906 5.907 3.906 14.11 0 8.297-3.907 14.078-3.906 5.797-11.437 5.797-6.969 0-11.078-5.453-4.094-5.438-4.094-14.422zm-8.984 0q0 11.672 6.484 19.625 6.5 7.968 17.672 7.968 11.438 0 17.875-8.062 6.453-8.047 6.453-19.531 0-11.516-6.406-19.625-6.39-8.11-17.922-8.11-11.078 0-17.625 7.86-6.531 7.86-6.531 19.875z" id="HelveticaWorld-Regular-111"/><path d="M39.594 34.719q-1.89 11.187-12.39 11.187-6.5 0-10.454-5.203-3.953-5.203-3.953-14.484 0-10.11 3.656-15.11 3.672-5 10.64-5 4.688 0 8.11 3.438 3.422 3.437 4.39 8.953h8.5q-1.312-9.703-6.859-14.86-5.547-5.156-14.328-5.156-10.297 0-16.89 7.047-6.594 7.063-6.594 19.172 0 13.281 6.594 21.188 6.593 7.922 18.5 7.922 8.687 0 13.843-5.204 5.157-5.203 5.735-13.89z" id="HelveticaWorld-Regular-99"/><path d="M42.484 30.328q-.687 8.485-4.5 12.031-3.797 3.547-10.109 3.547-6.39 0-10.328-4.5-3.922-4.484-4.172-11.078zm8.391-13.922q-1.453-8.11-7.953-13.422-5.719-4.5-15.047-4.593-10.984.093-17.438 7.203Q4 12.704 4 24.704q0 13.78 6.64 21.437 6.641 7.672 18.47 7.672 10.593 0 16.546-7.922 5.953-7.907 5.953-22.594H13.375q0-8.203 3.813-12.703Q21 6.109 28.608 6.109q5.375 0 9.235 3.235 3.86 3.25 4.25 7.062z" id="HelveticaWorld-Regular-101"/></defs><g transform="matrix(.14 0 0 -.14 401.99 27.092)" fill="#1f77b4"><use xlink:href="#HelveticaWorld-Regular-118"/><use x="49.609" xlink:href="#HelveticaWorld-Regular-105"/><use x="71.631" xlink:href="#HelveticaWorld-Regular-115"/><use x="121.631" xlink:href="#HelveticaWorld-Regular-117"/><use x="176.416" xlink:href="#HelveticaWorld-Regular-97"/><use x="231.348" xlink:href="#HelveticaWorld-Regular-108"/><use x="253.369" xlink:href="#HelveticaWorld-Regular-45"/><use x="286.67" xlink:href="#HelveticaWorld-Regular-115"/><use x="336.67" xlink:href="#HelveticaWorld-Regular-116"/><use x="364.355" xlink:href="#HelveticaWorld-Regular-117"/><use x="419.141" xlink:href="#HelveticaWorld-Regular-100"/><use x="476.123" xlink:href="#HelveticaWorld-Regular-105"/><use x="498.145" xlink:href="#HelveticaWorld-Regular-111"/><use x="554.053" xlink:href="#HelveticaWorld-Regular-45"/><use x="587.354" xlink:href="#HelveticaWorld-Regular-99"/><use x="638.623" xlink:href="#HelveticaWorld-Regular-111"/><use x="694.531" xlink:href="#HelveticaWorld-Regular-100"/><use x="751.514" xlink:href="#HelveticaWorld-Regular-101"/></g></g><g id="text_15"><defs><path d="M6.594 52.297h8.297v-7.375h.203q5.906 8.89 15.812 8.89 9.813 0 13.922-8.5 3.75 4.594 7.266 6.547 3.515 1.953 8.703 1.953 6.781 0 11.484-4.453Q77 44.922 77 36.187V0h-8.781v33.797q0 6.094-2.297 9.094-2.297 3.015-7.422 3.015-5.172 0-8.75-4.203-3.563-4.203-3.563-9.812V0h-8.78v36.188q0 4.53-2.11 7.124-2.094 2.594-6.094 2.594-6.297 0-10.062-4.687-3.766-4.688-3.766-12.703V0H6.594z" id="HelveticaWorld-Regular-109"/></defs><g transform="matrix(.14 0 0 -.14 401.99 255.41)" fill="#ff7f0e"><use xlink:href="#HelveticaWorld-Regular-118"/><use x="49.609" xlink:href="#HelveticaWorld-Regular-105"/><use x="71.631" xlink:href="#HelveticaWorld-Regular-109"/></g></g><g id="text_16"><defs><path d="M15.375 0H6.594v52.297h8.297v-8.688h.203q5.703 10.203 14.687 10.203 1.422 0 2.297-.296V44.39h-3.266q-5.906 0-9.671-4.016-3.766-4-3.766-9.953z" id="HelveticaWorld-Regular-114"/></defs><g transform="matrix(.14 0 0 -.14 401.99 271.58)" fill="#2ca02c"><use xlink:href="#HelveticaWorld-Regular-97"/><use x="54.932" xlink:href="#HelveticaWorld-Regular-116"/><use x="82.617" xlink:href="#HelveticaWorld-Regular-111"/><use x="138.525" xlink:href="#HelveticaWorld-Regular-109"/><use x="221.533" xlink:href="#HelveticaWorld-Regular-45"/><use x="254.834" xlink:href="#HelveticaWorld-Regular-101"/><use x="310.254" xlink:href="#HelveticaWorld-Regular-100"/><use x="367.236" xlink:href="#HelveticaWorld-Regular-105"/><use x="389.258" xlink:href="#HelveticaWorld-Regular-116"/><use x="416.943" xlink:href="#HelveticaWorld-Regular-111"/><use x="472.852" xlink:href="#HelveticaWorld-Regular-114"/></g></g><g id="text_17"><defs><path d="M49.219 0h-8.844v32.172q0 7.422-2.594 10.578-2.578 3.156-8.578 3.156-5.906 0-9.875-4.5-3.953-4.484-3.953-12.89V0H6.594v52.297h8.297v-7.375h.203q6.203 8.89 15.812 8.89 8.89 0 13.594-4.718 4.719-4.703 4.719-13.5z" id="HelveticaWorld-Regular-110"/><path d="M14.984 23.688q0-8.407 4.094-13 4.11-4.579 10.219-4.579 6.687 0 10.39 5.438 3.72 5.453 3.72 14.765 0 10.22-3.563 14.907-3.563 4.687-10.735 4.687-6.984 0-10.562-5.5-3.563-5.5-3.563-16.718zm-8.39 28.609h8.297v-7.375h.203q5.61 8.89 15.625 8.89 10.11 0 15.937-7.359 5.828-7.344 5.828-18.766 0-12.796-5.953-21Q40.578-1.515 29.5-1.515q-9.094 0-13.922 7.032h-.203v-26.22H6.594z" id="HelveticaWorld-Regular-112"/><path d="M25.688 50.484h7.328V28.906h21.578v-7.328H33.016V0h-7.328v21.578H4v7.328h21.688z" id="HelveticaWorld-Regular-43"/></defs><g transform="matrix(.14 0 0 -.14 401.99 287.75)" fill="#d62728"><use xlink:href="#HelveticaWorld-Regular-110"/><use x="55.176" xlink:href="#HelveticaWorld-Regular-111"/><use x="111.084" xlink:href="#HelveticaWorld-Regular-116"/><use x="138.77" xlink:href="#HelveticaWorld-Regular-101"/><use x="194.189" xlink:href="#HelveticaWorld-Regular-112"/><use x="250.684" xlink:href="#HelveticaWorld-Regular-97"/><use x="305.615" xlink:href="#HelveticaWorld-Regular-100"/><use x="362.598" xlink:href="#HelveticaWorld-Regular-43"/><use x="421.191" xlink:href="#HelveticaWorld-Regular-43"/></g></g><g transform="matrix(.14 0 0 -.14 401.99 303.92)" fill="#9467bd" id="text_18"><use xlink:href="#HelveticaWorld-Regular-101"/><use x="55.42" xlink:href="#HelveticaWorld-Regular-109"/><use x="138.428" xlink:href="#HelveticaWorld-Regular-97"/><use x="193.359" xlink:href="#HelveticaWorld-Regular-99"/><use x="244.629" xlink:href="#HelveticaWorld-Regular-115"/></g><g id="text_19"><defs><path d="M43.406 26.313q0 10.5-3.718 15.046-3.704 4.547-10.579 4.547-6.984-.11-10.562-5.453Q14.984 35.11 14.984 25q0-10.297 4.297-14.594Q23.578 6.11 29.297 6.11q6.5 0 10.297 5.344 3.812 5.344 3.812 14.86zM6.594 0v71.781h8.781V45.703h.203q5.61 8.11 15.14 8.11 9.766 0 15.766-7.25t6-18.876q0-13.093-6.062-21.156Q40.375-1.516 29.5-1.516q-9.578 0-14.406 8.016h-.203V0z" id="HelveticaWorld-Regular-98"/><path d="M49.031 0H37.703l-12.89 19.672L12.203 0H1.125l18.266 26.906L2 52.296h11.188l12.109-18.405L37.5 52.297h10.688l-17.579-25.39z" id="HelveticaWorld-Regular-120"/></defs><g transform="matrix(.14 0 0 -.14 401.99 320.09)" fill="#8c564b"><use xlink:href="#HelveticaWorld-Regular-115"/><use x="50" xlink:href="#HelveticaWorld-Regular-117"/><use x="104.785" xlink:href="#HelveticaWorld-Regular-98"/><use x="161.279" xlink:href="#HelveticaWorld-Regular-108"/><use x="183.301" xlink:href="#HelveticaWorld-Regular-105"/><use x="205.322" xlink:href="#HelveticaWorld-Regular-109"/><use x="288.33" xlink:href="#HelveticaWorld-Regular-101"/><use x="343.75" xlink:href="#HelveticaWorld-Regular-116"/><use x="371.436" xlink:href="#HelveticaWorld-Regular-101"/><use x="423.98" xlink:href="#HelveticaWorld-Regular-120"/><use x="473.98" xlink:href="#HelveticaWorld-Regular-116"/></g></g><g id="text_20"><defs><path d="M50.39 50.781q-.296 6.844-5.109 10.719-4.797 3.875-12.656 3.875-7.922 0-12.172-3.25-4.234-3.234-4.234-9.344 0-3.265 1.843-5.61 1.86-2.343 6.641-3.468l20.516-4.687q8.297-1.813 12.297-6.875 4.015-5.047 4.015-12.313 0-10.64-7.812-16.187-7.813-5.547-20.313-5.547-9.531 0-15.031 2.437-5.484 2.453-9.734 7.766-4.25 5.328-4.25 14.89h9.093q0-8 5.313-12.406 5.328-4.39 14.5-4.39 8.89 0 13.844 3.156 4.953 3.156 4.953 8.953 0 5.281-2.953 7.89Q46.188 29 37.594 31l-15.469 3.625q-7.719 1.75-11.531 6.125Q6.78 45.125 6.78 51.516q0 9.672 6.516 15.922 6.531 6.25 18.203 6.25 13.172 0 20.328-5.5 7.156-5.485 7.688-17.407z" id="HelveticaWorld-Regular-83"/><path d="M50 0H38.719L22.406 26.422l-7.312-6.594V0h-8.5v71.781h8.5v-41.61l22.5 22.126H48.78L28.813 32.813z" id="HelveticaWorld-Regular-107"/><path d="M63.922 35.89q0 12.594-6.672 20.891-6.656 8.313-18.328 8.313-11.531 0-18.266-8.313-6.734-8.297-6.734-20.89 0-12.985 6.828-21.094 6.844-8.11 18.172-8.11 11.078 0 18.031 7.907 6.969 7.922 6.969 21.297zm9.953 0q0-16.062-9.281-26.937-9.266-10.86-25.672-10.86-16.516 0-25.766 10.86-9.25 10.875-9.25 26.938 0 16.109 9.25 26.953 9.25 10.843 25.766 10.843 16.89 0 25.922-11.046 9.031-11.032 9.031-26.75z" id="HelveticaWorld-Regular-79"/><path d="M17.188 45.016V0H8.405v45.016H1.22v7.28h7.187v8.985q0 5.907 3.578 8.703 3.594 2.813 10.032 2.813 2.203 0 3.968-.188v-7.906q-1.562.188-3.578.188-2.922 0-4.078-1.438-1.14-1.437-1.14-4.656v-6.5h8.796v-7.281z" id="HelveticaWorld-Regular-102"/><path d="M25.594 0h-8.985L1.516 52.297h9.468L21 11.187h.188l10.109 41.11h9.922l10.203-41.11h.187l10.594 41.11h8.703L55.812 0h-9.234L35.984 40.484h-.187z" id="HelveticaWorld-Regular-119"/><path d="M44 29.5L33.406 61.078h-.203L21.687 29.5zm-25.297-8.594L11.188 0h-9.97l27 71.781h10.985L65.187 0H54.594l-7.078 20.906z" id="HelveticaWorld-Regular-65"/><path d="M17.828 38.625H37.11q7.282 0 10.938 3.188 3.656 3.203 3.656 9.703 0 5.812-3.516 8.89-3.515 3.078-10.687 3.078H17.828zm0-38.625H8.11v71.781h32.266q9.625 0 15.484-5.594 5.86-5.593 5.86-14.578 0-9.328-5.672-15.312-5.656-5.969-15.672-5.969H17.828z" id="HelveticaWorld-Regular-80"/><path d="M17.828 0H8.11v71.781h9.72z" id="HelveticaWorld-Regular-73"/><path d="M49.219 0h-8.844v34.188q0 6.296-2.438 9-2.437 2.718-7.953 2.718-6.797 0-10.703-4.406-3.906-4.39-3.906-12.984V0H6.594v71.781h8.781V45.312h.203q6 8.5 15.328 8.5 8.594 0 13.453-4.5 4.86-4.484 4.86-13.718z" id="HelveticaWorld-Regular-104"/><path d="M9.422 73.688h7.281V-1.906H9.422z" id="HelveticaWorld-Regular-124"/><path d="M55.61 71.781h9.374V0h-10.78L17.577 58.016h-.187V0H8.109v71.781h11.375l35.938-57.969h.187z" id="HelveticaWorld-Regular-78"/><path d="M12.703 26.219q0-8.735 3.953-14.375 3.953-5.64 11.219-5.64 7.531 0 11.438 5.905 3.906 5.907 3.906 14.11 0 8.297-3.907 14.078-3.906 5.797-11.437 5.797-6.969 0-11.078-5.453-4.094-5.438-4.094-14.422zm-8.984 0q0 11.672 6.484 19.625 6.5 7.968 17.672 7.968 11.438 0 17.875-8.062 6.453-8.047 6.453-19.531 0-11.516-6.406-19.625-6.39-8.11-17.922-8.11-11.078 0-17.625 7.86-6.531 7.86-6.531 19.875zm36.734 35.406H31.47v10.156h8.984zm-16.219 0H15.25v10.156h8.984z" id="HelveticaWorld-Regular-246"/><path d="M58.016 50.203q-1.625 7.313-6.782 11.094-5.14 3.797-13.343 3.797-10.594 0-17.047-7.703-6.438-7.688-6.438-20.766 0-15.14 6.094-22.547 6.11-7.39 17.688-7.39 7.609 0 13.093 5.046 5.5 5.063 7.407 14.688h9.421Q66.22 12.594 57.625 5.344t-20.906-7.25q-14.703 0-23.516 10.11Q4.391 18.311 4.391 36.28q0 17.328 9.203 27.36 9.203 10.047 24.297 10.047 12.5 0 20.265-6.454 7.766-6.437 9.235-17.03z" id="HelveticaWorld-Regular-67"/><path d="M8.11 71.781h31.484q9.281 0 14.797-5.031 5.515-5.031 5.515-13.031 0-4.844-2.422-8.828-2.406-3.97-7.187-6.172 6.687-2.532 9.828-6.735 3.156-4.203 3.156-10.797 0-9.265-6.687-15.234Q49.906 0 38.922 0H8.109zm9.562-63.484h20.703q7.625 0 11.422 3.531 3.812 3.547 3.812 9.563 0 6.093-4.25 9.093Q45.125 33.5 36.812 33.5h-19.14zm0 33.11h17.625q7.719 0 11.312 2.796 3.594 2.813 3.594 8.781 0 5.125-3.406 7.813-3.39 2.687-11.39 2.687H17.671z" id="HelveticaWorld-Regular-66"/><path d="M37.313 0h-9.72v28.906L.485 71.781h11.329l20.609-34.469 20.562 34.47h11.422L37.312 28.905z" id="HelveticaWorld-Regular-89"/></defs><g transform="matrix(.1 0 0 -.1 26.27 335.614)" fill="#888"><use xlink:href="#HelveticaWorld-Regular-83"/><use x="66.211" xlink:href="#HelveticaWorld-Regular-116"/><use x="93.896" xlink:href="#HelveticaWorld-Regular-97"/><use x="148.828" xlink:href="#HelveticaWorld-Regular-99"/><use x="200.098" xlink:href="#HelveticaWorld-Regular-107"/><use x="250.098" xlink:href="#HelveticaWorld-Regular-79"/><use x="327.881" xlink:href="#HelveticaWorld-Regular-118"/><use x="375.49" xlink:href="#HelveticaWorld-Regular-101"/><use x="430.91" xlink:href="#HelveticaWorld-Regular-114"/><use x="464.979" xlink:href="#HelveticaWorld-Regular-102"/><use x="492.664" xlink:href="#HelveticaWorld-Regular-108"/><use x="514.686" xlink:href="#HelveticaWorld-Regular-111"/><use x="569.094" xlink:href="#HelveticaWorld-Regular-119"/><use x="641.506" xlink:href="#HelveticaWorld-Regular-32"/><use x="665.92" xlink:href="#HelveticaWorld-Regular-65"/><use x="732.619" xlink:href="#HelveticaWorld-Regular-80"/><use x="797.268" xlink:href="#HelveticaWorld-Regular-73"/><use x="823.049" xlink:href="#HelveticaWorld-Regular-32"/><use x="847.463" xlink:href="#HelveticaWorld-Regular-118"/><use x="897.072" xlink:href="#HelveticaWorld-Regular-105"/><use x="919.094" xlink:href="#HelveticaWorld-Regular-97"/><use x="974.025" xlink:href="#HelveticaWorld-Regular-32"/><use x="998.439" xlink:href="#HelveticaWorld-Regular-104"/><use x="1053.615" xlink:href="#HelveticaWorld-Regular-111"/><use x="1109.523" xlink:href="#HelveticaWorld-Regular-116"/><use x="1137.209" xlink:href="#HelveticaWorld-Regular-119"/><use x="1207.246" xlink:href="#HelveticaWorld-Regular-97"/><use x="1262.178" xlink:href="#HelveticaWorld-Regular-114"/><use x="1293.746" xlink:href="#HelveticaWorld-Regular-101"/><use x="1349.166" xlink:href="#HelveticaWorld-Regular-32"/><use x="1373.58" xlink:href="#HelveticaWorld-Regular-124"/><use x="1399.557" xlink:href="#HelveticaWorld-Regular-32"/><use x="1423.971" xlink:href="#HelveticaWorld-Regular-78"/><use x="1497.066" xlink:href="#HelveticaWorld-Regular-105"/><use x="1519.088" xlink:href="#HelveticaWorld-Regular-99"/><use x="1570.357" xlink:href="#HelveticaWorld-Regular-111"/><use x="1626.266" xlink:href="#HelveticaWorld-Regular-32"/><use x="1650.68" xlink:href="#HelveticaWorld-Regular-83"/><use x="1716.891" xlink:href="#HelveticaWorld-Regular-99"/><use x="1768.16" xlink:href="#HelveticaWorld-Regular-104"/><use x="1823.336" xlink:href="#HelveticaWorld-Regular-108"/><use x="1845.357" xlink:href="#HelveticaWorld-Regular-246"/><use x="1901.266" xlink:href="#HelveticaWorld-Regular-109"/><use x="1984.273" xlink:href="#HelveticaWorld-Regular-101"/><use x="2039.693" xlink:href="#HelveticaWorld-Regular-114"/><use x="2072.262" xlink:href="#HelveticaWorld-Regular-32"/><use x="2096.676" xlink:href="#HelveticaWorld-Regular-124"/><use x="2122.652" xlink:href="#HelveticaWorld-Regular-32"/><use x="2147.066" xlink:href="#HelveticaWorld-Regular-67"/><use x="2219.381" xlink:href="#HelveticaWorld-Regular-67"/><use x="2291.695" xlink:href="#HelveticaWorld-Regular-32"/><use x="2316.109" xlink:href="#HelveticaWorld-Regular-66"/><use x="2378.922" xlink:href="#HelveticaWorld-Regular-89"/></g></g><g id="text_21"><defs><path d="M17.828 8.297h18.797q9.766 0 15.281 7.5 5.516 7.5 5.516 20.484 0 12.844-5.563 19.969-5.562 7.125-16.062 7.234H17.828zM8.11 71.78h29.094q14.11 0 22.094-9.703 7.984-9.687 7.984-25.156 0-16.61-7.984-26.766Q51.313 0 36.813 0H8.108z" id="HelveticaWorld-Regular-68"/><path d="M39.016 52.297h9.562L29.891.984q-.5-1.375-.985-2.593-4.25-11.329-7.328-15.547-3.078-4.235-9.953-4.235-3.61 0-5.906.782v8.015q2.484-.89 5.468-.89 3.22 0 4.704 2.03 1.5 2.032 4.421 9.938L.875 52.297h9.922L24.812 9.719H25z" id="HelveticaWorld-Regular-121"/><path d="M41.5 23.688q0 11.125-3.5 16.671-3.484 5.547-10.61 5.547-6.874 0-10.593-4.5-3.703-4.484-3.703-15.093 0-9.422 3.75-14.813 3.765-5.39 10.36-5.39 5.812 0 10.046 4.39 4.25 4.39 4.25 13.188zm8.406-44.391H41.11V5.516h-.187Q35.89-1.516 27-1.516q-10.984 0-17 8.157-6 8.156-6 21.047 0 11.421 5.906 18.765 5.922 7.36 15.875 7.36 9.907 0 15.625-8.891h.203v7.375h8.297z" id="HelveticaWorld-Regular-113"/></defs><g transform="matrix(.14 0 0 -.14 76.204 17.516)"><use xlink:href="#HelveticaWorld-Regular-68"/><use x="72.021" xlink:href="#HelveticaWorld-Regular-97"/><use x="126.953" xlink:href="#HelveticaWorld-Regular-105"/><use x="148.975" xlink:href="#HelveticaWorld-Regular-108"/><use x="170.996" xlink:href="#HelveticaWorld-Regular-121"/><use x="220.605" xlink:href="#HelveticaWorld-Regular-32"/><use x="245.02" xlink:href="#HelveticaWorld-Regular-110"/><use x="300.195" xlink:href="#HelveticaWorld-Regular-117"/><use x="354.98" xlink:href="#HelveticaWorld-Regular-109"/><use x="437.988" xlink:href="#HelveticaWorld-Regular-98"/><use x="494.482" xlink:href="#HelveticaWorld-Regular-101"/><use x="549.902" xlink:href="#HelveticaWorld-Regular-114"/><use x="582.471" xlink:href="#HelveticaWorld-Regular-32"/><use x="606.885" xlink:href="#HelveticaWorld-Regular-111"/><use x="662.793" xlink:href="#HelveticaWorld-Regular-102"/><use x="690.479" xlink:href="#HelveticaWorld-Regular-32"/><use x="714.893" xlink:href="#HelveticaWorld-Regular-113"/><use x="771.387" xlink:href="#HelveticaWorld-Regular-117"/><use x="826.172" xlink:href="#HelveticaWorld-Regular-101"/><use x="881.592" xlink:href="#HelveticaWorld-Regular-115"/><use x="931.592" xlink:href="#HelveticaWorld-Regular-116"/><use x="959.277" xlink:href="#HelveticaWorld-Regular-105"/><use x="981.299" xlink:href="#HelveticaWorld-Regular-111"/><use x="1037.207" xlink:href="#HelveticaWorld-Regular-110"/><use x="1092.383" xlink:href="#HelveticaWorld-Regular-115"/><use x="1142.383" xlink:href="#HelveticaWorld-Regular-32"/><use x="1166.797" xlink:href="#HelveticaWorld-Regular-111"/><use x="1222.705" xlink:href="#HelveticaWorld-Regular-110"/><use x="1277.881" xlink:href="#HelveticaWorld-Regular-32"/><use x="1302.295" xlink:href="#HelveticaWorld-Regular-83"/><use x="1368.506" xlink:href="#HelveticaWorld-Regular-116"/><use x="1396.191" xlink:href="#HelveticaWorld-Regular-97"/><use x="1451.123" xlink:href="#HelveticaWorld-Regular-99"/><use x="1502.393" xlink:href="#HelveticaWorld-Regular-107"/><use x="1552.393" xlink:href="#HelveticaWorld-Regular-79"/><use x="1630.176" xlink:href="#HelveticaWorld-Regular-118"/><use x="1677.785" xlink:href="#HelveticaWorld-Regular-101"/><use x="1733.205" xlink:href="#HelveticaWorld-Regular-114"/><use x="1767.273" xlink:href="#HelveticaWorld-Regular-102"/><use x="1794.959" xlink:href="#HelveticaWorld-Regular-108"/><use x="1816.98" xlink:href="#HelveticaWorld-Regular-111"/><use x="1871.389" xlink:href="#HelveticaWorld-Regular-119"/></g></g><path clip-path="url(#p262e7b9a93)" d="M147.121 300.716l2.707-.28 2.75.28h48.58l2.616-3.632 2.708 1.611 2.706-1.332 2.706.177 2.707-1.854h2.75l2.707 1.565 2.708.391 2.704-2.123 2.706 2.403 2.751-1.118 2.618-1.038 2.615.48 2.708-3.904 2.707 2.506 2.706-5.393 2.706-3.828 2.75 4.75 2.707-2.077 2.708.121 2.705-1.276 2.706 3.512 2.75-3.074 2.663-1.205 2.66-7.737 2.708 2.151 2.706 2.32 2.706.28 2.707 2.235 2.75-3.074 2.706-1.76 2.709 1.76 2.704 1.416 2.706.54 2.751 1.397 2.618-4.99 2.615-.878 2.708 1.043 2.707 5.105 2.706-5.105 2.706 2.31 2.75-1.117 2.707 4.293 2.708-.381 2.705.382 2.706 6.603 2.75-9.22 2.618.368 2.616 1.308 2.708 3.828 2.706-2.431 2.706.987 2.707-3.223 2.75 4.192 2.707-3.856 2.708-.615 2.704-.252 2.706.531 2.751 1.398 2.618-.01 2.615 4.76 2.708-2.347 2.707-2.124 2.706 4.723 2.706-3.046 2.75-.839 2.707 3.018 2.708-3.856 2.705-1.052 2.706 1.052 2.75.28 2.663.53 2.66-2.487" fill="none" stroke="#2ca02c" stroke-linecap="square" stroke-width="1.5" id="line2d_24"/><path clip-path="url(#p262e7b9a93)" d="M26.27 275.27l2.088 15.107 2.704-.633 2.706 3.148 2.751-2.794 2.618-8.254 2.615-.688 2.708-6.139 2.707-.568 2.706 6.055 2.706-2.422 2.75-3.912 2.707 2.291 2.708-10.115 2.705 6.361 2.706-1.052 2.75-9.78 2.618 2.954 2.616-5.47 5.414 17.326 2.706-13.795 2.707 2.617 2.75.56 2.707-11.55 2.708 5.96 2.704-2.784 2.706-6.996 2.751-13.971 2.618 8.922 2.615-6.128 2.708-4.35 2.707 5.747 2.706 2.627 2.706 15.257 2.75-26.826 2.707-3.157 2.708 2.319 2.705 8.076 2.706-14.503 2.75 2.794 2.663-6.542 2.66-1.282 2.708 12.602 2.706-2.822 2.706 3.111 2.707-13.45 2.75-4.47 2.707 12.434 2.708 10.2 2.704-26.081 2.706 23.845 2.751-11.457 2.618-14.76 2.615 3.583 2.708 1.676 2.707-3.074 2.706 24.73 2.706-17.744 2.75-4.75 2.707 6.325 2.708-2.972 2.705 4.126 2.706 5.096 2.75-10.898 2.618 2.874 5.324-6.889 2.706 16.869 2.706 3.055 2.707-12.556 2.75 6.706 2.707-1.369 2.708-3.102 2.704 8.3 2.706 7.908 2.751-17.325 2.618-5.929 2.615 18.503 2.708 7.815 2.707-3.623 2.706 11.708 2.706-11.15 2.75 1.398 2.707-3.53 2.708 4.927 2.705-1.751 2.706 7.34 2.75-4.471 2.663.038 2.66 5.27 2.708.197 2.706 4.554 2.706-2.245 2.707 3.922 2.75 6.427 2.706-5.728 2.709-4.611 2.704 1.434 2.706 7.508 2.751-4.471 2.618-2.954 2.615 2.115 2.708 7.331 2.707.494 2.706-3.093 2.706-11.717 2.75 20.119 2.707-15.043 2.708 13.646 2.705.503 2.706 6.203 2.75-6.147 2.618-3.274 2.616.48 2.708 5.337 2.706 2.766 2.706-1.323 2.707-5.663 2.75 3.633 2.707.875 2.708-2.831 2.704 3.697 2.706-1.462 2.751-.559 2.618-6.497 2.615 8.453 2.708 4.974 2.707 3.689 2.706 2.375 2.706-3.214 2.75-.558 5.415-5.31 2.705-5.644 2.706 10.115 2.75-10.06 2.663-.414 2.66.415h0" fill="none" stroke="#ff7f0e" stroke-linecap="square" stroke-width="1.5" id="line2d_25"/><path clip-path="url(#p262e7b9a93)" d="M176.802 300.716l2.706-.288 2.706.009 2.75.28H193.085l2.706-.28 2.75.28H236.16l2.708-25.41 2.707-20.977 2.706 27.617 2.706 2.003 2.75 3.353 2.707 1.286 2.708-6.874 2.705-4.099 2.706-4.843 2.75.559 2.663 3.189 2.66-9.616 2.708-7.48 2.706 7.2 2.706-4.313 2.707-4.629 2.75 3.353 2.706-8.252 2.709-5.999 2.704-1.22 2.706 2.897 2.751-8.942 2.618-15.838 2.615-7.355 2.708 4.117 2.707 2.03 2.706-4.918 2.706-7.656 2.75-8.104 2.707 1.9 2.708 5.924 2.705-9.966 2.706 21.144 2.75-16.487 2.618-21.776 2.616.539 2.708-9.985 2.706 11.382 2.706-14.27 2.707-9.482 2.75 12.295 2.707 4.406 2.708-18.378 2.704 11.16 2.706 5.886 2.751-12.295 2.618-15.29 2.615-3.153 2.708 6.371 2.707-28.446 2.706 9.389 2.706-28.39 2.75 12.853 2.707-23.156 2.708-7.861 2.705-6.576 2.706 12.444 2.75-21.517 2.663 4.732 2.66-51.677" fill="none" stroke="#1f77b4" stroke-linecap="square" stroke-width="1.5" id="line2d_26"/></g></g><defs><clipPath id="p262e7b9a93"><path d="M26.271 23.516h372v277.2h-372z"/></clipPath></defs></svg>