<svg height="475.651" viewBox="0 0 453.231 356.738" width="604.308" xmlns="http://www.w3.org/2000/svg" xmlns:xlink="http://www.w3.org/1999/xlink"><defs><style>*{stroke-linecap:butt;stroke-linejoin:round}</style></defs><g id="figure_1"><path d="M0 356.738h453.23V0H0z" style="fill:none" id="patch_1"/><g id="axes_1"><path d="M29.77 313.628h357.12V47.516H29.77z" style="fill:none" id="patch_2"/><path clip-path="url(#p3e5435c743)" d="m29.77 311.362 1.831 1.097 2.373 1.17h2.374l4.71-2.267 2.294.512 2.375.848 2.374.321 2.374-.02 2.375-.564 2.413.877 2.374-.312 2.375-.565 2.373-2.457 2.374 2.164 4.709-1.128 2.295.836 2.375 1.452 2.374-.575 2.374.575 2.374-1.745 2.413.293 2.374-1.268 2.376.975 2.372-1.277 2.375 1.277 2.413-2.047 2.296 2.475 2.294-1.305 2.376-3.421 2.374 2.251 2.374-1.043 2.374 1.628 2.413.585 2.374-1.306 2.376-.741 2.372-2.885 2.374 2.885 2.413-2.047 2.335 1.704 2.334-.827 2.376 2.515 2.374-2.222 2.374-.497 2.374-2.428h2.413l2.374 5.45 2.376-4.28 2.372.653 2.374-.945 2.413.292 2.296 1.452 2.295.303 2.375-2.008 2.375 3.47 2.374-1.96 2.374-.38 2.413.585 2.374-3.528 2.375.311 2.373 1.804 2.374-.634 2.413.877 2.296-3.373 2.295.45 2.375 1.471 2.374 2.622 2.374-.507 2.374-.663 2.413.878 2.374-2.33 2.376 2.33 2.373.088 4.787 1.666 2.296-3.415 2.294 2.246 2.376-.497 2.374-1.55 2.374-1.17 2.374-.585 2.413 3.51 2.374-.81 2.376.517 2.372-3.84 2.374 3.84 2.413 1.462 2.336-3.469 2.333 2.592 2.376-.497 2.374-1.55 2.374.945 2.374.81 2.413.292 2.374-.195 2.376-.39 2.372.692 2.374.477 2.413.293 2.296 1.41 2.295-.825 2.376.458 2.374-1.336 4.748.293 2.413 2.34 2.374-3.714 2.375 1.374 2.373-.166 2.374.166 2.413.877 2.296-1.41 2.295.533 2.375 1.95 2.374-2.827 2.374 2.826 2.375.098 2.412-3.802 2.375 3.402 2.375-2.524 2.373.107 2.374 2.232 2.413-1.17 2.296 1.442 2.294-.564 2.376.175 2.374-1.345 2.374 1.043 2.374.127 2.413.292 2.374-.117 2.376-3.392 2.372.975 2.375-2.145 2.412.585 2.336-2.087 2.333 2.964 2.376-1.735 2.374-.312 2.374 3.636 2.374-.127 2.413 1.17 2.374.166 2.376-1.92 4.746 2.047 2.413-2.34 2.296 1.285 2.295-3.624 2.376 3.948h0" style="fill:none;stroke:#8c564b;stroke-linecap:square;stroke-width:1.5" id="line2d_1"/><g id="matplotlib.axis_1"><g id="xtick_1"><g id="line2d_2"><defs><path d="M0 0v3.5" id="m66ea9009f3" style="stroke:#969696;stroke-width:.4"/></defs><use style="fill:#969696;stroke:#969696;stroke-width:.4" x="65.965" xlink:href="#m66ea9009f3" y="313.628"/></g><g style="fill:#969696" transform="matrix(.14 0 0 -.14 50.395 330.678)" id="text_1"><defs><path d="M281 2888q0 793 409 1202 410 410 1148 410 618 0 1012-375t394-969q0-462-227-780-226-317-667-557l-775-425q-684-375-775-863h2444V0H166q25 634 275 1056t781 728l806 469q322 185 469 383t147 545q0 344-241 578-240 235-650 235-453 0-678-299-225-298-231-807H281z" id="HelveticaWorld-Regular-32" transform="scale(.01563)"/><path d="M2719 2188q0 903-239 1354-239 452-702 452-453 0-697-452-243-451-243-1354 0-875 240-1340 241-464 700-464 463 0 702 448 239 449 239 1356zm603 0q0-1107-400-1709-400-601-1144-601-772 0-1156 623-384 624-384 1687 0 1090 393 1701 394 611 1147 611 744 0 1144-608t400-1704z" id="HelveticaWorld-Regular-30" transform="scale(.01563)"/><path d="M2297 0h-600v3194H647v447q550 18 818 176 269 158 391 683h441V0z" id="HelveticaWorld-Regular-31" transform="scale(.01563)"/></defs><use xlink:href="#HelveticaWorld-Regular-32"/><use x="55.615" xlink:href="#HelveticaWorld-Regular-30"/><use x="111.23" xlink:href="#HelveticaWorld-Regular-31"/><use x="166.846" xlink:href="#HelveticaWorld-Regular-30"/></g></g><g id="xtick_2"><use style="fill:#969696;stroke:#969696;stroke-width:.4" x="122.787" xlink:href="#m66ea9009f3" y="313.628" id="line2d_3"/><g style="fill:#969696" transform="matrix(.14 0 0 -.14 107.216 330.678)" id="text_2"><use xlink:href="#HelveticaWorld-Regular-32"/><use x="55.615" xlink:href="#HelveticaWorld-Regular-30"/><use x="111.23" xlink:href="#HelveticaWorld-Regular-31"/><use x="166.846" xlink:href="#HelveticaWorld-Regular-32"/></g></g><g id="xtick_3"><use style="fill:#969696;stroke:#969696;stroke-width:.4" x="179.686" xlink:href="#m66ea9009f3" y="313.628" id="line2d_4"/><g style="fill:#969696" transform="matrix(.14 0 0 -.14 164.116 330.678)" id="text_3"><defs><path d="M678 1581h1447v2041h-12L678 1581zm2010-487V0h-563v1094H159v550l2063 2856h466V1581h659v-487h-659z" id="HelveticaWorld-Regular-34" transform="scale(.01563)"/></defs><use xlink:href="#HelveticaWorld-Regular-32"/><use x="55.615" xlink:href="#HelveticaWorld-Regular-30"/><use x="111.23" xlink:href="#HelveticaWorld-Regular-31"/><use x="166.846" xlink:href="#HelveticaWorld-Regular-34"/></g></g><g id="xtick_4"><use style="fill:#969696;stroke:#969696;stroke-width:.4" x="236.508" xlink:href="#m66ea9009f3" y="313.628" id="line2d_5"/><g style="fill:#969696" transform="matrix(.14 0 0 -.14 220.937 330.678)" id="text_4"><defs><path d="M903 1381q0-440 262-719 263-278 685-278 403 0 642 284 239 285 239 748 0 403-236 675t-670 272q-422 0-672-266t-250-716zm1766 1922q-63 344-255 517-192 174-520 174-519 0-791-507-272-506-278-1159l13-12q359 553 1068 553 566 0 988-375t422-1053q0-672-400-1118-400-445-1078-445-782 0-1188 556-406 557-406 1660 0 1062 415 1734 416 672 1247 672 538 0 910-321 372-320 403-876h-550z" id="HelveticaWorld-Regular-36" transform="scale(.01563)"/></defs><use xlink:href="#HelveticaWorld-Regular-32"/><use x="55.615" xlink:href="#HelveticaWorld-Regular-30"/><use x="111.23" xlink:href="#HelveticaWorld-Regular-31"/><use x="166.846" xlink:href="#HelveticaWorld-Regular-36"/></g></g><g id="xtick_5"><use style="fill:#969696;stroke:#969696;stroke-width:.4" x="293.407" xlink:href="#m66ea9009f3" y="313.628" id="line2d_6"/><g style="fill:#969696" transform="matrix(.14 0 0 -.14 277.837 330.678)" id="text_5"><defs><path d="M1766 2597q347 0 573 198 227 199 227 527 0 294-218 483-217 189-620 189-359 0-555-199-195-198-195-504 0-328 244-511t544-183zm6-484q-434 0-681-241t-247-591q0-403 250-650t712-247q410 0 655 247t245 657q0 350-245 587-245 238-689 238zm1378 1228q0-678-578-947 397-178 567-471 170-292 170-623 0-641-413-1032-412-390-1112-390-612 0-1076 336T244 1306q0 763 762 1082-609 243-609 875 0 531 361 884t1001 353q641 0 1016-333t375-826z" id="HelveticaWorld-Regular-38" transform="scale(.01563)"/></defs><use xlink:href="#HelveticaWorld-Regular-32"/><use x="55.615" xlink:href="#HelveticaWorld-Regular-30"/><use x="111.23" xlink:href="#HelveticaWorld-Regular-31"/><use x="166.846" xlink:href="#HelveticaWorld-Regular-38"/></g></g><g id="xtick_6"><use style="fill:#969696;stroke:#969696;stroke-width:.4" x="350.229" xlink:href="#m66ea9009f3" y="313.628" id="line2d_7"/><g style="fill:#969696" transform="matrix(.14 0 0 -.14 334.658 330.678)" id="text_6"><use xlink:href="#HelveticaWorld-Regular-32"/><use x="55.615" xlink:href="#HelveticaWorld-Regular-30"/><use x="111.23" xlink:href="#HelveticaWorld-Regular-32"/><use x="166.846" xlink:href="#HelveticaWorld-Regular-30"/></g></g></g><g id="matplotlib.axis_2"><g id="ytick_1"><path clip-path="url(#p3e5435c743)" d="M29.77 313.628h357.12" style="fill:none;stroke:#969696;stroke-linecap:square;stroke-width:.3" id="line2d_8"/><g id="line2d_9"><defs><path d="M0 0h-3.5" id="m1e777fe4a1" style="stroke:#969696;stroke-width:.3"/></defs><use style="fill:#969696;stroke:#969696;stroke-width:.3" x="29.771" xlink:href="#m1e777fe4a1" y="313.628"/></g><use xlink:href="#HelveticaWorld-Regular-30" transform="matrix(.14 0 0 -.14 14.985 318.653)" id="text_7"/></g><g id="ytick_2"><path clip-path="url(#p3e5435c743)" d="M29.77 268.301h357.12" style="fill:none;stroke:#969696;stroke-linecap:square;stroke-width:.3" id="line2d_10"/><use style="fill:#969696;stroke:#969696;stroke-width:.3" x="29.771" xlink:href="#m1e777fe4a1" y="268.301" id="line2d_11"/><g style="fill:#969696" transform="matrix(.14 0 0 -.14 14.985 273.326)" id="text_8"><defs><path d="M941 2619q372 281 872 281 606 0 1042-403t436-1038q0-690-421-1139-420-448-1179-448-660 0-1041 323-381 324-444 918h582q43-363 284-555t669-192q415 0 681 287 266 288 266 735 0 456-279 731-278 275-718 275-500 0-835-428l-484 25 337 2406h2332v-544H1131L941 2619z" id="HelveticaWorld-Regular-35" transform="scale(.01563)"/></defs><use xlink:href="#HelveticaWorld-Regular-35"/></g></g><g id="ytick_3"><path clip-path="url(#p3e5435c743)" d="M29.77 222.975h357.12" style="fill:none;stroke:#969696;stroke-linecap:square;stroke-width:.3" id="line2d_12"/><use style="fill:#969696;stroke:#969696;stroke-width:.3" x="29.771" xlink:href="#m1e777fe4a1" y="222.975" id="line2d_13"/><g style="fill:#969696" transform="matrix(.14 0 0 -.14 7.2 228)" id="text_9"><use xlink:href="#HelveticaWorld-Regular-31"/><use x="55.615" xlink:href="#HelveticaWorld-Regular-30"/></g></g><g id="ytick_4"><path clip-path="url(#p3e5435c743)" d="M29.77 177.648h357.12" style="fill:none;stroke:#969696;stroke-linecap:square;stroke-width:.3" id="line2d_14"/><use style="fill:#969696;stroke:#969696;stroke-width:.3" x="29.771" xlink:href="#m1e777fe4a1" y="177.648" id="line2d_15"/><g style="fill:#969696" transform="matrix(.14 0 0 -.14 7.2 182.673)" id="text_10"><use xlink:href="#HelveticaWorld-Regular-31"/><use x="55.615" xlink:href="#HelveticaWorld-Regular-35"/></g></g><g id="ytick_5"><path clip-path="url(#p3e5435c743)" d="M29.77 132.321h357.12" style="fill:none;stroke:#969696;stroke-linecap:square;stroke-width:.3" id="line2d_16"/><use style="fill:#969696;stroke:#969696;stroke-width:.3" x="29.771" xlink:href="#m1e777fe4a1" y="132.321" id="line2d_17"/><g style="fill:#969696" transform="matrix(.14 0 0 -.14 7.2 137.346)" id="text_11"><use xlink:href="#HelveticaWorld-Regular-32"/><use x="55.615" xlink:href="#HelveticaWorld-Regular-30"/></g></g><g id="ytick_6"><path clip-path="url(#p3e5435c743)" d="M29.77 86.994h357.12" style="fill:none;stroke:#969696;stroke-linecap:square;stroke-width:.3" id="line2d_18"/><use style="fill:#969696;stroke:#969696;stroke-width:.3" x="29.771" xlink:href="#m1e777fe4a1" y="86.994" id="line2d_19"/><g style="fill:#969696" transform="matrix(.14 0 0 -.14 7.2 92.02)" id="text_12"><use xlink:href="#HelveticaWorld-Regular-32"/><use x="55.615" xlink:href="#HelveticaWorld-Regular-35"/></g></g></g><path clip-path="url(#p3e5435c743)" d="m57.637 313.628 2.375-.292 2.373-.614 2.374.906h23.664l2.372-.302 2.375.01 2.413.292h6.966l2.374-.292 2.374.292 2.374-.292 2.413.292h9.496l2.413-.877 2.335.252 2.334-.252 2.376.877 2.374-.877 2.374-.03 2.374-.555 2.413.877 2.374-.02 2.376-.857 2.372.556 2.374.029 2.413.292 2.296-.71 2.295-.46 2.375.244 2.375.634 2.374-1.238 2.374.068 2.413 1.462 2.374-1.53 2.375.36 2.373.244 2.374.05 2.413-.878 2.296-.575 2.295 1.745 2.375-.342 2.374.342 2.374-1.248 2.374 1.248 2.413-.878 2.374 1.14 2.376-.262 2.373-.04 2.374-.838 2.413-.292 2.296.397 4.67-.173 4.748 1.209 2.374.321 2.413-1.754 2.374-.078 2.376.663 2.372 1.15 2.374-2.612 2.413.292 2.336.423 2.333 1.624 2.376-1.842 2.374 1.842 2.374.273 2.374.604 2.413-1.462 2.374-.35 2.376 1.227 2.372-.623 2.374-.839 2.413 1.17 2.296.553 2.295-.26 2.376-1.833 2.374.955 2.374-.653 2.374.068 2.413.585 2.374-.049 2.375-.243 2.373 1.754 2.374-2.047 2.413.293 2.296.135 2.295.45h4.75l2.373.565 2.375.02 2.412-1.463 2.375 1.14 2.375-1.14 2.373-.068 2.374 2.115 2.413-1.17 2.296.199 2.294-.783 2.376 1.15 2.374.02 2.374-.322 2.374-1.14 2.413-.878 2.374-3.724 2.376-.37 4.747 3.217 2.412-3.51 2.336-1.442 2.333.858 2.376-1.774 4.748 4.834 2.374-3.353 2.413-.585 2.374 2.73 2.376-.098 2.372 1.91 2.374 1.307 2.413-4.094 2.296-.752 2.295.46 2.376 2.173h0" style="fill:none;stroke:#9467bd;stroke-linecap:square;stroke-width:1.5" id="line2d_20"/><path clip-path="url(#p3e5435c743)" d="m60.012 313.628 2.373-.302 2.374.01 2.413.292h6.966l2.374-.585 2.374.585 2.374-.292 2.413.292 2.374-.302h4.748l2.375-.575 4.709.553 2.294-.26 2.376-.927 2.374 1.219 2.374.292 2.374-.585 2.413-.292 2.374-1.54 2.376 1.54 2.372-.936 2.374.644 2.413-.878 2.335-.14 2.334-1.614 2.376 1.686 2.374-.517 2.374 1.424 2.374-.254 2.413-1.17 2.374-.087 2.376 2.427 2.372-.916 2.374-1.131 2.413-1.462 2.296 2.182 2.295-.428 2.375-.068 2.375-.517 2.374 1.121 2.374.342 2.413-.585 2.374-1.268 2.375-.78 2.373-.428 2.374-.156 2.413 1.462 2.296-.637 2.295-1.118 2.375 2.262 2.374-1.677 2.374.166 2.374.712 2.413 1.462 2.374-1.268 2.376-1.657 2.373-.156 2.374 2.203 2.413-2.047 2.296 1.765 2.294-1.765 2.376 1.657 2.374-.487 2.374.79 2.374.087 2.413-2.632 2.374 2.242 2.376-1.364 2.372 1.364 2.374-2.534 2.413.585 2.336-2.844 2.333 2.844 2.376.439 4.748.302 2.374-.741 2.413.585 2.374-.449 2.376 1.034 2.372 1.686 2.374.068 2.413-3.509 2.296 1.024 2.295-.147 2.376-.76 2.374 1.345 2.374-2.554 2.374 2.554 2.413-1.17 4.75 1.463 2.372 1.384 2.374-1.677 2.413-1.462 2.296.376 2.295-.084 2.375 2.242 2.374.39 2.374-1.296 2.375-1.043 2.412.585 2.375.76 2.375-.468 2.373.468 2.374-.76 2.413.877 2.296 1.89 2.294-2.182 2.376-1.638 2.374.175 2.374 3.149 2.374-1.394 2.413-.585 2.374.468 2.376.117 2.372-2.232 2.375 1.647 2.412-2.632 2.336 1.412 2.333-3.166 2.376-1.19 2.374 1.482 2.374 3.353 2.374.741 2.413-.292 2.374.156 2.376.429 2.372 1.082 4.787-2.837 2.296-.595 2.295-1.16 2.376 1.57h0" style="fill:none;stroke:#d62728;stroke-linecap:square;stroke-width:1.5" id="line2d_21"/><g style="fill:#1f77b4" transform="matrix(.14 0 0 -.14 390.462 114.14)" id="text_13"><defs><path d="M391 3347h562V1125q0-369 167-552 168-182 480-182 434 0 678 307 244 308 244 805v1844h562V0h-531v488l-12 12Q2222-97 1478-97q-481 0-784 262-303 263-303 776v2406z" id="HelveticaWorld-Regular-75" transform="scale(.01563)"/><path d="M2778 1684q0 672-238 963-237 291-677 291-447-7-676-349-228-342-228-989 0-659 275-934t641-275q416 0 659 342 244 342 244 951zM422 0v4594h562V2925h13q359 519 969 519 625 0 1009-464t384-1208q0-838-388-1354Q2584-97 1888-97q-613 0-922 513h-13V0H422z" id="HelveticaWorld-Regular-62" transform="scale(.01563)"/><path d="M3150 0h-566v2059q0 475-166 677-165 202-549 202-378 0-632-288-253-287-253-825V0H422v3347h531v-472h13q397 569 1012 569 569 0 870-302 302-301 302-864V0z" id="HelveticaWorld-Regular-6e" transform="scale(.01563)"/><path d="M1100 2881V703q0-128 70-195 71-67 252-67h216V0q-307-44-422-44-353 0-516 169-162 169-162 547v2209H84v466h454v934h562v-934h538v-466h-538z" id="HelveticaWorld-Regular-74" transform="scale(.01563)"/></defs><use xlink:href="#HelveticaWorld-Regular-75"/><use x="54.785" xlink:href="#HelveticaWorld-Regular-62"/><use x="111.279" xlink:href="#HelveticaWorld-Regular-75"/><use x="166.064" xlink:href="#HelveticaWorld-Regular-6e"/><use x="221.24" xlink:href="#HelveticaWorld-Regular-74"/><use x="248.926" xlink:href="#HelveticaWorld-Regular-75"/></g><g style="fill:#ff7f0e" transform="matrix(.14 0 0 -.14 390.462 279.715)" id="text_14"><defs><path d="M838 1684q0-621 246-957 247-336 657-336 390 0 652 287 263 288 263 838 0 706-224 1064-223 358-679 358-434 0-675-285-240-284-240-969zM3225 0h-531v459h-13Q2363-97 1716-97q-697 0-1079 531-381 532-381 1338 0 744 378 1208 379 464 1016 464 628 0 1000-569l13 38v1681h562V0z" id="HelveticaWorld-Regular-64" transform="scale(.01563)"/><path d="M2719 1941q-44 543-288 770-243 227-647 227-409 0-661-288-251-287-267-709h1863zm537-891q-93-519-509-859-366-288-963-294-703 6-1116 461-412 455-412 1223 0 882 425 1372 425 491 1182 491 678 0 1059-507 381-506 381-1446H856q0-525 244-813 244-287 731-287 344 0 591 207 247 208 272 452h562z" id="HelveticaWorld-Regular-65" transform="scale(.01563)"/><path d="M422 3956v638h562v-638H422zM984 0H422v3347h562V0z" id="HelveticaWorld-Regular-69" transform="scale(.01563)"/><path d="M2456 1709q-62-65-245-106-183-40-683-106-369-44-542-182-173-137-173-362 0-275 146-428 147-153 469-153 403 0 715 229 313 230 313 558v550zM397 2328q19 566 367 841 349 275 1014 275 531 0 890-241 360-240 360-694V581q0-197 178-197 72 0 185 25V0q-153-63-319-63-288 0-429 123-140 124-146 387Q2016-97 1288-97q-475 0-763 269-287 269-287 700 0 441 250 712 250 272 728 329l993 121q269 41 269 397 0 263-195 403-195 141-592 141-353 0-543-156-189-156-226-491H397z" id="HelveticaWorld-Regular-61" transform="scale(.01563)"/></defs><use xlink:href="#HelveticaWorld-Regular-64"/><use x="56.982" xlink:href="#HelveticaWorld-Regular-65"/><use x="112.402" xlink:href="#HelveticaWorld-Regular-62"/><use x="168.896" xlink:href="#HelveticaWorld-Regular-69"/><use x="190.918" xlink:href="#HelveticaWorld-Regular-61"/><use x="245.85" xlink:href="#HelveticaWorld-Regular-6e"/></g><g style="fill:#2ca02c" transform="matrix(.14 0 0 -.14 390.462 293.715)" id="text_15"><defs><path d="M984 0H422v3347h531v-556h13q365 653 940 653 91 0 147-19v-584h-209q-378 0-619-257-241-256-241-637V0z" id="HelveticaWorld-Regular-72" transform="scale(.01563)"/><path d="M3150 0h-566v2188q0 403-156 576-156 174-509 174-435 0-685-282-250-281-250-831V0H422v4594h562V2900h13q384 544 981 544 550 0 861-288 311-287 311-878V0z" id="HelveticaWorld-Regular-68" transform="scale(.01563)"/></defs><use xlink:href="#HelveticaWorld-Regular-72"/><use x="31.568" xlink:href="#HelveticaWorld-Regular-65"/><use x="86.988" xlink:href="#HelveticaWorld-Regular-64"/><use x="143.971" xlink:href="#HelveticaWorld-Regular-68"/><use x="199.146" xlink:href="#HelveticaWorld-Regular-61"/><use x="254.078" xlink:href="#HelveticaWorld-Regular-74"/></g><g style="fill:#d62728" transform="matrix(.14 0 0 -.14 390.462 307.715)" id="text_16"><defs><path d="M2534 2222q-121 716-793 716-416 0-669-333t-253-927q0-647 234-967 235-320 681-320 300 0 519 220t281 573h544q-84-621-439-951T1722-97q-659 0-1081 451-422 452-422 1227 0 850 422 1356 422 507 1184 507 556 0 886-333t367-889h-544z" id="HelveticaWorld-Regular-63" transform="scale(.01563)"/><path d="M984 0H422v4594h562V0z" id="HelveticaWorld-Regular-6c" transform="scale(.01563)"/><path d="M3138 0h-725l-825 1259L781 0H72l1169 1722L128 3347h716l775-1178 781 1178h684L1959 1722 3138 0z" id="HelveticaWorld-Regular-78" transform="scale(.01563)"/></defs><use xlink:href="#HelveticaWorld-Regular-61"/><use x="54.932" xlink:href="#HelveticaWorld-Regular-72"/><use x="86.5" xlink:href="#HelveticaWorld-Regular-63"/><use x="137.77" xlink:href="#HelveticaWorld-Regular-68"/><use x="192.945" xlink:href="#HelveticaWorld-Regular-6c"/><use x="214.967" xlink:href="#HelveticaWorld-Regular-69"/><use x="236.988" xlink:href="#HelveticaWorld-Regular-6e"/><use x="292.164" xlink:href="#HelveticaWorld-Regular-75"/><use x="346.949" xlink:href="#HelveticaWorld-Regular-78"/></g><g style="fill:#9467bd" transform="matrix(.14 0 0 -.14 390.462 321.715)" id="text_17"><defs><path d="M422 3347h531v-472h13q378 569 1012 569 628 0 891-544 240 294 465 419t557 125q434 0 735-285 302-284 302-843V0h-562v2163q0 390-147 582-147 193-475 193-331 0-560-269-228-269-228-628V0h-562v2316q0 290-135 456-134 166-390 166-403 0-644-300t-241-813V0H422v3347z" id="HelveticaWorld-Regular-6d" transform="scale(.01563)"/></defs><use xlink:href="#HelveticaWorld-Regular-6d"/><use x="83.008" xlink:href="#HelveticaWorld-Regular-69"/><use x="105.029" xlink:href="#HelveticaWorld-Regular-6e"/><use x="160.205" xlink:href="#HelveticaWorld-Regular-74"/></g><g style="fill:#8c564b" transform="matrix(.14 0 0 -.14 390.462 335.715)" id="text_18"><defs><path d="M1100 2881V0H538v2881H78v466h460v575q0 378 229 557 230 180 642 180 141 0 254-12v-506q-100 12-229 12-187 0-261-92-73-92-73-298v-416h563v-466h-563z" id="HelveticaWorld-Regular-66" transform="scale(.01563)"/><path d="M813 1678q0-559 253-920t718-361q482 0 732 378t250 903q0 531-250 901-250 371-732 371-446 0-709-349-262-348-262-923zm-575 0q0 747 415 1256 416 510 1131 510 732 0 1144-516 413-515 413-1250 0-737-410-1256Q2522-97 1784-97q-709 0-1128 503-418 503-418 1272z" id="HelveticaWorld-Regular-6f" transform="scale(.01563)"/></defs><use xlink:href="#HelveticaWorld-Regular-66"/><use x="25.686" xlink:href="#HelveticaWorld-Regular-65"/><use x="81.105" xlink:href="#HelveticaWorld-Regular-64"/><use x="138.088" xlink:href="#HelveticaWorld-Regular-6f"/><use x="193.996" xlink:href="#HelveticaWorld-Regular-72"/><use x="225.564" xlink:href="#HelveticaWorld-Regular-61"/></g><g style="fill:#969696" transform="matrix(.09716 0 0 -.09716 29.77 347.399)" id="text_19"><defs><path d="M3225 3250q-19 438-327 686-307 248-810 248-507 0-779-208-271-207-271-598 0-209 118-359 119-150 425-222l1313-300q531-116 787-440 257-323 257-788 0-681-500-1036T2138-122q-610 0-962 156-351 157-623 497-272 341-272 953h582q0-512 340-794 341-281 928-281 569 0 886 202t317 573q0 338-189 505t-739 295l-990 232q-494 112-738 392t-244 689q0 619 417 1019 418 400 1165 400 843 0 1301-352 458-351 492-1114h-584z" id="HelveticaWorld-Regular-53" transform="scale(.01563)"/><path d="M3200 0h-722L1434 1691l-468-422V0H422v4594h544V1931l1440 1416h716L1844 2100 3200 0z" id="HelveticaWorld-Regular-6b" transform="scale(.01563)"/><path d="M4091 2297q0 806-427 1337-426 532-1173 532-738 0-1169-532-431-531-431-1337 0-831 437-1350 438-519 1163-519 709 0 1154 506 446 507 446 1363zm637 0q0-1028-594-1724-593-695-1643-695-1057 0-1649 695-592 696-592 1724 0 1031 592 1725t1649 694q1081 0 1659-707 578-706 578-1712z" id="HelveticaWorld-Regular-4f" transform="scale(.01563)"/><path d="M2522 3347h616L1863 0h-604L38 3347h653l872-2725h12l947 2725z" id="HelveticaWorld-Regular-76" transform="scale(.01563)"/><path d="M1638 0h-575L97 3347h606l641-2631h12l647 2631h635l653-2631h12l678 2631h557L3572 0h-591l-678 2591h-12L1638 0z" id="HelveticaWorld-Regular-77" transform="scale(.01563)"/><path d="m2816 1888-678 2021h-13l-737-2021h1428zm-1619-550L716 0H78l1728 4594h703L4172 0h-678l-453 1338H1197z" id="HelveticaWorld-Regular-41" transform="scale(.01563)"/><path d="M1141 2472h1234q466 0 700 204 234 205 234 621 0 372-225 569t-684 197H1141V2472zm0-2472H519v4594h2065q616 0 991-358t375-933q0-597-363-980-362-382-1003-382H1141V0z" id="HelveticaWorld-Regular-50" transform="scale(.01563)"/><path d="M1141 0H519v4594h622V0z" id="HelveticaWorld-Regular-49" transform="scale(.01563)"/><path d="M2309 2394q-12 300-214 431-201 131-579 131-275 0-471-122-195-121-195-350 0-181 115-267 116-86 501-183l556-140q506-128 723-327 218-198 218-554 0-494-361-802T1638-97Q934-97 573 195q-360 293-367 880h544q13-347 230-516 217-168 651-168 353 0 561 140 208 141 208 391 0 178-135 284-134 107-531 197l-653 160q-397 100-586 298t-189 514q0 494 353 781 354 288 922 288 607 0 930-296 323-295 342-754h-544z" id="HelveticaWorld-Regular-73" transform="scale(.01563)"/><path d="M831 1684q0-615 244-954t659-339q404 0 660 293 256 294 256 832 0 706-224 1064-223 358-679 358-459 0-688-305-228-305-228-949zM3188 191q0-807-388-1203-387-397-1169-397-562 0-895 259T353-409h563q43-244 226-388t530-144q472 0 712 254 241 253 241 821v238h-12Q2297-97 1722-97q-716 0-1094 528T250 1772q0 744 381 1208 382 464 1013 464 634 0 1000-569h12v472h532V191z" id="HelveticaWorld-Regular-67" transform="scale(.01563)"/><path d="M603 4716h466V-122H603v4838z" id="HelveticaWorld-Regular-7c" transform="scale(.01563)"/><path d="M3559 4594h600V0h-690L1125 3713h-12V0H519v4594h728L3547 884h12v3710z" id="HelveticaWorld-Regular-4e" transform="scale(.01563)"/><path d="M813 1678q0-559 253-920t718-361q482 0 732 378t250 903q0 531-250 901-250 371-732 371-446 0-709-349-262-348-262-923zm-575 0q0 747 415 1256 416 510 1131 510 732 0 1144-516 413-515 413-1250 0-737-410-1256Q2522-97 1784-97q-709 0-1128 503-418 503-418 1272zm2351 2266h-575v650h575v-650zm-1038 0H976v650h575v-650z" id="HelveticaWorld-Regular-f6" transform="scale(.01563)"/><path d="M3713 3213q-104 468-434 710-329 243-854 243-678 0-1091-493-412-492-412-1329 0-969 390-1443 391-473 1132-473 487 0 838 323 352 324 474 940h603q-121-885-671-1349T2350-122q-941 0-1505 647T281 2322q0 1109 589 1751 589 643 1555 643 800 0 1297-413 497-412 591-1090h-600z" id="HelveticaWorld-Regular-43" transform="scale(.01563)"/><path d="M519 4594h2015q594 0 947-322t353-834q0-310-155-565-154-254-460-395 428-162 629-431 202-269 202-691 0-593-428-975Q3194 0 2491 0H519v4594zm612-4063h1325q488 0 731 226 244 227 244 612 0 390-272 582-271 193-803 193H1131V531zm0 2119h1128q494 0 724 179 230 180 230 562 0 328-218 500-217 172-729 172H1131V2650z" id="HelveticaWorld-Regular-42" transform="scale(.01563)"/><path d="M2388 0h-622v1850L31 4594h725l1319-2206 1316 2206h731L2388 1850V0z" id="HelveticaWorld-Regular-59" transform="scale(.01563)"/></defs><use xlink:href="#HelveticaWorld-Regular-53"/><use x="66.211" xlink:href="#HelveticaWorld-Regular-74"/><use x="93.896" xlink:href="#HelveticaWorld-Regular-61"/><use x="148.828" xlink:href="#HelveticaWorld-Regular-63"/><use x="200.098" xlink:href="#HelveticaWorld-Regular-6b"/><use x="250.098" xlink:href="#HelveticaWorld-Regular-4f"/><use x="327.881" xlink:href="#HelveticaWorld-Regular-76"/><use x="375.49" xlink:href="#HelveticaWorld-Regular-65"/><use x="430.91" xlink:href="#HelveticaWorld-Regular-72"/><use x="464.979" xlink:href="#HelveticaWorld-Regular-66"/><use x="492.664" xlink:href="#HelveticaWorld-Regular-6c"/><use x="514.686" xlink:href="#HelveticaWorld-Regular-6f"/><use x="569.094" xlink:href="#HelveticaWorld-Regular-77"/><use x="641.506" xlink:href="#HelveticaWorld-Regular-20"/><use x="665.92" xlink:href="#HelveticaWorld-Regular-41"/><use x="732.619" xlink:href="#HelveticaWorld-Regular-50"/><use x="797.268" xlink:href="#HelveticaWorld-Regular-49"/><use x="823.049" xlink:href="#HelveticaWorld-Regular-20"/><use x="847.463" xlink:href="#HelveticaWorld-Regular-76"/><use x="897.072" xlink:href="#HelveticaWorld-Regular-69"/><use x="919.094" xlink:href="#HelveticaWorld-Regular-61"/><use x="974.025" xlink:href="#HelveticaWorld-Regular-20"/><use x="998.439" xlink:href="#HelveticaWorld-Regular-73"/><use x="1048.439" xlink:href="#HelveticaWorld-Regular-74"/><use x="1076.125" xlink:href="#HelveticaWorld-Regular-61"/><use x="1131.057" xlink:href="#HelveticaWorld-Regular-63"/><use x="1182.326" xlink:href="#HelveticaWorld-Regular-6b"/><use x="1232.326" xlink:href="#HelveticaWorld-Regular-74"/><use x="1260.012" xlink:href="#HelveticaWorld-Regular-61"/><use x="1314.943" xlink:href="#HelveticaWorld-Regular-67"/><use x="1370.852" xlink:href="#HelveticaWorld-Regular-73"/><use x="1420.852" xlink:href="#HelveticaWorld-Regular-20"/><use x="1445.266" xlink:href="#HelveticaWorld-Regular-7c"/><use x="1471.242" xlink:href="#HelveticaWorld-Regular-20"/><use x="1495.656" xlink:href="#HelveticaWorld-Regular-4e"/><use x="1568.752" xlink:href="#HelveticaWorld-Regular-69"/><use x="1590.773" xlink:href="#HelveticaWorld-Regular-63"/><use x="1642.043" xlink:href="#HelveticaWorld-Regular-6f"/><use x="1697.951" xlink:href="#HelveticaWorld-Regular-20"/><use x="1722.365" xlink:href="#HelveticaWorld-Regular-53"/><use x="1788.576" xlink:href="#HelveticaWorld-Regular-63"/><use x="1839.846" xlink:href="#HelveticaWorld-Regular-68"/><use x="1895.021" xlink:href="#HelveticaWorld-Regular-6c"/><use x="1917.043" xlink:href="#HelveticaWorld-Regular-f6"/><use x="1972.951" xlink:href="#HelveticaWorld-Regular-6d"/><use x="2055.959" xlink:href="#HelveticaWorld-Regular-65"/><use x="2111.379" xlink:href="#HelveticaWorld-Regular-72"/><use x="2143.947" xlink:href="#HelveticaWorld-Regular-20"/><use x="2168.361" xlink:href="#HelveticaWorld-Regular-7c"/><use x="2194.338" xlink:href="#HelveticaWorld-Regular-20"/><use x="2218.752" xlink:href="#HelveticaWorld-Regular-43"/><use x="2291.066" xlink:href="#HelveticaWorld-Regular-43"/><use x="2363.381" xlink:href="#HelveticaWorld-Regular-20"/><use x="2387.795" xlink:href="#HelveticaWorld-Regular-42"/><use x="2450.607" xlink:href="#HelveticaWorld-Regular-59"/></g><g style="fill:#969696" transform="matrix(.14 0 0 -.14 72.264 17.516)" id="text_20"><defs><path d="M1141 531h1203q625 0 978 480t353 1311q0 822-356 1278t-1028 463H1141V531zM519 4594h1862q903 0 1414-621 511-620 511-1610 0-1063-511-1713T2356 0H519v4594z" id="HelveticaWorld-Regular-44" transform="scale(.01563)"/><path d="M2497 3347h612L1913 63q-32-88-63-166-272-725-469-995-197-271-637-271-231 0-378 50v513q159-57 350-57 206 0 301 130 96 130 283 636L56 3347h635l897-2725h12l897 2725z" id="HelveticaWorld-Regular-79" transform="scale(.01563)"/><path d="M2656 1516q0 712-224 1067-223 355-679 355-440 0-678-288-237-287-237-966 0-603 240-948 241-345 663-345 372 0 643 281 272 281 272 844zm538-2841h-563V353h-12Q2297-97 1728-97q-703 0-1088 522-384 522-384 1347 0 731 378 1201 379 471 1016 471 634 0 1000-569h13v472h531v-4672z" id="HelveticaWorld-Regular-71" transform="scale(.01563)"/></defs><use xlink:href="#HelveticaWorld-Regular-44"/><use x="72.021" xlink:href="#HelveticaWorld-Regular-61"/><use x="126.953" xlink:href="#HelveticaWorld-Regular-69"/><use x="148.975" xlink:href="#HelveticaWorld-Regular-6c"/><use x="170.996" xlink:href="#HelveticaWorld-Regular-79"/><use x="220.605" xlink:href="#HelveticaWorld-Regular-20"/><use x="245.02" xlink:href="#HelveticaWorld-Regular-6e"/><use x="300.195" xlink:href="#HelveticaWorld-Regular-75"/><use x="354.98" xlink:href="#HelveticaWorld-Regular-6d"/><use x="437.988" xlink:href="#HelveticaWorld-Regular-62"/><use x="494.482" xlink:href="#HelveticaWorld-Regular-65"/><use x="549.902" xlink:href="#HelveticaWorld-Regular-72"/><use x="582.471" xlink:href="#HelveticaWorld-Regular-20"/><use x="606.885" xlink:href="#HelveticaWorld-Regular-6f"/><use x="662.793" xlink:href="#HelveticaWorld-Regular-66"/><use x="690.479" xlink:href="#HelveticaWorld-Regular-20"/><use x="714.893" xlink:href="#HelveticaWorld-Regular-71"/><use x="771.387" xlink:href="#HelveticaWorld-Regular-75"/><use x="826.172" xlink:href="#HelveticaWorld-Regular-65"/><use x="881.592" xlink:href="#HelveticaWorld-Regular-73"/><use x="931.592" xlink:href="#HelveticaWorld-Regular-74"/><use x="959.277" xlink:href="#HelveticaWorld-Regular-69"/><use x="981.299" xlink:href="#HelveticaWorld-Regular-6f"/><use x="1037.207" xlink:href="#HelveticaWorld-Regular-6e"/><use x="1092.383" xlink:href="#HelveticaWorld-Regular-73"/><use x="1142.383" xlink:href="#HelveticaWorld-Regular-20"/><use x="1166.797" xlink:href="#HelveticaWorld-Regular-6f"/><use x="1222.705" xlink:href="#HelveticaWorld-Regular-6e"/><use x="1277.881" xlink:href="#HelveticaWorld-Regular-20"/><use x="1302.295" xlink:href="#HelveticaWorld-Regular-53"/><use x="1368.506" xlink:href="#HelveticaWorld-Regular-74"/><use x="1396.191" xlink:href="#HelveticaWorld-Regular-61"/><use x="1451.123" xlink:href="#HelveticaWorld-Regular-63"/><use x="1502.393" xlink:href="#HelveticaWorld-Regular-6b"/><use x="1552.393" xlink:href="#HelveticaWorld-Regular-4f"/><use x="1630.176" xlink:href="#HelveticaWorld-Regular-76"/><use x="1677.785" xlink:href="#HelveticaWorld-Regular-65"/><use x="1733.205" xlink:href="#HelveticaWorld-Regular-72"/><use x="1767.273" xlink:href="#HelveticaWorld-Regular-66"/><use x="1794.959" xlink:href="#HelveticaWorld-Regular-6c"/><use x="1816.98" xlink:href="#HelveticaWorld-Regular-6f"/><use x="1871.389" xlink:href="#HelveticaWorld-Regular-77"/></g><path clip-path="url(#p3e5435c743)" d="m29.77 308.529 1.831 4.514 2.373.283 2.374-.283h2.413l2.296-1.034 2.295.45h4.75l2.373.263 2.375-.556 2.413 1.17 2.374-.312 2.375.02 2.373-.927 4.787.634 2.296-.094 2.295-1.66 2.375 1.423 2.374.623 2.374-.321 2.374-.848 2.413.292 2.374-1.257 2.376.38 2.372-.078 2.375-.507 2.413 1.462 2.296-1.128 2.294-.919 2.376 1.998 2.374-.536 2.374-.068 2.374.068 2.413-.292 2.374-1.287 2.376-.175 2.372-1.336 2.374 2.213 2.413-1.755 2.335-1.26 2.334 1.553 2.376 2.271 2.374-2.271 2.374.76 2.374.117 2.413-4.386 2.374 4.571 2.376-3.402 2.372-.224 2.374 1.102 2.413-.293 2.296 1.285 2.295-2.455 2.375-.243 2.375 1.413 2.374-1.715 2.374 1.13 2.413.878 2.374-2.008 2.375 1.423 2.373-2.33 2.374 1.745 2.413-1.17 2.296-2.172 2.295 3.634 2.375-5.059 2.374 5.644 2.374-2.622 2.374-.887 2.413 1.462 2.374-3.899 2.376 6.531 2.373-3.51 2.374 2.925 2.413-4.094 2.296-2.068 2.294 2.36 2.376-1.842 2.374.088 2.374 1.423 2.374-4.055 2.413 5.264 2.374 1.209 2.376-1.794 2.372.283 2.374.01 2.413-1.755 2.336-.454 2.333 5.133 2.376-5.352 2.374-1.374 2.374.77 2.374-1.063h2.413l2.374 2.574 2.376 3.275 2.372-2.369 2.374.907 2.413-1.462 2.296 1.138 2.295 2.37 2.376.07 2.374-3.578 2.374.555 2.374-2.895 2.413 2.34 2.374-2.769 4.748 3.324 2.374 1.784 2.413 1.17 2.296-1.4 2.295-.94 2.375.293 2.374-.293 2.374-.01 2.375 1.473 2.412-5.557 4.75 4.68 2.373-.897 2.374 3.528 2.413-4.094 2.296.522 2.294.648 2.376-.907 2.374-.263 2.374-5.478 2.374 3.431 2.413 1.462 2.374-1.871 2.376-.76 2.372-.147 2.375 3.363 2.412-3.509 2.336.303 2.333-8.491 2.376 9.845 2.374-1.365 2.374-3.168 2.374 3.753 2.413-.877 2.374.75 2.376 5.391 2.372-3.577 2.374 2.992 2.413-2.632 2.296-1.806 2.295.929 2.376 3.538h0" style="fill:none;stroke:#2ca02c;stroke-linecap:square;stroke-width:1.5" id="line2d_22"/><path clip-path="url(#p3e5435c743)" d="m29.77 309.096 1.831 3.07 2.373-.35 2.374.058 2.413.292 2.296-1.452 2.295-.01 2.375-.4 2.374.4 2.374-.098 2.375-.487 2.413-1.17 2.374 2.564 2.375-1.101 2.373-1.316 2.374 3.363 2.413-3.51 2.296 1.765 2.295-2.35 2.375 1.638 2.374.41 2.374-2.827 2.374.487 2.413-1.17 2.374 1.287 2.376.468 2.372-1.072 2.375.78 2.413-3.802h2.296l2.294.292 2.376.917 2.374-1.502 2.374 1.502 2.374 1.715 2.413-6.726 2.374 2.895 2.376 2.37 2.372-3.88 2.374-.8 2.413 2.924 2.335-4.396 2.334-1.16 4.75-.292 2.374-4.435 2.374 4.435 4.787.097 2.376-3.314 2.372.293 2.374 3.509 2.413-6.141 2.296-5.139 2.295 4.554 2.375 2.31 2.375-1.433 2.374-1.287 2.374-.76 2.413-1.17 2.374.722 2.375 1.618 2.373-7.058 2.374 9.69 2.413-10.528 2.296-.867 2.295-5.274 2.375.332 2.374 8.441 2.374-1.19 2.374 4.407 2.413 3.217 2.374-1.58 2.376-5.731 2.373.594 2.374 2.915 2.413-3.217 2.296-3.561 2.294 3.269 2.376-7.867 2.374 5.527 2.374-7.038 2.374 9.963 2.413-1.463 2.374 1.775 2.376-1.19 2.372-.02 2.374 3.237 2.413-6.433 2.336.988 2.333 1.643 2.376-5.176 2.374 2.837 2.374-.117 2.374 5.966 2.413 3.509 2.374 1.101 2.376-8.412 2.372-3.977 2.374 8.363 2.413 2.632 2.296-3.29 2.295-.219 2.376-1.14 2.374 2.602 2.374 1.326 2.374-1.033 2.413-2.34 2.374 1.56 2.375 4.874 2.373-5.478 2.374 3.43 2.413-.292 2.296.92 2.295-2.674 2.375 2.846 2.374.078 2.374.224 2.375-.809 2.412-.585 2.375 5.323 2.375-4.738 2.373.507 2.374 2.71 2.413-.292 2.296-4.533 2.294-3.948 2.376 6.667 2.374.351 2.374 5.995 2.374-16.23 2.413 9.066 2.374.214 2.376-8.695 2.372-2.788 2.375 7.76 2.412-7.604 2.336 1.866 2.333-9.761 2.376 2.602 2.374-.848 2.374.848 2.374 13.774 2.413-1.755 2.374 1.58 4.748-5.44 2.374 6.2 2.413-10.528 2.296 2.58 2.295-1.703 2.376 8.588h0" style="fill:none;stroke:#ff7f0e;stroke-linecap:square;stroke-width:1.5" id="line2d_23"/><path clip-path="url(#p3e5435c743)" d="m29.77 302.297 1.831 6.652 2.373.75 2.374 1.882 2.413-.877 2.296-1.608 2.295-2.486 2.375 3.09 2.374-4.26 2.374 1.54 2.375-3.88 2.413-1.169 2.374.819 2.375-2.866 2.373-4.99 2.374 5.867 2.413-3.509 2.296.512 2.295-3.436 2.375 1.17 2.374-6.434 2.374-3.84 2.374 1.208 2.413-2.047 2.374-3.09L88.423 280l2.372 3.411 2.375-9.26 2.413-3.51 2.296-6.871 4.67-5.137 2.374.897 2.374 3.031 2.374-3.616 2.413-7.896 2.374 11.512 2.376-12.097 2.372-9.358 2.374 10.528 2.413-13.452 2.335-15.206 2.334 5.556 2.376-5.254 2.374-.01 2.374-19.33 2.374 19.623 2.413 7.018 2.374-1.862 2.376-1.355 2.372-18.89 2.374 18.89 4.71-26.078 2.294 8.24 2.375-5.888 2.375 1.501 2.374 13.608 2.374-36.417 2.413 17.546 2.374-11.951 2.375-32.791 2.373 9.523 2.374 13.871 2.413-31.875 2.296-11.739 2.295 3.259 2.375 6.843 2.374 21.23 2.374 12.311 2.374-6.17 2.413 7.019 2.374-4.172 2.376 1.247 2.373 6.005 2.374.136 2.413-12.867 2.296-17.034 2.294 5.337 2.376-3.07 2.374-1.901 2.374-6.863 2.374-2.495 2.413 16.376 2.374 8.178 2.376-18.12 2.372 3.011 2.374 13.657 2.413-23.102 2.336.787 2.333 6.524 2.376-20.529 2.374-1.111 2.374 19.846 2.374-5.517 2.413 18.423 2.374 6.434h2.376l2.372-6.648 2.374 4.308 2.413-4.971 2.296-25.066 2.295 6.935 2.376.965 2.374-5.059 2.374 22.585 2.374-14.104 2.413 14.621 2.374-10.79 2.375 8.158 2.373 1.209 2.374 43.826 2.413-34.8 2.296 20.523 2.295-4.731 2.375 2.982 2.374-.643 2.374 10.615 2.375-15.879 2.412-22.517 2.375 13.315 2.375-20.04 2.373 29.408 2.374 20.012 2.413-4.679 2.296-8.167 2.294-25.462 2.376 27.664 2.374-11.58 2.374 17.019 2.374-33.688 2.413 30.412 2.374-29.36 2.376-27.371 2.372.175 2.375 30.823 2.412-30.706 2.336-7.431 2.333-33.509 2.376-27.771 2.374-21.65 2.374 14.398 2.374 32.684 2.413 29.535 2.374 22.088 2.376 13.296 2.372-9.67 2.374 24.584 2.413-80.126 2.296 6.611 2.295.7 2.376 8.948h0" style="fill:none;stroke:#1f77b4;stroke-linecap:square;stroke-width:1.5" id="line2d_24"/></g></g><defs><clipPath id="p3e5435c743"><path d="M29.771 47.516h357.12v266.112H29.771z"/></clipPath></defs></svg>