<svg height="443.234" viewBox="0 0 490.121 332.425" width="653.495" xmlns="http://www.w3.org/2000/svg" xmlns:xlink="http://www.w3.org/1999/xlink"><defs><style>*{stroke-linecap:butt;stroke-linejoin:round}</style></defs><g id="figure_1"><path d="M0 332.425h490.12V0H0z" fill="none" id="patch_1"/><g id="axes_1"><path d="M33.66 289.628h357.12V23.516H33.66z" fill="none" id="patch_2"/><path clip-path="url(#pbfcfe462ba)" d="M33.66 282.21l1.99-15.555 2.577 11.104 2.579 2.297 2.621-3.83 2.495 4.924 2.493.82 2.58-4.211 2.58-1.532 2.58-8.36 2.579-3.127 2.621 11.487 2.58 5.488 2.58-15.06 2.578 3.19 2.58-1.276 2.62 13.401 2.495-7.179 2.493 1.436 2.581 5.488 2.58.255 2.579-8.168 2.58-16.72 2.62 22.974 2.58-4.276 2.58-9.125 2.578 3.19 2.58 10.21 2.621-15.315 2.495 3.692 2.493 2.052 2.58-10.53 2.58 8.615 2.58 1.276 2.578-5.105 2.622 5.744 2.58 5.296 2.58-12.954 2.578 16.91 2.579-22.654 2.622 17.23 2.536-7.195 2.536 3.367 2.58-.639 2.58-1.276 2.58-2.68 2.578 8.423 2.622 3.83 2.58-4.34 2.58 6.254 2.578-8.232 2.579 4.403 2.621-17.23 2.495 9.435 2.493-3.692 2.581 11.04 2.58-5.296 2.579-2.617 2.579 2.617 2.621 5.743 2.58-.447 2.58-1.468 2.578 1.468 2.58-3.382 2.62 3.829 2.496-9.914 2.492 11.828 2.581-4.34 2.58.511 2.579 1.468 2.58-5.296 2.62 11.486 2.58-.255 2.581 4.084 2.577-10.019 2.58 2.361 2.621-7.657 2.495 8.546 2.493-4.718 2.58 7.403 2.58-3.574 2.58 1.596 2.579 2.233 2.621-7.658 2.58 3.447 2.58.382 2.578-.382 2.58-3.447h2.62l2.538 7.13 2.535 2.443 2.58-4.148 2.58-1.596 2.58-6.317 2.579-3.255 2.621 11.487 2.58-10.21 2.58 12.124 2.578 1.723 2.58-11.295 2.62 13.401 2.495 1.71 2.493-1.71 2.581-8.04 2.58 2.297 2.579 3.637 2.579 4.02 2.622-11.486 2.579 11.423 2.58.064 2.578-.064 2.58.064 2.621 1.914 2.495-8.478 2.493 8.478 2.58-3.956 5.16 3.956 2.578-9.572 2.622 3.829 2.58 1.787 5.158 3.956 2.579-5.743 2.621 3.829 2.495-2.325 2.493 2.325 2.581-9.955 2.58 4.211 2.579 3.702 2.579 2.042 2.621-3.83 2.58-2.169 2.58 2.17 2.578 3.765 2.58-5.68 2.62 3.83 2.538-.265 2.535.264 2.581-8.04h0" fill="none" stroke="#9467bd" stroke-linecap="square" stroke-width="1.5" id="line2d_1"/><g id="matplotlib.axis_1"><g id="xtick_1"><g id="line2d_2"><defs><path d="M0 0v3.5" id="m2a42654fc7" stroke="#969696" stroke-width=".8"/></defs><use x="72.983" xlink:href="#m2a42654fc7" y="289.628" fill="#969696" stroke="#969696" stroke-width=".8"/></g><g id="text_1"><defs><path d="M4.39 45.125q0 12.39 6.391 18.781 6.406 6.407 17.938 6.407 9.656 0 15.812-5.86 6.157-5.86 6.157-15.14 0-7.22-3.547-12.188-3.532-4.953-10.422-8.703l-12.11-6.64Q13.922 15.921 12.5 8.296h38.188V0H2.593q.39 9.906 4.297 16.5 3.906 6.594 12.203 11.375l12.593 7.328q5.032 2.89 7.329 5.984 2.297 3.094 2.297 8.516 0 5.375-3.766 9.031-3.75 3.672-10.156 3.672-7.078 0-10.594-4.672-3.516-4.656-3.61-12.609z" id="HelveticaWorld-Regular-50"/><path d="M42.484 34.188q0 14.109-3.734 21.156-3.734 7.062-10.969 7.062-7.078 0-10.89-7.062-3.797-7.047-3.797-21.157 0-13.671 3.75-20.937Q20.609 6 27.78 6q7.235 0 10.969 7 3.734 7.016 3.734 21.188zm9.422 0q0-17.297-6.25-26.704-6.25-9.39-17.875-9.39-12.062 0-18.062 9.734-6 9.75-6 26.36 0 17.03 6.14 26.578 6.157 9.547 17.922 9.547 11.625 0 17.875-9.5t6.25-26.626z" id="HelveticaWorld-Regular-48"/><path d="M35.89 0h-9.374v49.906H10.109v6.985q8.594.28 12.782 2.75Q27.094 62.109 29 70.313h6.89z" id="HelveticaWorld-Regular-49"/></defs><g transform="matrix(.14 0 0 -.14 57.412 306.678)" fill="#969696"><use xlink:href="#HelveticaWorld-Regular-50"/><use x="55.615" xlink:href="#HelveticaWorld-Regular-48"/><use x="111.23" xlink:href="#HelveticaWorld-Regular-49"/><use x="166.846" xlink:href="#HelveticaWorld-Regular-48"/></g></g></g><g id="xtick_2"><use x="134.716" xlink:href="#m2a42654fc7" y="289.628" fill="#969696" stroke="#969696" stroke-width=".8" id="line2d_3"/><g transform="matrix(.14 0 0 -.14 119.145 306.678)" fill="#969696" id="text_2"><use xlink:href="#HelveticaWorld-Regular-50"/><use x="55.615" xlink:href="#HelveticaWorld-Regular-48"/><use x="111.23" xlink:href="#HelveticaWorld-Regular-49"/><use x="166.846" xlink:href="#HelveticaWorld-Regular-50"/></g></g><g id="xtick_3"><use x="196.533" xlink:href="#m2a42654fc7" y="289.628" fill="#969696" stroke="#969696" stroke-width=".8" id="line2d_4"/><g id="text_3"><defs><path d="M10.594 24.703h22.61v31.89h-.188zM42 17.093V0h-8.797v17.094H2.484v8.593L34.72 70.314H42v-45.61h10.297v-7.61z" id="HelveticaWorld-Regular-52"/></defs><g transform="matrix(.14 0 0 -.14 180.962 306.678)" fill="#969696"><use xlink:href="#HelveticaWorld-Regular-50"/><use x="55.615" xlink:href="#HelveticaWorld-Regular-48"/><use x="111.23" xlink:href="#HelveticaWorld-Regular-49"/><use x="166.846" xlink:href="#HelveticaWorld-Regular-52"/></g></g></g><g id="xtick_4"><use x="258.266" xlink:href="#m2a42654fc7" y="289.628" fill="#969696" stroke="#969696" stroke-width=".8" id="line2d_5"/><g id="text_4"><defs><path d="M14.11 21.578q0-6.875 4.093-11.234Q22.313 6 28.906 6q6.297 0 10.032 4.438 3.734 4.453 3.734 11.687 0 6.297-3.688 10.547-3.687 4.25-10.468 4.25-6.594 0-10.5-4.156-3.907-4.157-3.907-11.188zM41.702 51.61q-.984 5.375-3.984 8.078-3 2.72-8.125 2.72-8.11 0-12.36-7.923-4.25-7.906-4.343-18.109l.203-.188q5.61 8.641 16.687 8.641 8.844 0 15.438-5.86 6.593-5.859 6.593-16.452 0-10.5-6.25-17.47-6.25-6.952-16.843-6.952-12.219 0-18.563 8.687-6.344 8.703-6.344 25.938 0 16.593 6.485 27.093 6.5 10.5 19.484 10.5 8.407 0 14.219-5.015 5.813-5 6.297-13.688z" id="HelveticaWorld-Regular-54"/></defs><g transform="matrix(.14 0 0 -.14 242.695 306.678)" fill="#969696"><use xlink:href="#HelveticaWorld-Regular-50"/><use x="55.615" xlink:href="#HelveticaWorld-Regular-48"/><use x="111.23" xlink:href="#HelveticaWorld-Regular-49"/><use x="166.846" xlink:href="#HelveticaWorld-Regular-54"/></g></g></g><g id="xtick_5"><use x="320.083" xlink:href="#m2a42654fc7" y="289.628" fill="#969696" stroke="#969696" stroke-width=".8" id="line2d_6"/><g id="text_5"><defs><path d="M27.594 40.578q5.422 0 8.953 3.094 3.547 3.11 3.547 8.234 0 4.594-3.407 7.547-3.39 2.953-9.687 2.953-5.61 0-8.672-3.11-3.047-3.093-3.047-7.874 0-5.125 3.813-7.984 3.812-2.86 8.5-2.86zm.093-7.562q-6.78 0-10.64-3.766-3.86-3.766-3.86-9.234 0-6.297 3.907-10.157Q21 6 28.219 6q6.406 0 10.234 3.86 3.828 3.859 3.828 10.265 0 5.469-3.828 9.172-3.828 3.719-10.766 3.719zM49.22 52.203q0-10.594-9.032-14.797 6.204-2.781 8.86-7.36 2.656-4.562 2.656-9.733 0-10.016-6.453-16.125-6.438-6.094-17.375-6.094-9.563 0-16.813 5.25-7.25 5.25-7.25 17.062 0 11.922 11.907 16.907-9.516 3.796-9.516 13.671 0 8.297 5.64 13.813 5.641 5.516 15.641 5.516 10.016 0 15.875-5.204 5.86-5.203 5.86-12.906z" id="HelveticaWorld-Regular-56"/></defs><g transform="matrix(.14 0 0 -.14 304.513 306.678)" fill="#969696"><use xlink:href="#HelveticaWorld-Regular-50"/><use x="55.615" xlink:href="#HelveticaWorld-Regular-48"/><use x="111.23" xlink:href="#HelveticaWorld-Regular-49"/><use x="166.846" xlink:href="#HelveticaWorld-Regular-56"/></g></g></g><g id="xtick_6"><use x="381.816" xlink:href="#m2a42654fc7" y="289.628" fill="#969696" stroke="#969696" stroke-width=".8" id="line2d_7"/><g transform="matrix(.14 0 0 -.14 366.245 306.678)" fill="#969696" id="text_6"><use xlink:href="#HelveticaWorld-Regular-50"/><use x="55.615" xlink:href="#HelveticaWorld-Regular-48"/><use x="111.23" xlink:href="#HelveticaWorld-Regular-50"/><use x="166.846" xlink:href="#HelveticaWorld-Regular-48"/></g></g></g><g id="matplotlib.axis_2"><g id="ytick_1"><path clip-path="url(#pbfcfe462ba)" d="M33.66 289.628h357.12" fill="none" stroke="#969696" stroke-linecap="square" stroke-width=".5" id="line2d_8"/><g id="text_7"><defs><path d="M19.094 0H8.687v10.594h10.407z" id="HelveticaWorld-Regular-46"/></defs><g transform="matrix(.14 0 0 -.14 7.2 294.653)" fill="#969696"><use xlink:href="#HelveticaWorld-Regular-48"/><use x="55.615" xlink:href="#HelveticaWorld-Regular-46"/><use x="83.398" xlink:href="#HelveticaWorld-Regular-48"/></g></g></g><g id="ytick_2"><path clip-path="url(#pbfcfe462ba)" d="M33.66 259.954h357.12" fill="none" stroke="#969696" stroke-linecap="square" stroke-width=".5" id="line2d_9"/><g id="text_8"><defs><path d="M14.703 40.922q5.813 4.39 13.625 4.39 9.469 0 16.281-6.296 6.813-6.297 6.813-16.22 0-10.78-6.578-17.796-6.563-7-18.422-7-10.313 0-16.266 5.047Q4.203 8.109 3.22 17.39h9.094q.671-5.672 4.437-8.672 3.766-3 10.453-3 6.485 0 10.64 4.484Q42 14.703 42 21.688q0 7.125-4.36 11.421-4.343 4.297-11.218 4.297-7.813 0-13.047-6.687l-7.563.39 5.266 37.594h36.438v-8.5H17.672z" id="HelveticaWorld-Regular-53"/></defs><g transform="matrix(.14 0 0 -.14 7.2 264.979)" fill="#969696"><use xlink:href="#HelveticaWorld-Regular-48"/><use x="55.615" xlink:href="#HelveticaWorld-Regular-46"/><use x="83.398" xlink:href="#HelveticaWorld-Regular-53"/></g></g></g><g id="ytick_3"><path clip-path="url(#pbfcfe462ba)" d="M33.66 230.28h357.12" fill="none" stroke="#969696" stroke-linecap="square" stroke-width=".5" id="line2d_10"/><g transform="matrix(.14 0 0 -.14 7.2 235.304)" fill="#969696" id="text_9"><use xlink:href="#HelveticaWorld-Regular-49"/><use x="55.615" xlink:href="#HelveticaWorld-Regular-46"/><use x="83.398" xlink:href="#HelveticaWorld-Regular-48"/></g></g><g id="ytick_4"><path clip-path="url(#pbfcfe462ba)" d="M33.66 200.605h357.12" fill="none" stroke="#969696" stroke-linecap="square" stroke-width=".5" id="line2d_11"/><g transform="matrix(.14 0 0 -.14 7.2 205.63)" fill="#969696" id="text_10"><use xlink:href="#HelveticaWorld-Regular-49"/><use x="55.615" xlink:href="#HelveticaWorld-Regular-46"/><use x="83.398" xlink:href="#HelveticaWorld-Regular-53"/></g></g><g id="ytick_5"><path clip-path="url(#pbfcfe462ba)" d="M33.66 170.93h357.12" fill="none" stroke="#969696" stroke-linecap="square" stroke-width=".5" id="line2d_12"/><g transform="matrix(.14 0 0 -.14 7.2 175.955)" fill="#969696" id="text_11"><use xlink:href="#HelveticaWorld-Regular-50"/><use x="55.615" xlink:href="#HelveticaWorld-Regular-46"/><use x="83.398" xlink:href="#HelveticaWorld-Regular-48"/></g></g><g id="ytick_6"><path clip-path="url(#pbfcfe462ba)" d="M33.66 141.256h357.12" fill="none" stroke="#969696" stroke-linecap="square" stroke-width=".5" id="line2d_13"/><g transform="matrix(.14 0 0 -.14 7.2 146.281)" fill="#969696" id="text_12"><use xlink:href="#HelveticaWorld-Regular-50"/><use x="55.615" xlink:href="#HelveticaWorld-Regular-46"/><use x="83.398" xlink:href="#HelveticaWorld-Regular-53"/></g></g><g id="ytick_7"><path clip-path="url(#pbfcfe462ba)" d="M33.66 111.582h357.12" fill="none" stroke="#969696" stroke-linecap="square" stroke-width=".5" id="line2d_14"/><g id="text_13"><defs><path d="M22.406 39.984q2.203-.187 4.594-.187 6.203 0 9.781 2.86 3.594 2.859 3.594 8.656 0 4.687-3.344 7.89-3.343 3.203-9.64 3.203-6.985 0-10.235-4.11-3.234-4.093-3.437-10.983h-8.64q0 10.984 5.765 16.984 5.765 6.016 16.937 6.016 9.922 0 15.828-5.11 5.907-5.094 5.907-13.39 0-10.704-9.032-14.5v-.204q11.72-4 11.72-16.406 0-9.906-6.595-16.265-6.593-6.344-18.703-6.344-9.906 0-16.312 5.203Q4.204 8.5 3.422 21.484H12.5q.203-8.109 4-11.797Q20.313 6 27.484 6q6.938 0 11.141 3.86 4.203 3.859 4.203 9.718 0 6.406-4.016 9.672-4 3.266-12.39 3.266-2 0-4.016-.094z" id="HelveticaWorld-Regular-51"/></defs><g transform="matrix(.14 0 0 -.14 7.2 116.607)" fill="#969696"><use xlink:href="#HelveticaWorld-Regular-51"/><use x="55.615" xlink:href="#HelveticaWorld-Regular-46"/><use x="83.398" xlink:href="#HelveticaWorld-Regular-48"/></g></g></g><g id="ytick_8"><path clip-path="url(#pbfcfe462ba)" d="M33.66 81.908h357.12" fill="none" stroke="#969696" stroke-linecap="square" stroke-width=".5" id="line2d_15"/><g transform="matrix(.14 0 0 -.14 7.2 86.932)" fill="#969696" id="text_14"><use xlink:href="#HelveticaWorld-Regular-51"/><use x="55.615" xlink:href="#HelveticaWorld-Regular-46"/><use x="83.398" xlink:href="#HelveticaWorld-Regular-53"/></g></g><g id="ytick_9"><path clip-path="url(#pbfcfe462ba)" d="M33.66 52.233h357.12" fill="none" stroke="#969696" stroke-linecap="square" stroke-width=".5" id="line2d_16"/><g transform="matrix(.14 0 0 -.14 7.2 57.258)" fill="#969696" id="text_15"><use xlink:href="#HelveticaWorld-Regular-52"/><use x="55.615" xlink:href="#HelveticaWorld-Regular-46"/><use x="83.398" xlink:href="#HelveticaWorld-Regular-48"/></g></g></g><path clip-path="url(#pbfcfe462ba)" d="M33.66 285.919l1.99 3.71h2.577l2.579-1.915 2.621 1.914h64.228l2.493-1.914 2.58-.064 2.58-7.594 2.58 7.594 2.578-7.594 2.622 7.658 2.58-.064 2.58-15.252 2.578 13.274 2.579-1.787 2.622 1.914 2.536-10.496 2.536 2.838 2.58-10.274 2.58 6.445 2.58-.51 2.578 6.254h2.622l2.58 1.66 2.58-3.575 2.578-4.34 2.579 2.426 2.621-11.487 2.495-17.504 2.493 11.76 2.581-2.999 2.58 3 2.579 12.827 2.579-7.084 2.621 1.915 2.58 5.169 2.58-7.084 2.578 3.127 2.58-3.127 2.62 1.915 2.496-13.06 2.492 9.23 2.581 10.977 2.58-12.89 2.579 12.89 2.58-10.976 2.62 9.572 2.58-8.488 2.581 6.574 2.577-8.552 2.58 12.38 2.621-1.914 2.495.273 2.493-23.247 2.58 10.53 2.58-6.7 2.58 2.743 2.579 4.914 2.621-1.914 2.58 6.892 2.58-12.636 2.578.766 2.58 3.063 2.62 3.83 2.538.065 2.535-17.296 2.58 8.36 2.58 14.614 5.159-17.23 2.621 11.486 2.58 8.934 2.58-3.19 2.578-6.701 2.58 18.187 2.62-3.829 2.495 2.599 2.493-19.829 2.581 10.785 2.58-3.127 2.579-8.743 2.579-14.23 2.622 24.888 2.579-2.745 2.58 8.488 2.578-26.292 2.58 26.292 2.621 1.914 2.495-18.597 2.493 9.025 2.58 1.149 2.58.766 2.58 11.104 2.578-14.933 2.622-9.573 2.58 10.657 2.58-12.571 2.578 12.571 2.579-1.084 2.621-1.915 2.495-7.316 2.493 5.402 2.581 4.913 2.58-2.999 2.579 14.87 2.579-9.126h2.621l2.58-2.745 2.58.83 2.578-16.656 2.58 22.4 2.62-15.316 2.538-20.795 2.535 24.624 2.581-8.935h0" fill="none" stroke="#d62728" stroke-linecap="square" stroke-width="1.5" id="line2d_17"/><path clip-path="url(#pbfcfe462ba)" d="M33.66 211.733l1.99 31.948 2.577 16.273 2.579-2.872 2.621-7.658 2.495-.068 2.493.068 2.58 10.53 2.58-14.359 2.58-5.424 2.579-6.063 2.621 26.803 2.58-16.783 2.58-11.934 2.578 2.042 2.58 13.274 2.62 9.572 2.495-9.846 2.493-16.956h2.581l2.58-3.83 2.579 1.851 2.58 7.722 2.62-26.803 2.58-.702 2.58 16.018 2.578 11.678 2.58-9.763 2.621-15.316 2.495 8.547 2.493-6.633 2.58 3.382 2.58-24.441 2.58 26.42 2.578-20.677 2.622 45.948 2.58-35.163 2.58 16.018 2.578-4.148 2.579 4.148 2.622-11.487 2.536-15.514 2.536 25.087 2.58 3.7 2.58-32.417 2.58 14.613 2.578 19.847 2.622-17.23 2.58-20.421 2.58 24.25 2.578-16.337 2.579 45.054 2.621-47.862 2.495-3.692 2.493-3.966 2.581-19.208 2.58 24.952 2.579 2.744 2.579-18.06 2.621 11.487 2.58 20.42 2.58-7.02 2.578 3.064 2.58.766 2.62-5.744 2.496-3.076 2.492-12.24 2.581 16.337 2.58-4.85 2.579 2.872 2.58-18.187 2.62 26.802 2.58-.702 2.581 8.36 2.577 9.445 2.58-5.616 2.621 5.744 2.495-4.65 2.493 2.735 2.58 3.765 2.58 7.722 2.58-35.418 2.579-.957 2.621 21.06 2.58 1.658 2.58-16.975 2.578-6.764 2.58 20.166 5.158-72.42 2.535 18.814 2.58-14.04 2.58 6.382 2.58-55.838 2.579 65.41 2.621 24.889 2.58-38.864 2.58-5.169 2.578 22.974 2.58 53.605 2.62-19.145 2.495-4.786 2.493-20.102 2.581 39.885 5.159-67.262 2.579 15.89 2.622 3.83 2.579 23.803 2.58 22.144 2.578 13.465 2.58 1.85 2.621-36.375 2.495 30.427 2.493-24.683 2.58 22.846 2.58 3.957 2.58-9.892 2.578-32.227 5.201 30.249 2.581 4.212 2.578 11.614 2.579 1.787 2.621-13.401 2.495 3.418 2.493-18.734 2.581 26.93 2.58-3.956 2.579 27.696 2.579-52.585 2.621 5.744 2.58-.638 2.58-10.85 2.578 14.806 2.58 11.998h2.62l2.538 1.782 2.535-5.611 2.581 13.592h0" fill="none" stroke="#2ca02c" stroke-linecap="square" stroke-width="1.5" id="line2d_18"/><g id="text_16"><defs><path d="M12.703 26.219q0-8.735 3.953-14.375 3.953-5.64 11.219-5.64 7.531 0 11.438 5.905 3.906 5.907 3.906 14.11 0 8.297-3.907 14.078-3.906 5.797-11.437 5.797-6.969 0-11.078-5.453-4.094-5.438-4.094-14.422zm-8.984 0q0 11.672 6.484 19.625 6.5 7.968 17.672 7.968 11.438 0 17.875-8.062 6.453-8.047 6.453-19.531 0-11.516-6.406-19.625-6.39-8.11-17.922-8.11-11.078 0-17.625 7.86-6.531 7.86-6.531 19.875z" id="HelveticaWorld-Regular-111"/><path d="M17.188 45.016V0H8.405v45.016H1.22v7.28h7.187v8.985q0 5.907 3.578 8.703 3.594 2.813 10.032 2.813 2.203 0 3.968-.188v-7.906q-1.562.188-3.578.188-2.922 0-4.078-1.438-1.14-1.437-1.14-4.656v-6.5h8.796v-7.281z" id="HelveticaWorld-Regular-102"/><path d="M6.594 61.813v9.968h8.781v-9.969zM15.375 0H6.594v52.297h8.781z" id="HelveticaWorld-Regular-105"/><path d="M39.594 34.719q-1.89 11.187-12.39 11.187-6.5 0-10.454-5.203-3.953-5.203-3.953-14.484 0-10.11 3.656-15.11 3.672-5 10.64-5 4.688 0 8.11 3.438 3.422 3.437 4.39 8.953h8.5q-1.312-9.703-6.859-14.86-5.547-5.156-14.328-5.156-10.297 0-16.89 7.047-6.594 7.063-6.594 19.172 0 13.281 6.594 21.188 6.593 7.922 18.5 7.922 8.687 0 13.843-5.204 5.157-5.203 5.735-13.89z" id="HelveticaWorld-Regular-99"/><path d="M42.484 30.328q-.687 8.485-4.5 12.031-3.797 3.547-10.109 3.547-6.39 0-10.328-4.5-3.922-4.484-4.172-11.078zm8.391-13.922q-1.453-8.11-7.953-13.422-5.719-4.5-15.047-4.593-10.984.093-17.438 7.203Q4 12.704 4 24.704q0 13.78 6.64 21.437 6.641 7.672 18.47 7.672 10.593 0 16.546-7.922 5.953-7.907 5.953-22.594H13.375q0-8.203 3.813-12.703Q21 6.109 28.608 6.109q5.375 0 9.235 3.235 3.86 3.25 4.25 7.062z" id="HelveticaWorld-Regular-101"/></defs><g transform="matrix(.14 0 0 -.14 394.351 63.722)" fill="#1f77b4"><use xlink:href="#HelveticaWorld-Regular-111"/><use x="55.908" xlink:href="#HelveticaWorld-Regular-102"/><use x="83.594" xlink:href="#HelveticaWorld-Regular-102"/><use x="111.279" xlink:href="#HelveticaWorld-Regular-105"/><use x="133.301" xlink:href="#HelveticaWorld-Regular-99"/><use x="184.57" xlink:href="#HelveticaWorld-Regular-101"/><use x="239.99" xlink:href="#HelveticaWorld-Regular-51"/><use x="295.605" xlink:href="#HelveticaWorld-Regular-54"/><use x="351.221" xlink:href="#HelveticaWorld-Regular-53"/></g></g><g id="text_17"><defs><path d="M12.984 26.313q0-9.61 3.813-14.907Q20.609 6.11 27.094 6.11q6.312 0 10.312 4.579 4 4.593 4 13 0 11.03-3.5 16.625-3.484 5.593-10.61 5.593-7.171 0-10.75-4.765-3.562-4.766-3.562-14.828zM49.812 2.983q0-12.609-6.062-18.797-6.047-6.203-18.266-6.203-8.78 0-13.984 4.047Q6.297-13.922 5.516-6.39h8.796q.672-3.812 3.532-6.062 2.86-2.25 8.281-2.25 7.375 0 11.125 3.969 3.766 3.953 3.766 12.828v3.719h-.188q-4.937-7.329-13.922-7.329-11.187 0-17.093 8.25-5.907 8.25-5.907 20.953 0 11.625 5.953 18.875 5.97 7.25 15.829 7.25 9.906 0 15.625-8.89h.187v7.375h8.313z" id="HelveticaWorld-Regular-103"/><path d="M15.375 0H6.594v71.781h8.781z" id="HelveticaWorld-Regular-108"/><path d="M28.906 23.188H4.391v8.984h24.515z" id="HelveticaWorld-Regular-45"/><path d="M13.094 26.313q0-9.704 3.844-14.954 3.859-5.25 10.265-5.25 6.094 0 10.188 4.485 4.109 4.5 4.109 13.094 0 11.03-3.5 16.625-3.484 5.593-10.61 5.593-6.78 0-10.546-4.453-3.75-4.437-3.75-15.14zM50.39 0h-8.297v7.172h-.203q-4.97-8.688-15.078-8.688-10.891 0-16.86 8.297Q4 15.094 4 27.688q0 11.625 5.906 18.875 5.922 7.25 15.875 7.25 9.813 0 15.625-8.891l.203.594V71.78h8.782z" id="HelveticaWorld-Regular-100"/><path d="M36.078 37.406q-.187 4.688-3.344 6.735-3.14 2.047-9.047 2.047-4.296 0-7.359-1.907-3.047-1.89-3.047-5.468 0-2.829 1.797-4.172 1.813-1.344 7.828-2.86l8.688-2.187q7.906-2 11.297-5.11 3.406-3.093 3.406-8.656 0-7.719-5.64-12.531-5.641-4.813-15.063-4.813-11 0-16.64 4.563-5.626 4.578-5.735 13.75h8.5q.203-5.422 3.594-8.063 3.39-2.625 10.171-2.625 5.516 0 8.766 2.188 3.25 2.203 3.25 6.11 0 2.78-2.11 4.437-2.093 1.672-8.296 3.078l-10.203 2.5q-6.203 1.562-9.157 4.656-2.953 3.094-2.953 8.031 0 7.72 5.516 12.203 5.531 4.5 14.406 4.5 9.485 0 14.531-4.624 5.047-4.61 5.344-11.782z" id="HelveticaWorld-Regular-115"/></defs><g transform="matrix(.14 0 0 -.14 394.351 225.657)" fill="#ff7f0e"><use xlink:href="#HelveticaWorld-Regular-103"/><use x="55.908" xlink:href="#HelveticaWorld-Regular-111"/><use x="111.816" xlink:href="#HelveticaWorld-Regular-111"/><use x="167.725" xlink:href="#HelveticaWorld-Regular-103"/><use x="223.633" xlink:href="#HelveticaWorld-Regular-108"/><use x="245.654" xlink:href="#HelveticaWorld-Regular-101"/><use x="301.074" xlink:href="#HelveticaWorld-Regular-45"/><use x="334.375" xlink:href="#HelveticaWorld-Regular-100"/><use x="391.357" xlink:href="#HelveticaWorld-Regular-111"/><use x="447.266" xlink:href="#HelveticaWorld-Regular-99"/><use x="498.535" xlink:href="#HelveticaWorld-Regular-115"/></g></g><g id="text_18"><defs><path d="M6.594 52.297h8.297v-7.375h.203q5.906 8.89 15.812 8.89 9.813 0 13.922-8.5 3.75 4.594 7.266 6.547 3.515 1.953 8.703 1.953 6.781 0 11.484-4.453Q77 44.922 77 36.187V0h-8.781v33.797q0 6.094-2.297 9.094-2.297 3.015-7.422 3.015-5.172 0-8.75-4.203-3.563-4.203-3.563-9.812V0h-8.78v36.188q0 4.53-2.11 7.124-2.094 2.594-6.094 2.594-6.297 0-10.062-4.687-3.766-4.688-3.766-12.703V0H6.594z" id="HelveticaWorld-Regular-109"/></defs><g transform="matrix(.14 0 0 -.14 394.351 240.45)" fill="#2ca02c"><use xlink:href="#HelveticaWorld-Regular-109"/><use x="83.008" xlink:href="#HelveticaWorld-Regular-115"/><use x="133.008" xlink:href="#HelveticaWorld-Regular-45"/><use x="166.309" xlink:href="#HelveticaWorld-Regular-111"/><use x="222.217" xlink:href="#HelveticaWorld-Regular-102"/><use x="249.902" xlink:href="#HelveticaWorld-Regular-102"/><use x="277.588" xlink:href="#HelveticaWorld-Regular-105"/><use x="299.609" xlink:href="#HelveticaWorld-Regular-99"/><use x="350.879" xlink:href="#HelveticaWorld-Regular-101"/></g></g><g id="text_19"><defs><path d="M43.406 26.313q0 10.5-3.718 15.046-3.704 4.547-10.579 4.547-6.984-.11-10.562-5.453Q14.984 35.11 14.984 25q0-10.297 4.297-14.594Q23.578 6.11 29.297 6.11q6.5 0 10.297 5.344 3.812 5.344 3.812 14.86zM6.594 0v71.781h8.781V45.703h.203q5.61 8.11 15.14 8.11 9.766 0 15.766-7.25t6-18.876q0-13.093-6.062-21.156Q40.375-1.516 29.5-1.516q-9.578 0-14.406 8.016h-.203V0z" id="HelveticaWorld-Regular-98"/><path d="M15.375 0H6.594v52.297h8.297v-8.688h.203q5.703 10.203 14.687 10.203 1.422 0 2.297-.296V44.39h-3.266q-5.906 0-9.671-4.016-3.766-4-3.766-9.953z" id="HelveticaWorld-Regular-114"/></defs><g transform="matrix(.14 0 0 -.14 394.351 255.15)" fill="#d62728"><use xlink:href="#HelveticaWorld-Regular-108"/><use x="22.021" xlink:href="#HelveticaWorld-Regular-105"/><use x="44.043" xlink:href="#HelveticaWorld-Regular-98"/><use x="100.537" xlink:href="#HelveticaWorld-Regular-114"/><use x="132.105" xlink:href="#HelveticaWorld-Regular-101"/><use x="187.525" xlink:href="#HelveticaWorld-Regular-111"/><use x="243.434" xlink:href="#HelveticaWorld-Regular-102"/><use x="271.119" xlink:href="#HelveticaWorld-Regular-102"/><use x="298.805" xlink:href="#HelveticaWorld-Regular-105"/><use x="320.826" xlink:href="#HelveticaWorld-Regular-99"/><use x="372.096" xlink:href="#HelveticaWorld-Regular-101"/></g></g><g id="text_20"><defs><path d="M14.984 23.688q0-8.407 4.094-13 4.11-4.579 10.219-4.579 6.687 0 10.39 5.438 3.72 5.453 3.72 14.765 0 10.22-3.563 14.907-3.563 4.687-10.735 4.687-6.984 0-10.562-5.5-3.563-5.5-3.563-16.718zm-8.39 28.609h8.297v-7.375h.203q5.61 8.89 15.625 8.89 10.11 0 15.937-7.359 5.828-7.344 5.828-18.766 0-12.796-5.953-21Q40.578-1.515 29.5-1.515q-9.094 0-13.922 7.032h-.203v-26.22H6.594z" id="HelveticaWorld-Regular-112"/><path d="M49.219 0h-8.844v32.172q0 7.422-2.594 10.578-2.578 3.156-8.578 3.156-5.906 0-9.875-4.5-3.953-4.484-3.953-12.89V0H6.594v52.297h8.297v-7.375h.203q6.203 8.89 15.812 8.89 8.89 0 13.594-4.718 4.719-4.703 4.719-13.5z" id="HelveticaWorld-Regular-110"/></defs><g transform="matrix(.14 0 0 -.14 394.351 281.313)" fill="#9467bd"><use xlink:href="#HelveticaWorld-Regular-111"/><use x="55.908" xlink:href="#HelveticaWorld-Regular-112"/><use x="112.402" xlink:href="#HelveticaWorld-Regular-101"/><use x="167.822" xlink:href="#HelveticaWorld-Regular-110"/><use x="222.998" xlink:href="#HelveticaWorld-Regular-111"/><use x="278.906" xlink:href="#HelveticaWorld-Regular-102"/><use x="306.592" xlink:href="#HelveticaWorld-Regular-102"/><use x="334.277" xlink:href="#HelveticaWorld-Regular-105"/><use x="356.299" xlink:href="#HelveticaWorld-Regular-99"/><use x="407.568" xlink:href="#HelveticaWorld-Regular-101"/><use x="461.488" xlink:href="#HelveticaWorld-Regular-46"/><use x="489.271" xlink:href="#HelveticaWorld-Regular-111"/><use x="545.18" xlink:href="#HelveticaWorld-Regular-114"/><use x="576.748" xlink:href="#HelveticaWorld-Regular-103"/></g></g><g id="text_21"><defs><path d="M50.39 50.781q-.296 6.844-5.109 10.719-4.797 3.875-12.656 3.875-7.922 0-12.172-3.25-4.234-3.234-4.234-9.344 0-3.265 1.843-5.61 1.86-2.343 6.641-3.468l20.516-4.687q8.297-1.813 12.297-6.875 4.015-5.047 4.015-12.313 0-10.64-7.812-16.187-7.813-5.547-20.313-5.547-9.531 0-15.031 2.437-5.484 2.453-9.734 7.766-4.25 5.328-4.25 14.89h9.093q0-8 5.313-12.406 5.328-4.39 14.5-4.39 8.89 0 13.844 3.156 4.953 3.156 4.953 8.953 0 5.281-2.953 7.89Q46.188 29 37.594 31l-15.469 3.625q-7.719 1.75-11.531 6.125Q6.78 45.125 6.78 51.516q0 9.672 6.516 15.922 6.531 6.25 18.203 6.25 13.172 0 20.328-5.5 7.156-5.485 7.688-17.407z" id="HelveticaWorld-Regular-83"/><path d="M17.188 45.016V10.984q0-2 1.093-3.046 1.11-1.047 3.938-1.047h3.375V0Q20.797-.688 19-.688q-5.516 0-8.063 2.641-2.53 2.64-2.53 8.547v34.516H1.311v7.28h7.094v14.595h8.781V52.297h8.407v-7.281z" id="HelveticaWorld-Regular-116"/><path d="M38.375 26.703q-.969-1.015-3.828-1.656-2.86-.625-10.672-1.656-5.766-.688-8.469-2.844-2.703-2.14-2.703-5.656 0-4.297 2.281-6.688 2.297-2.39 7.329-2.39 6.296 0 11.171 3.578 4.891 3.593 4.891 8.718zM6.203 36.375q.297 8.844 5.734 13.14 5.454 4.297 15.844 4.297 8.297 0 13.907-3.765 5.624-3.75 5.624-10.844V9.078Q47.313 6 50.094 6q1.125 0 2.89.39V0Q50.594-.984 48-.984q-4.5 0-6.703 1.921-2.188 1.938-2.281 6.047-7.516-8.5-18.891-8.5-7.422 0-11.922 4.204Q3.72 6.89 3.72 13.624q0 6.89 3.906 11.125Q11.531 29 19 29.89l15.516 1.891q4.203.64 4.203 6.203 0 4.11-3.047 6.297-3.047 2.203-9.25 2.203-5.516 0-8.485-2.437-2.953-2.438-3.53-7.672z" id="HelveticaWorld-Regular-97"/><path d="M50 0H38.719L22.406 26.422l-7.312-6.594V0h-8.5v71.781h8.5v-41.61l22.5 22.126H48.78L28.813 32.813z" id="HelveticaWorld-Regular-107"/><path d="M63.922 35.89q0 12.594-6.672 20.891-6.656 8.313-18.328 8.313-11.531 0-18.266-8.313-6.734-8.297-6.734-20.89 0-12.985 6.828-21.094 6.844-8.11 18.172-8.11 11.078 0 18.031 7.907 6.969 7.922 6.969 21.297zm9.953 0q0-16.062-9.281-26.937-9.266-10.86-25.672-10.86-16.516 0-25.766 10.86-9.25 10.875-9.25 26.938 0 16.109 9.25 26.953 9.25 10.843 25.766 10.843 16.89 0 25.922-11.046 9.031-11.032 9.031-26.75z" id="HelveticaWorld-Regular-79"/><path d="M39.406 52.297h9.625L29.11 0h-9.437L.594 52.297h10.203L24.422 9.719h.187z" id="HelveticaWorld-Regular-118"/><path d="M25.594 0h-8.985L1.516 52.297h9.468L21 11.187h.188l10.109 41.11h9.922l10.203-41.11h.187l10.594 41.11h8.703L55.812 0h-9.234L35.984 40.484h-.187z" id="HelveticaWorld-Regular-119"/><path d="M44 29.5L33.406 61.078h-.203L21.687 29.5zm-25.297-8.594L11.188 0h-9.97l27 71.781h10.985L65.187 0H54.594l-7.078 20.906z" id="HelveticaWorld-Regular-65"/><path d="M17.828 38.625H37.11q7.282 0 10.938 3.188 3.656 3.203 3.656 9.703 0 5.812-3.516 8.89-3.515 3.078-10.687 3.078H17.828zm0-38.625H8.11v71.781h32.266q9.625 0 15.484-5.594 5.86-5.593 5.86-14.578 0-9.328-5.672-15.312-5.656-5.969-15.672-5.969H17.828z" id="HelveticaWorld-Regular-80"/><path d="M17.828 0H8.11v71.781h9.72z" id="HelveticaWorld-Regular-73"/><path d="M49.219 0h-8.844v34.188q0 6.296-2.438 9-2.437 2.718-7.953 2.718-6.797 0-10.703-4.406-3.906-4.39-3.906-12.984V0H6.594v71.781h8.781V45.312h.203q6 8.5 15.328 8.5 8.594 0 13.453-4.5 4.86-4.484 4.86-13.718z" id="HelveticaWorld-Regular-104"/><path d="M9.422 73.688h7.281V-1.906H9.422z" id="HelveticaWorld-Regular-124"/><path d="M55.61 71.781h9.374V0h-10.78L17.577 58.016h-.187V0H8.109v71.781h11.375l35.938-57.969h.187z" id="HelveticaWorld-Regular-78"/><path d="M12.703 26.219q0-8.735 3.953-14.375 3.953-5.64 11.219-5.64 7.531 0 11.438 5.905 3.906 5.907 3.906 14.11 0 8.297-3.907 14.078-3.906 5.797-11.437 5.797-6.969 0-11.078-5.453-4.094-5.438-4.094-14.422zm-8.984 0q0 11.672 6.484 19.625 6.5 7.968 17.672 7.968 11.438 0 17.875-8.062 6.453-8.047 6.453-19.531 0-11.516-6.406-19.625-6.39-8.11-17.922-8.11-11.078 0-17.625 7.86-6.531 7.86-6.531 19.875zm36.734 35.406H31.47v10.156h8.984zm-16.219 0H15.25v10.156h8.984z" id="HelveticaWorld-Regular-246"/><path d="M58.016 50.203q-1.625 7.313-6.782 11.094-5.14 3.797-13.343 3.797-10.594 0-17.047-7.703-6.438-7.688-6.438-20.766 0-15.14 6.094-22.547 6.11-7.39 17.688-7.39 7.609 0 13.093 5.046 5.5 5.063 7.407 14.688h9.421Q66.22 12.594 57.625 5.344t-20.906-7.25q-14.703 0-23.516 10.11Q4.391 18.311 4.391 36.28q0 17.328 9.203 27.36 9.203 10.047 24.297 10.047 12.5 0 20.265-6.454 7.766-6.437 9.235-17.03z" id="HelveticaWorld-Regular-67"/><path d="M8.11 71.781h31.484q9.281 0 14.797-5.031 5.515-5.031 5.515-13.031 0-4.844-2.422-8.828-2.406-3.97-7.187-6.172 6.687-2.532 9.828-6.735 3.156-4.203 3.156-10.797 0-9.265-6.687-15.234Q49.906 0 38.922 0H8.109zm9.562-63.484h20.703q7.625 0 11.422 3.531 3.812 3.547 3.812 9.563 0 6.093-4.25 9.093Q45.125 33.5 36.812 33.5h-19.14zm0 33.11h17.625q7.719 0 11.312 2.796 3.594 2.813 3.594 8.781 0 5.125-3.406 7.813-3.39 2.687-11.39 2.687H17.671z" id="HelveticaWorld-Regular-66"/><path d="M37.313 0h-9.72v28.906L.485 71.781h11.329l20.609-34.469 20.562 34.47h11.422L37.312 28.905z" id="HelveticaWorld-Regular-89"/></defs><g transform="matrix(.09716 0 0 -.09716 33.66 323.214)" fill="#969696"><use xlink:href="#HelveticaWorld-Regular-83"/><use x="66.211" xlink:href="#HelveticaWorld-Regular-116"/><use x="93.896" xlink:href="#HelveticaWorld-Regular-97"/><use x="148.828" xlink:href="#HelveticaWorld-Regular-99"/><use x="200.098" xlink:href="#HelveticaWorld-Regular-107"/><use x="250.098" xlink:href="#HelveticaWorld-Regular-79"/><use x="327.881" xlink:href="#HelveticaWorld-Regular-118"/><use x="375.49" xlink:href="#HelveticaWorld-Regular-101"/><use x="430.91" xlink:href="#HelveticaWorld-Regular-114"/><use x="464.979" xlink:href="#HelveticaWorld-Regular-102"/><use x="492.664" xlink:href="#HelveticaWorld-Regular-108"/><use x="514.686" xlink:href="#HelveticaWorld-Regular-111"/><use x="569.094" xlink:href="#HelveticaWorld-Regular-119"/><use x="641.506" xlink:href="#HelveticaWorld-Regular-32"/><use x="665.92" xlink:href="#HelveticaWorld-Regular-65"/><use x="732.619" xlink:href="#HelveticaWorld-Regular-80"/><use x="797.268" xlink:href="#HelveticaWorld-Regular-73"/><use x="823.049" xlink:href="#HelveticaWorld-Regular-32"/><use x="847.463" xlink:href="#HelveticaWorld-Regular-118"/><use x="897.072" xlink:href="#HelveticaWorld-Regular-105"/><use x="919.094" xlink:href="#HelveticaWorld-Regular-97"/><use x="974.025" xlink:href="#HelveticaWorld-Regular-32"/><use x="998.439" xlink:href="#HelveticaWorld-Regular-104"/><use x="1053.615" xlink:href="#HelveticaWorld-Regular-111"/><use x="1109.523" xlink:href="#HelveticaWorld-Regular-116"/><use x="1137.209" xlink:href="#HelveticaWorld-Regular-119"/><use x="1207.246" xlink:href="#HelveticaWorld-Regular-97"/><use x="1262.178" xlink:href="#HelveticaWorld-Regular-114"/><use x="1293.746" xlink:href="#HelveticaWorld-Regular-101"/><use x="1349.166" xlink:href="#HelveticaWorld-Regular-32"/><use x="1373.58" xlink:href="#HelveticaWorld-Regular-124"/><use x="1399.557" xlink:href="#HelveticaWorld-Regular-32"/><use x="1423.971" xlink:href="#HelveticaWorld-Regular-78"/><use x="1497.066" xlink:href="#HelveticaWorld-Regular-105"/><use x="1519.088" xlink:href="#HelveticaWorld-Regular-99"/><use x="1570.357" xlink:href="#HelveticaWorld-Regular-111"/><use x="1626.266" xlink:href="#HelveticaWorld-Regular-32"/><use x="1650.68" xlink:href="#HelveticaWorld-Regular-83"/><use x="1716.891" xlink:href="#HelveticaWorld-Regular-99"/><use x="1768.16" xlink:href="#HelveticaWorld-Regular-104"/><use x="1823.336" xlink:href="#HelveticaWorld-Regular-108"/><use x="1845.357" xlink:href="#HelveticaWorld-Regular-246"/><use x="1901.266" xlink:href="#HelveticaWorld-Regular-109"/><use x="1984.273" xlink:href="#HelveticaWorld-Regular-101"/><use x="2039.693" xlink:href="#HelveticaWorld-Regular-114"/><use x="2072.262" xlink:href="#HelveticaWorld-Regular-32"/><use x="2096.676" xlink:href="#HelveticaWorld-Regular-124"/><use x="2122.652" xlink:href="#HelveticaWorld-Regular-32"/><use x="2147.066" xlink:href="#HelveticaWorld-Regular-67"/><use x="2219.381" xlink:href="#HelveticaWorld-Regular-67"/><use x="2291.695" xlink:href="#HelveticaWorld-Regular-32"/><use x="2316.109" xlink:href="#HelveticaWorld-Regular-66"/><use x="2378.922" xlink:href="#HelveticaWorld-Regular-89"/></g></g><g id="text_22"><defs><path d="M17.828 8.297h18.797q9.766 0 15.281 7.5 5.516 7.5 5.516 20.484 0 12.844-5.563 19.969-5.562 7.125-16.062 7.234H17.828zM8.11 71.78h29.094q14.11 0 22.094-9.703 7.984-9.687 7.984-25.156 0-16.61-7.984-26.766Q51.313 0 36.813 0H8.108z" id="HelveticaWorld-Regular-68"/><path d="M39.016 52.297h9.562L29.891.984q-.5-1.375-.985-2.593-4.25-11.329-7.328-15.547-3.078-4.235-9.953-4.235-3.61 0-5.906.782v8.015q2.484-.89 5.468-.89 3.22 0 4.704 2.03 1.5 2.032 4.421 9.938L.875 52.297h9.922L24.812 9.719H25z" id="HelveticaWorld-Regular-121"/><path d="M6.11 52.297h8.78V17.578q0-5.765 2.61-8.625Q20.125 6.11 25 6.11q6.781 0 10.594 4.797 3.812 4.813 3.812 12.578v28.813h8.782V0H39.89v7.625l-.188.188q-4.984-9.329-16.61-9.329-7.515 0-12.25 4.094Q6.11 6.688 6.11 14.703z" id="HelveticaWorld-Regular-117"/><path d="M41.5 23.688q0 11.125-3.5 16.671-3.484 5.547-10.61 5.547-6.874 0-10.593-4.5-3.703-4.484-3.703-15.093 0-9.422 3.75-14.813 3.765-5.39 10.36-5.39 5.812 0 10.046 4.39 4.25 4.39 4.25 13.188zm8.406-44.391H41.11V5.516h-.187Q35.89-1.516 27-1.516q-10.984 0-17 8.157-6 8.156-6 21.047 0 11.421 5.906 18.765 5.922 7.36 15.875 7.36 9.907 0 15.625-8.891h.203v7.375h8.297z" id="HelveticaWorld-Regular-113"/></defs><g transform="matrix(.14 0 0 -.14 76.153 17.516)" fill="#969696"><use xlink:href="#HelveticaWorld-Regular-68"/><use x="72.021" xlink:href="#HelveticaWorld-Regular-97"/><use x="126.953" xlink:href="#HelveticaWorld-Regular-105"/><use x="148.975" xlink:href="#HelveticaWorld-Regular-108"/><use x="170.996" xlink:href="#HelveticaWorld-Regular-121"/><use x="220.605" xlink:href="#HelveticaWorld-Regular-32"/><use x="245.02" xlink:href="#HelveticaWorld-Regular-110"/><use x="300.195" xlink:href="#HelveticaWorld-Regular-117"/><use x="354.98" xlink:href="#HelveticaWorld-Regular-109"/><use x="437.988" xlink:href="#HelveticaWorld-Regular-98"/><use x="494.482" xlink:href="#HelveticaWorld-Regular-101"/><use x="549.902" xlink:href="#HelveticaWorld-Regular-114"/><use x="582.471" xlink:href="#HelveticaWorld-Regular-32"/><use x="606.885" xlink:href="#HelveticaWorld-Regular-111"/><use x="662.793" xlink:href="#HelveticaWorld-Regular-102"/><use x="690.479" xlink:href="#HelveticaWorld-Regular-32"/><use x="714.893" xlink:href="#HelveticaWorld-Regular-113"/><use x="771.387" xlink:href="#HelveticaWorld-Regular-117"/><use x="826.172" xlink:href="#HelveticaWorld-Regular-101"/><use x="881.592" xlink:href="#HelveticaWorld-Regular-115"/><use x="931.592" xlink:href="#HelveticaWorld-Regular-116"/><use x="959.277" xlink:href="#HelveticaWorld-Regular-105"/><use x="981.299" xlink:href="#HelveticaWorld-Regular-111"/><use x="1037.207" xlink:href="#HelveticaWorld-Regular-110"/><use x="1092.383" xlink:href="#HelveticaWorld-Regular-115"/><use x="1142.383" xlink:href="#HelveticaWorld-Regular-32"/><use x="1166.797" xlink:href="#HelveticaWorld-Regular-111"/><use x="1222.705" xlink:href="#HelveticaWorld-Regular-110"/><use x="1277.881" xlink:href="#HelveticaWorld-Regular-32"/><use x="1302.295" xlink:href="#HelveticaWorld-Regular-83"/><use x="1368.506" xlink:href="#HelveticaWorld-Regular-116"/><use x="1396.191" xlink:href="#HelveticaWorld-Regular-97"/><use x="1451.123" xlink:href="#HelveticaWorld-Regular-99"/><use x="1502.393" xlink:href="#HelveticaWorld-Regular-107"/><use x="1552.393" xlink:href="#HelveticaWorld-Regular-79"/><use x="1630.176" xlink:href="#HelveticaWorld-Regular-118"/><use x="1677.785" xlink:href="#HelveticaWorld-Regular-101"/><use x="1733.205" xlink:href="#HelveticaWorld-Regular-114"/><use x="1767.273" xlink:href="#HelveticaWorld-Regular-102"/><use x="1794.959" xlink:href="#HelveticaWorld-Regular-108"/><use x="1816.98" xlink:href="#HelveticaWorld-Regular-111"/><use x="1871.389" xlink:href="#HelveticaWorld-Regular-119"/></g></g><path clip-path="url(#pbfcfe462ba)" d="M33.66 285.919l1.99 1.795 2.577-2.042 2.579 3.956 2.621-3.829 2.495 1.71 2.493 2.12h2.58l2.58-1.915 2.58-4.02 2.579 4.02 2.621-3.83 2.58-6.125 2.58 6.126 2.578-2.17 2.58.255 2.62-3.829 2.495-13.948 2.493 12.034 2.581-8.36 2.58.702 2.579 5.233 2.58-5.233 2.62 3.829 2.58 7.339 2.58-3.51 2.578 3.51 2.58-16.911 2.621 15.315 2.495-16.068 2.493-3.076 2.58 22.718 2.58-22.718 2.58 12.827 2.578-8.998h2.622l2.58 1.084 2.58.83 2.578-.83 2.579 2.745 2.622-13.402 2.536-8.648 2.536-2.839 2.58-27.313 2.58 27.313 2.58-25.335 2.578 6.19h2.622l2.58 33.376 2.58-16.145 2.578 10.21 2.579-.638 2.621 3.83 2.495-14.496 2.493 12.58 2.581-25.015 2.58 26.93 2.579-13.082 2.579 9.253 2.621-9.572 2.58 16.145 2.58-21.889 2.578.128 2.58 15.188 2.62-5.743 2.496-19.76 2.492 31.247 2.581-7.084 2.58-23.548 2.579 21.57 2.58-10.083 2.62-3.829 2.58 7.977 2.581 5.424 2.577-11.359 2.58-5.87 2.621 28.716 2.495-24.683 2.493-17.435 2.58 17.294 2.58 1.85 2.58-3.828 2.579 11.486 2.621-9.572 2.58 13.912 2.58 3.318 2.578 6.573 2.58 8.743 2.62-5.743 2.538-8.252 2.535 15.91 2.58-6.701 2.58 4.786 2.58-14.678 2.579 10.85 2.621-5.744 2.58.83 2.58 2.999 2.578-4.978 2.58 14.55 2.62-22.974 2.495 1.641 2.493 6.017 2.581-7.147 2.58-11.998 2.579-1.85 2.579 9.508 2.622 13.402 2.579 8.742 2.58-29.802 2.578 15.954 2.58 7.02 2.621-5.743 2.495 4.376 2.493 1.367 2.58-10.976 2.58-10.083 2.58-13.657 2.578 32.802 2.622-22.974 2.58 23.803 2.58-10.402 2.578.51 2.579 7.148 2.621-5.743 2.495-32.068 2.493 32.068 2.581-17.23 2.58 13.4 2.579 6.382 2.579-10.21 2.621-13.401 2.58 17.677 2.58-4.276 2.578.319 2.58 11.168 2.62-26.803 2.538-.396 2.535-3.433 2.581 3.638h0" fill="none" stroke="#ff7f0e" stroke-linecap="square" stroke-width="1.5" id="line2d_19"/><path clip-path="url(#pbfcfe462ba)" d="M107.655 289.628l2.493-1.914 2.58-2.042 2.58 3.956 2.58-5.935 2.578-13.21 2.622 7.658 2.58 7.53 2.58-7.53 2.578 5.552 2.579 4.02 2.622-5.743 2.536-.528 2.536-5.215 2.58 3.51 2.58-1.596 2.58-2.36 2.578 2.36 2.622-9.572 2.58-.702 2.58 10.274 2.578 1.596 2.579 6.062 2.621-15.315 2.495-4.171 2.493-5.402 2.581-6.892 2.58 20.293 2.579-10.402 2.579 2.745 2.621 3.829 2.58 7.275 2.58-24.506 2.578 10.657 2.58 4.659 2.62-15.316 2.496.342 2.492-9.914 2.581-17.358 2.58-1.787 2.579-25.91 2.58 2.936 2.62-11.486 2.58-13.21 2.581 28.525 2.577-10.72 2.58-35.227 2.621-19.145 2.495 9.436 2.493 13.538 2.58-22.017 2.58-16.273 2.58-13.4 2.579 22.973 2.621 21.059 2.58-61.838 2.58 4.404 2.578 21.314 2.58-7.913 2.62-49.776 2.538 8.846 2.535-8.846 2.58-33.312 2.58-1.149 2.58 40.715 2.579-17.741 2.621 28.717 2.58 8.807 2.58 33.311 2.578-29.355 2.58 29.355 2.62-34.46 2.495 29.127 2.493-42.528 2.581 34.333 2.58-20.932 2.579-6.765 2.579 64.2 2.622-13.402 2.579 24.377 2.58 13.912 2.578-23.803 2.58 41.034 2.621-57.435 2.495 12.444 2.493-14.358 2.58 26.228 2.58 8.232 2.58-37.906 2.578 3.446 2.622-63.178 2.58-7.53 2.58-21.187 2.578 37.013 2.579 51.053 2.621-44.033 2.495 21.948 2.493-14.29 2.581 14.997 2.58 48.18 2.579-10.593 2.579-58.328 2.621 47.862 2.58-44.926 2.58-14.422 2.578 44.096 2.58-11.55 2.62-78.494 2.538 57.368 2.535-26.736 2.581 5.999" fill="none" stroke="#1f77b4" stroke-linecap="square" stroke-width="1.5" id="line2d_20"/></g></g><defs><clipPath id="pbfcfe462ba"><path d="M33.66 23.516h357.12v266.112H33.66z"/></clipPath></defs></svg>