<svg height="489.395" viewBox="0 0 479.715 367.046" width="639.62" xmlns="http://www.w3.org/2000/svg" xmlns:xlink="http://www.w3.org/1999/xlink"><defs><style>*{stroke-linecap:butt;stroke-linejoin:round}</style></defs><g id="figure_1"><path d="M0 367.046h479.715V0H0z" style="fill:none" id="patch_1"/><g id="axes_1"><path d="M29.766 323.519h357.12V57.407H29.766z" style="fill:none" id="patch_2"/><g id="matplotlib.axis_1"><g id="xtick_1"><g id="line2d_1"><defs><path d="M0 0v3.5" id="mda8e5d91e1" style="stroke:#969696;stroke-width:.4"/></defs><use style="fill:#969696;stroke:#969696;stroke-width:.4" x="65.253" xlink:href="#mda8e5d91e1" y="323.519"/></g><g style="fill:#969696" transform="matrix(.14 0 0 -.14 49.687 340.516)" id="text_1"><defs><path d="M3181 371H691c109 602 909 999 1344 1293 583 378 1127 845 1127 1594 0 832-608 1260-1389 1260-973 0-1453-665-1434-1587h403c-12 659 276 1248 1012 1248 544 0 1004-333 1004-915 0-358-128-595-371-845C1626 1658 262 1331 230 0h2951v371z" id="HelveticaNeue-Light-32" transform="scale(.01563)"/><path d="M1779 4179c1024 0 1159-1190 1159-1965 0-780-135-1971-1159-1971S621 1434 621 2214c0 775 134 1965 1158 1965zm0 339C474 4518 218 3258 218 2208 218 1165 474-96 1779-96c1306 0 1562 1261 1562 2310 0 1044-256 2304-1562 2304z" id="HelveticaNeue-Light-30" transform="scale(.01563)"/><path d="M621 3328h1184V0h403v4480h-326c-122-826-557-838-1261-864v-288z" id="HelveticaNeue-Light-31" transform="scale(.01563)"/></defs><use xlink:href="#HelveticaNeue-Light-32"/><use x="55.6" xlink:href="#HelveticaNeue-Light-30"/><use x="111.2" xlink:href="#HelveticaNeue-Light-31"/><use x="166.8" xlink:href="#HelveticaNeue-Light-30"/></g></g><g id="xtick_2"><use style="fill:#969696;stroke:#969696;stroke-width:.4" x="120.964" xlink:href="#mda8e5d91e1" y="323.519" id="line2d_2"/><g style="fill:#969696" transform="matrix(.14 0 0 -.14 105.397 340.516)" id="text_2"><use xlink:href="#HelveticaNeue-Light-32"/><use x="55.6" xlink:href="#HelveticaNeue-Light-30"/><use x="111.2" xlink:href="#HelveticaNeue-Light-31"/><use x="166.8" xlink:href="#HelveticaNeue-Light-32"/></g></g><g id="xtick_3"><use style="fill:#969696;stroke:#969696;stroke-width:.4" x="176.751" xlink:href="#mda8e5d91e1" y="323.519" id="line2d_3"/><g style="fill:#969696" transform="matrix(.14 0 0 -.14 161.184 340.516)" id="text_3"><defs><path d="M192 1114h2067V0h371v1114h672v339h-672v3027h-364L192 1504v-390zm365 339 1689 2438h13V1453H557z" id="HelveticaNeue-Light-34" transform="scale(.01563)"/></defs><use xlink:href="#HelveticaNeue-Light-32"/><use x="55.6" xlink:href="#HelveticaNeue-Light-30"/><use x="111.2" xlink:href="#HelveticaNeue-Light-31"/><use x="166.8" xlink:href="#HelveticaNeue-Light-34"/></g></g><g id="xtick_4"><use style="fill:#969696;stroke:#969696;stroke-width:.4" x="232.461" xlink:href="#mda8e5d91e1" y="323.519" id="line2d_4"/><g style="fill:#969696" transform="matrix(.14 0 0 -.14 216.895 340.516)" id="text_4"><defs><path d="M1856 2579c685 0 1082-531 1082-1184 0-621-436-1152-1076-1152-780 0-1120 519-1120 1152 0 659 410 1184 1114 1184zm1376 768c-96 781-589 1171-1376 1171-1466 0-1600-1702-1600-2233C256 538 736-96 1824-96c883 0 1517 646 1517 1517 0 877-583 1497-1479 1497-505 0-979-300-1190-742h-13c0 813 192 2003 1235 2003 519 0 864-339 935-832h403z" id="HelveticaNeue-Light-36" transform="scale(.01563)"/></defs><use xlink:href="#HelveticaNeue-Light-32"/><use x="55.6" xlink:href="#HelveticaNeue-Light-30"/><use x="111.2" xlink:href="#HelveticaNeue-Light-31"/><use x="166.8" xlink:href="#HelveticaNeue-Light-36"/></g></g><g id="xtick_5"><use style="fill:#969696;stroke:#969696;stroke-width:.4" x="288.248" xlink:href="#mda8e5d91e1" y="323.519" id="line2d_5"/><g style="fill:#969696" transform="matrix(.14 0 0 -.14 272.682 340.516)" id="text_5"><defs><path d="M1779 243c-627 0-1139 339-1139 1011 0 660 525 986 1139 973 602 13 1139-326 1139-973 0-684-512-1011-1139-1011zm1357 3155c0 768-698 1120-1363 1120-659 0-1357-352-1357-1120 0-492 262-844 730-985v-13c-551-102-896-563-909-1146C237 352 941-96 1779-96c839 0 1543 448 1543 1350 0 602-340 1031-916 1146v13c455 134 730 499 730 985zm-1357-832c-473-12-960 231-960 832 0 512 467 781 960 781 538 0 954-269 954-781 0-576-461-844-954-832z" id="HelveticaNeue-Light-38" transform="scale(.01563)"/></defs><use xlink:href="#HelveticaNeue-Light-32"/><use x="55.6" xlink:href="#HelveticaNeue-Light-30"/><use x="111.2" xlink:href="#HelveticaNeue-Light-31"/><use x="166.8" xlink:href="#HelveticaNeue-Light-38"/></g></g><g id="xtick_6"><use style="fill:#969696;stroke:#969696;stroke-width:.4" x="343.959" xlink:href="#mda8e5d91e1" y="323.519" id="line2d_6"/><g style="fill:#969696" transform="matrix(.14 0 0 -.14 328.392 340.516)" id="text_6"><use xlink:href="#HelveticaNeue-Light-32"/><use x="55.6" xlink:href="#HelveticaNeue-Light-30"/><use x="111.2" xlink:href="#HelveticaNeue-Light-32"/><use x="166.8" xlink:href="#HelveticaNeue-Light-30"/></g></g></g><g id="matplotlib.axis_2"><g id="ytick_1"><path clip-path="url(#pbb73bf3705)" d="M29.766 323.519h357.12" style="fill:none;stroke:#969696;stroke-linecap:square;stroke-width:.3" id="line2d_7"/><g id="line2d_8"><defs><path d="M0 0h-3.5" id="m79e372be69" style="stroke:#969696;stroke-width:.3"/></defs><use style="fill:#969696;stroke:#969696;stroke-width:.3" x="29.766" xlink:href="#m79e372be69" y="323.519"/></g><use xlink:href="#HelveticaNeue-Light-30" style="fill:#969696" transform="matrix(.14 0 0 -.14 14.983 328.517)" id="text_7"/></g><g id="ytick_2"><path clip-path="url(#pbb73bf3705)" d="M29.766 283.401h357.12" style="fill:none;stroke:#969696;stroke-linecap:square;stroke-width:.3" id="line2d_9"/><use style="fill:#969696;stroke:#969696;stroke-width:.3" x="29.766" xlink:href="#m79e372be69" y="283.401" id="line2d_10"/><use xlink:href="#HelveticaNeue-Light-32" style="fill:#969696" transform="matrix(.14 0 0 -.14 14.983 288.4)" id="text_8"/></g><g id="ytick_3"><path clip-path="url(#pbb73bf3705)" d="M29.766 243.284h357.12" style="fill:none;stroke:#969696;stroke-linecap:square;stroke-width:.3" id="line2d_11"/><use style="fill:#969696;stroke:#969696;stroke-width:.3" x="29.766" xlink:href="#m79e372be69" y="243.284" id="line2d_12"/><use xlink:href="#HelveticaNeue-Light-34" style="fill:#969696" transform="matrix(.14 0 0 -.14 14.983 248.283)" id="text_9"/></g><g id="ytick_4"><path clip-path="url(#pbb73bf3705)" d="M29.766 203.167h357.12" style="fill:none;stroke:#969696;stroke-linecap:square;stroke-width:.3" id="line2d_13"/><use style="fill:#969696;stroke:#969696;stroke-width:.3" x="29.766" xlink:href="#m79e372be69" y="203.167" id="line2d_14"/><use xlink:href="#HelveticaNeue-Light-36" style="fill:#969696" transform="matrix(.14 0 0 -.14 14.983 208.165)" id="text_10"/></g><g id="ytick_5"><path clip-path="url(#pbb73bf3705)" d="M29.766 163.05h357.12" style="fill:none;stroke:#969696;stroke-linecap:square;stroke-width:.3" id="line2d_15"/><use style="fill:#969696;stroke:#969696;stroke-width:.3" x="29.766" xlink:href="#m79e372be69" y="163.049" id="line2d_16"/><use xlink:href="#HelveticaNeue-Light-38" style="fill:#969696" transform="matrix(.14 0 0 -.14 14.983 168.048)" id="text_11"/></g><g id="ytick_6"><path clip-path="url(#pbb73bf3705)" d="M29.766 122.932h357.12" style="fill:none;stroke:#969696;stroke-linecap:square;stroke-width:.3" id="line2d_17"/><use style="fill:#969696;stroke:#969696;stroke-width:.3" x="29.766" xlink:href="#m79e372be69" y="122.932" id="line2d_18"/><g style="fill:#969696" transform="matrix(.14 0 0 -.14 7.2 127.93)" id="text_12"><use xlink:href="#HelveticaNeue-Light-31"/><use x="55.6" xlink:href="#HelveticaNeue-Light-30"/></g></g><g id="ytick_7"><path clip-path="url(#pbb73bf3705)" d="M29.766 82.815h357.12" style="fill:none;stroke:#969696;stroke-linecap:square;stroke-width:.3" id="line2d_19"/><use style="fill:#969696;stroke:#969696;stroke-width:.3" x="29.766" xlink:href="#m79e372be69" y="82.815" id="line2d_20"/><g style="fill:#969696" transform="matrix(.14 0 0 -.14 7.2 87.813)" id="text_13"><use xlink:href="#HelveticaNeue-Light-31"/><use x="55.6" xlink:href="#HelveticaNeue-Light-32"/></g></g></g><path clip-path="url(#pbb73bf3705)" d="m33.887 323.519 4.694-1.294 2.251 1.294 2.25-.647 2.329-2.028 2.328.734 2.327.604 2.328-3.193 2.366.648 2.327-.798 2.33-.497 2.326 3.171 2.327.712h2.366l2.251-3.004 2.25 3.004 2.33-2.718 2.327.13 2.328-.798 2.327 4.033 2.366-3.235 2.328-.13 2.329.13 2.326-.798 2.328-1.79 2.365 1.94 2.252 1.664 2.25-2.958 2.329-1.531 2.327 3.473 2.328-2.136 2.327-1.1 2.366.647 2.328 1.122 2.33-1.769 2.325 2.438 2.328-1.79 2.366 1.94 2.29-5.154 2.287 3.213 2.33 2.46 2.327-4.4 2.327.387 2.328 2.2h2.366l2.327-5.543 2.33-.28 2.326 3.623 2.327-3.623 2.366.647 2.251.254 2.25-.901 2.33 2.286 2.327-3.58 2.328.906 2.327 1.682h2.366l2.328-10.374 2.329 9.727 2.326 8.325 2.328-14.796 2.365-1.94 2.252 3.65 2.25-.415 2.329-2.546 2.327 1.898 2.328 6.126 2.328-.95 2.365 2.59 2.328-.303 2.33.95 2.325.387 2.328-3.623 2.366 5.823 2.251-2.773 2.25-6.285 2.329 2.178 2.328-1.531 2.327 2.868 2.328-1.574 2.366 5.823 2.327-1.574 2.33-1.014 2.326-4.335 2.327 5.63 2.366 1.293 2.29-2.566 2.287-3.257 2.33 3.58 2.327 4.831 2.328-4.83 2.328-1.64 2.365 3.882 2.328-6.255 2.33 5.608 2.325 3.085 6.945-5.35 2.25.324 2.329 2.351 2.328-4.292 2.327 3.623 2.328.26 2.366-1.942 2.327 3.688 2.33.194 2.325-1.531 2.328-2.998 2.366 1.941 2.251-.901 2.25-1.687 2.33 5.65 2.327-8.885 2.327 10.223 2.328-3.106h2.366l2.328 3.775 2.329-.54 2.326-2.135 2.327-.453 4.618-4.991 2.25.462 2.328 1.64 2.328 2.242 2.328-.237 2.327-1.057 2.366-1.294 2.328-2.33 2.329 1.036 2.326-1.035 2.328 4.27 2.365-1.94 2.29 2.096 2.288.491 2.33-3.58 2.327 5.521 2.327-.172 2.328.172 2.366.647 2.327-2.156 2.33.862 2.326-1.531 2.327.237 2.366 1.941 2.251-9.867 2.25 8.573 2.33-.215 2.327 2.804 2.328-.798 2.327.15h0" style="fill:none;stroke:#e377c2;stroke-linecap:square;stroke-width:1.5" id="line2d_21"/><path clip-path="url(#pbb73bf3705)" d="m228.95 323.519 2.328-3.882 2.366 1.294 2.29 1.896 2.287.692h4.657l2.328-.669 2.328.669h7.023l2.325-.669 2.328.669h4.616l2.25-.647 2.33-.69 2.328.043 2.327.625 2.328-.625 2.366-.647 2.327 1.272 2.33-.625 2.325-.043 2.328.69 2.366-.647 2.251-.139 2.25.139 2.33.625 2.327.669 2.327-2.675 2.328 2.028 2.366-1.294 2.328-1.402 2.329 2.049 2.326-.712 2.327.712h2.366l2.252-1.572 2.25-.37 2.328-.107 2.328 2.049 2.328-1.38 2.327 1.38 2.366-3.236 2.328 1.855 2.329-2.502 2.326-2.178 2.328 1.531 2.365 1.294 2.29 1.071 2.288-2.365 2.33-2.868 2.327.927 2.327 5.759 2.328-1.23 2.366-2.588 2.327 1.144 2.33 2.739 2.326-3.408 2.327-.475 2.366-4.529 2.251 1.04 2.25 1.548 2.33 2.416 2.327-1.122 2.328.453 2.327.841" style="fill:none;stroke:#8c564b;stroke-linecap:square;stroke-width:1.5" id="line2d_22"/><path clip-path="url(#pbb73bf3705)" d="m29.766 319.758 1.795 1.82 2.326-.734 2.328 1.38 2.366.648 2.251-2.219 2.25.925 2.329 1.272 2.328-1.272 2.327-4.745 2.328 4.745 2.366-.647 2.327-.087 2.33-2.502 2.326-.84 2.327 2.782 2.366-2.589 2.251 2.242 2.25.994 2.33-2.092 2.327-1.144 2.328 1.812 2.327-4.4 2.366 5.177 2.328-.108 2.329 1.402 2.326-7.42 2.328 3.537 2.365 1.294 2.252-.485 2.25-1.456 2.329 1.79 2.327 1.446 2.328-6.794 2.327 7.44 2.366-4.529 2.328 1.1 2.33.841 2.325-2.178 2.328-1.057 2.366-3.882 2.29 7.452 4.616-3.182 2.328-.388 2.327 1.726 2.328-1.079 2.366-5.176 2.327 5.586 2.33-4.292 2.326 4.96 2.327-.43 2.366-3.883 2.251-1.179 2.25 3.12 2.33-4.982 4.655 6.017 2.327-4.27 2.366-2.588 2.328 5.521 2.329.302 2.326 1.035 2.328-.388 2.365-1.294 2.252 1.11 2.25-3.698 2.329 6.945 2.327-9.533 2.328 5.521 2.328-1.64 2.365 5.177 2.328-2.868 2.33.927 2.325 3.085 2.328-3.085 2.366-2.588 2.251-1.11 2.25-2.772 2.329 6.211 2.328.906 2.327-3.58 2.328 4.874 2.366-1.294 2.327-1.574 2.33 1.574 2.326 1.769 2.327.172 2.366-1.294 2.29 3.012 2.287-5.6 2.33-.97 2.327 3.558 2.328-6.233 2.328 4.94 2.365 4.529 2.328-1.445 2.33-2.438 2.325 1.769 2.328-2.416 2.366 1.294 2.25-.693 2.25.046 2.33 2.438 2.328.15 2.327-4.162 2.328 2.868 2.366 2.589 2.327.56 2.33-5.737 2.325-2.286 2.328 5.521 2.366-1.94h4.501l2.33 5.78 2.327-2.545 2.327-1.467 2.328-.475 2.366-2.588 2.328 5.737 2.329-3.149 2.326 4.487 2.327-3.84 2.366.647 2.252-.485 2.25 1.133 2.328.539 2.328-.54 2.328-.797 2.327 2.739 2.366-1.294 2.328-2.783 2.329.194 2.326 1.144 2.328.798 2.365-1.295 2.29-1.048 4.617 2.213 2.328-1.165 2.327 1.165 2.328-1.165 2.366 1.295 2.327 1.876 2.33-1.876 2.326 1.876 2.327-3.17 2.366 3.235 2.251-.925 2.25 1.572 2.33-1.38 2.327.733 2.328-.065 2.327-3.818h0" style="fill:none;stroke:#9467bd;stroke-linecap:square;stroke-width:1.5" id="line2d_23"/><g style="fill:#1f77b4" transform="matrix(.14 0 0 -.14 397.6 114.947)" id="text_14"><defs><path d="M3117 2266c-90 755-634 1132-1338 1132-1011 0-1561-800-1561-1747S768-96 1779-96c736 0 1255 486 1363 1280h-403c-51-550-461-941-960-941-774 0-1158 704-1158 1408s384 1408 1158 1408c525 0 826-301 935-793h403z" id="HelveticaNeue-Light-63" transform="scale(.01563)"/><path d="M384 0h403v1843c7 691 288 1216 986 1216 512 0 697-371 691-819V0h403v1869c0 614 199 1190 896 1190 576 0 781-294 781-838V0h403v2240c0 781-371 1158-1094 1158-435 0-851-211-1050-646-121 435-512 646-947 646-525 0-870-256-1082-652h-19v556H384V0z" id="HelveticaNeue-Light-6d" transform="scale(.01563)"/><path d="M2496 1280c6-646-538-1037-1152-1037-378 0-736 250-736 653 0 646 851 640 1536 762 109 19 288 51 339 147h13v-525zM749 2291c13 538 384 768 883 768 474 0 864-134 864-678 0-365-186-410-518-448-871-103-1773-135-1773-1063 0-665 499-966 1107-966 634 0 922 243 1203 672h13c0-346 64-576 474-576 108 0 172 6 262 26v339c-32-13-83-26-128-26-160 0-237 90-237 243v1754c0 883-633 1062-1216 1062-755 0-1299-332-1337-1107h403z" id="HelveticaNeue-Light-61" transform="scale(.01563)"/><path d="M384 0h403v1254l653 544L2746 0h505L1747 2080l1408 1222h-537L787 1702v2868H384V0z" id="HelveticaNeue-Light-6b" transform="scale(.01563)"/><path d="M3162 1542c32 928-391 1856-1453 1856-1050 0-1491-876-1491-1747C218 710 659-96 1709-96c832 0 1267 435 1440 1184h-403c-128-499-448-845-1037-845-775 0-1082 711-1088 1299h2541zM621 1882c64 601 429 1177 1088 1177 653 0 1030-569 1049-1177H621z" id="HelveticaNeue-Light-65" transform="scale(.01563)"/></defs><use xlink:href="#HelveticaNeue-Light-63"/><use x="51.9" xlink:href="#HelveticaNeue-Light-6d"/><use x="135.2" xlink:href="#HelveticaNeue-Light-61"/><use x="187.1" xlink:href="#HelveticaNeue-Light-6b"/><use x="237.1" xlink:href="#HelveticaNeue-Light-65"/></g><g style="fill:#ff7f0e" transform="matrix(.14 0 0 -.14 397.6 212.005)" id="text_15"><defs><path d="M1658 3302h-653v288c6 359-7 640 441 640 96 0 186-12 295-32v346c-128 19-224 26-339 26-647 0-807-397-800-967v-301H38v-339h564V0h403v2963h653v339z" id="HelveticaNeue-Light-66" transform="scale(.01563)"/><path d="M390 0h404v3302H390V0zm0 3923h404v647H390v-647z" id="HelveticaNeue-Light-69" transform="scale(.01563)"/><path d="M390 0h404v4570H390V0z" id="HelveticaNeue-Light-6c" transform="scale(.01563)"/></defs><use xlink:href="#HelveticaNeue-Light-6d"/><use x="83.3" xlink:href="#HelveticaNeue-Light-61"/><use x="135.2" xlink:href="#HelveticaNeue-Light-6b"/><use x="185.2" xlink:href="#HelveticaNeue-Light-65"/><use x="237.1" xlink:href="#HelveticaNeue-Light-66"/><use x="263" xlink:href="#HelveticaNeue-Light-69"/><use x="281.5" xlink:href="#HelveticaNeue-Light-6c"/><use x="300" xlink:href="#HelveticaNeue-Light-65"/></g><g style="fill:#2ca02c" transform="matrix(.14 0 0 -.14 397.6 288.44)" id="text_16"><defs><path d="M3027 1651c0-685-313-1408-1081-1408-858 0-1159 723-1159 1408s301 1408 1159 1408c768 0 1081-723 1081-1408zM384 0h371v627h13C954 179 1414-96 1946-96c1004 0 1484 813 1484 1747 0 935-480 1747-1484 1747-493 0-973-249-1146-723h-13v1895H384V0z" id="HelveticaNeue-Light-62" transform="scale(.01563)"/><path d="M2765 3014v288H243v-339h2010L96 326V0h2758v339H582l2183 2675z" id="HelveticaNeue-Light-7a" transform="scale(.01563)"/></defs><use xlink:href="#HelveticaNeue-Light-62"/><use x="57.4" xlink:href="#HelveticaNeue-Light-61"/><use x="109.3" xlink:href="#HelveticaNeue-Light-7a"/><use x="155.6" xlink:href="#HelveticaNeue-Light-65"/><use x="207.5" xlink:href="#HelveticaNeue-Light-6c"/></g><g style="fill:#d62728" transform="matrix(.14 0 0 -.14 397.6 302.44)" id="text_17"><defs><path d="M378 0h403v1926c13 647 397 1133 1037 1133 652 0 838-429 838-998V0h403v2125c0 787-281 1273-1209 1273-468 0-909-268-1056-665h-13v569H378V0z" id="HelveticaNeue-Light-6e" transform="scale(.01563)"/><path d="M390-403c0-275-51-480-364-480-64-7-154 0-218 6v-333c96 0 186-12 282-12 569 0 704 422 704 915v3609H390V-403zm0 4326h404v647H390v-647z" id="HelveticaNeue-Light-6a" transform="scale(.01563)"/></defs><use xlink:href="#HelveticaNeue-Light-6e"/><use x="53.7" xlink:href="#HelveticaNeue-Light-69"/><use x="72.2" xlink:href="#HelveticaNeue-Light-6e"/><use x="125.9" xlink:href="#HelveticaNeue-Light-6a"/><use x="144.4" xlink:href="#HelveticaNeue-Light-61"/></g><g style="fill:#9467bd" transform="matrix(.14 0 0 -.14 397.6 316.44)" id="text_18"><defs><path d="M3059 3302h-403V1568c0-672-301-1325-992-1325-640 0-864 314-883 909v2150H378V1158C378 390 704-96 1536-96c493 0 928 250 1139 691h13V0h371v3302z" id="HelveticaNeue-Light-75" transform="scale(.01563)"/><path d="M1024 4294H621v-992H45v-339h576V704c-7-563 179-742 717-742 121 0 236 12 358 12v346c-115-13-230-19-346-19-288 19-326 173-326 435v2227h672v339h-672v992z" id="HelveticaNeue-Light-74" transform="scale(.01563)"/><path d="M1779 3398c-1011 0-1561-800-1561-1747S768-96 1779-96s1562 800 1562 1747-551 1747-1562 1747zm0-339c775 0 1159-704 1159-1408S2554 243 1779 243c-774 0-1158 704-1158 1408s384 1408 1158 1408z" id="HelveticaNeue-Light-6f" transform="scale(.01563)"/><path d="M2765 2336c-26 717-551 1062-1210 1062-582 0-1241-256-1241-928 0-563 396-742 921-883l519-115c364-90 723-218 723-602 0-460-525-627-903-627-537 0-940 282-972 826H198C262 262 787-96 1555-96c615 0 1325 275 1325 992 0 576-480 845-941 915l-537 122c-276 70-685 198-685 557 0 428 422 569 781 569 460 0 844-224 864-723h403z" id="HelveticaNeue-Light-73" transform="scale(.01563)"/></defs><use xlink:href="#HelveticaNeue-Light-61"/><use x="51.9" xlink:href="#HelveticaNeue-Light-75"/><use x="105.6" xlink:href="#HelveticaNeue-Light-74"/><use x="135.2" xlink:href="#HelveticaNeue-Light-6f"/><use x="190.8" xlink:href="#HelveticaNeue-Light-74"/><use x="220.4" xlink:href="#HelveticaNeue-Light-6f"/><use x="276" xlink:href="#HelveticaNeue-Light-6f"/><use x="331.6" xlink:href="#HelveticaNeue-Light-6c"/><use x="350.1" xlink:href="#HelveticaNeue-Light-73"/></g><g style="fill:#8c564b" transform="matrix(.14 0 0 -.14 397.6 330.44)" id="text_19"><defs><path d="M1984 1574v372H384v-372h1600z" id="HelveticaNeue-Light-2d" transform="scale(.01563)"/><path d="M646 1651c0 685 314 1408 1082 1408 858 0 1158-723 1158-1408S2586 243 1728 243C960 243 646 966 646 1651zm2644 2919h-404V2675h-12c-173 474-653 723-1146 723-1005 0-1485-812-1485-1747C243 717 723-96 1728-96c480 0 1005 294 1178 723h12V0h372v4570z" id="HelveticaNeue-Light-64" transform="scale(.01563)"/></defs><use xlink:href="#HelveticaNeue-Light-6d"/><use x="83.3" xlink:href="#HelveticaNeue-Light-65"/><use x="135.2" xlink:href="#HelveticaNeue-Light-73"/><use x="183.3" xlink:href="#HelveticaNeue-Light-6f"/><use x="238.9" xlink:href="#HelveticaNeue-Light-6e"/><use x="292.6" xlink:href="#HelveticaNeue-Light-2d"/><use x="329.6" xlink:href="#HelveticaNeue-Light-62"/><use x="387" xlink:href="#HelveticaNeue-Light-75"/><use x="440.7" xlink:href="#HelveticaNeue-Light-69"/><use x="459.2" xlink:href="#HelveticaNeue-Light-6c"/><use x="477.7" xlink:href="#HelveticaNeue-Light-64"/></g><g style="fill:#e377c2" transform="matrix(.14 0 0 -.14 397.6 344.44)" id="text_20"><defs><path d="M646 1651c0 685 314 1408 1082 1408 858 0 1158-723 1158-1408S2586 243 1728 243C960 243 646 966 646 1651zm2644 1651h-372v-627h-12c-173 429-698 723-1178 723-1005 0-1485-812-1485-1747C243 717 723-96 1728-96c493 0 973 250 1146 723h12v-1849h404v4524z" id="HelveticaNeue-Light-71" transform="scale(.01563)"/></defs><use xlink:href="#HelveticaNeue-Light-71"/><use x="57.4" xlink:href="#HelveticaNeue-Light-6d"/><use x="140.7" xlink:href="#HelveticaNeue-Light-61"/><use x="192.6" xlink:href="#HelveticaNeue-Light-6b"/><use x="242.6" xlink:href="#HelveticaNeue-Light-65"/></g><g style="fill:#969696" transform="matrix(.09716 0 0 -.09716 29.766 357.766)" id="text_21"><defs><path d="M230 1504C179 390 973-96 2054-96c1620 0 1748 992 1748 1306 0 748-538 1030-1184 1203l-1114 275c-371 90-691 269-691 698 0 678 550 908 1145 908 647 0 1223-352 1248-1049h436c6 934-788 1421-1690 1421-1286 0-1574-839-1574-1287 0-710 492-966 1030-1101l1018-249c422-103 940-307 940-826 0-665-729-928-1209-928-832 0-1511 288-1491 1229H230z" id="HelveticaNeue-Light-53" transform="scale(.01563)"/><path d="M218 2285C218 1037 934-96 2374-96c1434 0 2151 1133 2151 2381s-717 2381-2151 2381C934 4666 218 3533 218 2285zm435 0c0 998 512 2009 1721 2009 1204 0 1716-1011 1716-2009 0-999-512-2010-1716-2010-1209 0-1721 1011-1721 2010z" id="HelveticaNeue-Light-4f" transform="scale(.01563)"/><path d="M1286 0h429l1235 3302h-416L1510 403h-12L461 3302H13L1286 0z" id="HelveticaNeue-Light-76" transform="scale(.01563)"/><path d="M384 0h403v1760c0 685 499 1222 1229 1184v403c-595 26-1043-288-1248-819h-13v774H384V0z" id="HelveticaNeue-Light-72" transform="scale(.01563)"/><path d="M1114 0h441l807 2778h12L3187 0h442l1062 3302h-429L3418 474h-13l-807 2828h-454L1338 474h-13L480 3302H51L1114 0z" id="HelveticaNeue-Light-77" transform="scale(.01563)"/><path d="M-45 0h467l551 1421h2080L3610 0h467L2285 4570h-487L-45 0zm2067 4134 884-2342H1107l915 2342z" id="HelveticaNeue-Light-41" transform="scale(.01563)"/><path d="M461 0h435v1958h1594c819 0 1356 480 1356 1306s-537 1306-1356 1306H461V0zm435 4198h1498c601 0 1017-307 1017-934s-416-934-1017-934H896v1868z" id="HelveticaNeue-Light-50" transform="scale(.01563)"/><path d="M493 0h435v4570H493V0z" id="HelveticaNeue-Light-49" transform="scale(.01563)"/><path d="M1709 378c-743 0-1088 646-1088 1312 0 684 320 1369 1088 1369 761 0 1062-723 1062-1369 0-672-365-1312-1062-1312zm1465 2924h-403v-569h-13c-160 365-569 665-1049 665-954 0-1491-755-1491-1664C218 794 653 38 1709 38c473 0 864 276 1049 679h13V269c0-807-320-1248-1062-1248-448 0-877 173-967 659H339c58-704 711-998 1370-998 1081 0 1459 601 1465 1587v3033z" id="HelveticaNeue-Light-67" transform="scale(.01563)"/><path d="M544-1370h339v6400H544v-6400z" id="HelveticaNeue-Light-7c" transform="scale(.01563)"/><path d="M454 0h436v3866h12L3565 0h486v4570h-435V704h-13L941 4570H454V0z" id="HelveticaNeue-Light-4e" transform="scale(.01563)"/><path d="M378 0h403v1926c13 647 397 1133 1037 1133 652 0 838-429 838-998V0h403v2125c0 787-281 1273-1209 1273-468 0-909-268-1056-665h-13v1837H378V0z" id="HelveticaNeue-Light-68" transform="scale(.01563)"/><path d="M1779 3398c-1011 0-1561-800-1561-1747S768-96 1779-96s1562 800 1562 1747-551 1747-1562 1747zm0-339c775 0 1159-704 1159-1408S2554 243 1779 243c-774 0-1158 704-1158 1408s384 1408 1158 1408zm787 813v646h-435v-646h435zm-1132 0v646H998v-646h436z" id="HelveticaNeue-Light-f6" transform="scale(.01563)"/><path d="M4237 3187c-115 960-973 1479-1837 1479-1440 0-2157-1133-2157-2381S960-96 2400-96c1069 0 1779 717 1901 1837h-435c-84-813-621-1466-1466-1466-1210 0-1722 1011-1722 2010 0 998 512 2009 1722 2009 666 0 1248-403 1402-1107h435z" id="HelveticaNeue-Light-43" transform="scale(.01563)"/><path d="M896 2195h1498c761 0 1203-301 1203-883 0-730-557-947-1203-941H896v1824zM461 0h1933c1484 0 1638 864 1638 1299 0 595-378 1037-966 1114v13c473 102 793 544 793 1024 0 851-697 1120-1465 1120H461V0zm435 4198h1498c678 0 1030-288 1030-857 0-429-333-775-1030-775H896v1632z" id="HelveticaNeue-Light-42" transform="scale(.01563)"/><path d="M1734 0h436v1882l1804 2688h-518L1958 2253 454 4570H-64l1798-2688V0z" id="HelveticaNeue-Light-59" transform="scale(.01563)"/></defs><use xlink:href="#HelveticaNeue-Light-53"/><use x="63" xlink:href="#HelveticaNeue-Light-74"/><use x="92.6" xlink:href="#HelveticaNeue-Light-61"/><use x="144.5" xlink:href="#HelveticaNeue-Light-63"/><use x="196.4" xlink:href="#HelveticaNeue-Light-6b"/><use x="246.4" xlink:href="#HelveticaNeue-Light-4f"/><use x="320.5" xlink:href="#HelveticaNeue-Light-76"/><use x="366.8" xlink:href="#HelveticaNeue-Light-65"/><use x="418.7" xlink:href="#HelveticaNeue-Light-72"/><use x="450.2" xlink:href="#HelveticaNeue-Light-66"/><use x="476.1" xlink:href="#HelveticaNeue-Light-6c"/><use x="494.6" xlink:href="#HelveticaNeue-Light-6f"/><use x="550.2" xlink:href="#HelveticaNeue-Light-77"/><use x="624.3" xlink:href="#HelveticaNeue-Light-20"/><use x="652.1" xlink:href="#HelveticaNeue-Light-41"/><use x="715.1" xlink:href="#HelveticaNeue-Light-50"/><use x="778.1" xlink:href="#HelveticaNeue-Light-49"/><use x="800.3" xlink:href="#HelveticaNeue-Light-20"/><use x="828.1" xlink:href="#HelveticaNeue-Light-76"/><use x="874.4" xlink:href="#HelveticaNeue-Light-69"/><use x="892.9" xlink:href="#HelveticaNeue-Light-61"/><use x="944.8" xlink:href="#HelveticaNeue-Light-20"/><use x="972.6" xlink:href="#HelveticaNeue-Light-73"/><use x="1020.7" xlink:href="#HelveticaNeue-Light-74"/><use x="1050.3" xlink:href="#HelveticaNeue-Light-61"/><use x="1102.2" xlink:href="#HelveticaNeue-Light-63"/><use x="1154.1" xlink:href="#HelveticaNeue-Light-6b"/><use x="1204.1" xlink:href="#HelveticaNeue-Light-74"/><use x="1233.7" xlink:href="#HelveticaNeue-Light-61"/><use x="1285.6" xlink:href="#HelveticaNeue-Light-67"/><use x="1341.2" xlink:href="#HelveticaNeue-Light-73"/><use x="1389.3" xlink:href="#HelveticaNeue-Light-20"/><use x="1417.1" xlink:href="#HelveticaNeue-Light-7c"/><use x="1439.3" xlink:href="#HelveticaNeue-Light-20"/><use x="1467.1" xlink:href="#HelveticaNeue-Light-4e"/><use x="1537.5" xlink:href="#HelveticaNeue-Light-69"/><use x="1556" xlink:href="#HelveticaNeue-Light-63"/><use x="1607.9" xlink:href="#HelveticaNeue-Light-6f"/><use x="1663.5" xlink:href="#HelveticaNeue-Light-20"/><use x="1691.3" xlink:href="#HelveticaNeue-Light-53"/><use x="1754.3" xlink:href="#HelveticaNeue-Light-63"/><use x="1806.2" xlink:href="#HelveticaNeue-Light-68"/><use x="1859.9" xlink:href="#HelveticaNeue-Light-6c"/><use x="1878.4" xlink:href="#HelveticaNeue-Light-f6"/><use x="1934" xlink:href="#HelveticaNeue-Light-6d"/><use x="2017.3" xlink:href="#HelveticaNeue-Light-65"/><use x="2069.2" xlink:href="#HelveticaNeue-Light-72"/><use x="2100.7" xlink:href="#HelveticaNeue-Light-20"/><use x="2128.5" xlink:href="#HelveticaNeue-Light-7c"/><use x="2150.7" xlink:href="#HelveticaNeue-Light-20"/><use x="2178.499" xlink:href="#HelveticaNeue-Light-43"/><use x="2248.899" xlink:href="#HelveticaNeue-Light-43"/><use x="2319.299" xlink:href="#HelveticaNeue-Light-20"/><use x="2347.099" xlink:href="#HelveticaNeue-Light-42"/><use x="2413.799" xlink:href="#HelveticaNeue-Light-59"/></g><g style="fill:#969696" transform="matrix(.14 0 0 -.14 74.914 17.407)" id="text_22"><defs><path d="M896 4198h928c1312 7 1882-550 1882-1913S3136 365 1824 371H896v3827zM461 0h1581c1376 32 2099 787 2099 2285 0 1497-723 2253-2099 2285H461V0z" id="HelveticaNeue-Light-44" transform="scale(.01563)"/><path d="m1331 13-141-378c-134-307-217-518-576-518-89 0-179 13-275 32v-339c64-26 147-26 307-32 506 0 640 160 871 716l1433 3808h-403L1530 486 442 3302H13L1331 13z" id="HelveticaNeue-Light-79" transform="scale(.01563)"/></defs><use xlink:href="#HelveticaNeue-Light-44"/><use x="68.5" xlink:href="#HelveticaNeue-Light-61"/><use x="120.4" xlink:href="#HelveticaNeue-Light-69"/><use x="138.9" xlink:href="#HelveticaNeue-Light-6c"/><use x="157.4" xlink:href="#HelveticaNeue-Light-79"/><use x="203.7" xlink:href="#HelveticaNeue-Light-20"/><use x="231.5" xlink:href="#HelveticaNeue-Light-6e"/><use x="285.2" xlink:href="#HelveticaNeue-Light-75"/><use x="338.9" xlink:href="#HelveticaNeue-Light-6d"/><use x="422.2" xlink:href="#HelveticaNeue-Light-62"/><use x="479.6" xlink:href="#HelveticaNeue-Light-65"/><use x="531.5" xlink:href="#HelveticaNeue-Light-72"/><use x="563" xlink:href="#HelveticaNeue-Light-20"/><use x="590.8" xlink:href="#HelveticaNeue-Light-6f"/><use x="646.4" xlink:href="#HelveticaNeue-Light-66"/><use x="672.3" xlink:href="#HelveticaNeue-Light-20"/><use x="700.1" xlink:href="#HelveticaNeue-Light-71"/><use x="757.5" xlink:href="#HelveticaNeue-Light-75"/><use x="811.2" xlink:href="#HelveticaNeue-Light-65"/><use x="863.1" xlink:href="#HelveticaNeue-Light-73"/><use x="911.2" xlink:href="#HelveticaNeue-Light-74"/><use x="940.8" xlink:href="#HelveticaNeue-Light-69"/><use x="959.3" xlink:href="#HelveticaNeue-Light-6f"/><use x="1014.9" xlink:href="#HelveticaNeue-Light-6e"/><use x="1068.6" xlink:href="#HelveticaNeue-Light-73"/><use x="1116.7" xlink:href="#HelveticaNeue-Light-20"/><use x="1144.5" xlink:href="#HelveticaNeue-Light-6f"/><use x="1200.1" xlink:href="#HelveticaNeue-Light-6e"/><use x="1253.8" xlink:href="#HelveticaNeue-Light-20"/><use x="1281.6" xlink:href="#HelveticaNeue-Light-53"/><use x="1344.6" xlink:href="#HelveticaNeue-Light-74"/><use x="1374.2" xlink:href="#HelveticaNeue-Light-61"/><use x="1426.1" xlink:href="#HelveticaNeue-Light-63"/><use x="1478" xlink:href="#HelveticaNeue-Light-6b"/><use x="1528" xlink:href="#HelveticaNeue-Light-4f"/><use x="1602.1" xlink:href="#HelveticaNeue-Light-76"/><use x="1648.4" xlink:href="#HelveticaNeue-Light-65"/><use x="1700.3" xlink:href="#HelveticaNeue-Light-72"/><use x="1731.8" xlink:href="#HelveticaNeue-Light-66"/><use x="1757.7" xlink:href="#HelveticaNeue-Light-6c"/><use x="1776.2" xlink:href="#HelveticaNeue-Light-6f"/><use x="1831.8" xlink:href="#HelveticaNeue-Light-77"/></g><path clip-path="url(#pbb73bf3705)" d="m159.236 323.519 2.328-.669 2.327.022h2.366l2.328.647 2.329-1.294 2.326-1.38 2.328 1.38 2.365 1.294h2.252l2.25-2.588 2.329 1.92 2.327-.626 2.328-.043 2.328.043 2.365.647 2.328.647 2.33-.647 2.325-2.028 2.328 1.38h2.366l2.251-.854 2.25 1.502 2.329-.69 2.328-1.251 2.327-.087 2.328 1.38 2.366-.646 2.327 1.272 2.33.022 2.326-1.359 2.327 1.359 2.366-3.235 2.29 3.882 2.287-3.882 2.33 2.545 2.327.043 2.328-.712 2.328 1.359 2.365-3.235 2.328 1.876 2.33.712 2.325.625 2.328-1.272 2.366-1.294 2.25 1.086 2.25-1.086 2.33 1.229 2.328.712 2.327-1.38 2.328.733 2.366-1.294 2.327 2.566 2.33-2.566 2.325-1.445 2.328 2.739 2.366-1.294 2.251.37 2.25-2.312 2.33 3.171 2.327-1.876 2.327 1.207 2.328-2.502 2.366 1.942 2.328-.108 2.329-2.48 2.326 3.148 2.327-2.502 2.366.647 2.252-1.201 2.25 1.201 2.328-.15 2.328 2.092 2.328-3.43 2.327.841 2.366-1.294 2.328-.215 2.329 4.745 2.326-9.426 2.328 5.543 2.365-.647 2.29 3.012 2.288-5.6 2.33.367 2.327 2.221 2.327-.215 2.328-1.079 2.366 5.177 2.327-4.098 2.33 2.804 2.326-6.816 2.327 6.816 2.366-3.883 2.251 1.317 2.25-2.61 2.33-1.64 2.327 1.64 2.328 3.04 2.327-4.335" style="fill:none;stroke:#d62728;stroke-linecap:square;stroke-width:1.5" id="line2d_24"/><path clip-path="url(#pbb73bf3705)" d="m208.04 323.519 2.25-1.294 2.329 1.294H221.968l2.327-2.006 2.33 2.006 2.326-4.012 2.327-.518 2.366-3.235 2.29 2.923 2.287.312 2.33-.82 2.327-4.356 2.328-2.998 2.328 2.998 2.365-1.941 2.328 4.96 2.33-6.254 2.325 2.912 2.328 2.264 2.366-1.294 2.25-3.836 2.25-3.281 2.33-13.912 2.328-4.206 2.327-13.178 2.328 15.766 2.366-.647 2.327 1.596 2.33 6.169 2.325-9.512 2.328 3.688 2.366 5.824 2.251-1.918 2.25 1.27 2.33-.84 2.327 4.076 2.327-14.106 2.328 5.047 2.366 11.647 2.328-6.664 2.329-1.747 2.326-2.265 2.327 10.676 2.366-7.117 2.252-2.126 2.25-.463 2.328 5.716 2.328-7.657 2.328 2.308 2.327-8.131 2.366 11 2.328-12.23 2.329-1.358 2.326-2.653 2.328 14.3 2.365-3.236 2.29-9.059 2.288 9.06 2.33-13.74 2.327 11.151 2.327-3.796 2.328 17.384 2.366-7.764 2.327-.26 2.33 7.377 2.326-1.359 2.327-3.17 2.366-3.883 2.251 5.477 2.25 2.288 2.33-.043 2.327-12.251 2.328 9.576 2.327-3.752" style="fill:none;stroke:#2ca02c;stroke-linecap:square;stroke-width:1.5" id="line2d_25"/><path clip-path="url(#pbb73bf3705)" d="m29.766 305.968 1.795 2.022 2.326 4.162 2.328 1.661 2.366-5.176 2.251-7.326 2.25 3.443 2.329 2.718 2.328-3.365 2.327-2.653 2.328.712 2.366-10.353 2.327 6.967 2.33.15 2.326-.15 2.327-6.32 2.366-7.117 2.251 5.222 2.25-21.399 2.33 19.584 2.327-13.113 2.328 9.102 2.327-19.455 2.366 20.706 2.328-6.6 4.655-11.367 2.328 8.26 2.365-9.705 2.252-11.115 2.25-7.65 2.329-11.884 2.327 18.355 2.328-10.331 2.327 15.507 2.366-5.823 2.328 9.037 2.33-10.331 2.325-11.065 2.328 3.3 2.366-5.176 2.29-30.01 2.287-15.931 2.33 32.439 2.327-13.027 2.327 7.678 2.328-11.56 2.366 24.587 2.327-25.73 2.33 4.377 2.326 6.32 2.327 11.798 2.366-14.882 2.251-36.651 2.25 6.24 2.33 6.081 2.327 26.27 2.328-27.607 2.327 9.49 2.366-6.47 2.328 8.347 2.329-25.818 2.326.41 2.328 22.237 2.365-13.588 2.252-30.666 2.25 16.43 2.329-13.803 2.327 18.333 2.328 42.512 2.328-14.041 2.365-11.647 2.328-6.406 2.33-9.124 2.325 8.455 2.328 20.663 2.366-4.53 2.251-54.722 2.25 33.37 2.329-6.147 2.328 11.97 2.327-27.349 2.328-3.71 2.366 20.06 2.327 23.768 2.33-23.769 2.326-5.65 2.327 27.003 2.366-3.235 2.29-2.834 2.287-4.284 2.33 4.745 2.327 2.373 2.328-17.751 2.328 30.692 2.365 6.47 2.328-4.4 2.33-11.776 2.325-.259 2.328 26.788 2.366-9.058 2.25-12.572 2.25-6.84 2.33 12.38 2.328-3.968 2.327 24.696 2.328-11.108 2.366 7.764 2.327 20.06 2.33-31.06 2.325-.366 2.328 27.543 2.366-23.294 2.251 19.296 2.25-21.237 2.33 12.402 2.327-12.402 2.327-2.977 2.328 17.859 2.366 16.823 2.328-11.28 2.329-37.896 2.326 31.878 2.327 10.18 2.366-10.352 2.252-15.206 2.25 8.088 2.328-.733 2.328 14.968 2.328-7.613 2.327 8.26 2.366 1.942 2.328-9.534 2.329-20.23 2.326 4.183 2.328 11.993 2.365-16.824 2.29 7.23 2.288-17.583 2.33-21.59 2.327 15.12 2.327 18.311 2.328 3.041 2.366 5.177 2.327 3.818 2.33-5.76 2.326-28.34 2.327 32.87 2.366-3.882 2.251-6.494 2.25-7.094 2.33 12.013 2.327 4.163 2.328 4.53 2.327-14.883h0" style="fill:none;stroke:#ff7f0e;stroke-linecap:square;stroke-width:1.5" id="line2d_26"/><path clip-path="url(#pbb73bf3705)" d="m29.766 322.265 1.795 1.254 2.326-1.337 2.328.69 2.366-1.294 2.251-.925 2.25-1.664 2.329-.15 2.328 2.739 2.327-2.07 2.328-3.754 2.366-2.588 2.327 2.33 2.33-1.036 2.326 1.704 2.327-2.35 2.366-1.295 2.251-2.611 2.25 5.2 2.33-5.63 2.327 4.982 2.328-8.325 2.327-2.675 2.366 2.588 2.328-3.925 2.329 4.572 2.326-5.91 2.328 11.087 2.365-9.059 2.252-4.367 2.25-3.398 2.329 3.732 2.327-8.908 2.328 4.227 2.327-10.05 2.366-3.236 2.328 13.955 2.33-9.425 2.325-5.285 2.328 3.99 2.366-1.294 2.29 2.723 2.287-13.075 2.33-.367 2.327 12.014 2.327-10.008 2.328-3.58 2.366 14.235 2.327-3.3 2.33-24.524 2.326 3.128 2.327 7.872 2.366-6.47 2.251-8.089 2.25-.323 2.33-5.694 2.327-4.012 2.328 12.704 2.327-11.41 2.366 22 2.328-19.95 2.329 5.715 2.326.97 2.328 4.206 2.365-5.823 2.252-10.561 2.25 5.384 2.329 7.463 2.327 5.478 2.328-14.17 2.328-16.888 2.365 16.823 2.328-4.615 2.33-.561 2.325-24.178 2.328 42.942 2.366-20.058 2.251-20.544 2.25 10.838 2.329-33.237 2.328 8.649 2.327 7.398 2.328-6.751 2.366 21.353 2.327-31.318 2.33 22.259 2.326.474 2.327 16.996 2.366-25.882 2.29-19.657 2.287 9.304 2.33 3.861 2.327-3.86 2.328-2.826 2.328 19.002 2.365 1.294 2.328-3.58 2.33-28.773 2.325 13.394 2.328 17.018 2.366-45.294 2.25 28.563 2.25-10.446 2.33-9.9 2.328-6.276 2.327-15.12 2.328 20.943 2.366-15.529 2.327 22 2.33-23.941 2.325 11.906 2.328 34.682 2.366-17.47 2.251.554 2.25-25.143 2.33-8.67 2.327-2.33 2.327.993 2.328 10.654 2.366 4.53 2.328-5.824 2.329-23.294 2.326 10.59 2.327 22.41 2.366-18.117 2.252-10.215 2.25-3.374 2.328 10.634 2.328 32.072 2.328-26.055 2.327-35.415 2.366 27.823 2.328-15.81 2.329 11.28 2.326-35.35 2.328 59.939 6.943-81.529 2.33-31.231 2.327 30.584 2.327 5.522 2.328-24.287 2.366 37.53 2.327 8.821 2.33 1.531 2.326-6.211 2.327 35.329 2.366-11 2.251-45.248 2.25 12.248 2.33 28.73 2.327-17.083 2.328 8.39 2.327-10.978h0" style="fill:none;stroke:#1f77b4;stroke-linecap:square;stroke-width:1.5" id="line2d_27"/></g></g><defs><clipPath id="pbb73bf3705"><path d="M29.766 57.407h357.12v266.112H29.766z"/></clipPath></defs></svg>