<svg height="489.395" viewBox="0 0 469.368 367.046" width="625.824" xmlns="http://www.w3.org/2000/svg" xmlns:xlink="http://www.w3.org/1999/xlink"><defs><style>*{stroke-linecap:butt;stroke-linejoin:round}</style></defs><g id="figure_1"><path d="M0 367.046h469.368V0H0z" style="fill:none" id="patch_1"/><g id="axes_1"><path d="M29.766 323.519h357.12V57.407H29.766z" style="fill:none" id="patch_2"/><g id="matplotlib.axis_1"><g id="xtick_1"><g id="line2d_1"><defs><path d="M0 0v3.5" id="m0d32a4c8a8" style="stroke:#969696;stroke-width:.4"/></defs><use style="fill:#969696;stroke:#969696;stroke-width:.4" x="65.253" xlink:href="#m0d32a4c8a8" y="323.519"/></g><g style="fill:#969696" transform="matrix(.14 0 0 -.14 49.687 340.516)" id="text_1"><defs><path d="M3181 371H691c109 602 909 999 1344 1293 583 378 1127 845 1127 1594 0 832-608 1260-1389 1260-973 0-1453-665-1434-1587h403c-12 659 276 1248 1012 1248 544 0 1004-333 1004-915 0-358-128-595-371-845C1626 1658 262 1331 230 0h2951v371z" id="HelveticaNeue-Light-32" transform="scale(.01563)"/><path d="M1779 4179c1024 0 1159-1190 1159-1965 0-780-135-1971-1159-1971S621 1434 621 2214c0 775 134 1965 1158 1965zm0 339C474 4518 218 3258 218 2208 218 1165 474-96 1779-96c1306 0 1562 1261 1562 2310 0 1044-256 2304-1562 2304z" id="HelveticaNeue-Light-30" transform="scale(.01563)"/><path d="M621 3328h1184V0h403v4480h-326c-122-826-557-838-1261-864v-288z" id="HelveticaNeue-Light-31" transform="scale(.01563)"/></defs><use xlink:href="#HelveticaNeue-Light-32"/><use x="55.6" xlink:href="#HelveticaNeue-Light-30"/><use x="111.2" xlink:href="#HelveticaNeue-Light-31"/><use x="166.8" xlink:href="#HelveticaNeue-Light-30"/></g></g><g id="xtick_2"><use style="fill:#969696;stroke:#969696;stroke-width:.4" x="120.964" xlink:href="#m0d32a4c8a8" y="323.519" id="line2d_2"/><g style="fill:#969696" transform="matrix(.14 0 0 -.14 105.397 340.516)" id="text_2"><use xlink:href="#HelveticaNeue-Light-32"/><use x="55.6" xlink:href="#HelveticaNeue-Light-30"/><use x="111.2" xlink:href="#HelveticaNeue-Light-31"/><use x="166.8" xlink:href="#HelveticaNeue-Light-32"/></g></g><g id="xtick_3"><use style="fill:#969696;stroke:#969696;stroke-width:.4" x="176.751" xlink:href="#m0d32a4c8a8" y="323.519" id="line2d_3"/><g style="fill:#969696" transform="matrix(.14 0 0 -.14 161.184 340.516)" id="text_3"><defs><path d="M192 1114h2067V0h371v1114h672v339h-672v3027h-364L192 1504v-390zm365 339 1689 2438h13V1453H557z" id="HelveticaNeue-Light-34" transform="scale(.01563)"/></defs><use xlink:href="#HelveticaNeue-Light-32"/><use x="55.6" xlink:href="#HelveticaNeue-Light-30"/><use x="111.2" xlink:href="#HelveticaNeue-Light-31"/><use x="166.8" xlink:href="#HelveticaNeue-Light-34"/></g></g><g id="xtick_4"><use style="fill:#969696;stroke:#969696;stroke-width:.4" x="232.461" xlink:href="#m0d32a4c8a8" y="323.519" id="line2d_4"/><g style="fill:#969696" transform="matrix(.14 0 0 -.14 216.895 340.516)" id="text_4"><defs><path d="M1856 2579c685 0 1082-531 1082-1184 0-621-436-1152-1076-1152-780 0-1120 519-1120 1152 0 659 410 1184 1114 1184zm1376 768c-96 781-589 1171-1376 1171-1466 0-1600-1702-1600-2233C256 538 736-96 1824-96c883 0 1517 646 1517 1517 0 877-583 1497-1479 1497-505 0-979-300-1190-742h-13c0 813 192 2003 1235 2003 519 0 864-339 935-832h403z" id="HelveticaNeue-Light-36" transform="scale(.01563)"/></defs><use xlink:href="#HelveticaNeue-Light-32"/><use x="55.6" xlink:href="#HelveticaNeue-Light-30"/><use x="111.2" xlink:href="#HelveticaNeue-Light-31"/><use x="166.8" xlink:href="#HelveticaNeue-Light-36"/></g></g><g id="xtick_5"><use style="fill:#969696;stroke:#969696;stroke-width:.4" x="288.248" xlink:href="#m0d32a4c8a8" y="323.519" id="line2d_5"/><g style="fill:#969696" transform="matrix(.14 0 0 -.14 272.682 340.516)" id="text_5"><defs><path d="M1779 243c-627 0-1139 339-1139 1011 0 660 525 986 1139 973 602 13 1139-326 1139-973 0-684-512-1011-1139-1011zm1357 3155c0 768-698 1120-1363 1120-659 0-1357-352-1357-1120 0-492 262-844 730-985v-13c-551-102-896-563-909-1146C237 352 941-96 1779-96c839 0 1543 448 1543 1350 0 602-340 1031-916 1146v13c455 134 730 499 730 985zm-1357-832c-473-12-960 231-960 832 0 512 467 781 960 781 538 0 954-269 954-781 0-576-461-844-954-832z" id="HelveticaNeue-Light-38" transform="scale(.01563)"/></defs><use xlink:href="#HelveticaNeue-Light-32"/><use x="55.6" xlink:href="#HelveticaNeue-Light-30"/><use x="111.2" xlink:href="#HelveticaNeue-Light-31"/><use x="166.8" xlink:href="#HelveticaNeue-Light-38"/></g></g><g id="xtick_6"><use style="fill:#969696;stroke:#969696;stroke-width:.4" x="343.959" xlink:href="#m0d32a4c8a8" y="323.519" id="line2d_6"/><g style="fill:#969696" transform="matrix(.14 0 0 -.14 328.392 340.516)" id="text_6"><use xlink:href="#HelveticaNeue-Light-32"/><use x="55.6" xlink:href="#HelveticaNeue-Light-30"/><use x="111.2" xlink:href="#HelveticaNeue-Light-32"/><use x="166.8" xlink:href="#HelveticaNeue-Light-30"/></g></g></g><g id="matplotlib.axis_2"><g id="ytick_1"><path clip-path="url(#p7e7ba59e87)" d="M29.766 323.519h357.12" style="fill:none;stroke:#969696;stroke-linecap:square;stroke-width:.3" id="line2d_7"/><g id="line2d_8"><defs><path d="M0 0h-3.5" id="mc4f89a1abf" style="stroke:#969696;stroke-width:.3"/></defs><use style="fill:#969696;stroke:#969696;stroke-width:.3" x="29.766" xlink:href="#mc4f89a1abf" y="323.519"/></g><use xlink:href="#HelveticaNeue-Light-30" style="fill:#969696" transform="matrix(.14 0 0 -.14 14.983 328.517)" id="text_7"/></g><g id="ytick_2"><path clip-path="url(#p7e7ba59e87)" d="M29.766 272.409h357.12" style="fill:none;stroke:#969696;stroke-linecap:square;stroke-width:.3" id="line2d_9"/><use style="fill:#969696;stroke:#969696;stroke-width:.3" x="29.766" xlink:href="#mc4f89a1abf" y="272.409" id="line2d_10"/><g style="fill:#969696" transform="matrix(.14 0 0 -.14 7.2 277.407)" id="text_8"><use xlink:href="#HelveticaNeue-Light-31"/><use x="55.6" xlink:href="#HelveticaNeue-Light-30"/></g></g><g id="ytick_3"><path clip-path="url(#p7e7ba59e87)" d="M29.766 221.3h357.12" style="fill:none;stroke:#969696;stroke-linecap:square;stroke-width:.3" id="line2d_11"/><use style="fill:#969696;stroke:#969696;stroke-width:.3" x="29.766" xlink:href="#mc4f89a1abf" y="221.299" id="line2d_12"/><g style="fill:#969696" transform="matrix(.14 0 0 -.14 7.2 226.298)" id="text_9"><use xlink:href="#HelveticaNeue-Light-32"/><use x="55.6" xlink:href="#HelveticaNeue-Light-30"/></g></g><g id="ytick_4"><path clip-path="url(#p7e7ba59e87)" d="M29.766 170.19h357.12" style="fill:none;stroke:#969696;stroke-linecap:square;stroke-width:.3" id="line2d_13"/><use style="fill:#969696;stroke:#969696;stroke-width:.3" x="29.766" xlink:href="#mc4f89a1abf" y="170.189" id="line2d_14"/><g style="fill:#969696" transform="matrix(.14 0 0 -.14 7.2 175.188)" id="text_10"><defs><path d="M211 1427C147 467 813-96 1741-96c825 0 1542 486 1542 1363 0 589-339 1011-921 1107v13c480 115 755 506 755 992 0 794-685 1139-1389 1139-870 0-1408-627-1414-1472h403c-13 666 345 1133 1017 1133 538 0 980-256 980-845 0-563-493-819-909-812h-339v-340h339c595 0 1075-313 1075-947 0-640-557-992-1146-992-723 0-1145 474-1120 1184H211z" id="HelveticaNeue-Light-33" transform="scale(.01563)"/></defs><use xlink:href="#HelveticaNeue-Light-33"/><use x="55.6" xlink:href="#HelveticaNeue-Light-30"/></g></g><g id="ytick_5"><path clip-path="url(#p7e7ba59e87)" d="M29.766 119.08h357.12" style="fill:none;stroke:#969696;stroke-linecap:square;stroke-width:.3" id="line2d_15"/><use style="fill:#969696;stroke:#969696;stroke-width:.3" x="29.766" xlink:href="#mc4f89a1abf" y="119.079" id="line2d_16"/><g style="fill:#969696" transform="matrix(.14 0 0 -.14 7.2 124.078)" id="text_11"><use xlink:href="#HelveticaNeue-Light-34"/><use x="55.6" xlink:href="#HelveticaNeue-Light-30"/></g></g><g id="ytick_6"><path clip-path="url(#p7e7ba59e87)" d="M29.766 67.97h357.12" style="fill:none;stroke:#969696;stroke-linecap:square;stroke-width:.3" id="line2d_17"/><use style="fill:#969696;stroke:#969696;stroke-width:.3" x="29.766" xlink:href="#mc4f89a1abf" y="67.97" id="line2d_18"/><g style="fill:#969696" transform="matrix(.14 0 0 -.14 7.2 72.968)" id="text_12"><defs><path d="M230 1280C250 429 870-96 1702-96c858 0 1556 640 1556 1517 0 902-583 1549-1504 1549-346 0-724-154-948-416l-12 12 288 1485h1958v371H800L365 2099h345c218 339 602 531 999 531 665 0 1145-505 1145-1164 0-653-428-1223-1120-1223-614 0-1081 416-1100 1037H230z" id="HelveticaNeue-Light-35" transform="scale(.01563)"/></defs><use xlink:href="#HelveticaNeue-Light-35"/><use x="55.6" xlink:href="#HelveticaNeue-Light-30"/></g></g></g><path clip-path="url(#p7e7ba59e87)" d="m29.766 323.519 1.795-.66 2.326.66 2.328-.165 2.366-.33 2.251-.053 2.25.383 2.329-2.561 2.328.253 2.327 1.962 2.328-.643 2.366.66 2.327.324 2.33-.654 2.326.313 2.327.016 2.366-.165 2.251-.8 2.25.8 2.33-1.385 2.327-.098 2.328 1.291 2.327.192 2.366-1.813 2.328 1.45 2.329.199 2.326-.54 2.328-.12 2.365.495 4.501-.495 2.33.462 2.327-.132 2.328-.72 2.327-.27 2.366-.989 2.328.066 2.33 1.583 2.325.632 2.328-1.786 2.366-1.154 2.29-.262 2.287.756 2.33.402 2.327-.072 2.327-.61 2.328-1.203 2.366 1.319 2.327-1.138 2.33 1.302 2.326-.11 2.327-1.373 2.366.989 2.251-2.414 2.25.6 2.33-.698 2.327 1.688 2.328.527 2.327-.857 2.366-.66 2.328 1.176 2.329-2.165 2.326 1.825 2.328-.836 2.365.33 2.252-2.938 2.25 1.29 2.329 2.665 2.327.302 2.328-2.517 2.328 1.033 2.365.165 2.328.335 2.33-1.49 2.325-.725 2.328 3.364 4.617-2.232 2.25-.076 2.329-.544 2.328.05 2.327-.391 2.328-.105 2.366 1.32 2.327.659 2.33.824 2.326-.994 2.327.665 2.366-.825 2.29-2.314 2.287.5 2.33 1.803 2.327.011 2.328-1.885 2.328 3.04 2.365-.99 2.328-1.198 2.33 1.198 2.325.506 2.328-.341 2.366-.495 2.25-.235 2.25-.424 2.33 2.346 2.328-.862 2.327.522 2.328-2.006 2.366 1.649 2.327-.495 2.33-1.484 2.325.462 2.328 3.165 2.366-3.132 2.251 1.536 2.25-2.03 2.33 3.698 2.327-1.556 2.327-.66 2.328.166 2.366.33 2.328.868 2.329-2.023 2.326-.873 2.327.709 2.366-.66 2.252 2.031 2.25.442 2.328-.478 2.328.973 2.328-.973 2.327-2.49 2.366-.164 2.328.95 2.329-4.413 2.326-.698 2.328.369 2.365-.33 2.29-3.252 2.288 2.592 2.33-3.979 2.327-1.132 2.327.451 2.328 2.847 2.366.165 2.327.566 2.33.093 2.326 1.61 2.327 3.501 2.366-4.946 2.251-.648 2.25 1.802 2.33-1.072 2.327.413 2.328 1.802 2.327.176h0" style="fill:none;stroke:#2ca02c;stroke-linecap:square;stroke-width:1.5" id="line2d_19"/><path clip-path="url(#p7e7ba59e87)" d="m29.766 308.505 1.795 5.451 2.326 2.919 2.328-.446 2.366-2.802 2.251-4.346 2.25-2.084 2.329 4.907 2.328-5.072 2.327-2.253 2.328.44 2.366-.495 2.327-1.138 2.33-5.457 2.326 3.753 2.327 1.852 2.366-6.594 2.251-1.366 2.25-8.856 2.33 1.335 2.327 4.765 2.328-3.061 2.327 1.247 2.366-5.605 2.328-8.25 2.329 3.963 2.326-10.266 2.328 3.506 2.365-3.627 2.252-3.08 2.25-6.153 2.329-3.423 2.327-1.852h4.655l2.366-8.08 2.328 6.184 2.33-6.348 2.325-13.415 2.328-3.731 2.366-7.42 2.29-6.361 2.287-8.147 2.33 2.83 2.327-1.346 4.655.989 2.366-6.43 2.327-5.48 2.33-8.864 2.326-5.105 2.327 24.395 2.366-26.874 2.251-28.358 2.25-6.76 2.33 14.427 2.327-3.215 2.328 8.496 2.327-13.772 2.366-11.54 2.328-.243 2.329-17.4 2.326-30.813 2.328 37.574 2.365-29.182 2.252-38.292 2.25 20.65 2.329 11.805 2.327 22.983 2.328-.324 2.328-3.303 2.365 13.684 2.328-18.73 2.33-1.384 2.325-4.748 2.328 44.647 2.366-30.666 2.251-36.178 2.25-1.248 2.329.275 2.328 33.029 2.327-27.407 2.328 22.46 2.366 16.982 2.327 2.298 2.33-25.215 2.326 4.26 2.327 18.822 2.366-11.376 2.29-40.962 2.287 11.286 2.33-28.37 2.327 30.018 2.328 5.93 2.328 15.009 2.365-17.971 2.328 11.31 2.33 9.464 2.325-8.953 2.328 26.264 2.366-9.233 2.25-34.664 2.25-26.173 2.33 20.296 2.328 6.248 2.327-3.522 2.328 20.999 2.366 5.11 2.327 12.393 2.33-32.672 2.325 14.102 2.328 39.811 2.366-25.885 2.251-9.35 2.25 10.834 2.33 7.42 2.327 17.97 2.327 3.666 2.328 2.764 2.366-4.946 2.328-11.277 2.329-5.21 2.326 1.803 2.327 39.415 2.366-28.688 2.252-17.323 2.25 1.001 2.328-.198 2.328 2.341 2.328 18.444 2.327-21.246 2.366 18.3 2.328-5.743 2.329-33.331 2.326 16.806 2.328 33.48 2.365-18.796 2.29-25.447 2.288-10.33 2.33-26.27 2.327 12.916 2.327 15.366 2.328 26.346 2.366 20.939 2.327-16.449 2.33-3.666 2.326 1.962 2.327 57.392 2.366-22.917 2.251-25.384 2.25-3.304 2.33 7.502 2.327 17.888 2.328-18.91 2.327 36.387h0" style="fill:none;stroke:#ff7f0e;stroke-linecap:square;stroke-width:1.5" id="line2d_20"/><path clip-path="url(#p7e7ba59e87)" d="m29.766 316.172 1.795 2.4 2.326.177 2.328-.341 2.366-.165 2.251-4.216 2.25.094 2.329-.483 2.328.813 2.327-3.88 2.328 2.396 2.366-1.813 2.327.269 2.33 3.193 2.326-2.17 2.327 1.84 2.366-6.265 2.251-.383 2.25 1.537 2.33 2.418 2.327-.604 2.328-.418 2.327-2.715 2.366-4.451 2.328 2.566 2.329 1.555 2.326-6.495 2.328 3.693 2.365-4.782 2.252-.7 2.25-6.224 2.329 2.05 2.327-.896 2.328-1.83 2.327.84 2.366-.164 2.328-.847 2.33 7.607 2.325-8.288 2.328-1.605 2.366-8.738 2.29-5.39 2.287-2.853 2.33.357 2.327-7.447 2.327.291 2.328-5.896 2.366 8.408 2.327 4.644 2.33-7.941 2.326-5.348 2.327 13.261 2.366-15.168 2.251-5.917 2.25 5.588 2.33-3.556 2.327-8.15 2.328 3.38 2.327-12.778 2.366 6.43 2.328-5.748 2.329-7.277 2.326 8.98 2.328 6.518 2.365-15.827 2.252-8.226 2.25-1.337 2.329.643 2.327 2.82 2.328-4.183 2.328-9.337 2.365 9.562 2.328-5.506 2.33 5.836 2.325 18.356 2.328-7.64 2.366-20.608 2.251-9.05 2.25 4.763 2.329-9.546 2.328 13.338 2.327-16.404 2.328-9.48 2.366 5.77 2.327 12.569 2.33 9.194 2.326-11.92 2.327 6.81 2.366-10.553 2.29-27.152 2.287-1.04 2.33-3.16 2.327 17.338 2.328-6.094 2.328 8.238 2.365-18.136 2.328 10.409 2.33 4.594 2.325-6.639 2.328 14.718 2.366-19.455 2.25-13.979 2.25-2.673 2.33 23.774 2.328-28.72 2.327-5.353 2.328 13.102 2.366.165 2.327 2.748 2.33-.935 2.325 4.683 2.328 36.205 2.366-32.15 2.251-7.742 2.25.818 2.33 14.113 2.327 5.342 2.327-17.779 2.328-13.712 2.366 2.968 2.328 18.07 2.329-26.808 2.326 9.43 2.327 30.798 2.366-30.336 2.252.524 2.25-12.56 2.328 6.293 2.328-17.668 2.328 11.705 2.327-17.311 2.366 20.444 2.328-2.962 2.329-15.174 2.326 6.655 2.328 35.222 2.365-37.59 2.29-.74 2.288-15.418 2.33-16.91 4.654 8.86 2.328 20.746 2.366 13.849 2.327-18.581 2.33 23.032 2.326-4.462 2.327 23.257 2.366-17.146 2.251-24.39 2.25-11.057 2.33 14.343 2.327 23.742 2.328-10.283 2.327 12.756h0" style="fill:none;stroke:#1f77b4;stroke-linecap:square;stroke-width:1.5" id="line2d_21"/><g style="fill:#1f77b4" transform="matrix(.14 0 0 -.14 397.6 154.067)" id="text_13"><defs><path d="M3027 1651c0-685-313-1408-1081-1408-858 0-1159 723-1159 1408 0 749 269 1408 1159 1408 768 0 1081-723 1081-1408zM384-1222h403V627h13C973 154 1453-96 1946-96c1004 0 1484 813 1484 1747 0 935-480 1747-1484 1747-532 0-992-275-1178-723h-13v627H384v-4524z" id="HelveticaNeue-Light-70" transform="scale(.01563)"/><path d="M1779 3398c-1011 0-1561-800-1561-1747S768-96 1779-96s1562 800 1562 1747-551 1747-1562 1747zm0-339c775 0 1159-704 1159-1408S2554 243 1779 243c-774 0-1158 704-1158 1408s384 1408 1158 1408z" id="HelveticaNeue-Light-6f" transform="scale(.01563)"/><path d="M1114 0h441l807 2778h12L3187 0h442l1062 3302h-429L3418 474h-13l-807 2828h-454L1338 474h-13L480 3302H51L1114 0z" id="HelveticaNeue-Light-77" transform="scale(.01563)"/><path d="M3162 1542c32 928-391 1856-1453 1856-1050 0-1491-876-1491-1747C218 710 659-96 1709-96c832 0 1267 435 1440 1184h-403c-128-499-448-845-1037-845-775 0-1082 711-1088 1299h2541zM621 1882c64 601 429 1177 1088 1177 653 0 1030-569 1049-1177H621z" id="HelveticaNeue-Light-65" transform="scale(.01563)"/><path d="M384 0h403v1760c0 685 499 1222 1229 1184v403c-595 26-1043-288-1248-819h-13v774H384V0z" id="HelveticaNeue-Light-72" transform="scale(.01563)"/><path d="M2765 2336c-26 717-551 1062-1210 1062-582 0-1241-256-1241-928 0-563 396-742 921-883l519-115c364-90 723-218 723-602 0-460-525-627-903-627-537 0-940 282-972 826H198C262 262 787-96 1555-96c615 0 1325 275 1325 992 0 576-480 845-941 915l-537 122c-276 70-685 198-685 557 0 428 422 569 781 569 460 0 844-224 864-723h403z" id="HelveticaNeue-Light-73" transform="scale(.01563)"/><path d="M378 0h403v1926c13 647 397 1133 1037 1133 652 0 838-429 838-998V0h403v2125c0 787-281 1273-1209 1273-468 0-909-268-1056-665h-13v1837H378V0z" id="HelveticaNeue-Light-68" transform="scale(.01563)"/><path d="M390 0h404v4570H390V0z" id="HelveticaNeue-Light-6c" transform="scale(.01563)"/></defs><use xlink:href="#HelveticaNeue-Light-70"/><use x="57.4" xlink:href="#HelveticaNeue-Light-6f"/><use x="113" xlink:href="#HelveticaNeue-Light-77"/><use x="187.1" xlink:href="#HelveticaNeue-Light-65"/><use x="239" xlink:href="#HelveticaNeue-Light-72"/><use x="270.5" xlink:href="#HelveticaNeue-Light-73"/><use x="318.6" xlink:href="#HelveticaNeue-Light-68"/><use x="372.3" xlink:href="#HelveticaNeue-Light-65"/><use x="424.2" xlink:href="#HelveticaNeue-Light-6c"/><use x="442.7" xlink:href="#HelveticaNeue-Light-6c"/></g><g style="fill:#ff7f0e" transform="matrix(.14 0 0 -.14 397.6 181.105)" id="text_14"><defs><path d="M3027 1651c0-685-313-1408-1081-1408-858 0-1159 723-1159 1408s301 1408 1159 1408c768 0 1081-723 1081-1408zM384 0h371v627h13C954 179 1414-96 1946-96c1004 0 1484 813 1484 1747 0 935-480 1747-1484 1747-493 0-973-249-1146-723h-13v1895H384V0z" id="HelveticaNeue-Light-62" transform="scale(.01563)"/><path d="M2496 1280c6-646-538-1037-1152-1037-378 0-736 250-736 653 0 646 851 640 1536 762 109 19 288 51 339 147h13v-525zM749 2291c13 538 384 768 883 768 474 0 864-134 864-678 0-365-186-410-518-448-871-103-1773-135-1773-1063 0-665 499-966 1107-966 634 0 922 243 1203 672h13c0-346 64-576 474-576 108 0 172 6 262 26v339c-32-13-83-26-128-26-160 0-237 90-237 243v1754c0 883-633 1062-1216 1062-755 0-1299-332-1337-1107h403z" id="HelveticaNeue-Light-61" transform="scale(.01563)"/></defs><use xlink:href="#HelveticaNeue-Light-62"/><use x="57.4" xlink:href="#HelveticaNeue-Light-61"/><use x="109.3" xlink:href="#HelveticaNeue-Light-73"/><use x="157.4" xlink:href="#HelveticaNeue-Light-68"/></g><g style="fill:#2ca02c" transform="matrix(.14 0 0 -.14 397.6 316.794)" id="text_15"><defs><path d="M2765 3014v288H243v-339h2010L96 326V0h2758v339H582l2183 2675z" id="HelveticaNeue-Light-7a" transform="scale(.01563)"/></defs><use xlink:href="#HelveticaNeue-Light-7a"/><use x="46.3" xlink:href="#HelveticaNeue-Light-73"/><use x="94.4" xlink:href="#HelveticaNeue-Light-68"/></g><g style="fill:#969696" transform="matrix(.09716 0 0 -.09716 29.766 357.766)" id="text_16"><defs><path d="M230 1504C179 390 973-96 2054-96c1620 0 1748 992 1748 1306 0 748-538 1030-1184 1203l-1114 275c-371 90-691 269-691 698 0 678 550 908 1145 908 647 0 1223-352 1248-1049h436c6 934-788 1421-1690 1421-1286 0-1574-839-1574-1287 0-710 492-966 1030-1101l1018-249c422-103 940-307 940-826 0-665-729-928-1209-928-832 0-1511 288-1491 1229H230z" id="HelveticaNeue-Light-53" transform="scale(.01563)"/><path d="M1024 4294H621v-992H45v-339h576V704c-7-563 179-742 717-742 121 0 236 12 358 12v346c-115-13-230-19-346-19-288 19-326 173-326 435v2227h672v339h-672v992z" id="HelveticaNeue-Light-74" transform="scale(.01563)"/><path d="M3117 2266c-90 755-634 1132-1338 1132-1011 0-1561-800-1561-1747S768-96 1779-96c736 0 1255 486 1363 1280h-403c-51-550-461-941-960-941-774 0-1158 704-1158 1408s384 1408 1158 1408c525 0 826-301 935-793h403z" id="HelveticaNeue-Light-63" transform="scale(.01563)"/><path d="M384 0h403v1254l653 544L2746 0h505L1747 2080l1408 1222h-537L787 1702v2868H384V0z" id="HelveticaNeue-Light-6b" transform="scale(.01563)"/><path d="M218 2285C218 1037 934-96 2374-96c1434 0 2151 1133 2151 2381s-717 2381-2151 2381C934 4666 218 3533 218 2285zm435 0c0 998 512 2009 1721 2009 1204 0 1716-1011 1716-2009 0-999-512-2010-1716-2010-1209 0-1721 1011-1721 2010z" id="HelveticaNeue-Light-4f" transform="scale(.01563)"/><path d="M1286 0h429l1235 3302h-416L1510 403h-12L461 3302H13L1286 0z" id="HelveticaNeue-Light-76" transform="scale(.01563)"/><path d="M1658 3302h-653v288c6 359-7 640 441 640 96 0 186-12 295-32v346c-128 19-224 26-339 26-647 0-807-397-800-967v-301H38v-339h564V0h403v2963h653v339z" id="HelveticaNeue-Light-66" transform="scale(.01563)"/><path d="M-45 0h467l551 1421h2080L3610 0h467L2285 4570h-487L-45 0zm2067 4134 884-2342H1107l915 2342z" id="HelveticaNeue-Light-41" transform="scale(.01563)"/><path d="M461 0h435v1958h1594c819 0 1356 480 1356 1306s-537 1306-1356 1306H461V0zm435 4198h1498c601 0 1017-307 1017-934s-416-934-1017-934H896v1868z" id="HelveticaNeue-Light-50" transform="scale(.01563)"/><path d="M493 0h435v4570H493V0z" id="HelveticaNeue-Light-49" transform="scale(.01563)"/><path d="M390 0h404v3302H390V0zm0 3923h404v647H390v-647z" id="HelveticaNeue-Light-69" transform="scale(.01563)"/><path d="M1709 378c-743 0-1088 646-1088 1312 0 684 320 1369 1088 1369 761 0 1062-723 1062-1369 0-672-365-1312-1062-1312zm1465 2924h-403v-569h-13c-160 365-569 665-1049 665-954 0-1491-755-1491-1664C218 794 653 38 1709 38c473 0 864 276 1049 679h13V269c0-807-320-1248-1062-1248-448 0-877 173-967 659H339c58-704 711-998 1370-998 1081 0 1459 601 1465 1587v3033z" id="HelveticaNeue-Light-67" transform="scale(.01563)"/><path d="M544-1370h339v6400H544v-6400z" id="HelveticaNeue-Light-7c" transform="scale(.01563)"/><path d="M454 0h436v3866h12L3565 0h486v4570h-435V704h-13L941 4570H454V0z" id="HelveticaNeue-Light-4e" transform="scale(.01563)"/><path d="M1779 3398c-1011 0-1561-800-1561-1747S768-96 1779-96s1562 800 1562 1747-551 1747-1562 1747zm0-339c775 0 1159-704 1159-1408S2554 243 1779 243c-774 0-1158 704-1158 1408s384 1408 1158 1408zm787 813v646h-435v-646h435zm-1132 0v646H998v-646h436z" id="HelveticaNeue-Light-f6" transform="scale(.01563)"/><path d="M384 0h403v1843c7 691 288 1216 986 1216 512 0 697-371 691-819V0h403v1869c0 614 199 1190 896 1190 576 0 781-294 781-838V0h403v2240c0 781-371 1158-1094 1158-435 0-851-211-1050-646-121 435-512 646-947 646-525 0-870-256-1082-652h-19v556H384V0z" id="HelveticaNeue-Light-6d" transform="scale(.01563)"/><path d="M4237 3187c-115 960-973 1479-1837 1479-1440 0-2157-1133-2157-2381S960-96 2400-96c1069 0 1779 717 1901 1837h-435c-84-813-621-1466-1466-1466-1210 0-1722 1011-1722 2010 0 998 512 2009 1722 2009 666 0 1248-403 1402-1107h435z" id="HelveticaNeue-Light-43" transform="scale(.01563)"/><path d="M896 2195h1498c761 0 1203-301 1203-883 0-730-557-947-1203-941H896v1824zM461 0h1933c1484 0 1638 864 1638 1299 0 595-378 1037-966 1114v13c473 102 793 544 793 1024 0 851-697 1120-1465 1120H461V0zm435 4198h1498c678 0 1030-288 1030-857 0-429-333-775-1030-775H896v1632z" id="HelveticaNeue-Light-42" transform="scale(.01563)"/><path d="M1734 0h436v1882l1804 2688h-518L1958 2253 454 4570H-64l1798-2688V0z" id="HelveticaNeue-Light-59" transform="scale(.01563)"/></defs><use xlink:href="#HelveticaNeue-Light-53"/><use x="63" xlink:href="#HelveticaNeue-Light-74"/><use x="92.6" xlink:href="#HelveticaNeue-Light-61"/><use x="144.5" xlink:href="#HelveticaNeue-Light-63"/><use x="196.4" xlink:href="#HelveticaNeue-Light-6b"/><use x="246.4" xlink:href="#HelveticaNeue-Light-4f"/><use x="320.5" xlink:href="#HelveticaNeue-Light-76"/><use x="366.8" xlink:href="#HelveticaNeue-Light-65"/><use x="418.7" xlink:href="#HelveticaNeue-Light-72"/><use x="450.2" xlink:href="#HelveticaNeue-Light-66"/><use x="476.1" xlink:href="#HelveticaNeue-Light-6c"/><use x="494.6" xlink:href="#HelveticaNeue-Light-6f"/><use x="550.2" xlink:href="#HelveticaNeue-Light-77"/><use x="624.3" xlink:href="#HelveticaNeue-Light-20"/><use x="652.1" xlink:href="#HelveticaNeue-Light-41"/><use x="715.1" xlink:href="#HelveticaNeue-Light-50"/><use x="778.1" xlink:href="#HelveticaNeue-Light-49"/><use x="800.3" xlink:href="#HelveticaNeue-Light-20"/><use x="828.1" xlink:href="#HelveticaNeue-Light-76"/><use x="874.4" xlink:href="#HelveticaNeue-Light-69"/><use x="892.9" xlink:href="#HelveticaNeue-Light-61"/><use x="944.8" xlink:href="#HelveticaNeue-Light-20"/><use x="972.6" xlink:href="#HelveticaNeue-Light-73"/><use x="1020.7" xlink:href="#HelveticaNeue-Light-74"/><use x="1050.3" xlink:href="#HelveticaNeue-Light-61"/><use x="1102.2" xlink:href="#HelveticaNeue-Light-63"/><use x="1154.1" xlink:href="#HelveticaNeue-Light-6b"/><use x="1204.1" xlink:href="#HelveticaNeue-Light-74"/><use x="1233.7" xlink:href="#HelveticaNeue-Light-61"/><use x="1285.6" xlink:href="#HelveticaNeue-Light-67"/><use x="1341.2" xlink:href="#HelveticaNeue-Light-73"/><use x="1389.3" xlink:href="#HelveticaNeue-Light-20"/><use x="1417.1" xlink:href="#HelveticaNeue-Light-7c"/><use x="1439.3" xlink:href="#HelveticaNeue-Light-20"/><use x="1467.1" xlink:href="#HelveticaNeue-Light-4e"/><use x="1537.5" xlink:href="#HelveticaNeue-Light-69"/><use x="1556" xlink:href="#HelveticaNeue-Light-63"/><use x="1607.9" xlink:href="#HelveticaNeue-Light-6f"/><use x="1663.5" xlink:href="#HelveticaNeue-Light-20"/><use x="1691.3" xlink:href="#HelveticaNeue-Light-53"/><use x="1754.3" xlink:href="#HelveticaNeue-Light-63"/><use x="1806.2" xlink:href="#HelveticaNeue-Light-68"/><use x="1859.9" xlink:href="#HelveticaNeue-Light-6c"/><use x="1878.4" xlink:href="#HelveticaNeue-Light-f6"/><use x="1934" xlink:href="#HelveticaNeue-Light-6d"/><use x="2017.3" xlink:href="#HelveticaNeue-Light-65"/><use x="2069.2" xlink:href="#HelveticaNeue-Light-72"/><use x="2100.7" xlink:href="#HelveticaNeue-Light-20"/><use x="2128.5" xlink:href="#HelveticaNeue-Light-7c"/><use x="2150.7" xlink:href="#HelveticaNeue-Light-20"/><use x="2178.499" xlink:href="#HelveticaNeue-Light-43"/><use x="2248.899" xlink:href="#HelveticaNeue-Light-43"/><use x="2319.299" xlink:href="#HelveticaNeue-Light-20"/><use x="2347.099" xlink:href="#HelveticaNeue-Light-42"/><use x="2413.799" xlink:href="#HelveticaNeue-Light-59"/></g><g style="fill:#969696" transform="matrix(.14 0 0 -.14 74.914 17.407)" id="text_17"><defs><path d="M896 4198h928c1312 7 1882-550 1882-1913S3136 365 1824 371H896v3827zM461 0h1581c1376 32 2099 787 2099 2285 0 1497-723 2253-2099 2285H461V0z" id="HelveticaNeue-Light-44" transform="scale(.01563)"/><path d="m1331 13-141-378c-134-307-217-518-576-518-89 0-179 13-275 32v-339c64-26 147-26 307-32 506 0 640 160 871 716l1433 3808h-403L1530 486 442 3302H13L1331 13z" id="HelveticaNeue-Light-79" transform="scale(.01563)"/><path d="M378 0h403v1926c13 647 397 1133 1037 1133 652 0 838-429 838-998V0h403v2125c0 787-281 1273-1209 1273-468 0-909-268-1056-665h-13v569H378V0z" id="HelveticaNeue-Light-6e" transform="scale(.01563)"/><path d="M3059 3302h-403V1568c0-672-301-1325-992-1325-640 0-864 314-883 909v2150H378V1158C378 390 704-96 1536-96c493 0 928 250 1139 691h13V0h371v3302z" id="HelveticaNeue-Light-75" transform="scale(.01563)"/><path d="M646 1651c0 685 314 1408 1082 1408 858 0 1158-723 1158-1408S2586 243 1728 243C960 243 646 966 646 1651zm2644 1651h-372v-627h-12c-173 429-698 723-1178 723-1005 0-1485-812-1485-1747C243 717 723-96 1728-96c493 0 973 250 1146 723h12v-1849h404v4524z" id="HelveticaNeue-Light-71" transform="scale(.01563)"/></defs><use xlink:href="#HelveticaNeue-Light-44"/><use x="68.5" xlink:href="#HelveticaNeue-Light-61"/><use x="120.4" xlink:href="#HelveticaNeue-Light-69"/><use x="138.9" xlink:href="#HelveticaNeue-Light-6c"/><use x="157.4" xlink:href="#HelveticaNeue-Light-79"/><use x="203.7" xlink:href="#HelveticaNeue-Light-20"/><use x="231.5" xlink:href="#HelveticaNeue-Light-6e"/><use x="285.2" xlink:href="#HelveticaNeue-Light-75"/><use x="338.9" xlink:href="#HelveticaNeue-Light-6d"/><use x="422.2" xlink:href="#HelveticaNeue-Light-62"/><use x="479.6" xlink:href="#HelveticaNeue-Light-65"/><use x="531.5" xlink:href="#HelveticaNeue-Light-72"/><use x="563" xlink:href="#HelveticaNeue-Light-20"/><use x="590.8" xlink:href="#HelveticaNeue-Light-6f"/><use x="646.4" xlink:href="#HelveticaNeue-Light-66"/><use x="672.3" xlink:href="#HelveticaNeue-Light-20"/><use x="700.1" xlink:href="#HelveticaNeue-Light-71"/><use x="757.5" xlink:href="#HelveticaNeue-Light-75"/><use x="811.2" xlink:href="#HelveticaNeue-Light-65"/><use x="863.1" xlink:href="#HelveticaNeue-Light-73"/><use x="911.2" xlink:href="#HelveticaNeue-Light-74"/><use x="940.8" xlink:href="#HelveticaNeue-Light-69"/><use x="959.3" xlink:href="#HelveticaNeue-Light-6f"/><use x="1014.9" xlink:href="#HelveticaNeue-Light-6e"/><use x="1068.6" xlink:href="#HelveticaNeue-Light-73"/><use x="1116.7" xlink:href="#HelveticaNeue-Light-20"/><use x="1144.5" xlink:href="#HelveticaNeue-Light-6f"/><use x="1200.1" xlink:href="#HelveticaNeue-Light-6e"/><use x="1253.8" xlink:href="#HelveticaNeue-Light-20"/><use x="1281.6" xlink:href="#HelveticaNeue-Light-53"/><use x="1344.6" xlink:href="#HelveticaNeue-Light-74"/><use x="1374.2" xlink:href="#HelveticaNeue-Light-61"/><use x="1426.1" xlink:href="#HelveticaNeue-Light-63"/><use x="1478" xlink:href="#HelveticaNeue-Light-6b"/><use x="1528" xlink:href="#HelveticaNeue-Light-4f"/><use x="1602.1" xlink:href="#HelveticaNeue-Light-76"/><use x="1648.4" xlink:href="#HelveticaNeue-Light-65"/><use x="1700.3" xlink:href="#HelveticaNeue-Light-72"/><use x="1731.8" xlink:href="#HelveticaNeue-Light-66"/><use x="1757.7" xlink:href="#HelveticaNeue-Light-6c"/><use x="1776.2" xlink:href="#HelveticaNeue-Light-6f"/><use x="1831.8" xlink:href="#HelveticaNeue-Light-77"/></g></g></g><defs><clipPath id="p7e7ba59e87"><path d="M29.766 57.407h357.12v266.112H29.766z"/></clipPath></defs></svg>