<svg height="475.651" viewBox="0 0 480.207 356.738" width="640.276" xmlns="http://www.w3.org/2000/svg" xmlns:xlink="http://www.w3.org/1999/xlink"><defs><style>*{stroke-linecap:butt;stroke-linejoin:round}</style></defs><g id="figure_1"><path d="M0 356.738h480.207V0H0z" fill="none" id="patch_1"/><g id="axes_1"><path d="M37.556 313.628h357.12V47.516H37.556z" fill="none" id="patch_2"/><path clip-path="url(#pda513c513b)" d="M73.256 313.628l2.751-.128 2.753-.144 2.798.1 2.663-.54 2.661-.178 2.755-.464 2.753-.723 2.753.033 2.753-.527 2.798-1.039 2.753-.606 2.755-.63 2.75-.034 2.754-1.474 2.798-.124 2.708-2.482 2.706 1.171 2.755-1.051 2.753-1.174 2.753-2.071 2.753.34 2.798.074 2.753 2.396 2.755-1.407 2.75 1.458 2.754-1.507 2.798-2.918 2.662-1.38 2.661 1.9 2.755.763 2.753-.69 2.753 1.2 2.753-.829 2.798-.815 2.753 1.415 2.755.39 2.751-.416 2.753 2.122 2.798-1.558 2.663-2.332 2.66 1.961 2.756 1.034 2.753 2.477 2.753.435 2.753-1.177 2.798 1.855 2.753.217 2.754-.761 2.752 1.246 2.753.707 2.798.173 2.662.155 2.661.167 2.755.459 2.753-.064 2.753-.651 2.753-.387 2.798 1.113 2.753-.139 2.755-.158 2.751.925 2.753 1.671 2.798-.321 2.708-.256 2.706-.016 2.755.071 2.753.695 2.753.302 2.753.218 2.798-.124 2.753.161 2.755-.73 2.75.705 2.754.507 2.798-.05 2.663.2 2.66-.224 2.755.461 2.753-.115 2.753-.09 2.753.436 2.798.025h2.753l2.755.296 2.751-.143 2.753.168 2.798-.05 2.663-.025 2.66.125 2.756.038 2.753-.063 2.753.088 2.753.036 2.798-.075 2.753.192 2.755-.043 2.75-.084 2.754.084 2.798-.025 2.663-.19 2.66.215 2.755-.033 2.753-.09 2.753.14 2.753-.116 2.798-.124 2.753.215 2.755-.116 2.751.065 2.753.059 2.798.024 2.708-.093 2.706.168 2.755-.005 2.753-.094 2.753.043 2.753.105" fill="none" stroke="#e377c2" stroke-linecap="square" stroke-width="1.5" id="line2d_1"/><g id="matplotlib.axis_1"><g id="xtick_1"><g id="line2d_2"><defs><path d="M0 0v3.5" id="mb5406feffd" stroke="#969696" stroke-width=".4"/></defs><use x="47.214" xlink:href="#mb5406feffd" y="313.628" fill="#969696" stroke="#969696" stroke-width=".4"/></g><g transform="matrix(.14 0 0 -.14 31.643 330.678)" fill="#969696" id="text_1"><defs><path d="M4.39 45.125q0 12.39 6.391 18.781 6.406 6.407 17.938 6.407 9.656 0 15.812-5.86 6.157-5.86 6.157-15.14 0-7.22-3.547-12.188-3.532-4.953-10.422-8.703l-12.11-6.64Q13.922 15.921 12.5 8.296h38.188V0H2.593q.39 9.906 4.297 16.5 3.906 6.594 12.203 11.375l12.593 7.328q5.032 2.89 7.329 5.984 2.297 3.094 2.297 8.516 0 5.375-3.766 9.031-3.75 3.672-10.156 3.672-7.078 0-10.594-4.672-3.516-4.656-3.61-12.609z" id="HelveticaWorld-Regular-50"/><path d="M42.484 34.188q0 14.109-3.734 21.156-3.734 7.062-10.969 7.062-7.078 0-10.89-7.062-3.797-7.047-3.797-21.157 0-13.671 3.75-20.937Q20.609 6 27.78 6q7.235 0 10.969 7 3.734 7.016 3.734 21.188zm9.422 0q0-17.297-6.25-26.704-6.25-9.39-17.875-9.39-12.062 0-18.062 9.734-6 9.75-6 26.36 0 17.03 6.14 26.578 6.157 9.547 17.922 9.547 11.625 0 17.875-9.5t6.25-26.626z" id="HelveticaWorld-Regular-48"/><path d="M35.89 0h-9.374v49.906H10.109v6.985q8.594.28 12.782 2.75Q27.094 62.109 29 70.313h6.89z" id="HelveticaWorld-Regular-49"/></defs><use xlink:href="#HelveticaWorld-Regular-50"/><use x="55.615" xlink:href="#HelveticaWorld-Regular-48"/><use x="111.23" xlink:href="#HelveticaWorld-Regular-49"/><use x="166.846" xlink:href="#HelveticaWorld-Regular-48"/></g></g><g id="xtick_2"><use x="80.159" xlink:href="#mb5406feffd" y="313.628" fill="#969696" stroke="#969696" stroke-width=".4" id="line2d_3"/><g transform="matrix(.14 0 0 -.14 64.589 330.678)" fill="#969696" id="text_2"><use xlink:href="#HelveticaWorld-Regular-50"/><use x="55.615" xlink:href="#HelveticaWorld-Regular-48"/><use x="111.23" xlink:href="#HelveticaWorld-Regular-49"/><use x="166.846" xlink:href="#HelveticaWorld-Regular-49"/></g></g><g id="xtick_3"><use x="113.105" xlink:href="#mb5406feffd" y="313.628" fill="#969696" stroke="#969696" stroke-width=".4" id="line2d_4"/><g transform="matrix(.14 0 0 -.14 97.534 330.678)" fill="#969696" id="text_3"><use xlink:href="#HelveticaWorld-Regular-50"/><use x="55.615" xlink:href="#HelveticaWorld-Regular-48"/><use x="111.23" xlink:href="#HelveticaWorld-Regular-49"/><use x="166.846" xlink:href="#HelveticaWorld-Regular-50"/></g></g><g id="xtick_4"><use x="146.141" xlink:href="#mb5406feffd" y="313.628" fill="#969696" stroke="#969696" stroke-width=".4" id="line2d_5"/><g transform="matrix(.14 0 0 -.14 130.57 330.678)" fill="#969696" id="text_4"><defs><path d="M22.406 39.984q2.203-.187 4.594-.187 6.203 0 9.781 2.86 3.594 2.859 3.594 8.656 0 4.687-3.344 7.89-3.343 3.203-9.64 3.203-6.985 0-10.235-4.11-3.234-4.093-3.437-10.983h-8.64q0 10.984 5.765 16.984 5.765 6.016 16.937 6.016 9.922 0 15.828-5.11 5.907-5.094 5.907-13.39 0-10.704-9.032-14.5v-.204q11.72-4 11.72-16.406 0-9.906-6.595-16.265-6.593-6.344-18.703-6.344-9.906 0-16.312 5.203Q4.204 8.5 3.422 21.484H12.5q.203-8.109 4-11.797Q20.313 6 27.484 6q6.938 0 11.141 3.86 4.203 3.859 4.203 9.718 0 6.406-4.016 9.672-4 3.266-12.39 3.266-2 0-4.016-.094z" id="HelveticaWorld-Regular-51"/></defs><use xlink:href="#HelveticaWorld-Regular-50"/><use x="55.615" xlink:href="#HelveticaWorld-Regular-48"/><use x="111.23" xlink:href="#HelveticaWorld-Regular-49"/><use x="166.846" xlink:href="#HelveticaWorld-Regular-51"/></g></g><g id="xtick_5"><use x="179.086" xlink:href="#mb5406feffd" y="313.628" fill="#969696" stroke="#969696" stroke-width=".4" id="line2d_6"/><g transform="matrix(.14 0 0 -.14 163.515 330.678)" fill="#969696" id="text_5"><defs><path d="M10.594 24.703h22.61v31.89h-.188zM42 17.093V0h-8.797v17.094H2.484v8.593L34.72 70.314H42v-45.61h10.297v-7.61z" id="HelveticaWorld-Regular-52"/></defs><use xlink:href="#HelveticaWorld-Regular-50"/><use x="55.615" xlink:href="#HelveticaWorld-Regular-48"/><use x="111.23" xlink:href="#HelveticaWorld-Regular-49"/><use x="166.846" xlink:href="#HelveticaWorld-Regular-52"/></g></g><g id="xtick_6"><use x="212.032" xlink:href="#mb5406feffd" y="313.628" fill="#969696" stroke="#969696" stroke-width=".4" id="line2d_7"/><g transform="matrix(.14 0 0 -.14 196.461 330.678)" fill="#969696" id="text_6"><defs><path d="M14.703 40.922q5.813 4.39 13.625 4.39 9.469 0 16.281-6.296 6.813-6.297 6.813-16.22 0-10.78-6.578-17.796-6.563-7-18.422-7-10.313 0-16.266 5.047Q4.203 8.109 3.22 17.39h9.094q.671-5.672 4.437-8.672 3.766-3 10.453-3 6.485 0 10.64 4.484Q42 14.703 42 21.688q0 7.125-4.36 11.421-4.343 4.297-11.218 4.297-7.813 0-13.047-6.687l-7.563.39 5.266 37.594h36.438v-8.5H17.672z" id="HelveticaWorld-Regular-53"/></defs><use xlink:href="#HelveticaWorld-Regular-50"/><use x="55.615" xlink:href="#HelveticaWorld-Regular-48"/><use x="111.23" xlink:href="#HelveticaWorld-Regular-49"/><use x="166.846" xlink:href="#HelveticaWorld-Regular-53"/></g></g><g id="xtick_7"><use x="244.977" xlink:href="#mb5406feffd" y="313.628" fill="#969696" stroke="#969696" stroke-width=".4" id="line2d_8"/><g transform="matrix(.14 0 0 -.14 229.406 330.678)" fill="#969696" id="text_7"><defs><path d="M14.11 21.578q0-6.875 4.093-11.234Q22.313 6 28.906 6q6.297 0 10.032 4.438 3.734 4.453 3.734 11.687 0 6.297-3.688 10.547-3.687 4.25-10.468 4.25-6.594 0-10.5-4.156-3.907-4.157-3.907-11.188zM41.702 51.61q-.984 5.375-3.984 8.078-3 2.72-8.125 2.72-8.11 0-12.36-7.923-4.25-7.906-4.343-18.109l.203-.188q5.61 8.641 16.687 8.641 8.844 0 15.438-5.86 6.593-5.859 6.593-16.452 0-10.5-6.25-17.47-6.25-6.952-16.843-6.952-12.219 0-18.563 8.687-6.344 8.703-6.344 25.938 0 16.593 6.485 27.093 6.5 10.5 19.484 10.5 8.407 0 14.219-5.015 5.813-5 6.297-13.688z" id="HelveticaWorld-Regular-54"/></defs><use xlink:href="#HelveticaWorld-Regular-50"/><use x="55.615" xlink:href="#HelveticaWorld-Regular-48"/><use x="111.23" xlink:href="#HelveticaWorld-Regular-49"/><use x="166.846" xlink:href="#HelveticaWorld-Regular-54"/></g></g><g id="xtick_8"><use x="278.013" xlink:href="#mb5406feffd" y="313.628" fill="#969696" stroke="#969696" stroke-width=".4" id="line2d_9"/><g transform="matrix(.14 0 0 -.14 262.442 330.678)" fill="#969696" id="text_8"><defs><path d="M3.719 68.797h48.578v-7.719Q42.28 50.875 33.984 33.484 25.687 16.11 23.391 0h-9.672q1.469 13.281 9.719 30.531 8.25 17.266 18.953 29.672H3.719z" id="HelveticaWorld-Regular-55"/></defs><use xlink:href="#HelveticaWorld-Regular-50"/><use x="55.615" xlink:href="#HelveticaWorld-Regular-48"/><use x="111.23" xlink:href="#HelveticaWorld-Regular-49"/><use x="166.846" xlink:href="#HelveticaWorld-Regular-55"/></g></g><g id="xtick_9"><use x="310.958" xlink:href="#mb5406feffd" y="313.628" fill="#969696" stroke="#969696" stroke-width=".4" id="line2d_10"/><g transform="matrix(.14 0 0 -.14 295.388 330.678)" fill="#969696" id="text_9"><defs><path d="M27.594 40.578q5.422 0 8.953 3.094 3.547 3.11 3.547 8.234 0 4.594-3.407 7.547-3.39 2.953-9.687 2.953-5.61 0-8.672-3.11-3.047-3.093-3.047-7.874 0-5.125 3.813-7.984 3.812-2.86 8.5-2.86zm.093-7.562q-6.78 0-10.64-3.766-3.86-3.766-3.86-9.234 0-6.297 3.907-10.157Q21 6 28.219 6q6.406 0 10.234 3.86 3.828 3.859 3.828 10.265 0 5.469-3.828 9.172-3.828 3.719-10.766 3.719zM49.22 52.203q0-10.594-9.032-14.797 6.204-2.781 8.86-7.36 2.656-4.562 2.656-9.733 0-10.016-6.453-16.125-6.438-6.094-17.375-6.094-9.563 0-16.813 5.25-7.25 5.25-7.25 17.062 0 11.922 11.907 16.907-9.516 3.796-9.516 13.671 0 8.297 5.64 13.813 5.641 5.516 15.641 5.516 10.016 0 15.875-5.204 5.86-5.203 5.86-12.906z" id="HelveticaWorld-Regular-56"/></defs><use xlink:href="#HelveticaWorld-Regular-50"/><use x="55.615" xlink:href="#HelveticaWorld-Regular-48"/><use x="111.23" xlink:href="#HelveticaWorld-Regular-49"/><use x="166.846" xlink:href="#HelveticaWorld-Regular-56"/></g></g><g id="xtick_10"><use x="343.904" xlink:href="#mb5406feffd" y="313.628" fill="#969696" stroke="#969696" stroke-width=".4" id="line2d_11"/><g transform="matrix(.14 0 0 -.14 328.333 330.678)" fill="#969696" id="text_10"><defs><path d="M27.594 31.39q6 0 9.75 4.047 3.765 4.063 3.765 11.97 0 6.5-3.562 10.75-3.563 4.25-10.64 4.25-6.11 0-9.876-4.298-3.75-4.297-3.75-11.53 0-7.376 3.516-11.282 3.515-3.906 10.797-3.906zm-1.282-7.906q-10 0-16.062 6.203-6.047 6.204-6.047 16.5 0 10.407 6.094 17.266 6.11 6.86 16.515 6.86 12.11 0 18.36-8.157 6.25-8.156 6.25-24.453 0-16.906-6.406-28.266Q38.625-1.905 25.875-1.905q-9.953 0-15.422 5.593-5.469 5.594-5.469 13.204h8.829q.39-5.266 3.437-8.375 3.063-3.094 8.438-3.094 7.609 0 11.515 6.781Q41.11 19 42.578 31.688l-.187.203q-5.672-8.407-16.078-8.407z" id="HelveticaWorld-Regular-57"/></defs><use xlink:href="#HelveticaWorld-Regular-50"/><use x="55.615" xlink:href="#HelveticaWorld-Regular-48"/><use x="111.23" xlink:href="#HelveticaWorld-Regular-49"/><use x="166.846" xlink:href="#HelveticaWorld-Regular-57"/></g></g><g id="xtick_11"><use x="376.849" xlink:href="#mb5406feffd" y="313.628" fill="#969696" stroke="#969696" stroke-width=".4" id="line2d_12"/><g transform="matrix(.14 0 0 -.14 361.279 330.678)" fill="#969696" id="text_11"><use xlink:href="#HelveticaWorld-Regular-50"/><use x="55.615" xlink:href="#HelveticaWorld-Regular-48"/><use x="111.23" xlink:href="#HelveticaWorld-Regular-50"/><use x="166.846" xlink:href="#HelveticaWorld-Regular-48"/></g></g></g><g id="matplotlib.axis_2"><g id="ytick_1"><path clip-path="url(#pda513c513b)" d="M37.556 313.628h357.12" fill="none" stroke="#969696" stroke-linecap="square" stroke-width=".3" id="line2d_13"/><g id="line2d_14"><defs><path d="M0 0h-3.5" id="m2fecc52cbb" stroke="#969696" stroke-width=".3"/></defs><use x="37.556" xlink:href="#m2fecc52cbb" y="313.628" fill="#969696" stroke="#969696" stroke-width=".3"/></g><use xlink:href="#HelveticaWorld-Regular-48" transform="matrix(.14 0 0 -.14 22.77 318.653)" fill="#969696" id="text_12"/></g><g id="ytick_2"><path clip-path="url(#pda513c513b)" d="M37.556 275.302h357.12" fill="none" stroke="#969696" stroke-linecap="square" stroke-width=".3" id="line2d_15"/><use x="37.556" xlink:href="#m2fecc52cbb" y="275.302" fill="#969696" stroke="#969696" stroke-width=".3" id="line2d_16"/><g transform="matrix(.14 0 0 -.14 14.985 280.327)" fill="#969696" id="text_13"><use xlink:href="#HelveticaWorld-Regular-53"/><use x="55.615" xlink:href="#HelveticaWorld-Regular-48"/></g></g><g id="ytick_3"><path clip-path="url(#pda513c513b)" d="M37.556 236.976h357.12" fill="none" stroke="#969696" stroke-linecap="square" stroke-width=".3" id="line2d_17"/><use x="37.556" xlink:href="#m2fecc52cbb" y="236.976" fill="#969696" stroke="#969696" stroke-width=".3" id="line2d_18"/><g transform="matrix(.14 0 0 -.14 7.2 242)" fill="#969696" id="text_14"><use xlink:href="#HelveticaWorld-Regular-49"/><use x="55.615" xlink:href="#HelveticaWorld-Regular-48"/><use x="111.23" xlink:href="#HelveticaWorld-Regular-48"/></g></g><g id="ytick_4"><path clip-path="url(#pda513c513b)" d="M37.556 198.65h357.12" fill="none" stroke="#969696" stroke-linecap="square" stroke-width=".3" id="line2d_19"/><use x="37.556" xlink:href="#m2fecc52cbb" y="198.649" fill="#969696" stroke="#969696" stroke-width=".3" id="line2d_20"/><g transform="matrix(.14 0 0 -.14 7.2 203.674)" fill="#969696" id="text_15"><use xlink:href="#HelveticaWorld-Regular-49"/><use x="55.615" xlink:href="#HelveticaWorld-Regular-53"/><use x="111.23" xlink:href="#HelveticaWorld-Regular-48"/></g></g><g id="ytick_5"><path clip-path="url(#pda513c513b)" d="M37.556 160.323h357.12" fill="none" stroke="#969696" stroke-linecap="square" stroke-width=".3" id="line2d_21"/><use x="37.556" xlink:href="#m2fecc52cbb" y="160.323" fill="#969696" stroke="#969696" stroke-width=".3" id="line2d_22"/><g transform="matrix(.14 0 0 -.14 7.2 165.348)" fill="#969696" id="text_16"><use xlink:href="#HelveticaWorld-Regular-50"/><use x="55.615" xlink:href="#HelveticaWorld-Regular-48"/><use x="111.23" xlink:href="#HelveticaWorld-Regular-48"/></g></g><g id="ytick_6"><path clip-path="url(#pda513c513b)" d="M37.556 121.997h357.12" fill="none" stroke="#969696" stroke-linecap="square" stroke-width=".3" id="line2d_23"/><use x="37.556" xlink:href="#m2fecc52cbb" y="121.997" fill="#969696" stroke="#969696" stroke-width=".3" id="line2d_24"/><g transform="matrix(.14 0 0 -.14 7.2 127.022)" fill="#969696" id="text_17"><use xlink:href="#HelveticaWorld-Regular-50"/><use x="55.615" xlink:href="#HelveticaWorld-Regular-53"/><use x="111.23" xlink:href="#HelveticaWorld-Regular-48"/></g></g><g id="ytick_7"><path clip-path="url(#pda513c513b)" d="M37.556 83.67h357.12" fill="none" stroke="#969696" stroke-linecap="square" stroke-width=".3" id="line2d_25"/><use x="37.556" xlink:href="#m2fecc52cbb" y="83.671" fill="#969696" stroke="#969696" stroke-width=".3" id="line2d_26"/><g transform="matrix(.14 0 0 -.14 7.2 88.695)" fill="#969696" id="text_18"><use xlink:href="#HelveticaWorld-Regular-51"/><use x="55.615" xlink:href="#HelveticaWorld-Regular-48"/><use x="111.23" xlink:href="#HelveticaWorld-Regular-48"/></g></g></g><path clip-path="url(#pda513c513b)" d="M103.447 313.628l2.755-.024 2.75-.052 2.754-.715 2.798-.544 2.708-1.044 2.706-.712 2.755.076 2.753-.076 2.753-.384 2.753-.877 2.798-.346 2.753-.642 2.755 1.26 2.75-.238 2.754-.602 2.798-3.561 2.662-2.606 2.661-.139 2.755.265 2.753 2.01 2.753 1.363 2.753-4.602 2.798-.89 2.753-.768 2.755 2.35 2.751-.05 2.753.347 2.798.618 2.663-2.256 2.66.896 2.756-1.241 2.753 1.019 2.753-1.223 2.753 1.396 2.798-.569 2.753 1.14 2.754.542 2.752.659 2.753.157 2.798-1.657 2.662.55 2.661.686 2.755.136 2.753.705 2.753-1.216 2.753.796 2.798.717 2.753.889 2.755.446 2.751.295 2.753 1.683 2.798-1.558 2.708.693 2.706-.248 2.755.503 2.753-.033 2.753-1.091 2.753 1.956 2.798-.049 2.753-.17 2.755 1.184 2.75.63 2.754.557 2.798-1.484 2.663-.469 2.66.741 2.755-.086 2.753.976 2.753.353 2.753-.353 2.798-.544 2.753 1.127 2.755 1.222 2.751-.43 2.753.307 2.798.148 2.663.016 2.66-.239 2.756.483 2.753-.384 2.753.206 2.753.116 2.798-.47 2.753.456 2.755-1.05 2.75.973 2.754.932 2.798-.248 2.663-.282 2.66.11 2.755.204 2.753-.403 2.753.633 2.753-.014 2.798-.124 2.753.265 2.755.081 2.751-.387 2.753.338 2.798-.248 2.708.236 2.706-.063 2.755-.238 2.753.288 2.753.198 2.753-.124" fill="none" stroke="#8c564b" stroke-linecap="square" stroke-width="1.5" id="line2d_27"/><path clip-path="url(#pda513c513b)" d="M119.918 313.628l2.755-3.296 2.753 1.07 2.753.591 2.753.102 2.798-.42 2.753.931 2.755-1.203 2.75-.509 2.754-.01 2.798-1.83 2.662.085 2.661-.975 2.755.865 2.753.198 2.753-1.016 2.753-.122 2.798-.395 2.753 1.565 2.755-.626 2.751-1.086 2.753-.916 2.798-1.31 2.663-.645 2.66-1.507 2.756 1.619 2.753.408 2.753.588 2.753-.44 2.798-1.26 2.753-2.184 2.754.65 2.752-4.278 2.753 2.82 2.798-2.572 2.662-2.22 2.661-1.068 2.755-2.019 2.753 2.29 2.753-2.469 2.753.739 2.798-.1 2.753.818 2.755.345 2.751 2.516 2.753-.933 2.798-1.36 2.708-2.338 2.706 4.217 2.755.108 2.753 2.538 2.753.988 2.753.693 2.798-.94 2.753 2.879 2.755 1.35 2.75-1.325 2.754 1.448 2.798 1.31 2.663-1.01 2.66.071 2.755 1.758 2.753-.274 2.753.376 2.753-.401 2.798.445 2.753.059 2.755 2.068 2.751-.433 2.753 1.298 2.798-.198 2.663.926 2.66-1.099 2.756.708 2.753.85 2.753-.186 2.753-.506 2.798.222 2.753.591 2.755.349 2.75.034 2.754.51 2.798-.47 2.663.146 2.66.299 2.755.103 2.753.045 2.753-.122 2.753.246 2.798.247 2.753-.186 2.755.013 2.751-.013 2.753.137 2.798-.1 2.708.16 2.706-.134 2.755-.344 2.753-.176 2.753.406 2.753-.134" fill="none" stroke="#9467bd" stroke-linecap="square" stroke-width="1.5" id="line2d_28"/><g transform="matrix(.14 0 0 -.14 398.247 63.018)" fill="#1f77b4" id="text_19"><defs><path d="M15.375 0H6.594v52.297h8.297v-8.688h.203q5.703 10.203 14.687 10.203 1.422 0 2.297-.296V44.39h-3.266q-5.906 0-9.671-4.016-3.766-4-3.766-9.953z" id="HelveticaWorld-Regular-114"/><path d="M42.484 30.328q-.687 8.485-4.5 12.031-3.797 3.547-10.109 3.547-6.39 0-10.328-4.5-3.922-4.484-4.172-11.078zm8.391-13.922q-1.453-8.11-7.953-13.422-5.719-4.5-15.047-4.593-10.984.093-17.438 7.203Q4 12.704 4 24.704q0 13.78 6.64 21.437 6.641 7.672 18.47 7.672 10.593 0 16.546-7.922 5.953-7.907 5.953-22.594H13.375q0-8.203 3.813-12.703Q21 6.109 28.608 6.109q5.375 0 9.235 3.235 3.86 3.25 4.25 7.062z" id="HelveticaWorld-Regular-101"/><path d="M38.375 26.703q-.969-1.015-3.828-1.656-2.86-.625-10.672-1.656-5.766-.688-8.469-2.844-2.703-2.14-2.703-5.656 0-4.297 2.281-6.688 2.297-2.39 7.329-2.39 6.296 0 11.171 3.578 4.891 3.593 4.891 8.718zM6.203 36.375q.297 8.844 5.734 13.14 5.454 4.297 15.844 4.297 8.297 0 13.907-3.765 5.624-3.75 5.624-10.844V9.078Q47.313 6 50.094 6q1.125 0 2.89.39V0Q50.594-.984 48-.984q-4.5 0-6.703 1.921-2.188 1.938-2.281 6.047-7.516-8.5-18.891-8.5-7.422 0-11.922 4.204Q3.72 6.89 3.72 13.624q0 6.89 3.906 11.125Q11.531 29 19 29.89l15.516 1.891q4.203.64 4.203 6.203 0 4.11-3.047 6.297-3.047 2.203-9.25 2.203-5.516 0-8.485-2.437-2.953-2.438-3.53-7.672z" id="HelveticaWorld-Regular-97"/><path d="M39.594 34.719q-1.89 11.187-12.39 11.187-6.5 0-10.454-5.203-3.953-5.203-3.953-14.484 0-10.11 3.656-15.11 3.672-5 10.64-5 4.688 0 8.11 3.438 3.422 3.437 4.39 8.953h8.5q-1.312-9.703-6.859-14.86-5.547-5.156-14.328-5.156-10.297 0-16.89 7.047-6.594 7.063-6.594 19.172 0 13.281 6.594 21.188 6.593 7.922 18.5 7.922 8.687 0 13.843-5.204 5.157-5.203 5.735-13.89z" id="HelveticaWorld-Regular-99"/><path d="M17.188 45.016V10.984q0-2 1.093-3.046 1.11-1.047 3.938-1.047h3.375V0Q20.797-.688 19-.688q-5.516 0-8.063 2.641-2.53 2.64-2.53 8.547v34.516H1.311v7.28h7.094v14.595h8.781V52.297h8.407v-7.281z" id="HelveticaWorld-Regular-116"/><path d="M15.375 61.813H6.594v9.968h8.781zm0-69.532q0-7.468-3.547-10.375Q8.297-21 2-21q-1.797 0-3.703.297v7.61H.594q3.703 0 4.843 1.109 1.157 1.093 1.157 5.296v58.985h8.781z" id="HelveticaWorld-Regular-106"/><path d="M36.078 37.406q-.187 4.688-3.344 6.735-3.14 2.047-9.047 2.047-4.296 0-7.359-1.907-3.047-1.89-3.047-5.468 0-2.829 1.797-4.172 1.813-1.344 7.828-2.86l8.688-2.187q7.906-2 11.297-5.11 3.406-3.093 3.406-8.656 0-7.719-5.64-12.531-5.641-4.813-15.063-4.813-11 0-16.64 4.563-5.626 4.578-5.735 13.75h8.5q.203-5.422 3.594-8.063 3.39-2.625 10.171-2.625 5.516 0 8.766 2.188 3.25 2.203 3.25 6.11 0 2.78-2.11 4.437-2.093 1.672-8.296 3.078l-10.203 2.5q-6.203 1.562-9.157 4.656-2.953 3.094-2.953 8.031 0 7.72 5.516 12.203 5.531 4.5 14.406 4.5 9.485 0 14.531-4.624 5.047-4.61 5.344-11.782z" id="HelveticaWorld-Regular-115"/></defs><use xlink:href="#HelveticaWorld-Regular-114"/><use x="31.568" xlink:href="#HelveticaWorld-Regular-101"/><use x="86.988" xlink:href="#HelveticaWorld-Regular-97"/><use x="141.92" xlink:href="#HelveticaWorld-Regular-99"/><use x="193.189" xlink:href="#HelveticaWorld-Regular-116"/><use x="220.875" xlink:href="#HelveticaWorld-Regular-106"/><use x="242.896" xlink:href="#HelveticaWorld-Regular-115"/></g><g transform="matrix(.14 0 0 -.14 398.247 182.624)" fill="#ff7f0e" id="text_20"><defs><path d="M49.219 0h-8.844v32.172q0 7.422-2.594 10.578-2.578 3.156-8.578 3.156-5.906 0-9.875-4.5-3.953-4.484-3.953-12.89V0H6.594v52.297h8.297v-7.375h.203q6.203 8.89 15.812 8.89 8.89 0 13.594-4.718 4.719-4.703 4.719-13.5z" id="HelveticaWorld-Regular-110"/><path d="M12.984 26.313q0-9.61 3.813-14.907Q20.609 6.11 27.094 6.11q6.312 0 10.312 4.579 4 4.593 4 13 0 11.03-3.5 16.625-3.484 5.593-10.61 5.593-7.171 0-10.75-4.765-3.562-4.766-3.562-14.828zM49.812 2.983q0-12.609-6.062-18.797-6.047-6.203-18.266-6.203-8.78 0-13.984 4.047Q6.297-13.922 5.516-6.39h8.796q.672-3.812 3.532-6.062 2.86-2.25 8.281-2.25 7.375 0 11.125 3.969 3.766 3.953 3.766 12.828v3.719h-.188q-4.937-7.329-13.922-7.329-11.187 0-17.093 8.25-5.907 8.25-5.907 20.953 0 11.625 5.953 18.875 5.97 7.25 15.829 7.25 9.906 0 15.625-8.89h.187v7.375h8.313z" id="HelveticaWorld-Regular-103"/><path d="M6.11 52.297h8.78V17.578q0-5.765 2.61-8.625Q20.125 6.11 25 6.11q6.781 0 10.594 4.797 3.812 4.813 3.812 12.578v28.813h8.782V0H39.89v7.625l-.188.188q-4.984-9.329-16.61-9.329-7.515 0-12.25 4.094Q6.11 6.688 6.11 14.703z" id="HelveticaWorld-Regular-117"/><path d="M15.375 0H6.594v71.781h8.781z" id="HelveticaWorld-Regular-108"/></defs><use xlink:href="#HelveticaWorld-Regular-97"/><use x="54.932" xlink:href="#HelveticaWorld-Regular-110"/><use x="110.107" xlink:href="#HelveticaWorld-Regular-103"/><use x="166.016" xlink:href="#HelveticaWorld-Regular-117"/><use x="220.801" xlink:href="#HelveticaWorld-Regular-108"/><use x="242.822" xlink:href="#HelveticaWorld-Regular-97"/><use x="297.754" xlink:href="#HelveticaWorld-Regular-114"/></g><g transform="matrix(.14 0 0 -.14 398.247 256.355)" fill="#2ca02c" id="text_21"><defs><path d="M39.406 52.297h9.625L29.11 0h-9.437L.594 52.297h10.203L24.422 9.719h.187z" id="HelveticaWorld-Regular-118"/><path d="M19.094 0H8.687v10.594h10.407z" id="HelveticaWorld-Regular-46"/></defs><use xlink:href="#HelveticaWorld-Regular-118"/><use x="49.609" xlink:href="#HelveticaWorld-Regular-117"/><use x="104.395" xlink:href="#HelveticaWorld-Regular-101"/><use x="158.314" xlink:href="#HelveticaWorld-Regular-46"/><use x="186.098" xlink:href="#HelveticaWorld-Regular-106"/><use x="208.119" xlink:href="#HelveticaWorld-Regular-115"/></g><g transform="matrix(.14 0 0 -.14 398.247 292.644)" fill="#d62728" id="text_22"><use xlink:href="#HelveticaWorld-Regular-97"/><use x="54.932" xlink:href="#HelveticaWorld-Regular-110"/><use x="110.107" xlink:href="#HelveticaWorld-Regular-103"/><use x="166.016" xlink:href="#HelveticaWorld-Regular-117"/><use x="220.801" xlink:href="#HelveticaWorld-Regular-108"/><use x="242.822" xlink:href="#HelveticaWorld-Regular-97"/><use x="297.754" xlink:href="#HelveticaWorld-Regular-114"/><use x="330.322" xlink:href="#HelveticaWorld-Regular-106"/><use x="352.344" xlink:href="#HelveticaWorld-Regular-115"/></g><g transform="matrix(.14 0 0 -.14 398.247 306.736)" fill="#9467bd" id="text_23"><defs><path d="M6.594 52.297h8.297v-7.375h.203q5.906 8.89 15.812 8.89 9.813 0 13.922-8.5 3.75 4.594 7.266 6.547 3.515 1.953 8.703 1.953 6.781 0 11.484-4.453Q77 44.922 77 36.187V0h-8.781v33.797q0 6.094-2.297 9.094-2.297 3.015-7.422 3.015-5.172 0-8.75-4.203-3.563-4.203-3.563-9.812V0h-8.78v36.188q0 4.53-2.11 7.124-2.094 2.594-6.094 2.594-6.297 0-10.062-4.687-3.766-4.688-3.766-12.703V0H6.594z" id="HelveticaWorld-Regular-109"/><path d="M12.703 26.219q0-8.735 3.953-14.375 3.953-5.64 11.219-5.64 7.531 0 11.438 5.905 3.906 5.907 3.906 14.11 0 8.297-3.907 14.078-3.906 5.797-11.437 5.797-6.969 0-11.078-5.453-4.094-5.438-4.094-14.422zm-8.984 0q0 11.672 6.484 19.625 6.5 7.968 17.672 7.968 11.438 0 17.875-8.062 6.453-8.047 6.453-19.531 0-11.516-6.406-19.625-6.39-8.11-17.922-8.11-11.078 0-17.625 7.86-6.531 7.86-6.531 19.875z" id="HelveticaWorld-Regular-111"/></defs><use xlink:href="#HelveticaWorld-Regular-109"/><use x="83.008" xlink:href="#HelveticaWorld-Regular-101"/><use x="138.428" xlink:href="#HelveticaWorld-Regular-116"/><use x="166.113" xlink:href="#HelveticaWorld-Regular-101"/><use x="221.533" xlink:href="#HelveticaWorld-Regular-111"/><use x="277.441" xlink:href="#HelveticaWorld-Regular-114"/></g><g transform="matrix(.14 0 0 -.14 398.247 320.736)" fill="#8c564b" id="text_24"><defs><path d="M43.406 26.313q0 10.5-3.718 15.046-3.704 4.547-10.579 4.547-6.984-.11-10.562-5.453Q14.984 35.11 14.984 25q0-10.297 4.297-14.594Q23.578 6.11 29.297 6.11q6.5 0 10.297 5.344 3.812 5.344 3.812 14.86zM6.594 0v71.781h8.781V45.703h.203q5.61 8.11 15.14 8.11 9.766 0 15.766-7.25t6-18.876q0-13.093-6.062-21.156Q40.375-1.516 29.5-1.516q-9.578 0-14.406 8.016h-.203V0z" id="HelveticaWorld-Regular-98"/></defs><use xlink:href="#HelveticaWorld-Regular-101"/><use x="55.42" xlink:href="#HelveticaWorld-Regular-109"/><use x="138.428" xlink:href="#HelveticaWorld-Regular-98"/><use x="194.922" xlink:href="#HelveticaWorld-Regular-101"/><use x="250.342" xlink:href="#HelveticaWorld-Regular-114"/></g><g transform="matrix(.14 0 0 -.14 398.247 334.715)" fill="#e377c2" id="text_25"><defs><path d="M50 0H38.719L22.406 26.422l-7.312-6.594V0h-8.5v71.781h8.5v-41.61l22.5 22.126H48.78L28.813 32.813z" id="HelveticaWorld-Regular-107"/></defs><use xlink:href="#HelveticaWorld-Regular-98"/><use x="56.494" xlink:href="#HelveticaWorld-Regular-97"/><use x="111.426" xlink:href="#HelveticaWorld-Regular-99"/><use x="162.695" xlink:href="#HelveticaWorld-Regular-107"/><use x="212.695" xlink:href="#HelveticaWorld-Regular-98"/><use x="269.189" xlink:href="#HelveticaWorld-Regular-111"/><use x="325.098" xlink:href="#HelveticaWorld-Regular-110"/><use x="380.273" xlink:href="#HelveticaWorld-Regular-101"/><use x="434.193" xlink:href="#HelveticaWorld-Regular-46"/><use x="461.977" xlink:href="#HelveticaWorld-Regular-106"/><use x="483.998" xlink:href="#HelveticaWorld-Regular-115"/></g><g transform="matrix(.09716 0 0 -.09716 37.556 347.399)" fill="#969696" id="text_26"><defs><path d="M50.39 50.781q-.296 6.844-5.109 10.719-4.797 3.875-12.656 3.875-7.922 0-12.172-3.25-4.234-3.234-4.234-9.344 0-3.265 1.843-5.61 1.86-2.343 6.641-3.468l20.516-4.687q8.297-1.813 12.297-6.875 4.015-5.047 4.015-12.313 0-10.64-7.812-16.187-7.813-5.547-20.313-5.547-9.531 0-15.031 2.437-5.484 2.453-9.734 7.766-4.25 5.328-4.25 14.89h9.093q0-8 5.313-12.406 5.328-4.39 14.5-4.39 8.89 0 13.844 3.156 4.953 3.156 4.953 8.953 0 5.281-2.953 7.89Q46.188 29 37.594 31l-15.469 3.625q-7.719 1.75-11.531 6.125Q6.78 45.125 6.78 51.516q0 9.672 6.516 15.922 6.531 6.25 18.203 6.25 13.172 0 20.328-5.5 7.156-5.485 7.688-17.407z" id="HelveticaWorld-Regular-83"/><path d="M63.922 35.89q0 12.594-6.672 20.891-6.656 8.313-18.328 8.313-11.531 0-18.266-8.313-6.734-8.297-6.734-20.89 0-12.985 6.828-21.094 6.844-8.11 18.172-8.11 11.078 0 18.031 7.907 6.969 7.922 6.969 21.297zm9.953 0q0-16.062-9.281-26.937-9.266-10.86-25.672-10.86-16.516 0-25.766 10.86-9.25 10.875-9.25 26.938 0 16.109 9.25 26.953 9.25 10.843 25.766 10.843 16.89 0 25.922-11.046 9.031-11.032 9.031-26.75z" id="HelveticaWorld-Regular-79"/><path d="M17.188 45.016V0H8.405v45.016H1.22v7.28h7.187v8.985q0 5.907 3.578 8.703 3.594 2.813 10.032 2.813 2.203 0 3.968-.188v-7.906q-1.562.188-3.578.188-2.922 0-4.078-1.438-1.14-1.437-1.14-4.656v-6.5h8.796v-7.281z" id="HelveticaWorld-Regular-102"/><path d="M25.594 0h-8.985L1.516 52.297h9.468L21 11.187h.188l10.109 41.11h9.922l10.203-41.11h.187l10.594 41.11h8.703L55.812 0h-9.234L35.984 40.484h-.187z" id="HelveticaWorld-Regular-119"/><path d="M44 29.5L33.406 61.078h-.203L21.687 29.5zm-25.297-8.594L11.188 0h-9.97l27 71.781h10.985L65.187 0H54.594l-7.078 20.906z" id="HelveticaWorld-Regular-65"/><path d="M17.828 38.625H37.11q7.282 0 10.938 3.188 3.656 3.203 3.656 9.703 0 5.812-3.516 8.89-3.515 3.078-10.687 3.078H17.828zm0-38.625H8.11v71.781h32.266q9.625 0 15.484-5.594 5.86-5.593 5.86-14.578 0-9.328-5.672-15.312-5.656-5.969-15.672-5.969H17.828z" id="HelveticaWorld-Regular-80"/><path d="M17.828 0H8.11v71.781h9.72z" id="HelveticaWorld-Regular-73"/><path d="M6.594 61.813v9.968h8.781v-9.969zM15.375 0H6.594v52.297h8.781z" id="HelveticaWorld-Regular-105"/><path d="M9.422 73.688h7.281V-1.906H9.422z" id="HelveticaWorld-Regular-124"/><path d="M55.61 71.781h9.374V0h-10.78L17.577 58.016h-.187V0H8.109v71.781h11.375l35.938-57.969h.187z" id="HelveticaWorld-Regular-78"/><path d="M49.219 0h-8.844v34.188q0 6.296-2.438 9-2.437 2.718-7.953 2.718-6.797 0-10.703-4.406-3.906-4.39-3.906-12.984V0H6.594v71.781h8.781V45.312h.203q6 8.5 15.328 8.5 8.594 0 13.453-4.5 4.86-4.484 4.86-13.718z" id="HelveticaWorld-Regular-104"/><path d="M12.703 26.219q0-8.735 3.953-14.375 3.953-5.64 11.219-5.64 7.531 0 11.438 5.905 3.906 5.907 3.906 14.11 0 8.297-3.907 14.078-3.906 5.797-11.437 5.797-6.969 0-11.078-5.453-4.094-5.438-4.094-14.422zm-8.984 0q0 11.672 6.484 19.625 6.5 7.968 17.672 7.968 11.438 0 17.875-8.062 6.453-8.047 6.453-19.531 0-11.516-6.406-19.625-6.39-8.11-17.922-8.11-11.078 0-17.625 7.86-6.531 7.86-6.531 19.875zm36.734 35.406H31.47v10.156h8.984zm-16.219 0H15.25v10.156h8.984z" id="HelveticaWorld-Regular-246"/><path d="M58.016 50.203q-1.625 7.313-6.782 11.094-5.14 3.797-13.343 3.797-10.594 0-17.047-7.703-6.438-7.688-6.438-20.766 0-15.14 6.094-22.547 6.11-7.39 17.688-7.39 7.609 0 13.093 5.046 5.5 5.063 7.407 14.688h9.421Q66.22 12.594 57.625 5.344t-20.906-7.25q-14.703 0-23.516 10.11Q4.391 18.311 4.391 36.28q0 17.328 9.203 27.36 9.203 10.047 24.297 10.047 12.5 0 20.265-6.454 7.766-6.437 9.235-17.03z" id="HelveticaWorld-Regular-67"/><path d="M8.11 71.781h31.484q9.281 0 14.797-5.031 5.515-5.031 5.515-13.031 0-4.844-2.422-8.828-2.406-3.97-7.187-6.172 6.687-2.532 9.828-6.735 3.156-4.203 3.156-10.797 0-9.265-6.687-15.234Q49.906 0 38.922 0H8.109zm9.562-63.484h20.703q7.625 0 11.422 3.531 3.812 3.547 3.812 9.563 0 6.093-4.25 9.093Q45.125 33.5 36.812 33.5h-19.14zm0 33.11h17.625q7.719 0 11.312 2.796 3.594 2.813 3.594 8.781 0 5.125-3.406 7.813-3.39 2.687-11.39 2.687H17.671z" id="HelveticaWorld-Regular-66"/><path d="M37.313 0h-9.72v28.906L.485 71.781h11.329l20.609-34.469 20.562 34.47h11.422L37.312 28.905z" id="HelveticaWorld-Regular-89"/></defs><use xlink:href="#HelveticaWorld-Regular-83"/><use x="66.211" xlink:href="#HelveticaWorld-Regular-116"/><use x="93.896" xlink:href="#HelveticaWorld-Regular-97"/><use x="148.828" xlink:href="#HelveticaWorld-Regular-99"/><use x="200.098" xlink:href="#HelveticaWorld-Regular-107"/><use x="250.098" xlink:href="#HelveticaWorld-Regular-79"/><use x="327.881" xlink:href="#HelveticaWorld-Regular-118"/><use x="375.49" xlink:href="#HelveticaWorld-Regular-101"/><use x="430.91" xlink:href="#HelveticaWorld-Regular-114"/><use x="464.979" xlink:href="#HelveticaWorld-Regular-102"/><use x="492.664" xlink:href="#HelveticaWorld-Regular-108"/><use x="514.686" xlink:href="#HelveticaWorld-Regular-111"/><use x="569.094" xlink:href="#HelveticaWorld-Regular-119"/><use x="641.506" xlink:href="#HelveticaWorld-Regular-32"/><use x="665.92" xlink:href="#HelveticaWorld-Regular-65"/><use x="732.619" xlink:href="#HelveticaWorld-Regular-80"/><use x="797.268" xlink:href="#HelveticaWorld-Regular-73"/><use x="823.049" xlink:href="#HelveticaWorld-Regular-32"/><use x="847.463" xlink:href="#HelveticaWorld-Regular-118"/><use x="897.072" xlink:href="#HelveticaWorld-Regular-105"/><use x="919.094" xlink:href="#HelveticaWorld-Regular-97"/><use x="974.025" xlink:href="#HelveticaWorld-Regular-32"/><use x="998.439" xlink:href="#HelveticaWorld-Regular-115"/><use x="1048.439" xlink:href="#HelveticaWorld-Regular-116"/><use x="1076.125" xlink:href="#HelveticaWorld-Regular-97"/><use x="1131.057" xlink:href="#HelveticaWorld-Regular-99"/><use x="1182.326" xlink:href="#HelveticaWorld-Regular-107"/><use x="1232.326" xlink:href="#HelveticaWorld-Regular-116"/><use x="1260.012" xlink:href="#HelveticaWorld-Regular-97"/><use x="1314.943" xlink:href="#HelveticaWorld-Regular-103"/><use x="1370.852" xlink:href="#HelveticaWorld-Regular-115"/><use x="1420.852" xlink:href="#HelveticaWorld-Regular-32"/><use x="1445.266" xlink:href="#HelveticaWorld-Regular-124"/><use x="1471.242" xlink:href="#HelveticaWorld-Regular-32"/><use x="1495.656" xlink:href="#HelveticaWorld-Regular-78"/><use x="1568.752" xlink:href="#HelveticaWorld-Regular-105"/><use x="1590.773" xlink:href="#HelveticaWorld-Regular-99"/><use x="1642.043" xlink:href="#HelveticaWorld-Regular-111"/><use x="1697.951" xlink:href="#HelveticaWorld-Regular-32"/><use x="1722.365" xlink:href="#HelveticaWorld-Regular-83"/><use x="1788.576" xlink:href="#HelveticaWorld-Regular-99"/><use x="1839.846" xlink:href="#HelveticaWorld-Regular-104"/><use x="1895.021" xlink:href="#HelveticaWorld-Regular-108"/><use x="1917.043" xlink:href="#HelveticaWorld-Regular-246"/><use x="1972.951" xlink:href="#HelveticaWorld-Regular-109"/><use x="2055.959" xlink:href="#HelveticaWorld-Regular-101"/><use x="2111.379" xlink:href="#HelveticaWorld-Regular-114"/><use x="2143.947" xlink:href="#HelveticaWorld-Regular-32"/><use x="2168.361" xlink:href="#HelveticaWorld-Regular-124"/><use x="2194.338" xlink:href="#HelveticaWorld-Regular-32"/><use x="2218.752" xlink:href="#HelveticaWorld-Regular-67"/><use x="2291.066" xlink:href="#HelveticaWorld-Regular-67"/><use x="2363.381" xlink:href="#HelveticaWorld-Regular-32"/><use x="2387.795" xlink:href="#HelveticaWorld-Regular-66"/><use x="2450.607" xlink:href="#HelveticaWorld-Regular-89"/></g><g transform="matrix(.14 0 0 -.14 80.05 17.516)" fill="#969696" id="text_27"><defs><path d="M17.828 8.297h18.797q9.766 0 15.281 7.5 5.516 7.5 5.516 20.484 0 12.844-5.563 19.969-5.562 7.125-16.062 7.234H17.828zM8.11 71.78h29.094q14.11 0 22.094-9.703 7.984-9.687 7.984-25.156 0-16.61-7.984-26.766Q51.313 0 36.813 0H8.108z" id="HelveticaWorld-Regular-68"/><path d="M39.016 52.297h9.562L29.891.984q-.5-1.375-.985-2.593-4.25-11.329-7.328-15.547-3.078-4.235-9.953-4.235-3.61 0-5.906.782v8.015q2.484-.89 5.468-.89 3.22 0 4.704 2.03 1.5 2.032 4.421 9.938L.875 52.297h9.922L24.812 9.719H25z" id="HelveticaWorld-Regular-121"/><path d="M41.5 23.688q0 11.125-3.5 16.671-3.484 5.547-10.61 5.547-6.874 0-10.593-4.5-3.703-4.484-3.703-15.093 0-9.422 3.75-14.813 3.765-5.39 10.36-5.39 5.812 0 10.046 4.39 4.25 4.39 4.25 13.188zm8.406-44.391H41.11V5.516h-.187Q35.89-1.516 27-1.516q-10.984 0-17 8.157-6 8.156-6 21.047 0 11.421 5.906 18.765 5.922 7.36 15.875 7.36 9.907 0 15.625-8.891h.203v7.375h8.297z" id="HelveticaWorld-Regular-113"/></defs><use xlink:href="#HelveticaWorld-Regular-68"/><use x="72.021" xlink:href="#HelveticaWorld-Regular-97"/><use x="126.953" xlink:href="#HelveticaWorld-Regular-105"/><use x="148.975" xlink:href="#HelveticaWorld-Regular-108"/><use x="170.996" xlink:href="#HelveticaWorld-Regular-121"/><use x="220.605" xlink:href="#HelveticaWorld-Regular-32"/><use x="245.02" xlink:href="#HelveticaWorld-Regular-110"/><use x="300.195" xlink:href="#HelveticaWorld-Regular-117"/><use x="354.98" xlink:href="#HelveticaWorld-Regular-109"/><use x="437.988" xlink:href="#HelveticaWorld-Regular-98"/><use x="494.482" xlink:href="#HelveticaWorld-Regular-101"/><use x="549.902" xlink:href="#HelveticaWorld-Regular-114"/><use x="582.471" xlink:href="#HelveticaWorld-Regular-32"/><use x="606.885" xlink:href="#HelveticaWorld-Regular-111"/><use x="662.793" xlink:href="#HelveticaWorld-Regular-102"/><use x="690.479" xlink:href="#HelveticaWorld-Regular-32"/><use x="714.893" xlink:href="#HelveticaWorld-Regular-113"/><use x="771.387" xlink:href="#HelveticaWorld-Regular-117"/><use x="826.172" xlink:href="#HelveticaWorld-Regular-101"/><use x="881.592" xlink:href="#HelveticaWorld-Regular-115"/><use x="931.592" xlink:href="#HelveticaWorld-Regular-116"/><use x="959.277" xlink:href="#HelveticaWorld-Regular-105"/><use x="981.299" xlink:href="#HelveticaWorld-Regular-111"/><use x="1037.207" xlink:href="#HelveticaWorld-Regular-110"/><use x="1092.383" xlink:href="#HelveticaWorld-Regular-115"/><use x="1142.383" xlink:href="#HelveticaWorld-Regular-32"/><use x="1166.797" xlink:href="#HelveticaWorld-Regular-111"/><use x="1222.705" xlink:href="#HelveticaWorld-Regular-110"/><use x="1277.881" xlink:href="#HelveticaWorld-Regular-32"/><use x="1302.295" xlink:href="#HelveticaWorld-Regular-83"/><use x="1368.506" xlink:href="#HelveticaWorld-Regular-116"/><use x="1396.191" xlink:href="#HelveticaWorld-Regular-97"/><use x="1451.123" xlink:href="#HelveticaWorld-Regular-99"/><use x="1502.393" xlink:href="#HelveticaWorld-Regular-107"/><use x="1552.393" xlink:href="#HelveticaWorld-Regular-79"/><use x="1630.176" xlink:href="#HelveticaWorld-Regular-118"/><use x="1677.785" xlink:href="#HelveticaWorld-Regular-101"/><use x="1733.205" xlink:href="#HelveticaWorld-Regular-114"/><use x="1767.273" xlink:href="#HelveticaWorld-Regular-102"/><use x="1794.959" xlink:href="#HelveticaWorld-Regular-108"/><use x="1816.98" xlink:href="#HelveticaWorld-Regular-111"/><use x="1871.389" xlink:href="#HelveticaWorld-Regular-119"/></g><path clip-path="url(#pda513c513b)" d="M37.556 313.628h11.057l68.599-.079 5.46-.176 2.754-.585 2.753-1 2.753-.509 2.798-1.978 2.753-.45 2.755-2.32 5.504-1.384 2.798-6.7 2.662-3.544 2.661-4.27 2.755-5.622 5.506-3.551 2.753-9.051 2.798-6.454 2.753-2.84 2.755-4.578 2.751-.686 2.753 2.22 2.798-17.754 2.663-12.377 5.416-6.71 2.753-.126 2.753-3.4 2.753-13.686 2.798 2.3 2.753-3.562 2.754-1.582 2.752 2.45 2.753 4.845 5.46-23.673 2.661-4.763 5.508-10.978 2.753-10.962 2.753-9.339 2.798 11.894 2.753-.383 2.755.729 2.751 2.644 2.753 6.801 2.798-11.918 2.708-10.268 2.706 3.889 2.755-.743 2.753 6.207 2.753-1.327 2.753 12.776 2.798-1.509 2.753 13.569 2.755 17.735 2.75-2.43 2.754 10.219 2.798-3.24 2.663.231 2.66-2.826 2.755 16.567 2.753 3.164 2.753 7.108 2.753 8.248 2.798 7.294 2.753 3.85 2.755 9.453 2.751 1.356 2.753 11.057 2.798-1.904 2.663 2.554 2.66 6.47 5.509 2.177 2.753 4.916 2.753 1.463 2.798-.42 2.753.464 2.755-.044 2.75 3.212 2.754 3.415 2.798-2.448 2.663-.562 2.66 4.172 2.755.815 2.753 1.584 2.753 2.172 2.753-1.406 2.798 3.165 2.753.872 2.755-1.292 2.751 1.599 2.753 1.146 2.798-1.237 2.708 1.06 2.706-2.049 2.755-1.68 2.753 2.026 2.753-.007 2.753.947h0" fill="none" stroke="#d62728" stroke-linecap="square" stroke-width="1.5" id="line2d_29"/><path clip-path="url(#pda513c513b)" d="M183.148 313.628l2.66-.024 2.756.024 2.753-.099 2.753.1 2.753-.075 2.798.074 2.753-.05h2.754l2.752-.026 2.753.002 2.798-.025 2.662.072 2.661-.022 2.755-.079 2.753-.144 2.753-.673 2.753-.143 2.798.05 2.753-.265 2.755.364 2.751-.722 2.753-.342 2.798-1.137 2.708.021 2.706.053 2.755-1.635 2.753 1.017 2.753-.123 2.753-.1 2.798-1.508 2.753-.487 2.755-1.936 2.75-2.433 2.754-.831 2.798-1.88 2.663-1.007 2.66-3.22 2.755 2.262 2.753-2.708 2.753-.358 2.753-1.002 2.798-.222 2.753-3.273 2.755 2.383 2.751-2.05 2.753 2.594 2.798-1.78 2.663-4.753 2.66-3.482 2.756.42 2.753.372 2.753-.603 2.753-2.735 2.798-5.836 2.753.83 2.755-1.25 2.75-.82 2.754 6.16 2.798-6.577 2.663-3.59 2.66-1.577 2.755.525 2.753 2.244 2.753-2.295 2.753-3.194 2.798-.47 2.753-.706 2.755-3.547 2.751 3.317 2.753.911 2.798-4.08 2.708-2.51 2.706-2.559 2.755-12.407 2.753 2.962 2.753 5.777 2.753.009" fill="none" stroke="#2ca02c" stroke-linecap="square" stroke-width="1.5" id="line2d_30"/><path clip-path="url(#pda513c513b)" d="M152.863 313.628l2.755-.025 2.753.025H188.564l2.753-.024 2.753.024h2.753l2.798-.024 2.753.024 2.754-.024 2.752-.027 2.753.051 2.798-.024 2.662-.058 2.661-.437 2.755.162 2.753-.681 2.753-.495 2.753-.05 2.798-.197 2.753-.162 2.755-1.074 2.751-2.682 2.753-5.033 2.798-11.844 2.708-5.918 2.706-5.63 2.755-4.893 2.753-7.544 2.753-9.652 2.753-1.92 2.798-7.616 2.753-8.63 2.755-9.297 2.75-.336 2.754 3.081 2.798-9.025 2.663-19.192 2.66-5.09 2.755 7.69 2.753-3.09 2.753-7.283 2.753-5.452 2.798-3.709 2.753 7.065 2.755-.067 2.751-11.277 2.753 23.69 2.798-13.08 2.663-2.839 2.66 1.058 2.756-2.11 2.753-3.355 2.753 3.713 2.753-1.908 2.798-13.303 2.753 12.759L337 180.5l2.75 7.086 2.754 15.588 2.798-12.758 2.663-12.353 2.66 2.635 2.755 5.891 2.753 1.75 2.753 2.645 2.753-11.967 2.798 14.885 2.753-7.696 2.755-5.26 2.751-4.142 2.753 21.648 2.798-1.706 2.708-17.709 2.706 2.551 2.755-20.728 2.753 12.272 2.753 6.84 2.753-.832" fill="none" stroke="#ff7f0e" stroke-linecap="square" stroke-width="1.5" id="line2d_31"/><path clip-path="url(#pda513c513b)" d="M155.618 313.628l2.753-.024 2.753-.027 2.753.002 2.798.025 2.753-.206 2.755.082 2.751-.03 2.753-.39 2.798-.693 2.663-.19 2.66.24 2.756.215 2.753-.809 2.753-.137 2.753-.234 2.798.1 2.753-.581 2.754-.928 2.752-.963 2.753-.15 2.798-.667 2.662-4.736 2.661-.432 2.755-1.884 2.753.598 2.753-2.361 2.753-2.683 2.798 1.063 2.753-4.64 2.755-1.393 2.751-4.178 2.753-.372 2.798-3.734 2.708-1.257 2.706-6.012 2.755-1.63 2.753-.274 2.753-4.734 2.753-2.71 2.798-5.39 2.753 3.041 2.755.669 2.75-3.94 2.754 1.244 2.798-6.256 2.663-6.091 2.66-2.192 2.755-2.853 2.753-7.532 2.753-3.173 2.753-3.726 2.798 1.039 2.753 9.304 2.755-5.768 2.751-1.897 2.753 9.784 2.798-11.423 2.663-8.09 2.66-4.496 2.756-.083 2.753-2.588 2.753-1.858 2.753-9.615 2.798-14.786 2.753 6.668 2.755-7.089 2.75 2.081 2.754 11.47 2.798-14.738 2.663-14.16 2.66-1.912 2.755 2.554 2.753-4.21 2.753 6.458 2.753-21.542 2.798 9.347 2.753-5.026 2.755-10.577 2.751-6.798 2.753 14.439 2.798-23.095 2.708-12.62 2.706-15.519 2.755-58.433 2.753 6.26 2.753 3.194 2.753 2.493" fill="none" stroke="#1f77b4" stroke-linecap="square" stroke-width="1.5" id="line2d_32"/></g></g><defs><clipPath id="pda513c513b"><path d="M37.556 47.516h357.12v266.112H37.556z"/></clipPath></defs></svg>