<svg height="491.681" viewBox="0 0 486.886 368.761" width="649.181" xmlns="http://www.w3.org/2000/svg" xmlns:xlink="http://www.w3.org/1999/xlink"><defs><style>*{stroke-linecap:butt;stroke-linejoin:round}</style></defs><g id="figure_1"><path d="M0 368.76h486.886V0H0z" style="fill:none" id="patch_1"/><g id="axes_1"><path d="M37.556 313.628h357.12V47.516H37.556z" style="fill:none" id="patch_2"/><path clip-path="url(#pdd602e1ffd)" d="m37.556 313.565 1.843-.1 9.519.09 2.31-.189 7.171.026 2.39-.222 2.43-.098 2.39.218 2.391.011 2.388-.248 2.39-.505 2.43.066 2.311-.181 2.31-.048 2.392.296 2.39-.394 2.39-.721 2.39.851 2.429-1.243 4.781.49 2.388-.2 2.39.724 2.43-.621 2.311-.765 4.702-.082 2.39-1.837 4.78.818 2.429-1.08 2.39-.166 2.391.232 4.779.065 2.429-.458 2.35-.717 2.35-.068 2.391-1.15 2.39 1.28 2.39-.74 2.39.61 2.43-.916 2.39.17 2.39.386 2.389-.419 2.39-.203 2.43.884 2.31-1.826 2.31.288 2.392-.124 2.39-.367 2.39-.072 2.39-1.564 2.43 3.6 2.39-.92 2.39-.553 2.39.519 2.389 1.084 2.43-1.669 2.31-.222 2.31.746 2.392-.615 2.39 1.695 2.39.164 2.39-1.08 2.43 1.08 2.39-.405 2.39.993 2.39-1.196 2.39 1.654 2.428-1.145 2.312-.152 2.31-.568 2.391-.466 2.39 1.513 2.39-1.14 2.39-.365 2.43.164 2.39.944 2.39-.519 2.39 1.365 4.818-.383 2.351-1.517 2.35 1.19 2.39-.744 4.78-.744 2.39 1.291 2.43-.72 2.39 1.525 2.391-1.296 2.389.688 2.39 1.08 2.429-.23 2.311.381 2.31-1.69 2.392 1.236 2.39-.287 2.39.727 2.39-.04 2.429.295 2.39.083 2.391-.312 2.389.244 2.39 1.556 2.429-.622 2.311.622 2.31-1.342 2.392.598 2.39-.041 2.39-.263 2.39.197 2.429-1.603 2.39.932 2.391.311 2.389-.108 2.39.828 2.429-1.145 2.311.332 2.31-.954 2.392.872 2.39.699 2.39-.158 2.39.321 2.429-.163 2.39-.328 4.78 1.252 2.39.352 2.429-.556 2.35-1.222 2.35.927 2.391-.955 2.39.53 2.39.72 2.39-.164 2.43.098 2.39-.643 2.391.152 2.388 1.268 2.39.107 2.43.392 2.311-1.46 2.31.708h0" style="fill:none;stroke:#ffbb78;stroke-linecap:square;stroke-width:1.5" id="line2d_1"/><g id="matplotlib.axis_1"><g id="xtick_1"><g id="line2d_2"><defs><path d="M0 0v3.5" id="m690214188d" style="stroke:#969696;stroke-width:.4"/></defs><use style="fill:#969696;stroke:#969696;stroke-width:.4" x="73.993" xlink:href="#m690214188d" y="313.628"/></g><g style="fill:#969696" transform="matrix(.14 0 0 -.14 58.422 330.678)" id="text_1"><defs><path d="M281 2888q0 793 409 1202 410 410 1148 410 618 0 1012-375t394-969q0-462-227-780-226-317-667-557l-775-425q-684-375-775-863h2444V0H166q25 634 275 1056t781 728l806 469q322 185 469 383t147 545q0 344-241 578-240 235-650 235-453 0-678-299-225-298-231-807H281z" id="HelveticaWorld-Regular-32" transform="scale(.01563)"/><path d="M2719 2188q0 903-239 1354-239 452-702 452-453 0-697-452-243-451-243-1354 0-875 240-1340 241-464 700-464 463 0 702 448 239 449 239 1356zm603 0q0-1107-400-1709-400-601-1144-601-772 0-1156 623-384 624-384 1687 0 1090 393 1701 394 611 1147 611 744 0 1144-608t400-1704z" id="HelveticaWorld-Regular-30" transform="scale(.01563)"/><path d="M2297 0h-600v3194H647v447q550 18 818 176 269 158 391 683h441V0z" id="HelveticaWorld-Regular-31" transform="scale(.01563)"/></defs><use xlink:href="#HelveticaWorld-Regular-32"/><use x="55.615" xlink:href="#HelveticaWorld-Regular-30"/><use x="111.23" xlink:href="#HelveticaWorld-Regular-31"/><use x="166.846" xlink:href="#HelveticaWorld-Regular-30"/></g></g><g id="xtick_2"><use style="fill:#969696;stroke:#969696;stroke-width:.4" x="131.195" xlink:href="#m690214188d" y="313.628" id="line2d_3"/><g style="fill:#969696" transform="matrix(.14 0 0 -.14 115.624 330.678)" id="text_2"><use xlink:href="#HelveticaWorld-Regular-32"/><use x="55.615" xlink:href="#HelveticaWorld-Regular-30"/><use x="111.23" xlink:href="#HelveticaWorld-Regular-31"/><use x="166.846" xlink:href="#HelveticaWorld-Regular-32"/></g></g><g id="xtick_3"><use style="fill:#969696;stroke:#969696;stroke-width:.4" x="188.476" xlink:href="#m690214188d" y="313.628" id="line2d_4"/><g style="fill:#969696" transform="matrix(.14 0 0 -.14 172.905 330.678)" id="text_3"><defs><path d="M678 1581h1447v2041h-12L678 1581zm2010-487V0h-563v1094H159v550l2063 2856h466V1581h659v-487h-659z" id="HelveticaWorld-Regular-34" transform="scale(.01563)"/></defs><use xlink:href="#HelveticaWorld-Regular-32"/><use x="55.615" xlink:href="#HelveticaWorld-Regular-30"/><use x="111.23" xlink:href="#HelveticaWorld-Regular-31"/><use x="166.846" xlink:href="#HelveticaWorld-Regular-34"/></g></g><g id="xtick_4"><use style="fill:#969696;stroke:#969696;stroke-width:.4" x="245.678" xlink:href="#m690214188d" y="313.628" id="line2d_5"/><g style="fill:#969696" transform="matrix(.14 0 0 -.14 230.107 330.678)" id="text_4"><defs><path d="M903 1381q0-440 262-719 263-278 685-278 403 0 642 284 239 285 239 748 0 403-236 675t-670 272q-422 0-672-266t-250-716zm1766 1922q-63 344-255 517-192 174-520 174-519 0-791-507-272-506-278-1159l13-12q359 553 1068 553 566 0 988-375t422-1053q0-672-400-1118-400-445-1078-445-782 0-1188 556-406 557-406 1660 0 1062 415 1734 416 672 1247 672 538 0 910-321 372-320 403-876h-550z" id="HelveticaWorld-Regular-36" transform="scale(.01563)"/></defs><use xlink:href="#HelveticaWorld-Regular-32"/><use x="55.615" xlink:href="#HelveticaWorld-Regular-30"/><use x="111.23" xlink:href="#HelveticaWorld-Regular-31"/><use x="166.846" xlink:href="#HelveticaWorld-Regular-36"/></g></g><g id="xtick_5"><use style="fill:#969696;stroke:#969696;stroke-width:.4" x="302.958" xlink:href="#m690214188d" y="313.628" id="line2d_6"/><g style="fill:#969696" transform="matrix(.14 0 0 -.14 287.388 330.678)" id="text_5"><defs><path d="M1766 2597q347 0 573 198 227 199 227 527 0 294-218 483-217 189-620 189-359 0-555-199-195-198-195-504 0-328 244-511t544-183zm6-484q-434 0-681-241t-247-591q0-403 250-650t712-247q410 0 655 247t245 657q0 350-245 587-245 238-689 238zm1378 1228q0-678-578-947 397-178 567-471 170-292 170-623 0-641-413-1032-412-390-1112-390-612 0-1076 336T244 1306q0 763 762 1082-609 243-609 875 0 531 361 884t1001 353q641 0 1016-333t375-826z" id="HelveticaWorld-Regular-38" transform="scale(.01563)"/></defs><use xlink:href="#HelveticaWorld-Regular-32"/><use x="55.615" xlink:href="#HelveticaWorld-Regular-30"/><use x="111.23" xlink:href="#HelveticaWorld-Regular-31"/><use x="166.846" xlink:href="#HelveticaWorld-Regular-38"/></g></g><g id="xtick_6"><use style="fill:#969696;stroke:#969696;stroke-width:.4" x="360.16" xlink:href="#m690214188d" y="313.628" id="line2d_7"/><g style="fill:#969696" transform="matrix(.14 0 0 -.14 344.59 330.678)" id="text_6"><use xlink:href="#HelveticaWorld-Regular-32"/><use x="55.615" xlink:href="#HelveticaWorld-Regular-30"/><use x="111.23" xlink:href="#HelveticaWorld-Regular-32"/><use x="166.846" xlink:href="#HelveticaWorld-Regular-30"/></g></g></g><g id="matplotlib.axis_2"><g id="ytick_1"><path clip-path="url(#pdd602e1ffd)" d="M37.556 313.628h357.12" style="fill:none;stroke:#969696;stroke-linecap:square;stroke-width:.3" id="line2d_8"/><g id="line2d_9"><defs><path d="M0 0h-3.5" id="m6cae4e1a3e" style="stroke:#969696;stroke-width:.3"/></defs><use style="fill:#969696;stroke:#969696;stroke-width:.3" x="37.556" xlink:href="#m6cae4e1a3e" y="313.628"/></g><use xlink:href="#HelveticaWorld-Regular-30" transform="matrix(.14 0 0 -.14 22.77 318.653)" id="text_7"/></g><g id="ytick_2"><path clip-path="url(#pdd602e1ffd)" d="M37.556 262.906h357.12" style="fill:none;stroke:#969696;stroke-linecap:square;stroke-width:.3" id="line2d_10"/><use style="fill:#969696;stroke:#969696;stroke-width:.3" x="37.556" xlink:href="#m6cae4e1a3e" y="262.906" id="line2d_11"/><g style="fill:#969696" transform="matrix(.14 0 0 -.14 14.985 267.93)" id="text_8"><defs><path d="M941 2619q372 281 872 281 606 0 1042-403t436-1038q0-690-421-1139-420-448-1179-448-660 0-1041 323-381 324-444 918h582q43-363 284-555t669-192q415 0 681 287 266 288 266 735 0 456-279 731-278 275-718 275-500 0-835-428l-484 25 337 2406h2332v-544H1131L941 2619z" id="HelveticaWorld-Regular-35" transform="scale(.01563)"/></defs><use xlink:href="#HelveticaWorld-Regular-35"/><use x="55.615" xlink:href="#HelveticaWorld-Regular-30"/></g></g><g id="ytick_3"><path clip-path="url(#pdd602e1ffd)" d="M37.556 212.184h357.12" style="fill:none;stroke:#969696;stroke-linecap:square;stroke-width:.3" id="line2d_12"/><use style="fill:#969696;stroke:#969696;stroke-width:.3" x="37.556" xlink:href="#m6cae4e1a3e" y="212.184" id="line2d_13"/><g style="fill:#969696" transform="matrix(.14 0 0 -.14 7.2 217.208)" id="text_9"><use xlink:href="#HelveticaWorld-Regular-31"/><use x="55.615" xlink:href="#HelveticaWorld-Regular-30"/><use x="111.23" xlink:href="#HelveticaWorld-Regular-30"/></g></g><g id="ytick_4"><path clip-path="url(#pdd602e1ffd)" d="M37.556 161.461h357.12" style="fill:none;stroke:#969696;stroke-linecap:square;stroke-width:.3" id="line2d_14"/><use style="fill:#969696;stroke:#969696;stroke-width:.3" x="37.556" xlink:href="#m6cae4e1a3e" y="161.461" id="line2d_15"/><g style="fill:#969696" transform="matrix(.14 0 0 -.14 7.2 166.486)" id="text_10"><use xlink:href="#HelveticaWorld-Regular-31"/><use x="55.615" xlink:href="#HelveticaWorld-Regular-35"/><use x="111.23" xlink:href="#HelveticaWorld-Regular-30"/></g></g><g id="ytick_5"><path clip-path="url(#pdd602e1ffd)" d="M37.556 110.74h357.12" style="fill:none;stroke:#969696;stroke-linecap:square;stroke-width:.3" id="line2d_16"/><use style="fill:#969696;stroke:#969696;stroke-width:.3" x="37.556" xlink:href="#m6cae4e1a3e" y="110.739" id="line2d_17"/><g style="fill:#969696" transform="matrix(.14 0 0 -.14 7.2 115.764)" id="text_11"><use xlink:href="#HelveticaWorld-Regular-32"/><use x="55.615" xlink:href="#HelveticaWorld-Regular-30"/><use x="111.23" xlink:href="#HelveticaWorld-Regular-30"/></g></g><g id="ytick_6"><path clip-path="url(#pdd602e1ffd)" d="M37.556 60.017h357.12" style="fill:none;stroke:#969696;stroke-linecap:square;stroke-width:.3" id="line2d_18"/><use style="fill:#969696;stroke:#969696;stroke-width:.3" x="37.556" xlink:href="#m6cae4e1a3e" y="60.017" id="line2d_19"/><g style="fill:#969696" transform="matrix(.14 0 0 -.14 7.2 65.042)" id="text_12"><use xlink:href="#HelveticaWorld-Regular-32"/><use x="55.615" xlink:href="#HelveticaWorld-Regular-35"/><use x="111.23" xlink:href="#HelveticaWorld-Regular-30"/></g></g></g><path clip-path="url(#pdd602e1ffd)" d="m37.556 312.994 1.843.34 2.388-.18 4.82.245 2.311-.35 2.31.056 2.392-.187 2.39.121 2.39-.256 2.39.06 2.429.196 2.39-.087 2.391.054 2.388-.155 2.39.155 7.051-.523 2.392.03 2.39.33 4.78-.327 2.429.294 2.39-.365 2.391-.028 2.388.163 2.39-.032 4.741-.804 2.31.183 2.392.585 2.39-.095 2.39-.92 2.39.364 2.429-.163 2.39.104 2.391-.3 4.779.228 2.429.524 2.35-.41 2.35-.67 7.171.46 2.39-.133 2.43-.393h4.78l2.389-.117 2.39 1.001 2.43-1.505 2.31-.7 2.31.536 2.392-.313 2.39.771 2.39-.095 2.39.259 2.43-.622 2.39-.414 2.39 1.167 2.39-.795 4.818.795 2.312-1.324 2.31.538 2.391.16 2.39.364 2.39-.702 2.39.342 2.43-.295 2.39.527 2.39.128 4.78-.556 2.428.36 2.312-.36 2.31.425 2.391-1.045 2.39.783 2.39.502 2.39-.142 2.43-.883 2.39.585 2.39-.29 2.39.29 4.818.364 2.351-.752 2.35-.492 2.39.576 2.39 1.093 2.39-.552 2.39.225 2.43-.262 4.781.49 2.389-1.163 2.39 1 2.429-.458 2.311-.148 2.31.312 2.392-.3 2.39.169 2.39.507 2.39-.278 2.429.033 2.39-.77 2.391.704 2.389.21 2.39-.144 2.429-.72 2.311-.194 2.31-.46 2.392.909 7.17.137 4.819-.238 4.78-.812 2.39.887 2.429-.59 2.311.203 2.31.518 2.392.132 2.39-.165 2.39.401 2.39-.466 4.819-.514 2.392-.075 2.388.142 2.39.807 4.78-.479 2.349-.667 2.391.914 2.39-.26 2.39-.382 2.39.154 2.43.981 2.39-.256 2.391-.79 2.388.891 2.39.613 2.43-.032 2.311-.706 2.31-.407h0" style="fill:none;stroke:#aec7e8;stroke-linecap:square;stroke-width:1.5" id="line2d_20"/><path clip-path="url(#pdd602e1ffd)" d="M58.4 313.628h7.208l38.2-.065 2.312-.116 2.31.149 9.562-.066 7.21.066 2.389-.137 9.519.137 4.781-.033 4.78-.033 19.04-.065 2.391-.276 2.39.112 2.39-.315 2.39-.012 2.43.425 2.39-.447 7.169.12 2.43-.262 2.31.13 2.31-.392 2.392.032 2.39.263 2.39-.094 4.82.127 4.78-.655 2.39.055 2.39.207 2.428-.262 2.312.357 2.31-.913 2.391.374 2.39.248 2.39-.417 2.39-.074 2.43.752 4.78-1.112 2.39.434 4.818-.303 2.351-.772 2.35-.57 2.39.563 2.39.353 2.39-1.063 2.39.801 2.43-.098 2.39-.534 2.391.305 2.389.033 2.39-.622 2.429.426 2.311-.71 2.31-.894 2.392.65 2.39-.126 2.39.43 2.39-.201 2.429-1.047 2.39 1.113h2.391l2.389-1.521 2.39 1.39 2.429.294 2.311-1.211 2.31.164 4.782-.622 2.39 1.033 2.39-1.164 2.429.327 2.39.194 2.391-.325 2.389-.79 2.39 1.968 2.429-1.636 2.311-.707 2.31.707 2.392.04 2.39.91 2.39-.437 2.39-1.265 2.429 1.341 2.39-.583 2.392-1.118 2.388.07 2.39.78 2.429-1.407 2.35.106 2.35.778 2.391-1.103 2.39-.173 2.39-.47 2.39 1.484 4.82.14 2.391 1.005 2.388-.836 2.39 1.556 2.43-1.701 2.311-1.02 2.31.921h0" style="fill:none;stroke:#17becf;stroke-linecap:square;stroke-width:1.5" id="line2d_21"/><g style="fill:#1f77b4" transform="matrix(.14 0 0 -.14 398.247 197.058)" id="text_13"><defs><path d="M422 3347h531v-472h13q378 569 1012 569 628 0 891-544 240 294 465 419t557 125q434 0 735-285 302-284 302-843V0h-562v2163q0 390-147 582-147 193-475 193-331 0-560-269-228-269-228-628V0h-562v2316q0 290-135 456-134 166-390 166-403 0-644-300t-241-813V0H422v3347z" id="HelveticaWorld-Regular-6d" transform="scale(.01563)"/><path d="M2497 3347h612L1913 63q-32-88-63-166-272-725-469-995-197-271-637-271-231 0-378 50v513q159-57 350-57 206 0 301 130 96 130 283 636L56 3347h635l897-2725h12l897 2725z" id="HelveticaWorld-Regular-79" transform="scale(.01563)"/><path d="M2309 2394q-12 300-214 431-201 131-579 131-275 0-471-122-195-121-195-350 0-181 115-267 116-86 501-183l556-140q506-128 723-327 218-198 218-554 0-494-361-802T1638-97Q934-97 573 195q-360 293-367 880h544q13-347 230-516 217-168 651-168 353 0 561 140 208 141 208 391 0 178-135 284-134 107-531 197l-653 160q-397 100-586 298t-189 514q0 494 353 781 354 288 922 288 607 0 930-296 323-295 342-754h-544z" id="HelveticaWorld-Regular-73" transform="scale(.01563)"/><path d="M2656 1516q0 712-224 1067-223 355-679 355-440 0-678-288-237-287-237-966 0-603 240-948 241-345 663-345 372 0 643 281 272 281 272 844zm538-2841h-563V353h-12Q2297-97 1728-97q-703 0-1088 522-384 522-384 1347 0 731 378 1201 379 471 1016 471 634 0 1000-569h13v472h531v-4672z" id="HelveticaWorld-Regular-71" transform="scale(.01563)"/><path d="M984 0H422v4594h562V0z" id="HelveticaWorld-Regular-6c" transform="scale(.01563)"/></defs><use xlink:href="#HelveticaWorld-Regular-6d"/><use x="81.008" xlink:href="#HelveticaWorld-Regular-79"/><use x="129.117" xlink:href="#HelveticaWorld-Regular-73"/><use x="178.117" xlink:href="#HelveticaWorld-Regular-71"/><use x="234.611" xlink:href="#HelveticaWorld-Regular-6c"/></g><g style="fill:#ff7f0e" transform="matrix(.14 0 0 -.14 398.247 218.57)" id="text_14"><defs><path d="M959 1516q0-538 262-832 263-293 654-293 428 0 665 348 238 349 238 945 0 654-228 954t-687 300q-447 0-676-352-228-352-228-1070zM422 3347h531v-472h13q359 569 1000 569 647 0 1020-471 373-470 373-1201 0-819-381-1344T1888-97q-582 0-891 450h-13v-1678H422v4672z" id="HelveticaWorld-Regular-70" transform="scale(.01563)"/><path d="M813 1678q0-559 253-920t718-361q482 0 732 378t250 903q0 531-250 901-250 371-732 371-446 0-709-349-262-348-262-923zm-575 0q0 747 415 1256 416 510 1131 510 732 0 1144-516 413-515 413-1250 0-737-410-1256Q2522-97 1784-97q-709 0-1128 503-418 503-418 1272z" id="HelveticaWorld-Regular-6f" transform="scale(.01563)"/><path d="M1100 2881V703q0-128 70-195 71-67 252-67h216V0q-307-44-422-44-353 0-516 169-162 169-162 547v2209H84v466h454v934h562v-934h538v-466h-538z" id="HelveticaWorld-Regular-74" transform="scale(.01563)"/><path d="M831 1684q0-615 244-954t659-339q404 0 660 293 256 294 256 832 0 706-224 1064-223 358-679 358-459 0-688-305-228-305-228-949zM3188 191q0-807-388-1203-387-397-1169-397-562 0-895 259T353-409h563q43-244 226-388t530-144q472 0 712 254 241 253 241 821v238h-12Q2297-97 1722-97q-716 0-1094 528T250 1772q0 744 381 1208 382 464 1013 464 634 0 1000-569h12v472h532V191z" id="HelveticaWorld-Regular-67" transform="scale(.01563)"/><path d="M984 0H422v3347h531v-556h13q365 653 940 653 91 0 147-19v-584h-209q-378 0-619-257-241-256-241-637V0z" id="HelveticaWorld-Regular-72" transform="scale(.01563)"/><path d="M2719 1941q-44 543-288 770-243 227-647 227-409 0-661-288-251-287-267-709h1863zm537-891q-93-519-509-859-366-288-963-294-703 6-1116 461-412 455-412 1223 0 882 425 1372 425 491 1182 491 678 0 1059-507 381-506 381-1446H856q0-525 244-813 244-287 731-287 344 0 591 207 247 208 272 452h562z" id="HelveticaWorld-Regular-65" transform="scale(.01563)"/></defs><use xlink:href="#HelveticaWorld-Regular-70"/><use x="56.494" xlink:href="#HelveticaWorld-Regular-6f"/><use x="112.402" xlink:href="#HelveticaWorld-Regular-73"/><use x="162.402" xlink:href="#HelveticaWorld-Regular-74"/><use x="190.088" xlink:href="#HelveticaWorld-Regular-67"/><use x="245.996" xlink:href="#HelveticaWorld-Regular-72"/><use x="277.564" xlink:href="#HelveticaWorld-Regular-65"/><use x="332.984" xlink:href="#HelveticaWorld-Regular-73"/><use x="381.984" xlink:href="#HelveticaWorld-Regular-71"/><use x="438.479" xlink:href="#HelveticaWorld-Regular-6c"/></g><g style="fill:#2ca02c" transform="matrix(.14 0 0 -.14 398.247 232.662)" id="text_15"><defs><path d="M1850 1484H281v575h1569v-575z" id="HelveticaWorld-Regular-2d" transform="scale(.01563)"/><path d="M2522 3347h616L1863 0h-604L38 3347h653l872-2725h12l947 2725z" id="HelveticaWorld-Regular-76" transform="scale(.01563)"/></defs><use xlink:href="#HelveticaWorld-Regular-73"/><use x="49" xlink:href="#HelveticaWorld-Regular-71"/><use x="105.494" xlink:href="#HelveticaWorld-Regular-6c"/><use x="127.516" xlink:href="#HelveticaWorld-Regular-2d"/><use x="160.816" xlink:href="#HelveticaWorld-Regular-73"/><use x="210.816" xlink:href="#HelveticaWorld-Regular-65"/><use x="266.236" xlink:href="#HelveticaWorld-Regular-72"/><use x="301.18" xlink:href="#HelveticaWorld-Regular-76"/><use x="348.789" xlink:href="#HelveticaWorld-Regular-65"/><use x="404.209" xlink:href="#HelveticaWorld-Regular-72"/></g><g style="fill:#d62728" transform="matrix(.14 0 0 -.14 398.247 246.57)" id="text_16"><defs><path d="M3150 0h-566v2059q0 475-166 677-165 202-549 202-378 0-632-288-253-287-253-825V0H422v3347h531v-472h13q397 569 1012 569 569 0 870-302 302-301 302-864V0z" id="HelveticaWorld-Regular-6e" transform="scale(.01563)"/><path d="M838 1684q0-621 246-957 247-336 657-336 390 0 652 287 263 288 263 838 0 706-224 1064-223 358-679 358-434 0-675-285-240-284-240-969zM3225 0h-531v459h-13Q2363-97 1716-97q-697 0-1079 531-381 532-381 1338 0 744 378 1208 379 464 1016 464 628 0 1000-569l13 38v1681h562V0z" id="HelveticaWorld-Regular-64" transform="scale(.01563)"/><path d="M2778 1684q0 672-238 963-237 291-677 291-447-7-676-349-228-342-228-989 0-659 275-934t641-275q416 0 659 342 244 342 244 951zM422 0v4594h562V2925h13q359 519 969 519 625 0 1009-464t384-1208q0-838-388-1354Q2584-97 1888-97q-613 0-922 513h-13V0H422z" id="HelveticaWorld-Regular-62" transform="scale(.01563)"/></defs><use xlink:href="#HelveticaWorld-Regular-6d"/><use x="83.008" xlink:href="#HelveticaWorld-Regular-6f"/><use x="138.916" xlink:href="#HelveticaWorld-Regular-6e"/><use x="194.092" xlink:href="#HelveticaWorld-Regular-67"/><use x="250" xlink:href="#HelveticaWorld-Regular-6f"/><use x="305.908" xlink:href="#HelveticaWorld-Regular-64"/><use x="362.891" xlink:href="#HelveticaWorld-Regular-62"/></g><g style="fill:#9467bd" transform="matrix(.14 0 0 -.14 398.247 260.662)" id="text_17"><defs><path d="M2456 1709q-62-65-245-106-183-40-683-106-369-44-542-182-173-137-173-362 0-275 146-428 147-153 469-153 403 0 715 229 313 230 313 558v550zM397 2328q19 566 367 841 349 275 1014 275 531 0 890-241 360-240 360-694V581q0-197 178-197 72 0 185 25V0q-153-63-319-63-288 0-429 123-140 124-146 387Q2016-97 1288-97q-475 0-763 269-287 269-287 700 0 441 250 712 250 272 728 329l993 121q269 41 269 397 0 263-195 403-195 141-592 141-353 0-543-156-189-156-226-491H397z" id="HelveticaWorld-Regular-61" transform="scale(.01563)"/><path d="M2534 2222q-121 716-793 716-416 0-669-333t-253-927q0-647 234-967 235-320 681-320 300 0 519 220t281 573h544q-84-621-439-951T1722-97q-659 0-1081 451-422 452-422 1227 0 850 422 1356 422 507 1184 507 556 0 886-333t367-889h-544z" id="HelveticaWorld-Regular-63" transform="scale(.01563)"/></defs><use xlink:href="#HelveticaWorld-Regular-6f"/><use x="55.908" xlink:href="#HelveticaWorld-Regular-72"/><use x="87.477" xlink:href="#HelveticaWorld-Regular-61"/><use x="142.408" xlink:href="#HelveticaWorld-Regular-63"/><use x="193.678" xlink:href="#HelveticaWorld-Regular-6c"/><use x="215.699" xlink:href="#HelveticaWorld-Regular-65"/></g><g style="fill:#8c564b" transform="matrix(.14 0 0 -.14 398.247 274.662)" id="text_18"><defs><path d="M422 3956v638h562v-638H422zM984 0H422v3347h562V0z" id="HelveticaWorld-Regular-69" transform="scale(.01563)"/><path d="M3150 0h-566v2188q0 403-156 576-156 174-509 174-435 0-685-282-250-281-250-831V0H422v4594h562V2900h13q384 544 981 544 550 0 861-288 311-287 311-878V0z" id="HelveticaWorld-Regular-68" transform="scale(.01563)"/></defs><use xlink:href="#HelveticaWorld-Regular-65"/><use x="55.42" xlink:href="#HelveticaWorld-Regular-6c"/><use x="77.441" xlink:href="#HelveticaWorld-Regular-61"/><use x="132.373" xlink:href="#HelveticaWorld-Regular-73"/><use x="182.373" xlink:href="#HelveticaWorld-Regular-74"/><use x="210.059" xlink:href="#HelveticaWorld-Regular-69"/><use x="232.08" xlink:href="#HelveticaWorld-Regular-63"/><use x="283.35" xlink:href="#HelveticaWorld-Regular-73"/><use x="333.35" xlink:href="#HelveticaWorld-Regular-65"/><use x="388.77" xlink:href="#HelveticaWorld-Regular-61"/><use x="443.701" xlink:href="#HelveticaWorld-Regular-72"/><use x="475.27" xlink:href="#HelveticaWorld-Regular-63"/><use x="526.539" xlink:href="#HelveticaWorld-Regular-68"/></g><g style="fill:#e377c2" transform="matrix(.14 0 0 -.14 398.247 288.662)" id="text_19"><use xlink:href="#HelveticaWorld-Regular-73"/><use x="49" xlink:href="#HelveticaWorld-Regular-71"/><use x="105.494" xlink:href="#HelveticaWorld-Regular-6c"/><use x="127.516" xlink:href="#HelveticaWorld-Regular-69"/><use x="149.537" xlink:href="#HelveticaWorld-Regular-74"/><use x="177.223" xlink:href="#HelveticaWorld-Regular-65"/></g><g style="fill:#7f7f7f" transform="matrix(.14 0 0 -.14 398.247 302.662)" id="text_20"><use xlink:href="#HelveticaWorld-Regular-6d"/><use x="83.008" xlink:href="#HelveticaWorld-Regular-73"/><use x="133.008" xlink:href="#HelveticaWorld-Regular-2d"/><use x="166.309" xlink:href="#HelveticaWorld-Regular-61"/><use x="221.24" xlink:href="#HelveticaWorld-Regular-63"/><use x="272.51" xlink:href="#HelveticaWorld-Regular-63"/><use x="323.779" xlink:href="#HelveticaWorld-Regular-65"/><use x="379.199" xlink:href="#HelveticaWorld-Regular-73"/><use x="429.199" xlink:href="#HelveticaWorld-Regular-73"/></g><g style="fill:#bcbd22" transform="matrix(.14 0 0 -.14 398.247 316.662)" id="text_21"><use xlink:href="#HelveticaWorld-Regular-72"/><use x="31.568" xlink:href="#HelveticaWorld-Regular-65"/><use x="86.988" xlink:href="#HelveticaWorld-Regular-64"/><use x="143.971" xlink:href="#HelveticaWorld-Regular-69"/><use x="165.992" xlink:href="#HelveticaWorld-Regular-73"/></g><g style="fill:#17becf" transform="matrix(.14 0 0 -.14 398.247 330.662)" id="text_22"><use xlink:href="#HelveticaWorld-Regular-6d"/><use x="83.008" xlink:href="#HelveticaWorld-Regular-61"/><use x="137.939" xlink:href="#HelveticaWorld-Regular-72"/><use x="170.508" xlink:href="#HelveticaWorld-Regular-69"/><use x="192.529" xlink:href="#HelveticaWorld-Regular-61"/><use x="247.461" xlink:href="#HelveticaWorld-Regular-64"/><use x="304.443" xlink:href="#HelveticaWorld-Regular-62"/></g><g style="fill:#aec7e8" transform="matrix(.14 0 0 -.14 398.247 344.662)" id="text_23"><use xlink:href="#HelveticaWorld-Regular-64"/><use x="56.982" xlink:href="#HelveticaWorld-Regular-62"/><use x="113.477" xlink:href="#HelveticaWorld-Regular-32"/></g><g style="fill:#ffbb78" transform="matrix(.14 0 0 -.14 398.247 358.662)" id="text_24"><use xlink:href="#HelveticaWorld-Regular-73"/><use x="50" xlink:href="#HelveticaWorld-Regular-6f"/><use x="105.908" xlink:href="#HelveticaWorld-Regular-6c"/><use x="127.93" xlink:href="#HelveticaWorld-Regular-72"/></g><g style="fill:#969696" transform="matrix(.09716 0 0 -.09716 37.556 347.399)" id="text_25"><defs><path d="M3225 3250q-19 438-327 686-307 248-810 248-507 0-779-208-271-207-271-598 0-209 118-359 119-150 425-222l1313-300q531-116 787-440 257-323 257-788 0-681-500-1036T2138-122q-610 0-962 156-351 157-623 497-272 341-272 953h582q0-512 340-794 341-281 928-281 569 0 886 202t317 573q0 338-189 505t-739 295l-990 232q-494 112-738 392t-244 689q0 619 417 1019 418 400 1165 400 843 0 1301-352 458-351 492-1114h-584z" id="HelveticaWorld-Regular-53" transform="scale(.01563)"/><path d="M3200 0h-722L1434 1691l-468-422V0H422v4594h544V1931l1440 1416h716L1844 2100 3200 0z" id="HelveticaWorld-Regular-6b" transform="scale(.01563)"/><path d="M4091 2297q0 806-427 1337-426 532-1173 532-738 0-1169-532-431-531-431-1337 0-831 437-1350 438-519 1163-519 709 0 1154 506 446 507 446 1363zm637 0q0-1028-594-1724-593-695-1643-695-1057 0-1649 695-592 696-592 1724 0 1031 592 1725t1649 694q1081 0 1659-707 578-706 578-1712z" id="HelveticaWorld-Regular-4f" transform="scale(.01563)"/><path d="M1100 2881V0H538v2881H78v466h460v575q0 378 229 557 230 180 642 180 141 0 254-12v-506q-100 12-229 12-187 0-261-92-73-92-73-298v-416h563v-466h-563z" id="HelveticaWorld-Regular-66" transform="scale(.01563)"/><path d="M1638 0h-575L97 3347h606l641-2631h12l647 2631h635l653-2631h12l678 2631h557L3572 0h-591l-678 2591h-12L1638 0z" id="HelveticaWorld-Regular-77" transform="scale(.01563)"/><path d="m2816 1888-678 2021h-13l-737-2021h1428zm-1619-550L716 0H78l1728 4594h703L4172 0h-678l-453 1338H1197z" id="HelveticaWorld-Regular-41" transform="scale(.01563)"/><path d="M1141 2472h1234q466 0 700 204 234 205 234 621 0 372-225 569t-684 197H1141V2472zm0-2472H519v4594h2065q616 0 991-358t375-933q0-597-363-980-362-382-1003-382H1141V0z" id="HelveticaWorld-Regular-50" transform="scale(.01563)"/><path d="M1141 0H519v4594h622V0z" id="HelveticaWorld-Regular-49" transform="scale(.01563)"/><path d="M603 4716h466V-122H603v4838z" id="HelveticaWorld-Regular-7c" transform="scale(.01563)"/><path d="M3559 4594h600V0h-690L1125 3713h-12V0H519v4594h728L3547 884h12v3710z" id="HelveticaWorld-Regular-4e" transform="scale(.01563)"/><path d="M813 1678q0-559 253-920t718-361q482 0 732 378t250 903q0 531-250 901-250 371-732 371-446 0-709-349-262-348-262-923zm-575 0q0 747 415 1256 416 510 1131 510 732 0 1144-516 413-515 413-1250 0-737-410-1256Q2522-97 1784-97q-709 0-1128 503-418 503-418 1272zm2351 2266h-575v650h575v-650zm-1038 0H976v650h575v-650z" id="HelveticaWorld-Regular-f6" transform="scale(.01563)"/><path d="M3713 3213q-104 468-434 710-329 243-854 243-678 0-1091-493-412-492-412-1329 0-969 390-1443 391-473 1132-473 487 0 838 323 352 324 474 940h603q-121-885-671-1349T2350-122q-941 0-1505 647T281 2322q0 1109 589 1751 589 643 1555 643 800 0 1297-413 497-412 591-1090h-600z" id="HelveticaWorld-Regular-43" transform="scale(.01563)"/><path d="M519 4594h2015q594 0 947-322t353-834q0-310-155-565-154-254-460-395 428-162 629-431 202-269 202-691 0-593-428-975Q3194 0 2491 0H519v4594zm612-4063h1325q488 0 731 226 244 227 244 612 0 390-272 582-271 193-803 193H1131V531zm0 2119h1128q494 0 724 179 230 180 230 562 0 328-218 500-217 172-729 172H1131V2650z" id="HelveticaWorld-Regular-42" transform="scale(.01563)"/><path d="M2388 0h-622v1850L31 4594h725l1319-2206 1316 2206h731L2388 1850V0z" id="HelveticaWorld-Regular-59" transform="scale(.01563)"/></defs><use xlink:href="#HelveticaWorld-Regular-53"/><use x="66.211" xlink:href="#HelveticaWorld-Regular-74"/><use x="93.896" xlink:href="#HelveticaWorld-Regular-61"/><use x="148.828" xlink:href="#HelveticaWorld-Regular-63"/><use x="200.098" xlink:href="#HelveticaWorld-Regular-6b"/><use x="250.098" xlink:href="#HelveticaWorld-Regular-4f"/><use x="327.881" xlink:href="#HelveticaWorld-Regular-76"/><use x="375.49" xlink:href="#HelveticaWorld-Regular-65"/><use x="430.91" xlink:href="#HelveticaWorld-Regular-72"/><use x="464.979" xlink:href="#HelveticaWorld-Regular-66"/><use x="492.664" xlink:href="#HelveticaWorld-Regular-6c"/><use x="514.686" xlink:href="#HelveticaWorld-Regular-6f"/><use x="569.094" xlink:href="#HelveticaWorld-Regular-77"/><use x="641.506" xlink:href="#HelveticaWorld-Regular-20"/><use x="665.92" xlink:href="#HelveticaWorld-Regular-41"/><use x="732.619" xlink:href="#HelveticaWorld-Regular-50"/><use x="797.268" xlink:href="#HelveticaWorld-Regular-49"/><use x="823.049" xlink:href="#HelveticaWorld-Regular-20"/><use x="847.463" xlink:href="#HelveticaWorld-Regular-76"/><use x="897.072" xlink:href="#HelveticaWorld-Regular-69"/><use x="919.094" xlink:href="#HelveticaWorld-Regular-61"/><use x="974.025" xlink:href="#HelveticaWorld-Regular-20"/><use x="998.439" xlink:href="#HelveticaWorld-Regular-73"/><use x="1048.439" xlink:href="#HelveticaWorld-Regular-74"/><use x="1076.125" xlink:href="#HelveticaWorld-Regular-61"/><use x="1131.057" xlink:href="#HelveticaWorld-Regular-63"/><use x="1182.326" xlink:href="#HelveticaWorld-Regular-6b"/><use x="1232.326" xlink:href="#HelveticaWorld-Regular-74"/><use x="1260.012" xlink:href="#HelveticaWorld-Regular-61"/><use x="1314.943" xlink:href="#HelveticaWorld-Regular-67"/><use x="1370.852" xlink:href="#HelveticaWorld-Regular-73"/><use x="1420.852" xlink:href="#HelveticaWorld-Regular-20"/><use x="1445.266" xlink:href="#HelveticaWorld-Regular-7c"/><use x="1471.242" xlink:href="#HelveticaWorld-Regular-20"/><use x="1495.656" xlink:href="#HelveticaWorld-Regular-4e"/><use x="1568.752" xlink:href="#HelveticaWorld-Regular-69"/><use x="1590.773" xlink:href="#HelveticaWorld-Regular-63"/><use x="1642.043" xlink:href="#HelveticaWorld-Regular-6f"/><use x="1697.951" xlink:href="#HelveticaWorld-Regular-20"/><use x="1722.365" xlink:href="#HelveticaWorld-Regular-53"/><use x="1788.576" xlink:href="#HelveticaWorld-Regular-63"/><use x="1839.846" xlink:href="#HelveticaWorld-Regular-68"/><use x="1895.021" xlink:href="#HelveticaWorld-Regular-6c"/><use x="1917.043" xlink:href="#HelveticaWorld-Regular-f6"/><use x="1972.951" xlink:href="#HelveticaWorld-Regular-6d"/><use x="2055.959" xlink:href="#HelveticaWorld-Regular-65"/><use x="2111.379" xlink:href="#HelveticaWorld-Regular-72"/><use x="2143.947" xlink:href="#HelveticaWorld-Regular-20"/><use x="2168.361" xlink:href="#HelveticaWorld-Regular-7c"/><use x="2194.338" xlink:href="#HelveticaWorld-Regular-20"/><use x="2218.752" xlink:href="#HelveticaWorld-Regular-43"/><use x="2291.066" xlink:href="#HelveticaWorld-Regular-43"/><use x="2363.381" xlink:href="#HelveticaWorld-Regular-20"/><use x="2387.795" xlink:href="#HelveticaWorld-Regular-42"/><use x="2450.607" xlink:href="#HelveticaWorld-Regular-59"/></g><g style="fill:#969696" transform="matrix(.14 0 0 -.14 80.05 17.516)" id="text_26"><defs><path d="M1141 531h1203q625 0 978 480t353 1311q0 822-356 1278t-1028 463H1141V531zM519 4594h1862q903 0 1414-621 511-620 511-1610 0-1063-511-1713T2356 0H519v4594z" id="HelveticaWorld-Regular-44" transform="scale(.01563)"/><path d="M391 3347h562V1125q0-369 167-552 168-182 480-182 434 0 678 307 244 308 244 805v1844h562V0h-531v488l-12 12Q2222-97 1478-97q-481 0-784 262-303 263-303 776v2406z" id="HelveticaWorld-Regular-75" transform="scale(.01563)"/></defs><use xlink:href="#HelveticaWorld-Regular-44"/><use x="72.021" xlink:href="#HelveticaWorld-Regular-61"/><use x="126.953" xlink:href="#HelveticaWorld-Regular-69"/><use x="148.975" xlink:href="#HelveticaWorld-Regular-6c"/><use x="170.996" xlink:href="#HelveticaWorld-Regular-79"/><use x="220.605" xlink:href="#HelveticaWorld-Regular-20"/><use x="245.02" xlink:href="#HelveticaWorld-Regular-6e"/><use x="300.195" xlink:href="#HelveticaWorld-Regular-75"/><use x="354.98" xlink:href="#HelveticaWorld-Regular-6d"/><use x="437.988" xlink:href="#HelveticaWorld-Regular-62"/><use x="494.482" xlink:href="#HelveticaWorld-Regular-65"/><use x="549.902" xlink:href="#HelveticaWorld-Regular-72"/><use x="582.471" xlink:href="#HelveticaWorld-Regular-20"/><use x="606.885" xlink:href="#HelveticaWorld-Regular-6f"/><use x="662.793" xlink:href="#HelveticaWorld-Regular-66"/><use x="690.479" xlink:href="#HelveticaWorld-Regular-20"/><use x="714.893" xlink:href="#HelveticaWorld-Regular-71"/><use x="771.387" xlink:href="#HelveticaWorld-Regular-75"/><use x="826.172" xlink:href="#HelveticaWorld-Regular-65"/><use x="881.592" xlink:href="#HelveticaWorld-Regular-73"/><use x="931.592" xlink:href="#HelveticaWorld-Regular-74"/><use x="959.277" xlink:href="#HelveticaWorld-Regular-69"/><use x="981.299" xlink:href="#HelveticaWorld-Regular-6f"/><use x="1037.207" xlink:href="#HelveticaWorld-Regular-6e"/><use x="1092.383" xlink:href="#HelveticaWorld-Regular-73"/><use x="1142.383" xlink:href="#HelveticaWorld-Regular-20"/><use x="1166.797" xlink:href="#HelveticaWorld-Regular-6f"/><use x="1222.705" xlink:href="#HelveticaWorld-Regular-6e"/><use x="1277.881" xlink:href="#HelveticaWorld-Regular-20"/><use x="1302.295" xlink:href="#HelveticaWorld-Regular-53"/><use x="1368.506" xlink:href="#HelveticaWorld-Regular-74"/><use x="1396.191" xlink:href="#HelveticaWorld-Regular-61"/><use x="1451.123" xlink:href="#HelveticaWorld-Regular-63"/><use x="1502.393" xlink:href="#HelveticaWorld-Regular-6b"/><use x="1552.393" xlink:href="#HelveticaWorld-Regular-4f"/><use x="1630.176" xlink:href="#HelveticaWorld-Regular-76"/><use x="1677.785" xlink:href="#HelveticaWorld-Regular-65"/><use x="1733.205" xlink:href="#HelveticaWorld-Regular-72"/><use x="1767.273" xlink:href="#HelveticaWorld-Regular-66"/><use x="1794.959" xlink:href="#HelveticaWorld-Regular-6c"/><use x="1816.98" xlink:href="#HelveticaWorld-Regular-6f"/><use x="1871.389" xlink:href="#HelveticaWorld-Regular-77"/></g><path clip-path="url(#pdd602e1ffd)" d="m60.79 313.628 16.73-.145 4.7-.058 7.17-.157 2.43.033 4.781-.23 2.388-.018 2.39.117 2.43-.916 2.311.179 2.31-.081 2.392-.414 2.39.381 2.39-1.125 2.39.144 2.429.327 2.39-.269 4.78.034 2.39-.55 2.429.163 2.35-.423 2.35.292 4.781-1.309 2.39-.134 2.39.985 2.43-.818 2.39.712 2.39-1.072 2.389.836 2.39.178 2.43.459 4.62-1.146 4.782-.622 2.39.623 2.39.36 2.43-.819 2.39.223 2.39-.812 2.39-.44 2.389.538 2.43-.098 2.31.181 2.31-1.555 2.392.393 2.39 1.897 4.78-.981 2.43-.197 2.39.33 2.39.096 2.39.276 2.39.509 2.428-1.014 2.312-.768 2.31-.312 2.391.164 2.39-.328 2.39-.044 4.82-.447 2.39.075 9.598 1.005 2.351-.994 2.35-.25 2.39.307 2.39-.241 2.39.343 2.39 1.359 2.43-.917 2.39.03 2.391 1.312 2.389-1.48 2.39.826 2.429-.851 2.311-.5 2.31 1.056 2.392-.227 2.39-.951 2.39.512 2.39.24 2.429-.261 2.39.663 2.391.417 2.389-.687 2.39 1.341 2.429-1.08 2.311-.08 2.31-.803 7.172-.089 2.39-1.122 2.429-1.342 2.39 1.01 2.391-.42 2.389-.053 2.39 2.768 2.429-2.028 2.311.303 2.31-.565 2.392-.275 2.39.798 2.39.588 2.39-1.308 2.429-.196 2.39.896 2.392-.012 2.388-1.003 2.39.577 4.78-1.054 2.349-.844 2.391-1.485 2.39.7 2.39-.328 2.39.262 2.43.982 2.39-.06 2.391.813 4.778.949 2.43-.458 2.311.009 2.31-.991h0" style="fill:none;stroke:#bcbd22;stroke-linecap:square;stroke-width:1.5" id="line2d_22"/><path clip-path="url(#pdd602e1ffd)" d="m37.556 309.697 1.843.953 2.388.544 2.39-.053 2.43.59 4.621-1.146 2.392-.643 2.39-.437 2.39-.239 2.39-2.183 2.429 1.8 2.39-.936 2.391.87 2.388-.227 2.39.13 4.741.633 2.31-1.288 2.392 1.032 2.39-1.686 2.39-.343 2.39-.148 2.429 1.21 2.39.19 2.391-.451 2.388-.09 2.39.548 2.43-1.963 2.311.38 2.31-.217 2.392-.98 2.39.195 2.39-.94 4.819.285 2.39 2.049 2.391-.478 2.389-1.01 2.39.52 2.429-.688 2.35-1.961 2.35 1.143 2.391-1.584 2.39 1.224 2.39-.007 2.39-3.2 2.43 1.047 2.39 2.762 2.39-1.747 2.389-.688 2.39 1.244 2.43-2.356 2.31-.192 2.31-3.67 2.392.105 2.39 1.237 2.39.69 2.39-1.934 2.43 3.273 2.39-1.508 2.39-3.793 2.39 2.204 2.389 1.559 2.43-1.015 2.31-3.85 2.31 2.378 2.392-.932 2.39 4.957 2.39-.324 2.39-1.934 2.43 2.454 2.39 1.543 2.39-.921 2.39.143 2.39 1.297 2.428-3.6 2.312.7 2.31-1.583 2.391.819 2.39-.329 2.39-2.917 2.39.987 2.43 2.88 2.39-.25 2.39-.667 2.39 2.764 2.39-1.553 2.428-1.963 2.351-3.079 2.35 2.49 2.39 1.299 2.39.108 2.39-3.084 2.39 2.658 2.43-1.112 2.39 2.68 2.391-1.699 2.389 1.125 2.39 1.624 2.429-.982 2.311-1.92 2.31.677 2.392 1.717 2.39-3.517 2.39-1.285 2.39.696 2.429 1.669 2.39 3.18 2.391-.857 2.389.08 2.39 2.244 2.429-1.407 2.311.354 4.702-.616 2.39.164 2.39-.13 2.39-.721 2.429-1.506 2.39 1.753 2.391-.476 2.389.206 2.39 3.099 2.429-3.469 2.311-.84 2.31 1.429 7.172.964 2.39-1.39 2.429 2.848 2.39-.646 2.392-1.94 2.388-.021 2.39 1.69 2.429-.785 2.35-.929 2.35 2.565 2.391-4.57 2.39 1.887 2.39-.602 4.82 4.038 2.39-.183 2.391 2.114 2.388-.627 2.39 1.216 2.43-1.277 2.311-1.506 2.31-.359h0" style="fill:none;stroke:#7f7f7f;stroke-linecap:square;stroke-width:1.5" id="line2d_23"/><path clip-path="url(#pdd602e1ffd)" d="m37.556 312.17 1.843.378 2.388.133 2.39.26 4.741-1.233 2.31-.043 2.392-1.148 2.39-.325 7.209-.523 2.39.476 2.391-.934 2.388-.283 2.39-.077 2.43-.295 2.311-1.268 2.31-.106 2.392-.35 2.39-.828 2.39.557 2.39-2.194 2.429-.36 2.39 1.134 2.391-1.526 2.388-1.957 2.39.713 2.43-.556 2.311-3.403 2.31-2.815 2.392.177 2.39.838 2.39-3.171 2.39.815 2.429.098 2.39-.372 2.391 2.433 2.389-3.684 2.39 3.913 2.429-2.52 2.35-5.962 2.35-1.597 2.391 1.668 2.39 1.474 2.39.014 2.39-1.356 2.43-.458 2.39 3.2 2.39-1.564 2.389-.972 2.39.285 2.43-1.472 2.31.303 2.31-1.612 2.392.062 2.39.396 2.39 3.797 2.39-5.433 2.43 2.323 2.39-.035 2.39-3.467 2.39-1.166 2.389 3.424 2.43-4.286 2.31-2.082 2.31.184 2.392-.824 2.39 7.27 2.39 2.097 2.39-3.733 2.43 4.221 2.39-1.401 2.39 2.187 2.39-1.41 2.39 2.817 2.428-3.305 2.312-1.11 2.31-4.715 2.391-1.633 2.39 7.589 2.39-.961 2.39.404 2.43.557 2.39-.927 2.39 1.45 2.39 1.762 2.39.267 2.428-1.407 2.351-3.413 2.35-1.757 2.39-1.603 2.39 3.042 2.39 4.195 2.39-.758 2.43 2.847 2.39-2.022 2.391.058 2.389.923 2.39.68 2.429-1.374 4.621-1.898 2.392-1.601 2.39.358 2.39 4.41 2.39.433 2.429.622 2.39.838 2.391 1.256 2.389-2.946 2.39 3.273 2.429-.425 2.311-1.873 2.31 2.004 2.392-1.56 2.39 1.69 2.39 2.064 2.39-1.082 2.429-2.389 2.39.191 2.391-1.467 2.389.216 2.39 4.366 2.429-2.095 2.311-3.278 2.31 1.053 2.392 1.307 2.39 2.096 2.39.778 2.39-1.792 2.429 1.243 2.39.177 2.392-2.467 2.388-1.422 2.39 3.058 2.429-1.67 2.35-3.222 2.35 1.03 2.391-5.18 2.39-.906 2.39 4.287 2.39 1.963 2.43.458 2.39 1.095 2.391 1.327 2.388-1.834 2.39 2.783 2.43-2.324 2.311-.063 2.31-.264h0" style="fill:none;stroke:#e377c2;stroke-linecap:square;stroke-width:1.5" id="line2d_24"/><path clip-path="url(#pdd602e1ffd)" d="M75.207 313.628h28.602l2.311-.18 2.31.115 2.392-.002 2.39-.195 11.99-.065 2.389-.484 2.39.32 2.429-.49 2.35.107 2.35-.107 2.391-.338 2.39-.513 2.39.074 2.39.187 2.43-.981 2.39-.153 2.39-.633 2.389-.178 2.39.996 2.43-1.276 2.31.427 2.31-.983 2.392-.788 2.39.493 2.39-.797 2.39-.544 2.43.327 2.39.555 2.39-.719 2.39-.43 2.389 1.281 2.43-3.207 2.31-2.108 2.31.767 2.392-1.704 2.39.133 2.39 1.185 2.39-1.578 2.43-.949 2.39.904 2.39 1.027 2.39-1.568 2.39.03 2.428-1.67 2.312-3.026 2.31-.965 2.391 1.066 2.39-1.001 2.39-1.535 4.82.422 2.39.018 2.39.702 2.39-3.07 2.39 3.463 2.428-3.043 2.351-3.316 2.35 1.025 2.39.722 2.39.554 2.39-.994 2.39 2.925 2.43-.687 2.39.84 2.391 1.189 2.389-1.595 2.39 2.838 2.429-3.698 2.311-4.374 2.31 3.85 2.392 2.128 2.39-1.898 2.39-.097 2.39 2.191 2.429-2.618 2.39 2.388 4.78 2.13 2.39 3.369 2.429-1.375 2.311-3.366 2.31.487 2.392.074 2.39-1.252h2.39l2.39-1.768 2.429-3.043 2.39 2.31 2.391-2.277 2.389-.497 2.39 7.925 2.429-3.6 2.311-4.12 2.31 1.568 2.392 1.102 2.39-.84 2.39-.242 2.39-2.016 2.429 1.996 2.39-2.686 2.392 1.05 2.388-.17 2.39 3.868 2.429-1.211 2.35-1.86 2.35 1.533 2.391-2.466 2.39-.774 2.39-.477 2.39.706 2.43 2.65 2.39.364 2.391.913 2.388.304 2.39 1.692 2.43.556 2.311-3.204 2.31-1.279h0" style="fill:none;stroke:#8c564b;stroke-linecap:square;stroke-width:1.5" id="line2d_25"/><path clip-path="url(#pdd602e1ffd)" d="m37.556 304.181 1.843 3.262 2.388 1.857 2.39.598 2.43-.23 2.311-.895 2.31.143 2.392-.19 2.39-2.035 2.39-1.381 2.39-.55 2.429-.687 2.39 1.102L68 303.876l2.388-.73 2.39 1.581 2.43.393 2.311-1.781 2.31-.968 2.392 1.45 2.39.939 2.39-4.117 2.39 2.35 2.429-2.65 2.39 2.33 2.391-.793 2.388-2.42 2.39 1.439 2.43-2.52 2.311-.728 2.31-1.596 2.392.869 2.39-.247 4.78.786 2.429-1.67 2.39-3.705 2.391 1.939 2.389-3.63 2.39 3.302 2.429.131 2.35-4.793 2.35.703 2.391 1.909 2.39-1.615 2.39 1.817 2.39-3.093 2.43-1.08 2.39.657 2.39-2.228 2.389-4.907 2.39 8.147 2.43-3.076 2.31-4.996 2.31 4.734 2.392-6.5 4.78 2.84 2.39-1.936 2.43 2.39 4.78-9.556 2.39 1.9 2.389 4.416 2.43-1.931 2.31-6.43 2.31-.442 2.392-1.564 2.39 5.883 2.39 4.295 2.39-2.626 2.43 4.09 2.39-6.266 2.39.573 2.39-2.906 2.39 6.604 2.428.654 2.312-6.157 2.31-2.024 2.391-1.275 2.39 2.944 2.39.606 2.39-1.424 2.43 3.763 2.39-1.967 2.39 1.444 2.39-3.472 2.39 5.5 2.428-.032 2.351-6.871 2.35-.001 2.39-.118 2.39 4.24 2.39-1.197 2.39 6.466 2.43-1.767 2.39-.81 2.391-4.785 2.389 1.708 2.39 4.87 2.429-2.848 2.311-2.443 2.31-4.494 2.392 4.408 2.39-2.641 2.39 3.418 2.39.836 2.429.13 2.39 2.72 2.391-4.16 2.389.068 2.39 7.001 2.429-2.127 2.311-3.927 2.31-.163 2.392-.547 2.39.056 2.39 3.529 2.39-1.86 2.429-1.08 2.39 4.698 2.391-7.872 2.389.128 2.39 5.926 2.429 2.716 2.311-6.509 2.31.127 2.392-.062 2.39-.756 2.39 5.693 2.39-4.22 2.429 4.974 2.39-4.473 2.392-4.232 2.388 1.594 2.39 3.708 2.429 1.014 2.35-5.782 2.35 1.463 2.391-7.234 2.39 3.896 2.39-1.968 2.39 6.81 2.43 5.008 2.39-1.707 2.391-4.118 2.388 2.866 2.39 6.657 2.43.425 2.311-6.024 2.31-.095h0" style="fill:none;stroke:#9467bd;stroke-linecap:square;stroke-width:1.5" id="line2d_26"/><path clip-path="url(#pdd602e1ffd)" d="m53.62 313.628 2.39-.065 2.39.065 7.208-.135 2.392.07 2.388-.34 2.39.013 2.43-.72 2.311-.337 2.31.14 2.392-.077 2.39-.708 2.39-.476 2.39.181 2.429-1.243 2.39-.121 2.391-.73 2.388-.082 2.39-1.096 2.43-1.473 2.311-1.126 2.31.047 2.392-.579 2.39-.207 2.39-.807 2.39-1.385 2.429.065 2.39-.202 2.391-2.154 2.389-1.6 2.39 1.24 2.429-3.043 2.35-.36 2.35-2.062 2.391-2.571 2.39 2.277 2.39-.079 2.39-1.165 2.43-2.258 2.39 1.698 4.779-2.096 2.39 3.212 2.43-4.908 2.31-1.722 2.31.02 2.392-.694 2.39-1.826 2.39 2.469 2.39-3.745 2.43-2.225 2.39 1.642 2.39-1.053 2.39 1.188 2.389 1.332 2.43-4.68 2.31-6.05 2.31 1.96 2.392.201 2.39 4.74 2.39-3.42 2.39-.147 2.43 3.665 2.39-4.5 2.39 1.031 2.39-1.132 2.39 1.787 2.428-.753 2.312-7.925 2.31 3.606 2.391-9.903 2.39 1.296 2.39-1.803 2.39 2.032 2.43 3.469 2.39-1.037 2.39.71 2.39-.575 2.39 1.327 2.428-6.937 2.351-6.059 2.35 7.662 2.39-.321 2.39.649 2.39-3.118 2.39 5.932 2.43-3.73 2.39 3.682 2.391 1.226 2.389-3.965 2.39 4.62 2.429-8.312 2.311 1.361 2.31-.38 2.392 5.044 2.39-.822 2.39 4.035 2.39.448 2.429-1.276 2.39 4.784 2.391-2.657 2.389-3.531 2.39 4.185 2.429-9.26 2.311 2.618 2.31.163 4.782 10.897 2.39 2.725 2.39-12.902 2.429-5.662 2.39 3.144 2.391-2.555 2.389 3.874 2.39 2.966 2.429-3.37 2.311-4.497 2.31 4.529 2.392-1.522 2.39-.049 2.39.76 2.39-2.625 2.429 4.058 2.39-1.197 2.392-2.73 2.388-1.903 2.39 3.539 2.429-8.475 2.35.874 2.35-3.329 2.391-20.066 2.39 1.217 2.39 2.13 2.39 6.477 2.43 3.763 2.39 1.46 2.391 8.39 2.388-1.12 2.39 3.64 2.43-4.713 2.311-1.912 2.31-1.36h0" style="fill:none;stroke:#d62728;stroke-linecap:square;stroke-width:1.5" id="line2d_27"/><path clip-path="url(#pdd602e1ffd)" d="m37.556 287.95 1.843 8.629 2.388 3.557 2.39 1.253 2.43-5.759 2.311-.95 2.31-1.635 2.392-2.478 2.39-1.416 2.39-1.256 2.39-3.817 2.429 3.436 2.39-3.406 2.391.363 2.388.11 2.39 1.984 2.43-3.141 2.311-2.113 2.31 3.127 2.392 1.26 2.39-1.161 2.39-.463 2.39-3.562 2.429-2.16 2.39-.23 2.391-1.44 2.388-.859 2.39 4.558 2.43-3.011 2.311-5.262 2.31-4.195 2.392 4.224 2.39.52 2.39.258 2.39.495 2.429-2.421 2.39.776 2.391 4.525 2.389-6.181 2.39 4.643 2.429-2.683 2.35-5.84 2.35-1.261 2.391 2.3 2.39-5.41 2.39-2.063 2.39 1.933 2.43-2.062 2.39.907 2.39-5.03 2.389-1.7 2.39 9.521 2.43-12.991 2.31-3.336 2.31-3.57 2.392-1.628 2.39 2.676 2.39-.951 2.39-10.666 2.43 4.287 4.78-13.188 2.39 6.345 2.389 2.098 2.43-8.967 2.31-7.413 2.31 4.6 2.392-6.143 2.39 15.927 2.39-1.962 2.39-6.121 2.43 6.054 2.39 2.434 2.39-1.158 2.39-5.57 2.39 12.966 2.428-9.981 2.312-8.763 2.31-3.803 2.391 3.426 2.39 3.806 2.39-8.743 2.39 2.853 2.43 2.29 2.39 4.596 2.39 2.833 2.39.785 2.39-.818 2.428-3.436 2.351-7.045 2.35-1.987 2.39 1.146 2.39 3.599 2.39-10.057 2.39 8.78 2.43-3.272 2.39-1.518 2.391 11.303 2.389-8.057 2.39 11.035 2.429-5.923 2.311-10.706 2.31-7.162 2.392 12.925 2.39-2.65 2.39 5.761 2.39.555 2.429-5.857 2.39 9.326 2.391-.72 2.389-3.71 2.39 18.894 2.429-9.882 2.311-4.654 2.31 7.042 2.392.909 2.39.368 2.39 2.27 2.39-4.136 2.429-1.145 2.39 5.145 2.391-8.712 2.389 8.746 2.39 9.907 2.429-10.014 2.311-10.888 2.31 7.976 2.392-2.56 2.39 7.665 2.39 6.063 2.39-11.037 2.429 5.857 2.39.987 2.392-5.339 2.388-3.013 2.39 15.84 4.78-14.933 2.349 2.335 2.391-4.662 2.39 7.64 2.39-2.433 2.39 5.902 2.43 9.162 2.39-1.673 2.391 2.557 2.388 2.921 2.39 9.056 2.43-10.897 2.311-2.27 2.31.306h0" style="fill:none;stroke:#2ca02c;stroke-linecap:square;stroke-width:1.5" id="line2d_28"/><path clip-path="url(#pdd602e1ffd)" d="m37.556 311.219 1.843.806 2.388.555 2.39.067 2.43-.819 4.621.131 2.392-.495 2.39.004 2.39-.173 2.39-1.594 2.429-.589 2.39.932 2.391.54 2.388-.033 2.39-.555 2.43-1.244 2.311.347 2.31-1.067 2.392.828 4.78-3.212 2.39 2.483 2.429-1.506 4.781.557 2.388-1.06 4.82-.25 2.311-3.113 2.31-.682 2.392 2.15 2.39-1.987 2.39 1.751 2.39-1.783 2.429-.459 2.39.788 2.391-.1 2.389-1.253 2.39.336 2.429-.163 2.35-3.26 2.35.478 2.391-1.888 2.39.383 2.39.564 2.39.025 2.43-2.29 2.39.878 2.39-3.3 2.389 1.272 2.39 1.117 2.43-5.53 2.31 1.07 2.31 1.416 2.392-.711 2.39.22 2.39-.39 2.39-1.835 2.43.033 2.39.991 2.39-2.17 2.39-1.482 2.389-.023 2.43-2.356 2.31-6.157 2.31-.42 2.392 3.073 2.39 1.803 2.39.225 2.39-1.436 2.43 4.81 2.39-4.287 2.39.23 2.39.954 2.39 1.63 2.428-3.73 2.312-1.547 2.31.925 2.391-3.568 2.39.263 2.39-1.514 2.39-2.02 2.43 2.683 4.78-1.21 2.39 1.798 2.39-.588 2.428-1.538 2.351-7.425 2.35 3.433 2.39 1.79 2.39-.252 2.39-4.245 2.39 8.401 2.43-5.727 2.39 4.258 2.391-1.182 2.389-1.726 2.39 1.661 2.429-2.258 2.311-2.828 2.31-1.524 2.392 1.872 2.39-5.374 2.39 4.427 2.39 1.889 2.429-.033 2.39 3.757 2.391-3.953 2.389-2.709 2.39 9.09 2.429-6.577 2.311.91 2.31.104 2.392.396 2.39-1.05 2.39 2.504 2.39-3.093 2.429-1.473 2.39.846 2.391-3.562 2.389-.428 2.39 9.034 2.429-5.04 2.311-2.513 2.31-4.686 2.392-.751 2.39 3.108 2.39 6.022 2.39-11.291 2.429 7.396 2.39-2.665 2.392-5.385 2.388-.093 2.39 4.968 2.429-7.657 2.35-4.896 2.35-.896 2.391-6.195 2.39.304 2.39-3.009 2.39 3.86 2.43 4.484 2.39-1.108 2.391 1.467 2.388.698 2.39 10.003 2.43-7.428 2.311-6.068 2.31-1.982h0" style="fill:none;stroke:#ff7f0e;stroke-linecap:square;stroke-width:1.5" id="line2d_29"/><path clip-path="url(#pdd602e1ffd)" d="m37.556 301.709 1.843 3.018 2.388-1.142 2.39.782 2.43-2.912 2.311-.906 2.31-2.4 2.392-1.056 2.39-2.216 2.39-4.885 2.39-5.39 2.429-4.058 2.39-.528L68 276.028l2.388-1.794 2.39-1.085 2.43-4.778 2.311-3.11 2.31-6.086 2.392.18 2.39-.507L87 253.1l2.39.97 2.429-6.348 2.39 2.808 2.391-2.546 2.388-10.473 2.39 3.306 2.43-19.536 2.311-11.887 2.31-9.056 2.392-.43 2.39 7.563 2.39-8.88 2.39-2.377 2.429-9.653 2.39 9.324 2.391 3.504 2.389-15.644 2.39 13.713 4.78-31.939 2.349-8.574 2.391-.826 2.39 2.855 2.39-7.353 2.39-7.961 2.43 5.464 2.39 7.028 2.39-12.329 2.389-4.51 2.39 14.982 2.43-29.026 2.31-10.472 2.31-7.788 2.392-2.898 2.39 20.372 2.39 3.231 2.39-14.39 2.43-4.156 2.39-6.443 2.39-8.871 2.39-2.457 2.389 9.46 2.43-25.918 2.31-21.77 2.31-5.653 2.392 2.255 2.39 43.035 2.39 20.368 2.39-3.482 2.43 17.933 2.39-13.606 2.39-4.262 2.39-2.129 2.39 17.313 2.428-7.003 2.312-20.713 2.31-2.75 2.391-4.126 2.39 13.256 2.39-5.31 2.39-7.288 2.43 25.655 2.39-9.609 2.39 4.995 2.39-.633 2.39 4.495 2.428-4.516 2.351-18.355 2.35-2.916 2.39-3.73 2.39 18.521 2.39 6.704 2.39 21.766 2.43-5.988 2.39 7.25 2.391 6.723 2.389-7.331 2.39 15.872 2.429-14.628 2.311-21.826 2.31-14.988 2.392 22.145 2.39 8.157 2.39 6.417 2.39 3.106 2.429 4.221 2.39 4.644 2.391 8.086 2.389-9.135 2.39 31.354 2.429-10.668 2.311-3.413 2.31 2.039 2.392-2.134 2.39 9.333 2.39 7.237 2.39-1.805 2.429 4.55 2.39 2.428 2.391-7.697 2.389-1.805 2.39 20.425 2.429-10.734 2.311-11.584 2.31-6.25 2.392 9.09 2.39 11.264 2.39 14.841 2.39-29.436 2.429 19.143 2.39-3.131 2.392-14.67 2.388-10.117 2.39 26.904 2.429-7.592 2.35-13.09 2.35-2.716 2.391-20.886 2.39 6.782 2.39 14.893 2.39 9.814 2.43 14.857 2.39-.223 2.391 9.974 2.388-5.375 2.39 22.883 2.43-17.868 2.311-.65 2.31-8.545h0" style="fill:none;stroke:#1f77b4;stroke-linecap:square;stroke-width:1.5" id="line2d_30"/></g></g><defs><clipPath id="pdd602e1ffd"><path d="M37.556 47.516h357.12v266.112H37.556z"/></clipPath></defs></svg>