<svg xmlns:xlink="http://www.w3.org/1999/xlink" width="713.316" height="489.969" viewBox="0 0 534.987 367.477" xmlns="http://www.w3.org/2000/svg"><defs><style>*{stroke-linejoin:round;stroke-linecap:butt}</style></defs><g id="figure_1"><path d="M0 367.477h534.987V0H0v367.477z" style="fill:none" id="patch_1"/><g id="axes_1"><path d="M32.015 323.95h357.12V57.838H32.015V323.95z" style="fill:none" id="patch_2"/><g id="matplotlib.axis_1"><g id="xtick_1"><g id="line2d_1"><defs><path id="mc537dab4ea" d="M0 0v3.5" style="stroke:#b0b0b0;stroke-width:.4"/></defs><use xlink:href="#mc537dab4ea" x="65.953" y="323.95" style="fill:#b0b0b0;stroke:#b0b0b0;stroke-width:.4"/></g><g style="fill:#b0b0b0" transform="matrix(.14 0 0 -.14 48.138 341.588)" id="text_1"><defs><path id="DejaVuSans-32" d="M1228 531h2203V0H469v531q359 372 979 998 621 627 780 809 303 340 423 576 121 236 121 464 0 372-261 606-261 235-680 235-297 0-627-103-329-103-704-313v638q381 153 712 231 332 78 607 78 725 0 1156-363 431-362 431-968 0-288-108-546-107-257-392-607-78-91-497-524-418-433-1181-1211z" transform="scale(.01563)"/><path id="DejaVuSans-30" d="M2034 4250q-487 0-733-480-245-479-245-1442 0-959 245-1439 246-480 733-480 491 0 736 480 246 480 246 1439 0 963-246 1442-245 480-736 480zm0 500q785 0 1199-621 414-620 414-1801 0-1178-414-1799Q2819-91 2034-91q-784 0-1198 620-414 621-414 1799 0 1181 414 1801 414 621 1198 621z" transform="scale(.01563)"/><path id="DejaVuSans-31" d="M794 531h1031v3560L703 3866v575l1116 225h631V531h1031V0H794v531z" transform="scale(.01563)"/></defs><use xlink:href="#DejaVuSans-32"/><use xlink:href="#DejaVuSans-30" x="63.623"/><use xlink:href="#DejaVuSans-31" x="127.246"/><use xlink:href="#DejaVuSans-30" x="190.869"/></g></g><g id="xtick_2"><use xlink:href="#mc537dab4ea" x="119.233" y="323.95" style="fill:#b0b0b0;stroke:#b0b0b0;stroke-width:.4" id="line2d_2"/><g style="fill:#b0b0b0" transform="matrix(.14 0 0 -.14 101.418 341.588)" id="text_2"><use xlink:href="#DejaVuSans-32"/><use xlink:href="#DejaVuSans-30" x="63.623"/><use xlink:href="#DejaVuSans-31" x="127.246"/><use xlink:href="#DejaVuSans-32" x="190.869"/></g></g><g id="xtick_3"><use xlink:href="#mc537dab4ea" x="172.586" y="323.95" style="fill:#b0b0b0;stroke:#b0b0b0;stroke-width:.4" id="line2d_3"/><g style="fill:#b0b0b0" transform="matrix(.14 0 0 -.14 154.77 341.588)" id="text_3"><defs><path id="DejaVuSans-34" d="M2419 4116 825 1625h1594v2491zm-166 550h794V1625h666v-525h-666V0h-628v1100H313v609l1940 2957z" transform="scale(.01563)"/></defs><use xlink:href="#DejaVuSans-32"/><use xlink:href="#DejaVuSans-30" x="63.623"/><use xlink:href="#DejaVuSans-31" x="127.246"/><use xlink:href="#DejaVuSans-34" x="190.869"/></g></g><g id="xtick_4"><use xlink:href="#mc537dab4ea" x="225.866" y="323.95" style="fill:#b0b0b0;stroke:#b0b0b0;stroke-width:.4" id="line2d_4"/><g style="fill:#b0b0b0" transform="matrix(.14 0 0 -.14 208.05 341.588)" id="text_4"><defs><path id="DejaVuSans-36" d="M2113 2584q-425 0-674-291-248-290-248-796 0-503 248-796 249-292 674-292t673 292q248 293 248 796 0 506-248 796-248 291-673 291zm1253 1979v-575q-238 112-480 171-242 60-480 60-625 0-955-422-329-422-376-1275 184 272 462 417 279 145 613 145 703 0 1111-427 408-426 408-1160 0-719-425-1154Q2819-91 2113-91q-810 0-1238 620-428 621-428 1799 0 1106 525 1764t1409 658q238 0 480-47t505-140z" transform="scale(.01563)"/></defs><use xlink:href="#DejaVuSans-32"/><use xlink:href="#DejaVuSans-30" x="63.623"/><use xlink:href="#DejaVuSans-31" x="127.246"/><use xlink:href="#DejaVuSans-36" x="190.869"/></g></g><g id="xtick_5"><use xlink:href="#mc537dab4ea" x="279.218" y="323.95" style="fill:#b0b0b0;stroke:#b0b0b0;stroke-width:.4" id="line2d_5"/><g style="fill:#b0b0b0" transform="matrix(.14 0 0 -.14 261.403 341.588)" id="text_5"><defs><path id="DejaVuSans-38" d="M2034 2216q-450 0-708-241-257-241-257-662 0-422 257-663 258-241 708-241t709 242q260 243 260 662 0 421-258 662-257 241-711 241zm-631 268q-406 100-633 378-226 279-226 679 0 559 398 884 399 325 1092 325 697 0 1094-325t397-884q0-400-227-679-226-278-629-378 456-106 710-416 255-309 255-755 0-679-414-1042Q2806-91 2034-91q-771 0-1186 362-414 363-414 1042 0 446 256 755 257 310 713 416zm-231 997q0-362 226-565 227-203 636-203 407 0 636 203 230 203 230 565 0 363-230 566-229 203-636 203-409 0-636-203-226-203-226-566z" transform="scale(.01563)"/></defs><use xlink:href="#DejaVuSans-32"/><use xlink:href="#DejaVuSans-30" x="63.623"/><use xlink:href="#DejaVuSans-31" x="127.246"/><use xlink:href="#DejaVuSans-38" x="190.869"/></g></g><g id="xtick_6"><use xlink:href="#mc537dab4ea" x="332.498" y="323.95" style="fill:#b0b0b0;stroke:#b0b0b0;stroke-width:.4" id="line2d_6"/><g style="fill:#b0b0b0" transform="matrix(.14 0 0 -.14 314.683 341.588)" id="text_6"><use xlink:href="#DejaVuSans-32"/><use xlink:href="#DejaVuSans-30" x="63.623"/><use xlink:href="#DejaVuSans-32" x="127.246"/><use xlink:href="#DejaVuSans-30" x="190.869"/></g></g><g id="xtick_7"><use xlink:href="#mc537dab4ea" x="385.851" y="323.95" style="fill:#b0b0b0;stroke:#b0b0b0;stroke-width:.4" id="line2d_7"/><g style="fill:#b0b0b0" transform="matrix(.14 0 0 -.14 368.036 341.588)" id="text_7"><use xlink:href="#DejaVuSans-32"/><use xlink:href="#DejaVuSans-30" x="63.623"/><use xlink:href="#DejaVuSans-32" x="127.246"/><use xlink:href="#DejaVuSans-32" x="190.869"/></g></g></g><g id="matplotlib.axis_2"><g id="ytick_1"><path d="M32.015 323.95h357.12" clip-path="url(#pf03c98f2d7)" style="fill:none;stroke:#b0b0b0;stroke-width:.3;stroke-linecap:square" id="line2d_8"/><g id="line2d_9"><defs><path id="medb2742c2d" d="M0 0h-3.5" style="stroke:#b0b0b0;stroke-width:.3"/></defs><use xlink:href="#medb2742c2d" x="32.015" y="323.95" style="fill:#b0b0b0;stroke:#b0b0b0;stroke-width:.3"/></g><use xlink:href="#DejaVuSans-30" style="fill:#b0b0b0" transform="matrix(.14 0 0 -.14 16.108 329.269)" id="text_8"/></g><g id="ytick_2"><path d="M32.015 293.599h357.12" clip-path="url(#pf03c98f2d7)" style="fill:none;stroke:#b0b0b0;stroke-width:.3;stroke-linecap:square" id="line2d_10"/><use xlink:href="#medb2742c2d" x="32.015" y="293.599" style="fill:#b0b0b0;stroke:#b0b0b0;stroke-width:.3" id="line2d_11"/><g style="fill:#b0b0b0" transform="matrix(.14 0 0 -.14 16.108 298.917)" id="text_9"><defs><path id="DejaVuSans-35" d="M691 4666h2478v-532H1269V2991q137 47 274 70 138 23 276 23 781 0 1237-428 457-428 457-1159 0-753-469-1171Q2575-91 1722-91q-294 0-599 50Q819 9 494 109v635q281-153 581-228t634-75q541 0 856 284 316 284 316 772 0 487-316 771-315 285-856 285-253 0-505-56-251-56-513-175v2344z" transform="scale(.01563)"/></defs><use xlink:href="#DejaVuSans-35"/></g></g><g id="ytick_3"><path d="M32.015 263.247h357.12" clip-path="url(#pf03c98f2d7)" style="fill:none;stroke:#b0b0b0;stroke-width:.3;stroke-linecap:square" id="line2d_12"/><use xlink:href="#medb2742c2d" x="32.015" y="263.247" style="fill:#b0b0b0;stroke:#b0b0b0;stroke-width:.3" id="line2d_13"/><g style="fill:#b0b0b0" transform="matrix(.14 0 0 -.14 7.2 268.566)" id="text_10"><use xlink:href="#DejaVuSans-31"/><use xlink:href="#DejaVuSans-30" x="63.623"/></g></g><g id="ytick_4"><path d="M32.015 232.896h357.12" clip-path="url(#pf03c98f2d7)" style="fill:none;stroke:#b0b0b0;stroke-width:.3;stroke-linecap:square" id="line2d_14"/><use xlink:href="#medb2742c2d" x="32.015" y="232.896" style="fill:#b0b0b0;stroke:#b0b0b0;stroke-width:.3" id="line2d_15"/><g style="fill:#b0b0b0" transform="matrix(.14 0 0 -.14 7.2 238.215)" id="text_11"><use xlink:href="#DejaVuSans-31"/><use xlink:href="#DejaVuSans-35" x="63.623"/></g></g><g id="ytick_5"><path d="M32.015 202.545h357.12" clip-path="url(#pf03c98f2d7)" style="fill:none;stroke:#b0b0b0;stroke-width:.3;stroke-linecap:square" id="line2d_16"/><use xlink:href="#medb2742c2d" x="32.015" y="202.545" style="fill:#b0b0b0;stroke:#b0b0b0;stroke-width:.3" id="line2d_17"/><g style="fill:#b0b0b0" transform="matrix(.14 0 0 -.14 7.2 207.864)" id="text_12"><use xlink:href="#DejaVuSans-32"/><use xlink:href="#DejaVuSans-30" x="63.623"/></g></g><g id="ytick_6"><path d="M32.015 172.194h357.12" clip-path="url(#pf03c98f2d7)" style="fill:none;stroke:#b0b0b0;stroke-width:.3;stroke-linecap:square" id="line2d_18"/><use xlink:href="#medb2742c2d" x="32.015" y="172.194" style="fill:#b0b0b0;stroke:#b0b0b0;stroke-width:.3" id="line2d_19"/><g style="fill:#b0b0b0" transform="matrix(.14 0 0 -.14 7.2 177.512)" id="text_13"><use xlink:href="#DejaVuSans-32"/><use xlink:href="#DejaVuSans-35" x="63.623"/></g></g><g id="ytick_7"><path d="M32.015 141.842h357.12" clip-path="url(#pf03c98f2d7)" style="fill:none;stroke:#b0b0b0;stroke-width:.3;stroke-linecap:square" id="line2d_20"/><use xlink:href="#medb2742c2d" x="32.015" y="141.842" style="fill:#b0b0b0;stroke:#b0b0b0;stroke-width:.3" id="line2d_21"/><g style="fill:#b0b0b0" transform="matrix(.14 0 0 -.14 7.2 147.161)" id="text_14"><defs><path id="DejaVuSans-33" d="M2597 2516q453-97 707-404 255-306 255-756 0-690-475-1069Q2609-91 1734-91q-293 0-604 58T488 141v609q262-153 574-231 313-78 654-78 593 0 904 234t311 681q0 413-289 645-289 233-804 233h-544v519h569q465 0 712 186t247 536q0 359-255 551-254 193-729 193-260 0-557-57-297-56-653-174v562q360 100 674 150t592 50q719 0 1137-327 419-326 419-882 0-388-222-655t-631-370z" transform="scale(.01563)"/></defs><use xlink:href="#DejaVuSans-33"/><use xlink:href="#DejaVuSans-30" x="63.623"/></g></g><g id="ytick_8"><path d="M32.015 111.491h357.12" clip-path="url(#pf03c98f2d7)" style="fill:none;stroke:#b0b0b0;stroke-width:.3;stroke-linecap:square" id="line2d_22"/><use xlink:href="#medb2742c2d" x="32.015" y="111.491" style="fill:#b0b0b0;stroke:#b0b0b0;stroke-width:.3" id="line2d_23"/><g style="fill:#b0b0b0" transform="matrix(.14 0 0 -.14 7.2 116.81)" id="text_15"><use xlink:href="#DejaVuSans-33"/><use xlink:href="#DejaVuSans-35" x="63.623"/></g></g><g id="ytick_9"><path d="M32.015 81.14h357.12" clip-path="url(#pf03c98f2d7)" style="fill:none;stroke:#b0b0b0;stroke-width:.3;stroke-linecap:square" id="line2d_24"/><use xlink:href="#medb2742c2d" x="32.015" y="81.14" style="fill:#b0b0b0;stroke:#b0b0b0;stroke-width:.3" id="line2d_25"/><g style="fill:#b0b0b0" transform="matrix(.14 0 0 -.14 7.2 86.459)" id="text_16"><use xlink:href="#DejaVuSans-34"/><use xlink:href="#DejaVuSans-30" x="63.623"/></g></g></g><path d="m82.558 323.95 2.226-.203 2.226.203h6.715l2.153-.217 2.153.217h2.226l2.226-.196 2.226.196h46.674l2.227-.203 2.226.203h26.64l2.225-.203 2.227.007 2.262.196h4.452l2.226-.203 2.226.007 2.263.196 2.153-.434 2.153.238 2.226-.209 2.226.209 2.226-.411 2.226.02 4.49.384 2.225.007 2.226-.816 6.678.593 2.19-.56 2.226.574 2.226-.574 2.226.979 2.226-1.175 2.263.783 2.226-1.025 2.226.634 4.452-.392 2.263.587 2.153-2.88 2.153 2.685 2.226-.027 2.226-1.148 2.226.946 2.226-.946 4.489 1.148 2.226-1.344 2.226.737 2.226-.737 2.263 1.762 2.153-1.126 2.153.539 2.226-.438 2.226-1.129 2.226.118 2.226 1.449 2.263-.392 2.226-.046 2.226-.346 2.226.549 2.226-.353 2.262-.587 2.153 1.07 2.154.105 2.226-.64 2.226.64h6.714l2.226-.842 2.227.254 2.226-1.468 2.226 1.664 2.262-2.545 2.19 1.613 2.19.345 2.225-3.303 2.227.17 2.226 2.46 2.226-2.265 2.262 1.371 2.226-.117 2.226.117 2.226-.117 2.226-1.841h2.263l2.153.497 2.153-3.434 2.226 1.136 2.226-.549 2.226 3.584 2.227-.647 2.262-.783 4.452-.783 2.226-1.632 2.226-.13 2.263 1.174 2.153-.755h0" clip-path="url(#pf03c98f2d7)" style="fill:none;stroke:#8c564b;stroke-width:1.5;stroke-linecap:square" id="line2d_26"/><path d="m131.422 323.95 2.226-.196 2.262.196H175.87l2.153-2.546 2.226 1.13 2.226-.934 2.226.124 2.227-1.299h2.262l2.226 1.097 2.226.274 2.226-1.488 2.226 1.684 2.263-.784 2.153-.727 2.153.336 2.226-2.735 2.226 1.756 2.226-3.78 2.226-2.682 2.263 3.329 2.226-1.456 2.226.085 2.226-.894 2.226 2.46 2.263-2.153 2.19-.845 2.189-5.422 2.226 1.508 2.226 1.625 2.226.196 2.226 1.567 2.263-2.154 2.226-1.234 2.226 1.234 2.226.992 2.226.379 2.263.979 2.153-3.497 2.153-.615 2.226.73 2.226 3.577 2.226-3.576 2.226 1.618 2.263-.783 2.226 3.01 2.226-.269 2.226.268 2.226 4.628 2.263-6.462 2.153.259 2.153.916 2.226 2.682 2.226-1.703 2.226.692 2.226-2.259 2.263 2.938 2.226-2.703 2.226-.43 2.226-.177 2.226.372 2.262.98 2.153-.008 2.154 3.336 2.226-1.645 2.226-1.488 2.226 3.31 2.226-2.135 2.262-.587 2.226 2.115 2.227-2.703 2.226-.737 2.226.737 2.262.196 2.19.371 2.19-1.742 2.225-3.002 2.227 2.61 2.226-2.61 2.226-1.501 2.262 3.524 2.226 2.024 2.226-1.632 2.226 4.262 2.226.242 2.263-2.742 2.153.881 2.153 1.273 2.226.144 2.226.444 2.226.972 2.227 1.77 2.262.39 2.226-3.779 2.226 1.626 2.226.6 2.226-.404 2.263-1.371 2.153-.58" clip-path="url(#pf03c98f2d7)" style="fill:none;stroke:#9467bd;stroke-width:1.5;stroke-linecap:square" id="line2d_27"/><path d="m32.015 322.812 3.941.328 2.226.418 2.263-.391 2.153.132 4.38-.159 2.225-.365 2.226-.646 4.489 1.233 2.226-1.03 2.226.051 2.226-.457 2.226.653 2.263-.196 2.153-.384 2.153-.986 2.226.711 2.226.268 2.226-1.28 2.226 1.084 2.263-.588 2.226.111 2.226-1.09 2.226.281 2.226.503 2.263-2.546 2.153-1.888 2.153 2.867 2.226-.96 2.226 2.135 2.226-2.54 2.226 2.148 2.263-1.958 2.226-.391h2.226l2.226.404 2.226-.404 2.262-.98 2.19-.486 2.19 2.053 2.226-.992 2.226-.77 2.226.568 2.226-1.156 2.262.392 2.226 1.37 2.227-2.74 2.226 1.729 2.226-4.08 2.262-2.35 2.153 1.588 2.153 2.329 2.227-2.141 2.226-.209 2.226.816 2.226-1.99 2.262 3.328 2.226-.529 2.226-6.912 2.226 1.247 2.227 1.103 2.262-3.525 2.153 1.063 2.153 3.05 2.226-2.703 2.226 2.31 2.226.928 2.227.64 2.262 2.153 2.226-1.984 2.226-3.303 2.226 5.529 2.226-2.787h2.263l2.153.503 2.153-1.482 2.226-2.71 2.226 5.255 2.226-1.814 2.226 2.402 2.263-2.35 2.226-1.469 2.226.881 2.226 2.154 2.226.588 2.263-.784 4.379-3.916 2.226 3.303 2.226.613 2.226-.208 2.226-1.75 2.263 1.567 2.226-2.448 2.226 4.21 2.226.444 2.226-1.619 2.263-.783 2.153-.3 4.379 1.488 2.226-2.363 2.226 1.958 2.226-2.35 2.263 2.938 2.226 1.436 2.226-3.786 2.226 3.179 2.226.346 2.263 1.175 2.153.097 2.153-1.272 2.226.26 2.226 1.894 2.226-2.703 2.226.157 2.263 1.175 2.226.49 2.226-.098 2.226 1.919 2.226-1.136 2.262-4.112 2.153 4.294 2.154-1.553 2.226 2.709 2.226-3.296 2.226 2.284 2.226-2.48 2.262 3.133 2.226-2.879 2.227 1.312 2.226.712 2.226-2.082 2.262-.392 2.19-2.417 2.19 2.809 4.452-1.959 2.226 2.827 2.226-.868 2.262 2.154 2.226.13 2.226-.13 2.226-1.69 2.226 3.844 2.263.979 2.153-4.665 2.153 2.706 2.226-1.65 2.226 1.259 2.226-3.081 2.227 1.71 2.262.196 2.226 1.13 2.226.632 2.226-.43 2.226.43h2.263l2.153-1.818h0" clip-path="url(#pf03c98f2d7)" style="fill:none;stroke:#d62728;stroke-width:1.5;stroke-linecap:square" id="line2d_28"/><g style="fill:#1f77b4" transform="matrix(.14 0 0 -.14 399.849 71.296)" id="text_17"><defs><path id="DejaVuSans-76" d="M191 3500h609L1894 563l1094 2937h609L2284 0h-781L191 3500z" transform="scale(.01563)"/><path id="DejaVuSans-69" d="M603 3500h575V0H603v3500zm0 1363h575v-729H603v729z" transform="scale(.01563)"/><path id="DejaVuSans-73" d="M2834 3397v-544q-243 125-506 187-262 63-544 63-428 0-642-131t-214-394q0-200 153-314t616-217l197-44q612-131 870-370t258-667q0-488-386-773Q2250-91 1575-91q-281 0-586 55T347 128v594q319-166 628-249 309-82 613-82 406 0 624 139 219 139 219 392 0 234-158 359-157 125-692 241l-200 47q-534 112-772 345-237 233-237 639 0 494 350 762 350 269 994 269 318 0 599-47 282-46 519-140z" transform="scale(.01563)"/><path id="DejaVuSans-75" d="M544 1381v2119h575V1403q0-497 193-746 194-248 582-248 465 0 735 297 271 297 271 810v1984h575V0h-575v538q-209-319-486-474-276-155-642-155-603 0-916 375-312 375-312 1097zm1447 2203z" transform="scale(.01563)"/><path id="DejaVuSans-61" d="M2194 1759q-697 0-966-159t-269-544q0-306 202-486 202-179 548-179 479 0 768 339t289 901v128h-572zm1147 238V0h-575v531q-197-318-491-470T1556-91q-537 0-855 302-317 302-317 808 0 590 395 890 396 300 1180 300h807v57q0 397-261 614t-733 217q-300 0-585-72-284-72-546-216v532q315 122 612 182 297 61 578 61 760 0 1135-394 375-393 375-1193z" transform="scale(.01563)"/><path id="DejaVuSans-6c" d="M603 4863h575V0H603v4863z" transform="scale(.01563)"/><path id="DejaVuSans-2d" d="M313 2009h1684v-512H313v512z" transform="scale(.01563)"/><path id="DejaVuSans-74" d="M1172 4494v-994h1184v-447H1172V1153q0-428 117-550t477-122h590V0h-590q-666 0-919 248-253 249-253 905v1900H172v447h422v994h578z" transform="scale(.01563)"/><path id="DejaVuSans-64" d="M2906 2969v1894h575V0h-575v525q-181-312-458-464-276-152-664-152-634 0-1033 506-398 507-398 1332t398 1331q399 506 1033 506 388 0 664-152 277-151 458-463zM947 1747q0-634 261-995t717-361q456 0 718 361 263 361 263 995t-263 995q-262 361-718 361t-717-361q-261-361-261-995z" transform="scale(.01563)"/><path id="DejaVuSans-6f" d="M1959 3097q-462 0-731-361t-269-989q0-628 267-989 268-361 733-361 460 0 728 362 269 363 269 988 0 622-269 986-268 364-728 364zm0 487q750 0 1178-488 429-487 429-1349 0-859-429-1349Q2709-91 1959-91q-753 0-1180 489-426 490-426 1349 0 862 426 1349 427 488 1180 488z" transform="scale(.01563)"/><path id="DejaVuSans-63" d="M3122 3366v-538q-244 135-489 202t-495 67q-560 0-870-355-309-354-309-995t309-996q310-354 870-354 250 0 495 67t489 202V134Q2881 22 2623-34q-257-57-548-57-791 0-1257 497-465 497-465 1341 0 856 470 1346 471 491 1290 491 265 0 518-55 253-54 491-163z" transform="scale(.01563)"/><path id="DejaVuSans-65" d="M3597 1894v-281H953q38-594 358-905t892-311q331 0 642 81t618 244V178Q3153 47 2828-22t-659-69q-838 0-1327 487-489 488-489 1320 0 859 464 1363 464 505 1252 505 706 0 1117-455 411-454 411-1235zm-575 169q-6 471-264 752-258 282-683 282-481 0-770-272t-333-766l2050 4z" transform="scale(.01563)"/></defs><use xlink:href="#DejaVuSans-76"/><use xlink:href="#DejaVuSans-69" x="59.18"/><use xlink:href="#DejaVuSans-73" x="86.963"/><use xlink:href="#DejaVuSans-75" x="139.063"/><use xlink:href="#DejaVuSans-61" x="202.441"/><use xlink:href="#DejaVuSans-6c" x="263.721"/><use xlink:href="#DejaVuSans-2d" x="291.504"/><use xlink:href="#DejaVuSans-73" x="327.588"/><use xlink:href="#DejaVuSans-74" x="379.688"/><use xlink:href="#DejaVuSans-75" x="418.896"/><use xlink:href="#DejaVuSans-64" x="482.275"/><use xlink:href="#DejaVuSans-69" x="545.752"/><use xlink:href="#DejaVuSans-6f" x="573.535"/><use xlink:href="#DejaVuSans-2d" x="636.592"/><use xlink:href="#DejaVuSans-63" x="672.676"/><use xlink:href="#DejaVuSans-6f" x="727.656"/><use xlink:href="#DejaVuSans-64" x="788.838"/><use xlink:href="#DejaVuSans-65" x="852.314"/></g><g style="fill:#ff7f0e" transform="matrix(.14 0 0 -.14 399.849 290.938)" id="text_18"><defs><path id="DejaVuSans-6d" d="M3328 2828q216 388 516 572t706 184q547 0 844-383 297-382 297-1088V0h-578v2094q0 503-179 746-178 244-543 244-447 0-707-297-259-296-259-809V0h-578v2094q0 506-178 748t-550 242q-441 0-701-298-259-298-259-808V0H581v3500h578v-544q197 322 472 475t653 153q382 0 649-194 267-193 395-562z" transform="scale(.01563)"/></defs><use xlink:href="#DejaVuSans-76"/><use xlink:href="#DejaVuSans-69" x="59.18"/><use xlink:href="#DejaVuSans-6d" x="86.963"/></g><g style="fill:#2ca02c" transform="matrix(.14 0 0 -.14 399.849 304.938)" id="text_19"><use xlink:href="#DejaVuSans-65"/><use xlink:href="#DejaVuSans-6d" x="61.523"/><use xlink:href="#DejaVuSans-61" x="158.936"/><use xlink:href="#DejaVuSans-63" x="220.215"/><use xlink:href="#DejaVuSans-73" x="275.195"/></g><g style="fill:#d62728" transform="matrix(.14 0 0 -.14 399.849 318.938)" id="text_20"><defs><path id="DejaVuSans-6e" d="M3513 2113V0h-575v2094q0 497-194 743-194 247-581 247-466 0-735-297-269-296-269-809V0H581v3500h578v-544q207 316 486 472 280 156 646 156 603 0 912-373 310-373 310-1098z" transform="scale(.01563)"/><path id="DejaVuSans-70" d="M1159 525v-1856H581v4831h578v-531q182 312 458 463 277 152 661 152 638 0 1036-506 399-506 399-1331T3314 415Q2916-91 2278-91q-384 0-661 152-276 152-458 464zm1957 1222q0 634-261 995t-717 361q-457 0-718-361t-261-995q0-634 261-995t718-361q456 0 717 361t261 995z" transform="scale(.01563)"/><path id="DejaVuSans-2b" d="M2944 4013V2272h1740v-531H2944V0h-525v1741H678v531h1741v1741h525z" transform="scale(.01563)"/></defs><use xlink:href="#DejaVuSans-6e"/><use xlink:href="#DejaVuSans-6f" x="63.379"/><use xlink:href="#DejaVuSans-74" x="124.561"/><use xlink:href="#DejaVuSans-65" x="163.77"/><use xlink:href="#DejaVuSans-70" x="225.293"/><use xlink:href="#DejaVuSans-61" x="288.77"/><use xlink:href="#DejaVuSans-64" x="350.049"/><use xlink:href="#DejaVuSans-2b" x="413.525"/><use xlink:href="#DejaVuSans-2b" x="497.314"/></g><g style="fill:#9467bd" transform="matrix(.14 0 0 -.14 399.849 332.938)" id="text_21"><defs><path id="DejaVuSans-72" d="M2631 2963q-97 56-211 82-114 27-251 27-488 0-749-317t-261-911V0H581v3500h578v-544q182 319 472 473 291 155 707 155 59 0 131-8 72-7 159-23l3-590z" transform="scale(.01563)"/></defs><use xlink:href="#DejaVuSans-61"/><use xlink:href="#DejaVuSans-74" x="61.279"/><use xlink:href="#DejaVuSans-6f" x="100.488"/><use xlink:href="#DejaVuSans-6d" x="161.67"/><use xlink:href="#DejaVuSans-2d" x="259.082"/><use xlink:href="#DejaVuSans-65" x="295.166"/><use xlink:href="#DejaVuSans-64" x="356.689"/><use xlink:href="#DejaVuSans-69" x="420.166"/><use xlink:href="#DejaVuSans-74" x="447.949"/><use xlink:href="#DejaVuSans-6f" x="487.158"/><use xlink:href="#DejaVuSans-72" x="548.34"/></g><g style="fill:#8c564b" transform="matrix(.14 0 0 -.14 399.849 346.938)" id="text_22"><use xlink:href="#DejaVuSans-6e"/><use xlink:href="#DejaVuSans-65" x="63.379"/><use xlink:href="#DejaVuSans-6f" x="124.902"/><use xlink:href="#DejaVuSans-76" x="186.084"/><use xlink:href="#DejaVuSans-69" x="245.264"/><use xlink:href="#DejaVuSans-6d" x="273.047"/></g><g style="fill:#b0b0b0" transform="matrix(.09716 0 0 -.09716 32.015 357.986)" id="text_23"><defs><path id="DejaVuSans-40" d="M2381 1678q0-447 222-702 222-254 610-254 384 0 604 256 221 256 221 700 0 438-225 695-225 258-607 258-378 0-602-256-223-256-223-697zm1703-934q-187-241-429-355t-564-114q-538 0-874 389t-336 1014q0 625 337 1015 338 391 873 391 322 0 565-117 244-117 428-354v409h447V722q457 69 714 417 258 349 258 902 0 334-99 628-98 294-298 544-325 409-792 626t-1017 217q-384 0-738-102-353-101-653-301-490-319-767-836-276-517-276-1120 0-497 179-932 180-434 521-765 328-325 759-495 431-171 922-171 403 0 792 136t714 389l281-347q-390-303-851-464t-936-161q-578 0-1091 205-512 205-912 595Q841 78 631 592q-209 514-209 1105 0 569 212 1084 213 516 607 907 403 396 931 607t1119 211q662 0 1229-272 568-271 952-771 234-307 357-666 124-359 124-744 0-822-497-1297T4084 263v481z" transform="scale(.01563)"/><path id="DejaVuSans-68" d="M3513 2113V0h-575v2094q0 497-194 743-194 247-581 247-466 0-735-297-269-296-269-809V0H581v4863h578V2956q207 316 486 472 280 156 646 156 603 0 912-373 310-373 310-1098z" transform="scale(.01563)"/><path id="DejaVuSans-2f" d="M1625 4666h531L531-594H0l1625 5260z" transform="scale(.01563)"/><path id="DejaVuSans-7c" d="M1344 4891v-6400H813v6400h531z" transform="scale(.01563)"/><path id="DejaVuSans-4e" d="M628 4666h850L3547 763v3903h612V0h-850L1241 3903V0H628v4666z" transform="scale(.01563)"/><path id="DejaVuSans-53" d="M3425 4513v-616q-359 172-678 256-319 85-616 85-515 0-795-200t-280-569q0-310 186-468 186-157 705-254l381-78q706-135 1042-474t336-907q0-679-455-1029Q2797-91 1919-91q-331 0-705 75-373 75-773 222v650q384-215 753-325 369-109 725-109 540 0 834 212 294 213 294 607 0 343-211 537t-692 291l-385 75q-706 140-1022 440-315 300-315 835 0 619 436 975t1201 356q329 0 669-60 341-59 697-177z" transform="scale(.01563)"/><path id="DejaVuSans-f6" d="M1959 3097q-462 0-731-361t-269-989q0-628 267-989 268-361 733-361 460 0 728 362 269 363 269 988 0 622-269 986-268 364-728 364zm0 487q750 0 1178-488 429-487 429-1349 0-859-429-1349Q2709-91 1959-91q-753 0-1180 489-426 490-426 1349 0 862 426 1349 427 488 1180 488zm295 1266h634v-631h-634v631zm-1222 0h634v-631h-634v631z" transform="scale(.01563)"/><path id="DejaVuSans-43" d="M4122 4306v-665q-319 297-680 443-361 147-767 147-800 0-1225-489t-425-1414q0-922 425-1411t1225-489q406 0 767 147t680 444V359q-331-225-702-338-370-112-782-112-1060 0-1670 648-609 649-609 1771 0 1125 609 1773 610 649 1670 649 418 0 788-111 371-111 696-333z" transform="scale(.01563)"/><path id="DejaVuSans-42" d="M1259 2228V519h1013q509 0 754 211 246 211 246 645 0 438-246 645-245 208-754 208H1259zm0 1919V2741h935q462 0 688 173 227 174 227 530 0 353-227 528-226 175-688 175h-935zm-631 519h1613q722 0 1112-300 391-300 391-853 0-429-200-682t-588-315q466-100 724-418 258-317 258-792 0-625-425-966Q3088 0 2303 0H628v4666z" transform="scale(.01563)"/><path id="DejaVuSans-59" d="M-13 4666h679l1293-1919 1285 1919h678L2272 2222V0h-634v2222L-13 4666z" transform="scale(.01563)"/></defs><use xlink:href="#DejaVuSans-40"/><use xlink:href="#DejaVuSans-6e" x="100"/><use xlink:href="#DejaVuSans-73" x="163.379"/><use xlink:href="#DejaVuSans-63" x="215.479"/><use xlink:href="#DejaVuSans-68" x="270.459"/><use xlink:href="#DejaVuSans-6c" x="333.838"/><use xlink:href="#DejaVuSans-6f" x="361.621"/><use xlink:href="#DejaVuSans-65" x="422.803"/><use xlink:href="#DejaVuSans-20" x="484.326"/><use xlink:href="#DejaVuSans-2f" x="516.113"/><use xlink:href="#DejaVuSans-20" x="549.805"/><use xlink:href="#DejaVuSans-73" x="581.592"/><use xlink:href="#DejaVuSans-6f" x="633.691"/><use xlink:href="#DejaVuSans-2d" x="696.748"/><use xlink:href="#DejaVuSans-74" x="732.832"/><use xlink:href="#DejaVuSans-72" x="772.041"/><use xlink:href="#DejaVuSans-65" x="810.904"/><use xlink:href="#DejaVuSans-6e" x="872.428"/><use xlink:href="#DejaVuSans-64" x="935.807"/><use xlink:href="#DejaVuSans-73" x="999.283"/><use xlink:href="#DejaVuSans-20" x="1051.383"/><use xlink:href="#DejaVuSans-7c" x="1083.17"/><use xlink:href="#DejaVuSans-20" x="1116.861"/><use xlink:href="#DejaVuSans-4e" x="1148.648"/><use xlink:href="#DejaVuSans-69" x="1223.453"/><use xlink:href="#DejaVuSans-63" x="1251.236"/><use xlink:href="#DejaVuSans-6f" x="1306.217"/><use xlink:href="#DejaVuSans-20" x="1367.398"/><use xlink:href="#DejaVuSans-53" x="1399.186"/><use xlink:href="#DejaVuSans-63" x="1462.662"/><use xlink:href="#DejaVuSans-68" x="1517.643"/><use xlink:href="#DejaVuSans-6c" x="1581.021"/><use xlink:href="#DejaVuSans-f6" x="1608.805"/><use xlink:href="#DejaVuSans-6d" x="1669.986"/><use xlink:href="#DejaVuSans-65" x="1767.398"/><use xlink:href="#DejaVuSans-72" x="1828.922"/><use xlink:href="#DejaVuSans-20" x="1870.035"/><use xlink:href="#DejaVuSans-7c" x="1901.822"/><use xlink:href="#DejaVuSans-20" x="1935.514"/><use xlink:href="#DejaVuSans-43" x="1967.301"/><use xlink:href="#DejaVuSans-43" x="2037.125"/><use xlink:href="#DejaVuSans-20" x="2106.949"/><use xlink:href="#DejaVuSans-42" x="2138.736"/><use xlink:href="#DejaVuSans-59" x="2201.84"/></g><g style="fill:#b0b0b0" transform="matrix(.14 0 0 -.14 54.43 17.838)" id="text_24"><defs><path id="DejaVuSans-44" d="M1259 4147V519h763q966 0 1414 437 448 438 448 1382 0 937-448 1373t-1414 436h-763zm-631 519h1297q1356 0 1990-564 635-564 635-1764 0-1207-638-1773Q3275 0 1925 0H628v4666z" transform="scale(.01563)"/><path id="DejaVuSans-79" d="M2059-325q-243-625-475-815-231-191-618-191H506v481h338q237 0 368 113 132 112 291 531l103 262L191 3500h609L1894 763l1094 2737h609L2059-325z" transform="scale(.01563)"/><path id="DejaVuSans-62" d="M3116 1747q0 634-261 995t-717 361q-457 0-718-361t-261-995q0-634 261-995t718-361q456 0 717 361t261 995zM1159 2969q182 312 458 463 277 152 661 152 638 0 1036-506 399-506 399-1331T3314 415Q2916-91 2278-91q-384 0-661 152-276 152-458 464V0H581v4863h578V2969z" transform="scale(.01563)"/><path id="DejaVuSans-66" d="M2375 4863v-479h-550q-309 0-430-125-120-125-120-450v-309h947v-447h-947V0H697v3053H147v447h550v244q0 584 272 851 272 268 862 268h544z" transform="scale(.01563)"/><path id="DejaVuSans-71" d="M947 1747q0-634 261-995t717-361q456 0 718 361 263 361 263 995t-263 995q-262 361-718 361t-717-361q-261-361-261-995zM2906 525q-181-312-458-464-276-152-664-152-634 0-1033 506-398 507-398 1332t398 1331q399 506 1033 506 388 0 664-152 277-151 458-463v531h575v-4831h-575V525z" transform="scale(.01563)"/><path id="DejaVuSans-6b" d="M581 4863h578V1991l1716 1509h734L1753 1863 3688 0h-750L1159 1709V0H581v4863z" transform="scale(.01563)"/><path id="DejaVuSans-4f" d="M2522 4238q-688 0-1093-513-404-512-404-1397 0-881 404-1394 405-512 1093-512 687 0 1089 512 402 513 402 1394 0 885-402 1397-402 513-1089 513zm0 512q981 0 1568-658 588-658 588-1764 0-1103-588-1761Q3503-91 2522-91q-984 0-1574 656-589 657-589 1763t589 1764q590 658 1574 658z" transform="scale(.01563)"/><path id="DejaVuSans-77" d="M269 3500h575l719-2731 715 2731h678l719-2731 716 2731h575L4050 0h-678l-753 2869L1863 0h-679L269 3500z" transform="scale(.01563)"/></defs><use xlink:href="#DejaVuSans-44"/><use xlink:href="#DejaVuSans-61" x="77.002"/><use xlink:href="#DejaVuSans-69" x="138.281"/><use xlink:href="#DejaVuSans-6c" x="166.064"/><use xlink:href="#DejaVuSans-79" x="193.848"/><use xlink:href="#DejaVuSans-20" x="253.027"/><use xlink:href="#DejaVuSans-6e" x="284.814"/><use xlink:href="#DejaVuSans-75" x="348.193"/><use xlink:href="#DejaVuSans-6d" x="411.572"/><use xlink:href="#DejaVuSans-62" x="508.984"/><use xlink:href="#DejaVuSans-65" x="572.461"/><use xlink:href="#DejaVuSans-72" x="633.984"/><use xlink:href="#DejaVuSans-20" x="675.098"/><use xlink:href="#DejaVuSans-6f" x="706.885"/><use xlink:href="#DejaVuSans-66" x="768.066"/><use xlink:href="#DejaVuSans-20" x="803.271"/><use xlink:href="#DejaVuSans-71" x="835.059"/><use xlink:href="#DejaVuSans-75" x="898.535"/><use xlink:href="#DejaVuSans-65" x="961.914"/><use xlink:href="#DejaVuSans-73" x="1023.438"/><use xlink:href="#DejaVuSans-74" x="1075.537"/><use xlink:href="#DejaVuSans-69" x="1114.746"/><use xlink:href="#DejaVuSans-6f" x="1142.529"/><use xlink:href="#DejaVuSans-6e" x="1203.711"/><use xlink:href="#DejaVuSans-73" x="1267.09"/><use xlink:href="#DejaVuSans-20" x="1319.189"/><use xlink:href="#DejaVuSans-6f" x="1350.977"/><use xlink:href="#DejaVuSans-6e" x="1412.158"/><use xlink:href="#DejaVuSans-20" x="1475.537"/><use xlink:href="#DejaVuSans-53" x="1507.324"/><use xlink:href="#DejaVuSans-74" x="1570.801"/><use xlink:href="#DejaVuSans-61" x="1610.01"/><use xlink:href="#DejaVuSans-63" x="1671.289"/><use xlink:href="#DejaVuSans-6b" x="1726.27"/><use xlink:href="#DejaVuSans-4f" x="1784.18"/><use xlink:href="#DejaVuSans-76" x="1862.891"/><use xlink:href="#DejaVuSans-65" x="1922.07"/><use xlink:href="#DejaVuSans-72" x="1983.594"/><use xlink:href="#DejaVuSans-66" x="2024.707"/><use xlink:href="#DejaVuSans-6c" x="2059.912"/><use xlink:href="#DejaVuSans-6f" x="2087.695"/><use xlink:href="#DejaVuSans-77" x="2148.877"/></g><path d="m32.015 305.36 1.715 10.17 2.226.933 2.226-.737 2.263.783 2.153-2.315 2.153.553 2.226-1.521 2.226-5.92 2.226-1.567 2.226 6.462 2.263-3.133 2.226-.698 2.226.502 2.226-.3 2.226 1.475 2.263-9.4 2.153 5.526 2.153-4.546 2.226-1.554 2.226 1.162 2.226 4.706 2.226-1.377 2.263-7.637 2.226-2.114 2.226 8.38 2.226-8.785 2.226 4.673 2.263 3.33 2.153-13.365 2.153 12.973 2.226-3.16 2.226 3.355 2.226-8.21 2.226 1.553 2.263-2.35 2.226-8.107 2.226 12.219 2.226-6.553 2.226-1.28 2.262-1.958 2.19-6.489 2.19-2.518 2.226-4.347 2.226 16.487 2.226-11.024 2.226-3.074 2.262 7.832 2.226 4.55 2.227-9.25 2.226 1.358 2.226 2.559 2.262-4.7 2.153-1.14 2.153 4.86 2.227-1.174 2.226 1.958 2.226-2.363 2.226-3.12h2.262l2.226 2.918 2.226-8.4 2.226 4.556 2.227-.053 2.262-2.741 2.153-4.679 2.153-.608 2.226 7.474 2.226 11.128 2.226-1.82 2.227-2.488 2.262-4.895 2.226 5.561 2.226 2.663 2.226-1.853 2.226 10.47 2.263-1.372 2.153-6.266 2.153 12.14 2.226-4.653 2.226 6.808 2.226-3.773 2.226 2.206 2.263 1.763 2.226 3.315 2.226-6.644 2.226 5.835 2.226 1.018 2.263-5.874 2.19-2.512 2.189 2.316 4.452 6.658 2.226-4.034 2.226 5.992 2.263-1.762 2.226.828 2.226-5.136 2.226 5.541 2.226 3.466 2.263-2.35 2.153-8.357 2.153 9.532 2.226-.874 2.226.483 2.226 1.742 2.226.803 2.263-3.329 2.226 3.538 2.226 1.945 2.226-1.743 2.226-1.39 4.416 2.734 2.153-.58 2.226.046 6.678.933 4.489-1.945 2.226 2.337 2.226-1.325 2.226 2.108 2.262-1.958 2.153 2.336 2.154-.77 2.226-1.716 2.226-2.787 2.226 5.62 2.226 1.625 2.262.196 2.226-5.464 2.227 2.135 2.226-1.123 2.226 1.319 2.262-1.371 2.19 4.294 2.19-2.14 2.225-3.316 2.227 1.75 2.226-.738 2.226 3.674 2.262-.783 2.226-2.284 2.226 1.11 2.226-.908 2.226 1.299 2.263-2.546 2.153 2.924 2.153-1.749 2.226 4.119 2.226-2.356 2.226.332 2.227 2.213 2.262.588 2.226 1.044 2.226-2.023 2.226-.81 2.226 2.18 2.263-1.958 2.153-2.448h0" clip-path="url(#pf03c98f2d7)" style="fill:none;stroke:#2ca02c;stroke-width:1.5;stroke-linecap:square" id="line2d_29"/><path d="m32.015 306.118 1.715 10.587 2.226-.444 2.226 2.206 2.263-1.958 2.153-5.784 2.153-.482 2.226-4.302 2.226-.398 2.226 4.243 2.226-1.697 2.263-2.742 2.226 1.606 2.226-7.088 2.226 4.458 2.226-.738 2.263-6.853 2.153 2.07 2.153-3.833 4.452 12.14 2.226-9.666 2.226 1.834 2.263.392 2.226-8.094 2.226 4.178 2.226-1.952 2.226-4.902 2.263-9.79 2.153 6.251 2.153-4.294 2.226-3.048 2.226 4.027 2.226 1.841 2.226 10.692 2.263-18.799 2.226-2.212 2.226 1.625 2.226 5.659 2.226-10.163 2.262 1.958 2.19-4.584 2.19-.898 2.226 8.83 2.226-1.977 2.226 2.18 2.226-9.425 2.262-3.133 2.226 8.714 2.227 7.147 2.226-18.276 2.226 16.71 2.262-8.029 2.153-10.343 2.153 2.51 2.227 1.175 2.226-2.154 2.226 17.33 2.226-12.434 2.262-3.33 2.226 4.433 2.226-2.082 2.226 2.891 2.227 3.57 2.262-7.636 2.153 2.014 4.38-4.827 2.225 11.82 2.226 2.141 2.227-8.798 2.262 4.7 2.226-.96 2.226-2.174 4.452 11.357 2.263-12.14 2.153-4.154 2.153 12.965 2.226 5.477 2.226-2.54 2.226 8.205 2.226-7.813 2.263.98 2.226-2.474 2.226 3.452 2.226-1.227 2.226 5.144 2.263-3.133 2.19.027 2.189 3.693 2.226.137 2.226 3.192 2.226-1.573 2.226 2.748 2.263 4.504 2.226-4.015 2.226-3.23 2.226 1.005 2.226 5.26 2.263-3.132 2.153-2.07 2.153 1.482 2.226 5.137 2.226.346 2.226-2.167 2.226-8.211 2.263 14.098 2.226-10.541 2.226 9.562 2.226.353 2.226 4.347 2.263-4.308 2.153-2.294 2.153.336 2.226 3.74 2.226 1.938 2.226-.926 2.226-3.969 2.263 2.546 2.226.613 2.226-1.984 2.226 2.591 2.226-1.025 2.262-.391 2.153-4.553 2.154 5.924 2.226 3.485 2.226 2.585 2.226 1.664 2.226-2.252 2.262-.391 4.453-3.72 2.226-3.956 2.226 7.088 2.262-7.05 2.19-.29 2.19.29 2.225-16.833 2.227-2.943 2.226 7.395 2.226 6.312 2.262-.98 2.226 4.987 2.226-3.42 2.226 11.919 2.226-3.499 2.263-5.678 4.306 3.916 2.226-3.035 2.226 7.93 2.226-.444 2.227 2.207 2.262 4.112 2.226-5.51 2.226 6.489 2.226-1.227 2.226-1.71 2.263 4.699h0" clip-path="url(#pf03c98f2d7)" style="fill:none;stroke:#ff7f0e;stroke-width:1.5;stroke-linecap:square" id="line2d_30"/><path d="m155.836 323.95 2.226-.203 2.226.007 2.262.196h6.678l2.227-.196 2.262.196H204.663l2.226-17.806 2.226-14.7 2.226 19.354 2.226 1.403 2.263 2.35 2.226.9 2.226-4.817 2.226-2.872 2.226-3.394 2.263.392 2.19 2.235 2.189-6.739 2.226-5.241 2.226 5.045 2.226-3.022 2.226-3.244 2.263 2.35 2.226-5.783 2.226-4.203 2.226-.855 2.226 2.03 2.263-6.267 2.153-11.098 2.153-5.154 2.226 2.885 2.226 1.423 2.226-3.447 2.226-5.365 2.263-5.679 2.226 1.332 2.226 4.151 2.226-6.984 2.226 14.817 2.263-11.553 2.153-15.26 2.153.378 2.226-6.997 2.226 7.976 2.226-10 2.226-6.644 2.263 8.616 2.226 3.087 2.226-12.878 2.226 7.82 2.226 4.125 2.262-8.616 2.153-10.714 2.154-2.21 2.226 4.464 2.226-19.933 2.226 6.579 2.226-19.895 2.262 9.008 2.226-16.227 2.227-5.509 2.226-4.608 2.226 8.72 2.262-15.077 2.19 3.315 2.19-36.212 2.225-53.014 2.227-10.039 2.226 1.136 2.226 15.117 2.262 17.036 2.226-3.016 2.226 4.778 2.226-4.17 2.226 16.898 2.263-28.785 2.153-18.378 2.153-1.203 2.226 7.793 2.226 11.593 2.226-21.912 2.227 39.143 2.262-44.841 2.226 4.889 2.226 25.854 2.226-24.64 2.226 21.507 2.263-18.015" clip-path="url(#pf03c98f2d7)" style="fill:none;stroke:#1f77b4;stroke-width:1.5;stroke-linecap:square" id="line2d_31"/></g></g><defs><clipPath id="pf03c98f2d7"><path d="M32.015 57.838h357.12V323.95H32.015z"/></clipPath></defs></svg>