<svg xmlns:xlink="http://www.w3.org/1999/xlink" width="713.316" height="489.969" viewBox="0 0 534.987 367.477" xmlns="http://www.w3.org/2000/svg"><defs><style>*{stroke-linejoin:round;stroke-linecap:butt}</style></defs><g id="figure_1"><path d="M0 367.477h534.987V0H0v367.477z" style="fill:none" id="patch_1"/><g id="axes_1"><path d="M32.015 323.95h357.12V57.838H32.015V323.95z" style="fill:none" id="patch_2"/><g id="matplotlib.axis_1"><g id="xtick_1"><g id="line2d_1"><defs><path id="mee0a7df2b4" d="M0 0v3.5" style="stroke:#b0b0b0;stroke-width:.4"/></defs><use xlink:href="#mee0a7df2b4" x="65.337" y="323.95" style="fill:#b0b0b0;stroke:#b0b0b0;stroke-width:.4"/></g><g style="fill:#b0b0b0" transform="matrix(.14 0 0 -.14 47.522 341.588)" id="text_1"><defs><path id="DejaVuSans-32" d="M1228 531h2203V0H469v531q359 372 979 998 621 627 780 809 303 340 423 576 121 236 121 464 0 372-261 606-261 235-680 235-297 0-627-103-329-103-704-313v638q381 153 712 231 332 78 607 78 725 0 1156-363 431-362 431-968 0-288-108-546-107-257-392-607-78-91-497-524-418-433-1181-1211z" transform="scale(.01563)"/><path id="DejaVuSans-30" d="M2034 4250q-487 0-733-480-245-479-245-1442 0-959 245-1439 246-480 733-480 491 0 736 480 246 480 246 1439 0 963-246 1442-245 480-736 480zm0 500q785 0 1199-621 414-620 414-1801 0-1178-414-1799Q2819-91 2034-91q-784 0-1198 620-414 621-414 1799 0 1181 414 1801 414 621 1198 621z" transform="scale(.01563)"/><path id="DejaVuSans-31" d="M794 531h1031v3560L703 3866v575l1116 225h631V531h1031V0H794v531z" transform="scale(.01563)"/></defs><use xlink:href="#DejaVuSans-32"/><use xlink:href="#DejaVuSans-30" x="63.623"/><use xlink:href="#DejaVuSans-31" x="127.246"/><use xlink:href="#DejaVuSans-30" x="190.869"/></g></g><g id="xtick_2"><use xlink:href="#mee0a7df2b4" x="117.649" y="323.95" style="fill:#b0b0b0;stroke:#b0b0b0;stroke-width:.4" id="line2d_2"/><g style="fill:#b0b0b0" transform="matrix(.14 0 0 -.14 99.834 341.588)" id="text_2"><use xlink:href="#DejaVuSans-32"/><use xlink:href="#DejaVuSans-30" x="63.623"/><use xlink:href="#DejaVuSans-31" x="127.246"/><use xlink:href="#DejaVuSans-32" x="190.869"/></g></g><g id="xtick_3"><use xlink:href="#mee0a7df2b4" x="170.033" y="323.95" style="fill:#b0b0b0;stroke:#b0b0b0;stroke-width:.4" id="line2d_3"/><g style="fill:#b0b0b0" transform="matrix(.14 0 0 -.14 152.218 341.588)" id="text_3"><defs><path id="DejaVuSans-34" d="M2419 4116 825 1625h1594v2491zm-166 550h794V1625h666v-525h-666V0h-628v1100H313v609l1940 2957z" transform="scale(.01563)"/></defs><use xlink:href="#DejaVuSans-32"/><use xlink:href="#DejaVuSans-30" x="63.623"/><use xlink:href="#DejaVuSans-31" x="127.246"/><use xlink:href="#DejaVuSans-34" x="190.869"/></g></g><g id="xtick_4"><use xlink:href="#mee0a7df2b4" x="222.345" y="323.95" style="fill:#b0b0b0;stroke:#b0b0b0;stroke-width:.4" id="line2d_4"/><g style="fill:#b0b0b0" transform="matrix(.14 0 0 -.14 204.53 341.588)" id="text_4"><defs><path id="DejaVuSans-36" d="M2113 2584q-425 0-674-291-248-290-248-796 0-503 248-796 249-292 674-292t673 292q248 293 248 796 0 506-248 796-248 291-673 291zm1253 1979v-575q-238 112-480 171-242 60-480 60-625 0-955-422-329-422-376-1275 184 272 462 417 279 145 613 145 703 0 1111-427 408-426 408-1160 0-719-425-1154Q2819-91 2113-91q-810 0-1238 620-428 621-428 1799 0 1106 525 1764t1409 658q238 0 480-47t505-140z" transform="scale(.01563)"/></defs><use xlink:href="#DejaVuSans-32"/><use xlink:href="#DejaVuSans-30" x="63.623"/><use xlink:href="#DejaVuSans-31" x="127.246"/><use xlink:href="#DejaVuSans-36" x="190.869"/></g></g><g id="xtick_5"><use xlink:href="#mee0a7df2b4" x="274.729" y="323.95" style="fill:#b0b0b0;stroke:#b0b0b0;stroke-width:.4" id="line2d_5"/><g style="fill:#b0b0b0" transform="matrix(.14 0 0 -.14 256.914 341.588)" id="text_5"><defs><path id="DejaVuSans-38" d="M2034 2216q-450 0-708-241-257-241-257-662 0-422 257-663 258-241 708-241t709 242q260 243 260 662 0 421-258 662-257 241-711 241zm-631 268q-406 100-633 378-226 279-226 679 0 559 398 884 399 325 1092 325 697 0 1094-325t397-884q0-400-227-679-226-278-629-378 456-106 710-416 255-309 255-755 0-679-414-1042Q2806-91 2034-91q-771 0-1186 362-414 363-414 1042 0 446 256 755 257 310 713 416zm-231 997q0-362 226-565 227-203 636-203 407 0 636 203 230 203 230 565 0 363-230 566-229 203-636 203-409 0-636-203-226-203-226-566z" transform="scale(.01563)"/></defs><use xlink:href="#DejaVuSans-32"/><use xlink:href="#DejaVuSans-30" x="63.623"/><use xlink:href="#DejaVuSans-31" x="127.246"/><use xlink:href="#DejaVuSans-38" x="190.869"/></g></g><g id="xtick_6"><use xlink:href="#mee0a7df2b4" x="327.041" y="323.95" style="fill:#b0b0b0;stroke:#b0b0b0;stroke-width:.4" id="line2d_6"/><g style="fill:#b0b0b0" transform="matrix(.14 0 0 -.14 309.226 341.588)" id="text_6"><use xlink:href="#DejaVuSans-32"/><use xlink:href="#DejaVuSans-30" x="63.623"/><use xlink:href="#DejaVuSans-32" x="127.246"/><use xlink:href="#DejaVuSans-30" x="190.869"/></g></g><g id="xtick_7"><use xlink:href="#mee0a7df2b4" x="379.425" y="323.95" style="fill:#b0b0b0;stroke:#b0b0b0;stroke-width:.4" id="line2d_7"/><g style="fill:#b0b0b0" transform="matrix(.14 0 0 -.14 361.61 341.588)" id="text_7"><use xlink:href="#DejaVuSans-32"/><use xlink:href="#DejaVuSans-30" x="63.623"/><use xlink:href="#DejaVuSans-32" x="127.246"/><use xlink:href="#DejaVuSans-32" x="190.869"/></g></g></g><g id="matplotlib.axis_2"><g id="ytick_1"><path d="M32.015 323.95h357.12" clip-path="url(#pcf233613a8)" style="fill:none;stroke:#b0b0b0;stroke-width:.3;stroke-linecap:square" id="line2d_8"/><g id="line2d_9"><defs><path id="m7c39dd4eca" d="M0 0h-3.5" style="stroke:#b0b0b0;stroke-width:.3"/></defs><use xlink:href="#m7c39dd4eca" x="32.015" y="323.95" style="fill:#b0b0b0;stroke:#b0b0b0;stroke-width:.3"/></g><use xlink:href="#DejaVuSans-30" style="fill:#b0b0b0" transform="matrix(.14 0 0 -.14 16.108 329.269)" id="text_8"/></g><g id="ytick_2"><path d="M32.015 267.63h357.12" clip-path="url(#pcf233613a8)" style="fill:none;stroke:#b0b0b0;stroke-width:.3;stroke-linecap:square" id="line2d_10"/><use xlink:href="#m7c39dd4eca" x="32.015" y="267.63" style="fill:#b0b0b0;stroke:#b0b0b0;stroke-width:.3" id="line2d_11"/><g style="fill:#b0b0b0" transform="matrix(.14 0 0 -.14 7.2 272.949)" id="text_9"><use xlink:href="#DejaVuSans-31"/><use xlink:href="#DejaVuSans-30" x="63.623"/></g></g><g id="ytick_3"><path d="M32.015 211.31h357.12" clip-path="url(#pcf233613a8)" style="fill:none;stroke:#b0b0b0;stroke-width:.3;stroke-linecap:square" id="line2d_12"/><use xlink:href="#m7c39dd4eca" x="32.015" y="211.31" style="fill:#b0b0b0;stroke:#b0b0b0;stroke-width:.3" id="line2d_13"/><g style="fill:#b0b0b0" transform="matrix(.14 0 0 -.14 7.2 216.629)" id="text_10"><use xlink:href="#DejaVuSans-32"/><use xlink:href="#DejaVuSans-30" x="63.623"/></g></g><g id="ytick_4"><path d="M32.015 154.99h357.12" clip-path="url(#pcf233613a8)" style="fill:none;stroke:#b0b0b0;stroke-width:.3;stroke-linecap:square" id="line2d_14"/><use xlink:href="#m7c39dd4eca" x="32.015" y="154.99" style="fill:#b0b0b0;stroke:#b0b0b0;stroke-width:.3" id="line2d_15"/><g style="fill:#b0b0b0" transform="matrix(.14 0 0 -.14 7.2 160.309)" id="text_11"><defs><path id="DejaVuSans-33" d="M2597 2516q453-97 707-404 255-306 255-756 0-690-475-1069Q2609-91 1734-91q-293 0-604 58T488 141v609q262-153 574-231 313-78 654-78 593 0 904 234t311 681q0 413-289 645-289 233-804 233h-544v519h569q465 0 712 186t247 536q0 359-255 551-254 193-729 193-260 0-557-57-297-56-653-174v562q360 100 674 150t592 50q719 0 1137-327 419-326 419-882 0-388-222-655t-631-370z" transform="scale(.01563)"/></defs><use xlink:href="#DejaVuSans-33"/><use xlink:href="#DejaVuSans-30" x="63.623"/></g></g><g id="ytick_5"><path d="M32.015 98.67h357.12" clip-path="url(#pcf233613a8)" style="fill:none;stroke:#b0b0b0;stroke-width:.3;stroke-linecap:square" id="line2d_16"/><use xlink:href="#m7c39dd4eca" x="32.015" y="98.67" style="fill:#b0b0b0;stroke:#b0b0b0;stroke-width:.3" id="line2d_17"/><g style="fill:#b0b0b0" transform="matrix(.14 0 0 -.14 7.2 103.989)" id="text_12"><use xlink:href="#DejaVuSans-34"/><use xlink:href="#DejaVuSans-30" x="63.623"/></g></g></g><path d="m129.617 323.95 2.185-.182 2.222.182H173.258l2.114-2.362 2.185 1.048 2.186-.866 2.186.115 2.185-1.205h2.222l2.185 1.017 2.186.254 2.186-1.38 2.185 1.562 2.222-.727 2.114-.674 2.114.311 2.186-2.537 2.185 1.629 2.186-3.507 2.185-2.489 2.222 3.089 2.186-1.35 2.185.078 2.186-.83 2.185 2.283 2.222-1.998 2.15-.783 2.15-5.03 2.185 1.398 2.186 1.508 2.186.182 2.185 1.453 2.222-1.998 2.185-1.145 2.186 1.145 2.186.92 2.185.352 2.222.908 2.114-3.244 2.114-.571 2.185.678 2.186 3.319 2.186-3.32 2.185 1.503 2.222-.727 2.185 2.792 2.186-.248 2.186.248 2.185 4.294 2.222-5.996 2.114.24 2.114.85 2.185 2.49 2.186-1.581 2.186.642 2.185-2.096 2.222 2.725 2.185-2.507 2.186-.4 2.186-.163 2.185.345 2.222.909 2.114-.007 2.114 3.095 2.185-1.526 2.186-1.38 2.186 3.07 2.185-1.98 2.222-.546 2.186 1.962 2.185-2.507 2.186-.684 2.185.684 2.222.182 2.15.345 2.15-1.617 2.185-2.786 2.186 2.423 2.185-2.423 2.186-1.392 2.222 3.27 2.185 1.877 2.186-1.514 2.186 3.955 2.185.224 2.222-2.544 2.114.818 2.114 1.18 2.185.134 2.186.412 2.186.902 2.185 1.641 2.222.364 2.185-3.507 2.186 1.508 2.186.557 2.185-.375 2.222-1.272 2.114-.538 2.114.72 2.185 1.09 2.186.727" clip-path="url(#pcf233613a8)" style="fill:none;stroke:#9467bd;stroke-width:1.5;stroke-linecap:square" id="line2d_18"/><path d="m32.015 306.702 1.684 9.436 2.186.866 2.185-.685 2.222.727 2.114-2.148 2.114.513L46.705 314l2.186-5.493 2.186-1.453 2.185 5.995 2.222-2.907 2.185-.648 2.186.467 2.186-.279 2.185 1.369 2.222-8.72 2.114 5.125 2.114-4.217 2.185-1.442 2.186 1.078 2.186 4.367 2.185-1.278 2.222-7.086 2.186-1.962 2.185 7.776 2.186-8.151 2.185 4.336 2.222 3.088 2.114-12.4 2.114 12.037 2.186-2.931 2.185 3.113 2.186-7.619 2.185 1.442 2.222-2.18 2.186-7.522 2.185 11.337 2.186-6.08 2.186-1.187 2.221-1.817 2.15-6.02 2.15-2.337 2.185-4.034 2.186 15.298 2.186-10.229 2.185-2.852 2.222 7.267 2.185 4.22 2.186-8.58 2.186 1.26 2.185 2.373 2.222-4.36 2.114-1.058 2.114 4.51 2.185-1.09 2.186 1.817 2.186-2.193 2.185-2.894h2.222l2.185 2.707 2.186-7.794 2.186 4.227 2.185-.049 2.222-2.543 2.114-4.341 2.114-.565 2.185 6.934 2.186 10.326 2.186-1.69 2.185-2.307 2.222-4.542 2.185 5.16 2.186 2.47 2.186-1.72 2.185 9.714 2.222-1.272 2.114-5.813 2.114 11.264 2.186-4.318 2.185 6.316 2.186-3.5 2.185 2.047 2.222 1.635 2.186 3.076 2.185-6.165 2.186 5.414 2.185.945 2.222-5.45 2.15-2.33 2.15 2.148 4.37 6.177 2.187-3.742 2.185 5.559 2.222-1.635 2.185.769 2.186-4.766 2.186 5.141 2.185 3.216 2.222-2.18 2.114-7.754 2.114 8.844 2.185-.811 2.186.448 2.186 1.617 2.185.744 2.222-3.088 2.185 3.282 2.186 1.805 2.186-1.617 2.185-1.29 4.336 2.537 2.114-.538 2.185.042 6.557.866 4.407-1.805 2.186 2.168 2.186-1.23 2.185 1.957 2.222-1.817 2.114 2.167 2.114-.713 2.185-1.593 2.186-2.586 2.186 5.214 2.185 1.508 2.222.182 2.186-5.069 2.185 1.98 2.186-1.041 2.185 1.223 2.222-1.272 2.15 3.985 2.15-1.986 2.185-3.077 2.186 1.623 2.185-.684 2.186 3.41 2.222-.727 2.185-2.12 2.186 1.03 2.186-.842 2.185 1.205 2.222-2.362 2.114 2.712 2.114-1.622 2.185 3.822 2.186-2.187 2.186.31 2.185 2.052 2.222.545 2.185.97 2.186-1.878 2.186-.751 2.185 2.023 2.222-1.817 2.114-2.271 2.114 2.997 2.185-2.81 2.186 2.81h0" clip-path="url(#pcf233613a8)" style="fill:none;stroke:#d62728;stroke-width:1.5;stroke-linecap:square" id="line2d_19"/><path d="m81.64 323.95 2.186-.188 2.185.188h6.593l2.114-.201 2.114.2h2.186l2.185-.18 2.186.18h45.827l2.185-.187 2.186.188h26.156l2.186-.188 2.185.006 2.222.182h4.371l2.186-.188 2.185.006 2.222.182 2.114-.402 2.114.22 2.186-.194 2.185.194 2.186-.381 2.185.018 4.408.357 2.185.006 2.186-.757 6.557.55 2.15-.52 2.185.533 2.186-.533 2.186.909 2.185-1.09 2.222.726 2.185-.95 2.186.587 4.371-.363 2.222.545 2.114-2.673 2.114 2.491 2.185-.024 2.186-1.066 2.186.878 2.185-.878 4.407 1.066 2.186-1.248 2.186.685 2.185-.685 2.222 1.635 2.114-1.044 2.114.5 2.185-.406 2.186-1.048 2.186.109 2.185 1.344 2.222-.363 2.185-.042 2.186-.321 2.186.508 2.185-.327 2.222-.545 2.114.993 2.114.097 2.185-.593 2.186.593h6.593l2.186-.78 2.185.235 2.186-1.362 2.185 1.544 2.222-2.362 2.15 1.498 2.15.319 2.185-3.064 2.186.157 2.185 2.283 2.186-2.101 2.222 1.272 2.185-.11 2.186.11 2.186-.11 2.185-1.707h2.222l2.114.46 2.114-3.185 2.185 1.053 2.186-.508 2.186 3.324 2.185-.6 2.222-.726 4.371-.727 2.186-1.514 2.185-.12 2.222 1.09 2.114-.701 2.114-1.298 2.185.842 2.186-.297h0" clip-path="url(#pcf233613a8)" style="fill:none;stroke:#2ca02c;stroke-width:1.5;stroke-linecap:square" id="line2d_20"/><g style="fill:#1f77b4" transform="matrix(.14 0 0 -.14 399.849 87.09)" id="text_13"><defs><path id="DejaVuSans-76" d="M191 3500h609L1894 563l1094 2937h609L2284 0h-781L191 3500z" transform="scale(.01563)"/><path id="DejaVuSans-69" d="M603 3500h575V0H603v3500zm0 1363h575v-729H603v729z" transform="scale(.01563)"/><path id="DejaVuSans-73" d="M2834 3397v-544q-243 125-506 187-262 63-544 63-428 0-642-131t-214-394q0-200 153-314t616-217l197-44q612-131 870-370t258-667q0-488-386-773Q2250-91 1575-91q-281 0-586 55T347 128v594q319-166 628-249 309-82 613-82 406 0 624 139 219 139 219 392 0 234-158 359-157 125-692 241l-200 47q-534 112-772 345-237 233-237 639 0 494 350 762 350 269 994 269 318 0 599-47 282-46 519-140z" transform="scale(.01563)"/><path id="DejaVuSans-75" d="M544 1381v2119h575V1403q0-497 193-746 194-248 582-248 465 0 735 297 271 297 271 810v1984h575V0h-575v538q-209-319-486-474-276-155-642-155-603 0-916 375-312 375-312 1097zm1447 2203z" transform="scale(.01563)"/><path id="DejaVuSans-61" d="M2194 1759q-697 0-966-159t-269-544q0-306 202-486 202-179 548-179 479 0 768 339t289 901v128h-572zm1147 238V0h-575v531q-197-318-491-470T1556-91q-537 0-855 302-317 302-317 808 0 590 395 890 396 300 1180 300h807v57q0 397-261 614t-733 217q-300 0-585-72-284-72-546-216v532q315 122 612 182 297 61 578 61 760 0 1135-394 375-393 375-1193z" transform="scale(.01563)"/><path id="DejaVuSans-6c" d="M603 4863h575V0H603v4863z" transform="scale(.01563)"/><path id="DejaVuSans-2d" d="M313 2009h1684v-512H313v512z" transform="scale(.01563)"/><path id="DejaVuSans-74" d="M1172 4494v-994h1184v-447H1172V1153q0-428 117-550t477-122h590V0h-590q-666 0-919 248-253 249-253 905v1900H172v447h422v994h578z" transform="scale(.01563)"/><path id="DejaVuSans-64" d="M2906 2969v1894h575V0h-575v525q-181-312-458-464-276-152-664-152-634 0-1033 506-398 507-398 1332t398 1331q399 506 1033 506 388 0 664-152 277-151 458-463zM947 1747q0-634 261-995t717-361q456 0 718 361 263 361 263 995t-263 995q-262 361-718 361t-717-361q-261-361-261-995z" transform="scale(.01563)"/><path id="DejaVuSans-6f" d="M1959 3097q-462 0-731-361t-269-989q0-628 267-989 268-361 733-361 460 0 728 362 269 363 269 988 0 622-269 986-268 364-728 364zm0 487q750 0 1178-488 429-487 429-1349 0-859-429-1349Q2709-91 1959-91q-753 0-1180 489-426 490-426 1349 0 862 426 1349 427 488 1180 488z" transform="scale(.01563)"/><path id="DejaVuSans-63" d="M3122 3366v-538q-244 135-489 202t-495 67q-560 0-870-355-309-354-309-995t309-996q310-354 870-354 250 0 495 67t489 202V134Q2881 22 2623-34q-257-57-548-57-791 0-1257 497-465 497-465 1341 0 856 470 1346 471 491 1290 491 265 0 518-55 253-54 491-163z" transform="scale(.01563)"/><path id="DejaVuSans-65" d="M3597 1894v-281H953q38-594 358-905t892-311q331 0 642 81t618 244V178Q3153 47 2828-22t-659-69q-838 0-1327 487-489 488-489 1320 0 859 464 1363 464 505 1252 505 706 0 1117-455 411-454 411-1235zm-575 169q-6 471-264 752-258 282-683 282-481 0-770-272t-333-766l2050 4z" transform="scale(.01563)"/></defs><use xlink:href="#DejaVuSans-76"/><use xlink:href="#DejaVuSans-69" x="59.18"/><use xlink:href="#DejaVuSans-73" x="86.963"/><use xlink:href="#DejaVuSans-75" x="139.063"/><use xlink:href="#DejaVuSans-61" x="202.441"/><use xlink:href="#DejaVuSans-6c" x="263.721"/><use xlink:href="#DejaVuSans-2d" x="291.504"/><use xlink:href="#DejaVuSans-73" x="327.588"/><use xlink:href="#DejaVuSans-74" x="379.688"/><use xlink:href="#DejaVuSans-75" x="418.896"/><use xlink:href="#DejaVuSans-64" x="482.275"/><use xlink:href="#DejaVuSans-69" x="545.752"/><use xlink:href="#DejaVuSans-6f" x="573.535"/><use xlink:href="#DejaVuSans-2d" x="636.592"/><use xlink:href="#DejaVuSans-63" x="672.676"/><use xlink:href="#DejaVuSans-6f" x="727.656"/><use xlink:href="#DejaVuSans-64" x="788.838"/><use xlink:href="#DejaVuSans-65" x="852.314"/></g><g style="fill:#ff7f0e" transform="matrix(.14 0 0 -.14 399.849 299.273)" id="text_14"><defs><path id="DejaVuSans-6d" d="M3328 2828q216 388 516 572t706 184q547 0 844-383 297-382 297-1088V0h-578v2094q0 503-179 746-178 244-543 244-447 0-707-297-259-296-259-809V0h-578v2094q0 506-178 748t-550 242q-441 0-701-298-259-298-259-808V0H581v3500h578v-544q197 322 472 475t653 153q382 0 649-194 267-193 395-562z" transform="scale(.01563)"/></defs><use xlink:href="#DejaVuSans-76"/><use xlink:href="#DejaVuSans-69" x="59.18"/><use xlink:href="#DejaVuSans-6d" x="86.963"/></g><g style="fill:#2ca02c" transform="matrix(.14 0 0 -.14 399.849 313.273)" id="text_15"><defs><path id="DejaVuSans-6e" d="M3513 2113V0h-575v2094q0 497-194 743-194 247-581 247-466 0-735-297-269-296-269-809V0H581v3500h578v-544q207 316 486 472 280 156 646 156 603 0 912-373 310-373 310-1098z" transform="scale(.01563)"/></defs><use xlink:href="#DejaVuSans-6e"/><use xlink:href="#DejaVuSans-65" x="63.379"/><use xlink:href="#DejaVuSans-6f" x="124.902"/><use xlink:href="#DejaVuSans-76" x="186.084"/><use xlink:href="#DejaVuSans-69" x="245.264"/><use xlink:href="#DejaVuSans-6d" x="273.047"/></g><g style="fill:#d62728" transform="matrix(.14 0 0 -.14 399.849 327.273)" id="text_16"><use xlink:href="#DejaVuSans-65"/><use xlink:href="#DejaVuSans-6d" x="61.523"/><use xlink:href="#DejaVuSans-61" x="158.936"/><use xlink:href="#DejaVuSans-63" x="220.215"/><use xlink:href="#DejaVuSans-73" x="275.195"/></g><g style="fill:#9467bd" transform="matrix(.14 0 0 -.14 399.849 341.273)" id="text_17"><defs><path id="DejaVuSans-72" d="M2631 2963q-97 56-211 82-114 27-251 27-488 0-749-317t-261-911V0H581v3500h578v-544q182 319 472 473 291 155 707 155 59 0 131-8 72-7 159-23l3-590z" transform="scale(.01563)"/></defs><use xlink:href="#DejaVuSans-61"/><use xlink:href="#DejaVuSans-74" x="61.279"/><use xlink:href="#DejaVuSans-6f" x="100.488"/><use xlink:href="#DejaVuSans-6d" x="161.67"/><use xlink:href="#DejaVuSans-2d" x="259.082"/><use xlink:href="#DejaVuSans-65" x="295.166"/><use xlink:href="#DejaVuSans-64" x="356.689"/><use xlink:href="#DejaVuSans-69" x="420.166"/><use xlink:href="#DejaVuSans-74" x="447.949"/><use xlink:href="#DejaVuSans-6f" x="487.158"/><use xlink:href="#DejaVuSans-72" x="548.34"/></g><g style="fill:#b0b0b0" transform="matrix(.09716 0 0 -.09716 32.015 357.986)" id="text_18"><defs><path id="DejaVuSans-40" d="M2381 1678q0-447 222-702 222-254 610-254 384 0 604 256 221 256 221 700 0 438-225 695-225 258-607 258-378 0-602-256-223-256-223-697zm1703-934q-187-241-429-355t-564-114q-538 0-874 389t-336 1014q0 625 337 1015 338 391 873 391 322 0 565-117 244-117 428-354v409h447V722q457 69 714 417 258 349 258 902 0 334-99 628-98 294-298 544-325 409-792 626t-1017 217q-384 0-738-102-353-101-653-301-490-319-767-836-276-517-276-1120 0-497 179-932 180-434 521-765 328-325 759-495 431-171 922-171 403 0 792 136t714 389l281-347q-390-303-851-464t-936-161q-578 0-1091 205-512 205-912 595Q841 78 631 592q-209 514-209 1105 0 569 212 1084 213 516 607 907 403 396 931 607t1119 211q662 0 1229-272 568-271 952-771 234-307 357-666 124-359 124-744 0-822-497-1297T4084 263v481z" transform="scale(.01563)"/><path id="DejaVuSans-68" d="M3513 2113V0h-575v2094q0 497-194 743-194 247-581 247-466 0-735-297-269-296-269-809V0H581v4863h578V2956q207 316 486 472 280 156 646 156 603 0 912-373 310-373 310-1098z" transform="scale(.01563)"/><path id="DejaVuSans-2f" d="M1625 4666h531L531-594H0l1625 5260z" transform="scale(.01563)"/><path id="DejaVuSans-7c" d="M1344 4891v-6400H813v6400h531z" transform="scale(.01563)"/><path id="DejaVuSans-4e" d="M628 4666h850L3547 763v3903h612V0h-850L1241 3903V0H628v4666z" transform="scale(.01563)"/><path id="DejaVuSans-53" d="M3425 4513v-616q-359 172-678 256-319 85-616 85-515 0-795-200t-280-569q0-310 186-468 186-157 705-254l381-78q706-135 1042-474t336-907q0-679-455-1029Q2797-91 1919-91q-331 0-705 75-373 75-773 222v650q384-215 753-325 369-109 725-109 540 0 834 212 294 213 294 607 0 343-211 537t-692 291l-385 75q-706 140-1022 440-315 300-315 835 0 619 436 975t1201 356q329 0 669-60 341-59 697-177z" transform="scale(.01563)"/><path id="DejaVuSans-f6" d="M1959 3097q-462 0-731-361t-269-989q0-628 267-989 268-361 733-361 460 0 728 362 269 363 269 988 0 622-269 986-268 364-728 364zm0 487q750 0 1178-488 429-487 429-1349 0-859-429-1349Q2709-91 1959-91q-753 0-1180 489-426 490-426 1349 0 862 426 1349 427 488 1180 488zm295 1266h634v-631h-634v631zm-1222 0h634v-631h-634v631z" transform="scale(.01563)"/><path id="DejaVuSans-43" d="M4122 4306v-665q-319 297-680 443-361 147-767 147-800 0-1225-489t-425-1414q0-922 425-1411t1225-489q406 0 767 147t680 444V359q-331-225-702-338-370-112-782-112-1060 0-1670 648-609 649-609 1771 0 1125 609 1773 610 649 1670 649 418 0 788-111 371-111 696-333z" transform="scale(.01563)"/><path id="DejaVuSans-42" d="M1259 2228V519h1013q509 0 754 211 246 211 246 645 0 438-246 645-245 208-754 208H1259zm0 1919V2741h935q462 0 688 173 227 174 227 530 0 353-227 528-226 175-688 175h-935zm-631 519h1613q722 0 1112-300 391-300 391-853 0-429-200-682t-588-315q466-100 724-418 258-317 258-792 0-625-425-966Q3088 0 2303 0H628v4666z" transform="scale(.01563)"/><path id="DejaVuSans-59" d="M-13 4666h679l1293-1919 1285 1919h678L2272 2222V0h-634v2222L-13 4666z" transform="scale(.01563)"/></defs><use xlink:href="#DejaVuSans-40"/><use xlink:href="#DejaVuSans-6e" x="100"/><use xlink:href="#DejaVuSans-73" x="163.379"/><use xlink:href="#DejaVuSans-63" x="215.479"/><use xlink:href="#DejaVuSans-68" x="270.459"/><use xlink:href="#DejaVuSans-6c" x="333.838"/><use xlink:href="#DejaVuSans-6f" x="361.621"/><use xlink:href="#DejaVuSans-65" x="422.803"/><use xlink:href="#DejaVuSans-20" x="484.326"/><use xlink:href="#DejaVuSans-2f" x="516.113"/><use xlink:href="#DejaVuSans-20" x="549.805"/><use xlink:href="#DejaVuSans-73" x="581.592"/><use xlink:href="#DejaVuSans-6f" x="633.691"/><use xlink:href="#DejaVuSans-2d" x="696.748"/><use xlink:href="#DejaVuSans-74" x="732.832"/><use xlink:href="#DejaVuSans-72" x="772.041"/><use xlink:href="#DejaVuSans-65" x="810.904"/><use xlink:href="#DejaVuSans-6e" x="872.428"/><use xlink:href="#DejaVuSans-64" x="935.807"/><use xlink:href="#DejaVuSans-73" x="999.283"/><use xlink:href="#DejaVuSans-20" x="1051.383"/><use xlink:href="#DejaVuSans-7c" x="1083.17"/><use xlink:href="#DejaVuSans-20" x="1116.861"/><use xlink:href="#DejaVuSans-4e" x="1148.648"/><use xlink:href="#DejaVuSans-69" x="1223.453"/><use xlink:href="#DejaVuSans-63" x="1251.236"/><use xlink:href="#DejaVuSans-6f" x="1306.217"/><use xlink:href="#DejaVuSans-20" x="1367.398"/><use xlink:href="#DejaVuSans-53" x="1399.186"/><use xlink:href="#DejaVuSans-63" x="1462.662"/><use xlink:href="#DejaVuSans-68" x="1517.643"/><use xlink:href="#DejaVuSans-6c" x="1581.021"/><use xlink:href="#DejaVuSans-f6" x="1608.805"/><use xlink:href="#DejaVuSans-6d" x="1669.986"/><use xlink:href="#DejaVuSans-65" x="1767.398"/><use xlink:href="#DejaVuSans-72" x="1828.922"/><use xlink:href="#DejaVuSans-20" x="1870.035"/><use xlink:href="#DejaVuSans-7c" x="1901.822"/><use xlink:href="#DejaVuSans-20" x="1935.514"/><use xlink:href="#DejaVuSans-43" x="1967.301"/><use xlink:href="#DejaVuSans-43" x="2037.125"/><use xlink:href="#DejaVuSans-20" x="2106.949"/><use xlink:href="#DejaVuSans-42" x="2138.736"/><use xlink:href="#DejaVuSans-59" x="2201.84"/></g><g style="fill:#b0b0b0" transform="matrix(.14 0 0 -.14 54.43 17.838)" id="text_19"><defs><path id="DejaVuSans-44" d="M1259 4147V519h763q966 0 1414 437 448 438 448 1382 0 937-448 1373t-1414 436h-763zm-631 519h1297q1356 0 1990-564 635-564 635-1764 0-1207-638-1773Q3275 0 1925 0H628v4666z" transform="scale(.01563)"/><path id="DejaVuSans-79" d="M2059-325q-243-625-475-815-231-191-618-191H506v481h338q237 0 368 113 132 112 291 531l103 262L191 3500h609L1894 763l1094 2737h609L2059-325z" transform="scale(.01563)"/><path id="DejaVuSans-62" d="M3116 1747q0 634-261 995t-717 361q-457 0-718-361t-261-995q0-634 261-995t718-361q456 0 717 361t261 995zM1159 2969q182 312 458 463 277 152 661 152 638 0 1036-506 399-506 399-1331T3314 415Q2916-91 2278-91q-384 0-661 152-276 152-458 464V0H581v4863h578V2969z" transform="scale(.01563)"/><path id="DejaVuSans-66" d="M2375 4863v-479h-550q-309 0-430-125-120-125-120-450v-309h947v-447h-947V0H697v3053H147v447h550v244q0 584 272 851 272 268 862 268h544z" transform="scale(.01563)"/><path id="DejaVuSans-71" d="M947 1747q0-634 261-995t717-361q456 0 718 361 263 361 263 995t-263 995q-262 361-718 361t-717-361q-261-361-261-995zM2906 525q-181-312-458-464-276-152-664-152-634 0-1033 506-398 507-398 1332t398 1331q399 506 1033 506 388 0 664-152 277-151 458-463v531h575v-4831h-575V525z" transform="scale(.01563)"/><path id="DejaVuSans-6b" d="M581 4863h578V1991l1716 1509h734L1753 1863 3688 0h-750L1159 1709V0H581v4863z" transform="scale(.01563)"/><path id="DejaVuSans-4f" d="M2522 4238q-688 0-1093-513-404-512-404-1397 0-881 404-1394 405-512 1093-512 687 0 1089 512 402 513 402 1394 0 885-402 1397-402 513-1089 513zm0 512q981 0 1568-658 588-658 588-1764 0-1103-588-1761Q3503-91 2522-91q-984 0-1574 656-589 657-589 1763t589 1764q590 658 1574 658z" transform="scale(.01563)"/><path id="DejaVuSans-77" d="M269 3500h575l719-2731 715 2731h678l719-2731 716 2731h575L4050 0h-678l-753 2869L1863 0h-679L269 3500z" transform="scale(.01563)"/></defs><use xlink:href="#DejaVuSans-44"/><use xlink:href="#DejaVuSans-61" x="77.002"/><use xlink:href="#DejaVuSans-69" x="138.281"/><use xlink:href="#DejaVuSans-6c" x="166.064"/><use xlink:href="#DejaVuSans-79" x="193.848"/><use xlink:href="#DejaVuSans-20" x="253.027"/><use xlink:href="#DejaVuSans-6e" x="284.814"/><use xlink:href="#DejaVuSans-75" x="348.193"/><use xlink:href="#DejaVuSans-6d" x="411.572"/><use xlink:href="#DejaVuSans-62" x="508.984"/><use xlink:href="#DejaVuSans-65" x="572.461"/><use xlink:href="#DejaVuSans-72" x="633.984"/><use xlink:href="#DejaVuSans-20" x="675.098"/><use xlink:href="#DejaVuSans-6f" x="706.885"/><use xlink:href="#DejaVuSans-66" x="768.066"/><use xlink:href="#DejaVuSans-20" x="803.271"/><use xlink:href="#DejaVuSans-71" x="835.059"/><use xlink:href="#DejaVuSans-75" x="898.535"/><use xlink:href="#DejaVuSans-65" x="961.914"/><use xlink:href="#DejaVuSans-73" x="1023.438"/><use xlink:href="#DejaVuSans-74" x="1075.537"/><use xlink:href="#DejaVuSans-69" x="1114.746"/><use xlink:href="#DejaVuSans-6f" x="1142.529"/><use xlink:href="#DejaVuSans-6e" x="1203.711"/><use xlink:href="#DejaVuSans-73" x="1267.09"/><use xlink:href="#DejaVuSans-20" x="1319.189"/><use xlink:href="#DejaVuSans-6f" x="1350.977"/><use xlink:href="#DejaVuSans-6e" x="1412.158"/><use xlink:href="#DejaVuSans-20" x="1475.537"/><use xlink:href="#DejaVuSans-53" x="1507.324"/><use xlink:href="#DejaVuSans-74" x="1570.801"/><use xlink:href="#DejaVuSans-61" x="1610.01"/><use xlink:href="#DejaVuSans-63" x="1671.289"/><use xlink:href="#DejaVuSans-6b" x="1726.27"/><use xlink:href="#DejaVuSans-4f" x="1784.18"/><use xlink:href="#DejaVuSans-76" x="1862.891"/><use xlink:href="#DejaVuSans-65" x="1922.07"/><use xlink:href="#DejaVuSans-72" x="1983.594"/><use xlink:href="#DejaVuSans-66" x="2024.707"/><use xlink:href="#DejaVuSans-6c" x="2059.912"/><use xlink:href="#DejaVuSans-6f" x="2087.695"/><use xlink:href="#DejaVuSans-77" x="2148.877"/></g><path d="m32.015 307.406 1.684 9.822 2.186-.412 2.185 2.047 2.222-1.817 2.114-5.366 2.114-.448 2.185-3.99 2.186-.37 2.186 3.936 2.185-1.574 2.222-2.544 2.185 1.49 2.186-6.577 2.186 4.137 2.185-.685 2.222-6.358 2.114 1.92 2.114-3.555 4.371 11.264 2.186-8.97 2.185 1.702 2.222.364 2.186-7.51 2.185 3.876 2.186-1.81 2.185-4.548 2.222-9.084 2.114 5.8 2.114-3.984 2.186-2.828 2.185 3.737 2.186 1.708 2.185 9.92 2.222-17.442 2.186-2.053 2.185 1.508 2.186 5.25 2.186-9.428 2.221 1.816 2.15-4.253 2.15-.834 2.185 8.194 2.186-1.835 2.186 2.023 2.185-8.745 2.222-2.907 2.185 8.085 2.186 6.631 2.186-16.957 2.185 15.504 2.222-7.45 2.114-9.596 2.114 2.33 2.185 1.09 2.186-1.999 2.186 16.079 2.185-11.537 2.222-3.088 2.185 4.112 2.186-1.932 2.186 2.683 2.185 3.312 2.222-7.085 2.114 1.869 4.3-4.48 2.185 10.968 2.186 1.986 2.185-8.163 2.222 4.36 2.185-.89 2.186-2.017 4.371 10.538 2.222-11.264 2.114-3.854 2.114 12.03 2.186 5.08 2.185-2.356 2.186 7.613 2.185-7.25 2.222.91 2.186-2.296 2.185 3.203 2.186-1.138 2.185 4.772 2.222-2.907 2.15.025 2.15 3.427 2.185.127 2.186 2.962 2.186-1.46 2.185 2.55 2.222 4.178 2.185-3.724 2.186-2.998 2.186.933 2.185 4.88 2.222-2.906 2.114-1.92 2.114 1.375 2.185 4.766 2.186.32 2.186-2.01 2.185-7.618 2.222 13.08 2.185-9.78 2.186 8.872 2.186.327 2.185 4.034 2.222-3.997 2.114-2.128 2.114.311 2.185 3.47 2.186 1.799 2.186-.86 2.185-3.682 2.222 2.361 2.185.57 2.186-1.841 2.186 2.404 2.185-.95 2.222-.364 2.114-4.224 2.114 5.496 2.185 3.233 2.186 2.399 2.186 1.544 2.185-2.09 2.222-.363 4.371-3.452 2.186-3.67 2.185 6.577 2.222-6.54 2.15-.27 2.15.27 2.185-15.618 2.186-2.732 2.185 6.862 2.186 5.856 2.222-.909 2.185 4.627 2.186-3.173 2.186 11.058 2.185-3.246 2.222-5.269 4.228 3.634 2.185-2.816 2.186 7.358 2.186-.412 2.185 2.047 2.222 3.815 2.185-5.111 2.186 6.02 2.186-1.14 2.185-1.586 2.222 4.36 2.114-5.093 2.114.37 2.185.824 2.186 2.083h0" clip-path="url(#pcf233613a8)" style="fill:none;stroke:#ff7f0e;stroke-width:1.5;stroke-linecap:square" id="line2d_21"/><path d="m153.587 323.95 2.186-.188 2.185.006 2.222.182h6.557l2.185-.182 2.222.182h30.384l2.186-16.52 2.185-13.639 2.186 17.956 2.185 1.302 2.222 2.18 2.186.836 2.185-4.47 2.186-2.664 2.185-3.149 2.222.363 2.15 2.074 2.15-6.252 2.185-4.863 2.186 4.681 2.186-2.804 2.185-3.01 2.222 2.18 2.185-5.365 2.186-3.9 2.186-.793 2.185 1.883 2.222-5.814 2.114-10.297 2.114-4.782 2.185 2.677 2.186 1.32 2.186-3.197 2.185-4.978 2.222-5.269 2.185 1.235 2.186 3.852 2.186-6.48 2.185 13.747 2.222-10.719 2.114-14.158 2.114.35 2.185-6.491 2.186 7.4 2.186-9.278 2.185-6.165 2.222 7.994 2.185 2.865 2.186-11.949 2.186 7.255 2.185 3.828 2.222-7.994 2.114-9.94 2.114-2.05 2.185 4.141 2.186-18.494 2.186 6.104 2.185-18.458 2.222 8.357 2.186-15.055 2.185-5.111 2.186-4.276 2.185 8.09 2.222-13.988 2.15 3.076 2.15-33.598 2.185-49.186 2.186-9.314 2.185 1.053 2.186 14.026 2.222 15.806 2.185-2.798 2.186 4.433 2.186-3.87 2.185 15.679 2.222-26.707 2.114-17.051 2.114-1.116 2.185 7.23 2.186 10.756 2.186-20.33 2.185 36.317 2.222-41.604 2.185 4.536 2.186 23.988 2.186-22.862 2.185 19.955 2.222-16.715 2.114-28.114 2.114 3.225 2.185 24.653 2.186-2.489" clip-path="url(#pcf233613a8)" style="fill:none;stroke:#1f77b4;stroke-width:1.5;stroke-linecap:square" id="line2d_22"/></g></g><defs><clipPath id="pcf233613a8"><path d="M32.015 57.838h357.12V323.95H32.015z"/></clipPath></defs></svg>