<svg xmlns="http://www.w3.org/2000/svg" xmlns:xlink="http://www.w3.org/1999/xlink" width="672.964" height="489.969" viewBox="0 0 504.723 367.477"><defs><style>*{stroke-linejoin:round;stroke-linecap:butt}</style></defs><g id="figure_1"><path id="patch_1" d="M0 367.477h504.723V0H0v367.477z" style="fill:none"/><g id="axes_1"><path id="patch_2" d="M40.922 323.95h357.12V57.838H40.923V323.95z" style="fill:none"/><g id="matplotlib.axis_1"><g id="xtick_1"><g id="line2d_1"><defs><path id="m94c9043509" d="M0 0v3.5" style="stroke:#b0b0b0;stroke-width:.4"/></defs><use xlink:href="#m94c9043509" x="73.061" y="323.95" style="fill:#b0b0b0;stroke:#b0b0b0;stroke-width:.4"/></g><g id="text_1" style="fill:#b0b0b0" transform="matrix(.14 0 0 -.14 55.246 341.588)"><defs><path id="DejaVuSans-32" d="M1228 531h2203V0H469v531q359 372 979 998 621 627 780 809 303 340 423 576 121 236 121 464 0 372-261 606-261 235-680 235-297 0-627-103-329-103-704-313v638q381 153 712 231 332 78 607 78 725 0 1156-363 431-362 431-968 0-288-108-546-107-257-392-607-78-91-497-524-418-433-1181-1211z" transform="scale(.01563)"/><path id="DejaVuSans-30" d="M2034 4250q-487 0-733-480-245-479-245-1442 0-959 245-1439 246-480 733-480 491 0 736 480 246 480 246 1439 0 963-246 1442-245 480-736 480zm0 500q785 0 1199-621 414-620 414-1801 0-1178-414-1799Q2819-91 2034-91q-784 0-1198 620-414 621-414 1799 0 1181 414 1801 414 621 1198 621z" transform="scale(.01563)"/><path id="DejaVuSans-31" d="M794 531h1031v3560L703 3866v575l1116 225h631V531h1031V0H794v531z" transform="scale(.01563)"/></defs><use xlink:href="#DejaVuSans-32"/><use xlink:href="#DejaVuSans-30" x="63.623"/><use xlink:href="#DejaVuSans-31" x="127.246"/><use xlink:href="#DejaVuSans-30" x="190.869"/></g></g><g id="xtick_2"><use xlink:href="#m94c9043509" id="line2d_2" x="123.516" y="323.95" style="fill:#b0b0b0;stroke:#b0b0b0;stroke-width:.4"/><g id="text_2" style="fill:#b0b0b0" transform="matrix(.14 0 0 -.14 105.7 341.588)"><use xlink:href="#DejaVuSans-32"/><use xlink:href="#DejaVuSans-30" x="63.623"/><use xlink:href="#DejaVuSans-31" x="127.246"/><use xlink:href="#DejaVuSans-32" x="190.869"/></g></g><g id="xtick_3"><use xlink:href="#m94c9043509" id="line2d_3" x="174.039" y="323.95" style="fill:#b0b0b0;stroke:#b0b0b0;stroke-width:.4"/><g id="text_3" style="fill:#b0b0b0" transform="matrix(.14 0 0 -.14 156.224 341.588)"><defs><path id="DejaVuSans-34" d="M2419 4116 825 1625h1594v2491zm-166 550h794V1625h666v-525h-666V0h-628v1100H313v609l1940 2957z" transform="scale(.01563)"/></defs><use xlink:href="#DejaVuSans-32"/><use xlink:href="#DejaVuSans-30" x="63.623"/><use xlink:href="#DejaVuSans-31" x="127.246"/><use xlink:href="#DejaVuSans-34" x="190.869"/></g></g><g id="xtick_4"><use xlink:href="#m94c9043509" id="line2d_4" x="224.493" y="323.95" style="fill:#b0b0b0;stroke:#b0b0b0;stroke-width:.4"/><g id="text_4" style="fill:#b0b0b0" transform="matrix(.14 0 0 -.14 206.678 341.588)"><defs><path id="DejaVuSans-36" d="M2113 2584q-425 0-674-291-248-290-248-796 0-503 248-796 249-292 674-292t673 292q248 293 248 796 0 506-248 796-248 291-673 291zm1253 1979v-575q-238 112-480 171-242 60-480 60-625 0-955-422-329-422-376-1275 184 272 462 417 279 145 613 145 703 0 1111-427 408-426 408-1160 0-719-425-1154Q2819-91 2113-91q-810 0-1238 620-428 621-428 1799 0 1106 525 1764t1409 658q238 0 480-47t505-140z" transform="scale(.01563)"/></defs><use xlink:href="#DejaVuSans-32"/><use xlink:href="#DejaVuSans-30" x="63.623"/><use xlink:href="#DejaVuSans-31" x="127.246"/><use xlink:href="#DejaVuSans-36" x="190.869"/></g></g><g id="xtick_5"><use xlink:href="#m94c9043509" id="line2d_5" x="275.017" y="323.95" style="fill:#b0b0b0;stroke:#b0b0b0;stroke-width:.4"/><g id="text_5" style="fill:#b0b0b0" transform="matrix(.14 0 0 -.14 257.202 341.588)"><defs><path id="DejaVuSans-38" d="M2034 2216q-450 0-708-241-257-241-257-662 0-422 257-663 258-241 708-241t709 242q260 243 260 662 0 421-258 662-257 241-711 241zm-631 268q-406 100-633 378-226 279-226 679 0 559 398 884 399 325 1092 325 697 0 1094-325t397-884q0-400-227-679-226-278-629-378 456-106 710-416 255-309 255-755 0-679-414-1042Q2806-91 2034-91q-771 0-1186 362-414 363-414 1042 0 446 256 755 257 310 713 416zm-231 997q0-362 226-565 227-203 636-203 407 0 636 203 230 203 230 565 0 363-230 566-229 203-636 203-409 0-636-203-226-203-226-566z" transform="scale(.01563)"/></defs><use xlink:href="#DejaVuSans-32"/><use xlink:href="#DejaVuSans-30" x="63.623"/><use xlink:href="#DejaVuSans-31" x="127.246"/><use xlink:href="#DejaVuSans-38" x="190.869"/></g></g><g id="xtick_6"><use xlink:href="#m94c9043509" id="line2d_6" x="325.471" y="323.95" style="fill:#b0b0b0;stroke:#b0b0b0;stroke-width:.4"/><g id="text_6" style="fill:#b0b0b0" transform="matrix(.14 0 0 -.14 307.656 341.588)"><use xlink:href="#DejaVuSans-32"/><use xlink:href="#DejaVuSans-30" x="63.623"/><use xlink:href="#DejaVuSans-32" x="127.246"/><use xlink:href="#DejaVuSans-30" x="190.869"/></g></g><g id="xtick_7"><use xlink:href="#m94c9043509" id="line2d_7" x="375.995" y="323.95" style="fill:#b0b0b0;stroke:#b0b0b0;stroke-width:.4"/><g id="text_7" style="fill:#b0b0b0" transform="matrix(.14 0 0 -.14 358.18 341.588)"><use xlink:href="#DejaVuSans-32"/><use xlink:href="#DejaVuSans-30" x="63.623"/><use xlink:href="#DejaVuSans-32" x="127.246"/><use xlink:href="#DejaVuSans-32" x="190.869"/></g></g></g><g id="matplotlib.axis_2"><g id="ytick_1"><path id="line2d_8" d="M40.922 323.95h357.12" clip-path="url(#p8a0820698d)" style="fill:none;stroke:#b0b0b0;stroke-width:.3;stroke-linecap:square"/><g id="line2d_9"><defs><path id="m3e8876376a" d="M0 0h-3.5" style="stroke:#b0b0b0;stroke-width:.3"/></defs><use xlink:href="#m3e8876376a" x="40.922" y="323.95" style="fill:#b0b0b0;stroke:#b0b0b0;stroke-width:.3"/></g><use xlink:href="#DejaVuSans-30" id="text_8" style="fill:#b0b0b0" transform="matrix(.14 0 0 -.14 25.015 329.269)"/></g><g id="ytick_2"><path id="line2d_10" d="M40.922 271.797h357.12" clip-path="url(#p8a0820698d)" style="fill:none;stroke:#b0b0b0;stroke-width:.3;stroke-linecap:square"/><use xlink:href="#m3e8876376a" id="line2d_11" x="40.922" y="271.797" style="fill:#b0b0b0;stroke:#b0b0b0;stroke-width:.3"/><g id="text_9" style="fill:#b0b0b0" transform="matrix(.14 0 0 -.14 16.108 277.116)"><defs><path id="DejaVuSans-35" d="M691 4666h2478v-532H1269V2991q137 47 274 70 138 23 276 23 781 0 1237-428 457-428 457-1159 0-753-469-1171Q2575-91 1722-91q-294 0-599 50Q819 9 494 109v635q281-153 581-228t634-75q541 0 856 284 316 284 316 772 0 487-316 771-315 285-856 285-253 0-505-56-251-56-513-175v2344z" transform="scale(.01563)"/></defs><use xlink:href="#DejaVuSans-35"/><use xlink:href="#DejaVuSans-30" x="63.623"/></g></g><g id="ytick_3"><path id="line2d_12" d="M40.922 219.645h357.12" clip-path="url(#p8a0820698d)" style="fill:none;stroke:#b0b0b0;stroke-width:.3;stroke-linecap:square"/><use xlink:href="#m3e8876376a" id="line2d_13" x="40.922" y="219.645" style="fill:#b0b0b0;stroke:#b0b0b0;stroke-width:.3"/><g id="text_10" style="fill:#b0b0b0" transform="matrix(.14 0 0 -.14 7.2 224.964)"><use xlink:href="#DejaVuSans-31"/><use xlink:href="#DejaVuSans-30" x="63.623"/><use xlink:href="#DejaVuSans-30" x="127.246"/></g></g><g id="ytick_4"><path id="line2d_14" d="M40.922 167.493h357.12" clip-path="url(#p8a0820698d)" style="fill:none;stroke:#b0b0b0;stroke-width:.3;stroke-linecap:square"/><use xlink:href="#m3e8876376a" id="line2d_15" x="40.922" y="167.493" style="fill:#b0b0b0;stroke:#b0b0b0;stroke-width:.3"/><g id="text_11" style="fill:#b0b0b0" transform="matrix(.14 0 0 -.14 7.2 172.811)"><use xlink:href="#DejaVuSans-31"/><use xlink:href="#DejaVuSans-35" x="63.623"/><use xlink:href="#DejaVuSans-30" x="127.246"/></g></g><g id="ytick_5"><path id="line2d_16" d="M40.922 115.34h357.12" clip-path="url(#p8a0820698d)" style="fill:none;stroke:#b0b0b0;stroke-width:.3;stroke-linecap:square"/><use xlink:href="#m3e8876376a" id="line2d_17" x="40.922" y="115.34" style="fill:#b0b0b0;stroke:#b0b0b0;stroke-width:.3"/><g id="text_12" style="fill:#b0b0b0" transform="matrix(.14 0 0 -.14 7.2 120.659)"><use xlink:href="#DejaVuSans-32"/><use xlink:href="#DejaVuSans-30" x="63.623"/><use xlink:href="#DejaVuSans-30" x="127.246"/></g></g><g id="ytick_6"><path id="line2d_18" d="M40.922 63.188h357.12" clip-path="url(#p8a0820698d)" style="fill:none;stroke:#b0b0b0;stroke-width:.3;stroke-linecap:square"/><use xlink:href="#m3e8876376a" id="line2d_19" x="40.922" y="63.188" style="fill:#b0b0b0;stroke:#b0b0b0;stroke-width:.3"/><g id="text_13" style="fill:#b0b0b0" transform="matrix(.14 0 0 -.14 7.2 68.507)"><use xlink:href="#DejaVuSans-32"/><use xlink:href="#DejaVuSans-35" x="63.623"/><use xlink:href="#DejaVuSans-30" x="127.246"/></g></g></g><path id="line2d_20" d="M40.922 323.95h3.733l52.562-.101 4.182-.234 2.039-.64 2.108-.103 4.216-1.46 2.108.014 2.142-1.951 2.108-1.54 2.108.396 2.108-2.76 2.108-.672 2.143-2.557 2.073-.837 2.074-1.451 4.216-.976 2.108.026 2.108-3.996h2.142l2.108-1.498 2.109 2.238 2.108-.847 2.108 4.582 2.142-4.745 2.04-1.377 2.038-2.223 2.108 1.503 2.108.953 2.108.23 2.108-5.983 2.143 3.634 2.108-1.58 2.108-2.828 2.108 1.332 2.108 1.864 2.142-6.628 2.04 1.643 2.038-.566 2.108.454 2.108 3.112 2.108-2.208 2.108-.315 2.143 3.465 2.108-3.393 2.108 1.711 2.108.131 2.108.878 2.142-3.263 2.04-2.018 2.038.941 2.108-.71 2.108 1.417 2.108-2.32 2.108.402 2.143.269 2.108 1.97 2.108.688 2.108-1.035 2.108.8 4.216-10.035 2.074 7.208 2.108-.58 2.108 3.541 2.108-.17 2.108 2.963 2.142-.337 2.108.886 2.108 1.066 2.108-2.422 2.108 1.278 2.143.1 2.039-2.493 2.039-.097 2.108 3.577 2.108-4.183 2.108 4.46 2.108.587 2.142-4.138 2.108 3.343 2.108 2.68 2.109-1.046 2.108 3.064 2.142-2.254 2.039.899 2.039 2.432 2.108.9 2.108-.698 2.108.63 2.108.85 2.143.404 2.108-.038 2.108.711 2.108-.12 2.108 2.072 2.142-1.784 2.04-2.453 2.038 1.848 2.108-.378 2.108 3.07 6.359 3.162 2.108-2.825 2.108.941 2.108-.385 2.108 2 2.142-.606 2.074-.762 2.073.661 2.108-1.223 2.108-.055 2.108 1.098 2.109-.223 2.142.975 2.108.082 2.108 2.711 2.108-1.633 2.108-1.328 2.143.236 2.039-1.48 2.039.168 2.108 1.083 2.108.868 2.108 1.253 2.108-.48 2.142-.268 2.108 1.443 2.108.777 2.108-2.307 2.108 1.264 2.143-1.043 2.039-.002 2.039-.94 2.108-.739 2.108-.203 2.108 1.733 2.108-.993 2.142-1.144 2.108-.401 2.108.704 2.108 1.66h0" clip-path="url(#p8a0820698d)" style="fill:none;stroke:#bcbd22;stroke-width:1.5;stroke-linecap:square"/><path id="line2d_21" d="m82.426 323.95 6.359-.135 2.108-.282 2.108.148 6.359.134 2.039-.461 2.039.26 2.108.023 2.108-.158 2.108.088 4.25-.492 2.108.11 2.108-.278 6.359.134 2.073-.53 2.074-.143 2.108.122 2.108-.458 2.108-.898 2.108.259 2.142-.875 2.108.755 2.109.254 2.108-1.68 2.108-.002 2.142-1.178 2.04.18 2.038.93 2.108-1.042 2.108.134 2.108-.621 2.108-1.162 2.143.437 2.108 1.35 2.108-1.922 2.108.914 2.108.13 2.142-.976 2.04-2.68 2.038.93 2.108-.15 2.108 1.328 2.108-1.676 2.108.565 2.143.942 2.108.544 2.108-.746 2.108.225 2.108-.325 4.181-2.83 4.147.06 2.108.38 2.108-2.987 2.108.128 2.143 1.043 2.108.776 2.108.401 2.108 1.163 2.108-.826 2.143-2.12 6.255 2.703 2.108-1.222 2.108 1.083 2.108-1.252 2.142 2.086 2.108.348 2.108-.886 2.108-3.356 2.108-.278 2.143.976 2.039-.752 2.039-1.94 2.108 3.49 2.108-1.437 2.108-2.145 2.108 2.178 2.142-.572 2.108.272 2.108 1.242 2.109-.582 2.108 1.592 2.142-1.043 2.039-2.694 2.039-.234 2.108-3.288 2.108 1.673 2.108-.734 2.108-1.79 2.143-1.076 2.108 2.414 2.108.009 2.108-4.25 2.108.75 2.142 2.625 2.04-2.022 2.038-.165 2.108-1.815 2.108-1.516 2.108 4.993 2.108-10.982 2.143 2.59 2.108 1.09 2.108-3.916 2.108-1.229 2.108 2.979 2.142-1.615 4.147-6.864 2.108-12.962 2.108-3.357 2.108-3.075 2.109 5.599 2.142 9.69 2.108 5.641 2.108 3.275 2.108 6.078 2.108 2.368 2.143-9.59 2.039-1.261 2.039 1.43 2.108-1.5 2.108-.553 2.108-3.237 2.108 7.208 2.142 5.921 2.108-.021 2.108 2.343 2.108-4.43 2.108 5.81 2.143-1.212 2.039-5.091 2.039 2.164 2.108-3.304 2.108 2.093 2.108 9.102 2.108-6.276 2.142.942 2.108 2.379 2.108 1.827 2.108-2.94h0" clip-path="url(#p8a0820698d)" style="fill:none;stroke:#7f7f7f;stroke-width:1.5;stroke-linecap:square"/><path id="line2d_22" d="m40.922 311.303 1.625 5.009 2.108 1.901 2.108-.084 2.142-3.13 2.04-.81 2.038-2.487 2.108-.964 2.108-4.385 2.108-3.403 2.108-1.14 2.143-2.288 2.108-.188 2.108-1.629 2.108-1.987 2.108-.435 2.143-6.864 2.038-4.105 2.04.202 2.107-.62 2.108-3.552 2.108-3.262 2.108-2.896 2.143-1.076 2.108-6.215 2.108-8.287 2.108-.266 2.108-1.517 2.143-9.422 2.039-11.293 2.039-8.928 2.108 10.334 2.108-.745 2.108-.472 2.108.338 2.142-9.556 2.108 5.046 2.108 3.87 2.108-4.253 2.108 9.166 4.216-25.797 2.074-2.87 2.108 3.473 2.108.53 2.108 1.521 2.108-9.831 2.142 2.49 2.108 13.426 2.109-11.542 2.108-.418 2.108 12.463 2.142-16.924 2.04-7.455 2.038-4.22 2.108.594 2.108 9.836 2.108-.414 2.108-10.992 2.143-8.883 2.108 3.013 2.108-2.575 2.108 8.937 2.108 4.387 2.142-12.584 2.04-6.246 2.038 1.199 2.108 5.387 4.216 11.786 2.108-2.268 2.143 8.143 2.108 12.587 2.108.232 2.108-1.588 2.108 6.602 2.142-6.73 2.04-7.97 2.038-2.83 4.216-.808 2.108-8.36 2.108-1.095 2.143 7.672 2.108 6.53 2.108 5.886 2.108 4.893 2.108 2.004 2.143-11.54 2.073-5.16 2.074 5.496 2.108-6.863 2.108 17.798 2.108-5.942 2.108 10.35 2.142.504 2.108 3.019 2.108 10.777 2.108-1.633 2.108 7.588 2.143-5.888 2.039-1.666 2.039 1.7 2.108 10.99 2.108-1.166 2.108 3.288 2.108-.327 2.142 4.543 2.108 7.361 2.108-2.516 2.109 2.551 2.108 8.182 2.142-6.999 2.039 2.679 2.039-1.77 2.108 2.08 2.108 3.202 2.108 2.361 2.108 1.913 2.143-2.086 2.108 2.329 2.108-5.795 2.108 6.42 2.108 4.549 2.142-10.767 2.04 2.37 2.038 1.365 2.108 4.779 2.108 2.69 2.108 1.412 2.108-2.556 2.143 2.019 2.108-1.166 2.108.426 2.108-.079 2.108 3.275 2.142-4.441 2.074 3.204 2.073-3.238 2.108-6.97 2.108 5.826 2.108 5.126 2.109-2.165 2.142 7.2 2.108 3.448 2.108-.554 2.108 1.11 2.108.707 2.143-4.811 2.039.156 2.039 2.939 2.108-3.128 2.108 5.349 2.108.84 2.108 1.078 2.142.84 2.108-.388 2.108 2.441 2.108-.46 2.108 2.344 2.143-2.422 2.039-2.951 2.039-.986 2.108 2.833 2.108 1.171 2.108 1.785 2.108-.876 4.25-1.489 2.108 2.8 2.108-3.182h0" clip-path="url(#p8a0820698d)" style="fill:none;stroke:#e377c2;stroke-width:1.5;stroke-linecap:square"/><g id="text_14" style="fill:#1f77b4" transform="matrix(.14 0 0 -.14 408.756 161.794)"><defs><path id="DejaVuSans-6e" d="M3513 2113V0h-575v2094q0 497-194 743-194 247-581 247-466 0-735-297-269-296-269-809V0H581v3500h578v-544q207 316 486 472 280 156 646 156 603 0 912-373 310-373 310-1098z" transform="scale(.01563)"/><path id="DejaVuSans-6f" d="M1959 3097q-462 0-731-361t-269-989q0-628 267-989 268-361 733-361 460 0 728 362 269 363 269 988 0 622-269 986-268 364-728 364zm0 487q750 0 1178-488 429-487 429-1349 0-859-429-1349Q2709-91 1959-91q-753 0-1180 489-426 490-426 1349 0 862 426 1349 427 488 1180 488z" transform="scale(.01563)"/><path id="DejaVuSans-64" d="M2906 2969v1894h575V0h-575v525q-181-312-458-464-276-152-664-152-634 0-1033 506-398 507-398 1332t398 1331q399 506 1033 506 388 0 664-152 277-151 458-463zM947 1747q0-634 261-995t717-361q456 0 718 361 263 361 263 995t-263 995q-262 361-718 361t-717-361q-261-361-261-995z" transform="scale(.01563)"/><path id="DejaVuSans-65" d="M3597 1894v-281H953q38-594 358-905t892-311q331 0 642 81t618 244V178Q3153 47 2828-22t-659-69q-838 0-1327 487-489 488-489 1320 0 859 464 1363 464 505 1252 505 706 0 1117-455 411-454 411-1235zm-575 169q-6 471-264 752-258 282-683 282-481 0-770-272t-333-766l2050 4z" transform="scale(.01563)"/><path id="DejaVuSans-2e" d="M684 794h660V0H684v794z" transform="scale(.01563)"/><path id="DejaVuSans-6a" d="M603 3500h575V-63q0-668-255-968-254-300-820-300h-219v487H38q328 0 446 152Q603-541 603-63v3563zm0 1363h575v-729H603v729z" transform="scale(.01563)"/><path id="DejaVuSans-73" d="M2834 3397v-544q-243 125-506 187-262 63-544 63-428 0-642-131t-214-394q0-200 153-314t616-217l197-44q612-131 870-370t258-667q0-488-386-773Q2250-91 1575-91q-281 0-586 55T347 128v594q319-166 628-249 309-82 613-82 406 0 624 139 219 139 219 392 0 234-158 359-157 125-692 241l-200 47q-534 112-772 345-237 233-237 639 0 494 350 762 350 269 994 269 318 0 599-47 282-46 519-140z" transform="scale(.01563)"/></defs><use xlink:href="#DejaVuSans-6e"/><use xlink:href="#DejaVuSans-6f" x="63.379"/><use xlink:href="#DejaVuSans-64" x="124.561"/><use xlink:href="#DejaVuSans-65" x="188.037"/><use xlink:href="#DejaVuSans-2e" x="249.561"/><use xlink:href="#DejaVuSans-6a" x="281.348"/><use xlink:href="#DejaVuSans-73" x="309.131"/></g><g id="text_15" style="fill:#ff7f0e" transform="matrix(.14 0 0 -.14 408.756 238.812)"><defs><path id="DejaVuSans-61" d="M2194 1759q-697 0-966-159t-269-544q0-306 202-486 202-179 548-179 479 0 768 339t289 901v128h-572zm1147 238V0h-575v531q-197-318-491-470T1556-91q-537 0-855 302-317 302-317 808 0 590 395 890 396 300 1180 300h807v57q0 397-261 614t-733 217q-300 0-585-72-284-72-546-216v532q315 122 612 182 297 61 578 61 760 0 1135-394 375-393 375-1193z" transform="scale(.01563)"/><path id="DejaVuSans-67" d="M2906 1791q0 625-258 968-257 344-723 344-462 0-720-344-258-343-258-968 0-622 258-966t720-344q466 0 723 344 258 344 258 966zm575-1357q0-893-397-1329-396-436-1215-436-303 0-572 45t-522 139v559q253-137 500-202 247-66 503-66 566 0 847 295t281 892v285q-178-310-456-463T1784 0Q1141 0 747 490 353 981 353 1791q0 812 394 1302 394 491 1037 491 388 0 666-153t456-462v531h575V434z" transform="scale(.01563)"/></defs><use xlink:href="#DejaVuSans-64"/><use xlink:href="#DejaVuSans-6a" x="63.477"/><use xlink:href="#DejaVuSans-61" x="91.26"/><use xlink:href="#DejaVuSans-6e" x="152.539"/><use xlink:href="#DejaVuSans-67" x="215.918"/><use xlink:href="#DejaVuSans-6f" x="279.395"/></g><g id="text_16" style="fill:#2ca02c" transform="matrix(.14 0 0 -.14 408.756 252.812)"><defs><path id="DejaVuSans-6c" d="M603 4863h575V0H603v4863z" transform="scale(.01563)"/><path id="DejaVuSans-72" d="M2631 2963q-97 56-211 82-114 27-251 27-488 0-749-317t-261-911V0H581v3500h578v-544q182 319 472 473 291 155 707 155 59 0 131-8 72-7 159-23l3-590z" transform="scale(.01563)"/><path id="DejaVuSans-76" d="M191 3500h609L1894 563l1094 2937h609L2284 0h-781L191 3500z" transform="scale(.01563)"/></defs><use xlink:href="#DejaVuSans-6c"/><use xlink:href="#DejaVuSans-61" x="27.783"/><use xlink:href="#DejaVuSans-72" x="89.063"/><use xlink:href="#DejaVuSans-61" x="130.176"/><use xlink:href="#DejaVuSans-76" x="191.455"/><use xlink:href="#DejaVuSans-65" x="250.635"/><use xlink:href="#DejaVuSans-6c" x="312.158"/></g><g id="text_17" style="fill:#d62728" transform="matrix(.14 0 0 -.14 408.756 266.812)"><defs><path id="DejaVuSans-70" d="M1159 525v-1856H581v4831h578v-531q182 312 458 463 277 152 661 152 638 0 1036-506 399-506 399-1331T3314 415Q2916-91 2278-91q-384 0-661 152-276 152-458 464zm1957 1222q0 634-261 995t-717 361q-457 0-718-361t-261-995q0-634 261-995t718-361q456 0 717 361t261 995z" transform="scale(.01563)"/><path id="DejaVuSans-69" d="M603 3500h575V0H603v3500zm0 1363h575v-729H603v729z" transform="scale(.01563)"/></defs><use xlink:href="#DejaVuSans-73"/><use xlink:href="#DejaVuSans-70" x="52.1"/><use xlink:href="#DejaVuSans-72" x="115.576"/><use xlink:href="#DejaVuSans-69" x="156.689"/><use xlink:href="#DejaVuSans-6e" x="184.473"/><use xlink:href="#DejaVuSans-67" x="247.852"/></g><g id="text_18" style="fill:#9467bd" transform="matrix(.14 0 0 -.14 408.756 280.812)"><defs><path id="DejaVuSans-78" d="M3513 3500 2247 1797 3578 0h-678L1881 1375 863 0H184l1360 1831L300 3500h678l928-1247 928 1247h679z" transform="scale(.01563)"/></defs><use xlink:href="#DejaVuSans-65"/><use xlink:href="#DejaVuSans-78" x="59.773"/><use xlink:href="#DejaVuSans-70" x="118.953"/><use xlink:href="#DejaVuSans-72" x="182.43"/><use xlink:href="#DejaVuSans-65" x="221.293"/><use xlink:href="#DejaVuSans-73" x="282.816"/><use xlink:href="#DejaVuSans-73" x="334.916"/></g><g id="text_19" style="fill:#8c564b" transform="matrix(.14 0 0 -.14 408.756 294.812)"><defs><path id="DejaVuSans-74" d="M1172 4494v-994h1184v-447H1172V1153q0-428 117-550t477-122h590V0h-590q-666 0-919 248-253 249-253 905v1900H172v447h422v994h578z" transform="scale(.01563)"/><path id="DejaVuSans-2d" d="M313 2009h1684v-512H313v512z" transform="scale(.01563)"/><path id="DejaVuSans-63" d="M3122 3366v-538q-244 135-489 202t-495 67q-560 0-870-355-309-354-309-995t309-996q310-354 870-354 250 0 495 67t489 202V134Q2881 22 2623-34q-257-57-548-57-791 0-1257 497-465 497-465 1341 0 856 470 1346 471 491 1290 491 265 0 518-55 253-54 491-163z" transform="scale(.01563)"/></defs><use xlink:href="#DejaVuSans-61"/><use xlink:href="#DejaVuSans-73" x="61.279"/><use xlink:href="#DejaVuSans-70" x="113.379"/><use xlink:href="#DejaVuSans-2e" x="176.855"/><use xlink:href="#DejaVuSans-6e" x="208.643"/><use xlink:href="#DejaVuSans-65" x="272.021"/><use xlink:href="#DejaVuSans-74" x="333.545"/><use xlink:href="#DejaVuSans-2d" x="372.754"/><use xlink:href="#DejaVuSans-63" x="408.838"/><use xlink:href="#DejaVuSans-6f" x="463.818"/><use xlink:href="#DejaVuSans-72" x="525"/><use xlink:href="#DejaVuSans-65" x="563.863"/></g><g id="text_20" style="fill:#e377c2" transform="matrix(.14 0 0 -.14 408.756 308.812)"><defs><path id="DejaVuSans-75" d="M544 1381v2119h575V1403q0-497 193-746 194-248 582-248 465 0 735 297 271 297 271 810v1984h575V0h-575v538q-209-319-486-474-276-155-642-155-603 0-916 375-312 375-312 1097zm1447 2203z" transform="scale(.01563)"/><path id="DejaVuSans-62" d="M3116 1747q0 634-261 995t-717 361q-457 0-718-361t-261-995q0-634 261-995t718-361q456 0 717 361t261 995zM1159 2969q182 312 458 463 277 152 661 152 638 0 1036-506 399-506 399-1331T3314 415Q2916-91 2278-91q-384 0-661 152-276 152-458 464V0H581v4863h578V2969z" transform="scale(.01563)"/><path id="DejaVuSans-79" d="M2059-325q-243-625-475-815-231-191-618-191H506v481h338q237 0 368 113 132 112 291 531l103 262L191 3500h609L1894 763l1094 2737h609L2059-325z" transform="scale(.01563)"/></defs><use xlink:href="#DejaVuSans-72"/><use xlink:href="#DejaVuSans-75" x="41.113"/><use xlink:href="#DejaVuSans-62" x="104.492"/><use xlink:href="#DejaVuSans-79" x="167.969"/><use xlink:href="#DejaVuSans-2d" x="225.398"/><use xlink:href="#DejaVuSans-6f" x="263.357"/><use xlink:href="#DejaVuSans-6e" x="324.539"/><use xlink:href="#DejaVuSans-2d" x="387.918"/><use xlink:href="#DejaVuSans-72" x="424.002"/><use xlink:href="#DejaVuSans-61" x="465.115"/><use xlink:href="#DejaVuSans-69" x="526.395"/><use xlink:href="#DejaVuSans-6c" x="554.178"/><use xlink:href="#DejaVuSans-73" x="581.961"/></g><g id="text_21" style="fill:#7f7f7f" transform="matrix(.14 0 0 -.14 408.756 322.812)"><defs><path id="DejaVuSans-66" d="M2375 4863v-479h-550q-309 0-430-125-120-125-120-450v-309h947v-447h-947V0H697v3053H147v447h550v244q0 584 272 851 272 268 862 268h544z" transform="scale(.01563)"/><path id="DejaVuSans-6b" d="M581 4863h578V1991l1716 1509h734L1753 1863 3688 0h-750L1159 1709V0H581v4863z" transform="scale(.01563)"/></defs><use xlink:href="#DejaVuSans-66"/><use xlink:href="#DejaVuSans-6c" x="35.205"/><use xlink:href="#DejaVuSans-61" x="62.988"/><use xlink:href="#DejaVuSans-73" x="124.268"/><use xlink:href="#DejaVuSans-6b" x="176.367"/></g><g id="text_22" style="fill:#bcbd22" transform="matrix(.14 0 0 -.14 408.756 336.812)"><defs><path id="DejaVuSans-6d" d="M3328 2828q216 388 516 572t706 184q547 0 844-383 297-382 297-1088V0h-578v2094q0 503-179 746-178 244-543 244-447 0-707-297-259-296-259-809V0h-578v2094q0 506-178 748t-550 242q-441 0-701-298-259-298-259-808V0H581v3500h578v-544q197 322 472 475t653 153q382 0 649-194 267-193 395-562z" transform="scale(.01563)"/></defs><use xlink:href="#DejaVuSans-73"/><use xlink:href="#DejaVuSans-79" x="52.1"/><use xlink:href="#DejaVuSans-6d" x="111.279"/><use xlink:href="#DejaVuSans-66" x="208.691"/><use xlink:href="#DejaVuSans-6f" x="243.896"/><use xlink:href="#DejaVuSans-6e" x="305.078"/><use xlink:href="#DejaVuSans-79" x="368.457"/></g><g id="text_23" style="fill:#b0b0b0" transform="matrix(.09716 0 0 -.09716 40.922 357.986)"><defs><path id="DejaVuSans-40" d="M2381 1678q0-447 222-702 222-254 610-254 384 0 604 256 221 256 221 700 0 438-225 695-225 258-607 258-378 0-602-256-223-256-223-697zm1703-934q-187-241-429-355t-564-114q-538 0-874 389t-336 1014q0 625 337 1015 338 391 873 391 322 0 565-117 244-117 428-354v409h447V722q457 69 714 417 258 349 258 902 0 334-99 628-98 294-298 544-325 409-792 626t-1017 217q-384 0-738-102-353-101-653-301-490-319-767-836-276-517-276-1120 0-497 179-932 180-434 521-765 328-325 759-495 431-171 922-171 403 0 792 136t714 389l281-347q-390-303-851-464t-936-161q-578 0-1091 205-512 205-912 595Q841 78 631 592q-209 514-209 1105 0 569 212 1084 213 516 607 907 403 396 931 607t1119 211q662 0 1229-272 568-271 952-771 234-307 357-666 124-359 124-744 0-822-497-1297T4084 263v481z" transform="scale(.01563)"/><path id="DejaVuSans-68" d="M3513 2113V0h-575v2094q0 497-194 743-194 247-581 247-466 0-735-297-269-296-269-809V0H581v4863h578V2956q207 316 486 472 280 156 646 156 603 0 912-373 310-373 310-1098z" transform="scale(.01563)"/><path id="DejaVuSans-2f" d="M1625 4666h531L531-594H0l1625 5260z" transform="scale(.01563)"/><path id="DejaVuSans-77" d="M269 3500h575l719-2731 715 2731h678l719-2731 716 2731h575L4050 0h-678l-753 2869L1863 0h-679L269 3500z" transform="scale(.01563)"/><path id="DejaVuSans-7c" d="M1344 4891v-6400H813v6400h531z" transform="scale(.01563)"/><path id="DejaVuSans-4e" d="M628 4666h850L3547 763v3903h612V0h-850L1241 3903V0H628v4666z" transform="scale(.01563)"/><path id="DejaVuSans-53" d="M3425 4513v-616q-359 172-678 256-319 85-616 85-515 0-795-200t-280-569q0-310 186-468 186-157 705-254l381-78q706-135 1042-474t336-907q0-679-455-1029Q2797-91 1919-91q-331 0-705 75-373 75-773 222v650q384-215 753-325 369-109 725-109 540 0 834 212 294 213 294 607 0 343-211 537t-692 291l-385 75q-706 140-1022 440-315 300-315 835 0 619 436 975t1201 356q329 0 669-60 341-59 697-177z" transform="scale(.01563)"/><path id="DejaVuSans-f6" d="M1959 3097q-462 0-731-361t-269-989q0-628 267-989 268-361 733-361 460 0 728 362 269 363 269 988 0 622-269 986-268 364-728 364zm0 487q750 0 1178-488 429-487 429-1349 0-859-429-1349Q2709-91 1959-91q-753 0-1180 489-426 490-426 1349 0 862 426 1349 427 488 1180 488zm295 1266h634v-631h-634v631zm-1222 0h634v-631h-634v631z" transform="scale(.01563)"/><path id="DejaVuSans-43" d="M4122 4306v-665q-319 297-680 443-361 147-767 147-800 0-1225-489t-425-1414q0-922 425-1411t1225-489q406 0 767 147t680 444V359q-331-225-702-338-370-112-782-112-1060 0-1670 648-609 649-609 1771 0 1125 609 1773 610 649 1670 649 418 0 788-111 371-111 696-333z" transform="scale(.01563)"/><path id="DejaVuSans-42" d="M1259 2228V519h1013q509 0 754 211 246 211 246 645 0 438-246 645-245 208-754 208H1259zm0 1919V2741h935q462 0 688 173 227 174 227 530 0 353-227 528-226 175-688 175h-935zm-631 519h1613q722 0 1112-300 391-300 391-853 0-429-200-682t-588-315q466-100 724-418 258-317 258-792 0-625-425-966Q3088 0 2303 0H628v4666z" transform="scale(.01563)"/><path id="DejaVuSans-59" d="M-13 4666h679l1293-1919 1285 1919h678L2272 2222V0h-634v2222L-13 4666z" transform="scale(.01563)"/></defs><use xlink:href="#DejaVuSans-40"/><use xlink:href="#DejaVuSans-6e" x="100"/><use xlink:href="#DejaVuSans-73" x="163.379"/><use xlink:href="#DejaVuSans-63" x="215.479"/><use xlink:href="#DejaVuSans-68" x="270.459"/><use xlink:href="#DejaVuSans-6c" x="333.838"/><use xlink:href="#DejaVuSans-6f" x="361.621"/><use xlink:href="#DejaVuSans-65" x="422.803"/><use xlink:href="#DejaVuSans-20" x="484.326"/><use xlink:href="#DejaVuSans-2f" x="516.113"/><use xlink:href="#DejaVuSans-20" x="549.805"/><use xlink:href="#DejaVuSans-73" x="581.592"/><use xlink:href="#DejaVuSans-74" x="633.691"/><use xlink:href="#DejaVuSans-61" x="672.9"/><use xlink:href="#DejaVuSans-63" x="734.18"/><use xlink:href="#DejaVuSans-6b" x="789.16"/><use xlink:href="#DejaVuSans-6f" x="843.445"/><use xlink:href="#DejaVuSans-76" x="904.627"/><use xlink:href="#DejaVuSans-65" x="963.807"/><use xlink:href="#DejaVuSans-72" x="1025.33"/><use xlink:href="#DejaVuSans-66" x="1066.443"/><use xlink:href="#DejaVuSans-6c" x="1101.648"/><use xlink:href="#DejaVuSans-6f" x="1129.432"/><use xlink:href="#DejaVuSans-77" x="1190.613"/><use xlink:href="#DejaVuSans-2d" x="1272.4"/><use xlink:href="#DejaVuSans-74" x="1308.484"/><use xlink:href="#DejaVuSans-72" x="1347.693"/><use xlink:href="#DejaVuSans-65" x="1386.557"/><use xlink:href="#DejaVuSans-6e" x="1448.08"/><use xlink:href="#DejaVuSans-64" x="1511.459"/><use xlink:href="#DejaVuSans-73" x="1574.936"/><use xlink:href="#DejaVuSans-20" x="1627.035"/><use xlink:href="#DejaVuSans-7c" x="1658.822"/><use xlink:href="#DejaVuSans-20" x="1692.514"/><use xlink:href="#DejaVuSans-4e" x="1724.301"/><use xlink:href="#DejaVuSans-69" x="1799.105"/><use xlink:href="#DejaVuSans-63" x="1826.889"/><use xlink:href="#DejaVuSans-6f" x="1881.869"/><use xlink:href="#DejaVuSans-20" x="1943.051"/><use xlink:href="#DejaVuSans-53" x="1974.838"/><use xlink:href="#DejaVuSans-63" x="2038.314"/><use xlink:href="#DejaVuSans-68" x="2093.295"/><use xlink:href="#DejaVuSans-6c" x="2156.674"/><use xlink:href="#DejaVuSans-f6" x="2184.457"/><use xlink:href="#DejaVuSans-6d" x="2245.639"/><use xlink:href="#DejaVuSans-65" x="2343.051"/><use xlink:href="#DejaVuSans-72" x="2404.574"/><use xlink:href="#DejaVuSans-20" x="2445.688"/><use xlink:href="#DejaVuSans-7c" x="2477.475"/><use xlink:href="#DejaVuSans-20" x="2511.166"/><use xlink:href="#DejaVuSans-43" x="2542.953"/><use xlink:href="#DejaVuSans-43" x="2612.777"/><use xlink:href="#DejaVuSans-20" x="2682.602"/><use xlink:href="#DejaVuSans-42" x="2714.389"/><use xlink:href="#DejaVuSans-59" x="2777.492"/></g><g id="text_24" style="fill:#b0b0b0" transform="matrix(.14 0 0 -.14 63.337 17.838)"><defs><path id="DejaVuSans-44" d="M1259 4147V519h763q966 0 1414 437 448 438 448 1382 0 937-448 1373t-1414 436h-763zm-631 519h1297q1356 0 1990-564 635-564 635-1764 0-1207-638-1773Q3275 0 1925 0H628v4666z" transform="scale(.01563)"/><path id="DejaVuSans-71" d="M947 1747q0-634 261-995t717-361q456 0 718 361 263 361 263 995t-263 995q-262 361-718 361t-717-361q-261-361-261-995zM2906 525q-181-312-458-464-276-152-664-152-634 0-1033 506-398 507-398 1332t398 1331q399 506 1033 506 388 0 664-152 277-151 458-463v531h575v-4831h-575V525z" transform="scale(.01563)"/><path id="DejaVuSans-4f" d="M2522 4238q-688 0-1093-513-404-512-404-1397 0-881 404-1394 405-512 1093-512 687 0 1089 512 402 513 402 1394 0 885-402 1397-402 513-1089 513zm0 512q981 0 1568-658 588-658 588-1764 0-1103-588-1761Q3503-91 2522-91q-984 0-1574 656-589 657-589 1763t589 1764q590 658 1574 658z" transform="scale(.01563)"/></defs><use xlink:href="#DejaVuSans-44"/><use xlink:href="#DejaVuSans-61" x="77.002"/><use xlink:href="#DejaVuSans-69" x="138.281"/><use xlink:href="#DejaVuSans-6c" x="166.064"/><use xlink:href="#DejaVuSans-79" x="193.848"/><use xlink:href="#DejaVuSans-20" x="253.027"/><use xlink:href="#DejaVuSans-6e" x="284.814"/><use xlink:href="#DejaVuSans-75" x="348.193"/><use xlink:href="#DejaVuSans-6d" x="411.572"/><use xlink:href="#DejaVuSans-62" x="508.984"/><use xlink:href="#DejaVuSans-65" x="572.461"/><use xlink:href="#DejaVuSans-72" x="633.984"/><use xlink:href="#DejaVuSans-20" x="675.098"/><use xlink:href="#DejaVuSans-6f" x="706.885"/><use xlink:href="#DejaVuSans-66" x="768.066"/><use xlink:href="#DejaVuSans-20" x="803.271"/><use xlink:href="#DejaVuSans-71" x="835.059"/><use xlink:href="#DejaVuSans-75" x="898.535"/><use xlink:href="#DejaVuSans-65" x="961.914"/><use xlink:href="#DejaVuSans-73" x="1023.438"/><use xlink:href="#DejaVuSans-74" x="1075.537"/><use xlink:href="#DejaVuSans-69" x="1114.746"/><use xlink:href="#DejaVuSans-6f" x="1142.529"/><use xlink:href="#DejaVuSans-6e" x="1203.711"/><use xlink:href="#DejaVuSans-73" x="1267.09"/><use xlink:href="#DejaVuSans-20" x="1319.189"/><use xlink:href="#DejaVuSans-6f" x="1350.977"/><use xlink:href="#DejaVuSans-6e" x="1412.158"/><use xlink:href="#DejaVuSans-20" x="1475.537"/><use xlink:href="#DejaVuSans-53" x="1507.324"/><use xlink:href="#DejaVuSans-74" x="1570.801"/><use xlink:href="#DejaVuSans-61" x="1610.01"/><use xlink:href="#DejaVuSans-63" x="1671.289"/><use xlink:href="#DejaVuSans-6b" x="1726.27"/><use xlink:href="#DejaVuSans-4f" x="1784.18"/><use xlink:href="#DejaVuSans-76" x="1862.891"/><use xlink:href="#DejaVuSans-65" x="1922.07"/><use xlink:href="#DejaVuSans-72" x="1983.594"/><use xlink:href="#DejaVuSans-66" x="2024.707"/><use xlink:href="#DejaVuSans-6c" x="2059.912"/><use xlink:href="#DejaVuSans-6f" x="2087.695"/><use xlink:href="#DejaVuSans-77" x="2148.877"/></g><path id="line2d_23" d="M103.438 323.95h77.858l2.108-.404 4.216-.034 2.143-.504 2.108.455 2.108-.052 2.108-1.234 2.108-.111 2.142-1.515 2.04-.29 4.146 1.046 2.108-2.169 2.108.744 2.108-1.282 2.143-.606 2.108-.79 2.108.454 2.108-2.54 2.108-2.036 2.143-.505 2.073.08 2.074 2.242 2.108-.997 4.216-3.303 2.108-2.598 2.142-2.96 2.108 1.594 2.108-1.998 2.108-2.278 2.108 3.253 4.182-5.094 2.039-2.644 2.108 3.72 2.108-.187 2.108 1.195 2.108.588 2.142-5.25 2.108 2.61 2.108.184 2.109 2.46 2.108 3.899 2.142-3.937 2.039-2.19 2.039-1.612 2.108.154 2.108-4.326 2.108-1.237 2.108 1.472 2.143-1.581 2.108 2.09 2.108-3.032 2.108 3.693 2.108-1.573 2.142-4.812 2.04.743 2.038-3.098 2.108-.16 2.108-2.868 2.108 5.614 2.108-5.412 2.143 2.288 2.108-3.377 2.108-.863 2.108-.146 2.108 2.468 2.142-5.417 2.074-1.127 2.073-.186 2.108-8.046 2.108 4.345 2.108 2.366 2.109-1.222 2.142 5.72 2.108-.326 2.108 5.306 2.108-.265 2.108-.072 2.143-4.643 2.039-.08 2.039-4.731 4.216 11.036 2.108-2.414 2.108 3.86 4.25-.21 2.108 3.945 2.108-4.118 2.108 1.494 2.143-1.178 2.039 2.187 2.039-.269 2.108 1.59 2.108-1.624 2.108 2.424 2.108-.438 2.142-1.11 4.216 4.777 2.108-3.89h0" clip-path="url(#p8a0820698d)" style="fill:none;stroke:#8c564b;stroke-width:1.5;stroke-linecap:square"/><path id="line2d_24" d="M76.171 323.95H95.11l4.25-.539 2.04.129 4.147-1.12 2.108-.085 2.108.259 2.108.077 2.142-1.413 2.108-.229 2.108.128 2.108.29 2.108-.424 2.143-1.447 2.073.633 2.074-.162 2.108-1.973 2.108.694 2.108-.59 4.25-1.462 2.108.697 2.109.077 2.108-1.328 2.108-.12 2.142-.908 2.04.36 2.038-1.84 2.108 1.5 4.216.417 2.108-1.58 2.143-1.918 2.108.195 2.108.074 2.108-1.117 2.108-1.474 2.142-.64 4.078-.605 2.108.041 2.108-.781 2.108 1.199 2.108-1.401 2.143-.236 2.108 3.375 4.216-2.781 2.108 1.66 2.142-2.792 4.078-.976 2.108.404 2.108-1.716 2.108-2.282 2.108.633 2.143.404 2.108-.168 2.108 1.11 2.108.837 2.108-.601 2.143-3.23 2.073-2 2.074.923 2.108-.933 2.108 1.303 2.108-2.068 2.108.184 2.142 1.48 2.108-2.186 2.108.605 2.108-2.586 2.108 5.749 2.143-4.374 2.039-2.781 2.039-.82 2.108 2.92 2.108.849 2.108.577 2.108-.51 2.142-.269 2.108.884 2.108-.346 2.109-2.053 2.108 5.317 2.142-6.258 2.039-2.116 2.039.77 2.108.374 2.108-.475 2.108 2.979 2.108-2.71 2.143-1.716 2.108.15 2.108-2.673 2.108 1.977 2.108 3.81 2.142-5.08 2.04-3.776 2.038 2.093 2.108-.141 2.108-2.383 2.108 4.608 2.108-5.752 2.143 3.634 2.108.066 2.108-2.152 2.108.136 2.108 1.446 2.142-6.225 2.074.68 2.073-5.593 2.108-12.838 2.108-1.024 2.108 8.36 2.109.186 2.142 2.39 2.108 4.586 2.108 2.748 2.108 2.016 2.108-1.41 2.143-3.432 2.039-.456 2.039-.924 2.108 2.084 2.108-.637 2.108 1.82 2.108 5.212 2.142-2.994 2.108.632 2.108 3.439 2.108-.344 2.108 1.757 2.143-2.658 4.078-1.211 2.108 3.19 2.108-.498 2.108 5.226 4.25-6.707 2.108 5.664 2.108-1.054 2.108-4.509h0" clip-path="url(#p8a0820698d)" style="fill:none;stroke:#9467bd;stroke-width:1.5;stroke-linecap:square"/><path id="line2d_25" d="m40.922 321.864 1.625.504 2.108.434 2.108.105 2.142-.707 2.04-.225 2.038.46 2.108-.78 2.108-1.44 2.108-.16 2.108-.446 2.143 1.11 2.108-.768 2.108-1.183 2.108.419 2.108-.486 2.143-2.086 2.038-1.606 2.04.866 2.107 1.121 2.108-.852 2.108-1.025 2.108-1.364 2.143.437 2.108-1.125 2.108.688 2.108-4.06 2.108 2.108 2.143-1.21 2.039-4.263 2.039-2.198 2.108 2.608 2.108.656 2.108-.796 2.108.257 2.142-1.48 2.108-3.47 2.108.71 2.108-1.093 2.108 1.666 2.143-4.004 2.073-3.183 2.074 1.299 2.108-.263 2.108-.511 2.108.894 2.108-4.562 2.142 1.178 2.108-.58 2.109-2.516 2.108.882 2.108 1.17 2.142-5.988 2.04.623 2.038-.421 2.108-1.886 2.108-1.277 2.108 6.423 2.108-5.01 2.143-.673 2.108-1.27 2.108-2.532 2.108 2.879 2.108-.221 2.142-7.604 2.04-3.383 2.038-2.875 2.108 1.601 2.108.115 2.108.79 2.108-5.804 2.143 8.715 2.108-6.041 2.108 3.82 2.108-5.037 2.108 6.989 2.142-4.24 2.04-3.732 2.038-4.545 2.108-1.878 2.108 6.622 2.108-4.083 2.108-3.353h2.143l2.108-1.48 2.108 6.19 2.108-.94 2.108 4.305 2.143-4.98 2.073-8.028 2.074.828 2.108-2.66 2.108 5.285 2.108 3.79 2.108 1.593 2.142-9.724 2.108 8.374 2.108 2.528 2.108-1.555 2.108 3.843 2.143-2.355 2.039-7.09 2.039-5.158 2.108 4.433 2.108-6.182 2.108 1.592 2.108 4.8 2.142-4.61 2.108 7.077 2.108.259 2.109-4.64 2.108 12.917 2.142-6.393 2.039-1.115 2.039-.77 2.108 3.08 2.108-.657 2.108 4.585 2.108-5.224 2.143-6.998 2.108 4.26 2.108-5.74 2.108 1.672 2.108 9.027 2.142.168 2.04-5.564 2.038-.29 2.108 3.996 2.108 2.228 2.108 5.282 2.108-10.834 2.143 8.21 2.108-1.862 2.108-4.329 2.108-2.103 2.108 8.765 2.142-6.527 2.074-3.37 2.073-7.666 2.108-11.228 2.108 6.349 2.108 4.777 2.109 1.683 2.142 9.387 2.108-.57 2.108 5.718 2.108-.747 2.108 8.553 2.143-6.123 2.039-.023 2.039-3.41 2.108 3.994 2.108 2.904 2.108-3.46 2.108 7.397 2.142-1.211 2.108.28 2.108 3.724 2.108-3.168 2.108 5.994 2.143-2.12 2.039-7.46 2.039 2.85 2.108-.585 2.108 5.229 2.108-.118 2.108-1.766 4.25 2.496 2.108.23 2.108-1.933h0" clip-path="url(#p8a0820698d)" style="fill:none;stroke:#d62728;stroke-width:1.5;stroke-linecap:square"/><path id="line2d_26" d="m111.87 323.95 4.25-.035 6.324.035h6.29l4.216-.067 2.108-.385 2.108.115 4.25-.845 2.109.071 2.108-1.114 2.108-.332 2.142-4.105 2.04.106 2.038-.476 2.108-.86 2.108-4.288 2.108-8.438 2.108 4.602 2.143.404 2.108-.66 2.108 2.41 2.108 1.484 2.108-1.518 4.181-9.051 2.04-4.172 2.107-3.234 2.108 2.964 2.108.06 2.108-1.81 2.143-1.446 2.108-1.715 2.108-.977 2.108-2.5 2.108 2.366 2.142-3.365 2.04-6.92 2.038 4.935 2.108-3.413 2.108 5.061 2.108-2.036 2.108-5.467 2.143 1.75 2.108 2.604 2.108-3.782 2.108.618 2.108-5.766 2.143-2.355 4.147-8.042 2.108-.49 2.108-6.508 2.108 5.464 2.108 5.875 2.142-5.485 2.108 4.373 2.108-2.22 2.108-5.985 2.108 3.429 2.143-8.547 2.039-4.41 2.039-3.362 2.108 7.014 2.108-2.505 2.108 1.88 2.108 1.114 2.142-2.826 2.108 4.32 2.108-4.354 2.109-.55 2.108 8.827 2.142-12.65 2.039-5.44 2.039 2.983 2.108-.916 2.108 2.43 2.108 2.229 2.108-4.82 2.143-8.21 2.108 3.886 2.108-1.867 2.108 3.605 2.108 8.205 2.142-9.724 2.04-2.532 2.038-1.472 2.108-1.013 2.108 2.73 2.108 4.328 2.108-16.24 2.143 5.788 2.108-7.385 2.108-.455 2.108-4.03L324.4 232.6l2.142-8.614 2.074-6.102 2.073-.863 2.108-19.175 2.108 4.674 2.108 8.4 2.109-.157 2.142 12.618 2.108-4.222 2.108 11.018 2.108.734 2.108 11.581 2.143-11.204 2.039-3.41 2.039.785 2.108 1.796 2.108 5.674 2.108-8.386 2.108 11.919 2.142-1.11 2.108 3.759 2.108 8.892 2.108 1.643 2.108 8.249 2.143-2.255 2.039-8.167 4.147 7.875 2.108-.953 2.108 3.769 2.108-2.153 2.142.773 2.108-.393 2.108 2.076 2.108-1.207h0" clip-path="url(#p8a0820698d)" style="fill:none;stroke:#2ca02c;stroke-width:1.5;stroke-linecap:square"/><path id="line2d_27" d="m40.922 321.277 1.625.351 4.216-.538 2.142-2.086 2.04-.344 2.038-1.507 2.108-.4 2.108-2.393 2.108-.875 2.108-2.758 2.143.605 2.108-1.707 2.108.26 2.108-1.546 2.108-3.534 2.143-3.365 2.038-3.827 2.04 4.466 2.107 1.288 2.108.597 2.108-3.9 2.108-.306 2.143-1.077 2.108.166 2.108 2.122 2.108-5.773 2.108 2.341 2.143-5.215 2.039-6.22 2.039-.812 2.108 2.327 2.108-4.716 2.108.161 2.108 3.069 2.142.47 2.108 1.711 2.108 3.303 2.108-6.328 2.108 4.848 2.143-7.436 2.073-2.126 2.074-3.056 2.108-.852 2.108.819 2.108 1.476 4.25-9.686 2.108 6.556 2.109-1.98 2.108 1.355 2.108 6.249 2.142-8.243 2.04-10.205 2.038 1.22 2.108-.147 2.108.955 2.108-1.338 4.25-3.91 2.109 9.23 2.108-3.645 2.108-2.996 2.108 9.557 2.142-12.685 2.04.37 2.038-6.628 2.108 7.404 2.108 5.987 2.108-2.023 2.108-1.173 2.143 4.845 2.108-1.447 2.108.808 2.108-1.503 2.108 2.882 2.142-5.249 2.04-2.451 2.038 1.105 2.108.584 2.108-3.713 4.216-9.185 2.143 8.613 2.108-2.356 2.108.91 2.108 3.193 2.108-1.747 2.143-3.533 2.073-3.788 2.074-.451 2.108 3.504 2.108 2.081 4.216 3.062 2.142-4.172 2.108 3.097 2.108 3.565 2.108.155 2.108 5.363 2.143-10.195 2.039-13.563 2.039 2.056 2.108 8.03 2.108-5.507 2.108 3.003 2.108-3.305 2.142-3.062 2.108-2.43 2.108 10.505 2.109-3.099 2.108 7.978 2.142-9.859 2.039-4.087 2.039 3.28 2.108-.928 2.108-6.777 2.108 1.562 2.108-2.505 2.143-8.041 2.108 9.016 2.108 3.5 2.108-1.831 2.108 7.686 4.181-23.29 2.04-.263 2.107-2.073 2.108 5.74 2.108 7.332 2.108-17.089 2.143 5.316 2.108-1.369 2.108-.414 2.108-9.738 2.108 12.53 2.142-12.146 2.074-7.018 2.073-14.92 2.108-31.92 2.108 1.168 2.108 11.766 2.109-3.826 2.142 16.655 2.108 8.24 2.108 6.262 2.108 9.14 2.108 5.967 2.143-14.838 2.039 2.514 2.039-.058 2.108 1.757 2.108-2.9 2.108 3.7 2.108 5.451 2.142 1.279 2.108 10.584 2.108 7.787 2.108-.66 2.108 4.866 2.143-12.281 2.039-5.63 2.039 13.671 2.108 5.111 2.108-3.798 2.108 13.22 2.108-14.533 2.142 5.821 2.108 4.47 2.108 5.725 2.108-6.906h0" clip-path="url(#p8a0820698d)" style="fill:none;stroke:#ff7f0e;stroke-width:1.5;stroke-linecap:square"/><path id="line2d_28" d="M42.547 323.95h25.227l4.216-.202 2.143.135 8.293-.572 2.108.117 2.108-.925 2.143.1 2.108-1.122 6.324-1.165 2.143-.841 2.039-1.523 2.039-1.876 2.108-4.469 2.108.97 2.108-.727 2.108.088 2.142-3.802 2.108-2.44 2.108 5.468 2.108-3.451 2.108-3.985 2.143-2.927 2.073.85 2.074-2.532 2.108-3.714 2.108.012 2.108-.568 2.108-1.45 2.142-3.937 2.108 5.734 2.109-4.792 2.108-1.5 2.108 1.803 2.142-7.739 2.04-2.603 2.038-4.732 2.108 4.3 2.108-3.56 2.108 2.621 2.108-8.374 2.143-3.163 2.108 3.123 2.108-3.527 2.108-6.66 2.108-.641 4.181-19.693 2.04-1.202 2.107 8.707 2.108-2.92 2.108 2.12 2.108-3.6 2.143.572 2.108 1.88 2.108-1.106 2.108-1.779 2.108 6.018 2.142-9.084 2.04-12.42 2.038 3.402 2.108-8.255 2.108-1.67 2.108-11.716 2.108-2.281 2.143 2.725 2.108 2.233 2.108.694 2.108-4.24 2.108 3.264 2.143-16.318 2.073-4.5 2.074-4.114 2.108-.654 2.108 3.649 2.108-3.962 2.108 6.99 2.142-8.176 2.108 11.06 2.108-.697 2.108-2.918 2.108 9.816 2.143-18.439 4.078-15.275 2.108 12.876 2.108-2.042 2.108-8.353 2.108-1.808 2.142 3.936 2.108 8.893 2.108 1.571 2.109-7.864 2.108 19.439 2.142-22.409 2.039-.251 2.039 2.808 2.108 8.166 2.108-2.95 2.108 1.56 2.108-9.333 2.143-15.78 2.108 5.26 2.108-11.014 2.108 8.754 2.108 20.35 2.142-21.365 2.04-9.962 2.038-.031 2.108-4.36 2.108 4.023 2.108 8.529 2.108-22.492 2.143 18.438 2.108-2.344 2.108-8.288 2.108-9.443L324.4 157.6l2.142-26.345 2.074 1.241 2.073-18.132 2.108-51.663 2.108-4.863 2.108 18.631 2.109 3.24 2.142 14.03 2.108 7.242 2.108 17.387 2.108 8.898 2.108 8.195 2.143-23.317 2.039-5.372 2.039-7.683 2.108 11.523 2.108-.756 4.216 24.865 2.142 5.921 2.108-.408 2.108 11.68 2.108 4.279 2.108-4.615 2.143-7.47 2.039-8.242 2.039 9.42 2.108 1.206 2.108-.062 2.108 24.678 2.108-19.968 2.142-.37 2.108 19.539 2.108-2.076 2.108-10.302h0" clip-path="url(#p8a0820698d)" style="fill:none;stroke:#1f77b4;stroke-width:1.5;stroke-linecap:square"/></g></g><defs><clipPath id="p8a0820698d"><path d="M40.922 57.838h357.12V323.95H40.922z"/></clipPath></defs></svg>