<svg xmlns="http://www.w3.org/2000/svg" xmlns:xlink="http://www.w3.org/1999/xlink" width="629.966" height="489.969" viewBox="0 0 472.475 367.477"><defs><style>*{stroke-linejoin:round;stroke-linecap:butt}</style></defs><g id="figure_1"><path id="patch_1" d="M0 367.477h472.475V0H0v367.477z" style="fill:none"/><g id="axes_1"><path id="patch_2" d="M32.015 323.95h357.12V57.838H32.015V323.95z" style="fill:none"/><g id="matplotlib.axis_1"><g id="xtick_1"><g id="line2d_1"><defs><path id="m24ba9a59db" d="M0 0v3.5" style="stroke:#b0b0b0;stroke-width:.4"/></defs><use xlink:href="#m24ba9a59db" x="63.063" y="323.95" style="fill:#b0b0b0;stroke:#b0b0b0;stroke-width:.4"/></g><g id="text_1" style="fill:#b0b0b0" transform="matrix(.14 0 0 -.14 45.248 341.588)"><defs><path id="DejaVuSans-32" d="M1228 531h2203V0H469v531q359 372 979 998 621 627 780 809 303 340 423 576 121 236 121 464 0 372-261 606-261 235-680 235-297 0-627-103-329-103-704-313v638q381 153 712 231 332 78 607 78 725 0 1156-363 431-362 431-968 0-288-108-546-107-257-392-607-78-91-497-524-418-433-1181-1211z" transform="scale(.01563)"/><path id="DejaVuSans-30" d="M2034 4250q-487 0-733-480-245-479-245-1442 0-959 245-1439 246-480 733-480 491 0 736 480 246 480 246 1439 0 963-246 1442-245 480-736 480zm0 500q785 0 1199-621 414-620 414-1801 0-1178-414-1799Q2819-91 2034-91q-784 0-1198 620-414 621-414 1799 0 1181 414 1801 414 621 1198 621z" transform="scale(.01563)"/><path id="DejaVuSans-31" d="M794 531h1031v3560L703 3866v575l1116 225h631V531h1031V0H794v531z" transform="scale(.01563)"/></defs><use xlink:href="#DejaVuSans-32"/><use xlink:href="#DejaVuSans-30" x="63.623"/><use xlink:href="#DejaVuSans-31" x="127.246"/><use xlink:href="#DejaVuSans-30" x="190.869"/></g></g><g id="xtick_2"><use xlink:href="#m24ba9a59db" id="line2d_2" x="111.805" y="323.95" style="fill:#b0b0b0;stroke:#b0b0b0;stroke-width:.4"/><g id="text_2" style="fill:#b0b0b0" transform="matrix(.14 0 0 -.14 93.99 341.588)"><use xlink:href="#DejaVuSans-32"/><use xlink:href="#DejaVuSans-30" x="63.623"/><use xlink:href="#DejaVuSans-31" x="127.246"/><use xlink:href="#DejaVuSans-32" x="190.869"/></g></g><g id="xtick_3"><use xlink:href="#m24ba9a59db" id="line2d_3" x="160.614" y="323.95" style="fill:#b0b0b0;stroke:#b0b0b0;stroke-width:.4"/><g id="text_3" style="fill:#b0b0b0" transform="matrix(.14 0 0 -.14 142.8 341.588)"><defs><path id="DejaVuSans-34" d="M2419 4116 825 1625h1594v2491zm-166 550h794V1625h666v-525h-666V0h-628v1100H313v609l1940 2957z" transform="scale(.01563)"/></defs><use xlink:href="#DejaVuSans-32"/><use xlink:href="#DejaVuSans-30" x="63.623"/><use xlink:href="#DejaVuSans-31" x="127.246"/><use xlink:href="#DejaVuSans-34" x="190.869"/></g></g><g id="xtick_4"><use xlink:href="#m24ba9a59db" id="line2d_4" x="209.356" y="323.95" style="fill:#b0b0b0;stroke:#b0b0b0;stroke-width:.4"/><g id="text_4" style="fill:#b0b0b0" transform="matrix(.14 0 0 -.14 191.541 341.588)"><defs><path id="DejaVuSans-36" d="M2113 2584q-425 0-674-291-248-290-248-796 0-503 248-796 249-292 674-292t673 292q248 293 248 796 0 506-248 796-248 291-673 291zm1253 1979v-575q-238 112-480 171-242 60-480 60-625 0-955-422-329-422-376-1275 184 272 462 417 279 145 613 145 703 0 1111-427 408-426 408-1160 0-719-425-1154Q2819-91 2113-91q-810 0-1238 620-428 621-428 1799 0 1106 525 1764t1409 658q238 0 480-47t505-140z" transform="scale(.01563)"/></defs><use xlink:href="#DejaVuSans-32"/><use xlink:href="#DejaVuSans-30" x="63.623"/><use xlink:href="#DejaVuSans-31" x="127.246"/><use xlink:href="#DejaVuSans-36" x="190.869"/></g></g><g id="xtick_5"><use xlink:href="#m24ba9a59db" id="line2d_5" x="258.165" y="323.95" style="fill:#b0b0b0;stroke:#b0b0b0;stroke-width:.4"/><g id="text_5" style="fill:#b0b0b0" transform="matrix(.14 0 0 -.14 240.35 341.588)"><defs><path id="DejaVuSans-38" d="M2034 2216q-450 0-708-241-257-241-257-662 0-422 257-663 258-241 708-241t709 242q260 243 260 662 0 421-258 662-257 241-711 241zm-631 268q-406 100-633 378-226 279-226 679 0 559 398 884 399 325 1092 325 697 0 1094-325t397-884q0-400-227-679-226-278-629-378 456-106 710-416 255-309 255-755 0-679-414-1042Q2806-91 2034-91q-771 0-1186 362-414 363-414 1042 0 446 256 755 257 310 713 416zm-231 997q0-362 226-565 227-203 636-203 407 0 636 203 230 203 230 565 0 363-230 566-229 203-636 203-409 0-636-203-226-203-226-566z" transform="scale(.01563)"/></defs><use xlink:href="#DejaVuSans-32"/><use xlink:href="#DejaVuSans-30" x="63.623"/><use xlink:href="#DejaVuSans-31" x="127.246"/><use xlink:href="#DejaVuSans-38" x="190.869"/></g></g><g id="xtick_6"><use xlink:href="#m24ba9a59db" id="line2d_6" x="306.908" y="323.95" style="fill:#b0b0b0;stroke:#b0b0b0;stroke-width:.4"/><g id="text_6" style="fill:#b0b0b0" transform="matrix(.14 0 0 -.14 289.093 341.588)"><use xlink:href="#DejaVuSans-32"/><use xlink:href="#DejaVuSans-30" x="63.623"/><use xlink:href="#DejaVuSans-32" x="127.246"/><use xlink:href="#DejaVuSans-30" x="190.869"/></g></g><g id="xtick_7"><use xlink:href="#m24ba9a59db" id="line2d_7" x="355.717" y="323.95" style="fill:#b0b0b0;stroke:#b0b0b0;stroke-width:.4"/><g id="text_7" style="fill:#b0b0b0" transform="matrix(.14 0 0 -.14 337.902 341.588)"><use xlink:href="#DejaVuSans-32"/><use xlink:href="#DejaVuSans-30" x="63.623"/><use xlink:href="#DejaVuSans-32" x="127.246"/><use xlink:href="#DejaVuSans-32" x="190.869"/></g></g></g><g id="matplotlib.axis_2"><g id="ytick_1"><path id="line2d_8" d="M32.015 323.95h357.12" clip-path="url(#p970c08cb9c)" style="fill:none;stroke:#b0b0b0;stroke-width:.3;stroke-linecap:square"/><g id="line2d_9"><defs><path id="m556f098899" d="M0 0h-3.5" style="stroke:#b0b0b0;stroke-width:.3"/></defs><use xlink:href="#m556f098899" x="32.015" y="323.95" style="fill:#b0b0b0;stroke:#b0b0b0;stroke-width:.3"/></g><use xlink:href="#DejaVuSans-30" id="text_8" style="fill:#b0b0b0" transform="matrix(.14 0 0 -.14 16.108 329.269)"/></g><g id="ytick_2"><path id="line2d_10" d="M32.015 274.254h357.12" clip-path="url(#p970c08cb9c)" style="fill:none;stroke:#b0b0b0;stroke-width:.3;stroke-linecap:square"/><use xlink:href="#m556f098899" id="line2d_11" x="32.015" y="274.254" style="fill:#b0b0b0;stroke:#b0b0b0;stroke-width:.3"/><g id="text_9" style="fill:#b0b0b0" transform="matrix(.14 0 0 -.14 16.108 279.573)"><defs><path id="DejaVuSans-35" d="M691 4666h2478v-532H1269V2991q137 47 274 70 138 23 276 23 781 0 1237-428 457-428 457-1159 0-753-469-1171Q2575-91 1722-91q-294 0-599 50Q819 9 494 109v635q281-153 581-228t634-75q541 0 856 284 316 284 316 772 0 487-316 771-315 285-856 285-253 0-505-56-251-56-513-175v2344z" transform="scale(.01563)"/></defs><use xlink:href="#DejaVuSans-35"/></g></g><g id="ytick_3"><path id="line2d_12" d="M32.015 224.559h357.12" clip-path="url(#p970c08cb9c)" style="fill:none;stroke:#b0b0b0;stroke-width:.3;stroke-linecap:square"/><use xlink:href="#m556f098899" id="line2d_13" x="32.015" y="224.559" style="fill:#b0b0b0;stroke:#b0b0b0;stroke-width:.3"/><g id="text_10" style="fill:#b0b0b0" transform="matrix(.14 0 0 -.14 7.2 229.877)"><use xlink:href="#DejaVuSans-31"/><use xlink:href="#DejaVuSans-30" x="63.623"/></g></g><g id="ytick_4"><path id="line2d_14" d="M32.015 174.863h357.12" clip-path="url(#p970c08cb9c)" style="fill:none;stroke:#b0b0b0;stroke-width:.3;stroke-linecap:square"/><use xlink:href="#m556f098899" id="line2d_15" x="32.015" y="174.863" style="fill:#b0b0b0;stroke:#b0b0b0;stroke-width:.3"/><g id="text_11" style="fill:#b0b0b0" transform="matrix(.14 0 0 -.14 7.2 180.182)"><use xlink:href="#DejaVuSans-31"/><use xlink:href="#DejaVuSans-35" x="63.623"/></g></g><g id="ytick_5"><path id="line2d_16" d="M32.015 125.167h357.12" clip-path="url(#p970c08cb9c)" style="fill:none;stroke:#b0b0b0;stroke-width:.3;stroke-linecap:square"/><use xlink:href="#m556f098899" id="line2d_17" x="32.015" y="125.167" style="fill:#b0b0b0;stroke:#b0b0b0;stroke-width:.3"/><g id="text_12" style="fill:#b0b0b0" transform="matrix(.14 0 0 -.14 7.2 130.486)"><use xlink:href="#DejaVuSans-32"/><use xlink:href="#DejaVuSans-30" x="63.623"/></g></g><g id="ytick_6"><path id="line2d_18" d="M32.015 75.472h357.12" clip-path="url(#p970c08cb9c)" style="fill:none;stroke:#b0b0b0;stroke-width:.3;stroke-linecap:square"/><use xlink:href="#m556f098899" id="line2d_19" x="32.015" y="75.472" style="fill:#b0b0b0;stroke:#b0b0b0;stroke-width:.3"/><g id="text_13" style="fill:#b0b0b0" transform="matrix(.14 0 0 -.14 7.2 80.79)"><use xlink:href="#DejaVuSans-32"/><use xlink:href="#DejaVuSans-35" x="63.623"/></g></g></g><path id="line2d_20" d="m32.015 323.329 1.57.62h10.081l2.037-.662 2.036.663h2.037l2.036-.32h2.07l2.037.32 2.036-.32 2.037.32 2.036-.641h2.07l1.97.286 1.97-1.248 4.072.641 4.073-.641 2.07.32 2.037-.374 2.036-.588 2.037.588 2.036-.908 2.07.962 3.94.32 2.036-1.036 2.037.074 2.036-1.068 2.037 1.71 2.07-1.283 2.036.898 2.036-2.5 2.037.512 2.036.128 2.07-2.244 2.003 1.636 2.003.288 2.037-1.133 2.036 1.133 2.037-1.464 2.036.502 2.07-2.244 2.037 1.079 2.036-5.247 2.037-.716 2.036 1.677 2.07.321 1.97-1.81 1.97.528 2.036-2.373 2.037 4.617 4.072-7.054 2.07.962 2.037-1.175 2.036.213 2.037-1.87 2.036 5.397 2.07-6.092 1.97-.961 1.97 2.885 2.036.759 2.037 2.127 2.036-3.121 2.037.556h2.07l2.036-1.881 2.036 2.201 2.037.45 2.036 4.039 2.07-3.206 1.97-4.81 1.97-2.244 2.036 6.22 2.037-6.861 2.036.898 2.037 4.232 2.07-4.81 2.036 3.89 2.037-6.775 2.036 7.77 2.037-5.205 2.07-3.847 2.002 2.62 2.004 1.868 2.036.588 2.037.053 2.036-5.354 2.037-2.02 2.07 1.603 2.036 4.062 2.036-2.138 2.037 4.788 4.106-3.185 1.97-5.027 1.97-4.27 2.036 5.193 2.037-4.873 2.036 1.56 2.037-2.201 2.07 4.809 2.036-.289 2.036 2.213 2.037 4.082 2.036-4.403 2.07-1.603 1.97-3.057 1.97 4.019 2.036 5.707 2.037-11.478 2.036 4.52 2.037-1.955 2.07-15.71 2.036 14.684 2.037 2.629 2.036 5.653 2.037-5.974 2.07-.32 1.97 2.484 1.969-3.767 2.036.62 2.037-4.467 2.036 7.117 2.037-4.232 2.07 5.13 2.036 4.403 2.037-9.853 2.036 1.24 2.037 9.34 2.07-8.977 2.003 2.675 2.003-4.6 2.036-5.396 2.037 4.435 2.036 1.528 2.037 1.999 2.07-1.603 2.036 5.568 2.037 3.088 2.036-7.064 2.037 12.194 2.07-9.939 1.97 9.79 1.969-11.393 2.036 1.005 2.037-.364 2.036 2.683 2.037 1.485 2.07-3.526 2.036 8.336 2.037.961 2.036-8.581 2.037 2.49 2.07-4.489 1.97.034 1.969-7.408 2.036 13.68 2.037 1.389 2.036 6.893 2.037-9.779 2.07 4.168 2.036-5.653 2.037 5.333 2.036-2.02 2.037 3.302 2.07-.32 1.97.355 1.969 1.889 2.037-.588 2.036.588h0" clip-path="url(#p970c08cb9c)" style="fill:none;stroke:#2ca02c;stroke-width:1.5;stroke-linecap:square"/><path id="line2d_21" d="m112.84 323.95 2.003-.343 2.003.343 2.037-1.325 2.036 1.004 2.037-.01 2.036-.631 2.07-1.283 2.037-.074 2.036-.887 2.037.555 2.036.086 2.07-2.244 1.97 1.614 4.006-6.082 2.037 3.185 2.036-1.86 2.036-7.117 2.07 2.565 2.037 2.233 2.036-6.08 2.037 3.761 2.036 6.177 2.07-4.168 1.97-1.133 1.97-5.279 2.036 1.09 2.037 3.399 2.036-.748 2.037-5.665 2.07 7.375 2.036-2.704 2.036-1.464 2.037 1.795 2.036 5.258 2.07-5.13 1.97-5.381 1.97.893 2.036.716 2.037.566 2.036-2.554 2.037-.973 2.07.962 2.036-3.633 2.037 3.954 2.036-2.96 2.037 6.487 2.07-7.695 2.002 1.47 2.004-7.562 2.036 1.005 2.037-4.211 2.036 1.892 2.037.993 2.07-1.603 2.036-4.691 2.036 6.294 2.037-3.313 2.036 4.596 2.07 1.282 1.97-8.244 1.97-4.58 2.036-1.999 2.037.075 2.036-.737 2.037 2.981 2.07-4.809 2.036 7.46 2.036 1.517 2.037-9.137 2.036 13.626 2.07-7.374 1.97-8.382 1.97-.595 2.036-1.25 2.037-3.24 2.036-11.007 2.037 6.52 2.07.32 2.036-1.208 2.037-6.808 2.036-3.462 2.037 13.08 2.07-6.09 1.97-11.108 1.969-2.359 2.036 2.501 2.037 10.324 2.036-11.98 2.037 1.079 2.07 9.298 2.036-3.751 2.037-11.318 2.036-3.26 2.037 13.52 2.07-11.863 2.003-13.024 2.003 5.329 2.036-10.858 2.037 3.804 2.036 11.104 2.037-5.974 2.07-.64 2.036-.343 2.037.342 4.073 9.94 2.07-10.26 1.97-3.974 1.969-7.89 2.036-4.392 2.037 26.195 2.036-22.22 2.037 15.166 2.07 5.771 2.036-14.973 2.037-2.34 2.036-7.599 2.037 16.576 2.07-1.282 1.97-5.852 1.969-3.126 2.036-.352 2.037-6.06 2.036 20.306 4.107-18.703 2.036 2.8 2.037 10.987 2.036 4.584 2.037 4.072 2.07-6.733 1.97-2.45 1.969 11.107 2.037 20.177 2.036-5.429h0" clip-path="url(#p970c08cb9c)" style="fill:none;stroke:#ff7f0e;stroke-width:1.5;stroke-linecap:square"/><path id="line2d_22" d="m32.015 322.707 1.57.922 2.036-.673 2.036.353 2.07-.321 1.97.962 4.006-2.65 2.036 1.047 2.037-.054 2.036-.588 2.07-1.282 2.037-2.105 2.036 1.784 2.037-.128 2.036-2.757h2.07l1.97-4.271 1.97 1.065 2.036 3.975 2.036-5.258 2.037-3.024 2.036 3.024 2.07-4.168 2.037 3.463 4.073-4.97 2.036-4.905 2.07-.641 1.97-5.6 1.97 1.111 2.036.427 2.037.855 2.036-5.824 2.037 3.58 2.07-10.58 2.036-4.264 2.036 6.508 2.037-4.19 2.036.343 2.07-19.879 2.003-2.42 2.003-1.748 2.037 2.833 2.036-2.512 2.037-4.115 4.106.588 2.037 3.72 2.036-2.758 2.037-4.531 2.036 2.287 4.04-43.558 1.97 22.076 2.036-2.671 2.037 6.519 2.036 8.058 2.036-11.906 2.07-.961 2.037-9.993 2.036 7.107 2.037-6.113 2.036 19.258 2.07-25.649 3.94-12.504 2.036 19.226 2.037 3.858 2.036 5.419 2.037-34.274 2.07 26.932 2.036-6.242 2.036 3.035 2.037 6.573 2.036 21.321 2.07-30.78 1.97-13.969 1.97 2.748 2.036 6.765 4.073-19.547 2.037-3.57 2.07-9.297 2.036 21.813 2.037-8.668 2.036-1.934 2.037 10.27 2.07-25.328 2.002-5.174 2.004 16.395 2.036-2.458 2.037 3.42 2.036-.438 2.037 3.003 2.07-21.481 2.036 2.575 2.036 13.776 2.037-2.843 2.036 18.553 2.07-6.733 1.97-13.145 1.97-33.344 2.036 25.393 2.037-5.835 2.036 5.835 2.037 1.218 2.07 1.924 2.036 10.773 2.036 2.372 2.037-3.698 2.036 28.386 2.07-27.573 1.97-11.485 1.97-9.356 2.036 35.6 2.037 6.08 2.036-20.326 2.037 12.632 2.07-3.848 2.036-8.784 2.037-1.155 2.036 12.75 2.037 2.96 2.07-14.107 1.97-3.927 1.969-11.783 2.036 12.28 2.037-1.7 2.036 5.675 2.037-13.69 2.07 11.863 2.036-18.382 2.037-16.565 2.036-11.596 2.037 14.481 2.07-20.84 2.003-3.637 2.003-22.653 2.036-42.557 2.037-10.345 2.036 1.4 2.037 31.623 2.07 38.795 2.036-10.12 2.037-16.17 2.036 21.801 2.037 10.26 2.07-35.588 1.97-5.909 1.969-16.535 2.036 22.262 2.037 19.419 2.036-38.303 2.037 29.325 2.07-27.252 2.036 23.106 2.037-11.564 2.036-4.67 2.037 38.014 2.07-31.74 1.97-7.031 1.969-25.352 2.036 39.692 2.037-17.57 2.036 35.46 2.037-31.933 2.07-10.58 2.036 11.702 2.037-.16 2.036-16.736 2.037 42.706 2.07-15.39 1.97.584 1.969 7.753 2.037 48.83 2.036-4.265h0" clip-path="url(#p970c08cb9c)" style="fill:none;stroke:#1f77b4;stroke-width:1.5;stroke-linecap:square"/><g id="text_14" style="fill:#1f77b4" transform="matrix(.14 0 0 -.14 399.849 157.565)"><defs><path id="DejaVuSans-67" d="M2906 1791q0 625-258 968-257 344-723 344-462 0-720-344-258-343-258-968 0-622 258-966t720-344q466 0 723 344 258 344 258 966zm575-1357q0-893-397-1329-396-436-1215-436-303 0-572 45t-522 139v559q253-137 500-202 247-66 503-66 566 0 847 295t281 892v285q-178-310-456-463T1784 0Q1141 0 747 490 353 981 353 1791q0 812 394 1302 394 491 1037 491 388 0 666-153t456-462v531h575V434z" transform="scale(.01563)"/><path id="DejaVuSans-69" d="M603 3500h575V0H603v3500zm0 1363h575v-729H603v729z" transform="scale(.01563)"/><path id="DejaVuSans-74" d="M1172 4494v-994h1184v-447H1172V1153q0-428 117-550t477-122h590V0h-590q-666 0-919 248-253 249-253 905v1900H172v447h422v994h578z" transform="scale(.01563)"/><path id="DejaVuSans-68" d="M3513 2113V0h-575v2094q0 497-194 743-194 247-581 247-466 0-735-297-269-296-269-809V0H581v4863h578V2956q207 316 486 472 280 156 646 156 603 0 912-373 310-373 310-1098z" transform="scale(.01563)"/><path id="DejaVuSans-75" d="M544 1381v2119h575V1403q0-497 193-746 194-248 582-248 465 0 735 297 271 297 271 810v1984h575V0h-575v538q-209-319-486-474-276-155-642-155-603 0-916 375-312 375-312 1097zm1447 2203z" transform="scale(.01563)"/><path id="DejaVuSans-62" d="M3116 1747q0 634-261 995t-717 361q-457 0-718-361t-261-995q0-634 261-995t718-361q456 0 717 361t261 995zM1159 2969q182 312 458 463 277 152 661 152 638 0 1036-506 399-506 399-1331T3314 415Q2916-91 2278-91q-384 0-661 152-276 152-458 464V0H581v4863h578V2969z" transform="scale(.01563)"/></defs><use xlink:href="#DejaVuSans-67"/><use xlink:href="#DejaVuSans-69" x="63.477"/><use xlink:href="#DejaVuSans-74" x="91.26"/><use xlink:href="#DejaVuSans-68" x="130.469"/><use xlink:href="#DejaVuSans-75" x="193.848"/><use xlink:href="#DejaVuSans-62" x="257.227"/></g><g id="text_15" style="fill:#ff7f0e" transform="matrix(.14 0 0 -.14 399.849 262.086)"><defs><path id="DejaVuSans-6c" d="M603 4863h575V0H603v4863z" transform="scale(.01563)"/><path id="DejaVuSans-61" d="M2194 1759q-697 0-966-159t-269-544q0-306 202-486 202-179 548-179 479 0 768 339t289 901v128h-572zm1147 238V0h-575v531q-197-318-491-470T1556-91q-537 0-855 302-317 302-317 808 0 590 395 890 396 300 1180 300h807v57q0 397-261 614t-733 217q-300 0-585-72-284-72-546-216v532q315 122 612 182 297 61 578 61 760 0 1135-394 375-393 375-1193z" transform="scale(.01563)"/></defs><use xlink:href="#DejaVuSans-67"/><use xlink:href="#DejaVuSans-69" x="63.477"/><use xlink:href="#DejaVuSans-74" x="91.26"/><use xlink:href="#DejaVuSans-6c" x="130.469"/><use xlink:href="#DejaVuSans-61" x="158.252"/><use xlink:href="#DejaVuSans-62" x="219.531"/></g><g id="text_16" style="fill:#2ca02c" transform="matrix(.14 0 0 -.14 399.849 310.179)"><defs><path id="DejaVuSans-63" d="M3122 3366v-538q-244 135-489 202t-495 67q-560 0-870-355-309-354-309-995t309-996q310-354 870-354 250 0 495 67t489 202V134Q2881 22 2623-34q-257-57-548-57-791 0-1257 497-465 497-465 1341 0 856 470 1346 471 491 1290 491 265 0 518-55 253-54 491-163z" transform="scale(.01563)"/><path id="DejaVuSans-6b" d="M581 4863h578V1991l1716 1509h734L1753 1863 3688 0h-750L1159 1709V0H581v4863z" transform="scale(.01563)"/><path id="DejaVuSans-65" d="M3597 1894v-281H953q38-594 358-905t892-311q331 0 642 81t618 244V178Q3153 47 2828-22t-659-69q-838 0-1327 487-489 488-489 1320 0 859 464 1363 464 505 1252 505 706 0 1117-455 411-454 411-1235zm-575 169q-6 471-264 752-258 282-683 282-481 0-770-272t-333-766l2050 4z" transform="scale(.01563)"/></defs><use xlink:href="#DejaVuSans-62"/><use xlink:href="#DejaVuSans-69" x="63.477"/><use xlink:href="#DejaVuSans-74" x="91.26"/><use xlink:href="#DejaVuSans-62" x="130.469"/><use xlink:href="#DejaVuSans-75" x="193.945"/><use xlink:href="#DejaVuSans-63" x="257.324"/><use xlink:href="#DejaVuSans-6b" x="312.305"/><use xlink:href="#DejaVuSans-65" x="366.59"/><use xlink:href="#DejaVuSans-74" x="428.113"/></g><g id="text_17" style="fill:#b0b0b0" transform="matrix(.09716 0 0 -.09716 32.015 357.986)"><defs><path id="DejaVuSans-40" d="M2381 1678q0-447 222-702 222-254 610-254 384 0 604 256 221 256 221 700 0 438-225 695-225 258-607 258-378 0-602-256-223-256-223-697zm1703-934q-187-241-429-355t-564-114q-538 0-874 389t-336 1014q0 625 337 1015 338 391 873 391 322 0 565-117 244-117 428-354v409h447V722q457 69 714 417 258 349 258 902 0 334-99 628-98 294-298 544-325 409-792 626t-1017 217q-384 0-738-102-353-101-653-301-490-319-767-836-276-517-276-1120 0-497 179-932 180-434 521-765 328-325 759-495 431-171 922-171 403 0 792 136t714 389l281-347q-390-303-851-464t-936-161q-578 0-1091 205-512 205-912 595Q841 78 631 592q-209 514-209 1105 0 569 212 1084 213 516 607 907 403 396 931 607t1119 211q662 0 1229-272 568-271 952-771 234-307 357-666 124-359 124-744 0-822-497-1297T4084 263v481z" transform="scale(.01563)"/><path id="DejaVuSans-6e" d="M3513 2113V0h-575v2094q0 497-194 743-194 247-581 247-466 0-735-297-269-296-269-809V0H581v3500h578v-544q207 316 486 472 280 156 646 156 603 0 912-373 310-373 310-1098z" transform="scale(.01563)"/><path id="DejaVuSans-73" d="M2834 3397v-544q-243 125-506 187-262 63-544 63-428 0-642-131t-214-394q0-200 153-314t616-217l197-44q612-131 870-370t258-667q0-488-386-773Q2250-91 1575-91q-281 0-586 55T347 128v594q319-166 628-249 309-82 613-82 406 0 624 139 219 139 219 392 0 234-158 359-157 125-692 241l-200 47q-534 112-772 345-237 233-237 639 0 494 350 762 350 269 994 269 318 0 599-47 282-46 519-140z" transform="scale(.01563)"/><path id="DejaVuSans-6f" d="M1959 3097q-462 0-731-361t-269-989q0-628 267-989 268-361 733-361 460 0 728 362 269 363 269 988 0 622-269 986-268 364-728 364zm0 487q750 0 1178-488 429-487 429-1349 0-859-429-1349Q2709-91 1959-91q-753 0-1180 489-426 490-426 1349 0 862 426 1349 427 488 1180 488z" transform="scale(.01563)"/><path id="DejaVuSans-2f" d="M1625 4666h531L531-594H0l1625 5260z" transform="scale(.01563)"/><path id="DejaVuSans-76" d="M191 3500h609L1894 563l1094 2937h609L2284 0h-781L191 3500z" transform="scale(.01563)"/><path id="DejaVuSans-72" d="M2631 2963q-97 56-211 82-114 27-251 27-488 0-749-317t-261-911V0H581v3500h578v-544q182 319 472 473 291 155 707 155 59 0 131-8 72-7 159-23l3-590z" transform="scale(.01563)"/><path id="DejaVuSans-66" d="M2375 4863v-479h-550q-309 0-430-125-120-125-120-450v-309h947v-447h-947V0H697v3053H147v447h550v244q0 584 272 851 272 268 862 268h544z" transform="scale(.01563)"/><path id="DejaVuSans-77" d="M269 3500h575l719-2731 715 2731h678l719-2731 716 2731h575L4050 0h-678l-753 2869L1863 0h-679L269 3500z" transform="scale(.01563)"/><path id="DejaVuSans-2d" d="M313 2009h1684v-512H313v512z" transform="scale(.01563)"/><path id="DejaVuSans-64" d="M2906 2969v1894h575V0h-575v525q-181-312-458-464-276-152-664-152-634 0-1033 506-398 507-398 1332t398 1331q399 506 1033 506 388 0 664-152 277-151 458-463zM947 1747q0-634 261-995t717-361q456 0 718 361 263 361 263 995t-263 995q-262 361-718 361t-717-361q-261-361-261-995z" transform="scale(.01563)"/><path id="DejaVuSans-7c" d="M1344 4891v-6400H813v6400h531z" transform="scale(.01563)"/><path id="DejaVuSans-4e" d="M628 4666h850L3547 763v3903h612V0h-850L1241 3903V0H628v4666z" transform="scale(.01563)"/><path id="DejaVuSans-53" d="M3425 4513v-616q-359 172-678 256-319 85-616 85-515 0-795-200t-280-569q0-310 186-468 186-157 705-254l381-78q706-135 1042-474t336-907q0-679-455-1029Q2797-91 1919-91q-331 0-705 75-373 75-773 222v650q384-215 753-325 369-109 725-109 540 0 834 212 294 213 294 607 0 343-211 537t-692 291l-385 75q-706 140-1022 440-315 300-315 835 0 619 436 975t1201 356q329 0 669-60 341-59 697-177z" transform="scale(.01563)"/><path id="DejaVuSans-f6" d="M1959 3097q-462 0-731-361t-269-989q0-628 267-989 268-361 733-361 460 0 728 362 269 363 269 988 0 622-269 986-268 364-728 364zm0 487q750 0 1178-488 429-487 429-1349 0-859-429-1349Q2709-91 1959-91q-753 0-1180 489-426 490-426 1349 0 862 426 1349 427 488 1180 488zm295 1266h634v-631h-634v631zm-1222 0h634v-631h-634v631z" transform="scale(.01563)"/><path id="DejaVuSans-6d" d="M3328 2828q216 388 516 572t706 184q547 0 844-383 297-382 297-1088V0h-578v2094q0 503-179 746-178 244-543 244-447 0-707-297-259-296-259-809V0h-578v2094q0 506-178 748t-550 242q-441 0-701-298-259-298-259-808V0H581v3500h578v-544q197 322 472 475t653 153q382 0 649-194 267-193 395-562z" transform="scale(.01563)"/><path id="DejaVuSans-43" d="M4122 4306v-665q-319 297-680 443-361 147-767 147-800 0-1225-489t-425-1414q0-922 425-1411t1225-489q406 0 767 147t680 444V359q-331-225-702-338-370-112-782-112-1060 0-1670 648-609 649-609 1771 0 1125 609 1773 610 649 1670 649 418 0 788-111 371-111 696-333z" transform="scale(.01563)"/><path id="DejaVuSans-42" d="M1259 2228V519h1013q509 0 754 211 246 211 246 645 0 438-246 645-245 208-754 208H1259zm0 1919V2741h935q462 0 688 173 227 174 227 530 0 353-227 528-226 175-688 175h-935zm-631 519h1613q722 0 1112-300 391-300 391-853 0-429-200-682t-588-315q466-100 724-418 258-317 258-792 0-625-425-966Q3088 0 2303 0H628v4666z" transform="scale(.01563)"/><path id="DejaVuSans-59" d="M-13 4666h679l1293-1919 1285 1919h678L2272 2222V0h-634v2222L-13 4666z" transform="scale(.01563)"/></defs><use xlink:href="#DejaVuSans-40"/><use xlink:href="#DejaVuSans-6e" x="100"/><use xlink:href="#DejaVuSans-73" x="163.379"/><use xlink:href="#DejaVuSans-63" x="215.479"/><use xlink:href="#DejaVuSans-68" x="270.459"/><use xlink:href="#DejaVuSans-6c" x="333.838"/><use xlink:href="#DejaVuSans-6f" x="361.621"/><use xlink:href="#DejaVuSans-65" x="422.803"/><use xlink:href="#DejaVuSans-20" x="484.326"/><use xlink:href="#DejaVuSans-2f" x="516.113"/><use xlink:href="#DejaVuSans-20" x="549.805"/><use xlink:href="#DejaVuSans-73" x="581.592"/><use xlink:href="#DejaVuSans-74" x="633.691"/><use xlink:href="#DejaVuSans-61" x="672.9"/><use xlink:href="#DejaVuSans-63" x="734.18"/><use xlink:href="#DejaVuSans-6b" x="789.16"/><use xlink:href="#DejaVuSans-6f" x="843.445"/><use xlink:href="#DejaVuSans-76" x="904.627"/><use xlink:href="#DejaVuSans-65" x="963.807"/><use xlink:href="#DejaVuSans-72" x="1025.33"/><use xlink:href="#DejaVuSans-66" x="1066.443"/><use xlink:href="#DejaVuSans-6c" x="1101.648"/><use xlink:href="#DejaVuSans-6f" x="1129.432"/><use xlink:href="#DejaVuSans-77" x="1190.613"/><use xlink:href="#DejaVuSans-2d" x="1272.4"/><use xlink:href="#DejaVuSans-74" x="1308.484"/><use xlink:href="#DejaVuSans-72" x="1347.693"/><use xlink:href="#DejaVuSans-65" x="1386.557"/><use xlink:href="#DejaVuSans-6e" x="1448.08"/><use xlink:href="#DejaVuSans-64" x="1511.459"/><use xlink:href="#DejaVuSans-73" x="1574.936"/><use xlink:href="#DejaVuSans-20" x="1627.035"/><use xlink:href="#DejaVuSans-7c" x="1658.822"/><use xlink:href="#DejaVuSans-20" x="1692.514"/><use xlink:href="#DejaVuSans-4e" x="1724.301"/><use xlink:href="#DejaVuSans-69" x="1799.105"/><use xlink:href="#DejaVuSans-63" x="1826.889"/><use xlink:href="#DejaVuSans-6f" x="1881.869"/><use xlink:href="#DejaVuSans-20" x="1943.051"/><use xlink:href="#DejaVuSans-53" x="1974.838"/><use xlink:href="#DejaVuSans-63" x="2038.314"/><use xlink:href="#DejaVuSans-68" x="2093.295"/><use xlink:href="#DejaVuSans-6c" x="2156.674"/><use xlink:href="#DejaVuSans-f6" x="2184.457"/><use xlink:href="#DejaVuSans-6d" x="2245.639"/><use xlink:href="#DejaVuSans-65" x="2343.051"/><use xlink:href="#DejaVuSans-72" x="2404.574"/><use xlink:href="#DejaVuSans-20" x="2445.688"/><use xlink:href="#DejaVuSans-7c" x="2477.475"/><use xlink:href="#DejaVuSans-20" x="2511.166"/><use xlink:href="#DejaVuSans-43" x="2542.953"/><use xlink:href="#DejaVuSans-43" x="2612.777"/><use xlink:href="#DejaVuSans-20" x="2682.602"/><use xlink:href="#DejaVuSans-42" x="2714.389"/><use xlink:href="#DejaVuSans-59" x="2777.492"/></g><g id="text_18" style="fill:#b0b0b0" transform="matrix(.14 0 0 -.14 54.43 17.838)"><defs><path id="DejaVuSans-44" d="M1259 4147V519h763q966 0 1414 437 448 438 448 1382 0 937-448 1373t-1414 436h-763zm-631 519h1297q1356 0 1990-564 635-564 635-1764 0-1207-638-1773Q3275 0 1925 0H628v4666z" transform="scale(.01563)"/><path id="DejaVuSans-79" d="M2059-325q-243-625-475-815-231-191-618-191H506v481h338q237 0 368 113 132 112 291 531l103 262L191 3500h609L1894 763l1094 2737h609L2059-325z" transform="scale(.01563)"/><path id="DejaVuSans-71" d="M947 1747q0-634 261-995t717-361q456 0 718 361 263 361 263 995t-263 995q-262 361-718 361t-717-361q-261-361-261-995zM2906 525q-181-312-458-464-276-152-664-152-634 0-1033 506-398 507-398 1332t398 1331q399 506 1033 506 388 0 664-152 277-151 458-463v531h575v-4831h-575V525z" transform="scale(.01563)"/><path id="DejaVuSans-4f" d="M2522 4238q-688 0-1093-513-404-512-404-1397 0-881 404-1394 405-512 1093-512 687 0 1089 512 402 513 402 1394 0 885-402 1397-402 513-1089 513zm0 512q981 0 1568-658 588-658 588-1764 0-1103-588-1761Q3503-91 2522-91q-984 0-1574 656-589 657-589 1763t589 1764q590 658 1574 658z" transform="scale(.01563)"/></defs><use xlink:href="#DejaVuSans-44"/><use xlink:href="#DejaVuSans-61" x="77.002"/><use xlink:href="#DejaVuSans-69" x="138.281"/><use xlink:href="#DejaVuSans-6c" x="166.064"/><use xlink:href="#DejaVuSans-79" x="193.848"/><use xlink:href="#DejaVuSans-20" x="253.027"/><use xlink:href="#DejaVuSans-6e" x="284.814"/><use xlink:href="#DejaVuSans-75" x="348.193"/><use xlink:href="#DejaVuSans-6d" x="411.572"/><use xlink:href="#DejaVuSans-62" x="508.984"/><use xlink:href="#DejaVuSans-65" x="572.461"/><use xlink:href="#DejaVuSans-72" x="633.984"/><use xlink:href="#DejaVuSans-20" x="675.098"/><use xlink:href="#DejaVuSans-6f" x="706.885"/><use xlink:href="#DejaVuSans-66" x="768.066"/><use xlink:href="#DejaVuSans-20" x="803.271"/><use xlink:href="#DejaVuSans-71" x="835.059"/><use xlink:href="#DejaVuSans-75" x="898.535"/><use xlink:href="#DejaVuSans-65" x="961.914"/><use xlink:href="#DejaVuSans-73" x="1023.438"/><use xlink:href="#DejaVuSans-74" x="1075.537"/><use xlink:href="#DejaVuSans-69" x="1114.746"/><use xlink:href="#DejaVuSans-6f" x="1142.529"/><use xlink:href="#DejaVuSans-6e" x="1203.711"/><use xlink:href="#DejaVuSans-73" x="1267.09"/><use xlink:href="#DejaVuSans-20" x="1319.189"/><use xlink:href="#DejaVuSans-6f" x="1350.977"/><use xlink:href="#DejaVuSans-6e" x="1412.158"/><use xlink:href="#DejaVuSans-20" x="1475.537"/><use xlink:href="#DejaVuSans-53" x="1507.324"/><use xlink:href="#DejaVuSans-74" x="1570.801"/><use xlink:href="#DejaVuSans-61" x="1610.01"/><use xlink:href="#DejaVuSans-63" x="1671.289"/><use xlink:href="#DejaVuSans-6b" x="1726.27"/><use xlink:href="#DejaVuSans-4f" x="1784.18"/><use xlink:href="#DejaVuSans-76" x="1862.891"/><use xlink:href="#DejaVuSans-65" x="1922.07"/><use xlink:href="#DejaVuSans-72" x="1983.594"/><use xlink:href="#DejaVuSans-66" x="2024.707"/><use xlink:href="#DejaVuSans-6c" x="2059.912"/><use xlink:href="#DejaVuSans-6f" x="2087.695"/><use xlink:href="#DejaVuSans-77" x="2148.877"/></g></g></g><defs><clipPath id="p970c08cb9c"><path d="M32.015 57.838h357.12V323.95H32.015z"/></clipPath></defs></svg>