<svg xmlns="http://www.w3.org/2000/svg" xmlns:xlink="http://www.w3.org/1999/xlink" width="737.413" height="489.969" viewBox="0 0 553.06 367.477"><defs><style>*{stroke-linejoin:round;stroke-linecap:butt}</style></defs><g id="figure_1"><path id="patch_1" d="M0 367.477h553.06V0H0v367.477z" style="fill:none"/><g id="axes_1"><path id="patch_2" d="M23.108 323.95h357.12V57.838H23.108V323.95z" style="fill:none"/><g id="matplotlib.axis_1"><g id="xtick_1"><g id="line2d_1"><defs><path id="m40080db00b" d="M0 0v3.5" style="stroke:#b0b0b0;stroke-width:.4"/></defs><use xlink:href="#m40080db00b" x="54.69" y="323.95" style="fill:#b0b0b0;stroke:#b0b0b0;stroke-width:.4"/></g><g id="text_1" style="fill:#b0b0b0" transform="matrix(.14 0 0 -.14 36.875 341.588)"><defs><path id="DejaVuSans-32" d="M1228 531h2203V0H469v531q359 372 979 998 621 627 780 809 303 340 423 576 121 236 121 464 0 372-261 606-261 235-680 235-297 0-627-103-329-103-704-313v638q381 153 712 231 332 78 607 78 725 0 1156-363 431-362 431-968 0-288-108-546-107-257-392-607-78-91-497-524-418-433-1181-1211z" transform="scale(.01563)"/><path id="DejaVuSans-30" d="M2034 4250q-487 0-733-480-245-479-245-1442 0-959 245-1439 246-480 733-480 491 0 736 480 246 480 246 1439 0 963-246 1442-245 480-736 480zm0 500q785 0 1199-621 414-620 414-1801 0-1178-414-1799Q2819-91 2034-91q-784 0-1198 620-414 621-414 1799 0 1181 414 1801 414 621 1198 621z" transform="scale(.01563)"/><path id="DejaVuSans-31" d="M794 531h1031v3560L703 3866v575l1116 225h631V531h1031V0H794v531z" transform="scale(.01563)"/></defs><use xlink:href="#DejaVuSans-32"/><use xlink:href="#DejaVuSans-30" x="63.623"/><use xlink:href="#DejaVuSans-31" x="127.246"/><use xlink:href="#DejaVuSans-30" x="190.869"/></g></g><g id="xtick_2"><use xlink:href="#m40080db00b" id="line2d_2" x="104.271" y="323.95" style="fill:#b0b0b0;stroke:#b0b0b0;stroke-width:.4"/><g id="text_2" style="fill:#b0b0b0" transform="matrix(.14 0 0 -.14 86.456 341.588)"><use xlink:href="#DejaVuSans-32"/><use xlink:href="#DejaVuSans-30" x="63.623"/><use xlink:href="#DejaVuSans-31" x="127.246"/><use xlink:href="#DejaVuSans-32" x="190.869"/></g></g><g id="xtick_3"><use xlink:href="#m40080db00b" id="line2d_3" x="153.92" y="323.95" style="fill:#b0b0b0;stroke:#b0b0b0;stroke-width:.4"/><g id="text_3" style="fill:#b0b0b0" transform="matrix(.14 0 0 -.14 136.105 341.588)"><defs><path id="DejaVuSans-34" d="M2419 4116 825 1625h1594v2491zm-166 550h794V1625h666v-525h-666V0h-628v1100H313v609l1940 2957z" transform="scale(.01563)"/></defs><use xlink:href="#DejaVuSans-32"/><use xlink:href="#DejaVuSans-30" x="63.623"/><use xlink:href="#DejaVuSans-31" x="127.246"/><use xlink:href="#DejaVuSans-34" x="190.869"/></g></g><g id="xtick_4"><use xlink:href="#m40080db00b" id="line2d_4" x="203.501" y="323.95" style="fill:#b0b0b0;stroke:#b0b0b0;stroke-width:.4"/><g id="text_4" style="fill:#b0b0b0" transform="matrix(.14 0 0 -.14 185.686 341.588)"><defs><path id="DejaVuSans-36" d="M2113 2584q-425 0-674-291-248-290-248-796 0-503 248-796 249-292 674-292t673 292q248 293 248 796 0 506-248 796-248 291-673 291zm1253 1979v-575q-238 112-480 171-242 60-480 60-625 0-955-422-329-422-376-1275 184 272 462 417 279 145 613 145 703 0 1111-427 408-426 408-1160 0-719-425-1154Q2819-91 2113-91q-810 0-1238 620-428 621-428 1799 0 1106 525 1764t1409 658q238 0 480-47t505-140z" transform="scale(.01563)"/></defs><use xlink:href="#DejaVuSans-32"/><use xlink:href="#DejaVuSans-30" x="63.623"/><use xlink:href="#DejaVuSans-31" x="127.246"/><use xlink:href="#DejaVuSans-36" x="190.869"/></g></g><g id="xtick_5"><use xlink:href="#m40080db00b" id="line2d_5" x="253.15" y="323.95" style="fill:#b0b0b0;stroke:#b0b0b0;stroke-width:.4"/><g id="text_5" style="fill:#b0b0b0" transform="matrix(.14 0 0 -.14 235.335 341.588)"><defs><path id="DejaVuSans-38" d="M2034 2216q-450 0-708-241-257-241-257-662 0-422 257-663 258-241 708-241t709 242q260 243 260 662 0 421-258 662-257 241-711 241zm-631 268q-406 100-633 378-226 279-226 679 0 559 398 884 399 325 1092 325 697 0 1094-325t397-884q0-400-227-679-226-278-629-378 456-106 710-416 255-309 255-755 0-679-414-1042Q2806-91 2034-91q-771 0-1186 362-414 363-414 1042 0 446 256 755 257 310 713 416zm-231 997q0-362 226-565 227-203 636-203 407 0 636 203 230 203 230 565 0 363-230 566-229 203-636 203-409 0-636-203-226-203-226-566z" transform="scale(.01563)"/></defs><use xlink:href="#DejaVuSans-32"/><use xlink:href="#DejaVuSans-30" x="63.623"/><use xlink:href="#DejaVuSans-31" x="127.246"/><use xlink:href="#DejaVuSans-38" x="190.869"/></g></g><g id="xtick_6"><use xlink:href="#m40080db00b" id="line2d_6" x="302.732" y="323.95" style="fill:#b0b0b0;stroke:#b0b0b0;stroke-width:.4"/><g id="text_6" style="fill:#b0b0b0" transform="matrix(.14 0 0 -.14 284.917 341.588)"><use xlink:href="#DejaVuSans-32"/><use xlink:href="#DejaVuSans-30" x="63.623"/><use xlink:href="#DejaVuSans-32" x="127.246"/><use xlink:href="#DejaVuSans-30" x="190.869"/></g></g><g id="xtick_7"><use xlink:href="#m40080db00b" id="line2d_7" x="352.381" y="323.95" style="fill:#b0b0b0;stroke:#b0b0b0;stroke-width:.4"/><g id="text_7" style="fill:#b0b0b0" transform="matrix(.14 0 0 -.14 334.566 341.588)"><use xlink:href="#DejaVuSans-32"/><use xlink:href="#DejaVuSans-30" x="63.623"/><use xlink:href="#DejaVuSans-32" x="127.246"/><use xlink:href="#DejaVuSans-32" x="190.869"/></g></g></g><g id="matplotlib.axis_2"><g id="ytick_1"><path id="line2d_8" d="M23.108 323.95h357.12" clip-path="url(#pe09e294a95)" style="fill:none;stroke:#b0b0b0;stroke-width:.3;stroke-linecap:square"/><g id="line2d_9"><defs><path id="m9fd12222b9" d="M0 0h-3.5" style="stroke:#b0b0b0;stroke-width:.3"/></defs><use xlink:href="#m9fd12222b9" x="23.108" y="323.95" style="fill:#b0b0b0;stroke:#b0b0b0;stroke-width:.3"/></g><use xlink:href="#DejaVuSans-30" id="text_8" style="fill:#b0b0b0" transform="matrix(.14 0 0 -.14 7.2 329.269)"/></g><g id="ytick_2"><path id="line2d_10" d="M23.108 275.988h357.12" clip-path="url(#pe09e294a95)" style="fill:none;stroke:#b0b0b0;stroke-width:.3;stroke-linecap:square"/><use xlink:href="#m9fd12222b9" id="line2d_11" x="23.108" y="275.988" style="fill:#b0b0b0;stroke:#b0b0b0;stroke-width:.3"/><use xlink:href="#DejaVuSans-31" id="text_9" style="fill:#b0b0b0" transform="matrix(.14 0 0 -.14 7.2 281.307)"/></g><g id="ytick_3"><path id="line2d_12" d="M23.108 228.026h357.12" clip-path="url(#pe09e294a95)" style="fill:none;stroke:#b0b0b0;stroke-width:.3;stroke-linecap:square"/><use xlink:href="#m9fd12222b9" id="line2d_13" x="23.108" y="228.026" style="fill:#b0b0b0;stroke:#b0b0b0;stroke-width:.3"/><use xlink:href="#DejaVuSans-32" id="text_10" style="fill:#b0b0b0" transform="matrix(.14 0 0 -.14 7.2 233.345)"/></g><g id="ytick_4"><path id="line2d_14" d="M23.108 180.064h357.12" clip-path="url(#pe09e294a95)" style="fill:none;stroke:#b0b0b0;stroke-width:.3;stroke-linecap:square"/><use xlink:href="#m9fd12222b9" id="line2d_15" x="23.108" y="180.064" style="fill:#b0b0b0;stroke:#b0b0b0;stroke-width:.3"/><g id="text_11" style="fill:#b0b0b0" transform="matrix(.14 0 0 -.14 7.2 185.383)"><defs><path id="DejaVuSans-33" d="M2597 2516q453-97 707-404 255-306 255-756 0-690-475-1069Q2609-91 1734-91q-293 0-604 58T488 141v609q262-153 574-231 313-78 654-78 593 0 904 234t311 681q0 413-289 645-289 233-804 233h-544v519h569q465 0 712 186t247 536q0 359-255 551-254 193-729 193-260 0-557-57-297-56-653-174v562q360 100 674 150t592 50q719 0 1137-327 419-326 419-882 0-388-222-655t-631-370z" transform="scale(.01563)"/></defs><use xlink:href="#DejaVuSans-33"/></g></g><g id="ytick_5"><path id="line2d_16" d="M23.108 132.102h357.12" clip-path="url(#pe09e294a95)" style="fill:none;stroke:#b0b0b0;stroke-width:.3;stroke-linecap:square"/><use xlink:href="#m9fd12222b9" id="line2d_17" x="23.108" y="132.102" style="fill:#b0b0b0;stroke:#b0b0b0;stroke-width:.3"/><use xlink:href="#DejaVuSans-34" id="text_12" style="fill:#b0b0b0" transform="matrix(.14 0 0 -.14 7.2 137.42)"/></g><g id="ytick_6"><path id="line2d_18" d="M23.108 84.14h357.12" clip-path="url(#pe09e294a95)" style="fill:none;stroke:#b0b0b0;stroke-width:.3;stroke-linecap:square"/><use xlink:href="#m9fd12222b9" id="line2d_19" x="23.108" y="84.14" style="fill:#b0b0b0;stroke:#b0b0b0;stroke-width:.3"/><g id="text_13" style="fill:#b0b0b0" transform="matrix(.14 0 0 -.14 7.2 89.458)"><defs><path id="DejaVuSans-35" d="M691 4666h2478v-532H1269V2991q137 47 274 70 138 23 276 23 781 0 1237-428 457-428 457-1159 0-753-469-1171Q2575-91 1722-91q-294 0-599 50Q819 9 494 109v635q281-153 581-228t634-75q541 0 856 284 316 284 316 772 0 487-316 771-315 285-856 285-253 0-505-56-251-56-513-175v2344z" transform="scale(.01563)"/></defs><use xlink:href="#DejaVuSans-35"/></g></g></g><path id="line2d_20" d="m34.96 323.95 2.071-1.599 2.072 1.599h12.463l2.071-1.547h2.106l2.003-5.305 2.004 5.305 2.072 1.547h2.071l2.072-4.796 2.071 3.249 4.177-.052 2.072 1.599 2.071-3.198 2.072-6.085 2.105 7.736 2.004-5.305 2.004-.884 2.071 4.538 2.072-2.99 2.071 4.59 2.072-1.497 2.105 3.095 2.072-9.593 2.071 1.857 2.072-1.857 2.071 8.046h2.106l2.037-1.76 2.038.212 2.072-6.498 2.071 8.046 2.072 1.547 2.071-6.189 2.106 6.189 2.071-7.994 2.072-2.836 2.071-5.158 2.072 11.346 2.105-7.735 2.004-4.752 2.004 9.393 2.071-6.653 2.072 9.747 2.071-4.95 2.072 3.403 2.105-1.547 2.072 2.94 2.071-6.034 2.072-3.559 2.071 6.653 2.106-9.283 2.004 1.602 2.003 9.228 2.072-3.404 2.071.31 2.072-3.507 2.071 8.148h2.106l2.071-.154 2.072-9.129 2.071-5.26 2.072 3.713 2.106 6.189 2.003-6.134 4.075 12.22 2.072-6.086 2.071 4.487 2.072-1.393 2.105 1.547 2.072-8.148 2.071 9.695 2.072-.103 4.177-6.085 2.038 4.321 2.037-1.227 2.072-1.805 2.071.258 2.072-8.252 2.071 5.158 2.106 3.094 2.071-5.054 2.072 1.96 2.072-1.96 2.071 5.054 2.106-1.547 2.003-4.42 2.004-.222 2.071 7.53 2.072 1.753 2.071 1.444 2.072-1.444 2.105-3.094 2.072-.258 2.072 3.352 2.071-1.753 2.072 3.3 2.105-1.547 2.004-3.923 2.003-13.095 2.072 15.265 2.071-2.888 2.072 7.684 2.072.052 2.105-12.378 2.072-.464 2.071 9.747 2.072-8.148 2.071.413 2.106 4.641 2.003.884 2.004 5.305 2.071-1.65 2.072 1.65 2.072-1.65 2.071-1.445 2.106 1.547 2.071-1.701 2.072-2.94 2.071 2.94 2.072-1.393h2.105l2.038-3.734 2.037 8.376 2.072-4.848 2.072-1.341 2.071 2.94 2.072 3.249 2.105-1.548 2.072 1.496 2.071-3.043 2.072-6.55 2.071 6.55 2.106-4.641 2.003 2.431 2.004-2.431 2.072 4.487 2.071-6.034 2.072-.361 2.071 11.19 2.106-12.376 2.071 10.778 2.072-4.59 2.071-.206 2.072-1.341 2.105 4.641 2.004-.331 2.004-1.216 2.071 3.043 2.072-4.59 2.071-3.404 2.072 4.951 2.105 1.547 2.072-6.498 2.071 8.046 2.072-1.65 2.071-4.539h2.106l2.004 4.31h0" clip-path="url(#pe09e294a95)" style="fill:none;stroke:#9467bd;stroke-width:1.5;stroke-linecap:square"/><path id="line2d_21" d="m45.351 323.95 2.072-1.599 2.071 1.599h2.072l2.071-1.547h2.106l2.003-.166 2.004 1.713h4.143l2.072-1.599 2.071 1.599 2.106-3.095 2.071 3.095h6.215l2.105-1.547 2.004-.166 2.004 1.713h2.071l2.072-1.547 2.071-3.25 2.072 3.25h2.105l2.072-4.848 2.071 4.848 2.072-1.65 2.071-1.445 2.106 3.095 2.037-3.415 2.038 1.867 2.072 1.496 2.071-4.59 2.072 4.59 2.071-3.043 2.106 1.547 2.071-.103 2.072-2.99 2.071 1.392 2.072 1.701 2.105-3.094 2.004 4.476 2.004-10.664 2.071 1.186 2.072 3.455 2.071 1.34 2.072 1.754h2.105l2.072-6.55 2.071 1.909 2.072 6.085 2.071.103 2.106-4.641 2.004-2.542 2.003-8.288 2.072 4.177 2.071 5.106 2.072 6.085 2.071-2.99 2.106 6.188 2.071-1.599 2.072-18.514 2.071 13.718 2.072-4.435 2.106-1.547 2.003.386 2.004 8.896 2.071-19.287 2.072 14.646 2.071-5.054 2.072 6.601 2.105 3.094 2.072-4.899 2.071 6.447 2.072-11.243 2.072 9.695 2.105 1.548 2.038-6.723 2.037-5.655 2.072-.464 2.071.464 2.072 7.53 2.071.206 2.106 1.547 2.071-12.944 2.072 14.491 2.072-17.689 2.071 3.765 2.106 4.642 2.003-1.327 2.004-4.862 2.071 4.177 2.072-1.083 2.071-5.312 2.072 5.312 2.105 6.189 2.072-5.106 2.072-11.913 2.071 23.104 2.072-4.538 2.105 4.641 2.004 3.095 2.003-10.83 2.072 4.435 2.071-2.888 2.072-9.902 2.072-.928 2.105 3.094 2.072 9.025 2.071-2.836 2.072-8.355 2.071 8.355 2.106-3.095 2.003 5.36 2.004.829 2.071-9.85 2.072 16.039 2.072-6.447 2.071 1.805 2.106 3.094 2.071-1.701 2.072-4.487 2.071 4.487 2.072-9.129 2.105 9.283 2.038-8.59 2.037 5.496 2.072-9.85 2.072 3.661 2.071 4.332 2.072-1.237 2.105-7.736 2.072 5.776 2.071 5.054 2.072-22.64 2.071 7.168 2.106 7.736 2.003.055 2.004-7.79 2.072 10.417 2.071 1.96 2.072-6.756 2.071 12.944 2.106-6.188 2.071 6.034 2.072-13.77 2.071 2.578 2.072 2.063 2.105 3.095 2.004.552 2.004-.552 2.071 7.632 2.072-13.821 2.071 9.025 2.072.258 2.105 3.094 2.072 1.444 2.071 1.65 2.072-4.847 2.071 1.753h2.106l2.004-7.349h0" clip-path="url(#pe09e294a95)" style="fill:none;stroke:#d62728;stroke-width:1.5;stroke-linecap:square"/><path id="line2d_22" d="m28.847 323.95 2.105-3.095 2.004 3.095h14.467l2.071-1.547 2.072 1.547 2.071-1.547 2.106 1.547h2.003l2.004-1.547 2.072 1.547h2.071l2.072-1.599 2.071 1.599 2.106-1.547 2.071-.052 2.072 1.599 2.071-1.599 2.072-6.137 2.105 6.189 2.004 1.547 2.004-1.547 2.071 1.547h2.072l2.071-6.395 2.072 6.395 2.105-4.642 2.072 1.444 2.071.103 2.072 1.496 2.071-1.496 2.106-12.377 2.037 12.164 2.038.213 2.072-3.3 2.071 1.753 2.072-1.753 2.071-1.341 2.106 1.547 2.071-3.404 2.072.31 2.071-3.507 2.072 1.96 2.105 7.735 2.004-.331 2.004-1.216 2.071-9.747 2.072 5.106 2.071 4.487 2.072-2.94 2.105-1.547 2.072 6.085 2.071-15.368 2.072 8.973 2.071 3.404 2.106 3.094 2.004-7.183 2.003-6.741 2.072-2.166 2.071 6.808 2.072-.413 2.071-5.776 2.106-3.094 2.071 8.87 2.072.413 2.071 1.186 2.072 1.908h2.106l2.003-2.708 2.004 2.708 2.071-9.902 2.072 6.808 2.071-3.61 2.072 6.704h2.105l2.072 6.085 2.071-15.368 2.072 8.973 2.072 1.857 2.105-6.189 2.038.694 2.037-2.24 2.072-3.714 2.071 9.902 2.072-5.106 2.071.464 2.106 7.736 2.071-6.601 2.072-5.776 2.072-2.218 2.071 13.048 2.106 1.547 2.003-5.802 2.004-.386 2.071 5.982 2.072 1.753 2.071-20.938 2.072 17.844 2.105 3.094 2.072 1.444 2.072-2.99 2.071-6.602 2.072 6.601 2.105-9.283 2.004 5.194 2.003 7.183 2.072-11.294 2.071 3.559 2.072 2.836 2.072 4.9 2.105-3.095 2.072 1.393 2.071-7.581 2.072-8.407 2.071 13.048h2.106l2.003-2.542 2.004-9.835 2.071-2.27 2.072 2.27 2.072 8.922 2.071-2.734 2.106 1.548 2.071-.413 2.072 5.054 2.071-6.653 2.072-4.177 2.105 17.019 2.038-1.76 2.037-5.976 2.072-8.303 2.072 11.397 2.071-8.2 2.072-1.083 2.105 12.377 2.072-8.096 2.071-10.47 2.072.877 2.071 14.595 2.106-10.83 2.003 8.454 2.004-17.737 2.072 5.518 2.071-.876 2.072.876 2.071 14.595 2.106-3.094 2.071-11.5 2.072.67 2.071 15.317 2.072-9.129 2.105 3.095 2.004-2.874 2.004 7.515 2.071-14.595 2.072 11.5 2.071-.309 2.072 6.498 2.105-6.188 2.072-3.507 2.071 6.601 2.072-9.799 2.071 3.61 2.106 1.548 2.004-2.874h0" clip-path="url(#pe09e294a95)" style="fill:none;stroke:#2ca02c;stroke-width:1.5;stroke-linecap:square"/><g id="text_14" style="fill:#1f77b4" transform="matrix(.14 0 0 -.14 390.941 204.482)"><defs><path id="DejaVuSans-73" d="M2834 3397v-544q-243 125-506 187-262 63-544 63-428 0-642-131t-214-394q0-200 153-314t616-217l197-44q612-131 870-370t258-667q0-488-386-773Q2250-91 1575-91q-281 0-586 55T347 128v594q319-166 628-249 309-82 613-82 406 0 624 139 219 139 219 392 0 234-158 359-157 125-692 241l-200 47q-534 112-772 345-237 233-237 639 0 494 350 762 350 269 994 269 318 0 599-47 282-46 519-140z" transform="scale(.01563)"/><path id="DejaVuSans-79" d="M2059-325q-243-625-475-815-231-191-618-191H506v481h338q237 0 368 113 132 112 291 531l103 262L191 3500h609L1894 763l1094 2737h609L2059-325z" transform="scale(.01563)"/><path id="DejaVuSans-6d" d="M3328 2828q216 388 516 572t706 184q547 0 844-383 297-382 297-1088V0h-578v2094q0 503-179 746-178 244-543 244-447 0-707-297-259-296-259-809V0h-578v2094q0 506-178 748t-550 242q-441 0-701-298-259-298-259-808V0H581v3500h578v-544q197 322 472 475t653 153q382 0 649-194 267-193 395-562z" transform="scale(.01563)"/><path id="DejaVuSans-70" d="M1159 525v-1856H581v4831h578v-531q182 312 458 463 277 152 661 152 638 0 1036-506 399-506 399-1331T3314 415Q2916-91 2278-91q-384 0-661 152-276 152-458 464zm1957 1222q0 634-261 995t-717 361q-457 0-718-361t-261-995q0-634 261-995t718-361q456 0 717 361t261 995z" transform="scale(.01563)"/></defs><use xlink:href="#DejaVuSans-73"/><use xlink:href="#DejaVuSans-79" x="52.1"/><use xlink:href="#DejaVuSans-6d" x="111.279"/><use xlink:href="#DejaVuSans-70" x="208.691"/><use xlink:href="#DejaVuSans-79" x="272.168"/></g><g id="text_15" style="fill:#ff7f0e" transform="matrix(.14 0 0 -.14 390.941 291.397)"><defs><path id="DejaVuSans-77" d="M269 3500h575l719-2731 715 2731h678l719-2731 716 2731h575L4050 0h-678l-753 2869L1863 0h-679L269 3500z" transform="scale(.01563)"/><path id="DejaVuSans-6f" d="M1959 3097q-462 0-731-361t-269-989q0-628 267-989 268-361 733-361 460 0 728 362 269 363 269 988 0 622-269 986-268 364-728 364zm0 487q750 0 1178-488 429-487 429-1349 0-859-429-1349Q2709-91 1959-91q-753 0-1180 489-426 490-426 1349 0 862 426 1349 427 488 1180 488z" transform="scale(.01563)"/><path id="DejaVuSans-6c" d="M603 4863h575V0H603v4863z" transform="scale(.01563)"/><path id="DejaVuSans-66" d="M2375 4863v-479h-550q-309 0-430-125-120-125-120-450v-309h947v-447h-947V0H697v3053H147v447h550v244q0 584 272 851 272 268 862 268h544z" transform="scale(.01563)"/><path id="DejaVuSans-72" d="M2631 2963q-97 56-211 82-114 27-251 27-488 0-749-317t-261-911V0H581v3500h578v-544q182 319 472 473 291 155 707 155 59 0 131-8 72-7 159-23l3-590z" transform="scale(.01563)"/><path id="DejaVuSans-61" d="M2194 1759q-697 0-966-159t-269-544q0-306 202-486 202-179 548-179 479 0 768 339t289 901v128h-572zm1147 238V0h-575v531q-197-318-491-470T1556-91q-537 0-855 302-317 302-317 808 0 590 395 890 396 300 1180 300h807v57q0 397-261 614t-733 217q-300 0-585-72-284-72-546-216v532q315 122 612 182 297 61 578 61 760 0 1135-394 375-393 375-1193z" transform="scale(.01563)"/><path id="DejaVuSans-2d" d="M313 2009h1684v-512H313v512z" transform="scale(.01563)"/><path id="DejaVuSans-74" d="M1172 4494v-994h1184v-447H1172V1153q0-428 117-550t477-122h590V0h-590q-666 0-919 248-253 249-253 905v1900H172v447h422v994h578z" transform="scale(.01563)"/><path id="DejaVuSans-68" d="M3513 2113V0h-575v2094q0 497-194 743-194 247-581 247-466 0-735-297-269-296-269-809V0H581v4863h578V2956q207 316 486 472 280 156 646 156 603 0 912-373 310-373 310-1098z" transform="scale(.01563)"/><path id="DejaVuSans-65" d="M3597 1894v-281H953q38-594 358-905t892-311q331 0 642 81t618 244V178Q3153 47 2828-22t-659-69q-838 0-1327 487-489 488-489 1320 0 859 464 1363 464 505 1252 505 706 0 1117-455 411-454 411-1235zm-575 169q-6 471-264 752-258 282-683 282-481 0-770-272t-333-766l2050 4z" transform="scale(.01563)"/><path id="DejaVuSans-69" d="M603 3500h575V0H603v3500zm0 1363h575v-729H603v729z" transform="scale(.01563)"/><path id="DejaVuSans-63" d="M3122 3366v-538q-244 135-489 202t-495 67q-560 0-870-355-309-354-309-995t309-996q310-354 870-354 250 0 495 67t489 202V134Q2881 22 2623-34q-257-57-548-57-791 0-1257 497-465 497-465 1341 0 856 470 1346 471 491 1290 491 265 0 518-55 253-54 491-163z" transform="scale(.01563)"/></defs><use xlink:href="#DejaVuSans-77"/><use xlink:href="#DejaVuSans-6f" x="81.787"/><use xlink:href="#DejaVuSans-6c" x="142.969"/><use xlink:href="#DejaVuSans-66" x="170.752"/><use xlink:href="#DejaVuSans-72" x="205.957"/><use xlink:href="#DejaVuSans-61" x="247.07"/><use xlink:href="#DejaVuSans-6d" x="308.35"/><use xlink:href="#DejaVuSans-2d" x="405.762"/><use xlink:href="#DejaVuSans-6d" x="441.846"/><use xlink:href="#DejaVuSans-61" x="539.258"/><use xlink:href="#DejaVuSans-74" x="600.537"/><use xlink:href="#DejaVuSans-68" x="639.746"/><use xlink:href="#DejaVuSans-65" x="703.125"/><use xlink:href="#DejaVuSans-6d" x="764.648"/><use xlink:href="#DejaVuSans-61" x="862.061"/><use xlink:href="#DejaVuSans-74" x="923.34"/><use xlink:href="#DejaVuSans-69" x="962.549"/><use xlink:href="#DejaVuSans-63" x="990.332"/><use xlink:href="#DejaVuSans-61" x="1045.313"/></g><g id="text_16" style="fill:#2ca02c" transform="matrix(.14 0 0 -.14 390.941 305.397)"><defs><path id="DejaVuSans-67" d="M2906 1791q0 625-258 968-257 344-723 344-462 0-720-344-258-343-258-968 0-622 258-966t720-344q466 0 723 344 258 344 258 966zm575-1357q0-893-397-1329-396-436-1215-436-303 0-572 45t-522 139v559q253-137 500-202 247-66 503-66 566 0 847 295t281 892v285q-178-310-456-463T1784 0Q1141 0 747 490 353 981 353 1791q0 812 394 1302 394 491 1037 491 388 0 666-153t456-462v531h575V434z" transform="scale(.01563)"/></defs><use xlink:href="#DejaVuSans-73"/><use xlink:href="#DejaVuSans-61" x="52.1"/><use xlink:href="#DejaVuSans-67" x="113.379"/><use xlink:href="#DejaVuSans-65" x="176.855"/></g><g id="text_17" style="fill:#d62728" transform="matrix(.14 0 0 -.14 390.941 319.397)"><defs><path id="DejaVuSans-78" d="M3513 3500 2247 1797 3578 0h-678L1881 1375 863 0H184l1360 1831L300 3500h678l928-1247 928 1247h679z" transform="scale(.01563)"/></defs><use xlink:href="#DejaVuSans-6d"/><use xlink:href="#DejaVuSans-61" x="97.412"/><use xlink:href="#DejaVuSans-78" x="158.691"/><use xlink:href="#DejaVuSans-69" x="217.871"/><use xlink:href="#DejaVuSans-6d" x="245.654"/><use xlink:href="#DejaVuSans-61" x="343.066"/></g><g id="text_18" style="fill:#9467bd" transform="matrix(.14 0 0 -.14 390.941 333.397)"><use xlink:href="#DejaVuSans-6d"/><use xlink:href="#DejaVuSans-61" x="97.412"/><use xlink:href="#DejaVuSans-70" x="158.691"/><use xlink:href="#DejaVuSans-6c" x="222.168"/><use xlink:href="#DejaVuSans-65" x="249.951"/></g><g id="text_19" style="fill:#b0b0b0" transform="matrix(.09716 0 0 -.09716 23.108 357.986)"><defs><path id="DejaVuSans-40" d="M2381 1678q0-447 222-702 222-254 610-254 384 0 604 256 221 256 221 700 0 438-225 695-225 258-607 258-378 0-602-256-223-256-223-697zm1703-934q-187-241-429-355t-564-114q-538 0-874 389t-336 1014q0 625 337 1015 338 391 873 391 322 0 565-117 244-117 428-354v409h447V722q457 69 714 417 258 349 258 902 0 334-99 628-98 294-298 544-325 409-792 626t-1017 217q-384 0-738-102-353-101-653-301-490-319-767-836-276-517-276-1120 0-497 179-932 180-434 521-765 328-325 759-495 431-171 922-171 403 0 792 136t714 389l281-347q-390-303-851-464t-936-161q-578 0-1091 205-512 205-912 595Q841 78 631 592q-209 514-209 1105 0 569 212 1084 213 516 607 907 403 396 931 607t1119 211q662 0 1229-272 568-271 952-771 234-307 357-666 124-359 124-744 0-822-497-1297T4084 263v481z" transform="scale(.01563)"/><path id="DejaVuSans-6e" d="M3513 2113V0h-575v2094q0 497-194 743-194 247-581 247-466 0-735-297-269-296-269-809V0H581v3500h578v-544q207 316 486 472 280 156 646 156 603 0 912-373 310-373 310-1098z" transform="scale(.01563)"/><path id="DejaVuSans-2f" d="M1625 4666h531L531-594H0l1625 5260z" transform="scale(.01563)"/><path id="DejaVuSans-6b" d="M581 4863h578V1991l1716 1509h734L1753 1863 3688 0h-750L1159 1709V0H581v4863z" transform="scale(.01563)"/><path id="DejaVuSans-76" d="M191 3500h609L1894 563l1094 2937h609L2284 0h-781L191 3500z" transform="scale(.01563)"/><path id="DejaVuSans-64" d="M2906 2969v1894h575V0h-575v525q-181-312-458-464-276-152-664-152-634 0-1033 506-398 507-398 1332t398 1331q399 506 1033 506 388 0 664-152 277-151 458-463zM947 1747q0-634 261-995t717-361q456 0 718 361 263 361 263 995t-263 995q-262 361-718 361t-717-361q-261-361-261-995z" transform="scale(.01563)"/><path id="DejaVuSans-7c" d="M1344 4891v-6400H813v6400h531z" transform="scale(.01563)"/><path id="DejaVuSans-4e" d="M628 4666h850L3547 763v3903h612V0h-850L1241 3903V0H628v4666z" transform="scale(.01563)"/><path id="DejaVuSans-53" d="M3425 4513v-616q-359 172-678 256-319 85-616 85-515 0-795-200t-280-569q0-310 186-468 186-157 705-254l381-78q706-135 1042-474t336-907q0-679-455-1029Q2797-91 1919-91q-331 0-705 75-373 75-773 222v650q384-215 753-325 369-109 725-109 540 0 834 212 294 213 294 607 0 343-211 537t-692 291l-385 75q-706 140-1022 440-315 300-315 835 0 619 436 975t1201 356q329 0 669-60 341-59 697-177z" transform="scale(.01563)"/><path id="DejaVuSans-f6" d="M1959 3097q-462 0-731-361t-269-989q0-628 267-989 268-361 733-361 460 0 728 362 269 363 269 988 0 622-269 986-268 364-728 364zm0 487q750 0 1178-488 429-487 429-1349 0-859-429-1349Q2709-91 1959-91q-753 0-1180 489-426 490-426 1349 0 862 426 1349 427 488 1180 488zm295 1266h634v-631h-634v631zm-1222 0h634v-631h-634v631z" transform="scale(.01563)"/><path id="DejaVuSans-43" d="M4122 4306v-665q-319 297-680 443-361 147-767 147-800 0-1225-489t-425-1414q0-922 425-1411t1225-489q406 0 767 147t680 444V359q-331-225-702-338-370-112-782-112-1060 0-1670 648-609 649-609 1771 0 1125 609 1773 610 649 1670 649 418 0 788-111 371-111 696-333z" transform="scale(.01563)"/><path id="DejaVuSans-42" d="M1259 2228V519h1013q509 0 754 211 246 211 246 645 0 438-246 645-245 208-754 208H1259zm0 1919V2741h935q462 0 688 173 227 174 227 530 0 353-227 528-226 175-688 175h-935zm-631 519h1613q722 0 1112-300 391-300 391-853 0-429-200-682t-588-315q466-100 724-418 258-317 258-792 0-625-425-966Q3088 0 2303 0H628v4666z" transform="scale(.01563)"/><path id="DejaVuSans-59" d="M-13 4666h679l1293-1919 1285 1919h678L2272 2222V0h-634v2222L-13 4666z" transform="scale(.01563)"/></defs><use xlink:href="#DejaVuSans-40"/><use xlink:href="#DejaVuSans-6e" x="100"/><use xlink:href="#DejaVuSans-73" x="163.379"/><use xlink:href="#DejaVuSans-63" x="215.479"/><use xlink:href="#DejaVuSans-68" x="270.459"/><use xlink:href="#DejaVuSans-6c" x="333.838"/><use xlink:href="#DejaVuSans-6f" x="361.621"/><use xlink:href="#DejaVuSans-65" x="422.803"/><use xlink:href="#DejaVuSans-20" x="484.326"/><use xlink:href="#DejaVuSans-2f" x="516.113"/><use xlink:href="#DejaVuSans-20" x="549.805"/><use xlink:href="#DejaVuSans-73" x="581.592"/><use xlink:href="#DejaVuSans-74" x="633.691"/><use xlink:href="#DejaVuSans-61" x="672.9"/><use xlink:href="#DejaVuSans-63" x="734.18"/><use xlink:href="#DejaVuSans-6b" x="789.16"/><use xlink:href="#DejaVuSans-6f" x="843.445"/><use xlink:href="#DejaVuSans-76" x="904.627"/><use xlink:href="#DejaVuSans-65" x="963.807"/><use xlink:href="#DejaVuSans-72" x="1025.33"/><use xlink:href="#DejaVuSans-66" x="1066.443"/><use xlink:href="#DejaVuSans-6c" x="1101.648"/><use xlink:href="#DejaVuSans-6f" x="1129.432"/><use xlink:href="#DejaVuSans-77" x="1190.613"/><use xlink:href="#DejaVuSans-2d" x="1272.4"/><use xlink:href="#DejaVuSans-74" x="1308.484"/><use xlink:href="#DejaVuSans-72" x="1347.693"/><use xlink:href="#DejaVuSans-65" x="1386.557"/><use xlink:href="#DejaVuSans-6e" x="1448.08"/><use xlink:href="#DejaVuSans-64" x="1511.459"/><use xlink:href="#DejaVuSans-73" x="1574.936"/><use xlink:href="#DejaVuSans-20" x="1627.035"/><use xlink:href="#DejaVuSans-7c" x="1658.822"/><use xlink:href="#DejaVuSans-20" x="1692.514"/><use xlink:href="#DejaVuSans-4e" x="1724.301"/><use xlink:href="#DejaVuSans-69" x="1799.105"/><use xlink:href="#DejaVuSans-63" x="1826.889"/><use xlink:href="#DejaVuSans-6f" x="1881.869"/><use xlink:href="#DejaVuSans-20" x="1943.051"/><use xlink:href="#DejaVuSans-53" x="1974.838"/><use xlink:href="#DejaVuSans-63" x="2038.314"/><use xlink:href="#DejaVuSans-68" x="2093.295"/><use xlink:href="#DejaVuSans-6c" x="2156.674"/><use xlink:href="#DejaVuSans-f6" x="2184.457"/><use xlink:href="#DejaVuSans-6d" x="2245.639"/><use xlink:href="#DejaVuSans-65" x="2343.051"/><use xlink:href="#DejaVuSans-72" x="2404.574"/><use xlink:href="#DejaVuSans-20" x="2445.688"/><use xlink:href="#DejaVuSans-7c" x="2477.475"/><use xlink:href="#DejaVuSans-20" x="2511.166"/><use xlink:href="#DejaVuSans-43" x="2542.953"/><use xlink:href="#DejaVuSans-43" x="2612.777"/><use xlink:href="#DejaVuSans-20" x="2682.602"/><use xlink:href="#DejaVuSans-42" x="2714.389"/><use xlink:href="#DejaVuSans-59" x="2777.492"/></g><g id="text_20" style="fill:#b0b0b0" transform="matrix(.14 0 0 -.14 45.522 17.838)"><defs><path id="DejaVuSans-44" d="M1259 4147V519h763q966 0 1414 437 448 438 448 1382 0 937-448 1373t-1414 436h-763zm-631 519h1297q1356 0 1990-564 635-564 635-1764 0-1207-638-1773Q3275 0 1925 0H628v4666z" transform="scale(.01563)"/><path id="DejaVuSans-75" d="M544 1381v2119h575V1403q0-497 193-746 194-248 582-248 465 0 735 297 271 297 271 810v1984h575V0h-575v538q-209-319-486-474-276-155-642-155-603 0-916 375-312 375-312 1097zm1447 2203z" transform="scale(.01563)"/><path id="DejaVuSans-62" d="M3116 1747q0 634-261 995t-717 361q-457 0-718-361t-261-995q0-634 261-995t718-361q456 0 717 361t261 995zM1159 2969q182 312 458 463 277 152 661 152 638 0 1036-506 399-506 399-1331T3314 415Q2916-91 2278-91q-384 0-661 152-276 152-458 464V0H581v4863h578V2969z" transform="scale(.01563)"/><path id="DejaVuSans-71" d="M947 1747q0-634 261-995t717-361q456 0 718 361 263 361 263 995t-263 995q-262 361-718 361t-717-361q-261-361-261-995zM2906 525q-181-312-458-464-276-152-664-152-634 0-1033 506-398 507-398 1332t398 1331q399 506 1033 506 388 0 664-152 277-151 458-463v531h575v-4831h-575V525z" transform="scale(.01563)"/><path id="DejaVuSans-4f" d="M2522 4238q-688 0-1093-513-404-512-404-1397 0-881 404-1394 405-512 1093-512 687 0 1089 512 402 513 402 1394 0 885-402 1397-402 513-1089 513zm0 512q981 0 1568-658 588-658 588-1764 0-1103-588-1761Q3503-91 2522-91q-984 0-1574 656-589 657-589 1763t589 1764q590 658 1574 658z" transform="scale(.01563)"/></defs><use xlink:href="#DejaVuSans-44"/><use xlink:href="#DejaVuSans-61" x="77.002"/><use xlink:href="#DejaVuSans-69" x="138.281"/><use xlink:href="#DejaVuSans-6c" x="166.064"/><use xlink:href="#DejaVuSans-79" x="193.848"/><use xlink:href="#DejaVuSans-20" x="253.027"/><use xlink:href="#DejaVuSans-6e" x="284.814"/><use xlink:href="#DejaVuSans-75" x="348.193"/><use xlink:href="#DejaVuSans-6d" x="411.572"/><use xlink:href="#DejaVuSans-62" x="508.984"/><use xlink:href="#DejaVuSans-65" x="572.461"/><use xlink:href="#DejaVuSans-72" x="633.984"/><use xlink:href="#DejaVuSans-20" x="675.098"/><use xlink:href="#DejaVuSans-6f" x="706.885"/><use xlink:href="#DejaVuSans-66" x="768.066"/><use xlink:href="#DejaVuSans-20" x="803.271"/><use xlink:href="#DejaVuSans-71" x="835.059"/><use xlink:href="#DejaVuSans-75" x="898.535"/><use xlink:href="#DejaVuSans-65" x="961.914"/><use xlink:href="#DejaVuSans-73" x="1023.438"/><use xlink:href="#DejaVuSans-74" x="1075.537"/><use xlink:href="#DejaVuSans-69" x="1114.746"/><use xlink:href="#DejaVuSans-6f" x="1142.529"/><use xlink:href="#DejaVuSans-6e" x="1203.711"/><use xlink:href="#DejaVuSans-73" x="1267.09"/><use xlink:href="#DejaVuSans-20" x="1319.189"/><use xlink:href="#DejaVuSans-6f" x="1350.977"/><use xlink:href="#DejaVuSans-6e" x="1412.158"/><use xlink:href="#DejaVuSans-20" x="1475.537"/><use xlink:href="#DejaVuSans-53" x="1507.324"/><use xlink:href="#DejaVuSans-74" x="1570.801"/><use xlink:href="#DejaVuSans-61" x="1610.01"/><use xlink:href="#DejaVuSans-63" x="1671.289"/><use xlink:href="#DejaVuSans-6b" x="1726.27"/><use xlink:href="#DejaVuSans-4f" x="1784.18"/><use xlink:href="#DejaVuSans-76" x="1862.891"/><use xlink:href="#DejaVuSans-65" x="1922.07"/><use xlink:href="#DejaVuSans-72" x="1983.594"/><use xlink:href="#DejaVuSans-66" x="2024.707"/><use xlink:href="#DejaVuSans-6c" x="2059.912"/><use xlink:href="#DejaVuSans-6f" x="2087.695"/><use xlink:href="#DejaVuSans-77" x="2148.877"/></g><path id="line2d_23" d="m23.108 317.955 1.596 4.448 2.071-.052 2.072 1.599h2.105l2.004-3.426 2.003 1.879 2.072-.052 2.072-4.59 2.071 1.393 2.072-6.034 2.105 1.547 4.143-20.113 2.072 15.007 2.071 3.559 2.106 6.188 2.003-15.913 2.004 5.083 2.072-5.312 2.071 2.218 2.072-3.816 2.071 5.363 2.106-15.472 2.071 5.312 2.072-28.519 2.071-57.812 2.072 53.17 4.109-90.398 2.004-20.997 2.071-23.31 2.072 1.65 2.071-33.626 2.072 36.72 2.105 30.943 2.072-48.478 2.071 11.346 2.072-3.352 2.071-66.27 2.106 43.32 2.037 166.56 2.038 8.27 2.072-9.593 2.071 4.951 2.072-.154 2.071 17.173 2.106-3.094 2.071-18.876 2.072-15.162 2.071 13.564 2.072 1.908h2.105l2.004-7.847 2.004 7.847 2.071-14.698 2.072 16.245 2.071-13.048 2.072 33.161 2.105-13.924 2.072-1.65 2.071 7.838 2.072-9.437 2.071 20.267 2.106-13.924 2.004 5.304 2.003-13.04 2.072 14.182 2.071 10.573 2.072-7.375 2.071-18.927 2.106 24.755 2.071-12.223 2.072-.155 2.071 4.951 2.072-9.592 2.106 12.377 2.003-2.1 2.004-18.013 2.071 7.736 2.072-4.642 2.071 15.833 2.072 8.922 2.105 3.094 2.072.774 2.071 10.056 2.072 2.734 2.072-22.847 4.143 5.922 2.037-12.11 2.072-1.341 2.071 2.888 2.072 16.297 2.071-8.561 2.106 10.83 2.071-13.46 2.072 11.913 2.072-3.92 2.071.825 2.106-9.283 2.003 13.483 2.004-2.653 2.071-7.168 2.072 4.074 2.071-7.272 2.072 11.914h2.105l2.072-.722 2.072 2.269 2.071-29.448 2.072 26.353 2.105 12.378 2.004-4.587 2.003-12.432 2.072 5.467 2.071-13.203 2.072 13.203 2.072 3.816 2.105-9.283 4.143 4.641 2.072-5.57 2.071 2.476 2.106 1.547 2.003-.94 2.004-.607 2.071 2.32 2.072-11.603 2.072 22.795 2.071-13.512 2.106-3.094 2.071-7.375 2.072 12.016 4.143-1.547 2.105-1.547 2.038-13.498 2.037 18.14 2.072-10.367 2.072-8.2 4.143 23.208 2.105-15.472 2.072 2.063 2.071 16.503 2.072-11.707 2.071-2.217 2.106-3.095 2.003 11.936 2.004-5.747 2.072-.877 2.071 16.349 2.072-24.342 4.177 21.247 2.071-.464 2.072-15.007 2.071 13.408 2.072 2.063 2.105-7.735 2.004-4.034 2.004-5.25 2.071 3.765 2.072 8.613 2.071-2.218 2.072 6.86 2.105-3.095 2.072-6.962 2.071 2.32 2.072.877 2.071 3.765 2.106 1.547 2.004-17.074h0" clip-path="url(#pe09e294a95)" style="fill:none;stroke:#ff7f0e;stroke-width:1.5;stroke-linecap:square"/><path id="line2d_24" d="m23.108 323.95 1.596-1.547 2.071 1.547h12.328l2.071-1.599 2.072 1.599h6.248l2.072-1.599 4.177.052 2.003 1.547 2.004-4.642 2.072 4.642h2.071l2.072-1.599 2.071-3.043 2.106 4.642h2.071l2.072-3.095 2.071-.103 2.072-1.444 2.105 4.642 2.004-1.713 2.004-2.929 2.071 4.642 2.072-3.095 2.071 1.496 2.072-4.59 2.105 3.094 2.072 1.496 2.071-6.137 2.072 4.538 2.071 1.65h2.106l2.037-5.068 2.038 3.521 2.072-3.3 2.071 3.3 2.072-1.701 2.071-1.393 2.106 3.094 2.071-1.701 2.072-9.129 2.071 2.734 2.072 3.455 2.105-4.641 2.004 7.238 2.004-11.88 2.071-10.16 2.072 5.519 2.071-7.117 2.072 11.758h2.105l2.072 5.828 2.071-15.111 2.072-.877 2.071 10.16 2.106-21.66 2.004-7.57 2.003-.166 2.072 11.243 2.071 13.512 2.072-8.716 2.071-3.662 2.106 12.378 2.071-21.506 2.072 7.581 2.071-4.384 2.072 2.837 2.106-3.094 2.003 11.106 2.004-14.2 2.071-9.438 2.072-1.393 2.071 7.788 2.072 9.23 2.105 3.095 2.072-5.93 2.071-23.466 2.072 9.077 2.072 14.13h2.105l2.038-4.428 2.037-17.232 2.072-10.056 2.071 19.34 2.072-17.742 2.071 16.194 2.106-1.547 2.071-5.054 2.072 6.601 2.072-5.002 2.071 23.568 2.106-29.396 2.003-.11 2.004-16.909 2.071 6.86 2.072-9.954 2.071 35.533 2.072-12.326 2.105-1.547 2.072-8.51 2.072-.773 2.071 31.15 2.072-23.414 2.105-17.019 2.004 18.621 2.003-12.432 2.072-.928 2.071-16.091 2.072 32.078 2.072-10.418 2.105 26.302L270.674 260l2.071-5.673 2.072-10.314 2.071 10.314 2.106 17.02 2.003 2.928 2.004-30.778 2.071-21.866 2.072 23.414 2.072 6.962 2.071-.774 2.106 17.019 2.071-9.85 2.072-47.395 2.071 15.42 2.072 7.787 2.105 1.548 2.038-19.313 2.037 8.482 2.072-70.447 2.072-6.91 2.071 50.076 2.072 11.81 2.105 34.037 4.143-37.132 2.072-2.32 2.071-17.793 2.106 35.585 2.003-34.922 2.004 11.715 2.072-7.375 2.071 22.846 2.072-13.254 2.071 25.632 2.106 9.283 4.143-18.566 2.071-9.954 2.072 13.048 2.105-9.283 2.004-15.527 2.004-7.68 2.071 29.035 2.072-13.564 2.071 2.372 2.072 14.647 2.105-7.736 2.072 4.28 2.071-29.035 2.072-12.532 2.071 49.664 2.106 3.095 2.004-27.407h0" clip-path="url(#pe09e294a95)" style="fill:none;stroke:#1f77b4;stroke-width:1.5;stroke-linecap:square"/></g></g><defs><clipPath id="pe09e294a95"><path d="M23.108 57.838h357.12V323.95H23.108z"/></clipPath></defs></svg>