<svg xmlns="http://www.w3.org/2000/svg" xmlns:xlink="http://www.w3.org/1999/xlink" width="676.513" height="489.969" viewBox="0 0 507.385 367.477"><defs><style>*{stroke-linejoin:round;stroke-linecap:butt}</style></defs><g id="figure_1"><path id="patch_1" d="M0 367.477h507.385V0H0v367.477z" style="fill:none"/><g id="axes_1"><path id="patch_2" d="M32.015 323.95h357.12V57.838H32.015V323.95z" style="fill:none"/><g id="matplotlib.axis_1"><g id="xtick_1"><g id="line2d_1"><defs><path id="md781394046" d="M0 0v3.5" style="stroke:#b0b0b0;stroke-width:.4"/></defs><use xlink:href="#md781394046" x="64.345" y="323.95" style="fill:#b0b0b0;stroke:#b0b0b0;stroke-width:.4"/></g><g id="text_1" style="fill:#b0b0b0" transform="matrix(.14 0 0 -.14 46.53 341.588)"><defs><path id="DejaVuSans-32" d="M1228 531h2203V0H469v531q359 372 979 998 621 627 780 809 303 340 423 576 121 236 121 464 0 372-261 606-261 235-680 235-297 0-627-103-329-103-704-313v638q381 153 712 231 332 78 607 78 725 0 1156-363 431-362 431-968 0-288-108-546-107-257-392-607-78-91-497-524-418-433-1181-1211z" transform="scale(.01563)"/><path id="DejaVuSans-30" d="M2034 4250q-487 0-733-480-245-479-245-1442 0-959 245-1439 246-480 733-480 491 0 736 480 246 480 246 1439 0 963-246 1442-245 480-736 480zm0 500q785 0 1199-621 414-620 414-1801 0-1178-414-1799Q2819-91 2034-91q-784 0-1198 620-414 621-414 1799 0 1181 414 1801 414 621 1198 621z" transform="scale(.01563)"/><path id="DejaVuSans-31" d="M794 531h1031v3560L703 3866v575l1116 225h631V531h1031V0H794v531z" transform="scale(.01563)"/></defs><use xlink:href="#DejaVuSans-32"/><use xlink:href="#DejaVuSans-30" x="63.623"/><use xlink:href="#DejaVuSans-31" x="127.246"/><use xlink:href="#DejaVuSans-30" x="190.869"/></g></g><g id="xtick_2"><use xlink:href="#md781394046" id="line2d_2" x="115.099" y="323.95" style="fill:#b0b0b0;stroke:#b0b0b0;stroke-width:.4"/><g id="text_2" style="fill:#b0b0b0" transform="matrix(.14 0 0 -.14 97.284 341.588)"><use xlink:href="#DejaVuSans-32"/><use xlink:href="#DejaVuSans-30" x="63.623"/><use xlink:href="#DejaVuSans-31" x="127.246"/><use xlink:href="#DejaVuSans-32" x="190.869"/></g></g><g id="xtick_3"><use xlink:href="#md781394046" id="line2d_3" x="165.922" y="323.95" style="fill:#b0b0b0;stroke:#b0b0b0;stroke-width:.4"/><g id="text_3" style="fill:#b0b0b0" transform="matrix(.14 0 0 -.14 148.107 341.588)"><defs><path id="DejaVuSans-34" d="M2419 4116 825 1625h1594v2491zm-166 550h794V1625h666v-525h-666V0h-628v1100H313v609l1940 2957z" transform="scale(.01563)"/></defs><use xlink:href="#DejaVuSans-32"/><use xlink:href="#DejaVuSans-30" x="63.623"/><use xlink:href="#DejaVuSans-31" x="127.246"/><use xlink:href="#DejaVuSans-34" x="190.869"/></g></g><g id="xtick_4"><use xlink:href="#md781394046" id="line2d_4" x="216.676" y="323.95" style="fill:#b0b0b0;stroke:#b0b0b0;stroke-width:.4"/><g id="text_4" style="fill:#b0b0b0" transform="matrix(.14 0 0 -.14 198.86 341.588)"><defs><path id="DejaVuSans-36" d="M2113 2584q-425 0-674-291-248-290-248-796 0-503 248-796 249-292 674-292t673 292q248 293 248 796 0 506-248 796-248 291-673 291zm1253 1979v-575q-238 112-480 171-242 60-480 60-625 0-955-422-329-422-376-1275 184 272 462 417 279 145 613 145 703 0 1111-427 408-426 408-1160 0-719-425-1154Q2819-91 2113-91q-810 0-1238 620-428 621-428 1799 0 1106 525 1764t1409 658q238 0 480-47t505-140z" transform="scale(.01563)"/></defs><use xlink:href="#DejaVuSans-32"/><use xlink:href="#DejaVuSans-30" x="63.623"/><use xlink:href="#DejaVuSans-31" x="127.246"/><use xlink:href="#DejaVuSans-36" x="190.869"/></g></g><g id="xtick_5"><use xlink:href="#md781394046" id="line2d_5" x="267.499" y="323.95" style="fill:#b0b0b0;stroke:#b0b0b0;stroke-width:.4"/><g id="text_5" style="fill:#b0b0b0" transform="matrix(.14 0 0 -.14 249.684 341.588)"><defs><path id="DejaVuSans-38" d="M2034 2216q-450 0-708-241-257-241-257-662 0-422 257-663 258-241 708-241t709 242q260 243 260 662 0 421-258 662-257 241-711 241zm-631 268q-406 100-633 378-226 279-226 679 0 559 398 884 399 325 1092 325 697 0 1094-325t397-884q0-400-227-679-226-278-629-378 456-106 710-416 255-309 255-755 0-679-414-1042Q2806-91 2034-91q-771 0-1186 362-414 363-414 1042 0 446 256 755 257 310 713 416zm-231 997q0-362 226-565 227-203 636-203 407 0 636 203 230 203 230 565 0 363-230 566-229 203-636 203-409 0-636-203-226-203-226-566z" transform="scale(.01563)"/></defs><use xlink:href="#DejaVuSans-32"/><use xlink:href="#DejaVuSans-30" x="63.623"/><use xlink:href="#DejaVuSans-31" x="127.246"/><use xlink:href="#DejaVuSans-38" x="190.869"/></g></g><g id="xtick_6"><use xlink:href="#md781394046" id="line2d_6" x="318.253" y="323.95" style="fill:#b0b0b0;stroke:#b0b0b0;stroke-width:.4"/><g id="text_6" style="fill:#b0b0b0" transform="matrix(.14 0 0 -.14 300.438 341.588)"><use xlink:href="#DejaVuSans-32"/><use xlink:href="#DejaVuSans-30" x="63.623"/><use xlink:href="#DejaVuSans-32" x="127.246"/><use xlink:href="#DejaVuSans-30" x="190.869"/></g></g><g id="xtick_7"><use xlink:href="#md781394046" id="line2d_7" x="369.077" y="323.95" style="fill:#b0b0b0;stroke:#b0b0b0;stroke-width:.4"/><g id="text_7" style="fill:#b0b0b0" transform="matrix(.14 0 0 -.14 351.262 341.588)"><use xlink:href="#DejaVuSans-32"/><use xlink:href="#DejaVuSans-30" x="63.623"/><use xlink:href="#DejaVuSans-32" x="127.246"/><use xlink:href="#DejaVuSans-32" x="190.869"/></g></g></g><g id="matplotlib.axis_2"><g id="ytick_1"><path id="line2d_8" d="M32.015 323.95h357.12" clip-path="url(#pf0c733fb1c)" style="fill:none;stroke:#b0b0b0;stroke-width:.3;stroke-linecap:square"/><g id="line2d_9"><defs><path id="m4a09a2f640" d="M0 0h-3.5" style="stroke:#b0b0b0;stroke-width:.3"/></defs><use xlink:href="#m4a09a2f640" x="32.015" y="323.95" style="fill:#b0b0b0;stroke:#b0b0b0;stroke-width:.3"/></g><use xlink:href="#DejaVuSans-30" id="text_8" style="fill:#b0b0b0" transform="matrix(.14 0 0 -.14 16.108 329.269)"/></g><g id="ytick_2"><path id="line2d_10" d="M32.015 269.641h357.12" clip-path="url(#pf0c733fb1c)" style="fill:none;stroke:#b0b0b0;stroke-width:.3;stroke-linecap:square"/><use xlink:href="#m4a09a2f640" id="line2d_11" x="32.015" y="269.641" style="fill:#b0b0b0;stroke:#b0b0b0;stroke-width:.3"/><g id="text_9" style="fill:#b0b0b0" transform="matrix(.14 0 0 -.14 16.108 274.96)"><defs><path id="DejaVuSans-35" d="M691 4666h2478v-532H1269V2991q137 47 274 70 138 23 276 23 781 0 1237-428 457-428 457-1159 0-753-469-1171Q2575-91 1722-91q-294 0-599 50Q819 9 494 109v635q281-153 581-228t634-75q541 0 856 284 316 284 316 772 0 487-316 771-315 285-856 285-253 0-505-56-251-56-513-175v2344z" transform="scale(.01563)"/></defs><use xlink:href="#DejaVuSans-35"/></g></g><g id="ytick_3"><path id="line2d_12" d="M32.015 215.333h357.12" clip-path="url(#pf0c733fb1c)" style="fill:none;stroke:#b0b0b0;stroke-width:.3;stroke-linecap:square"/><use xlink:href="#m4a09a2f640" id="line2d_13" x="32.015" y="215.333" style="fill:#b0b0b0;stroke:#b0b0b0;stroke-width:.3"/><g id="text_10" style="fill:#b0b0b0" transform="matrix(.14 0 0 -.14 7.2 220.652)"><use xlink:href="#DejaVuSans-31"/><use xlink:href="#DejaVuSans-30" x="63.623"/></g></g><g id="ytick_4"><path id="line2d_14" d="M32.015 161.024h357.12" clip-path="url(#pf0c733fb1c)" style="fill:none;stroke:#b0b0b0;stroke-width:.3;stroke-linecap:square"/><use xlink:href="#m4a09a2f640" id="line2d_15" x="32.015" y="161.024" style="fill:#b0b0b0;stroke:#b0b0b0;stroke-width:.3"/><g id="text_11" style="fill:#b0b0b0" transform="matrix(.14 0 0 -.14 7.2 166.343)"><use xlink:href="#DejaVuSans-31"/><use xlink:href="#DejaVuSans-35" x="63.623"/></g></g><g id="ytick_5"><path id="line2d_16" d="M32.015 106.716h357.12" clip-path="url(#pf0c733fb1c)" style="fill:none;stroke:#b0b0b0;stroke-width:.3;stroke-linecap:square"/><use xlink:href="#m4a09a2f640" id="line2d_17" x="32.015" y="106.716" style="fill:#b0b0b0;stroke:#b0b0b0;stroke-width:.3"/><g id="text_12" style="fill:#b0b0b0" transform="matrix(.14 0 0 -.14 7.2 112.034)"><use xlink:href="#DejaVuSans-32"/><use xlink:href="#DejaVuSans-30" x="63.623"/></g></g></g><path id="line2d_18" d="m97.022 323.95 2.12-.35 2.12.35h6.397l2.12-.35 2.121.35 2.12-1.051 2.156.7 2.086-.398 2.086.398 2.12-1.097 2.12.046 2.121.678 2.12.373 2.156-1.751 2.12-1.519 2.121 1.168 2.12 1.005 2.121-.654 2.156-2.103 2.05.714 2.052-.714 2.12-.864 2.12 1.215 2.121.595 2.12-1.296 2.156-1.051 4.241 1.05 2.12-.513 2.121-.187 2.156-2.453 2.05-1.213 2.052-4.393 2.12 2.815 2.12 3.142 2.121-.245 2.12-.806 2.156 1.752 2.12-6.015 2.121.409 2.12-2.944 2.121 1.892 2.156-1.751 2.05-3.554 2.052-3.104 2.12-.724 2.12 3.527 2.121-4.975 2.12-.28 2.156 1.752 2.12-5.093 2.121 4.041 2.12 8.994 2.121-2.687 2.156-7.358 2.085-1.317 2.086 5.172 2.12 2.569 2.121-1.518 2.12-1.74 2.121 4.192 2.156-2.803 2.12-3.924 2.12 3.924 2.121-1.39 2.12.34 2.156.7 2.051 5.193 2.051-9.748 2.12 6.774 2.121-1.518 2.12-3.55 2.121 5.652 2.156-2.102 2.12 1.88 2.12-.479 2.121-2.417 2.12 3.468 2.156-1.401 2.051 3.829 2.051-.676 2.12-4.496 2.121 3.795 2.12-.175 2.121-.525 2.156-2.453 2.12.444 2.12-1.845 2.121-.69 2.12 3.843 2.156 2.102 2.051-3.98 2.051-.224 2.12-1.74 2.121-8.421 2.12 10.593 2.121-1.483 2.155 2.452 2.121 3.375 2.12-3.725 2.121-1.343 2.12 3.095 2.156 1.05 2.086 2.284 2.086-8.24 2.12 3.259 2.12-.105 2.121 3.001 2.12 2.605 2.156 1.051 2.12-.76 2.121 6.016 2.12-5.291 2.121 3.539 2.155 1.05 2.051 1.928 2.051-7.884 2.121 3.901 4.241 5.431 2.12-2.324 2.156 1.752 2.12-.876 2.121 1.577 2.12 1.32 2.121-.97 2.155 1.402 2.051.938 2.051-.938 2.121 1.016 2.12-2.768 2.121 3.13 2.12-1.028 2.156.35 2.12-1.133h0" clip-path="url(#pf0c733fb1c)" style="fill:none;stroke:#8c564b;stroke-width:1.5;stroke-linecap:square"/><path id="line2d_19" d="m145.725 323.95 2.12-.362 2.12.011 2.121.35 2.12-.35 2.156.35h2.12l2.121-.35 2.12.35H167l2.05-1.163 2.052.813 2.12.35 2.12-.35 2.121-.011 2.12-1.04 2.156.35 2.12.328 2.121.373 2.12-1.097 2.121.397 2.156-.35 2.05.237 2.052-1.289 2.12-.082 2.12-1.67 2.121-.502 2.12.502h2.156l2.12 1.308 2.121-2.008 2.12-.526 2.121 3.329 2.156-1.402 2.085-2.489 2.086 2.139 2.12.595 2.121-1.997 2.12 1.997 2.121-3.048 2.156-.35 2.12 1.95 2.12 1.904 2.121-2.628 2.12 2.628 2.156-2.102 2.051 1.801 2.051-.05 2.12-3.725 2.121-3.282 2.12 1.833 2.121-.782 2.156 1.401 2.12-.256 2.12 1.308 2.121 1.588 2.12.514 2.156-3.154 2.051-3.153 2.051 2.453 2.12-.643 2.121-1.81 2.12.362 2.121 1.39 2.156-1.752 2.12 2.897 2.12-1.495 2.121 2.219 2.12 1.985 2.156-5.606 2.051.776 2.051 1.326 2.12-6.447 2.121 3.644 2.12.701 2.121-1.051 2.155 1.752 2.121-1.787 2.12 1.787 2.121-3.235 2.12 3.235 2.156-1.402 2.086 2.948 2.086-2.948 2.12-.023 2.12-3.48 2.121.946 2.12 6.061 2.156-7.007 2.12 4.928 2.121-.374 2.12.012 2.121-.012 2.155-1.751 2.051.237 2.051 2.215 2.121 2.932 2.12.222 2.121-4.205 2.12 5.606h2.156l2.12-4.52 2.121.316 2.12 2.58 2.121-2.23 2.155.7 2.051-2.064 2.051-3.19 2.121.992 2.12 4.263 2.121-.643 2.12.643 2.156-4.555 2.12 3.912 2.121.993" clip-path="url(#pf0c733fb1c)" style="fill:none;stroke:#9467bd;stroke-width:1.5;stroke-linecap:square"/><path id="line2d_20" d="m32.015 322.592 1.634-.744 2.12 1.016 2.12-2.768 2.156 1.752 2.051-.226 2.051.576 2.12-2.23 2.121-1.624 2.12 1.985 2.121-2.336 2.156 1.402 2.12-.152 2.12-.9 2.121-.548 2.12-2.254 2.156 4.204 2.051-3.554 2.051-.3 2.12 1.904 2.121 1.6 2.12-3.773 2.121 2.722 2.156-1.752 2.12.84 2.12.211 2.121-5.279 2.12 2.476 2.156-1.752 2.051 1.552 2.051-1.902 2.12.35 2.121-1.752 2.12-.782 2.121.432 2.156.7 2.12-1.132 2.12 1.833 2.121 1.063 2.12.339 2.156-6.307 2.086-3.383 2.086 3.033 2.12.887 2.12 3.317 2.121.304 2.12-1.705 2.156-.35 2.12-4.1 2.121-1.507 2.12 4.765 2.121 1.892 2.156-1.05 2.05.788 2.052-5.344 2.12 1.904 2.12 1.25 2.121-1.25 2.12 2.3 2.156-1.05 2.12-9.94 2.121 1.53 2.12-.081 2.121 8.49L167 305.03l2.05-7.07 2.052 2.165 2.12 4.275 2.12-1.822 2.121.373 2.12 4.532 4.277-6.342 2.12 2.488 2.12 1.857 2.121 4.1 2.156-6.658 2.05.075 2.052-.425 2.12-2.16 2.12-5.549 2.121 5.91 2.12-4.858 2.156 6.657 2.12-2.16 2.121-2.395 2.12.222 2.121 7.837 2.156-2.103 2.085-8.119 2.086 6.367 2.12-1.086 2.121 1.086 2.12-1.81 2.121.76 2.156.35 2.12-4.006 2.12 4.356 2.121 3.609 2.12 1.997 2.156-3.504 2.051.576 2.051-1.627 2.12 6.903 2.121-4.1 2.12-.245 2.121 4.45 2.156-5.957 2.12 4.765 2.12 3.294 2.121-2.932 2.12 2.582 2.156-.701 2.051-1.001 2.051-3.554 2.12 1.95 2.121 5.057 2.12-3.608 2.121-3.049 2.156-2.452 2.12 1.518 2.12 2.336 2.121 2.009 2.12 2.546 2.156-2.803 2.051.438 2.051.963 2.12.666 2.121 4.59 2.12-6.4 2.121 2.546 2.155-3.854 2.121-.14 2.12 2.592 2.121 1.028 2.12 3.527 2.156-5.956 2.086 2.03 2.086 1.473 2.12-3.608 2.12 1.506 2.121-.782 4.276 3.585 2.12-1.05 2.121 4.904 2.12-2.733 2.121.981 2.155.701 2.051-3.078 2.051 2.728 2.121-.97 2.12 4.123 2.121-4.847 2.12-.408 2.156 5.606 2.12-4.111 2.121-.094 2.12.094 2.121 4.11 2.155-4.905 2.051 2.165 2.051-1.464 2.121 2.266 2.12.187 2.121-.911 2.12-.49 2.156.35 2.12-2.033h0" clip-path="url(#pf0c733fb1c)" style="fill:none;stroke:#d62728;stroke-width:1.5;stroke-linecap:square"/><g id="text_13" style="fill:#1f77b4" transform="matrix(.14 0 0 -.14 399.849 190.998)"><defs><path id="DejaVuSans-6a" d="M603 3500h575V-63q0-668-255-968-254-300-820-300h-219v487H38q328 0 446 152Q603-541 603-63v3563zm0 1363h575v-729H603v729z" transform="scale(.01563)"/><path id="DejaVuSans-65" d="M3597 1894v-281H953q38-594 358-905t892-311q331 0 642 81t618 244V178Q3153 47 2828-22t-659-69q-838 0-1327 487-489 488-489 1320 0 859 464 1363 464 505 1252 505 706 0 1117-455 411-454 411-1235zm-575 169q-6 471-264 752-258 282-683 282-481 0-770-272t-333-766l2050 4z" transform="scale(.01563)"/><path id="DejaVuSans-6e" d="M3513 2113V0h-575v2094q0 497-194 743-194 247-581 247-466 0-735-297-269-296-269-809V0H581v3500h578v-544q207 316 486 472 280 156 646 156 603 0 912-373 310-373 310-1098z" transform="scale(.01563)"/><path id="DejaVuSans-6b" d="M581 4863h578V1991l1716 1509h734L1753 1863 3688 0h-750L1159 1709V0H581v4863z" transform="scale(.01563)"/><path id="DejaVuSans-69" d="M603 3500h575V0H603v3500zm0 1363h575v-729H603v729z" transform="scale(.01563)"/><path id="DejaVuSans-73" d="M2834 3397v-544q-243 125-506 187-262 63-544 63-428 0-642-131t-214-394q0-200 153-314t616-217l197-44q612-131 870-370t258-667q0-488-386-773Q2250-91 1575-91q-281 0-586 55T347 128v594q319-166 628-249 309-82 613-82 406 0 624 139 219 139 219 392 0 234-158 359-157 125-692 241l-200 47q-534 112-772 345-237 233-237 639 0 494 350 762 350 269 994 269 318 0 599-47 282-46 519-140z" transform="scale(.01563)"/></defs><use xlink:href="#DejaVuSans-6a"/><use xlink:href="#DejaVuSans-65" x="27.783"/><use xlink:href="#DejaVuSans-6e" x="89.307"/><use xlink:href="#DejaVuSans-6b" x="152.686"/><use xlink:href="#DejaVuSans-69" x="210.596"/><use xlink:href="#DejaVuSans-6e" x="238.379"/><use xlink:href="#DejaVuSans-73" x="301.758"/></g><g id="text_14" style="fill:#ff7f0e" transform="matrix(.14 0 0 -.14 399.849 204.998)"><defs><path id="DejaVuSans-67" d="M2906 1791q0 625-258 968-257 344-723 344-462 0-720-344-258-343-258-968 0-622 258-966t720-344q466 0 723 344 258 344 258 966zm575-1357q0-893-397-1329-396-436-1215-436-303 0-572 45t-522 139v559q253-137 500-202 247-66 503-66 566 0 847 295t281 892v285q-178-310-456-463T1784 0Q1141 0 747 490 353 981 353 1791q0 812 394 1302 394 491 1037 491 388 0 666-153t456-462v531h575V434z" transform="scale(.01563)"/><path id="DejaVuSans-74" d="M1172 4494v-994h1184v-447H1172V1153q0-428 117-550t477-122h590V0h-590q-666 0-919 248-253 249-253 905v1900H172v447h422v994h578z" transform="scale(.01563)"/><path id="DejaVuSans-68" d="M3513 2113V0h-575v2094q0 497-194 743-194 247-581 247-466 0-735-297-269-296-269-809V0H581v4863h578V2956q207 316 486 472 280 156 646 156 603 0 912-373 310-373 310-1098z" transform="scale(.01563)"/><path id="DejaVuSans-75" d="M544 1381v2119h575V1403q0-497 193-746 194-248 582-248 465 0 735 297 271 297 271 810v1984h575V0h-575v538q-209-319-486-474-276-155-642-155-603 0-916 375-312 375-312 1097zm1447 2203z" transform="scale(.01563)"/><path id="DejaVuSans-62" d="M3116 1747q0 634-261 995t-717 361q-457 0-718-361t-261-995q0-634 261-995t718-361q456 0 717 361t261 995zM1159 2969q182 312 458 463 277 152 661 152 638 0 1036-506 399-506 399-1331T3314 415Q2916-91 2278-91q-384 0-661 152-276 152-458 464V0H581v4863h578V2969z" transform="scale(.01563)"/><path id="DejaVuSans-2d" d="M313 2009h1684v-512H313v512z" transform="scale(.01563)"/><path id="DejaVuSans-61" d="M2194 1759q-697 0-966-159t-269-544q0-306 202-486 202-179 548-179 479 0 768 339t289 901v128h-572zm1147 238V0h-575v531q-197-318-491-470T1556-91q-537 0-855 302-317 302-317 808 0 590 395 890 396 300 1180 300h807v57q0 397-261 614t-733 217q-300 0-585-72-284-72-546-216v532q315 122 612 182 297 61 578 61 760 0 1135-394 375-393 375-1193z" transform="scale(.01563)"/><path id="DejaVuSans-63" d="M3122 3366v-538q-244 135-489 202t-495 67q-560 0-870-355-309-354-309-995t309-996q310-354 870-354 250 0 495 67t489 202V134Q2881 22 2623-34q-257-57-548-57-791 0-1257 497-465 497-465 1341 0 856 470 1346 471 491 1290 491 265 0 518-55 253-54 491-163z" transform="scale(.01563)"/><path id="DejaVuSans-6f" d="M1959 3097q-462 0-731-361t-269-989q0-628 267-989 268-361 733-361 460 0 728 362 269 363 269 988 0 622-269 986-268 364-728 364zm0 487q750 0 1178-488 429-487 429-1349 0-859-429-1349Q2709-91 1959-91q-753 0-1180 489-426 490-426 1349 0 862 426 1349 427 488 1180 488z" transform="scale(.01563)"/></defs><use xlink:href="#DejaVuSans-67"/><use xlink:href="#DejaVuSans-69" x="63.477"/><use xlink:href="#DejaVuSans-74" x="91.26"/><use xlink:href="#DejaVuSans-68" x="130.469"/><use xlink:href="#DejaVuSans-75" x="193.848"/><use xlink:href="#DejaVuSans-62" x="257.227"/><use xlink:href="#DejaVuSans-2d" x="320.703"/><use xlink:href="#DejaVuSans-61" x="356.787"/><use xlink:href="#DejaVuSans-63" x="418.066"/><use xlink:href="#DejaVuSans-74" x="473.047"/><use xlink:href="#DejaVuSans-69" x="512.256"/><use xlink:href="#DejaVuSans-6f" x="540.039"/><use xlink:href="#DejaVuSans-6e" x="601.221"/><use xlink:href="#DejaVuSans-73" x="664.6"/></g><g id="text_15" style="fill:#2ca02c" transform="matrix(.14 0 0 -.14 399.849 280.162)"><defs><path id="DejaVuSans-6c" d="M603 4863h575V0H603v4863z" transform="scale(.01563)"/></defs><use xlink:href="#DejaVuSans-67"/><use xlink:href="#DejaVuSans-69" x="63.477"/><use xlink:href="#DejaVuSans-74" x="91.26"/><use xlink:href="#DejaVuSans-6c" x="130.469"/><use xlink:href="#DejaVuSans-61" x="158.252"/><use xlink:href="#DejaVuSans-62" x="219.531"/><use xlink:href="#DejaVuSans-2d" x="283.008"/><use xlink:href="#DejaVuSans-63" x="319.092"/><use xlink:href="#DejaVuSans-69" x="374.072"/></g><g id="text_16" style="fill:#d62728" transform="matrix(.14 0 0 -.14 399.849 307.385)"><defs><path id="DejaVuSans-6d" d="M3328 2828q216 388 516 572t706 184q547 0 844-383 297-382 297-1088V0h-578v2094q0 503-179 746-178 244-543 244-447 0-707-297-259-296-259-809V0h-578v2094q0 506-178 748t-550 242q-441 0-701-298-259-298-259-808V0H581v3500h578v-544q197 322 472 475t653 153q382 0 649-194 267-193 395-562z" transform="scale(.01563)"/><path id="DejaVuSans-79" d="M2059-325q-243-625-475-815-231-191-618-191H506v481h338q237 0 368 113 132 112 291 531l103 262L191 3500h609L1894 763l1094 2737h609L2059-325z" transform="scale(.01563)"/></defs><use xlink:href="#DejaVuSans-74"/><use xlink:href="#DejaVuSans-65" x="39.209"/><use xlink:href="#DejaVuSans-61" x="100.732"/><use xlink:href="#DejaVuSans-6d" x="162.012"/><use xlink:href="#DejaVuSans-63" x="259.424"/><use xlink:href="#DejaVuSans-69" x="314.404"/><use xlink:href="#DejaVuSans-74" x="342.188"/><use xlink:href="#DejaVuSans-79" x="381.396"/></g><g id="text_17" style="fill:#9467bd" transform="matrix(.14 0 0 -.14 399.849 321.385)"><defs><path id="DejaVuSans-72" d="M2631 2963q-97 56-211 82-114 27-251 27-488 0-749-317t-261-911V0H581v3500h578v-544q182 319 472 473 291 155 707 155 59 0 131-8 72-7 159-23l3-590z" transform="scale(.01563)"/></defs><use xlink:href="#DejaVuSans-63"/><use xlink:href="#DejaVuSans-69" x="54.98"/><use xlink:href="#DejaVuSans-72" x="82.764"/><use xlink:href="#DejaVuSans-63" x="121.627"/><use xlink:href="#DejaVuSans-6c" x="176.607"/><use xlink:href="#DejaVuSans-65" x="204.391"/><use xlink:href="#DejaVuSans-63" x="265.914"/><use xlink:href="#DejaVuSans-69" x="320.895"/></g><g id="text_18" style="fill:#8c564b" transform="matrix(.14 0 0 -.14 399.849 335.385)"><defs><path id="DejaVuSans-76" d="M191 3500h609L1894 563l1094 2937h609L2284 0h-781L191 3500z" transform="scale(.01563)"/></defs><use xlink:href="#DejaVuSans-74"/><use xlink:href="#DejaVuSans-72" x="39.209"/><use xlink:href="#DejaVuSans-61" x="80.322"/><use xlink:href="#DejaVuSans-76" x="141.602"/><use xlink:href="#DejaVuSans-69" x="200.781"/><use xlink:href="#DejaVuSans-73" x="228.564"/><use xlink:href="#DejaVuSans-2d" x="280.664"/><use xlink:href="#DejaVuSans-63" x="316.748"/><use xlink:href="#DejaVuSans-69" x="371.729"/></g><g id="text_19" style="fill:#b0b0b0" transform="matrix(.09716 0 0 -.09716 32.015 357.986)"><defs><path id="DejaVuSans-40" d="M2381 1678q0-447 222-702 222-254 610-254 384 0 604 256 221 256 221 700 0 438-225 695-225 258-607 258-378 0-602-256-223-256-223-697zm1703-934q-187-241-429-355t-564-114q-538 0-874 389t-336 1014q0 625 337 1015 338 391 873 391 322 0 565-117 244-117 428-354v409h447V722q457 69 714 417 258 349 258 902 0 334-99 628-98 294-298 544-325 409-792 626t-1017 217q-384 0-738-102-353-101-653-301-490-319-767-836-276-517-276-1120 0-497 179-932 180-434 521-765 328-325 759-495 431-171 922-171 403 0 792 136t714 389l281-347q-390-303-851-464t-936-161q-578 0-1091 205-512 205-912 595Q841 78 631 592q-209 514-209 1105 0 569 212 1084 213 516 607 907 403 396 931 607t1119 211q662 0 1229-272 568-271 952-771 234-307 357-666 124-359 124-744 0-822-497-1297T4084 263v481z" transform="scale(.01563)"/><path id="DejaVuSans-2f" d="M1625 4666h531L531-594H0l1625 5260z" transform="scale(.01563)"/><path id="DejaVuSans-66" d="M2375 4863v-479h-550q-309 0-430-125-120-125-120-450v-309h947v-447h-947V0H697v3053H147v447h550v244q0 584 272 851 272 268 862 268h544z" transform="scale(.01563)"/><path id="DejaVuSans-77" d="M269 3500h575l719-2731 715 2731h678l719-2731 716 2731h575L4050 0h-678l-753 2869L1863 0h-679L269 3500z" transform="scale(.01563)"/><path id="DejaVuSans-64" d="M2906 2969v1894h575V0h-575v525q-181-312-458-464-276-152-664-152-634 0-1033 506-398 507-398 1332t398 1331q399 506 1033 506 388 0 664-152 277-151 458-463zM947 1747q0-634 261-995t717-361q456 0 718 361 263 361 263 995t-263 995q-262 361-718 361t-717-361q-261-361-261-995z" transform="scale(.01563)"/><path id="DejaVuSans-7c" d="M1344 4891v-6400H813v6400h531z" transform="scale(.01563)"/><path id="DejaVuSans-4e" d="M628 4666h850L3547 763v3903h612V0h-850L1241 3903V0H628v4666z" transform="scale(.01563)"/><path id="DejaVuSans-53" d="M3425 4513v-616q-359 172-678 256-319 85-616 85-515 0-795-200t-280-569q0-310 186-468 186-157 705-254l381-78q706-135 1042-474t336-907q0-679-455-1029Q2797-91 1919-91q-331 0-705 75-373 75-773 222v650q384-215 753-325 369-109 725-109 540 0 834 212 294 213 294 607 0 343-211 537t-692 291l-385 75q-706 140-1022 440-315 300-315 835 0 619 436 975t1201 356q329 0 669-60 341-59 697-177z" transform="scale(.01563)"/><path id="DejaVuSans-f6" d="M1959 3097q-462 0-731-361t-269-989q0-628 267-989 268-361 733-361 460 0 728 362 269 363 269 988 0 622-269 986-268 364-728 364zm0 487q750 0 1178-488 429-487 429-1349 0-859-429-1349Q2709-91 1959-91q-753 0-1180 489-426 490-426 1349 0 862 426 1349 427 488 1180 488zm295 1266h634v-631h-634v631zm-1222 0h634v-631h-634v631z" transform="scale(.01563)"/><path id="DejaVuSans-43" d="M4122 4306v-665q-319 297-680 443-361 147-767 147-800 0-1225-489t-425-1414q0-922 425-1411t1225-489q406 0 767 147t680 444V359q-331-225-702-338-370-112-782-112-1060 0-1670 648-609 649-609 1771 0 1125 609 1773 610 649 1670 649 418 0 788-111 371-111 696-333z" transform="scale(.01563)"/><path id="DejaVuSans-42" d="M1259 2228V519h1013q509 0 754 211 246 211 246 645 0 438-246 645-245 208-754 208H1259zm0 1919V2741h935q462 0 688 173 227 174 227 530 0 353-227 528-226 175-688 175h-935zm-631 519h1613q722 0 1112-300 391-300 391-853 0-429-200-682t-588-315q466-100 724-418 258-317 258-792 0-625-425-966Q3088 0 2303 0H628v4666z" transform="scale(.01563)"/><path id="DejaVuSans-59" d="M-13 4666h679l1293-1919 1285 1919h678L2272 2222V0h-634v2222L-13 4666z" transform="scale(.01563)"/></defs><use xlink:href="#DejaVuSans-40"/><use xlink:href="#DejaVuSans-6e" x="100"/><use xlink:href="#DejaVuSans-73" x="163.379"/><use xlink:href="#DejaVuSans-63" x="215.479"/><use xlink:href="#DejaVuSans-68" x="270.459"/><use xlink:href="#DejaVuSans-6c" x="333.838"/><use xlink:href="#DejaVuSans-6f" x="361.621"/><use xlink:href="#DejaVuSans-65" x="422.803"/><use xlink:href="#DejaVuSans-20" x="484.326"/><use xlink:href="#DejaVuSans-2f" x="516.113"/><use xlink:href="#DejaVuSans-20" x="549.805"/><use xlink:href="#DejaVuSans-73" x="581.592"/><use xlink:href="#DejaVuSans-74" x="633.691"/><use xlink:href="#DejaVuSans-61" x="672.9"/><use xlink:href="#DejaVuSans-63" x="734.18"/><use xlink:href="#DejaVuSans-6b" x="789.16"/><use xlink:href="#DejaVuSans-6f" x="843.445"/><use xlink:href="#DejaVuSans-76" x="904.627"/><use xlink:href="#DejaVuSans-65" x="963.807"/><use xlink:href="#DejaVuSans-72" x="1025.33"/><use xlink:href="#DejaVuSans-66" x="1066.443"/><use xlink:href="#DejaVuSans-6c" x="1101.648"/><use xlink:href="#DejaVuSans-6f" x="1129.432"/><use xlink:href="#DejaVuSans-77" x="1190.613"/><use xlink:href="#DejaVuSans-2d" x="1272.4"/><use xlink:href="#DejaVuSans-74" x="1308.484"/><use xlink:href="#DejaVuSans-72" x="1347.693"/><use xlink:href="#DejaVuSans-65" x="1386.557"/><use xlink:href="#DejaVuSans-6e" x="1448.08"/><use xlink:href="#DejaVuSans-64" x="1511.459"/><use xlink:href="#DejaVuSans-73" x="1574.936"/><use xlink:href="#DejaVuSans-20" x="1627.035"/><use xlink:href="#DejaVuSans-7c" x="1658.822"/><use xlink:href="#DejaVuSans-20" x="1692.514"/><use xlink:href="#DejaVuSans-4e" x="1724.301"/><use xlink:href="#DejaVuSans-69" x="1799.105"/><use xlink:href="#DejaVuSans-63" x="1826.889"/><use xlink:href="#DejaVuSans-6f" x="1881.869"/><use xlink:href="#DejaVuSans-20" x="1943.051"/><use xlink:href="#DejaVuSans-53" x="1974.838"/><use xlink:href="#DejaVuSans-63" x="2038.314"/><use xlink:href="#DejaVuSans-68" x="2093.295"/><use xlink:href="#DejaVuSans-6c" x="2156.674"/><use xlink:href="#DejaVuSans-f6" x="2184.457"/><use xlink:href="#DejaVuSans-6d" x="2245.639"/><use xlink:href="#DejaVuSans-65" x="2343.051"/><use xlink:href="#DejaVuSans-72" x="2404.574"/><use xlink:href="#DejaVuSans-20" x="2445.688"/><use xlink:href="#DejaVuSans-7c" x="2477.475"/><use xlink:href="#DejaVuSans-20" x="2511.166"/><use xlink:href="#DejaVuSans-43" x="2542.953"/><use xlink:href="#DejaVuSans-43" x="2612.777"/><use xlink:href="#DejaVuSans-20" x="2682.602"/><use xlink:href="#DejaVuSans-42" x="2714.389"/><use xlink:href="#DejaVuSans-59" x="2777.492"/></g><g id="text_20" style="fill:#b0b0b0" transform="matrix(.14 0 0 -.14 54.43 17.838)"><defs><path id="DejaVuSans-44" d="M1259 4147V519h763q966 0 1414 437 448 438 448 1382 0 937-448 1373t-1414 436h-763zm-631 519h1297q1356 0 1990-564 635-564 635-1764 0-1207-638-1773Q3275 0 1925 0H628v4666z" transform="scale(.01563)"/><path id="DejaVuSans-71" d="M947 1747q0-634 261-995t717-361q456 0 718 361 263 361 263 995t-263 995q-262 361-718 361t-717-361q-261-361-261-995zM2906 525q-181-312-458-464-276-152-664-152-634 0-1033 506-398 507-398 1332t398 1331q399 506 1033 506 388 0 664-152 277-151 458-463v531h575v-4831h-575V525z" transform="scale(.01563)"/><path id="DejaVuSans-4f" d="M2522 4238q-688 0-1093-513-404-512-404-1397 0-881 404-1394 405-512 1093-512 687 0 1089 512 402 513 402 1394 0 885-402 1397-402 513-1089 513zm0 512q981 0 1568-658 588-658 588-1764 0-1103-588-1761Q3503-91 2522-91q-984 0-1574 656-589 657-589 1763t589 1764q590 658 1574 658z" transform="scale(.01563)"/></defs><use xlink:href="#DejaVuSans-44"/><use xlink:href="#DejaVuSans-61" x="77.002"/><use xlink:href="#DejaVuSans-69" x="138.281"/><use xlink:href="#DejaVuSans-6c" x="166.064"/><use xlink:href="#DejaVuSans-79" x="193.848"/><use xlink:href="#DejaVuSans-20" x="253.027"/><use xlink:href="#DejaVuSans-6e" x="284.814"/><use xlink:href="#DejaVuSans-75" x="348.193"/><use xlink:href="#DejaVuSans-6d" x="411.572"/><use xlink:href="#DejaVuSans-62" x="508.984"/><use xlink:href="#DejaVuSans-65" x="572.461"/><use xlink:href="#DejaVuSans-72" x="633.984"/><use xlink:href="#DejaVuSans-20" x="675.098"/><use xlink:href="#DejaVuSans-6f" x="706.885"/><use xlink:href="#DejaVuSans-66" x="768.066"/><use xlink:href="#DejaVuSans-20" x="803.271"/><use xlink:href="#DejaVuSans-71" x="835.059"/><use xlink:href="#DejaVuSans-75" x="898.535"/><use xlink:href="#DejaVuSans-65" x="961.914"/><use xlink:href="#DejaVuSans-73" x="1023.438"/><use xlink:href="#DejaVuSans-74" x="1075.537"/><use xlink:href="#DejaVuSans-69" x="1114.746"/><use xlink:href="#DejaVuSans-6f" x="1142.529"/><use xlink:href="#DejaVuSans-6e" x="1203.711"/><use xlink:href="#DejaVuSans-73" x="1267.09"/><use xlink:href="#DejaVuSans-20" x="1319.189"/><use xlink:href="#DejaVuSans-6f" x="1350.977"/><use xlink:href="#DejaVuSans-6e" x="1412.158"/><use xlink:href="#DejaVuSans-20" x="1475.537"/><use xlink:href="#DejaVuSans-53" x="1507.324"/><use xlink:href="#DejaVuSans-74" x="1570.801"/><use xlink:href="#DejaVuSans-61" x="1610.01"/><use xlink:href="#DejaVuSans-63" x="1671.289"/><use xlink:href="#DejaVuSans-6b" x="1726.27"/><use xlink:href="#DejaVuSans-4f" x="1784.18"/><use xlink:href="#DejaVuSans-76" x="1862.891"/><use xlink:href="#DejaVuSans-65" x="1922.07"/><use xlink:href="#DejaVuSans-72" x="1983.594"/><use xlink:href="#DejaVuSans-66" x="2024.707"/><use xlink:href="#DejaVuSans-6c" x="2059.912"/><use xlink:href="#DejaVuSans-6f" x="2087.695"/><use xlink:href="#DejaVuSans-77" x="2148.877"/></g><path id="line2d_21" d="m156.362 323.95 2.12-.362 2.121.362 2.12-.362 2.121.362H167l2.05-.388 2.052-1.014 2.12.316 2.12.035 2.121-.035 2.12.385h2.156l2.12-2.196 2.121.795 2.12.654 2.121.747h2.156l2.05-.463 2.052-.588 2.12.304 2.12.397 2.121-.76 2.12-3.445 2.156 1.051 2.12-.864 2.121 1.215 2.12-2.663 2.121 2.312 2.156-1.05 2.085 1.51 2.086-3.613 2.12-.245 2.121-4.66 2.12 2.487 2.121-.035 2.156.701 2.12-4.286 2.12 1.133 2.121.677 2.12.374 2.156-.35 2.051-5.507 2.051 3.754 2.12-4.788 2.121.934 2.12-2.382 2.121 5.185 2.156.701 2.12-1.18 2.12-1.623 2.121-5.256 2.12 5.957 2.156-3.854 2.051-.939 2.051-.463 2.12 2.92 2.121 3.037 2.12-9.916 2.121 1.156 2.156-.35 2.12 2.452 2.12-3.153 2.121-8.432 2.12 2.476 2.156.35 2.051-1.326 2.051-2.528 2.12 1.39 2.121-3.492 2.12-5.56 2.121 5.56 2.155 4.554 2.121-1.787 2.12-12.578 2.121 1.717 2.12 7.743 2.156-6.307 2.086-3.72 2.086 3.72 2.12-11.936 2.12 5.98 2.121-.911 2.12-12.754 2.156 11.563 2.12 1.19 2.121-6.796 2.12 2.452 2.121 15.066 2.155-8.759 2.051-9.798 2.051 1.74L351 255.882l2.12 11.306 2.121-10.944 2.12 14.097 2.156-1.051 2.12-2.546 2.121 2.896 2.12-.724 2.121-.327 2.155 1.752 2.051-8.847 2.051 7.796 2.121-5.805 2.12-5.057 2.121 13.385 2.12 5.886 2.156-1.752 2.12-4.134 2.121 4.484" clip-path="url(#pf0c733fb1c)" style="fill:none;stroke:#2ca02c;stroke-width:1.5;stroke-linecap:square"/><path id="line2d_22" d="m285.437 323.95 2.12-.35 2.121.35 2.12-.35 2.156-.701 2.051.275 2.051.425 2.12-.735 2.121.735 2.12-.735 2.121.385 2.155-8.059 2.121-10.067 2.12 3.06 2.121-13.198 2.12-1.168 2.156 6.657 2.086-4.99 2.086-8.674 2.12-6.67 2.12-.338 2.121-6.54 2.12 2.686 2.156 1.402 2.12 5.325 2.121-11.632 2.12-7.919 2.121 8.62 2.155-6.658 2.051-11.35 2.051-3.366L351 255.16l2.12 3.27 2.121-1.46 2.12-7.3 2.156-10.16 2.12 3.702 2.121 4.707 2.12-12.672L368 250.37l2.155-19.62 2.051-19.684 2.051 11.274 2.121-3.749 2.12 3.399 2.121-.14 2.12-15.978 2.156-1.05 2.12-.351 2.121-8.059" clip-path="url(#pf0c733fb1c)" style="fill:none;stroke:#ff7f0e;stroke-width:1.5;stroke-linecap:square"/><path id="line2d_23" d="m32.015 323.95 1.634-.35 2.12.35h2.12l2.156-.7 2.051.7 2.051-.35 2.12-.012 2.121.362h2.12l4.277-.7 2.12.338 2.12-.339 2.121-.023 2.12.373h2.156l2.051-1.2 2.051 1.2 2.12-.373 6.362.023 2.156-.7 2.12-.41 2.12 1.11 2.121.339 2.12-.69 2.156.351 2.051-8.61 2.051-6.106 2.12 1.659 2.121-6.214 2.12-8.993 2.121 8.993 2.156-7.007 2.12-2.348 2.12 3.048 2.121-1.6 2.12-6.809 2.156-4.555 2.086-12.07 2.086 13.122 2.12-5.256 2.12-5.606 2.121 5.244 2.12-13.653 2.156 3.153 2.12-.724 2.121-8.736 2.12-7.194 2.121 19.457 2.156-18.57 2.05-10.611 2.052 5.706 2.12-5.034 2.12 10.29 2.121-12.462 2.12-.152 2.156-4.555 2.12-3.258 2.121 5.36 2.12 4.053 2.121 18.372L167 232.852l2.05-22.562 2.052 22.211 2.12 2.745 2.12-3.095 2.121-3.422 2.12-15.499 2.156 14.016 2.12-8.655 2.121 19.867 2.12-10.091 2.121 11.492 2.156-10.16 2.05-30.271 2.052 13.452 2.12-12.754 2.12-7.918 2.121-9.823 2.12-22.062 2.156 29.432 2.12 14.354 2.121-2.09 2.12-2.255 2.121 13.466 2.156-18.22 2.085-15.633 2.086-19.054 2.12 7.218 2.121-17.729 2.12-18.839 2.121 21.642 2.156-13.314 2.12 10.861 2.12 26.63 2.121-19.026 2.12 12.718 2.156-15.066 2.051-49.866 2.051.112 2.12 15.896 2.121-25.706 2.12-16.655 2.121 33.123 2.156-17.169 2.12 38.355 2.12 7.545 2.121-30.355 2.12 39.464 2.156-23.475 2.051 3.692 2.051 10.323 2.12-7.556 2.121-5.057 2.12.712 2.121-9.472 2.156-46.95 2.12 23.113 2.12-10.15 2.121-6.867 2.12 56.27 2.156-31.533 2.051-22.875 2.051 20.072 2.12-1.297 2.121 9.355 2.12 24.317 2.121-46.39 2.155 35.388 2.121-9.636 2.12-8.584 2.121-12.415 2.12 40.796 2.156-33.987 2.086.52 2.086-2.272 2.12-38.366 2.12 27.504 2.121-5.419 2.12 3.317 2.156 19.972 2.12.607 4.242 50.326 2.12 31.406 2.155-40.995 2.051-14.953 2.051 10.048 2.121 1.46 2.12 24.118 2.121-33.532 2.12 27.575 2.156 7.358 2.12-5.244 2.121 4.193 2.12-6.727L368 195.01l2.155-11.563 2.051-24.751 2.051-2.929 2.121 19.376 2.12-2.908 2.121 11.96 2.12-15.113 2.156 2.803 2.12-.724 2.121 20.695h0" clip-path="url(#pf0c733fb1c)" style="fill:none;stroke:#1f77b4;stroke-width:1.5;stroke-linecap:square"/></g></g><defs><clipPath id="pf0c733fb1c"><path d="M32.015 57.838h357.12V323.95H32.015z"/></clipPath></defs></svg>