<svg xmlns:xlink="http://www.w3.org/1999/xlink" width="677.207" height="530.235" viewBox="0 0 507.905 397.676" xmlns="http://www.w3.org/2000/svg"><defs><style>*{stroke-linejoin:round;stroke-linecap:butt}</style></defs><g id="figure_1"><path d="M0 397.676h507.905V0H0v397.676z" style="fill:none" id="patch_1"/><g id="axes_1"><path d="M40.922 323.95h357.12V57.838H40.923V323.95z" style="fill:none" id="patch_2"/><g id="matplotlib.axis_1"><g id="xtick_1"><g id="line2d_1"><defs><path id="mc02fc3fe0a" d="M0 0v3.5" style="stroke:#b0b0b0;stroke-width:.4"/></defs><use xlink:href="#mc02fc3fe0a" x="73.842" y="323.95" style="fill:#b0b0b0;stroke:#b0b0b0;stroke-width:.4"/></g><g style="fill:#b0b0b0" transform="matrix(.14 0 0 -.14 56.027 341.588)" id="text_1"><defs><path id="DejaVuSans-32" d="M1228 531h2203V0H469v531q359 372 979 998 621 627 780 809 303 340 423 576 121 236 121 464 0 372-261 606-261 235-680 235-297 0-627-103-329-103-704-313v638q381 153 712 231 332 78 607 78 725 0 1156-363 431-362 431-968 0-288-108-546-107-257-392-607-78-91-497-524-418-433-1181-1211z" transform="scale(.01563)"/><path id="DejaVuSans-30" d="M2034 4250q-487 0-733-480-245-479-245-1442 0-959 245-1439 246-480 733-480 491 0 736 480 246 480 246 1439 0 963-246 1442-245 480-736 480zm0 500q785 0 1199-621 414-620 414-1801 0-1178-414-1799Q2819-91 2034-91q-784 0-1198 620-414 621-414 1799 0 1181 414 1801 414 621 1198 621z" transform="scale(.01563)"/><path id="DejaVuSans-31" d="M794 531h1031v3560L703 3866v575l1116 225h631V531h1031V0H794v531z" transform="scale(.01563)"/></defs><use xlink:href="#DejaVuSans-32"/><use xlink:href="#DejaVuSans-30" x="63.623"/><use xlink:href="#DejaVuSans-31" x="127.246"/><use xlink:href="#DejaVuSans-30" x="190.869"/></g></g><g id="xtick_2"><use xlink:href="#mc02fc3fe0a" x="125.521" y="323.95" style="fill:#b0b0b0;stroke:#b0b0b0;stroke-width:.4" id="line2d_2"/><g style="fill:#b0b0b0" transform="matrix(.14 0 0 -.14 107.706 341.588)" id="text_2"><use xlink:href="#DejaVuSans-32"/><use xlink:href="#DejaVuSans-30" x="63.623"/><use xlink:href="#DejaVuSans-31" x="127.246"/><use xlink:href="#DejaVuSans-32" x="190.869"/></g></g><g id="xtick_3"><use xlink:href="#mc02fc3fe0a" x="177.272" y="323.95" style="fill:#b0b0b0;stroke:#b0b0b0;stroke-width:.4" id="line2d_3"/><g style="fill:#b0b0b0" transform="matrix(.14 0 0 -.14 159.457 341.588)" id="text_3"><defs><path id="DejaVuSans-34" d="M2419 4116 825 1625h1594v2491zm-166 550h794V1625h666v-525h-666V0h-628v1100H313v609l1940 2957z" transform="scale(.01563)"/></defs><use xlink:href="#DejaVuSans-32"/><use xlink:href="#DejaVuSans-30" x="63.623"/><use xlink:href="#DejaVuSans-31" x="127.246"/><use xlink:href="#DejaVuSans-34" x="190.869"/></g></g><g id="xtick_4"><use xlink:href="#mc02fc3fe0a" x="228.951" y="323.95" style="fill:#b0b0b0;stroke:#b0b0b0;stroke-width:.4" id="line2d_4"/><g style="fill:#b0b0b0" transform="matrix(.14 0 0 -.14 211.136 341.588)" id="text_4"><defs><path id="DejaVuSans-36" d="M2113 2584q-425 0-674-291-248-290-248-796 0-503 248-796 249-292 674-292t673 292q248 293 248 796 0 506-248 796-248 291-673 291zm1253 1979v-575q-238 112-480 171-242 60-480 60-625 0-955-422-329-422-376-1275 184 272 462 417 279 145 613 145 703 0 1111-427 408-426 408-1160 0-719-425-1154Q2819-91 2113-91q-810 0-1238 620-428 621-428 1799 0 1106 525 1764t1409 658q238 0 480-47t505-140z" transform="scale(.01563)"/></defs><use xlink:href="#DejaVuSans-32"/><use xlink:href="#DejaVuSans-30" x="63.623"/><use xlink:href="#DejaVuSans-31" x="127.246"/><use xlink:href="#DejaVuSans-36" x="190.869"/></g></g><g id="xtick_5"><use xlink:href="#mc02fc3fe0a" x="280.702" y="323.95" style="fill:#b0b0b0;stroke:#b0b0b0;stroke-width:.4" id="line2d_5"/><g style="fill:#b0b0b0" transform="matrix(.14 0 0 -.14 262.887 341.588)" id="text_5"><defs><path id="DejaVuSans-38" d="M2034 2216q-450 0-708-241-257-241-257-662 0-422 257-663 258-241 708-241t709 242q260 243 260 662 0 421-258 662-257 241-711 241zm-631 268q-406 100-633 378-226 279-226 679 0 559 398 884 399 325 1092 325 697 0 1094-325t397-884q0-400-227-679-226-278-629-378 456-106 710-416 255-309 255-755 0-679-414-1042Q2806-91 2034-91q-771 0-1186 362-414 363-414 1042 0 446 256 755 257 310 713 416zm-231 997q0-362 226-565 227-203 636-203 407 0 636 203 230 203 230 565 0 363-230 566-229 203-636 203-409 0-636-203-226-203-226-566z" transform="scale(.01563)"/></defs><use xlink:href="#DejaVuSans-32"/><use xlink:href="#DejaVuSans-30" x="63.623"/><use xlink:href="#DejaVuSans-31" x="127.246"/><use xlink:href="#DejaVuSans-38" x="190.869"/></g></g><g id="xtick_6"><use xlink:href="#mc02fc3fe0a" x="332.381" y="323.95" style="fill:#b0b0b0;stroke:#b0b0b0;stroke-width:.4" id="line2d_6"/><g style="fill:#b0b0b0" transform="matrix(.14 0 0 -.14 314.566 341.588)" id="text_6"><use xlink:href="#DejaVuSans-32"/><use xlink:href="#DejaVuSans-30" x="63.623"/><use xlink:href="#DejaVuSans-32" x="127.246"/><use xlink:href="#DejaVuSans-30" x="190.869"/></g></g><g id="xtick_7"><use xlink:href="#mc02fc3fe0a" x="384.131" y="323.95" style="fill:#b0b0b0;stroke:#b0b0b0;stroke-width:.4" id="line2d_7"/><g style="fill:#b0b0b0" transform="matrix(.14 0 0 -.14 366.316 341.588)" id="text_7"><use xlink:href="#DejaVuSans-32"/><use xlink:href="#DejaVuSans-30" x="63.623"/><use xlink:href="#DejaVuSans-32" x="127.246"/><use xlink:href="#DejaVuSans-32" x="190.869"/></g></g></g><g id="matplotlib.axis_2"><g id="ytick_1"><path d="M40.922 323.95h357.12" clip-path="url(#p353e716bc3)" style="fill:none;stroke:#b0b0b0;stroke-width:.3;stroke-linecap:square" id="line2d_8"/><g id="line2d_9"><defs><path id="mfaa121a5dd" d="M0 0h-3.5" style="stroke:#b0b0b0;stroke-width:.3"/></defs><use xlink:href="#mfaa121a5dd" x="40.922" y="323.95" style="fill:#b0b0b0;stroke:#b0b0b0;stroke-width:.3"/></g><use xlink:href="#DejaVuSans-30" style="fill:#b0b0b0" transform="matrix(.14 0 0 -.14 25.015 329.269)" id="text_8"/></g><g id="ytick_2"><path d="M40.922 273.228h357.12" clip-path="url(#p353e716bc3)" style="fill:none;stroke:#b0b0b0;stroke-width:.3;stroke-linecap:square" id="line2d_10"/><use xlink:href="#mfaa121a5dd" x="40.922" y="273.228" style="fill:#b0b0b0;stroke:#b0b0b0;stroke-width:.3" id="line2d_11"/><g style="fill:#b0b0b0" transform="matrix(.14 0 0 -.14 16.108 278.546)" id="text_9"><defs><path id="DejaVuSans-35" d="M691 4666h2478v-532H1269V2991q137 47 274 70 138 23 276 23 781 0 1237-428 457-428 457-1159 0-753-469-1171Q2575-91 1722-91q-294 0-599 50Q819 9 494 109v635q281-153 581-228t634-75q541 0 856 284 316 284 316 772 0 487-316 771-315 285-856 285-253 0-505-56-251-56-513-175v2344z" transform="scale(.01563)"/></defs><use xlink:href="#DejaVuSans-35"/><use xlink:href="#DejaVuSans-30" x="63.623"/></g></g><g id="ytick_3"><path d="M40.922 222.505h357.12" clip-path="url(#p353e716bc3)" style="fill:none;stroke:#b0b0b0;stroke-width:.3;stroke-linecap:square" id="line2d_12"/><use xlink:href="#mfaa121a5dd" x="40.922" y="222.505" style="fill:#b0b0b0;stroke:#b0b0b0;stroke-width:.3" id="line2d_13"/><g style="fill:#b0b0b0" transform="matrix(.14 0 0 -.14 7.2 227.824)" id="text_10"><use xlink:href="#DejaVuSans-31"/><use xlink:href="#DejaVuSans-30" x="63.623"/><use xlink:href="#DejaVuSans-30" x="127.246"/></g></g><g id="ytick_4"><path d="M40.922 171.783h357.12" clip-path="url(#p353e716bc3)" style="fill:none;stroke:#b0b0b0;stroke-width:.3;stroke-linecap:square" id="line2d_14"/><use xlink:href="#mfaa121a5dd" x="40.922" y="171.783" style="fill:#b0b0b0;stroke:#b0b0b0;stroke-width:.3" id="line2d_15"/><g style="fill:#b0b0b0" transform="matrix(.14 0 0 -.14 7.2 177.102)" id="text_11"><use xlink:href="#DejaVuSans-31"/><use xlink:href="#DejaVuSans-35" x="63.623"/><use xlink:href="#DejaVuSans-30" x="127.246"/></g></g><g id="ytick_5"><path d="M40.922 121.06h357.12" clip-path="url(#p353e716bc3)" style="fill:none;stroke:#b0b0b0;stroke-width:.3;stroke-linecap:square" id="line2d_16"/><use xlink:href="#mfaa121a5dd" x="40.922" y="121.061" style="fill:#b0b0b0;stroke:#b0b0b0;stroke-width:.3" id="line2d_17"/><g style="fill:#b0b0b0" transform="matrix(.14 0 0 -.14 7.2 126.38)" id="text_12"><use xlink:href="#DejaVuSans-32"/><use xlink:href="#DejaVuSans-30" x="63.623"/><use xlink:href="#DejaVuSans-30" x="127.246"/></g></g><g id="ytick_6"><path d="M40.922 70.338h357.12" clip-path="url(#p353e716bc3)" style="fill:none;stroke:#b0b0b0;stroke-width:.3;stroke-linecap:square" id="line2d_18"/><use xlink:href="#mfaa121a5dd" x="40.922" y="70.338" style="fill:#b0b0b0;stroke:#b0b0b0;stroke-width:.3" id="line2d_19"/><g style="fill:#b0b0b0" transform="matrix(.14 0 0 -.14 7.2 75.657)" id="text_13"><use xlink:href="#DejaVuSans-32"/><use xlink:href="#DejaVuSans-35" x="63.623"/><use xlink:href="#DejaVuSans-30" x="127.246"/></g></g></g><path d="m40.922 323.886 8.177.064 30.017-.098 4.318-.033 4.319-.098 2.194.196 2.16-.035 2.159-.194 4.318-.033 2.195.131 4.177-.262 2.159.155 2.159-.35 4.318.195 4.354-.115 2.16.344 2.159-.48 2.159.186 2.195-.164 2.123-.29 2.124.225 2.16-.126 2.159.322 2.159.017 2.16-.279 4.353.245 2.16-.245 2.158-.026 2.16.223 2.194-.23 4.177-.13 2.16-.269 2.158.007 2.16.433 2.159-.008 2.194.328 4.319-.851 2.16.024 2.158.63 2.195-.261 2.088.01 2.089.219 4.318-.262 2.16.036 2.159-.167 2.194.36 2.16-.565 2.159.107 2.159-.344 2.16.704 2.194-.524 2.088.581 4.248-.457 2.159.269 2.16-.032 2.158-.263 2.195-.065 2.16.091 2.158-.058 8.637.436 2.124-.24 4.319.033 2.159.134 2.159-.265 4.354-.04 4.318-.067 2.16.27 2.194-.229 2.088.483 2.089-.908 2.16.316 2.158.077 2.16.295 6.513-.473 2.159.407 2.159-.306 2.16.338 4.282-.434 2.089.042 2.159-.487 2.16.618 2.158-.246 2.16.017 2.194.196 4.319-.033 6.513.524 2.088-.704 2.088.18 2.16.429 4.318-.575 2.16-.148 2.194.261 2.16.124 6.477-.156 2.194.098 2.124-.09 2.124-.761 4.318.262 2.16-.063 2.159.128 2.195.491 4.318-.327 2.16.316 2.158.044 2.195.229 2.088-.333 2.089-.452 4.318.589 2.16.025 2.159-.156 2.194-.458 2.16.952 6.477-.658 4.283.194 2.089-.325 2.159-.09 2.16.221 4.317.033h0" clip-path="url(#p353e716bc3)" style="fill:none;stroke:#98df8a;stroke-width:1.5;stroke-linecap:square" id="line2d_20"/><path d="m40.922 323.316 1.664.34 2.16-.18 4.353.245 2.089-.35 2.088.055 2.16-.186 2.158.12 2.16-.256 2.159.06 2.195.197 2.159-.087 2.159.054 2.16-.156 2.158.156 6.372-.524 2.159.03 2.16.33 4.318-.327 2.194.295 2.16-.366 2.159-.027 2.159.163 2.16-.032 4.282-.804 2.089.182 2.159.586 2.159-.095 2.16-.92 2.158.364 2.195-.164 2.16.105 2.159-.301 4.318.229 2.195.523 2.123-.41 2.124-.67 6.478.46 2.16-.132 2.194-.393h4.318l2.16-.118 2.159 1.002 2.194-1.506 2.089-.699 2.088.536 2.16-.313 2.158.77 2.16-.094 2.159.258 2.194-.621 2.16-.415 2.159 1.167 2.16-.795 4.353.795 2.088-1.324 2.089.539 2.159.16 2.16.364 2.158-.703 2.16.343 2.194-.295 2.16.527 2.159.128 4.318-.557 2.195.36 2.088-.359 2.089.425 2.159-1.045 2.159.783 2.16.502 2.158-.142 2.195-.884 2.16.586 2.158-.291 2.16.291 4.353.363 2.124-.751 2.124-.492 2.16.576 2.159 1.093 2.159-.552 2.159.224 2.195-.261 4.318.49 2.16-1.163 2.158 1 2.195-.458 2.088-.149 2.089.312 2.16-.3 2.158.17 2.16.507 2.159-.278 2.194.032 2.16-.769 2.159.704 2.159.21 2.16-.145 2.194-.72 2.088-.194 2.089-.46 2.159.91 6.478.137 4.353-.239 4.319-.811 2.159.886 2.195-.589 2.088.203 2.088.517 2.16.132 2.159-.164 2.16.401 2.158-.467 4.354-.514 2.16-.075 2.159.143 2.159.806 4.318-.478 2.124-.667 2.16.914 2.158-.26 2.16-.383 2.159.154 2.195.982 2.159-.256 2.159-.791 2.16.892 2.158.613 2.195-.033 2.088-.706 2.089-.406 2.16.6 2.158-.568 2.16.466 2.159.222 2.194-.262 2.16.547 2.159.173 2.159-.274 2.16-.119 2.194.23 2.088-.21 2.089.602 4.318-.295 2.16.062 2.159.298h0" clip-path="url(#p353e716bc3)" style="fill:none;stroke:#ffbb78;stroke-width:1.5;stroke-linecap:square" id="line2d_21"/><path d="m40.922 323.886 1.664-.1 8.602.091 2.088-.189 6.478.025 2.159-.221 2.195-.098 2.159.218 2.159.01 2.16-.247 2.158-.505 2.195.065 2.088-.18 2.089-.049 2.159.297 2.16-.395 2.158-.72 2.16.851 2.194-1.243 4.319.49 2.159-.2 2.16.724 2.194-.622 2.088-.764 4.248-.082 2.159-1.837 4.318.818 2.195-1.08 2.16-.167 2.159.232 4.318.066 2.195-.458 2.123-.718 2.124-.068 2.16-1.15 2.159 1.281 2.159-.74 2.16.61 2.194-.917 2.159.171 2.16.385 2.158-.418 2.16-.203 2.194.883 2.089-1.825 2.088.287 2.16-.123 2.158-.368 2.16-.072 2.159-1.564 2.194 3.6 2.16-.92 2.159-.553 2.16.52 2.158 1.084 2.195-1.67 2.088-.221 2.089.745 2.159-.615 2.16 1.695 2.158.165 2.16-1.081 2.194 1.08 2.16-.405 2.159.994 2.159-1.197 2.16 1.655 2.194-1.145 2.088-.152 2.089-.568 2.159-.466 2.159 1.513 2.16-1.141 2.158-.364 2.195.163 2.16.945 2.158-.52 2.16 1.365 4.353-.383 2.124-1.516 2.124 1.19 2.16-.745 4.318-.744 2.159 1.292 2.195-.72 2.159 1.525 2.159-1.296 2.16.687 2.158 1.08 2.195-.229 2.088.381 2.089-1.69 2.16 1.236 2.158-.287 2.16.726 2.159-.039 2.194.295 2.16.083 2.159-.312 2.159.244 2.16 1.555 2.194-.621 2.088.621 2.089-1.341 2.159.598 2.16-.042 2.158-.263 2.16.198 2.194-1.604 2.16.933 2.159.31 2.159-.107 2.159.828 2.195-1.146 2.088.332 2.088-.953 2.16.871 2.159.7 2.16-.159 2.158.322 2.195-.164 2.16-.327 4.318 1.251 2.159.353 2.194-.557 2.124-1.222 2.124.928 2.16-.956 2.158.53 2.16.721 2.159-.164 2.195.098 2.159-.644 2.159.153 2.16 1.267 2.158.107 2.195.393 2.088-1.46 2.089.707 4.318.393 2.16-.41 2.159.574 2.194-.393 2.16-.046 2.159.864 2.159.05 2.16-.639 4.282.856 2.089-.398 4.318.197 2.16-.626 2.159-.258h0" clip-path="url(#p353e716bc3)" style="fill:none;stroke:#aec7e8;stroke-width:1.5;stroke-linecap:square" id="line2d_22"/><g style="fill:#1f77b4" transform="matrix(.14 0 0 -.14 408.756 219.564)" id="text_14"><defs><path id="DejaVuSans-6d" d="M3328 2828q216 388 516 572t706 184q547 0 844-383 297-382 297-1088V0h-578v2094q0 503-179 746-178 244-543 244-447 0-707-297-259-296-259-809V0h-578v2094q0 506-178 748t-550 242q-441 0-701-298-259-298-259-808V0H581v3500h578v-544q197 322 472 475t653 153q382 0 649-194 267-193 395-562z" transform="scale(.01563)"/><path id="DejaVuSans-79" d="M2059-325q-243-625-475-815-231-191-618-191H506v481h338q237 0 368 113 132 112 291 531l103 262L191 3500h609L1894 763l1094 2737h609L2059-325z" transform="scale(.01563)"/><path id="DejaVuSans-73" d="M2834 3397v-544q-243 125-506 187-262 63-544 63-428 0-642-131t-214-394q0-200 153-314t616-217l197-44q612-131 870-370t258-667q0-488-386-773Q2250-91 1575-91q-281 0-586 55T347 128v594q319-166 628-249 309-82 613-82 406 0 624 139 219 139 219 392 0 234-158 359-157 125-692 241l-200 47q-534 112-772 345-237 233-237 639 0 494 350 762 350 269 994 269 318 0 599-47 282-46 519-140z" transform="scale(.01563)"/><path id="DejaVuSans-71" d="M947 1747q0-634 261-995t717-361q456 0 718 361 263 361 263 995t-263 995q-262 361-718 361t-717-361q-261-361-261-995zM2906 525q-181-312-458-464-276-152-664-152-634 0-1033 506-398 507-398 1332t398 1331q399 506 1033 506 388 0 664-152 277-151 458-463v531h575v-4831h-575V525z" transform="scale(.01563)"/><path id="DejaVuSans-6c" d="M603 4863h575V0H603v4863z" transform="scale(.01563)"/></defs><use xlink:href="#DejaVuSans-6d"/><use xlink:href="#DejaVuSans-79" x="97.412"/><use xlink:href="#DejaVuSans-73" x="156.592"/><use xlink:href="#DejaVuSans-71" x="208.691"/><use xlink:href="#DejaVuSans-6c" x="272.168"/></g><g style="fill:#ff7f0e" transform="matrix(.14 0 0 -.14 408.756 233.564)" id="text_15"><defs><path id="DejaVuSans-70" d="M1159 525v-1856H581v4831h578v-531q182 312 458 463 277 152 661 152 638 0 1036-506 399-506 399-1331T3314 415Q2916-91 2278-91q-384 0-661 152-276 152-458 464zm1957 1222q0 634-261 995t-717 361q-457 0-718-361t-261-995q0-634 261-995t718-361q456 0 717 361t261 995z" transform="scale(.01563)"/><path id="DejaVuSans-6f" d="M1959 3097q-462 0-731-361t-269-989q0-628 267-989 268-361 733-361 460 0 728 362 269 363 269 988 0 622-269 986-268 364-728 364zm0 487q750 0 1178-488 429-487 429-1349 0-859-429-1349Q2709-91 1959-91q-753 0-1180 489-426 490-426 1349 0 862 426 1349 427 488 1180 488z" transform="scale(.01563)"/><path id="DejaVuSans-74" d="M1172 4494v-994h1184v-447H1172V1153q0-428 117-550t477-122h590V0h-590q-666 0-919 248-253 249-253 905v1900H172v447h422v994h578z" transform="scale(.01563)"/><path id="DejaVuSans-67" d="M2906 1791q0 625-258 968-257 344-723 344-462 0-720-344-258-343-258-968 0-622 258-966t720-344q466 0 723 344 258 344 258 966zm575-1357q0-893-397-1329-396-436-1215-436-303 0-572 45t-522 139v559q253-137 500-202 247-66 503-66 566 0 847 295t281 892v285q-178-310-456-463T1784 0Q1141 0 747 490 353 981 353 1791q0 812 394 1302 394 491 1037 491 388 0 666-153t456-462v531h575V434z" transform="scale(.01563)"/><path id="DejaVuSans-72" d="M2631 2963q-97 56-211 82-114 27-251 27-488 0-749-317t-261-911V0H581v3500h578v-544q182 319 472 473 291 155 707 155 59 0 131-8 72-7 159-23l3-590z" transform="scale(.01563)"/><path id="DejaVuSans-65" d="M3597 1894v-281H953q38-594 358-905t892-311q331 0 642 81t618 244V178Q3153 47 2828-22t-659-69q-838 0-1327 487-489 488-489 1320 0 859 464 1363 464 505 1252 505 706 0 1117-455 411-454 411-1235zm-575 169q-6 471-264 752-258 282-683 282-481 0-770-272t-333-766l2050 4z" transform="scale(.01563)"/></defs><use xlink:href="#DejaVuSans-70"/><use xlink:href="#DejaVuSans-6f" x="63.477"/><use xlink:href="#DejaVuSans-73" x="124.658"/><use xlink:href="#DejaVuSans-74" x="176.758"/><use xlink:href="#DejaVuSans-67" x="215.967"/><use xlink:href="#DejaVuSans-72" x="279.443"/><use xlink:href="#DejaVuSans-65" x="318.307"/><use xlink:href="#DejaVuSans-73" x="379.83"/><use xlink:href="#DejaVuSans-71" x="431.93"/><use xlink:href="#DejaVuSans-6c" x="495.406"/></g><g style="fill:#2ca02c" transform="matrix(.14 0 0 -.14 408.756 247.564)" id="text_16"><defs><path id="DejaVuSans-6e" d="M3513 2113V0h-575v2094q0 497-194 743-194 247-581 247-466 0-735-297-269-296-269-809V0H581v3500h578v-544q207 316 486 472 280 156 646 156 603 0 912-373 310-373 310-1098z" transform="scale(.01563)"/><path id="DejaVuSans-64" d="M2906 2969v1894h575V0h-575v525q-181-312-458-464-276-152-664-152-634 0-1033 506-398 507-398 1332t398 1331q399 506 1033 506 388 0 664-152 277-151 458-463zM947 1747q0-634 261-995t717-361q456 0 718 361 263 361 263 995t-263 995q-262 361-718 361t-717-361q-261-361-261-995z" transform="scale(.01563)"/><path id="DejaVuSans-62" d="M3116 1747q0 634-261 995t-717 361q-457 0-718-361t-261-995q0-634 261-995t718-361q456 0 717 361t261 995zM1159 2969q182 312 458 463 277 152 661 152 638 0 1036-506 399-506 399-1331T3314 415Q2916-91 2278-91q-384 0-661 152-276 152-458 464V0H581v4863h578V2969z" transform="scale(.01563)"/></defs><use xlink:href="#DejaVuSans-6d"/><use xlink:href="#DejaVuSans-6f" x="97.412"/><use xlink:href="#DejaVuSans-6e" x="158.594"/><use xlink:href="#DejaVuSans-67" x="221.973"/><use xlink:href="#DejaVuSans-6f" x="285.449"/><use xlink:href="#DejaVuSans-64" x="346.631"/><use xlink:href="#DejaVuSans-62" x="410.107"/></g><g style="fill:#d62728" transform="matrix(.14 0 0 -.14 408.756 261.564)" id="text_17"><defs><path id="DejaVuSans-2d" d="M313 2009h1684v-512H313v512z" transform="scale(.01563)"/><path id="DejaVuSans-76" d="M191 3500h609L1894 563l1094 2937h609L2284 0h-781L191 3500z" transform="scale(.01563)"/></defs><use xlink:href="#DejaVuSans-73"/><use xlink:href="#DejaVuSans-71" x="52.1"/><use xlink:href="#DejaVuSans-6c" x="115.576"/><use xlink:href="#DejaVuSans-2d" x="143.359"/><use xlink:href="#DejaVuSans-73" x="179.443"/><use xlink:href="#DejaVuSans-65" x="231.543"/><use xlink:href="#DejaVuSans-72" x="293.066"/><use xlink:href="#DejaVuSans-76" x="334.18"/><use xlink:href="#DejaVuSans-65" x="393.359"/><use xlink:href="#DejaVuSans-72" x="454.883"/></g><g style="fill:#9467bd" transform="matrix(.14 0 0 -.14 408.756 275.564)" id="text_18"><defs><path id="DejaVuSans-61" d="M2194 1759q-697 0-966-159t-269-544q0-306 202-486 202-179 548-179 479 0 768 339t289 901v128h-572zm1147 238V0h-575v531q-197-318-491-470T1556-91q-537 0-855 302-317 302-317 808 0 590 395 890 396 300 1180 300h807v57q0 397-261 614t-733 217q-300 0-585-72-284-72-546-216v532q315 122 612 182 297 61 578 61 760 0 1135-394 375-393 375-1193z" transform="scale(.01563)"/><path id="DejaVuSans-63" d="M3122 3366v-538q-244 135-489 202t-495 67q-560 0-870-355-309-354-309-995t309-996q310-354 870-354 250 0 495 67t489 202V134Q2881 22 2623-34q-257-57-548-57-791 0-1257 497-465 497-465 1341 0 856 470 1346 471 491 1290 491 265 0 518-55 253-54 491-163z" transform="scale(.01563)"/></defs><use xlink:href="#DejaVuSans-6f"/><use xlink:href="#DejaVuSans-72" x="61.182"/><use xlink:href="#DejaVuSans-61" x="102.295"/><use xlink:href="#DejaVuSans-63" x="163.574"/><use xlink:href="#DejaVuSans-6c" x="218.555"/><use xlink:href="#DejaVuSans-65" x="246.338"/></g><g style="fill:#8c564b" transform="matrix(.14 0 0 -.14 408.756 289.564)" id="text_19"><defs><path id="DejaVuSans-69" d="M603 3500h575V0H603v3500zm0 1363h575v-729H603v729z" transform="scale(.01563)"/><path id="DejaVuSans-68" d="M3513 2113V0h-575v2094q0 497-194 743-194 247-581 247-466 0-735-297-269-296-269-809V0H581v4863h578V2956q207 316 486 472 280 156 646 156 603 0 912-373 310-373 310-1098z" transform="scale(.01563)"/></defs><use xlink:href="#DejaVuSans-65"/><use xlink:href="#DejaVuSans-6c" x="61.523"/><use xlink:href="#DejaVuSans-61" x="89.307"/><use xlink:href="#DejaVuSans-73" x="150.586"/><use xlink:href="#DejaVuSans-74" x="202.686"/><use xlink:href="#DejaVuSans-69" x="241.895"/><use xlink:href="#DejaVuSans-63" x="269.678"/><use xlink:href="#DejaVuSans-73" x="324.658"/><use xlink:href="#DejaVuSans-65" x="376.758"/><use xlink:href="#DejaVuSans-61" x="438.281"/><use xlink:href="#DejaVuSans-72" x="499.561"/><use xlink:href="#DejaVuSans-63" x="538.424"/><use xlink:href="#DejaVuSans-68" x="593.404"/></g><g style="fill:#e377c2" transform="matrix(.14 0 0 -.14 408.756 303.564)" id="text_20"><use xlink:href="#DejaVuSans-73"/><use xlink:href="#DejaVuSans-71" x="52.1"/><use xlink:href="#DejaVuSans-6c" x="115.576"/><use xlink:href="#DejaVuSans-69" x="143.359"/><use xlink:href="#DejaVuSans-74" x="171.143"/><use xlink:href="#DejaVuSans-65" x="210.352"/></g><g style="fill:#7f7f7f" transform="matrix(.14 0 0 -.14 408.756 317.564)" id="text_21"><use xlink:href="#DejaVuSans-72"/><use xlink:href="#DejaVuSans-65" x="38.863"/><use xlink:href="#DejaVuSans-64" x="100.387"/><use xlink:href="#DejaVuSans-69" x="163.863"/><use xlink:href="#DejaVuSans-73" x="191.646"/></g><g style="fill:#bcbd22" transform="matrix(.14 0 0 -.14 408.756 331.564)" id="text_22"><use xlink:href="#DejaVuSans-6d"/><use xlink:href="#DejaVuSans-61" x="97.412"/><use xlink:href="#DejaVuSans-72" x="158.691"/><use xlink:href="#DejaVuSans-69" x="199.805"/><use xlink:href="#DejaVuSans-61" x="227.588"/><use xlink:href="#DejaVuSans-64" x="288.867"/><use xlink:href="#DejaVuSans-62" x="352.344"/></g><g style="fill:#17becf" transform="matrix(.14 0 0 -.14 408.756 345.564)" id="text_23"><use xlink:href="#DejaVuSans-6d"/><use xlink:href="#DejaVuSans-73" x="97.412"/><use xlink:href="#DejaVuSans-2d" x="149.512"/><use xlink:href="#DejaVuSans-61" x="185.596"/><use xlink:href="#DejaVuSans-63" x="246.875"/><use xlink:href="#DejaVuSans-63" x="301.855"/><use xlink:href="#DejaVuSans-65" x="356.836"/><use xlink:href="#DejaVuSans-73" x="418.359"/><use xlink:href="#DejaVuSans-73" x="470.459"/></g><g style="fill:#aec7e8" transform="matrix(.14 0 0 -.14 408.756 359.564)" id="text_24"><use xlink:href="#DejaVuSans-73"/><use xlink:href="#DejaVuSans-6f" x="52.1"/><use xlink:href="#DejaVuSans-6c" x="113.281"/><use xlink:href="#DejaVuSans-72" x="141.064"/></g><g style="fill:#ffbb78" transform="matrix(.14 0 0 -.14 408.756 373.564)" id="text_25"><use xlink:href="#DejaVuSans-64"/><use xlink:href="#DejaVuSans-62" x="63.477"/><use xlink:href="#DejaVuSans-32" x="126.953"/></g><g style="fill:#98df8a" transform="matrix(.14 0 0 -.14 408.756 387.564)" id="text_26"><use xlink:href="#DejaVuSans-68"/><use xlink:href="#DejaVuSans-32" x="63.379"/></g><g style="fill:#b0b0b0" transform="matrix(.09716 0 0 -.09716 40.922 357.986)" id="text_27"><defs><path id="DejaVuSans-40" d="M2381 1678q0-447 222-702 222-254 610-254 384 0 604 256 221 256 221 700 0 438-225 695-225 258-607 258-378 0-602-256-223-256-223-697zm1703-934q-187-241-429-355t-564-114q-538 0-874 389t-336 1014q0 625 337 1015 338 391 873 391 322 0 565-117 244-117 428-354v409h447V722q457 69 714 417 258 349 258 902 0 334-99 628-98 294-298 544-325 409-792 626t-1017 217q-384 0-738-102-353-101-653-301-490-319-767-836-276-517-276-1120 0-497 179-932 180-434 521-765 328-325 759-495 431-171 922-171 403 0 792 136t714 389l281-347q-390-303-851-464t-936-161q-578 0-1091 205-512 205-912 595Q841 78 631 592q-209 514-209 1105 0 569 212 1084 213 516 607 907 403 396 931 607t1119 211q662 0 1229-272 568-271 952-771 234-307 357-666 124-359 124-744 0-822-497-1297T4084 263v481z" transform="scale(.01563)"/><path id="DejaVuSans-2f" d="M1625 4666h531L531-594H0l1625 5260z" transform="scale(.01563)"/><path id="DejaVuSans-6b" d="M581 4863h578V1991l1716 1509h734L1753 1863 3688 0h-750L1159 1709V0H581v4863z" transform="scale(.01563)"/><path id="DejaVuSans-66" d="M2375 4863v-479h-550q-309 0-430-125-120-125-120-450v-309h947v-447h-947V0H697v3053H147v447h550v244q0 584 272 851 272 268 862 268h544z" transform="scale(.01563)"/><path id="DejaVuSans-77" d="M269 3500h575l719-2731 715 2731h678l719-2731 716 2731h575L4050 0h-678l-753 2869L1863 0h-679L269 3500z" transform="scale(.01563)"/><path id="DejaVuSans-7c" d="M1344 4891v-6400H813v6400h531z" transform="scale(.01563)"/><path id="DejaVuSans-4e" d="M628 4666h850L3547 763v3903h612V0h-850L1241 3903V0H628v4666z" transform="scale(.01563)"/><path id="DejaVuSans-53" d="M3425 4513v-616q-359 172-678 256-319 85-616 85-515 0-795-200t-280-569q0-310 186-468 186-157 705-254l381-78q706-135 1042-474t336-907q0-679-455-1029Q2797-91 1919-91q-331 0-705 75-373 75-773 222v650q384-215 753-325 369-109 725-109 540 0 834 212 294 213 294 607 0 343-211 537t-692 291l-385 75q-706 140-1022 440-315 300-315 835 0 619 436 975t1201 356q329 0 669-60 341-59 697-177z" transform="scale(.01563)"/><path id="DejaVuSans-f6" d="M1959 3097q-462 0-731-361t-269-989q0-628 267-989 268-361 733-361 460 0 728 362 269 363 269 988 0 622-269 986-268 364-728 364zm0 487q750 0 1178-488 429-487 429-1349 0-859-429-1349Q2709-91 1959-91q-753 0-1180 489-426 490-426 1349 0 862 426 1349 427 488 1180 488zm295 1266h634v-631h-634v631zm-1222 0h634v-631h-634v631z" transform="scale(.01563)"/><path id="DejaVuSans-43" d="M4122 4306v-665q-319 297-680 443-361 147-767 147-800 0-1225-489t-425-1414q0-922 425-1411t1225-489q406 0 767 147t680 444V359q-331-225-702-338-370-112-782-112-1060 0-1670 648-609 649-609 1771 0 1125 609 1773 610 649 1670 649 418 0 788-111 371-111 696-333z" transform="scale(.01563)"/><path id="DejaVuSans-42" d="M1259 2228V519h1013q509 0 754 211 246 211 246 645 0 438-246 645-245 208-754 208H1259zm0 1919V2741h935q462 0 688 173 227 174 227 530 0 353-227 528-226 175-688 175h-935zm-631 519h1613q722 0 1112-300 391-300 391-853 0-429-200-682t-588-315q466-100 724-418 258-317 258-792 0-625-425-966Q3088 0 2303 0H628v4666z" transform="scale(.01563)"/><path id="DejaVuSans-59" d="M-13 4666h679l1293-1919 1285 1919h678L2272 2222V0h-634v2222L-13 4666z" transform="scale(.01563)"/></defs><use xlink:href="#DejaVuSans-40"/><use xlink:href="#DejaVuSans-6e" x="100"/><use xlink:href="#DejaVuSans-73" x="163.379"/><use xlink:href="#DejaVuSans-63" x="215.479"/><use xlink:href="#DejaVuSans-68" x="270.459"/><use xlink:href="#DejaVuSans-6c" x="333.838"/><use xlink:href="#DejaVuSans-6f" x="361.621"/><use xlink:href="#DejaVuSans-65" x="422.803"/><use xlink:href="#DejaVuSans-20" x="484.326"/><use xlink:href="#DejaVuSans-2f" x="516.113"/><use xlink:href="#DejaVuSans-20" x="549.805"/><use xlink:href="#DejaVuSans-73" x="581.592"/><use xlink:href="#DejaVuSans-74" x="633.691"/><use xlink:href="#DejaVuSans-61" x="672.9"/><use xlink:href="#DejaVuSans-63" x="734.18"/><use xlink:href="#DejaVuSans-6b" x="789.16"/><use xlink:href="#DejaVuSans-6f" x="843.445"/><use xlink:href="#DejaVuSans-76" x="904.627"/><use xlink:href="#DejaVuSans-65" x="963.807"/><use xlink:href="#DejaVuSans-72" x="1025.33"/><use xlink:href="#DejaVuSans-66" x="1066.443"/><use xlink:href="#DejaVuSans-6c" x="1101.648"/><use xlink:href="#DejaVuSans-6f" x="1129.432"/><use xlink:href="#DejaVuSans-77" x="1190.613"/><use xlink:href="#DejaVuSans-2d" x="1272.4"/><use xlink:href="#DejaVuSans-74" x="1308.484"/><use xlink:href="#DejaVuSans-72" x="1347.693"/><use xlink:href="#DejaVuSans-65" x="1386.557"/><use xlink:href="#DejaVuSans-6e" x="1448.08"/><use xlink:href="#DejaVuSans-64" x="1511.459"/><use xlink:href="#DejaVuSans-73" x="1574.936"/><use xlink:href="#DejaVuSans-20" x="1627.035"/><use xlink:href="#DejaVuSans-7c" x="1658.822"/><use xlink:href="#DejaVuSans-20" x="1692.514"/><use xlink:href="#DejaVuSans-4e" x="1724.301"/><use xlink:href="#DejaVuSans-69" x="1799.105"/><use xlink:href="#DejaVuSans-63" x="1826.889"/><use xlink:href="#DejaVuSans-6f" x="1881.869"/><use xlink:href="#DejaVuSans-20" x="1943.051"/><use xlink:href="#DejaVuSans-53" x="1974.838"/><use xlink:href="#DejaVuSans-63" x="2038.314"/><use xlink:href="#DejaVuSans-68" x="2093.295"/><use xlink:href="#DejaVuSans-6c" x="2156.674"/><use xlink:href="#DejaVuSans-f6" x="2184.457"/><use xlink:href="#DejaVuSans-6d" x="2245.639"/><use xlink:href="#DejaVuSans-65" x="2343.051"/><use xlink:href="#DejaVuSans-72" x="2404.574"/><use xlink:href="#DejaVuSans-20" x="2445.688"/><use xlink:href="#DejaVuSans-7c" x="2477.475"/><use xlink:href="#DejaVuSans-20" x="2511.166"/><use xlink:href="#DejaVuSans-43" x="2542.953"/><use xlink:href="#DejaVuSans-43" x="2612.777"/><use xlink:href="#DejaVuSans-20" x="2682.602"/><use xlink:href="#DejaVuSans-42" x="2714.389"/><use xlink:href="#DejaVuSans-59" x="2777.492"/></g><g style="fill:#b0b0b0" transform="matrix(.14 0 0 -.14 63.337 17.838)" id="text_28"><defs><path id="DejaVuSans-44" d="M1259 4147V519h763q966 0 1414 437 448 438 448 1382 0 937-448 1373t-1414 436h-763zm-631 519h1297q1356 0 1990-564 635-564 635-1764 0-1207-638-1773Q3275 0 1925 0H628v4666z" transform="scale(.01563)"/><path id="DejaVuSans-75" d="M544 1381v2119h575V1403q0-497 193-746 194-248 582-248 465 0 735 297 271 297 271 810v1984h575V0h-575v538q-209-319-486-474-276-155-642-155-603 0-916 375-312 375-312 1097zm1447 2203z" transform="scale(.01563)"/><path id="DejaVuSans-4f" d="M2522 4238q-688 0-1093-513-404-512-404-1397 0-881 404-1394 405-512 1093-512 687 0 1089 512 402 513 402 1394 0 885-402 1397-402 513-1089 513zm0 512q981 0 1568-658 588-658 588-1764 0-1103-588-1761Q3503-91 2522-91q-984 0-1574 656-589 657-589 1763t589 1764q590 658 1574 658z" transform="scale(.01563)"/></defs><use xlink:href="#DejaVuSans-44"/><use xlink:href="#DejaVuSans-61" x="77.002"/><use xlink:href="#DejaVuSans-69" x="138.281"/><use xlink:href="#DejaVuSans-6c" x="166.064"/><use xlink:href="#DejaVuSans-79" x="193.848"/><use xlink:href="#DejaVuSans-20" x="253.027"/><use xlink:href="#DejaVuSans-6e" x="284.814"/><use xlink:href="#DejaVuSans-75" x="348.193"/><use xlink:href="#DejaVuSans-6d" x="411.572"/><use xlink:href="#DejaVuSans-62" x="508.984"/><use xlink:href="#DejaVuSans-65" x="572.461"/><use xlink:href="#DejaVuSans-72" x="633.984"/><use xlink:href="#DejaVuSans-20" x="675.098"/><use xlink:href="#DejaVuSans-6f" x="706.885"/><use xlink:href="#DejaVuSans-66" x="768.066"/><use xlink:href="#DejaVuSans-20" x="803.271"/><use xlink:href="#DejaVuSans-71" x="835.059"/><use xlink:href="#DejaVuSans-75" x="898.535"/><use xlink:href="#DejaVuSans-65" x="961.914"/><use xlink:href="#DejaVuSans-73" x="1023.438"/><use xlink:href="#DejaVuSans-74" x="1075.537"/><use xlink:href="#DejaVuSans-69" x="1114.746"/><use xlink:href="#DejaVuSans-6f" x="1142.529"/><use xlink:href="#DejaVuSans-6e" x="1203.711"/><use xlink:href="#DejaVuSans-73" x="1267.09"/><use xlink:href="#DejaVuSans-20" x="1319.189"/><use xlink:href="#DejaVuSans-6f" x="1350.977"/><use xlink:href="#DejaVuSans-6e" x="1412.158"/><use xlink:href="#DejaVuSans-20" x="1475.537"/><use xlink:href="#DejaVuSans-53" x="1507.324"/><use xlink:href="#DejaVuSans-74" x="1570.801"/><use xlink:href="#DejaVuSans-61" x="1610.01"/><use xlink:href="#DejaVuSans-63" x="1671.289"/><use xlink:href="#DejaVuSans-6b" x="1726.27"/><use xlink:href="#DejaVuSans-4f" x="1784.18"/><use xlink:href="#DejaVuSans-76" x="1862.891"/><use xlink:href="#DejaVuSans-65" x="1922.07"/><use xlink:href="#DejaVuSans-72" x="1983.594"/><use xlink:href="#DejaVuSans-66" x="2024.707"/><use xlink:href="#DejaVuSans-6c" x="2059.912"/><use xlink:href="#DejaVuSans-6f" x="2087.695"/><use xlink:href="#DejaVuSans-77" x="2148.877"/></g><path d="m40.922 320.019 1.664.953 2.16.543 2.159-.052 2.194.589 4.177-1.146 2.16-.642 2.158-.437 2.16-.24 2.159-2.182 2.195 1.8 2.159-.936 2.159.87 2.16-.228 2.158.13 4.283.634 2.089-1.288 2.159 1.032 2.16-1.687 2.158-.342 2.16-.149 2.194 1.211 2.16.189 2.159-.45 2.159-.091 2.16.549 2.194-1.964 2.088.381 2.089-.217 2.159-.98 2.159.194 2.16-.939 4.353.285 2.16 2.048 2.159-.477 2.159-1.01 2.159.519 2.195-.687 2.123-1.962 2.124 1.143 2.16-1.583 2.159 1.223 2.159-.006 2.16-3.2 2.194 1.047 2.159 2.762 2.16-1.748 2.158-.687 2.16 1.243 2.194-2.356 2.089-.191 2.088-3.67 2.16.105 2.158 1.237 2.16.69 2.159-1.934 2.194 3.272 2.16-1.507 2.159-3.794 2.16 2.205 2.158 1.558 2.195-1.014 2.088-3.851 2.089 2.378 2.159-.931 2.16 4.956 2.158-.324 2.16-1.934 2.194 2.455 2.16 1.542 2.159-.92 2.159.142 2.16 1.297 2.194-3.6 2.088.7 2.089-1.583 2.159.82 2.159-.329 2.16-2.918 2.158.987 2.195 2.88 2.16-.249 2.158-.667 2.16 2.764 2.159-1.553 2.194-1.964 2.124-3.078 2.124 2.49 2.16 1.298 2.159.108 2.159-3.083 2.159 2.658 2.195-1.113 2.159 2.681 2.159-1.7 2.16 1.126 2.158 1.624 2.195-.982 2.088-1.92 2.089.677 2.16 1.716 2.158-3.516 2.16-1.285 2.159.696 2.194 1.669 2.16 3.18 2.159-.857 2.159.08 2.16 2.243 2.194-1.407 2.088.354 4.248-.616 2.16.164 2.158-.13 2.16-.72 2.194-1.506 2.16 1.753 2.159-.477 2.159.206 2.159 3.1 2.195-3.47 2.088-.84 2.088 1.43 6.478.964 2.16-1.39 2.194 2.847 2.16-.646 2.158-1.939 2.16-.022 2.159 1.69 2.194-.784 2.124-.93 2.124 2.566 2.16-4.57 2.158 1.886 2.16-.602 4.354 4.038 2.159-.183 2.159 2.114 2.16-.626 2.158 1.215 2.195-1.276 2.088-1.507 2.089-.358 2.16 1.79 2.158.795 2.16-1.234 2.159.776 2.194 1.57 2.16-.52 2.159 1.273 2.159-1.104 2.16.58 2.194.164 2.088-1.848 2.089-.312 2.159 1.146 2.16.556 2.158-.387 2.16.91h0" clip-path="url(#p353e716bc3)" style="fill:none;stroke:#17becf;stroke-width:1.5;stroke-linecap:square" id="line2d_23"/><path d="M59.754 323.95h6.513l34.512-.066 2.088-.115 2.089.148 8.636-.065 6.514.065 2.159-.136 8.601.136 4.319-.033 4.318-.032 17.203-.066 2.16-.276 2.158.113 2.16-.316 2.159-.012 2.194.426 2.16-.447 6.477.12 2.195-.262 2.088.13 2.089-.392 2.159.032 2.16.262 2.158-.093 4.354.126 4.319-.654 2.159.054 2.16.207 2.194-.261 2.088.356 2.089-.913 2.159.375 2.159.247 2.16-.417 2.158-.074 2.195.753 4.318-1.113 2.16.434 4.353-.303 2.124-.772 2.124-.57 2.16.563 2.159.354 2.159-1.064 2.159.802 2.195-.098 2.159-.535 2.159.306 2.16.032 2.158-.621 2.195.425 2.088-.71 2.089-.893 2.16.65 2.158-.127 2.16.431 2.159-.202 2.194-1.047 2.16 1.114 2.159-.001 2.159-1.52 2.16 1.389 2.194.294 2.088-1.21 2.089.163 4.318-.622 2.16 1.033 2.159-1.163 2.194.327 2.16.194 2.159-.325 2.159-.79 2.159 1.968 2.195-1.636 2.088-.707 2.088.707 2.16.039 2.159.91 2.16-.437 2.158-1.265 2.195 1.342 2.16-.584 2.158-1.118 2.16.07 2.159.781 2.194-1.407 2.124.106 2.124.777 2.16-1.102 2.158-.174 2.16-.469 2.159 1.484 4.354.14 2.159 1.005 2.16-.837 2.158 1.557 2.195-1.702 2.088-1.019 2.089.921 2.16-.332 2.158.43 2.16.111 4.353.511 2.16-1.085 2.159 1.674 2.159-1.505 2.16.752 2.194-.818 2.088.61 2.089-.642 2.159 1.349 2.16-.891 2.158.587 2.16-.031h0" clip-path="url(#p353e716bc3)" style="fill:none;stroke:#bcbd22;stroke-width:1.5;stroke-linecap:square" id="line2d_24"/><path d="m61.913 323.95 15.114-.145 4.248-.058 6.478-.157 2.194.033 4.319-.23 2.159-.018 2.16.117 2.194-.917 2.088.18 2.089-.081 2.159-.415 2.159.382 2.16-1.126 2.158.144 2.195.327 2.16-.268 4.318.034 2.159-.551 2.195.164 2.123-.424 2.124.293 4.319-1.31 2.159-.133 2.16.985 2.194-.819 2.159.713 2.16-1.072 2.158.835 2.16.179 2.194.458 4.177-1.145 4.318-.622 2.16.623 2.159.359 2.194-.818 2.16.222 2.159-.811 2.16-.44 2.158.538 2.195-.098 2.088.18 2.089-1.555 2.159.394 2.16 1.897 4.318-.982 2.194-.196 2.16.33 2.159.095 2.159.276 2.16.51 2.194-1.015 2.088-.768 2.089-.312 2.159.165 2.159-.328 2.16-.044 4.353-.447 2.16.075 8.671 1.005 2.124-.994 2.124-.25 2.16.307 2.159-.241 2.159.342 2.159 1.36 2.195-.917 2.159.03 2.159 1.312 2.16-1.48 2.158.825 2.195-.85 2.088-.5 2.089 1.056 2.16-.227 2.158-.951 2.16.511 2.159.241 2.194-.262 2.16.664 2.159.416 2.159-.687 2.16 1.342 2.194-1.08 2.088-.08 2.089-.804 6.477-.088 2.16-1.122 2.194-1.342 2.16 1.01 2.159-.421 2.159-.052 2.159 2.768 2.195-2.029 2.088.304 2.088-.566 2.16-.275 2.159.799 2.16.588 2.158-1.308 2.195-.196 2.16.895 2.158-.012 2.16-1.002 2.159.577 4.318-1.054 2.124-.844 2.16-1.486 2.158.7 2.16-.328 2.159.263 2.195.982 2.159-.061 2.159.813 4.318.95 2.195-.459 2.088.01 4.248-1.923 2.16 2.47 2.158-.982 2.16.949 2.194.36 2.16-.295 2.159.917 2.159-1.627 2.16 1.136 2.194-1.113 2.088-.11 2.089.895 2.159-.03 2.16-.166 2.158.876 2.16-1.301h0" clip-path="url(#p353e716bc3)" style="fill:none;stroke:#7f7f7f;stroke-width:1.5;stroke-linecap:square" id="line2d_25"/><path d="m40.922 322.492 1.664.378 2.16.133 2.159.26 4.283-1.233 2.088-.044 2.16-1.147 2.158-.325 6.514-.524 2.159.477 2.159-.935 2.16-.282 2.158-.078 2.195-.294 2.088-1.268 2.089-.107 2.159-.35 2.16-.828 2.158.558 2.16-2.194 2.194-.36 2.16 1.133 2.159-1.526 2.159-1.957 2.16.714 2.194-.557 2.088-3.403 2.089-2.814 2.159.177 2.159.837 2.16-3.17 2.158.814 2.195.098 2.16-.372 2.159 2.434 2.159-3.685 2.159 3.914 2.195-2.52 2.123-5.962 2.124-1.597 2.16 1.668 2.159 1.474 2.159.014 2.16-1.356 2.194-.458 2.159 3.2 2.16-1.564 2.158-.972 2.16.285 2.194-1.473 2.089.304 2.088-1.613 2.16.062 2.158.396 2.16 3.797 2.159-5.433 2.194 2.324 2.16-.035 2.159-3.467 2.16-1.166 2.158 3.424 2.195-4.287 2.088-2.081 2.089.183 2.159-.823 2.16 7.27 2.158 2.096 2.16-3.732 2.194 4.221 2.16-1.402 2.159 2.187 2.159-1.409 2.16 2.816 2.194-3.305 2.088-1.11 2.089-4.715 2.159-1.632 2.159 7.588 2.16-.96 2.158.404 2.195.556 2.16-.927 2.158 1.45 2.16 1.762 2.159.268 2.194-1.407 2.124-3.414 2.124-1.757 2.16-1.602 2.159 3.042 2.159 4.194 2.159-.758 2.195 2.847 2.159-2.021 2.159.058 2.16.922 2.158.681 2.195-1.374 4.177-1.898 2.16-1.602 2.158.358 2.16 4.41 2.159.433 2.194.622 2.16.839 2.159 1.255 2.159-2.946 2.16 3.274 2.194-.426 2.088-1.872 2.089 2.003 2.159-1.559 2.16 1.69 2.158 2.064 2.16-1.082 2.194-2.39 2.16.192 2.159-1.467 2.159.216 2.159 4.365 2.195-2.094 2.088-3.279 2.088 1.053 2.16 1.307 2.159 2.097 2.16.778 2.158-1.793 2.195 1.244 2.16.177 2.158-2.468 2.16-1.421 2.159 3.057 2.194-1.669 2.124-3.222 2.124 1.03 2.16-5.181 2.158-.906 2.16 4.287 2.159 1.964 2.195.458 2.159 1.095 2.159 1.326 2.16-1.833 2.158 2.782 2.195-2.323 2.088-.063 2.089-.264 2.16.341 2.158 1.884 2.16.618 4.353 2.033 2.16-.646 2.159 1.496 2.159.736 2.16.312 2.194-1.31 2.088.198 2.089-1.441 2.159.786 2.16 1.276 2.158 1.599 2.16.397h0" clip-path="url(#p353e716bc3)" style="fill:none;stroke:#e377c2;stroke-width:1.5;stroke-linecap:square" id="line2d_26"/><path d="M74.939 323.95H100.779l2.088-.181 2.089.115 2.159-.002 2.159-.194 10.832-.065 2.159-.485 2.159.321 2.195-.49 2.123.106 2.124-.107 2.16-.337 2.159-.514 2.159.074 2.16.188 2.194-.982 2.159-.152 2.16-.633 2.158-.179 2.16.997 2.194-1.276 2.089.426 2.088-.982 2.16-.788 2.158.493 2.16-.797 2.159-.545 2.194.328 2.16.555 2.159-.72 2.16-.43 2.158 1.282 2.195-3.207 2.088-2.109 2.089.767 2.159-1.704 2.16.133 2.158 1.186 2.16-1.578 2.194-.95 2.16.905 2.159 1.026 2.159-1.567 2.16.03 2.194-1.67 2.088-3.027 2.089-.965 2.159 1.067 2.159-1.001 2.16-1.535 4.353.422 2.16.017 2.158.703 2.16-3.07 2.159 3.463 2.194-3.044 2.124-3.315 2.124 1.025 2.16.722 2.159.554 2.159-.994 2.159 2.924 2.195-.687 2.159.84 2.159 1.19 2.16-1.596 2.158 2.839 2.195-3.698 2.088-4.375 2.089 3.851 2.16 2.127 2.158-1.898 2.16-.097 2.159 2.192 2.194-2.618 2.16 2.388 4.318 2.13 2.16 3.368 2.194-1.374 2.088-3.366 2.089.486 2.159.074 2.16-1.252 2.158.001 2.16-1.768 2.194-3.043 2.16 2.309 2.159-2.277 2.159-.496 2.159 7.925 2.195-3.6 2.088-4.12 2.088 1.568 2.16 1.101 2.159-.84 2.16-.242 2.158-2.016 2.195 1.997 2.16-2.686 2.158 1.05 2.16-.17 2.159 3.867 2.194-1.21 2.124-1.86 2.124 1.532 2.16-2.465 2.158-.775 2.16-.476 2.159.706 2.195 2.65 2.159.363 2.159.913 2.16.305 2.158 1.692 2.195.556 2.088-3.205 2.089-1.278 2.16.815 2.158 1.41 2.16-.362 2.159 1.965 2.194.557 2.16.96 2.159 2.868 2.159-.433 2.16.924 2.194-.981 2.088-2.35 2.089-.137 2.159 1.293 2.16-.475 2.158.07 2.16 1.304h0" clip-path="url(#p353e716bc3)" style="fill:none;stroke:#8c564b;stroke-width:1.5;stroke-linecap:square" id="line2d_27"/><path d="m40.922 314.503 1.664 3.262 2.16 1.857 2.159.597 2.194-.229 2.089-.895 2.088.143 2.16-.191 2.158-2.035 2.16-1.38 2.159-.55 2.195-.688 2.159 1.102 2.159-1.298 2.16-.73 2.158 1.58 2.195.394 2.088-1.782 2.089-.967 2.159 1.45 2.16.939 2.158-4.117 2.16 2.35 2.194-2.651 2.16 2.33 2.159-.792 2.159-2.42 2.16 1.438 2.194-2.52 2.088-.728 2.089-1.595 2.159.868 2.159-.246 4.318.785 2.195-1.669 2.16-3.705 2.159 1.938 2.159-3.629 2.159 3.302 2.195.13 2.123-4.793 2.124.703 2.16 1.91 2.159-1.615 2.159 1.817 2.16-3.093 2.194-1.08 2.159.656 2.16-2.227 2.158-4.908 2.16 8.148 2.194-3.076 2.089-4.997 2.088 4.735 2.16-6.5 4.318 2.84 2.159-1.936 2.194 2.389 4.319-9.556 2.16 1.9 2.158 4.416 2.195-1.93 2.088-6.43 2.089-.443 2.159-1.564 2.16 5.884 2.158 4.294 2.16-2.625 2.194 4.09 2.16-6.266 2.159.572 2.159-2.906 2.16 6.604 2.194.655 2.088-6.157 2.089-2.024 2.159-1.276 2.159 2.945 2.16.606 2.158-1.425 2.195 3.764 2.16-1.967 2.158 1.443 2.16-3.472 2.159 5.501 2.194-.033 2.124-6.87 2.124-.002 2.16-.118 2.159 4.241 2.159-1.197 2.159 6.466 2.195-1.767 2.159-.81 2.159-4.786 2.16 1.708 2.158 4.87 2.195-2.847 2.088-2.443 2.089-4.495 2.16 4.408 2.158-2.64 2.16 3.418 2.159.835 2.194.131 2.16 2.72 2.159-4.16 2.159.068 2.16 7 2.194-2.126 2.088-3.927 2.089-.164 2.159-.546 2.16.055 2.158 3.53 2.16-1.86 2.194-1.08 2.16 4.698 2.159-7.873 2.159.129 2.159 5.925 2.195 2.716 2.088-6.508 2.088.127 2.16-.062 2.159-.756 2.16 5.693 2.158-4.22 2.195 4.974 4.318-8.705 2.16 1.594 2.159 3.707 2.194 1.015 2.124-5.782 2.124 1.462 2.16-7.233 2.158 3.895 2.16-1.968 2.159 6.811 2.195 5.007 2.159-1.707 2.159-4.118 2.16 2.867 2.158 6.656 2.195.425 2.088-6.023 2.089-.096 2.16-3.16 2.158 2.931 2.16 4.103 2.159 2.835 2.194-1.146 2.16.069 2.159 2.647 2.159-2.241 2.16 4.86 2.194-.034 2.088-2.326 2.089-1.568 2.159.319 2.16-1.268 2.158 5.46 2.16-.224h0" clip-path="url(#p353e716bc3)" style="fill:none;stroke:#9467bd;stroke-width:1.5;stroke-linecap:square" id="line2d_28"/><path d="m40.922 298.272 1.664 8.629 2.16 3.557 2.159 1.253 2.194-5.76 2.089-.95 2.088-1.635 2.16-2.478 2.158-1.416 2.16-1.255 2.159-3.817 2.195 3.436 2.159-3.407 2.159.364 2.16.11 2.158 1.984 2.195-3.141 2.088-2.114 2.089 3.128 2.159 1.259 2.16-1.16 2.158-.463 2.16-3.563 2.194-2.16 2.16-.229 2.159-1.44 2.159-.86 2.16 4.558 2.194-3.01 2.088-5.262 2.089-4.196 2.159 4.225 2.159.52 2.16.258 2.158.495 2.195-2.422 2.16.777 2.159 4.525 2.159-6.182 2.159 4.644 2.195-2.684 2.123-5.84 2.124-1.26 2.16 2.3 2.159-5.41 2.159-2.063 2.16 1.932 2.194-2.061 2.159.906 2.16-5.03 2.158-1.699 2.16 9.52 2.194-12.99 2.089-3.336 2.088-3.57 2.16-1.628 2.158 2.676 2.16-.952 2.159-10.665 2.194 4.286 4.319-13.187 2.16 6.345 2.158 2.097 2.195-8.966 2.088-7.413 2.089 4.599 2.159-6.143 2.16 15.927 2.158-1.961 2.16-6.122 2.194 6.054 2.16 2.435 2.159-1.158 2.159-5.571 2.16 12.966 2.194-9.98 2.088-8.764 2.089-3.803 2.159 3.427 2.159 3.805 2.16-8.742 2.158 2.852 2.195 2.29 2.16 4.596 2.158 2.833 2.16.785 2.159-.818 2.194-3.436 2.124-7.044 2.124-1.987 2.16 1.146 2.159 3.599 2.159-10.058 2.159 8.781 2.195-3.272 2.159-1.519 2.159 11.303 2.16-8.056 2.158 11.034 2.195-5.923 2.088-10.705 2.089-7.162 2.16 12.925 2.158-2.65 2.16 5.76 2.159.556 2.194-5.858 2.16 9.327 2.159-.72 2.159-3.71 2.16 18.894 2.194-9.883 2.088-4.654 2.089 7.043 2.159.909 2.16.367 2.158 2.27 2.16-4.135 2.194-1.145 2.16 5.145 2.159-8.712 2.159 8.746 2.159 9.906 2.195-10.013 2.088-10.888 2.088 7.975 2.16-2.56 2.159 7.665 2.16 6.064 2.158-11.038 2.195 5.858 2.16.987 2.158-5.34 2.16-3.012 2.159 15.84 4.318-14.933 2.124 2.335 2.16-4.662 2.158 7.64 2.16-2.433 2.159 5.901 2.195 9.163 2.159-1.673 2.159 2.557 2.16 2.92 2.158 9.057 2.195-10.898 2.088-2.27 2.089.307 2.16 5.428 2.158 6.287 2.16-4.9 2.159 8.074 2.194-1.636 2.16-2.482 2.159 3.104 2.159 2.88 2.16 2.585 2.194-2.978 2.088-4.64 2.089.713 2.159 3.442 2.16.681 2.158 7.4 2.16-2.491h0" clip-path="url(#p353e716bc3)" style="fill:none;stroke:#d62728;stroke-width:1.5;stroke-linecap:square" id="line2d_29"/><path d="m55.435 323.95 2.16-.066 2.159.066 6.513-.135 2.159.07 2.16-.341 2.158.013 2.195-.72 2.088-.336 2.089.14 2.159-.078 2.16-.708 2.158-.475 2.16.181 2.194-1.244 2.16-.12 2.159-.73 2.159-.082 2.16-1.096 2.194-1.473 2.088-1.127 2.089.047 2.159-.578 2.159-.207 2.16-.807 2.158-1.386 2.195.066 2.16-.202 2.159-2.154 2.159-1.6 2.159 1.24 2.195-3.044 2.123-.36 2.124-2.061 2.16-2.571 2.159 2.276 2.159-.078 2.16-1.165 2.194-2.258 2.159 1.698 4.318-2.097 2.16 3.213 2.194-4.909 2.089-1.721 2.088.02 2.16-.694 2.158-1.826 2.16 2.468 2.159-3.744 2.194-2.226 2.16 1.642 2.159-1.053 2.16 1.188 2.158 1.332 2.195-4.68 2.088-6.05 2.089 1.96 2.159.202 2.16 4.74 2.158-3.421 2.16-.146 2.194 3.665 2.16-4.5 2.159 1.03 2.159-1.131 2.16 1.786 2.194-.752 2.088-7.925 2.089 3.605 2.159-9.902 2.159 1.296 2.16-1.803 2.158 2.032 2.195 3.469 2.16-1.038 2.158.71 2.16-.575 2.159 1.328 2.194-6.938 2.124-6.058 2.124 7.662 2.16-.322 2.159.65 2.159-3.118 2.159 5.931 2.195-3.73 2.159 3.682 2.159 1.227 2.16-3.966 2.158 4.62 2.195-8.312 2.088 1.362 2.089-.38 2.16 5.044 2.158-.823 2.16 4.035 2.159.448 2.194-1.276 2.16 4.784 2.159-2.657 2.159-3.53 2.16 4.185 2.194-9.261 2.088 2.619 2.089.162 4.318 10.897 2.16 2.725 2.159-12.902 2.194-5.661 2.16 3.144 2.159-2.555 2.159 3.873 2.159 2.966 2.195-3.37 2.088-4.496 2.088 4.529 2.16-1.522 2.159-.05 2.16.76 2.158-2.624 2.195 4.057 2.16-1.196 2.158-2.73 2.16-1.903 2.159 3.539 2.194-8.476 2.124.875 2.124-3.33 2.16-20.066 2.158 1.218 2.16 2.13 2.159 6.476 2.195 3.763 2.159 1.461 2.159 8.39 2.16-1.12 2.158 3.64 2.195-4.713 2.088-1.912 2.089-1.36 2.16.085 2.158 4.823 2.16-2.321 2.159 7.033 2.194-.818 2.16-1.718 2.159 4.892 2.159.688 2.16 1.243 2.194-1.538 2.088-1.952 2.089-2.793 2.159 2.977 2.16-2.355 2.158 5.23 2.16-.19h0" clip-path="url(#p353e716bc3)" style="fill:none;stroke:#2ca02c;stroke-width:1.5;stroke-linecap:square" id="line2d_30"/><path d="m40.922 321.54 1.664.806 2.16.556 2.159.066 2.194-.818 4.177.13 2.16-.494 2.158.004 2.16-.173 2.159-1.594 2.195-.59 2.159.932 2.159.541 2.16-.033 2.158-.556 2.195-1.243 2.088.347 2.089-1.067 2.159.828 4.318-3.212 2.16 2.482 2.194-1.505 4.319.556 2.159-1.06 4.354-.249 2.088-3.113 2.089-.683 2.159 2.151 2.159-1.987 2.16 1.75 2.158-1.783 2.195-.458 2.16.788 2.159-.1 2.159-1.253 2.159.336 2.195-.164 2.123-3.26 2.124.479 2.16-1.888 2.159.382 2.159.564 2.16.025 2.194-2.29 2.159.879 2.16-3.3 2.158 1.271 2.16 1.117 2.194-5.53 2.089 1.07 2.088 1.417 2.16-.711 2.158.22 2.16-.39 2.159-1.835 2.194.032 2.16.992 2.159-2.17 2.16-1.482 2.158-.023 2.195-2.356 2.088-6.157 2.089-.42 2.159 3.072 2.16 1.803 2.158.226 2.16-1.437 2.194 4.81 2.16-4.286 2.159.23 2.159.954 2.16 1.63 2.194-3.73 2.088-1.548 2.089.926 2.159-3.568 2.159.263 2.16-1.514 2.158-2.02 2.195 2.683 4.318-1.21 2.16 1.798 2.159-.588 2.194-1.538 2.124-7.425 2.124 3.433 2.16 1.79 2.159-.252 2.159-4.246 2.159 8.402 2.195-5.727 2.159 4.257 2.159-1.181 2.16-1.727 2.158 1.662 2.195-2.258 2.088-2.829 2.089-1.524 2.16 1.872 2.158-5.373 2.16 4.426 2.159 1.89 2.194-.033 2.16 3.757 2.159-3.954 2.159-2.708 2.16 9.09 2.194-6.578 2.088.91 2.089.105 2.159.396 2.16-1.05 2.158 2.504 2.16-3.094 2.194-1.473 2.16.847 2.159-3.563 2.159-.427 2.159 9.034 2.195-5.04 2.088-2.514 2.088-4.685 2.16-.752 2.159 3.108 2.16 6.022 2.158-11.29 2.195 7.395 2.16-2.665 2.158-5.385 2.16-.093 2.159 4.969 2.194-7.657 2.124-4.897 2.124-.896 2.16-6.194 2.158.304 2.16-3.01 2.159 3.86 2.195 4.484 2.159-1.107 2.159 1.467 2.16.697 2.158 10.004 2.195-7.429 2.088-6.068 2.089-1.982 2.16 4.528 2.158 1.232 2.16-1.367 2.159 5.36 2.194-1.244 2.16 1.294 2.159-1.883 2.159-.957 2.16 6.52 2.194.556 2.088-6.658 2.089.31 2.159 4.615 2.16-4.354 2.158 5.977 2.16-2.05h0" clip-path="url(#p353e716bc3)" style="fill:none;stroke:#ff7f0e;stroke-width:1.5;stroke-linecap:square" id="line2d_31"/><path d="m40.922 312.03 1.664 3.019 2.16-1.142 2.159.782 2.194-2.913 2.089-.905 2.088-2.4 2.16-1.057 2.158-2.215 2.16-4.886 2.159-5.39 2.195-4.057 2.159-.528 2.159-3.988 2.16-1.794 2.158-1.086 2.195-4.778 2.088-3.11 2.089-6.085 2.159.18 2.16-.507 2.158-5.749 2.16.971 2.194-6.348 2.16 2.807 2.159-2.546 2.159-10.472 2.16 3.306 2.194-19.536 2.088-11.887 2.089-9.057 2.159-.429 2.159 7.563 2.16-8.881 2.158-2.376 2.195-9.654 2.16 9.324 2.159 3.504 2.159-15.643 2.159 13.712 4.318-31.938 2.124-8.574 2.16-.827 2.159 2.856 2.159-7.353 2.16-7.962 2.194 5.465 2.159 7.028 2.16-12.33 2.158-4.51 2.16 14.982 2.194-29.026 2.089-10.472 2.088-7.788 2.16-2.897 2.158 20.372 2.16 3.23 2.159-14.39 2.194-4.155 2.16-6.443 2.159-8.872 2.16-2.456 2.158 9.459 2.195-25.917 2.088-21.77 2.089-5.653 2.159 2.255 2.16 43.035 2.158 20.367 2.16-3.481 2.194 17.932 2.16-13.605 2.159-4.262 2.159-2.13 2.16 17.314 2.194-7.003 2.088-20.713 2.089-2.75 2.159-4.127 2.159 13.257 2.16-5.31 2.158-7.289 2.195 25.656 2.16-9.61 2.158 4.996 2.16-.633 2.159 4.494 2.194-4.516 2.124-18.355 2.124-2.915 2.16-3.731 2.159 18.522 2.159 6.704 2.159 21.766 2.195-5.989 2.159 7.25 2.159 6.723 2.16-7.33 2.158 15.871 2.195-14.627 2.088-21.826 2.089-14.989 2.16 22.146 2.158 8.157 2.16 6.417 2.159 3.105 2.194 4.222 2.16 4.643 2.159 8.086 2.159-9.134 2.16 31.354 2.194-10.668 2.088-3.414 2.089 2.04 2.159-2.134 2.16 9.333 2.158 7.236 2.16-1.804 2.194 4.549 2.16 2.429 2.159-7.698 2.159-1.804 2.159 20.424 2.195-10.733 2.088-11.585 2.088-6.25 2.16 9.09 2.159 11.264 2.16 14.842 2.158-29.437 2.195 19.144 2.16-3.132 2.158-14.67 2.16-10.116 2.159 26.904 2.194-7.592 2.124-13.09 2.124-2.716 2.16-20.887 2.158 6.783 2.16 14.893 2.159 9.813 2.195 14.857 2.159-.222 2.159 9.974 2.16-5.376 2.158 22.883 2.195-17.867 2.088-.651 2.089-8.544 2.16 2.793 2.158 8.398 2.16 2.524 2.159 11.351 2.194 4.68 2.16-3.283 2.159 4.69 2.159.112 2.16 3.717 2.194-1.604 2.088-7.371 2.089 2.659 2.159.435 2.16-6.293 2.158 21.442 2.16-5.047h0" clip-path="url(#p353e716bc3)" style="fill:none;stroke:#1f77b4;stroke-width:1.5;stroke-linecap:square" id="line2d_32"/></g></g><defs><clipPath id="p353e716bc3"><path d="M40.922 57.838h357.12V323.95H40.922z"/></clipPath></defs></svg>