<svg xmlns="http://www.w3.org/2000/svg" xmlns:xlink="http://www.w3.org/1999/xlink" width="677.207" height="533.557" viewBox="0 0 507.905 400.168"><defs><style>*{stroke-linejoin:round;stroke-linecap:butt}</style></defs><g id="figure_1"><path id="patch_1" d="M0 400.168h507.905V0H0v400.168z" style="fill:none"/><g id="axes_1"><path id="patch_2" d="M40.922 323.95h357.12V57.838H40.923V323.95z" style="fill:none"/><g id="matplotlib.axis_1"><g id="xtick_1"><g id="line2d_1"><defs><path id="me1209d3643" d="M0 0v3.5" style="stroke:#b0b0b0;stroke-width:.4"/></defs><use xlink:href="#me1209d3643" x="72.683" y="323.95" style="fill:#b0b0b0;stroke:#b0b0b0;stroke-width:.4"/></g><g id="text_1" style="fill:#b0b0b0" transform="matrix(.14 0 0 -.14 54.868 341.588)"><defs><path id="DejaVuSans-32" d="M1228 531h2203V0H469v531q359 372 979 998 621 627 780 809 303 340 423 576 121 236 121 464 0 372-261 606-261 235-680 235-297 0-627-103-329-103-704-313v638q381 153 712 231 332 78 607 78 725 0 1156-363 431-362 431-968 0-288-108-546-107-257-392-607-78-91-497-524-418-433-1181-1211z" transform="scale(.01563)"/><path id="DejaVuSans-30" d="M2034 4250q-487 0-733-480-245-479-245-1442 0-959 245-1439 246-480 733-480 491 0 736 480 246 480 246 1439 0 963-246 1442-245 480-736 480zm0 500q785 0 1199-621 414-620 414-1801 0-1178-414-1799Q2819-91 2034-91q-784 0-1198 620-414 621-414 1799 0 1181 414 1801 414 621 1198 621z" transform="scale(.01563)"/><path id="DejaVuSans-31" d="M794 531h1031v3560L703 3866v575l1116 225h631V531h1031V0H794v531z" transform="scale(.01563)"/></defs><use xlink:href="#DejaVuSans-32"/><use xlink:href="#DejaVuSans-30" x="63.623"/><use xlink:href="#DejaVuSans-31" x="127.246"/><use xlink:href="#DejaVuSans-30" x="190.869"/></g></g><g id="xtick_2"><use xlink:href="#me1209d3643" id="line2d_2" x="122.544" y="323.95" style="fill:#b0b0b0;stroke:#b0b0b0;stroke-width:.4"/><g id="text_2" style="fill:#b0b0b0" transform="matrix(.14 0 0 -.14 104.73 341.588)"><use xlink:href="#DejaVuSans-32"/><use xlink:href="#DejaVuSans-30" x="63.623"/><use xlink:href="#DejaVuSans-31" x="127.246"/><use xlink:href="#DejaVuSans-32" x="190.869"/></g></g><g id="xtick_3"><use xlink:href="#me1209d3643" id="line2d_3" x="172.473" y="323.95" style="fill:#b0b0b0;stroke:#b0b0b0;stroke-width:.4"/><g id="text_3" style="fill:#b0b0b0" transform="matrix(.14 0 0 -.14 154.658 341.588)"><defs><path id="DejaVuSans-34" d="M2419 4116 825 1625h1594v2491zm-166 550h794V1625h666v-525h-666V0h-628v1100H313v609l1940 2957z" transform="scale(.01563)"/></defs><use xlink:href="#DejaVuSans-32"/><use xlink:href="#DejaVuSans-30" x="63.623"/><use xlink:href="#DejaVuSans-31" x="127.246"/><use xlink:href="#DejaVuSans-34" x="190.869"/></g></g><g id="xtick_4"><use xlink:href="#me1209d3643" id="line2d_4" x="222.334" y="323.95" style="fill:#b0b0b0;stroke:#b0b0b0;stroke-width:.4"/><g id="text_4" style="fill:#b0b0b0" transform="matrix(.14 0 0 -.14 204.52 341.588)"><defs><path id="DejaVuSans-36" d="M2113 2584q-425 0-674-291-248-290-248-796 0-503 248-796 249-292 674-292t673 292q248 293 248 796 0 506-248 796-248 291-673 291zm1253 1979v-575q-238 112-480 171-242 60-480 60-625 0-955-422-329-422-376-1275 184 272 462 417 279 145 613 145 703 0 1111-427 408-426 408-1160 0-719-425-1154Q2819-91 2113-91q-810 0-1238 620-428 621-428 1799 0 1106 525 1764t1409 658q238 0 480-47t505-140z" transform="scale(.01563)"/></defs><use xlink:href="#DejaVuSans-32"/><use xlink:href="#DejaVuSans-30" x="63.623"/><use xlink:href="#DejaVuSans-31" x="127.246"/><use xlink:href="#DejaVuSans-36" x="190.869"/></g></g><g id="xtick_5"><use xlink:href="#me1209d3643" id="line2d_5" x="272.263" y="323.95" style="fill:#b0b0b0;stroke:#b0b0b0;stroke-width:.4"/><g id="text_5" style="fill:#b0b0b0" transform="matrix(.14 0 0 -.14 254.448 341.588)"><defs><path id="DejaVuSans-38" d="M2034 2216q-450 0-708-241-257-241-257-662 0-422 257-663 258-241 708-241t709 242q260 243 260 662 0 421-258 662-257 241-711 241zm-631 268q-406 100-633 378-226 279-226 679 0 559 398 884 399 325 1092 325 697 0 1094-325t397-884q0-400-227-679-226-278-629-378 456-106 710-416 255-309 255-755 0-679-414-1042Q2806-91 2034-91q-771 0-1186 362-414 363-414 1042 0 446 256 755 257 310 713 416zm-231 997q0-362 226-565 227-203 636-203 407 0 636 203 230 203 230 565 0 363-230 566-229 203-636 203-409 0-636-203-226-203-226-566z" transform="scale(.01563)"/></defs><use xlink:href="#DejaVuSans-32"/><use xlink:href="#DejaVuSans-30" x="63.623"/><use xlink:href="#DejaVuSans-31" x="127.246"/><use xlink:href="#DejaVuSans-38" x="190.869"/></g></g><g id="xtick_6"><use xlink:href="#me1209d3643" id="line2d_6" x="322.124" y="323.95" style="fill:#b0b0b0;stroke:#b0b0b0;stroke-width:.4"/><g id="text_6" style="fill:#b0b0b0" transform="matrix(.14 0 0 -.14 304.31 341.588)"><use xlink:href="#DejaVuSans-32"/><use xlink:href="#DejaVuSans-30" x="63.623"/><use xlink:href="#DejaVuSans-32" x="127.246"/><use xlink:href="#DejaVuSans-30" x="190.869"/></g></g><g id="xtick_7"><use xlink:href="#me1209d3643" id="line2d_7" x="372.053" y="323.95" style="fill:#b0b0b0;stroke:#b0b0b0;stroke-width:.4"/><g id="text_7" style="fill:#b0b0b0" transform="matrix(.14 0 0 -.14 354.238 341.588)"><use xlink:href="#DejaVuSans-32"/><use xlink:href="#DejaVuSans-30" x="63.623"/><use xlink:href="#DejaVuSans-32" x="127.246"/><use xlink:href="#DejaVuSans-32" x="190.869"/></g></g></g><g id="matplotlib.axis_2"><g id="ytick_1"><path id="line2d_8" d="M40.922 323.95h357.12" clip-path="url(#p7daa51a117)" style="fill:none;stroke:#b0b0b0;stroke-width:.3;stroke-linecap:square"/><g id="line2d_9"><defs><path id="mbf983bcf2e" d="M0 0h-3.5" style="stroke:#b0b0b0;stroke-width:.3"/></defs><use xlink:href="#mbf983bcf2e" x="40.922" y="323.95" style="fill:#b0b0b0;stroke:#b0b0b0;stroke-width:.3"/></g><use xlink:href="#DejaVuSans-30" id="text_8" style="fill:#b0b0b0" transform="matrix(.14 0 0 -.14 25.015 329.269)"/></g><g id="ytick_2"><path id="line2d_10" d="M40.922 273.228h357.12" clip-path="url(#p7daa51a117)" style="fill:none;stroke:#b0b0b0;stroke-width:.3;stroke-linecap:square"/><use xlink:href="#mbf983bcf2e" id="line2d_11" x="40.922" y="273.228" style="fill:#b0b0b0;stroke:#b0b0b0;stroke-width:.3"/><g id="text_9" style="fill:#b0b0b0" transform="matrix(.14 0 0 -.14 16.108 278.546)"><defs><path id="DejaVuSans-35" d="M691 4666h2478v-532H1269V2991q137 47 274 70 138 23 276 23 781 0 1237-428 457-428 457-1159 0-753-469-1171Q2575-91 1722-91q-294 0-599 50Q819 9 494 109v635q281-153 581-228t634-75q541 0 856 284 316 284 316 772 0 487-316 771-315 285-856 285-253 0-505-56-251-56-513-175v2344z" transform="scale(.01563)"/></defs><use xlink:href="#DejaVuSans-35"/><use xlink:href="#DejaVuSans-30" x="63.623"/></g></g><g id="ytick_3"><path id="line2d_12" d="M40.922 222.505h357.12" clip-path="url(#p7daa51a117)" style="fill:none;stroke:#b0b0b0;stroke-width:.3;stroke-linecap:square"/><use xlink:href="#mbf983bcf2e" id="line2d_13" x="40.922" y="222.505" style="fill:#b0b0b0;stroke:#b0b0b0;stroke-width:.3"/><g id="text_10" style="fill:#b0b0b0" transform="matrix(.14 0 0 -.14 7.2 227.824)"><use xlink:href="#DejaVuSans-31"/><use xlink:href="#DejaVuSans-30" x="63.623"/><use xlink:href="#DejaVuSans-30" x="127.246"/></g></g><g id="ytick_4"><path id="line2d_14" d="M40.922 171.783h357.12" clip-path="url(#p7daa51a117)" style="fill:none;stroke:#b0b0b0;stroke-width:.3;stroke-linecap:square"/><use xlink:href="#mbf983bcf2e" id="line2d_15" x="40.922" y="171.783" style="fill:#b0b0b0;stroke:#b0b0b0;stroke-width:.3"/><g id="text_11" style="fill:#b0b0b0" transform="matrix(.14 0 0 -.14 7.2 177.102)"><use xlink:href="#DejaVuSans-31"/><use xlink:href="#DejaVuSans-35" x="63.623"/><use xlink:href="#DejaVuSans-30" x="127.246"/></g></g><g id="ytick_5"><path id="line2d_16" d="M40.922 121.06h357.12" clip-path="url(#p7daa51a117)" style="fill:none;stroke:#b0b0b0;stroke-width:.3;stroke-linecap:square"/><use xlink:href="#mbf983bcf2e" id="line2d_17" x="40.922" y="121.061" style="fill:#b0b0b0;stroke:#b0b0b0;stroke-width:.3"/><g id="text_12" style="fill:#b0b0b0" transform="matrix(.14 0 0 -.14 7.2 126.38)"><use xlink:href="#DejaVuSans-32"/><use xlink:href="#DejaVuSans-30" x="63.623"/><use xlink:href="#DejaVuSans-30" x="127.246"/></g></g><g id="ytick_6"><path id="line2d_18" d="M40.922 70.338h357.12" clip-path="url(#p7daa51a117)" style="fill:none;stroke:#b0b0b0;stroke-width:.3;stroke-linecap:square"/><use xlink:href="#mbf983bcf2e" id="line2d_19" x="40.922" y="70.338" style="fill:#b0b0b0;stroke:#b0b0b0;stroke-width:.3"/><g id="text_13" style="fill:#b0b0b0" transform="matrix(.14 0 0 -.14 7.2 75.657)"><use xlink:href="#DejaVuSans-32"/><use xlink:href="#DejaVuSans-35" x="63.623"/><use xlink:href="#DejaVuSans-30" x="127.246"/></g></g></g><path id="line2d_20" d="m40.922 323.886 1.606-.1 8.298.091 2.015-.189 6.25.025 2.083-.221 2.118-.098 2.083.218 2.083.01 2.083-.247 2.084-.505 2.117.065 2.015-.18 2.015-.049 2.083.297 2.083-.395 2.083-.72 2.084.851 2.117-1.243 4.166.49 2.084-.2 2.083.724 2.117-.622 2.015-.764 4.098-.082 2.084-1.837 4.166.818 2.117-1.08 2.084-.167 2.083.232 4.166.066 2.118-.458 2.049-.718 2.049-.068 2.083-1.15 2.083 1.281 2.084-.74 2.083.61 2.117-.917 2.083.171 2.084.385 2.083-.418 2.083-.203 2.118.883 2.014-1.825 2.015.287 2.084-.123 2.083-.368 2.083-.072 2.083-1.564 2.118 3.6 2.083-.92 2.083-.553 2.083.52 2.084 1.084 2.117-1.67 2.015-.221 2.015.745 2.083-.615 2.083 1.695 2.083.165 2.084-1.081 2.117 1.08 2.083-.405 2.084.994 2.083-1.197 2.083 1.655 2.117-1.145 2.015-.152 2.015-.568 2.083-.466 2.084 1.513 2.083-1.141 2.083-.364 2.118.163 2.083.945 2.083-.52 2.083 1.365 4.2-.383 2.05-1.516 2.049 1.19 2.083-.745 4.167-.744 2.083 1.292 2.117-.72 2.083 1.525 2.084-1.296 2.083.687 2.083 1.08 2.118-.229 2.014.381 2.015-1.69 2.084 1.236 2.083-.287 2.083.726 2.083-.039 2.118.295 2.083.083 2.083-.312 2.083.244 2.084 1.555 2.117-.621 2.015.621 2.015-1.341 2.083.598 2.083-.042 2.084-.263 2.083.198 2.117-1.604 2.083.933 2.084.31 2.083-.107 2.083.828 2.117-1.146 2.015.332 2.015-.953 2.084.871 2.083.7 2.083-.159 2.083.322 2.118-.164 2.083-.327 4.166 1.251 2.084.353 2.117-.557 2.049-1.222 2.049.928 2.083-.956 2.083.53 2.084.721 2.083-.164 2.117.098 2.084-.644 2.083.153 2.083 1.267 2.083.107 2.118.393 2.015-1.46 2.014.707 4.167.393 2.083-.41 2.083.574 2.118-.393 2.083-.046 2.083.864 2.083.05 2.084-.639 4.132.856 2.015-.398 4.166.197 2.084-.626 2.083-.258 2.117.72 2.083-.326 2.084.031 2.083-1.113 2.083 1.572 2.118.229h0" clip-path="url(#p7daa51a117)" style="fill:none;stroke:#98df8a;stroke-width:1.5;stroke-linecap:square"/><path id="line2d_21" d="m40.922 323.886 7.89.064 28.96-.098 4.166-.033 4.167-.098 2.117.196 2.083-.035 2.083-.194 4.167-.033 2.117.131 4.03-.262 2.083.155 2.084-.35 4.166.195 4.2-.115 2.084.344 2.083-.48 2.083.186 2.118-.164 2.049-.29 2.049.225 2.083-.126 2.083.322 2.084.017 2.083-.279 4.2.245 2.084-.245 2.083-.026 2.083.223 2.118-.23 4.03-.13 2.083-.269 2.083.007 2.083.433 2.083-.008 2.118.328 4.166-.851 2.083.024 2.084.63 2.117-.261 2.015.01 2.015.219 4.166-.262 2.083.036 2.084-.167 2.117.36 2.083-.565 2.084.107 2.083-.344 2.083.704 2.117-.524 2.015.581 4.098-.457 2.084.269 2.083-.032 2.083-.263 2.118-.065 2.083.091 2.083-.058 8.333.436 2.049-.24 4.166.033 2.084.134 2.083-.265 4.2-.04 4.167-.067 2.083.27 2.118-.229 2.014.483 2.015-.908 2.084.316 2.083.077 2.083.295 6.284-.473 2.083.407 2.083-.306 2.084.338 4.132-.434 2.015.042 2.083-.487 2.083.618 2.084-.246 2.083.017 2.117.196 4.167-.033 6.283.524 2.015-.704 2.015.18 2.084.429 4.166-.575 2.083-.148 2.118.261 2.083.124 6.25-.156 2.117.098 2.049-.09 2.049-.761 4.166.262 2.084-.063 2.083.128 2.117.491 4.167-.327 2.083.316 2.083.044 2.118.229 2.015-.333 2.014-.452 4.167.589 2.083.025 2.083-.156 2.118-.458 2.083.952 6.25-.658 4.132.194 2.015-.325 2.083-.09 2.083.221 6.284.131 2.083.256 2.084-.06 2.083-.515 2.083.483 2.118-.066h0" clip-path="url(#p7daa51a117)" style="fill:none;stroke:#ffbb78;stroke-width:1.5;stroke-linecap:square"/><path id="line2d_22" d="m40.922 323.316 1.606.34 2.083-.18 4.2.245 2.015-.35 2.015.055 2.084-.186 2.083.12 2.083-.256 2.083.06 2.118.197 2.083-.087 2.083.054 2.083-.156 2.084.156 6.147-.524 2.083.03 2.083.33 4.167-.327 2.117.295 2.083-.366 2.083-.027 2.084.163 2.083-.032 4.132-.804 2.015.182 2.083.586 2.084-.095 2.083-.92 2.083.364 2.117-.164 2.084.105 2.083-.301 4.166.229 2.118.523 2.049-.41 2.049-.67 6.25.46 2.083-.132 2.117-.393h4.167l2.083-.118 2.083 1.002 2.118-1.506 2.014-.699 2.015.536 2.084-.313 2.083.77 2.083-.094 2.083.258 2.118-.621 2.083-.415 2.083 1.167 2.083-.795 4.2.795 2.016-1.324 2.015.539 2.083.16 2.083.364 2.083-.703 2.084.343 2.117-.295 2.083.527 2.084.128 4.166-.557 2.117.36 2.015-.359 2.015.425 2.083-1.045 2.084.783 2.083.502 2.083-.142 2.118-.884 2.083.586 2.083-.291 2.083.291 4.2.363 2.05-.751 2.049-.492 2.083.576 2.083 1.093 2.084-.552 2.083.224 2.117-.261 4.167.49 2.083-1.163 2.083 1 2.118-.458 2.014-.149 2.015.312 2.084-.3 2.083.17 2.083.507 2.083-.278 2.118.032 2.083-.769 2.083.704 2.083.21 2.084-.145 2.117-.72 2.015-.194 2.015-.46 2.083.91 6.25.137 4.2-.239 4.167-.811 2.083.886 2.117-.589 2.015.203 2.015.517 2.084.132 2.083-.164 2.083.401 2.083-.467 4.2-.514 2.084-.075 2.083.143 2.084.806 4.166-.478 2.049-.667 2.083.914 2.083-.26 2.084-.383 2.083.154 2.117.982 2.084-.256 2.083-.791 2.083.892 2.083.613 2.118-.033 2.015-.706 2.014-.406 2.084.6 2.083-.568 2.083.466 2.083.222 2.118-.262 2.083.547 2.083.173 2.083-.274 2.084-.119 2.117.23 2.015-.21 2.015.602 4.166-.295 2.084.062 2.083.298 2.117-.589 2.083.021 2.084.274 2.083.03 2.083.46 2.118-.588h0" clip-path="url(#p7daa51a117)" style="fill:none;stroke:#aec7e8;stroke-width:1.5;stroke-linecap:square"/><g id="text_14" style="fill:#1f77b4" transform="matrix(.14 0 0 -.14 408.756 222.056)"><defs><path id="DejaVuSans-6d" d="M3328 2828q216 388 516 572t706 184q547 0 844-383 297-382 297-1088V0h-578v2094q0 503-179 746-178 244-543 244-447 0-707-297-259-296-259-809V0h-578v2094q0 506-178 748t-550 242q-441 0-701-298-259-298-259-808V0H581v3500h578v-544q197 322 472 475t653 153q382 0 649-194 267-193 395-562z" transform="scale(.01563)"/><path id="DejaVuSans-79" d="M2059-325q-243-625-475-815-231-191-618-191H506v481h338q237 0 368 113 132 112 291 531l103 262L191 3500h609L1894 763l1094 2737h609L2059-325z" transform="scale(.01563)"/><path id="DejaVuSans-73" d="M2834 3397v-544q-243 125-506 187-262 63-544 63-428 0-642-131t-214-394q0-200 153-314t616-217l197-44q612-131 870-370t258-667q0-488-386-773Q2250-91 1575-91q-281 0-586 55T347 128v594q319-166 628-249 309-82 613-82 406 0 624 139 219 139 219 392 0 234-158 359-157 125-692 241l-200 47q-534 112-772 345-237 233-237 639 0 494 350 762 350 269 994 269 318 0 599-47 282-46 519-140z" transform="scale(.01563)"/><path id="DejaVuSans-71" d="M947 1747q0-634 261-995t717-361q456 0 718 361 263 361 263 995t-263 995q-262 361-718 361t-717-361q-261-361-261-995zM2906 525q-181-312-458-464-276-152-664-152-634 0-1033 506-398 507-398 1332t398 1331q399 506 1033 506 388 0 664-152 277-151 458-463v531h575v-4831h-575V525z" transform="scale(.01563)"/><path id="DejaVuSans-6c" d="M603 4863h575V0H603v4863z" transform="scale(.01563)"/></defs><use xlink:href="#DejaVuSans-6d"/><use xlink:href="#DejaVuSans-79" x="97.412"/><use xlink:href="#DejaVuSans-73" x="156.592"/><use xlink:href="#DejaVuSans-71" x="208.691"/><use xlink:href="#DejaVuSans-6c" x="272.168"/></g><g id="text_15" style="fill:#ff7f0e" transform="matrix(.14 0 0 -.14 408.756 236.056)"><defs><path id="DejaVuSans-70" d="M1159 525v-1856H581v4831h578v-531q182 312 458 463 277 152 661 152 638 0 1036-506 399-506 399-1331T3314 415Q2916-91 2278-91q-384 0-661 152-276 152-458 464zm1957 1222q0 634-261 995t-717 361q-457 0-718-361t-261-995q0-634 261-995t718-361q456 0 717 361t261 995z" transform="scale(.01563)"/><path id="DejaVuSans-6f" d="M1959 3097q-462 0-731-361t-269-989q0-628 267-989 268-361 733-361 460 0 728 362 269 363 269 988 0 622-269 986-268 364-728 364zm0 487q750 0 1178-488 429-487 429-1349 0-859-429-1349Q2709-91 1959-91q-753 0-1180 489-426 490-426 1349 0 862 426 1349 427 488 1180 488z" transform="scale(.01563)"/><path id="DejaVuSans-74" d="M1172 4494v-994h1184v-447H1172V1153q0-428 117-550t477-122h590V0h-590q-666 0-919 248-253 249-253 905v1900H172v447h422v994h578z" transform="scale(.01563)"/><path id="DejaVuSans-67" d="M2906 1791q0 625-258 968-257 344-723 344-462 0-720-344-258-343-258-968 0-622 258-966t720-344q466 0 723 344 258 344 258 966zm575-1357q0-893-397-1329-396-436-1215-436-303 0-572 45t-522 139v559q253-137 500-202 247-66 503-66 566 0 847 295t281 892v285q-178-310-456-463T1784 0Q1141 0 747 490 353 981 353 1791q0 812 394 1302 394 491 1037 491 388 0 666-153t456-462v531h575V434z" transform="scale(.01563)"/><path id="DejaVuSans-72" d="M2631 2963q-97 56-211 82-114 27-251 27-488 0-749-317t-261-911V0H581v3500h578v-544q182 319 472 473 291 155 707 155 59 0 131-8 72-7 159-23l3-590z" transform="scale(.01563)"/><path id="DejaVuSans-65" d="M3597 1894v-281H953q38-594 358-905t892-311q331 0 642 81t618 244V178Q3153 47 2828-22t-659-69q-838 0-1327 487-489 488-489 1320 0 859 464 1363 464 505 1252 505 706 0 1117-455 411-454 411-1235zm-575 169q-6 471-264 752-258 282-683 282-481 0-770-272t-333-766l2050 4z" transform="scale(.01563)"/></defs><use xlink:href="#DejaVuSans-70"/><use xlink:href="#DejaVuSans-6f" x="63.477"/><use xlink:href="#DejaVuSans-73" x="124.658"/><use xlink:href="#DejaVuSans-74" x="176.758"/><use xlink:href="#DejaVuSans-67" x="215.967"/><use xlink:href="#DejaVuSans-72" x="279.443"/><use xlink:href="#DejaVuSans-65" x="318.307"/><use xlink:href="#DejaVuSans-73" x="379.83"/><use xlink:href="#DejaVuSans-71" x="431.93"/><use xlink:href="#DejaVuSans-6c" x="495.406"/></g><g id="text_16" style="fill:#2ca02c" transform="matrix(.14 0 0 -.14 408.756 250.056)"><defs><path id="DejaVuSans-6e" d="M3513 2113V0h-575v2094q0 497-194 743-194 247-581 247-466 0-735-297-269-296-269-809V0H581v3500h578v-544q207 316 486 472 280 156 646 156 603 0 912-373 310-373 310-1098z" transform="scale(.01563)"/><path id="DejaVuSans-64" d="M2906 2969v1894h575V0h-575v525q-181-312-458-464-276-152-664-152-634 0-1033 506-398 507-398 1332t398 1331q399 506 1033 506 388 0 664-152 277-151 458-463zM947 1747q0-634 261-995t717-361q456 0 718 361 263 361 263 995t-263 995q-262 361-718 361t-717-361q-261-361-261-995z" transform="scale(.01563)"/><path id="DejaVuSans-62" d="M3116 1747q0 634-261 995t-717 361q-457 0-718-361t-261-995q0-634 261-995t718-361q456 0 717 361t261 995zM1159 2969q182 312 458 463 277 152 661 152 638 0 1036-506 399-506 399-1331T3314 415Q2916-91 2278-91q-384 0-661 152-276 152-458 464V0H581v4863h578V2969z" transform="scale(.01563)"/></defs><use xlink:href="#DejaVuSans-6d"/><use xlink:href="#DejaVuSans-6f" x="97.412"/><use xlink:href="#DejaVuSans-6e" x="158.594"/><use xlink:href="#DejaVuSans-67" x="221.973"/><use xlink:href="#DejaVuSans-6f" x="285.449"/><use xlink:href="#DejaVuSans-64" x="346.631"/><use xlink:href="#DejaVuSans-62" x="410.107"/></g><g id="text_17" style="fill:#d62728" transform="matrix(.14 0 0 -.14 408.756 264.056)"><defs><path id="DejaVuSans-2d" d="M313 2009h1684v-512H313v512z" transform="scale(.01563)"/><path id="DejaVuSans-76" d="M191 3500h609L1894 563l1094 2937h609L2284 0h-781L191 3500z" transform="scale(.01563)"/></defs><use xlink:href="#DejaVuSans-73"/><use xlink:href="#DejaVuSans-71" x="52.1"/><use xlink:href="#DejaVuSans-6c" x="115.576"/><use xlink:href="#DejaVuSans-2d" x="143.359"/><use xlink:href="#DejaVuSans-73" x="179.443"/><use xlink:href="#DejaVuSans-65" x="231.543"/><use xlink:href="#DejaVuSans-72" x="293.066"/><use xlink:href="#DejaVuSans-76" x="334.18"/><use xlink:href="#DejaVuSans-65" x="393.359"/><use xlink:href="#DejaVuSans-72" x="454.883"/></g><g id="text_18" style="fill:#9467bd" transform="matrix(.14 0 0 -.14 408.756 278.056)"><defs><path id="DejaVuSans-61" d="M2194 1759q-697 0-966-159t-269-544q0-306 202-486 202-179 548-179 479 0 768 339t289 901v128h-572zm1147 238V0h-575v531q-197-318-491-470T1556-91q-537 0-855 302-317 302-317 808 0 590 395 890 396 300 1180 300h807v57q0 397-261 614t-733 217q-300 0-585-72-284-72-546-216v532q315 122 612 182 297 61 578 61 760 0 1135-394 375-393 375-1193z" transform="scale(.01563)"/><path id="DejaVuSans-63" d="M3122 3366v-538q-244 135-489 202t-495 67q-560 0-870-355-309-354-309-995t309-996q310-354 870-354 250 0 495 67t489 202V134Q2881 22 2623-34q-257-57-548-57-791 0-1257 497-465 497-465 1341 0 856 470 1346 471 491 1290 491 265 0 518-55 253-54 491-163z" transform="scale(.01563)"/></defs><use xlink:href="#DejaVuSans-6f"/><use xlink:href="#DejaVuSans-72" x="61.182"/><use xlink:href="#DejaVuSans-61" x="102.295"/><use xlink:href="#DejaVuSans-63" x="163.574"/><use xlink:href="#DejaVuSans-6c" x="218.555"/><use xlink:href="#DejaVuSans-65" x="246.338"/></g><g id="text_19" style="fill:#8c564b" transform="matrix(.14 0 0 -.14 408.756 292.056)"><defs><path id="DejaVuSans-69" d="M603 3500h575V0H603v3500zm0 1363h575v-729H603v729z" transform="scale(.01563)"/><path id="DejaVuSans-68" d="M3513 2113V0h-575v2094q0 497-194 743-194 247-581 247-466 0-735-297-269-296-269-809V0H581v4863h578V2956q207 316 486 472 280 156 646 156 603 0 912-373 310-373 310-1098z" transform="scale(.01563)"/></defs><use xlink:href="#DejaVuSans-65"/><use xlink:href="#DejaVuSans-6c" x="61.523"/><use xlink:href="#DejaVuSans-61" x="89.307"/><use xlink:href="#DejaVuSans-73" x="150.586"/><use xlink:href="#DejaVuSans-74" x="202.686"/><use xlink:href="#DejaVuSans-69" x="241.895"/><use xlink:href="#DejaVuSans-63" x="269.678"/><use xlink:href="#DejaVuSans-73" x="324.658"/><use xlink:href="#DejaVuSans-65" x="376.758"/><use xlink:href="#DejaVuSans-61" x="438.281"/><use xlink:href="#DejaVuSans-72" x="499.561"/><use xlink:href="#DejaVuSans-63" x="538.424"/><use xlink:href="#DejaVuSans-68" x="593.404"/></g><g id="text_20" style="fill:#e377c2" transform="matrix(.14 0 0 -.14 408.756 306.056)"><use xlink:href="#DejaVuSans-73"/><use xlink:href="#DejaVuSans-71" x="52.1"/><use xlink:href="#DejaVuSans-6c" x="115.576"/><use xlink:href="#DejaVuSans-69" x="143.359"/><use xlink:href="#DejaVuSans-74" x="171.143"/><use xlink:href="#DejaVuSans-65" x="210.352"/></g><g id="text_21" style="fill:#7f7f7f" transform="matrix(.14 0 0 -.14 408.756 320.056)"><use xlink:href="#DejaVuSans-72"/><use xlink:href="#DejaVuSans-65" x="38.863"/><use xlink:href="#DejaVuSans-64" x="100.387"/><use xlink:href="#DejaVuSans-69" x="163.863"/><use xlink:href="#DejaVuSans-73" x="191.646"/></g><g id="text_22" style="fill:#bcbd22" transform="matrix(.14 0 0 -.14 408.756 334.056)"><use xlink:href="#DejaVuSans-6d"/><use xlink:href="#DejaVuSans-61" x="97.412"/><use xlink:href="#DejaVuSans-72" x="158.691"/><use xlink:href="#DejaVuSans-69" x="199.805"/><use xlink:href="#DejaVuSans-61" x="227.588"/><use xlink:href="#DejaVuSans-64" x="288.867"/><use xlink:href="#DejaVuSans-62" x="352.344"/></g><g id="text_23" style="fill:#17becf" transform="matrix(.14 0 0 -.14 408.756 348.056)"><use xlink:href="#DejaVuSans-6d"/><use xlink:href="#DejaVuSans-73" x="97.412"/><use xlink:href="#DejaVuSans-2d" x="149.512"/><use xlink:href="#DejaVuSans-61" x="185.596"/><use xlink:href="#DejaVuSans-63" x="246.875"/><use xlink:href="#DejaVuSans-63" x="301.855"/><use xlink:href="#DejaVuSans-65" x="356.836"/><use xlink:href="#DejaVuSans-73" x="418.359"/><use xlink:href="#DejaVuSans-73" x="470.459"/></g><g id="text_24" style="fill:#aec7e8" transform="matrix(.14 0 0 -.14 408.756 362.056)"><use xlink:href="#DejaVuSans-64"/><use xlink:href="#DejaVuSans-62" x="63.477"/><use xlink:href="#DejaVuSans-32" x="126.953"/></g><g id="text_25" style="fill:#ffbb78" transform="matrix(.14 0 0 -.14 408.756 376.056)"><use xlink:href="#DejaVuSans-68"/><use xlink:href="#DejaVuSans-32" x="63.379"/></g><g id="text_26" style="fill:#98df8a" transform="matrix(.14 0 0 -.14 408.756 390.056)"><use xlink:href="#DejaVuSans-73"/><use xlink:href="#DejaVuSans-6f" x="52.1"/><use xlink:href="#DejaVuSans-6c" x="113.281"/><use xlink:href="#DejaVuSans-72" x="141.064"/></g><g id="text_27" style="fill:#b0b0b0" transform="matrix(.09716 0 0 -.09716 40.922 357.986)"><defs><path id="DejaVuSans-40" d="M2381 1678q0-447 222-702 222-254 610-254 384 0 604 256 221 256 221 700 0 438-225 695-225 258-607 258-378 0-602-256-223-256-223-697zm1703-934q-187-241-429-355t-564-114q-538 0-874 389t-336 1014q0 625 337 1015 338 391 873 391 322 0 565-117 244-117 428-354v409h447V722q457 69 714 417 258 349 258 902 0 334-99 628-98 294-298 544-325 409-792 626t-1017 217q-384 0-738-102-353-101-653-301-490-319-767-836-276-517-276-1120 0-497 179-932 180-434 521-765 328-325 759-495 431-171 922-171 403 0 792 136t714 389l281-347q-390-303-851-464t-936-161q-578 0-1091 205-512 205-912 595Q841 78 631 592q-209 514-209 1105 0 569 212 1084 213 516 607 907 403 396 931 607t1119 211q662 0 1229-272 568-271 952-771 234-307 357-666 124-359 124-744 0-822-497-1297T4084 263v481z" transform="scale(.01563)"/><path id="DejaVuSans-2f" d="M1625 4666h531L531-594H0l1625 5260z" transform="scale(.01563)"/><path id="DejaVuSans-6b" d="M581 4863h578V1991l1716 1509h734L1753 1863 3688 0h-750L1159 1709V0H581v4863z" transform="scale(.01563)"/><path id="DejaVuSans-66" d="M2375 4863v-479h-550q-309 0-430-125-120-125-120-450v-309h947v-447h-947V0H697v3053H147v447h550v244q0 584 272 851 272 268 862 268h544z" transform="scale(.01563)"/><path id="DejaVuSans-77" d="M269 3500h575l719-2731 715 2731h678l719-2731 716 2731h575L4050 0h-678l-753 2869L1863 0h-679L269 3500z" transform="scale(.01563)"/><path id="DejaVuSans-7c" d="M1344 4891v-6400H813v6400h531z" transform="scale(.01563)"/><path id="DejaVuSans-4e" d="M628 4666h850L3547 763v3903h612V0h-850L1241 3903V0H628v4666z" transform="scale(.01563)"/><path id="DejaVuSans-53" d="M3425 4513v-616q-359 172-678 256-319 85-616 85-515 0-795-200t-280-569q0-310 186-468 186-157 705-254l381-78q706-135 1042-474t336-907q0-679-455-1029Q2797-91 1919-91q-331 0-705 75-373 75-773 222v650q384-215 753-325 369-109 725-109 540 0 834 212 294 213 294 607 0 343-211 537t-692 291l-385 75q-706 140-1022 440-315 300-315 835 0 619 436 975t1201 356q329 0 669-60 341-59 697-177z" transform="scale(.01563)"/><path id="DejaVuSans-f6" d="M1959 3097q-462 0-731-361t-269-989q0-628 267-989 268-361 733-361 460 0 728 362 269 363 269 988 0 622-269 986-268 364-728 364zm0 487q750 0 1178-488 429-487 429-1349 0-859-429-1349Q2709-91 1959-91q-753 0-1180 489-426 490-426 1349 0 862 426 1349 427 488 1180 488zm295 1266h634v-631h-634v631zm-1222 0h634v-631h-634v631z" transform="scale(.01563)"/><path id="DejaVuSans-43" d="M4122 4306v-665q-319 297-680 443-361 147-767 147-800 0-1225-489t-425-1414q0-922 425-1411t1225-489q406 0 767 147t680 444V359q-331-225-702-338-370-112-782-112-1060 0-1670 648-609 649-609 1771 0 1125 609 1773 610 649 1670 649 418 0 788-111 371-111 696-333z" transform="scale(.01563)"/><path id="DejaVuSans-42" d="M1259 2228V519h1013q509 0 754 211 246 211 246 645 0 438-246 645-245 208-754 208H1259zm0 1919V2741h935q462 0 688 173 227 174 227 530 0 353-227 528-226 175-688 175h-935zm-631 519h1613q722 0 1112-300 391-300 391-853 0-429-200-682t-588-315q466-100 724-418 258-317 258-792 0-625-425-966Q3088 0 2303 0H628v4666z" transform="scale(.01563)"/><path id="DejaVuSans-59" d="M-13 4666h679l1293-1919 1285 1919h678L2272 2222V0h-634v2222L-13 4666z" transform="scale(.01563)"/></defs><use xlink:href="#DejaVuSans-40"/><use xlink:href="#DejaVuSans-6e" x="100"/><use xlink:href="#DejaVuSans-73" x="163.379"/><use xlink:href="#DejaVuSans-63" x="215.479"/><use xlink:href="#DejaVuSans-68" x="270.459"/><use xlink:href="#DejaVuSans-6c" x="333.838"/><use xlink:href="#DejaVuSans-6f" x="361.621"/><use xlink:href="#DejaVuSans-65" x="422.803"/><use xlink:href="#DejaVuSans-20" x="484.326"/><use xlink:href="#DejaVuSans-2f" x="516.113"/><use xlink:href="#DejaVuSans-20" x="549.805"/><use xlink:href="#DejaVuSans-73" x="581.592"/><use xlink:href="#DejaVuSans-74" x="633.691"/><use xlink:href="#DejaVuSans-61" x="672.9"/><use xlink:href="#DejaVuSans-63" x="734.18"/><use xlink:href="#DejaVuSans-6b" x="789.16"/><use xlink:href="#DejaVuSans-6f" x="843.445"/><use xlink:href="#DejaVuSans-76" x="904.627"/><use xlink:href="#DejaVuSans-65" x="963.807"/><use xlink:href="#DejaVuSans-72" x="1025.33"/><use xlink:href="#DejaVuSans-66" x="1066.443"/><use xlink:href="#DejaVuSans-6c" x="1101.648"/><use xlink:href="#DejaVuSans-6f" x="1129.432"/><use xlink:href="#DejaVuSans-77" x="1190.613"/><use xlink:href="#DejaVuSans-2d" x="1272.4"/><use xlink:href="#DejaVuSans-74" x="1308.484"/><use xlink:href="#DejaVuSans-72" x="1347.693"/><use xlink:href="#DejaVuSans-65" x="1386.557"/><use xlink:href="#DejaVuSans-6e" x="1448.08"/><use xlink:href="#DejaVuSans-64" x="1511.459"/><use xlink:href="#DejaVuSans-73" x="1574.936"/><use xlink:href="#DejaVuSans-20" x="1627.035"/><use xlink:href="#DejaVuSans-7c" x="1658.822"/><use xlink:href="#DejaVuSans-20" x="1692.514"/><use xlink:href="#DejaVuSans-4e" x="1724.301"/><use xlink:href="#DejaVuSans-69" x="1799.105"/><use xlink:href="#DejaVuSans-63" x="1826.889"/><use xlink:href="#DejaVuSans-6f" x="1881.869"/><use xlink:href="#DejaVuSans-20" x="1943.051"/><use xlink:href="#DejaVuSans-53" x="1974.838"/><use xlink:href="#DejaVuSans-63" x="2038.314"/><use xlink:href="#DejaVuSans-68" x="2093.295"/><use xlink:href="#DejaVuSans-6c" x="2156.674"/><use xlink:href="#DejaVuSans-f6" x="2184.457"/><use xlink:href="#DejaVuSans-6d" x="2245.639"/><use xlink:href="#DejaVuSans-65" x="2343.051"/><use xlink:href="#DejaVuSans-72" x="2404.574"/><use xlink:href="#DejaVuSans-20" x="2445.688"/><use xlink:href="#DejaVuSans-7c" x="2477.475"/><use xlink:href="#DejaVuSans-20" x="2511.166"/><use xlink:href="#DejaVuSans-43" x="2542.953"/><use xlink:href="#DejaVuSans-43" x="2612.777"/><use xlink:href="#DejaVuSans-20" x="2682.602"/><use xlink:href="#DejaVuSans-42" x="2714.389"/><use xlink:href="#DejaVuSans-59" x="2777.492"/></g><g id="text_28" style="fill:#b0b0b0" transform="matrix(.14 0 0 -.14 63.337 17.838)"><defs><path id="DejaVuSans-44" d="M1259 4147V519h763q966 0 1414 437 448 438 448 1382 0 937-448 1373t-1414 436h-763zm-631 519h1297q1356 0 1990-564 635-564 635-1764 0-1207-638-1773Q3275 0 1925 0H628v4666z" transform="scale(.01563)"/><path id="DejaVuSans-75" d="M544 1381v2119h575V1403q0-497 193-746 194-248 582-248 465 0 735 297 271 297 271 810v1984h575V0h-575v538q-209-319-486-474-276-155-642-155-603 0-916 375-312 375-312 1097zm1447 2203z" transform="scale(.01563)"/><path id="DejaVuSans-4f" d="M2522 4238q-688 0-1093-513-404-512-404-1397 0-881 404-1394 405-512 1093-512 687 0 1089 512 402 513 402 1394 0 885-402 1397-402 513-1089 513zm0 512q981 0 1568-658 588-658 588-1764 0-1103-588-1761Q3503-91 2522-91q-984 0-1574 656-589 657-589 1763t589 1764q590 658 1574 658z" transform="scale(.01563)"/></defs><use xlink:href="#DejaVuSans-44"/><use xlink:href="#DejaVuSans-61" x="77.002"/><use xlink:href="#DejaVuSans-69" x="138.281"/><use xlink:href="#DejaVuSans-6c" x="166.064"/><use xlink:href="#DejaVuSans-79" x="193.848"/><use xlink:href="#DejaVuSans-20" x="253.027"/><use xlink:href="#DejaVuSans-6e" x="284.814"/><use xlink:href="#DejaVuSans-75" x="348.193"/><use xlink:href="#DejaVuSans-6d" x="411.572"/><use xlink:href="#DejaVuSans-62" x="508.984"/><use xlink:href="#DejaVuSans-65" x="572.461"/><use xlink:href="#DejaVuSans-72" x="633.984"/><use xlink:href="#DejaVuSans-20" x="675.098"/><use xlink:href="#DejaVuSans-6f" x="706.885"/><use xlink:href="#DejaVuSans-66" x="768.066"/><use xlink:href="#DejaVuSans-20" x="803.271"/><use xlink:href="#DejaVuSans-71" x="835.059"/><use xlink:href="#DejaVuSans-75" x="898.535"/><use xlink:href="#DejaVuSans-65" x="961.914"/><use xlink:href="#DejaVuSans-73" x="1023.438"/><use xlink:href="#DejaVuSans-74" x="1075.537"/><use xlink:href="#DejaVuSans-69" x="1114.746"/><use xlink:href="#DejaVuSans-6f" x="1142.529"/><use xlink:href="#DejaVuSans-6e" x="1203.711"/><use xlink:href="#DejaVuSans-73" x="1267.09"/><use xlink:href="#DejaVuSans-20" x="1319.189"/><use xlink:href="#DejaVuSans-6f" x="1350.977"/><use xlink:href="#DejaVuSans-6e" x="1412.158"/><use xlink:href="#DejaVuSans-20" x="1475.537"/><use xlink:href="#DejaVuSans-53" x="1507.324"/><use xlink:href="#DejaVuSans-74" x="1570.801"/><use xlink:href="#DejaVuSans-61" x="1610.01"/><use xlink:href="#DejaVuSans-63" x="1671.289"/><use xlink:href="#DejaVuSans-6b" x="1726.27"/><use xlink:href="#DejaVuSans-4f" x="1784.18"/><use xlink:href="#DejaVuSans-76" x="1862.891"/><use xlink:href="#DejaVuSans-65" x="1922.07"/><use xlink:href="#DejaVuSans-72" x="1983.594"/><use xlink:href="#DejaVuSans-66" x="2024.707"/><use xlink:href="#DejaVuSans-6c" x="2059.912"/><use xlink:href="#DejaVuSans-6f" x="2087.695"/><use xlink:href="#DejaVuSans-77" x="2148.877"/></g><path id="line2d_23" d="m40.922 320.019 1.606.953 2.083.543 2.083-.052 2.117.589 4.03-1.146 2.084-.642 2.083-.437 2.083-.24 2.083-2.182 2.118 1.8 2.083-.936 2.083.87 2.083-.228 2.084.13 4.132.634 2.015-1.288 2.083 1.032 2.083-1.687 2.083-.342 2.084-.149 2.117 1.211 2.083.189 2.083-.45 2.084-.091 2.083.549 2.117-1.964 2.015.381 2.015-.217 2.083-.98 2.084.194 2.083-.939 4.2.285 2.084 2.048 2.083-.477 2.083-1.01 2.083.519 2.118-.687 2.049-1.962 2.049 1.143 2.083-1.583 2.083 1.223 2.084-.006 2.083-3.2 2.117 1.047 2.083 2.762 2.084-1.748 2.083-.687 2.083 1.243 2.118-2.356 2.014-.191 2.015-3.67 2.084.105 2.083 1.237 2.083.69 2.083-1.934 2.118 3.272 2.083-1.507 2.083-3.794 2.083 2.205 2.084 1.558 2.117-1.014 2.015-3.851 2.015 2.378 2.083-.931 2.083 4.956 2.083-.324 2.084-1.934 2.117 2.455 2.083 1.542 2.084-.92 2.083.142 2.083 1.297 2.117-3.6 2.015.7 2.015-1.583 2.083.82 2.084-.329 2.083-2.918 2.083.987 2.118 2.88 2.083-.249 2.083-.667 2.083 2.764 2.083-1.553 2.118-1.964 2.049-3.078 2.049 2.49 2.083 1.298 2.083.108 2.084-3.083 2.083 2.658 2.117-1.113 2.083 2.681 2.084-1.7 2.083 1.126 2.083 1.624 2.118-.982 2.014-1.92 2.015.677 2.084 1.716 2.083-3.516 2.083-1.285 2.083.696 2.118 1.669 2.083 3.18 2.083-.857 2.083.08 2.084 2.243 2.117-1.407 2.015.354 4.098-.616 2.083.164 2.084-.13 2.083-.72 2.117-1.506 2.083 1.753 2.084-.477 2.083.206 2.083 3.1 2.117-3.47 2.015-.84 2.015 1.43 6.25.964 2.083-1.39 2.118 2.847 2.083-.646 2.083-1.939 2.083-.022 2.084 1.69 2.117-.784 2.049-.93 2.049 2.566 2.083-4.57 2.083 1.886 2.084-.602 4.2 4.038 2.084-.183 2.083 2.114 2.083-.626 2.083 1.215 2.118-1.276 2.015-1.507 2.014-.358 2.084 1.79 2.083.795 2.083-1.234 2.083.776 2.118 1.57 2.083-.52 2.083 1.273 2.083-1.104 2.084.58 2.117.164 2.015-1.848 2.015-.312 2.083 1.146 2.083.556 2.084-.387 2.083.91 2.117-1.374 2.083.531 2.084.025 2.083-.329 2.083 1.704 2.118.425h0" clip-path="url(#p7daa51a117)" style="fill:none;stroke:#17becf;stroke-width:1.5;stroke-linecap:square"/><path id="line2d_24" d="M59.091 323.95h6.284l33.297-.066 2.015-.115 2.015.148 8.333-.065 6.284.065 2.083-.136 8.299.136 4.166-.033 4.167-.032 16.597-.066 2.084-.276 2.083.113 2.083-.316 2.083-.012 2.118.426 2.083-.447 6.25.12 2.117-.262 2.015.13 2.015-.392 2.083.032 2.083.262 2.083-.093 4.201.126 4.167-.654 2.083.054 2.083.207 2.117-.261 2.015.356 2.015-.913 2.083.375 2.084.247 2.083-.417 2.083-.074 2.118.753 4.166-1.113 2.083.434 4.2-.303 2.05-.772 2.049-.57 2.083.563 2.083.354 2.084-1.064 2.083.802 2.117-.098 2.083-.535 2.084.306 2.083.032 2.083-.621 2.118.425 2.014-.71 2.015-.893 2.084.65 2.083-.127 2.083.431 2.083-.202 2.118-1.047 2.083 1.114 2.083-.001 2.083-1.52 2.084 1.389 2.117.294 2.015-1.21 2.015.163 4.166-.622 2.084 1.033 2.083-1.163 2.117.327 2.083.194 2.084-.325 2.083-.79 2.083 1.968 2.117-1.636 2.015-.707 2.015.707 2.084.039 2.083.91 2.083-.437 2.083-1.265 2.118 1.342 2.083-.584 2.083-1.118 2.083.07 2.084.781 2.117-1.407 2.049.106 2.049.777 2.083-1.102 2.083-.174 2.084-.469 2.083 1.484 4.2.14 2.084 1.005 2.083-.837 2.083 1.557 2.118-1.702 2.015-1.019 2.014.921 2.084-.332 2.083.43 2.083.111 4.2.511 2.084-1.085 2.083 1.674 2.083-1.505 2.084.752 2.117-.818 2.015.61 2.015-.642 2.083 1.349 2.083-.891 2.084.587 2.083-.031 2.117.294 2.083.108 2.084.318 2.083-1.264 2.083.871 2.118-.49h0" clip-path="url(#p7daa51a117)" style="fill:none;stroke:#bcbd22;stroke-width:1.5;stroke-linecap:square"/><path id="line2d_25" d="m61.174 323.95 14.583-.145 4.098-.058 6.25-.157 2.117.033 4.166-.23 2.084-.018 2.083.117 2.117-.917 2.015.18 2.015-.081 2.083-.415 2.084.382 2.083-1.126 2.083.144 2.117.327 2.084-.268 4.166.034 2.083-.551 2.118.164 2.049-.424 2.049.293 4.166-1.31 2.084-.133 2.083.985 2.117-.819 2.083.713 2.084-1.072 2.083.835 2.083.179 2.118.458 4.03-1.145 4.166-.622 2.083.623 2.083.359 2.118-.818 2.083.222 2.083-.811 2.083-.44 2.084.538 2.117-.098 2.015.18 2.015-1.555 2.083.394 2.083 1.897 4.167-.982 2.117-.196 2.083.33 2.084.095 2.083.276 2.083.51 2.117-1.015 2.015-.768 2.015-.312 2.083.165 2.084-.328 2.083-.044 4.2-.447 2.084.075 8.367 1.005 2.049-.994 2.049-.25 2.083.307 2.083-.241 2.084.342 2.083 1.36 2.117-.917 2.083.03 2.084 1.312 2.083-1.48 2.083.825 2.118-.85 2.014-.5 2.015 1.056 2.084-.227 2.083-.951 2.083.511 2.083.241 2.118-.262 2.083.664 2.083.416 2.083-.687 2.084 1.342 2.117-1.08 2.015-.08 2.015-.804 6.25-.088 2.083-1.122 2.117-1.342 2.083 1.01 2.084-.421 2.083-.052 2.083 2.768 2.117-2.029 2.015.304 2.015-.566 2.084-.275 2.083.799 2.083.588 2.083-1.308 2.118-.196 2.083.895 2.083-.012 2.083-1.002 2.084.577 4.166-1.054 2.049-.844 2.083-1.486 2.083.7 2.084-.328 2.083.263 2.117.982 2.084-.061 2.083.813 4.166.95 2.118-.459 2.015.01 4.098-1.923 2.083 2.47 2.083-.982 2.083.949 2.118.36 2.083-.295 2.083.917 2.083-1.627 2.084 1.136 2.117-1.113 2.015-.11 2.015.895 2.083-.03 2.083-.166 2.084.876 4.2-2.708 2.083 2.1 2.084-.366 2.083-1.393 2.083 2.571 2.118-.425h0" clip-path="url(#p7daa51a117)" style="fill:none;stroke:#7f7f7f;stroke-width:1.5;stroke-linecap:square"/><path id="line2d_26" d="m40.922 322.492 1.606.378 2.083.133 2.083.26 4.132-1.233 2.015-.044 2.084-1.147 2.083-.325 6.284-.524 2.083.477 2.083-.935 2.083-.282 2.084-.078 2.117-.294 2.015-1.268 2.015-.107 2.083-.35 2.083-.828 2.083.558 2.084-2.194 2.117-.36 2.083 1.133 2.083-1.526 2.084-1.957 2.083.714 2.117-.557 2.015-3.403 2.015-2.814 2.083.177 2.084.837 2.083-3.17 2.083.814 2.117.098 2.084-.372 2.083 2.434 2.083-3.685 2.083 3.914 2.118-2.52 2.049-5.962 2.049-1.597 2.083 1.668 2.083 1.474 2.084.014 2.083-1.356 2.117-.458 2.083 3.2 2.084-1.564 2.083-.972 2.083.285 2.118-1.473 2.014.304 2.015-1.613 2.084.062 2.083.396 2.083 3.797 2.083-5.433 2.118 2.324 2.083-.035 2.083-3.467 2.083-1.166 2.084 3.424 2.117-4.287 2.015-2.081 2.015.183 2.083-.823 2.083 7.27 2.083 2.096 2.084-3.732 2.117 4.221 2.083-1.402 2.084 2.187 2.083-1.409 2.083 2.816 2.117-3.305 2.015-1.11 2.015-4.715 2.083-1.632 2.084 7.588 2.083-.96 2.083.404 2.118.556 2.083-.927 2.083 1.45 2.083 1.762 2.083.268 2.118-1.407 2.049-3.414 2.049-1.757 2.083-1.602 2.083 3.042 2.084 4.194 2.083-.758 2.117 2.847 2.083-2.021 2.084.058 2.083.922 2.083.681 2.118-1.374 4.03-1.898 2.083-1.602 2.083.358 2.083 4.41 2.083.433 2.118.622 2.083.839 2.083 1.255 2.083-2.946 2.084 3.274 2.117-.426 2.015-1.872 2.015 2.003 2.083-1.559 2.083 1.69 2.084 2.064 2.083-1.082 2.117-2.39 2.083.192 2.084-1.467 2.083.216 2.083 4.365 2.117-2.094 2.015-3.279 2.015 1.053 2.084 1.307 2.083 2.097 2.083.778 2.083-1.793 2.118 1.244 2.083.177 2.083-2.468 2.083-1.421 2.084 3.057 2.117-1.669 2.049-3.222 2.049 1.03 2.083-5.181 2.083-.906 2.084 4.287 2.083 1.964 2.117.458 2.084 1.095 2.083 1.326 2.083-1.833 2.083 2.782 2.118-2.323 2.015-.063 2.014-.264 2.084.341 2.083 1.884 2.083.618 4.2 2.033 2.084-.646 2.083 1.496 2.083.736 2.084.312 2.117-1.31 2.015.198 2.015-1.441 2.083.786 2.083 1.276 2.084 1.599 2.083.397 2.117-.655 2.083 2.354 2.084-.881 2.083-1.046 2.083-.623 2.118 1.93h0" clip-path="url(#p7daa51a117)" style="fill:none;stroke:#e377c2;stroke-width:1.5;stroke-linecap:square"/><path id="line2d_27" d="M73.742 323.95h24.93l2.015-.181 2.015.115 2.083-.002 2.084-.194 10.45-.065 2.083-.485 2.083.321 2.118-.49 2.049.106 2.049-.107 2.083-.337 2.083-.514 2.084.074 2.083.188 2.117-.982 2.083-.152 2.084-.633 2.083-.179 2.083.997 2.118-1.276 2.014.426 2.015-.982 2.084-.788 2.083.493 2.083-.797 2.083-.545 2.118.328 2.083.555 2.083-.72 2.083-.43 2.084 1.282 2.117-3.207 2.015-2.109 2.015.767 2.083-1.704 2.083.133 2.083 1.186 2.084-1.578 2.117-.95 2.083.905 2.084 1.026 2.083-1.567 2.083.03 2.117-1.67 2.015-3.027 2.015-.965 2.083 1.067 2.084-1.001 2.083-1.535 4.2.422 2.084.017 2.083.703 2.083-3.07 2.083 3.463 2.118-3.044 2.049-3.315 2.049 1.025 2.083.722 2.083.554 2.084-.994 2.083 2.924 2.117-.687 2.083.84 2.084 1.19 2.083-1.596 2.083 2.839 2.118-3.698 2.014-4.375 2.015 3.851 2.084 2.127 2.083-1.898 2.083-.097 2.083 2.192 2.118-2.618 2.083 2.388 4.166 2.13 2.084 3.368 2.117-1.374 2.015-3.366 2.015.486 2.083.074 2.083-1.252 2.084.001 2.083-1.768 2.117-3.043 2.083 2.309 2.084-2.277 2.083-.496 2.083 7.925 2.117-3.6 2.015-4.12 2.015 1.568 2.084 1.101 2.083-.84 2.083-.242 2.083-2.016 2.118 1.997 2.083-2.686 2.083 1.05 2.083-.17 2.084 3.867 2.117-1.21 2.049-1.86 2.049 1.532 2.083-2.465 2.083-.775 2.084-.476 2.083.706 2.117 2.65 2.084.363 2.083.913 2.083.305 2.083 1.692 2.118.556 2.015-3.205 2.014-1.278 2.084.815 2.083 1.41 2.083-.362 2.083 1.965 2.118.557 2.083.96 2.083 2.868 2.083-.433 2.084.924 2.117-.981 2.015-2.35 2.015-.137 2.083 1.293 2.083-.475 2.084.07 2.083 1.304 2.117.59 2.083-.069 2.084.624 2.083-.454 2.083 2.81 2.118-1.08h0" clip-path="url(#p7daa51a117)" style="fill:none;stroke:#8c564b;stroke-width:1.5;stroke-linecap:square"/><path id="line2d_28" d="m40.922 314.503 1.606 3.262 2.083 1.857 2.083.597 2.117-.229 2.015-.895 2.015.143 2.084-.191 2.083-2.035 2.083-1.38 2.083-.55 2.118-.688 2.083 1.102 2.083-1.298 2.083-.73 2.084 1.58 2.117.394 2.015-1.782 2.015-.967 2.083 1.45 2.083.939 2.083-4.117 2.084 2.35 2.117-2.651 2.083 2.33 2.083-.792 2.084-2.42 2.083 1.438 2.117-2.52 2.015-.728 2.015-1.595 2.083.868 2.084-.246 4.166.785 2.117-1.669 2.084-3.705 2.083 1.938 2.083-3.629 2.083 3.302 2.118.13 2.049-4.793 2.049.703 2.083 1.91 2.083-1.615 2.084 1.817 2.083-3.093 2.117-1.08 2.083.656 2.084-2.227 2.083-4.908 2.083 8.148 2.118-3.076 2.014-4.997 2.015 4.735 2.084-6.5 4.166 2.84 2.083-1.936 2.118 2.389 4.166-9.556 2.083 1.9 2.084 4.416 2.117-1.93 2.015-6.43 2.015-.443 2.083-1.564 2.083 5.884 2.083 4.294 2.084-2.625 2.117 4.09 2.083-6.266 2.084.572 2.083-2.906 2.083 6.604 2.117.655 2.015-6.157 2.015-2.024 2.083-1.276 2.084 2.945 2.083.606 2.083-1.425 2.118 3.764 2.083-1.967 2.083 1.443 2.083-3.472 2.083 5.501 2.118-.033 2.049-6.87 2.049-.002 2.083-.118 2.083 4.241 2.084-1.197 2.083 6.466 2.117-1.767 2.083-.81 2.084-4.786 2.083 1.708 2.083 4.87 2.118-2.847 2.014-2.443 2.015-4.495 2.084 4.408 2.083-2.64 2.083 3.418 2.083.835 2.118.131 2.083 2.72 2.083-4.16 2.083.068 2.084 7 2.117-2.126 2.015-3.927 2.015-.164 2.083-.546 2.083.055 2.084 3.53 2.083-1.86 2.117-1.08 2.083 4.698 2.084-7.873 2.083.129 2.083 5.925 2.117 2.716 2.015-6.508 2.015.127 2.084-.062 2.083-.756 2.083 5.693 2.083-4.22 2.118 4.974 4.166-8.705 2.083 1.594 2.084 3.707 2.117 1.015 2.049-5.782 2.049 1.462 2.083-7.233 2.083 3.895 2.084-1.968 2.083 6.811 2.117 5.007 2.084-1.707 2.083-4.118 2.083 2.867 2.083 6.656 2.118.425 2.015-6.023 2.014-.096 2.084-3.16 2.083 2.931 2.083 4.103 2.083 2.835 2.118-1.146 2.083.069 2.083 2.647 2.083-2.241 2.084 4.86 2.117-.034 2.015-2.326 2.015-1.568 2.083.319 2.083-1.268 2.084 5.46 2.083-.224 2.117.655 4.167.85 2.083-1.956 2.083 5.163 2.118-1.636h0" clip-path="url(#p7daa51a117)" style="fill:none;stroke:#9467bd;stroke-width:1.5;stroke-linecap:square"/><path id="line2d_29" d="m40.922 298.272 1.606 8.629 2.083 3.557 2.083 1.253 2.117-5.76 2.015-.95 2.015-1.635 2.084-2.478 2.083-1.416 2.083-1.255 2.083-3.817 2.118 3.436 2.083-3.407 2.083.364 2.083.11 2.084 1.984 2.117-3.141 2.015-2.114 2.015 3.128 2.083 1.259 2.083-1.16 2.083-.463 2.084-3.563 2.117-2.16 2.083-.229 2.083-1.44 2.084-.86 2.083 4.558 2.117-3.01 2.015-5.262 2.015-4.196 2.083 4.225 2.084.52 2.083.258 2.083.495 2.117-2.422 2.084.777 2.083 4.525 2.083-6.182 2.083 4.644 2.118-2.684 2.049-5.84 2.049-1.26 2.083 2.3 2.083-5.41 2.084-2.063 2.083 1.932 2.117-2.061 2.083.906 2.084-5.03 2.083-1.699 2.083 9.52 2.118-12.99 2.014-3.336 2.015-3.57 2.084-1.628 2.083 2.676 2.083-.952 2.083-10.665 2.118 4.286 4.166-13.187 2.083 6.345 2.084 2.097 2.117-8.966 2.015-7.413 2.015 4.599 2.083-6.143 2.083 15.927 2.083-1.961 2.084-6.122 2.117 6.054 2.083 2.435 2.084-1.158 2.083-5.571 2.083 12.966 2.117-9.98 2.015-8.764 2.015-3.803 2.083 3.427 2.084 3.805 2.083-8.742 2.083 2.852 2.118 2.29 2.083 4.596 2.083 2.833 2.083.785 2.083-.818 2.118-3.436 2.049-7.044 2.049-1.987 2.083 1.146 2.083 3.599 2.084-10.058 2.083 8.781 2.117-3.272 2.083-1.519 2.084 11.303 2.083-8.056 2.083 11.034 2.118-5.923 2.014-10.705 2.015-7.162 2.084 12.925 2.083-2.65 2.083 5.76 2.083.556 2.118-5.858 2.083 9.327 2.083-.72 2.083-3.71 2.084 18.894 2.117-9.883 2.015-4.654 2.015 7.043 2.083.909 2.083.367 2.084 2.27 2.083-4.135 2.117-1.145 2.083 5.145 2.084-8.712 2.083 8.746 2.083 9.906 2.117-10.013 2.015-10.888 2.015 7.975 2.084-2.56 2.083 7.665 2.083 6.064 2.083-11.038 2.118 5.858 2.083.987 2.083-5.34 2.083-3.012 2.084 15.84 4.166-14.933 2.049 2.335 2.083-4.662 2.083 7.64 2.084-2.433 2.083 5.901 2.117 9.163 2.084-1.673 2.083 2.557 2.083 2.92 2.083 9.057 2.118-10.898 2.015-2.27 2.014.307 2.084 5.428 2.083 6.287 2.083-4.9 2.083 8.074 2.118-1.636 2.083-2.482 2.083 3.104 2.083 2.88 2.084 2.585 2.117-2.978 2.015-4.64 2.015.713 2.083 3.442 2.083.681 2.084 7.4 2.083-2.491 2.117-4.712 2.083 1.083 2.084 2.81 2.083-4.027 2.083 10.41 2.118-2.586h0" clip-path="url(#p7daa51a117)" style="fill:none;stroke:#d62728;stroke-width:1.5;stroke-linecap:square"/><path id="line2d_30" d="m54.925 323.95 2.083-.066 2.083.066 6.284-.135 2.083.07 2.083-.341 2.084.013 2.117-.72 2.015-.336 2.015.14 2.083-.078 2.083-.708 2.083-.475 2.084.181 2.117-1.244 2.083-.12 2.083-.73 2.084-.082 2.083-1.096 2.117-1.473 2.015-1.127 2.015.047 2.083-.578 2.084-.207 2.083-.807 2.083-1.386 2.117.066 2.084-.202 2.083-2.154 2.083-1.6 2.083 1.24 2.118-3.044 2.049-.36 2.049-2.061 2.083-2.571 2.083 2.276 2.084-.078 2.083-1.165 2.117-2.258 2.083 1.698 4.167-2.097 2.083 3.213 2.118-4.909 2.014-1.721 2.015.02 2.084-.694 2.083-1.826 2.083 2.468 2.083-3.744 2.118-2.226 2.083 1.642 2.083-1.053 2.083 1.188 2.084 1.332 2.117-4.68 2.015-6.05 2.015 1.96 2.083.202 2.083 4.74 2.083-3.421 2.084-.146 2.117 3.665 2.083-4.5 2.084 1.03 2.083-1.131 2.083 1.786 2.117-.752 2.015-7.925 2.015 3.605 2.083-9.902 2.084 1.296 2.083-1.803 2.083 2.032 2.118 3.469 2.083-1.038 2.083.71 2.083-.575 2.083 1.328 2.118-6.938 2.049-6.058 2.049 7.662 2.083-.322 2.083.65 2.084-3.118 2.083 5.931 2.117-3.73 2.083 3.682 2.084 1.227 2.083-3.966 2.083 4.62 2.118-8.312 2.014 1.362 2.015-.38 2.084 5.044 2.083-.823 2.083 4.035 2.083.448 2.118-1.276 2.083 4.784 2.083-2.657 2.083-3.53 2.084 4.185 2.117-9.261 2.015 2.619 2.015.162 4.166 10.897 2.084 2.725 2.083-12.902 2.117-5.661 2.083 3.144 2.084-2.555 2.083 3.873 2.083 2.966 2.117-3.37 2.015-4.496 2.015 4.529 2.084-1.522 2.083-.05 2.083.76 2.083-2.624 2.118 4.057 2.083-1.196 2.083-2.73 2.083-1.903 2.084 3.539 2.117-8.476 2.049.875 2.049-3.33 2.083-20.066 2.083 1.218 2.084 2.13 2.083 6.476 2.117 3.763 2.084 1.461 2.083 8.39 2.083-1.12 2.083 3.64 2.118-4.713 2.015-1.912 2.014-1.36 2.084.085 2.083 4.823 2.083-2.321 2.083 7.033 2.118-.818 2.083-1.718 2.083 4.892 2.083.688 2.084 1.243 2.117-1.538 2.015-1.952 2.015-2.793 2.083 2.977 2.083-2.355 2.084 5.23 2.083-.19 2.117-3.6 2.083 6.258 2.084-.532 2.083-7.922 2.083 11.162 2.118.786h0" clip-path="url(#p7daa51a117)" style="fill:none;stroke:#2ca02c;stroke-width:1.5;stroke-linecap:square"/><path id="line2d_31" d="m40.922 321.54 1.606.806 2.083.556 2.083.066 2.117-.818 4.03.13 2.084-.494 2.083.004 2.083-.173 2.083-1.594 2.118-.59 2.083.932 2.083.541 2.083-.033 2.084-.556 2.117-1.243 2.015.347 2.015-1.067 2.083.828 4.166-3.212 2.084 2.482 2.117-1.505 4.166.556 2.084-1.06 4.2-.249 2.015-3.113 2.015-.683 2.083 2.151 2.084-1.987 2.083 1.75 2.083-1.783 2.117-.458 2.084.788 2.083-.1 2.083-1.253 2.083.336 2.118-.164 2.049-3.26 2.049.479 2.083-1.888 2.083.382 2.084.564 2.083.025 2.117-2.29 2.083.879 2.084-3.3 2.083 1.271 2.083 1.117 2.118-5.53 2.014 1.07 2.015 1.417 2.084-.711 2.083.22 2.083-.39 2.083-1.835 2.118.032 2.083.992 2.083-2.17 2.083-1.482 2.084-.023 2.117-2.356 2.015-6.157 2.015-.42 2.083 3.072 2.083 1.803 2.083.226 2.084-1.437 2.117 4.81 2.083-4.286 2.084.23 2.083.954 2.083 1.63 2.117-3.73 2.015-1.548 2.015.926 2.083-3.568 2.084.263 2.083-1.514 2.083-2.02 2.118 2.683 4.166-1.21 2.083 1.798 2.083-.588 2.118-1.538 2.049-7.425 2.049 3.433 2.083 1.79 2.083-.252 2.084-4.246 2.083 8.402 2.117-5.727 2.083 4.257 2.084-1.181 2.083-1.727 2.083 1.662 2.118-2.258 2.014-2.829 2.015-1.524 2.084 1.872 2.083-5.373 2.083 4.426 2.083 1.89 2.118-.033 2.083 3.757 2.083-3.954 2.083-2.708 2.084 9.09 2.117-6.578 2.015.91 2.015.105 2.083.396 2.083-1.05 2.084 2.504 2.083-3.094 2.117-1.473 2.083.847 2.084-3.563 2.083-.427 2.083 9.034 2.117-5.04 2.015-2.514 2.015-4.685 2.084-.752 2.083 3.108 2.083 6.022 2.083-11.29 2.118 7.395 2.083-2.665 2.083-5.385 2.083-.093 2.084 4.969 2.117-7.657 2.049-4.897 2.049-.896 2.083-6.194 2.083.304 2.084-3.01 2.083 3.86 2.117 4.484 2.084-1.107 2.083 1.467 2.083.697 2.083 10.004 2.118-7.429 2.015-6.068 2.014-1.982 2.084 4.528 2.083 1.232 2.083-1.367 2.083 5.36 2.118-1.244 2.083 1.294 2.083-1.883 2.083-.957 2.084 6.52 2.117.556 2.015-6.658 2.015.31 2.083 4.615 2.083-4.354 2.084 5.977 2.083-2.05 2.117-3.469 2.083.75 2.084 3.8 2.083-6.775 2.083 8.934 2.118-2.225h0" clip-path="url(#p7daa51a117)" style="fill:none;stroke:#ff7f0e;stroke-width:1.5;stroke-linecap:square"/><path id="line2d_32" d="m40.922 312.03 1.606 3.019 2.083-1.142 2.083.782 2.117-2.913 2.015-.905 2.015-2.4 2.084-1.057 2.083-2.215 2.083-4.886 2.083-5.39 2.118-4.057 2.083-.528 2.083-3.988 2.083-1.794 2.084-1.086 2.117-4.778 2.015-3.11 2.015-6.085 2.083.18 2.083-.507 2.083-5.749 2.084.971 2.117-6.348 2.083 2.807 2.083-2.546 2.084-10.472 2.083 3.306 2.117-19.536 2.015-11.887 2.015-9.057 2.083-.429 2.084 7.563 2.083-8.881 2.083-2.376 2.117-9.654 2.084 9.324 2.083 3.504 2.083-15.643 2.083 13.712 4.167-31.938 2.049-8.574 2.083-.827 2.083 2.856 2.084-7.353 2.083-7.962 2.117 5.465 2.083 7.028 2.084-12.33 2.083-4.51 2.083 14.982 2.118-29.026 2.014-10.472 2.015-7.788 2.084-2.897 2.083 20.372 2.083 3.23 2.083-14.39 2.118-4.155 2.083-6.443 2.083-8.872 2.083-2.456 2.084 9.459 2.117-25.917 2.015-21.77 2.015-5.653 2.083 2.255 2.083 43.035 2.083 20.367 2.084-3.481 2.117 17.932 2.083-13.605 2.084-4.262 2.083-2.13 2.083 17.314 2.117-7.003 2.015-20.713 2.015-2.75 2.083-4.127 2.084 13.257 2.083-5.31 2.083-7.289 2.118 25.656 2.083-9.61 2.083 4.996 2.083-.633 2.083 4.494 2.118-4.516 2.049-18.355 2.049-2.915 2.083-3.731 2.083 18.522 2.084 6.704 2.083 21.766 2.117-5.989 2.083 7.25 2.084 6.723 2.083-7.33 2.083 15.871 2.118-14.627 2.014-21.826 2.015-14.989 2.084 22.146 2.083 8.157 2.083 6.417 2.083 3.105 2.118 4.222 2.083 4.643 2.083 8.086 2.083-9.134 2.084 31.354 2.117-10.668 2.015-3.414 2.015 2.04 2.083-2.134 2.083 9.333 2.084 7.236 2.083-1.804 2.117 4.549 2.083 2.429 2.084-7.698 2.083-1.804 2.083 20.424 2.117-10.733 2.015-11.585 2.015-6.25 2.084 9.09 2.083 11.264 2.083 14.842 2.083-29.437 2.118 19.144 2.083-3.132 2.083-14.67 2.083-10.116 2.084 26.904 2.117-7.592 2.049-13.09 2.049-2.716 2.083-20.887 2.083 6.783 2.084 14.893 2.083 9.813 2.117 14.857 2.084-.222 2.083 9.974 2.083-5.376 2.083 22.883 2.118-17.867 2.015-.651 2.014-8.544 2.084 2.793 2.083 8.398 2.083 2.524 2.083 11.351 2.118 4.68 2.083-3.283 2.083 4.69 2.083.112 2.084 3.717 2.117-1.604 2.015-7.371 2.015 2.659 2.083.435 2.083-6.293 2.084 21.442 2.083-5.047 2.117-2.749 2.083 6.646 2.084-2.097 2.083-8.182 2.083 13.483 2.118 5.76h0" clip-path="url(#p7daa51a117)" style="fill:none;stroke:#1f77b4;stroke-width:1.5;stroke-linecap:square"/></g></g><defs><clipPath id="p7daa51a117"><path d="M40.922 57.838h357.12V323.95H40.922z"/></clipPath></defs></svg>