<svg xmlns="http://www.w3.org/2000/svg" xmlns:xlink="http://www.w3.org/1999/xlink" width="677.207" height="518.621" viewBox="0 0 507.905 388.966"><defs><style>*{stroke-linejoin:round;stroke-linecap:butt}</style></defs><g id="figure_1"><path id="patch_1" d="M0 388.966h507.905V0H0v388.966z" style="fill:none"/><g id="axes_1"><path id="patch_2" d="M40.922 323.95h357.12V57.838H40.923V323.95z" style="fill:none"/><g id="matplotlib.axis_1"><g id="xtick_1"><g id="line2d_1"><defs><path id="mbe70e9a558" d="M0 0v3.5" style="stroke:#b0b0b0;stroke-width:.4"/></defs><use xlink:href="#mbe70e9a558" x="73.252" y="323.95" style="fill:#b0b0b0;stroke:#b0b0b0;stroke-width:.4"/></g><g id="text_1" style="fill:#b0b0b0" transform="matrix(.14 0 0 -.14 55.437 341.588)"><defs><path id="DejaVuSans-32" d="M1228 531h2203V0H469v531q359 372 979 998 621 627 780 809 303 340 423 576 121 236 121 464 0 372-261 606-261 235-680 235-297 0-627-103-329-103-704-313v638q381 153 712 231 332 78 607 78 725 0 1156-363 431-362 431-968 0-288-108-546-107-257-392-607-78-91-497-524-418-433-1181-1211z" transform="scale(.01563)"/><path id="DejaVuSans-30" d="M2034 4250q-487 0-733-480-245-479-245-1442 0-959 245-1439 246-480 733-480 491 0 736 480 246 480 246 1439 0 963-246 1442-245 480-736 480zm0 500q785 0 1199-621 414-620 414-1801 0-1178-414-1799Q2819-91 2034-91q-784 0-1198 620-414 621-414 1799 0 1181 414 1801 414 621 1198 621z" transform="scale(.01563)"/><path id="DejaVuSans-31" d="M794 531h1031v3560L703 3866v575l1116 225h631V531h1031V0H794v531z" transform="scale(.01563)"/></defs><use xlink:href="#DejaVuSans-32"/><use xlink:href="#DejaVuSans-30" x="63.623"/><use xlink:href="#DejaVuSans-31" x="127.246"/><use xlink:href="#DejaVuSans-30" x="190.869"/></g></g><g id="xtick_2"><use xlink:href="#mbe70e9a558" id="line2d_2" x="124.006" y="323.95" style="fill:#b0b0b0;stroke:#b0b0b0;stroke-width:.4"/><g id="text_2" style="fill:#b0b0b0" transform="matrix(.14 0 0 -.14 106.191 341.588)"><use xlink:href="#DejaVuSans-32"/><use xlink:href="#DejaVuSans-30" x="63.623"/><use xlink:href="#DejaVuSans-31" x="127.246"/><use xlink:href="#DejaVuSans-32" x="190.869"/></g></g><g id="xtick_3"><use xlink:href="#mbe70e9a558" id="line2d_3" x="174.829" y="323.95" style="fill:#b0b0b0;stroke:#b0b0b0;stroke-width:.4"/><g id="text_3" style="fill:#b0b0b0" transform="matrix(.14 0 0 -.14 157.014 341.588)"><defs><path id="DejaVuSans-34" d="M2419 4116 825 1625h1594v2491zm-166 550h794V1625h666v-525h-666V0h-628v1100H313v609l1940 2957z" transform="scale(.01563)"/></defs><use xlink:href="#DejaVuSans-32"/><use xlink:href="#DejaVuSans-30" x="63.623"/><use xlink:href="#DejaVuSans-31" x="127.246"/><use xlink:href="#DejaVuSans-34" x="190.869"/></g></g><g id="xtick_4"><use xlink:href="#mbe70e9a558" id="line2d_4" x="225.583" y="323.95" style="fill:#b0b0b0;stroke:#b0b0b0;stroke-width:.4"/><g id="text_4" style="fill:#b0b0b0" transform="matrix(.14 0 0 -.14 207.768 341.588)"><defs><path id="DejaVuSans-36" d="M2113 2584q-425 0-674-291-248-290-248-796 0-503 248-796 249-292 674-292t673 292q248 293 248 796 0 506-248 796-248 291-673 291zm1253 1979v-575q-238 112-480 171-242 60-480 60-625 0-955-422-329-422-376-1275 184 272 462 417 279 145 613 145 703 0 1111-427 408-426 408-1160 0-719-425-1154Q2819-91 2113-91q-810 0-1238 620-428 621-428 1799 0 1106 525 1764t1409 658q238 0 480-47t505-140z" transform="scale(.01563)"/></defs><use xlink:href="#DejaVuSans-32"/><use xlink:href="#DejaVuSans-30" x="63.623"/><use xlink:href="#DejaVuSans-31" x="127.246"/><use xlink:href="#DejaVuSans-36" x="190.869"/></g></g><g id="xtick_5"><use xlink:href="#mbe70e9a558" id="line2d_5" x="276.407" y="323.95" style="fill:#b0b0b0;stroke:#b0b0b0;stroke-width:.4"/><g id="text_5" style="fill:#b0b0b0" transform="matrix(.14 0 0 -.14 258.592 341.588)"><defs><path id="DejaVuSans-38" d="M2034 2216q-450 0-708-241-257-241-257-662 0-422 257-663 258-241 708-241t709 242q260 243 260 662 0 421-258 662-257 241-711 241zm-631 268q-406 100-633 378-226 279-226 679 0 559 398 884 399 325 1092 325 697 0 1094-325t397-884q0-400-227-679-226-278-629-378 456-106 710-416 255-309 255-755 0-679-414-1042Q2806-91 2034-91q-771 0-1186 362-414 363-414 1042 0 446 256 755 257 310 713 416zm-231 997q0-362 226-565 227-203 636-203 407 0 636 203 230 203 230 565 0 363-230 566-229 203-636 203-409 0-636-203-226-203-226-566z" transform="scale(.01563)"/></defs><use xlink:href="#DejaVuSans-32"/><use xlink:href="#DejaVuSans-30" x="63.623"/><use xlink:href="#DejaVuSans-31" x="127.246"/><use xlink:href="#DejaVuSans-38" x="190.869"/></g></g><g id="xtick_6"><use xlink:href="#mbe70e9a558" id="line2d_6" x="327.161" y="323.95" style="fill:#b0b0b0;stroke:#b0b0b0;stroke-width:.4"/><g id="text_6" style="fill:#b0b0b0" transform="matrix(.14 0 0 -.14 309.346 341.588)"><use xlink:href="#DejaVuSans-32"/><use xlink:href="#DejaVuSans-30" x="63.623"/><use xlink:href="#DejaVuSans-32" x="127.246"/><use xlink:href="#DejaVuSans-30" x="190.869"/></g></g><g id="xtick_7"><use xlink:href="#mbe70e9a558" id="line2d_7" x="377.984" y="323.95" style="fill:#b0b0b0;stroke:#b0b0b0;stroke-width:.4"/><g id="text_7" style="fill:#b0b0b0" transform="matrix(.14 0 0 -.14 360.17 341.588)"><use xlink:href="#DejaVuSans-32"/><use xlink:href="#DejaVuSans-30" x="63.623"/><use xlink:href="#DejaVuSans-32" x="127.246"/><use xlink:href="#DejaVuSans-32" x="190.869"/></g></g></g><g id="matplotlib.axis_2"><g id="ytick_1"><path id="line2d_8" d="M40.922 323.95h357.12" clip-path="url(#p9140f602ec)" style="fill:none;stroke:#b0b0b0;stroke-width:.3;stroke-linecap:square"/><g id="line2d_9"><defs><path id="m51e5413237" d="M0 0h-3.5" style="stroke:#b0b0b0;stroke-width:.3"/></defs><use xlink:href="#m51e5413237" x="40.922" y="323.95" style="fill:#b0b0b0;stroke:#b0b0b0;stroke-width:.3"/></g><use xlink:href="#DejaVuSans-30" id="text_8" style="fill:#b0b0b0" transform="matrix(.14 0 0 -.14 25.015 329.269)"/></g><g id="ytick_2"><path id="line2d_10" d="M40.922 273.228h357.12" clip-path="url(#p9140f602ec)" style="fill:none;stroke:#b0b0b0;stroke-width:.3;stroke-linecap:square"/><use xlink:href="#m51e5413237" id="line2d_11" x="40.922" y="273.228" style="fill:#b0b0b0;stroke:#b0b0b0;stroke-width:.3"/><g id="text_9" style="fill:#b0b0b0" transform="matrix(.14 0 0 -.14 16.108 278.546)"><defs><path id="DejaVuSans-35" d="M691 4666h2478v-532H1269V2991q137 47 274 70 138 23 276 23 781 0 1237-428 457-428 457-1159 0-753-469-1171Q2575-91 1722-91q-294 0-599 50Q819 9 494 109v635q281-153 581-228t634-75q541 0 856 284 316 284 316 772 0 487-316 771-315 285-856 285-253 0-505-56-251-56-513-175v2344z" transform="scale(.01563)"/></defs><use xlink:href="#DejaVuSans-35"/><use xlink:href="#DejaVuSans-30" x="63.623"/></g></g><g id="ytick_3"><path id="line2d_12" d="M40.922 222.505h357.12" clip-path="url(#p9140f602ec)" style="fill:none;stroke:#b0b0b0;stroke-width:.3;stroke-linecap:square"/><use xlink:href="#m51e5413237" id="line2d_13" x="40.922" y="222.505" style="fill:#b0b0b0;stroke:#b0b0b0;stroke-width:.3"/><g id="text_10" style="fill:#b0b0b0" transform="matrix(.14 0 0 -.14 7.2 227.824)"><use xlink:href="#DejaVuSans-31"/><use xlink:href="#DejaVuSans-30" x="63.623"/><use xlink:href="#DejaVuSans-30" x="127.246"/></g></g><g id="ytick_4"><path id="line2d_14" d="M40.922 171.783h357.12" clip-path="url(#p9140f602ec)" style="fill:none;stroke:#b0b0b0;stroke-width:.3;stroke-linecap:square"/><use xlink:href="#m51e5413237" id="line2d_15" x="40.922" y="171.783" style="fill:#b0b0b0;stroke:#b0b0b0;stroke-width:.3"/><g id="text_11" style="fill:#b0b0b0" transform="matrix(.14 0 0 -.14 7.2 177.102)"><use xlink:href="#DejaVuSans-31"/><use xlink:href="#DejaVuSans-35" x="63.623"/><use xlink:href="#DejaVuSans-30" x="127.246"/></g></g><g id="ytick_5"><path id="line2d_16" d="M40.922 121.06h357.12" clip-path="url(#p9140f602ec)" style="fill:none;stroke:#b0b0b0;stroke-width:.3;stroke-linecap:square"/><use xlink:href="#m51e5413237" id="line2d_17" x="40.922" y="121.061" style="fill:#b0b0b0;stroke:#b0b0b0;stroke-width:.3"/><g id="text_12" style="fill:#b0b0b0" transform="matrix(.14 0 0 -.14 7.2 126.38)"><use xlink:href="#DejaVuSans-32"/><use xlink:href="#DejaVuSans-30" x="63.623"/><use xlink:href="#DejaVuSans-30" x="127.246"/></g></g><g id="ytick_6"><path id="line2d_18" d="M40.922 70.338h357.12" clip-path="url(#p9140f602ec)" style="fill:none;stroke:#b0b0b0;stroke-width:.3;stroke-linecap:square"/><use xlink:href="#m51e5413237" id="line2d_19" x="40.922" y="70.338" style="fill:#b0b0b0;stroke:#b0b0b0;stroke-width:.3"/><g id="text_13" style="fill:#b0b0b0" transform="matrix(.14 0 0 -.14 7.2 75.657)"><use xlink:href="#DejaVuSans-32"/><use xlink:href="#DejaVuSans-35" x="63.623"/><use xlink:href="#DejaVuSans-30" x="127.246"/></g></g></g><path id="line2d_20" d="m40.922 323.886 1.634-.1 8.448.091 2.05-.189 6.362.025 2.12-.221 2.156-.098 2.12.218 2.121.01 2.12-.247 2.121-.505 2.156.065 2.05-.18 2.052-.049 2.12.297 2.12-.395 2.121-.72 2.12.851 2.156-1.243 4.241.49 2.12-.2 2.121.724 2.156-.622 2.05-.764 4.172-.082 2.12-1.837 4.242.818 2.155-1.08 2.12-.167 2.121.232 4.241.066 2.156-.458 2.085-.718 2.086-.068 2.12-1.15 2.121 1.281 2.12-.74 2.121.61 2.156-.917 2.12.171 2.12.385 2.121-.418 2.12-.203 2.156.883 2.051-1.825 2.051.287 2.12-.123 2.121-.368 2.12-.072 2.121-1.564 2.156 3.6 2.12-.92 2.12-.553 2.121.52 2.12 1.084 2.156-1.67 2.051-.221 2.051.745 2.12-.615 2.121 1.695 2.12.165 2.121-1.081 2.156 1.08 2.12-.405 2.12.994 2.121-1.197 2.12 1.655 2.156-1.145 2.051-.152 2.051-.568 2.12-.466 2.121 1.513 2.12-1.141 2.121-.364 2.156.163 2.12.945 2.12-.52 2.121 1.365 4.276-.383 2.086-1.516 2.086 1.19 2.12-.745 4.241-.744 2.12 1.292 2.156-.72 2.12 1.525 2.121-1.296 2.12.687 2.121 1.08 2.156-.229 2.05.381 2.052-1.69 2.12 1.236 2.12-.287 2.121.726 2.12-.039 2.156.295 2.12.083 2.121-.312 2.12.244 2.121 1.555 2.156-.621 2.05.621 2.052-1.341 2.12.598 2.12-.042 2.121-.263 2.12.198 2.156-1.604 2.12.933 2.121.31 2.12-.107 2.121.828 2.155-1.146 2.052.332 2.05-.953 2.121.871 2.12.7 2.121-.159 2.12.322 2.156-.164 2.12-.327 4.242 1.251 2.12.353 2.155-.557 2.086-1.222 2.086.928 2.12-.956 2.121.53 2.12.721 2.121-.164 2.155.098 2.121-.644 2.12.153 2.121 1.267 2.12.107 2.156.393 2.051-1.46 2.051.707 4.241.393 2.12-.41 2.121.574 2.155-.393 2.121-.046 2.12.864 2.121.05 2.12-.639 4.207.856 2.05-.398 4.242.197 2.12-.626 2.121-.258 2.155.72 2.121-.326h0" clip-path="url(#p9140f602ec)" style="fill:none;stroke:#ffbb78;stroke-width:1.5;stroke-linecap:square"/><path id="line2d_21" d="m40.922 323.316 1.634.34 2.12-.18 4.277.245 2.05-.35 2.052.055 2.12-.186 2.12.12 2.121-.256 2.12.06 2.156.197 2.12-.087 2.121.054 2.12-.156 2.121.156 6.258-.524 2.12.03 2.12.33 4.242-.327 2.155.295 2.12-.366 2.121-.027 2.12.163 2.121-.032 4.207-.804 2.05.182 2.121.586 2.12-.095 2.121-.92 2.12.364 2.156-.164 2.12.105 2.121-.301 4.241.229 2.156.523 2.085-.41 2.086-.67 6.362.46 2.12-.132 2.156-.393h4.24l2.121-.118 2.12 1.002 2.156-1.506 2.051-.699 2.051.536 2.12-.313 2.121.77 2.12-.094 2.121.258 2.156-.621 2.12-.415 2.12 1.167 2.121-.795 4.276.795 2.051-1.324 2.051.539 2.12.16 2.121.364 2.12-.703 2.121.343 2.156-.295 2.12.527 2.12.128 4.242-.557 2.155.36 2.051-.359 2.051.425 2.12-1.045 2.121.783 2.12.502 2.121-.142 2.156-.884 2.12.586 2.12-.291 2.121.291 4.276.363 2.086-.751 2.086-.492 2.12.576 2.12 1.093 2.121-.552 2.12.224 2.156-.261 4.241.49 2.12-1.163 2.121 1 2.156-.458 2.05-.149 2.052.312 2.12-.3 2.12.17 2.121.507 2.12-.278 2.156.032 2.12-.769 2.121.704 2.12.21 2.121-.145 2.156-.72 2.05-.194 2.052-.46 2.12.91 6.362.137 4.276-.239 4.24-.811 2.121.886 2.155-.589 2.052.203 2.05.517 2.121.132 2.12-.164 2.121.401 2.12-.467 4.277-.514 2.12-.075 2.12.143 2.121.806 4.241-.478 2.086-.667 2.12.914 2.121-.26 2.12-.383 2.121.154 2.155.982 2.121-.256 2.12-.791 2.121.892 2.12.613 2.156-.033 2.051-.706 2.051-.406 2.12.6 2.121-.568 2.12.466 2.121.222 2.155-.262 2.121.547 2.12.173 2.121-.274 2.12-.119 2.156.23 2.05-.21 2.052.602 4.241-.295 2.12.062 2.121.298 2.155-.589 2.121.021 2.12.274h0" clip-path="url(#p9140f602ec)" style="fill:none;stroke:#aec7e8;stroke-width:1.5;stroke-linecap:square"/><path id="line2d_22" d="M59.416 323.95h6.397l33.894-.066 2.05-.115 2.052.148 8.482-.065 6.396.065 2.12-.136 8.448.136 4.241-.033 4.241-.032 16.895-.066 2.12-.276 2.121.113 2.12-.316 2.121-.012 2.156.426 2.12-.447 6.362.12 2.155-.262 2.051.13 2.051-.392 2.12.032 2.121.262 2.12-.093 4.277.126 4.24-.654 2.121.054 2.12.207 2.156-.261 2.051.356 2.051-.913 2.12.375 2.121.247 2.12-.417 2.121-.074 2.156.753 4.24-1.113 2.121.434 4.276-.303 2.086-.772 2.086-.57 2.12.563 2.12.354 2.121-1.064 2.12.802 2.156-.098 2.12-.535 2.121.306 2.12.032 2.121-.621 2.156.425 2.05-.71 2.052-.893 2.12.65 2.12-.127 2.121.431 2.12-.202 2.156-1.047 2.12 1.114 2.121-.001 2.12-1.52 2.121 1.389 2.156.294 2.05-1.21 2.052.163 4.24-.622 2.121 1.033 2.12-1.163 2.156.327 2.12.194 2.121-.325 2.12-.79 2.121 1.968 2.155-1.636 2.052-.707 2.05.707 2.121.039 2.12.91 2.121-.437 2.12-1.265 2.156 1.342 2.12-.584 2.121-1.118 2.12.07 2.121.781 2.155-1.407 2.086.106 2.086.777 2.12-1.102 2.121-.174 2.12-.469 2.121 1.484 4.276.14 2.12 1.005 2.121-.837 2.12 1.557 2.156-1.702 2.051-1.019 2.051.921 2.12-.332 2.121.43 2.12.111 4.276.511 2.121-1.085 2.12 1.674 2.121-1.505 2.12.752 2.156-.818 2.05.61 2.052-.642 2.12 1.349 2.121-.891 2.12.587 2.121-.031 2.155.294 2.121.108 2.12.318h0" clip-path="url(#p9140f602ec)" style="fill:none;stroke:#17becf;stroke-width:1.5;stroke-linecap:square"/><g id="text_14" style="fill:#1f77b4" transform="matrix(.14 0 0 -.14 408.756 224.854)"><defs><path id="DejaVuSans-6d" d="M3328 2828q216 388 516 572t706 184q547 0 844-383 297-382 297-1088V0h-578v2094q0 503-179 746-178 244-543 244-447 0-707-297-259-296-259-809V0h-578v2094q0 506-178 748t-550 242q-441 0-701-298-259-298-259-808V0H581v3500h578v-544q197 322 472 475t653 153q382 0 649-194 267-193 395-562z" transform="scale(.01563)"/><path id="DejaVuSans-79" d="M2059-325q-243-625-475-815-231-191-618-191H506v481h338q237 0 368 113 132 112 291 531l103 262L191 3500h609L1894 763l1094 2737h609L2059-325z" transform="scale(.01563)"/><path id="DejaVuSans-73" d="M2834 3397v-544q-243 125-506 187-262 63-544 63-428 0-642-131t-214-394q0-200 153-314t616-217l197-44q612-131 870-370t258-667q0-488-386-773Q2250-91 1575-91q-281 0-586 55T347 128v594q319-166 628-249 309-82 613-82 406 0 624 139 219 139 219 392 0 234-158 359-157 125-692 241l-200 47q-534 112-772 345-237 233-237 639 0 494 350 762 350 269 994 269 318 0 599-47 282-46 519-140z" transform="scale(.01563)"/><path id="DejaVuSans-71" d="M947 1747q0-634 261-995t717-361q456 0 718 361 263 361 263 995t-263 995q-262 361-718 361t-717-361q-261-361-261-995zM2906 525q-181-312-458-464-276-152-664-152-634 0-1033 506-398 507-398 1332t398 1331q399 506 1033 506 388 0 664-152 277-151 458-463v531h575v-4831h-575V525z" transform="scale(.01563)"/><path id="DejaVuSans-6c" d="M603 4863h575V0H603v4863z" transform="scale(.01563)"/></defs><use xlink:href="#DejaVuSans-6d"/><use xlink:href="#DejaVuSans-79" x="97.412"/><use xlink:href="#DejaVuSans-73" x="156.592"/><use xlink:href="#DejaVuSans-71" x="208.691"/><use xlink:href="#DejaVuSans-6c" x="272.168"/></g><g id="text_15" style="fill:#ff7f0e" transform="matrix(.14 0 0 -.14 408.756 238.854)"><defs><path id="DejaVuSans-70" d="M1159 525v-1856H581v4831h578v-531q182 312 458 463 277 152 661 152 638 0 1036-506 399-506 399-1331T3314 415Q2916-91 2278-91q-384 0-661 152-276 152-458 464zm1957 1222q0 634-261 995t-717 361q-457 0-718-361t-261-995q0-634 261-995t718-361q456 0 717 361t261 995z" transform="scale(.01563)"/><path id="DejaVuSans-6f" d="M1959 3097q-462 0-731-361t-269-989q0-628 267-989 268-361 733-361 460 0 728 362 269 363 269 988 0 622-269 986-268 364-728 364zm0 487q750 0 1178-488 429-487 429-1349 0-859-429-1349Q2709-91 1959-91q-753 0-1180 489-426 490-426 1349 0 862 426 1349 427 488 1180 488z" transform="scale(.01563)"/><path id="DejaVuSans-74" d="M1172 4494v-994h1184v-447H1172V1153q0-428 117-550t477-122h590V0h-590q-666 0-919 248-253 249-253 905v1900H172v447h422v994h578z" transform="scale(.01563)"/><path id="DejaVuSans-67" d="M2906 1791q0 625-258 968-257 344-723 344-462 0-720-344-258-343-258-968 0-622 258-966t720-344q466 0 723 344 258 344 258 966zm575-1357q0-893-397-1329-396-436-1215-436-303 0-572 45t-522 139v559q253-137 500-202 247-66 503-66 566 0 847 295t281 892v285q-178-310-456-463T1784 0Q1141 0 747 490 353 981 353 1791q0 812 394 1302 394 491 1037 491 388 0 666-153t456-462v531h575V434z" transform="scale(.01563)"/><path id="DejaVuSans-72" d="M2631 2963q-97 56-211 82-114 27-251 27-488 0-749-317t-261-911V0H581v3500h578v-544q182 319 472 473 291 155 707 155 59 0 131-8 72-7 159-23l3-590z" transform="scale(.01563)"/><path id="DejaVuSans-65" d="M3597 1894v-281H953q38-594 358-905t892-311q331 0 642 81t618 244V178Q3153 47 2828-22t-659-69q-838 0-1327 487-489 488-489 1320 0 859 464 1363 464 505 1252 505 706 0 1117-455 411-454 411-1235zm-575 169q-6 471-264 752-258 282-683 282-481 0-770-272t-333-766l2050 4z" transform="scale(.01563)"/></defs><use xlink:href="#DejaVuSans-70"/><use xlink:href="#DejaVuSans-6f" x="63.477"/><use xlink:href="#DejaVuSans-73" x="124.658"/><use xlink:href="#DejaVuSans-74" x="176.758"/><use xlink:href="#DejaVuSans-67" x="215.967"/><use xlink:href="#DejaVuSans-72" x="279.443"/><use xlink:href="#DejaVuSans-65" x="318.307"/><use xlink:href="#DejaVuSans-73" x="379.83"/><use xlink:href="#DejaVuSans-71" x="431.93"/><use xlink:href="#DejaVuSans-6c" x="495.406"/></g><g id="text_16" style="fill:#2ca02c" transform="matrix(.14 0 0 -.14 408.756 252.854)"><defs><path id="DejaVuSans-6e" d="M3513 2113V0h-575v2094q0 497-194 743-194 247-581 247-466 0-735-297-269-296-269-809V0H581v3500h578v-544q207 316 486 472 280 156 646 156 603 0 912-373 310-373 310-1098z" transform="scale(.01563)"/><path id="DejaVuSans-64" d="M2906 2969v1894h575V0h-575v525q-181-312-458-464-276-152-664-152-634 0-1033 506-398 507-398 1332t398 1331q399 506 1033 506 388 0 664-152 277-151 458-463zM947 1747q0-634 261-995t717-361q456 0 718 361 263 361 263 995t-263 995q-262 361-718 361t-717-361q-261-361-261-995z" transform="scale(.01563)"/><path id="DejaVuSans-62" d="M3116 1747q0 634-261 995t-717 361q-457 0-718-361t-261-995q0-634 261-995t718-361q456 0 717 361t261 995zM1159 2969q182 312 458 463 277 152 661 152 638 0 1036-506 399-506 399-1331T3314 415Q2916-91 2278-91q-384 0-661 152-276 152-458 464V0H581v4863h578V2969z" transform="scale(.01563)"/></defs><use xlink:href="#DejaVuSans-6d"/><use xlink:href="#DejaVuSans-6f" x="97.412"/><use xlink:href="#DejaVuSans-6e" x="158.594"/><use xlink:href="#DejaVuSans-67" x="221.973"/><use xlink:href="#DejaVuSans-6f" x="285.449"/><use xlink:href="#DejaVuSans-64" x="346.631"/><use xlink:href="#DejaVuSans-62" x="410.107"/></g><g id="text_17" style="fill:#d62728" transform="matrix(.14 0 0 -.14 408.756 266.854)"><defs><path id="DejaVuSans-2d" d="M313 2009h1684v-512H313v512z" transform="scale(.01563)"/><path id="DejaVuSans-76" d="M191 3500h609L1894 563l1094 2937h609L2284 0h-781L191 3500z" transform="scale(.01563)"/></defs><use xlink:href="#DejaVuSans-73"/><use xlink:href="#DejaVuSans-71" x="52.1"/><use xlink:href="#DejaVuSans-6c" x="115.576"/><use xlink:href="#DejaVuSans-2d" x="143.359"/><use xlink:href="#DejaVuSans-73" x="179.443"/><use xlink:href="#DejaVuSans-65" x="231.543"/><use xlink:href="#DejaVuSans-72" x="293.066"/><use xlink:href="#DejaVuSans-76" x="334.18"/><use xlink:href="#DejaVuSans-65" x="393.359"/><use xlink:href="#DejaVuSans-72" x="454.883"/></g><g id="text_18" style="fill:#9467bd" transform="matrix(.14 0 0 -.14 408.756 280.854)"><defs><path id="DejaVuSans-61" d="M2194 1759q-697 0-966-159t-269-544q0-306 202-486 202-179 548-179 479 0 768 339t289 901v128h-572zm1147 238V0h-575v531q-197-318-491-470T1556-91q-537 0-855 302-317 302-317 808 0 590 395 890 396 300 1180 300h807v57q0 397-261 614t-733 217q-300 0-585-72-284-72-546-216v532q315 122 612 182 297 61 578 61 760 0 1135-394 375-393 375-1193z" transform="scale(.01563)"/><path id="DejaVuSans-63" d="M3122 3366v-538q-244 135-489 202t-495 67q-560 0-870-355-309-354-309-995t309-996q310-354 870-354 250 0 495 67t489 202V134Q2881 22 2623-34q-257-57-548-57-791 0-1257 497-465 497-465 1341 0 856 470 1346 471 491 1290 491 265 0 518-55 253-54 491-163z" transform="scale(.01563)"/></defs><use xlink:href="#DejaVuSans-6f"/><use xlink:href="#DejaVuSans-72" x="61.182"/><use xlink:href="#DejaVuSans-61" x="102.295"/><use xlink:href="#DejaVuSans-63" x="163.574"/><use xlink:href="#DejaVuSans-6c" x="218.555"/><use xlink:href="#DejaVuSans-65" x="246.338"/></g><g id="text_19" style="fill:#8c564b" transform="matrix(.14 0 0 -.14 408.756 294.854)"><defs><path id="DejaVuSans-69" d="M603 3500h575V0H603v3500zm0 1363h575v-729H603v729z" transform="scale(.01563)"/><path id="DejaVuSans-68" d="M3513 2113V0h-575v2094q0 497-194 743-194 247-581 247-466 0-735-297-269-296-269-809V0H581v4863h578V2956q207 316 486 472 280 156 646 156 603 0 912-373 310-373 310-1098z" transform="scale(.01563)"/></defs><use xlink:href="#DejaVuSans-65"/><use xlink:href="#DejaVuSans-6c" x="61.523"/><use xlink:href="#DejaVuSans-61" x="89.307"/><use xlink:href="#DejaVuSans-73" x="150.586"/><use xlink:href="#DejaVuSans-74" x="202.686"/><use xlink:href="#DejaVuSans-69" x="241.895"/><use xlink:href="#DejaVuSans-63" x="269.678"/><use xlink:href="#DejaVuSans-73" x="324.658"/><use xlink:href="#DejaVuSans-65" x="376.758"/><use xlink:href="#DejaVuSans-61" x="438.281"/><use xlink:href="#DejaVuSans-72" x="499.561"/><use xlink:href="#DejaVuSans-63" x="538.424"/><use xlink:href="#DejaVuSans-68" x="593.404"/></g><g id="text_20" style="fill:#e377c2" transform="matrix(.14 0 0 -.14 408.756 308.854)"><use xlink:href="#DejaVuSans-73"/><use xlink:href="#DejaVuSans-71" x="52.1"/><use xlink:href="#DejaVuSans-6c" x="115.576"/><use xlink:href="#DejaVuSans-69" x="143.359"/><use xlink:href="#DejaVuSans-74" x="171.143"/><use xlink:href="#DejaVuSans-65" x="210.352"/></g><g id="text_21" style="fill:#7f7f7f" transform="matrix(.14 0 0 -.14 408.756 322.854)"><use xlink:href="#DejaVuSans-72"/><use xlink:href="#DejaVuSans-65" x="38.863"/><use xlink:href="#DejaVuSans-64" x="100.387"/><use xlink:href="#DejaVuSans-69" x="163.863"/><use xlink:href="#DejaVuSans-73" x="191.646"/></g><g id="text_22" style="fill:#bcbd22" transform="matrix(.14 0 0 -.14 408.756 336.854)"><use xlink:href="#DejaVuSans-6d"/><use xlink:href="#DejaVuSans-73" x="97.412"/><use xlink:href="#DejaVuSans-2d" x="149.512"/><use xlink:href="#DejaVuSans-61" x="185.596"/><use xlink:href="#DejaVuSans-63" x="246.875"/><use xlink:href="#DejaVuSans-63" x="301.855"/><use xlink:href="#DejaVuSans-65" x="356.836"/><use xlink:href="#DejaVuSans-73" x="418.359"/><use xlink:href="#DejaVuSans-73" x="470.459"/></g><g id="text_23" style="fill:#17becf" transform="matrix(.14 0 0 -.14 408.756 350.854)"><use xlink:href="#DejaVuSans-6d"/><use xlink:href="#DejaVuSans-61" x="97.412"/><use xlink:href="#DejaVuSans-72" x="158.691"/><use xlink:href="#DejaVuSans-69" x="199.805"/><use xlink:href="#DejaVuSans-61" x="227.588"/><use xlink:href="#DejaVuSans-64" x="288.867"/><use xlink:href="#DejaVuSans-62" x="352.344"/></g><g id="text_24" style="fill:#aec7e8" transform="matrix(.14 0 0 -.14 408.756 364.854)"><use xlink:href="#DejaVuSans-64"/><use xlink:href="#DejaVuSans-62" x="63.477"/><use xlink:href="#DejaVuSans-32" x="126.953"/></g><g id="text_25" style="fill:#ffbb78" transform="matrix(.14 0 0 -.14 408.756 378.854)"><use xlink:href="#DejaVuSans-73"/><use xlink:href="#DejaVuSans-6f" x="52.1"/><use xlink:href="#DejaVuSans-6c" x="113.281"/><use xlink:href="#DejaVuSans-72" x="141.064"/></g><g id="text_26" style="fill:#b0b0b0" transform="matrix(.09716 0 0 -.09716 40.922 357.986)"><defs><path id="DejaVuSans-40" d="M2381 1678q0-447 222-702 222-254 610-254 384 0 604 256 221 256 221 700 0 438-225 695-225 258-607 258-378 0-602-256-223-256-223-697zm1703-934q-187-241-429-355t-564-114q-538 0-874 389t-336 1014q0 625 337 1015 338 391 873 391 322 0 565-117 244-117 428-354v409h447V722q457 69 714 417 258 349 258 902 0 334-99 628-98 294-298 544-325 409-792 626t-1017 217q-384 0-738-102-353-101-653-301-490-319-767-836-276-517-276-1120 0-497 179-932 180-434 521-765 328-325 759-495 431-171 922-171 403 0 792 136t714 389l281-347q-390-303-851-464t-936-161q-578 0-1091 205-512 205-912 595Q841 78 631 592q-209 514-209 1105 0 569 212 1084 213 516 607 907 403 396 931 607t1119 211q662 0 1229-272 568-271 952-771 234-307 357-666 124-359 124-744 0-822-497-1297T4084 263v481z" transform="scale(.01563)"/><path id="DejaVuSans-2f" d="M1625 4666h531L531-594H0l1625 5260z" transform="scale(.01563)"/><path id="DejaVuSans-6b" d="M581 4863h578V1991l1716 1509h734L1753 1863 3688 0h-750L1159 1709V0H581v4863z" transform="scale(.01563)"/><path id="DejaVuSans-66" d="M2375 4863v-479h-550q-309 0-430-125-120-125-120-450v-309h947v-447h-947V0H697v3053H147v447h550v244q0 584 272 851 272 268 862 268h544z" transform="scale(.01563)"/><path id="DejaVuSans-77" d="M269 3500h575l719-2731 715 2731h678l719-2731 716 2731h575L4050 0h-678l-753 2869L1863 0h-679L269 3500z" transform="scale(.01563)"/><path id="DejaVuSans-7c" d="M1344 4891v-6400H813v6400h531z" transform="scale(.01563)"/><path id="DejaVuSans-4e" d="M628 4666h850L3547 763v3903h612V0h-850L1241 3903V0H628v4666z" transform="scale(.01563)"/><path id="DejaVuSans-53" d="M3425 4513v-616q-359 172-678 256-319 85-616 85-515 0-795-200t-280-569q0-310 186-468 186-157 705-254l381-78q706-135 1042-474t336-907q0-679-455-1029Q2797-91 1919-91q-331 0-705 75-373 75-773 222v650q384-215 753-325 369-109 725-109 540 0 834 212 294 213 294 607 0 343-211 537t-692 291l-385 75q-706 140-1022 440-315 300-315 835 0 619 436 975t1201 356q329 0 669-60 341-59 697-177z" transform="scale(.01563)"/><path id="DejaVuSans-f6" d="M1959 3097q-462 0-731-361t-269-989q0-628 267-989 268-361 733-361 460 0 728 362 269 363 269 988 0 622-269 986-268 364-728 364zm0 487q750 0 1178-488 429-487 429-1349 0-859-429-1349Q2709-91 1959-91q-753 0-1180 489-426 490-426 1349 0 862 426 1349 427 488 1180 488zm295 1266h634v-631h-634v631zm-1222 0h634v-631h-634v631z" transform="scale(.01563)"/><path id="DejaVuSans-43" d="M4122 4306v-665q-319 297-680 443-361 147-767 147-800 0-1225-489t-425-1414q0-922 425-1411t1225-489q406 0 767 147t680 444V359q-331-225-702-338-370-112-782-112-1060 0-1670 648-609 649-609 1771 0 1125 609 1773 610 649 1670 649 418 0 788-111 371-111 696-333z" transform="scale(.01563)"/><path id="DejaVuSans-42" d="M1259 2228V519h1013q509 0 754 211 246 211 246 645 0 438-246 645-245 208-754 208H1259zm0 1919V2741h935q462 0 688 173 227 174 227 530 0 353-227 528-226 175-688 175h-935zm-631 519h1613q722 0 1112-300 391-300 391-853 0-429-200-682t-588-315q466-100 724-418 258-317 258-792 0-625-425-966Q3088 0 2303 0H628v4666z" transform="scale(.01563)"/><path id="DejaVuSans-59" d="M-13 4666h679l1293-1919 1285 1919h678L2272 2222V0h-634v2222L-13 4666z" transform="scale(.01563)"/></defs><use xlink:href="#DejaVuSans-40"/><use xlink:href="#DejaVuSans-6e" x="100"/><use xlink:href="#DejaVuSans-73" x="163.379"/><use xlink:href="#DejaVuSans-63" x="215.479"/><use xlink:href="#DejaVuSans-68" x="270.459"/><use xlink:href="#DejaVuSans-6c" x="333.838"/><use xlink:href="#DejaVuSans-6f" x="361.621"/><use xlink:href="#DejaVuSans-65" x="422.803"/><use xlink:href="#DejaVuSans-20" x="484.326"/><use xlink:href="#DejaVuSans-2f" x="516.113"/><use xlink:href="#DejaVuSans-20" x="549.805"/><use xlink:href="#DejaVuSans-73" x="581.592"/><use xlink:href="#DejaVuSans-74" x="633.691"/><use xlink:href="#DejaVuSans-61" x="672.9"/><use xlink:href="#DejaVuSans-63" x="734.18"/><use xlink:href="#DejaVuSans-6b" x="789.16"/><use xlink:href="#DejaVuSans-6f" x="843.445"/><use xlink:href="#DejaVuSans-76" x="904.627"/><use xlink:href="#DejaVuSans-65" x="963.807"/><use xlink:href="#DejaVuSans-72" x="1025.33"/><use xlink:href="#DejaVuSans-66" x="1066.443"/><use xlink:href="#DejaVuSans-6c" x="1101.648"/><use xlink:href="#DejaVuSans-6f" x="1129.432"/><use xlink:href="#DejaVuSans-77" x="1190.613"/><use xlink:href="#DejaVuSans-2d" x="1272.4"/><use xlink:href="#DejaVuSans-74" x="1308.484"/><use xlink:href="#DejaVuSans-72" x="1347.693"/><use xlink:href="#DejaVuSans-65" x="1386.557"/><use xlink:href="#DejaVuSans-6e" x="1448.08"/><use xlink:href="#DejaVuSans-64" x="1511.459"/><use xlink:href="#DejaVuSans-73" x="1574.936"/><use xlink:href="#DejaVuSans-20" x="1627.035"/><use xlink:href="#DejaVuSans-7c" x="1658.822"/><use xlink:href="#DejaVuSans-20" x="1692.514"/><use xlink:href="#DejaVuSans-4e" x="1724.301"/><use xlink:href="#DejaVuSans-69" x="1799.105"/><use xlink:href="#DejaVuSans-63" x="1826.889"/><use xlink:href="#DejaVuSans-6f" x="1881.869"/><use xlink:href="#DejaVuSans-20" x="1943.051"/><use xlink:href="#DejaVuSans-53" x="1974.838"/><use xlink:href="#DejaVuSans-63" x="2038.314"/><use xlink:href="#DejaVuSans-68" x="2093.295"/><use xlink:href="#DejaVuSans-6c" x="2156.674"/><use xlink:href="#DejaVuSans-f6" x="2184.457"/><use xlink:href="#DejaVuSans-6d" x="2245.639"/><use xlink:href="#DejaVuSans-65" x="2343.051"/><use xlink:href="#DejaVuSans-72" x="2404.574"/><use xlink:href="#DejaVuSans-20" x="2445.688"/><use xlink:href="#DejaVuSans-7c" x="2477.475"/><use xlink:href="#DejaVuSans-20" x="2511.166"/><use xlink:href="#DejaVuSans-43" x="2542.953"/><use xlink:href="#DejaVuSans-43" x="2612.777"/><use xlink:href="#DejaVuSans-20" x="2682.602"/><use xlink:href="#DejaVuSans-42" x="2714.389"/><use xlink:href="#DejaVuSans-59" x="2777.492"/></g><g id="text_27" style="fill:#b0b0b0" transform="matrix(.14 0 0 -.14 63.337 17.838)"><defs><path id="DejaVuSans-44" d="M1259 4147V519h763q966 0 1414 437 448 438 448 1382 0 937-448 1373t-1414 436h-763zm-631 519h1297q1356 0 1990-564 635-564 635-1764 0-1207-638-1773Q3275 0 1925 0H628v4666z" transform="scale(.01563)"/><path id="DejaVuSans-75" d="M544 1381v2119h575V1403q0-497 193-746 194-248 582-248 465 0 735 297 271 297 271 810v1984h575V0h-575v538q-209-319-486-474-276-155-642-155-603 0-916 375-312 375-312 1097zm1447 2203z" transform="scale(.01563)"/><path id="DejaVuSans-4f" d="M2522 4238q-688 0-1093-513-404-512-404-1397 0-881 404-1394 405-512 1093-512 687 0 1089 512 402 513 402 1394 0 885-402 1397-402 513-1089 513zm0 512q981 0 1568-658 588-658 588-1764 0-1103-588-1761Q3503-91 2522-91q-984 0-1574 656-589 657-589 1763t589 1764q590 658 1574 658z" transform="scale(.01563)"/></defs><use xlink:href="#DejaVuSans-44"/><use xlink:href="#DejaVuSans-61" x="77.002"/><use xlink:href="#DejaVuSans-69" x="138.281"/><use xlink:href="#DejaVuSans-6c" x="166.064"/><use xlink:href="#DejaVuSans-79" x="193.848"/><use xlink:href="#DejaVuSans-20" x="253.027"/><use xlink:href="#DejaVuSans-6e" x="284.814"/><use xlink:href="#DejaVuSans-75" x="348.193"/><use xlink:href="#DejaVuSans-6d" x="411.572"/><use xlink:href="#DejaVuSans-62" x="508.984"/><use xlink:href="#DejaVuSans-65" x="572.461"/><use xlink:href="#DejaVuSans-72" x="633.984"/><use xlink:href="#DejaVuSans-20" x="675.098"/><use xlink:href="#DejaVuSans-6f" x="706.885"/><use xlink:href="#DejaVuSans-66" x="768.066"/><use xlink:href="#DejaVuSans-20" x="803.271"/><use xlink:href="#DejaVuSans-71" x="835.059"/><use xlink:href="#DejaVuSans-75" x="898.535"/><use xlink:href="#DejaVuSans-65" x="961.914"/><use xlink:href="#DejaVuSans-73" x="1023.438"/><use xlink:href="#DejaVuSans-74" x="1075.537"/><use xlink:href="#DejaVuSans-69" x="1114.746"/><use xlink:href="#DejaVuSans-6f" x="1142.529"/><use xlink:href="#DejaVuSans-6e" x="1203.711"/><use xlink:href="#DejaVuSans-73" x="1267.09"/><use xlink:href="#DejaVuSans-20" x="1319.189"/><use xlink:href="#DejaVuSans-6f" x="1350.977"/><use xlink:href="#DejaVuSans-6e" x="1412.158"/><use xlink:href="#DejaVuSans-20" x="1475.537"/><use xlink:href="#DejaVuSans-53" x="1507.324"/><use xlink:href="#DejaVuSans-74" x="1570.801"/><use xlink:href="#DejaVuSans-61" x="1610.01"/><use xlink:href="#DejaVuSans-63" x="1671.289"/><use xlink:href="#DejaVuSans-6b" x="1726.27"/><use xlink:href="#DejaVuSans-4f" x="1784.18"/><use xlink:href="#DejaVuSans-76" x="1862.891"/><use xlink:href="#DejaVuSans-65" x="1922.07"/><use xlink:href="#DejaVuSans-72" x="1983.594"/><use xlink:href="#DejaVuSans-66" x="2024.707"/><use xlink:href="#DejaVuSans-6c" x="2059.912"/><use xlink:href="#DejaVuSans-6f" x="2087.695"/><use xlink:href="#DejaVuSans-77" x="2148.877"/></g><path id="line2d_23" d="m40.922 320.019 1.634.953 2.12.543 2.121-.052 2.156.589 4.102-1.146 2.12-.642 2.12-.437 2.121-.24 2.12-2.182 2.156 1.8 2.12-.936 2.121.87 2.12-.228 2.121.13 4.207.634 2.05-1.288 2.121 1.032 2.12-1.687 2.121-.342 2.12-.149 2.156 1.211 2.12.189 2.121-.45 2.12-.091 2.121.549 2.156-1.964 2.05.381 2.052-.217 2.12-.98 2.12.194 2.121-.939 4.276.285 2.12 2.048 2.121-.477 2.12-1.01 2.121.519 2.156-.687 2.085-1.962 2.086 1.143 2.12-1.583 2.121 1.223 2.12-.006 2.121-3.2 2.156 1.047 2.12 2.762 2.12-1.748 2.121-.687 2.12 1.243 2.156-2.356 2.051-.191 2.051-3.67 2.12.105 2.121 1.237 2.12.69 2.121-1.934 2.156 3.272 2.12-1.507 2.12-3.794 2.121 2.205 2.12 1.558 2.156-1.014 2.051-3.851 2.051 2.378 2.12-.931 2.121 4.956 2.12-.324 2.121-1.934 2.156 2.455 2.12 1.542 2.12-.92 2.121.142 2.12 1.297 2.156-3.6 2.051.7 2.051-1.583 2.12.82 2.121-.329 2.12-2.918 2.121.987 2.156 2.88 2.12-.249 2.12-.667 2.121 2.764 2.12-1.553 2.156-1.964 2.086-3.078 2.086 2.49 2.12 1.298 2.12.108 2.121-3.083 2.12 2.658 2.156-1.113 2.12 2.681 2.121-1.7 2.12 1.126 2.121 1.624 2.156-.982 2.05-1.92 2.052.677 2.12 1.716 2.12-3.516 2.121-1.285 2.12.696 2.156 1.669 2.12 3.18 2.121-.857 2.12.08 2.121 2.243 2.156-1.407 2.05.354 4.172-.616 2.12.164 2.121-.13 2.12-.72 2.156-1.506 2.12 1.753 2.121-.477 2.12.206 2.121 3.1 2.155-3.47 2.052-.84 2.05 1.43 6.362.964 2.12-1.39 2.156 2.847 2.12-.646 2.121-1.939 2.12-.022 2.121 1.69 2.155-.784 2.086-.93 2.086 2.566 2.12-4.57 2.121 1.886 2.12-.602 4.276 4.038 2.121-.183 2.12 2.114 2.121-.626 2.12 1.215 2.156-1.276 2.051-1.507 2.051-.358 2.12 1.79 2.121.795 2.12-1.234 2.121.776 2.155 1.57 2.121-.52 2.12 1.273 2.121-1.104 2.12.58 2.156.164 2.05-1.848 2.052-.312 2.12 1.146 2.121.556 2.12-.387 2.121.91 2.155-1.374 2.121.531 2.12.025h0" clip-path="url(#p9140f602ec)" style="fill:none;stroke:#bcbd22;stroke-width:1.5;stroke-linecap:square"/><path id="line2d_24" d="m61.537 323.95 14.844-.145 4.171-.058 6.362-.157 2.155.033 4.241-.23 2.12-.018 2.121.117 2.156-.917 2.05.18 2.052-.081 2.12-.415 2.12.382 2.121-1.126 2.12.144 2.156.327 2.12-.268 4.242.034 2.12-.551 2.156.164 2.085-.424 2.086.293 4.241-1.31 2.12-.133 2.121.985 2.156-.819 2.12.713 2.12-1.072 2.121.835 2.12.179 2.156.458 4.102-1.145 4.241-.622 2.12.623 2.121.359 2.156-.818 2.12.222 2.12-.811 2.121-.44 2.12.538 2.156-.098 2.051.18 2.051-1.555 2.12.394 2.121 1.897 4.241-.982 2.156-.196 2.12.33 2.12.095 2.121.276 2.12.51 2.156-1.015 2.051-.768 2.051-.312 2.12.165 2.121-.328 2.12-.044 4.277-.447 2.12.075 8.517 1.005 2.086-.994 2.086-.25 2.12.307 2.12-.241 2.121.342 2.12 1.36 2.156-.917 2.12.03 2.121 1.312 2.12-1.48 2.121.825 2.156-.85 2.05-.5 2.052 1.056 2.12-.227 2.12-.951 2.121.511 2.12.241 2.156-.262 2.12.664 2.121.416 2.12-.687 2.121 1.342 2.156-1.08 2.05-.08 2.052-.804 6.361-.088 2.12-1.122 2.156-1.342 2.12 1.01 2.121-.421 2.12-.052 2.121 2.768 2.155-2.029 2.052.304 2.05-.566 2.121-.275 2.12.799 2.121.588 2.12-1.308 2.156-.196 2.12.895 2.121-.012 2.12-1.002 2.121.577 4.241-1.054 2.086-.844 2.12-1.486 2.121.7 2.12-.328 2.121.263 2.155.982 2.121-.061 2.12.813 4.242.95 2.155-.459 2.051.01 4.172-1.923 2.12 2.47 2.12-.982 2.121.949 2.155.36 2.121-.295 2.12.917 2.121-1.627 2.12 1.136 2.156-1.113 2.05-.11 2.052.895 2.12-.03 2.121-.166 2.12.876 4.276-2.708 2.121 2.1h0" clip-path="url(#p9140f602ec)" style="fill:none;stroke:#7f7f7f;stroke-width:1.5;stroke-linecap:square"/><path id="line2d_25" d="m40.922 322.492 1.634.378 2.12.133 2.121.26 4.207-1.233 2.05-.044 2.121-1.147 2.12-.325 6.397-.524 2.12.477 2.121-.935 2.12-.282 2.121-.078 2.156-.294 2.05-1.268 2.052-.107 2.12-.35 2.12-.828 2.121.558 2.12-2.194 2.156-.36 2.12 1.133 2.121-1.526 2.12-1.957 2.121.714 2.156-.557 2.05-3.403 2.052-2.814 2.12.177 2.12.837 2.121-3.17 2.12.814 2.156.098 2.12-.372 2.121 2.434 2.12-3.685 2.121 3.914 2.156-2.52 2.085-5.962 2.086-1.597 2.12 1.668 2.121 1.474 2.12.014 2.121-1.356 2.156-.458 2.12 3.2 2.12-1.564 2.121-.972 2.12.285 2.156-1.473 2.051.304 2.051-1.613 2.12.062 2.121.396 2.12 3.797 2.121-5.433 2.156 2.324 2.12-.035 2.12-3.467 2.121-1.166 2.12 3.424 2.156-4.287 2.051-2.081 2.051.183 2.12-.823 2.121 7.27 2.12 2.096 2.121-3.732 2.156 4.221 2.12-1.402 2.12 2.187 2.121-1.409 2.12 2.816 2.156-3.305 2.051-1.11 2.051-4.715 2.12-1.632 2.121 7.588 2.12-.96 2.121.404 2.156.556 2.12-.927 2.12 1.45 2.121 1.762 2.12.268 2.156-1.407 2.086-3.414 2.086-1.757 2.12-1.602 2.12 3.042 2.121 4.194 2.12-.758 2.156 2.847 2.12-2.021 2.121.058 2.12.922 2.121.681 2.156-1.374 4.102-1.898 2.12-1.602 2.12.358 2.121 4.41 2.12.433 2.156.622 2.12.839 2.121 1.255 2.12-2.946 2.121 3.274 2.156-.426 2.05-1.872 2.052 2.003 2.12-1.559 2.12 1.69 2.121 2.064 2.12-1.082 2.156-2.39 2.12.192 2.121-1.467 2.12.216 2.121 4.365 2.155-2.094 2.052-3.279 2.05 1.053 2.121 1.307 2.12 2.097 2.121.778 2.12-1.793 2.156 1.244 2.12.177 2.121-2.468 2.12-1.421 2.121 3.057 2.155-1.669 2.086-3.222 2.086 1.03 2.12-5.181 2.121-.906 2.12 4.287 2.121 1.964 2.155.458 2.121 1.095 2.12 1.326 2.121-1.833 2.12 2.782 2.156-2.323 2.051-.063 2.051-.264 2.12.341 2.121 1.884 2.12.618 4.276 2.033 2.121-.646 2.12 1.496 2.121.736 2.12.312 2.156-1.31 2.05.198 2.052-1.441 2.12.786 2.121 1.276 2.12 1.599 2.121.397 2.155-.655 2.121 2.354h0" clip-path="url(#p9140f602ec)" style="fill:none;stroke:#e377c2;stroke-width:1.5;stroke-linecap:square"/><path id="line2d_26" d="M74.33 323.95H99.707l2.05-.181 2.052.115 2.12-.002 2.12-.194 10.638-.065 2.12-.485 2.121.321 2.156-.49 2.085.106 2.086-.107 2.12-.337 2.121-.514 2.12.074 2.121.188 2.156-.982 2.12-.152 2.12-.633 2.121-.179 2.12.997 2.156-1.276 2.051.426 2.051-.982 2.12-.788 2.121.493 2.12-.797 2.121-.545 2.156.328 2.12.555 2.12-.72 2.121-.43 2.12 1.282 2.156-3.207 2.051-2.109 2.051.767 2.12-1.704 2.121.133 2.12 1.186 2.121-1.578 2.156-.95 2.12.905 2.12 1.026 2.121-1.567 2.12.03 2.156-1.67 2.051-3.027 2.051-.965 2.12 1.067 2.121-1.001 2.12-1.535 4.277.422 2.12.017 2.12.703 2.121-3.07 2.12 3.463 2.156-3.044 2.086-3.315 2.086 1.025 2.12.722 2.12.554 2.121-.994 2.12 2.924 2.156-.687 2.12.84 2.121 1.19 2.12-1.596 2.121 2.839 2.156-3.698 2.05-4.375 2.052 3.851 2.12 2.127 2.12-1.898 2.121-.097 2.12 2.192 2.156-2.618 2.12 2.388 4.242 2.13 2.12 3.368 2.156-1.374 2.05-3.366 2.052.486 2.12.074 2.12-1.252 2.121.001 2.12-1.768 2.156-3.043 2.12 2.309 2.121-2.277 2.12-.496 2.121 7.925 2.155-3.6 2.052-4.12 2.05 1.568 2.121 1.101 2.12-.84 2.121-.242 2.12-2.016 2.156 1.997 2.12-2.686 2.121 1.05 2.12-.17 2.121 3.867 2.155-1.21 2.086-1.86 2.086 1.532 2.12-2.465 2.121-.775 2.12-.476 2.121.706 2.155 2.65 2.121.363 2.12.913 2.121.305 2.12 1.692 2.156.556 2.051-3.205 2.051-1.278 2.12.815 2.121 1.41 2.12-.362 2.121 1.965 2.155.557 2.121.96 2.12 2.868 2.121-.433 2.12.924 2.156-.981 2.05-2.35 2.052-.137 2.12 1.293 2.121-.475 2.12.07 2.121 1.304 2.155.59 2.121-.069 2.12.624h0" clip-path="url(#p9140f602ec)" style="fill:none;stroke:#8c564b;stroke-width:1.5;stroke-linecap:square"/><path id="line2d_27" d="m40.922 314.503 1.634 3.262 2.12 1.857 2.121.597 2.156-.229 2.05-.895 2.052.143 2.12-.191 2.12-2.035 2.121-1.38 2.12-.55 2.156-.688 2.12 1.102 2.121-1.298 2.12-.73 2.121 1.58 2.156.394 2.05-1.782 2.052-.967 2.12 1.45 2.12.939 2.121-4.117 2.12 2.35 2.156-2.651 2.12 2.33 2.121-.792 2.12-2.42 2.121 1.438 2.156-2.52 2.05-.728 2.052-1.595 2.12.868 2.12-.246 4.242.785 2.155-1.669 2.12-3.705 2.121 1.938 2.12-3.629 2.121 3.302 2.156.13 2.085-4.793 2.086.703 2.12 1.91 2.121-1.615 2.12 1.817 2.121-3.093 2.156-1.08 2.12.656 2.12-2.227 2.121-4.908 2.12 8.148 2.156-3.076 2.051-4.997 2.051 4.735 2.12-6.5 4.242 2.84 2.12-1.936 2.156 2.389 4.24-9.556 2.121 1.9 2.12 4.416 2.156-1.93 2.051-6.43 2.051-.443 2.12-1.564 2.121 5.884 2.12 4.294 2.121-2.625 2.156 4.09 2.12-6.266 2.12.572 2.121-2.906 2.12 6.604 2.156.655 2.051-6.157 2.051-2.024 2.12-1.276 2.121 2.945 2.12.606 2.121-1.425 2.156 3.764 2.12-1.967 2.12 1.443 2.121-3.472 2.12 5.501 2.156-.033 2.086-6.87 2.086-.002 2.12-.118 2.12 4.241 2.121-1.197 2.12 6.466 2.156-1.767 2.12-.81 2.121-4.786 2.12 1.708 2.121 4.87 2.156-2.847 2.05-2.443 2.052-4.495 2.12 4.408 2.12-2.64 2.121 3.418 2.12.835 2.156.131 2.12 2.72 2.121-4.16 2.12.068 2.121 7 2.156-2.126 2.05-3.927 2.052-.164 2.12-.546 2.12.055 2.121 3.53 2.12-1.86 2.156-1.08 2.12 4.698 2.121-7.873 2.12.129 2.121 5.925 2.155 2.716 2.052-6.508 2.05.127 2.121-.062 2.12-.756 2.121 5.693 2.12-4.22 2.156 4.974 4.241-8.705 2.12 1.594 2.121 3.707 2.155 1.015 2.086-5.782 2.086 1.462 2.12-7.233 2.121 3.895 2.12-1.968 2.121 6.811 2.155 5.007 2.121-1.707 2.12-4.118 2.121 2.867 2.12 6.656 2.156.425 2.051-6.023 2.051-.096 2.12-3.16 2.121 2.931 2.12 4.103 2.121 2.835 2.155-1.146 2.121.069 2.12 2.647 2.121-2.241 2.12 4.86 2.156-.034 2.05-2.326 2.052-1.568 2.12.319 2.121-1.268 2.12 5.46 2.121-.224 2.155.655 2.121.415h0" clip-path="url(#p9140f602ec)" style="fill:none;stroke:#9467bd;stroke-width:1.5;stroke-linecap:square"/><path id="line2d_28" d="m40.922 298.272 1.634 8.629 2.12 3.557 2.121 1.253 2.156-5.76 2.05-.95 2.052-1.635 2.12-2.478 2.12-1.416 2.121-1.255 2.12-3.817 2.156 3.436 2.12-3.407 2.121.364 2.12.11 2.121 1.984 2.156-3.141 2.05-2.114 2.052 3.128 2.12 1.259 2.12-1.16 2.121-.463 2.12-3.563 2.156-2.16 2.12-.229 2.121-1.44 2.12-.86 2.121 4.558 2.156-3.01 2.05-5.262 2.052-4.196 2.12 4.225 2.12.52 2.121.258 2.12.495 2.156-2.422 2.12.777 2.121 4.525 2.12-6.182 2.121 4.644 2.156-2.684 2.085-5.84 2.086-1.26 2.12 2.3 2.121-5.41 2.12-2.063 2.121 1.932 2.156-2.061 2.12.906 2.12-5.03 2.121-1.699 2.12 9.52 2.156-12.99 2.051-3.336 2.051-3.57 2.12-1.628 2.121 2.676 2.12-.952 2.121-10.665 2.156 4.286 4.24-13.187 2.121 6.345 2.12 2.097 2.156-8.966 2.051-7.413 2.051 4.599 2.12-6.143 2.121 15.927 2.12-1.961 2.121-6.122 2.156 6.054 2.12 2.435 2.12-1.158 2.121-5.571 2.12 12.966 2.156-9.98 2.051-8.764 2.051-3.803 2.12 3.427 2.121 3.805 2.12-8.742 2.121 2.852 2.156 2.29 2.12 4.596 2.12 2.833 2.121.785 2.12-.818 2.156-3.436 2.086-7.044 2.086-1.987 2.12 1.146 2.12 3.599 2.121-10.058 2.12 8.781 2.156-3.272 2.12-1.519 2.121 11.303 2.12-8.056 2.121 11.034 2.156-5.923 2.05-10.705 2.052-7.162 2.12 12.925 2.12-2.65 2.121 5.76 2.12.556 2.156-5.858 2.12 9.327 2.121-.72 2.12-3.71 2.121 18.894 2.156-9.883 2.05-4.654 2.052 7.043 2.12.909 2.12.367 2.121 2.27 2.12-4.135 2.156-1.145 2.12 5.145 2.121-8.712 2.12 8.746 2.121 9.906 2.155-10.013 2.052-10.888 2.05 7.975 2.121-2.56 2.12 7.665 2.121 6.064 2.12-11.038 2.156 5.858 2.12.987 2.121-5.34 2.12-3.012 2.121 15.84 4.241-14.933 2.086 2.335 2.12-4.662 2.121 7.64 2.12-2.433 2.121 5.901 2.155 9.163 2.121-1.673 2.12 2.557 2.121 2.92 2.12 9.057 2.156-10.898 2.051-2.27 2.051.307 2.12 5.428 2.121 6.287 2.12-4.9 2.121 8.074 2.155-1.636 2.121-2.482 2.12 3.104 2.121 2.88 2.12 2.585 2.156-2.978 2.05-4.64 2.052.713 2.12 3.442 2.121.681 2.12 7.4 2.121-2.491 2.155-4.712 2.121 1.083h0" clip-path="url(#p9140f602ec)" style="fill:none;stroke:#d62728;stroke-width:1.5;stroke-linecap:square"/><path id="line2d_29" d="m55.175 323.95 2.12-.066 2.121.066 6.397-.135 2.12.07 2.12-.341 2.121.013 2.156-.72 2.05-.336 2.052.14 2.12-.078 2.12-.708 2.121-.475 2.12.181 2.156-1.244 2.12-.12 2.121-.73 2.12-.082 2.121-1.096 2.156-1.473 2.05-1.127 2.052.047 2.12-.578 2.12-.207 2.121-.807 2.12-1.386 2.156.066 2.12-.202 2.121-2.154 2.12-1.6 2.121 1.24 2.156-3.044 2.085-.36 2.086-2.061 2.12-2.571 2.121 2.276 2.12-.078 2.121-1.165 2.156-2.258 2.12 1.698 4.241-2.097 2.12 3.213 2.156-4.909 2.051-1.721 2.051.02 2.12-.694 2.121-1.826 2.12 2.468 2.121-3.744 2.156-2.226 2.12 1.642 2.12-1.053 2.121 1.188 2.12 1.332 2.156-4.68 2.051-6.05 2.051 1.96 2.12.202 2.121 4.74 2.12-3.421 2.121-.146 2.156 3.665 2.12-4.5 2.12 1.03 2.121-1.131 2.12 1.786 2.156-.752 2.051-7.925 2.051 3.605 2.12-9.902 2.121 1.296 2.12-1.803 2.121 2.032 2.156 3.469 2.12-1.038 2.12.71 2.121-.575 2.12 1.328 2.156-6.938 2.086-6.058 2.086 7.662 2.12-.322 2.12.65 2.121-3.118 2.12 5.931 2.156-3.73 2.12 3.682 2.121 1.227 2.12-3.966 2.121 4.62 2.156-8.312 2.05 1.362 2.052-.38 2.12 5.044 2.12-.823 2.121 4.035 2.12.448 2.156-1.276 2.12 4.784 2.121-2.657 2.12-3.53 2.121 4.185 2.156-9.261 2.05 2.619 2.052.162 4.24 10.897 2.121 2.725 2.12-12.902 2.156-5.661 2.12 3.144 2.121-2.555 2.12 3.873 2.121 2.966 2.155-3.37 2.052-4.496 2.05 4.529 2.121-1.522 2.12-.05 2.121.76 2.12-2.624 2.156 4.057 2.12-1.196 2.121-2.73 2.12-1.903 2.121 3.539 2.155-8.476 2.086.875 2.086-3.33 2.12-20.066 2.121 1.218 2.12 2.13 2.121 6.476 2.155 3.763 2.121 1.461 2.12 8.39 2.121-1.12 2.12 3.64 2.156-4.713 2.051-1.912 2.051-1.36 2.12.085 2.121 4.823 2.12-2.321 2.121 7.033 2.155-.818 2.121-1.718 2.12 4.892 2.121.688 2.12 1.243 2.156-1.538 2.05-1.952 2.052-2.793 2.12 2.977 2.121-2.355 2.12 5.23 2.121-.19 2.155-3.6 2.121 6.258 2.12-.532h0" clip-path="url(#p9140f602ec)" style="fill:none;stroke:#2ca02c;stroke-width:1.5;stroke-linecap:square"/><path id="line2d_30" d="m40.922 321.54 1.634.806 2.12.556 2.121.066 2.156-.818 4.102.13 2.12-.494 2.12.004 2.121-.173 2.12-1.594 2.156-.59 2.12.932 2.121.541 2.12-.033 2.121-.556 2.156-1.243 2.05.347 2.052-1.067 2.12.828 4.241-3.212 2.12 2.482 2.156-1.505 4.241.556 2.12-1.06 4.277-.249 2.05-3.113 2.052-.683 2.12 2.151 2.12-1.987 2.121 1.75 2.12-1.783 2.156-.458 2.12.788 2.121-.1 2.12-1.253 2.121.336 2.156-.164 2.085-3.26 2.086.479 2.12-1.888 2.121.382 2.12.564 2.121.025 2.156-2.29 2.12.879 2.12-3.3 2.121 1.271 2.12 1.117 2.156-5.53 2.051 1.07 2.051 1.417 2.12-.711 2.121.22 2.12-.39 2.121-1.835 2.156.032 2.12.992 2.12-2.17 2.121-1.482 2.12-.023 2.156-2.356 2.051-6.157 2.051-.42 2.12 3.072 2.121 1.803 2.12.226 2.121-1.437 2.156 4.81 2.12-4.286 2.12.23 2.121.954 2.12 1.63 2.156-3.73 2.051-1.548 2.051.926 2.12-3.568 2.121.263 2.12-1.514 2.121-2.02 2.156 2.683 4.24-1.21 2.121 1.798 2.12-.588 2.156-1.538 2.086-7.425 2.086 3.433 2.12 1.79 2.12-.252 2.121-4.246 2.12 8.402 2.156-5.727 2.12 4.257 2.121-1.181 2.12-1.727 2.121 1.662 2.156-2.258 2.05-2.829 2.052-1.524 2.12 1.872 2.12-5.373 2.121 4.426 2.12 1.89 2.156-.033 2.12 3.757 2.121-3.954 2.12-2.708 2.121 9.09 2.156-6.578 2.05.91 2.052.105 2.12.396 2.12-1.05 2.121 2.504 2.12-3.094 2.156-1.473 2.12.847 2.121-3.563 2.12-.427 2.121 9.034 2.155-5.04 2.052-2.514 2.05-4.685 2.121-.752 2.12 3.108 2.121 6.022 2.12-11.29 2.156 7.395 2.12-2.665 2.121-5.385 2.12-.093 2.121 4.969 2.155-7.657 2.086-4.897 2.086-.896 2.12-6.194 2.121.304 2.12-3.01 2.121 3.86 2.155 4.484 2.121-1.107 2.12 1.467 2.121.697 2.12 10.004 2.156-7.429 2.051-6.068 2.051-1.982 2.12 4.528 2.121 1.232 2.12-1.367 2.121 5.36 2.155-1.244 2.121 1.294 2.12-1.883 2.121-.957 2.12 6.52 2.156.556 2.05-6.658 2.052.31 2.12 4.615 2.121-4.354 2.12 5.977 2.121-2.05 2.155-3.469 2.121.75h0" clip-path="url(#p9140f602ec)" style="fill:none;stroke:#ff7f0e;stroke-width:1.5;stroke-linecap:square"/><path id="line2d_31" d="m40.922 312.03 1.634 3.019 2.12-1.142 2.121.782 2.156-2.913 2.05-.905 2.052-2.4 2.12-1.057 2.12-2.215 2.121-4.886 2.12-5.39 2.156-4.057 2.12-.528 2.121-3.988 2.12-1.794 2.121-1.086 2.156-4.778 2.05-3.11 2.052-6.085 2.12.18 2.12-.507 2.121-5.749 2.12.971 2.156-6.348 2.12 2.807 2.121-2.546 2.12-10.472 2.121 3.306 2.156-19.536 2.05-11.887 2.052-9.057 2.12-.429 2.12 7.563 2.121-8.881 2.12-2.376 2.156-9.654 2.12 9.324 2.121 3.504 2.12-15.643 2.121 13.712 4.241-31.938 2.086-8.574 2.12-.827 2.121 2.856 2.12-7.353 2.121-7.962 2.156 5.465 2.12 7.028 2.12-12.33 2.121-4.51 2.12 14.982 2.156-29.026 2.051-10.472 2.051-7.788 2.12-2.897 2.121 20.372 2.12 3.23 2.121-14.39 2.156-4.155 2.12-6.443 2.12-8.872 2.121-2.456 2.12 9.459 2.156-25.917 2.051-21.77 2.051-5.653 2.12 2.255 2.121 43.035 2.12 20.367 2.121-3.481 2.156 17.932 2.12-13.605 2.12-4.262 2.121-2.13 2.12 17.314 2.156-7.003 2.051-20.713 2.051-2.75 2.12-4.127 2.121 13.257 2.12-5.31 2.121-7.289 2.156 25.656 2.12-9.61 2.12 4.996 2.121-.633 2.12 4.494 2.156-4.516 2.086-18.355 2.086-2.915 2.12-3.731 2.12 18.522 2.121 6.704 2.12 21.766 2.156-5.989 2.12 7.25 2.121 6.723 2.12-7.33 2.121 15.871 2.156-14.627 2.05-21.826 2.052-14.989 2.12 22.146 2.12 8.157 2.121 6.417 2.12 3.105 2.156 4.222 2.12 4.643 2.121 8.086 2.12-9.134 2.121 31.354 2.156-10.668 2.05-3.414 2.052 2.04 2.12-2.134 2.12 9.333 2.121 7.236 2.12-1.804 2.156 4.549 2.12 2.429 2.121-7.698 2.12-1.804 2.121 20.424 2.155-10.733 2.052-11.585 2.05-6.25 2.121 9.09 2.12 11.264 2.121 14.842 2.12-29.437 2.156 19.144 2.12-3.132 2.121-14.67 2.12-10.116 2.121 26.904 2.155-7.592 2.086-13.09 2.086-2.716 2.12-20.887 2.121 6.783 2.12 14.893 2.121 9.813 2.155 14.857 2.121-.222 2.12 9.974 2.121-5.376 2.12 22.883 2.156-17.867 2.051-.651 2.051-8.544 2.12 2.793 2.121 8.398 2.12 2.524 2.121 11.351 2.155 4.68 2.121-3.283 2.12 4.69 2.121.112 2.12 3.717 2.156-1.604 2.05-7.371 2.052 2.659 2.12.435 2.121-6.293 2.12 21.442 2.121-5.047 2.155-2.749 2.121 6.646 2.12-2.097h0" clip-path="url(#p9140f602ec)" style="fill:none;stroke:#1f77b4;stroke-width:1.5;stroke-linecap:square"/></g></g><defs><clipPath id="p9140f602ec"><path d="M40.922 57.838h357.12V323.95H40.922z"/></clipPath></defs></svg>