<svg xmlns:xlink="http://www.w3.org/1999/xlink" width="677.207" height="518.775" viewBox="0 0 507.905 389.081" xmlns="http://www.w3.org/2000/svg"><defs><style>*{stroke-linejoin:round;stroke-linecap:butt}</style></defs><g id="figure_1"><path d="M0 389.081h507.905V0H0v389.081z" style="fill:none" id="patch_1"/><g id="axes_1"><path d="M40.922 323.95h357.12V57.838H40.923V323.95z" style="fill:none" id="patch_2"/><g id="matplotlib.axis_1"><g id="xtick_1"><g id="line2d_1"><defs><path id="m6d5153017c" d="M0 0v3.5" style="stroke:#b0b0b0;stroke-width:.4"/></defs><use xlink:href="#m6d5153017c" x="73.445" y="323.95" style="fill:#b0b0b0;stroke:#b0b0b0;stroke-width:.4"/></g><g style="fill:#b0b0b0" transform="matrix(.14 0 0 -.14 55.63 341.588)" id="text_1"><defs><path id="DejaVuSans-32" d="M1228 531h2203V0H469v531q359 372 979 998 621 627 780 809 303 340 423 576 121 236 121 464 0 372-261 606-261 235-680 235-297 0-627-103-329-103-704-313v638q381 153 712 231 332 78 607 78 725 0 1156-363 431-362 431-968 0-288-108-546-107-257-392-607-78-91-497-524-418-433-1181-1211z" transform="scale(.01563)"/><path id="DejaVuSans-30" d="M2034 4250q-487 0-733-480-245-479-245-1442 0-959 245-1439 246-480 733-480 491 0 736 480 246 480 246 1439 0 963-246 1442-245 480-736 480zm0 500q785 0 1199-621 414-620 414-1801 0-1178-414-1799Q2819-91 2034-91q-784 0-1198 620-414 621-414 1799 0 1181 414 1801 414 621 1198 621z" transform="scale(.01563)"/><path id="DejaVuSans-31" d="M794 531h1031v3560L703 3866v575l1116 225h631V531h1031V0H794v531z" transform="scale(.01563)"/></defs><use xlink:href="#DejaVuSans-32"/><use xlink:href="#DejaVuSans-30" x="63.623"/><use xlink:href="#DejaVuSans-31" x="127.246"/><use xlink:href="#DejaVuSans-30" x="190.869"/></g></g><g id="xtick_2"><use xlink:href="#m6d5153017c" x="124.502" y="323.95" style="fill:#b0b0b0;stroke:#b0b0b0;stroke-width:.4" id="line2d_2"/><g style="fill:#b0b0b0" transform="matrix(.14 0 0 -.14 106.687 341.588)" id="text_2"><use xlink:href="#DejaVuSans-32"/><use xlink:href="#DejaVuSans-30" x="63.623"/><use xlink:href="#DejaVuSans-31" x="127.246"/><use xlink:href="#DejaVuSans-32" x="190.869"/></g></g><g id="xtick_3"><use xlink:href="#m6d5153017c" x="175.629" y="323.95" style="fill:#b0b0b0;stroke:#b0b0b0;stroke-width:.4" id="line2d_3"/><g style="fill:#b0b0b0" transform="matrix(.14 0 0 -.14 157.814 341.588)" id="text_3"><defs><path id="DejaVuSans-34" d="M2419 4116 825 1625h1594v2491zm-166 550h794V1625h666v-525h-666V0h-628v1100H313v609l1940 2957z" transform="scale(.01563)"/></defs><use xlink:href="#DejaVuSans-32"/><use xlink:href="#DejaVuSans-30" x="63.623"/><use xlink:href="#DejaVuSans-31" x="127.246"/><use xlink:href="#DejaVuSans-34" x="190.869"/></g></g><g id="xtick_4"><use xlink:href="#m6d5153017c" x="226.686" y="323.95" style="fill:#b0b0b0;stroke:#b0b0b0;stroke-width:.4" id="line2d_4"/><g style="fill:#b0b0b0" transform="matrix(.14 0 0 -.14 208.871 341.588)" id="text_4"><defs><path id="DejaVuSans-36" d="M2113 2584q-425 0-674-291-248-290-248-796 0-503 248-796 249-292 674-292t673 292q248 293 248 796 0 506-248 796-248 291-673 291zm1253 1979v-575q-238 112-480 171-242 60-480 60-625 0-955-422-329-422-376-1275 184 272 462 417 279 145 613 145 703 0 1111-427 408-426 408-1160 0-719-425-1154Q2819-91 2113-91q-810 0-1238 620-428 621-428 1799 0 1106 525 1764t1409 658q238 0 480-47t505-140z" transform="scale(.01563)"/></defs><use xlink:href="#DejaVuSans-32"/><use xlink:href="#DejaVuSans-30" x="63.623"/><use xlink:href="#DejaVuSans-31" x="127.246"/><use xlink:href="#DejaVuSans-36" x="190.869"/></g></g><g id="xtick_5"><use xlink:href="#m6d5153017c" x="277.813" y="323.95" style="fill:#b0b0b0;stroke:#b0b0b0;stroke-width:.4" id="line2d_5"/><g style="fill:#b0b0b0" transform="matrix(.14 0 0 -.14 259.998 341.588)" id="text_5"><defs><path id="DejaVuSans-38" d="M2034 2216q-450 0-708-241-257-241-257-662 0-422 257-663 258-241 708-241t709 242q260 243 260 662 0 421-258 662-257 241-711 241zm-631 268q-406 100-633 378-226 279-226 679 0 559 398 884 399 325 1092 325 697 0 1094-325t397-884q0-400-227-679-226-278-629-378 456-106 710-416 255-309 255-755 0-679-414-1042Q2806-91 2034-91q-771 0-1186 362-414 363-414 1042 0 446 256 755 257 310 713 416zm-231 997q0-362 226-565 227-203 636-203 407 0 636 203 230 203 230 565 0 363-230 566-229 203-636 203-409 0-636-203-226-203-226-566z" transform="scale(.01563)"/></defs><use xlink:href="#DejaVuSans-32"/><use xlink:href="#DejaVuSans-30" x="63.623"/><use xlink:href="#DejaVuSans-31" x="127.246"/><use xlink:href="#DejaVuSans-38" x="190.869"/></g></g><g id="xtick_6"><use xlink:href="#m6d5153017c" x="328.871" y="323.95" style="fill:#b0b0b0;stroke:#b0b0b0;stroke-width:.4" id="line2d_6"/><g style="fill:#b0b0b0" transform="matrix(.14 0 0 -.14 311.056 341.588)" id="text_6"><use xlink:href="#DejaVuSans-32"/><use xlink:href="#DejaVuSans-30" x="63.623"/><use xlink:href="#DejaVuSans-32" x="127.246"/><use xlink:href="#DejaVuSans-30" x="190.869"/></g></g><g id="xtick_7"><use xlink:href="#m6d5153017c" x="379.998" y="323.95" style="fill:#b0b0b0;stroke:#b0b0b0;stroke-width:.4" id="line2d_7"/><g style="fill:#b0b0b0" transform="matrix(.14 0 0 -.14 362.183 341.588)" id="text_7"><use xlink:href="#DejaVuSans-32"/><use xlink:href="#DejaVuSans-30" x="63.623"/><use xlink:href="#DejaVuSans-32" x="127.246"/><use xlink:href="#DejaVuSans-32" x="190.869"/></g></g></g><g id="matplotlib.axis_2"><g id="ytick_1"><path d="M40.922 323.95h357.12" clip-path="url(#p567e7a31f5)" style="fill:none;stroke:#b0b0b0;stroke-width:.3;stroke-linecap:square" id="line2d_8"/><g id="line2d_9"><defs><path id="m613cd9bbfe" d="M0 0h-3.5" style="stroke:#b0b0b0;stroke-width:.3"/></defs><use xlink:href="#m613cd9bbfe" x="40.922" y="323.95" style="fill:#b0b0b0;stroke:#b0b0b0;stroke-width:.3"/></g><use xlink:href="#DejaVuSans-30" style="fill:#b0b0b0" transform="matrix(.14 0 0 -.14 25.015 329.269)" id="text_8"/></g><g id="ytick_2"><path d="M40.922 273.228h357.12" clip-path="url(#p567e7a31f5)" style="fill:none;stroke:#b0b0b0;stroke-width:.3;stroke-linecap:square" id="line2d_10"/><use xlink:href="#m613cd9bbfe" x="40.922" y="273.228" style="fill:#b0b0b0;stroke:#b0b0b0;stroke-width:.3" id="line2d_11"/><g style="fill:#b0b0b0" transform="matrix(.14 0 0 -.14 16.108 278.546)" id="text_9"><defs><path id="DejaVuSans-35" d="M691 4666h2478v-532H1269V2991q137 47 274 70 138 23 276 23 781 0 1237-428 457-428 457-1159 0-753-469-1171Q2575-91 1722-91q-294 0-599 50Q819 9 494 109v635q281-153 581-228t634-75q541 0 856 284 316 284 316 772 0 487-316 771-315 285-856 285-253 0-505-56-251-56-513-175v2344z" transform="scale(.01563)"/></defs><use xlink:href="#DejaVuSans-35"/><use xlink:href="#DejaVuSans-30" x="63.623"/></g></g><g id="ytick_3"><path d="M40.922 222.505h357.12" clip-path="url(#p567e7a31f5)" style="fill:none;stroke:#b0b0b0;stroke-width:.3;stroke-linecap:square" id="line2d_12"/><use xlink:href="#m613cd9bbfe" x="40.922" y="222.505" style="fill:#b0b0b0;stroke:#b0b0b0;stroke-width:.3" id="line2d_13"/><g style="fill:#b0b0b0" transform="matrix(.14 0 0 -.14 7.2 227.824)" id="text_10"><use xlink:href="#DejaVuSans-31"/><use xlink:href="#DejaVuSans-30" x="63.623"/><use xlink:href="#DejaVuSans-30" x="127.246"/></g></g><g id="ytick_4"><path d="M40.922 171.783h357.12" clip-path="url(#p567e7a31f5)" style="fill:none;stroke:#b0b0b0;stroke-width:.3;stroke-linecap:square" id="line2d_14"/><use xlink:href="#m613cd9bbfe" x="40.922" y="171.783" style="fill:#b0b0b0;stroke:#b0b0b0;stroke-width:.3" id="line2d_15"/><g style="fill:#b0b0b0" transform="matrix(.14 0 0 -.14 7.2 177.102)" id="text_11"><use xlink:href="#DejaVuSans-31"/><use xlink:href="#DejaVuSans-35" x="63.623"/><use xlink:href="#DejaVuSans-30" x="127.246"/></g></g><g id="ytick_5"><path d="M40.922 121.06h357.12" clip-path="url(#p567e7a31f5)" style="fill:none;stroke:#b0b0b0;stroke-width:.3;stroke-linecap:square" id="line2d_16"/><use xlink:href="#m613cd9bbfe" x="40.922" y="121.061" style="fill:#b0b0b0;stroke:#b0b0b0;stroke-width:.3" id="line2d_17"/><g style="fill:#b0b0b0" transform="matrix(.14 0 0 -.14 7.2 126.38)" id="text_12"><use xlink:href="#DejaVuSans-32"/><use xlink:href="#DejaVuSans-30" x="63.623"/><use xlink:href="#DejaVuSans-30" x="127.246"/></g></g><g id="ytick_6"><path d="M40.922 70.338h357.12" clip-path="url(#p567e7a31f5)" style="fill:none;stroke:#b0b0b0;stroke-width:.3;stroke-linecap:square" id="line2d_18"/><use xlink:href="#m613cd9bbfe" x="40.922" y="70.338" style="fill:#b0b0b0;stroke:#b0b0b0;stroke-width:.3" id="line2d_19"/><g style="fill:#b0b0b0" transform="matrix(.14 0 0 -.14 7.2 75.657)" id="text_13"><use xlink:href="#DejaVuSans-32"/><use xlink:href="#DejaVuSans-35" x="63.623"/><use xlink:href="#DejaVuSans-30" x="127.246"/></g></g></g><path d="m40.922 323.886 1.644-.1 8.498.091 2.063-.189 6.4.025 2.133-.221 2.168-.098 2.133.218 2.134.01 2.133-.247 2.133-.505 2.168.065 2.064-.18 2.063-.049 2.133.297 2.133-.395 2.133-.72 2.134.851 2.168-1.243 4.266.49 2.133-.2 2.134.724 2.168-.622 2.063-.764 4.197-.082 2.133-1.837 4.266.818 2.168-1.08 2.134-.167 2.133.232 4.266.066 2.168-.458 2.099-.718 2.098-.068 2.133-1.15 2.133 1.281 2.133-.74 2.134.61 2.168-.917 2.133.171 2.133.385 2.133-.418 2.134-.203 2.168.883 2.063-1.825 2.063.287 2.134-.123 2.133-.368 2.133-.072 2.133-1.564 2.168 3.6 2.134-.92 2.133-.553 2.133.52 2.133 1.084 2.168-1.67 2.064-.221 2.063.745 2.133-.615 2.133 1.695 2.134.165 2.133-1.081 2.168 1.08 2.133-.405 2.133.994 2.134-1.197 2.133 1.655 2.168-1.145 2.063-.152 2.064-.568 2.133-.466 2.133 1.513 2.133-1.141 2.133-.364 2.169.163 2.133.945 2.133-.52 2.133 1.365 4.302-.383 2.098-1.516 2.098 1.19 2.133-.745 4.267-.744 2.133 1.292 2.168-.72 2.133 1.525 2.133-1.296 2.134.687 2.133 1.08 2.168-.229 2.063.381 2.064-1.69 2.133 1.236 2.133-.287 2.133.726 2.133-.039 2.169.295 2.133.083 2.133-.312 2.133.244 2.133 1.555 2.169-.621 2.063.621 2.063-1.341 2.133.598 2.134-.042 2.133-.263 2.133.198 2.168-1.604 2.133.933 2.134.31 2.133-.107 2.133.828 2.168-1.146 2.063.332 2.064-.953 2.133.871 2.133.7 2.133-.159 2.134.322 2.168-.164 2.133-.327 4.266 1.251 2.134.353 2.168-.557 2.098-1.222 2.098.928 2.133-.956 2.134.53 2.133.721 2.133-.164 2.168.098 2.133-.644 2.134.153 2.133 1.267 2.133.107 2.168.393 2.063-1.46 2.064.707 4.266.393 2.133-.41 2.134.574 2.168-.393 2.133-.046 2.133.864 2.133.05 2.134-.639 4.231.856 2.063-.398 4.267.197 2.133-.626 2.133-.258 2.168.72 2.134-.326h0" clip-path="url(#p567e7a31f5)" style="fill:none;stroke:#ffbb78;stroke-width:1.5;stroke-linecap:square" id="line2d_20"/><path d="m40.922 323.316 1.644.34 2.133-.18 4.302.245 2.063-.35 2.063.055 2.133-.186 2.134.12 2.133-.256 2.133.06 2.168.197 2.133-.087 2.134.054 2.133-.156 2.133.156 6.295-.524 2.133.03 2.133.33 4.267-.327 2.168.295 2.133-.366 2.133-.027 2.133.163 2.134-.032 4.231-.804 2.063.182 2.134.586 2.133-.095 2.133-.92 2.133.364 2.168-.164 2.134.105 2.133-.301 4.266.229 2.168.523 2.099-.41 2.098-.67 6.4.46 2.133-.132 2.168-.393h4.266l2.133-.118 2.134 1.002 2.168-1.506 2.063-.699 2.063.536 2.134-.313 2.133.77 2.133-.094 2.133.258 2.168-.621 2.134-.415 2.133 1.167 2.133-.795 4.301.795 2.064-1.324 2.063.539 2.133.16 2.133.364 2.134-.703 2.133.343 2.168-.295 2.133.527 2.133.128 4.267-.557 2.168.36 2.063-.359 2.064.425 2.133-1.045 2.133.783 2.133.502 2.133-.142 2.169-.884 2.133.586 2.133-.291 2.133.291 4.302.363 2.098-.751 2.098-.492 2.133.576 2.133 1.093 2.134-.552 2.133.224 2.168-.261 4.266.49 2.134-1.163 2.133 1 2.168-.458 2.063-.149 2.064.312 2.133-.3 2.133.17 2.133.507 2.133-.278 2.169.032 2.133-.769 2.133.704 2.133.21 2.133-.145 2.169-.72 2.063-.194 2.063-.46 2.133.91 6.4.137 4.301-.239 4.267-.811 2.133.886 2.168-.589 2.063.203 2.064.517 2.133.132 2.133-.164 2.133.401 2.134-.467 4.3-.514 2.134-.075 2.133.143 2.134.806 4.266-.478 2.098-.667 2.133.914 2.134-.26 2.133-.383 2.133.154 2.168.982 2.133-.256 2.134-.791 2.133.892 2.133.613 2.168-.033 2.063-.706 2.064-.406 2.133.6 2.133-.568 2.133.466 2.134.222 2.168-.262 2.133.547 2.133.173 2.133-.274 2.134-.119 2.168.23 2.063-.21 2.063.602 4.267-.295 2.133.062 2.133.298 2.168-.589 2.134.021h0" clip-path="url(#p567e7a31f5)" style="fill:none;stroke:#aec7e8;stroke-width:1.5;stroke-linecap:square" id="line2d_21"/><path d="M59.527 323.95h6.434l34.097-.066 2.063-.115 2.063.148 8.533-.065 6.435.065 2.133-.136 8.498.136 4.266-.033 4.267-.032 16.995-.066 2.134-.276 2.133.113 2.133-.316 2.133-.012 2.168.426 2.134-.447 6.4.12 2.167-.262 2.064.13 2.063-.392 2.133.032 2.133.262 2.134-.093 4.301.126 4.266-.654 2.134.054 2.133.207 2.168-.261 2.063.356 2.064-.913 2.133.375 2.133.247 2.133-.417 2.133-.074 2.169.753 4.266-1.113 2.133.434 4.302-.303 2.098-.772 2.098-.57 2.133.563 2.133.354 2.134-1.064 2.133.802 2.168-.098 2.133-.535 2.133.306 2.134.032 2.133-.621 2.168.425 2.063-.71 2.064-.893 2.133.65 2.133-.127 2.133.431 2.133-.202 2.169-1.047 2.133 1.114 2.133-.001 2.133-1.52 2.133 1.389 2.169.294 2.063-1.21 2.063.163 4.267-.622 2.133 1.033 2.133-1.163 2.168.327 2.133.194 2.134-.325 2.133-.79 2.133 1.968 2.168-1.636 2.063-.707 2.064.707 2.133.039 2.133.91 2.133-.437 2.134-1.265 2.168 1.342 2.133-.584 2.133-1.118 2.133.07 2.134.781 2.168-1.407 2.098.106 2.098.777 2.133-1.102 2.134-.174 2.133-.469 2.133 1.484 4.301.14 2.134 1.005 2.133-.837 2.133 1.557 2.168-1.702 2.063-1.019 2.064.921 2.133-.332 2.133.43 2.133.111 4.302.511 2.133-1.085 2.133 1.674 2.133-1.505 2.134.752 2.168-.818 2.063.61 2.063-.642 2.133 1.349 2.134-.891 2.133.587 2.133-.031 2.168.294 2.134.108h0" clip-path="url(#p567e7a31f5)" style="fill:none;stroke:#17becf;stroke-width:1.5;stroke-linecap:square" id="line2d_22"/><g style="fill:#1f77b4" transform="matrix(.14 0 0 -.14 408.756 224.97)" id="text_14"><defs><path id="DejaVuSans-6d" d="M3328 2828q216 388 516 572t706 184q547 0 844-383 297-382 297-1088V0h-578v2094q0 503-179 746-178 244-543 244-447 0-707-297-259-296-259-809V0h-578v2094q0 506-178 748t-550 242q-441 0-701-298-259-298-259-808V0H581v3500h578v-544q197 322 472 475t653 153q382 0 649-194 267-193 395-562z" transform="scale(.01563)"/><path id="DejaVuSans-79" d="M2059-325q-243-625-475-815-231-191-618-191H506v481h338q237 0 368 113 132 112 291 531l103 262L191 3500h609L1894 763l1094 2737h609L2059-325z" transform="scale(.01563)"/><path id="DejaVuSans-73" d="M2834 3397v-544q-243 125-506 187-262 63-544 63-428 0-642-131t-214-394q0-200 153-314t616-217l197-44q612-131 870-370t258-667q0-488-386-773Q2250-91 1575-91q-281 0-586 55T347 128v594q319-166 628-249 309-82 613-82 406 0 624 139 219 139 219 392 0 234-158 359-157 125-692 241l-200 47q-534 112-772 345-237 233-237 639 0 494 350 762 350 269 994 269 318 0 599-47 282-46 519-140z" transform="scale(.01563)"/><path id="DejaVuSans-71" d="M947 1747q0-634 261-995t717-361q456 0 718 361 263 361 263 995t-263 995q-262 361-718 361t-717-361q-261-361-261-995zM2906 525q-181-312-458-464-276-152-664-152-634 0-1033 506-398 507-398 1332t398 1331q399 506 1033 506 388 0 664-152 277-151 458-463v531h575v-4831h-575V525z" transform="scale(.01563)"/><path id="DejaVuSans-6c" d="M603 4863h575V0H603v4863z" transform="scale(.01563)"/></defs><use xlink:href="#DejaVuSans-6d"/><use xlink:href="#DejaVuSans-79" x="97.412"/><use xlink:href="#DejaVuSans-73" x="156.592"/><use xlink:href="#DejaVuSans-71" x="208.691"/><use xlink:href="#DejaVuSans-6c" x="272.168"/></g><g style="fill:#ff7f0e" transform="matrix(.14 0 0 -.14 408.756 238.97)" id="text_15"><defs><path id="DejaVuSans-70" d="M1159 525v-1856H581v4831h578v-531q182 312 458 463 277 152 661 152 638 0 1036-506 399-506 399-1331T3314 415Q2916-91 2278-91q-384 0-661 152-276 152-458 464zm1957 1222q0 634-261 995t-717 361q-457 0-718-361t-261-995q0-634 261-995t718-361q456 0 717 361t261 995z" transform="scale(.01563)"/><path id="DejaVuSans-6f" d="M1959 3097q-462 0-731-361t-269-989q0-628 267-989 268-361 733-361 460 0 728 362 269 363 269 988 0 622-269 986-268 364-728 364zm0 487q750 0 1178-488 429-487 429-1349 0-859-429-1349Q2709-91 1959-91q-753 0-1180 489-426 490-426 1349 0 862 426 1349 427 488 1180 488z" transform="scale(.01563)"/><path id="DejaVuSans-74" d="M1172 4494v-994h1184v-447H1172V1153q0-428 117-550t477-122h590V0h-590q-666 0-919 248-253 249-253 905v1900H172v447h422v994h578z" transform="scale(.01563)"/><path id="DejaVuSans-67" d="M2906 1791q0 625-258 968-257 344-723 344-462 0-720-344-258-343-258-968 0-622 258-966t720-344q466 0 723 344 258 344 258 966zm575-1357q0-893-397-1329-396-436-1215-436-303 0-572 45t-522 139v559q253-137 500-202 247-66 503-66 566 0 847 295t281 892v285q-178-310-456-463T1784 0Q1141 0 747 490 353 981 353 1791q0 812 394 1302 394 491 1037 491 388 0 666-153t456-462v531h575V434z" transform="scale(.01563)"/><path id="DejaVuSans-72" d="M2631 2963q-97 56-211 82-114 27-251 27-488 0-749-317t-261-911V0H581v3500h578v-544q182 319 472 473 291 155 707 155 59 0 131-8 72-7 159-23l3-590z" transform="scale(.01563)"/><path id="DejaVuSans-65" d="M3597 1894v-281H953q38-594 358-905t892-311q331 0 642 81t618 244V178Q3153 47 2828-22t-659-69q-838 0-1327 487-489 488-489 1320 0 859 464 1363 464 505 1252 505 706 0 1117-455 411-454 411-1235zm-575 169q-6 471-264 752-258 282-683 282-481 0-770-272t-333-766l2050 4z" transform="scale(.01563)"/></defs><use xlink:href="#DejaVuSans-70"/><use xlink:href="#DejaVuSans-6f" x="63.477"/><use xlink:href="#DejaVuSans-73" x="124.658"/><use xlink:href="#DejaVuSans-74" x="176.758"/><use xlink:href="#DejaVuSans-67" x="215.967"/><use xlink:href="#DejaVuSans-72" x="279.443"/><use xlink:href="#DejaVuSans-65" x="318.307"/><use xlink:href="#DejaVuSans-73" x="379.83"/><use xlink:href="#DejaVuSans-71" x="431.93"/><use xlink:href="#DejaVuSans-6c" x="495.406"/></g><g style="fill:#2ca02c" transform="matrix(.14 0 0 -.14 408.756 252.97)" id="text_16"><defs><path id="DejaVuSans-6e" d="M3513 2113V0h-575v2094q0 497-194 743-194 247-581 247-466 0-735-297-269-296-269-809V0H581v3500h578v-544q207 316 486 472 280 156 646 156 603 0 912-373 310-373 310-1098z" transform="scale(.01563)"/><path id="DejaVuSans-64" d="M2906 2969v1894h575V0h-575v525q-181-312-458-464-276-152-664-152-634 0-1033 506-398 507-398 1332t398 1331q399 506 1033 506 388 0 664-152 277-151 458-463zM947 1747q0-634 261-995t717-361q456 0 718 361 263 361 263 995t-263 995q-262 361-718 361t-717-361q-261-361-261-995z" transform="scale(.01563)"/><path id="DejaVuSans-62" d="M3116 1747q0 634-261 995t-717 361q-457 0-718-361t-261-995q0-634 261-995t718-361q456 0 717 361t261 995zM1159 2969q182 312 458 463 277 152 661 152 638 0 1036-506 399-506 399-1331T3314 415Q2916-91 2278-91q-384 0-661 152-276 152-458 464V0H581v4863h578V2969z" transform="scale(.01563)"/></defs><use xlink:href="#DejaVuSans-6d"/><use xlink:href="#DejaVuSans-6f" x="97.412"/><use xlink:href="#DejaVuSans-6e" x="158.594"/><use xlink:href="#DejaVuSans-67" x="221.973"/><use xlink:href="#DejaVuSans-6f" x="285.449"/><use xlink:href="#DejaVuSans-64" x="346.631"/><use xlink:href="#DejaVuSans-62" x="410.107"/></g><g style="fill:#d62728" transform="matrix(.14 0 0 -.14 408.756 266.97)" id="text_17"><defs><path id="DejaVuSans-2d" d="M313 2009h1684v-512H313v512z" transform="scale(.01563)"/><path id="DejaVuSans-76" d="M191 3500h609L1894 563l1094 2937h609L2284 0h-781L191 3500z" transform="scale(.01563)"/></defs><use xlink:href="#DejaVuSans-73"/><use xlink:href="#DejaVuSans-71" x="52.1"/><use xlink:href="#DejaVuSans-6c" x="115.576"/><use xlink:href="#DejaVuSans-2d" x="143.359"/><use xlink:href="#DejaVuSans-73" x="179.443"/><use xlink:href="#DejaVuSans-65" x="231.543"/><use xlink:href="#DejaVuSans-72" x="293.066"/><use xlink:href="#DejaVuSans-76" x="334.18"/><use xlink:href="#DejaVuSans-65" x="393.359"/><use xlink:href="#DejaVuSans-72" x="454.883"/></g><g style="fill:#9467bd" transform="matrix(.14 0 0 -.14 408.756 280.97)" id="text_18"><defs><path id="DejaVuSans-61" d="M2194 1759q-697 0-966-159t-269-544q0-306 202-486 202-179 548-179 479 0 768 339t289 901v128h-572zm1147 238V0h-575v531q-197-318-491-470T1556-91q-537 0-855 302-317 302-317 808 0 590 395 890 396 300 1180 300h807v57q0 397-261 614t-733 217q-300 0-585-72-284-72-546-216v532q315 122 612 182 297 61 578 61 760 0 1135-394 375-393 375-1193z" transform="scale(.01563)"/><path id="DejaVuSans-63" d="M3122 3366v-538q-244 135-489 202t-495 67q-560 0-870-355-309-354-309-995t309-996q310-354 870-354 250 0 495 67t489 202V134Q2881 22 2623-34q-257-57-548-57-791 0-1257 497-465 497-465 1341 0 856 470 1346 471 491 1290 491 265 0 518-55 253-54 491-163z" transform="scale(.01563)"/></defs><use xlink:href="#DejaVuSans-6f"/><use xlink:href="#DejaVuSans-72" x="61.182"/><use xlink:href="#DejaVuSans-61" x="102.295"/><use xlink:href="#DejaVuSans-63" x="163.574"/><use xlink:href="#DejaVuSans-6c" x="218.555"/><use xlink:href="#DejaVuSans-65" x="246.338"/></g><g style="fill:#8c564b" transform="matrix(.14 0 0 -.14 408.756 294.97)" id="text_19"><defs><path id="DejaVuSans-69" d="M603 3500h575V0H603v3500zm0 1363h575v-729H603v729z" transform="scale(.01563)"/><path id="DejaVuSans-68" d="M3513 2113V0h-575v2094q0 497-194 743-194 247-581 247-466 0-735-297-269-296-269-809V0H581v4863h578V2956q207 316 486 472 280 156 646 156 603 0 912-373 310-373 310-1098z" transform="scale(.01563)"/></defs><use xlink:href="#DejaVuSans-65"/><use xlink:href="#DejaVuSans-6c" x="61.523"/><use xlink:href="#DejaVuSans-61" x="89.307"/><use xlink:href="#DejaVuSans-73" x="150.586"/><use xlink:href="#DejaVuSans-74" x="202.686"/><use xlink:href="#DejaVuSans-69" x="241.895"/><use xlink:href="#DejaVuSans-63" x="269.678"/><use xlink:href="#DejaVuSans-73" x="324.658"/><use xlink:href="#DejaVuSans-65" x="376.758"/><use xlink:href="#DejaVuSans-61" x="438.281"/><use xlink:href="#DejaVuSans-72" x="499.561"/><use xlink:href="#DejaVuSans-63" x="538.424"/><use xlink:href="#DejaVuSans-68" x="593.404"/></g><g style="fill:#e377c2" transform="matrix(.14 0 0 -.14 408.756 308.97)" id="text_20"><use xlink:href="#DejaVuSans-73"/><use xlink:href="#DejaVuSans-71" x="52.1"/><use xlink:href="#DejaVuSans-6c" x="115.576"/><use xlink:href="#DejaVuSans-69" x="143.359"/><use xlink:href="#DejaVuSans-74" x="171.143"/><use xlink:href="#DejaVuSans-65" x="210.352"/></g><g style="fill:#7f7f7f" transform="matrix(.14 0 0 -.14 408.756 322.97)" id="text_21"><use xlink:href="#DejaVuSans-72"/><use xlink:href="#DejaVuSans-65" x="38.863"/><use xlink:href="#DejaVuSans-64" x="100.387"/><use xlink:href="#DejaVuSans-69" x="163.863"/><use xlink:href="#DejaVuSans-73" x="191.646"/></g><g style="fill:#bcbd22" transform="matrix(.14 0 0 -.14 408.756 336.97)" id="text_22"><use xlink:href="#DejaVuSans-6d"/><use xlink:href="#DejaVuSans-73" x="97.412"/><use xlink:href="#DejaVuSans-2d" x="149.512"/><use xlink:href="#DejaVuSans-61" x="185.596"/><use xlink:href="#DejaVuSans-63" x="246.875"/><use xlink:href="#DejaVuSans-63" x="301.855"/><use xlink:href="#DejaVuSans-65" x="356.836"/><use xlink:href="#DejaVuSans-73" x="418.359"/><use xlink:href="#DejaVuSans-73" x="470.459"/></g><g style="fill:#17becf" transform="matrix(.14 0 0 -.14 408.756 350.97)" id="text_23"><use xlink:href="#DejaVuSans-6d"/><use xlink:href="#DejaVuSans-61" x="97.412"/><use xlink:href="#DejaVuSans-72" x="158.691"/><use xlink:href="#DejaVuSans-69" x="199.805"/><use xlink:href="#DejaVuSans-61" x="227.588"/><use xlink:href="#DejaVuSans-64" x="288.867"/><use xlink:href="#DejaVuSans-62" x="352.344"/></g><g style="fill:#aec7e8" transform="matrix(.14 0 0 -.14 408.756 364.97)" id="text_24"><use xlink:href="#DejaVuSans-64"/><use xlink:href="#DejaVuSans-62" x="63.477"/><use xlink:href="#DejaVuSans-32" x="126.953"/></g><g style="fill:#ffbb78" transform="matrix(.14 0 0 -.14 408.756 378.97)" id="text_25"><use xlink:href="#DejaVuSans-73"/><use xlink:href="#DejaVuSans-6f" x="52.1"/><use xlink:href="#DejaVuSans-6c" x="113.281"/><use xlink:href="#DejaVuSans-72" x="141.064"/></g><g style="fill:#b0b0b0" transform="matrix(.09716 0 0 -.09716 40.922 357.986)" id="text_26"><defs><path id="DejaVuSans-40" d="M2381 1678q0-447 222-702 222-254 610-254 384 0 604 256 221 256 221 700 0 438-225 695-225 258-607 258-378 0-602-256-223-256-223-697zm1703-934q-187-241-429-355t-564-114q-538 0-874 389t-336 1014q0 625 337 1015 338 391 873 391 322 0 565-117 244-117 428-354v409h447V722q457 69 714 417 258 349 258 902 0 334-99 628-98 294-298 544-325 409-792 626t-1017 217q-384 0-738-102-353-101-653-301-490-319-767-836-276-517-276-1120 0-497 179-932 180-434 521-765 328-325 759-495 431-171 922-171 403 0 792 136t714 389l281-347q-390-303-851-464t-936-161q-578 0-1091 205-512 205-912 595Q841 78 631 592q-209 514-209 1105 0 569 212 1084 213 516 607 907 403 396 931 607t1119 211q662 0 1229-272 568-271 952-771 234-307 357-666 124-359 124-744 0-822-497-1297T4084 263v481z" transform="scale(.01563)"/><path id="DejaVuSans-2f" d="M1625 4666h531L531-594H0l1625 5260z" transform="scale(.01563)"/><path id="DejaVuSans-6b" d="M581 4863h578V1991l1716 1509h734L1753 1863 3688 0h-750L1159 1709V0H581v4863z" transform="scale(.01563)"/><path id="DejaVuSans-66" d="M2375 4863v-479h-550q-309 0-430-125-120-125-120-450v-309h947v-447h-947V0H697v3053H147v447h550v244q0 584 272 851 272 268 862 268h544z" transform="scale(.01563)"/><path id="DejaVuSans-77" d="M269 3500h575l719-2731 715 2731h678l719-2731 716 2731h575L4050 0h-678l-753 2869L1863 0h-679L269 3500z" transform="scale(.01563)"/><path id="DejaVuSans-7c" d="M1344 4891v-6400H813v6400h531z" transform="scale(.01563)"/><path id="DejaVuSans-4e" d="M628 4666h850L3547 763v3903h612V0h-850L1241 3903V0H628v4666z" transform="scale(.01563)"/><path id="DejaVuSans-53" d="M3425 4513v-616q-359 172-678 256-319 85-616 85-515 0-795-200t-280-569q0-310 186-468 186-157 705-254l381-78q706-135 1042-474t336-907q0-679-455-1029Q2797-91 1919-91q-331 0-705 75-373 75-773 222v650q384-215 753-325 369-109 725-109 540 0 834 212 294 213 294 607 0 343-211 537t-692 291l-385 75q-706 140-1022 440-315 300-315 835 0 619 436 975t1201 356q329 0 669-60 341-59 697-177z" transform="scale(.01563)"/><path id="DejaVuSans-f6" d="M1959 3097q-462 0-731-361t-269-989q0-628 267-989 268-361 733-361 460 0 728 362 269 363 269 988 0 622-269 986-268 364-728 364zm0 487q750 0 1178-488 429-487 429-1349 0-859-429-1349Q2709-91 1959-91q-753 0-1180 489-426 490-426 1349 0 862 426 1349 427 488 1180 488zm295 1266h634v-631h-634v631zm-1222 0h634v-631h-634v631z" transform="scale(.01563)"/><path id="DejaVuSans-43" d="M4122 4306v-665q-319 297-680 443-361 147-767 147-800 0-1225-489t-425-1414q0-922 425-1411t1225-489q406 0 767 147t680 444V359q-331-225-702-338-370-112-782-112-1060 0-1670 648-609 649-609 1771 0 1125 609 1773 610 649 1670 649 418 0 788-111 371-111 696-333z" transform="scale(.01563)"/><path id="DejaVuSans-42" d="M1259 2228V519h1013q509 0 754 211 246 211 246 645 0 438-246 645-245 208-754 208H1259zm0 1919V2741h935q462 0 688 173 227 174 227 530 0 353-227 528-226 175-688 175h-935zm-631 519h1613q722 0 1112-300 391-300 391-853 0-429-200-682t-588-315q466-100 724-418 258-317 258-792 0-625-425-966Q3088 0 2303 0H628v4666z" transform="scale(.01563)"/><path id="DejaVuSans-59" d="M-13 4666h679l1293-1919 1285 1919h678L2272 2222V0h-634v2222L-13 4666z" transform="scale(.01563)"/></defs><use xlink:href="#DejaVuSans-40"/><use xlink:href="#DejaVuSans-6e" x="100"/><use xlink:href="#DejaVuSans-73" x="163.379"/><use xlink:href="#DejaVuSans-63" x="215.479"/><use xlink:href="#DejaVuSans-68" x="270.459"/><use xlink:href="#DejaVuSans-6c" x="333.838"/><use xlink:href="#DejaVuSans-6f" x="361.621"/><use xlink:href="#DejaVuSans-65" x="422.803"/><use xlink:href="#DejaVuSans-20" x="484.326"/><use xlink:href="#DejaVuSans-2f" x="516.113"/><use xlink:href="#DejaVuSans-20" x="549.805"/><use xlink:href="#DejaVuSans-73" x="581.592"/><use xlink:href="#DejaVuSans-74" x="633.691"/><use xlink:href="#DejaVuSans-61" x="672.9"/><use xlink:href="#DejaVuSans-63" x="734.18"/><use xlink:href="#DejaVuSans-6b" x="789.16"/><use xlink:href="#DejaVuSans-6f" x="843.445"/><use xlink:href="#DejaVuSans-76" x="904.627"/><use xlink:href="#DejaVuSans-65" x="963.807"/><use xlink:href="#DejaVuSans-72" x="1025.33"/><use xlink:href="#DejaVuSans-66" x="1066.443"/><use xlink:href="#DejaVuSans-6c" x="1101.648"/><use xlink:href="#DejaVuSans-6f" x="1129.432"/><use xlink:href="#DejaVuSans-77" x="1190.613"/><use xlink:href="#DejaVuSans-2d" x="1272.4"/><use xlink:href="#DejaVuSans-74" x="1308.484"/><use xlink:href="#DejaVuSans-72" x="1347.693"/><use xlink:href="#DejaVuSans-65" x="1386.557"/><use xlink:href="#DejaVuSans-6e" x="1448.08"/><use xlink:href="#DejaVuSans-64" x="1511.459"/><use xlink:href="#DejaVuSans-73" x="1574.936"/><use xlink:href="#DejaVuSans-20" x="1627.035"/><use xlink:href="#DejaVuSans-7c" x="1658.822"/><use xlink:href="#DejaVuSans-20" x="1692.514"/><use xlink:href="#DejaVuSans-4e" x="1724.301"/><use xlink:href="#DejaVuSans-69" x="1799.105"/><use xlink:href="#DejaVuSans-63" x="1826.889"/><use xlink:href="#DejaVuSans-6f" x="1881.869"/><use xlink:href="#DejaVuSans-20" x="1943.051"/><use xlink:href="#DejaVuSans-53" x="1974.838"/><use xlink:href="#DejaVuSans-63" x="2038.314"/><use xlink:href="#DejaVuSans-68" x="2093.295"/><use xlink:href="#DejaVuSans-6c" x="2156.674"/><use xlink:href="#DejaVuSans-f6" x="2184.457"/><use xlink:href="#DejaVuSans-6d" x="2245.639"/><use xlink:href="#DejaVuSans-65" x="2343.051"/><use xlink:href="#DejaVuSans-72" x="2404.574"/><use xlink:href="#DejaVuSans-20" x="2445.688"/><use xlink:href="#DejaVuSans-7c" x="2477.475"/><use xlink:href="#DejaVuSans-20" x="2511.166"/><use xlink:href="#DejaVuSans-43" x="2542.953"/><use xlink:href="#DejaVuSans-43" x="2612.777"/><use xlink:href="#DejaVuSans-20" x="2682.602"/><use xlink:href="#DejaVuSans-42" x="2714.389"/><use xlink:href="#DejaVuSans-59" x="2777.492"/></g><g style="fill:#b0b0b0" transform="matrix(.14 0 0 -.14 63.337 17.838)" id="text_27"><defs><path id="DejaVuSans-44" d="M1259 4147V519h763q966 0 1414 437 448 438 448 1382 0 937-448 1373t-1414 436h-763zm-631 519h1297q1356 0 1990-564 635-564 635-1764 0-1207-638-1773Q3275 0 1925 0H628v4666z" transform="scale(.01563)"/><path id="DejaVuSans-75" d="M544 1381v2119h575V1403q0-497 193-746 194-248 582-248 465 0 735 297 271 297 271 810v1984h575V0h-575v538q-209-319-486-474-276-155-642-155-603 0-916 375-312 375-312 1097zm1447 2203z" transform="scale(.01563)"/><path id="DejaVuSans-4f" d="M2522 4238q-688 0-1093-513-404-512-404-1397 0-881 404-1394 405-512 1093-512 687 0 1089 512 402 513 402 1394 0 885-402 1397-402 513-1089 513zm0 512q981 0 1568-658 588-658 588-1764 0-1103-588-1761Q3503-91 2522-91q-984 0-1574 656-589 657-589 1763t589 1764q590 658 1574 658z" transform="scale(.01563)"/></defs><use xlink:href="#DejaVuSans-44"/><use xlink:href="#DejaVuSans-61" x="77.002"/><use xlink:href="#DejaVuSans-69" x="138.281"/><use xlink:href="#DejaVuSans-6c" x="166.064"/><use xlink:href="#DejaVuSans-79" x="193.848"/><use xlink:href="#DejaVuSans-20" x="253.027"/><use xlink:href="#DejaVuSans-6e" x="284.814"/><use xlink:href="#DejaVuSans-75" x="348.193"/><use xlink:href="#DejaVuSans-6d" x="411.572"/><use xlink:href="#DejaVuSans-62" x="508.984"/><use xlink:href="#DejaVuSans-65" x="572.461"/><use xlink:href="#DejaVuSans-72" x="633.984"/><use xlink:href="#DejaVuSans-20" x="675.098"/><use xlink:href="#DejaVuSans-6f" x="706.885"/><use xlink:href="#DejaVuSans-66" x="768.066"/><use xlink:href="#DejaVuSans-20" x="803.271"/><use xlink:href="#DejaVuSans-71" x="835.059"/><use xlink:href="#DejaVuSans-75" x="898.535"/><use xlink:href="#DejaVuSans-65" x="961.914"/><use xlink:href="#DejaVuSans-73" x="1023.438"/><use xlink:href="#DejaVuSans-74" x="1075.537"/><use xlink:href="#DejaVuSans-69" x="1114.746"/><use xlink:href="#DejaVuSans-6f" x="1142.529"/><use xlink:href="#DejaVuSans-6e" x="1203.711"/><use xlink:href="#DejaVuSans-73" x="1267.09"/><use xlink:href="#DejaVuSans-20" x="1319.189"/><use xlink:href="#DejaVuSans-6f" x="1350.977"/><use xlink:href="#DejaVuSans-6e" x="1412.158"/><use xlink:href="#DejaVuSans-20" x="1475.537"/><use xlink:href="#DejaVuSans-53" x="1507.324"/><use xlink:href="#DejaVuSans-74" x="1570.801"/><use xlink:href="#DejaVuSans-61" x="1610.01"/><use xlink:href="#DejaVuSans-63" x="1671.289"/><use xlink:href="#DejaVuSans-6b" x="1726.27"/><use xlink:href="#DejaVuSans-4f" x="1784.18"/><use xlink:href="#DejaVuSans-76" x="1862.891"/><use xlink:href="#DejaVuSans-65" x="1922.07"/><use xlink:href="#DejaVuSans-72" x="1983.594"/><use xlink:href="#DejaVuSans-66" x="2024.707"/><use xlink:href="#DejaVuSans-6c" x="2059.912"/><use xlink:href="#DejaVuSans-6f" x="2087.695"/><use xlink:href="#DejaVuSans-77" x="2148.877"/></g><path d="m40.922 320.019 1.644.953 2.133.543 2.134-.052 2.168.589 4.126-1.146 2.133-.642 2.134-.437 2.133-.24 2.133-2.182 2.168 1.8 2.133-.936 2.134.87 2.133-.228 2.133.13 4.232.634 2.063-1.288 2.133 1.032 2.133-1.687 2.133-.342 2.134-.149 2.168 1.211 2.133.189 2.133-.45 2.133-.091 2.134.549 2.168-1.964 2.063.381 2.063-.217 2.134-.98 2.133.194 2.133-.939 4.301.285 2.134 2.048 2.133-.477 2.133-1.01 2.133.519 2.168-.687 2.099-1.962 2.098 1.143 2.133-1.583 2.133 1.223 2.133-.006 2.134-3.2 2.168 1.047 2.133 2.762 2.133-1.748 2.133-.687 2.134 1.243 2.168-2.356 2.063-.191 2.063-3.67 2.134.105 2.133 1.237 2.133.69 2.133-1.934 2.168 3.272 2.134-1.507 2.133-3.794 2.133 2.205 2.133 1.558 2.168-1.014 2.064-3.851 2.063 2.378 2.133-.931 2.133 4.956 2.134-.324 2.133-1.934 2.168 2.455 2.133 1.542 2.133-.92 2.134.142 2.133 1.297 2.168-3.6 2.063.7 2.064-1.583 2.133.82 2.133-.329 2.133-2.918 2.133.987 2.169 2.88 2.133-.249 2.133-.667 2.133 2.764 2.133-1.553 2.169-1.964 2.098-3.078 2.098 2.49 2.133 1.298 2.133.108 2.134-3.083 2.133 2.658 2.168-1.113 2.133 2.681 2.133-1.7 2.134 1.126 2.133 1.624 2.168-.982 2.063-1.92 2.064.677 2.133 1.716 2.133-3.516 2.133-1.285 2.133.696 2.169 1.669 2.133 3.18 2.133-.857 2.133.08 2.133 2.243 2.169-1.407 2.063.354 4.196-.616 2.134.164 2.133-.13 2.133-.72 2.168-1.506 2.133 1.753 2.134-.477 2.133.206 2.133 3.1 2.168-3.47 2.063-.84 2.064 1.43 6.4.964 2.133-1.39 2.168 2.847 2.133-.646 2.133-1.939 2.133-.022 2.134 1.69 2.168-.784 2.098-.93 2.098 2.566 2.133-4.57 2.134 1.886 2.133-.602 4.301 4.038 2.133-.183 2.134 2.114 2.133-.626 2.133 1.215 2.168-1.276 2.063-1.507 2.064-.358 2.133 1.79 2.133.795 2.133-1.234 2.134.776 2.168 1.57 2.133-.52 2.133 1.273 2.133-1.104 2.134.58 2.168.164 2.063-1.848 2.063-.312 2.133 1.146 2.134.556 2.133-.387 2.133.91 2.168-1.374 2.134.531h0" clip-path="url(#p567e7a31f5)" style="fill:none;stroke:#bcbd22;stroke-width:1.5;stroke-linecap:square" id="line2d_23"/><path d="m61.66 323.95 14.933-.145 4.196-.058 6.4-.157 2.168.033 4.266-.23 2.133-.018 2.134.117 2.168-.917 2.063.18 2.063-.081 2.134-.415 2.133.382 2.133-1.126 2.133.144 2.168.327 2.134-.268 4.266.034 2.133-.551 2.168.164 2.099-.424 2.098.293 4.266-1.31 2.133-.133 2.134.985 2.168-.819 2.133.713 2.133-1.072 2.133.835 2.134.179 2.168.458 4.126-1.145 4.267-.622 2.133.623 2.133.359 2.168-.818 2.134.222 2.133-.811 2.133-.44 2.133.538 2.168-.098 2.064.18 2.063-1.555 2.133.394 2.133 1.897 4.267-.982 2.168-.196 2.133.33 2.133.095 2.134.276 2.133.51 2.168-1.015 2.063-.768 2.064-.312 2.133.165 2.133-.328 2.133-.044 4.302-.447 2.133.075 8.568 1.005 2.098-.994 2.098-.25 2.133.307 2.133-.241 2.134.342 2.133 1.36 2.168-.917 2.133.03 2.133 1.312 2.134-1.48 2.133.825 2.168-.85 2.063-.5 2.064 1.056 2.133-.227 2.133-.951 2.133.511 2.133.241 2.169-.262 2.133.664 2.133.416 2.133-.687 2.133 1.342 2.169-1.08 2.063-.08 2.063-.804 6.4-.088 2.133-1.122 2.168-1.342 2.133 1.01 2.134-.421 2.133-.052 2.133 2.768 2.168-2.029 2.063.304 2.064-.566 2.133-.275 2.133.799 2.133.588 2.134-1.308 2.168-.196 2.133.895 2.133-.012 2.133-1.002 2.134.577 4.266-1.054 2.098-.844 2.133-1.486 2.134.7 2.133-.328 2.133.263 2.168.982 2.133-.061 2.134.813 4.266.95 2.168-.459 2.063.01 4.197-1.923 2.133 2.47 2.133-.982 2.134.949 2.168.36 2.133-.295 2.133.917 2.133-1.627 2.134 1.136 2.168-1.113 2.063-.11 2.063.895 2.133-.03 2.134-.166 2.133.876 4.301-2.708 2.134 2.1h0" clip-path="url(#p567e7a31f5)" style="fill:none;stroke:#7f7f7f;stroke-width:1.5;stroke-linecap:square" id="line2d_24"/><path d="m40.922 322.492 1.644.378 2.133.133 2.134.26 4.231-1.233 2.063-.044 2.133-1.147 2.134-.325 6.434-.524 2.133.477 2.134-.935 2.133-.282 2.133-.078 2.168-.294 2.064-1.268 2.063-.107 2.133-.35 2.133-.828 2.133.558 2.134-2.194 2.168-.36 2.133 1.133 2.133-1.526 2.133-1.957 2.134.714 2.168-.557 2.063-3.403 2.063-2.814 2.134.177 2.133.837 2.133-3.17 2.133.814 2.168.098 2.134-.372 2.133 2.434 2.133-3.685 2.133 3.914 2.168-2.52 2.099-5.962 2.098-1.597 2.133 1.668 2.133 1.474 2.133.014 2.134-1.356 2.168-.458 2.133 3.2 2.133-1.564 2.133-.972 2.134.285 2.168-1.473 2.063.304 2.063-1.613 2.134.062 2.133.396 2.133 3.797 2.133-5.433 2.168 2.324 2.134-.035 2.133-3.467 2.133-1.166 2.133 3.424 2.168-4.287 2.064-2.081 2.063.183 2.133-.823 2.133 7.27 2.134 2.096 2.133-3.732 2.168 4.221 2.133-1.402 2.133 2.187 2.134-1.409 2.133 2.816 2.168-3.305 2.063-1.11 2.064-4.715 2.133-1.632 2.133 7.588 2.133-.96 2.133.404 2.169.556 2.133-.927 2.133 1.45 2.133 1.762 2.133.268 2.169-1.407 2.098-3.414 2.098-1.757 2.133-1.602 2.133 3.042 2.134 4.194 2.133-.758 2.168 2.847 2.133-2.021 2.133.058 2.134.922 2.133.681 2.168-1.374 4.127-1.898 2.133-1.602 2.133.358 2.133 4.41 2.133.433 2.169.622 2.133.839 2.133 1.255 2.133-2.946 2.133 3.274 2.169-.426 2.063-1.872 2.063 2.003 2.133-1.559 2.134 1.69 2.133 2.064 2.133-1.082 2.168-2.39 2.133.192 2.134-1.467 2.133.216 2.133 4.365 2.168-2.094 2.063-3.279 2.064 1.053 2.133 1.307 2.133 2.097 2.133.778 2.134-1.793 2.168 1.244 2.133.177 2.133-2.468 2.133-1.421 2.134 3.057 2.168-1.669 2.098-3.222 2.098 1.03 2.133-5.181 2.134-.906 2.133 4.287 2.133 1.964 2.168.458 2.133 1.095 2.134 1.326 2.133-1.833 2.133 2.782 2.168-2.323 2.063-.063 2.064-.264 2.133.341 2.133 1.884 2.133.618 4.302 2.033 2.133-.646 2.133 1.496 2.133.736 2.134.312 2.168-1.31 2.063.198 2.063-1.441 2.133.786 2.134 1.276 2.133 1.599 2.133.397 2.168-.655 2.134 2.354h0" clip-path="url(#p567e7a31f5)" style="fill:none;stroke:#e377c2;stroke-width:1.5;stroke-linecap:square" id="line2d_25"/><path d="M74.53 323.95h25.528l2.063-.181 2.063.115 2.134-.002 2.133-.194 10.7-.065 2.134-.485 2.133.321 2.168-.49 2.099.106 2.098-.107 2.133-.337 2.133-.514 2.133.074 2.134.188 2.168-.982 2.133-.152 2.133-.633 2.133-.179 2.134.997 2.168-1.276 2.063.426 2.063-.982 2.134-.788 2.133.493 2.133-.797 2.133-.545 2.168.328 2.134.555 2.133-.72 2.133-.43 2.133 1.282 2.168-3.207 2.064-2.109 2.063.767 2.133-1.704 2.133.133 2.134 1.186 2.133-1.578 2.168-.95 2.133.905 2.133 1.026 2.134-1.567 2.133.03 2.168-1.67 2.063-3.027 2.064-.965 2.133 1.067 2.133-1.001 2.133-1.535 4.302.422 2.133.017 2.133.703 2.133-3.07 2.133 3.463 2.169-3.044 2.098-3.315 2.098 1.025 2.133.722 2.133.554 2.134-.994 2.133 2.924 2.168-.687 2.133.84 2.133 1.19 2.134-1.596 2.133 2.839 2.168-3.698 2.063-4.375 2.064 3.851 2.133 2.127 2.133-1.898 2.133-.097 2.133 2.192 2.169-2.618 2.133 2.388 4.266 2.13 2.133 3.368 2.169-1.374 2.063-3.366 2.063.486 2.133.074 2.134-1.252 2.133.001 2.133-1.768 2.168-3.043 2.133 2.309 2.134-2.277 2.133-.496 2.133 7.925 2.168-3.6 2.063-4.12 2.064 1.568 2.133 1.101 2.133-.84 2.133-.242 2.134-2.016 2.168 1.997 2.133-2.686 2.133 1.05 2.133-.17 2.134 3.867 2.168-1.21 2.098-1.86 2.098 1.532 2.133-2.465 2.134-.775 2.133-.476 2.133.706 2.168 2.65 2.133.363 2.134.913 2.133.305 2.133 1.692 2.168.556 2.063-3.205 2.064-1.278 2.133.815 2.133 1.41 2.133-.362 2.134 1.965 2.168.557 2.133.96 2.133 2.868 2.133-.433 2.134.924 2.168-.981 2.063-2.35 2.063-.137 2.133 1.293 2.134-.475 2.133.07 2.133 1.304 2.168.59 2.134-.069h0" clip-path="url(#p567e7a31f5)" style="fill:none;stroke:#8c564b;stroke-width:1.5;stroke-linecap:square" id="line2d_26"/><path d="m40.922 314.503 1.644 3.262 2.133 1.857 2.134.597L49 319.99l2.063-.895 2.063.143 2.133-.191 2.134-2.035 2.133-1.38 2.133-.55 2.168-.688 2.133 1.102 2.134-1.298 2.133-.73 2.133 1.58 2.168.394 2.064-1.782 2.063-.967 2.133 1.45 2.133.939 2.133-4.117 2.134 2.35 2.168-2.651 2.133 2.33 2.133-.792 2.133-2.42 2.134 1.438 2.168-2.52 2.063-.728 2.063-1.595 2.134.868 2.133-.246 4.266.785 2.168-1.669 2.134-3.705 2.133 1.938 2.133-3.629 2.133 3.302 2.168.13 2.099-4.793 2.098.703 2.133 1.91 2.133-1.615 2.133 1.817 2.134-3.093 2.168-1.08 2.133.656 2.133-2.227 2.133-4.908 2.134 8.148 2.168-3.076 2.063-4.997 2.063 4.735 2.134-6.5 4.266 2.84 2.133-1.936 2.168 2.389 4.267-9.556 2.133 1.9 2.133 4.416 2.168-1.93 2.064-6.43 2.063-.443 2.133-1.564 2.133 5.884 2.134 4.294 2.133-2.625 2.168 4.09 2.133-6.266 2.133.572 2.134-2.906 2.133 6.604 2.168.655 2.063-6.157 2.064-2.024 2.133-1.276 2.133 2.945 2.133.606 2.133-1.425 2.169 3.764 2.133-1.967 2.133 1.443 2.133-3.472 2.133 5.501 2.169-.033 2.098-6.87 2.098-.002 2.133-.118 2.133 4.241 2.134-1.197 2.133 6.466 2.168-1.767 2.133-.81 2.133-4.786 2.134 1.708 2.133 4.87 2.168-2.847 2.063-2.443 2.064-4.495 2.133 4.408 2.133-2.64 2.133 3.418 2.133.835 2.169.131 2.133 2.72 2.133-4.16 2.133.068 2.133 7 2.169-2.126 2.063-3.927 2.063-.164 2.133-.546 2.134.055 2.133 3.53 2.133-1.86 2.168-1.08 2.133 4.698 2.134-7.873 2.133.129 2.133 5.925 2.168 2.716 2.063-6.508 2.064.127 2.133-.062 2.133-.756 2.133 5.693 2.134-4.22 2.168 4.974 4.266-8.705 2.133 1.594 2.134 3.707 2.168 1.015 2.098-5.782 2.098 1.462 2.133-7.233 2.134 3.895 2.133-1.968 2.133 6.811 2.168 5.007 2.133-1.707 2.134-4.118 2.133 2.867 2.133 6.656 2.168.425 2.063-6.023 2.064-.096 2.133-3.16 2.133 2.931 2.133 4.103 2.134 2.835 2.168-1.146 2.133.069 2.133 2.647 2.133-2.241 2.134 4.86 2.168-.034 2.063-2.326 2.063-1.568 2.133.319 2.134-1.268 2.133 5.46 2.133-.224 2.168.655 2.134.415h0" clip-path="url(#p567e7a31f5)" style="fill:none;stroke:#9467bd;stroke-width:1.5;stroke-linecap:square" id="line2d_27"/><path d="m40.922 298.272 1.644 8.629 2.133 3.557 2.134 1.253 2.168-5.76 2.063-.95 2.063-1.635 2.133-2.478 2.134-1.416 2.133-1.255 2.133-3.817 2.168 3.436 2.133-3.407 2.134.364 2.133.11 2.133 1.984 2.168-3.141 2.064-2.114 2.063 3.128 2.133 1.259 2.133-1.16 2.133-.463 2.134-3.563 2.168-2.16 2.133-.229 2.133-1.44 2.133-.86 2.134 4.558 2.168-3.01 2.063-5.262 2.063-4.196 2.134 4.225 2.133.52 2.133.258 2.133.495 2.168-2.422 2.134.777 2.133 4.525 2.133-6.182 2.133 4.644 2.168-2.684 2.099-5.84 2.098-1.26 2.133 2.3 2.133-5.41 2.133-2.063 2.134 1.932 2.168-2.061 2.133.906 2.133-5.03 2.133-1.699 2.134 9.52 2.168-12.99 2.063-3.336 2.063-3.57 2.134-1.628 2.133 2.676 2.133-.952 2.133-10.665 2.168 4.286 4.267-13.187 2.133 6.345 2.133 2.097 2.168-8.966 2.064-7.413 2.063 4.599 2.133-6.143 2.133 15.927 2.134-1.961 2.133-6.122 2.168 6.054 2.133 2.435 2.133-1.158 2.134-5.571 2.133 12.966 2.168-9.98 2.063-8.764 2.064-3.803 2.133 3.427 2.133 3.805 2.133-8.742 2.133 2.852 2.169 2.29 2.133 4.596 2.133 2.833 2.133.785 2.133-.818 2.169-3.436 2.098-7.044 2.098-1.987 2.133 1.146 2.133 3.599 2.134-10.058 2.133 8.781 2.168-3.272 2.133-1.519 2.133 11.303 2.134-8.056 2.133 11.034 2.168-5.923 2.063-10.705 2.064-7.162 2.133 12.925 2.133-2.65 2.133 5.76 2.133.556 2.169-5.858 2.133 9.327 2.133-.72 2.133-3.71 2.133 18.894 2.169-9.883 2.063-4.654 2.063 7.043 2.133.909 2.134.367 2.133 2.27 2.133-4.135 2.168-1.145 2.133 5.145 2.134-8.712 2.133 8.746 2.133 9.906 2.168-10.013 2.063-10.888 2.064 7.975 2.133-2.56 2.133 7.665 2.133 6.064 2.134-11.038 2.168 5.858 2.133.987 2.133-5.34 2.133-3.012 2.134 15.84 4.266-14.933 2.098 2.335 2.133-4.662 2.134 7.64 2.133-2.433 2.133 5.901 2.168 9.163 2.133-1.673 2.134 2.557 2.133 2.92 2.133 9.057 2.168-10.898 2.063-2.27 2.064.307 2.133 5.428 2.133 6.287 2.133-4.9 2.134 8.074 2.168-1.636 2.133-2.482 2.133 3.104 2.133 2.88 2.134 2.585 2.168-2.978 2.063-4.64 2.063.713 2.133 3.442 2.134.681 2.133 7.4 2.133-2.491 2.168-4.712 2.134 1.083h0" clip-path="url(#p567e7a31f5)" style="fill:none;stroke:#d62728;stroke-width:1.5;stroke-linecap:square" id="line2d_28"/><path d="m55.26 323.95 2.134-.066 2.133.066 6.434-.135 2.134.07 2.133-.341 2.133.013 2.168-.72 2.064-.336 2.063.14 2.133-.078 2.133-.708 2.133-.475 2.134.181 2.168-1.244 2.133-.12 2.133-.73 2.133-.082 2.134-1.096 2.168-1.473 2.063-1.127 2.063.047 2.134-.578 2.133-.207 2.133-.807 2.133-1.386 2.168.066 2.134-.202 2.133-2.154 2.133-1.6 2.133 1.24 2.168-3.044 2.099-.36 2.098-2.061 2.133-2.571 2.133 2.276 2.133-.078 2.134-1.165 2.168-2.258 2.133 1.698 4.266-2.097 2.134 3.213 2.168-4.909 2.063-1.721 2.063.02 2.134-.694 2.133-1.826 2.133 2.468 2.133-3.744 2.168-2.226 2.134 1.642 2.133-1.053 2.133 1.188 2.133 1.332 2.168-4.68 2.064-6.05 2.063 1.96 2.133.202 2.133 4.74 2.134-3.421 2.133-.146 2.168 3.665 2.133-4.5 2.133 1.03 2.134-1.131 2.133 1.786 2.168-.752 2.063-7.925 2.064 3.605 2.133-9.902 2.133 1.296 2.133-1.803 2.133 2.032 2.169 3.469 2.133-1.038 2.133.71 2.133-.575 2.133 1.328 2.169-6.938 2.098-6.058 2.098 7.662 2.133-.322 2.133.65 2.134-3.118 2.133 5.931 2.168-3.73 2.133 3.682 2.133 1.227 2.134-3.966 2.133 4.62 2.168-8.312 2.063 1.362 2.064-.38 2.133 5.044 2.133-.823 2.133 4.035 2.133.448 2.169-1.276 2.133 4.784 2.133-2.657 2.133-3.53 2.133 4.185 2.169-9.261 2.063 2.619 2.063.162 4.267 10.897 2.133 2.725 2.133-12.902 2.168-5.661 2.133 3.144 2.134-2.555 2.133 3.873 2.133 2.966 2.168-3.37 2.063-4.496 2.064 4.529 2.133-1.522 2.133-.05 2.133.76 2.134-2.624 2.168 4.057 2.133-1.196 2.133-2.73 2.133-1.903 2.134 3.539 2.168-8.476 2.098.875 2.098-3.33 2.133-20.066 2.134 1.218 2.133 2.13 2.133 6.476 2.168 3.763 2.133 1.461 2.134 8.39 2.133-1.12 2.133 3.64 2.168-4.713 2.063-1.912 2.064-1.36 2.133.085 2.133 4.823 2.133-2.321 2.134 7.033 2.168-.818 2.133-1.718 2.133 4.892 2.133.688 2.134 1.243 2.168-1.538 2.063-1.952 2.063-2.793 2.133 2.977 2.134-2.355 2.133 5.23 2.133-.19 2.168-3.6 2.134 6.258h0" clip-path="url(#p567e7a31f5)" style="fill:none;stroke:#2ca02c;stroke-width:1.5;stroke-linecap:square" id="line2d_29"/><path d="m40.922 321.54 1.644.806 2.133.556 2.134.066L49 322.15l4.126.13 2.133-.494 2.134.004 2.133-.173 2.133-1.594 2.168-.59 2.133.932 2.134.541 2.133-.033 2.133-.556 2.168-1.243 2.064.347 2.063-1.067 2.133.828 4.266-3.212 2.134 2.482 2.168-1.505 4.266.556 2.133-1.06 4.302-.249 2.063-3.113 2.063-.683 2.134 2.151 2.133-1.987 2.133 1.75 2.133-1.783 2.168-.458 2.134.788 2.133-.1 2.133-1.253 2.133.336 2.168-.164 2.099-3.26 2.098.479 2.133-1.888 2.133.382 2.133.564 2.134.025 2.168-2.29 2.133.879 2.133-3.3 2.133 1.271 2.134 1.117 2.168-5.53 2.063 1.07 2.063 1.417 2.134-.711 2.133.22 2.133-.39 2.133-1.835 2.168.032 2.134.992 2.133-2.17 2.133-1.482 2.133-.023 2.168-2.356 2.064-6.157 2.063-.42 2.133 3.072 2.133 1.803 2.134.226 2.133-1.437 2.168 4.81 2.133-4.286 2.133.23 2.134.954 2.133 1.63 2.168-3.73 2.063-1.548 2.064.926 2.133-3.568 2.133.263 2.133-1.514 2.133-2.02 2.169 2.683 4.266-1.21 2.133 1.798 2.133-.588 2.169-1.538 2.098-7.425 2.098 3.433 2.133 1.79 2.133-.252 2.134-4.246 2.133 8.402 2.168-5.727 2.133 4.257 2.133-1.181 2.134-1.727 2.133 1.662 2.168-2.258 2.063-2.829 2.064-1.524 2.133 1.872 2.133-5.373 2.133 4.426 2.133 1.89 2.169-.033 2.133 3.757 2.133-3.954 2.133-2.708 2.133 9.09 2.169-6.578 2.063.91 2.063.105 2.133.396 2.134-1.05 2.133 2.504 2.133-3.094 2.168-1.473 2.133.847 2.134-3.563 2.133-.427 2.133 9.034 2.168-5.04 2.063-2.514 2.064-4.685 2.133-.752 2.133 3.108 2.133 6.022 2.134-11.29 2.168 7.395 2.133-2.665 2.133-5.385 2.133-.093 2.134 4.969 2.168-7.657 2.098-4.897 2.098-.896 2.133-6.194 2.134.304 2.133-3.01 2.133 3.86 2.168 4.484 2.133-1.107 2.134 1.467 2.133.697 2.133 10.004 2.168-7.429 2.063-6.068 2.064-1.982 2.133 4.528 2.133 1.232 2.133-1.367 2.134 5.36 2.168-1.244 2.133 1.294 2.133-1.883 2.133-.957 2.134 6.52 2.168.556 2.063-6.658 2.063.31 2.133 4.615 2.134-4.354 2.133 5.977 2.133-2.05 2.168-3.469 2.134.75h0" clip-path="url(#p567e7a31f5)" style="fill:none;stroke:#ff7f0e;stroke-width:1.5;stroke-linecap:square" id="line2d_30"/><path d="m40.922 312.03 1.644 3.019 2.133-1.142 2.134.782L49 311.776l2.063-.905 2.063-2.4 2.133-1.057 2.134-2.215 2.133-4.886 2.133-5.39 2.168-4.057 2.133-.528 2.134-3.988 2.133-1.794 2.133-1.086 2.168-4.778 2.064-3.11 2.063-6.085 2.133.18 2.133-.507 2.133-5.749 2.134.971 2.168-6.348 2.133 2.807 2.133-2.546 2.133-10.472 2.134 3.306 2.168-19.536 2.063-11.887 2.063-9.057 2.134-.429 2.133 7.563 2.133-8.881 2.133-2.376 2.168-9.654 2.134 9.324 2.133 3.504 2.133-15.643 2.133 13.712 4.267-31.938 2.098-8.574 2.133-.827 2.133 2.856 2.133-7.353 2.134-7.962 2.168 5.465 2.133 7.028 2.133-12.33 2.133-4.51 2.134 14.982 2.168-29.026 2.063-10.472 2.063-7.788 2.134-2.897 2.133 20.372 2.133 3.23 2.133-14.39 2.168-4.155 2.134-6.443 2.133-8.872 2.133-2.456 2.133 9.459 2.168-25.917 2.064-21.77 2.063-5.653 2.133 2.255 2.133 43.035 2.134 20.367 2.133-3.481 2.168 17.932 2.133-13.605 2.133-4.262 2.134-2.13 2.133 17.314 2.168-7.003 2.063-20.713 2.064-2.75 2.133-4.127 2.133 13.257 2.133-5.31 2.133-7.289 2.169 25.656 2.133-9.61 2.133 4.996 2.133-.633 2.133 4.494 2.169-4.516 2.098-18.355 2.098-2.915 2.133-3.731 2.133 18.522 2.134 6.704 2.133 21.766 2.168-5.989 2.133 7.25 2.133 6.723 2.134-7.33 2.133 15.871 2.168-14.627 2.063-21.826 2.064-14.989 2.133 22.146 2.133 8.157 2.133 6.417 2.133 3.105 2.169 4.222 2.133 4.643 2.133 8.086 2.133-9.134 2.133 31.354 2.169-10.668 2.063-3.414 2.063 2.04 2.133-2.134 2.134 9.333 2.133 7.236 2.133-1.804 2.168 4.549 2.133 2.429 2.134-7.698 2.133-1.804 2.133 20.424 2.168-10.733 2.063-11.585 2.064-6.25 2.133 9.09 2.133 11.264 2.133 14.842 2.134-29.437 2.168 19.144 2.133-3.132 2.133-14.67 2.133-10.116 2.134 26.904 2.168-7.592 2.098-13.09 2.098-2.716 2.133-20.887 2.134 6.783 2.133 14.893 2.133 9.813 2.168 14.857 2.133-.222 2.134 9.974 2.133-5.376 2.133 22.883 2.168-17.867 2.063-.651 2.064-8.544 2.133 2.793 2.133 8.398 2.133 2.524 2.134 11.351 2.168 4.68 2.133-3.283 2.133 4.69 2.133.112 2.134 3.717 2.168-1.604 2.063-7.371 2.063 2.659 2.133.435 2.134-6.293 2.133 21.442 2.133-5.047 2.168-2.749 2.134 6.646h0" clip-path="url(#p567e7a31f5)" style="fill:none;stroke:#1f77b4;stroke-width:1.5;stroke-linecap:square" id="line2d_31"/></g></g><defs><clipPath id="p567e7a31f5"><path d="M40.922 57.838h357.12V323.95H40.922z"/></clipPath></defs></svg>