<svg xmlns:xlink="http://www.w3.org/1999/xlink" width="677.207" height="516.567" viewBox="0 0 507.905 387.425" xmlns="http://www.w3.org/2000/svg"><defs><style>*{stroke-linejoin:round;stroke-linecap:butt}</style></defs><g id="figure_1"><path d="M0 387.425h507.905V0H0v387.425z" style="fill:none" id="patch_1"/><g id="axes_1"><path d="M40.922 323.95h357.12V57.838H40.923V323.95z" style="fill:none" id="patch_2"/><g id="matplotlib.axis_1"><g id="xtick_1"><g id="line2d_1"><defs><path id="mf865aa41cf" d="M0 0v3.5" style="stroke:#b0b0b0;stroke-width:.4"/></defs><use xlink:href="#mf865aa41cf" x="73.641" y="323.95" style="fill:#b0b0b0;stroke:#b0b0b0;stroke-width:.4"/></g><g style="fill:#b0b0b0" transform="matrix(.14 0 0 -.14 55.826 341.588)" id="text_1"><defs><path id="DejaVuSans-32" d="M1228 531h2203V0H469v531q359 372 979 998 621 627 780 809 303 340 423 576 121 236 121 464 0 372-261 606-261 235-680 235-297 0-627-103-329-103-704-313v638q381 153 712 231 332 78 607 78 725 0 1156-363 431-362 431-968 0-288-108-546-107-257-392-607-78-91-497-524-418-433-1181-1211z" transform="scale(.01563)"/><path id="DejaVuSans-30" d="M2034 4250q-487 0-733-480-245-479-245-1442 0-959 245-1439 246-480 733-480 491 0 736 480 246 480 246 1439 0 963-246 1442-245 480-736 480zm0 500q785 0 1199-621 414-620 414-1801 0-1178-414-1799Q2819-91 2034-91q-784 0-1198 620-414 621-414 1799 0 1181 414 1801 414 621 1198 621z" transform="scale(.01563)"/><path id="DejaVuSans-31" d="M794 531h1031v3560L703 3866v575l1116 225h631V531h1031V0H794v531z" transform="scale(.01563)"/></defs><use xlink:href="#DejaVuSans-32"/><use xlink:href="#DejaVuSans-30" x="63.623"/><use xlink:href="#DejaVuSans-31" x="127.246"/><use xlink:href="#DejaVuSans-30" x="190.869"/></g></g><g id="xtick_2"><use xlink:href="#mf865aa41cf" x="125.005" y="323.95" style="fill:#b0b0b0;stroke:#b0b0b0;stroke-width:.4" id="line2d_2"/><g style="fill:#b0b0b0" transform="matrix(.14 0 0 -.14 107.19 341.588)" id="text_2"><use xlink:href="#DejaVuSans-32"/><use xlink:href="#DejaVuSans-30" x="63.623"/><use xlink:href="#DejaVuSans-31" x="127.246"/><use xlink:href="#DejaVuSans-32" x="190.869"/></g></g><g id="xtick_3"><use xlink:href="#mf865aa41cf" x="176.439" y="323.95" style="fill:#b0b0b0;stroke:#b0b0b0;stroke-width:.4" id="line2d_3"/><g style="fill:#b0b0b0" transform="matrix(.14 0 0 -.14 158.624 341.588)" id="text_3"><defs><path id="DejaVuSans-34" d="M2419 4116 825 1625h1594v2491zm-166 550h794V1625h666v-525h-666V0h-628v1100H313v609l1940 2957z" transform="scale(.01563)"/></defs><use xlink:href="#DejaVuSans-32"/><use xlink:href="#DejaVuSans-30" x="63.623"/><use xlink:href="#DejaVuSans-31" x="127.246"/><use xlink:href="#DejaVuSans-34" x="190.869"/></g></g><g id="xtick_4"><use xlink:href="#mf865aa41cf" x="227.803" y="323.95" style="fill:#b0b0b0;stroke:#b0b0b0;stroke-width:.4" id="line2d_4"/><g style="fill:#b0b0b0" transform="matrix(.14 0 0 -.14 209.988 341.588)" id="text_4"><defs><path id="DejaVuSans-36" d="M2113 2584q-425 0-674-291-248-290-248-796 0-503 248-796 249-292 674-292t673 292q248 293 248 796 0 506-248 796-248 291-673 291zm1253 1979v-575q-238 112-480 171-242 60-480 60-625 0-955-422-329-422-376-1275 184 272 462 417 279 145 613 145 703 0 1111-427 408-426 408-1160 0-719-425-1154Q2819-91 2113-91q-810 0-1238 620-428 621-428 1799 0 1106 525 1764t1409 658q238 0 480-47t505-140z" transform="scale(.01563)"/></defs><use xlink:href="#DejaVuSans-32"/><use xlink:href="#DejaVuSans-30" x="63.623"/><use xlink:href="#DejaVuSans-31" x="127.246"/><use xlink:href="#DejaVuSans-36" x="190.869"/></g></g><g id="xtick_5"><use xlink:href="#mf865aa41cf" x="279.237" y="323.95" style="fill:#b0b0b0;stroke:#b0b0b0;stroke-width:.4" id="line2d_5"/><g style="fill:#b0b0b0" transform="matrix(.14 0 0 -.14 261.422 341.588)" id="text_5"><defs><path id="DejaVuSans-38" d="M2034 2216q-450 0-708-241-257-241-257-662 0-422 257-663 258-241 708-241t709 242q260 243 260 662 0 421-258 662-257 241-711 241zm-631 268q-406 100-633 378-226 279-226 679 0 559 398 884 399 325 1092 325 697 0 1094-325t397-884q0-400-227-679-226-278-629-378 456-106 710-416 255-309 255-755 0-679-414-1042Q2806-91 2034-91q-771 0-1186 362-414 363-414 1042 0 446 256 755 257 310 713 416zm-231 997q0-362 226-565 227-203 636-203 407 0 636 203 230 203 230 565 0 363-230 566-229 203-636 203-409 0-636-203-226-203-226-566z" transform="scale(.01563)"/></defs><use xlink:href="#DejaVuSans-32"/><use xlink:href="#DejaVuSans-30" x="63.623"/><use xlink:href="#DejaVuSans-31" x="127.246"/><use xlink:href="#DejaVuSans-38" x="190.869"/></g></g><g id="xtick_6"><use xlink:href="#mf865aa41cf" x="330.601" y="323.95" style="fill:#b0b0b0;stroke:#b0b0b0;stroke-width:.4" id="line2d_6"/><g style="fill:#b0b0b0" transform="matrix(.14 0 0 -.14 312.786 341.588)" id="text_6"><use xlink:href="#DejaVuSans-32"/><use xlink:href="#DejaVuSans-30" x="63.623"/><use xlink:href="#DejaVuSans-32" x="127.246"/><use xlink:href="#DejaVuSans-30" x="190.869"/></g></g><g id="xtick_7"><use xlink:href="#mf865aa41cf" x="382.035" y="323.95" style="fill:#b0b0b0;stroke:#b0b0b0;stroke-width:.4" id="line2d_7"/><g style="fill:#b0b0b0" transform="matrix(.14 0 0 -.14 364.22 341.588)" id="text_7"><use xlink:href="#DejaVuSans-32"/><use xlink:href="#DejaVuSans-30" x="63.623"/><use xlink:href="#DejaVuSans-32" x="127.246"/><use xlink:href="#DejaVuSans-32" x="190.869"/></g></g></g><g id="matplotlib.axis_2"><g id="ytick_1"><path d="M40.922 323.95h357.12" clip-path="url(#p5a9233a19c)" style="fill:none;stroke:#b0b0b0;stroke-width:.3;stroke-linecap:square" id="line2d_8"/><g id="line2d_9"><defs><path id="medef525801" d="M0 0h-3.5" style="stroke:#b0b0b0;stroke-width:.3"/></defs><use xlink:href="#medef525801" x="40.922" y="323.95" style="fill:#b0b0b0;stroke:#b0b0b0;stroke-width:.3"/></g><use xlink:href="#DejaVuSans-30" style="fill:#b0b0b0" transform="matrix(.14 0 0 -.14 25.015 329.269)" id="text_8"/></g><g id="ytick_2"><path d="M40.922 273.228h357.12" clip-path="url(#p5a9233a19c)" style="fill:none;stroke:#b0b0b0;stroke-width:.3;stroke-linecap:square" id="line2d_10"/><use xlink:href="#medef525801" x="40.922" y="273.228" style="fill:#b0b0b0;stroke:#b0b0b0;stroke-width:.3" id="line2d_11"/><g style="fill:#b0b0b0" transform="matrix(.14 0 0 -.14 16.108 278.546)" id="text_9"><defs><path id="DejaVuSans-35" d="M691 4666h2478v-532H1269V2991q137 47 274 70 138 23 276 23 781 0 1237-428 457-428 457-1159 0-753-469-1171Q2575-91 1722-91q-294 0-599 50Q819 9 494 109v635q281-153 581-228t634-75q541 0 856 284 316 284 316 772 0 487-316 771-315 285-856 285-253 0-505-56-251-56-513-175v2344z" transform="scale(.01563)"/></defs><use xlink:href="#DejaVuSans-35"/><use xlink:href="#DejaVuSans-30" x="63.623"/></g></g><g id="ytick_3"><path d="M40.922 222.505h357.12" clip-path="url(#p5a9233a19c)" style="fill:none;stroke:#b0b0b0;stroke-width:.3;stroke-linecap:square" id="line2d_12"/><use xlink:href="#medef525801" x="40.922" y="222.505" style="fill:#b0b0b0;stroke:#b0b0b0;stroke-width:.3" id="line2d_13"/><g style="fill:#b0b0b0" transform="matrix(.14 0 0 -.14 7.2 227.824)" id="text_10"><use xlink:href="#DejaVuSans-31"/><use xlink:href="#DejaVuSans-30" x="63.623"/><use xlink:href="#DejaVuSans-30" x="127.246"/></g></g><g id="ytick_4"><path d="M40.922 171.783h357.12" clip-path="url(#p5a9233a19c)" style="fill:none;stroke:#b0b0b0;stroke-width:.3;stroke-linecap:square" id="line2d_14"/><use xlink:href="#medef525801" x="40.922" y="171.783" style="fill:#b0b0b0;stroke:#b0b0b0;stroke-width:.3" id="line2d_15"/><g style="fill:#b0b0b0" transform="matrix(.14 0 0 -.14 7.2 177.102)" id="text_11"><use xlink:href="#DejaVuSans-31"/><use xlink:href="#DejaVuSans-35" x="63.623"/><use xlink:href="#DejaVuSans-30" x="127.246"/></g></g><g id="ytick_5"><path d="M40.922 121.06h357.12" clip-path="url(#p5a9233a19c)" style="fill:none;stroke:#b0b0b0;stroke-width:.3;stroke-linecap:square" id="line2d_16"/><use xlink:href="#medef525801" x="40.922" y="121.061" style="fill:#b0b0b0;stroke:#b0b0b0;stroke-width:.3" id="line2d_17"/><g style="fill:#b0b0b0" transform="matrix(.14 0 0 -.14 7.2 126.38)" id="text_12"><use xlink:href="#DejaVuSans-32"/><use xlink:href="#DejaVuSans-30" x="63.623"/><use xlink:href="#DejaVuSans-30" x="127.246"/></g></g><g id="ytick_6"><path d="M40.922 70.338h357.12" clip-path="url(#p5a9233a19c)" style="fill:none;stroke:#b0b0b0;stroke-width:.3;stroke-linecap:square" id="line2d_18"/><use xlink:href="#medef525801" x="40.922" y="70.338" style="fill:#b0b0b0;stroke:#b0b0b0;stroke-width:.3" id="line2d_19"/><g style="fill:#b0b0b0" transform="matrix(.14 0 0 -.14 7.2 75.657)" id="text_13"><use xlink:href="#DejaVuSans-32"/><use xlink:href="#DejaVuSans-35" x="63.623"/><use xlink:href="#DejaVuSans-30" x="127.246"/></g></g></g><path d="m40.922 323.886 1.654-.1 8.549.091 2.076-.189 6.438.025 2.146-.221 2.18-.098 2.147.218 2.146.01 2.146-.247 2.146-.505 2.181.065 2.076-.18 2.076-.049 2.146.297 2.146-.395 2.146-.72 2.146.851 2.18-1.243 4.293.49 2.146-.2 2.146.724 2.181-.622 2.076-.764 4.222-.082 2.146-1.837 4.292.818 2.18-1.08 2.147-.167 2.146.232 4.292.066 2.181-.458 2.111-.718 2.11-.068 2.147-1.15 2.146 1.281 2.146-.74 2.146.61 2.181-.917 2.146.171 2.146.385 2.146-.418 2.146-.203 2.181.883 2.076-1.825 2.076.287 2.146-.123 2.146-.368 2.146-.072 2.146-1.564 2.181 3.6 2.146-.92 2.146-.553 2.146.52 2.146 1.084 2.181-1.67 2.076-.221 2.076.745 2.146-.615 2.146 1.695 2.146.165 2.146-1.081 2.181 1.08 2.146-.405 2.146.994 2.146-1.197 2.146 1.655 2.181-1.145 2.076-.152 2.076-.568 2.146-.466 2.146 1.513 2.146-1.141 2.146-.364 2.181.163 2.146.945 2.146-.52 2.146 1.365 4.327-.383 2.111-1.516 2.111 1.19 2.146-.745 4.292-.744 2.146 1.292 2.181-.72 2.146 1.525 2.146-1.296 2.146.687 2.146 1.08 2.182-.229 2.075.381 2.076-1.69 2.146 1.236 2.146-.287 2.146.726 2.146-.039 2.181.295 2.146.083 2.146-.312 2.146.244 2.146 1.555 2.182-.621 2.075.621 2.076-1.341 2.146.598 2.146-.042 2.146-.263 2.146.198 2.181-1.604 2.146.933 2.146.31 2.146-.107 2.146.828 2.182-1.146 2.075.332 2.076-.953 2.146.871 2.146.7 2.146-.159 2.146.322 2.181-.164 2.146-.327 4.292 1.251 2.146.353 2.182-.557 2.11-1.222 2.111.928 2.146-.956 2.146.53 2.146.721 2.146-.164 2.182.098 2.146-.644 2.146.153 2.146 1.267 2.146.107 2.18.393 2.077-1.46 2.075.707 4.292.393 2.146-.41 2.146.574 2.182-.393 2.146-.046 2.146.864 2.146.05 2.146-.639 4.257.856 2.075-.398 4.292.197 2.146-.626 2.146-.258 2.182.72h0" clip-path="url(#p5a9233a19c)" style="fill:none;stroke:#ffbb78;stroke-width:1.5;stroke-linecap:square" id="line2d_20"/><path d="m40.922 323.316 1.654.34 2.146-.18 4.327.245 2.076-.35 2.076.055 2.146-.186 2.146.12 2.146-.256 2.146.06 2.18.197 2.147-.087 2.146.054 2.146-.156 2.146.156 6.333-.524 2.146.03 2.146.33 4.292-.327 2.18.295 2.147-.366 2.146-.027 2.146.163 2.146-.032 4.257-.804 2.076.182 2.146.586 2.146-.095 2.146-.92 2.146.364 2.18-.164 2.147.105 2.146-.301 4.292.229 2.181.523 2.111-.41 2.11-.67 6.439.46 2.146-.132 2.181-.393h4.292l2.146-.118 2.146 1.002 2.181-1.506 2.076-.699 2.076.536 2.146-.313 2.146.77 2.146-.094 2.146.258 2.181-.621 2.146-.415 2.146 1.167 2.146-.795 4.327.795 2.076-1.324 2.076.539 2.146.16 2.146.364 2.146-.703 2.146.343 2.181-.295 2.146.527 2.146.128 4.292-.557 2.181.36 2.076-.359 2.076.425 2.146-1.045 2.146.783 2.146.502 2.146-.142 2.181-.884 2.146.586 2.146-.291 2.146.291 4.327.363 2.111-.751 2.111-.492 2.146.576 2.146 1.093 2.146-.552 2.146.224 2.181-.261 4.292.49 2.146-1.163 2.146 1 2.182-.458 2.075-.149 2.076.312 2.146-.3 2.146.17 2.146.507 2.146-.278 2.181.032 2.146-.769 2.146.704 2.146.21 2.146-.145 2.182-.72 2.075-.194 2.076-.46 2.146.91 6.438.137 4.327-.239 4.292-.811 2.146.886 2.182-.589 2.075.203 2.076.517 2.146.132 2.146-.164 2.146.401 2.146-.467 4.327-.514 2.146-.075 2.146.143 2.146.806 4.292-.478 2.111-.667 2.146.914 2.146-.26 2.146-.383 2.146.154 2.182.982 2.146-.256 2.146-.791 2.146.892 2.146.613 2.18-.033 2.077-.706 2.075-.406 2.146.6 2.146-.568 2.146.466 2.146.222 2.182-.262 2.146.547 2.146.173 2.146-.274 2.146-.119 2.18.23 2.077-.21 2.075.602 4.292-.295 2.146.062 2.146.298 2.182-.589h0" clip-path="url(#p5a9233a19c)" style="fill:none;stroke:#aec7e8;stroke-width:1.5;stroke-linecap:square" id="line2d_21"/><path d="M59.639 323.95h6.473l34.301-.066 2.076-.115 2.076.148 8.584-.065 6.473.065 2.146-.136 8.549.136 4.292-.033 4.292-.032 17.098-.066 2.146-.276 2.146.113 2.146-.316 2.146-.012 2.181.426 2.146-.447 6.438.12 2.181-.262 2.076.13 2.076-.392 2.146.032 2.146.262 2.146-.093 4.327.126 4.292-.654 2.146.054 2.146.207 2.181-.261 2.076.356 2.076-.913 2.146.375 2.146.247 2.146-.417 2.146-.074 2.181.753 4.292-1.113 2.146.434 4.327-.303 2.111-.772 2.111-.57 2.146.563 2.146.354 2.146-1.064 2.146.802 2.181-.098 2.146-.535 2.146.306 2.146.032 2.146-.621 2.182.425 2.075-.71 2.076-.893 2.146.65 2.146-.127 2.146.431 2.146-.202 2.181-1.047 2.146 1.114 2.146-.001 2.146-1.52 2.146 1.389 2.182.294 2.075-1.21 2.076.163 4.292-.622 2.146 1.033 2.146-1.163 2.181.327 2.146.194 2.146-.325 2.146-.79 2.146 1.968 2.182-1.636 2.075-.707 2.076.707 2.146.039 2.146.91 2.146-.437 2.146-1.265 2.181 1.342 2.146-.584 2.146-1.118 2.146.07 2.146.781 2.182-1.407 2.11.106 2.111.777 2.146-1.102 2.146-.174 2.146-.469 2.146 1.484 4.328.14 2.146 1.005 2.146-.837 2.146 1.557 2.18-1.702 2.077-1.019 2.075.921 2.146-.332 2.146.43 2.146.111 4.328.511 2.146-1.085 2.146 1.674 2.146-1.505 2.146.752 2.18-.818 2.077.61 2.075-.642 2.146 1.349 2.146-.891 2.146.587 2.146-.031 2.182.294h0" clip-path="url(#p5a9233a19c)" style="fill:none;stroke:#17becf;stroke-width:1.5;stroke-linecap:square" id="line2d_22"/><g style="fill:#1f77b4" transform="matrix(.14 0 0 -.14 408.756 223.314)" id="text_14"><defs><path id="DejaVuSans-6d" d="M3328 2828q216 388 516 572t706 184q547 0 844-383 297-382 297-1088V0h-578v2094q0 503-179 746-178 244-543 244-447 0-707-297-259-296-259-809V0h-578v2094q0 506-178 748t-550 242q-441 0-701-298-259-298-259-808V0H581v3500h578v-544q197 322 472 475t653 153q382 0 649-194 267-193 395-562z" transform="scale(.01563)"/><path id="DejaVuSans-79" d="M2059-325q-243-625-475-815-231-191-618-191H506v481h338q237 0 368 113 132 112 291 531l103 262L191 3500h609L1894 763l1094 2737h609L2059-325z" transform="scale(.01563)"/><path id="DejaVuSans-73" d="M2834 3397v-544q-243 125-506 187-262 63-544 63-428 0-642-131t-214-394q0-200 153-314t616-217l197-44q612-131 870-370t258-667q0-488-386-773Q2250-91 1575-91q-281 0-586 55T347 128v594q319-166 628-249 309-82 613-82 406 0 624 139 219 139 219 392 0 234-158 359-157 125-692 241l-200 47q-534 112-772 345-237 233-237 639 0 494 350 762 350 269 994 269 318 0 599-47 282-46 519-140z" transform="scale(.01563)"/><path id="DejaVuSans-71" d="M947 1747q0-634 261-995t717-361q456 0 718 361 263 361 263 995t-263 995q-262 361-718 361t-717-361q-261-361-261-995zM2906 525q-181-312-458-464-276-152-664-152-634 0-1033 506-398 507-398 1332t398 1331q399 506 1033 506 388 0 664-152 277-151 458-463v531h575v-4831h-575V525z" transform="scale(.01563)"/><path id="DejaVuSans-6c" d="M603 4863h575V0H603v4863z" transform="scale(.01563)"/></defs><use xlink:href="#DejaVuSans-6d"/><use xlink:href="#DejaVuSans-79" x="97.412"/><use xlink:href="#DejaVuSans-73" x="156.592"/><use xlink:href="#DejaVuSans-71" x="208.691"/><use xlink:href="#DejaVuSans-6c" x="272.168"/></g><g style="fill:#ff7f0e" transform="matrix(.14 0 0 -.14 408.756 237.314)" id="text_15"><defs><path id="DejaVuSans-70" d="M1159 525v-1856H581v4831h578v-531q182 312 458 463 277 152 661 152 638 0 1036-506 399-506 399-1331T3314 415Q2916-91 2278-91q-384 0-661 152-276 152-458 464zm1957 1222q0 634-261 995t-717 361q-457 0-718-361t-261-995q0-634 261-995t718-361q456 0 717 361t261 995z" transform="scale(.01563)"/><path id="DejaVuSans-6f" d="M1959 3097q-462 0-731-361t-269-989q0-628 267-989 268-361 733-361 460 0 728 362 269 363 269 988 0 622-269 986-268 364-728 364zm0 487q750 0 1178-488 429-487 429-1349 0-859-429-1349Q2709-91 1959-91q-753 0-1180 489-426 490-426 1349 0 862 426 1349 427 488 1180 488z" transform="scale(.01563)"/><path id="DejaVuSans-74" d="M1172 4494v-994h1184v-447H1172V1153q0-428 117-550t477-122h590V0h-590q-666 0-919 248-253 249-253 905v1900H172v447h422v994h578z" transform="scale(.01563)"/><path id="DejaVuSans-67" d="M2906 1791q0 625-258 968-257 344-723 344-462 0-720-344-258-343-258-968 0-622 258-966t720-344q466 0 723 344 258 344 258 966zm575-1357q0-893-397-1329-396-436-1215-436-303 0-572 45t-522 139v559q253-137 500-202 247-66 503-66 566 0 847 295t281 892v285q-178-310-456-463T1784 0Q1141 0 747 490 353 981 353 1791q0 812 394 1302 394 491 1037 491 388 0 666-153t456-462v531h575V434z" transform="scale(.01563)"/><path id="DejaVuSans-72" d="M2631 2963q-97 56-211 82-114 27-251 27-488 0-749-317t-261-911V0H581v3500h578v-544q182 319 472 473 291 155 707 155 59 0 131-8 72-7 159-23l3-590z" transform="scale(.01563)"/><path id="DejaVuSans-65" d="M3597 1894v-281H953q38-594 358-905t892-311q331 0 642 81t618 244V178Q3153 47 2828-22t-659-69q-838 0-1327 487-489 488-489 1320 0 859 464 1363 464 505 1252 505 706 0 1117-455 411-454 411-1235zm-575 169q-6 471-264 752-258 282-683 282-481 0-770-272t-333-766l2050 4z" transform="scale(.01563)"/></defs><use xlink:href="#DejaVuSans-70"/><use xlink:href="#DejaVuSans-6f" x="63.477"/><use xlink:href="#DejaVuSans-73" x="124.658"/><use xlink:href="#DejaVuSans-74" x="176.758"/><use xlink:href="#DejaVuSans-67" x="215.967"/><use xlink:href="#DejaVuSans-72" x="279.443"/><use xlink:href="#DejaVuSans-65" x="318.307"/><use xlink:href="#DejaVuSans-73" x="379.83"/><use xlink:href="#DejaVuSans-71" x="431.93"/><use xlink:href="#DejaVuSans-6c" x="495.406"/></g><g style="fill:#2ca02c" transform="matrix(.14 0 0 -.14 408.756 251.314)" id="text_16"><defs><path id="DejaVuSans-6e" d="M3513 2113V0h-575v2094q0 497-194 743-194 247-581 247-466 0-735-297-269-296-269-809V0H581v3500h578v-544q207 316 486 472 280 156 646 156 603 0 912-373 310-373 310-1098z" transform="scale(.01563)"/><path id="DejaVuSans-64" d="M2906 2969v1894h575V0h-575v525q-181-312-458-464-276-152-664-152-634 0-1033 506-398 507-398 1332t398 1331q399 506 1033 506 388 0 664-152 277-151 458-463zM947 1747q0-634 261-995t717-361q456 0 718 361 263 361 263 995t-263 995q-262 361-718 361t-717-361q-261-361-261-995z" transform="scale(.01563)"/><path id="DejaVuSans-62" d="M3116 1747q0 634-261 995t-717 361q-457 0-718-361t-261-995q0-634 261-995t718-361q456 0 717 361t261 995zM1159 2969q182 312 458 463 277 152 661 152 638 0 1036-506 399-506 399-1331T3314 415Q2916-91 2278-91q-384 0-661 152-276 152-458 464V0H581v4863h578V2969z" transform="scale(.01563)"/></defs><use xlink:href="#DejaVuSans-6d"/><use xlink:href="#DejaVuSans-6f" x="97.412"/><use xlink:href="#DejaVuSans-6e" x="158.594"/><use xlink:href="#DejaVuSans-67" x="221.973"/><use xlink:href="#DejaVuSans-6f" x="285.449"/><use xlink:href="#DejaVuSans-64" x="346.631"/><use xlink:href="#DejaVuSans-62" x="410.107"/></g><g style="fill:#d62728" transform="matrix(.14 0 0 -.14 408.756 265.314)" id="text_17"><defs><path id="DejaVuSans-2d" d="M313 2009h1684v-512H313v512z" transform="scale(.01563)"/><path id="DejaVuSans-76" d="M191 3500h609L1894 563l1094 2937h609L2284 0h-781L191 3500z" transform="scale(.01563)"/></defs><use xlink:href="#DejaVuSans-73"/><use xlink:href="#DejaVuSans-71" x="52.1"/><use xlink:href="#DejaVuSans-6c" x="115.576"/><use xlink:href="#DejaVuSans-2d" x="143.359"/><use xlink:href="#DejaVuSans-73" x="179.443"/><use xlink:href="#DejaVuSans-65" x="231.543"/><use xlink:href="#DejaVuSans-72" x="293.066"/><use xlink:href="#DejaVuSans-76" x="334.18"/><use xlink:href="#DejaVuSans-65" x="393.359"/><use xlink:href="#DejaVuSans-72" x="454.883"/></g><g style="fill:#9467bd" transform="matrix(.14 0 0 -.14 408.756 279.314)" id="text_18"><defs><path id="DejaVuSans-61" d="M2194 1759q-697 0-966-159t-269-544q0-306 202-486 202-179 548-179 479 0 768 339t289 901v128h-572zm1147 238V0h-575v531q-197-318-491-470T1556-91q-537 0-855 302-317 302-317 808 0 590 395 890 396 300 1180 300h807v57q0 397-261 614t-733 217q-300 0-585-72-284-72-546-216v532q315 122 612 182 297 61 578 61 760 0 1135-394 375-393 375-1193z" transform="scale(.01563)"/><path id="DejaVuSans-63" d="M3122 3366v-538q-244 135-489 202t-495 67q-560 0-870-355-309-354-309-995t309-996q310-354 870-354 250 0 495 67t489 202V134Q2881 22 2623-34q-257-57-548-57-791 0-1257 497-465 497-465 1341 0 856 470 1346 471 491 1290 491 265 0 518-55 253-54 491-163z" transform="scale(.01563)"/></defs><use xlink:href="#DejaVuSans-6f"/><use xlink:href="#DejaVuSans-72" x="61.182"/><use xlink:href="#DejaVuSans-61" x="102.295"/><use xlink:href="#DejaVuSans-63" x="163.574"/><use xlink:href="#DejaVuSans-6c" x="218.555"/><use xlink:href="#DejaVuSans-65" x="246.338"/></g><g style="fill:#8c564b" transform="matrix(.14 0 0 -.14 408.756 293.314)" id="text_19"><defs><path id="DejaVuSans-69" d="M603 3500h575V0H603v3500zm0 1363h575v-729H603v729z" transform="scale(.01563)"/><path id="DejaVuSans-68" d="M3513 2113V0h-575v2094q0 497-194 743-194 247-581 247-466 0-735-297-269-296-269-809V0H581v4863h578V2956q207 316 486 472 280 156 646 156 603 0 912-373 310-373 310-1098z" transform="scale(.01563)"/></defs><use xlink:href="#DejaVuSans-65"/><use xlink:href="#DejaVuSans-6c" x="61.523"/><use xlink:href="#DejaVuSans-61" x="89.307"/><use xlink:href="#DejaVuSans-73" x="150.586"/><use xlink:href="#DejaVuSans-74" x="202.686"/><use xlink:href="#DejaVuSans-69" x="241.895"/><use xlink:href="#DejaVuSans-63" x="269.678"/><use xlink:href="#DejaVuSans-73" x="324.658"/><use xlink:href="#DejaVuSans-65" x="376.758"/><use xlink:href="#DejaVuSans-61" x="438.281"/><use xlink:href="#DejaVuSans-72" x="499.561"/><use xlink:href="#DejaVuSans-63" x="538.424"/><use xlink:href="#DejaVuSans-68" x="593.404"/></g><g style="fill:#e377c2" transform="matrix(.14 0 0 -.14 408.756 307.314)" id="text_20"><use xlink:href="#DejaVuSans-73"/><use xlink:href="#DejaVuSans-71" x="52.1"/><use xlink:href="#DejaVuSans-6c" x="115.576"/><use xlink:href="#DejaVuSans-69" x="143.359"/><use xlink:href="#DejaVuSans-74" x="171.143"/><use xlink:href="#DejaVuSans-65" x="210.352"/></g><g style="fill:#7f7f7f" transform="matrix(.14 0 0 -.14 408.756 321.314)" id="text_21"><use xlink:href="#DejaVuSans-72"/><use xlink:href="#DejaVuSans-65" x="38.863"/><use xlink:href="#DejaVuSans-64" x="100.387"/><use xlink:href="#DejaVuSans-69" x="163.863"/><use xlink:href="#DejaVuSans-73" x="191.646"/></g><g style="fill:#bcbd22" transform="matrix(.14 0 0 -.14 408.756 335.314)" id="text_22"><use xlink:href="#DejaVuSans-6d"/><use xlink:href="#DejaVuSans-73" x="97.412"/><use xlink:href="#DejaVuSans-2d" x="149.512"/><use xlink:href="#DejaVuSans-61" x="185.596"/><use xlink:href="#DejaVuSans-63" x="246.875"/><use xlink:href="#DejaVuSans-63" x="301.855"/><use xlink:href="#DejaVuSans-65" x="356.836"/><use xlink:href="#DejaVuSans-73" x="418.359"/><use xlink:href="#DejaVuSans-73" x="470.459"/></g><g style="fill:#17becf" transform="matrix(.14 0 0 -.14 408.756 349.314)" id="text_23"><use xlink:href="#DejaVuSans-6d"/><use xlink:href="#DejaVuSans-61" x="97.412"/><use xlink:href="#DejaVuSans-72" x="158.691"/><use xlink:href="#DejaVuSans-69" x="199.805"/><use xlink:href="#DejaVuSans-61" x="227.588"/><use xlink:href="#DejaVuSans-64" x="288.867"/><use xlink:href="#DejaVuSans-62" x="352.344"/></g><g style="fill:#aec7e8" transform="matrix(.14 0 0 -.14 408.756 363.314)" id="text_24"><use xlink:href="#DejaVuSans-64"/><use xlink:href="#DejaVuSans-62" x="63.477"/><use xlink:href="#DejaVuSans-32" x="126.953"/></g><g style="fill:#ffbb78" transform="matrix(.14 0 0 -.14 408.756 377.314)" id="text_25"><use xlink:href="#DejaVuSans-73"/><use xlink:href="#DejaVuSans-6f" x="52.1"/><use xlink:href="#DejaVuSans-6c" x="113.281"/><use xlink:href="#DejaVuSans-72" x="141.064"/></g><g style="fill:#b0b0b0" transform="matrix(.09716 0 0 -.09716 40.922 357.986)" id="text_26"><defs><path id="DejaVuSans-40" d="M2381 1678q0-447 222-702 222-254 610-254 384 0 604 256 221 256 221 700 0 438-225 695-225 258-607 258-378 0-602-256-223-256-223-697zm1703-934q-187-241-429-355t-564-114q-538 0-874 389t-336 1014q0 625 337 1015 338 391 873 391 322 0 565-117 244-117 428-354v409h447V722q457 69 714 417 258 349 258 902 0 334-99 628-98 294-298 544-325 409-792 626t-1017 217q-384 0-738-102-353-101-653-301-490-319-767-836-276-517-276-1120 0-497 179-932 180-434 521-765 328-325 759-495 431-171 922-171 403 0 792 136t714 389l281-347q-390-303-851-464t-936-161q-578 0-1091 205-512 205-912 595Q841 78 631 592q-209 514-209 1105 0 569 212 1084 213 516 607 907 403 396 931 607t1119 211q662 0 1229-272 568-271 952-771 234-307 357-666 124-359 124-744 0-822-497-1297T4084 263v481z" transform="scale(.01563)"/><path id="DejaVuSans-2f" d="M1625 4666h531L531-594H0l1625 5260z" transform="scale(.01563)"/><path id="DejaVuSans-6b" d="M581 4863h578V1991l1716 1509h734L1753 1863 3688 0h-750L1159 1709V0H581v4863z" transform="scale(.01563)"/><path id="DejaVuSans-66" d="M2375 4863v-479h-550q-309 0-430-125-120-125-120-450v-309h947v-447h-947V0H697v3053H147v447h550v244q0 584 272 851 272 268 862 268h544z" transform="scale(.01563)"/><path id="DejaVuSans-77" d="M269 3500h575l719-2731 715 2731h678l719-2731 716 2731h575L4050 0h-678l-753 2869L1863 0h-679L269 3500z" transform="scale(.01563)"/><path id="DejaVuSans-7c" d="M1344 4891v-6400H813v6400h531z" transform="scale(.01563)"/><path id="DejaVuSans-4e" d="M628 4666h850L3547 763v3903h612V0h-850L1241 3903V0H628v4666z" transform="scale(.01563)"/><path id="DejaVuSans-53" d="M3425 4513v-616q-359 172-678 256-319 85-616 85-515 0-795-200t-280-569q0-310 186-468 186-157 705-254l381-78q706-135 1042-474t336-907q0-679-455-1029Q2797-91 1919-91q-331 0-705 75-373 75-773 222v650q384-215 753-325 369-109 725-109 540 0 834 212 294 213 294 607 0 343-211 537t-692 291l-385 75q-706 140-1022 440-315 300-315 835 0 619 436 975t1201 356q329 0 669-60 341-59 697-177z" transform="scale(.01563)"/><path id="DejaVuSans-f6" d="M1959 3097q-462 0-731-361t-269-989q0-628 267-989 268-361 733-361 460 0 728 362 269 363 269 988 0 622-269 986-268 364-728 364zm0 487q750 0 1178-488 429-487 429-1349 0-859-429-1349Q2709-91 1959-91q-753 0-1180 489-426 490-426 1349 0 862 426 1349 427 488 1180 488zm295 1266h634v-631h-634v631zm-1222 0h634v-631h-634v631z" transform="scale(.01563)"/><path id="DejaVuSans-43" d="M4122 4306v-665q-319 297-680 443-361 147-767 147-800 0-1225-489t-425-1414q0-922 425-1411t1225-489q406 0 767 147t680 444V359q-331-225-702-338-370-112-782-112-1060 0-1670 648-609 649-609 1771 0 1125 609 1773 610 649 1670 649 418 0 788-111 371-111 696-333z" transform="scale(.01563)"/><path id="DejaVuSans-42" d="M1259 2228V519h1013q509 0 754 211 246 211 246 645 0 438-246 645-245 208-754 208H1259zm0 1919V2741h935q462 0 688 173 227 174 227 530 0 353-227 528-226 175-688 175h-935zm-631 519h1613q722 0 1112-300 391-300 391-853 0-429-200-682t-588-315q466-100 724-418 258-317 258-792 0-625-425-966Q3088 0 2303 0H628v4666z" transform="scale(.01563)"/><path id="DejaVuSans-59" d="M-13 4666h679l1293-1919 1285 1919h678L2272 2222V0h-634v2222L-13 4666z" transform="scale(.01563)"/></defs><use xlink:href="#DejaVuSans-40"/><use xlink:href="#DejaVuSans-6e" x="100"/><use xlink:href="#DejaVuSans-73" x="163.379"/><use xlink:href="#DejaVuSans-63" x="215.479"/><use xlink:href="#DejaVuSans-68" x="270.459"/><use xlink:href="#DejaVuSans-6c" x="333.838"/><use xlink:href="#DejaVuSans-6f" x="361.621"/><use xlink:href="#DejaVuSans-65" x="422.803"/><use xlink:href="#DejaVuSans-20" x="484.326"/><use xlink:href="#DejaVuSans-2f" x="516.113"/><use xlink:href="#DejaVuSans-20" x="549.805"/><use xlink:href="#DejaVuSans-73" x="581.592"/><use xlink:href="#DejaVuSans-74" x="633.691"/><use xlink:href="#DejaVuSans-61" x="672.9"/><use xlink:href="#DejaVuSans-63" x="734.18"/><use xlink:href="#DejaVuSans-6b" x="789.16"/><use xlink:href="#DejaVuSans-6f" x="843.445"/><use xlink:href="#DejaVuSans-76" x="904.627"/><use xlink:href="#DejaVuSans-65" x="963.807"/><use xlink:href="#DejaVuSans-72" x="1025.33"/><use xlink:href="#DejaVuSans-66" x="1066.443"/><use xlink:href="#DejaVuSans-6c" x="1101.648"/><use xlink:href="#DejaVuSans-6f" x="1129.432"/><use xlink:href="#DejaVuSans-77" x="1190.613"/><use xlink:href="#DejaVuSans-2d" x="1272.4"/><use xlink:href="#DejaVuSans-74" x="1308.484"/><use xlink:href="#DejaVuSans-72" x="1347.693"/><use xlink:href="#DejaVuSans-65" x="1386.557"/><use xlink:href="#DejaVuSans-6e" x="1448.08"/><use xlink:href="#DejaVuSans-64" x="1511.459"/><use xlink:href="#DejaVuSans-73" x="1574.936"/><use xlink:href="#DejaVuSans-20" x="1627.035"/><use xlink:href="#DejaVuSans-7c" x="1658.822"/><use xlink:href="#DejaVuSans-20" x="1692.514"/><use xlink:href="#DejaVuSans-4e" x="1724.301"/><use xlink:href="#DejaVuSans-69" x="1799.105"/><use xlink:href="#DejaVuSans-63" x="1826.889"/><use xlink:href="#DejaVuSans-6f" x="1881.869"/><use xlink:href="#DejaVuSans-20" x="1943.051"/><use xlink:href="#DejaVuSans-53" x="1974.838"/><use xlink:href="#DejaVuSans-63" x="2038.314"/><use xlink:href="#DejaVuSans-68" x="2093.295"/><use xlink:href="#DejaVuSans-6c" x="2156.674"/><use xlink:href="#DejaVuSans-f6" x="2184.457"/><use xlink:href="#DejaVuSans-6d" x="2245.639"/><use xlink:href="#DejaVuSans-65" x="2343.051"/><use xlink:href="#DejaVuSans-72" x="2404.574"/><use xlink:href="#DejaVuSans-20" x="2445.688"/><use xlink:href="#DejaVuSans-7c" x="2477.475"/><use xlink:href="#DejaVuSans-20" x="2511.166"/><use xlink:href="#DejaVuSans-43" x="2542.953"/><use xlink:href="#DejaVuSans-43" x="2612.777"/><use xlink:href="#DejaVuSans-20" x="2682.602"/><use xlink:href="#DejaVuSans-42" x="2714.389"/><use xlink:href="#DejaVuSans-59" x="2777.492"/></g><g style="fill:#b0b0b0" transform="matrix(.14 0 0 -.14 63.337 17.838)" id="text_27"><defs><path id="DejaVuSans-44" d="M1259 4147V519h763q966 0 1414 437 448 438 448 1382 0 937-448 1373t-1414 436h-763zm-631 519h1297q1356 0 1990-564 635-564 635-1764 0-1207-638-1773Q3275 0 1925 0H628v4666z" transform="scale(.01563)"/><path id="DejaVuSans-75" d="M544 1381v2119h575V1403q0-497 193-746 194-248 582-248 465 0 735 297 271 297 271 810v1984h575V0h-575v538q-209-319-486-474-276-155-642-155-603 0-916 375-312 375-312 1097zm1447 2203z" transform="scale(.01563)"/><path id="DejaVuSans-4f" d="M2522 4238q-688 0-1093-513-404-512-404-1397 0-881 404-1394 405-512 1093-512 687 0 1089 512 402 513 402 1394 0 885-402 1397-402 513-1089 513zm0 512q981 0 1568-658 588-658 588-1764 0-1103-588-1761Q3503-91 2522-91q-984 0-1574 656-589 657-589 1763t589 1764q590 658 1574 658z" transform="scale(.01563)"/></defs><use xlink:href="#DejaVuSans-44"/><use xlink:href="#DejaVuSans-61" x="77.002"/><use xlink:href="#DejaVuSans-69" x="138.281"/><use xlink:href="#DejaVuSans-6c" x="166.064"/><use xlink:href="#DejaVuSans-79" x="193.848"/><use xlink:href="#DejaVuSans-20" x="253.027"/><use xlink:href="#DejaVuSans-6e" x="284.814"/><use xlink:href="#DejaVuSans-75" x="348.193"/><use xlink:href="#DejaVuSans-6d" x="411.572"/><use xlink:href="#DejaVuSans-62" x="508.984"/><use xlink:href="#DejaVuSans-65" x="572.461"/><use xlink:href="#DejaVuSans-72" x="633.984"/><use xlink:href="#DejaVuSans-20" x="675.098"/><use xlink:href="#DejaVuSans-6f" x="706.885"/><use xlink:href="#DejaVuSans-66" x="768.066"/><use xlink:href="#DejaVuSans-20" x="803.271"/><use xlink:href="#DejaVuSans-71" x="835.059"/><use xlink:href="#DejaVuSans-75" x="898.535"/><use xlink:href="#DejaVuSans-65" x="961.914"/><use xlink:href="#DejaVuSans-73" x="1023.438"/><use xlink:href="#DejaVuSans-74" x="1075.537"/><use xlink:href="#DejaVuSans-69" x="1114.746"/><use xlink:href="#DejaVuSans-6f" x="1142.529"/><use xlink:href="#DejaVuSans-6e" x="1203.711"/><use xlink:href="#DejaVuSans-73" x="1267.09"/><use xlink:href="#DejaVuSans-20" x="1319.189"/><use xlink:href="#DejaVuSans-6f" x="1350.977"/><use xlink:href="#DejaVuSans-6e" x="1412.158"/><use xlink:href="#DejaVuSans-20" x="1475.537"/><use xlink:href="#DejaVuSans-53" x="1507.324"/><use xlink:href="#DejaVuSans-74" x="1570.801"/><use xlink:href="#DejaVuSans-61" x="1610.01"/><use xlink:href="#DejaVuSans-63" x="1671.289"/><use xlink:href="#DejaVuSans-6b" x="1726.27"/><use xlink:href="#DejaVuSans-4f" x="1784.18"/><use xlink:href="#DejaVuSans-76" x="1862.891"/><use xlink:href="#DejaVuSans-65" x="1922.07"/><use xlink:href="#DejaVuSans-72" x="1983.594"/><use xlink:href="#DejaVuSans-66" x="2024.707"/><use xlink:href="#DejaVuSans-6c" x="2059.912"/><use xlink:href="#DejaVuSans-6f" x="2087.695"/><use xlink:href="#DejaVuSans-77" x="2148.877"/></g><path d="m40.922 320.019 1.654.953 2.146.543 2.146-.052 2.181.589 4.152-1.146 2.146-.642 2.146-.437 2.146-.24 2.146-2.182 2.18 1.8 2.147-.936 2.146.87 2.146-.228 2.146.13 4.257.634 2.076-1.288 2.146 1.032 2.146-1.687 2.146-.342 2.146-.149 2.18 1.211 2.147.189 2.146-.45 2.146-.091 2.146.549 2.181-1.964 2.076.381 2.076-.217 2.146-.98 2.146.194 2.146-.939 4.327.285 2.146 2.048 2.146-.477 2.146-1.01 2.146.519 2.181-.687 2.111-1.962 2.11 1.143 2.147-1.583 2.146 1.223 2.146-.006 2.146-3.2 2.181 1.047 2.146 2.762 2.146-1.748 2.146-.687 2.146 1.243 2.181-2.356 2.076-.191 2.076-3.67 2.146.105 2.146 1.237 2.146.69 2.146-1.934 2.181 3.272 2.146-1.507 2.146-3.794 2.146 2.205 2.146 1.558 2.181-1.014 2.076-3.851 2.076 2.378 2.146-.931 2.146 4.956 2.146-.324 2.146-1.934 2.181 2.455 2.146 1.542 2.146-.92 2.146.142 2.146 1.297 2.181-3.6 2.076.7 2.076-1.583 2.146.82 2.146-.329 2.146-2.918 2.146.987 2.181 2.88 2.146-.249 2.146-.667 2.146 2.764 2.146-1.553 2.181-1.964 2.111-3.078 2.111 2.49 2.146 1.298 2.146.108 2.146-3.083 2.146 2.658 2.181-1.113 2.146 2.681 2.146-1.7 2.146 1.126 2.146 1.624 2.182-.982 2.075-1.92 2.076.677 2.146 1.716 2.146-3.516 2.146-1.285 2.146.696 2.181 1.669 2.146 3.18 2.146-.857 2.146.08 2.146 2.243 2.182-1.407 2.075.354 4.222-.616 2.146.164 2.146-.13 2.146-.72 2.181-1.506 2.146 1.753 2.146-.477 2.146.206 2.146 3.1 2.182-3.47 2.075-.84 2.076 1.43 6.438.964 2.146-1.39 2.181 2.847 2.146-.646 2.146-1.939 2.146-.022 2.146 1.69 2.182-.784 2.11-.93 2.111 2.566 2.146-4.57 2.146 1.886 2.146-.602 4.328 4.038 2.146-.183 2.146 2.114 2.146-.626 2.146 1.215 2.18-1.276 2.077-1.507 2.075-.358 2.146 1.79 2.146.795 2.146-1.234 2.146.776 2.182 1.57 2.146-.52 2.146 1.273 2.146-1.104 2.146.58 2.18.164 2.077-1.848 2.075-.312 2.146 1.146 2.146.556 2.146-.387 2.146.91 2.182-1.374h0" clip-path="url(#p5a9233a19c)" style="fill:none;stroke:#bcbd22;stroke-width:1.5;stroke-linecap:square" id="line2d_23"/><path d="m61.785 323.95 15.022-.145 4.222-.058 6.438-.157 2.18.033 4.293-.23 2.146-.018 2.146.117 2.181-.917 2.076.18 2.076-.081 2.146-.415 2.146.382 2.146-1.126 2.146.144 2.18.327 2.147-.268 4.292.034 2.146-.551 2.181.164 2.111-.424 2.11.293 4.293-1.31 2.146-.133 2.146.985 2.181-.819 2.146.713 2.146-1.072 2.146.835 2.146.179 2.181.458 4.152-1.145 4.292-.622 2.146.623 2.146.359 2.181-.818 2.146.222 2.146-.811 2.146-.44 2.146.538 2.181-.098 2.076.18 2.076-1.555 2.146.394 2.146 1.897 4.292-.982 2.181-.196 2.146.33 2.146.095 2.146.276 2.146.51 2.181-1.015 2.076-.768 2.076-.312 2.146.165 2.146-.328 2.146-.044 4.327-.447 2.146.075 8.62 1.005 2.11-.994 2.111-.25 2.146.307 2.146-.241 2.146.342 2.146 1.36 2.181-.917 2.146.03 2.146 1.312 2.146-1.48 2.146.825 2.182-.85 2.075-.5 2.076 1.056 2.146-.227 2.146-.951 2.146.511 2.146.241 2.181-.262 2.146.664 2.146.416 2.146-.687 2.146 1.342 2.182-1.08 2.075-.08 2.076-.804 6.438-.088 2.146-1.122 2.181-1.342 2.146 1.01 2.146-.421 2.146-.052 2.146 2.768 2.182-2.029 2.075.304 2.076-.566 2.146-.275 2.146.799 2.146.588 2.146-1.308 2.181-.196 2.146.895 2.146-.012 2.146-1.002 2.146.577 4.292-1.054 2.111-.844 2.146-1.486 2.146.7 2.146-.328 2.146.263 2.182.982 2.146-.061 2.146.813 4.292.95 2.18-.459 2.077.01 4.221-1.923 2.146 2.47 2.146-.982 2.146.949 2.182.36 2.146-.295 2.146.917 2.146-1.627 2.146 1.136 2.18-1.113 2.077-.11 2.075.895 2.146-.03 2.146-.166 2.146.876 4.328-2.708h0" clip-path="url(#p5a9233a19c)" style="fill:none;stroke:#7f7f7f;stroke-width:1.5;stroke-linecap:square" id="line2d_24"/><path d="m40.922 322.492 1.654.378 2.146.133 2.146.26 4.257-1.233 2.076-.044 2.146-1.147 2.146-.325 6.473-.524 2.146.477 2.146-.935 2.146-.282 2.146-.078 2.181-.294 2.076-1.268 2.076-.107 2.146-.35 2.146-.828 2.146.558 2.146-2.194 2.18-.36 2.147 1.133 2.146-1.526 2.146-1.957 2.146.714 2.181-.557 2.076-3.403 2.076-2.814 2.146.177 2.146.837 2.146-3.17 2.146.814 2.18.098 2.147-.372 2.146 2.434 2.146-3.685 2.146 3.914 2.181-2.52 2.111-5.962 2.11-1.597 2.147 1.668 2.146 1.474 2.146.014 2.146-1.356 2.181-.458 2.146 3.2 2.146-1.564 2.146-.972 2.146.285 2.181-1.473 2.076.304 2.076-1.613 2.146.062 2.146.396 2.146 3.797 2.146-5.433 2.181 2.324 2.146-.035 2.146-3.467 2.146-1.166 2.146 3.424 2.181-4.287 2.076-2.081 2.076.183 2.146-.823 2.146 7.27 2.146 2.096 2.146-3.732 2.181 4.221 2.146-1.402 2.146 2.187 2.146-1.409 2.146 2.816 2.181-3.305 2.076-1.11 2.076-4.715 2.146-1.632 2.146 7.588 2.146-.96 2.146.404 2.181.556 2.146-.927 2.146 1.45 2.146 1.762 2.146.268 2.181-1.407 2.111-3.414 2.111-1.757 2.146-1.602 2.146 3.042 2.146 4.194 2.146-.758 2.181 2.847 2.146-2.021 2.146.058 2.146.922 2.146.681 2.182-1.374 4.151-1.898 2.146-1.602 2.146.358 2.146 4.41 2.146.433 2.181.622 2.146.839 2.146 1.255 2.146-2.946 2.146 3.274 2.182-.426 2.075-1.872 2.076 2.003 2.146-1.559 2.146 1.69 2.146 2.064 2.146-1.082 2.181-2.39 2.146.192 2.146-1.467 2.146.216 2.146 4.365 2.182-2.094 2.075-3.279 2.076 1.053 2.146 1.307 2.146 2.097 2.146.778 2.146-1.793 2.181 1.244 2.146.177 2.146-2.468 2.146-1.421 2.146 3.057 2.182-1.669 2.11-3.222 2.111 1.03 2.146-5.181 2.146-.906 2.146 4.287 2.146 1.964 2.182.458 2.146 1.095 2.146 1.326 2.146-1.833 2.146 2.782 2.18-2.323 2.077-.063 2.075-.264 2.146.341 2.146 1.884 2.146.618 4.328 2.033 2.146-.646 2.146 1.496 2.146.736 2.146.312 2.18-1.31 2.077.198 2.075-1.441 2.146.786 2.146 1.276 2.146 1.599 2.146.397 2.182-.655h0" clip-path="url(#p5a9233a19c)" style="fill:none;stroke:#e377c2;stroke-width:1.5;stroke-linecap:square" id="line2d_25"/><path d="M74.731 323.95H100.413l2.076-.181 2.076.115 2.146-.002 2.146-.194 10.765-.065 2.146-.485 2.146.321 2.181-.49 2.111.106 2.11-.107 2.147-.337 2.146-.514 2.146.074 2.146.188 2.181-.982 2.146-.152 2.146-.633 2.146-.179 2.146.997 2.181-1.276 2.076.426 2.076-.982 2.146-.788 2.146.493 2.146-.797 2.146-.545 2.181.328 2.146.555 2.146-.72 2.146-.43 2.146 1.282 2.181-3.207 2.076-2.109 2.076.767 2.146-1.704 2.146.133 2.146 1.186 2.146-1.578 2.181-.95 2.146.905 2.146 1.026 2.146-1.567 2.146.03 2.181-1.67 2.076-3.027 2.076-.965 2.146 1.067 2.146-1.001 2.146-1.535 4.327.422 2.146.017 2.146.703 2.146-3.07 2.146 3.463 2.181-3.044 2.111-3.315 2.111 1.025 2.146.722 2.146.554 2.146-.994 2.146 2.924 2.181-.687 2.146.84 2.146 1.19 2.146-1.596 2.146 2.839 2.182-3.698 2.075-4.375 2.076 3.851 2.146 2.127 2.146-1.898 2.146-.097 2.146 2.192 2.181-2.618 2.146 2.388 4.292 2.13 2.146 3.368 2.182-1.374 2.075-3.366 2.076.486 2.146.074 2.146-1.252 2.146.001 2.146-1.768 2.181-3.043 2.146 2.309 2.146-2.277 2.146-.496 2.146 7.925 2.182-3.6 2.075-4.12 2.076 1.568 2.146 1.101 2.146-.84 2.146-.242 2.146-2.016 2.181 1.997 2.146-2.686 2.146 1.05 2.146-.17 2.146 3.867 2.182-1.21 2.11-1.86 2.111 1.532 2.146-2.465 2.146-.775 2.146-.476 2.146.706 2.182 2.65 2.146.363 2.146.913 2.146.305 2.146 1.692 2.18.556 2.077-3.205 2.075-1.278 2.146.815 2.146 1.41 2.146-.362 2.146 1.965 2.182.557 2.146.96 2.146 2.868 2.146-.433 2.146.924 2.18-.981 2.077-2.35 2.075-.137 2.146 1.293 2.146-.475 2.146.07 2.146 1.304 2.182.59h0" clip-path="url(#p5a9233a19c)" style="fill:none;stroke:#8c564b;stroke-width:1.5;stroke-linecap:square" id="line2d_26"/><path d="m40.922 314.503 1.654 3.262 2.146 1.857 2.146.597 2.181-.229 2.076-.895 2.076.143 2.146-.191 2.146-2.035 2.146-1.38 2.146-.55 2.18-.688 2.147 1.102 2.146-1.298 2.146-.73 2.146 1.58 2.181.394 2.076-1.782 2.076-.967 2.146 1.45 2.146.939 2.146-4.117 2.146 2.35 2.18-2.651 2.147 2.33 2.146-.792 2.146-2.42 2.146 1.438 2.181-2.52 2.076-.728 2.076-1.595 2.146.868 2.146-.246 4.292.785 2.18-1.669 2.147-3.705 2.146 1.938 2.146-3.629 2.146 3.302 2.181.13 2.111-4.793 2.11.703 2.147 1.91 2.146-1.615 2.146 1.817 2.146-3.093 2.181-1.08 2.146.656 2.146-2.227 2.146-4.908 2.146 8.148 2.181-3.076 2.076-4.997 2.076 4.735 2.146-6.5 4.292 2.84 2.146-1.936 2.181 2.389 4.292-9.556 2.146 1.9 2.146 4.416 2.181-1.93 2.076-6.43 2.076-.443 2.146-1.564 2.146 5.884 2.146 4.294 2.146-2.625 2.181 4.09 2.146-6.266 2.146.572 2.146-2.906 2.146 6.604 2.181.655 2.076-6.157 2.076-2.024 2.146-1.276 2.146 2.945 2.146.606 2.146-1.425 2.181 3.764 2.146-1.967 2.146 1.443 2.146-3.472 2.146 5.501 2.181-.033 2.111-6.87 2.111-.002 2.146-.118 2.146 4.241 2.146-1.197 2.146 6.466 2.181-1.767 2.146-.81 2.146-4.786 2.146 1.708 2.146 4.87 2.182-2.847 2.075-2.443 2.076-4.495 2.146 4.408 2.146-2.64 2.146 3.418 2.146.835 2.181.131 2.146 2.72 2.146-4.16 2.146.068 2.146 7 2.182-2.126 2.075-3.927 2.076-.164 2.146-.546 2.146.055 2.146 3.53 2.146-1.86 2.181-1.08 2.146 4.698 2.146-7.873 2.146.129 2.146 5.925 2.182 2.716 2.075-6.508 2.076.127 2.146-.062 2.146-.756 2.146 5.693 2.146-4.22 2.181 4.974 4.292-8.705 2.146 1.594 2.146 3.707 2.182 1.015 2.11-5.782 2.111 1.462 2.146-7.233 2.146 3.895 2.146-1.968 2.146 6.811 2.182 5.007 2.146-1.707 2.146-4.118 2.146 2.867 2.146 6.656 2.18.425 2.077-6.023 2.075-.096 2.146-3.16 2.146 2.931 2.146 4.103 2.146 2.835 2.182-1.146 2.146.069 2.146 2.647 2.146-2.241 2.146 4.86 2.18-.034 2.077-2.326 2.075-1.568 2.146.319 2.146-1.268 2.146 5.46 2.146-.224 2.182.655h0" clip-path="url(#p5a9233a19c)" style="fill:none;stroke:#9467bd;stroke-width:1.5;stroke-linecap:square" id="line2d_27"/><path d="m40.922 298.272 1.654 8.629 2.146 3.557 2.146 1.253 2.181-5.76 2.076-.95 2.076-1.635 2.146-2.478 2.146-1.416 2.146-1.255 2.146-3.817 2.18 3.436 2.147-3.407 2.146.364 2.146.11 2.146 1.984 2.181-3.141 2.076-2.114 2.076 3.128 2.146 1.259 2.146-1.16 2.146-.463 2.146-3.563 2.18-2.16 2.147-.229 2.146-1.44 2.146-.86 2.146 4.558 2.181-3.01 2.076-5.262 2.076-4.196 2.146 4.225 2.146.52 2.146.258 2.146.495 2.18-2.422 2.147.777 2.146 4.525 2.146-6.182 2.146 4.644 2.181-2.684 2.111-5.84 2.11-1.26 2.147 2.3 2.146-5.41 2.146-2.063 2.146 1.932 2.181-2.061 2.146.906 2.146-5.03 2.146-1.699 2.146 9.52 2.181-12.99 2.076-3.336 2.076-3.57 2.146-1.628 2.146 2.676 2.146-.952 2.146-10.665 2.181 4.286 4.292-13.187 2.146 6.345 2.146 2.097 2.181-8.966 2.076-7.413 2.076 4.599 2.146-6.143 2.146 15.927 2.146-1.961 2.146-6.122 2.181 6.054 2.146 2.435 2.146-1.158 2.146-5.571 2.146 12.966 2.181-9.98 2.076-8.764 2.076-3.803 2.146 3.427 2.146 3.805 2.146-8.742 2.146 2.852 2.181 2.29 2.146 4.596 2.146 2.833 2.146.785 2.146-.818 2.181-3.436 2.111-7.044 2.111-1.987 2.146 1.146 2.146 3.599 2.146-10.058 2.146 8.781 2.181-3.272 2.146-1.519 2.146 11.303 2.146-8.056 2.146 11.034 2.182-5.923 2.075-10.705 2.076-7.162 2.146 12.925 2.146-2.65 2.146 5.76 2.146.556 2.181-5.858 2.146 9.327 2.146-.72 2.146-3.71 2.146 18.894 2.182-9.883 2.075-4.654 2.076 7.043 2.146.909 2.146.367 2.146 2.27 2.146-4.135 2.181-1.145 2.146 5.145 2.146-8.712 2.146 8.746 2.146 9.906 2.182-10.013 2.075-10.888 2.076 7.975 2.146-2.56 2.146 7.665 2.146 6.064 2.146-11.038 2.181 5.858 2.146.987 2.146-5.34 2.146-3.012 2.146 15.84 4.292-14.933 2.111 2.335 2.146-4.662 2.146 7.64 2.146-2.433 2.146 5.901 2.182 9.163 2.146-1.673 2.146 2.557 2.146 2.92 2.146 9.057 2.18-10.898 2.077-2.27 2.075.307 2.146 5.428 2.146 6.287 2.146-4.9 2.146 8.074 2.182-1.636 2.146-2.482 2.146 3.104 2.146 2.88 2.146 2.585 2.18-2.978 2.077-4.64 2.075.713 2.146 3.442 2.146.681 2.146 7.4 2.146-2.491 2.182-4.712h0" clip-path="url(#p5a9233a19c)" style="fill:none;stroke:#d62728;stroke-width:1.5;stroke-linecap:square" id="line2d_28"/><path d="m55.347 323.95 2.146-.066 2.146.066 6.473-.135 2.146.07 2.146-.341 2.146.013 2.181-.72 2.076-.336 2.076.14 2.146-.078 2.146-.708 2.146-.475 2.146.181 2.18-1.244 2.147-.12 2.146-.73 2.146-.082 2.146-1.096 2.181-1.473 2.076-1.127 2.076.047 2.146-.578 2.146-.207 2.146-.807 2.146-1.386 2.18.066 2.147-.202 2.146-2.154 2.146-1.6 2.146 1.24 2.181-3.044 2.111-.36 2.11-2.061 2.147-2.571 2.146 2.276 2.146-.078 2.146-1.165 2.181-2.258 2.146 1.698 4.292-2.097 2.146 3.213 2.181-4.909 2.076-1.721 2.076.02 2.146-.694 2.146-1.826 2.146 2.468 2.146-3.744 2.181-2.226 2.146 1.642 2.146-1.053 2.146 1.188 2.146 1.332 2.181-4.68 2.076-6.05 2.076 1.96 2.146.202 2.146 4.74 2.146-3.421 2.146-.146 2.181 3.665 2.146-4.5 2.146 1.03 2.146-1.131 2.146 1.786 2.181-.752 2.076-7.925 2.076 3.605 2.146-9.902 2.146 1.296 2.146-1.803 2.146 2.032 2.181 3.469 2.146-1.038 2.146.71 2.146-.575 2.146 1.328 2.181-6.938 2.111-6.058 2.111 7.662 2.146-.322 2.146.65 2.146-3.118 2.146 5.931 2.181-3.73 2.146 3.682 2.146 1.227 2.146-3.966 2.146 4.62 2.182-8.312 2.075 1.362 2.076-.38 2.146 5.044 2.146-.823 2.146 4.035 2.146.448 2.181-1.276 2.146 4.784 2.146-2.657 2.146-3.53 2.146 4.185 2.182-9.261 2.075 2.619 2.076.162 4.292 10.897 2.146 2.725 2.146-12.902 2.181-5.661 2.146 3.144 2.146-2.555 2.146 3.873 2.146 2.966 2.182-3.37 2.075-4.496 2.076 4.529 2.146-1.522 2.146-.05 2.146.76 2.146-2.624 2.181 4.057 2.146-1.196 2.146-2.73 2.146-1.903 2.146 3.539 2.182-8.476 2.11.875 2.111-3.33 2.146-20.066 2.146 1.218 2.146 2.13 2.146 6.476 2.182 3.763 2.146 1.461 2.146 8.39 2.146-1.12 2.146 3.64 2.18-4.713 2.077-1.912 2.075-1.36 2.146.085 2.146 4.823 2.146-2.321 2.146 7.033 2.182-.818 2.146-1.718 2.146 4.892 2.146.688 2.146 1.243 2.18-1.538 2.077-1.952 2.075-2.793 2.146 2.977 2.146-2.355 2.146 5.23 2.146-.19 2.182-3.6h0" clip-path="url(#p5a9233a19c)" style="fill:none;stroke:#2ca02c;stroke-width:1.5;stroke-linecap:square" id="line2d_29"/><path d="m40.922 321.54 1.654.806 2.146.556 2.146.066 2.181-.818 4.152.13 2.146-.494 2.146.004 2.146-.173 2.146-1.594 2.18-.59 2.147.932 2.146.541 2.146-.033 2.146-.556 2.181-1.243 2.076.347 2.076-1.067 2.146.828 4.292-3.212 2.146 2.482 2.18-1.505 4.293.556 2.146-1.06 4.327-.249 2.076-3.113 2.076-.683 2.146 2.151 2.146-1.987 2.146 1.75 2.146-1.783 2.18-.458 2.147.788 2.146-.1 2.146-1.253 2.146.336 2.181-.164 2.111-3.26 2.11.479 2.147-1.888 2.146.382 2.146.564 2.146.025 2.181-2.29 2.146.879 2.146-3.3 2.146 1.271 2.146 1.117 2.181-5.53 2.076 1.07 2.076 1.417 2.146-.711 2.146.22 2.146-.39 2.146-1.835 2.181.032 2.146.992 2.146-2.17 2.146-1.482 2.146-.023 2.181-2.356 2.076-6.157 2.076-.42 2.146 3.072 2.146 1.803 2.146.226 2.146-1.437 2.181 4.81 2.146-4.286 2.146.23 2.146.954 2.146 1.63 2.181-3.73 2.076-1.548 2.076.926 2.146-3.568 2.146.263 2.146-1.514 2.146-2.02 2.181 2.683 4.292-1.21 2.146 1.798 2.146-.588 2.181-1.538 2.111-7.425 2.111 3.433 2.146 1.79 2.146-.252 2.146-4.246 2.146 8.402 2.181-5.727 2.146 4.257 2.146-1.181 2.146-1.727 2.146 1.662 2.182-2.258 2.075-2.829 2.076-1.524 2.146 1.872 2.146-5.373 2.146 4.426 2.146 1.89 2.181-.033 2.146 3.757 2.146-3.954 2.146-2.708 2.146 9.09 2.182-6.578 2.075.91 2.076.105 2.146.396 2.146-1.05 2.146 2.504 2.146-3.094 2.181-1.473 2.146.847 2.146-3.563 2.146-.427 2.146 9.034 2.182-5.04 2.075-2.514 2.076-4.685 2.146-.752 2.146 3.108 2.146 6.022 2.146-11.29 2.181 7.395 2.146-2.665 2.146-5.385 2.146-.093 2.146 4.969 2.182-7.657 2.11-4.897 2.111-.896 2.146-6.194 2.146.304 2.146-3.01 2.146 3.86 2.182 4.484 2.146-1.107 2.146 1.467 2.146.697 2.146 10.004 2.18-7.429 2.077-6.068 2.075-1.982 2.146 4.528 2.146 1.232 2.146-1.367 2.146 5.36 2.182-1.244 2.146 1.294 2.146-1.883 2.146-.957 2.146 6.52 2.18.556 2.077-6.658 2.075.31 2.146 4.615 2.146-4.354 2.146 5.977 2.146-2.05 2.182-3.469h0" clip-path="url(#p5a9233a19c)" style="fill:none;stroke:#ff7f0e;stroke-width:1.5;stroke-linecap:square" id="line2d_30"/><path d="m40.922 312.03 1.654 3.019 2.146-1.142 2.146.782 2.181-2.913 2.076-.905 2.076-2.4 2.146-1.057 2.146-2.215 2.146-4.886 2.146-5.39 2.18-4.057 2.147-.528 2.146-3.988 2.146-1.794 2.146-1.086 2.181-4.778 2.076-3.11 2.076-6.085 2.146.18 2.146-.507 2.146-5.749 2.146.971 2.18-6.348 2.147 2.807 2.146-2.546 2.146-10.472 2.146 3.306 2.181-19.536 2.076-11.887 2.076-9.057 2.146-.429 2.146 7.563 2.146-8.881 2.146-2.376 2.18-9.654 2.147 9.324 2.146 3.504 2.146-15.643 2.146 13.712 4.292-31.938 2.11-8.574 2.147-.827 2.146 2.856 2.146-7.353 2.146-7.962 2.181 5.465 2.146 7.028 2.146-12.33 2.146-4.51 2.146 14.982 2.181-29.026 2.076-10.472L156 117.33l2.146-2.897 2.146 20.372 2.146 3.23 2.146-14.39 2.181-4.155 2.146-6.443 2.146-8.872 2.146-2.456 2.146 9.459 2.181-25.917 2.076-21.77 2.076-5.653 2.146 2.255 2.146 43.035 2.146 20.367 2.146-3.481 2.181 17.932 2.146-13.605 2.146-4.262 2.146-2.13 2.146 17.314 2.181-7.003 2.076-20.713 2.076-2.75 2.146-4.127 2.146 13.257 2.146-5.31 2.146-7.289 2.181 25.656 2.146-9.61 2.146 4.996 2.146-.633 2.146 4.494 2.181-4.516 2.111-18.355 2.111-2.915 2.146-3.731 2.146 18.522 2.146 6.704 2.146 21.766 2.181-5.989 2.146 7.25 2.146 6.723 2.146-7.33 2.146 15.871 2.182-14.627 2.075-21.826 2.076-14.989 2.146 22.146 2.146 8.157 2.146 6.417 2.146 3.105 2.181 4.222 2.146 4.643 2.146 8.086 2.146-9.134 2.146 31.354 2.182-10.668 2.075-3.414 2.076 2.04 2.146-2.134 2.146 9.333 2.146 7.236 2.146-1.804 2.181 4.549 2.146 2.429 2.146-7.698 2.146-1.804 2.146 20.424 2.182-10.733 2.075-11.585 2.076-6.25 2.146 9.09 2.146 11.264 2.146 14.842 2.146-29.437 2.181 19.144 2.146-3.132 2.146-14.67 2.146-10.116 2.146 26.904 2.182-7.592 2.11-13.09 2.111-2.716 2.146-20.887 2.146 6.783 2.146 14.893 2.146 9.813 2.182 14.857 2.146-.222 2.146 9.974 2.146-5.376 2.146 22.883 2.18-17.867 2.077-.651 2.075-8.544 2.146 2.793 2.146 8.398 2.146 2.524 2.146 11.351 2.182 4.68 2.146-3.283 2.146 4.69 2.146.112 2.146 3.717 2.18-1.604 2.077-7.371 2.075 2.659 2.146.435 2.146-6.293 2.146 21.442 2.146-5.047 2.182-2.749h0" clip-path="url(#p5a9233a19c)" style="fill:none;stroke:#1f77b4;stroke-width:1.5;stroke-linecap:square" id="line2d_31"/></g></g><defs><clipPath id="p5a9233a19c"><path d="M40.922 57.838h357.12V323.95H40.922z"/></clipPath></defs></svg>