<svg xmlns="http://www.w3.org/2000/svg" xmlns:xlink="http://www.w3.org/1999/xlink" width="764.844" height="489.969" viewBox="0 0 573.633 367.477"><defs><style>*{stroke-linejoin:round;stroke-linecap:butt}</style></defs><g id="figure_1"><path id="patch_1" d="M0 367.477h573.633V0H0v367.477z" style="fill:none"/><g id="axes_1"><path id="patch_2" d="M32.015 323.95h357.12V57.838H32.015V323.95z" style="fill:none"/><g id="matplotlib.axis_1"><g id="xtick_1"><g id="line2d_1"><defs><path id="m88a9b8430a" d="M0 0v3.5" style="stroke:#b0b0b0;stroke-width:.4"/></defs><use xlink:href="#m88a9b8430a" x="42.162" y="323.95" style="fill:#b0b0b0;stroke:#b0b0b0;stroke-width:.4"/></g><g id="text_1" style="fill:#b0b0b0" transform="matrix(.14 0 0 -.14 24.347 341.588)"><defs><path id="DejaVuSans-32" d="M1228 531h2203V0H469v531q359 372 979 998 621 627 780 809 303 340 423 576 121 236 121 464 0 372-261 606-261 235-680 235-297 0-627-103-329-103-704-313v638q381 153 712 231 332 78 607 78 725 0 1156-363 431-362 431-968 0-288-108-546-107-257-392-607-78-91-497-524-418-433-1181-1211z" transform="scale(.01563)"/><path id="DejaVuSans-30" d="M2034 4250q-487 0-733-480-245-479-245-1442 0-959 245-1439 246-480 733-480 491 0 736 480 246 480 246 1439 0 963-246 1442-245 480-736 480zm0 500q785 0 1199-621 414-620 414-1801 0-1178-414-1799Q2819-91 2034-91q-784 0-1198 620-414 621-414 1799 0 1181 414 1801 414 621 1198 621z" transform="scale(.01563)"/><path id="DejaVuSans-31" d="M794 531h1031v3560L703 3866v575l1116 225h631V531h1031V0H794v531z" transform="scale(.01563)"/></defs><use xlink:href="#DejaVuSans-32"/><use xlink:href="#DejaVuSans-30" x="63.623"/><use xlink:href="#DejaVuSans-31" x="127.246"/><use xlink:href="#DejaVuSans-30" x="190.869"/></g></g><g id="xtick_2"><use xlink:href="#m88a9b8430a" id="line2d_2" x="96.03" y="323.95" style="fill:#b0b0b0;stroke:#b0b0b0;stroke-width:.4"/><g id="text_2" style="fill:#b0b0b0" transform="matrix(.14 0 0 -.14 78.215 341.588)"><use xlink:href="#DejaVuSans-32"/><use xlink:href="#DejaVuSans-30" x="63.623"/><use xlink:href="#DejaVuSans-31" x="127.246"/><use xlink:href="#DejaVuSans-32" x="190.869"/></g></g><g id="xtick_3"><use xlink:href="#m88a9b8430a" id="line2d_3" x="149.973" y="323.95" style="fill:#b0b0b0;stroke:#b0b0b0;stroke-width:.4"/><g id="text_3" style="fill:#b0b0b0" transform="matrix(.14 0 0 -.14 132.158 341.588)"><defs><path id="DejaVuSans-34" d="M2419 4116 825 1625h1594v2491zm-166 550h794V1625h666v-525h-666V0h-628v1100H313v609l1940 2957z" transform="scale(.01563)"/></defs><use xlink:href="#DejaVuSans-32"/><use xlink:href="#DejaVuSans-30" x="63.623"/><use xlink:href="#DejaVuSans-31" x="127.246"/><use xlink:href="#DejaVuSans-34" x="190.869"/></g></g><g id="xtick_4"><use xlink:href="#m88a9b8430a" id="line2d_4" x="203.841" y="323.95" style="fill:#b0b0b0;stroke:#b0b0b0;stroke-width:.4"/><g id="text_4" style="fill:#b0b0b0" transform="matrix(.14 0 0 -.14 186.026 341.588)"><defs><path id="DejaVuSans-36" d="M2113 2584q-425 0-674-291-248-290-248-796 0-503 248-796 249-292 674-292t673 292q248 293 248 796 0 506-248 796-248 291-673 291zm1253 1979v-575q-238 112-480 171-242 60-480 60-625 0-955-422-329-422-376-1275 184 272 462 417 279 145 613 145 703 0 1111-427 408-426 408-1160 0-719-425-1154Q2819-91 2113-91q-810 0-1238 620-428 621-428 1799 0 1106 525 1764t1409 658q238 0 480-47t505-140z" transform="scale(.01563)"/></defs><use xlink:href="#DejaVuSans-32"/><use xlink:href="#DejaVuSans-30" x="63.623"/><use xlink:href="#DejaVuSans-31" x="127.246"/><use xlink:href="#DejaVuSans-36" x="190.869"/></g></g><g id="xtick_5"><use xlink:href="#m88a9b8430a" id="line2d_5" x="257.784" y="323.95" style="fill:#b0b0b0;stroke:#b0b0b0;stroke-width:.4"/><g id="text_5" style="fill:#b0b0b0" transform="matrix(.14 0 0 -.14 239.969 341.588)"><defs><path id="DejaVuSans-38" d="M2034 2216q-450 0-708-241-257-241-257-662 0-422 257-663 258-241 708-241t709 242q260 243 260 662 0 421-258 662-257 241-711 241zm-631 268q-406 100-633 378-226 279-226 679 0 559 398 884 399 325 1092 325 697 0 1094-325t397-884q0-400-227-679-226-278-629-378 456-106 710-416 255-309 255-755 0-679-414-1042Q2806-91 2034-91q-771 0-1186 362-414 363-414 1042 0 446 256 755 257 310 713 416zm-231 997q0-362 226-565 227-203 636-203 407 0 636 203 230 203 230 565 0 363-230 566-229 203-636 203-409 0-636-203-226-203-226-566z" transform="scale(.01563)"/></defs><use xlink:href="#DejaVuSans-32"/><use xlink:href="#DejaVuSans-30" x="63.623"/><use xlink:href="#DejaVuSans-31" x="127.246"/><use xlink:href="#DejaVuSans-38" x="190.869"/></g></g><g id="xtick_6"><use xlink:href="#m88a9b8430a" id="line2d_6" x="311.653" y="323.95" style="fill:#b0b0b0;stroke:#b0b0b0;stroke-width:.4"/><g id="text_6" style="fill:#b0b0b0" transform="matrix(.14 0 0 -.14 293.838 341.588)"><use xlink:href="#DejaVuSans-32"/><use xlink:href="#DejaVuSans-30" x="63.623"/><use xlink:href="#DejaVuSans-32" x="127.246"/><use xlink:href="#DejaVuSans-30" x="190.869"/></g></g><g id="xtick_7"><use xlink:href="#m88a9b8430a" id="line2d_7" x="365.595" y="323.95" style="fill:#b0b0b0;stroke:#b0b0b0;stroke-width:.4"/><g id="text_7" style="fill:#b0b0b0" transform="matrix(.14 0 0 -.14 347.78 341.588)"><use xlink:href="#DejaVuSans-32"/><use xlink:href="#DejaVuSans-30" x="63.623"/><use xlink:href="#DejaVuSans-32" x="127.246"/><use xlink:href="#DejaVuSans-32" x="190.869"/></g></g></g><g id="matplotlib.axis_2"><g id="ytick_1"><path id="line2d_8" d="M32.015 323.95h357.12" clip-path="url(#pa2281ab4ef)" style="fill:none;stroke:#b0b0b0;stroke-width:.3;stroke-linecap:square"/><g id="line2d_9"><defs><path id="m15293de6f3" d="M0 0h-3.5" style="stroke:#b0b0b0;stroke-width:.3"/></defs><use xlink:href="#m15293de6f3" x="32.015" y="323.95" style="fill:#b0b0b0;stroke:#b0b0b0;stroke-width:.3"/></g><use xlink:href="#DejaVuSans-30" id="text_8" style="fill:#b0b0b0" transform="matrix(.14 0 0 -.14 16.108 329.269)"/></g><g id="ytick_2"><path id="line2d_10" d="M32.015 288.342h357.12" clip-path="url(#pa2281ab4ef)" style="fill:none;stroke:#b0b0b0;stroke-width:.3;stroke-linecap:square"/><use xlink:href="#m15293de6f3" id="line2d_11" x="32.015" y="288.342" style="fill:#b0b0b0;stroke:#b0b0b0;stroke-width:.3"/><g id="text_9" style="fill:#b0b0b0" transform="matrix(.14 0 0 -.14 16.108 293.66)"><defs><path id="DejaVuSans-35" d="M691 4666h2478v-532H1269V2991q137 47 274 70 138 23 276 23 781 0 1237-428 457-428 457-1159 0-753-469-1171Q2575-91 1722-91q-294 0-599 50Q819 9 494 109v635q281-153 581-228t634-75q541 0 856 284 316 284 316 772 0 487-316 771-315 285-856 285-253 0-505-56-251-56-513-175v2344z" transform="scale(.01563)"/></defs><use xlink:href="#DejaVuSans-35"/></g></g><g id="ytick_3"><path id="line2d_12" d="M32.015 252.733h357.12" clip-path="url(#pa2281ab4ef)" style="fill:none;stroke:#b0b0b0;stroke-width:.3;stroke-linecap:square"/><use xlink:href="#m15293de6f3" id="line2d_13" x="32.015" y="252.733" style="fill:#b0b0b0;stroke:#b0b0b0;stroke-width:.3"/><g id="text_10" style="fill:#b0b0b0" transform="matrix(.14 0 0 -.14 7.2 258.052)"><use xlink:href="#DejaVuSans-31"/><use xlink:href="#DejaVuSans-30" x="63.623"/></g></g><g id="ytick_4"><path id="line2d_14" d="M32.015 217.125h357.12" clip-path="url(#pa2281ab4ef)" style="fill:none;stroke:#b0b0b0;stroke-width:.3;stroke-linecap:square"/><use xlink:href="#m15293de6f3" id="line2d_15" x="32.015" y="217.125" style="fill:#b0b0b0;stroke:#b0b0b0;stroke-width:.3"/><g id="text_11" style="fill:#b0b0b0" transform="matrix(.14 0 0 -.14 7.2 222.444)"><use xlink:href="#DejaVuSans-31"/><use xlink:href="#DejaVuSans-35" x="63.623"/></g></g><g id="ytick_5"><path id="line2d_16" d="M32.015 181.517h357.12" clip-path="url(#pa2281ab4ef)" style="fill:none;stroke:#b0b0b0;stroke-width:.3;stroke-linecap:square"/><use xlink:href="#m15293de6f3" id="line2d_17" x="32.015" y="181.517" style="fill:#b0b0b0;stroke:#b0b0b0;stroke-width:.3"/><g id="text_12" style="fill:#b0b0b0" transform="matrix(.14 0 0 -.14 7.2 186.836)"><use xlink:href="#DejaVuSans-32"/><use xlink:href="#DejaVuSans-30" x="63.623"/></g></g><g id="ytick_6"><path id="line2d_18" d="M32.015 145.909h357.12" clip-path="url(#pa2281ab4ef)" style="fill:none;stroke:#b0b0b0;stroke-width:.3;stroke-linecap:square"/><use xlink:href="#m15293de6f3" id="line2d_19" x="32.015" y="145.909" style="fill:#b0b0b0;stroke:#b0b0b0;stroke-width:.3"/><g id="text_13" style="fill:#b0b0b0" transform="matrix(.14 0 0 -.14 7.2 151.228)"><use xlink:href="#DejaVuSans-32"/><use xlink:href="#DejaVuSans-35" x="63.623"/></g></g><g id="ytick_7"><path id="line2d_20" d="M32.015 110.3h357.12" clip-path="url(#pa2281ab4ef)" style="fill:none;stroke:#b0b0b0;stroke-width:.3;stroke-linecap:square"/><use xlink:href="#m15293de6f3" id="line2d_21" x="32.015" y="110.301" style="fill:#b0b0b0;stroke:#b0b0b0;stroke-width:.3"/><g id="text_14" style="fill:#b0b0b0" transform="matrix(.14 0 0 -.14 7.2 115.62)"><defs><path id="DejaVuSans-33" d="M2597 2516q453-97 707-404 255-306 255-756 0-690-475-1069Q2609-91 1734-91q-293 0-604 58T488 141v609q262-153 574-231 313-78 654-78 593 0 904 234t311 681q0 413-289 645-289 233-804 233h-544v519h569q465 0 712 186t247 536q0 359-255 551-254 193-729 193-260 0-557-57-297-56-653-174v562q360 100 674 150t592 50q719 0 1137-327 419-326 419-882 0-388-222-655t-631-370z" transform="scale(.01563)"/></defs><use xlink:href="#DejaVuSans-33"/><use xlink:href="#DejaVuSans-30" x="63.623"/></g></g><g id="ytick_8"><path id="line2d_22" d="M32.015 74.692h357.12" clip-path="url(#pa2281ab4ef)" style="fill:none;stroke:#b0b0b0;stroke-width:.3;stroke-linecap:square"/><use xlink:href="#m15293de6f3" id="line2d_23" x="32.015" y="74.692" style="fill:#b0b0b0;stroke:#b0b0b0;stroke-width:.3"/><g id="text_15" style="fill:#b0b0b0" transform="matrix(.14 0 0 -.14 7.2 80.011)"><use xlink:href="#DejaVuSans-33"/><use xlink:href="#DejaVuSans-35" x="63.623"/></g></g></g><path id="line2d_24" d="m32.015 323.95 2.25-.238h4.502l2.25.238h15.645l2.287-.23 2.251-.008 2.25.238h2.251l2.251-.23 2.288.23 2.177-.255 2.176.255 4.502-.46 2.25-.015 2.251.475h2.288l2.25-.238 2.251.238 2.25-.238 2.251.238h2.288l2.214-.491 2.214.031 2.25.46 2.25-.23 2.252.23 2.25-.23h2.288l2.25.23 2.251-.23 2.25-.008 2.252.238h2.287l2.177-.509 2.177.28 2.25-.009 2.251.238h4.502l2.287-.23h4.502l2.25-.482 2.25.482h2.288l2.177-.533 4.428.05 2.25.024 2.251.214 2.251.475 2.288-1.149 2.25.437 2.25-.207h4.502l2.288-.23 2.177.386 4.427.05 2.251-.436 4.501-1.608 2.288.69 2.25.168 2.251.52 2.25.667 2.252-.896 2.287-2.068 2.214 1.957 2.214.8 2.25-.03 2.251-1.348 2.25 1.11 2.251-.192 2.288.46 4.501-.46 2.251.192 2.25-.192 2.288-.689 2.177-.221 2.177.68 2.25-.765 2.251-.153 4.502.689 2.287.23 2.251.42 2.25-.65 2.251-.061 2.251.29 2.288.46 2.177-2.158 2.176-.369 2.251 2.251 2.25-1.102 2.252.39 2.25.758 2.288.23 2.25.437 2.251-.207 2.25-1.218 2.251-.16 2.288-.92 2.177 1.182 6.678.656 2.25-.995 2.252.536 2.287.69 2.25-.751 2.251-.169 2.251.643 2.25.506 2.288-.919 2.214-1.11 2.214.88 2.25-1.73 2.251 1.041 2.251-1.516 2.25 2.435 2.288-1.149 2.25 1.325 2.252-.406 2.25.169 2.251-2.236 2.288.46 2.176-.395 2.177.854 2.251.13 2.25.559 2.251-.322 2.251.552 2.288-.46 2.25.858 2.251-1.088 2.25-.1 2.251-.36 2.288 1.609 2.177-.706 2.177-1.362 2.25 1.77 2.251-.621 2.25.383 2.251.995 2.288-.689 2.25-1.493 2.251 2.642 2.251-3.354h0" clip-path="url(#pa2281ab4ef)" style="fill:none;stroke:#e377c2;stroke-width:1.5;stroke-linecap:square"/><path id="line2d_25" d="m61.2 323.95 2.25-.23 2.251.23 2.251-.23h2.288l2.177.23 2.176-.46 2.251.46 2.25-1.149 2.251 1.149h2.251l2.288-.92 2.25-.03 2.251-.429 2.25.667 2.251.023 2.288-2.298 2.214 1.022 2.214-.103 2.25-.306 2.25-1.302 2.252-.597 2.25-.322 2.288.92 2.25-1.073 4.502.237 2.25.835 2.288-4.365 4.354-.689 2.25-1.24 2.251-1.517 2.25-.383 2.252-6.509 2.287 3.676 2.25-.015 2.252-4.58 2.25-1.355 2.25 3.882 2.288-10.797 2.177 6.457 2.177-5.078 2.25 3.4 2.252-6.387 2.25 3.063 2.251-3.522 2.288.689 2.25-4.289 2.25.154 2.252 7.206 2.25-7.436 2.288-3.446 2.177 2.42 2.177-1.96 2.25-.024 2.251 2.091 2.25-3.99 2.251-1.294 2.288 8.04 2.25-6.746 2.251-.834 2.25 12.229 4.54-13.608 2.213 6.298 2.214 1.054 2.25-2.765 2.251.697 4.501 5.284 2.288 1.838 2.25.252 2.251 2.964 2.251 1.072 2.25 1.455 2.288-.69 2.177-8.056 2.177.476 2.25 10.376 2.251-4.174 2.251 1.088 2.25-1.088 2.288 6.203 2.251-3.216 2.25 4.135 2.251 6.31 2.251.122 2.288-.23 2.177 2.126 2.176-2.355 2.251.812 2.25-1.501 4.502 4.824 2.288-1.148 2.25-4.787 2.251 1.57 2.25 3.178 2.251-.42 2.288-2.987 2.177.016 2.177 1.821 4.501 2.068 2.25-.023 2.252.942 2.287 1.149 2.25-3.278 2.251-1.317 2.251 2.03 2.25 1.646 2.288-1.608 2.214 1.148 2.214-5.973 2.25-1.148 2.251 5.973 2.251-1.226 2.25.077 2.288.69 2.25-.767 2.252 1.685 2.25-1.447 2.251-2.688 2.288 2.067 2.176-.04 2.177.5 2.251 2.297 2.25-1.378 2.251 1.853 2.251 2.971 2.288-3.676 2.25 1.892 2.251-3.27 2.25-.528 2.251 3.285 2.288-1.838 2.177-.837 2.177 1.526 2.25.238 2.251 1.14 2.25 2.42 2.251-2.42 2.288-.689 2.25 2.872 2.251-.115 2.251-.597h0" clip-path="url(#pa2281ab4ef)" style="fill:none;stroke:#8c564b;stroke-width:1.5;stroke-linecap:square"/><path id="line2d_26" d="m72.417 323.95 2.176-.23 2.251.23h9.04l2.25-.475 4.502.475 2.25-.23h2.288l2.214.23 2.214-.23 2.25-1.195 2.25.276 2.252 1.149 2.25-.69 2.288-.23 2.25.445 2.251-.674 4.502.46 2.287-1.149 2.177 1.33 2.177-1.56 2.25.169 2.251 1.67 2.25-.009 2.252-1.37 2.287.46 2.25.673 2.252-1.363 2.25.176 2.25-.176 2.288-.46 2.177.009 2.177.221 2.25.643 2.252.276 2.25-1.225 2.251 1.914 2.288-.23 2.25-.972 2.25-.406 2.252-1.018 2.25-.82 2.288.23 2.177.37 2.177 1.238 2.25-1.256 4.502 1.662 2.25-1.554 2.288-1.379 2.25.797 2.251 1.041 2.25-3.89 2.252 1.593 2.287-1.608 2.214 2.241 2.214-2.7 2.25.237 2.251-.468 2.25 3.079 2.251-2.62 2.288-2.067 2.25 1.363 2.251-.903 2.251.191 2.25-3.637 2.288-.92 2.177-1.377 2.177-3.676 2.25 3.913 2.251 1.14 2.251-3.277 2.25-.398 2.288 1.608 2.251-6.195 4.501 2.374 2.251 2.443 2.288-2.068 2.177-6.547 2.176 5.628 2.251-3.491 2.25 3.95 2.252-2.051 2.25-.475 2.288-4.595 2.25 1.271 2.251 1.946 2.25-1.708 2.251 1.478 2.288-1.608 2.177-6.958 2.177 3.282 2.25 2.856 2.251-4.005 2.25 5.904 2.252-10.039 2.287 5.973 2.25-3.293 2.251-.153 2.251 2.052 2.25 5.07 2.288-10.568 2.214 7.692 2.214-4.016 2.25-.314 2.251-4.97 2.251-1.202 2.25-2.933 2.288 3.905 2.25 2.589 2.252 3.384 2.25-.773 2.251 5.138 2.288-1.838 2.176-2.215 2.177-1.23 2.251.62 2.25 7.19 2.251-7.902 2.251 1.47 2.288.69 2.25 4.486 2.251-1.96 2.25-.65 2.251 1.799 2.288.46 2.177-3.447 2.177 2.757 2.25.33 2.251 8.4 2.25-2.466 2.251-5.805 2.288 1.609 2.25 1.347 2.251 6.004 2.251-3.392h0" clip-path="url(#pa2281ab4ef)" style="fill:none;stroke:#9467bd;stroke-width:1.5;stroke-linecap:square"/><g id="text_16" style="fill:#1f77b4" transform="matrix(.14 0 0 -.14 399.849 119.149)"><defs><path id="DejaVuSans-6b" d="M581 4863h578V1991l1716 1509h734L1753 1863 3688 0h-750L1159 1709V0H581v4863z" transform="scale(.01563)"/><path id="DejaVuSans-75" d="M544 1381v2119h575V1403q0-497 193-746 194-248 582-248 465 0 735 297 271 297 271 810v1984h575V0h-575v538q-209-319-486-474-276-155-642-155-603 0-916 375-312 375-312 1097zm1447 2203z" transform="scale(.01563)"/><path id="DejaVuSans-62" d="M3116 1747q0 634-261 995t-717 361q-457 0-718-361t-261-995q0-634 261-995t718-361q456 0 717 361t261 995zM1159 2969q182 312 458 463 277 152 661 152 638 0 1036-506 399-506 399-1331T3314 415Q2916-91 2278-91q-384 0-661 152-276 152-458 464V0H581v4863h578V2969z" transform="scale(.01563)"/><path id="DejaVuSans-65" d="M3597 1894v-281H953q38-594 358-905t892-311q331 0 642 81t618 244V178Q3153 47 2828-22t-659-69q-838 0-1327 487-489 488-489 1320 0 859 464 1363 464 505 1252 505 706 0 1117-455 411-454 411-1235zm-575 169q-6 471-264 752-258 282-683 282-481 0-770-272t-333-766l2050 4z" transform="scale(.01563)"/><path id="DejaVuSans-72" d="M2631 2963q-97 56-211 82-114 27-251 27-488 0-749-317t-261-911V0H581v3500h578v-544q182 319 472 473 291 155 707 155 59 0 131-8 72-7 159-23l3-590z" transform="scale(.01563)"/><path id="DejaVuSans-6e" d="M3513 2113V0h-575v2094q0 497-194 743-194 247-581 247-466 0-735-297-269-296-269-809V0H581v3500h578v-544q207 316 486 472 280 156 646 156 603 0 912-373 310-373 310-1098z" transform="scale(.01563)"/><path id="DejaVuSans-74" d="M1172 4494v-994h1184v-447H1172V1153q0-428 117-550t477-122h590V0h-590q-666 0-919 248-253 249-253 905v1900H172v447h422v994h578z" transform="scale(.01563)"/><path id="DejaVuSans-73" d="M2834 3397v-544q-243 125-506 187-262 63-544 63-428 0-642-131t-214-394q0-200 153-314t616-217l197-44q612-131 870-370t258-667q0-488-386-773Q2250-91 1575-91q-281 0-586 55T347 128v594q319-166 628-249 309-82 613-82 406 0 624 139 219 139 219 392 0 234-158 359-157 125-692 241l-200 47q-534 112-772 345-237 233-237 639 0 494 350 762 350 269 994 269 318 0 599-47 282-46 519-140z" transform="scale(.01563)"/></defs><use xlink:href="#DejaVuSans-6b"/><use xlink:href="#DejaVuSans-75" x="54.785"/><use xlink:href="#DejaVuSans-62" x="118.164"/><use xlink:href="#DejaVuSans-65" x="181.641"/><use xlink:href="#DejaVuSans-72" x="243.164"/><use xlink:href="#DejaVuSans-6e" x="282.527"/><use xlink:href="#DejaVuSans-65" x="345.906"/><use xlink:href="#DejaVuSans-74" x="407.43"/><use xlink:href="#DejaVuSans-65" x="446.639"/><use xlink:href="#DejaVuSans-73" x="508.162"/></g><g id="text_17" style="fill:#ff7f0e" transform="matrix(.14 0 0 -.14 399.849 207.22)"><defs><path id="DejaVuSans-61" d="M2194 1759q-697 0-966-159t-269-544q0-306 202-486 202-179 548-179 479 0 768 339t289 901v128h-572zm1147 238V0h-575v531q-197-318-491-470T1556-91q-537 0-855 302-317 302-317 808 0 590 395 890 396 300 1180 300h807v57q0 397-261 614t-733 217q-300 0-585-72-284-72-546-216v532q315 122 612 182 297 61 578 61 760 0 1135-394 375-393 375-1193z" transform="scale(.01563)"/><path id="DejaVuSans-66" d="M2375 4863v-479h-550q-309 0-430-125-120-125-120-450v-309h947v-447h-947V0H697v3053H147v447h550v244q0 584 272 851 272 268 862 268h544z" transform="scale(.01563)"/><path id="DejaVuSans-6f" d="M1959 3097q-462 0-731-361t-269-989q0-628 267-989 268-361 733-361 460 0 728 362 269 363 269 988 0 622-269 986-268 364-728 364zm0 487q750 0 1178-488 429-487 429-1349 0-859-429-1349Q2709-91 1959-91q-753 0-1180 489-426 490-426 1349 0 862 426 1349 427 488 1180 488z" transform="scale(.01563)"/><path id="DejaVuSans-6d" d="M3328 2828q216 388 516 572t706 184q547 0 844-383 297-382 297-1088V0h-578v2094q0 503-179 746-178 244-543 244-447 0-707-297-259-296-259-809V0h-578v2094q0 506-178 748t-550 242q-441 0-701-298-259-298-259-808V0H581v3500h578v-544q197 322 472 475t653 153q382 0 649-194 267-193 395-562z" transform="scale(.01563)"/></defs><use xlink:href="#DejaVuSans-74"/><use xlink:href="#DejaVuSans-65" x="39.209"/><use xlink:href="#DejaVuSans-72" x="100.732"/><use xlink:href="#DejaVuSans-72" x="140.096"/><use xlink:href="#DejaVuSans-61" x="181.209"/><use xlink:href="#DejaVuSans-66" x="242.488"/><use xlink:href="#DejaVuSans-6f" x="277.693"/><use xlink:href="#DejaVuSans-72" x="338.875"/><use xlink:href="#DejaVuSans-6d" x="378.238"/></g><g id="text_18" style="fill:#2ca02c" transform="matrix(.14 0 0 -.14 399.849 255.172)"><defs><path id="DejaVuSans-69" d="M603 3500h575V0H603v3500zm0 1363h575v-729H603v729z" transform="scale(.01563)"/><path id="DejaVuSans-6c" d="M603 4863h575V0H603v4863z" transform="scale(.01563)"/></defs><use xlink:href="#DejaVuSans-61"/><use xlink:href="#DejaVuSans-6e" x="61.279"/><use xlink:href="#DejaVuSans-73" x="124.658"/><use xlink:href="#DejaVuSans-69" x="176.758"/><use xlink:href="#DejaVuSans-62" x="204.541"/><use xlink:href="#DejaVuSans-6c" x="268.018"/><use xlink:href="#DejaVuSans-65" x="295.801"/></g><g id="text_19" style="fill:#d62728" transform="matrix(.14 0 0 -.14 399.849 292.154)"><defs><path id="DejaVuSans-2d" d="M313 2009h1684v-512H313v512z" transform="scale(.01563)"/><path id="DejaVuSans-68" d="M3513 2113V0h-575v2094q0 497-194 743-194 247-581 247-466 0-735-297-269-296-269-809V0H581v4863h578V2956q207 316 486 472 280 156 646 156 603 0 912-373 310-373 310-1098z" transform="scale(.01563)"/></defs><use xlink:href="#DejaVuSans-6b"/><use xlink:href="#DejaVuSans-75" x="54.785"/><use xlink:href="#DejaVuSans-62" x="118.164"/><use xlink:href="#DejaVuSans-65" x="181.641"/><use xlink:href="#DejaVuSans-72" x="243.164"/><use xlink:href="#DejaVuSans-6e" x="282.527"/><use xlink:href="#DejaVuSans-65" x="345.906"/><use xlink:href="#DejaVuSans-74" x="407.43"/><use xlink:href="#DejaVuSans-65" x="446.639"/><use xlink:href="#DejaVuSans-73" x="508.162"/><use xlink:href="#DejaVuSans-2d" x="560.262"/><use xlink:href="#DejaVuSans-68" x="596.346"/><use xlink:href="#DejaVuSans-65" x="659.725"/><use xlink:href="#DejaVuSans-6c" x="721.248"/><use xlink:href="#DejaVuSans-6d" x="749.031"/></g><g id="text_20" style="fill:#9467bd" transform="matrix(.14 0 0 -.14 399.849 306.154)"><defs><path id="DejaVuSans-7a" d="M353 3500h2731v-525L922 459h2162V0H275v525l2163 2516H353v459z" transform="scale(.01563)"/><path id="DejaVuSans-63" d="M3122 3366v-538q-244 135-489 202t-495 67q-560 0-870-355-309-354-309-995t309-996q310-354 870-354 250 0 495 67t489 202V134Q2881 22 2623-34q-257-57-548-57-791 0-1257 497-465 497-465 1341 0 856 470 1346 471 491 1290 491 265 0 518-55 253-54 491-163z" transform="scale(.01563)"/><path id="DejaVuSans-64" d="M2906 2969v1894h575V0h-575v525q-181-312-458-464-276-152-664-152-634 0-1033 506-398 507-398 1332t398 1331q399 506 1033 506 388 0 664-152 277-151 458-463zM947 1747q0-634 261-995t717-361q456 0 718 361 263 361 263 995t-263 995q-262 361-718 361t-717-361q-261-361-261-995z" transform="scale(.01563)"/></defs><use xlink:href="#DejaVuSans-61"/><use xlink:href="#DejaVuSans-6d" x="61.279"/><use xlink:href="#DejaVuSans-61" x="158.691"/><use xlink:href="#DejaVuSans-7a" x="219.971"/><use xlink:href="#DejaVuSans-6f" x="272.461"/><use xlink:href="#DejaVuSans-6e" x="333.643"/><use xlink:href="#DejaVuSans-2d" x="397.021"/><use xlink:href="#DejaVuSans-63" x="433.105"/><use xlink:href="#DejaVuSans-6c" x="488.086"/><use xlink:href="#DejaVuSans-6f" x="515.869"/><use xlink:href="#DejaVuSans-75" x="577.051"/><use xlink:href="#DejaVuSans-64" x="640.43"/><use xlink:href="#DejaVuSans-66" x="703.906"/><use xlink:href="#DejaVuSans-6f" x="739.111"/><use xlink:href="#DejaVuSans-72" x="800.293"/><use xlink:href="#DejaVuSans-6d" x="839.656"/><use xlink:href="#DejaVuSans-61" x="937.068"/><use xlink:href="#DejaVuSans-74" x="998.348"/><use xlink:href="#DejaVuSans-69" x="1037.557"/><use xlink:href="#DejaVuSans-6f" x="1065.34"/><use xlink:href="#DejaVuSans-6e" x="1126.521"/></g><g id="text_21" style="fill:#8c564b" transform="matrix(.14 0 0 -.14 399.849 334.154)"><defs><path id="DejaVuSans-76" d="M191 3500h609L1894 563l1094 2937h609L2284 0h-781L191 3500z" transform="scale(.01563)"/><path id="DejaVuSans-67" d="M2906 1791q0 625-258 968-257 344-723 344-462 0-720-344-258-343-258-968 0-622 258-966t720-344q466 0 723 344 258 344 258 966zm575-1357q0-893-397-1329-396-436-1215-436-303 0-572 45t-522 139v559q253-137 500-202 247-66 503-66 566 0 847 295t281 892v285q-178-310-456-463T1784 0Q1141 0 747 490 353 981 353 1791q0 812 394 1302 394 491 1037 491 388 0 666-153t456-462v531h575V434z" transform="scale(.01563)"/></defs><use xlink:href="#DejaVuSans-76"/><use xlink:href="#DejaVuSans-61" x="59.18"/><use xlink:href="#DejaVuSans-67" x="120.459"/><use xlink:href="#DejaVuSans-72" x="183.936"/><use xlink:href="#DejaVuSans-61" x="225.049"/><use xlink:href="#DejaVuSans-6e" x="286.328"/><use xlink:href="#DejaVuSans-74" x="349.707"/></g><g id="text_22" style="fill:#e377c2" transform="matrix(.14 0 0 -.14 399.849 320.154)"><defs><path id="DejaVuSans-70" d="M1159 525v-1856H581v4831h578v-531q182 312 458 463 277 152 661 152 638 0 1036-506 399-506 399-1331T3314 415Q2916-91 2278-91q-384 0-661 152-276 152-458 464zm1957 1222q0 634-261 995t-717 361q-457 0-718-361t-261-995q0-634 261-995t718-361q456 0 717 361t261 995z" transform="scale(.01563)"/></defs><use xlink:href="#DejaVuSans-70"/><use xlink:href="#DejaVuSans-61" x="63.477"/><use xlink:href="#DejaVuSans-63" x="124.756"/><use xlink:href="#DejaVuSans-6b" x="179.736"/><use xlink:href="#DejaVuSans-65" x="234.021"/><use xlink:href="#DejaVuSans-72" x="295.545"/></g><g id="text_23" style="fill:#b0b0b0" transform="matrix(.09716 0 0 -.09716 32.015 357.986)"><defs><path id="DejaVuSans-40" d="M2381 1678q0-447 222-702 222-254 610-254 384 0 604 256 221 256 221 700 0 438-225 695-225 258-607 258-378 0-602-256-223-256-223-697zm1703-934q-187-241-429-355t-564-114q-538 0-874 389t-336 1014q0 625 337 1015 338 391 873 391 322 0 565-117 244-117 428-354v409h447V722q457 69 714 417 258 349 258 902 0 334-99 628-98 294-298 544-325 409-792 626t-1017 217q-384 0-738-102-353-101-653-301-490-319-767-836-276-517-276-1120 0-497 179-932 180-434 521-765 328-325 759-495 431-171 922-171 403 0 792 136t714 389l281-347q-390-303-851-464t-936-161q-578 0-1091 205-512 205-912 595Q841 78 631 592q-209 514-209 1105 0 569 212 1084 213 516 607 907 403 396 931 607t1119 211q662 0 1229-272 568-271 952-771 234-307 357-666 124-359 124-744 0-822-497-1297T4084 263v481z" transform="scale(.01563)"/><path id="DejaVuSans-2f" d="M1625 4666h531L531-594H0l1625 5260z" transform="scale(.01563)"/><path id="DejaVuSans-77" d="M269 3500h575l719-2731 715 2731h678l719-2731 716 2731h575L4050 0h-678l-753 2869L1863 0h-679L269 3500z" transform="scale(.01563)"/><path id="DejaVuSans-7c" d="M1344 4891v-6400H813v6400h531z" transform="scale(.01563)"/><path id="DejaVuSans-4e" d="M628 4666h850L3547 763v3903h612V0h-850L1241 3903V0H628v4666z" transform="scale(.01563)"/><path id="DejaVuSans-53" d="M3425 4513v-616q-359 172-678 256-319 85-616 85-515 0-795-200t-280-569q0-310 186-468 186-157 705-254l381-78q706-135 1042-474t336-907q0-679-455-1029Q2797-91 1919-91q-331 0-705 75-373 75-773 222v650q384-215 753-325 369-109 725-109 540 0 834 212 294 213 294 607 0 343-211 537t-692 291l-385 75q-706 140-1022 440-315 300-315 835 0 619 436 975t1201 356q329 0 669-60 341-59 697-177z" transform="scale(.01563)"/><path id="DejaVuSans-f6" d="M1959 3097q-462 0-731-361t-269-989q0-628 267-989 268-361 733-361 460 0 728 362 269 363 269 988 0 622-269 986-268 364-728 364zm0 487q750 0 1178-488 429-487 429-1349 0-859-429-1349Q2709-91 1959-91q-753 0-1180 489-426 490-426 1349 0 862 426 1349 427 488 1180 488zm295 1266h634v-631h-634v631zm-1222 0h634v-631h-634v631z" transform="scale(.01563)"/><path id="DejaVuSans-43" d="M4122 4306v-665q-319 297-680 443-361 147-767 147-800 0-1225-489t-425-1414q0-922 425-1411t1225-489q406 0 767 147t680 444V359q-331-225-702-338-370-112-782-112-1060 0-1670 648-609 649-609 1771 0 1125 609 1773 610 649 1670 649 418 0 788-111 371-111 696-333z" transform="scale(.01563)"/><path id="DejaVuSans-42" d="M1259 2228V519h1013q509 0 754 211 246 211 246 645 0 438-246 645-245 208-754 208H1259zm0 1919V2741h935q462 0 688 173 227 174 227 530 0 353-227 528-226 175-688 175h-935zm-631 519h1613q722 0 1112-300 391-300 391-853 0-429-200-682t-588-315q466-100 724-418 258-317 258-792 0-625-425-966Q3088 0 2303 0H628v4666z" transform="scale(.01563)"/><path id="DejaVuSans-59" d="M-13 4666h679l1293-1919 1285 1919h678L2272 2222V0h-634v2222L-13 4666z" transform="scale(.01563)"/></defs><use xlink:href="#DejaVuSans-40"/><use xlink:href="#DejaVuSans-6e" x="100"/><use xlink:href="#DejaVuSans-73" x="163.379"/><use xlink:href="#DejaVuSans-63" x="215.479"/><use xlink:href="#DejaVuSans-68" x="270.459"/><use xlink:href="#DejaVuSans-6c" x="333.838"/><use xlink:href="#DejaVuSans-6f" x="361.621"/><use xlink:href="#DejaVuSans-65" x="422.803"/><use xlink:href="#DejaVuSans-20" x="484.326"/><use xlink:href="#DejaVuSans-2f" x="516.113"/><use xlink:href="#DejaVuSans-20" x="549.805"/><use xlink:href="#DejaVuSans-73" x="581.592"/><use xlink:href="#DejaVuSans-74" x="633.691"/><use xlink:href="#DejaVuSans-61" x="672.9"/><use xlink:href="#DejaVuSans-63" x="734.18"/><use xlink:href="#DejaVuSans-6b" x="789.16"/><use xlink:href="#DejaVuSans-6f" x="843.445"/><use xlink:href="#DejaVuSans-76" x="904.627"/><use xlink:href="#DejaVuSans-65" x="963.807"/><use xlink:href="#DejaVuSans-72" x="1025.33"/><use xlink:href="#DejaVuSans-66" x="1066.443"/><use xlink:href="#DejaVuSans-6c" x="1101.648"/><use xlink:href="#DejaVuSans-6f" x="1129.432"/><use xlink:href="#DejaVuSans-77" x="1190.613"/><use xlink:href="#DejaVuSans-2d" x="1272.4"/><use xlink:href="#DejaVuSans-74" x="1308.484"/><use xlink:href="#DejaVuSans-72" x="1347.693"/><use xlink:href="#DejaVuSans-65" x="1386.557"/><use xlink:href="#DejaVuSans-6e" x="1448.08"/><use xlink:href="#DejaVuSans-64" x="1511.459"/><use xlink:href="#DejaVuSans-73" x="1574.936"/><use xlink:href="#DejaVuSans-20" x="1627.035"/><use xlink:href="#DejaVuSans-7c" x="1658.822"/><use xlink:href="#DejaVuSans-20" x="1692.514"/><use xlink:href="#DejaVuSans-4e" x="1724.301"/><use xlink:href="#DejaVuSans-69" x="1799.105"/><use xlink:href="#DejaVuSans-63" x="1826.889"/><use xlink:href="#DejaVuSans-6f" x="1881.869"/><use xlink:href="#DejaVuSans-20" x="1943.051"/><use xlink:href="#DejaVuSans-53" x="1974.838"/><use xlink:href="#DejaVuSans-63" x="2038.314"/><use xlink:href="#DejaVuSans-68" x="2093.295"/><use xlink:href="#DejaVuSans-6c" x="2156.674"/><use xlink:href="#DejaVuSans-f6" x="2184.457"/><use xlink:href="#DejaVuSans-6d" x="2245.639"/><use xlink:href="#DejaVuSans-65" x="2343.051"/><use xlink:href="#DejaVuSans-72" x="2404.574"/><use xlink:href="#DejaVuSans-20" x="2445.688"/><use xlink:href="#DejaVuSans-7c" x="2477.475"/><use xlink:href="#DejaVuSans-20" x="2511.166"/><use xlink:href="#DejaVuSans-43" x="2542.953"/><use xlink:href="#DejaVuSans-43" x="2612.777"/><use xlink:href="#DejaVuSans-20" x="2682.602"/><use xlink:href="#DejaVuSans-42" x="2714.389"/><use xlink:href="#DejaVuSans-59" x="2777.492"/></g><g id="text_24" style="fill:#b0b0b0" transform="matrix(.14 0 0 -.14 54.43 17.838)"><defs><path id="DejaVuSans-44" d="M1259 4147V519h763q966 0 1414 437 448 438 448 1382 0 937-448 1373t-1414 436h-763zm-631 519h1297q1356 0 1990-564 635-564 635-1764 0-1207-638-1773Q3275 0 1925 0H628v4666z" transform="scale(.01563)"/><path id="DejaVuSans-79" d="M2059-325q-243-625-475-815-231-191-618-191H506v481h338q237 0 368 113 132 112 291 531l103 262L191 3500h609L1894 763l1094 2737h609L2059-325z" transform="scale(.01563)"/><path id="DejaVuSans-71" d="M947 1747q0-634 261-995t717-361q456 0 718 361 263 361 263 995t-263 995q-262 361-718 361t-717-361q-261-361-261-995zM2906 525q-181-312-458-464-276-152-664-152-634 0-1033 506-398 507-398 1332t398 1331q399 506 1033 506 388 0 664-152 277-151 458-463v531h575v-4831h-575V525z" transform="scale(.01563)"/><path id="DejaVuSans-4f" d="M2522 4238q-688 0-1093-513-404-512-404-1397 0-881 404-1394 405-512 1093-512 687 0 1089 512 402 513 402 1394 0 885-402 1397-402 513-1089 513zm0 512q981 0 1568-658 588-658 588-1764 0-1103-588-1761Q3503-91 2522-91q-984 0-1574 656-589 657-589 1763t589 1764q590 658 1574 658z" transform="scale(.01563)"/></defs><use xlink:href="#DejaVuSans-44"/><use xlink:href="#DejaVuSans-61" x="77.002"/><use xlink:href="#DejaVuSans-69" x="138.281"/><use xlink:href="#DejaVuSans-6c" x="166.064"/><use xlink:href="#DejaVuSans-79" x="193.848"/><use xlink:href="#DejaVuSans-20" x="253.027"/><use xlink:href="#DejaVuSans-6e" x="284.814"/><use xlink:href="#DejaVuSans-75" x="348.193"/><use xlink:href="#DejaVuSans-6d" x="411.572"/><use xlink:href="#DejaVuSans-62" x="508.984"/><use xlink:href="#DejaVuSans-65" x="572.461"/><use xlink:href="#DejaVuSans-72" x="633.984"/><use xlink:href="#DejaVuSans-20" x="675.098"/><use xlink:href="#DejaVuSans-6f" x="706.885"/><use xlink:href="#DejaVuSans-66" x="768.066"/><use xlink:href="#DejaVuSans-20" x="803.271"/><use xlink:href="#DejaVuSans-71" x="835.059"/><use xlink:href="#DejaVuSans-75" x="898.535"/><use xlink:href="#DejaVuSans-65" x="961.914"/><use xlink:href="#DejaVuSans-73" x="1023.438"/><use xlink:href="#DejaVuSans-74" x="1075.537"/><use xlink:href="#DejaVuSans-69" x="1114.746"/><use xlink:href="#DejaVuSans-6f" x="1142.529"/><use xlink:href="#DejaVuSans-6e" x="1203.711"/><use xlink:href="#DejaVuSans-73" x="1267.09"/><use xlink:href="#DejaVuSans-20" x="1319.189"/><use xlink:href="#DejaVuSans-6f" x="1350.977"/><use xlink:href="#DejaVuSans-6e" x="1412.158"/><use xlink:href="#DejaVuSans-20" x="1475.537"/><use xlink:href="#DejaVuSans-53" x="1507.324"/><use xlink:href="#DejaVuSans-74" x="1570.801"/><use xlink:href="#DejaVuSans-61" x="1610.01"/><use xlink:href="#DejaVuSans-63" x="1671.289"/><use xlink:href="#DejaVuSans-6b" x="1726.27"/><use xlink:href="#DejaVuSans-4f" x="1784.18"/><use xlink:href="#DejaVuSans-76" x="1862.891"/><use xlink:href="#DejaVuSans-65" x="1922.07"/><use xlink:href="#DejaVuSans-72" x="1983.594"/><use xlink:href="#DejaVuSans-66" x="2024.707"/><use xlink:href="#DejaVuSans-6c" x="2059.912"/><use xlink:href="#DejaVuSans-6f" x="2087.695"/><use xlink:href="#DejaVuSans-77" x="2148.877"/></g><path id="line2d_27" d="m137.539 323.95 2.287-.23 2.25.23H178.052l2.177-.255 2.177.255H207.199l2.214-.23 2.25.23H225.204l2.251-.475 2.25.245 2.288.23h2.177l2.177-1.379 2.25.43 2.251-1.348 2.251-.077 2.25.077 2.288-1.609 2.251 1.77 2.25-.161 2.251-1.501 2.251-2.405 2.288-.919 2.177-.254 2.176.484 2.251-1.18 2.25-1.347 2.252 1.348 2.25-1.808 2.288-3.675 2.25 1.922 2.251-7.436 2.25 4.35 2.251 2.542 2.288-7.351 2.177 1.723 2.177-.345 2.25 2.244 2.251-.866 2.25.154 2.252-4.748 2.287 4.365 2.25-2.703 2.251-.054 2.251 1.003 2.25-.314 2.288-10.797 2.214 2.852 2.214-.095 2.25-6.601 2.251 9.128 2.251-4.143 2.25 1.616 2.288.23 2.25 4.089 2.252-4.55 2.25 5.5 2.251-4.35 2.288-.23 2.176-8.426 2.177 7.966 2.251-5.169 2.25 7.237 2.251-3.676 2.251 1.838 2.288 3.216 2.25-5.529 2.251-2.052 2.25 2.527 2.251 4.135 2.288 1.149 2.177-7.319 2.177 3.873 2.25-4.449 2.251-1.064 2.25 3.438 2.251 4.602 2.288-8.27 2.25 1.769 2.251 3.285 2.251-3.048" clip-path="url(#pa2281ab4ef)" style="fill:none;stroke:#d62728;stroke-width:1.5;stroke-linecap:square"/><path id="line2d_28" d="m119.644 323.95 2.25-.23h2.288l2.177.23 2.177-.23 2.25-.245 2.251-.674 2.25.437 2.252-.437 2.287-.689 2.25-1.486 2.252-1.5 2.25.313 2.25-1.232 2.288-1.379 2.177-6.867 2.177-2.552 2.25 6.808 2.252 1.233 2.25-7.88 2.251 4.204 2.288-4.824 2.25.383 2.25-4.978 2.252 9.725 2.25-5.13h2.288l2.177-10.215 2.177-5.866 2.25 6.968 2.251-4.212 2.25-4.096 2.251-.498 2.288-2.757 2.25-3.63 2.251-1.654 2.25 1.18 2.252 5.023 2.287-9.649 2.214-13.514 2.214 5.933 2.25-7.971 2.251-4.205 2.25 2.543 2.251 1.593 2.288-1.149 2.25-3.768 2.251-1.286 2.251 9.12 2.25-.85 2.288 7.581 2.177-1.033 2.177 11.141 2.25.253 2.251-1.401 2.251-8.332 2.25 3.737 2.288-.689 2.251.513 2.25 2.473 2.251-1.049 2.251 11.158 2.288 9.419 2.177-5.604 2.176 4.455 2.251-11.831 2.25-11.831 2.252 17.053 2.25-5.337 2.288-3.446 2.25 4.748 2.251-18.072 2.25-11.602 2.251 15.966 2.288-15.391 2.177-4.39 2.177-3.421 2.25-7.482 2.251 4.036 2.25 5.222 2.252-12.114 2.287-6.662 2.25 9.993 2.251-7.696 2.251 7.221 2.25 10.009 2.288-7.122 2.214-11.13 2.214 4.238 2.25-22.108 2.251-.405 2.251 9.901 2.25 1.815 2.288 18.838 2.25-9.496 2.252 5.82 2.25 11.272 2.251 7.796 2.288-13.554 2.176-16.336 2.177-1.124 2.251-.283 2.25 18.432 2.251-7.275 2.251 16.005 2.288 5.513 2.25-7.987 2.251-2.121 2.25-1.677 2.251 18.447 2.288-13.784 2.177-5.324 2.177-8.919 2.25 15.515 2.251.796 2.25 7.512 2.251-11.877 2.288-1.608 2.25 1.616 2.251-5.292 2.251 3.63" clip-path="url(#pa2281ab4ef)" style="fill:none;stroke:#2ca02c;stroke-width:1.5;stroke-linecap:square"/><path id="line2d_29" d="m180.228 323.95 2.177-.23 2.25.23 2.251-.23 2.25-.008 2.251-.681 2.288.69 2.25-.246 2.251.015 2.25.46 2.252-.92h2.287l2.214-1.536 2.214-.301 2.25.383 2.251-1.072 2.25-.352 2.251-1.027 2.288 1.609 2.25.13 2.251-1.509 2.251.56 2.25.13 2.288-2.298 2.177 1.879 2.177-3.487 2.25.214 2.251-7.106 2.251-.49 2.25 1.18 2.288.229 2.251-.46 2.25-2.756 2.251 4.18 2.251-2.113 2.288-5.513 2.177-3.463 2.176 3.922 2.251-.903 2.25-1.164 2.252 4.25 2.25-7.467 2.288.69 2.25-1.77 2.251-.757 2.25-1.854 2.251-.903 2.288-7.811 2.177 2.068h2.177l2.25 3.086 2.251-8.14 2.25-5.154 2.252-9.55 2.287 5.285 2.25 1.891 2.251 5.69 2.251-7.352 2.25 7.811 2.288-7.81 2.214-9.332 2.214 7.723 2.25-11.21 2.251 1.102 2.251-9.886 2.25-.452 2.288-.23 2.25-1.217 2.252 3.055 2.25-.206 2.251 2.274 2.288-12.176 2.176-8.106 2.177-11.191 2.251 17.804 2.25-2.183 2.251-4.939 2.251-4.02 2.288-1.608 2.25-2.206 2.251-3.078 2.25-4.755 2.251 16.471 2.288-5.973 2.177-7.04 2.177-10.649 2.25 11.938 2.251-2.06 2.25 5.621 2.251-6.31 2.288-10.108 2.25 7.872 2.251 1.547 2.251-17.214" clip-path="url(#pa2281ab4ef)" style="fill:none;stroke:#ff7f0e;stroke-width:1.5;stroke-linecap:square"/><path id="line2d_30" d="m162.222 323.95 2.251-.23 2.288-.23 2.25-.49 2.25.03 2.252-1.691 2.25-1.065 2.288.69 2.177-.32 2.177-1.289 2.25.797 2.251-1.256 2.25-6.34 2.251.367 2.288-9.19 2.25-2.335 2.251-3.408 2.25-6.562 2.252 3.346 2.287 3.676 2.214-5.934 2.214-.499 2.25-1.064 2.251-5.368 2.25 5.605 2.251.598 2.288 3.446 2.25-1.67 2.251-3.614 2.251-7.543 2.25 8.921 2.288-8.73 2.177-3.413 2.177-6.925 2.25-3.622 2.251 1.325 2.251-9.396 2.25-3.928 2.288-9.42 2.251 9.55 2.25 1.708 2.251-17.613 2.251 3.37 2.288-20.217 2.177 1.756 2.176-15.08 2.251-7.811 2.25 3.905 2.252-11.264 2.25-25.493 2.288 1.379 2.25 6.547 2.251-36.642 2.25 13.853 2.251 13.026 2.288-14.703 2.177-11.142 2.177-10.223 2.25 3.339 2.251 4.012 2.25 20.676 2.252-19.757 2.287 20.446 2.25-28.938 2.251-4.143 2.251-9.626 2.25 38.572 2.288-41.351 2.214-17.579 2.214 5.633 2.25-45.571 2.251 16.625 2.251-2.145 2.25.307 2.288 22.284 2.25 7.083 2.252-25.462 2.25 35.432 2.251 7.987 2.288-20.905L341.98 63.5l2.177 13.03 2.251 5.995 2.25 20.653 2.251-9.733 2.251-.605 2.288 9.419 2.25-9.051 2.251 8.592 2.25 8.025 2.251 14.029 2.288-32.622 2.177-5.35 2.177 6.958 2.25 25.056 2.251-11.042 2.25 4.633 2.251-2.796 2.288-12.635 2.25 9.733 2.251 18.984 2.251-9.488" clip-path="url(#pa2281ab4ef)" style="fill:none;stroke:#1f77b4;stroke-width:1.5;stroke-linecap:square"/></g></g><defs><clipPath id="pa2281ab4ef"><path d="M32.015 57.838h357.12V323.95H32.015z"/></clipPath></defs></svg>