<svg xmlns="http://www.w3.org/2000/svg" xmlns:xlink="http://www.w3.org/1999/xlink" width="639.886" height="489.969" viewBox="0 0 479.914 367.477"><defs><style>*{stroke-linejoin:round;stroke-linecap:butt}</style></defs><g id="figure_1"><path id="patch_1" d="M0 367.477h479.914V0H0v367.477z" style="fill:none"/><g id="axes_1"><path id="patch_2" d="M32.015 323.95h357.12V57.838H32.015V323.95z" style="fill:none"/><g id="matplotlib.axis_1"><g id="xtick_1"><g id="line2d_1"><defs><path id="m1c2416b8d7" d="M0 0v3.5" style="stroke:#b0b0b0;stroke-width:.4"/></defs><use xlink:href="#m1c2416b8d7" x="55.844" y="323.95" style="fill:#b0b0b0;stroke:#b0b0b0;stroke-width:.4"/></g><g id="text_1" style="fill:#b0b0b0" transform="matrix(.14 0 0 -.14 38.03 341.588)"><defs><path id="DejaVuSans-32" d="M1228 531h2203V0H469v531q359 372 979 998 621 627 780 809 303 340 423 576 121 236 121 464 0 372-261 606-261 235-680 235-297 0-627-103-329-103-704-313v638q381 153 712 231 332 78 607 78 725 0 1156-363 431-362 431-968 0-288-108-546-107-257-392-607-78-91-497-524-418-433-1181-1211z" transform="scale(.01563)"/><path id="DejaVuSans-30" d="M2034 4250q-487 0-733-480-245-479-245-1442 0-959 245-1439 246-480 733-480 491 0 736 480 246 480 246 1439 0 963-246 1442-245 480-736 480zm0 500q785 0 1199-621 414-620 414-1801 0-1178-414-1799Q2819-91 2034-91q-784 0-1198 620-414 621-414 1799 0 1181 414 1801 414 621 1198 621z" transform="scale(.01563)"/><path id="DejaVuSans-31" d="M794 531h1031v3560L703 3866v575l1116 225h631V531h1031V0H794v531z" transform="scale(.01563)"/><path id="DejaVuSans-33" d="M2597 2516q453-97 707-404 255-306 255-756 0-690-475-1069Q2609-91 1734-91q-293 0-604 58T488 141v609q262-153 574-231 313-78 654-78 593 0 904 234t311 681q0 413-289 645-289 233-804 233h-544v519h569q465 0 712 186t247 536q0 359-255 551-254 193-729 193-260 0-557-57-297-56-653-174v562q360 100 674 150t592 50q719 0 1137-327 419-326 419-882 0-388-222-655t-631-370z" transform="scale(.01563)"/></defs><use xlink:href="#DejaVuSans-32"/><use xlink:href="#DejaVuSans-30" x="63.623"/><use xlink:href="#DejaVuSans-31" x="127.246"/><use xlink:href="#DejaVuSans-33" x="190.869"/></g></g><g id="xtick_2"><use xlink:href="#m1c2416b8d7" id="line2d_2" x="89.297" y="323.95" style="fill:#b0b0b0;stroke:#b0b0b0;stroke-width:.4"/><g id="text_2" style="fill:#b0b0b0" transform="matrix(.14 0 0 -.14 71.482 341.588)"><defs><path id="DejaVuSans-34" d="M2419 4116 825 1625h1594v2491zm-166 550h794V1625h666v-525h-666V0h-628v1100H313v609l1940 2957z" transform="scale(.01563)"/></defs><use xlink:href="#DejaVuSans-32"/><use xlink:href="#DejaVuSans-30" x="63.623"/><use xlink:href="#DejaVuSans-31" x="127.246"/><use xlink:href="#DejaVuSans-34" x="190.869"/></g></g><g id="xtick_3"><use xlink:href="#m1c2416b8d7" id="line2d_3" x="122.75" y="323.95" style="fill:#b0b0b0;stroke:#b0b0b0;stroke-width:.4"/><g id="text_3" style="fill:#b0b0b0" transform="matrix(.14 0 0 -.14 104.935 341.588)"><defs><path id="DejaVuSans-35" d="M691 4666h2478v-532H1269V2991q137 47 274 70 138 23 276 23 781 0 1237-428 457-428 457-1159 0-753-469-1171Q2575-91 1722-91q-294 0-599 50Q819 9 494 109v635q281-153 581-228t634-75q541 0 856 284 316 284 316 772 0 487-316 771-315 285-856 285-253 0-505-56-251-56-513-175v2344z" transform="scale(.01563)"/></defs><use xlink:href="#DejaVuSans-32"/><use xlink:href="#DejaVuSans-30" x="63.623"/><use xlink:href="#DejaVuSans-31" x="127.246"/><use xlink:href="#DejaVuSans-35" x="190.869"/></g></g><g id="xtick_4"><use xlink:href="#m1c2416b8d7" id="line2d_4" x="156.203" y="323.95" style="fill:#b0b0b0;stroke:#b0b0b0;stroke-width:.4"/><g id="text_4" style="fill:#b0b0b0" transform="matrix(.14 0 0 -.14 138.388 341.588)"><defs><path id="DejaVuSans-36" d="M2113 2584q-425 0-674-291-248-290-248-796 0-503 248-796 249-292 674-292t673 292q248 293 248 796 0 506-248 796-248 291-673 291zm1253 1979v-575q-238 112-480 171-242 60-480 60-625 0-955-422-329-422-376-1275 184 272 462 417 279 145 613 145 703 0 1111-427 408-426 408-1160 0-719-425-1154Q2819-91 2113-91q-810 0-1238 620-428 621-428 1799 0 1106 525 1764t1409 658q238 0 480-47t505-140z" transform="scale(.01563)"/></defs><use xlink:href="#DejaVuSans-32"/><use xlink:href="#DejaVuSans-30" x="63.623"/><use xlink:href="#DejaVuSans-31" x="127.246"/><use xlink:href="#DejaVuSans-36" x="190.869"/></g></g><g id="xtick_5"><use xlink:href="#m1c2416b8d7" id="line2d_5" x="189.747" y="323.95" style="fill:#b0b0b0;stroke:#b0b0b0;stroke-width:.4"/><g id="text_5" style="fill:#b0b0b0" transform="matrix(.14 0 0 -.14 171.932 341.588)"><defs><path id="DejaVuSans-37" d="M525 4666h3000v-269L1831 0h-659l1594 4134H525v532z" transform="scale(.01563)"/></defs><use xlink:href="#DejaVuSans-32"/><use xlink:href="#DejaVuSans-30" x="63.623"/><use xlink:href="#DejaVuSans-31" x="127.246"/><use xlink:href="#DejaVuSans-37" x="190.869"/></g></g><g id="xtick_6"><use xlink:href="#m1c2416b8d7" id="line2d_6" x="223.2" y="323.95" style="fill:#b0b0b0;stroke:#b0b0b0;stroke-width:.4"/><g id="text_6" style="fill:#b0b0b0" transform="matrix(.14 0 0 -.14 205.385 341.588)"><defs><path id="DejaVuSans-38" d="M2034 2216q-450 0-708-241-257-241-257-662 0-422 257-663 258-241 708-241t709 242q260 243 260 662 0 421-258 662-257 241-711 241zm-631 268q-406 100-633 378-226 279-226 679 0 559 398 884 399 325 1092 325 697 0 1094-325t397-884q0-400-227-679-226-278-629-378 456-106 710-416 255-309 255-755 0-679-414-1042Q2806-91 2034-91q-771 0-1186 362-414 363-414 1042 0 446 256 755 257 310 713 416zm-231 997q0-362 226-565 227-203 636-203 407 0 636 203 230 203 230 565 0 363-230 566-229 203-636 203-409 0-636-203-226-203-226-566z" transform="scale(.01563)"/></defs><use xlink:href="#DejaVuSans-32"/><use xlink:href="#DejaVuSans-30" x="63.623"/><use xlink:href="#DejaVuSans-31" x="127.246"/><use xlink:href="#DejaVuSans-38" x="190.869"/></g></g><g id="xtick_7"><use xlink:href="#m1c2416b8d7" id="line2d_7" x="256.653" y="323.95" style="fill:#b0b0b0;stroke:#b0b0b0;stroke-width:.4"/><g id="text_7" style="fill:#b0b0b0" transform="matrix(.14 0 0 -.14 238.838 341.588)"><defs><path id="DejaVuSans-39" d="M703 97v575q238-113 481-172 244-59 479-59 625 0 954 420 330 420 377 1277-181-269-460-413-278-144-615-144-700 0-1108 423-408 424-408 1159 0 718 425 1152 425 435 1131 435 810 0 1236-621 427-620 427-1801 0-1103-524-1761Q2575-91 1691-91q-238 0-482 47Q966 3 703 97zm1256 1978q425 0 673 290 249 291 249 798 0 503-249 795-248 292-673 292t-673-292q-248-292-248-795 0-507 248-798 248-290 673-290z" transform="scale(.01563)"/></defs><use xlink:href="#DejaVuSans-32"/><use xlink:href="#DejaVuSans-30" x="63.623"/><use xlink:href="#DejaVuSans-31" x="127.246"/><use xlink:href="#DejaVuSans-39" x="190.869"/></g></g><g id="xtick_8"><use xlink:href="#m1c2416b8d7" id="line2d_8" x="290.106" y="323.95" style="fill:#b0b0b0;stroke:#b0b0b0;stroke-width:.4"/><g id="text_8" style="fill:#b0b0b0" transform="matrix(.14 0 0 -.14 272.29 341.588)"><use xlink:href="#DejaVuSans-32"/><use xlink:href="#DejaVuSans-30" x="63.623"/><use xlink:href="#DejaVuSans-32" x="127.246"/><use xlink:href="#DejaVuSans-30" x="190.869"/></g></g><g id="xtick_9"><use xlink:href="#m1c2416b8d7" id="line2d_9" x="323.65" y="323.95" style="fill:#b0b0b0;stroke:#b0b0b0;stroke-width:.4"/><g id="text_9" style="fill:#b0b0b0" transform="matrix(.14 0 0 -.14 305.835 341.588)"><use xlink:href="#DejaVuSans-32"/><use xlink:href="#DejaVuSans-30" x="63.623"/><use xlink:href="#DejaVuSans-32" x="127.246"/><use xlink:href="#DejaVuSans-31" x="190.869"/></g></g><g id="xtick_10"><use xlink:href="#m1c2416b8d7" id="line2d_10" x="357.103" y="323.95" style="fill:#b0b0b0;stroke:#b0b0b0;stroke-width:.4"/><g id="text_10" style="fill:#b0b0b0" transform="matrix(.14 0 0 -.14 339.288 341.588)"><use xlink:href="#DejaVuSans-32"/><use xlink:href="#DejaVuSans-30" x="63.623"/><use xlink:href="#DejaVuSans-32" x="127.246"/><use xlink:href="#DejaVuSans-32" x="190.869"/></g></g></g><g id="matplotlib.axis_2"><g id="ytick_1"><path id="line2d_11" d="M32.015 323.95h357.12" clip-path="url(#p444c69177c)" style="fill:none;stroke:#b0b0b0;stroke-width:.3;stroke-linecap:square"/><g id="line2d_12"><defs><path id="mb615391d34" d="M0 0h-3.5" style="stroke:#b0b0b0;stroke-width:.3"/></defs><use xlink:href="#mb615391d34" x="32.015" y="323.95" style="fill:#b0b0b0;stroke:#b0b0b0;stroke-width:.3"/></g><use xlink:href="#DejaVuSans-30" id="text_11" style="fill:#b0b0b0" transform="matrix(.14 0 0 -.14 16.108 329.269)"/></g><g id="ytick_2"><path id="line2d_13" d="M32.015 274.276h357.12" clip-path="url(#p444c69177c)" style="fill:none;stroke:#b0b0b0;stroke-width:.3;stroke-linecap:square"/><use xlink:href="#mb615391d34" id="line2d_14" x="32.015" y="274.276" style="fill:#b0b0b0;stroke:#b0b0b0;stroke-width:.3"/><use xlink:href="#DejaVuSans-35" id="text_12" style="fill:#b0b0b0" transform="matrix(.14 0 0 -.14 16.108 279.594)"/></g><g id="ytick_3"><path id="line2d_15" d="M32.015 224.601h357.12" clip-path="url(#p444c69177c)" style="fill:none;stroke:#b0b0b0;stroke-width:.3;stroke-linecap:square"/><use xlink:href="#mb615391d34" id="line2d_16" x="32.015" y="224.601" style="fill:#b0b0b0;stroke:#b0b0b0;stroke-width:.3"/><g id="text_13" style="fill:#b0b0b0" transform="matrix(.14 0 0 -.14 7.2 229.92)"><use xlink:href="#DejaVuSans-31"/><use xlink:href="#DejaVuSans-30" x="63.623"/></g></g><g id="ytick_4"><path id="line2d_17" d="M32.015 174.927h357.12" clip-path="url(#p444c69177c)" style="fill:none;stroke:#b0b0b0;stroke-width:.3;stroke-linecap:square"/><use xlink:href="#mb615391d34" id="line2d_18" x="32.015" y="174.927" style="fill:#b0b0b0;stroke:#b0b0b0;stroke-width:.3"/><g id="text_14" style="fill:#b0b0b0" transform="matrix(.14 0 0 -.14 7.2 180.246)"><use xlink:href="#DejaVuSans-31"/><use xlink:href="#DejaVuSans-35" x="63.623"/></g></g><g id="ytick_5"><path id="line2d_19" d="M32.015 125.253h357.12" clip-path="url(#p444c69177c)" style="fill:none;stroke:#b0b0b0;stroke-width:.3;stroke-linecap:square"/><use xlink:href="#mb615391d34" id="line2d_20" x="32.015" y="125.253" style="fill:#b0b0b0;stroke:#b0b0b0;stroke-width:.3"/><g id="text_15" style="fill:#b0b0b0" transform="matrix(.14 0 0 -.14 7.2 130.572)"><use xlink:href="#DejaVuSans-32"/><use xlink:href="#DejaVuSans-30" x="63.623"/></g></g><g id="ytick_6"><path id="line2d_21" d="M32.015 75.579h357.12" clip-path="url(#p444c69177c)" style="fill:none;stroke:#b0b0b0;stroke-width:.3;stroke-linecap:square"/><use xlink:href="#mb615391d34" id="line2d_22" x="32.015" y="75.579" style="fill:#b0b0b0;stroke:#b0b0b0;stroke-width:.3"/><g id="text_16" style="fill:#b0b0b0" transform="matrix(.14 0 0 -.14 7.2 80.898)"><use xlink:href="#DejaVuSans-32"/><use xlink:href="#DejaVuSans-35" x="63.623"/></g></g></g><path id="line2d_23" d="m32.015 323.95 2.795-.641 2.796.31h8.432l2.795.33h2.795l2.796-.32 2.841-.961 2.704.927 2.703-1.248 2.796-.384 2.795.384 2.796-.053 2.795-.908 2.841 1.282 2.795.95 2.796-.95 2.795-3.023 2.796 1.741 2.84-2.884 2.704-3.423 2.704-1.064 2.796-1.325 2.795.043 2.795-4.679 2.796 2.436 2.84 1.923 2.796-2.703 2.796-.823 2.795-3.482 2.795 2.52 2.842-7.37 2.703 2.106 2.704-7.234 2.795 5.341 2.796-5.34 2.795 1.367 2.795 3.76 2.842-1.282 2.795 3.482 2.795-4.764 2.796-5.17 2.795-.278 2.841 7.37 2.75.741 2.75-4.906 2.795 4.027 2.795 6.228 2.796-4.241 2.795 1.998 2.841 1.602 2.795 3.023 2.796 2.425 2.795-1.431 2.796 1.11 2.84-2.884 2.705 4.99 2.703.779 2.796.31 2.795 2.895 2.795-4.22 2.796 3.258 2.84-.961 2.796 3.995 2.796-.47 2.795-.854 2.795 1.175 2.842.64 2.703 1.614 2.704-1.613 5.59 1.602 2.796.556 2.796-1.838 2.84-3.205 2.796 3.387 2.795-.502 2.796-.16 2.795.48 2.841-.64 2.704 2.998 2.704-2.037 2.795-1.795 2.796 2.436 2.795-1.443 2.795 1.122 2.841-2.884 2.796 2.756 2.795.769 2.796-.107 2.795 1.389h2.841l2.75-.475 2.75-1.768 2.795-1.133 2.795 1.453 2.795-.128 2.796-2.756 2.84.961 2.796 1.464 2.796-.823 2.795 3.803 2.795-1.56 2.842-.96 2.703 1.716 2.704.526 2.795-1.046 2.796-.556 2.795.887 2.796.395h2.84l2.796-1.72 2.795.759 2.796 1.56 2.795-1.24 2.841-.32 2.704-1.374 2.704 1.374 2.795.235 2.796.405 2.795-.074 2.795 1.356h2.842l2.795-.694 2.795 1.015 2.796-1.677 2.795-.566h0" clip-path="url(#p444c69177c)" style="fill:none;stroke:#8c564b;stroke-width:1.5;stroke-linecap:square"/><path id="line2d_24" d="m218.984 323.95 2.795-1.603 2.842-1.602 2.703 2.14 2.704.103 2.795.3 2.796-.94 2.795-.716 2.796.395 2.84-.961 2.796 1.228 2.795-4.754 2.796 3.098 2.795 2.03 2.841-4.166 2.704 1.9 2.704-3.182 2.795 2.094 2.796-2.094 2.795 3.087 2.795-.203 2.841 2.564 2.796-2.692 2.795 3.012 2.796-2.35 2.795-.534 2.841.641 2.75.464 2.75-3.669 2.795-.545 2.795 2.148 2.795-.492 2.796.171 2.84 1.603 2.796.213 2.796.748 2.795-.085 2.795-.876 2.842-.641 2.703 1.682 2.704-3.285 2.795 2.126 2.796-.844 2.795.844 2.796.118h2.84l2.796.544 2.795-2.788 2.796-1.848 2.795.887 2.841 1.602 2.704-1.614 2.704 2.576 2.795-3.12 2.796 1.197 2.795-1.197 2.795 3.44 2.842 1.923 2.795-1.389 2.795 1.068 2.796-1.399 2.795.118" clip-path="url(#p444c69177c)" style="fill:none;stroke:#9467bd;stroke-width:1.5;stroke-linecap:square"/><path id="line2d_25" d="m149.191 323.95 2.796-.331 2.795.01h2.841l2.75.32 2.75-.32 2.795-1.004 2.795.684 2.796-.353 2.795.353 2.841-1.282 2.795-2.051 2.796-3.397 2.795 3.397 2.796 1.09 2.84-.321 2.705-.343 2.703 1.625 2.796-2.713 2.795 1.11 2.795-.448 2.796 1.09 2.84-.962 2.796 2.852 2.796-2.531 2.795 2.2 2.795-1.239 2.842.64 2.703-2.334 2.704 2.014 2.795.588 2.796-1.549 2.795-.107 2.796.748 2.84-2.243 2.796-.823 2.795 3.066 2.796.246 2.795.715 2.841-2.243 2.704 1.362 2.704-.721 2.795.887 2.796-1.207 2.795-.78 2.795-2.746 2.841 1.603 2.796.15 2.795.49 2.796-2.147 2.795 1.507 2.841-2.564 2.75 2.873 2.75-4.796 2.795.993 2.795-1.954 2.795-.033 2.796 3.878 2.84-.32 2.796-2.233 2.796-.652 2.795 4.626 2.795-3.023 2.842 4.487 2.703-1.511 2.704-1.374 2.795.759 2.796 1.164 2.795-.833 2.796-.128h2.84l2.796-.866 2.795-.737 2.796-1.25 2.795 3.494 2.841-1.923 2.704 2.758 2.704-1.797 2.795-1.207 2.796 2.49 2.795-2.159 2.795.235 2.842 1.282 2.795-3.173 2.795 3.494 2.796-.844 2.795.844" clip-path="url(#p444c69177c)" style="fill:none;stroke:#d62728;stroke-width:1.5;stroke-linecap:square"/><g id="text_17" style="fill:#1f77b4" transform="matrix(.14 0 0 -.14 399.849 216.607)"><defs><path id="DejaVuSans-77" d="M269 3500h575l719-2731 715 2731h678l719-2731 716 2731h575L4050 0h-678l-753 2869L1863 0h-679L269 3500z" transform="scale(.01563)"/><path id="DejaVuSans-65" d="M3597 1894v-281H953q38-594 358-905t892-311q331 0 642 81t618 244V178Q3153 47 2828-22t-659-69q-838 0-1327 487-489 488-489 1320 0 859 464 1363 464 505 1252 505 706 0 1117-455 411-454 411-1235zm-575 169q-6 471-264 752-258 282-683 282-481 0-770-272t-333-766l2050 4z" transform="scale(.01563)"/><path id="DejaVuSans-62" d="M3116 1747q0 634-261 995t-717 361q-457 0-718-361t-261-995q0-634 261-995t718-361q456 0 717 361t261 995zM1159 2969q182 312 458 463 277 152 661 152 638 0 1036-506 399-506 399-1331T3314 415Q2916-91 2278-91q-384 0-661 152-276 152-458 464V0H581v4863h578V2969z" transform="scale(.01563)"/><path id="DejaVuSans-70" d="M1159 525v-1856H581v4831h578v-531q182 312 458 463 277 152 661 152 638 0 1036-506 399-506 399-1331T3314 415Q2916-91 2278-91q-384 0-661 152-276 152-458 464zm1957 1222q0 634-261 995t-717 361q-457 0-718-361t-261-995q0-634 261-995t718-361q456 0 717 361t261 995z" transform="scale(.01563)"/><path id="DejaVuSans-61" d="M2194 1759q-697 0-966-159t-269-544q0-306 202-486 202-179 548-179 479 0 768 339t289 901v128h-572zm1147 238V0h-575v531q-197-318-491-470T1556-91q-537 0-855 302-317 302-317 808 0 590 395 890 396 300 1180 300h807v57q0 397-261 614t-733 217q-300 0-585-72-284-72-546-216v532q315 122 612 182 297 61 578 61 760 0 1135-394 375-393 375-1193z" transform="scale(.01563)"/><path id="DejaVuSans-63" d="M3122 3366v-538q-244 135-489 202t-495 67q-560 0-870-355-309-354-309-995t309-996q310-354 870-354 250 0 495 67t489 202V134Q2881 22 2623-34q-257-57-548-57-791 0-1257 497-465 497-465 1341 0 856 470 1346 471 491 1290 491 265 0 518-55 253-54 491-163z" transform="scale(.01563)"/><path id="DejaVuSans-6b" d="M581 4863h578V1991l1716 1509h734L1753 1863 3688 0h-750L1159 1709V0H581v4863z" transform="scale(.01563)"/></defs><use xlink:href="#DejaVuSans-77"/><use xlink:href="#DejaVuSans-65" x="81.787"/><use xlink:href="#DejaVuSans-62" x="143.311"/><use xlink:href="#DejaVuSans-70" x="206.787"/><use xlink:href="#DejaVuSans-61" x="270.264"/><use xlink:href="#DejaVuSans-63" x="331.543"/><use xlink:href="#DejaVuSans-6b" x="386.523"/></g><g id="text_18" style="fill:#ff7f0e" transform="matrix(.14 0 0 -.14 399.849 245.13)"><defs><path id="DejaVuSans-76" d="M191 3500h609L1894 563l1094 2937h609L2284 0h-781L191 3500z" transform="scale(.01563)"/><path id="DejaVuSans-69" d="M603 3500h575V0H603v3500zm0 1363h575v-729H603v729z" transform="scale(.01563)"/><path id="DejaVuSans-74" d="M1172 4494v-994h1184v-447H1172V1153q0-428 117-550t477-122h590V0h-590q-666 0-919 248-253 249-253 905v1900H172v447h422v994h578z" transform="scale(.01563)"/></defs><use xlink:href="#DejaVuSans-76"/><use xlink:href="#DejaVuSans-69" x="59.18"/><use xlink:href="#DejaVuSans-74" x="86.963"/><use xlink:href="#DejaVuSans-65" x="126.172"/></g><g id="text_19" style="fill:#2ca02c" transform="matrix(.14 0 0 -.14 399.849 301.685)"><defs><path id="DejaVuSans-67" d="M2906 1791q0 625-258 968-257 344-723 344-462 0-720-344-258-343-258-968 0-622 258-966t720-344q466 0 723 344 258 344 258 966zm575-1357q0-893-397-1329-396-436-1215-436-303 0-572 45t-522 139v559q253-137 500-202 247-66 503-66 566 0 847 295t281 892v285q-178-310-456-463T1784 0Q1141 0 747 490 353 981 353 1791q0 812 394 1302 394 491 1037 491 388 0 666-153t456-462v531h575V434z" transform="scale(.01563)"/><path id="DejaVuSans-75" d="M544 1381v2119h575V1403q0-497 193-746 194-248 582-248 465 0 735 297 271 297 271 810v1984h575V0h-575v538q-209-319-486-474-276-155-642-155-603 0-916 375-312 375-312 1097zm1447 2203z" transform="scale(.01563)"/><path id="DejaVuSans-6c" d="M603 4863h575V0H603v4863z" transform="scale(.01563)"/></defs><use xlink:href="#DejaVuSans-67"/><use xlink:href="#DejaVuSans-75" x="63.477"/><use xlink:href="#DejaVuSans-6c" x="126.855"/><use xlink:href="#DejaVuSans-70" x="154.639"/></g><g id="text_20" style="fill:#d62728" transform="matrix(.14 0 0 -.14 399.849 315.685)"><defs><path id="DejaVuSans-72" d="M2631 2963q-97 56-211 82-114 27-251 27-488 0-749-317t-261-911V0H581v3500h578v-544q182 319 472 473 291 155 707 155 59 0 131-8 72-7 159-23l3-590z" transform="scale(.01563)"/><path id="DejaVuSans-6f" d="M1959 3097q-462 0-731-361t-269-989q0-628 267-989 268-361 733-361 460 0 728 362 269 363 269 988 0 622-269 986-268 364-728 364zm0 487q750 0 1178-488 429-487 429-1349 0-859-429-1349Q2709-91 1959-91q-753 0-1180 489-426 490-426 1349 0 862 426 1349 427 488 1180 488z" transform="scale(.01563)"/><path id="DejaVuSans-6a" d="M603 3500h575V-63q0-668-255-968-254-300-820-300h-219v487H38q328 0 446 152Q603-541 603-63v3563zm0 1363h575v-729H603v729z" transform="scale(.01563)"/><path id="DejaVuSans-73" d="M2834 3397v-544q-243 125-506 187-262 63-544 63-428 0-642-131t-214-394q0-200 153-314t616-217l197-44q612-131 870-370t258-667q0-488-386-773Q2250-91 1575-91q-281 0-586 55T347 128v594q319-166 628-249 309-82 613-82 406 0 624 139 219 139 219 392 0 234-158 359-157 125-692 241l-200 47q-534 112-772 345-237 233-237 639 0 494 350 762 350 269 994 269 318 0 599-47 282-46 519-140z" transform="scale(.01563)"/></defs><use xlink:href="#DejaVuSans-72"/><use xlink:href="#DejaVuSans-6f" x="38.863"/><use xlink:href="#DejaVuSans-6c" x="100.045"/><use xlink:href="#DejaVuSans-6c" x="127.828"/><use xlink:href="#DejaVuSans-75" x="155.611"/><use xlink:href="#DejaVuSans-70" x="218.99"/><use xlink:href="#DejaVuSans-6a" x="282.467"/><use xlink:href="#DejaVuSans-73" x="310.25"/></g><g id="text_21" style="fill:#9467bd" transform="matrix(.14 0 0 -.14 399.849 329.685)"><use xlink:href="#DejaVuSans-70"/><use xlink:href="#DejaVuSans-61" x="63.477"/><use xlink:href="#DejaVuSans-72" x="124.756"/><use xlink:href="#DejaVuSans-63" x="163.619"/><use xlink:href="#DejaVuSans-65" x="218.6"/><use xlink:href="#DejaVuSans-6c" x="280.123"/><use xlink:href="#DejaVuSans-6a" x="307.906"/><use xlink:href="#DejaVuSans-73" x="335.689"/></g><g id="text_22" style="fill:#8c564b" transform="matrix(.14 0 0 -.14 399.849 343.685)"><defs><path id="DejaVuSans-66" d="M2375 4863v-479h-550q-309 0-430-125-120-125-120-450v-309h947v-447h-947V0H697v3053H147v447h550v244q0 584 272 851 272 268 862 268h544z" transform="scale(.01563)"/><path id="DejaVuSans-79" d="M2059-325q-243-625-475-815-231-191-618-191H506v481h338q237 0 368 113 132 112 291 531l103 262L191 3500h609L1894 763l1094 2737h609L2059-325z" transform="scale(.01563)"/></defs><use xlink:href="#DejaVuSans-62"/><use xlink:href="#DejaVuSans-72" x="63.477"/><use xlink:href="#DejaVuSans-6f" x="102.34"/><use xlink:href="#DejaVuSans-77" x="163.521"/><use xlink:href="#DejaVuSans-73" x="245.309"/><use xlink:href="#DejaVuSans-65" x="297.408"/><use xlink:href="#DejaVuSans-72" x="358.932"/><use xlink:href="#DejaVuSans-69" x="400.045"/><use xlink:href="#DejaVuSans-66" x="427.828"/><use xlink:href="#DejaVuSans-79" x="461.283"/></g><g id="text_23" style="fill:#b0b0b0" transform="matrix(.09716 0 0 -.09716 32.015 357.986)"><defs><path id="DejaVuSans-40" d="M2381 1678q0-447 222-702 222-254 610-254 384 0 604 256 221 256 221 700 0 438-225 695-225 258-607 258-378 0-602-256-223-256-223-697zm1703-934q-187-241-429-355t-564-114q-538 0-874 389t-336 1014q0 625 337 1015 338 391 873 391 322 0 565-117 244-117 428-354v409h447V722q457 69 714 417 258 349 258 902 0 334-99 628-98 294-298 544-325 409-792 626t-1017 217q-384 0-738-102-353-101-653-301-490-319-767-836-276-517-276-1120 0-497 179-932 180-434 521-765 328-325 759-495 431-171 922-171 403 0 792 136t714 389l281-347q-390-303-851-464t-936-161q-578 0-1091 205-512 205-912 595Q841 78 631 592q-209 514-209 1105 0 569 212 1084 213 516 607 907 403 396 931 607t1119 211q662 0 1229-272 568-271 952-771 234-307 357-666 124-359 124-744 0-822-497-1297T4084 263v481z" transform="scale(.01563)"/><path id="DejaVuSans-6e" d="M3513 2113V0h-575v2094q0 497-194 743-194 247-581 247-466 0-735-297-269-296-269-809V0H581v3500h578v-544q207 316 486 472 280 156 646 156 603 0 912-373 310-373 310-1098z" transform="scale(.01563)"/><path id="DejaVuSans-68" d="M3513 2113V0h-575v2094q0 497-194 743-194 247-581 247-466 0-735-297-269-296-269-809V0H581v4863h578V2956q207 316 486 472 280 156 646 156 603 0 912-373 310-373 310-1098z" transform="scale(.01563)"/><path id="DejaVuSans-2f" d="M1625 4666h531L531-594H0l1625 5260z" transform="scale(.01563)"/><path id="DejaVuSans-2d" d="M313 2009h1684v-512H313v512z" transform="scale(.01563)"/><path id="DejaVuSans-64" d="M2906 2969v1894h575V0h-575v525q-181-312-458-464-276-152-664-152-634 0-1033 506-398 507-398 1332t398 1331q399 506 1033 506 388 0 664-152 277-151 458-463zM947 1747q0-634 261-995t717-361q456 0 718 361 263 361 263 995t-263 995q-262 361-718 361t-717-361q-261-361-261-995z" transform="scale(.01563)"/><path id="DejaVuSans-7c" d="M1344 4891v-6400H813v6400h531z" transform="scale(.01563)"/><path id="DejaVuSans-4e" d="M628 4666h850L3547 763v3903h612V0h-850L1241 3903V0H628v4666z" transform="scale(.01563)"/><path id="DejaVuSans-53" d="M3425 4513v-616q-359 172-678 256-319 85-616 85-515 0-795-200t-280-569q0-310 186-468 186-157 705-254l381-78q706-135 1042-474t336-907q0-679-455-1029Q2797-91 1919-91q-331 0-705 75-373 75-773 222v650q384-215 753-325 369-109 725-109 540 0 834 212 294 213 294 607 0 343-211 537t-692 291l-385 75q-706 140-1022 440-315 300-315 835 0 619 436 975t1201 356q329 0 669-60 341-59 697-177z" transform="scale(.01563)"/><path id="DejaVuSans-f6" d="M1959 3097q-462 0-731-361t-269-989q0-628 267-989 268-361 733-361 460 0 728 362 269 363 269 988 0 622-269 986-268 364-728 364zm0 487q750 0 1178-488 429-487 429-1349 0-859-429-1349Q2709-91 1959-91q-753 0-1180 489-426 490-426 1349 0 862 426 1349 427 488 1180 488zm295 1266h634v-631h-634v631zm-1222 0h634v-631h-634v631z" transform="scale(.01563)"/><path id="DejaVuSans-6d" d="M3328 2828q216 388 516 572t706 184q547 0 844-383 297-382 297-1088V0h-578v2094q0 503-179 746-178 244-543 244-447 0-707-297-259-296-259-809V0h-578v2094q0 506-178 748t-550 242q-441 0-701-298-259-298-259-808V0H581v3500h578v-544q197 322 472 475t653 153q382 0 649-194 267-193 395-562z" transform="scale(.01563)"/><path id="DejaVuSans-43" d="M4122 4306v-665q-319 297-680 443-361 147-767 147-800 0-1225-489t-425-1414q0-922 425-1411t1225-489q406 0 767 147t680 444V359q-331-225-702-338-370-112-782-112-1060 0-1670 648-609 649-609 1771 0 1125 609 1773 610 649 1670 649 418 0 788-111 371-111 696-333z" transform="scale(.01563)"/><path id="DejaVuSans-42" d="M1259 2228V519h1013q509 0 754 211 246 211 246 645 0 438-246 645-245 208-754 208H1259zm0 1919V2741h935q462 0 688 173 227 174 227 530 0 353-227 528-226 175-688 175h-935zm-631 519h1613q722 0 1112-300 391-300 391-853 0-429-200-682t-588-315q466-100 724-418 258-317 258-792 0-625-425-966Q3088 0 2303 0H628v4666z" transform="scale(.01563)"/><path id="DejaVuSans-59" d="M-13 4666h679l1293-1919 1285 1919h678L2272 2222V0h-634v2222L-13 4666z" transform="scale(.01563)"/></defs><use xlink:href="#DejaVuSans-40"/><use xlink:href="#DejaVuSans-6e" x="100"/><use xlink:href="#DejaVuSans-73" x="163.379"/><use xlink:href="#DejaVuSans-63" x="215.479"/><use xlink:href="#DejaVuSans-68" x="270.459"/><use xlink:href="#DejaVuSans-6c" x="333.838"/><use xlink:href="#DejaVuSans-6f" x="361.621"/><use xlink:href="#DejaVuSans-65" x="422.803"/><use xlink:href="#DejaVuSans-20" x="484.326"/><use xlink:href="#DejaVuSans-2f" x="516.113"/><use xlink:href="#DejaVuSans-20" x="549.805"/><use xlink:href="#DejaVuSans-73" x="581.592"/><use xlink:href="#DejaVuSans-74" x="633.691"/><use xlink:href="#DejaVuSans-61" x="672.9"/><use xlink:href="#DejaVuSans-63" x="734.18"/><use xlink:href="#DejaVuSans-6b" x="789.16"/><use xlink:href="#DejaVuSans-6f" x="843.445"/><use xlink:href="#DejaVuSans-76" x="904.627"/><use xlink:href="#DejaVuSans-65" x="963.807"/><use xlink:href="#DejaVuSans-72" x="1025.33"/><use xlink:href="#DejaVuSans-66" x="1066.443"/><use xlink:href="#DejaVuSans-6c" x="1101.648"/><use xlink:href="#DejaVuSans-6f" x="1129.432"/><use xlink:href="#DejaVuSans-77" x="1190.613"/><use xlink:href="#DejaVuSans-2d" x="1272.4"/><use xlink:href="#DejaVuSans-74" x="1308.484"/><use xlink:href="#DejaVuSans-72" x="1347.693"/><use xlink:href="#DejaVuSans-65" x="1386.557"/><use xlink:href="#DejaVuSans-6e" x="1448.08"/><use xlink:href="#DejaVuSans-64" x="1511.459"/><use xlink:href="#DejaVuSans-73" x="1574.936"/><use xlink:href="#DejaVuSans-20" x="1627.035"/><use xlink:href="#DejaVuSans-7c" x="1658.822"/><use xlink:href="#DejaVuSans-20" x="1692.514"/><use xlink:href="#DejaVuSans-4e" x="1724.301"/><use xlink:href="#DejaVuSans-69" x="1799.105"/><use xlink:href="#DejaVuSans-63" x="1826.889"/><use xlink:href="#DejaVuSans-6f" x="1881.869"/><use xlink:href="#DejaVuSans-20" x="1943.051"/><use xlink:href="#DejaVuSans-53" x="1974.838"/><use xlink:href="#DejaVuSans-63" x="2038.314"/><use xlink:href="#DejaVuSans-68" x="2093.295"/><use xlink:href="#DejaVuSans-6c" x="2156.674"/><use xlink:href="#DejaVuSans-f6" x="2184.457"/><use xlink:href="#DejaVuSans-6d" x="2245.639"/><use xlink:href="#DejaVuSans-65" x="2343.051"/><use xlink:href="#DejaVuSans-72" x="2404.574"/><use xlink:href="#DejaVuSans-20" x="2445.688"/><use xlink:href="#DejaVuSans-7c" x="2477.475"/><use xlink:href="#DejaVuSans-20" x="2511.166"/><use xlink:href="#DejaVuSans-43" x="2542.953"/><use xlink:href="#DejaVuSans-43" x="2612.777"/><use xlink:href="#DejaVuSans-20" x="2682.602"/><use xlink:href="#DejaVuSans-42" x="2714.389"/><use xlink:href="#DejaVuSans-59" x="2777.492"/></g><g id="text_24" style="fill:#b0b0b0" transform="matrix(.14 0 0 -.14 54.43 17.838)"><defs><path id="DejaVuSans-44" d="M1259 4147V519h763q966 0 1414 437 448 438 448 1382 0 937-448 1373t-1414 436h-763zm-631 519h1297q1356 0 1990-564 635-564 635-1764 0-1207-638-1773Q3275 0 1925 0H628v4666z" transform="scale(.01563)"/><path id="DejaVuSans-71" d="M947 1747q0-634 261-995t717-361q456 0 718 361 263 361 263 995t-263 995q-262 361-718 361t-717-361q-261-361-261-995zM2906 525q-181-312-458-464-276-152-664-152-634 0-1033 506-398 507-398 1332t398 1331q399 506 1033 506 388 0 664-152 277-151 458-463v531h575v-4831h-575V525z" transform="scale(.01563)"/><path id="DejaVuSans-4f" d="M2522 4238q-688 0-1093-513-404-512-404-1397 0-881 404-1394 405-512 1093-512 687 0 1089 512 402 513 402 1394 0 885-402 1397-402 513-1089 513zm0 512q981 0 1568-658 588-658 588-1764 0-1103-588-1761Q3503-91 2522-91q-984 0-1574 656-589 657-589 1763t589 1764q590 658 1574 658z" transform="scale(.01563)"/></defs><use xlink:href="#DejaVuSans-44"/><use xlink:href="#DejaVuSans-61" x="77.002"/><use xlink:href="#DejaVuSans-69" x="138.281"/><use xlink:href="#DejaVuSans-6c" x="166.064"/><use xlink:href="#DejaVuSans-79" x="193.848"/><use xlink:href="#DejaVuSans-20" x="253.027"/><use xlink:href="#DejaVuSans-6e" x="284.814"/><use xlink:href="#DejaVuSans-75" x="348.193"/><use xlink:href="#DejaVuSans-6d" x="411.572"/><use xlink:href="#DejaVuSans-62" x="508.984"/><use xlink:href="#DejaVuSans-65" x="572.461"/><use xlink:href="#DejaVuSans-72" x="633.984"/><use xlink:href="#DejaVuSans-20" x="675.098"/><use xlink:href="#DejaVuSans-6f" x="706.885"/><use xlink:href="#DejaVuSans-66" x="768.066"/><use xlink:href="#DejaVuSans-20" x="803.271"/><use xlink:href="#DejaVuSans-71" x="835.059"/><use xlink:href="#DejaVuSans-75" x="898.535"/><use xlink:href="#DejaVuSans-65" x="961.914"/><use xlink:href="#DejaVuSans-73" x="1023.438"/><use xlink:href="#DejaVuSans-74" x="1075.537"/><use xlink:href="#DejaVuSans-69" x="1114.746"/><use xlink:href="#DejaVuSans-6f" x="1142.529"/><use xlink:href="#DejaVuSans-6e" x="1203.711"/><use xlink:href="#DejaVuSans-73" x="1267.09"/><use xlink:href="#DejaVuSans-20" x="1319.189"/><use xlink:href="#DejaVuSans-6f" x="1350.977"/><use xlink:href="#DejaVuSans-6e" x="1412.158"/><use xlink:href="#DejaVuSans-20" x="1475.537"/><use xlink:href="#DejaVuSans-53" x="1507.324"/><use xlink:href="#DejaVuSans-74" x="1570.801"/><use xlink:href="#DejaVuSans-61" x="1610.01"/><use xlink:href="#DejaVuSans-63" x="1671.289"/><use xlink:href="#DejaVuSans-6b" x="1726.27"/><use xlink:href="#DejaVuSans-4f" x="1784.18"/><use xlink:href="#DejaVuSans-76" x="1862.891"/><use xlink:href="#DejaVuSans-65" x="1922.07"/><use xlink:href="#DejaVuSans-72" x="1983.594"/><use xlink:href="#DejaVuSans-66" x="2024.707"/><use xlink:href="#DejaVuSans-6c" x="2059.912"/><use xlink:href="#DejaVuSans-6f" x="2087.695"/><use xlink:href="#DejaVuSans-77" x="2148.877"/></g><path id="line2d_26" d="m87.877 323.95 2.84-6.73 2.704-19.881 2.704 6.42 2.796-2.328 2.795-6.324 2.795-.3 2.796-10.276 2.84 8.653 2.796-7.318 2.796-1.976 2.795-5.31 2.795.503 2.842-14.422 2.703-7.771 2.704 3.925 2.795-17.337 2.796 1.634 2.795 3.664 2.795-11.035 2.842 4.807 2.795-8.343 2.795.331 2.796-2.65 2.795-6.003 2.841-6.089 2.75-3.757 2.75-1.691 2.795-2.991 2.795 12.605 2.796 6.933 2.795 5.566 2.841-8.973 2.795 10.362 2.796 3.739 2.795 2.884 2.796 13.78 2.84 3.205 2.705-12.018 2.703 8.814 2.796 7.413 2.795 1.24 2.795-2.895 2.796 8.984 2.84-.641 2.796 5.565 2.796-1.4 2.795-.255 2.795 12.755 2.842-2.564 2.703-1.18 2.704-1.705 2.795.31 2.796 9.946 2.795-1.667 2.796-2.82 2.84-.64 2.796-2.17 2.795-2.959 2.796-.352 2.795 7.403 2.841-10.896 2.704 6.615 2.704 2.038 2.795-1.848 2.796 6.975 2.795-3.002 2.795.759 2.841 4.487 2.796 2.371 2.795-6.538 2.796 1.902 2.795 8.674 2.841-6.41 2.75-4.685 2.75 6.929 2.795-2.852 2.795 5.736 2.795-1.431 2.796 3.995 2.84-4.487 2.796 5.128 2.796-3.846 2.795 2.521 2.795 5.491 2.842-2.243 2.703-1.568 2.704 2.85 2.795 4.412 2.796-2.49 2.795-4.465 2.796-2.264 2.84 7.691 2.796-2.115 2.795 3.397 2.796-3.728 2.795 3.728 2.841-.32 2.704 2.884 2.704-4.166 2.795.192 2.796.449 2.795.545 2.795 2.66h2.842l2.795-1.667 2.795 1.026 2.796 5.266 2.795-3.023" clip-path="url(#p444c69177c)" style="fill:none;stroke:#2ca02c;stroke-width:1.5;stroke-linecap:square"/><path id="line2d_27" d="m299.82 323.95 2.796-.32 2.795.32h2.796l2.84-.32 2.796-.011 2.796-.63 2.795.63 2.795-.31 2.842-1.282 2.703-3.4 2.704-1.087 2.795-2.532 2.796.61 2.795-4.252 2.796-.876 2.84.961 2.796-6.377 2.795 3.493 2.796-2.831 2.795-6.143 2.841-5.127 2.704-3.16 2.704-4.211 2.795-4.872 2.796 1.987 2.795-7.285 2.795-30.21 2.842 9.614 2.795.726 2.795-10.34 2.796-9.86 2.795 4.411" clip-path="url(#p444c69177c)" style="fill:none;stroke:#ff7f0e;stroke-width:1.5;stroke-linecap:square"/><path id="line2d_28" d="m93.421 323.95 2.704-.32 2.796-.343 2.795-.299 2.795-.032 2.796-.93 2.84-1.922 2.796 2.19 2.796-1.87 2.795-.117 2.795-3.408 2.842 3.205 2.703-3.96 2.704-7.257 2.795-3.813 2.796-3.558 2.795-6.708 2.795-4.508 2.842.64 2.795-7.392 2.795-8.952 2.796-13.236 2.795-12.402 2.841-24.998 2.75 3.382 2.75-21.008 2.795-13.193 2.795 5.181 2.796-9.817 2.795-9.091 2.841-34.291 2.795 4.305 2.796-5.267 2.795-36.129 2.796 31.322 2.84-23.395 2.705-58.121 2.703 19.023 2.796 8.984 2.795 11.526 2.795-7.221 2.796-2.393 2.84 33.01 2.796 2.168 2.796 1.997 2.795 8.6 2.795 3.579 2.842-2.244 2.703-17.775 2.704-42.154 2.795 33.757 2.796-5.555 2.795 24.431 2.796-11.933 2.84-37.816 2.796 11.003 2.795 16.879 2.796 11.601 2.795 12.435 2.841-9.935 2.704 4.383 2.704-19.766 2.795 24.805 2.796-2.372 2.795 2.703 2.795-11.035 2.841 16.665 2.796 3.974 2.795-13.589 2.796 2.991 2.795 7.585 2.841-7.37 2.75-23.053 2.75 19.847 2.795-47.676 2.795-.716 2.795 39.462 2.796.598 2.84 20.51 2.796 7.04 2.796-25.948 2.795 1.442 2.795 26.76 2.842-33.33 2.703 3.022 2.704 11.4 2.795 10.693 2.796 13.023 2.795 13.802 2.796-11.239 2.84 6.73 2.796-12.712 2.795 14.315 2.796 12.51 2.795-5.14 2.841-10.895 2.704-13.747 2.704 14.708 2.795 32.956 2.796-4.433 2.795 19.004 2.795-7.147 2.842-5.448 2.795 8.29 2.795 3.888 2.796-3.888 2.795 9.337" clip-path="url(#p444c69177c)" style="fill:none;stroke:#1f77b4;stroke-width:1.5;stroke-linecap:square"/></g></g><defs><clipPath id="p444c69177c"><path d="M32.015 57.838h357.12V323.95H32.015z"/></clipPath></defs></svg>