<svg xmlns="http://www.w3.org/2000/svg" xmlns:xlink="http://www.w3.org/1999/xlink" width="682.985" height="489.969" viewBox="0 0 512.239 367.477"><defs><style>*{stroke-linejoin:round;stroke-linecap:butt}</style></defs><g id="figure_1"><path id="patch_1" d="M0 367.477h512.239V0H0v367.477z" style="fill:none"/><g id="axes_1"><path id="patch_2" d="M23.108 323.95h357.12V57.838H23.108V323.95z" style="fill:none"/><g id="matplotlib.axis_1"><g id="xtick_1"><g id="line2d_1"><defs><path id="m70004750d9" d="M0 0v3.5" style="stroke:#b0b0b0;stroke-width:.4"/></defs><use xlink:href="#m70004750d9" x="54.156" y="323.95" style="fill:#b0b0b0;stroke:#b0b0b0;stroke-width:.4"/></g><g id="text_1" style="fill:#b0b0b0" transform="matrix(.14 0 0 -.14 36.34 341.588)"><defs><path id="DejaVuSans-32" d="M1228 531h2203V0H469v531q359 372 979 998 621 627 780 809 303 340 423 576 121 236 121 464 0 372-261 606-261 235-680 235-297 0-627-103-329-103-704-313v638q381 153 712 231 332 78 607 78 725 0 1156-363 431-362 431-968 0-288-108-546-107-257-392-607-78-91-497-524-418-433-1181-1211z" transform="scale(.01563)"/><path id="DejaVuSans-30" d="M2034 4250q-487 0-733-480-245-479-245-1442 0-959 245-1439 246-480 733-480 491 0 736 480 246 480 246 1439 0 963-246 1442-245 480-736 480zm0 500q785 0 1199-621 414-620 414-1801 0-1178-414-1799Q2819-91 2034-91q-784 0-1198 620-414 621-414 1799 0 1181 414 1801 414 621 1198 621z" transform="scale(.01563)"/><path id="DejaVuSans-31" d="M794 531h1031v3560L703 3866v575l1116 225h631V531h1031V0H794v531z" transform="scale(.01563)"/></defs><use xlink:href="#DejaVuSans-32"/><use xlink:href="#DejaVuSans-30" x="63.623"/><use xlink:href="#DejaVuSans-31" x="127.246"/><use xlink:href="#DejaVuSans-30" x="190.869"/></g></g><g id="xtick_2"><use xlink:href="#m70004750d9" id="line2d_2" x="102.898" y="323.95" style="fill:#b0b0b0;stroke:#b0b0b0;stroke-width:.4"/><g id="text_2" style="fill:#b0b0b0" transform="matrix(.14 0 0 -.14 85.083 341.588)"><use xlink:href="#DejaVuSans-32"/><use xlink:href="#DejaVuSans-30" x="63.623"/><use xlink:href="#DejaVuSans-31" x="127.246"/><use xlink:href="#DejaVuSans-32" x="190.869"/></g></g><g id="xtick_3"><use xlink:href="#m70004750d9" id="line2d_3" x="151.707" y="323.95" style="fill:#b0b0b0;stroke:#b0b0b0;stroke-width:.4"/><g id="text_3" style="fill:#b0b0b0" transform="matrix(.14 0 0 -.14 133.892 341.588)"><defs><path id="DejaVuSans-34" d="M2419 4116 825 1625h1594v2491zm-166 550h794V1625h666v-525h-666V0h-628v1100H313v609l1940 2957z" transform="scale(.01563)"/></defs><use xlink:href="#DejaVuSans-32"/><use xlink:href="#DejaVuSans-30" x="63.623"/><use xlink:href="#DejaVuSans-31" x="127.246"/><use xlink:href="#DejaVuSans-34" x="190.869"/></g></g><g id="xtick_4"><use xlink:href="#m70004750d9" id="line2d_4" x="200.449" y="323.95" style="fill:#b0b0b0;stroke:#b0b0b0;stroke-width:.4"/><g id="text_4" style="fill:#b0b0b0" transform="matrix(.14 0 0 -.14 182.634 341.588)"><defs><path id="DejaVuSans-36" d="M2113 2584q-425 0-674-291-248-290-248-796 0-503 248-796 249-292 674-292t673 292q248 293 248 796 0 506-248 796-248 291-673 291zm1253 1979v-575q-238 112-480 171-242 60-480 60-625 0-955-422-329-422-376-1275 184 272 462 417 279 145 613 145 703 0 1111-427 408-426 408-1160 0-719-425-1154Q2819-91 2113-91q-810 0-1238 620-428 621-428 1799 0 1106 525 1764t1409 658q238 0 480-47t505-140z" transform="scale(.01563)"/></defs><use xlink:href="#DejaVuSans-32"/><use xlink:href="#DejaVuSans-30" x="63.623"/><use xlink:href="#DejaVuSans-31" x="127.246"/><use xlink:href="#DejaVuSans-36" x="190.869"/></g></g><g id="xtick_5"><use xlink:href="#m70004750d9" id="line2d_5" x="249.258" y="323.95" style="fill:#b0b0b0;stroke:#b0b0b0;stroke-width:.4"/><g id="text_5" style="fill:#b0b0b0" transform="matrix(.14 0 0 -.14 231.443 341.588)"><defs><path id="DejaVuSans-38" d="M2034 2216q-450 0-708-241-257-241-257-662 0-422 257-663 258-241 708-241t709 242q260 243 260 662 0 421-258 662-257 241-711 241zm-631 268q-406 100-633 378-226 279-226 679 0 559 398 884 399 325 1092 325 697 0 1094-325t397-884q0-400-227-679-226-278-629-378 456-106 710-416 255-309 255-755 0-679-414-1042Q2806-91 2034-91q-771 0-1186 362-414 363-414 1042 0 446 256 755 257 310 713 416zm-231 997q0-362 226-565 227-203 636-203 407 0 636 203 230 203 230 565 0 363-230 566-229 203-636 203-409 0-636-203-226-203-226-566z" transform="scale(.01563)"/></defs><use xlink:href="#DejaVuSans-32"/><use xlink:href="#DejaVuSans-30" x="63.623"/><use xlink:href="#DejaVuSans-31" x="127.246"/><use xlink:href="#DejaVuSans-38" x="190.869"/></g></g><g id="xtick_6"><use xlink:href="#m70004750d9" id="line2d_6" x="298" y="323.95" style="fill:#b0b0b0;stroke:#b0b0b0;stroke-width:.4"/><g id="text_6" style="fill:#b0b0b0" transform="matrix(.14 0 0 -.14 280.185 341.588)"><use xlink:href="#DejaVuSans-32"/><use xlink:href="#DejaVuSans-30" x="63.623"/><use xlink:href="#DejaVuSans-32" x="127.246"/><use xlink:href="#DejaVuSans-30" x="190.869"/></g></g><g id="xtick_7"><use xlink:href="#m70004750d9" id="line2d_7" x="346.809" y="323.95" style="fill:#b0b0b0;stroke:#b0b0b0;stroke-width:.4"/><g id="text_7" style="fill:#b0b0b0" transform="matrix(.14 0 0 -.14 328.994 341.588)"><use xlink:href="#DejaVuSans-32"/><use xlink:href="#DejaVuSans-30" x="63.623"/><use xlink:href="#DejaVuSans-32" x="127.246"/><use xlink:href="#DejaVuSans-32" x="190.869"/></g></g></g><g id="matplotlib.axis_2"><g id="ytick_1"><path id="line2d_8" d="M23.108 323.95h357.12" clip-path="url(#pf5deee6f56)" style="fill:none;stroke:#b0b0b0;stroke-width:.3;stroke-linecap:square"/><g id="line2d_9"><defs><path id="m5b285ecb79" d="M0 0h-3.5" style="stroke:#b0b0b0;stroke-width:.3"/></defs><use xlink:href="#m5b285ecb79" x="23.108" y="323.95" style="fill:#b0b0b0;stroke:#b0b0b0;stroke-width:.3"/></g><use xlink:href="#DejaVuSans-30" id="text_8" style="fill:#b0b0b0" transform="matrix(.14 0 0 -.14 7.2 329.269)"/></g><g id="ytick_2"><path id="line2d_10" d="M23.108 265.738h357.12" clip-path="url(#pf5deee6f56)" style="fill:none;stroke:#b0b0b0;stroke-width:.3;stroke-linecap:square"/><use xlink:href="#m5b285ecb79" id="line2d_11" x="23.108" y="265.738" style="fill:#b0b0b0;stroke:#b0b0b0;stroke-width:.3"/><use xlink:href="#DejaVuSans-31" id="text_9" style="fill:#b0b0b0" transform="matrix(.14 0 0 -.14 7.2 271.057)"/></g><g id="ytick_3"><path id="line2d_12" d="M23.108 207.526h357.12" clip-path="url(#pf5deee6f56)" style="fill:none;stroke:#b0b0b0;stroke-width:.3;stroke-linecap:square"/><use xlink:href="#m5b285ecb79" id="line2d_13" x="23.108" y="207.526" style="fill:#b0b0b0;stroke:#b0b0b0;stroke-width:.3"/><use xlink:href="#DejaVuSans-32" id="text_10" style="fill:#b0b0b0" transform="matrix(.14 0 0 -.14 7.2 212.845)"/></g><g id="ytick_4"><path id="line2d_14" d="M23.108 149.314h357.12" clip-path="url(#pf5deee6f56)" style="fill:none;stroke:#b0b0b0;stroke-width:.3;stroke-linecap:square"/><use xlink:href="#m5b285ecb79" id="line2d_15" x="23.108" y="149.314" style="fill:#b0b0b0;stroke:#b0b0b0;stroke-width:.3"/><g id="text_11" style="fill:#b0b0b0" transform="matrix(.14 0 0 -.14 7.2 154.633)"><defs><path id="DejaVuSans-33" d="M2597 2516q453-97 707-404 255-306 255-756 0-690-475-1069Q2609-91 1734-91q-293 0-604 58T488 141v609q262-153 574-231 313-78 654-78 593 0 904 234t311 681q0 413-289 645-289 233-804 233h-544v519h569q465 0 712 186t247 536q0 359-255 551-254 193-729 193-260 0-557-57-297-56-653-174v562q360 100 674 150t592 50q719 0 1137-327 419-326 419-882 0-388-222-655t-631-370z" transform="scale(.01563)"/></defs><use xlink:href="#DejaVuSans-33"/></g></g><g id="ytick_5"><path id="line2d_16" d="M23.108 91.102h357.12" clip-path="url(#pf5deee6f56)" style="fill:none;stroke:#b0b0b0;stroke-width:.3;stroke-linecap:square"/><use xlink:href="#m5b285ecb79" id="line2d_17" x="23.108" y="91.102" style="fill:#b0b0b0;stroke:#b0b0b0;stroke-width:.3"/><use xlink:href="#DejaVuSans-34" id="text_12" style="fill:#b0b0b0" transform="matrix(.14 0 0 -.14 7.2 96.42)"/></g></g><path id="line2d_18" d="m38.832 323.95 2.036-1.94 2.037 1.94H59.13l2.036-1.94 2.037.062 2.036 1.878h18.262l2.037-1.94 2.036.062 2.037 1.878h2.036l2.07-1.878 2.036-2.003 2.037 3.88h4.073l2.07-1.877 2.003 1.878 2.003-1.878 2.036-.063 2.037 1.94h2.036l2.037-3.755 2.07 3.756h8.146l2.07-1.878 1.97-.201 1.969.201 2.037-2.003 2.036 3.88 2.037-3.88 2.036 2.003 2.07 1.878 4.073-3.756 2.036 3.756 4.107-3.756 1.97 1.677 1.97-1.677 2.036-.125 2.036 3.88 4.073-3.755 2.07 3.756 2.036-1.94 2.037-3.694 2.036-.187 2.037 3.943 2.07-1.878 1.97-.402 1.97 2.28 2.036-2.003 2.036-11.142 2.037 11.142 2.036-1.753 2.07 1.878 2.037-.125 2.036-1.753 2.037-2.128 2.036.25 2.07-5.633 2.003 7.123 2.003-5.245 2.037 11.267 2.036-9.39 2.037-6.133 2.036 9.89 2.07-9.39 2.036 11.142 2.037-3.63 2.036-8.012 2.037 9.89 2.07-3.756 1.97-3.085 1.97 6.84 2.036 1.753 2.036 2.003 2.037-5.884 2.036 7.762 2.07-3.756 2.037-4.006 2.036 4.006 2.036-5.946 2.037 7.824 2.07-3.756 1.97-2.682 1.97-2.951 2.036-.376 2.036 6.01 2.037-2.129 2.036-1.627 2.07 5.633 2.037-9.827 2.036 11.705 2.037-.063 2.036-9.326 2.07 3.756 1.97-2.884 1.97 2.884 2.036-4.132 2.036 6.01 2.037 3.692 2.036-7.448 2.07 5.633 2.037-2.065 2.036-3.568 2.037 5.508 2.036 3.88 2.07-9.388 2.003-2.655 2.003 4.533 2.037-4.132 2.036-7.135 2.037 7.135 2.036 4.132 2.07-1.878 2.037-4.194 2.036 2.316 2.037 5.446 2.036-1.69h2.07l1.97-2.884 1.97-6.505 2.036 13.019 2.036-7.386 2.037-4.256 2.036 6.134 2.07 5.633 2.037-2.065 2.036-5.446 2.037 5.446 2.036.187 2.07-3.755 1.97-7.243 1.97 3.487 2.036 1.502 2.036.376 2.037 5.446 2.036.187 2.07 1.878 2.037-7.887 2.036 4.132 2.037-2.191 2.036-5.32 2.07 7.51 1.97-11.2 1.97 7.445 2.036 3.505 2.037.25h0" clip-path="url(#pf5deee6f56)" style="fill:none;stroke:#9467bd;stroke-width:1.5;stroke-linecap:square"/><path id="line2d_19" d="m23.108 320.312 1.569 3.638h8.112l1.97-1.878 2.036 1.878h2.037l2.036-3.881 2.037 2.003 2.07-3.756 2.036 5.634h2.037l2.036-3.881 2.037-3.63 2.07 3.755 1.97 1.677 1.969-9.188 2.036 5.446 2.037-1.69 2.036 5.57 2.037-1.815 2.07-7.511 2.036 3.505 2.037.25 2.036 1.69 2.037-1.69 2.07-5.633 1.97 6.908 1.97-1.274 2.036-6.072 2.036 9.827 2.037-2.065 2.036-1.69 2.07-3.756 2.036 5.446 2.037.187 2.036-13.77 2.037 11.893 2.07-3.756 2.003-.777 2.003-2.979 2.036 5.32 2.037-3.442 2.036 5.383 2.037-1.627 2.07-5.634 2.036-4.381 2.037-1.252 2.036-.689 2.037 2.567h2.07l1.97-6.17 1.969 4.292 2.037 5.133 2.036.5 2.037-.5 2.036-7.01 2.07 15.022 2.036-19.655 2.037 19.655 2.036-8.012 2.037.5 2.07 5.634 1.97 3.152 1.97-14.42 2.036 7.074 2.036 2.316 2.037-10.078 2.036 13.834 2.07-3.756 2.036-8.137 2.037 8.137 2.036-.376 2.037.376h2.07l1.97-17.84 1.97 14.084 2.036-2.44 2.036 6.196 2.037-12.018 2.036 12.018 2.07-3.756 2.037-8.262 2.036 15.774 2.037-11.893 2.036.626 2.07 1.878 2.003 4.856 2.003 6.41 2.037-6.009 2.036-1.502 2.037 1.502 2.036 2.254 2.07-15.023 2.036-12.456 2.037 27.479 2.036-19.717 2.037 14.083h2.07l1.97 2.549 1.97-6.304 2.036 9.076 2.036-9.076 2.037-12.269 2.036 16.024 2.07-13.144 2.037 4.882 2.036.751 2.036 10.891 2.037-1.502 2.07-22.534 1.97 16.968 1.97-3.823 2.036 3.13 2.036-10.641 2.037 16.462 2.036-5.195 2.07 3.755 2.037 3.38 2.036 2.254 2.037 3.568 2.036-7.324 2.07-1.878 1.97.47 1.97 10.797 2.036-11.767 2.036 6.134 2.037-10.015 2.036 13.77 2.07-16.9 2.037 18.653 2.036-11.142 2.037-2.44 2.036 11.83 2.07-20.656 2.003 10.23 2.003 2.914 2.037-10.14 2.036 10.14 2.037-17.902 2.036 6.635 2.07 7.512 2.037-.564 2.036 6.197 2.037-6.197 2.036-3.192 2.07-5.633 1.97-15.291 1.97 30.313 2.036 3.505 2.036-5.383 2.037-14.02 2.036 2.753 2.07 5.634 2.037 1.314 2.036-12.581 2.037 4.82 2.036 10.202 2.07-9.389 1.97-4.694 1.97 14.083 2.036 3.38 2.036-1.502 2.037-2.378 2.036-7.01 2.07-1.879 2.037 16.65 2.036-5.383 2.037 1.502 2.036-9.013 2.07 11.267 1.97-3.085 1.97-.67 2.036 11.203 2.037-5.57h0" clip-path="url(#pf5deee6f56)" style="fill:none;stroke:#d62728;stroke-width:1.5;stroke-linecap:square"/><path id="line2d_20" d="m23.108 323.95 1.569-1.878 2.036-2.003 2.037 3.88 2.07-16.9 1.97 14.822 1.969-1.677 2.036-4.006 2.037 4.006 2.036-.125 2.037.125 2.07-1.878 2.036-6.009 2.037-3.38 2.036 11.142 2.037-5.508 2.07 3.755 1.97-4.761 1.969-.872 2.036-12.018 2.037 8.262 2.036-.5 2.037-10.766 2.07 16.9 2.036-.313 2.037-1.565 2.036 11.267 2.037-9.39 2.07 1.879 1.97 3.353 1.97-1.476 2.036-2.128 2.036-9.138 2.037 13.019 2.036-1.753 2.07 1.878 2.036-7.887 2.037 9.765 2.036-.063 2.037-9.326 2.07-5.633 2.003 14.893 2.003-9.26 2.036 5.446 2.037 2.065 2.036-.125 2.037 2.003 2.07-1.878 2.036 1.815 2.037-3.693 2.036-2.128 2.037-1.627h2.07l1.97 1.073 1.969 2.682 2.037-4.068 2.036.313 2.037 3.568 2.036.187h2.07l2.036-6.009 2.037.376 2.036 9.326 2.037-3.693 2.07-7.51 1.97 6.907 1.97-18.175 2.036 10.829 2.036 2.316 2.037 5.446 2.036-7.324h2.07l2.036-4.319 2.037 2.441 2.036 3.38 2.037-9.013 2.07 11.267 1.97-3.085 1.97 3.085 2.036-8.075 2.036-1.314 2.037 3.255 2.036 8.012 2.07-1.878 2.037-.313 2.036 2.19 2.037-8.011 2.036 4.256 2.07 7.511 2.003-2.266 2.003 2.266 2.037-5.946 2.036-12.832 2.037 12.832 2.036 4.068 2.07-7.51 2.036 3.442 2.037 2.19 2.036-.25 2.037-5.383 2.07 1.878 1.97 2.95 1.97-8.583 2.036 7.198 2.036-5.32 2.037 9.2 2.036-5.445h2.07l2.037 1.565 2.036 2.19 2.036-8.011 2.037 8.012 2.07-1.878 1.97-7.243 1.97 12.876 2.036-5.946 2.036 2.19 2.037-2.19 2.036-3.443 2.07 7.511 2.037-2.128 2.036-7.26 2.037 7.26 2.036 5.884 2.07-3.756 1.97-15.156 1.97 9.523 2.036 7.386 2.036-13.02 2.037 14.96 2.036-3.693 2.07-5.633 2.037-4.256 2.036 13.645 2.037-5.884 2.036 5.884 2.07-11.267 2.003 5.116 2.003-1.36 2.037-15.836 2.036 15.836 2.037-.313 2.036-9.076 2.07 16.9 2.037-11.705 2.036 4.194 2.037 5.508 2.036-5.508 2.07-15.023 3.94 11.267 2.036-.438 2.036-1.44 2.037-2.44 2.036-1.315 2.07 1.878 2.037 13.019 2.036-13.02 2.037 1.378 2.036 6.134 2.07-1.878 1.97-15.76 1.97 10.127 2.036 9.138 2.036-5.383 2.037 5.383 2.036-3.505H362l2.037-.376 2.036-7.135 2.037 7.135 2.036 4.132 4.04-11.2 1.97 9.322 2.036-2.254 2.037-3.38h0" clip-path="url(#pf5deee6f56)" style="fill:none;stroke:#2ca02c;stroke-width:1.5;stroke-linecap:square"/><g id="text_13" style="fill:#1f77b4" transform="matrix(.14 0 0 -.14 390.941 160.688)"><defs><path id="DejaVuSans-6c" d="M603 4863h575V0H603v4863z" transform="scale(.01563)"/><path id="DejaVuSans-61" d="M2194 1759q-697 0-966-159t-269-544q0-306 202-486 202-179 548-179 479 0 768 339t289 901v128h-572zm1147 238V0h-575v531q-197-318-491-470T1556-91q-537 0-855 302-317 302-317 808 0 590 395 890 396 300 1180 300h807v57q0 397-261 614t-733 217q-300 0-585-72-284-72-546-216v532q315 122 612 182 297 61 578 61 760 0 1135-394 375-393 375-1193z" transform="scale(.01563)"/><path id="DejaVuSans-74" d="M1172 4494v-994h1184v-447H1172V1153q0-428 117-550t477-122h590V0h-590q-666 0-919 248-253 249-253 905v1900H172v447h422v994h578z" transform="scale(.01563)"/><path id="DejaVuSans-65" d="M3597 1894v-281H953q38-594 358-905t892-311q331 0 642 81t618 244V178Q3153 47 2828-22t-659-69q-838 0-1327 487-489 488-489 1320 0 859 464 1363 464 505 1252 505 706 0 1117-455 411-454 411-1235zm-575 169q-6 471-264 752-258 282-683 282-481 0-770-272t-333-766l2050 4z" transform="scale(.01563)"/><path id="DejaVuSans-78" d="M3513 3500 2247 1797 3578 0h-678L1881 1375 863 0H184l1360 1831L300 3500h678l928-1247 928 1247h679z" transform="scale(.01563)"/></defs><use xlink:href="#DejaVuSans-6c"/><use xlink:href="#DejaVuSans-61" x="27.783"/><use xlink:href="#DejaVuSans-74" x="89.063"/><use xlink:href="#DejaVuSans-65" x="128.271"/><use xlink:href="#DejaVuSans-78" x="188.045"/></g><g id="text_14" style="fill:#ff7f0e" transform="matrix(.14 0 0 -.14 390.941 207.633)"><defs><path id="DejaVuSans-6d" d="M3328 2828q216 388 516 572t706 184q547 0 844-383 297-382 297-1088V0h-578v2094q0 503-179 746-178 244-543 244-447 0-707-297-259-296-259-809V0h-578v2094q0 506-178 748t-550 242q-441 0-701-298-259-298-259-808V0H581v3500h578v-544q197 322 472 475t653 153q382 0 649-194 267-193 395-562z" transform="scale(.01563)"/><path id="DejaVuSans-72" d="M2631 2963q-97 56-211 82-114 27-251 27-488 0-749-317t-261-911V0H581v3500h578v-544q182 319 472 473 291 155 707 155 59 0 131-8 72-7 159-23l3-590z" transform="scale(.01563)"/><path id="DejaVuSans-6b" d="M581 4863h578V1991l1716 1509h734L1753 1863 3688 0h-750L1159 1709V0H581v4863z" transform="scale(.01563)"/><path id="DejaVuSans-64" d="M2906 2969v1894h575V0h-575v525q-181-312-458-464-276-152-664-152-634 0-1033 506-398 507-398 1332t398 1331q399 506 1033 506 388 0 664-152 277-151 458-463zM947 1747q0-634 261-995t717-361q456 0 718 361 263 361 263 995t-263 995q-262 361-718 361t-717-361q-261-361-261-995z" transform="scale(.01563)"/><path id="DejaVuSans-6f" d="M1959 3097q-462 0-731-361t-269-989q0-628 267-989 268-361 733-361 460 0 728 362 269 363 269 988 0 622-269 986-268 364-728 364zm0 487q750 0 1178-488 429-487 429-1349 0-859-429-1349Q2709-91 1959-91q-753 0-1180 489-426 490-426 1349 0 862 426 1349 427 488 1180 488z" transform="scale(.01563)"/><path id="DejaVuSans-77" d="M269 3500h575l719-2731 715 2731h678l719-2731 716 2731h575L4050 0h-678l-753 2869L1863 0h-679L269 3500z" transform="scale(.01563)"/><path id="DejaVuSans-6e" d="M3513 2113V0h-575v2094q0 497-194 743-194 247-581 247-466 0-735-297-269-296-269-809V0H581v3500h578v-544q207 316 486 472 280 156 646 156 603 0 912-373 310-373 310-1098z" transform="scale(.01563)"/></defs><use xlink:href="#DejaVuSans-6d"/><use xlink:href="#DejaVuSans-61" x="97.412"/><use xlink:href="#DejaVuSans-72" x="158.691"/><use xlink:href="#DejaVuSans-6b" x="199.805"/><use xlink:href="#DejaVuSans-64" x="257.715"/><use xlink:href="#DejaVuSans-6f" x="321.191"/><use xlink:href="#DejaVuSans-77" x="382.373"/><use xlink:href="#DejaVuSans-6e" x="464.16"/></g><g id="text_15" style="fill:#2ca02c" transform="matrix(.14 0 0 -.14 390.941 303.798)"><use xlink:href="#DejaVuSans-74"/><use xlink:href="#DejaVuSans-65" x="39.209"/><use xlink:href="#DejaVuSans-78" x="98.982"/></g><g id="text_16" style="fill:#d62728" transform="matrix(.14 0 0 -.14 390.941 331.798)"><defs><path id="DejaVuSans-73" d="M2834 3397v-544q-243 125-506 187-262 63-544 63-428 0-642-131t-214-394q0-200 153-314t616-217l197-44q612-131 870-370t258-667q0-488-386-773Q2250-91 1575-91q-281 0-586 55T347 128v594q319-166 628-249 309-82 613-82 406 0 624 139 219 139 219 392 0 234-158 359-157 125-692 241l-200 47q-534 112-772 345-237 233-237 639 0 494 350 762 350 269 994 269 318 0 599-47 282-46 519-140z" transform="scale(.01563)"/><path id="DejaVuSans-75" d="M544 1381v2119h575V1403q0-497 193-746 194-248 582-248 465 0 735 297 271 297 271 810v1984h575V0h-575v538q-209-319-486-474-276-155-642-155-603 0-916 375-312 375-312 1097zm1447 2203z" transform="scale(.01563)"/><path id="DejaVuSans-63" d="M3122 3366v-538q-244 135-489 202t-495 67q-560 0-870-355-309-354-309-995t309-996q310-354 870-354 250 0 495 67t489 202V134Q2881 22 2623-34q-257-57-548-57-791 0-1257 497-465 497-465 1341 0 856 470 1346 471 491 1290 491 265 0 518-55 253-54 491-163z" transform="scale(.01563)"/></defs><use xlink:href="#DejaVuSans-72"/><use xlink:href="#DejaVuSans-65" x="38.863"/><use xlink:href="#DejaVuSans-73" x="100.387"/><use xlink:href="#DejaVuSans-74" x="152.486"/><use xlink:href="#DejaVuSans-72" x="191.695"/><use xlink:href="#DejaVuSans-75" x="232.809"/><use xlink:href="#DejaVuSans-63" x="296.188"/><use xlink:href="#DejaVuSans-74" x="351.168"/><use xlink:href="#DejaVuSans-75" x="390.377"/><use xlink:href="#DejaVuSans-72" x="453.756"/><use xlink:href="#DejaVuSans-65" x="492.619"/><use xlink:href="#DejaVuSans-64" x="554.143"/><use xlink:href="#DejaVuSans-74" x="617.619"/><use xlink:href="#DejaVuSans-65" x="656.828"/><use xlink:href="#DejaVuSans-78" x="716.602"/><use xlink:href="#DejaVuSans-74" x="775.781"/></g><g id="text_17" style="fill:#9467bd" transform="matrix(.14 0 0 -.14 390.941 317.798)"><defs><path id="DejaVuSans-69" d="M603 3500h575V0H603v3500zm0 1363h575v-729H603v729z" transform="scale(.01563)"/></defs><use xlink:href="#DejaVuSans-61"/><use xlink:href="#DejaVuSans-73" x="61.279"/><use xlink:href="#DejaVuSans-63" x="113.379"/><use xlink:href="#DejaVuSans-69" x="168.359"/><use xlink:href="#DejaVuSans-69" x="196.143"/><use xlink:href="#DejaVuSans-64" x="223.926"/><use xlink:href="#DejaVuSans-6f" x="287.402"/><use xlink:href="#DejaVuSans-63" x="348.584"/></g><g id="text_18" style="fill:#b0b0b0" transform="matrix(.09716 0 0 -.09716 23.108 357.986)"><defs><path id="DejaVuSans-40" d="M2381 1678q0-447 222-702 222-254 610-254 384 0 604 256 221 256 221 700 0 438-225 695-225 258-607 258-378 0-602-256-223-256-223-697zm1703-934q-187-241-429-355t-564-114q-538 0-874 389t-336 1014q0 625 337 1015 338 391 873 391 322 0 565-117 244-117 428-354v409h447V722q457 69 714 417 258 349 258 902 0 334-99 628-98 294-298 544-325 409-792 626t-1017 217q-384 0-738-102-353-101-653-301-490-319-767-836-276-517-276-1120 0-497 179-932 180-434 521-765 328-325 759-495 431-171 922-171 403 0 792 136t714 389l281-347q-390-303-851-464t-936-161q-578 0-1091 205-512 205-912 595Q841 78 631 592q-209 514-209 1105 0 569 212 1084 213 516 607 907 403 396 931 607t1119 211q662 0 1229-272 568-271 952-771 234-307 357-666 124-359 124-744 0-822-497-1297T4084 263v481z" transform="scale(.01563)"/><path id="DejaVuSans-68" d="M3513 2113V0h-575v2094q0 497-194 743-194 247-581 247-466 0-735-297-269-296-269-809V0H581v4863h578V2956q207 316 486 472 280 156 646 156 603 0 912-373 310-373 310-1098z" transform="scale(.01563)"/><path id="DejaVuSans-2f" d="M1625 4666h531L531-594H0l1625 5260z" transform="scale(.01563)"/><path id="DejaVuSans-76" d="M191 3500h609L1894 563l1094 2937h609L2284 0h-781L191 3500z" transform="scale(.01563)"/><path id="DejaVuSans-66" d="M2375 4863v-479h-550q-309 0-430-125-120-125-120-450v-309h947v-447h-947V0H697v3053H147v447h550v244q0 584 272 851 272 268 862 268h544z" transform="scale(.01563)"/><path id="DejaVuSans-2d" d="M313 2009h1684v-512H313v512z" transform="scale(.01563)"/><path id="DejaVuSans-7c" d="M1344 4891v-6400H813v6400h531z" transform="scale(.01563)"/><path id="DejaVuSans-4e" d="M628 4666h850L3547 763v3903h612V0h-850L1241 3903V0H628v4666z" transform="scale(.01563)"/><path id="DejaVuSans-53" d="M3425 4513v-616q-359 172-678 256-319 85-616 85-515 0-795-200t-280-569q0-310 186-468 186-157 705-254l381-78q706-135 1042-474t336-907q0-679-455-1029Q2797-91 1919-91q-331 0-705 75-373 75-773 222v650q384-215 753-325 369-109 725-109 540 0 834 212 294 213 294 607 0 343-211 537t-692 291l-385 75q-706 140-1022 440-315 300-315 835 0 619 436 975t1201 356q329 0 669-60 341-59 697-177z" transform="scale(.01563)"/><path id="DejaVuSans-f6" d="M1959 3097q-462 0-731-361t-269-989q0-628 267-989 268-361 733-361 460 0 728 362 269 363 269 988 0 622-269 986-268 364-728 364zm0 487q750 0 1178-488 429-487 429-1349 0-859-429-1349Q2709-91 1959-91q-753 0-1180 489-426 490-426 1349 0 862 426 1349 427 488 1180 488zm295 1266h634v-631h-634v631zm-1222 0h634v-631h-634v631z" transform="scale(.01563)"/><path id="DejaVuSans-43" d="M4122 4306v-665q-319 297-680 443-361 147-767 147-800 0-1225-489t-425-1414q0-922 425-1411t1225-489q406 0 767 147t680 444V359q-331-225-702-338-370-112-782-112-1060 0-1670 648-609 649-609 1771 0 1125 609 1773 610 649 1670 649 418 0 788-111 371-111 696-333z" transform="scale(.01563)"/><path id="DejaVuSans-42" d="M1259 2228V519h1013q509 0 754 211 246 211 246 645 0 438-246 645-245 208-754 208H1259zm0 1919V2741h935q462 0 688 173 227 174 227 530 0 353-227 528-226 175-688 175h-935zm-631 519h1613q722 0 1112-300 391-300 391-853 0-429-200-682t-588-315q466-100 724-418 258-317 258-792 0-625-425-966Q3088 0 2303 0H628v4666z" transform="scale(.01563)"/><path id="DejaVuSans-59" d="M-13 4666h679l1293-1919 1285 1919h678L2272 2222V0h-634v2222L-13 4666z" transform="scale(.01563)"/></defs><use xlink:href="#DejaVuSans-40"/><use xlink:href="#DejaVuSans-6e" x="100"/><use xlink:href="#DejaVuSans-73" x="163.379"/><use xlink:href="#DejaVuSans-63" x="215.479"/><use xlink:href="#DejaVuSans-68" x="270.459"/><use xlink:href="#DejaVuSans-6c" x="333.838"/><use xlink:href="#DejaVuSans-6f" x="361.621"/><use xlink:href="#DejaVuSans-65" x="422.803"/><use xlink:href="#DejaVuSans-20" x="484.326"/><use xlink:href="#DejaVuSans-2f" x="516.113"/><use xlink:href="#DejaVuSans-20" x="549.805"/><use xlink:href="#DejaVuSans-73" x="581.592"/><use xlink:href="#DejaVuSans-74" x="633.691"/><use xlink:href="#DejaVuSans-61" x="672.9"/><use xlink:href="#DejaVuSans-63" x="734.18"/><use xlink:href="#DejaVuSans-6b" x="789.16"/><use xlink:href="#DejaVuSans-6f" x="843.445"/><use xlink:href="#DejaVuSans-76" x="904.627"/><use xlink:href="#DejaVuSans-65" x="963.807"/><use xlink:href="#DejaVuSans-72" x="1025.33"/><use xlink:href="#DejaVuSans-66" x="1066.443"/><use xlink:href="#DejaVuSans-6c" x="1101.648"/><use xlink:href="#DejaVuSans-6f" x="1129.432"/><use xlink:href="#DejaVuSans-77" x="1190.613"/><use xlink:href="#DejaVuSans-2d" x="1272.4"/><use xlink:href="#DejaVuSans-74" x="1308.484"/><use xlink:href="#DejaVuSans-72" x="1347.693"/><use xlink:href="#DejaVuSans-65" x="1386.557"/><use xlink:href="#DejaVuSans-6e" x="1448.08"/><use xlink:href="#DejaVuSans-64" x="1511.459"/><use xlink:href="#DejaVuSans-73" x="1574.936"/><use xlink:href="#DejaVuSans-20" x="1627.035"/><use xlink:href="#DejaVuSans-7c" x="1658.822"/><use xlink:href="#DejaVuSans-20" x="1692.514"/><use xlink:href="#DejaVuSans-4e" x="1724.301"/><use xlink:href="#DejaVuSans-69" x="1799.105"/><use xlink:href="#DejaVuSans-63" x="1826.889"/><use xlink:href="#DejaVuSans-6f" x="1881.869"/><use xlink:href="#DejaVuSans-20" x="1943.051"/><use xlink:href="#DejaVuSans-53" x="1974.838"/><use xlink:href="#DejaVuSans-63" x="2038.314"/><use xlink:href="#DejaVuSans-68" x="2093.295"/><use xlink:href="#DejaVuSans-6c" x="2156.674"/><use xlink:href="#DejaVuSans-f6" x="2184.457"/><use xlink:href="#DejaVuSans-6d" x="2245.639"/><use xlink:href="#DejaVuSans-65" x="2343.051"/><use xlink:href="#DejaVuSans-72" x="2404.574"/><use xlink:href="#DejaVuSans-20" x="2445.688"/><use xlink:href="#DejaVuSans-7c" x="2477.475"/><use xlink:href="#DejaVuSans-20" x="2511.166"/><use xlink:href="#DejaVuSans-43" x="2542.953"/><use xlink:href="#DejaVuSans-43" x="2612.777"/><use xlink:href="#DejaVuSans-20" x="2682.602"/><use xlink:href="#DejaVuSans-42" x="2714.389"/><use xlink:href="#DejaVuSans-59" x="2777.492"/></g><g id="text_19" style="fill:#b0b0b0" transform="matrix(.14 0 0 -.14 45.522 17.838)"><defs><path id="DejaVuSans-44" d="M1259 4147V519h763q966 0 1414 437 448 438 448 1382 0 937-448 1373t-1414 436h-763zm-631 519h1297q1356 0 1990-564 635-564 635-1764 0-1207-638-1773Q3275 0 1925 0H628v4666z" transform="scale(.01563)"/><path id="DejaVuSans-79" d="M2059-325q-243-625-475-815-231-191-618-191H506v481h338q237 0 368 113 132 112 291 531l103 262L191 3500h609L1894 763l1094 2737h609L2059-325z" transform="scale(.01563)"/><path id="DejaVuSans-62" d="M3116 1747q0 634-261 995t-717 361q-457 0-718-361t-261-995q0-634 261-995t718-361q456 0 717 361t261 995zM1159 2969q182 312 458 463 277 152 661 152 638 0 1036-506 399-506 399-1331T3314 415Q2916-91 2278-91q-384 0-661 152-276 152-458 464V0H581v4863h578V2969z" transform="scale(.01563)"/><path id="DejaVuSans-71" d="M947 1747q0-634 261-995t717-361q456 0 718 361 263 361 263 995t-263 995q-262 361-718 361t-717-361q-261-361-261-995zM2906 525q-181-312-458-464-276-152-664-152-634 0-1033 506-398 507-398 1332t398 1331q399 506 1033 506 388 0 664-152 277-151 458-463v531h575v-4831h-575V525z" transform="scale(.01563)"/><path id="DejaVuSans-4f" d="M2522 4238q-688 0-1093-513-404-512-404-1397 0-881 404-1394 405-512 1093-512 687 0 1089 512 402 513 402 1394 0 885-402 1397-402 513-1089 513zm0 512q981 0 1568-658 588-658 588-1764 0-1103-588-1761Q3503-91 2522-91q-984 0-1574 656-589 657-589 1763t589 1764q590 658 1574 658z" transform="scale(.01563)"/></defs><use xlink:href="#DejaVuSans-44"/><use xlink:href="#DejaVuSans-61" x="77.002"/><use xlink:href="#DejaVuSans-69" x="138.281"/><use xlink:href="#DejaVuSans-6c" x="166.064"/><use xlink:href="#DejaVuSans-79" x="193.848"/><use xlink:href="#DejaVuSans-20" x="253.027"/><use xlink:href="#DejaVuSans-6e" x="284.814"/><use xlink:href="#DejaVuSans-75" x="348.193"/><use xlink:href="#DejaVuSans-6d" x="411.572"/><use xlink:href="#DejaVuSans-62" x="508.984"/><use xlink:href="#DejaVuSans-65" x="572.461"/><use xlink:href="#DejaVuSans-72" x="633.984"/><use xlink:href="#DejaVuSans-20" x="675.098"/><use xlink:href="#DejaVuSans-6f" x="706.885"/><use xlink:href="#DejaVuSans-66" x="768.066"/><use xlink:href="#DejaVuSans-20" x="803.271"/><use xlink:href="#DejaVuSans-71" x="835.059"/><use xlink:href="#DejaVuSans-75" x="898.535"/><use xlink:href="#DejaVuSans-65" x="961.914"/><use xlink:href="#DejaVuSans-73" x="1023.438"/><use xlink:href="#DejaVuSans-74" x="1075.537"/><use xlink:href="#DejaVuSans-69" x="1114.746"/><use xlink:href="#DejaVuSans-6f" x="1142.529"/><use xlink:href="#DejaVuSans-6e" x="1203.711"/><use xlink:href="#DejaVuSans-73" x="1267.09"/><use xlink:href="#DejaVuSans-20" x="1319.189"/><use xlink:href="#DejaVuSans-6f" x="1350.977"/><use xlink:href="#DejaVuSans-6e" x="1412.158"/><use xlink:href="#DejaVuSans-20" x="1475.537"/><use xlink:href="#DejaVuSans-53" x="1507.324"/><use xlink:href="#DejaVuSans-74" x="1570.801"/><use xlink:href="#DejaVuSans-61" x="1610.01"/><use xlink:href="#DejaVuSans-63" x="1671.289"/><use xlink:href="#DejaVuSans-6b" x="1726.27"/><use xlink:href="#DejaVuSans-4f" x="1784.18"/><use xlink:href="#DejaVuSans-76" x="1862.891"/><use xlink:href="#DejaVuSans-65" x="1922.07"/><use xlink:href="#DejaVuSans-72" x="1983.594"/><use xlink:href="#DejaVuSans-66" x="2024.707"/><use xlink:href="#DejaVuSans-6c" x="2059.912"/><use xlink:href="#DejaVuSans-6f" x="2087.695"/><use xlink:href="#DejaVuSans-77" x="2148.877"/></g><path id="line2d_21" d="m23.108 298.482 1.569 14.201 2.036 7.386 2.037-7.386h2.07l1.97 9.188 1.969-11.066 2.036 7.324 2.037-3.568 2.036-4.194 2.037-1.44 2.07 1.878 2.036-.438 2.037.438 2.036 1.502 2.037-3.38 2.07-16.9 1.97 17.37 1.969-7.98 2.036 10.89 2.037-16.524 2.036 14.584 2.037-10.829 2.07-3.755 2.036 12.644 2.037-16.4 2.036-3.004 2.037 18.027 2.07-24.412 1.97 18.443 1.97-1.543 2.036-10.515 2.036-12.018 2.037 8.137 2.036 12.519 2.07-13.145 2.036 2.566 2.037 10.579 2.036-8.638 2.037 4.882 2.07-16.9 2.003 8.806 2.003-20.073 2.036-9.702 2.037 7.824 2.036 17.401 2.037-.5 4.106-30.546 2.037 2.378 2.036-21.782 2.037 14.27 2.07 11.268 1.97-42.586 1.969 21.93 2.037 8.7 2.036-29.356 2.037 27.416 2.036 12.018 2.07-20.656 4.073 28.167 2.036-40.873 2.037 16.462 2.07-13.145 1.97-4.426 1.97 25.082 2.036-8.45 2.036 14.083 2.037-19.904 2.036 23.66 2.07-24.412 2.036 14.334 2.037-4.944 2.036-10.579 2.037 23.723 2.07-45.067 1.97-10.395 1.97 29.173 2.036 4.507 2.036-12.018 2.037-5.446 2.036 20.468 2.07-30.045 2.037 15.398 2.036-.375 2.037-13.208 2.036 37.62 2.07-58.213 2.003-3.561 2.003 9.195 2.037 14.96 2.036 30.107 2.037-30.108 2.036 47.008 2.07-33.8 2.036-26.79 2.037 9.89 2.036 13.394 2.037 22.284 2.07-22.534 1.97-32.46 1.97.537 2.036 26.352 2.036-7.574 2.037-13.77 2.036 49.449 2.07-9.39 2.037-24.536 2.036 9.514 2.036-26.978 2.037 64.534 2.07-50.7 1.97 19.985 1.97 2.548 2.036-7.26 2.036-24.662 2.037 5.257 2.036 39.81 2.07-3.756 2.037-12.769 2.036-52.954 2.037 49.073 2.036 7.261 2.07-18.778 1.97-27.43 1.97 18.041 2.036 44.191 2.036-34.802 2.037 25.1 2.036-19.466 2.07 1.877 2.037-13.457 2.036-9.076 2.037 1.314 2.036 34.364 2.07-24.411 2.003-8.548 2.003 10.425 2.037-42.876 2.036-4.069 2.037-30.858 2.036 8.325 2.07 24.411 2.037.25 2.036 12.895 2.037 29.794 2.036-31.672 2.07-58.212 1.97 18.644 1.97-20.522 2.036 76.239 2.036-40.56 2.037 46.381 2.036-16.337 2.07-20.656 2.037-13.457 2.036 56.647 2.037-17.84 2.036 6.573 2.07-22.534 1.97-6.907 1.97-11.87 2.036 23.096 2.036-9.952 2.037 13.833 2.036 27.479 2.07-75.112 2.037 8.825 2.036 19.342 2.037-1.878 2.036-11.267 2.07 31.923 1.97-66.394 1.97 75.783 2.036 10.703 2.037 13.708h0" clip-path="url(#pf5deee6f56)" style="fill:none;stroke:#ff7f0e;stroke-width:1.5;stroke-linecap:square"/><path id="line2d_22" d="m23.108 302.12 1.569 4.93 2.036 5.257 2.037-7.135 2.07-20.656 1.97-29.173 1.969 19.784 2.036-22.972 2.037 34.239 2.036-10.954 2.037-13.458 4.106-36.993 2.037 23.849 2.036-8.325 2.037-31.11 2.07-26.289 1.97 11.938 1.969-43.86 2.036-77.554 2.037 9.953 2.036 30.796 2.037-2.63 2.07 76.99 2.036-12.268 2.037 4.758 2.036 22.408 2.037 47.07 2.07-16.9 1.97-7.578 1.97 11.334 2.036 18.465 2.036-7.198 2.037 9.138 2.036 17.15 2.07-11.266 2.036 13.52 2.037 9.014 2.036-10.954 2.037 1.565 2.07-11.267 2.003-14.051 2.003 2.784 2.036 24.85 2.037 12.706 2.036-12.706 2.037-24.85 2.07 11.267 2.036 3.88 2.037-2.002 2.036-13.52 2.037-5.258 2.07 1.877L130.34 220l1.969 32.593 2.037 1.502 2.036-10.89 2.037 5.07 2.036 24.974 2.07-22.534 2.036 1.44 2.037-27.729 2.036-7.198 2.037 10.954 2.07-1.878 1.97 6.17 1.97-4.292 2.036-1.252 2.036 1.252 2.037-20.656 2.036 1.878 2.07 31.922 2.036-37.681 2.037 20.781 2.036-42.125 2.037 28.98 2.07 7.512 1.97-40.373 1.97 4.694 2.036-12.456 2.036 4.945 2.037 39.684 2.036-4.006 2.07-28.167 2.037 24.412 2.036-7.511 2.037-44.88 2.036 33.613 2.07 22.533 2.003-11.784 2.003 2.395 2.037-35.115 2.036-2.44 2.037 35.427 2.036 7.762 2.07 20.656 2.036-5.133 2.037 10.766 2.036 2.817 2.037-12.206 2.07-11.267 1.97 2.683 1.97-32.728 2.036 10.829 2.036 7.95 2.037 5.633h2.036l2.07-15.023 2.037 16.963 2.036 11.204 2.036-34.489 2.037 10.078 2.07 18.778 1.97-24.143 1.97-5.902 2.036-10.453 2.036 6.698 2.037 16.587 2.036-10.954 2.07 22.534 2.037-21.282 2.036 10.015 2.037 19.09 2.036 10.955 2.07-13.145 1.97-24.143 1.97 3.487 2.036-14.02 2.036 4.631 2.037 26.415 2.036-28.293h2.07l2.037-20.217 2.036 25.85 2.037 3.256 2.036 69.98 2.07-46.946 2.003-11.526 2.003-16.641 2.037-64.722 2.036-12.268 2.037 14.209 2.036 45.88 2.07 18.779 2.037-31.673 2.036 24.162 2.037-8.638 2.036-15.774 2.07-30.045 1.97-68.942 1.97 42.653 2.036 19.717 2.036-46.006 2.037 65.41 2.036 19.09 2.07-28.166 2.037-8.388 2.036-42.313 2.037 15.148 2.036 29.92 2.07-45.068 1.97.872 1.97-10.261 2.036 30.358 2.036-4.069 2.037 46.758 2.036-26.102L362 98.613l2.037 23.535 2.036-44.19 2.037 44.19 2.036 32.8 2.07-37.557 1.97-15.894 1.97 8.383 2.036 60.778 2.037-13.833h0" clip-path="url(#pf5deee6f56)" style="fill:none;stroke:#1f77b4;stroke-width:1.5;stroke-linecap:square"/></g></g><defs><clipPath id="pf5deee6f56"><path d="M23.108 57.838h357.12V323.95H23.108z"/></clipPath></defs></svg>