<svg xmlns="http://www.w3.org/2000/svg" xmlns:xlink="http://www.w3.org/1999/xlink" width="665.494" height="489.969" viewBox="0 0 499.12 367.477"><defs><style>*{stroke-linejoin:round;stroke-linecap:butt}</style></defs><g id="figure_1"><path id="patch_1" d="M0 367.477h499.12V0H0v367.477z" style="fill:none"/><g id="axes_1"><path id="patch_2" d="M23.108 323.95h357.12V57.838H23.108V323.95z" style="fill:none"/><g id="matplotlib.axis_1"><g id="xtick_1"><g id="line2d_1"><defs><path id="m54a3ed0b0e" d="M0 0v3.5" style="stroke:#b0b0b0;stroke-width:.4"/></defs><use xlink:href="#m54a3ed0b0e" x="54.69" y="323.95" style="fill:#b0b0b0;stroke:#b0b0b0;stroke-width:.4"/></g><g id="text_1" style="fill:#b0b0b0" transform="matrix(.14 0 0 -.14 36.875 341.588)"><defs><path id="DejaVuSans-32" d="M1228 531h2203V0H469v531q359 372 979 998 621 627 780 809 303 340 423 576 121 236 121 464 0 372-261 606-261 235-680 235-297 0-627-103-329-103-704-313v638q381 153 712 231 332 78 607 78 725 0 1156-363 431-362 431-968 0-288-108-546-107-257-392-607-78-91-497-524-418-433-1181-1211z" transform="scale(.01563)"/><path id="DejaVuSans-30" d="M2034 4250q-487 0-733-480-245-479-245-1442 0-959 245-1439 246-480 733-480 491 0 736 480 246 480 246 1439 0 963-246 1442-245 480-736 480zm0 500q785 0 1199-621 414-620 414-1801 0-1178-414-1799Q2819-91 2034-91q-784 0-1198 620-414 621-414 1799 0 1181 414 1801 414 621 1198 621z" transform="scale(.01563)"/><path id="DejaVuSans-31" d="M794 531h1031v3560L703 3866v575l1116 225h631V531h1031V0H794v531z" transform="scale(.01563)"/></defs><use xlink:href="#DejaVuSans-32"/><use xlink:href="#DejaVuSans-30" x="63.623"/><use xlink:href="#DejaVuSans-31" x="127.246"/><use xlink:href="#DejaVuSans-30" x="190.869"/></g></g><g id="xtick_2"><use xlink:href="#m54a3ed0b0e" id="line2d_2" x="104.271" y="323.95" style="fill:#b0b0b0;stroke:#b0b0b0;stroke-width:.4"/><g id="text_2" style="fill:#b0b0b0" transform="matrix(.14 0 0 -.14 86.456 341.588)"><use xlink:href="#DejaVuSans-32"/><use xlink:href="#DejaVuSans-30" x="63.623"/><use xlink:href="#DejaVuSans-31" x="127.246"/><use xlink:href="#DejaVuSans-32" x="190.869"/></g></g><g id="xtick_3"><use xlink:href="#m54a3ed0b0e" id="line2d_3" x="153.92" y="323.95" style="fill:#b0b0b0;stroke:#b0b0b0;stroke-width:.4"/><g id="text_3" style="fill:#b0b0b0" transform="matrix(.14 0 0 -.14 136.105 341.588)"><defs><path id="DejaVuSans-34" d="M2419 4116 825 1625h1594v2491zm-166 550h794V1625h666v-525h-666V0h-628v1100H313v609l1940 2957z" transform="scale(.01563)"/></defs><use xlink:href="#DejaVuSans-32"/><use xlink:href="#DejaVuSans-30" x="63.623"/><use xlink:href="#DejaVuSans-31" x="127.246"/><use xlink:href="#DejaVuSans-34" x="190.869"/></g></g><g id="xtick_4"><use xlink:href="#m54a3ed0b0e" id="line2d_4" x="203.501" y="323.95" style="fill:#b0b0b0;stroke:#b0b0b0;stroke-width:.4"/><g id="text_4" style="fill:#b0b0b0" transform="matrix(.14 0 0 -.14 185.686 341.588)"><defs><path id="DejaVuSans-36" d="M2113 2584q-425 0-674-291-248-290-248-796 0-503 248-796 249-292 674-292t673 292q248 293 248 796 0 506-248 796-248 291-673 291zm1253 1979v-575q-238 112-480 171-242 60-480 60-625 0-955-422-329-422-376-1275 184 272 462 417 279 145 613 145 703 0 1111-427 408-426 408-1160 0-719-425-1154Q2819-91 2113-91q-810 0-1238 620-428 621-428 1799 0 1106 525 1764t1409 658q238 0 480-47t505-140z" transform="scale(.01563)"/></defs><use xlink:href="#DejaVuSans-32"/><use xlink:href="#DejaVuSans-30" x="63.623"/><use xlink:href="#DejaVuSans-31" x="127.246"/><use xlink:href="#DejaVuSans-36" x="190.869"/></g></g><g id="xtick_5"><use xlink:href="#m54a3ed0b0e" id="line2d_5" x="253.15" y="323.95" style="fill:#b0b0b0;stroke:#b0b0b0;stroke-width:.4"/><g id="text_5" style="fill:#b0b0b0" transform="matrix(.14 0 0 -.14 235.335 341.588)"><defs><path id="DejaVuSans-38" d="M2034 2216q-450 0-708-241-257-241-257-662 0-422 257-663 258-241 708-241t709 242q260 243 260 662 0 421-258 662-257 241-711 241zm-631 268q-406 100-633 378-226 279-226 679 0 559 398 884 399 325 1092 325 697 0 1094-325t397-884q0-400-227-679-226-278-629-378 456-106 710-416 255-309 255-755 0-679-414-1042Q2806-91 2034-91q-771 0-1186 362-414 363-414 1042 0 446 256 755 257 310 713 416zm-231 997q0-362 226-565 227-203 636-203 407 0 636 203 230 203 230 565 0 363-230 566-229 203-636 203-409 0-636-203-226-203-226-566z" transform="scale(.01563)"/></defs><use xlink:href="#DejaVuSans-32"/><use xlink:href="#DejaVuSans-30" x="63.623"/><use xlink:href="#DejaVuSans-31" x="127.246"/><use xlink:href="#DejaVuSans-38" x="190.869"/></g></g><g id="xtick_6"><use xlink:href="#m54a3ed0b0e" id="line2d_6" x="302.732" y="323.95" style="fill:#b0b0b0;stroke:#b0b0b0;stroke-width:.4"/><g id="text_6" style="fill:#b0b0b0" transform="matrix(.14 0 0 -.14 284.917 341.588)"><use xlink:href="#DejaVuSans-32"/><use xlink:href="#DejaVuSans-30" x="63.623"/><use xlink:href="#DejaVuSans-32" x="127.246"/><use xlink:href="#DejaVuSans-30" x="190.869"/></g></g><g id="xtick_7"><use xlink:href="#m54a3ed0b0e" id="line2d_7" x="352.381" y="323.95" style="fill:#b0b0b0;stroke:#b0b0b0;stroke-width:.4"/><g id="text_7" style="fill:#b0b0b0" transform="matrix(.14 0 0 -.14 334.566 341.588)"><use xlink:href="#DejaVuSans-32"/><use xlink:href="#DejaVuSans-30" x="63.623"/><use xlink:href="#DejaVuSans-32" x="127.246"/><use xlink:href="#DejaVuSans-32" x="190.869"/></g></g></g><g id="matplotlib.axis_2"><g id="ytick_1"><path id="line2d_8" d="M23.108 323.95h357.12" clip-path="url(#peaffc710a7)" style="fill:none;stroke:#b0b0b0;stroke-width:.3;stroke-linecap:square"/><g id="line2d_9"><defs><path id="mc893b53bfc" d="M0 0h-3.5" style="stroke:#b0b0b0;stroke-width:.3"/></defs><use xlink:href="#mc893b53bfc" x="23.108" y="323.95" style="fill:#b0b0b0;stroke:#b0b0b0;stroke-width:.3"/></g><use xlink:href="#DejaVuSans-30" id="text_8" style="fill:#b0b0b0" transform="matrix(.14 0 0 -.14 7.2 329.269)"/></g><g id="ytick_2"><path id="line2d_10" d="M23.108 268.51h357.12" clip-path="url(#peaffc710a7)" style="fill:none;stroke:#b0b0b0;stroke-width:.3;stroke-linecap:square"/><use xlink:href="#mc893b53bfc" id="line2d_11" x="23.108" y="268.51" style="fill:#b0b0b0;stroke:#b0b0b0;stroke-width:.3"/><use xlink:href="#DejaVuSans-31" id="text_9" style="fill:#b0b0b0" transform="matrix(.14 0 0 -.14 7.2 273.829)"/></g><g id="ytick_3"><path id="line2d_12" d="M23.108 213.07h357.12" clip-path="url(#peaffc710a7)" style="fill:none;stroke:#b0b0b0;stroke-width:.3;stroke-linecap:square"/><use xlink:href="#mc893b53bfc" id="line2d_13" x="23.108" y="213.07" style="fill:#b0b0b0;stroke:#b0b0b0;stroke-width:.3"/><use xlink:href="#DejaVuSans-32" id="text_10" style="fill:#b0b0b0" transform="matrix(.14 0 0 -.14 7.2 218.389)"/></g><g id="ytick_4"><path id="line2d_14" d="M23.108 157.63h357.12" clip-path="url(#peaffc710a7)" style="fill:none;stroke:#b0b0b0;stroke-width:.3;stroke-linecap:square"/><use xlink:href="#mc893b53bfc" id="line2d_15" x="23.108" y="157.63" style="fill:#b0b0b0;stroke:#b0b0b0;stroke-width:.3"/><g id="text_11" style="fill:#b0b0b0" transform="matrix(.14 0 0 -.14 7.2 162.949)"><defs><path id="DejaVuSans-33" d="M2597 2516q453-97 707-404 255-306 255-756 0-690-475-1069Q2609-91 1734-91q-293 0-604 58T488 141v609q262-153 574-231 313-78 654-78 593 0 904 234t311 681q0 413-289 645-289 233-804 233h-544v519h569q465 0 712 186t247 536q0 359-255 551-254 193-729 193-260 0-557-57-297-56-653-174v562q360 100 674 150t592 50q719 0 1137-327 419-326 419-882 0-388-222-655t-631-370z" transform="scale(.01563)"/></defs><use xlink:href="#DejaVuSans-33"/></g></g><g id="ytick_5"><path id="line2d_16" d="M23.108 102.19h357.12" clip-path="url(#peaffc710a7)" style="fill:none;stroke:#b0b0b0;stroke-width:.3;stroke-linecap:square"/><use xlink:href="#mc893b53bfc" id="line2d_17" x="23.108" y="102.19" style="fill:#b0b0b0;stroke:#b0b0b0;stroke-width:.3"/><use xlink:href="#DejaVuSans-34" id="text_12" style="fill:#b0b0b0" transform="matrix(.14 0 0 -.14 7.2 107.509)"/></g></g><path id="line2d_18" d="m23.108 317.02 1.596-14.53 2.071 10.372 2.072 2.146 2.105-3.577 2.004 4.599 2.003.766 2.072-3.934 2.072-1.43 2.071-7.81 2.072-2.921 2.105 10.73 2.072 5.127 2.071-14.069 2.072 2.98 2.071-1.191 2.106 12.518 2.003-6.706 2.004 1.341 2.072 5.127 2.071.238 2.072-7.63 2.071-15.619 2.106 21.46 2.071-3.993 2.072-8.525 2.071 2.98 2.072 9.539 2.105-14.307 2.004 3.449 2.004 1.916 2.071-9.836 2.072 8.048 2.071 1.192 2.072-4.77 2.105 5.366 2.072 4.948 2.071-12.102 2.072 15.798 2.071-21.163 2.106 16.096 2.037-6.722 2.038 3.145 2.072-.596 2.071-1.192 2.072-2.504 2.071 7.869 2.106 3.576 2.071-4.053 2.072 5.842 2.071-7.69 2.072 4.113 2.105-16.095 2.004 8.814 2.004-3.45 2.071 10.314 2.072-4.948 2.071-2.444 2.072 2.444 2.105 5.365 2.072-.417 2.071-1.371 2.072 1.37 2.071-3.159 2.106 3.577 2.004-9.261 2.003 11.05 2.072-4.054 2.071.477 2.072 1.37 2.071-4.947 2.106 10.73 2.071-.238 2.072 3.815 2.071-9.36 2.072 2.206 2.106-7.153 2.003 7.984 2.004-4.407 2.071 6.915 2.072-3.339 2.071 1.49 2.072 2.087 2.105-7.153 2.072 3.219 2.071.357 2.072-.357 2.072-3.22h2.105l2.038 6.66 2.037 2.283 2.072-3.875 2.071-1.49 2.072-5.902 2.071-3.04 2.106 10.73 2.071-9.538 2.072 11.326 2.072 1.61 2.071-10.552 2.106 12.519 2.003 1.597 2.004-1.597 2.071-7.511 2.072 2.146 2.071 3.398 2.072 3.755 2.105-10.73 2.072 10.67 2.072.06 2.071-.06 2.072.06 2.105 1.789 2.004-7.92 2.003 7.92 2.072-3.696 4.143 3.696 2.072-8.942 2.105 3.577 2.072 1.669 4.143 3.696 2.071-5.365 2.106 3.576 2.003-2.171 2.004 2.171 2.071-9.3 2.072 3.935 2.072 3.458 2.071 1.907 2.106-3.576 2.071-2.027 2.072 2.027 2.071 3.517 2.072-5.306 2.105 3.577 2.038-.247 2.037.247 2.072-7.511 2.072 7.511 2.071-3.815 2.072.238 2.105 5.365 2.072 1.789 2.071-3.577 2.072 3.577 2.071-3.577 2.106-5.365 2.003 3.002 2.004.575 2.072-.18 2.071 3.756 2.072-.06 2.071.06 2.106-3.576 2.071 3.517 2.072.06 2.071-.06 2.072-3.517 2.105 1.788 2.004-.383 2.004-1.405 2.071 5.365 2.072-3.577 2.071 1.729 4.177.06 2.072 1.788 2.071-5.365 2.072 1.669 2.071 1.907h2.106l2.004-4.151h0" clip-path="url(#peaffc710a7)" style="fill:none;stroke:#9467bd;stroke-width:1.5;stroke-linecap:square"/><path id="line2d_19" d="m23.108 320.485 1.596 3.465h2.071l2.072-1.789 2.105 1.789h51.585l2.004-1.789 2.071-.06 2.072-7.093 2.071 7.094 2.072-7.094 2.105 7.153 2.072-.06 2.071-14.247 2.072 12.4 2.071-1.67 2.106 1.789 2.037-9.805 2.038 2.651 2.072-9.597 2.071 6.02 2.072-.476 2.071 5.842h2.106l2.071 1.55 2.072-3.339 2.071-4.053 2.072 2.265 2.105-10.73 2.004-16.351 2.004 10.986 2.071-2.802 2.072 2.802 2.071 11.982 2.072-6.617 2.105 1.788 2.072 4.829 2.071-6.617 2.072 2.92 2.071-2.92 2.106 1.788 2.004-12.2 2.003 8.623 2.072 10.254 2.071-12.042 2.072 12.042 2.071-10.254 2.106 8.942 2.071-7.928 2.072 6.14 2.071-7.988 2.072 11.565 2.106-1.789 2.003.256 2.004-21.716 2.071 9.836 2.072-6.26 2.071 2.564 2.072 4.59 2.105-1.788 2.072 6.438 2.071-11.804 2.072.716 2.072 2.861 2.105 3.577 2.038.062 2.037-16.157 2.072 7.809 2.071 13.651 4.143-16.095 2.106 10.73 2.071 8.346 2.072-2.98 2.072-6.26 2.071 16.99 2.106-3.577 2.003 2.427 2.004-18.523 2.071 10.075 2.072-2.921 2.071-8.167 2.072-13.294 2.105 23.25 2.072-2.564 2.072 7.928 2.071-24.56 2.072 24.56 2.105 1.789 2.004-17.373 2.003 8.43 2.072 1.074 2.071.715 2.072 10.373 2.072-13.95 2.105-8.942 2.072 9.956 2.071-11.744 2.072 11.744 2.071-1.014 2.106-1.788 2.003-6.834 2.004 5.046 2.071 4.59 2.072-2.802 2.072 13.89 2.071-8.525h2.106l2.071-2.563 2.072.775 2.071-15.56 2.072 20.925 2.105-14.307 2.038-19.426 2.037 23.003 2.072-8.346 2.072-2.385 2.071-3.16 2.072 12.102 2.105-1.788 2.072 2.623 2.071-9.777 2.072 15.32 2.071-9.955 2.106 3.577 2.003-13.157 2.004 7.792 2.072 13.592 2.071-15.38 2.072 4.292 2.071 11.803 2.106-26.826 2.071 11.327 2.072 19.076 2.071-2.444 2.072-11.863 2.105 10.73 2.004-18.14 2.004 10.987 2.071-.954 2.072 6.319 2.071-11.863 2.072 6.498 2.105 10.73 2.072-9.836 2.071 4.47 2.072-2.622 2.071 4.411 2.106-12.519 2.004.32h0" clip-path="url(#peaffc710a7)" style="fill:none;stroke:#d62728;stroke-width:1.5;stroke-linecap:square"/><path id="line2d_20" d="m23.108 251.185 1.596 29.844 2.071 15.2 2.072-2.682 2.105-7.153 2.004-.064 2.003.064 2.072 9.836 2.072-13.413 2.071-5.067 2.072-5.663 2.105 25.037 2.072-15.678 2.071-11.148 2.072 1.908 2.071 12.4 2.106 8.941 2.003-9.197 2.004-15.84h2.072l2.071-3.577 2.072 1.729 2.071 7.213 2.106-25.037 2.071-.656 2.072 14.963 2.071 10.909 2.072-9.121 2.105-14.307 2.004 7.984 2.004-6.196 2.071 3.16 2.072-22.832 2.071 24.68 2.072-19.315 2.105 42.922 2.072-32.847 2.071 14.963 2.072-3.875 2.071 3.875 2.106-10.73 2.037-14.493 2.038 23.434 2.072 3.458 2.071-30.284 2.072 13.652 2.071 18.54 2.106-16.096 2.071-19.076 2.072 22.653 2.071-15.261 2.072 42.087 2.105-44.71 2.004-3.45 2.004-3.704 2.071-17.943 2.072 23.308 2.071 2.564 2.072-16.87 2.105 10.73 2.072 19.076 2.071-6.558 2.072 2.862 2.071.715 2.106-5.365 2.004-2.874 2.003-11.433 2.072 15.26 2.071-4.53 2.072 2.683 2.071-16.99 2.106 25.038 2.071-.656 2.072 7.81 2.071 8.822 2.072-5.246 2.106 5.365 2.003-4.343 2.004 2.555 2.071 3.517 2.072 7.213 2.071-33.085 2.072-.894 2.105 19.672 2.072 1.55 2.071-15.857 2.072-6.32 2.072 18.838 4.143-67.65 2.037 17.576 2.072-13.115 2.071 5.961 2.072-52.161 2.071 61.103 2.106 23.25 2.071-36.305 2.072-4.829 2.072 21.46 2.071 50.076 2.106-17.884 2.003-4.471 2.004-18.778 2.071 37.258 4.143-62.832 2.072 14.843 2.105 3.577 2.072 22.236 2.072 20.685 2.071 12.579 2.072 1.729 2.105-33.98 2.004 28.423 2.003-23.058 2.072 21.342 2.071 3.696 2.072-9.24 2.072-30.105 4.177 28.257 2.071 3.934 2.072 10.85 2.071 1.669 2.106-12.519 2.003 3.194 2.004-17.5 2.071 25.156 2.072-3.696 2.072 25.872 2.071-49.121 2.106 5.365 2.071-.596 2.072-10.134 2.071 13.83 2.072 11.207h2.105l2.038 1.665 2.037-5.242 2.072 12.698 2.072-3.756 2.071-5.484 2.072-1.67h2.105l2.072-.178 2.071 10.909 2.072 5.723 2.071 10.372 2.106-28.614 2.003 26.954 2.004-30.53 2.072 18.122 2.071-3.815 2.072 11.207 2.071 1.311 2.106-3.576 2.071-14.367 2.072 25.097 2.071-8.465 2.072 4.888 2.105-16.095 2.004 14.243 2.004-5.301 2.071 5.96 2.072 1.193 2.071-6.736 2.072 10.313 2.105-7.154 2.072 11.625 2.071-9.836 2.072-14.188 2.071 10.61 2.106-3.576 2.004-14.69h0" clip-path="url(#peaffc710a7)" style="fill:none;stroke:#2ca02c;stroke-width:1.5;stroke-linecap:square"/><g id="text_13" style="fill:#1f77b4" transform="matrix(.14 0 0 -.14 390.941 143.673)"><defs><path id="DejaVuSans-6f" d="M1959 3097q-462 0-731-361t-269-989q0-628 267-989 268-361 733-361 460 0 728 362 269 363 269 988 0 622-269 986-268 364-728 364zm0 487q750 0 1178-488 429-487 429-1349 0-859-429-1349Q2709-91 1959-91q-753 0-1180 489-426 490-426 1349 0 862 426 1349 427 488 1180 488z" transform="scale(.01563)"/><path id="DejaVuSans-66" d="M2375 4863v-479h-550q-309 0-430-125-120-125-120-450v-309h947v-447h-947V0H697v3053H147v447h550v244q0 584 272 851 272 268 862 268h544z" transform="scale(.01563)"/><path id="DejaVuSans-69" d="M603 3500h575V0H603v3500zm0 1363h575v-729H603v729z" transform="scale(.01563)"/><path id="DejaVuSans-63" d="M3122 3366v-538q-244 135-489 202t-495 67q-560 0-870-355-309-354-309-995t309-996q310-354 870-354 250 0 495 67t489 202V134Q2881 22 2623-34q-257-57-548-57-791 0-1257 497-465 497-465 1341 0 856 470 1346 471 491 1290 491 265 0 518-55 253-54 491-163z" transform="scale(.01563)"/><path id="DejaVuSans-65" d="M3597 1894v-281H953q38-594 358-905t892-311q331 0 642 81t618 244V178Q3153 47 2828-22t-659-69q-838 0-1327 487-489 488-489 1320 0 859 464 1363 464 505 1252 505 706 0 1117-455 411-454 411-1235zm-575 169q-6 471-264 752-258 282-683 282-481 0-770-272t-333-766l2050 4z" transform="scale(.01563)"/><path id="DejaVuSans-35" d="M691 4666h2478v-532H1269V2991q137 47 274 70 138 23 276 23 781 0 1237-428 457-428 457-1159 0-753-469-1171Q2575-91 1722-91q-294 0-599 50Q819 9 494 109v635q281-153 581-228t634-75q541 0 856 284 316 284 316 772 0 487-316 771-315 285-856 285-253 0-505-56-251-56-513-175v2344z" transform="scale(.01563)"/></defs><use xlink:href="#DejaVuSans-6f"/><use xlink:href="#DejaVuSans-66" x="61.182"/><use xlink:href="#DejaVuSans-66" x="96.387"/><use xlink:href="#DejaVuSans-69" x="131.592"/><use xlink:href="#DejaVuSans-63" x="159.375"/><use xlink:href="#DejaVuSans-65" x="214.355"/><use xlink:href="#DejaVuSans-33" x="275.879"/><use xlink:href="#DejaVuSans-36" x="339.502"/><use xlink:href="#DejaVuSans-35" x="403.125"/></g><g id="text_14" style="fill:#ff7f0e" transform="matrix(.14 0 0 -.14 390.941 260.423)"><defs><path id="DejaVuSans-67" d="M2906 1791q0 625-258 968-257 344-723 344-462 0-720-344-258-343-258-968 0-622 258-966t720-344q466 0 723 344 258 344 258 966zm575-1357q0-893-397-1329-396-436-1215-436-303 0-572 45t-522 139v559q253-137 500-202 247-66 503-66 566 0 847 295t281 892v285q-178-310-456-463T1784 0Q1141 0 747 490 353 981 353 1791q0 812 394 1302 394 491 1037 491 388 0 666-153t456-462v531h575V434z" transform="scale(.01563)"/><path id="DejaVuSans-6c" d="M603 4863h575V0H603v4863z" transform="scale(.01563)"/><path id="DejaVuSans-2d" d="M313 2009h1684v-512H313v512z" transform="scale(.01563)"/><path id="DejaVuSans-64" d="M2906 2969v1894h575V0h-575v525q-181-312-458-464-276-152-664-152-634 0-1033 506-398 507-398 1332t398 1331q399 506 1033 506 388 0 664-152 277-151 458-463zM947 1747q0-634 261-995t717-361q456 0 718 361 263 361 263 995t-263 995q-262 361-718 361t-717-361q-261-361-261-995z" transform="scale(.01563)"/><path id="DejaVuSans-73" d="M2834 3397v-544q-243 125-506 187-262 63-544 63-428 0-642-131t-214-394q0-200 153-314t616-217l197-44q612-131 870-370t258-667q0-488-386-773Q2250-91 1575-91q-281 0-586 55T347 128v594q319-166 628-249 309-82 613-82 406 0 624 139 219 139 219 392 0 234-158 359-157 125-692 241l-200 47q-534 112-772 345-237 233-237 639 0 494 350 762 350 269 994 269 318 0 599-47 282-46 519-140z" transform="scale(.01563)"/></defs><use xlink:href="#DejaVuSans-67"/><use xlink:href="#DejaVuSans-6f" x="63.477"/><use xlink:href="#DejaVuSans-6f" x="124.658"/><use xlink:href="#DejaVuSans-67" x="185.84"/><use xlink:href="#DejaVuSans-6c" x="249.316"/><use xlink:href="#DejaVuSans-65" x="277.1"/><use xlink:href="#DejaVuSans-2d" x="338.623"/><use xlink:href="#DejaVuSans-64" x="374.707"/><use xlink:href="#DejaVuSans-6f" x="438.184"/><use xlink:href="#DejaVuSans-63" x="499.365"/><use xlink:href="#DejaVuSans-73" x="554.346"/></g><g id="text_15" style="fill:#2ca02c" transform="matrix(.14 0 0 -.14 390.941 274.423)"><defs><path id="DejaVuSans-6d" d="M3328 2828q216 388 516 572t706 184q547 0 844-383 297-382 297-1088V0h-578v2094q0 503-179 746-178 244-543 244-447 0-707-297-259-296-259-809V0h-578v2094q0 506-178 748t-550 242q-441 0-701-298-259-298-259-808V0H581v3500h578v-544q197 322 472 475t653 153q382 0 649-194 267-193 395-562z" transform="scale(.01563)"/></defs><use xlink:href="#DejaVuSans-6d"/><use xlink:href="#DejaVuSans-73" x="97.412"/><use xlink:href="#DejaVuSans-2d" x="149.512"/><use xlink:href="#DejaVuSans-6f" x="187.471"/><use xlink:href="#DejaVuSans-66" x="248.652"/><use xlink:href="#DejaVuSans-66" x="283.857"/><use xlink:href="#DejaVuSans-69" x="319.063"/><use xlink:href="#DejaVuSans-63" x="346.846"/><use xlink:href="#DejaVuSans-65" x="401.826"/></g><g id="text_16" style="fill:#d62728" transform="matrix(.14 0 0 -.14 390.941 294.153)"><defs><path id="DejaVuSans-62" d="M3116 1747q0 634-261 995t-717 361q-457 0-718-361t-261-995q0-634 261-995t718-361q456 0 717 361t261 995zM1159 2969q182 312 458 463 277 152 661 152 638 0 1036-506 399-506 399-1331T3314 415Q2916-91 2278-91q-384 0-661 152-276 152-458 464V0H581v4863h578V2969z" transform="scale(.01563)"/><path id="DejaVuSans-72" d="M2631 2963q-97 56-211 82-114 27-251 27-488 0-749-317t-261-911V0H581v3500h578v-544q182 319 472 473 291 155 707 155 59 0 131-8 72-7 159-23l3-590z" transform="scale(.01563)"/></defs><use xlink:href="#DejaVuSans-6c"/><use xlink:href="#DejaVuSans-69" x="27.783"/><use xlink:href="#DejaVuSans-62" x="55.566"/><use xlink:href="#DejaVuSans-72" x="119.043"/><use xlink:href="#DejaVuSans-65" x="157.906"/><use xlink:href="#DejaVuSans-6f" x="219.43"/><use xlink:href="#DejaVuSans-66" x="280.611"/><use xlink:href="#DejaVuSans-66" x="315.816"/><use xlink:href="#DejaVuSans-69" x="351.021"/><use xlink:href="#DejaVuSans-63" x="378.805"/><use xlink:href="#DejaVuSans-65" x="433.785"/></g><g id="text_17" style="fill:#9467bd" transform="matrix(.14 0 0 -.14 390.941 321.873)"><defs><path id="DejaVuSans-70" d="M1159 525v-1856H581v4831h578v-531q182 312 458 463 277 152 661 152 638 0 1036-506 399-506 399-1331T3314 415Q2916-91 2278-91q-384 0-661 152-276 152-458 464zm1957 1222q0 634-261 995t-717 361q-457 0-718-361t-261-995q0-634 261-995t718-361q456 0 717 361t261 995z" transform="scale(.01563)"/><path id="DejaVuSans-6e" d="M3513 2113V0h-575v2094q0 497-194 743-194 247-581 247-466 0-735-297-269-296-269-809V0H581v3500h578v-544q207 316 486 472 280 156 646 156 603 0 912-373 310-373 310-1098z" transform="scale(.01563)"/><path id="DejaVuSans-2e" d="M684 794h660V0H684v794z" transform="scale(.01563)"/></defs><use xlink:href="#DejaVuSans-6f"/><use xlink:href="#DejaVuSans-70" x="61.182"/><use xlink:href="#DejaVuSans-65" x="124.658"/><use xlink:href="#DejaVuSans-6e" x="186.182"/><use xlink:href="#DejaVuSans-6f" x="249.561"/><use xlink:href="#DejaVuSans-66" x="310.742"/><use xlink:href="#DejaVuSans-66" x="345.947"/><use xlink:href="#DejaVuSans-69" x="381.152"/><use xlink:href="#DejaVuSans-63" x="408.936"/><use xlink:href="#DejaVuSans-65" x="463.916"/><use xlink:href="#DejaVuSans-2e" x="525.439"/><use xlink:href="#DejaVuSans-6f" x="557.227"/><use xlink:href="#DejaVuSans-72" x="618.408"/><use xlink:href="#DejaVuSans-67" x="657.771"/></g><g id="text_18" style="fill:#b0b0b0" transform="matrix(.09716 0 0 -.09716 23.108 357.986)"><defs><path id="DejaVuSans-40" d="M2381 1678q0-447 222-702 222-254 610-254 384 0 604 256 221 256 221 700 0 438-225 695-225 258-607 258-378 0-602-256-223-256-223-697zm1703-934q-187-241-429-355t-564-114q-538 0-874 389t-336 1014q0 625 337 1015 338 391 873 391 322 0 565-117 244-117 428-354v409h447V722q457 69 714 417 258 349 258 902 0 334-99 628-98 294-298 544-325 409-792 626t-1017 217q-384 0-738-102-353-101-653-301-490-319-767-836-276-517-276-1120 0-497 179-932 180-434 521-765 328-325 759-495 431-171 922-171 403 0 792 136t714 389l281-347q-390-303-851-464t-936-161q-578 0-1091 205-512 205-912 595Q841 78 631 592q-209 514-209 1105 0 569 212 1084 213 516 607 907 403 396 931 607t1119 211q662 0 1229-272 568-271 952-771 234-307 357-666 124-359 124-744 0-822-497-1297T4084 263v481z" transform="scale(.01563)"/><path id="DejaVuSans-68" d="M3513 2113V0h-575v2094q0 497-194 743-194 247-581 247-466 0-735-297-269-296-269-809V0H581v4863h578V2956q207 316 486 472 280 156 646 156 603 0 912-373 310-373 310-1098z" transform="scale(.01563)"/><path id="DejaVuSans-2f" d="M1625 4666h531L531-594H0l1625 5260z" transform="scale(.01563)"/><path id="DejaVuSans-74" d="M1172 4494v-994h1184v-447H1172V1153q0-428 117-550t477-122h590V0h-590q-666 0-919 248-253 249-253 905v1900H172v447h422v994h578z" transform="scale(.01563)"/><path id="DejaVuSans-61" d="M2194 1759q-697 0-966-159t-269-544q0-306 202-486 202-179 548-179 479 0 768 339t289 901v128h-572zm1147 238V0h-575v531q-197-318-491-470T1556-91q-537 0-855 302-317 302-317 808 0 590 395 890 396 300 1180 300h807v57q0 397-261 614t-733 217q-300 0-585-72-284-72-546-216v532q315 122 612 182 297 61 578 61 760 0 1135-394 375-393 375-1193z" transform="scale(.01563)"/><path id="DejaVuSans-6b" d="M581 4863h578V1991l1716 1509h734L1753 1863 3688 0h-750L1159 1709V0H581v4863z" transform="scale(.01563)"/><path id="DejaVuSans-76" d="M191 3500h609L1894 563l1094 2937h609L2284 0h-781L191 3500z" transform="scale(.01563)"/><path id="DejaVuSans-77" d="M269 3500h575l719-2731 715 2731h678l719-2731 716 2731h575L4050 0h-678l-753 2869L1863 0h-679L269 3500z" transform="scale(.01563)"/><path id="DejaVuSans-7c" d="M1344 4891v-6400H813v6400h531z" transform="scale(.01563)"/><path id="DejaVuSans-4e" d="M628 4666h850L3547 763v3903h612V0h-850L1241 3903V0H628v4666z" transform="scale(.01563)"/><path id="DejaVuSans-53" d="M3425 4513v-616q-359 172-678 256-319 85-616 85-515 0-795-200t-280-569q0-310 186-468 186-157 705-254l381-78q706-135 1042-474t336-907q0-679-455-1029Q2797-91 1919-91q-331 0-705 75-373 75-773 222v650q384-215 753-325 369-109 725-109 540 0 834 212 294 213 294 607 0 343-211 537t-692 291l-385 75q-706 140-1022 440-315 300-315 835 0 619 436 975t1201 356q329 0 669-60 341-59 697-177z" transform="scale(.01563)"/><path id="DejaVuSans-f6" d="M1959 3097q-462 0-731-361t-269-989q0-628 267-989 268-361 733-361 460 0 728 362 269 363 269 988 0 622-269 986-268 364-728 364zm0 487q750 0 1178-488 429-487 429-1349 0-859-429-1349Q2709-91 1959-91q-753 0-1180 489-426 490-426 1349 0 862 426 1349 427 488 1180 488zm295 1266h634v-631h-634v631zm-1222 0h634v-631h-634v631z" transform="scale(.01563)"/><path id="DejaVuSans-43" d="M4122 4306v-665q-319 297-680 443-361 147-767 147-800 0-1225-489t-425-1414q0-922 425-1411t1225-489q406 0 767 147t680 444V359q-331-225-702-338-370-112-782-112-1060 0-1670 648-609 649-609 1771 0 1125 609 1773 610 649 1670 649 418 0 788-111 371-111 696-333z" transform="scale(.01563)"/><path id="DejaVuSans-42" d="M1259 2228V519h1013q509 0 754 211 246 211 246 645 0 438-246 645-245 208-754 208H1259zm0 1919V2741h935q462 0 688 173 227 174 227 530 0 353-227 528-226 175-688 175h-935zm-631 519h1613q722 0 1112-300 391-300 391-853 0-429-200-682t-588-315q466-100 724-418 258-317 258-792 0-625-425-966Q3088 0 2303 0H628v4666z" transform="scale(.01563)"/><path id="DejaVuSans-59" d="M-13 4666h679l1293-1919 1285 1919h678L2272 2222V0h-634v2222L-13 4666z" transform="scale(.01563)"/></defs><use xlink:href="#DejaVuSans-40"/><use xlink:href="#DejaVuSans-6e" x="100"/><use xlink:href="#DejaVuSans-73" x="163.379"/><use xlink:href="#DejaVuSans-63" x="215.479"/><use xlink:href="#DejaVuSans-68" x="270.459"/><use xlink:href="#DejaVuSans-6c" x="333.838"/><use xlink:href="#DejaVuSans-6f" x="361.621"/><use xlink:href="#DejaVuSans-65" x="422.803"/><use xlink:href="#DejaVuSans-20" x="484.326"/><use xlink:href="#DejaVuSans-2f" x="516.113"/><use xlink:href="#DejaVuSans-20" x="549.805"/><use xlink:href="#DejaVuSans-73" x="581.592"/><use xlink:href="#DejaVuSans-74" x="633.691"/><use xlink:href="#DejaVuSans-61" x="672.9"/><use xlink:href="#DejaVuSans-63" x="734.18"/><use xlink:href="#DejaVuSans-6b" x="789.16"/><use xlink:href="#DejaVuSans-6f" x="843.445"/><use xlink:href="#DejaVuSans-76" x="904.627"/><use xlink:href="#DejaVuSans-65" x="963.807"/><use xlink:href="#DejaVuSans-72" x="1025.33"/><use xlink:href="#DejaVuSans-66" x="1066.443"/><use xlink:href="#DejaVuSans-6c" x="1101.648"/><use xlink:href="#DejaVuSans-6f" x="1129.432"/><use xlink:href="#DejaVuSans-77" x="1190.613"/><use xlink:href="#DejaVuSans-2d" x="1272.4"/><use xlink:href="#DejaVuSans-74" x="1308.484"/><use xlink:href="#DejaVuSans-72" x="1347.693"/><use xlink:href="#DejaVuSans-65" x="1386.557"/><use xlink:href="#DejaVuSans-6e" x="1448.08"/><use xlink:href="#DejaVuSans-64" x="1511.459"/><use xlink:href="#DejaVuSans-73" x="1574.936"/><use xlink:href="#DejaVuSans-20" x="1627.035"/><use xlink:href="#DejaVuSans-7c" x="1658.822"/><use xlink:href="#DejaVuSans-20" x="1692.514"/><use xlink:href="#DejaVuSans-4e" x="1724.301"/><use xlink:href="#DejaVuSans-69" x="1799.105"/><use xlink:href="#DejaVuSans-63" x="1826.889"/><use xlink:href="#DejaVuSans-6f" x="1881.869"/><use xlink:href="#DejaVuSans-20" x="1943.051"/><use xlink:href="#DejaVuSans-53" x="1974.838"/><use xlink:href="#DejaVuSans-63" x="2038.314"/><use xlink:href="#DejaVuSans-68" x="2093.295"/><use xlink:href="#DejaVuSans-6c" x="2156.674"/><use xlink:href="#DejaVuSans-f6" x="2184.457"/><use xlink:href="#DejaVuSans-6d" x="2245.639"/><use xlink:href="#DejaVuSans-65" x="2343.051"/><use xlink:href="#DejaVuSans-72" x="2404.574"/><use xlink:href="#DejaVuSans-20" x="2445.688"/><use xlink:href="#DejaVuSans-7c" x="2477.475"/><use xlink:href="#DejaVuSans-20" x="2511.166"/><use xlink:href="#DejaVuSans-43" x="2542.953"/><use xlink:href="#DejaVuSans-43" x="2612.777"/><use xlink:href="#DejaVuSans-20" x="2682.602"/><use xlink:href="#DejaVuSans-42" x="2714.389"/><use xlink:href="#DejaVuSans-59" x="2777.492"/></g><g id="text_19" style="fill:#b0b0b0" transform="matrix(.14 0 0 -.14 45.522 17.838)"><defs><path id="DejaVuSans-44" d="M1259 4147V519h763q966 0 1414 437 448 438 448 1382 0 937-448 1373t-1414 436h-763zm-631 519h1297q1356 0 1990-564 635-564 635-1764 0-1207-638-1773Q3275 0 1925 0H628v4666z" transform="scale(.01563)"/><path id="DejaVuSans-79" d="M2059-325q-243-625-475-815-231-191-618-191H506v481h338q237 0 368 113 132 112 291 531l103 262L191 3500h609L1894 763l1094 2737h609L2059-325z" transform="scale(.01563)"/><path id="DejaVuSans-75" d="M544 1381v2119h575V1403q0-497 193-746 194-248 582-248 465 0 735 297 271 297 271 810v1984h575V0h-575v538q-209-319-486-474-276-155-642-155-603 0-916 375-312 375-312 1097zm1447 2203z" transform="scale(.01563)"/><path id="DejaVuSans-71" d="M947 1747q0-634 261-995t717-361q456 0 718 361 263 361 263 995t-263 995q-262 361-718 361t-717-361q-261-361-261-995zM2906 525q-181-312-458-464-276-152-664-152-634 0-1033 506-398 507-398 1332t398 1331q399 506 1033 506 388 0 664-152 277-151 458-463v531h575v-4831h-575V525z" transform="scale(.01563)"/><path id="DejaVuSans-4f" d="M2522 4238q-688 0-1093-513-404-512-404-1397 0-881 404-1394 405-512 1093-512 687 0 1089 512 402 513 402 1394 0 885-402 1397-402 513-1089 513zm0 512q981 0 1568-658 588-658 588-1764 0-1103-588-1761Q3503-91 2522-91q-984 0-1574 656-589 657-589 1763t589 1764q590 658 1574 658z" transform="scale(.01563)"/></defs><use xlink:href="#DejaVuSans-44"/><use xlink:href="#DejaVuSans-61" x="77.002"/><use xlink:href="#DejaVuSans-69" x="138.281"/><use xlink:href="#DejaVuSans-6c" x="166.064"/><use xlink:href="#DejaVuSans-79" x="193.848"/><use xlink:href="#DejaVuSans-20" x="253.027"/><use xlink:href="#DejaVuSans-6e" x="284.814"/><use xlink:href="#DejaVuSans-75" x="348.193"/><use xlink:href="#DejaVuSans-6d" x="411.572"/><use xlink:href="#DejaVuSans-62" x="508.984"/><use xlink:href="#DejaVuSans-65" x="572.461"/><use xlink:href="#DejaVuSans-72" x="633.984"/><use xlink:href="#DejaVuSans-20" x="675.098"/><use xlink:href="#DejaVuSans-6f" x="706.885"/><use xlink:href="#DejaVuSans-66" x="768.066"/><use xlink:href="#DejaVuSans-20" x="803.271"/><use xlink:href="#DejaVuSans-71" x="835.059"/><use xlink:href="#DejaVuSans-75" x="898.535"/><use xlink:href="#DejaVuSans-65" x="961.914"/><use xlink:href="#DejaVuSans-73" x="1023.438"/><use xlink:href="#DejaVuSans-74" x="1075.537"/><use xlink:href="#DejaVuSans-69" x="1114.746"/><use xlink:href="#DejaVuSans-6f" x="1142.529"/><use xlink:href="#DejaVuSans-6e" x="1203.711"/><use xlink:href="#DejaVuSans-73" x="1267.09"/><use xlink:href="#DejaVuSans-20" x="1319.189"/><use xlink:href="#DejaVuSans-6f" x="1350.977"/><use xlink:href="#DejaVuSans-6e" x="1412.158"/><use xlink:href="#DejaVuSans-20" x="1475.537"/><use xlink:href="#DejaVuSans-53" x="1507.324"/><use xlink:href="#DejaVuSans-74" x="1570.801"/><use xlink:href="#DejaVuSans-61" x="1610.01"/><use xlink:href="#DejaVuSans-63" x="1671.289"/><use xlink:href="#DejaVuSans-6b" x="1726.27"/><use xlink:href="#DejaVuSans-4f" x="1784.18"/><use xlink:href="#DejaVuSans-76" x="1862.891"/><use xlink:href="#DejaVuSans-65" x="1922.07"/><use xlink:href="#DejaVuSans-72" x="1983.594"/><use xlink:href="#DejaVuSans-66" x="2024.707"/><use xlink:href="#DejaVuSans-6c" x="2059.912"/><use xlink:href="#DejaVuSans-6f" x="2087.695"/><use xlink:href="#DejaVuSans-77" x="2148.877"/></g><path id="line2d_21" d="m23.108 320.485 1.596 1.676 2.071-1.907 2.072 3.696 2.105-3.577 2.004 1.597 2.003 1.98h2.072l2.072-1.789 2.071-3.755 2.072 3.755 2.105-3.576 2.072-5.723 2.071 5.723 2.072-2.027 2.071.238 2.106-3.577 2.003-13.03 2.004 11.242 2.072-7.81 2.071.657 2.072 4.888 2.071-4.888 2.106 3.576 2.071 6.856 2.072-3.279 2.071 3.279 2.072-15.798 2.105 14.307 2.004-15.01 2.004-2.873 2.071 21.222 2.072-21.222 2.071 11.982 2.072-8.406h2.105l2.072 1.014 2.071.775 2.072-.775 2.071 2.563 2.106-12.519 2.037-8.078 2.038-2.652 2.072-25.514 2.071 25.514 2.072-23.666 2.071 5.782h2.106l2.071 31.178 2.072-15.082 2.071 9.538 2.072-.596 2.105 3.576 2.004-13.54 2.004 11.752 2.071-23.368 2.072 25.156 2.071-12.22 2.072 8.644 2.105-8.942 2.072 15.082 2.071-20.447 2.072.119 2.071 14.188 2.106-5.365 2.004-18.46 2.003 29.19 2.072-6.617 2.071-21.997 2.072 20.149 2.071-9.419 2.106-3.577 2.071 7.452 2.072 5.067 2.071-10.611 2.072-5.485 2.106 26.826 2.003-23.057 2.004-16.287 2.071 16.155 2.072 1.729 2.071-3.577 2.072 10.73 2.105-8.942 2.072 12.996 2.071 3.1 2.072 6.14 2.072 8.167 2.105-5.365 2.038-7.709 2.037 14.862 2.072-6.26 2.071 4.472 2.072-13.711 2.071 10.134 2.106-5.365 2.071.775 2.072 2.802 2.072-4.65 2.071 13.592 2.106-21.461 2.003 1.533 2.004 5.62 2.071-6.676 2.072-11.207 2.071-1.73 2.072 8.883 2.105 12.519 2.072 8.167 2.072-27.84 2.071 14.904 2.072 6.557 2.105-5.365 2.004 4.088 2.003 1.277 2.072-10.253 2.071-9.419 2.072-12.757 2.072 30.64 2.105-21.46 2.072 22.236 2.071-9.717 2.072.477 2.071 6.676 2.106-5.365 2.003-29.955 2.004 29.955 2.071-16.095 2.072 12.519 2.072 5.96 2.071-9.537 2.106-12.519 2.071 16.513 2.072-3.994 2.071.298 2.072 10.432 2.105-25.037 2.038-.37 2.037-3.207 2.072 3.398 2.072 14.486 2.071-27.422 2.072 20.268 2.105-1.788 2.072-18.48 2.071 25.633 2.072-18.241 2.071 37.914 2.106-59.017 2.003 32.19 2.004-19.671 2.072 14.128 2.071-5.187 2.072 5.187 2.071 23.428 2.106-23.25 2.071 5.366 2.072 7.153 2.071-10.85 2.072-1.668h2.105l2.004-34.235 2.004 16.35 2.071 19.554 2.072 12.638 2.071 2.146 2.072-.358 2.105-17.884 2.072 7.154 2.071 10.73 2.072-27.362 2.071 5.901 2.106 7.154 2.004-2.363h0" clip-path="url(#peaffc710a7)" style="fill:none;stroke:#ff7f0e;stroke-width:1.5;stroke-linecap:square"/><path id="line2d_22" d="m82.537 323.95 4.075-3.696 2.072 3.696 2.071-5.544 2.072-12.34 4.177 14.188 2.071-7.035 2.072 5.187 2.071 3.755 2.106-5.365 2.037-.493 2.038-4.872 2.072 3.279 2.071-1.49 2.072-2.206 2.071 2.205 2.106-8.941 2.071-.656 2.072 9.597 2.071 1.49 2.072 5.664 2.105-14.307 2.004-3.896 2.004-5.046 2.071-6.438 2.072 18.957 2.071-9.717 2.072 2.563 2.105 3.577 2.072 6.796 2.071-22.892 2.072 9.956 2.071 4.352 2.106-14.308 2.004.32 2.003-9.261 2.072-16.215 2.071-1.67 2.072-24.202 2.071 2.742 2.106-10.73 2.071-12.34 2.072 26.647 2.071-10.015 2.072-32.907 2.106-17.883 2.003 8.814 2.004 12.646 2.071-20.566 2.072-15.201 2.071-12.52 2.072 21.461 2.105 19.673 2.072-57.765 2.071 4.113 2.072 19.91 2.072-7.391 2.105-46.498 2.038 8.263 2.037-8.263 2.072-31.118 2.071-1.073 2.072 38.033 2.071-16.573 2.106 26.826 2.071 8.227 2.072 31.118 2.072-27.422 2.071 27.422 2.106-32.191 2.003 27.209 2.004-39.728 2.071 32.072 2.072-19.553 2.071-6.32 2.072 59.971 2.105-12.518 2.072 22.772 2.072 12.995 2.071-22.235 2.072 38.33 2.105-53.65 2.004 11.624 2.003-13.413 2.072 24.5 2.071 7.69 2.072-35.41 2.072 3.22 2.105-59.017 2.072-7.034 2.071-19.792 2.072 34.576 2.071 47.69 2.106-41.133 2.003 20.503 2.004-13.35 2.071 14.01 2.072 45.008 2.072-9.896 2.071-54.486 2.106 44.71 2.071-41.968 2.072-13.473 2.071 41.193 2.072-10.79 2.105-73.324 2.038 53.59 2.037-24.976 2.072 5.604 2.072-46.737 2.071-5.007 2.072 58.659 2.105 32.19 2.072-52.041 2.071 34.158 2.072 6.498 2.071 34.635 2.106-51.863 2.003-25.804 2.004-18.906 2.072 37.914 2.071 44.352 2.072 27.72 2.071-29.509 2.106-8.942 2.071 5.187 2.072 18.063 2.071.417 2.072 38.927 2.105-28.614 2.004-35.13 2.004 44.072 2.071-8.167 2.072-13.294 2.071 5.902 2.072 33.443 2.105-44.71 2.072-34.933 2.071 34.933 2.072-46.021 2.071 90.73 2.106-75.112 2.004 7.218h0" clip-path="url(#peaffc710a7)" style="fill:none;stroke:#1f77b4;stroke-width:1.5;stroke-linecap:square"/></g></g><defs><clipPath id="peaffc710a7"><path d="M23.108 57.838h357.12V323.95H23.108z"/></clipPath></defs></svg>