<svg xmlns="http://www.w3.org/2000/svg" xmlns:xlink="http://www.w3.org/1999/xlink" width="644.065" height="489.969" viewBox="0 0 483.049 367.477"><defs><style>*{stroke-linejoin:round;stroke-linecap:butt}</style></defs><g id="figure_1"><path id="patch_1" d="M0 367.477h483.049V0H0v367.477z" style="fill:none"/><g id="axes_1"><path id="patch_2" d="M23.108 323.95h357.12V57.838H23.108V323.95z" style="fill:none"/><g id="matplotlib.axis_1"><g id="xtick_1"><g id="line2d_1"><defs><path id="m15c55a05ad" d="M0 0v3.5" style="stroke:#b0b0b0;stroke-width:.4"/></defs><use xlink:href="#m15c55a05ad" x="55.058" y="323.95" style="fill:#b0b0b0;stroke:#b0b0b0;stroke-width:.4"/></g><g id="text_1" style="fill:#b0b0b0" transform="matrix(.14 0 0 -.14 37.243 341.588)"><defs><path id="DejaVuSans-32" d="M1228 531h2203V0H469v531q359 372 979 998 621 627 780 809 303 340 423 576 121 236 121 464 0 372-261 606-261 235-680 235-297 0-627-103-329-103-704-313v638q381 153 712 231 332 78 607 78 725 0 1156-363 431-362 431-968 0-288-108-546-107-257-392-607-78-91-497-524-418-433-1181-1211z" transform="scale(.01563)"/><path id="DejaVuSans-30" d="M2034 4250q-487 0-733-480-245-479-245-1442 0-959 245-1439 246-480 733-480 491 0 736 480 246 480 246 1439 0 963-246 1442-245 480-736 480zm0 500q785 0 1199-621 414-620 414-1801 0-1178-414-1799Q2819-91 2034-91q-784 0-1198 620-414 621-414 1799 0 1181 414 1801 414 621 1198 621z" transform="scale(.01563)"/><path id="DejaVuSans-31" d="M794 531h1031v3560L703 3866v575l1116 225h631V531h1031V0H794v531z" transform="scale(.01563)"/></defs><use xlink:href="#DejaVuSans-32"/><use xlink:href="#DejaVuSans-30" x="63.623"/><use xlink:href="#DejaVuSans-31" x="127.246"/><use xlink:href="#DejaVuSans-30" x="190.869"/></g></g><g id="xtick_2"><use xlink:href="#m15c55a05ad" id="line2d_2" x="105.216" y="323.95" style="fill:#b0b0b0;stroke:#b0b0b0;stroke-width:.4"/><g id="text_2" style="fill:#b0b0b0" transform="matrix(.14 0 0 -.14 87.4 341.588)"><use xlink:href="#DejaVuSans-32"/><use xlink:href="#DejaVuSans-30" x="63.623"/><use xlink:href="#DejaVuSans-31" x="127.246"/><use xlink:href="#DejaVuSans-32" x="190.869"/></g></g><g id="xtick_3"><use xlink:href="#m15c55a05ad" id="line2d_3" x="155.443" y="323.95" style="fill:#b0b0b0;stroke:#b0b0b0;stroke-width:.4"/><g id="text_3" style="fill:#b0b0b0" transform="matrix(.14 0 0 -.14 137.628 341.588)"><defs><path id="DejaVuSans-34" d="M2419 4116 825 1625h1594v2491zm-166 550h794V1625h666v-525h-666V0h-628v1100H313v609l1940 2957z" transform="scale(.01563)"/></defs><use xlink:href="#DejaVuSans-32"/><use xlink:href="#DejaVuSans-30" x="63.623"/><use xlink:href="#DejaVuSans-31" x="127.246"/><use xlink:href="#DejaVuSans-34" x="190.869"/></g></g><g id="xtick_4"><use xlink:href="#m15c55a05ad" id="line2d_4" x="205.601" y="323.95" style="fill:#b0b0b0;stroke:#b0b0b0;stroke-width:.4"/><g id="text_4" style="fill:#b0b0b0" transform="matrix(.14 0 0 -.14 187.786 341.588)"><defs><path id="DejaVuSans-36" d="M2113 2584q-425 0-674-291-248-290-248-796 0-503 248-796 249-292 674-292t673 292q248 293 248 796 0 506-248 796-248 291-673 291zm1253 1979v-575q-238 112-480 171-242 60-480 60-625 0-955-422-329-422-376-1275 184 272 462 417 279 145 613 145 703 0 1111-427 408-426 408-1160 0-719-425-1154Q2819-91 2113-91q-810 0-1238 620-428 621-428 1799 0 1106 525 1764t1409 658q238 0 480-47t505-140z" transform="scale(.01563)"/></defs><use xlink:href="#DejaVuSans-32"/><use xlink:href="#DejaVuSans-30" x="63.623"/><use xlink:href="#DejaVuSans-31" x="127.246"/><use xlink:href="#DejaVuSans-36" x="190.869"/></g></g><g id="xtick_5"><use xlink:href="#m15c55a05ad" id="line2d_5" x="255.828" y="323.95" style="fill:#b0b0b0;stroke:#b0b0b0;stroke-width:.4"/><g id="text_5" style="fill:#b0b0b0" transform="matrix(.14 0 0 -.14 238.013 341.588)"><defs><path id="DejaVuSans-38" d="M2034 2216q-450 0-708-241-257-241-257-662 0-422 257-663 258-241 708-241t709 242q260 243 260 662 0 421-258 662-257 241-711 241zm-631 268q-406 100-633 378-226 279-226 679 0 559 398 884 399 325 1092 325 697 0 1094-325t397-884q0-400-227-679-226-278-629-378 456-106 710-416 255-309 255-755 0-679-414-1042Q2806-91 2034-91q-771 0-1186 362-414 363-414 1042 0 446 256 755 257 310 713 416zm-231 997q0-362 226-565 227-203 636-203 407 0 636 203 230 203 230 565 0 363-230 566-229 203-636 203-409 0-636-203-226-203-226-566z" transform="scale(.01563)"/></defs><use xlink:href="#DejaVuSans-32"/><use xlink:href="#DejaVuSans-30" x="63.623"/><use xlink:href="#DejaVuSans-31" x="127.246"/><use xlink:href="#DejaVuSans-38" x="190.869"/></g></g><g id="xtick_6"><use xlink:href="#m15c55a05ad" id="line2d_6" x="305.986" y="323.95" style="fill:#b0b0b0;stroke:#b0b0b0;stroke-width:.4"/><g id="text_6" style="fill:#b0b0b0" transform="matrix(.14 0 0 -.14 288.171 341.588)"><use xlink:href="#DejaVuSans-32"/><use xlink:href="#DejaVuSans-30" x="63.623"/><use xlink:href="#DejaVuSans-32" x="127.246"/><use xlink:href="#DejaVuSans-30" x="190.869"/></g></g><g id="xtick_7"><use xlink:href="#m15c55a05ad" id="line2d_7" x="356.213" y="323.95" style="fill:#b0b0b0;stroke:#b0b0b0;stroke-width:.4"/><g id="text_7" style="fill:#b0b0b0" transform="matrix(.14 0 0 -.14 338.398 341.588)"><use xlink:href="#DejaVuSans-32"/><use xlink:href="#DejaVuSans-30" x="63.623"/><use xlink:href="#DejaVuSans-32" x="127.246"/><use xlink:href="#DejaVuSans-32" x="190.869"/></g></g></g><g id="matplotlib.axis_2"><g id="ytick_1"><path id="line2d_8" d="M23.108 323.95h357.12" clip-path="url(#p770e1391cf)" style="fill:none;stroke:#b0b0b0;stroke-width:.3;stroke-linecap:square"/><g id="line2d_9"><defs><path id="m99bf4ccb7d" d="M0 0h-3.5" style="stroke:#b0b0b0;stroke-width:.3"/></defs><use xlink:href="#m99bf4ccb7d" x="23.108" y="323.95" style="fill:#b0b0b0;stroke:#b0b0b0;stroke-width:.3"/></g><use xlink:href="#DejaVuSans-30" id="text_8" style="fill:#b0b0b0" transform="matrix(.14 0 0 -.14 7.2 329.269)"/></g><g id="ytick_2"><path id="line2d_10" d="M23.108 268.51h357.12" clip-path="url(#p770e1391cf)" style="fill:none;stroke:#b0b0b0;stroke-width:.3;stroke-linecap:square"/><use xlink:href="#m99bf4ccb7d" id="line2d_11" x="23.108" y="268.51" style="fill:#b0b0b0;stroke:#b0b0b0;stroke-width:.3"/><use xlink:href="#DejaVuSans-31" id="text_9" style="fill:#b0b0b0" transform="matrix(.14 0 0 -.14 7.2 273.829)"/></g><g id="ytick_3"><path id="line2d_12" d="M23.108 213.07h357.12" clip-path="url(#p770e1391cf)" style="fill:none;stroke:#b0b0b0;stroke-width:.3;stroke-linecap:square"/><use xlink:href="#m99bf4ccb7d" id="line2d_13" x="23.108" y="213.07" style="fill:#b0b0b0;stroke:#b0b0b0;stroke-width:.3"/><use xlink:href="#DejaVuSans-32" id="text_10" style="fill:#b0b0b0" transform="matrix(.14 0 0 -.14 7.2 218.389)"/></g><g id="ytick_4"><path id="line2d_14" d="M23.108 157.63h357.12" clip-path="url(#p770e1391cf)" style="fill:none;stroke:#b0b0b0;stroke-width:.3;stroke-linecap:square"/><use xlink:href="#m99bf4ccb7d" id="line2d_15" x="23.108" y="157.63" style="fill:#b0b0b0;stroke:#b0b0b0;stroke-width:.3"/><g id="text_11" style="fill:#b0b0b0" transform="matrix(.14 0 0 -.14 7.2 162.949)"><defs><path id="DejaVuSans-33" d="M2597 2516q453-97 707-404 255-306 255-756 0-690-475-1069Q2609-91 1734-91q-293 0-604 58T488 141v609q262-153 574-231 313-78 654-78 593 0 904 234t311 681q0 413-289 645-289 233-804 233h-544v519h569q465 0 712 186t247 536q0 359-255 551-254 193-729 193-260 0-557-57-297-56-653-174v562q360 100 674 150t592 50q719 0 1137-327 419-326 419-882 0-388-222-655t-631-370z" transform="scale(.01563)"/></defs><use xlink:href="#DejaVuSans-33"/></g></g><g id="ytick_5"><path id="line2d_16" d="M23.108 102.19h357.12" clip-path="url(#p770e1391cf)" style="fill:none;stroke:#b0b0b0;stroke-width:.3;stroke-linecap:square"/><use xlink:href="#m99bf4ccb7d" id="line2d_17" x="23.108" y="102.19" style="fill:#b0b0b0;stroke:#b0b0b0;stroke-width:.3"/><use xlink:href="#DejaVuSans-34" id="text_12" style="fill:#b0b0b0" transform="matrix(.14 0 0 -.14 7.2 107.509)"/></g></g><path id="line2d_18" d="m23.108 320.485 1.614 3.465h2.096l2.095-1.789 2.13 1.789H83.23l2.027-1.789 2.095-.06 2.096-7.093 2.096 7.094 2.095-7.094 2.13 7.153 2.096-.06 2.096-14.247 2.095 12.4 2.096-1.67 2.13 1.789 2.061-9.805 2.061 2.651 2.096-9.597 2.096 6.02 2.095-.476 2.096 5.842h2.13l2.096 1.55 2.095-3.339 2.096-4.053 2.096 2.265 2.13-10.73 2.027-16.351 2.027 10.986 2.095-2.802 2.096 2.802 2.096 11.982 2.095-6.617 2.13 1.788 2.096 4.829 2.096-6.617 2.095 2.92 2.096-2.92 2.13 1.788 2.027-12.2 2.027 8.623 2.095 10.254 2.096-12.042 2.096 12.042 2.095-10.254 2.13 8.942 2.096-7.928 2.096 6.14 2.095-7.988 2.096 11.565 2.13-1.789 2.027.256 2.027-21.716 2.096 9.836 2.095-6.26 2.096 2.564 2.096 4.59 2.13-1.788 2.095 6.438 2.096-11.804 2.095.716 2.096 2.861 2.13 3.577 2.061.062 2.062-16.157 2.095 7.809 2.096 13.651 4.191-16.095 2.13 10.73 2.096 8.346 2.096-2.98 2.095-6.26 2.096 16.99 2.13-3.577 2.027 2.427 2.027-18.523 2.096 10.075 2.095-2.921 2.096-8.167 2.095-13.294 2.13 23.25 2.096-2.564 2.096 7.928 2.095-24.56 2.096 24.56 2.13 1.789 2.027-17.373 2.027 8.43 2.096 1.074 2.095.715 2.096 10.373 2.096-13.95 2.13-8.942 2.095 9.956 2.096-11.744 2.096 11.744 2.095-1.014 2.13-1.788L284 290.29l2.027 5.046 2.096 4.59 2.095-2.802 2.096 13.89 2.096-8.525h2.13l2.095-2.563 2.096.775 2.096-15.56 2.095 20.925 2.13-14.307 2.062-19.426 2.061 23.003 2.096-8.346 2.095-2.385 2.096-3.16 2.096 12.102 2.13-1.788 2.095 2.623 2.096-9.777 2.096 15.32 2.095-9.955 2.13 3.577 2.027-13.157 2.027 7.792 2.096 13.592 2.095-15.38 2.096 4.292 2.096 11.803 2.13-26.826 2.095 11.327 2.096 19.076 2.096-2.444 2.095-11.863 2.13 10.73 2.027-18.14 2.027 10.987 2.096-.954 2.096 6.319 2.095-11.863 2.096 6.498 2.13 10.73 2.096-9.836 2.095 4.47 2.096-2.622 2.096 4.411h0" clip-path="url(#p770e1391cf)" style="fill:none;stroke:#d62728;stroke-width:1.5;stroke-linecap:square"/><path id="line2d_19" d="m23.108 251.185 1.614 29.844 2.096 15.2 2.095-2.682 2.13-7.153 2.027-.064 2.027.064 2.096 9.836 2.096-13.413 2.095-5.067 2.096-5.663 2.13 25.037 2.096-15.678 2.095-11.148 2.096 1.908 2.096 12.4 2.13 8.941 2.027-9.197 2.027-15.84h2.095l2.096-3.577 2.095 1.729 2.096 7.213 2.13-25.037 2.096-.656 2.095 14.963 2.096 10.909 2.096-9.121 2.13-14.307 2.027 7.984 2.027-6.196 2.095 3.16 2.096-22.832 2.096 24.68 2.095-19.315 2.13 42.922 2.096-32.847 2.096 14.963 2.095-3.875 2.096 3.875 2.13-10.73 2.061-14.493 2.061 23.434 2.096 3.458 2.096-30.284 2.095 13.652 2.096 18.54 2.13-16.096 2.096-19.076 2.095 22.653 2.096-15.261 2.096 42.087 2.13-44.71 2.027-3.45 2.027-3.704 2.095-17.943 2.096 23.308 2.096 2.564 2.095-16.87 2.13 10.73 2.096 19.076 2.096-6.558 2.095 2.862 2.096.715 2.13-5.365 2.027-2.874 2.027-11.433 2.095 15.26 2.096-4.53 2.096 2.683 2.095-16.99 2.13 25.038 2.096-.656 2.096 7.81 2.095 8.822 2.096-5.246 2.13 5.365 2.027-4.343 2.027 2.555 2.096 3.517 2.095 7.213 2.096-33.085 2.096-.894 2.13 19.672 2.095 1.55 2.096-15.857 2.095-6.32 2.096 18.838 4.191-67.65 2.062 17.576 2.095-13.115 2.096 5.961 2.096-52.161 2.095 61.103 2.13 23.25 2.096-36.305 2.096-4.829 2.095 21.46 2.096 50.076 2.13-17.884 2.027-4.471 2.027-18.778 2.096 37.258 4.19-62.832 2.096 14.843 2.13 3.577 2.096 22.236 2.096 20.685 2.095 12.579 2.096 1.729 2.13-33.98 2.027 28.423 2.027-23.058 2.096 21.342 2.095 3.696 2.096-9.24 2.096-30.105 4.225 28.257 2.096 3.934 2.096 10.85 2.095 1.669 2.13-12.519L284 264.55l2.027-17.5 2.096 25.156 2.095-3.696 2.096 25.872 2.096-49.121 2.13 5.365 2.095-.596 2.096-10.134 2.096 13.83 2.095 11.207h2.13l2.062 1.665 2.061-5.242 2.096 12.698 2.095-3.756 2.096-5.484 2.096-1.67h2.13l2.095-.178 2.096 10.909 2.096 5.723 2.095 10.372 2.13-28.614 2.027 26.954 2.027-30.53 2.096 18.122 2.095-3.815 2.096 11.207 2.096 1.311 2.13-3.576 2.095-14.367 2.096 25.097 2.096-8.465 2.095 4.888 2.13-16.095 2.027 14.243 2.027-5.301 2.096 5.96 2.096 1.193 2.095-6.736 2.096 10.313 2.13-7.154 2.096 11.625 2.095-9.836 2.096-14.188 2.096 10.61h0" clip-path="url(#p770e1391cf)" style="fill:none;stroke:#2ca02c;stroke-width:1.5;stroke-linecap:square"/><path id="line2d_20" d="m23.108 320.485 1.614 1.676 2.096-1.907 2.095 3.696 2.13-3.577 2.027 1.597 2.027 1.98h2.096l2.096-1.789 2.095-3.755 2.096 3.755 2.13-3.576 2.096-5.723 2.095 5.723 2.096-2.027 2.096.238 2.13-3.577 2.027-13.03 2.027 11.242 2.095-7.81 2.096.657 2.095 4.888 2.096-4.888 2.13 3.576 2.096 6.856 2.095-3.279 2.096 3.279 2.096-15.798 2.13 14.307 2.027-15.01 2.027-2.873 2.095 21.222 2.096-21.222 2.096 11.982 2.095-8.406h2.13l2.096 1.014 2.096.775 2.095-.775 2.096 2.563 2.13-12.519 2.061-8.078 2.061-2.652 2.096-25.514 2.096 25.514 2.095-23.666 2.096 5.782h2.13l2.096 31.178 2.095-15.082 2.096 9.538 2.096-.596 2.13 3.576 2.027-13.54 2.027 11.752 2.095-23.368 2.096 25.156 2.096-12.22 2.095 8.644 2.13-8.942 2.096 15.082 2.096-20.447 2.095.119 2.096 14.188 2.13-5.365 2.027-18.46 2.027 29.19 2.095-6.617 2.096-21.997 2.096 20.149 2.095-9.419 2.13-3.577 2.096 7.452 2.096 5.067 2.095-10.611 2.096-5.485 2.13 26.826 2.027-23.057 2.027-16.287 2.096 16.155 2.095 1.729 2.096-3.577 2.096 10.73 2.13-8.942 2.095 12.996 2.096 3.1 2.095 6.14 2.096 8.167 2.13-5.365 2.061-7.709 2.062 14.862 2.095-6.26 2.096 4.472 2.096-13.711 2.095 10.134 2.13-5.365 2.096.775 2.096 2.802 2.095-4.65 2.096 13.592 2.13-21.461 2.027 1.533 2.027 5.62 2.096-6.676 2.095-11.207 2.096-1.73 2.095 8.883 2.13 12.519 2.096 8.167 2.096-27.84 2.095 14.904 2.096 6.557 2.13-5.365 2.027 4.088 2.027 1.277 2.096-10.253 2.095-9.419 2.096-12.757 2.096 30.64 2.13-21.46 2.095 22.236 2.096-9.717 2.096.477 2.095 6.676 2.13-5.365L284 254.65l2.027 29.955 2.096-16.095 2.095 12.519 2.096 5.96 2.096-9.537 2.13-12.519 2.095 16.513 2.096-3.994 2.096.298 2.095 10.432 2.13-25.037 2.062-.37 2.061-3.207 2.096 3.398 2.095 14.486 2.096-27.422 2.096 20.268 2.13-1.788 2.095-18.48 2.096 25.633 2.096-18.241 2.095 37.914 2.13-59.017 2.027 32.19 2.027-19.671 2.096 14.128 2.095-5.187 2.096 5.187 2.096 23.428 2.13-23.25 2.095 5.366 2.096 7.153 2.096-10.85 2.095-1.668h2.13l2.027-34.235 2.027 16.35 2.096 19.554 2.096 12.638 2.095 2.146 2.096-.358 2.13-17.884 2.096 7.154 2.095 10.73 2.096-27.362 2.096 5.901h0" clip-path="url(#p770e1391cf)" style="fill:none;stroke:#ff7f0e;stroke-width:1.5;stroke-linecap:square"/><g id="text_13" style="fill:#1f77b4" transform="matrix(.14 0 0 -.14 390.941 211.568)"><defs><path id="DejaVuSans-6f" d="M1959 3097q-462 0-731-361t-269-989q0-628 267-989 268-361 733-361 460 0 728 362 269 363 269 988 0 622-269 986-268 364-728 364zm0 487q750 0 1178-488 429-487 429-1349 0-859-429-1349Q2709-91 1959-91q-753 0-1180 489-426 490-426 1349 0 862 426 1349 427 488 1180 488z" transform="scale(.01563)"/><path id="DejaVuSans-66" d="M2375 4863v-479h-550q-309 0-430-125-120-125-120-450v-309h947v-447h-947V0H697v3053H147v447h550v244q0 584 272 851 272 268 862 268h544z" transform="scale(.01563)"/><path id="DejaVuSans-69" d="M603 3500h575V0H603v3500zm0 1363h575v-729H603v729z" transform="scale(.01563)"/><path id="DejaVuSans-63" d="M3122 3366v-538q-244 135-489 202t-495 67q-560 0-870-355-309-354-309-995t309-996q310-354 870-354 250 0 495 67t489 202V134Q2881 22 2623-34q-257-57-548-57-791 0-1257 497-465 497-465 1341 0 856 470 1346 471 491 1290 491 265 0 518-55 253-54 491-163z" transform="scale(.01563)"/><path id="DejaVuSans-65" d="M3597 1894v-281H953q38-594 358-905t892-311q331 0 642 81t618 244V178Q3153 47 2828-22t-659-69q-838 0-1327 487-489 488-489 1320 0 859 464 1363 464 505 1252 505 706 0 1117-455 411-454 411-1235zm-575 169q-6 471-264 752-258 282-683 282-481 0-770-272t-333-766l2050 4z" transform="scale(.01563)"/><path id="DejaVuSans-35" d="M691 4666h2478v-532H1269V2991q137 47 274 70 138 23 276 23 781 0 1237-428 457-428 457-1159 0-753-469-1171Q2575-91 1722-91q-294 0-599 50Q819 9 494 109v635q281-153 581-228t634-75q541 0 856 284 316 284 316 772 0 487-316 771-315 285-856 285-253 0-505-56-251-56-513-175v2344z" transform="scale(.01563)"/></defs><use xlink:href="#DejaVuSans-6f"/><use xlink:href="#DejaVuSans-66" x="61.182"/><use xlink:href="#DejaVuSans-66" x="96.387"/><use xlink:href="#DejaVuSans-69" x="131.592"/><use xlink:href="#DejaVuSans-63" x="159.375"/><use xlink:href="#DejaVuSans-65" x="214.355"/><use xlink:href="#DejaVuSans-33" x="275.879"/><use xlink:href="#DejaVuSans-36" x="339.502"/><use xlink:href="#DejaVuSans-35" x="403.125"/></g><g id="text_14" style="fill:#ff7f0e" transform="matrix(.14 0 0 -.14 390.941 261.643)"><defs><path id="DejaVuSans-67" d="M2906 1791q0 625-258 968-257 344-723 344-462 0-720-344-258-343-258-968 0-622 258-966t720-344q466 0 723 344 258 344 258 966zm575-1357q0-893-397-1329-396-436-1215-436-303 0-572 45t-522 139v559q253-137 500-202 247-66 503-66 566 0 847 295t281 892v285q-178-310-456-463T1784 0Q1141 0 747 490 353 981 353 1791q0 812 394 1302 394 491 1037 491 388 0 666-153t456-462v531h575V434z" transform="scale(.01563)"/><path id="DejaVuSans-6c" d="M603 4863h575V0H603v4863z" transform="scale(.01563)"/><path id="DejaVuSans-2d" d="M313 2009h1684v-512H313v512z" transform="scale(.01563)"/><path id="DejaVuSans-64" d="M2906 2969v1894h575V0h-575v525q-181-312-458-464-276-152-664-152-634 0-1033 506-398 507-398 1332t398 1331q399 506 1033 506 388 0 664-152 277-151 458-463zM947 1747q0-634 261-995t717-361q456 0 718 361 263 361 263 995t-263 995q-262 361-718 361t-717-361q-261-361-261-995z" transform="scale(.01563)"/><path id="DejaVuSans-73" d="M2834 3397v-544q-243 125-506 187-262 63-544 63-428 0-642-131t-214-394q0-200 153-314t616-217l197-44q612-131 870-370t258-667q0-488-386-773Q2250-91 1575-91q-281 0-586 55T347 128v594q319-166 628-249 309-82 613-82 406 0 624 139 219 139 219 392 0 234-158 359-157 125-692 241l-200 47q-534 112-772 345-237 233-237 639 0 494 350 762 350 269 994 269 318 0 599-47 282-46 519-140z" transform="scale(.01563)"/></defs><use xlink:href="#DejaVuSans-67"/><use xlink:href="#DejaVuSans-6f" x="63.477"/><use xlink:href="#DejaVuSans-6f" x="124.658"/><use xlink:href="#DejaVuSans-67" x="185.84"/><use xlink:href="#DejaVuSans-6c" x="249.316"/><use xlink:href="#DejaVuSans-65" x="277.1"/><use xlink:href="#DejaVuSans-2d" x="338.623"/><use xlink:href="#DejaVuSans-64" x="374.707"/><use xlink:href="#DejaVuSans-6f" x="438.184"/><use xlink:href="#DejaVuSans-63" x="499.365"/><use xlink:href="#DejaVuSans-73" x="554.346"/></g><g id="text_15" style="fill:#2ca02c" transform="matrix(.14 0 0 -.14 390.941 286.68)"><defs><path id="DejaVuSans-6d" d="M3328 2828q216 388 516 572t706 184q547 0 844-383 297-382 297-1088V0h-578v2094q0 503-179 746-178 244-543 244-447 0-707-297-259-296-259-809V0h-578v2094q0 506-178 748t-550 242q-441 0-701-298-259-298-259-808V0H581v3500h578v-544q197 322 472 475t653 153q382 0 649-194 267-193 395-562z" transform="scale(.01563)"/></defs><use xlink:href="#DejaVuSans-6d"/><use xlink:href="#DejaVuSans-73" x="97.412"/><use xlink:href="#DejaVuSans-2d" x="149.512"/><use xlink:href="#DejaVuSans-6f" x="187.471"/><use xlink:href="#DejaVuSans-66" x="248.652"/><use xlink:href="#DejaVuSans-66" x="283.857"/><use xlink:href="#DejaVuSans-69" x="319.063"/><use xlink:href="#DejaVuSans-63" x="346.846"/><use xlink:href="#DejaVuSans-65" x="401.826"/></g><g id="text_16" style="fill:#d62728" transform="matrix(.14 0 0 -.14 390.941 306.352)"><defs><path id="DejaVuSans-62" d="M3116 1747q0 634-261 995t-717 361q-457 0-718-361t-261-995q0-634 261-995t718-361q456 0 717 361t261 995zM1159 2969q182 312 458 463 277 152 661 152 638 0 1036-506 399-506 399-1331T3314 415Q2916-91 2278-91q-384 0-661 152-276 152-458 464V0H581v4863h578V2969z" transform="scale(.01563)"/><path id="DejaVuSans-72" d="M2631 2963q-97 56-211 82-114 27-251 27-488 0-749-317t-261-911V0H581v3500h578v-544q182 319 472 473 291 155 707 155 59 0 131-8 72-7 159-23l3-590z" transform="scale(.01563)"/></defs><use xlink:href="#DejaVuSans-6c"/><use xlink:href="#DejaVuSans-69" x="27.783"/><use xlink:href="#DejaVuSans-62" x="55.566"/><use xlink:href="#DejaVuSans-72" x="119.043"/><use xlink:href="#DejaVuSans-65" x="157.906"/><use xlink:href="#DejaVuSans-6f" x="219.43"/><use xlink:href="#DejaVuSans-66" x="280.611"/><use xlink:href="#DejaVuSans-66" x="315.816"/><use xlink:href="#DejaVuSans-69" x="351.021"/><use xlink:href="#DejaVuSans-63" x="378.805"/><use xlink:href="#DejaVuSans-65" x="433.785"/></g><g id="text_17" style="fill:#b0b0b0" transform="matrix(.09716 0 0 -.09716 23.108 357.986)"><defs><path id="DejaVuSans-40" d="M2381 1678q0-447 222-702 222-254 610-254 384 0 604 256 221 256 221 700 0 438-225 695-225 258-607 258-378 0-602-256-223-256-223-697zm1703-934q-187-241-429-355t-564-114q-538 0-874 389t-336 1014q0 625 337 1015 338 391 873 391 322 0 565-117 244-117 428-354v409h447V722q457 69 714 417 258 349 258 902 0 334-99 628-98 294-298 544-325 409-792 626t-1017 217q-384 0-738-102-353-101-653-301-490-319-767-836-276-517-276-1120 0-497 179-932 180-434 521-765 328-325 759-495 431-171 922-171 403 0 792 136t714 389l281-347q-390-303-851-464t-936-161q-578 0-1091 205-512 205-912 595Q841 78 631 592q-209 514-209 1105 0 569 212 1084 213 516 607 907 403 396 931 607t1119 211q662 0 1229-272 568-271 952-771 234-307 357-666 124-359 124-744 0-822-497-1297T4084 263v481z" transform="scale(.01563)"/><path id="DejaVuSans-6e" d="M3513 2113V0h-575v2094q0 497-194 743-194 247-581 247-466 0-735-297-269-296-269-809V0H581v3500h578v-544q207 316 486 472 280 156 646 156 603 0 912-373 310-373 310-1098z" transform="scale(.01563)"/><path id="DejaVuSans-68" d="M3513 2113V0h-575v2094q0 497-194 743-194 247-581 247-466 0-735-297-269-296-269-809V0H581v4863h578V2956q207 316 486 472 280 156 646 156 603 0 912-373 310-373 310-1098z" transform="scale(.01563)"/><path id="DejaVuSans-2f" d="M1625 4666h531L531-594H0l1625 5260z" transform="scale(.01563)"/><path id="DejaVuSans-74" d="M1172 4494v-994h1184v-447H1172V1153q0-428 117-550t477-122h590V0h-590q-666 0-919 248-253 249-253 905v1900H172v447h422v994h578z" transform="scale(.01563)"/><path id="DejaVuSans-61" d="M2194 1759q-697 0-966-159t-269-544q0-306 202-486 202-179 548-179 479 0 768 339t289 901v128h-572zm1147 238V0h-575v531q-197-318-491-470T1556-91q-537 0-855 302-317 302-317 808 0 590 395 890 396 300 1180 300h807v57q0 397-261 614t-733 217q-300 0-585-72-284-72-546-216v532q315 122 612 182 297 61 578 61 760 0 1135-394 375-393 375-1193z" transform="scale(.01563)"/><path id="DejaVuSans-6b" d="M581 4863h578V1991l1716 1509h734L1753 1863 3688 0h-750L1159 1709V0H581v4863z" transform="scale(.01563)"/><path id="DejaVuSans-76" d="M191 3500h609L1894 563l1094 2937h609L2284 0h-781L191 3500z" transform="scale(.01563)"/><path id="DejaVuSans-77" d="M269 3500h575l719-2731 715 2731h678l719-2731 716 2731h575L4050 0h-678l-753 2869L1863 0h-679L269 3500z" transform="scale(.01563)"/><path id="DejaVuSans-7c" d="M1344 4891v-6400H813v6400h531z" transform="scale(.01563)"/><path id="DejaVuSans-4e" d="M628 4666h850L3547 763v3903h612V0h-850L1241 3903V0H628v4666z" transform="scale(.01563)"/><path id="DejaVuSans-53" d="M3425 4513v-616q-359 172-678 256-319 85-616 85-515 0-795-200t-280-569q0-310 186-468 186-157 705-254l381-78q706-135 1042-474t336-907q0-679-455-1029Q2797-91 1919-91q-331 0-705 75-373 75-773 222v650q384-215 753-325 369-109 725-109 540 0 834 212 294 213 294 607 0 343-211 537t-692 291l-385 75q-706 140-1022 440-315 300-315 835 0 619 436 975t1201 356q329 0 669-60 341-59 697-177z" transform="scale(.01563)"/><path id="DejaVuSans-f6" d="M1959 3097q-462 0-731-361t-269-989q0-628 267-989 268-361 733-361 460 0 728 362 269 363 269 988 0 622-269 986-268 364-728 364zm0 487q750 0 1178-488 429-487 429-1349 0-859-429-1349Q2709-91 1959-91q-753 0-1180 489-426 490-426 1349 0 862 426 1349 427 488 1180 488zm295 1266h634v-631h-634v631zm-1222 0h634v-631h-634v631z" transform="scale(.01563)"/><path id="DejaVuSans-43" d="M4122 4306v-665q-319 297-680 443-361 147-767 147-800 0-1225-489t-425-1414q0-922 425-1411t1225-489q406 0 767 147t680 444V359q-331-225-702-338-370-112-782-112-1060 0-1670 648-609 649-609 1771 0 1125 609 1773 610 649 1670 649 418 0 788-111 371-111 696-333z" transform="scale(.01563)"/><path id="DejaVuSans-42" d="M1259 2228V519h1013q509 0 754 211 246 211 246 645 0 438-246 645-245 208-754 208H1259zm0 1919V2741h935q462 0 688 173 227 174 227 530 0 353-227 528-226 175-688 175h-935zm-631 519h1613q722 0 1112-300 391-300 391-853 0-429-200-682t-588-315q466-100 724-418 258-317 258-792 0-625-425-966Q3088 0 2303 0H628v4666z" transform="scale(.01563)"/><path id="DejaVuSans-59" d="M-13 4666h679l1293-1919 1285 1919h678L2272 2222V0h-634v2222L-13 4666z" transform="scale(.01563)"/></defs><use xlink:href="#DejaVuSans-40"/><use xlink:href="#DejaVuSans-6e" x="100"/><use xlink:href="#DejaVuSans-73" x="163.379"/><use xlink:href="#DejaVuSans-63" x="215.479"/><use xlink:href="#DejaVuSans-68" x="270.459"/><use xlink:href="#DejaVuSans-6c" x="333.838"/><use xlink:href="#DejaVuSans-6f" x="361.621"/><use xlink:href="#DejaVuSans-65" x="422.803"/><use xlink:href="#DejaVuSans-20" x="484.326"/><use xlink:href="#DejaVuSans-2f" x="516.113"/><use xlink:href="#DejaVuSans-20" x="549.805"/><use xlink:href="#DejaVuSans-73" x="581.592"/><use xlink:href="#DejaVuSans-74" x="633.691"/><use xlink:href="#DejaVuSans-61" x="672.9"/><use xlink:href="#DejaVuSans-63" x="734.18"/><use xlink:href="#DejaVuSans-6b" x="789.16"/><use xlink:href="#DejaVuSans-6f" x="843.445"/><use xlink:href="#DejaVuSans-76" x="904.627"/><use xlink:href="#DejaVuSans-65" x="963.807"/><use xlink:href="#DejaVuSans-72" x="1025.33"/><use xlink:href="#DejaVuSans-66" x="1066.443"/><use xlink:href="#DejaVuSans-6c" x="1101.648"/><use xlink:href="#DejaVuSans-6f" x="1129.432"/><use xlink:href="#DejaVuSans-77" x="1190.613"/><use xlink:href="#DejaVuSans-2d" x="1272.4"/><use xlink:href="#DejaVuSans-74" x="1308.484"/><use xlink:href="#DejaVuSans-72" x="1347.693"/><use xlink:href="#DejaVuSans-65" x="1386.557"/><use xlink:href="#DejaVuSans-6e" x="1448.08"/><use xlink:href="#DejaVuSans-64" x="1511.459"/><use xlink:href="#DejaVuSans-73" x="1574.936"/><use xlink:href="#DejaVuSans-20" x="1627.035"/><use xlink:href="#DejaVuSans-7c" x="1658.822"/><use xlink:href="#DejaVuSans-20" x="1692.514"/><use xlink:href="#DejaVuSans-4e" x="1724.301"/><use xlink:href="#DejaVuSans-69" x="1799.105"/><use xlink:href="#DejaVuSans-63" x="1826.889"/><use xlink:href="#DejaVuSans-6f" x="1881.869"/><use xlink:href="#DejaVuSans-20" x="1943.051"/><use xlink:href="#DejaVuSans-53" x="1974.838"/><use xlink:href="#DejaVuSans-63" x="2038.314"/><use xlink:href="#DejaVuSans-68" x="2093.295"/><use xlink:href="#DejaVuSans-6c" x="2156.674"/><use xlink:href="#DejaVuSans-f6" x="2184.457"/><use xlink:href="#DejaVuSans-6d" x="2245.639"/><use xlink:href="#DejaVuSans-65" x="2343.051"/><use xlink:href="#DejaVuSans-72" x="2404.574"/><use xlink:href="#DejaVuSans-20" x="2445.688"/><use xlink:href="#DejaVuSans-7c" x="2477.475"/><use xlink:href="#DejaVuSans-20" x="2511.166"/><use xlink:href="#DejaVuSans-43" x="2542.953"/><use xlink:href="#DejaVuSans-43" x="2612.777"/><use xlink:href="#DejaVuSans-20" x="2682.602"/><use xlink:href="#DejaVuSans-42" x="2714.389"/><use xlink:href="#DejaVuSans-59" x="2777.492"/></g><g id="text_18" style="fill:#b0b0b0" transform="matrix(.14 0 0 -.14 45.522 17.838)"><defs><path id="DejaVuSans-44" d="M1259 4147V519h763q966 0 1414 437 448 438 448 1382 0 937-448 1373t-1414 436h-763zm-631 519h1297q1356 0 1990-564 635-564 635-1764 0-1207-638-1773Q3275 0 1925 0H628v4666z" transform="scale(.01563)"/><path id="DejaVuSans-79" d="M2059-325q-243-625-475-815-231-191-618-191H506v481h338q237 0 368 113 132 112 291 531l103 262L191 3500h609L1894 763l1094 2737h609L2059-325z" transform="scale(.01563)"/><path id="DejaVuSans-75" d="M544 1381v2119h575V1403q0-497 193-746 194-248 582-248 465 0 735 297 271 297 271 810v1984h575V0h-575v538q-209-319-486-474-276-155-642-155-603 0-916 375-312 375-312 1097zm1447 2203z" transform="scale(.01563)"/><path id="DejaVuSans-71" d="M947 1747q0-634 261-995t717-361q456 0 718 361 263 361 263 995t-263 995q-262 361-718 361t-717-361q-261-361-261-995zM2906 525q-181-312-458-464-276-152-664-152-634 0-1033 506-398 507-398 1332t398 1331q399 506 1033 506 388 0 664-152 277-151 458-463v531h575v-4831h-575V525z" transform="scale(.01563)"/><path id="DejaVuSans-4f" d="M2522 4238q-688 0-1093-513-404-512-404-1397 0-881 404-1394 405-512 1093-512 687 0 1089 512 402 513 402 1394 0 885-402 1397-402 513-1089 513zm0 512q981 0 1568-658 588-658 588-1764 0-1103-588-1761Q3503-91 2522-91q-984 0-1574 656-589 657-589 1763t589 1764q590 658 1574 658z" transform="scale(.01563)"/></defs><use xlink:href="#DejaVuSans-44"/><use xlink:href="#DejaVuSans-61" x="77.002"/><use xlink:href="#DejaVuSans-69" x="138.281"/><use xlink:href="#DejaVuSans-6c" x="166.064"/><use xlink:href="#DejaVuSans-79" x="193.848"/><use xlink:href="#DejaVuSans-20" x="253.027"/><use xlink:href="#DejaVuSans-6e" x="284.814"/><use xlink:href="#DejaVuSans-75" x="348.193"/><use xlink:href="#DejaVuSans-6d" x="411.572"/><use xlink:href="#DejaVuSans-62" x="508.984"/><use xlink:href="#DejaVuSans-65" x="572.461"/><use xlink:href="#DejaVuSans-72" x="633.984"/><use xlink:href="#DejaVuSans-20" x="675.098"/><use xlink:href="#DejaVuSans-6f" x="706.885"/><use xlink:href="#DejaVuSans-66" x="768.066"/><use xlink:href="#DejaVuSans-20" x="803.271"/><use xlink:href="#DejaVuSans-71" x="835.059"/><use xlink:href="#DejaVuSans-75" x="898.535"/><use xlink:href="#DejaVuSans-65" x="961.914"/><use xlink:href="#DejaVuSans-73" x="1023.438"/><use xlink:href="#DejaVuSans-74" x="1075.537"/><use xlink:href="#DejaVuSans-69" x="1114.746"/><use xlink:href="#DejaVuSans-6f" x="1142.529"/><use xlink:href="#DejaVuSans-6e" x="1203.711"/><use xlink:href="#DejaVuSans-73" x="1267.09"/><use xlink:href="#DejaVuSans-20" x="1319.189"/><use xlink:href="#DejaVuSans-6f" x="1350.977"/><use xlink:href="#DejaVuSans-6e" x="1412.158"/><use xlink:href="#DejaVuSans-20" x="1475.537"/><use xlink:href="#DejaVuSans-53" x="1507.324"/><use xlink:href="#DejaVuSans-74" x="1570.801"/><use xlink:href="#DejaVuSans-61" x="1610.01"/><use xlink:href="#DejaVuSans-63" x="1671.289"/><use xlink:href="#DejaVuSans-6b" x="1726.27"/><use xlink:href="#DejaVuSans-4f" x="1784.18"/><use xlink:href="#DejaVuSans-76" x="1862.891"/><use xlink:href="#DejaVuSans-65" x="1922.07"/><use xlink:href="#DejaVuSans-72" x="1983.594"/><use xlink:href="#DejaVuSans-66" x="2024.707"/><use xlink:href="#DejaVuSans-6c" x="2059.912"/><use xlink:href="#DejaVuSans-6f" x="2087.695"/><use xlink:href="#DejaVuSans-77" x="2148.877"/></g><path id="line2d_21" d="m83.229 323.95 4.122-3.696 2.096 3.696 2.096-5.544 2.095-12.34 4.226 14.188 2.096-7.035 2.095 5.187 2.096 3.755 2.13-5.365 2.061-.493 2.061-4.872 2.096 3.279 2.096-1.49 2.095-2.206 2.096 2.205 2.13-8.941 2.096-.656 2.095 9.597 2.096 1.49 2.096 5.664 2.13-14.307 2.027-3.896 2.027-5.046 2.095-6.438 2.096 18.957 2.096-9.717 2.095 2.563 2.13 3.577 2.096 6.796 2.096-22.892 2.095 9.956 2.096 4.352 2.13-14.308 2.027.32 2.027-9.261 2.095-16.215 2.096-1.67 2.096-24.202 2.095 2.742 2.13-10.73 2.096-12.34 2.096 26.647 2.095-10.015 2.096-32.907 2.13-17.883 2.027 8.814 2.027 12.646 2.096-20.566 2.095-15.201 2.096-12.52 2.096 21.461 2.13 19.673 2.095-57.765 2.096 4.113 2.095 19.91 2.096-7.391 2.13-46.498 2.061 8.263 2.062-8.263 2.095-31.118 2.096-1.073 2.096 38.033 2.095-16.573 2.13 26.826 2.096 8.227 2.096 31.118 2.095-27.422 2.096 27.422 2.13-32.191 2.027 27.209 2.027-39.728 2.096 32.072 2.095-19.553 2.096-6.32 2.095 59.971 2.13-12.518 2.096 22.772 2.096 12.995 2.095-22.235 2.096 38.33 2.13-53.65 2.027 11.624 2.027-13.413 2.096 24.5 2.095 7.69 2.096-35.41 2.096 3.22 2.13-59.017 2.095-7.034 2.096-19.792 2.096 34.576 2.095 47.69 2.13-41.133L284 147.73l2.027-13.35 2.096 14.01 2.095 45.008 2.096-9.896 2.096-54.486 2.13 44.71 2.095-41.968 2.096-13.473 2.096 41.193 2.095-10.79 2.13-73.324 2.062 53.59 2.061-24.976 2.096 5.604 2.095-46.737 2.096-5.007 2.096 58.659 2.13 32.19 2.095-52.041 2.096 34.158 2.096 6.498 2.095 34.635 2.13-51.863 2.027-25.804 2.027-18.906 2.096 37.914 2.095 44.352 2.096 27.72 2.096-29.509 2.13-8.942 2.095 5.187 2.096 18.063 2.096.417 2.095 38.927 2.13-28.614 2.027-35.13 2.027 44.072 2.096-8.167 2.096-13.294 2.095 5.902 2.096 33.443 2.13-44.71 2.096-34.933 2.095 34.933 2.096-46.021 2.096 90.73h0" clip-path="url(#p770e1391cf)" style="fill:none;stroke:#1f77b4;stroke-width:1.5;stroke-linecap:square"/></g></g><defs><clipPath id="p770e1391cf"><path d="M23.108 57.838h357.12V323.95H23.108z"/></clipPath></defs></svg>