<svg xmlns="http://www.w3.org/2000/svg" xmlns:xlink="http://www.w3.org/1999/xlink" width="647.939" height="489.969" viewBox="0 0 485.954 367.477"><defs><style>*{stroke-linejoin:round;stroke-linecap:butt}</style></defs><g id="figure_1"><path id="patch_1" d="M0 367.477h485.954V0H0v367.477z" style="fill:none"/><g id="axes_1"><path id="patch_2" d="M40.922 323.95h357.12V57.838H40.923V323.95z" style="fill:none"/><g id="matplotlib.axis_1"><g id="xtick_1"><g id="line2d_1"><defs><path id="m136cab2f56" d="M0 0v3.5" style="stroke:#b0b0b0;stroke-width:.4"/></defs><use xlink:href="#m136cab2f56" x="73.252" y="323.95" style="fill:#b0b0b0;stroke:#b0b0b0;stroke-width:.4"/></g><g id="text_1" style="fill:#b0b0b0" transform="matrix(.14 0 0 -.14 55.437 341.588)"><defs><path id="DejaVuSans-32" d="M1228 531h2203V0H469v531q359 372 979 998 621 627 780 809 303 340 423 576 121 236 121 464 0 372-261 606-261 235-680 235-297 0-627-103-329-103-704-313v638q381 153 712 231 332 78 607 78 725 0 1156-363 431-362 431-968 0-288-108-546-107-257-392-607-78-91-497-524-418-433-1181-1211z" transform="scale(.01563)"/><path id="DejaVuSans-30" d="M2034 4250q-487 0-733-480-245-479-245-1442 0-959 245-1439 246-480 733-480 491 0 736 480 246 480 246 1439 0 963-246 1442-245 480-736 480zm0 500q785 0 1199-621 414-620 414-1801 0-1178-414-1799Q2819-91 2034-91q-784 0-1198 620-414 621-414 1799 0 1181 414 1801 414 621 1198 621z" transform="scale(.01563)"/><path id="DejaVuSans-31" d="M794 531h1031v3560L703 3866v575l1116 225h631V531h1031V0H794v531z" transform="scale(.01563)"/></defs><use xlink:href="#DejaVuSans-32"/><use xlink:href="#DejaVuSans-30" x="63.623"/><use xlink:href="#DejaVuSans-31" x="127.246"/><use xlink:href="#DejaVuSans-30" x="190.869"/></g></g><g id="xtick_2"><use xlink:href="#m136cab2f56" id="line2d_2" x="124.006" y="323.95" style="fill:#b0b0b0;stroke:#b0b0b0;stroke-width:.4"/><g id="text_2" style="fill:#b0b0b0" transform="matrix(.14 0 0 -.14 106.191 341.588)"><use xlink:href="#DejaVuSans-32"/><use xlink:href="#DejaVuSans-30" x="63.623"/><use xlink:href="#DejaVuSans-31" x="127.246"/><use xlink:href="#DejaVuSans-32" x="190.869"/></g></g><g id="xtick_3"><use xlink:href="#m136cab2f56" id="line2d_3" x="174.829" y="323.95" style="fill:#b0b0b0;stroke:#b0b0b0;stroke-width:.4"/><g id="text_3" style="fill:#b0b0b0" transform="matrix(.14 0 0 -.14 157.014 341.588)"><defs><path id="DejaVuSans-34" d="M2419 4116 825 1625h1594v2491zm-166 550h794V1625h666v-525h-666V0h-628v1100H313v609l1940 2957z" transform="scale(.01563)"/></defs><use xlink:href="#DejaVuSans-32"/><use xlink:href="#DejaVuSans-30" x="63.623"/><use xlink:href="#DejaVuSans-31" x="127.246"/><use xlink:href="#DejaVuSans-34" x="190.869"/></g></g><g id="xtick_4"><use xlink:href="#m136cab2f56" id="line2d_4" x="225.583" y="323.95" style="fill:#b0b0b0;stroke:#b0b0b0;stroke-width:.4"/><g id="text_4" style="fill:#b0b0b0" transform="matrix(.14 0 0 -.14 207.768 341.588)"><defs><path id="DejaVuSans-36" d="M2113 2584q-425 0-674-291-248-290-248-796 0-503 248-796 249-292 674-292t673 292q248 293 248 796 0 506-248 796-248 291-673 291zm1253 1979v-575q-238 112-480 171-242 60-480 60-625 0-955-422-329-422-376-1275 184 272 462 417 279 145 613 145 703 0 1111-427 408-426 408-1160 0-719-425-1154Q2819-91 2113-91q-810 0-1238 620-428 621-428 1799 0 1106 525 1764t1409 658q238 0 480-47t505-140z" transform="scale(.01563)"/></defs><use xlink:href="#DejaVuSans-32"/><use xlink:href="#DejaVuSans-30" x="63.623"/><use xlink:href="#DejaVuSans-31" x="127.246"/><use xlink:href="#DejaVuSans-36" x="190.869"/></g></g><g id="xtick_5"><use xlink:href="#m136cab2f56" id="line2d_5" x="276.407" y="323.95" style="fill:#b0b0b0;stroke:#b0b0b0;stroke-width:.4"/><g id="text_5" style="fill:#b0b0b0" transform="matrix(.14 0 0 -.14 258.592 341.588)"><defs><path id="DejaVuSans-38" d="M2034 2216q-450 0-708-241-257-241-257-662 0-422 257-663 258-241 708-241t709 242q260 243 260 662 0 421-258 662-257 241-711 241zm-631 268q-406 100-633 378-226 279-226 679 0 559 398 884 399 325 1092 325 697 0 1094-325t397-884q0-400-227-679-226-278-629-378 456-106 710-416 255-309 255-755 0-679-414-1042Q2806-91 2034-91q-771 0-1186 362-414 363-414 1042 0 446 256 755 257 310 713 416zm-231 997q0-362 226-565 227-203 636-203 407 0 636 203 230 203 230 565 0 363-230 566-229 203-636 203-409 0-636-203-226-203-226-566z" transform="scale(.01563)"/></defs><use xlink:href="#DejaVuSans-32"/><use xlink:href="#DejaVuSans-30" x="63.623"/><use xlink:href="#DejaVuSans-31" x="127.246"/><use xlink:href="#DejaVuSans-38" x="190.869"/></g></g><g id="xtick_6"><use xlink:href="#m136cab2f56" id="line2d_6" x="327.161" y="323.95" style="fill:#b0b0b0;stroke:#b0b0b0;stroke-width:.4"/><g id="text_6" style="fill:#b0b0b0" transform="matrix(.14 0 0 -.14 309.346 341.588)"><use xlink:href="#DejaVuSans-32"/><use xlink:href="#DejaVuSans-30" x="63.623"/><use xlink:href="#DejaVuSans-32" x="127.246"/><use xlink:href="#DejaVuSans-30" x="190.869"/></g></g><g id="xtick_7"><use xlink:href="#m136cab2f56" id="line2d_7" x="377.984" y="323.95" style="fill:#b0b0b0;stroke:#b0b0b0;stroke-width:.4"/><g id="text_7" style="fill:#b0b0b0" transform="matrix(.14 0 0 -.14 360.17 341.588)"><use xlink:href="#DejaVuSans-32"/><use xlink:href="#DejaVuSans-30" x="63.623"/><use xlink:href="#DejaVuSans-32" x="127.246"/><use xlink:href="#DejaVuSans-32" x="190.869"/></g></g></g><g id="matplotlib.axis_2"><g id="ytick_1"><path id="line2d_8" d="M40.922 323.95h357.12" clip-path="url(#p11fff89d04)" style="fill:none;stroke:#b0b0b0;stroke-width:.3;stroke-linecap:square"/><g id="line2d_9"><defs><path id="mf96b357b1a" d="M0 0h-3.5" style="stroke:#b0b0b0;stroke-width:.3"/></defs><use xlink:href="#mf96b357b1a" x="40.922" y="323.95" style="fill:#b0b0b0;stroke:#b0b0b0;stroke-width:.3"/></g><use xlink:href="#DejaVuSans-30" id="text_8" style="fill:#b0b0b0" transform="matrix(.14 0 0 -.14 25.015 329.269)"/></g><g id="ytick_2"><path id="line2d_10" d="M40.922 269.705h357.12" clip-path="url(#p11fff89d04)" style="fill:none;stroke:#b0b0b0;stroke-width:.3;stroke-linecap:square"/><use xlink:href="#mf96b357b1a" id="line2d_11" x="40.922" y="269.705" style="fill:#b0b0b0;stroke:#b0b0b0;stroke-width:.3"/><g id="text_9" style="fill:#b0b0b0" transform="matrix(.14 0 0 -.14 7.2 275.023)"><use xlink:href="#DejaVuSans-31"/><use xlink:href="#DejaVuSans-30" x="63.623"/><use xlink:href="#DejaVuSans-30" x="127.246"/></g></g><g id="ytick_3"><path id="line2d_12" d="M40.922 215.46h357.12" clip-path="url(#p11fff89d04)" style="fill:none;stroke:#b0b0b0;stroke-width:.3;stroke-linecap:square"/><use xlink:href="#mf96b357b1a" id="line2d_13" x="40.922" y="215.459" style="fill:#b0b0b0;stroke:#b0b0b0;stroke-width:.3"/><g id="text_10" style="fill:#b0b0b0" transform="matrix(.14 0 0 -.14 7.2 220.778)"><use xlink:href="#DejaVuSans-32"/><use xlink:href="#DejaVuSans-30" x="63.623"/><use xlink:href="#DejaVuSans-30" x="127.246"/></g></g><g id="ytick_4"><path id="line2d_14" d="M40.922 161.214h357.12" clip-path="url(#p11fff89d04)" style="fill:none;stroke:#b0b0b0;stroke-width:.3;stroke-linecap:square"/><use xlink:href="#mf96b357b1a" id="line2d_15" x="40.922" y="161.214" style="fill:#b0b0b0;stroke:#b0b0b0;stroke-width:.3"/><g id="text_11" style="fill:#b0b0b0" transform="matrix(.14 0 0 -.14 7.2 166.533)"><defs><path id="DejaVuSans-33" d="M2597 2516q453-97 707-404 255-306 255-756 0-690-475-1069Q2609-91 1734-91q-293 0-604 58T488 141v609q262-153 574-231 313-78 654-78 593 0 904 234t311 681q0 413-289 645-289 233-804 233h-544v519h569q465 0 712 186t247 536q0 359-255 551-254 193-729 193-260 0-557-57-297-56-653-174v562q360 100 674 150t592 50q719 0 1137-327 419-326 419-882 0-388-222-655t-631-370z" transform="scale(.01563)"/></defs><use xlink:href="#DejaVuSans-33"/><use xlink:href="#DejaVuSans-30" x="63.623"/><use xlink:href="#DejaVuSans-30" x="127.246"/></g></g><g id="ytick_5"><path id="line2d_16" d="M40.922 106.969h357.12" clip-path="url(#p11fff89d04)" style="fill:none;stroke:#b0b0b0;stroke-width:.3;stroke-linecap:square"/><use xlink:href="#mf96b357b1a" id="line2d_17" x="40.922" y="106.969" style="fill:#b0b0b0;stroke:#b0b0b0;stroke-width:.3"/><g id="text_12" style="fill:#b0b0b0" transform="matrix(.14 0 0 -.14 7.2 112.287)"><use xlink:href="#DejaVuSans-34"/><use xlink:href="#DejaVuSans-30" x="63.623"/><use xlink:href="#DejaVuSans-30" x="127.246"/></g></g></g><path id="line2d_18" d="M120.808 323.95h12.688l25.377-.018 2.12-.109 8.518.004 4.24-.017 2.156-.333 4.102.228 2.12-.207 2.121.137 2.12.026 2.121-.096 2.156.052 2.12-.246 2.12.159 2.121-.086 4.276-.02 2.051-.423 2.051-.049 2.12.13 4.242-.434 2.12-.046 2.156.438 2.12-.32 4.241.47 2.12-.29 4.242-.952 2.086.584 2.12-.408 2.12.233 2.121-.161 2.12.336 2.156-.192 2.12.109 4.242-.271 4.276.354 2.05-.461 2.052-.046 2.12.17 4.241-.198 2.12.168 4.277.103 2.12.037 2.12-.38 2.121.59 2.156.035 2.05-.286 2.052-.624 2.12.592 2.12.458 2.121-.042 2.12.094 4.277-.076 2.12-.501 2.12.284 2.121-.092 2.155.123 2.052-.138 2.05.068 2.121.274 2.12-.327 2.121.363 2.12-.188 2.156.368 2.12-.216 4.242.109 4.275.23 2.086.01 2.086-.536 2.12-.138 2.121.19h4.241l2.155.386 4.242-.088 6.396.315 2.051-.49 2.051.193 2.12-.18 2.121.407 2.12-.227 2.121.437 2.155-.157 16.86.118 2.121-.258 2.12.294 2.121.073 4.276-.2 2.12.288h0" clip-path="url(#p11fff89d04)" style="fill:none;stroke:#8c564b;stroke-width:1.5;stroke-linecap:square"/><path id="line2d_19" d="m105.93 323.95 14.878-.018 10.568-.018 2.12-.07 4.241.053 14.844-.14 2.051.14 2.12-.146 2.121.006 4.241-.192 4.276-.031 6.362.03 2.155-.297 2.051.082 2.051-.1 2.12.14 2.121.018 2.12-.199 2.121.112 2.156-.175 2.12-.009 4.241-.235 2.12.191 6.258-.157 2.12-.305 2.121.34 2.12-.16 2.121.02 2.156.175 2.12-.158 2.12-.28 2.121-.028 2.12.15 2.156-.104 2.086.168 4.206-.34 2.12.207 2.121.046 2.12-.256 2.156-.053 2.12.092 4.242-.253 2.12.599 2.156-.49 2.05-.254 2.052.131 2.12-.149 2.12.342 2.121.02 2.12-.423 2.156.28 2.12-.11 2.121.163 2.12-.218 2.121.673 2.156-.49 2.05.11 2.052-.145 2.12.16 2.12-.143 2.121-.02 2.12.125 2.156-.227 4.241.245 4.241-.14 2.155.21 2.052-.064 2.05.344 2.121-.62 2.12.235 2.121.09 2.12-.16 2.156.612 2.12-.288 2.121-.412 2.12-.185 2.121.798 2.155-.263 2.086-.434 2.086.242 4.241-.84 2.12.551 2.121-.288 2.155-.035 2.121.36 2.12.13 2.121.43 2.12.252 2.156-.193 2.051-.346 8.413.594 2.12-.318 2.155.053 4.242-.245 2.12.763 2.12-.238 4.207-.163 2.05.285 2.121-.263 4.242.488 2.12-.295 2.155-.017 2.121.113 2.12-.13h0" clip-path="url(#p11fff89d04)" style="fill:none;stroke:#9467bd;stroke-width:1.5;stroke-linecap:square"/><path id="line2d_20" d="m103.809 323.95 16.999-.235 6.361-.083 4.207-.713 2.12-1.139 2.12.362 2.121-.554 2.156.07 2.12-.131 2.12-.587 2.121-1.276 2.12 1.154 4.207-1.75 4.172-1.013 2.12.61 2.12-1.677 2.121-.038 2.156.683 2.12.278 2.12-.488 2.121-1.068 2.12-.262 2.156-.122 2.051-1.766 4.172.198 2.12 1.06 2.12.53 2.121-.74 2.156 1.855 2.12.26 2.12-.155 2.121-.876 2.12 1.05 2.156-.314 2.051-.679 2.051-.126 2.12-1.25 2.121.533 4.241-1.103 2.156 1.33 4.24-.052 2.121-.727 2.12 1.111 2.156-1.417 2.086.11 2.086-.495 2.12.438 4.241-1.012 2.12.854 2.156-.087 2.12 1.62 2.121-1.043 2.12-.06 2.121 1.337 4.207-1.123 2.05-.591 2.121 1.606 2.12-.591 2.121.61 2.12 1.034 2.156-.385 2.12.724 2.121-.391 2.12-.187 2.121 1.832 2.156-1.155 2.05.07 2.052.262 2.12-.196 2.12.599 2.121.197 2.12-.425 2.156.298 2.12-.416 4.242.453 2.12 1.24 2.155.105 2.052-.45 2.05.275 2.121-.501 2.12-.776 2.121.613 4.276.49 2.12-.4 2.121.487 2.12-.414 2.121 1.429 8.448-3.509 2.12.289 2.12 1.339 2.121.27 2.155.666 2.121-.286 2.12-.782 2.121 1.018 2.12.855 2.156-.228 2.051-.584 2.051-.29 2.12.626 2.121-.504 2.12.74 2.121-.285 2.155 1.277 2.121-.523 2.12.313 2.121-.114 2.12.482 2.156-.21 2.05.329 6.293-.4 2.12.468 2.121-.117 2.155.332 2.121.057 2.12.17h0" clip-path="url(#p11fff89d04)" style="fill:none;stroke:#d62728;stroke-width:1.5;stroke-linecap:square"/><g id="text_13" style="fill:#1f77b4" transform="matrix(.14 0 0 -.14 408.756 286.108)"><defs><path id="DejaVuSans-6a" d="M603 3500h575V-63q0-668-255-968-254-300-820-300h-219v487H38q328 0 446 152Q603-541 603-63v3563zm0 1363h575v-729H603v729z" transform="scale(.01563)"/><path id="DejaVuSans-71" d="M947 1747q0-634 261-995t717-361q456 0 718 361 263 361 263 995t-263 995q-262 361-718 361t-717-361q-261-361-261-995zM2906 525q-181-312-458-464-276-152-664-152-634 0-1033 506-398 507-398 1332t398 1331q399 506 1033 506 388 0 664-152 277-151 458-463v531h575v-4831h-575V525z" transform="scale(.01563)"/><path id="DejaVuSans-75" d="M544 1381v2119h575V1403q0-497 193-746 194-248 582-248 465 0 735 297 271 297 271 810v1984h575V0h-575v538q-209-319-486-474-276-155-642-155-603 0-916 375-312 375-312 1097zm1447 2203z" transform="scale(.01563)"/><path id="DejaVuSans-65" d="M3597 1894v-281H953q38-594 358-905t892-311q331 0 642 81t618 244V178Q3153 47 2828-22t-659-69q-838 0-1327 487-489 488-489 1320 0 859 464 1363 464 505 1252 505 706 0 1117-455 411-454 411-1235zm-575 169q-6 471-264 752-258 282-683 282-481 0-770-272t-333-766l2050 4z" transform="scale(.01563)"/><path id="DejaVuSans-72" d="M2631 2963q-97 56-211 82-114 27-251 27-488 0-749-317t-261-911V0H581v3500h578v-544q182 319 472 473 291 155 707 155 59 0 131-8 72-7 159-23l3-590z" transform="scale(.01563)"/><path id="DejaVuSans-79" d="M2059-325q-243-625-475-815-231-191-618-191H506v481h338q237 0 368 113 132 112 291 531l103 262L191 3500h609L1894 763l1094 2737h609L2059-325z" transform="scale(.01563)"/></defs><use xlink:href="#DejaVuSans-6a"/><use xlink:href="#DejaVuSans-71" x="27.783"/><use xlink:href="#DejaVuSans-75" x="91.26"/><use xlink:href="#DejaVuSans-65" x="154.639"/><use xlink:href="#DejaVuSans-72" x="216.162"/><use xlink:href="#DejaVuSans-79" x="257.275"/></g><g id="text_14" style="fill:#ff7f0e" transform="matrix(.14 0 0 -.14 408.756 300.108)"><defs><path id="DejaVuSans-61" d="M2194 1759q-697 0-966-159t-269-544q0-306 202-486 202-179 548-179 479 0 768 339t289 901v128h-572zm1147 238V0h-575v531q-197-318-491-470T1556-91q-537 0-855 302-317 302-317 808 0 590 395 890 396 300 1180 300h807v57q0 397-261 614t-733 217q-300 0-585-72-284-72-546-216v532q315 122 612 182 297 61 578 61 760 0 1135-394 375-393 375-1193z" transform="scale(.01563)"/><path id="DejaVuSans-78" d="M3513 3500 2247 1797 3578 0h-678L1881 1375 863 0H184l1360 1831L300 3500h678l928-1247 928 1247h679z" transform="scale(.01563)"/><path id="DejaVuSans-69" d="M603 3500h575V0H603v3500zm0 1363h575v-729H603v729z" transform="scale(.01563)"/><path id="DejaVuSans-6f" d="M1959 3097q-462 0-731-361t-269-989q0-628 267-989 268-361 733-361 460 0 728 362 269 363 269 988 0 622-269 986-268 364-728 364zm0 487q750 0 1178-488 429-487 429-1349 0-859-429-1349Q2709-91 1959-91q-753 0-1180 489-426 490-426 1349 0 862 426 1349 427 488 1180 488z" transform="scale(.01563)"/><path id="DejaVuSans-73" d="M2834 3397v-544q-243 125-506 187-262 63-544 63-428 0-642-131t-214-394q0-200 153-314t616-217l197-44q612-131 870-370t258-667q0-488-386-773Q2250-91 1575-91q-281 0-586 55T347 128v594q319-166 628-249 309-82 613-82 406 0 624 139 219 139 219 392 0 234-158 359-157 125-692 241l-200 47q-534 112-772 345-237 233-237 639 0 494 350 762 350 269 994 269 318 0 599-47 282-46 519-140z" transform="scale(.01563)"/></defs><use xlink:href="#DejaVuSans-61"/><use xlink:href="#DejaVuSans-78" x="61.279"/><use xlink:href="#DejaVuSans-69" x="120.459"/><use xlink:href="#DejaVuSans-6f" x="148.242"/><use xlink:href="#DejaVuSans-73" x="209.424"/></g><g id="text_15" style="fill:#2ca02c" transform="matrix(.14 0 0 -.14 408.756 314.108)"><defs><path id="DejaVuSans-6c" d="M603 4863h575V0H603v4863z" transform="scale(.01563)"/><path id="DejaVuSans-63" d="M3122 3366v-538q-244 135-489 202t-495 67q-560 0-870-355-309-354-309-995t309-996q310-354 870-354 250 0 495 67t489 202V134Q2881 22 2623-34q-257-57-548-57-791 0-1257 497-465 497-465 1341 0 856 470 1346 471 491 1290 491 265 0 518-55 253-54 491-163z" transform="scale(.01563)"/><path id="DejaVuSans-74" d="M1172 4494v-994h1184v-447H1172V1153q0-428 117-550t477-122h590V0h-590q-666 0-919 248-253 249-253 905v1900H172v447h422v994h578z" transform="scale(.01563)"/><path id="DejaVuSans-6e" d="M3513 2113V0h-575v2094q0 497-194 743-194 247-581 247-466 0-735-297-269-296-269-809V0H581v3500h578v-544q207 316 486 472 280 156 646 156 603 0 912-373 310-373 310-1098z" transform="scale(.01563)"/></defs><use xlink:href="#DejaVuSans-65"/><use xlink:href="#DejaVuSans-6c" x="61.523"/><use xlink:href="#DejaVuSans-65" x="89.307"/><use xlink:href="#DejaVuSans-63" x="150.83"/><use xlink:href="#DejaVuSans-74" x="205.811"/><use xlink:href="#DejaVuSans-72" x="245.02"/><use xlink:href="#DejaVuSans-6f" x="283.883"/><use xlink:href="#DejaVuSans-6e" x="345.064"/></g><g id="text_16" style="fill:#d62728" transform="matrix(.14 0 0 -.14 408.756 328.108)"><defs><path id="DejaVuSans-64" d="M2906 2969v1894h575V0h-575v525q-181-312-458-464-276-152-664-152-634 0-1033 506-398 507-398 1332t398 1331q399 506 1033 506 388 0 664-152 277-151 458-463zM947 1747q0-634 261-995t717-361q456 0 718 361 263 361 263 995t-263 995q-262 361-718 361t-717-361q-261-361-261-995z" transform="scale(.01563)"/><path id="DejaVuSans-2e" d="M684 794h660V0H684v794z" transform="scale(.01563)"/></defs><use xlink:href="#DejaVuSans-64"/><use xlink:href="#DejaVuSans-33" x="63.477"/><use xlink:href="#DejaVuSans-2e" x="127.1"/><use xlink:href="#DejaVuSans-6a" x="158.887"/><use xlink:href="#DejaVuSans-73" x="186.67"/></g><g id="text_17" style="fill:#9467bd" transform="matrix(.14 0 0 -.14 408.756 342.108)"><defs><path id="DejaVuSans-6d" d="M3328 2828q216 388 516 572t706 184q547 0 844-383 297-382 297-1088V0h-578v2094q0 503-179 746-178 244-543 244-447 0-707-297-259-296-259-809V0h-578v2094q0 506-178 748t-550 242q-441 0-701-298-259-298-259-808V0H581v3500h578v-544q197 322 472 475t653 153q382 0 649-194 267-193 395-562z" transform="scale(.01563)"/></defs><use xlink:href="#DejaVuSans-6d"/><use xlink:href="#DejaVuSans-6f" x="97.412"/><use xlink:href="#DejaVuSans-6d" x="158.594"/><use xlink:href="#DejaVuSans-65" x="256.006"/><use xlink:href="#DejaVuSans-6e" x="317.529"/><use xlink:href="#DejaVuSans-74" x="380.908"/><use xlink:href="#DejaVuSans-6a" x="420.117"/><use xlink:href="#DejaVuSans-73" x="447.9"/></g><g id="text_18" style="fill:#8c564b" transform="matrix(.14 0 0 -.14 408.756 356.108)"><defs><path id="DejaVuSans-68" d="M3513 2113V0h-575v2094q0 497-194 743-194 247-581 247-466 0-735-297-269-296-269-809V0H581v4863h578V2956q207 316 486 472 280 156 646 156 603 0 912-373 310-373 310-1098z" transform="scale(.01563)"/></defs><use xlink:href="#DejaVuSans-6c"/><use xlink:href="#DejaVuSans-6f" x="27.783"/><use xlink:href="#DejaVuSans-64" x="88.965"/><use xlink:href="#DejaVuSans-61" x="152.441"/><use xlink:href="#DejaVuSans-73" x="213.721"/><use xlink:href="#DejaVuSans-68" x="265.82"/></g><g id="text_19" style="fill:#b0b0b0" transform="matrix(.09716 0 0 -.09716 40.922 357.986)"><defs><path id="DejaVuSans-40" d="M2381 1678q0-447 222-702 222-254 610-254 384 0 604 256 221 256 221 700 0 438-225 695-225 258-607 258-378 0-602-256-223-256-223-697zm1703-934q-187-241-429-355t-564-114q-538 0-874 389t-336 1014q0 625 337 1015 338 391 873 391 322 0 565-117 244-117 428-354v409h447V722q457 69 714 417 258 349 258 902 0 334-99 628-98 294-298 544-325 409-792 626t-1017 217q-384 0-738-102-353-101-653-301-490-319-767-836-276-517-276-1120 0-497 179-932 180-434 521-765 328-325 759-495 431-171 922-171 403 0 792 136t714 389l281-347q-390-303-851-464t-936-161q-578 0-1091 205-512 205-912 595Q841 78 631 592q-209 514-209 1105 0 569 212 1084 213 516 607 907 403 396 931 607t1119 211q662 0 1229-272 568-271 952-771 234-307 357-666 124-359 124-744 0-822-497-1297T4084 263v481z" transform="scale(.01563)"/><path id="DejaVuSans-2f" d="M1625 4666h531L531-594H0l1625 5260z" transform="scale(.01563)"/><path id="DejaVuSans-6b" d="M581 4863h578V1991l1716 1509h734L1753 1863 3688 0h-750L1159 1709V0H581v4863z" transform="scale(.01563)"/><path id="DejaVuSans-76" d="M191 3500h609L1894 563l1094 2937h609L2284 0h-781L191 3500z" transform="scale(.01563)"/><path id="DejaVuSans-66" d="M2375 4863v-479h-550q-309 0-430-125-120-125-120-450v-309h947v-447h-947V0H697v3053H147v447h550v244q0 584 272 851 272 268 862 268h544z" transform="scale(.01563)"/><path id="DejaVuSans-77" d="M269 3500h575l719-2731 715 2731h678l719-2731 716 2731h575L4050 0h-678l-753 2869L1863 0h-679L269 3500z" transform="scale(.01563)"/><path id="DejaVuSans-2d" d="M313 2009h1684v-512H313v512z" transform="scale(.01563)"/><path id="DejaVuSans-7c" d="M1344 4891v-6400H813v6400h531z" transform="scale(.01563)"/><path id="DejaVuSans-4e" d="M628 4666h850L3547 763v3903h612V0h-850L1241 3903V0H628v4666z" transform="scale(.01563)"/><path id="DejaVuSans-53" d="M3425 4513v-616q-359 172-678 256-319 85-616 85-515 0-795-200t-280-569q0-310 186-468 186-157 705-254l381-78q706-135 1042-474t336-907q0-679-455-1029Q2797-91 1919-91q-331 0-705 75-373 75-773 222v650q384-215 753-325 369-109 725-109 540 0 834 212 294 213 294 607 0 343-211 537t-692 291l-385 75q-706 140-1022 440-315 300-315 835 0 619 436 975t1201 356q329 0 669-60 341-59 697-177z" transform="scale(.01563)"/><path id="DejaVuSans-f6" d="M1959 3097q-462 0-731-361t-269-989q0-628 267-989 268-361 733-361 460 0 728 362 269 363 269 988 0 622-269 986-268 364-728 364zm0 487q750 0 1178-488 429-487 429-1349 0-859-429-1349Q2709-91 1959-91q-753 0-1180 489-426 490-426 1349 0 862 426 1349 427 488 1180 488zm295 1266h634v-631h-634v631zm-1222 0h634v-631h-634v631z" transform="scale(.01563)"/><path id="DejaVuSans-43" d="M4122 4306v-665q-319 297-680 443-361 147-767 147-800 0-1225-489t-425-1414q0-922 425-1411t1225-489q406 0 767 147t680 444V359q-331-225-702-338-370-112-782-112-1060 0-1670 648-609 649-609 1771 0 1125 609 1773 610 649 1670 649 418 0 788-111 371-111 696-333z" transform="scale(.01563)"/><path id="DejaVuSans-42" d="M1259 2228V519h1013q509 0 754 211 246 211 246 645 0 438-246 645-245 208-754 208H1259zm0 1919V2741h935q462 0 688 173 227 174 227 530 0 353-227 528-226 175-688 175h-935zm-631 519h1613q722 0 1112-300 391-300 391-853 0-429-200-682t-588-315q466-100 724-418 258-317 258-792 0-625-425-966Q3088 0 2303 0H628v4666z" transform="scale(.01563)"/><path id="DejaVuSans-59" d="M-13 4666h679l1293-1919 1285 1919h678L2272 2222V0h-634v2222L-13 4666z" transform="scale(.01563)"/></defs><use xlink:href="#DejaVuSans-40"/><use xlink:href="#DejaVuSans-6e" x="100"/><use xlink:href="#DejaVuSans-73" x="163.379"/><use xlink:href="#DejaVuSans-63" x="215.479"/><use xlink:href="#DejaVuSans-68" x="270.459"/><use xlink:href="#DejaVuSans-6c" x="333.838"/><use xlink:href="#DejaVuSans-6f" x="361.621"/><use xlink:href="#DejaVuSans-65" x="422.803"/><use xlink:href="#DejaVuSans-20" x="484.326"/><use xlink:href="#DejaVuSans-2f" x="516.113"/><use xlink:href="#DejaVuSans-20" x="549.805"/><use xlink:href="#DejaVuSans-73" x="581.592"/><use xlink:href="#DejaVuSans-74" x="633.691"/><use xlink:href="#DejaVuSans-61" x="672.9"/><use xlink:href="#DejaVuSans-63" x="734.18"/><use xlink:href="#DejaVuSans-6b" x="789.16"/><use xlink:href="#DejaVuSans-6f" x="843.445"/><use xlink:href="#DejaVuSans-76" x="904.627"/><use xlink:href="#DejaVuSans-65" x="963.807"/><use xlink:href="#DejaVuSans-72" x="1025.33"/><use xlink:href="#DejaVuSans-66" x="1066.443"/><use xlink:href="#DejaVuSans-6c" x="1101.648"/><use xlink:href="#DejaVuSans-6f" x="1129.432"/><use xlink:href="#DejaVuSans-77" x="1190.613"/><use xlink:href="#DejaVuSans-2d" x="1272.4"/><use xlink:href="#DejaVuSans-74" x="1308.484"/><use xlink:href="#DejaVuSans-72" x="1347.693"/><use xlink:href="#DejaVuSans-65" x="1386.557"/><use xlink:href="#DejaVuSans-6e" x="1448.08"/><use xlink:href="#DejaVuSans-64" x="1511.459"/><use xlink:href="#DejaVuSans-73" x="1574.936"/><use xlink:href="#DejaVuSans-20" x="1627.035"/><use xlink:href="#DejaVuSans-7c" x="1658.822"/><use xlink:href="#DejaVuSans-20" x="1692.514"/><use xlink:href="#DejaVuSans-4e" x="1724.301"/><use xlink:href="#DejaVuSans-69" x="1799.105"/><use xlink:href="#DejaVuSans-63" x="1826.889"/><use xlink:href="#DejaVuSans-6f" x="1881.869"/><use xlink:href="#DejaVuSans-20" x="1943.051"/><use xlink:href="#DejaVuSans-53" x="1974.838"/><use xlink:href="#DejaVuSans-63" x="2038.314"/><use xlink:href="#DejaVuSans-68" x="2093.295"/><use xlink:href="#DejaVuSans-6c" x="2156.674"/><use xlink:href="#DejaVuSans-f6" x="2184.457"/><use xlink:href="#DejaVuSans-6d" x="2245.639"/><use xlink:href="#DejaVuSans-65" x="2343.051"/><use xlink:href="#DejaVuSans-72" x="2404.574"/><use xlink:href="#DejaVuSans-20" x="2445.688"/><use xlink:href="#DejaVuSans-7c" x="2477.475"/><use xlink:href="#DejaVuSans-20" x="2511.166"/><use xlink:href="#DejaVuSans-43" x="2542.953"/><use xlink:href="#DejaVuSans-43" x="2612.777"/><use xlink:href="#DejaVuSans-20" x="2682.602"/><use xlink:href="#DejaVuSans-42" x="2714.389"/><use xlink:href="#DejaVuSans-59" x="2777.492"/></g><g id="text_20" style="fill:#b0b0b0" transform="matrix(.14 0 0 -.14 63.337 17.838)"><defs><path id="DejaVuSans-44" d="M1259 4147V519h763q966 0 1414 437 448 438 448 1382 0 937-448 1373t-1414 436h-763zm-631 519h1297q1356 0 1990-564 635-564 635-1764 0-1207-638-1773Q3275 0 1925 0H628v4666z" transform="scale(.01563)"/><path id="DejaVuSans-62" d="M3116 1747q0 634-261 995t-717 361q-457 0-718-361t-261-995q0-634 261-995t718-361q456 0 717 361t261 995zM1159 2969q182 312 458 463 277 152 661 152 638 0 1036-506 399-506 399-1331T3314 415Q2916-91 2278-91q-384 0-661 152-276 152-458 464V0H581v4863h578V2969z" transform="scale(.01563)"/><path id="DejaVuSans-4f" d="M2522 4238q-688 0-1093-513-404-512-404-1397 0-881 404-1394 405-512 1093-512 687 0 1089 512 402 513 402 1394 0 885-402 1397-402 513-1089 513zm0 512q981 0 1568-658 588-658 588-1764 0-1103-588-1761Q3503-91 2522-91q-984 0-1574 656-589 657-589 1763t589 1764q590 658 1574 658z" transform="scale(.01563)"/></defs><use xlink:href="#DejaVuSans-44"/><use xlink:href="#DejaVuSans-61" x="77.002"/><use xlink:href="#DejaVuSans-69" x="138.281"/><use xlink:href="#DejaVuSans-6c" x="166.064"/><use xlink:href="#DejaVuSans-79" x="193.848"/><use xlink:href="#DejaVuSans-20" x="253.027"/><use xlink:href="#DejaVuSans-6e" x="284.814"/><use xlink:href="#DejaVuSans-75" x="348.193"/><use xlink:href="#DejaVuSans-6d" x="411.572"/><use xlink:href="#DejaVuSans-62" x="508.984"/><use xlink:href="#DejaVuSans-65" x="572.461"/><use xlink:href="#DejaVuSans-72" x="633.984"/><use xlink:href="#DejaVuSans-20" x="675.098"/><use xlink:href="#DejaVuSans-6f" x="706.885"/><use xlink:href="#DejaVuSans-66" x="768.066"/><use xlink:href="#DejaVuSans-20" x="803.271"/><use xlink:href="#DejaVuSans-71" x="835.059"/><use xlink:href="#DejaVuSans-75" x="898.535"/><use xlink:href="#DejaVuSans-65" x="961.914"/><use xlink:href="#DejaVuSans-73" x="1023.438"/><use xlink:href="#DejaVuSans-74" x="1075.537"/><use xlink:href="#DejaVuSans-69" x="1114.746"/><use xlink:href="#DejaVuSans-6f" x="1142.529"/><use xlink:href="#DejaVuSans-6e" x="1203.711"/><use xlink:href="#DejaVuSans-73" x="1267.09"/><use xlink:href="#DejaVuSans-20" x="1319.189"/><use xlink:href="#DejaVuSans-6f" x="1350.977"/><use xlink:href="#DejaVuSans-6e" x="1412.158"/><use xlink:href="#DejaVuSans-20" x="1475.537"/><use xlink:href="#DejaVuSans-53" x="1507.324"/><use xlink:href="#DejaVuSans-74" x="1570.801"/><use xlink:href="#DejaVuSans-61" x="1610.01"/><use xlink:href="#DejaVuSans-63" x="1671.289"/><use xlink:href="#DejaVuSans-6b" x="1726.27"/><use xlink:href="#DejaVuSans-4f" x="1784.18"/><use xlink:href="#DejaVuSans-76" x="1862.891"/><use xlink:href="#DejaVuSans-65" x="1922.07"/><use xlink:href="#DejaVuSans-72" x="1983.594"/><use xlink:href="#DejaVuSans-66" x="2024.707"/><use xlink:href="#DejaVuSans-6c" x="2059.912"/><use xlink:href="#DejaVuSans-6f" x="2087.695"/><use xlink:href="#DejaVuSans-77" x="2148.877"/></g><path id="line2d_21" d="m182.13 323.95 2.12-.035 2.12.035 2.121-.018h2.156l2.12.018 2.12-.018 2.121-.055 2.12-.015 2.156-.017 2.051.085 2.051-.12 2.12-.005 2.121-.345 2.12.092 2.121-.302 2.156.192 2.12-.18 2.12-.117 2.121-.19 2.12.155 2.156-.298 2.086-.172 2.086-.493 2.12.085 2.12-.102 2.121-.278 2.12-.055 2.156-.7 2.12.412 2.121.201 2.12-.58 2.121.388 2.156-.438 2.05.739 2.052-.651 2.12.07 2.12-.123 2.121-.673 2.12.096 2.156.525 2.12.012 2.121-.117 2.12.261 2.121.159 2.156-.14 2.05-.155 2.052-.038 2.12.048 2.12-.223 2.121-.32 2.12.303 2.156.157 2.12-.351 2.121.106 2.12.201 2.121-.236 2.155.543 2.052-.617 2.05-.626 2.121-.13 2.12-.85 2.121.669 2.12-.809 2.156.875 2.12.096 2.121-.166 2.12-.213 2.121.16 2.155-1.014 2.086.55 2.086-.55 2.12-1.37 2.121 1.125 2.12.755 2.121-1.28 2.155.14 2.121.164 2.12.606 2.121.316 2.12-.089 2.156-.7 2.051.385 2.051-.35 2.12.392 2.121.01 2.12.623 2.121-.027 2.155.7 2.121-.04 2.12-.153 2.121.37 2.12.085 2.156-.56 2.05.558 2.052-.208 2.12-.219 2.121.132 2.12.447 2.121.305 2.155.07 2.121-.104 2.12.35" clip-path="url(#p11fff89d04)" style="fill:none;stroke:#2ca02c;stroke-width:1.5;stroke-linecap:square"/><path id="line2d_22" d="m211.748 323.95 2.12-.035 2.156.035H222.385l2.12-.07 2.156.052 2.086-.038 2.086-.067 2.12-.004 2.12-.083 2.121-.007 2.12.042 2.156-.228 2.12.095 2.121-.077 2.12.06 2.121-.463 2.156-.437 2.05.043 2.052-.06 2.12-.114 2.12-.412 2.121-.058 2.12-.274 2.156-.315 2.12.3 2.121-.3 2.12-.297 2.121-.385 2.156-.088 2.05.201 2.052-.236 2.12.037 2.12-.527 2.121.184 2.12-.709 2.156.175 2.12-.244 2.121-.228 2.12-.043 2.121 1.18 2.155-1.015 2.052-.53 2.05-.45 2.121.255 2.12-.832 2.121.542 2.12-1.102 2.156.245 2.12.224 2.121-1.292 2.12-.39 2.121 1.178 2.155-.665 2.086-1.228 2.086.545 2.12-4.313 2.121.306 2.12 1.628 2.121-.665 2.155 1.225 2.121.58 2.12-.143 2.121.034 2.12.509 2.156-.333 2.051-.644 2.051-.528 2.12.417 2.121.72 2.12-.539 2.121 1.449 2.155-1.277 2.121.678 2.12-.1 2.121.172 2.12 1.034 2.156-.874 2.05-.745 2.052.045 2.12.54 2.121-.19 2.12.715 2.121-.558 2.155-.665 2.121 2.073 2.12-.935" clip-path="url(#p11fff89d04)" style="fill:none;stroke:#ff7f0e;stroke-width:1.5;stroke-linecap:square"/><path id="line2d_23" d="m40.922 320.797 1.634-1.38 2.12-.24 2.121.17 2.156-2.1 2.05-3.1 2.052-.224 2.12-2.685 2.12-3.947 2.121-4.425 2.12-3.257 2.156-4.112 2.12-1.292 4.242-3.471 2.12-.206 2.156-7.63 2.05-4.379 2.052-5.787 2.12 1.113 2.12 1.267 2.121-7.053 2.12-5.984 2.156-4.794 2.12.001 2.121.349 2.12-7.581 2.121-.766 4.207-24.177 2.05-11.888 2.121-2.425 2.12-3.227 2.121-4.223 2.12-7.763 2.156-8.54 2.12 6.575 2.121 3.662 2.12-10.316 2.121 5.89 2.156-14.42 2.085-22.774 2.086 4.576 2.12-.015 2.121-8.314 2.12-.546 2.121-6.716 2.156-3.797 2.12 14.744 2.12-12.592 2.121-3.898 2.12 20.137 2.156-30.518 2.051-16.752 2.051-5.978 2.12-3.704 2.121 13.065 2.12-1.818 2.121-15.103 2.156-.63 2.12-10.413 2.12-6.77 2.121 16.77 2.12 13.782 2.156-30.517 2.051-22.813 2.051 12.296 2.12 5.788 2.121 30.802 2.12 11.745 2.121-7.86 2.156 15.73 2.12-.873 2.12 7.558 2.121 4.774 2.12 21.526 2.156-10.762 2.051-20.631 2.051-1.47 2.12-4.195 2.121 1.606 2.12-9.11 2.121 3.598 2.156 12.179 2.12 1.256 2.12 5.113 4.242 18.146 2.155-9.781 2.086-14.567 2.086 10.14 2.12 1.002 2.12 7.817 2.121 8.728 2.12.914 2.156-1.523 2.12 11.187 2.121 9.741 2.12-6.215 2.121 8.63 2.156-5.057 2.05-14.992 2.052-1.684 2.12 17.533 2.12-2.082 2.121 2.19 2.12 8.817 2.156 1.102 2.12 14.112 2.121 3.282 2.12-1.456 2.121 21.929 2.156-7.174 2.05 5.116 2.052 3.475 2.12 7.014 4.241 9.059 2.12-3.351 2.156-7.7 2.12 10.78 2.121-1.33 2.12 4.855 2.121 13.273 2.155-7.35 2.052-3.56 2.05.446 2.121.681 2.12 6.616 2.121 4.884 2.12-5.357 2.156 10.762 2.12-1.807 2.121-.066 2.12-.313 2.121 7.54 2.155-5.197 2.086-4.474 2.086-.915 2.12-20.479 2.121 6.742 2.12 3.402 2.121 2.775 2.155 11.48 2.121 1.44 4.241 5.714 2.12 6.407 2.156-7.227 2.051.718 2.051.244 2.12 3.294 2.121 2.673 2.12-.395 2.121 2.845 2.155 1.697 2.121 2.618 2.12 3.717 2.121.966 2.12 2.166 2.156-.997 2.05-2.109 2.052.254 2.12 3.833 2.121 1.364 2.12 3.626 2.121-1.351 2.155-.315 2.121 1.286 2.12 1.094h0" clip-path="url(#p11fff89d04)" style="fill:none;stroke:#1f77b4;stroke-width:1.5;stroke-linecap:square"/></g></g><defs><clipPath id="p11fff89d04"><path d="M40.922 57.838h357.12V323.95H40.922z"/></clipPath></defs></svg>