<svg xmlns:xlink="http://www.w3.org/1999/xlink" width="647.939" height="489.969" viewBox="0 0 485.954 367.477" xmlns="http://www.w3.org/2000/svg"><defs><style>*{stroke-linejoin:round;stroke-linecap:butt}</style></defs><g id="figure_1"><path d="M0 367.477h485.954V0H0v367.477z" style="fill:none" id="patch_1"/><g id="axes_1"><path d="M40.922 323.95h357.12V57.838H40.923V323.95z" style="fill:none" id="patch_2"/><g id="matplotlib.axis_1"><g id="xtick_1"><g id="line2d_1"><defs><path id="mfc41115321" d="M0 0v3.5" style="stroke:#b0b0b0;stroke-width:.4"/></defs><use xlink:href="#mfc41115321" x="73.445" y="323.95" style="fill:#b0b0b0;stroke:#b0b0b0;stroke-width:.4"/></g><g style="fill:#b0b0b0" transform="matrix(.14 0 0 -.14 55.63 341.588)" id="text_1"><defs><path id="DejaVuSans-32" d="M1228 531h2203V0H469v531q359 372 979 998 621 627 780 809 303 340 423 576 121 236 121 464 0 372-261 606-261 235-680 235-297 0-627-103-329-103-704-313v638q381 153 712 231 332 78 607 78 725 0 1156-363 431-362 431-968 0-288-108-546-107-257-392-607-78-91-497-524-418-433-1181-1211z" transform="scale(.01563)"/><path id="DejaVuSans-30" d="M2034 4250q-487 0-733-480-245-479-245-1442 0-959 245-1439 246-480 733-480 491 0 736 480 246 480 246 1439 0 963-246 1442-245 480-736 480zm0 500q785 0 1199-621 414-620 414-1801 0-1178-414-1799Q2819-91 2034-91q-784 0-1198 620-414 621-414 1799 0 1181 414 1801 414 621 1198 621z" transform="scale(.01563)"/><path id="DejaVuSans-31" d="M794 531h1031v3560L703 3866v575l1116 225h631V531h1031V0H794v531z" transform="scale(.01563)"/></defs><use xlink:href="#DejaVuSans-32"/><use xlink:href="#DejaVuSans-30" x="63.623"/><use xlink:href="#DejaVuSans-31" x="127.246"/><use xlink:href="#DejaVuSans-30" x="190.869"/></g></g><g id="xtick_2"><use xlink:href="#mfc41115321" x="124.502" y="323.95" style="fill:#b0b0b0;stroke:#b0b0b0;stroke-width:.4" id="line2d_2"/><g style="fill:#b0b0b0" transform="matrix(.14 0 0 -.14 106.687 341.588)" id="text_2"><use xlink:href="#DejaVuSans-32"/><use xlink:href="#DejaVuSans-30" x="63.623"/><use xlink:href="#DejaVuSans-31" x="127.246"/><use xlink:href="#DejaVuSans-32" x="190.869"/></g></g><g id="xtick_3"><use xlink:href="#mfc41115321" x="175.629" y="323.95" style="fill:#b0b0b0;stroke:#b0b0b0;stroke-width:.4" id="line2d_3"/><g style="fill:#b0b0b0" transform="matrix(.14 0 0 -.14 157.814 341.588)" id="text_3"><defs><path id="DejaVuSans-34" d="M2419 4116 825 1625h1594v2491zm-166 550h794V1625h666v-525h-666V0h-628v1100H313v609l1940 2957z" transform="scale(.01563)"/></defs><use xlink:href="#DejaVuSans-32"/><use xlink:href="#DejaVuSans-30" x="63.623"/><use xlink:href="#DejaVuSans-31" x="127.246"/><use xlink:href="#DejaVuSans-34" x="190.869"/></g></g><g id="xtick_4"><use xlink:href="#mfc41115321" x="226.686" y="323.95" style="fill:#b0b0b0;stroke:#b0b0b0;stroke-width:.4" id="line2d_4"/><g style="fill:#b0b0b0" transform="matrix(.14 0 0 -.14 208.871 341.588)" id="text_4"><defs><path id="DejaVuSans-36" d="M2113 2584q-425 0-674-291-248-290-248-796 0-503 248-796 249-292 674-292t673 292q248 293 248 796 0 506-248 796-248 291-673 291zm1253 1979v-575q-238 112-480 171-242 60-480 60-625 0-955-422-329-422-376-1275 184 272 462 417 279 145 613 145 703 0 1111-427 408-426 408-1160 0-719-425-1154Q2819-91 2113-91q-810 0-1238 620-428 621-428 1799 0 1106 525 1764t1409 658q238 0 480-47t505-140z" transform="scale(.01563)"/></defs><use xlink:href="#DejaVuSans-32"/><use xlink:href="#DejaVuSans-30" x="63.623"/><use xlink:href="#DejaVuSans-31" x="127.246"/><use xlink:href="#DejaVuSans-36" x="190.869"/></g></g><g id="xtick_5"><use xlink:href="#mfc41115321" x="277.813" y="323.95" style="fill:#b0b0b0;stroke:#b0b0b0;stroke-width:.4" id="line2d_5"/><g style="fill:#b0b0b0" transform="matrix(.14 0 0 -.14 259.998 341.588)" id="text_5"><defs><path id="DejaVuSans-38" d="M2034 2216q-450 0-708-241-257-241-257-662 0-422 257-663 258-241 708-241t709 242q260 243 260 662 0 421-258 662-257 241-711 241zm-631 268q-406 100-633 378-226 279-226 679 0 559 398 884 399 325 1092 325 697 0 1094-325t397-884q0-400-227-679-226-278-629-378 456-106 710-416 255-309 255-755 0-679-414-1042Q2806-91 2034-91q-771 0-1186 362-414 363-414 1042 0 446 256 755 257 310 713 416zm-231 997q0-362 226-565 227-203 636-203 407 0 636 203 230 203 230 565 0 363-230 566-229 203-636 203-409 0-636-203-226-203-226-566z" transform="scale(.01563)"/></defs><use xlink:href="#DejaVuSans-32"/><use xlink:href="#DejaVuSans-30" x="63.623"/><use xlink:href="#DejaVuSans-31" x="127.246"/><use xlink:href="#DejaVuSans-38" x="190.869"/></g></g><g id="xtick_6"><use xlink:href="#mfc41115321" x="328.871" y="323.95" style="fill:#b0b0b0;stroke:#b0b0b0;stroke-width:.4" id="line2d_6"/><g style="fill:#b0b0b0" transform="matrix(.14 0 0 -.14 311.056 341.588)" id="text_6"><use xlink:href="#DejaVuSans-32"/><use xlink:href="#DejaVuSans-30" x="63.623"/><use xlink:href="#DejaVuSans-32" x="127.246"/><use xlink:href="#DejaVuSans-30" x="190.869"/></g></g><g id="xtick_7"><use xlink:href="#mfc41115321" x="379.998" y="323.95" style="fill:#b0b0b0;stroke:#b0b0b0;stroke-width:.4" id="line2d_7"/><g style="fill:#b0b0b0" transform="matrix(.14 0 0 -.14 362.183 341.588)" id="text_7"><use xlink:href="#DejaVuSans-32"/><use xlink:href="#DejaVuSans-30" x="63.623"/><use xlink:href="#DejaVuSans-32" x="127.246"/><use xlink:href="#DejaVuSans-32" x="190.869"/></g></g></g><g id="matplotlib.axis_2"><g id="ytick_1"><path d="M40.922 323.95h357.12" clip-path="url(#p68110f5b6a)" style="fill:none;stroke:#b0b0b0;stroke-width:.3;stroke-linecap:square" id="line2d_8"/><g id="line2d_9"><defs><path id="m00cc928518" d="M0 0h-3.5" style="stroke:#b0b0b0;stroke-width:.3"/></defs><use xlink:href="#m00cc928518" x="40.922" y="323.95" style="fill:#b0b0b0;stroke:#b0b0b0;stroke-width:.3"/></g><use xlink:href="#DejaVuSans-30" style="fill:#b0b0b0" transform="matrix(.14 0 0 -.14 25.015 329.269)" id="text_8"/></g><g id="ytick_2"><path d="M40.922 269.705h357.12" clip-path="url(#p68110f5b6a)" style="fill:none;stroke:#b0b0b0;stroke-width:.3;stroke-linecap:square" id="line2d_10"/><use xlink:href="#m00cc928518" x="40.922" y="269.705" style="fill:#b0b0b0;stroke:#b0b0b0;stroke-width:.3" id="line2d_11"/><g style="fill:#b0b0b0" transform="matrix(.14 0 0 -.14 7.2 275.023)" id="text_9"><use xlink:href="#DejaVuSans-31"/><use xlink:href="#DejaVuSans-30" x="63.623"/><use xlink:href="#DejaVuSans-30" x="127.246"/></g></g><g id="ytick_3"><path d="M40.922 215.46h357.12" clip-path="url(#p68110f5b6a)" style="fill:none;stroke:#b0b0b0;stroke-width:.3;stroke-linecap:square" id="line2d_12"/><use xlink:href="#m00cc928518" x="40.922" y="215.459" style="fill:#b0b0b0;stroke:#b0b0b0;stroke-width:.3" id="line2d_13"/><g style="fill:#b0b0b0" transform="matrix(.14 0 0 -.14 7.2 220.778)" id="text_10"><use xlink:href="#DejaVuSans-32"/><use xlink:href="#DejaVuSans-30" x="63.623"/><use xlink:href="#DejaVuSans-30" x="127.246"/></g></g><g id="ytick_4"><path d="M40.922 161.214h357.12" clip-path="url(#p68110f5b6a)" style="fill:none;stroke:#b0b0b0;stroke-width:.3;stroke-linecap:square" id="line2d_14"/><use xlink:href="#m00cc928518" x="40.922" y="161.214" style="fill:#b0b0b0;stroke:#b0b0b0;stroke-width:.3" id="line2d_15"/><g style="fill:#b0b0b0" transform="matrix(.14 0 0 -.14 7.2 166.533)" id="text_11"><defs><path id="DejaVuSans-33" d="M2597 2516q453-97 707-404 255-306 255-756 0-690-475-1069Q2609-91 1734-91q-293 0-604 58T488 141v609q262-153 574-231 313-78 654-78 593 0 904 234t311 681q0 413-289 645-289 233-804 233h-544v519h569q465 0 712 186t247 536q0 359-255 551-254 193-729 193-260 0-557-57-297-56-653-174v562q360 100 674 150t592 50q719 0 1137-327 419-326 419-882 0-388-222-655t-631-370z" transform="scale(.01563)"/></defs><use xlink:href="#DejaVuSans-33"/><use xlink:href="#DejaVuSans-30" x="63.623"/><use xlink:href="#DejaVuSans-30" x="127.246"/></g></g><g id="ytick_5"><path d="M40.922 106.969h357.12" clip-path="url(#p68110f5b6a)" style="fill:none;stroke:#b0b0b0;stroke-width:.3;stroke-linecap:square" id="line2d_16"/><use xlink:href="#m00cc928518" x="40.922" y="106.969" style="fill:#b0b0b0;stroke:#b0b0b0;stroke-width:.3" id="line2d_17"/><g style="fill:#b0b0b0" transform="matrix(.14 0 0 -.14 7.2 112.287)" id="text_12"><use xlink:href="#DejaVuSans-34"/><use xlink:href="#DejaVuSans-30" x="63.623"/><use xlink:href="#DejaVuSans-30" x="127.246"/></g></g></g><path d="M121.285 323.95h12.764l25.529-.018 2.133-.109 8.568.004 4.266-.017 2.168-.333 4.127.228 2.133-.207 2.133.137 2.134.026 2.133-.096 2.168.052 2.133-.246 2.133.159 2.134-.086 4.301-.02 2.063-.423 2.064-.049 2.133.13 4.266-.434 2.133-.046 2.169.438 2.133-.32 4.266.47 2.133-.29 4.267-.952 2.098.584 2.133-.408 2.133.233 2.134-.161 2.133.336 2.168-.192 2.133.109 4.267-.271 4.301.354 2.063-.461 2.064-.046 2.133.17 4.266-.198 2.133.168 4.302.103 2.133.037 2.133-.38 2.133.59 2.169.035 2.063-.286 2.063-.624 2.133.592 2.134.458 2.133-.042 2.133.094 4.301-.076 2.134-.501 2.133.284 2.133-.092 2.168.123 2.063-.138 2.064.068 2.133.274 2.133-.327 2.133.363 2.134-.188 2.168.368 2.133-.216 4.266.109 4.302.23 2.098.01 2.098-.536 2.133-.138 2.134.19h4.266l2.168.386 4.267-.088 6.434.315 2.063-.49 2.064.193 2.133-.18 2.133.407 2.133-.227 2.134.437 2.168-.157 16.96.118 2.134-.258 2.133.294 2.133.073 4.302-.2h0" clip-path="url(#p68110f5b6a)" style="fill:none;stroke:#8c564b;stroke-width:1.5;stroke-linecap:square" id="line2d_18"/><path d="m106.318 323.95 14.967-.018 10.631-.018 2.133-.07 4.267.053 14.932-.14 2.063.14 2.134-.146 2.133.006 4.266-.192 4.302-.031 6.4.03 2.167-.297 2.064.082 2.063-.1 2.133.14 2.133.018 2.134-.199 2.133.112 2.168-.175 2.133-.009 4.267-.235 2.133.191 6.295-.157 2.133-.305 2.133.34 2.133-.16 2.133.02 2.169.175 2.133-.158 2.133-.28 2.133-.028 2.133.15 2.169-.104 2.098.168 4.231-.34 2.133.207 2.134.046 2.133-.256 2.168-.053 2.133.092 4.267-.253 2.133.599 2.168-.49 2.063-.254 2.064.131 2.133-.149 2.133.342 2.133.02 2.133-.423 2.169.28 2.133-.11 2.133.163 2.133-.218 2.133.673 2.169-.49 2.063.11 2.063-.145 2.133.16 2.134-.143 2.133-.02 2.133.125 2.168-.227 4.267.245 4.266-.14 2.168.21 2.063-.064 2.064.344 2.133-.62 2.133.235 2.133.09 2.134-.16 2.168.612 2.133-.288 2.133-.412 2.133-.185 2.134.798 2.168-.263 2.098-.434 2.098.242 4.267-.84 2.133.551 2.133-.288 2.168-.035 2.133.36 2.134.13 2.133.43 2.133.252 2.168-.193 2.063-.346 8.463.594 2.134-.318 2.168.053 4.266-.245 2.133.763 2.134-.238 4.231-.163 2.063.285 2.133-.263 4.267.488 2.133-.295 2.168-.017 2.134.113h0" clip-path="url(#p68110f5b6a)" style="fill:none;stroke:#9467bd;stroke-width:1.5;stroke-linecap:square" id="line2d_19"/><path d="m104.184 323.95 17.101-.235 6.4-.083 4.231-.713 2.133-1.139 2.133.362 2.134-.554 2.168.07 2.133-.131 2.133-.587 2.133-1.276 2.134 1.154 4.231-1.75 4.197-1.013 2.133.61 2.133-1.677 2.133-.038 2.168.683 2.134.278 2.133-.488 2.133-1.068 2.133-.262 2.168-.122 2.064-1.766 4.196.198 2.133 1.06 2.134.53 2.133-.74 2.168 1.855 2.133.26 2.133-.155 2.134-.876 2.133 1.05 2.168-.314 2.063-.679 2.064-.126 2.133-1.25 2.133.533 4.266-1.103 2.169 1.33 4.266-.052 2.133-.727 2.133 1.111 2.169-1.417 2.098.11 2.098-.495 2.133.438 4.267-1.012 2.133.854 2.168-.087 2.133 1.62 2.133-1.043 2.134-.06 2.133 1.337 4.231-1.123 2.064-.591 2.133 1.606 2.133-.591 2.133.61 2.133 1.034 2.169-.385 2.133.724 2.133-.391 2.133-.187 2.133 1.832 2.169-1.155 2.063.07 2.063.262 2.133-.196 2.134.599 2.133.197 2.133-.425 2.168.298 2.133-.416 4.267.453 2.133 1.24 2.168.105 2.063-.45 2.064.275 2.133-.501 2.133-.776 2.133.613 4.302.49 2.133-.4 2.133.487 2.133-.414 2.134 1.429 8.497-3.509 2.134.289 2.133 1.339 2.133.27 2.168.666 2.133-.286 2.134-.782 2.133 1.018 2.133.855 2.168-.228 2.063-.584 2.064-.29 2.133.626 2.133-.504 2.133.74 2.134-.285 2.168 1.277 2.133-.523 2.133.313 2.133-.114 2.134.482 2.168-.21 2.063.329 6.33-.4 2.133.468 2.133-.117 2.168.332 2.134.057h0" clip-path="url(#p68110f5b6a)" style="fill:none;stroke:#d62728;stroke-width:1.5;stroke-linecap:square" id="line2d_20"/><g style="fill:#1f77b4" transform="matrix(.14 0 0 -.14 408.756 285.969)" id="text_13"><defs><path id="DejaVuSans-6a" d="M603 3500h575V-63q0-668-255-968-254-300-820-300h-219v487H38q328 0 446 152Q603-541 603-63v3563zm0 1363h575v-729H603v729z" transform="scale(.01563)"/><path id="DejaVuSans-71" d="M947 1747q0-634 261-995t717-361q456 0 718 361 263 361 263 995t-263 995q-262 361-718 361t-717-361q-261-361-261-995zM2906 525q-181-312-458-464-276-152-664-152-634 0-1033 506-398 507-398 1332t398 1331q399 506 1033 506 388 0 664-152 277-151 458-463v531h575v-4831h-575V525z" transform="scale(.01563)"/><path id="DejaVuSans-75" d="M544 1381v2119h575V1403q0-497 193-746 194-248 582-248 465 0 735 297 271 297 271 810v1984h575V0h-575v538q-209-319-486-474-276-155-642-155-603 0-916 375-312 375-312 1097zm1447 2203z" transform="scale(.01563)"/><path id="DejaVuSans-65" d="M3597 1894v-281H953q38-594 358-905t892-311q331 0 642 81t618 244V178Q3153 47 2828-22t-659-69q-838 0-1327 487-489 488-489 1320 0 859 464 1363 464 505 1252 505 706 0 1117-455 411-454 411-1235zm-575 169q-6 471-264 752-258 282-683 282-481 0-770-272t-333-766l2050 4z" transform="scale(.01563)"/><path id="DejaVuSans-72" d="M2631 2963q-97 56-211 82-114 27-251 27-488 0-749-317t-261-911V0H581v3500h578v-544q182 319 472 473 291 155 707 155 59 0 131-8 72-7 159-23l3-590z" transform="scale(.01563)"/><path id="DejaVuSans-79" d="M2059-325q-243-625-475-815-231-191-618-191H506v481h338q237 0 368 113 132 112 291 531l103 262L191 3500h609L1894 763l1094 2737h609L2059-325z" transform="scale(.01563)"/></defs><use xlink:href="#DejaVuSans-6a"/><use xlink:href="#DejaVuSans-71" x="27.783"/><use xlink:href="#DejaVuSans-75" x="91.26"/><use xlink:href="#DejaVuSans-65" x="154.639"/><use xlink:href="#DejaVuSans-72" x="216.162"/><use xlink:href="#DejaVuSans-79" x="257.275"/></g><g style="fill:#ff7f0e" transform="matrix(.14 0 0 -.14 408.756 299.969)" id="text_14"><defs><path id="DejaVuSans-61" d="M2194 1759q-697 0-966-159t-269-544q0-306 202-486 202-179 548-179 479 0 768 339t289 901v128h-572zm1147 238V0h-575v531q-197-318-491-470T1556-91q-537 0-855 302-317 302-317 808 0 590 395 890 396 300 1180 300h807v57q0 397-261 614t-733 217q-300 0-585-72-284-72-546-216v532q315 122 612 182 297 61 578 61 760 0 1135-394 375-393 375-1193z" transform="scale(.01563)"/><path id="DejaVuSans-78" d="M3513 3500 2247 1797 3578 0h-678L1881 1375 863 0H184l1360 1831L300 3500h678l928-1247 928 1247h679z" transform="scale(.01563)"/><path id="DejaVuSans-69" d="M603 3500h575V0H603v3500zm0 1363h575v-729H603v729z" transform="scale(.01563)"/><path id="DejaVuSans-6f" d="M1959 3097q-462 0-731-361t-269-989q0-628 267-989 268-361 733-361 460 0 728 362 269 363 269 988 0 622-269 986-268 364-728 364zm0 487q750 0 1178-488 429-487 429-1349 0-859-429-1349Q2709-91 1959-91q-753 0-1180 489-426 490-426 1349 0 862 426 1349 427 488 1180 488z" transform="scale(.01563)"/><path id="DejaVuSans-73" d="M2834 3397v-544q-243 125-506 187-262 63-544 63-428 0-642-131t-214-394q0-200 153-314t616-217l197-44q612-131 870-370t258-667q0-488-386-773Q2250-91 1575-91q-281 0-586 55T347 128v594q319-166 628-249 309-82 613-82 406 0 624 139 219 139 219 392 0 234-158 359-157 125-692 241l-200 47q-534 112-772 345-237 233-237 639 0 494 350 762 350 269 994 269 318 0 599-47 282-46 519-140z" transform="scale(.01563)"/></defs><use xlink:href="#DejaVuSans-61"/><use xlink:href="#DejaVuSans-78" x="61.279"/><use xlink:href="#DejaVuSans-69" x="120.459"/><use xlink:href="#DejaVuSans-6f" x="148.242"/><use xlink:href="#DejaVuSans-73" x="209.424"/></g><g style="fill:#2ca02c" transform="matrix(.14 0 0 -.14 408.756 313.969)" id="text_15"><defs><path id="DejaVuSans-6c" d="M603 4863h575V0H603v4863z" transform="scale(.01563)"/><path id="DejaVuSans-63" d="M3122 3366v-538q-244 135-489 202t-495 67q-560 0-870-355-309-354-309-995t309-996q310-354 870-354 250 0 495 67t489 202V134Q2881 22 2623-34q-257-57-548-57-791 0-1257 497-465 497-465 1341 0 856 470 1346 471 491 1290 491 265 0 518-55 253-54 491-163z" transform="scale(.01563)"/><path id="DejaVuSans-74" d="M1172 4494v-994h1184v-447H1172V1153q0-428 117-550t477-122h590V0h-590q-666 0-919 248-253 249-253 905v1900H172v447h422v994h578z" transform="scale(.01563)"/><path id="DejaVuSans-6e" d="M3513 2113V0h-575v2094q0 497-194 743-194 247-581 247-466 0-735-297-269-296-269-809V0H581v3500h578v-544q207 316 486 472 280 156 646 156 603 0 912-373 310-373 310-1098z" transform="scale(.01563)"/></defs><use xlink:href="#DejaVuSans-65"/><use xlink:href="#DejaVuSans-6c" x="61.523"/><use xlink:href="#DejaVuSans-65" x="89.307"/><use xlink:href="#DejaVuSans-63" x="150.83"/><use xlink:href="#DejaVuSans-74" x="205.811"/><use xlink:href="#DejaVuSans-72" x="245.02"/><use xlink:href="#DejaVuSans-6f" x="283.883"/><use xlink:href="#DejaVuSans-6e" x="345.064"/></g><g style="fill:#d62728" transform="matrix(.14 0 0 -.14 408.756 327.969)" id="text_16"><defs><path id="DejaVuSans-64" d="M2906 2969v1894h575V0h-575v525q-181-312-458-464-276-152-664-152-634 0-1033 506-398 507-398 1332t398 1331q399 506 1033 506 388 0 664-152 277-151 458-463zM947 1747q0-634 261-995t717-361q456 0 718 361 263 361 263 995t-263 995q-262 361-718 361t-717-361q-261-361-261-995z" transform="scale(.01563)"/><path id="DejaVuSans-2e" d="M684 794h660V0H684v794z" transform="scale(.01563)"/></defs><use xlink:href="#DejaVuSans-64"/><use xlink:href="#DejaVuSans-33" x="63.477"/><use xlink:href="#DejaVuSans-2e" x="127.1"/><use xlink:href="#DejaVuSans-6a" x="158.887"/><use xlink:href="#DejaVuSans-73" x="186.67"/></g><g style="fill:#9467bd" transform="matrix(.14 0 0 -.14 408.756 341.969)" id="text_17"><defs><path id="DejaVuSans-6d" d="M3328 2828q216 388 516 572t706 184q547 0 844-383 297-382 297-1088V0h-578v2094q0 503-179 746-178 244-543 244-447 0-707-297-259-296-259-809V0h-578v2094q0 506-178 748t-550 242q-441 0-701-298-259-298-259-808V0H581v3500h578v-544q197 322 472 475t653 153q382 0 649-194 267-193 395-562z" transform="scale(.01563)"/></defs><use xlink:href="#DejaVuSans-6d"/><use xlink:href="#DejaVuSans-6f" x="97.412"/><use xlink:href="#DejaVuSans-6d" x="158.594"/><use xlink:href="#DejaVuSans-65" x="256.006"/><use xlink:href="#DejaVuSans-6e" x="317.529"/><use xlink:href="#DejaVuSans-74" x="380.908"/><use xlink:href="#DejaVuSans-6a" x="420.117"/><use xlink:href="#DejaVuSans-73" x="447.9"/></g><g style="fill:#8c564b" transform="matrix(.14 0 0 -.14 408.756 355.969)" id="text_18"><defs><path id="DejaVuSans-68" d="M3513 2113V0h-575v2094q0 497-194 743-194 247-581 247-466 0-735-297-269-296-269-809V0H581v4863h578V2956q207 316 486 472 280 156 646 156 603 0 912-373 310-373 310-1098z" transform="scale(.01563)"/></defs><use xlink:href="#DejaVuSans-6c"/><use xlink:href="#DejaVuSans-6f" x="27.783"/><use xlink:href="#DejaVuSans-64" x="88.965"/><use xlink:href="#DejaVuSans-61" x="152.441"/><use xlink:href="#DejaVuSans-73" x="213.721"/><use xlink:href="#DejaVuSans-68" x="265.82"/></g><g style="fill:#b0b0b0" transform="matrix(.09716 0 0 -.09716 40.922 357.986)" id="text_19"><defs><path id="DejaVuSans-40" d="M2381 1678q0-447 222-702 222-254 610-254 384 0 604 256 221 256 221 700 0 438-225 695-225 258-607 258-378 0-602-256-223-256-223-697zm1703-934q-187-241-429-355t-564-114q-538 0-874 389t-336 1014q0 625 337 1015 338 391 873 391 322 0 565-117 244-117 428-354v409h447V722q457 69 714 417 258 349 258 902 0 334-99 628-98 294-298 544-325 409-792 626t-1017 217q-384 0-738-102-353-101-653-301-490-319-767-836-276-517-276-1120 0-497 179-932 180-434 521-765 328-325 759-495 431-171 922-171 403 0 792 136t714 389l281-347q-390-303-851-464t-936-161q-578 0-1091 205-512 205-912 595Q841 78 631 592q-209 514-209 1105 0 569 212 1084 213 516 607 907 403 396 931 607t1119 211q662 0 1229-272 568-271 952-771 234-307 357-666 124-359 124-744 0-822-497-1297T4084 263v481z" transform="scale(.01563)"/><path id="DejaVuSans-2f" d="M1625 4666h531L531-594H0l1625 5260z" transform="scale(.01563)"/><path id="DejaVuSans-6b" d="M581 4863h578V1991l1716 1509h734L1753 1863 3688 0h-750L1159 1709V0H581v4863z" transform="scale(.01563)"/><path id="DejaVuSans-76" d="M191 3500h609L1894 563l1094 2937h609L2284 0h-781L191 3500z" transform="scale(.01563)"/><path id="DejaVuSans-66" d="M2375 4863v-479h-550q-309 0-430-125-120-125-120-450v-309h947v-447h-947V0H697v3053H147v447h550v244q0 584 272 851 272 268 862 268h544z" transform="scale(.01563)"/><path id="DejaVuSans-77" d="M269 3500h575l719-2731 715 2731h678l719-2731 716 2731h575L4050 0h-678l-753 2869L1863 0h-679L269 3500z" transform="scale(.01563)"/><path id="DejaVuSans-2d" d="M313 2009h1684v-512H313v512z" transform="scale(.01563)"/><path id="DejaVuSans-7c" d="M1344 4891v-6400H813v6400h531z" transform="scale(.01563)"/><path id="DejaVuSans-4e" d="M628 4666h850L3547 763v3903h612V0h-850L1241 3903V0H628v4666z" transform="scale(.01563)"/><path id="DejaVuSans-53" d="M3425 4513v-616q-359 172-678 256-319 85-616 85-515 0-795-200t-280-569q0-310 186-468 186-157 705-254l381-78q706-135 1042-474t336-907q0-679-455-1029Q2797-91 1919-91q-331 0-705 75-373 75-773 222v650q384-215 753-325 369-109 725-109 540 0 834 212 294 213 294 607 0 343-211 537t-692 291l-385 75q-706 140-1022 440-315 300-315 835 0 619 436 975t1201 356q329 0 669-60 341-59 697-177z" transform="scale(.01563)"/><path id="DejaVuSans-f6" d="M1959 3097q-462 0-731-361t-269-989q0-628 267-989 268-361 733-361 460 0 728 362 269 363 269 988 0 622-269 986-268 364-728 364zm0 487q750 0 1178-488 429-487 429-1349 0-859-429-1349Q2709-91 1959-91q-753 0-1180 489-426 490-426 1349 0 862 426 1349 427 488 1180 488zm295 1266h634v-631h-634v631zm-1222 0h634v-631h-634v631z" transform="scale(.01563)"/><path id="DejaVuSans-43" d="M4122 4306v-665q-319 297-680 443-361 147-767 147-800 0-1225-489t-425-1414q0-922 425-1411t1225-489q406 0 767 147t680 444V359q-331-225-702-338-370-112-782-112-1060 0-1670 648-609 649-609 1771 0 1125 609 1773 610 649 1670 649 418 0 788-111 371-111 696-333z" transform="scale(.01563)"/><path id="DejaVuSans-42" d="M1259 2228V519h1013q509 0 754 211 246 211 246 645 0 438-246 645-245 208-754 208H1259zm0 1919V2741h935q462 0 688 173 227 174 227 530 0 353-227 528-226 175-688 175h-935zm-631 519h1613q722 0 1112-300 391-300 391-853 0-429-200-682t-588-315q466-100 724-418 258-317 258-792 0-625-425-966Q3088 0 2303 0H628v4666z" transform="scale(.01563)"/><path id="DejaVuSans-59" d="M-13 4666h679l1293-1919 1285 1919h678L2272 2222V0h-634v2222L-13 4666z" transform="scale(.01563)"/></defs><use xlink:href="#DejaVuSans-40"/><use xlink:href="#DejaVuSans-6e" x="100"/><use xlink:href="#DejaVuSans-73" x="163.379"/><use xlink:href="#DejaVuSans-63" x="215.479"/><use xlink:href="#DejaVuSans-68" x="270.459"/><use xlink:href="#DejaVuSans-6c" x="333.838"/><use xlink:href="#DejaVuSans-6f" x="361.621"/><use xlink:href="#DejaVuSans-65" x="422.803"/><use xlink:href="#DejaVuSans-20" x="484.326"/><use xlink:href="#DejaVuSans-2f" x="516.113"/><use xlink:href="#DejaVuSans-20" x="549.805"/><use xlink:href="#DejaVuSans-73" x="581.592"/><use xlink:href="#DejaVuSans-74" x="633.691"/><use xlink:href="#DejaVuSans-61" x="672.9"/><use xlink:href="#DejaVuSans-63" x="734.18"/><use xlink:href="#DejaVuSans-6b" x="789.16"/><use xlink:href="#DejaVuSans-6f" x="843.445"/><use xlink:href="#DejaVuSans-76" x="904.627"/><use xlink:href="#DejaVuSans-65" x="963.807"/><use xlink:href="#DejaVuSans-72" x="1025.33"/><use xlink:href="#DejaVuSans-66" x="1066.443"/><use xlink:href="#DejaVuSans-6c" x="1101.648"/><use xlink:href="#DejaVuSans-6f" x="1129.432"/><use xlink:href="#DejaVuSans-77" x="1190.613"/><use xlink:href="#DejaVuSans-2d" x="1272.4"/><use xlink:href="#DejaVuSans-74" x="1308.484"/><use xlink:href="#DejaVuSans-72" x="1347.693"/><use xlink:href="#DejaVuSans-65" x="1386.557"/><use xlink:href="#DejaVuSans-6e" x="1448.08"/><use xlink:href="#DejaVuSans-64" x="1511.459"/><use xlink:href="#DejaVuSans-73" x="1574.936"/><use xlink:href="#DejaVuSans-20" x="1627.035"/><use xlink:href="#DejaVuSans-7c" x="1658.822"/><use xlink:href="#DejaVuSans-20" x="1692.514"/><use xlink:href="#DejaVuSans-4e" x="1724.301"/><use xlink:href="#DejaVuSans-69" x="1799.105"/><use xlink:href="#DejaVuSans-63" x="1826.889"/><use xlink:href="#DejaVuSans-6f" x="1881.869"/><use xlink:href="#DejaVuSans-20" x="1943.051"/><use xlink:href="#DejaVuSans-53" x="1974.838"/><use xlink:href="#DejaVuSans-63" x="2038.314"/><use xlink:href="#DejaVuSans-68" x="2093.295"/><use xlink:href="#DejaVuSans-6c" x="2156.674"/><use xlink:href="#DejaVuSans-f6" x="2184.457"/><use xlink:href="#DejaVuSans-6d" x="2245.639"/><use xlink:href="#DejaVuSans-65" x="2343.051"/><use xlink:href="#DejaVuSans-72" x="2404.574"/><use xlink:href="#DejaVuSans-20" x="2445.688"/><use xlink:href="#DejaVuSans-7c" x="2477.475"/><use xlink:href="#DejaVuSans-20" x="2511.166"/><use xlink:href="#DejaVuSans-43" x="2542.953"/><use xlink:href="#DejaVuSans-43" x="2612.777"/><use xlink:href="#DejaVuSans-20" x="2682.602"/><use xlink:href="#DejaVuSans-42" x="2714.389"/><use xlink:href="#DejaVuSans-59" x="2777.492"/></g><g style="fill:#b0b0b0" transform="matrix(.14 0 0 -.14 63.337 17.838)" id="text_20"><defs><path id="DejaVuSans-44" d="M1259 4147V519h763q966 0 1414 437 448 438 448 1382 0 937-448 1373t-1414 436h-763zm-631 519h1297q1356 0 1990-564 635-564 635-1764 0-1207-638-1773Q3275 0 1925 0H628v4666z" transform="scale(.01563)"/><path id="DejaVuSans-62" d="M3116 1747q0 634-261 995t-717 361q-457 0-718-361t-261-995q0-634 261-995t718-361q456 0 717 361t261 995zM1159 2969q182 312 458 463 277 152 661 152 638 0 1036-506 399-506 399-1331T3314 415Q2916-91 2278-91q-384 0-661 152-276 152-458 464V0H581v4863h578V2969z" transform="scale(.01563)"/><path id="DejaVuSans-4f" d="M2522 4238q-688 0-1093-513-404-512-404-1397 0-881 404-1394 405-512 1093-512 687 0 1089 512 402 513 402 1394 0 885-402 1397-402 513-1089 513zm0 512q981 0 1568-658 588-658 588-1764 0-1103-588-1761Q3503-91 2522-91q-984 0-1574 656-589 657-589 1763t589 1764q590 658 1574 658z" transform="scale(.01563)"/></defs><use xlink:href="#DejaVuSans-44"/><use xlink:href="#DejaVuSans-61" x="77.002"/><use xlink:href="#DejaVuSans-69" x="138.281"/><use xlink:href="#DejaVuSans-6c" x="166.064"/><use xlink:href="#DejaVuSans-79" x="193.848"/><use xlink:href="#DejaVuSans-20" x="253.027"/><use xlink:href="#DejaVuSans-6e" x="284.814"/><use xlink:href="#DejaVuSans-75" x="348.193"/><use xlink:href="#DejaVuSans-6d" x="411.572"/><use xlink:href="#DejaVuSans-62" x="508.984"/><use xlink:href="#DejaVuSans-65" x="572.461"/><use xlink:href="#DejaVuSans-72" x="633.984"/><use xlink:href="#DejaVuSans-20" x="675.098"/><use xlink:href="#DejaVuSans-6f" x="706.885"/><use xlink:href="#DejaVuSans-66" x="768.066"/><use xlink:href="#DejaVuSans-20" x="803.271"/><use xlink:href="#DejaVuSans-71" x="835.059"/><use xlink:href="#DejaVuSans-75" x="898.535"/><use xlink:href="#DejaVuSans-65" x="961.914"/><use xlink:href="#DejaVuSans-73" x="1023.438"/><use xlink:href="#DejaVuSans-74" x="1075.537"/><use xlink:href="#DejaVuSans-69" x="1114.746"/><use xlink:href="#DejaVuSans-6f" x="1142.529"/><use xlink:href="#DejaVuSans-6e" x="1203.711"/><use xlink:href="#DejaVuSans-73" x="1267.09"/><use xlink:href="#DejaVuSans-20" x="1319.189"/><use xlink:href="#DejaVuSans-6f" x="1350.977"/><use xlink:href="#DejaVuSans-6e" x="1412.158"/><use xlink:href="#DejaVuSans-20" x="1475.537"/><use xlink:href="#DejaVuSans-53" x="1507.324"/><use xlink:href="#DejaVuSans-74" x="1570.801"/><use xlink:href="#DejaVuSans-61" x="1610.01"/><use xlink:href="#DejaVuSans-63" x="1671.289"/><use xlink:href="#DejaVuSans-6b" x="1726.27"/><use xlink:href="#DejaVuSans-4f" x="1784.18"/><use xlink:href="#DejaVuSans-76" x="1862.891"/><use xlink:href="#DejaVuSans-65" x="1922.07"/><use xlink:href="#DejaVuSans-72" x="1983.594"/><use xlink:href="#DejaVuSans-66" x="2024.707"/><use xlink:href="#DejaVuSans-6c" x="2059.912"/><use xlink:href="#DejaVuSans-6f" x="2087.695"/><use xlink:href="#DejaVuSans-77" x="2148.877"/></g><path d="m182.973 323.95 2.133-.035 2.134.035 2.133-.018h2.168l2.133.018 2.133-.018 2.134-.055 2.133-.015 2.168-.017 2.063.085 2.064-.12 2.133-.005 2.133-.345 2.133.092 2.133-.302 2.169.192 2.133-.18 2.133-.117 2.133-.19 2.133.155 2.169-.298 2.098-.172 2.098-.493 2.133.085 2.133-.102 2.134-.278 2.133-.055 2.168-.7 2.133.412 2.133.201 2.134-.58 2.133.388 2.168-.438 2.063.739 2.064-.651 2.133.07 2.133-.123 2.133-.673 2.133.096 2.169.525 2.133.012 2.133-.117 2.133.261 2.133.159 2.169-.14 2.063-.155 2.063-.038 2.133.048 2.134-.223 2.133-.32 2.133.303 2.168.157 2.133-.351 2.134.106 2.133.201 2.133-.236 2.168.543 2.063-.617 2.064-.626 2.133-.13 2.133-.85 2.133.669 2.134-.809 2.168.875 2.133.096 2.133-.166 2.133-.213 2.134.16 2.168-1.014 2.098.55 2.098-.55 2.133-1.37 2.134 1.125 2.133.755 2.133-1.28 2.168.14 2.133.164 2.134.606 2.133.316 2.133-.089 2.168-.7 2.063.385 2.064-.35 2.133.392 2.133.01 2.133.623 2.134-.027 2.168.7 2.133-.04 2.133-.153 2.133.37 2.134.085 2.168-.56 2.063.558 2.063-.208 2.133-.219 2.134.132 2.133.447 2.133.305 2.168.07 2.134-.104" clip-path="url(#p68110f5b6a)" style="fill:none;stroke:#2ca02c;stroke-width:1.5;stroke-linecap:square" id="line2d_21"/><path d="m212.768 323.95 2.133-.035 2.169.035h6.399l2.133-.07 2.169.052 2.098-.038 2.098-.067 2.133-.004 2.133-.083 2.134-.007 2.133.042 2.168-.228 2.133.095 2.133-.077 2.134.06 2.133-.463 2.168-.437 2.063.043 2.064-.06 2.133-.114 2.133-.412 2.133-.058 2.133-.274 2.169-.315 2.133.3 2.133-.3 2.133-.297 2.133-.385 2.169-.088 2.063.201 2.063-.236 2.133.037 2.134-.527 2.133.184 2.133-.709 2.168.175 2.133-.244 2.134-.228 2.133-.043 2.133 1.18 2.168-1.015 2.063-.53 2.064-.45 2.133.255 2.133-.832 2.133.542 2.134-1.102 2.168.245 2.133.224 2.133-1.292 2.133-.39 2.134 1.178 2.168-.665 2.098-1.228 2.098.545 2.133-4.313 2.134.306 2.133 1.628 2.133-.665 2.168 1.225 2.133.58 2.134-.143 2.133.034 2.133.509 2.168-.333 2.063-.644 2.064-.528 2.133.417 2.133.72 2.133-.539 2.134 1.449 2.168-1.277 2.133.678 2.133-.1 2.133.172 2.134 1.034 2.168-.874 2.063-.745 2.063.045 2.133.54 2.134-.19 2.133.715 2.133-.558 2.168-.665 2.134 2.073" clip-path="url(#p68110f5b6a)" style="fill:none;stroke:#ff7f0e;stroke-width:1.5;stroke-linecap:square" id="line2d_22"/><path d="m40.922 320.797 1.644-1.38 2.133-.24 2.134.17 2.168-2.1 2.063-3.1 2.063-.224 2.133-2.685 2.134-3.947 2.133-4.425 2.133-3.257 2.168-4.112 2.133-1.292 4.267-3.471 2.133-.206 2.168-7.63 2.064-4.379 2.063-5.787 2.133 1.113 2.133 1.267 2.133-7.053 2.134-5.984 2.168-4.794 2.133.001 2.133.349 2.133-7.581 2.134-.766 4.231-24.177 2.063-11.888 2.134-2.425 2.133-3.227 2.133-4.223 2.133-7.763 2.168-8.54 2.134 6.575 2.133 3.662 2.133-10.316 2.133 5.89 2.168-14.42 2.099-22.774 2.098 4.576 2.133-.015 2.133-8.314 2.133-.546 2.134-6.716 2.168-3.797 2.133 14.744 2.133-12.592 2.133-3.898 2.134 20.137 2.168-30.518 2.063-16.752 2.063-5.978 2.134-3.704 2.133 13.065 2.133-1.818 2.133-15.103 2.168-.63 2.134-10.413 2.133-6.77 2.133 16.77 2.133 13.782 2.168-30.517 2.064-22.813 2.063 12.296 2.133 5.788 2.133 30.802 2.134 11.745 2.133-7.86 2.168 15.73 2.133-.873 2.133 7.558 2.134 4.774 2.133 21.526 2.168-10.762 2.063-20.631 2.064-1.47 2.133-4.195 2.133 1.606 2.133-9.11 2.133 3.598 2.169 12.179 2.133 1.256 2.133 5.113 4.266 18.146 2.169-9.781 2.098-14.567 2.098 10.14 2.133 1.002 2.133 7.817 2.134 8.728 2.133.914 2.168-1.523 2.133 11.187 2.133 9.741 2.134-6.215 2.133 8.63 2.168-5.057 2.063-14.992 2.064-1.684 2.133 17.533 2.133-2.082 2.133 2.19 2.133 8.817 2.169 1.102 2.133 14.112 2.133 3.282 2.133-1.456 2.133 21.929 2.169-7.174 2.063 5.116 2.063 3.475 2.133 7.014 4.267 9.059 2.133-3.351 2.168-7.7 2.133 10.78 2.134-1.33 2.133 4.855 2.133 13.273 2.168-7.35 2.063-3.56 2.064.446 2.133.681 2.133 6.616 2.133 4.884 2.134-5.357 2.168 10.762 2.133-1.807 2.133-.066 2.133-.313 2.134 7.54 2.168-5.197 2.098-4.474 2.098-.915 2.133-20.479 2.134 6.742 2.133 3.402 2.133 2.775 2.168 11.48 2.133 1.44 4.267 5.714 2.133 6.407 2.168-7.227 2.063.718 2.064.244 2.133 3.294 2.133 2.673 2.133-.395 2.134 2.845 2.168 1.697 2.133 2.618 2.133 3.717 2.133.966 2.134 2.166 2.168-.997 2.063-2.109 2.063.254 2.133 3.833 2.134 1.364 2.133 3.626 2.133-1.351 2.168-.315 2.134 1.286h0" clip-path="url(#p68110f5b6a)" style="fill:none;stroke:#1f77b4;stroke-width:1.5;stroke-linecap:square" id="line2d_23"/></g></g><defs><clipPath id="p68110f5b6a"><path d="M40.922 57.838h357.12V323.95H40.922z"/></clipPath></defs></svg>