<svg xmlns:xlink="http://www.w3.org/1999/xlink" width="660.203" height="542.358" viewBox="0 0 495.152 406.768" xmlns="http://www.w3.org/2000/svg"><defs><style>*{stroke-linejoin:round;stroke-linecap:butt}</style></defs><g id="figure_1"><path d="M0 406.768h495.152V0H0v406.768z" style="fill:none" id="patch_1"/><g id="axes_1"><path d="M49.83 323.95h357.12V57.838H49.83V323.95z" style="fill:none" id="patch_2"/><g id="matplotlib.axis_1"><g id="xtick_1"><g id="line2d_1"><defs><path id="mf849997c6f" d="M0 0v3.5" style="stroke:#b0b0b0;stroke-width:.4"/></defs><use xlink:href="#mf849997c6f" x="82.353" y="323.95" style="fill:#b0b0b0;stroke:#b0b0b0;stroke-width:.4"/></g><g style="fill:#b0b0b0" transform="matrix(.14 0 0 -.14 64.538 341.588)" id="text_1"><defs><path id="DejaVuSans-32" d="M1228 531h2203V0H469v531q359 372 979 998 621 627 780 809 303 340 423 576 121 236 121 464 0 372-261 606-261 235-680 235-297 0-627-103-329-103-704-313v638q381 153 712 231 332 78 607 78 725 0 1156-363 431-362 431-968 0-288-108-546-107-257-392-607-78-91-497-524-418-433-1181-1211z" transform="scale(.01563)"/><path id="DejaVuSans-30" d="M2034 4250q-487 0-733-480-245-479-245-1442 0-959 245-1439 246-480 733-480 491 0 736 480 246 480 246 1439 0 963-246 1442-245 480-736 480zm0 500q785 0 1199-621 414-620 414-1801 0-1178-414-1799Q2819-91 2034-91q-784 0-1198 620-414 621-414 1799 0 1181 414 1801 414 621 1198 621z" transform="scale(.01563)"/><path id="DejaVuSans-31" d="M794 531h1031v3560L703 3866v575l1116 225h631V531h1031V0H794v531z" transform="scale(.01563)"/></defs><use xlink:href="#DejaVuSans-32"/><use xlink:href="#DejaVuSans-30" x="63.623"/><use xlink:href="#DejaVuSans-31" x="127.246"/><use xlink:href="#DejaVuSans-30" x="190.869"/></g></g><g id="xtick_2"><use xlink:href="#mf849997c6f" x="133.41" y="323.95" style="fill:#b0b0b0;stroke:#b0b0b0;stroke-width:.4" id="line2d_2"/><g style="fill:#b0b0b0" transform="matrix(.14 0 0 -.14 115.595 341.588)" id="text_2"><use xlink:href="#DejaVuSans-32"/><use xlink:href="#DejaVuSans-30" x="63.623"/><use xlink:href="#DejaVuSans-31" x="127.246"/><use xlink:href="#DejaVuSans-32" x="190.869"/></g></g><g id="xtick_3"><use xlink:href="#mf849997c6f" x="184.537" y="323.95" style="fill:#b0b0b0;stroke:#b0b0b0;stroke-width:.4" id="line2d_3"/><g style="fill:#b0b0b0" transform="matrix(.14 0 0 -.14 166.722 341.588)" id="text_3"><defs><path id="DejaVuSans-34" d="M2419 4116 825 1625h1594v2491zm-166 550h794V1625h666v-525h-666V0h-628v1100H313v609l1940 2957z" transform="scale(.01563)"/></defs><use xlink:href="#DejaVuSans-32"/><use xlink:href="#DejaVuSans-30" x="63.623"/><use xlink:href="#DejaVuSans-31" x="127.246"/><use xlink:href="#DejaVuSans-34" x="190.869"/></g></g><g id="xtick_4"><use xlink:href="#mf849997c6f" x="235.594" y="323.95" style="fill:#b0b0b0;stroke:#b0b0b0;stroke-width:.4" id="line2d_4"/><g style="fill:#b0b0b0" transform="matrix(.14 0 0 -.14 217.779 341.588)" id="text_4"><defs><path id="DejaVuSans-36" d="M2113 2584q-425 0-674-291-248-290-248-796 0-503 248-796 249-292 674-292t673 292q248 293 248 796 0 506-248 796-248 291-673 291zm1253 1979v-575q-238 112-480 171-242 60-480 60-625 0-955-422-329-422-376-1275 184 272 462 417 279 145 613 145 703 0 1111-427 408-426 408-1160 0-719-425-1154Q2819-91 2113-91q-810 0-1238 620-428 621-428 1799 0 1106 525 1764t1409 658q238 0 480-47t505-140z" transform="scale(.01563)"/></defs><use xlink:href="#DejaVuSans-32"/><use xlink:href="#DejaVuSans-30" x="63.623"/><use xlink:href="#DejaVuSans-31" x="127.246"/><use xlink:href="#DejaVuSans-36" x="190.869"/></g></g><g id="xtick_5"><use xlink:href="#mf849997c6f" x="286.721" y="323.95" style="fill:#b0b0b0;stroke:#b0b0b0;stroke-width:.4" id="line2d_5"/><g style="fill:#b0b0b0" transform="matrix(.14 0 0 -.14 268.906 341.588)" id="text_5"><defs><path id="DejaVuSans-38" d="M2034 2216q-450 0-708-241-257-241-257-662 0-422 257-663 258-241 708-241t709 242q260 243 260 662 0 421-258 662-257 241-711 241zm-631 268q-406 100-633 378-226 279-226 679 0 559 398 884 399 325 1092 325 697 0 1094-325t397-884q0-400-227-679-226-278-629-378 456-106 710-416 255-309 255-755 0-679-414-1042Q2806-91 2034-91q-771 0-1186 362-414 363-414 1042 0 446 256 755 257 310 713 416zm-231 997q0-362 226-565 227-203 636-203 407 0 636 203 230 203 230 565 0 363-230 566-229 203-636 203-409 0-636-203-226-203-226-566z" transform="scale(.01563)"/></defs><use xlink:href="#DejaVuSans-32"/><use xlink:href="#DejaVuSans-30" x="63.623"/><use xlink:href="#DejaVuSans-31" x="127.246"/><use xlink:href="#DejaVuSans-38" x="190.869"/></g></g><g id="xtick_6"><use xlink:href="#mf849997c6f" x="337.778" y="323.95" style="fill:#b0b0b0;stroke:#b0b0b0;stroke-width:.4" id="line2d_6"/><g style="fill:#b0b0b0" transform="matrix(.14 0 0 -.14 319.963 341.588)" id="text_6"><use xlink:href="#DejaVuSans-32"/><use xlink:href="#DejaVuSans-30" x="63.623"/><use xlink:href="#DejaVuSans-32" x="127.246"/><use xlink:href="#DejaVuSans-30" x="190.869"/></g></g><g id="xtick_7"><use xlink:href="#mf849997c6f" x="388.905" y="323.95" style="fill:#b0b0b0;stroke:#b0b0b0;stroke-width:.4" id="line2d_7"/><g style="fill:#b0b0b0" transform="matrix(.14 0 0 -.14 371.09 341.588)" id="text_7"><use xlink:href="#DejaVuSans-32"/><use xlink:href="#DejaVuSans-30" x="63.623"/><use xlink:href="#DejaVuSans-32" x="127.246"/><use xlink:href="#DejaVuSans-32" x="190.869"/></g></g></g><g id="matplotlib.axis_2"><g id="ytick_1"><path d="M49.83 323.95h357.12" clip-path="url(#p5112f78303)" style="fill:none;stroke:#b0b0b0;stroke-width:.3;stroke-linecap:square" id="line2d_8"/><g id="line2d_9"><defs><path id="mab617c2eef" d="M0 0h-3.5" style="stroke:#b0b0b0;stroke-width:.3"/></defs><use xlink:href="#mab617c2eef" x="49.83" y="323.95" style="fill:#b0b0b0;stroke:#b0b0b0;stroke-width:.3"/></g><use xlink:href="#DejaVuSans-30" style="fill:#b0b0b0" transform="matrix(.14 0 0 -.14 33.922 329.269)" id="text_8"/></g><g id="ytick_2"><path d="M49.83 280.494h357.12" clip-path="url(#p5112f78303)" style="fill:none;stroke:#b0b0b0;stroke-width:.3;stroke-linecap:square" id="line2d_10"/><use xlink:href="#mab617c2eef" x="49.83" y="280.494" style="fill:#b0b0b0;stroke:#b0b0b0;stroke-width:.3" id="line2d_11"/><g style="fill:#b0b0b0" transform="matrix(.14 0 0 -.14 16.108 285.813)" id="text_9"><use xlink:href="#DejaVuSans-32"/><use xlink:href="#DejaVuSans-30" x="63.623"/><use xlink:href="#DejaVuSans-30" x="127.246"/></g></g><g id="ytick_3"><path d="M49.83 237.038h357.12" clip-path="url(#p5112f78303)" style="fill:none;stroke:#b0b0b0;stroke-width:.3;stroke-linecap:square" id="line2d_12"/><use xlink:href="#mab617c2eef" x="49.83" y="237.038" style="fill:#b0b0b0;stroke:#b0b0b0;stroke-width:.3" id="line2d_13"/><g style="fill:#b0b0b0" transform="matrix(.14 0 0 -.14 16.108 242.357)" id="text_10"><use xlink:href="#DejaVuSans-34"/><use xlink:href="#DejaVuSans-30" x="63.623"/><use xlink:href="#DejaVuSans-30" x="127.246"/></g></g><g id="ytick_4"><path d="M49.83 193.582h357.12" clip-path="url(#p5112f78303)" style="fill:none;stroke:#b0b0b0;stroke-width:.3;stroke-linecap:square" id="line2d_14"/><use xlink:href="#mab617c2eef" x="49.83" y="193.582" style="fill:#b0b0b0;stroke:#b0b0b0;stroke-width:.3" id="line2d_15"/><g style="fill:#b0b0b0" transform="matrix(.14 0 0 -.14 16.108 198.9)" id="text_11"><use xlink:href="#DejaVuSans-36"/><use xlink:href="#DejaVuSans-30" x="63.623"/><use xlink:href="#DejaVuSans-30" x="127.246"/></g></g><g id="ytick_5"><path d="M49.83 150.126h357.12" clip-path="url(#p5112f78303)" style="fill:none;stroke:#b0b0b0;stroke-width:.3;stroke-linecap:square" id="line2d_16"/><use xlink:href="#mab617c2eef" x="49.83" y="150.126" style="fill:#b0b0b0;stroke:#b0b0b0;stroke-width:.3" id="line2d_17"/><g style="fill:#b0b0b0" transform="matrix(.14 0 0 -.14 16.108 155.445)" id="text_12"><use xlink:href="#DejaVuSans-38"/><use xlink:href="#DejaVuSans-30" x="63.623"/><use xlink:href="#DejaVuSans-30" x="127.246"/></g></g><g id="ytick_6"><path d="M49.83 106.67h357.12" clip-path="url(#p5112f78303)" style="fill:none;stroke:#b0b0b0;stroke-width:.3;stroke-linecap:square" id="line2d_18"/><use xlink:href="#mab617c2eef" x="49.83" y="106.67" style="fill:#b0b0b0;stroke:#b0b0b0;stroke-width:.3" id="line2d_19"/><g style="fill:#b0b0b0" transform="matrix(.14 0 0 -.14 7.2 111.989)" id="text_13"><use xlink:href="#DejaVuSans-31"/><use xlink:href="#DejaVuSans-30" x="63.623"/><use xlink:href="#DejaVuSans-30" x="127.246"/><use xlink:href="#DejaVuSans-30" x="190.869"/></g></g><g id="ytick_7"><path d="M49.83 63.214h357.12" clip-path="url(#p5112f78303)" style="fill:none;stroke:#b0b0b0;stroke-width:.3;stroke-linecap:square" id="line2d_20"/><use xlink:href="#mab617c2eef" x="49.83" y="63.214" style="fill:#b0b0b0;stroke:#b0b0b0;stroke-width:.3" id="line2d_21"/><g style="fill:#b0b0b0" transform="matrix(.14 0 0 -.14 7.2 68.533)" id="text_14"><use xlink:href="#DejaVuSans-31"/><use xlink:href="#DejaVuSans-32" x="63.623"/><use xlink:href="#DejaVuSans-30" x="127.246"/><use xlink:href="#DejaVuSans-30" x="190.869"/></g></g></g><path d="m49.83 320.731 1.644 1.467 2.133.593 2.133.03 2.168-.336 2.063-.762 2.064-.086 8.533-1.199 2.168.112 4.266-.056 2.133-1.288 2.134.728 2.168-.8 2.063-.53 2.063.468 2.134-.576 2.133.015 2.133-.74 2.133-.206 2.168-.59 2.134.167 2.133.324 2.133-.245 2.133-.441 4.232-2.569 2.063-1.756 2.133.79 4.266-.615 2.134.168 2.168-1.948 2.133 1.845 2.133-.093 2.133-1.269 2.134.73 2.168-1.55 2.098-1.945 2.098-.066 2.134 1.042 2.133.479 2.133.187 2.133-.804 2.168.007 2.134.37 2.133-1.709 2.133.405 2.133 2.09 2.168-2.831 2.064-1.178 2.063-.651 2.133.115 2.133 1.434 2.134.355 2.133-1.035 2.168-.295 2.133.084 2.133-2.193 2.134.904 2.133 1.458 2.168-2.23 2.063-.88 2.063-.402 2.134.787 2.133 1.106 2.133 1.878 2.133-1.044 2.168.602 2.134.869 2.133.057 2.133 1.124 2.133.214 2.168-1.941 2.064-.503 2.063.279 2.133-.874 2.133.558 2.134-1.08 2.133.547 2.168 1.858 2.133.58 2.133.296 2.134 1.181 2.133-.018 2.168-.827 2.098-1.781 2.099.961 2.133-.19L245.14 309l2.133-.383 2.133 1.946 2.169.154 2.133-.767 2.133 1.166 2.133.043 2.133 1.324 2.169-1.346 4.126.26 2.133 1.768 2.133.117 2.134.361 2.133-.389 4.301 1.816 2.133-.253 2.134.58 2.133 1.39 2.168-1.01 2.063.172 2.064.53 2.133.257 2.133-.069 2.133.047 2.133.353 2.169.21 2.133.451 2.133-.682 4.266.834 2.169-.729 6.26.773 2.133.278 2.133.062 2.133-.44 2.168-.035 2.133.142 2.134-.689 2.133 1.095 2.133-.05 2.168-.463 2.098.364 2.099-.182 2.133-.82 2.133.981 2.133.633 2.134-.577 2.168 1.22 2.133.11 2.133.297 2.133-.42 2.134.588 2.168-.512 2.063-.608 2.063.811 2.133-.366 2.134 1.214 2.133-.265 4.301-.127 2.133-.148 2.134.372 4.266.302 4.232-.652 2.063-.112 2.133.22 2.133.06 4.267.336 4.301-.265h0" clip-path="url(#p5112f78303)" style="fill:none;stroke:#c49c94;stroke-width:1.5;stroke-linecap:square" id="line2d_22"/><path d="M93.963 323.95h31.963l40.426-.087 2.133-.06 4.267.063 10.7-.007 2.169-.19 4.126.078 4.267-.113 2.133-.046 4.301-.55 2.134.238 2.133-.574 2.133.11 2.133-.047 2.168-.448 2.064.306 2.063.107 4.266-.54 2.134.05 4.301.4 4.266.378 2.134-.068 2.133.089 2.168-.155 2.098-.036 2.099-.188 2.133.153 2.133-.174 2.133-.312 2.133.396 2.169-.448 2.133.45 2.133-.142 2.133.034 6.365-.25 8.463.308 2.133-.33 2.168.154 2.133.43 4.267-.232 2.133-.471 2.168.315 4.127-.414 2.133.353 2.133-.233 2.133.146 2.133-.076 2.169.09 2.133-.137 2.133.089 2.133-.133 2.133.007 2.169-.568 2.063.415 2.063.054 2.133-.422 2.134.086 6.434-.687 4.267.203 4.266-.077 2.168.267 2.098-.671 2.099.236 2.133-.704 2.133-.368 2.133.498 2.134-.246 2.168.091 2.133-.113 4.266.565 4.302-.69 2.063.107 2.063-.682 2.133-.278 2.134.888 2.133-.33 4.301.491 2.133.32 2.134-.194 2.133-.385 2.133-1.08 4.232.513 2.063.125 2.133-.355 2.133-.177 2.133-.373 2.134-.048 2.168-.89 2.133 1.09h0" clip-path="url(#p5112f78303)" style="fill:none;stroke:#c5b0d5;stroke-width:1.5;stroke-linecap:square" id="line2d_23"/><path d="m77.002 323.95 2.133-.478 2.134.4 6.294.022 19.234-.07 8.428.075 2.133-.209 10.701-.02 2.133-.198 6.4.246 8.498-.29 4.301.017 2.134-.444 2.133.234 4.266-.077 2.168.084 2.064-.2 4.196-.005 2.133-.096 2.134-.266 6.434-.442 2.133.23 2.134-.034 2.133-.161 2.168-.442 2.063.525 2.063-.188 2.134-.69 2.133.514 2.133-.123 2.133-1.096 2.168.343h2.134l6.4.379 2.167-.841 2.064.321 2.063-.307 2.133.455 2.133.056 4.267-.504 4.301.187 2.133.086 2.134-.158 2.133.179 4.266-1.083 4.232-.299 2.133.296 4.266.294 2.169-.26 2.133.308 2.133-.006 2.133.267 2.133-.029 4.232-.825 2.063-.29 2.133.905 2.133-.435 2.134-.036 2.133-.44 4.301.65 4.267-.79 2.133 1.03 2.168-.12 2.063-.69 2.064.242 2.133-.259 2.133.077 2.133-.446 4.302-.31 2.133.114 2.133-.886 2.133.401 2.133.84 2.169-.155 4.126-.567 2.133.346 2.134-.052 2.133.472 2.133-1.138 2.168-.014 2.133.21 4.267-.022 2.133.254 2.168-.407 2.098-.515 2.099-.038 2.133-1.242 2.133.765 2.133.198 2.134.818 2.168-.483 2.133-.682 2.133 1.628 2.133.001 2.134 1.282 2.168-1.017 2.063-.766 2.063-.979 2.133.836 2.134.384 4.266.294 2.168-1.227 2.133.846 2.134-.558 2.133.37 2.133-.237 2.168-.365 2.064.21 2.063-.504 2.133.301 4.266 1.094 2.134-1.038 2.168-.448 2.133-.15h0" clip-path="url(#p5112f78303)" style="fill:none;stroke:#ff9896;stroke-width:1.5;stroke-linecap:square" id="line2d_24"/><g style="fill:#1f77b4" transform="matrix(.14 0 0 -.14 417.664 157.675)" id="text_15"><defs><path id="DejaVuSans-70" d="M1159 525v-1856H581v4831h578v-531q182 312 458 463 277 152 661 152 638 0 1036-506 399-506 399-1331T3314 415Q2916-91 2278-91q-384 0-661 152-276 152-458 464zm1957 1222q0 634-261 995t-717 361q-457 0-718-361t-261-995q0-634 261-995t718-361q456 0 717 361t261 995z" transform="scale(.01563)"/><path id="DejaVuSans-79" d="M2059-325q-243-625-475-815-231-191-618-191H506v481h338q237 0 368 113 132 112 291 531l103 262L191 3500h609L1894 763l1094 2737h609L2059-325z" transform="scale(.01563)"/><path id="DejaVuSans-74" d="M1172 4494v-994h1184v-447H1172V1153q0-428 117-550t477-122h590V0h-590q-666 0-919 248-253 249-253 905v1900H172v447h422v994h578z" transform="scale(.01563)"/><path id="DejaVuSans-68" d="M3513 2113V0h-575v2094q0 497-194 743-194 247-581 247-466 0-735-297-269-296-269-809V0H581v4863h578V2956q207 316 486 472 280 156 646 156 603 0 912-373 310-373 310-1098z" transform="scale(.01563)"/><path id="DejaVuSans-6f" d="M1959 3097q-462 0-731-361t-269-989q0-628 267-989 268-361 733-361 460 0 728 362 269 363 269 988 0 622-269 986-268 364-728 364zm0 487q750 0 1178-488 429-487 429-1349 0-859-429-1349Q2709-91 1959-91q-753 0-1180 489-426 490-426 1349 0 862 426 1349 427 488 1180 488z" transform="scale(.01563)"/><path id="DejaVuSans-6e" d="M3513 2113V0h-575v2094q0 497-194 743-194 247-581 247-466 0-735-297-269-296-269-809V0H581v3500h578v-544q207 316 486 472 280 156 646 156 603 0 912-373 310-373 310-1098z" transform="scale(.01563)"/></defs><use xlink:href="#DejaVuSans-70"/><use xlink:href="#DejaVuSans-79" x="63.477"/><use xlink:href="#DejaVuSans-74" x="122.656"/><use xlink:href="#DejaVuSans-68" x="161.865"/><use xlink:href="#DejaVuSans-6f" x="225.244"/><use xlink:href="#DejaVuSans-6e" x="286.426"/></g><g style="fill:#ff7f0e" transform="matrix(.14 0 0 -.14 417.664 200.657)" id="text_16"><defs><path id="DejaVuSans-6a" d="M603 3500h575V-63q0-668-255-968-254-300-820-300h-219v487H38q328 0 446 152Q603-541 603-63v3563zm0 1363h575v-729H603v729z" transform="scale(.01563)"/><path id="DejaVuSans-61" d="M2194 1759q-697 0-966-159t-269-544q0-306 202-486 202-179 548-179 479 0 768 339t289 901v128h-572zm1147 238V0h-575v531q-197-318-491-470T1556-91q-537 0-855 302-317 302-317 808 0 590 395 890 396 300 1180 300h807v57q0 397-261 614t-733 217q-300 0-585-72-284-72-546-216v532q315 122 612 182 297 61 578 61 760 0 1135-394 375-393 375-1193z" transform="scale(.01563)"/><path id="DejaVuSans-76" d="M191 3500h609L1894 563l1094 2937h609L2284 0h-781L191 3500z" transform="scale(.01563)"/><path id="DejaVuSans-73" d="M2834 3397v-544q-243 125-506 187-262 63-544 63-428 0-642-131t-214-394q0-200 153-314t616-217l197-44q612-131 870-370t258-667q0-488-386-773Q2250-91 1575-91q-281 0-586 55T347 128v594q319-166 628-249 309-82 613-82 406 0 624 139 219 139 219 392 0 234-158 359-157 125-692 241l-200 47q-534 112-772 345-237 233-237 639 0 494 350 762 350 269 994 269 318 0 599-47 282-46 519-140z" transform="scale(.01563)"/><path id="DejaVuSans-63" d="M3122 3366v-538q-244 135-489 202t-495 67q-560 0-870-355-309-354-309-995t309-996q310-354 870-354 250 0 495 67t489 202V134Q2881 22 2623-34q-257-57-548-57-791 0-1257 497-465 497-465 1341 0 856 470 1346 471 491 1290 491 265 0 518-55 253-54 491-163z" transform="scale(.01563)"/><path id="DejaVuSans-72" d="M2631 2963q-97 56-211 82-114 27-251 27-488 0-749-317t-261-911V0H581v3500h578v-544q182 319 472 473 291 155 707 155 59 0 131-8 72-7 159-23l3-590z" transform="scale(.01563)"/><path id="DejaVuSans-69" d="M603 3500h575V0H603v3500zm0 1363h575v-729H603v729z" transform="scale(.01563)"/></defs><use xlink:href="#DejaVuSans-6a"/><use xlink:href="#DejaVuSans-61" x="27.783"/><use xlink:href="#DejaVuSans-76" x="89.063"/><use xlink:href="#DejaVuSans-61" x="148.242"/><use xlink:href="#DejaVuSans-73" x="209.521"/><use xlink:href="#DejaVuSans-63" x="261.621"/><use xlink:href="#DejaVuSans-72" x="316.602"/><use xlink:href="#DejaVuSans-69" x="357.715"/><use xlink:href="#DejaVuSans-70" x="385.498"/><use xlink:href="#DejaVuSans-74" x="448.975"/></g><g style="fill:#2ca02c" transform="matrix(.14 0 0 -.14 417.664 214.657)" id="text_17"><use xlink:href="#DejaVuSans-6a"/><use xlink:href="#DejaVuSans-61" x="27.783"/><use xlink:href="#DejaVuSans-76" x="89.063"/><use xlink:href="#DejaVuSans-61" x="148.242"/></g><g style="fill:#d62728" transform="matrix(.14 0 0 -.14 417.664 228.657)" id="text_18"><defs><path id="DejaVuSans-23" d="M3272 2816h-909l-263-1044h916l256 1044zm-469 1778-325-1297h913l328 1297h500l-322-1297h975v-481H3775l-256-1044h994v-478H3397L3072 0h-500l322 1294h-916L1656 0h-503l325 1294H494v478h1100l262 1044H850v481h1128l319 1297h506z" transform="scale(.01563)"/></defs><use xlink:href="#DejaVuSans-63"/><use xlink:href="#DejaVuSans-23" x="54.98"/></g><use xlink:href="#DejaVuSans-72" style="fill:#9467bd" transform="matrix(.14 0 0 -.14 417.664 242.657)" id="text_19"/><g style="fill:#8c564b" transform="matrix(.14 0 0 -.14 417.664 256.657)" id="text_20"><use xlink:href="#DejaVuSans-70"/><use xlink:href="#DejaVuSans-68" x="63.477"/><use xlink:href="#DejaVuSans-70" x="126.855"/></g><g style="fill:#e377c2" transform="matrix(.14 0 0 -.14 417.664 270.657)" id="text_21"><defs><path id="DejaVuSans-71" d="M947 1747q0-634 261-995t717-361q456 0 718 361 263 361 263 995t-263 995q-262 361-718 361t-717-361q-261-361-261-995zM2906 525q-181-312-458-464-276-152-664-152-634 0-1033 506-398 507-398 1332t398 1331q399 506 1033 506 388 0 664-152 277-151 458-463v531h575v-4831h-575V525z" transform="scale(.01563)"/><path id="DejaVuSans-6c" d="M603 4863h575V0H603v4863z" transform="scale(.01563)"/></defs><use xlink:href="#DejaVuSans-73"/><use xlink:href="#DejaVuSans-71" x="52.1"/><use xlink:href="#DejaVuSans-6c" x="115.576"/></g><g style="fill:#7f7f7f" transform="matrix(.14 0 0 -.14 417.664 284.657)" id="text_22"><defs><path id="DejaVuSans-2b" d="M2944 4013V2272h1740v-531H2944V0h-525v1741H678v531h1741v1741h525z" transform="scale(.01563)"/></defs><use xlink:href="#DejaVuSans-63"/><use xlink:href="#DejaVuSans-2b" x="54.98"/><use xlink:href="#DejaVuSans-2b" x="138.77"/></g><g style="fill:#bcbd22" transform="matrix(.14 0 0 -.14 417.664 298.657)" id="text_23"><defs><path id="DejaVuSans-65" d="M3597 1894v-281H953q38-594 358-905t892-311q331 0 642 81t618 244V178Q3153 47 2828-22t-659-69q-838 0-1327 487-489 488-489 1320 0 859 464 1363 464 505 1252 505 706 0 1117-455 411-454 411-1235zm-575 169q-6 471-264 752-258 282-683 282-481 0-770-272t-333-766l2050 4z" transform="scale(.01563)"/></defs><use xlink:href="#DejaVuSans-74"/><use xlink:href="#DejaVuSans-79" x="39.209"/><use xlink:href="#DejaVuSans-70" x="98.389"/><use xlink:href="#DejaVuSans-65" x="161.865"/><use xlink:href="#DejaVuSans-73" x="223.389"/><use xlink:href="#DejaVuSans-63" x="275.488"/><use xlink:href="#DejaVuSans-72" x="330.469"/><use xlink:href="#DejaVuSans-69" x="371.582"/><use xlink:href="#DejaVuSans-70" x="399.365"/><use xlink:href="#DejaVuSans-74" x="462.842"/></g><g style="fill:#17becf" transform="matrix(.14 0 0 -.14 417.664 312.657)" id="text_24"><defs><path id="DejaVuSans-77" d="M269 3500h575l719-2731 715 2731h678l719-2731 716 2731h575L4050 0h-678l-753 2869L1863 0h-679L269 3500z" transform="scale(.01563)"/><path id="DejaVuSans-66" d="M2375 4863v-479h-550q-309 0-430-125-120-125-120-450v-309h947v-447h-947V0H697v3053H147v447h550v244q0 584 272 851 272 268 862 268h544z" transform="scale(.01563)"/></defs><use xlink:href="#DejaVuSans-73"/><use xlink:href="#DejaVuSans-77" x="52.1"/><use xlink:href="#DejaVuSans-69" x="133.887"/><use xlink:href="#DejaVuSans-66" x="161.67"/><use xlink:href="#DejaVuSans-74" x="195.125"/></g><g style="fill:#aec7e8" transform="matrix(.14 0 0 -.14 417.664 326.657)" id="text_25"><defs><path id="DejaVuSans-64" d="M2906 2969v1894h575V0h-575v525q-181-312-458-464-276-152-664-152-634 0-1033 506-398 507-398 1332t398 1331q399 506 1033 506 388 0 664-152 277-151 458-463zM947 1747q0-634 261-995t717-361q456 0 718 361 263 361 263 995t-263 995q-262 361-718 361t-717-361q-261-361-261-995z" transform="scale(.01563)"/></defs><use xlink:href="#DejaVuSans-64"/><use xlink:href="#DejaVuSans-61" x="63.477"/><use xlink:href="#DejaVuSans-72" x="124.756"/><use xlink:href="#DejaVuSans-74" x="165.869"/></g><use xlink:href="#DejaVuSans-63" style="fill:#ffbb78" transform="matrix(.14 0 0 -.14 417.664 340.657)" id="text_26"/><g style="fill:#98df8a" transform="matrix(.14 0 0 -.14 417.664 354.657)" id="text_27"><defs><path id="DejaVuSans-6b" d="M581 4863h578V1991l1716 1509h734L1753 1863 3688 0h-750L1159 1709V0H581v4863z" transform="scale(.01563)"/></defs><use xlink:href="#DejaVuSans-6b"/><use xlink:href="#DejaVuSans-6f" x="54.285"/><use xlink:href="#DejaVuSans-74" x="115.467"/><use xlink:href="#DejaVuSans-6c" x="154.676"/><use xlink:href="#DejaVuSans-69" x="182.459"/><use xlink:href="#DejaVuSans-6e" x="210.242"/></g><g style="fill:#ff9896" transform="matrix(.14 0 0 -.14 417.664 368.657)" id="text_28"><defs><path id="DejaVuSans-67" d="M2906 1791q0 625-258 968-257 344-723 344-462 0-720-344-258-343-258-968 0-622 258-966t720-344q466 0 723 344 258 344 258 966zm575-1357q0-893-397-1329-396-436-1215-436-303 0-572 45t-522 139v559q253-137 500-202 247-66 503-66 566 0 847 295t281 892v285q-178-310-456-463T1784 0Q1141 0 747 490 353 981 353 1791q0 812 394 1302 394 491 1037 491 388 0 666-153t456-462v531h575V434z" transform="scale(.01563)"/></defs><use xlink:href="#DejaVuSans-67"/><use xlink:href="#DejaVuSans-6f" x="63.477"/></g><g style="fill:#c5b0d5" transform="matrix(.14 0 0 -.14 417.664 382.657)" id="text_29"><defs><path id="DejaVuSans-75" d="M544 1381v2119h575V1403q0-497 193-746 194-248 582-248 465 0 735 297 271 297 271 810v1984h575V0h-575v538q-209-319-486-474-276-155-642-155-603 0-916 375-312 375-312 1097zm1447 2203z" transform="scale(.01563)"/></defs><use xlink:href="#DejaVuSans-72"/><use xlink:href="#DejaVuSans-75" x="41.113"/><use xlink:href="#DejaVuSans-73" x="104.492"/><use xlink:href="#DejaVuSans-74" x="156.592"/></g><g style="fill:#c49c94" transform="matrix(.14 0 0 -.14 417.664 396.657)" id="text_30"><defs><path id="DejaVuSans-62" d="M3116 1747q0 634-261 995t-717 361q-457 0-718-361t-261-995q0-634 261-995t718-361q456 0 717 361t261 995zM1159 2969q182 312 458 463 277 152 661 152 638 0 1036-506 399-506 399-1331T3314 415Q2916-91 2278-91q-384 0-661 152-276 152-458 464V0H581v4863h578V2969z" transform="scale(.01563)"/></defs><use xlink:href="#DejaVuSans-72"/><use xlink:href="#DejaVuSans-75" x="41.113"/><use xlink:href="#DejaVuSans-62" x="104.492"/><use xlink:href="#DejaVuSans-79" x="167.969"/></g><g style="fill:#b0b0b0" transform="matrix(.09716 0 0 -.09716 49.83 357.986)" id="text_31"><defs><path id="DejaVuSans-40" d="M2381 1678q0-447 222-702 222-254 610-254 384 0 604 256 221 256 221 700 0 438-225 695-225 258-607 258-378 0-602-256-223-256-223-697zm1703-934q-187-241-429-355t-564-114q-538 0-874 389t-336 1014q0 625 337 1015 338 391 873 391 322 0 565-117 244-117 428-354v409h447V722q457 69 714 417 258 349 258 902 0 334-99 628-98 294-298 544-325 409-792 626t-1017 217q-384 0-738-102-353-101-653-301-490-319-767-836-276-517-276-1120 0-497 179-932 180-434 521-765 328-325 759-495 431-171 922-171 403 0 792 136t714 389l281-347q-390-303-851-464t-936-161q-578 0-1091 205-512 205-912 595Q841 78 631 592q-209 514-209 1105 0 569 212 1084 213 516 607 907 403 396 931 607t1119 211q662 0 1229-272 568-271 952-771 234-307 357-666 124-359 124-744 0-822-497-1297T4084 263v481z" transform="scale(.01563)"/><path id="DejaVuSans-2f" d="M1625 4666h531L531-594H0l1625 5260z" transform="scale(.01563)"/><path id="DejaVuSans-2d" d="M313 2009h1684v-512H313v512z" transform="scale(.01563)"/><path id="DejaVuSans-7c" d="M1344 4891v-6400H813v6400h531z" transform="scale(.01563)"/><path id="DejaVuSans-4e" d="M628 4666h850L3547 763v3903h612V0h-850L1241 3903V0H628v4666z" transform="scale(.01563)"/><path id="DejaVuSans-53" d="M3425 4513v-616q-359 172-678 256-319 85-616 85-515 0-795-200t-280-569q0-310 186-468 186-157 705-254l381-78q706-135 1042-474t336-907q0-679-455-1029Q2797-91 1919-91q-331 0-705 75-373 75-773 222v650q384-215 753-325 369-109 725-109 540 0 834 212 294 213 294 607 0 343-211 537t-692 291l-385 75q-706 140-1022 440-315 300-315 835 0 619 436 975t1201 356q329 0 669-60 341-59 697-177z" transform="scale(.01563)"/><path id="DejaVuSans-f6" d="M1959 3097q-462 0-731-361t-269-989q0-628 267-989 268-361 733-361 460 0 728 362 269 363 269 988 0 622-269 986-268 364-728 364zm0 487q750 0 1178-488 429-487 429-1349 0-859-429-1349Q2709-91 1959-91q-753 0-1180 489-426 490-426 1349 0 862 426 1349 427 488 1180 488zm295 1266h634v-631h-634v631zm-1222 0h634v-631h-634v631z" transform="scale(.01563)"/><path id="DejaVuSans-6d" d="M3328 2828q216 388 516 572t706 184q547 0 844-383 297-382 297-1088V0h-578v2094q0 503-179 746-178 244-543 244-447 0-707-297-259-296-259-809V0h-578v2094q0 506-178 748t-550 242q-441 0-701-298-259-298-259-808V0H581v3500h578v-544q197 322 472 475t653 153q382 0 649-194 267-193 395-562z" transform="scale(.01563)"/><path id="DejaVuSans-43" d="M4122 4306v-665q-319 297-680 443-361 147-767 147-800 0-1225-489t-425-1414q0-922 425-1411t1225-489q406 0 767 147t680 444V359q-331-225-702-338-370-112-782-112-1060 0-1670 648-609 649-609 1771 0 1125 609 1773 610 649 1670 649 418 0 788-111 371-111 696-333z" transform="scale(.01563)"/><path id="DejaVuSans-42" d="M1259 2228V519h1013q509 0 754 211 246 211 246 645 0 438-246 645-245 208-754 208H1259zm0 1919V2741h935q462 0 688 173 227 174 227 530 0 353-227 528-226 175-688 175h-935zm-631 519h1613q722 0 1112-300 391-300 391-853 0-429-200-682t-588-315q466-100 724-418 258-317 258-792 0-625-425-966Q3088 0 2303 0H628v4666z" transform="scale(.01563)"/><path id="DejaVuSans-59" d="M-13 4666h679l1293-1919 1285 1919h678L2272 2222V0h-634v2222L-13 4666z" transform="scale(.01563)"/></defs><use xlink:href="#DejaVuSans-40"/><use xlink:href="#DejaVuSans-6e" x="100"/><use xlink:href="#DejaVuSans-73" x="163.379"/><use xlink:href="#DejaVuSans-63" x="215.479"/><use xlink:href="#DejaVuSans-68" x="270.459"/><use xlink:href="#DejaVuSans-6c" x="333.838"/><use xlink:href="#DejaVuSans-6f" x="361.621"/><use xlink:href="#DejaVuSans-65" x="422.803"/><use xlink:href="#DejaVuSans-20" x="484.326"/><use xlink:href="#DejaVuSans-2f" x="516.113"/><use xlink:href="#DejaVuSans-20" x="549.805"/><use xlink:href="#DejaVuSans-73" x="581.592"/><use xlink:href="#DejaVuSans-74" x="633.691"/><use xlink:href="#DejaVuSans-61" x="672.9"/><use xlink:href="#DejaVuSans-63" x="734.18"/><use xlink:href="#DejaVuSans-6b" x="789.16"/><use xlink:href="#DejaVuSans-6f" x="843.445"/><use xlink:href="#DejaVuSans-76" x="904.627"/><use xlink:href="#DejaVuSans-65" x="963.807"/><use xlink:href="#DejaVuSans-72" x="1025.33"/><use xlink:href="#DejaVuSans-66" x="1066.443"/><use xlink:href="#DejaVuSans-6c" x="1101.648"/><use xlink:href="#DejaVuSans-6f" x="1129.432"/><use xlink:href="#DejaVuSans-77" x="1190.613"/><use xlink:href="#DejaVuSans-2d" x="1272.4"/><use xlink:href="#DejaVuSans-74" x="1308.484"/><use xlink:href="#DejaVuSans-72" x="1347.693"/><use xlink:href="#DejaVuSans-65" x="1386.557"/><use xlink:href="#DejaVuSans-6e" x="1448.08"/><use xlink:href="#DejaVuSans-64" x="1511.459"/><use xlink:href="#DejaVuSans-73" x="1574.936"/><use xlink:href="#DejaVuSans-20" x="1627.035"/><use xlink:href="#DejaVuSans-7c" x="1658.822"/><use xlink:href="#DejaVuSans-20" x="1692.514"/><use xlink:href="#DejaVuSans-4e" x="1724.301"/><use xlink:href="#DejaVuSans-69" x="1799.105"/><use xlink:href="#DejaVuSans-63" x="1826.889"/><use xlink:href="#DejaVuSans-6f" x="1881.869"/><use xlink:href="#DejaVuSans-20" x="1943.051"/><use xlink:href="#DejaVuSans-53" x="1974.838"/><use xlink:href="#DejaVuSans-63" x="2038.314"/><use xlink:href="#DejaVuSans-68" x="2093.295"/><use xlink:href="#DejaVuSans-6c" x="2156.674"/><use xlink:href="#DejaVuSans-f6" x="2184.457"/><use xlink:href="#DejaVuSans-6d" x="2245.639"/><use xlink:href="#DejaVuSans-65" x="2343.051"/><use xlink:href="#DejaVuSans-72" x="2404.574"/><use xlink:href="#DejaVuSans-20" x="2445.688"/><use xlink:href="#DejaVuSans-7c" x="2477.475"/><use xlink:href="#DejaVuSans-20" x="2511.166"/><use xlink:href="#DejaVuSans-43" x="2542.953"/><use xlink:href="#DejaVuSans-43" x="2612.777"/><use xlink:href="#DejaVuSans-20" x="2682.602"/><use xlink:href="#DejaVuSans-42" x="2714.389"/><use xlink:href="#DejaVuSans-59" x="2777.492"/></g><g style="fill:#b0b0b0" transform="matrix(.14 0 0 -.14 72.244 17.838)" id="text_32"><defs><path id="DejaVuSans-44" d="M1259 4147V519h763q966 0 1414 437 448 438 448 1382 0 937-448 1373t-1414 436h-763zm-631 519h1297q1356 0 1990-564 635-564 635-1764 0-1207-638-1773Q3275 0 1925 0H628v4666z" transform="scale(.01563)"/><path id="DejaVuSans-4f" d="M2522 4238q-688 0-1093-513-404-512-404-1397 0-881 404-1394 405-512 1093-512 687 0 1089 512 402 513 402 1394 0 885-402 1397-402 513-1089 513zm0 512q981 0 1568-658 588-658 588-1764 0-1103-588-1761Q3503-91 2522-91q-984 0-1574 656-589 657-589 1763t589 1764q590 658 1574 658z" transform="scale(.01563)"/></defs><use xlink:href="#DejaVuSans-44"/><use xlink:href="#DejaVuSans-61" x="77.002"/><use xlink:href="#DejaVuSans-69" x="138.281"/><use xlink:href="#DejaVuSans-6c" x="166.064"/><use xlink:href="#DejaVuSans-79" x="193.848"/><use xlink:href="#DejaVuSans-20" x="253.027"/><use xlink:href="#DejaVuSans-6e" x="284.814"/><use xlink:href="#DejaVuSans-75" x="348.193"/><use xlink:href="#DejaVuSans-6d" x="411.572"/><use xlink:href="#DejaVuSans-62" x="508.984"/><use xlink:href="#DejaVuSans-65" x="572.461"/><use xlink:href="#DejaVuSans-72" x="633.984"/><use xlink:href="#DejaVuSans-20" x="675.098"/><use xlink:href="#DejaVuSans-6f" x="706.885"/><use xlink:href="#DejaVuSans-66" x="768.066"/><use xlink:href="#DejaVuSans-20" x="803.271"/><use xlink:href="#DejaVuSans-71" x="835.059"/><use xlink:href="#DejaVuSans-75" x="898.535"/><use xlink:href="#DejaVuSans-65" x="961.914"/><use xlink:href="#DejaVuSans-73" x="1023.438"/><use xlink:href="#DejaVuSans-74" x="1075.537"/><use xlink:href="#DejaVuSans-69" x="1114.746"/><use xlink:href="#DejaVuSans-6f" x="1142.529"/><use xlink:href="#DejaVuSans-6e" x="1203.711"/><use xlink:href="#DejaVuSans-73" x="1267.09"/><use xlink:href="#DejaVuSans-20" x="1319.189"/><use xlink:href="#DejaVuSans-6f" x="1350.977"/><use xlink:href="#DejaVuSans-6e" x="1412.158"/><use xlink:href="#DejaVuSans-20" x="1475.537"/><use xlink:href="#DejaVuSans-53" x="1507.324"/><use xlink:href="#DejaVuSans-74" x="1570.801"/><use xlink:href="#DejaVuSans-61" x="1610.01"/><use xlink:href="#DejaVuSans-63" x="1671.289"/><use xlink:href="#DejaVuSans-6b" x="1726.27"/><use xlink:href="#DejaVuSans-4f" x="1784.18"/><use xlink:href="#DejaVuSans-76" x="1862.891"/><use xlink:href="#DejaVuSans-65" x="1922.07"/><use xlink:href="#DejaVuSans-72" x="1983.594"/><use xlink:href="#DejaVuSans-66" x="2024.707"/><use xlink:href="#DejaVuSans-6c" x="2059.912"/><use xlink:href="#DejaVuSans-6f" x="2087.695"/><use xlink:href="#DejaVuSans-77" x="2148.877"/></g><path d="m96.096 323.95 36.23-.014 19.199.014 36.16-.016 14.897-.078 2.133-.04 4.266.043 14.828-.105 4.301.065 4.267-.456 2.133.09 2.168-.127 2.098-.335 2.099.027 2.133.186 8.568.15 2.133-.18 2.133.012 2.133-.214 2.133.235 2.169-.266 2.063.062 2.063-.322 2.133.226 2.133-1.663 2.134-1.321 2.133.382 2.168-.371 2.133.416 2.133-.599 2.134-.922 2.133.992 4.231-.83 2.064-.704 2.133.006 2.133-.126 2.133.076 2.133-.896 2.169-.448 2.133.206 2.133-1.131 2.133.03 2.133 1.196 2.169-1.52 4.126-.267 4.267-.224 2.133-.85 2.133-1.211 2.168 1.058 2.133-.789 2.134-.22 2.133-.46 2.133 1.427 2.168-1.801 2.098-.336 2.099-.89 2.133-2.384 2.133.435 2.133 1.02 2.134 1.664 2.168.344 2.133-.972 2.133.06 2.133-.588 2.134 2.067 2.168-1.198 2.063.093 2.063-.388 2.133-.169 2.134.127 2.133-.728 2.133 1.12 4.301-.613 2.134.943 2.133-1.16 2.133 1.854 2.168-1.303 2.064-.606 2.063.03 2.133.865 2.133.552 2.133.165 2.134-.628 2.168-1.002 2.133.942h0" clip-path="url(#p5112f78303)" style="fill:none;stroke:#98df8a;stroke-width:1.5;stroke-linecap:square" id="line2d_25"/><path d="m49.83 320.528 1.644 1.298 2.133.248 2.133.58 2.168-.954 2.063-.327 2.064-.444 2.133-.304 2.133-.04 2.133-.3 2.134-.134 2.168.07 2.133-.414 2.133-1.282 2.133-1.586 2.134 1.046 2.168-.925 2.063-1.134 2.063.188 2.134-.754 2.133.32 2.133-.132 4.301-1.208 2.134-.421 2.133-.097 2.133-2.01 2.133 1.842 2.168.028 2.064-2.474 2.063-2.047 2.133-.015 2.133 1.998 2.133-.014 2.134 1.192 4.301-2.27 2.133-1.116 2.133-.949 2.134 1.86 2.168-1.57 2.098-2.444 2.098-1.123 2.134-.127 2.133 1.907 2.133.628 2.133.115 2.168.386 2.134-2.044 2.133-3.739 2.133-1.034 2.133 5.079 2.168-2.37 2.064-3.757 2.063-.098 2.133-1.52 2.133 3.259 2.134 1.088 2.133.23 2.168.077 2.133-3.538 2.133-5.133 2.134-1.32 2.133 6.5 2.168-1.682 2.063-4.645 2.063-1.243 2.134 2.982 2.133 6.214 2.133 2.818 2.133.182 2.168 1.142 2.134-4.692 2.133-3.263 2.133.025 2.133 4.587 2.168-.406 2.064-3.651 2.063-1.277 2.133-1.165 2.133 3.962 2.134 1.731 2.133 3.231 2.168 1.675 2.133-4.363 2.133-3.417 2.134-.414 2.133 4.578 2.168.273 2.098-3.196 2.099.308 2.133-.051 2.133 5.231 2.133 2.403 2.133.254 2.169.91 2.133-2.678 2.133-4.358 2.133-1.132 2.133 4.068 2.169.26 2.063-1.844 2.063.344 2.133.12 2.133 1.527 2.134 2.087 2.133 2.756 2.168.007 2.133-.858 2.133-4.399 2.134-1.844 2.133 6.022 2.168-.182 2.063-1.032 2.064-.784 2.133 1.444 2.133-.743 2.133 3.394 2.133 1.758 2.169-.73 2.133-1.68 2.133-4.137 2.133-1.121 2.133 2.79 2.169-.568 2.063.113 2.063-.905 2.133-1.278 2.134 2.897 2.133 1.542 2.133.035 2.168 1.486 2.133-4.374 2.134-3.687 2.133-1.057 2.133 4.148 2.168.736 2.098-.17 2.099-3.278 2.133-7.346 2.133.33 2.133 6.109 2.134 4.566 2.168 1.633 2.133-3.172 2.133-1.51 2.133-3.27 2.134 3.816 2.168-2.081 2.063.958 2.063-.426 2.133 1.166 2.134 1.87 2.133 1.643 2.133 3.354 2.168.462 2.133-2.15 2.134-2.82 2.133-2.17 2.133 2.08 2.168 1.5 2.064.209 2.063-.595 2.133 1.057 2.133.19 2.133 3.337 2.134.295 2.168-.148 2.133-1.733h0" clip-path="url(#p5112f78303)" style="fill:none;stroke:#ffbb78;stroke-width:1.5;stroke-linecap:square" id="line2d_26"/><path d="m123.793 323.95 23.43-.238 4.302-.001 2.133-.329 4.266-.042 2.168-.098 4.127.077 2.133-.528 2.133.297 2.134-.13 2.133.186 4.301.11 2.133-.11 2.134-.454 2.133-.584 2.168-.168 2.063-.045 2.063.389 2.134.147 2.133.322 2.133-.199 6.435.109 2.133-.078 4.266.358 2.168.217 2.064-.163 2.063.149 2.133-.128 4.267.354 2.133-.093 2.168.245 4.266-.09 2.134-.09 2.133.278 4.266-.232 4.232.207 2.133.095 2.133-.19 2.133.134 2.169-.14 6.4.123 8.427-.08 2.133.029 2.133-.366 4.267.02 4.301.216 2.133-.124 2.134.153 4.301.043 2.063-.35 2.064-1.29 8.532-1.409 2.169-.189 2.133.153 2.133-.202 2.133.238 2.133-.54 2.169-1.962 4.126.736 2.133-.98 2.134-.24 2.133.197 2.133-1.472 2.168-.295 2.133.145 2.134.353 4.266-.603 2.168-.904 2.098-.602 2.099.357 2.133-4.989 2.133-1.985 2.133.645 2.134.89 2.168.098 2.133 1.431 2.133-.05 2.133.659 2.134 1.29 6.294-3.723 2.133-.023 2.134-.229 2.133.179 2.133 1.79 2.168-.882 2.133-.097 2.134 1.029 2.133.84 2.133-.153 2.168-1.57 2.064-1.051 2.063.21 2.133 1.347 2.133-.612 2.133.032 2.134-1.04 2.168-.26 2.133 1.163h0" clip-path="url(#p5112f78303)" style="fill:none;stroke:#aec7e8;stroke-width:1.5;stroke-linecap:square" id="line2d_27"/><path d="m55.74 323.95 36.09-.007 102.184-.063 2.133-17.392 2.133 5.925 2.168-.414 2.134-1.875 2.133-3.494 2.133-1.308 2.133 1.077 4.232-7.67 2.063-.082 2.133-3.972 2.133 2.542 4.267-9.504 2.168.533 2.133 2.605 2.133 2.848 2.134-1.139 2.133.592 2.168-2.93 2.098-2.004 2.099-.021 2.133 1.14 2.133 3.437 2.133-3.763 4.302.363 2.133-.863 2.133 2.167 2.133 1.549 2.133 4.03 2.169-2.81 2.063-1.104 2.063-.887 2.133 3.994 2.133-.356 2.134-1.629 2.133-.089 2.168 1.087 2.133 2.008 2.133.01 2.134.722 2.133 4.115 2.168-3.82 2.063-.212 2.064-1.968 2.133 2.515 2.133.61 2.133 2.482 2.133-4.892 2.169-.533 2.133 2.992 2.133-.181 2.133 1.427 2.133 2.344 2.169-1.1 2.063-.6 2.063.193 2.133-2.206 2.134.152 2.133-1.89 2.133-.843 2.168 4.548 2.133-.526 2.134-3.665 2.133.203 2.133 3.33 6.365-3.561 2.133-4.991 2.133.575 2.133 2.003 2.134 2.266 2.168 2.74 2.133 1.114 2.133 2.335 2.133.736 2.134 3.68 2.168-4.087 2.063-1.632 2.063.91 2.133 1.998 2.134 3.049 2.133.124 2.133-.257 2.168.238 2.133 1.279 4.267 1.666 2.133.622 2.168-2.34 2.064-.491 2.063.014 2.133 1.58 4.266 1.542 2.134-.697 2.168-.12 2.133-.697h0" clip-path="url(#p5112f78303)" style="fill:none;stroke:#17becf;stroke-width:1.5;stroke-linecap:square" id="line2d_28"/><path d="m151.525 323.95 2.133-1.942 2.133.906 2.133.468 2.168-.105 2.064.13 2.063-.27 2.133.132 2.133.148 2.134-.148 2.133-.076 2.168.007 2.133.127 2.133.048 2.134-.077 2.133-.203 2.168-.176 2.063.107 2.063.09 2.134-.18 2.133.047 2.133.2 2.133-.362 2.168.274 2.134.022 2.133-.162 2.133.22 2.133-.066 2.168-.154 2.064-.006 2.063-.107 2.133-.16 2.133-.463 2.134-.145 2.133-.15 2.168-.056 2.133-.091 2.133-.182 2.134-.586 2.133-.585 2.168-.82 2.098-1.259 2.099-.283 2.133-.928 2.133-.642 2.133-.567 2.133-.968 2.169-.63 2.133-.17 2.133-.665 2.133.246 2.133.413 2.169-1.107 2.063-1.169 2.063-.794 2.133.267 2.133-.82 2.134-.209 2.133-.037 2.168-.932 2.133 1.042 2.133.542 2.134-1.462 2.133 2.29 2.168-1.613 2.063-1.494 2.064-.37 2.133.39 2.133.45 2.133-.414 2.133-.756 2.169-1.83 2.133.957 2.133-1.32 2.133 1.544 2.133 1.182 2.169-2.74 2.063-2.339 2.063 1.644 2.133-1.064 2.134.7 2.133.343 2.133-1.927 2.168 1.766 2.133-.752 2.134-.86 2.133-2.073 2.133 2.95 2.168-.61 2.098-2.48 2.099-.773 2.133-5.062 2.133.66 2.133.832 2.134.402 2.168 2.923 2.133-.826 2.133.616 2.133 1.34 2.134 2.522 2.168-2.65 2.063-1.633 2.063-1.836 2.133 1.083 2.134 1.938 2.133-1.3 2.133 1.202 2.168-.631 2.133-.948 2.134.212 2.133.881 2.133 1.27 2.168-2.214 2.064-2.955 2.063 1.28 2.133 1.598 2.133.266 2.133-.179 2.134-1.174 2.168-1.542 2.133 1.065" clip-path="url(#p5112f78303)" style="fill:none;stroke:#bcbd22;stroke-width:1.5;stroke-linecap:square" id="line2d_29"/><path d="m49.83 315.707 1.644 2.544 2.133.368 2.133.894 2.168-1.542 2.063-.586 2.064-.837 2.133-.007 2.133-1.142 2.133-.531 2.134-1.2 2.168.448 2.133-.784 2.133-1.22 2.133-.888 2.134 1.098 2.168-2.418 2.063-3.624 2.063.575 2.134-.961 2.133 1.08 2.133-3.506 2.133 1.642 2.168.329 2.134-1.363 2.133-.705 2.133-3.858 2.133 2.407 2.168-2.558 2.064-2.239 2.063-2.562 2.133-.907 2.133 2.954 2.133-.398 2.134.699 2.168-.75 2.133-.868 4.266-3.97 2.134 1.95 2.168-1.338 2.098-6.427 2.098 1.471 2.134-1.74 2.133 3.527 2.133 1.247 2.133-3.251 2.168.918 2.134.594 2.133-5.837 2.133-4.078 2.133 5.62 2.168-2.614 2.064-4.959 2.063-3.172 2.133-1.386 2.133 3.91 2.134 3.065 2.133-1.138 2.168 2.278 2.133-3.733 2.133-8.526 2.134-2.99 2.133 9.824 2.168-4.773 2.063-5.72 2.063-1.156 2.134 1.876 2.133 11.245 2.133 6.47 2.133-2.818 2.168 2.733 2.134-3.732 2.133-2.968 2.133.31 2.133 5.023 2.168-.455 2.064-7.077 2.063-1.558 2.133.004 2.133 3.949 2.134.643 2.133.184 2.168 5.845 2.133-1.633 2.133-6.588 2.134-1.987 2.133 5.393 2.168 3.245 2.098-6.409 2.099-.242 2.133-.633 2.133 7.032 2.133 1.53 4.302 6.397 2.133-2.19 2.133-4.665 2.133-2.237 2.133 7.48 2.169-2.965 2.063-.584 2.063-3.502 2.133 1.135 2.133 5.39 2.134 3.244 2.133-1.288 2.168 1.696 2.133 1.134 2.133-4.21 2.134.09 2.133 5.194 4.231-4.258 2.064-.894 2.133 2.528 2.133.942 2.133 3.295 2.133 1.212 2.169-.771 2.133.414 2.133-3.52 2.133-1.535 2.133 6.849 2.169-2.397 2.063-1.987 2.063-2.752 2.133-1.596 2.134 3.748 2.133 1.35 2.133-5.87 2.168 7.927 2.133-5.316 2.134-7.623 2.133-.402 2.133 6.318 2.168.28 2.098-2.569 2.099-3.333 2.133-14.189 2.133 1.202 2.133 5.824 2.134 5.306 2.168 3.939 2.133 3.277 2.133-2.338 2.133-1.261 2.134 5.25 2.168-2.09 2.063-2.858 2.063.567 2.133 1.499 2.134-.259 2.133 2.649 2.133 4.662 2.168 1.934 2.133-4.423 2.134-.988 2.133-1.467 2.133 4.481 2.168-.673 2.064-.346 2.063.283 2.133-1.442 2.133.475 2.133 7.535 2.134-1.774 2.168-.322 2.133.199h0" clip-path="url(#p5112f78303)" style="fill:none;stroke:#7f7f7f;stroke-width:1.5;stroke-linecap:square" id="line2d_30"/><path d="m49.83 318.803 1.644 1.404 2.133.737 2.133.013 4.231-2.19 2.064.557 2.133-.77 2.133-.527 2.133-.777 2.134-.926 2.168.357 2.133-2.552 2.133-.539 2.133 1.545 2.134.495 2.168-.484 2.063-1.207 2.063-.236 2.134.65 2.133-.566 2.133-1.621 2.133-1.064 2.168-.567 2.134.813 2.133-.386 2.133-1.324 2.133 1.037 2.168-3.224 2.064-.061 2.063-2.077 2.133 1.986 2.133-2.379 2.133-.25 2.134.51 4.301-.04 2.133.551 2.133-2.347 2.134 2.41 2.168-1.52 2.098-3.99 2.098-1.674 2.134 1.153 2.133-.487 2.133.704 2.133-2.225 2.168.224 2.134-.215 2.133-2.658 2.133-2.448 2.133 4.08 2.168-5.501 2.064-2.912 2.063-1.238 2.133.16 2.133 1.62 2.134.67 2.133-3.578 2.168.224 4.266-10.275 2.134.396 2.133 3.795 2.168-5.705 2.063-4.585 2.063-.335 2.134-2.39 2.133 9.16 2.133 1.414 2.133-1.967 2.168 4.555 2.134-2.392 2.133 7.803 2.133 7.218 2.133 1.565 2.168-1.858 2.064-2.628 2.063-1.114 2.133-.44 2.133 2.626 2.134-1.584 2.133.246 2.168 2.768 4.266.203 2.134-.53 2.133 2.037 2.168-1.745 2.098-3.646 2.099-.854 2.133-.087 2.133 1.833 2.133-1.927 2.133 5.354 2.169-.652 2.133.028 2.133-.946 2.133-2.002 2.133 5.1 2.169-1.493 2.063-3.733 2.063-3.213 2.133 3.455 2.133-1.934 2.134 1.08 2.133 1.268 2.168 1.5 2.133 1.62 2.133-1.655 2.134-1.119 2.133 7.049 2.168-3.463 2.063-2.338 2.064-1.363 2.133-.964 2.133.712 2.133 1.49 2.133-.852 2.169.568 2.133 3.746 2.133-3.585 2.133.695 2.133 5.508 2.169-3.4 2.063-4.86 2.063.164 2.133 1.422 4.267 4.251 2.133-4.607 2.168 4.436 2.133-3.225 2.134-2.83 2.133-1.422 2.133 4.92 2.168-1.991 2.098-3.557 2.099.487 2.133-5.197 2.133 1.587 2.133 1.904 2.134 3.128 2.168 3.954 2.133-2.816 2.133-.458 2.133-.331 2.134 5.567 2.168-.645 2.063-3.142 2.063-1.708 2.133 1.355 2.134 2.325 2.133-2.325 2.133 4 2.168-.084 2.133.248 2.134 1.413 2.133-.696 2.133 1.72 2.168.259 2.064-4.008 2.063.678 2.133.446 2.133.213 2.133 3.959 4.302-2.003 2.133-.257h0" clip-path="url(#p5112f78303)" style="fill:none;stroke:#e377c2;stroke-width:1.5;stroke-linecap:square" id="line2d_31"/><path d="m49.83 318.735 1.644.87 2.133.695 2.133.285 2.168-1.1 2.063-1.503 2.064-.375 2.133-.668 2.133-1.288 2.133-3.152 2.134-2.813 4.301-2.177 2.133-.15 2.133-2.914 2.134-.338 2.168-4.31 2.063-.446 2.063-1.741 2.134-.147 2.133-1.521 2.133-1.694 2.133-2.645 2.168-3.827 2.134 2.112 2.133 2.297 2.133-5.412 2.133-.714 4.232-14.505 2.063-4.84 2.133 1.395 2.133-1.29 2.133-1.477 2.134-2.791 2.168-1.718 2.133 4.133 2.133 1.91 2.133-6.372 2.134 4.479 2.168-6.974 2.098-9.365 2.098-2.01 2.134.978 2.133-1.112 2.133.105 2.133-5.86 2.168-.869 2.134 3.934 2.133-3.205 2.133-2.618 2.133 7.742 2.168-13.009 2.064-8.184 2.063-1.376 2.133 2.08 2.133 5.335 2.134-.092 2.133-8.452 2.168.183 2.133-2.914 2.133-4.34 2.134-.36 2.133 6.843 2.168-17.257 2.063-10.697 2.063-.279 2.134.343 2.133 24.855 2.133 9.352 2.133-5.743 2.168 7.717 2.134-4.154 2.133 1.288 2.133 1.138 2.133 7.833 2.168-8.796 2.064-9.234 2.063.087 2.133-3.948 2.133 6.527 2.134-1.986 2.133-3.81 2.168 8.095 2.133 1.908 2.133.398 2.134 1.087h2.133l2.168-5.762 2.098-9.77 2.099 5.86 2.133 1.089 2.133 3.789 2.133 2.41 2.133 8.482 2.169.343 2.133 2.271 2.133 1.998 2.133-.57 2.133 6.19 2.169-8.158 2.063-8.716 2.063-1.552 2.133 8.636 2.133-1.403 2.134 6.125 2.133 2.728 2.168 1.023 2.133 4.194 2.133 1.547 2.134-.78 2.133 12.779 2.168-7.107 2.063.015 2.064 1.947 2.133 4.114 2.133-1.401 2.133 5.102 2.133-2.95 2.169-1.85 2.133 4.062 2.133-2.29 2.133 5.158 2.133 9.688 2.169-8.054 2.063-6.984 2.063 2.127 2.133 1.774 2.134 3.595 2.133 1.83 2.133-9.288 2.168 8.58 2.133-.473 2.134-2.941 2.133-2.259 2.133 10.572 2.168-6.056 2.098-2.937 2.099 1.78 2.133-13.288 2.133 4.135 2.133 4.882 2.134 4.187 2.168 8.586 2.133-.67 2.133 3.593 2.133-1.617 2.134 9.642 2.168-9.833 2.063-1.371 2.063 1.378 2.133 1.937 2.134 2.738 2.133.058 2.133 5.276 2.168-.49 2.133 1.044 2.134 1.548 2.133 2.443 2.133 2.674 2.168-3.89 2.064-.81 2.063 2.681 2.133-1.111 2.133-.438 2.133 7.73 2.134-4.8 2.168-.357 2.133 2.138h0" clip-path="url(#p5112f78303)" style="fill:none;stroke:#8c564b;stroke-width:1.5;stroke-linecap:square" id="line2d_32"/><path d="m49.83 323.868 1.644.082 16.96-.036 2.134-.322 2.168.028 2.133-.677 2.133.495 2.133-.169 2.134.12 2.168-.098 2.063-.288 2.063-.027 2.134-.185 2.133.185 6.434-1.01 4.267.484 2.133-.253 2.133.19 2.168-.19 2.064-.746 4.196-.949 2.133.448 2.133-.216 2.134.034 2.168-.932 2.133-.319 2.133.08 2.133-.05 2.134.1 2.168-.533 2.098-1.263 2.098-.146 2.134.11 2.133-.047 4.266-1.696 2.168.224 2.134-.023 2.133-1.21 2.133-.876 2.133 1.219 2.168-2.06 2.064-2.394 2.063-.011 2.133-.368 2.133.83 2.134-.352 2.133-.972 2.168.35 2.133 1.07 2.133-2.29 2.134-1.142 2.133 2.489 2.168-3.14 2.063-3.82 2.063.532 2.134-.074 2.133 1.665 2.133.805 2.133-1.162 2.168 1.135 2.134.194 2.133-2.317 2.133-.146 2.133 3.11 2.168-2.383 2.064-4.161 2.063-1.908 2.133.88 2.133.08 2.134-.84 2.133-3.043 2.168 3.434 2.133.333 2.133-1.686 2.134.158 2.133 3.375 2.168-2.551 2.098-2.154 4.232-3.008 2.133 3.388 2.133-1.382 2.133 1.719 2.169-.274 2.133 2.69 2.133-2.661 2.133.742 2.133 3.715 2.169-2.446 2.063-4.094 2.063-3.721 2.133 1.426 2.133.593 2.134-2.027 4.301.225 2.133 1.455 2.133-1.286 2.134-.858 2.133 6.717 2.168-3.371 2.063-5.594 2.064-.742 2.133 1.353 2.133 1.219 2.133.556 2.133.37 2.169.244 2.133 1.53 2.133-3.597 2.133-.677 2.133 8.211 2.169-5.144 2.063-6.38 2.063 1.95 2.133-2.613 2.134 3.496 2.133 1.617 2.133-3.58 2.168 3.498 2.133-.852 2.134-4.012 2.133.42 2.133 6.526 2.168-2.937 2.098-6.834 2.099-1.5 2.133-11.051 2.133 3.362 2.133 2.83 2.134 6.296 2.168 3.35 2.133-3.454 2.133-1.718 2.133.589 2.134 7.892 2.168-2.446 2.063-3.995 2.063-3.218 2.133 2.303 2.134 2.723 2.133 1.673 2.133 3.352 4.301.972 2.134-1.946 2.133.468 2.133 5.476 2.168-2.152 2.064-4.25 2.063-1.939 2.133 1.221 2.133.615 2.133 3.89 2.134.61 2.168-1.353 2.133 1.605h0" clip-path="url(#p5112f78303)" style="fill:none;stroke:#9467bd;stroke-width:1.5;stroke-linecap:square" id="line2d_33"/><path d="m49.83 306.554 1.644 3.448 4.266 2.775 2.168-5.474 2.063-3.506 2.064-2.01 2.133-1.897 2.133-.906 2.133-3.18 2.134-2.757 4.301-.668 2.133-1.568 2.133-.757 2.134 2.376 2.168-4.366 2.063-3.752 2.063-2.704 2.134.436 2.133.21 2.133-2.934 2.133-2.282 2.168-1.955 2.134 2.434 2.133-.878 2.133-5.749 2.133 3.177 2.168-6.337 2.064-7.878 2.063-6.266 2.133 2.797 2.133-3.091 2.133-.487 2.134 3.43 2.168-3.154 2.133 3.143 2.133 2.808 2.133-7.161 2.134 6.467 4.266-15.666 2.098-.805 2.134.842 2.133-.555 2.133-.727 2.133-4.438 2.168 2.803 2.134 2.229 2.133-7.57 2.133.588 2.133 11.853 2.168-13.043 2.064-8.133 2.063-2.493 2.133-.714 2.133 6.3 2.134 1.848 2.133-6.831 2.168 2.551 2.133-2.687 2.133-6.803 2.134.726 2.133 10.334 2.168-12.119 2.063-9.8 2.063 3.64 2.134 2.535 2.133 13.466 2.133 6.813 2.133-5.264 2.168 8.446 2.134-1.726 2.133 1.235 2.133 2.147 2.133 8.143 2.168-4.55 2.064-9.09 2.063-1.45 2.133-1.896 2.133 1.117 2.134-4.405 2.133-.88 2.168 6.323 2.133-.728 2.133 3.889 2.134-.065 2.133 4.53 2.168-1.41 2.098-8.921 2.099.027 2.133-4.054 2.133 4.846 2.133-.037 2.133 10.544 2.169-5.026 2.133 8.728 2.133.202 2.133-4.15 2.133 9.498 2.169-7.1 2.063-7.386 2.063-1.761 2.133 10.856 2.133-3.847 2.134 2.138 2.133 3.343 2.168 1.787 2.133 5.198 2.133-.074 2.134.596 2.133 10.71 2.168-5.503 2.063-.791 2.064-2.139 2.133 1.815 2.133-2.796 2.133 6.12 2.133-6.26 2.169-3.343 2.133 5.931 2.133-5.167 2.133 4.059 2.133 9.72 2.169-9.644 2.063-4.83 2.063 2.7 2.133-4.718 2.134 3.28 2.133 5.172 2.133-9.524 2.168 8.943 2.133-3.96 2.134-3.638 2.133.582 2.133 12.455 2.168-6.182 2.098-5.105 2.099 1.685 2.133-10.907 4.266 10.487 2.134 3.118 2.168 5.32 2.133 2.289 2.133 3.795 2.133-.05 2.134 11.734 2.168-11.46 2.063-2.933 2.063.655 2.133 3.314 2.134 2.903 2.133-.78 2.133 6.773 2.168.19 2.133-.923 2.134.06 2.133-4.754 2.133 7.13 2.168-1.458 2.064-4.116 2.063.374 2.133 2.633 2.133-1.246 2.133 5.259 2.134-2.448 2.168-2.867 2.133 2.838h0" clip-path="url(#p5112f78303)" style="fill:none;stroke:#d62728;stroke-width:1.5;stroke-linecap:square" id="line2d_34"/><path d="m49.83 311.212 1.644 4.663 4.266 2.236 2.168-2.243 2.063-1.292 2.064-.726 2.133-1.018 2.133-1.66 2.133-2.577 2.134-.528 2.168.505 2.133-1.041 2.133-1.174 2.133-2.426 2.134 1.158 2.168-7.31 2.063-1.664 2.063-3.39 2.134 3.007 2.133-1.101 2.133-1.825 2.133-.593 2.168-1.325 4.267-2.257 2.133-5.363 2.133.8 2.168-6.16 2.064-7.603 2.063-6.114 2.133 2.238 2.133-2.827 2.133 2.732 2.134.163 2.168-3.757 2.133.618 2.133.335 2.133-9.954 2.134 5.293 2.168-6.665L136.592 241l2.098-4.867 2.134-.14 2.133 1.787 2.133 5.094 2.133-5.396 2.168.155 2.134 1.758 2.133-10.492 2.133-4.008 2.133 11.543 2.168-9.315 2.064-10.941 2.063-4.83 2.133-5.983 2.133 10.49 2.134 6.182 2.133-5.347 2.168 1.072 2.133-12.325 2.133-13.798 2.134-4.533 2.133 13.708 2.168-8.712 2.063-18.868 2.063-4.633 2.134 2.832 2.133 25.512 2.133 10.665 2.133-6.382 2.168 11.579 2.134-10.962 2.133-4.41 2.133-3.832 2.133 14.599 2.168-1.164 2.064-14.063 2.063-8.527 2.133-4.846 2.133 13.635 2.134.626 2.133-1.831 2.168 11.48 2.133-3.072 2.133-7.21 2.134 1.097 2.133 12.907 2.168-.694 2.098-17.095 2.099-6.013 2.133-1.592 2.133 21.694 2.133 4.279 2.133 10.678 2.169-1.605 2.133.096 2.133-1.267 2.133-5.932 2.133 16.41 2.169-5.095 2.063-11.004 2.063-8.48 2.133 6.112 2.133.854 2.134 8.64 2.133 6.738 2.168 3.042 2.133 3.772 2.133-5.826 2.134-4.763 2.133 18.928 2.168-2.376 2.063-6.853 2.064-1.656 2.133-2.712 2.133 3.161 2.133 9.137 2.133-4.357 2.169.372 2.133 1.03 2.133-12.399 2.133 3.258 2.133 13.529 2.169-5.23 2.063-8.758 2.063-.696 2.133 2.829 2.134 3.416 2.133 5.593 2.133-13.85 2.168 15.721 2.133-7.455 2.134-11.84 2.133 2.78 2.133 16.06 2.168-6.014 2.098-6.97 2.099-7.826 2.133-22.49 2.133 11.17 2.133 12.586 2.134 7.677 2.168 10.69 2.133-1.318 2.133 1.612 2.133.047 2.134 20.258 2.168-10.416 2.063-5.128 2.063-2.904 2.133 5.172 2.134.828 2.133 2.373 2.133 11.47 2.168 1.29 2.133-2.092 2.134 2.028 2.133-5.7 2.133 8.427 2.168-1.837 2.064-4.505 2.063.363 2.133.594 2.133 2.224 2.133 12.885 2.134-3.584 4.301-.48h0" clip-path="url(#p5112f78303)" style="fill:none;stroke:#2ca02c;stroke-width:1.5;stroke-linecap:square" id="line2d_35"/><path d="m49.83 317.241 1.644 1.62 2.133.895 2.133-.194 2.168-1.156 2.063-1.82 2.064.313 2.133-.547 2.133-2.446 2.133-1.233 2.134-.996 2.168-.743 2.133.356 2.133-1.66 2.133-1.817 2.134-.019 4.231-4.26 2.063-.506 4.267-1.633 2.133-2.541 2.133-2.001 4.302-1.83 2.133.07 2.133-4.061 2.133-1.805 2.168-3.49 2.064-5.367 2.063-3.934 2.133-2.562 2.133-1.286 2.133-4.5 2.134-1.157 2.168-5.607 4.266 6.056 2.133-6.572 2.134 4.525 2.168-8.971 2.098-7.763 2.098-.165 2.134-2.343 2.133-3.397 2.133-.673 2.133-5.011 2.168-.554 2.134 6.354 2.133-6.179 2.133-2.316 2.133 7.167 2.168-14.776 2.064-10.093 2.063-.96 2.133-3.79 2.133 6.02 2.134-.386 2.133-12.287 2.168.09 2.133-10.603 2.133-10.003 2.134 4.405 2.133 7.693 2.168-21.756 2.063-16.374 2.063 5.222 2.134 3.48 2.133 16.678 2.133 6.121 2.133-8.476 2.168 11.734 2.134-1.788 2.133-1.275 2.133 2.413 2.133 11.093 2.168-10.717 2.064-14.899 2.063.888 2.133-7.478 2.133-3.827 2.134-8.456 2.133-4.49 2.168 13.128 2.133-.056 2.133 2.299 2.134-1.104 2.133 6.276 2.168-10.093 2.098-10.654 2.099-.385 2.133-.976 2.133 8.644 2.133.663 2.133 5.035 2.169-3.35 2.133 10.96 2.133 4.656 2.133-5.33 2.133 9.809 2.169-11.243 2.063-14.285 2.063-1.772 2.133 12.234 2.133-3.087 2.134.573 2.133 4.866 2.168 1.703 2.133 12.19 2.133-1.83 2.134-1.169 2.133 21.557 2.168-13.885 2.063-.914 2.064-.361 2.133 3.975 2.133 3.223 2.133 2.209 2.133-8.881 2.169-6.168 2.133 9.849 2.133-7.396 2.133 4.76 2.133 19.96 2.169-13.47 2.063-11.681 2.063.27 2.133 3.95 2.134 4.551 2.133 1.026 2.133-14.728 2.168 9.988 2.133-.837 2.134-8.296 2.133-3.408 2.133 18.597 2.168-14.138 2.098-8.47 2.099-9.185 2.133-38.321 2.133 3.71 2.133 9.985 2.134 5.196 2.168 18 2.133 4.341 2.133 6.6 2.133 2.642 2.134 15.14 2.168-20.971 2.063-3.048 2.063-.611 2.133 5.202 2.134 6.054 2.133 1.53 2.133 10.96 2.168-.54 2.133-2.628 2.134 7.626 2.133-.745 2.133 8.644 2.168-9.56 2.064-7.82 2.063 6.033 2.133-1.114 2.133 3.98 2.133 17.43 2.134-9.769 2.168-4.275 2.133 5.584h0" clip-path="url(#p5112f78303)" style="fill:none;stroke:#ff7f0e;stroke-width:1.5;stroke-linecap:square" id="line2d_36"/><path d="m49.83 318.192 1.644 2.176 4.266.49 2.168-1.33 4.127-.94 2.133-.2 2.133-1.468 4.267-1.122 2.168.155 2.133-.463 2.133-1.514 2.133-1.325 2.134.154 2.168-2.537 2.063-.806 2.063-.042 2.134 1.37 2.133-.935 2.133-1.897 2.133-2.232 2.168.73 2.134 1.162 2.133-2.368 2.133-.254 2.133 1.53 4.232-6.004 2.063-2.92 2.133 2.078 6.4-1.523 2.168-1.136 2.133 1.398 2.133.039 2.133-2.646 2.134 2.674 4.266-8.364 2.098-1.687 2.134-.271 2.133-.15 2.133-2.414 2.133-1.931 2.168-.911 2.134 3.03 2.133-4.937 2.133-3.32 2.133 5.97 2.168-5.874 2.064-6.399 2.063-1.1 2.133-3.938 2.133 2.732 2.134-.292 2.133-5.35 2.168 4.766 2.133-2.016 2.133-8.918 2.134-2.192 2.133 9.502 2.168-9.7 2.063-7.969 2.063-3.21 2.134 1.961 2.133 13.108 2.133.429 2.133-5.168 2.168 5.874 2.134.286 2.133-3.643 2.133-2.209 2.133 6.043 2.168-4.556 2.064-11.204 2.063-2.33 2.133-1.584 2.133 4.408 2.134-6.906 2.133-.874 2.168 7.745 2.133-.81 2.133-8.134 2.134-1.578 2.133 7.55 2.168-4.962 2.098-12.8 2.099.625 2.133-.378 2.133 7.058 2.133-1.532 2.133 3.53 2.169-.456 2.133 1.047 2.133-5.316 2.133-8.054 2.133 11.362 2.169-8.712 2.063-14.704 2.063-5.426 2.133 6.811 2.133-.005 2.134-2.812 2.133-2.487 2.168 3.224 2.133 3.464 2.133-7.017 2.134-4.123 2.133 18.218 2.168-8.993 2.063-13.192 2.064 1.22 2.133 2.74 2.133-.503 2.133 1.655 2.133-15.176 2.169-.063 2.133 8.96 2.133-13.48 2.133-4.504 2.133 22.587 2.169-9.28 2.063-19.74 2.063-5.633 2.133-4.346 2.134 10.157 2.133-3.79 2.133-16.943 2.168 17.088 2.133 2.846 2.134-26.516 2.133-9.966 2.133 29.472 4.266-35.944 2.099-14.303 2.133-53.477 2.133-1.544 2.133 14.48 2.134 16.52 2.168 29.313 2.133 1.563 2.133-3.66 2.133-2.793 2.134 28.734 2.168-25.737 2.063-10.38 2.063-4.78 2.133 8.44 2.134 6.426 2.133 7.132 2.133 14.87 2.168 3.307 2.133 2.305 2.134-2.634 2.133-1.646 2.133 11.087 2.168-7.45 2.064-18.991 2.063 5.933 2.133-.69 2.133 7.93 2.133 23.8 2.134-15.424 2.168 2.004 2.133 6.315h0" clip-path="url(#p5112f78303)" style="fill:none;stroke:#1f77b4;stroke-width:1.5;stroke-linecap:square" id="line2d_37"/></g></g><defs><clipPath id="p5112f78303"><path d="M49.83 57.838h357.12V323.95H49.83z"/></clipPath></defs></svg>