<svg xmlns="http://www.w3.org/2000/svg" xmlns:xlink="http://www.w3.org/1999/xlink" width="660.203" height="560.674" viewBox="0 0 495.152 420.505"><defs><style>*{stroke-linejoin:round;stroke-linecap:butt}</style></defs><g id="figure_1"><path id="patch_1" d="M0 420.505h495.152V0H0v420.505z" style="fill:none"/><g id="axes_1"><path id="patch_2" d="M49.83 323.95h357.12V57.838H49.83V323.95z" style="fill:none"/><g id="matplotlib.axis_1"><g id="xtick_1"><g id="line2d_1"><defs><path id="ma3ef81b274" d="M0 0v3.5" style="stroke:#b0b0b0;stroke-width:.4"/></defs><use xlink:href="#ma3ef81b274" x="80.878" y="323.95" style="fill:#b0b0b0;stroke:#b0b0b0;stroke-width:.4"/></g><g id="text_1" style="fill:#b0b0b0" transform="matrix(.14 0 0 -.14 63.063 341.588)"><defs><path id="DejaVuSans-32" d="M1228 531h2203V0H469v531q359 372 979 998 621 627 780 809 303 340 423 576 121 236 121 464 0 372-261 606-261 235-680 235-297 0-627-103-329-103-704-313v638q381 153 712 231 332 78 607 78 725 0 1156-363 431-362 431-968 0-288-108-546-107-257-392-607-78-91-497-524-418-433-1181-1211z" transform="scale(.01563)"/><path id="DejaVuSans-30" d="M2034 4250q-487 0-733-480-245-479-245-1442 0-959 245-1439 246-480 733-480 491 0 736 480 246 480 246 1439 0 963-246 1442-245 480-736 480zm0 500q785 0 1199-621 414-620 414-1801 0-1178-414-1799Q2819-91 2034-91q-784 0-1198 620-414 621-414 1799 0 1181 414 1801 414 621 1198 621z" transform="scale(.01563)"/><path id="DejaVuSans-31" d="M794 531h1031v3560L703 3866v575l1116 225h631V531h1031V0H794v531z" transform="scale(.01563)"/></defs><use xlink:href="#DejaVuSans-32"/><use xlink:href="#DejaVuSans-30" x="63.623"/><use xlink:href="#DejaVuSans-31" x="127.246"/><use xlink:href="#DejaVuSans-30" x="190.869"/></g></g><g id="xtick_2"><use xlink:href="#ma3ef81b274" id="line2d_2" x="129.62" y="323.95" style="fill:#b0b0b0;stroke:#b0b0b0;stroke-width:.4"/><g id="text_2" style="fill:#b0b0b0" transform="matrix(.14 0 0 -.14 111.805 341.588)"><use xlink:href="#DejaVuSans-32"/><use xlink:href="#DejaVuSans-30" x="63.623"/><use xlink:href="#DejaVuSans-31" x="127.246"/><use xlink:href="#DejaVuSans-32" x="190.869"/></g></g><g id="xtick_3"><use xlink:href="#ma3ef81b274" id="line2d_3" x="178.429" y="323.95" style="fill:#b0b0b0;stroke:#b0b0b0;stroke-width:.4"/><g id="text_3" style="fill:#b0b0b0" transform="matrix(.14 0 0 -.14 160.614 341.588)"><defs><path id="DejaVuSans-34" d="M2419 4116 825 1625h1594v2491zm-166 550h794V1625h666v-525h-666V0h-628v1100H313v609l1940 2957z" transform="scale(.01563)"/></defs><use xlink:href="#DejaVuSans-32"/><use xlink:href="#DejaVuSans-30" x="63.623"/><use xlink:href="#DejaVuSans-31" x="127.246"/><use xlink:href="#DejaVuSans-34" x="190.869"/></g></g><g id="xtick_4"><use xlink:href="#ma3ef81b274" id="line2d_4" x="227.171" y="323.95" style="fill:#b0b0b0;stroke:#b0b0b0;stroke-width:.4"/><g id="text_4" style="fill:#b0b0b0" transform="matrix(.14 0 0 -.14 209.356 341.588)"><defs><path id="DejaVuSans-36" d="M2113 2584q-425 0-674-291-248-290-248-796 0-503 248-796 249-292 674-292t673 292q248 293 248 796 0 506-248 796-248 291-673 291zm1253 1979v-575q-238 112-480 171-242 60-480 60-625 0-955-422-329-422-376-1275 184 272 462 417 279 145 613 145 703 0 1111-427 408-426 408-1160 0-719-425-1154Q2819-91 2113-91q-810 0-1238 620-428 621-428 1799 0 1106 525 1764t1409 658q238 0 480-47t505-140z" transform="scale(.01563)"/></defs><use xlink:href="#DejaVuSans-32"/><use xlink:href="#DejaVuSans-30" x="63.623"/><use xlink:href="#DejaVuSans-31" x="127.246"/><use xlink:href="#DejaVuSans-36" x="190.869"/></g></g><g id="xtick_5"><use xlink:href="#ma3ef81b274" id="line2d_5" x="275.98" y="323.95" style="fill:#b0b0b0;stroke:#b0b0b0;stroke-width:.4"/><g id="text_5" style="fill:#b0b0b0" transform="matrix(.14 0 0 -.14 258.165 341.588)"><defs><path id="DejaVuSans-38" d="M2034 2216q-450 0-708-241-257-241-257-662 0-422 257-663 258-241 708-241t709 242q260 243 260 662 0 421-258 662-257 241-711 241zm-631 268q-406 100-633 378-226 279-226 679 0 559 398 884 399 325 1092 325 697 0 1094-325t397-884q0-400-227-679-226-278-629-378 456-106 710-416 255-309 255-755 0-679-414-1042Q2806-91 2034-91q-771 0-1186 362-414 363-414 1042 0 446 256 755 257 310 713 416zm-231 997q0-362 226-565 227-203 636-203 407 0 636 203 230 203 230 565 0 363-230 566-229 203-636 203-409 0-636-203-226-203-226-566z" transform="scale(.01563)"/></defs><use xlink:href="#DejaVuSans-32"/><use xlink:href="#DejaVuSans-30" x="63.623"/><use xlink:href="#DejaVuSans-31" x="127.246"/><use xlink:href="#DejaVuSans-38" x="190.869"/></g></g><g id="xtick_6"><use xlink:href="#ma3ef81b274" id="line2d_6" x="324.723" y="323.95" style="fill:#b0b0b0;stroke:#b0b0b0;stroke-width:.4"/><g id="text_6" style="fill:#b0b0b0" transform="matrix(.14 0 0 -.14 306.908 341.588)"><use xlink:href="#DejaVuSans-32"/><use xlink:href="#DejaVuSans-30" x="63.623"/><use xlink:href="#DejaVuSans-32" x="127.246"/><use xlink:href="#DejaVuSans-30" x="190.869"/></g></g><g id="xtick_7"><use xlink:href="#ma3ef81b274" id="line2d_7" x="373.532" y="323.95" style="fill:#b0b0b0;stroke:#b0b0b0;stroke-width:.4"/><g id="text_7" style="fill:#b0b0b0" transform="matrix(.14 0 0 -.14 355.717 341.588)"><use xlink:href="#DejaVuSans-32"/><use xlink:href="#DejaVuSans-30" x="63.623"/><use xlink:href="#DejaVuSans-32" x="127.246"/><use xlink:href="#DejaVuSans-32" x="190.869"/></g></g></g><g id="matplotlib.axis_2"><g id="ytick_1"><path id="line2d_8" d="M49.83 323.95h357.12" clip-path="url(#pc939bc2a60)" style="fill:none;stroke:#b0b0b0;stroke-width:.3;stroke-linecap:square"/><g id="line2d_9"><defs><path id="m952f868217" d="M0 0h-3.5" style="stroke:#b0b0b0;stroke-width:.3"/></defs><use xlink:href="#m952f868217" x="49.83" y="323.95" style="fill:#b0b0b0;stroke:#b0b0b0;stroke-width:.3"/></g><use xlink:href="#DejaVuSans-30" id="text_8" style="fill:#b0b0b0" transform="matrix(.14 0 0 -.14 33.922 329.269)"/></g><g id="ytick_2"><path id="line2d_10" d="M49.83 280.494h357.12" clip-path="url(#pc939bc2a60)" style="fill:none;stroke:#b0b0b0;stroke-width:.3;stroke-linecap:square"/><use xlink:href="#m952f868217" id="line2d_11" x="49.83" y="280.494" style="fill:#b0b0b0;stroke:#b0b0b0;stroke-width:.3"/><g id="text_9" style="fill:#b0b0b0" transform="matrix(.14 0 0 -.14 16.108 285.813)"><use xlink:href="#DejaVuSans-32"/><use xlink:href="#DejaVuSans-30" x="63.623"/><use xlink:href="#DejaVuSans-30" x="127.246"/></g></g><g id="ytick_3"><path id="line2d_12" d="M49.83 237.038h357.12" clip-path="url(#pc939bc2a60)" style="fill:none;stroke:#b0b0b0;stroke-width:.3;stroke-linecap:square"/><use xlink:href="#m952f868217" id="line2d_13" x="49.83" y="237.038" style="fill:#b0b0b0;stroke:#b0b0b0;stroke-width:.3"/><g id="text_10" style="fill:#b0b0b0" transform="matrix(.14 0 0 -.14 16.108 242.357)"><use xlink:href="#DejaVuSans-34"/><use xlink:href="#DejaVuSans-30" x="63.623"/><use xlink:href="#DejaVuSans-30" x="127.246"/></g></g><g id="ytick_4"><path id="line2d_14" d="M49.83 193.582h357.12" clip-path="url(#pc939bc2a60)" style="fill:none;stroke:#b0b0b0;stroke-width:.3;stroke-linecap:square"/><use xlink:href="#m952f868217" id="line2d_15" x="49.83" y="193.582" style="fill:#b0b0b0;stroke:#b0b0b0;stroke-width:.3"/><g id="text_11" style="fill:#b0b0b0" transform="matrix(.14 0 0 -.14 16.108 198.9)"><use xlink:href="#DejaVuSans-36"/><use xlink:href="#DejaVuSans-30" x="63.623"/><use xlink:href="#DejaVuSans-30" x="127.246"/></g></g><g id="ytick_5"><path id="line2d_16" d="M49.83 150.126h357.12" clip-path="url(#pc939bc2a60)" style="fill:none;stroke:#b0b0b0;stroke-width:.3;stroke-linecap:square"/><use xlink:href="#m952f868217" id="line2d_17" x="49.83" y="150.126" style="fill:#b0b0b0;stroke:#b0b0b0;stroke-width:.3"/><g id="text_12" style="fill:#b0b0b0" transform="matrix(.14 0 0 -.14 16.108 155.445)"><use xlink:href="#DejaVuSans-38"/><use xlink:href="#DejaVuSans-30" x="63.623"/><use xlink:href="#DejaVuSans-30" x="127.246"/></g></g><g id="ytick_6"><path id="line2d_18" d="M49.83 106.67h357.12" clip-path="url(#pc939bc2a60)" style="fill:none;stroke:#b0b0b0;stroke-width:.3;stroke-linecap:square"/><use xlink:href="#m952f868217" id="line2d_19" x="49.83" y="106.67" style="fill:#b0b0b0;stroke:#b0b0b0;stroke-width:.3"/><g id="text_13" style="fill:#b0b0b0" transform="matrix(.14 0 0 -.14 7.2 111.989)"><use xlink:href="#DejaVuSans-31"/><use xlink:href="#DejaVuSans-30" x="63.623"/><use xlink:href="#DejaVuSans-30" x="127.246"/><use xlink:href="#DejaVuSans-30" x="190.869"/></g></g><g id="ytick_7"><path id="line2d_20" d="M49.83 63.214h357.12" clip-path="url(#pc939bc2a60)" style="fill:none;stroke:#b0b0b0;stroke-width:.3;stroke-linecap:square"/><use xlink:href="#m952f868217" id="line2d_21" x="49.83" y="63.214" style="fill:#b0b0b0;stroke:#b0b0b0;stroke-width:.3"/><g id="text_14" style="fill:#b0b0b0" transform="matrix(.14 0 0 -.14 7.2 68.533)"><use xlink:href="#DejaVuSans-31"/><use xlink:href="#DejaVuSans-32" x="63.623"/><use xlink:href="#DejaVuSans-30" x="127.246"/><use xlink:href="#DejaVuSans-30" x="190.869"/></g></g></g><path id="line2d_22" d="m49.83 320.731 1.57 1.467 2.036.593 2.036.03 2.07-.336 1.97-.762 1.97-.086 8.145-1.199 2.07.112 4.073-.056 2.037-1.288 2.036.728 2.07-.8 1.97-.53 1.97.468 2.036-.576 2.036.015 2.037-.74 2.036-.206 2.07-.59 2.037.167 2.036.324 2.037-.245 2.036-.441 4.04-2.569 1.97-1.756 2.036.79 4.073-.615 2.037.168 2.07-1.948 2.036 1.845 2.036-.093 2.037-1.269 2.036.73 2.07-1.55 2.003-1.945 2.003-.066 2.037 1.042 2.036.479 2.037.187 2.036-.804 2.07.007 2.037.37 2.036-1.709 2.037.405 2.036 2.09 2.07-2.831 1.97-1.178 1.97-.651 2.036.115 2.037 1.434 2.036.355 2.036-1.035 2.07-.295 2.037.084 2.036-2.193 2.037.904 2.036 1.458 2.07-2.23 1.97-.88 1.97-.402 2.036.787 2.037 1.106 2.036 1.878 2.037-1.044 2.07.602 2.036.869 2.036.057 2.037 1.124 2.036.214 2.07-1.941 1.97-.503 1.97.279 2.036-.874 2.037.558 2.036-1.08 2.037.547 2.07 1.858 2.036.58 2.037.296 2.036 1.181 2.037-.018 2.07-.827 2.002-1.781 2.004.961 2.036-.19 2.037 1.137 2.036-.383 2.037 1.946 2.07.154 2.036-.767 2.036 1.166 2.037.043 2.036 1.324 2.07-1.346 3.94.26 2.036 1.768 2.037.117 2.036.361 2.037-.389 4.106 1.816 2.036-.253 2.037.58 2.036 1.39 2.07-1.01 1.97.172 1.97.53 2.036.257 2.037-.069 2.036.047 2.037.353 2.07.21 2.036.451 2.037-.682 4.073.834 2.07-.729 5.975.773 2.037.278 2.036.062 2.037-.44 2.07-.035 2.036.142 2.037-.689 2.036 1.095 2.037-.05 2.07-.463 2.003.364 2.003-.182 2.036-.82 2.037.981 2.036.633 2.037-.577 2.07 1.22 2.036.11 2.037.297 2.036-.42 2.037.588 2.07-.512 1.97-.608 1.969.811 2.036-.366 2.037 1.214 2.036-.265 4.107-.127 2.036-.148 2.037.372 4.073.302 4.04-.652 1.969-.112 2.036.22 2.037.06 4.073.336 4.106-.265 2.037.44 2.036-.346 2.037.57 2.07.225 1.97.005 4.006.996 2.036-.118h0" clip-path="url(#pc939bc2a60)" style="fill:none;stroke:#c49c94;stroke-width:1.5;stroke-linecap:square"/><path id="line2d_23" d="m75.77 323.95 2.037-.478 2.036.4 6.01.022 18.361-.07 8.046.075 2.037-.209 10.215-.02 2.037-.198 6.11.246 8.112-.29 4.106.017 2.037-.444 2.036.234 4.073-.077 2.07.084 1.97-.2 4.006-.005 2.037-.096 2.036-.266 6.143-.442 2.036.23 2.037-.034 2.036-.161 2.07-.442 1.97.525 1.97-.188 2.036-.69 2.037.514 2.036-.123 2.037-1.096 2.07.343h2.036l6.11.379 2.07-.841 1.969.321 1.97-.307 2.036.455 2.037.056 4.073-.504 4.106.187 2.037.086 2.036-.158 2.037.179 4.072-1.083 4.04-.299 2.037.296 4.073.294 2.07-.26 2.036.308 2.036-.006 2.037.267 2.036-.029 4.04-.825 1.97-.29 2.036.905 2.037-.435 2.036-.036 2.037-.44 4.106.65 4.073-.79 2.036 1.03 2.07-.12 1.97-.69 1.97.242 2.036-.259 2.037.077 2.036-.446 4.107-.31 2.036.114 2.037-.886 2.036.401 2.037.84 2.07-.155 3.939-.567 2.036.346 2.037-.052 2.036.472 2.037-1.138 2.07-.014 2.036.21 4.073-.022 2.037.254 2.07-.407 2.003-.515 2.003-.038 2.036-1.242 2.037.765 2.036.198 2.037.818 2.07-.483 2.036-.682 2.037 1.628 2.036.001 2.037 1.282 2.07-1.017 1.97-.766 1.969-.979 2.036.836 2.037.384 4.073.294 2.07-1.227 2.036.846 2.037-.558 2.036.37 2.037-.237 2.07-.365 1.97.21 1.969-.504 2.036.301 4.073 1.094 2.037-1.038 2.07-.448 2.036-.15 2.037.802 2.036-.318 2.037 1.481 2.07-.778 1.97.077 1.969.582 2.037.826 2.036.975h0" clip-path="url(#pc939bc2a60)" style="fill:none;stroke:#c5b0d5;stroke-width:1.5;stroke-linecap:square"/><path id="line2d_24" d="M91.962 323.95h30.514l38.593-.087 2.037-.06 4.072.063 10.216-.007 2.07-.19 3.94.078 4.073-.113 2.036-.046 4.106-.55 2.037.238 2.036-.574 2.037.11 2.036-.047 2.07-.448 1.97.306 1.97.107 4.073-.54 2.036.05 4.107.4 4.073.378 2.036-.068 2.037.089 2.07-.155 2.002-.036 2.004-.188 2.036.153 2.037-.174 2.036-.312 2.037.396 2.07-.448 2.036.45 2.036-.142 2.037.034 6.076-.25 8.08.308 2.036-.33 2.07.154 2.036.43 4.073-.232 2.036-.471 2.07.315 3.94-.414 2.036.353 2.037-.233 2.036.146 2.037-.076 2.07.09 2.036-.137 2.037.089 2.036-.133 2.037.007 2.07-.568 1.97.415 1.969.054 2.036-.422 2.037.086 6.143-.687 4.073.203 4.073-.077 2.07.267 2.003-.671 2.003.236 2.036-.704 2.037-.368 2.036.498 2.037-.246 2.07.091 2.036-.113 4.073.565 4.106-.69 1.97.107 1.97-.682 2.036-.278 2.037.888 2.036-.33 4.107.491 2.036.32 2.037-.194 2.036-.385 2.037-1.08 4.04.513 1.969.125 2.036-.355 2.037-.177 2.036-.373 2.037-.048 2.07-.89 2.036 1.09 4.073-.964 2.037.091 4.04-.082 1.969.496 2.037.966 2.036-.244h0" clip-path="url(#pc939bc2a60)" style="fill:none;stroke:#ff9896;stroke-width:1.5;stroke-linecap:square"/><g id="text_15" style="fill:#1f77b4" transform="matrix(.14 0 0 -.14 417.664 200.394)"><defs><path id="DejaVuSans-70" d="M1159 525v-1856H581v4831h578v-531q182 312 458 463 277 152 661 152 638 0 1036-506 399-506 399-1331T3314 415Q2916-91 2278-91q-384 0-661 152-276 152-458 464zm1957 1222q0 634-261 995t-717 361q-457 0-718-361t-261-995q0-634 261-995t718-361q456 0 717 361t261 995z" transform="scale(.01563)"/><path id="DejaVuSans-79" d="M2059-325q-243-625-475-815-231-191-618-191H506v481h338q237 0 368 113 132 112 291 531l103 262L191 3500h609L1894 763l1094 2737h609L2059-325z" transform="scale(.01563)"/><path id="DejaVuSans-74" d="M1172 4494v-994h1184v-447H1172V1153q0-428 117-550t477-122h590V0h-590q-666 0-919 248-253 249-253 905v1900H172v447h422v994h578z" transform="scale(.01563)"/><path id="DejaVuSans-68" d="M3513 2113V0h-575v2094q0 497-194 743-194 247-581 247-466 0-735-297-269-296-269-809V0H581v4863h578V2956q207 316 486 472 280 156 646 156 603 0 912-373 310-373 310-1098z" transform="scale(.01563)"/><path id="DejaVuSans-6f" d="M1959 3097q-462 0-731-361t-269-989q0-628 267-989 268-361 733-361 460 0 728 362 269 363 269 988 0 622-269 986-268 364-728 364zm0 487q750 0 1178-488 429-487 429-1349 0-859-429-1349Q2709-91 1959-91q-753 0-1180 489-426 490-426 1349 0 862 426 1349 427 488 1180 488z" transform="scale(.01563)"/><path id="DejaVuSans-6e" d="M3513 2113V0h-575v2094q0 497-194 743-194 247-581 247-466 0-735-297-269-296-269-809V0H581v3500h578v-544q207 316 486 472 280 156 646 156 603 0 912-373 310-373 310-1098z" transform="scale(.01563)"/></defs><use xlink:href="#DejaVuSans-70"/><use xlink:href="#DejaVuSans-79" x="63.477"/><use xlink:href="#DejaVuSans-74" x="122.656"/><use xlink:href="#DejaVuSans-68" x="161.865"/><use xlink:href="#DejaVuSans-6f" x="225.244"/><use xlink:href="#DejaVuSans-6e" x="286.426"/></g><g id="text_16" style="fill:#ff7f0e" transform="matrix(.14 0 0 -.14 417.664 214.394)"><defs><path id="DejaVuSans-6a" d="M603 3500h575V-63q0-668-255-968-254-300-820-300h-219v487H38q328 0 446 152Q603-541 603-63v3563zm0 1363h575v-729H603v729z" transform="scale(.01563)"/><path id="DejaVuSans-61" d="M2194 1759q-697 0-966-159t-269-544q0-306 202-486 202-179 548-179 479 0 768 339t289 901v128h-572zm1147 238V0h-575v531q-197-318-491-470T1556-91q-537 0-855 302-317 302-317 808 0 590 395 890 396 300 1180 300h807v57q0 397-261 614t-733 217q-300 0-585-72-284-72-546-216v532q315 122 612 182 297 61 578 61 760 0 1135-394 375-393 375-1193z" transform="scale(.01563)"/><path id="DejaVuSans-76" d="M191 3500h609L1894 563l1094 2937h609L2284 0h-781L191 3500z" transform="scale(.01563)"/><path id="DejaVuSans-73" d="M2834 3397v-544q-243 125-506 187-262 63-544 63-428 0-642-131t-214-394q0-200 153-314t616-217l197-44q612-131 870-370t258-667q0-488-386-773Q2250-91 1575-91q-281 0-586 55T347 128v594q319-166 628-249 309-82 613-82 406 0 624 139 219 139 219 392 0 234-158 359-157 125-692 241l-200 47q-534 112-772 345-237 233-237 639 0 494 350 762 350 269 994 269 318 0 599-47 282-46 519-140z" transform="scale(.01563)"/><path id="DejaVuSans-63" d="M3122 3366v-538q-244 135-489 202t-495 67q-560 0-870-355-309-354-309-995t309-996q310-354 870-354 250 0 495 67t489 202V134Q2881 22 2623-34q-257-57-548-57-791 0-1257 497-465 497-465 1341 0 856 470 1346 471 491 1290 491 265 0 518-55 253-54 491-163z" transform="scale(.01563)"/><path id="DejaVuSans-72" d="M2631 2963q-97 56-211 82-114 27-251 27-488 0-749-317t-261-911V0H581v3500h578v-544q182 319 472 473 291 155 707 155 59 0 131-8 72-7 159-23l3-590z" transform="scale(.01563)"/><path id="DejaVuSans-69" d="M603 3500h575V0H603v3500zm0 1363h575v-729H603v729z" transform="scale(.01563)"/></defs><use xlink:href="#DejaVuSans-6a"/><use xlink:href="#DejaVuSans-61" x="27.783"/><use xlink:href="#DejaVuSans-76" x="89.063"/><use xlink:href="#DejaVuSans-61" x="148.242"/><use xlink:href="#DejaVuSans-73" x="209.521"/><use xlink:href="#DejaVuSans-63" x="261.621"/><use xlink:href="#DejaVuSans-72" x="316.602"/><use xlink:href="#DejaVuSans-69" x="357.715"/><use xlink:href="#DejaVuSans-70" x="385.498"/><use xlink:href="#DejaVuSans-74" x="448.975"/></g><g id="text_17" style="fill:#2ca02c" transform="matrix(.14 0 0 -.14 417.664 228.394)"><use xlink:href="#DejaVuSans-6a"/><use xlink:href="#DejaVuSans-61" x="27.783"/><use xlink:href="#DejaVuSans-76" x="89.063"/><use xlink:href="#DejaVuSans-61" x="148.242"/></g><g id="text_18" style="fill:#d62728" transform="matrix(.14 0 0 -.14 417.664 242.394)"><defs><path id="DejaVuSans-23" d="M3272 2816h-909l-263-1044h916l256 1044zm-469 1778-325-1297h913l328 1297h500l-322-1297h975v-481H3775l-256-1044h994v-478H3397L3072 0h-500l322 1294h-916L1656 0h-503l325 1294H494v478h1100l262 1044H850v481h1128l319 1297h506z" transform="scale(.01563)"/></defs><use xlink:href="#DejaVuSans-63"/><use xlink:href="#DejaVuSans-23" x="54.98"/></g><use xlink:href="#DejaVuSans-72" id="text_19" style="fill:#9467bd" transform="matrix(.14 0 0 -.14 417.664 256.394)"/><g id="text_20" style="fill:#8c564b" transform="matrix(.14 0 0 -.14 417.664 270.394)"><use xlink:href="#DejaVuSans-70"/><use xlink:href="#DejaVuSans-68" x="63.477"/><use xlink:href="#DejaVuSans-70" x="126.855"/></g><g id="text_21" style="fill:#e377c2" transform="matrix(.14 0 0 -.14 417.664 284.394)"><defs><path id="DejaVuSans-65" d="M3597 1894v-281H953q38-594 358-905t892-311q331 0 642 81t618 244V178Q3153 47 2828-22t-659-69q-838 0-1327 487-489 488-489 1320 0 859 464 1363 464 505 1252 505 706 0 1117-455 411-454 411-1235zm-575 169q-6 471-264 752-258 282-683 282-481 0-770-272t-333-766l2050 4z" transform="scale(.01563)"/></defs><use xlink:href="#DejaVuSans-74"/><use xlink:href="#DejaVuSans-79" x="39.209"/><use xlink:href="#DejaVuSans-70" x="98.389"/><use xlink:href="#DejaVuSans-65" x="161.865"/><use xlink:href="#DejaVuSans-73" x="223.389"/><use xlink:href="#DejaVuSans-63" x="275.488"/><use xlink:href="#DejaVuSans-72" x="330.469"/><use xlink:href="#DejaVuSans-69" x="371.582"/><use xlink:href="#DejaVuSans-70" x="399.365"/><use xlink:href="#DejaVuSans-74" x="462.842"/></g><g id="text_22" style="fill:#7f7f7f" transform="matrix(.14 0 0 -.14 417.664 298.394)"><defs><path id="DejaVuSans-2b" d="M2944 4013V2272h1740v-531H2944V0h-525v1741H678v531h1741v1741h525z" transform="scale(.01563)"/></defs><use xlink:href="#DejaVuSans-63"/><use xlink:href="#DejaVuSans-2b" x="54.98"/><use xlink:href="#DejaVuSans-2b" x="138.77"/></g><g id="text_23" style="fill:#bcbd22" transform="matrix(.14 0 0 -.14 417.664 312.394)"><defs><path id="DejaVuSans-71" d="M947 1747q0-634 261-995t717-361q456 0 718 361 263 361 263 995t-263 995q-262 361-718 361t-717-361q-261-361-261-995zM2906 525q-181-312-458-464-276-152-664-152-634 0-1033 506-398 507-398 1332t398 1331q399 506 1033 506 388 0 664-152 277-151 458-463v531h575v-4831h-575V525z" transform="scale(.01563)"/><path id="DejaVuSans-6c" d="M603 4863h575V0H603v4863z" transform="scale(.01563)"/></defs><use xlink:href="#DejaVuSans-73"/><use xlink:href="#DejaVuSans-71" x="52.1"/><use xlink:href="#DejaVuSans-6c" x="115.576"/></g><g id="text_24" style="fill:#17becf" transform="matrix(.14 0 0 -.14 417.664 326.394)"><defs><path id="DejaVuSans-6b" d="M581 4863h578V1991l1716 1509h734L1753 1863 3688 0h-750L1159 1709V0H581v4863z" transform="scale(.01563)"/></defs><use xlink:href="#DejaVuSans-6b"/><use xlink:href="#DejaVuSans-6f" x="54.285"/><use xlink:href="#DejaVuSans-74" x="115.467"/><use xlink:href="#DejaVuSans-6c" x="154.676"/><use xlink:href="#DejaVuSans-69" x="182.459"/><use xlink:href="#DejaVuSans-6e" x="210.242"/></g><use xlink:href="#DejaVuSans-63" id="text_25" style="fill:#aec7e8" transform="matrix(.14 0 0 -.14 417.664 340.394)"/><g id="text_26" style="fill:#ffbb78" transform="matrix(.14 0 0 -.14 417.664 354.394)"><defs><path id="DejaVuSans-77" d="M269 3500h575l719-2731 715 2731h678l719-2731 716 2731h575L4050 0h-678l-753 2869L1863 0h-679L269 3500z" transform="scale(.01563)"/><path id="DejaVuSans-66" d="M2375 4863v-479h-550q-309 0-430-125-120-125-120-450v-309h947v-447h-947V0H697v3053H147v447h550v244q0 584 272 851 272 268 862 268h544z" transform="scale(.01563)"/></defs><use xlink:href="#DejaVuSans-73"/><use xlink:href="#DejaVuSans-77" x="52.1"/><use xlink:href="#DejaVuSans-69" x="133.887"/><use xlink:href="#DejaVuSans-66" x="161.67"/><use xlink:href="#DejaVuSans-74" x="195.125"/></g><g id="text_27" style="fill:#98df8a" transform="matrix(.14 0 0 -.14 417.664 368.394)"><defs><path id="DejaVuSans-64" d="M2906 2969v1894h575V0h-575v525q-181-312-458-464-276-152-664-152-634 0-1033 506-398 507-398 1332t398 1331q399 506 1033 506 388 0 664-152 277-151 458-463zM947 1747q0-634 261-995t717-361q456 0 718 361 263 361 263 995t-263 995q-262 361-718 361t-717-361q-261-361-261-995z" transform="scale(.01563)"/></defs><use xlink:href="#DejaVuSans-64"/><use xlink:href="#DejaVuSans-61" x="63.477"/><use xlink:href="#DejaVuSans-72" x="124.756"/><use xlink:href="#DejaVuSans-74" x="165.869"/></g><g id="text_28" style="fill:#ff9896" transform="matrix(.14 0 0 -.14 417.664 382.394)"><defs><path id="DejaVuSans-75" d="M544 1381v2119h575V1403q0-497 193-746 194-248 582-248 465 0 735 297 271 297 271 810v1984h575V0h-575v538q-209-319-486-474-276-155-642-155-603 0-916 375-312 375-312 1097zm1447 2203z" transform="scale(.01563)"/></defs><use xlink:href="#DejaVuSans-72"/><use xlink:href="#DejaVuSans-75" x="41.113"/><use xlink:href="#DejaVuSans-73" x="104.492"/><use xlink:href="#DejaVuSans-74" x="156.592"/></g><g id="text_29" style="fill:#c5b0d5" transform="matrix(.14 0 0 -.14 417.664 396.394)"><defs><path id="DejaVuSans-67" d="M2906 1791q0 625-258 968-257 344-723 344-462 0-720-344-258-343-258-968 0-622 258-966t720-344q466 0 723 344 258 344 258 966zm575-1357q0-893-397-1329-396-436-1215-436-303 0-572 45t-522 139v559q253-137 500-202 247-66 503-66 566 0 847 295t281 892v285q-178-310-456-463T1784 0Q1141 0 747 490 353 981 353 1791q0 812 394 1302 394 491 1037 491 388 0 666-153t456-462v531h575V434z" transform="scale(.01563)"/></defs><use xlink:href="#DejaVuSans-67"/><use xlink:href="#DejaVuSans-6f" x="63.477"/></g><g id="text_30" style="fill:#c49c94" transform="matrix(.14 0 0 -.14 417.664 410.394)"><defs><path id="DejaVuSans-62" d="M3116 1747q0 634-261 995t-717 361q-457 0-718-361t-261-995q0-634 261-995t718-361q456 0 717 361t261 995zM1159 2969q182 312 458 463 277 152 661 152 638 0 1036-506 399-506 399-1331T3314 415Q2916-91 2278-91q-384 0-661 152-276 152-458 464V0H581v4863h578V2969z" transform="scale(.01563)"/></defs><use xlink:href="#DejaVuSans-72"/><use xlink:href="#DejaVuSans-75" x="41.113"/><use xlink:href="#DejaVuSans-62" x="104.492"/><use xlink:href="#DejaVuSans-79" x="167.969"/></g><g id="text_31" style="fill:#b0b0b0" transform="matrix(.09716 0 0 -.09716 49.83 357.986)"><defs><path id="DejaVuSans-40" d="M2381 1678q0-447 222-702 222-254 610-254 384 0 604 256 221 256 221 700 0 438-225 695-225 258-607 258-378 0-602-256-223-256-223-697zm1703-934q-187-241-429-355t-564-114q-538 0-874 389t-336 1014q0 625 337 1015 338 391 873 391 322 0 565-117 244-117 428-354v409h447V722q457 69 714 417 258 349 258 902 0 334-99 628-98 294-298 544-325 409-792 626t-1017 217q-384 0-738-102-353-101-653-301-490-319-767-836-276-517-276-1120 0-497 179-932 180-434 521-765 328-325 759-495 431-171 922-171 403 0 792 136t714 389l281-347q-390-303-851-464t-936-161q-578 0-1091 205-512 205-912 595Q841 78 631 592q-209 514-209 1105 0 569 212 1084 213 516 607 907 403 396 931 607t1119 211q662 0 1229-272 568-271 952-771 234-307 357-666 124-359 124-744 0-822-497-1297T4084 263v481z" transform="scale(.01563)"/><path id="DejaVuSans-2f" d="M1625 4666h531L531-594H0l1625 5260z" transform="scale(.01563)"/><path id="DejaVuSans-2d" d="M313 2009h1684v-512H313v512z" transform="scale(.01563)"/><path id="DejaVuSans-7c" d="M1344 4891v-6400H813v6400h531z" transform="scale(.01563)"/><path id="DejaVuSans-4e" d="M628 4666h850L3547 763v3903h612V0h-850L1241 3903V0H628v4666z" transform="scale(.01563)"/><path id="DejaVuSans-53" d="M3425 4513v-616q-359 172-678 256-319 85-616 85-515 0-795-200t-280-569q0-310 186-468 186-157 705-254l381-78q706-135 1042-474t336-907q0-679-455-1029Q2797-91 1919-91q-331 0-705 75-373 75-773 222v650q384-215 753-325 369-109 725-109 540 0 834 212 294 213 294 607 0 343-211 537t-692 291l-385 75q-706 140-1022 440-315 300-315 835 0 619 436 975t1201 356q329 0 669-60 341-59 697-177z" transform="scale(.01563)"/><path id="DejaVuSans-f6" d="M1959 3097q-462 0-731-361t-269-989q0-628 267-989 268-361 733-361 460 0 728 362 269 363 269 988 0 622-269 986-268 364-728 364zm0 487q750 0 1178-488 429-487 429-1349 0-859-429-1349Q2709-91 1959-91q-753 0-1180 489-426 490-426 1349 0 862 426 1349 427 488 1180 488zm295 1266h634v-631h-634v631zm-1222 0h634v-631h-634v631z" transform="scale(.01563)"/><path id="DejaVuSans-6d" d="M3328 2828q216 388 516 572t706 184q547 0 844-383 297-382 297-1088V0h-578v2094q0 503-179 746-178 244-543 244-447 0-707-297-259-296-259-809V0h-578v2094q0 506-178 748t-550 242q-441 0-701-298-259-298-259-808V0H581v3500h578v-544q197 322 472 475t653 153q382 0 649-194 267-193 395-562z" transform="scale(.01563)"/><path id="DejaVuSans-43" d="M4122 4306v-665q-319 297-680 443-361 147-767 147-800 0-1225-489t-425-1414q0-922 425-1411t1225-489q406 0 767 147t680 444V359q-331-225-702-338-370-112-782-112-1060 0-1670 648-609 649-609 1771 0 1125 609 1773 610 649 1670 649 418 0 788-111 371-111 696-333z" transform="scale(.01563)"/><path id="DejaVuSans-42" d="M1259 2228V519h1013q509 0 754 211 246 211 246 645 0 438-246 645-245 208-754 208H1259zm0 1919V2741h935q462 0 688 173 227 174 227 530 0 353-227 528-226 175-688 175h-935zm-631 519h1613q722 0 1112-300 391-300 391-853 0-429-200-682t-588-315q466-100 724-418 258-317 258-792 0-625-425-966Q3088 0 2303 0H628v4666z" transform="scale(.01563)"/><path id="DejaVuSans-59" d="M-13 4666h679l1293-1919 1285 1919h678L2272 2222V0h-634v2222L-13 4666z" transform="scale(.01563)"/></defs><use xlink:href="#DejaVuSans-40"/><use xlink:href="#DejaVuSans-6e" x="100"/><use xlink:href="#DejaVuSans-73" x="163.379"/><use xlink:href="#DejaVuSans-63" x="215.479"/><use xlink:href="#DejaVuSans-68" x="270.459"/><use xlink:href="#DejaVuSans-6c" x="333.838"/><use xlink:href="#DejaVuSans-6f" x="361.621"/><use xlink:href="#DejaVuSans-65" x="422.803"/><use xlink:href="#DejaVuSans-20" x="484.326"/><use xlink:href="#DejaVuSans-2f" x="516.113"/><use xlink:href="#DejaVuSans-20" x="549.805"/><use xlink:href="#DejaVuSans-73" x="581.592"/><use xlink:href="#DejaVuSans-74" x="633.691"/><use xlink:href="#DejaVuSans-61" x="672.9"/><use xlink:href="#DejaVuSans-63" x="734.18"/><use xlink:href="#DejaVuSans-6b" x="789.16"/><use xlink:href="#DejaVuSans-6f" x="843.445"/><use xlink:href="#DejaVuSans-76" x="904.627"/><use xlink:href="#DejaVuSans-65" x="963.807"/><use xlink:href="#DejaVuSans-72" x="1025.33"/><use xlink:href="#DejaVuSans-66" x="1066.443"/><use xlink:href="#DejaVuSans-6c" x="1101.648"/><use xlink:href="#DejaVuSans-6f" x="1129.432"/><use xlink:href="#DejaVuSans-77" x="1190.613"/><use xlink:href="#DejaVuSans-2d" x="1272.4"/><use xlink:href="#DejaVuSans-74" x="1308.484"/><use xlink:href="#DejaVuSans-72" x="1347.693"/><use xlink:href="#DejaVuSans-65" x="1386.557"/><use xlink:href="#DejaVuSans-6e" x="1448.08"/><use xlink:href="#DejaVuSans-64" x="1511.459"/><use xlink:href="#DejaVuSans-73" x="1574.936"/><use xlink:href="#DejaVuSans-20" x="1627.035"/><use xlink:href="#DejaVuSans-7c" x="1658.822"/><use xlink:href="#DejaVuSans-20" x="1692.514"/><use xlink:href="#DejaVuSans-4e" x="1724.301"/><use xlink:href="#DejaVuSans-69" x="1799.105"/><use xlink:href="#DejaVuSans-63" x="1826.889"/><use xlink:href="#DejaVuSans-6f" x="1881.869"/><use xlink:href="#DejaVuSans-20" x="1943.051"/><use xlink:href="#DejaVuSans-53" x="1974.838"/><use xlink:href="#DejaVuSans-63" x="2038.314"/><use xlink:href="#DejaVuSans-68" x="2093.295"/><use xlink:href="#DejaVuSans-6c" x="2156.674"/><use xlink:href="#DejaVuSans-f6" x="2184.457"/><use xlink:href="#DejaVuSans-6d" x="2245.639"/><use xlink:href="#DejaVuSans-65" x="2343.051"/><use xlink:href="#DejaVuSans-72" x="2404.574"/><use xlink:href="#DejaVuSans-20" x="2445.688"/><use xlink:href="#DejaVuSans-7c" x="2477.475"/><use xlink:href="#DejaVuSans-20" x="2511.166"/><use xlink:href="#DejaVuSans-43" x="2542.953"/><use xlink:href="#DejaVuSans-43" x="2612.777"/><use xlink:href="#DejaVuSans-20" x="2682.602"/><use xlink:href="#DejaVuSans-42" x="2714.389"/><use xlink:href="#DejaVuSans-59" x="2777.492"/></g><g id="text_32" style="fill:#b0b0b0" transform="matrix(.14 0 0 -.14 72.244 17.838)"><defs><path id="DejaVuSans-44" d="M1259 4147V519h763q966 0 1414 437 448 438 448 1382 0 937-448 1373t-1414 436h-763zm-631 519h1297q1356 0 1990-564 635-564 635-1764 0-1207-638-1773Q3275 0 1925 0H628v4666z" transform="scale(.01563)"/><path id="DejaVuSans-4f" d="M2522 4238q-688 0-1093-513-404-512-404-1397 0-881 404-1394 405-512 1093-512 687 0 1089 512 402 513 402 1394 0 885-402 1397-402 513-1089 513zm0 512q981 0 1568-658 588-658 588-1764 0-1103-588-1761Q3503-91 2522-91q-984 0-1574 656-589 657-589 1763t589 1764q590 658 1574 658z" transform="scale(.01563)"/></defs><use xlink:href="#DejaVuSans-44"/><use xlink:href="#DejaVuSans-61" x="77.002"/><use xlink:href="#DejaVuSans-69" x="138.281"/><use xlink:href="#DejaVuSans-6c" x="166.064"/><use xlink:href="#DejaVuSans-79" x="193.848"/><use xlink:href="#DejaVuSans-20" x="253.027"/><use xlink:href="#DejaVuSans-6e" x="284.814"/><use xlink:href="#DejaVuSans-75" x="348.193"/><use xlink:href="#DejaVuSans-6d" x="411.572"/><use xlink:href="#DejaVuSans-62" x="508.984"/><use xlink:href="#DejaVuSans-65" x="572.461"/><use xlink:href="#DejaVuSans-72" x="633.984"/><use xlink:href="#DejaVuSans-20" x="675.098"/><use xlink:href="#DejaVuSans-6f" x="706.885"/><use xlink:href="#DejaVuSans-66" x="768.066"/><use xlink:href="#DejaVuSans-20" x="803.271"/><use xlink:href="#DejaVuSans-71" x="835.059"/><use xlink:href="#DejaVuSans-75" x="898.535"/><use xlink:href="#DejaVuSans-65" x="961.914"/><use xlink:href="#DejaVuSans-73" x="1023.438"/><use xlink:href="#DejaVuSans-74" x="1075.537"/><use xlink:href="#DejaVuSans-69" x="1114.746"/><use xlink:href="#DejaVuSans-6f" x="1142.529"/><use xlink:href="#DejaVuSans-6e" x="1203.711"/><use xlink:href="#DejaVuSans-73" x="1267.09"/><use xlink:href="#DejaVuSans-20" x="1319.189"/><use xlink:href="#DejaVuSans-6f" x="1350.977"/><use xlink:href="#DejaVuSans-6e" x="1412.158"/><use xlink:href="#DejaVuSans-20" x="1475.537"/><use xlink:href="#DejaVuSans-53" x="1507.324"/><use xlink:href="#DejaVuSans-74" x="1570.801"/><use xlink:href="#DejaVuSans-61" x="1610.01"/><use xlink:href="#DejaVuSans-63" x="1671.289"/><use xlink:href="#DejaVuSans-6b" x="1726.27"/><use xlink:href="#DejaVuSans-4f" x="1784.18"/><use xlink:href="#DejaVuSans-76" x="1862.891"/><use xlink:href="#DejaVuSans-65" x="1922.07"/><use xlink:href="#DejaVuSans-72" x="1983.594"/><use xlink:href="#DejaVuSans-66" x="2024.707"/><use xlink:href="#DejaVuSans-6c" x="2059.912"/><use xlink:href="#DejaVuSans-6f" x="2087.695"/><use xlink:href="#DejaVuSans-77" x="2148.877"/></g><path id="line2d_25" d="m120.44 323.95 22.367-.238 4.107-.001 2.036-.329 4.073-.042 2.07-.098 3.94.077 2.036-.528 2.037.297 2.036-.13 2.036.186 4.107.11 2.036-.11 2.037-.454 2.036-.584 2.07-.168 1.97-.045 1.97.389 2.036.147 2.037.322 2.036-.199 6.143.109 2.036-.078 4.073.358 2.07.217 1.97-.163 1.97.149 2.036-.128 4.073.354 2.037-.093 2.07.245 4.073-.09 2.036-.09 2.037.278 4.072-.232 4.04.207 2.037.095 2.036-.19 2.037.134 2.07-.14 6.109.123 8.046-.08 2.036.029 2.037-.366 4.073.02 4.106.216 2.036-.124 2.037.153 4.106.043 1.97-.35 1.97-1.29 8.146-1.409 2.07-.189 2.036.153 2.037-.202 2.036.238 2.037-.54 2.07-1.962 3.939.736 2.036-.98 2.037-.24 2.036.197 2.037-1.472 2.07-.295 2.036.145 2.037.353 4.073-.603 2.07-.904 2.003-.602 2.003.357 2.036-4.989 2.037-1.985 2.036.645 2.037.89 2.07.098 2.036 1.431 2.037-.05 2.036.659 2.037 1.29 6.009-3.723 2.036-.023 2.037-.229 2.036.179 2.037 1.79 2.07-.882 2.036-.097 2.037 1.029 2.036.84 2.037-.153 2.07-1.57 1.97-1.051 1.969.21 2.036 1.347 2.037-.612 2.036.032 2.037-1.04 2.07-.26 2.036 1.163 2.037-.063 2.036-1.357 2.037 2.668 2.07-.379 3.939 2.39 2.037 2.462 2.036.405h0" clip-path="url(#pc939bc2a60)" style="fill:none;stroke:#98df8a;stroke-width:1.5;stroke-linecap:square"/><path id="line2d_26" d="m55.472 323.95 34.453-.007 97.552-.063 2.036-17.392 2.037 5.925 2.07-.414 2.036-1.875 2.036-3.494 2.037-1.308 2.036 1.077 4.04-7.67 1.97-.082 2.036-3.972 2.037 2.542 4.073-9.504 2.07.533 2.036 2.605 2.037 2.848 2.036-1.139 2.037.592 2.07-2.93 2.002-2.004 2.004-.021 2.036 1.14 2.037 3.437 2.036-3.763 4.106.363 2.037-.863 2.036 2.167 2.037 1.549 2.036 4.03 2.07-2.81 1.97-1.104 1.97-.887 2.036 3.994 2.037-.356 2.036-1.629 2.037-.089 2.07 1.087 2.036 2.008 2.036.01 2.037.722 2.036 4.115 2.07-3.82 1.97-.212 1.97-1.968 2.036 2.515 2.037.61 2.036 2.482 2.037-4.892 2.07-.533 2.036 2.992 2.037-.181 2.036 1.427 2.037 2.344 2.07-1.1 1.97-.6 1.969.193 2.036-2.206 2.037.152 2.036-1.89 2.037-.843 2.07 4.548 2.036-.526 2.037-3.665 2.036.203 2.037 3.33 6.076-3.561 2.036-4.991 2.037.575 2.036 2.003 2.037 2.266 2.07 2.74 2.036 1.114 2.037 2.335 2.036.736 2.037 3.68 2.07-4.087 1.97-1.632 1.969.91 2.036 1.998 2.037 3.049 2.036.124 2.037-.257 2.07.238 2.036 1.279 4.073 1.666 2.037.622 2.07-2.34 1.97-.491 1.969.014 2.036 1.58 4.073 1.542 2.037-.697 2.07-.12 2.036-.697 2.037 1.35 2.036-.705 2.037 1.833 2.07.21 1.97-.213 1.969.991 2.037 1.836 2.036 1.06h0" clip-path="url(#pc939bc2a60)" style="fill:none;stroke:#ffbb78;stroke-width:1.5;stroke-linecap:square"/><path id="line2d_27" d="m49.83 320.528 1.57 1.298 2.036.248 2.036.58 2.07-.954 1.97-.327 1.97-.444 2.036-.304 2.036-.04 2.037-.3 2.036-.134 2.07.07 2.037-.414 2.036-1.282 2.037-1.586 2.036 1.046 2.07-.925 1.97-1.134 1.97.188 2.036-.754 2.036.32 2.037-.132 4.106-1.208 2.037-.421 2.036-.097 2.037-2.01 2.036 1.842 2.07.028 1.97-2.474 1.97-2.047 2.036-.015 2.037 1.998 2.036-.014 2.037 1.192 4.106-2.27 2.036-1.116 2.037-.949 2.036 1.86 2.07-1.57 2.003-2.444 2.003-1.123 2.037-.127 2.036 1.907 2.037.628 2.036.115 2.07.386 2.037-2.044 2.036-3.739 2.037-1.034 2.036 5.079 2.07-2.37 1.97-3.757 1.97-.098 2.036-1.52 2.037 3.259 2.036 1.088 2.036.23 2.07.077 2.037-3.538 2.036-5.133 2.037-1.32 2.036 6.5 2.07-1.682 1.97-4.645 1.97-1.243 2.036 2.982 2.037 6.214 2.036 2.818 2.037.182 2.07 1.142 2.036-4.692 2.036-3.263 2.037.025 2.036 4.587 2.07-.406 1.97-3.651 1.97-1.277 2.036-1.165 2.037 3.962 2.036 1.731 2.037 3.231 2.07 1.675 2.036-4.363 2.037-3.417 2.036-.414 2.037 4.578 2.07.273 2.002-3.196 2.004.308 2.036-.051 2.037 5.231 2.036 2.403 2.037.254 2.07.91 2.036-2.678 2.036-4.358 2.037-1.132 2.036 4.068 2.07.26 1.97-1.844 1.97.344 2.036.12 2.037 1.527 2.036 2.087 2.037 2.756 2.07.007 2.036-.858 2.036-4.399 2.037-1.844 2.036 6.022 2.07-.182 1.97-1.032 1.97-.784 2.036 1.444 2.037-.743 2.036 3.394 2.037 1.758 2.07-.73 2.036-1.68 2.037-4.137 2.036-1.121 2.037 2.79 2.07-.568 1.97.113 1.969-.905 2.036-1.278 2.037 2.897 2.036 1.542 2.037.035 2.07 1.486 2.036-4.374 2.037-3.687 2.036-1.057 2.037 4.148 2.07.736 2.003-.17 2.003-3.278 2.036-7.346 2.037.33 2.036 6.109 2.037 4.566 2.07 1.633 2.036-3.172 2.037-1.51 2.036-3.27 2.037 3.816 2.07-2.081 1.97.958 1.969-.426 2.036 1.166 2.037 1.87 2.036 1.643 2.037 3.354 2.07.462 2.036-2.15 2.037-2.82 2.036-2.17 2.037 2.08 2.07 1.5 1.97.209 1.969-.595 2.036 1.057 2.037.19 2.036 3.337 2.037.295 2.07-.148 2.036-1.733 4.073-4.73 2.037 3.484 2.07 3.105 1.97.246 1.969 1.612 2.037.027 2.036 1.445h0" clip-path="url(#pc939bc2a60)" style="fill:none;stroke:#aec7e8;stroke-width:1.5;stroke-linecap:square"/><path id="line2d_28" d="m93.998 323.95 34.587-.014 18.329.014 34.52-.016 14.222-.078 2.036-.04 4.073.043 14.156-.105 4.106.065 4.073-.456 2.037.09 2.07-.127 2.002-.335 2.004.027 2.036.186 8.18.15 2.036-.18 2.036.012 2.037-.214 2.036.235 2.07-.266 1.97.062 1.97-.322 2.036.226 2.037-1.663 2.036-1.321 2.037.382 2.07-.371 2.036.416 2.036-.599 2.037-.922 2.036.992 4.04-.83 1.97-.704 2.036.006 2.037-.126 2.036.076 2.037-.896 2.07-.448 2.036.206 2.037-1.131 2.036.03 2.037 1.196 2.07-1.52 3.939-.267 4.073-.224 2.036-.85 2.037-1.211 2.07 1.058 2.036-.789 2.037-.22 2.036-.46 2.037 1.427 2.07-1.801 2.003-.336 2.003-.89 2.036-2.384 2.037.435 2.036 1.02 2.037 1.664 2.07.344 2.036-.972 2.037.06 2.036-.588 2.037 2.067 2.07-1.198 1.97.093 1.969-.388 2.036-.169 2.037.127 2.036-.728 2.037 1.12 4.106-.613 2.037.943 2.036-1.16 2.037 1.854 2.07-1.303 1.97-.606 1.969.03 2.036.865 2.037.552 2.036.165 2.037-.628 2.07-1.002 2.036.942 2.037.607 2.036-.752 2.037 1.369 2.07-.631 1.97.205 1.969 1.302 2.037.688 2.036.377h0" clip-path="url(#pc939bc2a60)" style="fill:none;stroke:#17becf;stroke-width:1.5;stroke-linecap:square"/><path id="line2d_29" d="m49.83 318.803 1.57 1.404 2.036.737 2.036.013 4.04-2.19 1.97.557 2.036-.77 2.036-.527 2.037-.777 2.036-.926 2.07.357 2.037-2.552 2.036-.539 2.037 1.545 2.036.495 2.07-.484 1.97-1.207 1.97-.236 2.036.65 2.036-.566 2.037-1.621 2.036-1.064 2.07-.567 2.037.813 2.036-.386 2.037-1.324 2.036 1.037 2.07-3.224 1.97-.061 1.97-2.077 2.036 1.986 2.037-2.379 2.036-.25 2.037.51 4.106-.04 2.036.551 2.037-2.347 2.036 2.41 2.07-1.52 2.003-3.99 2.003-1.674 2.037 1.153 2.036-.487 2.037.704 2.036-2.225 2.07.224 2.037-.215 2.036-2.658 2.037-2.448 2.036 4.08 2.07-5.501 1.97-2.912 1.97-1.238 2.036.16 2.037 1.62 2.036.67 2.036-3.578 2.07.224 4.073-10.275 2.037.396 2.036 3.795 2.07-5.705 1.97-4.585 1.97-.335 2.036-2.39 2.037 9.16 2.036 1.414 2.037-1.967 2.07 4.555 2.036-2.392 2.036 7.803 2.037 7.218 2.036 1.565 2.07-1.858 1.97-2.628 1.97-1.114 2.036-.44 2.037 2.626 2.036-1.584 2.037.246 2.07 2.768 4.073.203 2.036-.53 2.037 2.037 2.07-1.745 2.002-3.646 2.004-.854 2.036-.087 2.037 1.833 2.036-1.927 2.037 5.354 2.07-.652 2.036.028 2.036-.946 2.037-2.002 2.036 5.1 2.07-1.493 1.97-3.733 1.97-3.213 2.036 3.455 2.037-1.934 2.036 1.08 2.037 1.268 2.07 1.5 2.036 1.62 2.036-1.655 2.037-1.119 2.036 7.049 2.07-3.463 1.97-2.338 1.97-1.363 2.036-.964 2.037.712 2.036 1.49 2.037-.852 2.07.568 2.036 3.746 2.037-3.585 2.036.695 2.037 5.508 2.07-3.4 1.97-4.86 1.969.164 2.036 1.422 4.073 4.251 2.037-4.607 2.07 4.436 2.036-3.225 2.037-2.83 2.036-1.422 2.037 4.92 2.07-1.991 2.003-3.557 2.003.487 2.036-5.197 2.037 1.587 2.036 1.904 2.037 3.128 2.07 3.954 2.036-2.816 2.037-.458 2.036-.331 2.037 5.567 2.07-.645 1.97-3.142 1.969-1.708 2.036 1.355 2.037 2.325 2.036-2.325 2.037 4 2.07-.084 2.036.248 2.037 1.413 2.036-.696 2.037 1.72 2.07.259 1.97-4.008 1.969.678 2.036.446 2.037.213 2.036 3.959 4.107-2.003 2.036-.257 2.037.656 2.036-1.518 2.037 6.354 2.07.155 1.97.699 1.969 1.116 2.037 5.683 2.036.555h0" clip-path="url(#pc939bc2a60)" style="fill:none;stroke:#bcbd22;stroke-width:1.5;stroke-linecap:square"/><path id="line2d_30" d="m49.83 315.707 1.57 2.544 2.036.368 2.036.894 2.07-1.542 1.97-.586 1.97-.837 2.036-.007 2.036-1.142 2.037-.531 2.036-1.2 2.07.448 2.037-.784 2.036-1.22 2.037-.888 2.036 1.098 2.07-2.418 1.97-3.624 1.97.575 2.036-.961 2.036 1.08 2.037-3.506 2.036 1.642 2.07.329 2.037-1.363 2.036-.705 2.037-3.858 2.036 2.407 2.07-2.558 1.97-2.239 1.97-2.562 2.036-.907 2.037 2.954 2.036-.398 2.037.699 2.07-.75 2.036-.868 4.073-3.97 2.036 1.95 2.07-1.338 2.003-6.427 2.003 1.471 2.037-1.74 2.036 3.527 2.037 1.247 2.036-3.251 2.07.918 2.037.594 2.036-5.837 2.037-4.078 2.036 5.62 2.07-2.614 1.97-4.959 1.97-3.172 2.036-1.386 2.037 3.91 2.036 3.065 2.036-1.138 2.07 2.278 2.037-3.733 2.036-8.526 2.037-2.99 2.036 9.824 2.07-4.773 1.97-5.72 1.97-1.156 2.036 1.876 2.037 11.245 2.036 6.47 2.037-2.818 2.07 2.733 2.036-3.732 2.036-2.968 2.037.31 2.036 5.023 2.07-.455 1.97-7.077 1.97-1.558 2.036.004 2.037 3.949 2.036.643 2.037.184 2.07 5.845 2.036-1.633 2.037-6.588 2.036-1.987 2.037 5.393 2.07 3.245 2.002-6.409 2.004-.242 2.036-.633 2.037 7.032 2.036 1.53 4.106 6.397 2.037-2.19 2.036-4.665 2.037-2.237 2.036 7.48 2.07-2.965 1.97-.584 1.97-3.502 2.036 1.135 2.037 5.39 2.036 3.244 2.037-1.288 2.07 1.696 2.036 1.134 2.036-4.21 2.037.09 2.036 5.194 4.04-4.258 1.97-.894 2.036 2.528 2.037.942 2.036 3.295 2.037 1.212 2.07-.771 2.036.414 2.037-3.52 2.036-1.535 2.037 6.849 2.07-2.397 1.97-1.987 1.969-2.752 2.036-1.596 2.037 3.748 2.036 1.35 2.037-5.87 2.07 7.927 2.036-5.316 2.037-7.623 2.036-.402 2.037 6.318 2.07.28 2.003-2.569 2.003-3.333 2.036-14.189 2.037 1.202 2.036 5.824 2.037 5.306 2.07 3.939 2.036 3.277 2.037-2.338 2.036-1.261 2.037 5.25 2.07-2.09 1.97-2.858 1.969.567 2.036 1.499 2.037-.259 2.036 2.649 2.037 4.662 2.07 1.934 2.036-4.423 2.037-.988 2.036-1.467 2.037 4.481 2.07-.673 1.97-.346 1.969.283 2.036-1.442 2.037.475 2.036 7.535 2.037-1.774 2.07-.322 2.036.199 2.037-.886 2.036-1.606 2.037 5.04 2.07 2.398 1.97.801 1.969.215 2.037 3.453 2.036 2.161h0" clip-path="url(#pc939bc2a60)" style="fill:none;stroke:#7f7f7f;stroke-width:1.5;stroke-linecap:square"/><path id="line2d_31" d="m146.914 323.95 2.036-1.942 2.037.906 2.036.468 2.07-.105 1.97.13 1.97-.27 4.073.28 4.072-.224 2.07.007 4.073.175 2.037-.077 4.106-.379 3.94.197 2.036-.18 2.037.047 2.036.2 2.037-.362 2.07.274 2.036.022 2.036-.162 2.037.22 8.046-.333 2.036-.16 2.037-.463 6.143-.35 4.073-.274 4.073-1.17 2.07-.82 2.002-1.26 2.004-.283 2.036-.928 4.073-1.21 2.037-.967 2.07-.63 2.036-.17 2.036-.665 2.037.246 2.036.413 4.04-2.276 1.97-.794 2.036.267 2.037-.82 2.036-.209 2.037-.037 2.07-.932 2.036 1.042 2.036.542 2.037-1.462 2.036 2.29 4.04-3.107 1.97-.37 4.073.84 2.036-.414 2.037-.756 2.07-1.83 2.036.957 2.037-1.32 2.036 1.544 2.037 1.182 2.07-2.74 1.97-2.339 1.969 1.644 2.036-1.064 2.037.7 2.036.343 2.037-1.927 2.07 1.766 4.073-1.612 2.036-2.073 2.037 2.95 2.07-.61 2.003-2.48 2.003-.773 2.036-5.062 2.037.66 2.036.832 2.037.402 2.07 2.923 2.036-.826 2.037.616 2.036 1.34 2.037 2.522 2.07-2.65 1.97-1.633 1.969-1.836 2.036 1.083 2.037 1.938 2.036-1.3 2.037 1.202 2.07-.631 2.036-.948 2.037.212 2.036.881 2.037 1.27 2.07-2.214 1.97-2.955 1.969 1.28 2.036 1.598 2.037.266 2.036-.179 2.037-1.174 2.07-1.542 2.036 1.065 2.037 1.515 2.036-2.471 2.037 3.087 4.04-.434 1.969 1.906 2.037 4.03 2.036 1.192h0" clip-path="url(#pc939bc2a60)" style="fill:none;stroke:#e377c2;stroke-width:1.5;stroke-linecap:square"/><path id="line2d_32" d="m49.83 318.735 1.57.87 2.036.695 2.036.285 2.07-1.1 1.97-1.503 1.97-.375 2.036-.668 2.036-1.288 2.037-3.152 2.036-2.813 4.107-2.177 2.036-.15 2.037-2.914 2.036-.338 2.07-4.31 1.97-.446 1.97-1.741 2.036-.147 2.036-1.521 2.037-1.694 2.036-2.645 2.07-3.827 2.037 2.112 2.036 2.297 2.037-5.412 2.036-.714 4.04-14.505 1.97-4.84 2.036 1.395 2.037-1.29 2.036-1.477 2.037-2.791 2.07-1.718 2.036 4.133 2.036 1.91 2.037-6.372 2.036 4.479 2.07-6.974 2.003-9.365 2.003-2.01 2.037.978 2.036-1.112 2.037.105 2.036-5.86 2.07-.869 2.037 3.934 2.036-3.205 2.037-2.618 2.036 7.742 2.07-13.009 1.97-8.184 1.97-1.376 2.036 2.08 2.037 5.335 2.036-.092 2.036-8.452 2.07.183 2.037-2.914 2.036-4.34 2.037-.36 2.036 6.843 2.07-17.257 1.97-10.697 1.97-.279 2.036.343 2.037 24.855 2.036 9.352 2.037-5.743 2.07 7.717 2.036-4.154 2.036 1.288 2.037 1.138 2.036 7.833 2.07-8.796 1.97-9.234 1.97.087 2.036-3.948 2.037 6.527 2.036-1.986 2.037-3.81 2.07 8.095 2.036 1.908 2.037.398 2.036 1.087h2.037l2.07-5.762 2.002-9.77 2.004 5.86 2.036 1.089 2.037 3.789 2.036 2.41 2.037 8.482 2.07.343 2.036 2.271 2.036 1.998 2.037-.57 2.036 6.19 2.07-8.158 1.97-8.716 1.97-1.552 2.036 8.636 2.037-1.403 2.036 6.125 2.037 2.728 2.07 1.023 2.036 4.194 2.036 1.547 2.037-.78 2.036 12.779 2.07-7.107 1.97.015 1.97 1.947 2.036 4.114 2.037-1.401 2.036 5.102 2.037-2.95 2.07-1.85 2.036 4.062 2.037-2.29 2.036 5.158 2.037 9.688 2.07-8.054 1.97-6.984 1.969 2.127 2.036 1.774 2.037 3.595 2.036 1.83 2.037-9.288 2.07 8.58 2.036-.473 2.037-2.941 2.036-2.259 2.037 10.572 2.07-6.056 2.003-2.937 2.003 1.78 2.036-13.288 2.037 4.135 2.036 4.882 2.037 4.187 2.07 8.586 2.036-.67 2.037 3.593 2.036-1.617 2.037 9.642 2.07-9.833 1.97-1.371 1.969 1.378 2.036 1.937 2.037 2.738 2.036.058 2.037 5.276 2.07-.49 2.036 1.044 2.037 1.548 2.036 2.443 2.037 2.674 2.07-3.89 1.97-.81 1.969 2.681 2.036-1.111 2.037-.438 2.036 7.73 2.037-4.8 2.07-.357 2.036 2.138 2.037.848 2.036-1.667 2.037 5.017 2.07-1.409 1.97 2.651 1.969 4.057 2.037 2.823 2.036.885h0" clip-path="url(#pc939bc2a60)" style="fill:none;stroke:#8c564b;stroke-width:1.5;stroke-linecap:square"/><path id="line2d_33" d="m49.83 323.868 1.57.082 16.19-.036 2.037-.322 2.07.028 2.037-.677 2.036.495 2.037-.169 2.036.12 2.07-.098 1.97-.288 1.97-.027 2.036-.185 2.036.185 6.143-1.01 4.073.484 2.037-.253 2.036.19 2.07-.19 1.97-.746 4.006-.949 2.037.448 2.036-.216 2.037.034 2.07-.932 2.036-.319 2.036.08 2.037-.05 2.036.1 2.07-.533 2.003-1.263 2.003-.146 2.037.11 2.036-.047 4.073-1.696 2.07.224 2.037-.023 2.036-1.21 2.037-.876 2.036 1.219 2.07-2.06 1.97-2.394 1.97-.011 2.036-.368 2.037.83 2.036-.352 2.036-.972 2.07.35 2.037 1.07 2.036-2.29 2.037-1.142 2.036 2.489 2.07-3.14 1.97-3.82 1.97.532 2.036-.074 2.037 1.665 2.036.805 2.037-1.162 2.07 1.135 2.036.194 2.036-2.317 2.037-.146 2.036 3.11 2.07-2.383 1.97-4.161 1.97-1.908 2.036.88 2.037.08 2.036-.84 2.037-3.043 2.07 3.434 2.036.333 2.037-1.686 2.036.158 2.037 3.375 2.07-2.551 2.002-2.154 4.04-3.008 2.037 3.388 2.036-1.382 2.037 1.719 2.07-.274 2.036 2.69 2.036-2.661 2.037.742 2.036 3.715 2.07-2.446 1.97-4.094 1.97-3.721 2.036 1.426 2.037.593 2.036-2.027 4.107.225 2.036 1.455 2.036-1.286 2.037-.858 2.036 6.717 2.07-3.371 1.97-5.594 1.97-.742 2.036 1.353 2.037 1.219 2.036.556 2.037.37 2.07.244 2.036 1.53 2.037-3.597 2.036-.677 2.037 8.211 2.07-5.144 1.97-6.38 1.969 1.95 2.036-2.613 2.037 3.496 2.036 1.617 2.037-3.58 2.07 3.498 2.036-.852 2.037-4.012 2.036.42 2.037 6.526 2.07-2.937 2.003-6.834 2.003-1.5 2.036-11.051 2.037 3.362 2.036 2.83 2.037 6.296 2.07 3.35 2.036-3.454 2.037-1.718 2.036.589 2.037 7.892 2.07-2.446 1.97-3.995 1.969-3.218 2.036 2.303 2.037 2.723 2.036 1.673 2.037 3.352 4.106.972 2.037-1.946 2.036.468 2.037 5.476 2.07-2.152 1.97-4.25 1.969-1.939 2.036 1.221 2.037.615 2.036 3.89 2.037.61 2.07-1.353 2.036 1.605 2.037-2.116 2.036-2.425 2.037 8.305 2.07-.49 1.97-3.314 1.969 2.732 2.037 4.536 2.036 2.88h0" clip-path="url(#pc939bc2a60)" style="fill:none;stroke:#9467bd;stroke-width:1.5;stroke-linecap:square"/><path id="line2d_34" d="m49.83 306.554 1.57 3.448 4.072 2.775 2.07-5.474 1.97-3.506 1.97-2.01 2.036-1.897 2.036-.906 2.037-3.18 2.036-2.757 4.107-.668 2.036-1.568 2.037-.757 2.036 2.376 2.07-4.366 1.97-3.752 1.97-2.704 2.036.436 2.036.21 2.037-2.934 2.036-2.282 2.07-1.955 2.037 2.434 2.036-.878 2.037-5.749 2.036 3.177 2.07-6.337 1.97-7.878 1.97-6.266 2.036 2.797 2.037-3.091 2.036-.487 2.037 3.43 2.07-3.154 2.036 3.143 2.036 2.808 2.037-7.161 2.036 6.467 4.073-15.666 2.003-.805 2.037.842 2.036-.555 2.037-.727 2.036-4.438 2.07 2.803 2.037 2.229 2.036-7.57 2.037.588 2.036 11.853 2.07-13.043 1.97-8.133 1.97-2.493 2.036-.714 2.037 6.3 2.036 1.848 2.036-6.831 2.07 2.551 2.037-2.687 2.036-6.803 2.037.726 2.036 10.334 2.07-12.119 1.97-9.8 1.97 3.64 2.036 2.535 2.037 13.466 2.036 6.813 2.037-5.264 2.07 8.446 2.036-1.726 2.036 1.235 2.037 2.147 2.036 8.143 2.07-4.55 1.97-9.09 1.97-1.45 2.036-1.896 2.037 1.117 2.036-4.405 2.037-.88 2.07 6.323 2.036-.728 2.037 3.889 2.036-.065 2.037 4.53 2.07-1.41 2.002-8.921 2.004.027 2.036-4.054 2.037 4.846 2.036-.037 2.037 10.544 2.07-5.026 2.036 8.728 2.036.202 2.037-4.15 2.036 9.498 2.07-7.1 1.97-7.386 1.97-1.761 2.036 10.856 2.037-3.847 2.036 2.138 2.037 3.343 2.07 1.787 2.036 5.198 2.036-.074 2.037.596 2.036 10.71 2.07-5.503 1.97-.791 1.97-2.139 2.036 1.815 2.037-2.796 2.036 6.12 2.037-6.26 2.07-3.343 2.036 5.931 2.037-5.167 2.036 4.059 2.037 9.72 2.07-9.644 1.97-4.83 1.969 2.7 2.036-4.718 2.037 3.28 2.036 5.172 2.037-9.524 2.07 8.943 2.036-3.96 2.037-3.638 2.036.582 2.037 12.455 2.07-6.182 2.003-5.105 2.003 1.685 2.036-10.907 4.073 10.487 2.037 3.118 2.07 5.32 2.036 2.289 2.037 3.795 2.036-.05 2.037 11.734 2.07-11.46 1.97-2.933 1.969.655 2.036 3.314 2.037 2.903 2.036-.78 2.037 6.773 2.07.19 2.036-.923 2.037.06 2.036-4.754 2.037 7.13 2.07-1.458 1.97-4.116 1.969.374 2.036 2.633 2.037-1.246 2.036 5.259 2.037-2.448 2.07-2.867 2.036 2.838 2.037.288 2.036-3.649 2.037 8.338 2.07-.196 1.97-.3 1.969 3.622 2.037 7.099 2.036.464h0" clip-path="url(#pc939bc2a60)" style="fill:none;stroke:#d62728;stroke-width:1.5;stroke-linecap:square"/><path id="line2d_35" d="m49.83 311.212 1.57 4.663 4.072 2.236 2.07-2.243 1.97-1.292 1.97-.726 2.036-1.018 2.036-1.66 2.037-2.577 2.036-.528 2.07.505 2.037-1.041 2.036-1.174 2.037-2.426 2.036 1.158 2.07-7.31 1.97-1.664 1.97-3.39 2.036 3.007 2.036-1.101 2.037-1.825 2.036-.593 2.07-1.325 4.073-2.257 2.037-5.363 2.036.8 2.07-6.16 1.97-7.603 1.97-6.114 2.036 2.238 2.037-2.827 2.036 2.732 2.037.163 2.07-3.757 2.036.618 2.036.335 2.037-9.954 2.036 5.293 2.07-6.665L132.658 241l2.003-4.867 2.037-.14 2.036 1.787 2.037 5.094 2.036-5.396 2.07.155 2.037 1.758 2.036-10.492 2.037-4.008 2.036 11.543 2.07-9.315 1.97-10.941 1.97-4.83 2.036-5.983 2.037 10.49 2.036 6.182 2.036-5.347 2.07 1.072 2.037-12.325 2.036-13.798 2.037-4.533 2.036 13.708 2.07-8.712 1.97-18.868 1.97-4.633 2.036 2.832 2.037 25.512 2.036 10.665 2.037-6.382 2.07 11.579 2.036-10.962 2.036-4.41 2.037-3.832 2.036 14.599 2.07-1.164 1.97-14.063 1.97-8.527 2.036-4.846 2.037 13.635 2.036.626 2.037-1.831 2.07 11.48 2.036-3.072 2.037-7.21 2.036 1.097 2.037 12.907 2.07-.694 2.002-17.095 2.004-6.013 2.036-1.592 2.037 21.694 2.036 4.279 2.037 10.678 2.07-1.605 2.036.096 2.036-1.267 2.037-5.932 2.036 16.41 2.07-5.095 1.97-11.004 1.97-8.48 2.036 6.112 2.037.854 2.036 8.64 2.037 6.738L266.8 227l2.036 3.772 2.036-5.826 2.037-4.763 2.036 18.928 2.07-2.376 1.97-6.853 1.97-1.656 2.036-2.712 2.037 3.161 2.036 9.137 2.037-4.357 2.07.372 2.036 1.03 2.037-12.399 2.036 3.258 2.037 13.529 2.07-5.23 1.97-8.758 1.969-.696 2.036 2.829 2.037 3.416 2.036 5.593 2.037-13.85 2.07 15.721 2.036-7.455 2.037-11.84 2.036 2.78 2.037 16.06 2.07-6.014 2.003-6.97 2.003-7.826 2.036-22.49 2.037 11.17 2.036 12.586 2.037 7.677 2.07 10.69 2.036-1.318 2.037 1.612 2.036.047 2.037 20.258 2.07-10.416 1.97-5.128 1.969-2.904 2.036 5.172 2.037.828 2.036 2.373 2.037 11.47 2.07 1.29 2.036-2.092 2.037 2.028 2.036-5.7 2.037 8.427 2.07-1.837 1.97-4.505 1.969.363 2.036.594 2.037 2.224 2.036 12.885 2.037-3.584 6.143-.596 2.036-4.425 2.037 9.527 2.07 3.126 1.97-1.118 1.969 2.548 2.037 6.928 2.036 3.642h0" clip-path="url(#pc939bc2a60)" style="fill:none;stroke:#2ca02c;stroke-width:1.5;stroke-linecap:square"/><path id="line2d_36" d="m49.83 317.241 1.57 1.62 2.036.895 2.036-.194 2.07-1.156 1.97-1.82 1.97.313 2.036-.547 2.036-2.446 2.037-1.233 2.036-.996 2.07-.743 2.037.356 2.036-1.66 2.037-1.817 2.036-.019 4.04-4.26 1.97-.506 4.072-1.633 2.037-2.541 2.036-2.001 4.107-1.83 2.036.07 2.037-4.061 2.036-1.805 2.07-3.49 1.97-5.367 1.97-3.934 2.036-2.562 2.037-1.286 2.036-4.5 2.037-1.157 2.07-5.607 4.072 6.056 2.037-6.572 2.036 4.525 2.07-8.971 2.003-7.763 2.003-.165 2.037-2.343 2.036-3.397 2.037-.673 2.036-5.011 2.07-.554 2.037 6.354 2.036-6.179 2.037-2.316 2.036 7.167 2.07-14.776 1.97-10.093 1.97-.96 2.036-3.79 2.037 6.02 2.036-.386 2.036-12.287 2.07.09 2.037-10.603 2.036-10.003 2.037 4.405 2.036 7.693 2.07-21.756 1.97-16.374 1.97 5.222 2.036 3.48 2.037 16.678 2.036 6.121 2.037-8.476 2.07 11.734 2.036-1.788 2.036-1.275 2.037 2.413 2.036 11.093 2.07-10.717 1.97-14.899 1.97.888 2.036-7.478 2.037-3.827 2.036-8.456 2.037-4.49 2.07 13.128 2.036-.056 2.037 2.299 2.036-1.104 2.037 6.276 2.07-10.093 2.002-10.654 2.004-.385 2.036-.976 2.037 8.644 2.036.663 2.037 5.035 2.07-3.35 2.036 10.96 2.036 4.656 2.037-5.33 2.036 9.809 2.07-11.243 1.97-14.285 1.97-1.772 2.036 12.234 2.037-3.087 2.036.573 2.037 4.866 2.07 1.703 2.036 12.19 2.036-1.83 2.037-1.169 2.036 21.557 2.07-13.885 1.97-.914 1.97-.361 2.036 3.975 2.037 3.223 2.036 2.209 2.037-8.881 2.07-6.168 2.036 9.849 2.037-7.396 2.036 4.76 2.037 19.96 2.07-13.47 1.97-11.681 1.969.27 2.036 3.95 2.037 4.551 2.036 1.026 2.037-14.728 2.07 9.988 2.036-.837 2.037-8.296 2.036-3.408 2.037 18.597 2.07-14.138 2.003-8.47 2.003-9.185 2.036-38.321 2.037 3.71 2.036 9.985 2.037 5.196 2.07 18 2.036 4.341 2.037 6.6 2.036 2.642 2.037 15.14 2.07-20.971 1.97-3.048 1.969-.611 2.036 5.202 2.037 6.054 2.036 1.53 2.037 10.96 2.07-.54 2.036-2.628 2.037 7.626 2.036-.745 2.037 8.644 2.07-9.56 1.97-7.82 1.969 6.033 2.036-1.114 2.037 3.98 2.036 17.43 2.037-9.769 2.07-4.275 4.073 11.221 2.036-6.376 2.037 17.97 2.07 4.247 1.97 4.645 1.969 8.854 2.037 15.12 2.036 6.37h0" clip-path="url(#pc939bc2a60)" style="fill:none;stroke:#ff7f0e;stroke-width:1.5;stroke-linecap:square"/><path id="line2d_37" d="m49.83 318.192 1.57 2.176 4.072.49 2.07-1.33 3.94-.94 2.036-.2 2.036-1.468 4.073-1.122 2.07.155 2.037-.463 2.036-1.514 2.037-1.325 2.036.154 2.07-2.537 1.97-.806 1.97-.042 2.036 1.37 2.036-.935 2.037-1.897 2.036-2.232 2.07.73 2.037 1.162 2.036-2.368 2.037-.254 2.036 1.53 4.04-6.004 1.97-2.92 2.036 2.078 6.11-1.523 2.07-1.136 2.036 1.398 2.036.039 2.037-2.646 2.036 2.674 4.073-8.364 2.003-1.687 2.037-.271 2.036-.15 2.037-2.414 2.036-1.931 2.07-.911 2.037 3.03 2.036-4.937 2.037-3.32 2.036 5.97 2.07-5.874 1.97-6.399 1.97-1.1 2.036-3.938 2.037 2.732 2.036-.292 2.036-5.35 2.07 4.766 2.037-2.016 2.036-8.918 2.037-2.192 2.036 9.502 2.07-9.7 1.97-7.969 1.97-3.21 2.036 1.961 2.037 13.108 2.036.429 2.037-5.168 2.07 5.874 2.036.286 2.036-3.643 2.037-2.209 2.036 6.043 2.07-4.556 1.97-11.204 1.97-2.33 2.036-1.584 2.037 4.408 2.036-6.906 2.037-.874 2.07 7.745 2.036-.81 2.037-8.134 2.036-1.578 2.037 7.55 2.07-4.962 2.002-12.8 2.004.625 2.036-.378 2.037 7.058 2.036-1.532 2.037 3.53 2.07-.456 2.036 1.047 2.036-5.316 2.037-8.054 2.036 11.362 2.07-8.712 1.97-14.704 1.97-5.426 2.036 6.811 2.037-.005 2.036-2.812 2.037-2.487 2.07 3.224 2.036 3.464 2.036-7.017 2.037-4.123 2.036 18.218 2.07-8.993 1.97-13.192 1.97 1.22 2.036 2.74 2.037-.503 2.036 1.655 2.037-15.176 2.07-.063 2.036 8.96 2.037-13.48 2.036-4.504 2.037 22.587 2.07-9.28 1.97-19.74 1.969-5.633 2.036-4.346 2.037 10.157 2.036-3.79 2.037-16.943 2.07 17.088 2.036 2.846 2.037-26.516 2.036-9.966 2.037 29.472 4.073-35.944 2.003-14.303 2.036-53.477 2.037-1.544 2.036 14.48 2.037 16.52 2.07 29.313 2.036 1.563 2.037-3.66 2.036-2.793 2.037 28.734 2.07-25.737 1.97-10.38 1.969-4.78 2.036 8.44 2.037 6.426 2.036 7.132 2.037 14.87 2.07 3.307 2.036 2.305 2.037-2.634 2.036-1.646 2.037 11.087 2.07-7.45 1.97-18.991 1.969 5.933 2.036-.69 2.037 7.93 2.036 23.8 2.037-15.424 2.07 2.004 2.036 6.315 2.037-9.293 2.036-12.384 2.037 33.677 2.07 12.399 1.97.433 1.969 17.047 2.037 23.045 2.036 7.662h0" clip-path="url(#pc939bc2a60)" style="fill:none;stroke:#1f77b4;stroke-width:1.5;stroke-linecap:square"/></g></g><defs><clipPath id="pc939bc2a60"><path d="M49.83 57.838h357.12V323.95H49.83z"/></clipPath></defs></svg>