<svg xmlns:xlink="http://www.w3.org/1999/xlink" width="637.669" height="489.969" viewBox="0 0 478.252 367.477" xmlns="http://www.w3.org/2000/svg"><defs><style>*{stroke-linejoin:round;stroke-linecap:butt}</style></defs><g id="figure_1"><path d="M0 367.477h478.252V0H0v367.477z" style="fill:none" id="patch_1"/><g id="axes_1"><path d="M32.015 323.95h357.12V57.838H32.015V323.95z" style="fill:none" id="patch_2"/><g id="matplotlib.axis_1"><g id="xtick_1"><g id="line2d_1"><defs><path id="mfef780a172" d="M0 0v3.5" style="stroke:#b0b0b0;stroke-width:.4"/></defs><use xlink:href="#mfef780a172" x="65.337" y="323.95" style="fill:#b0b0b0;stroke:#b0b0b0;stroke-width:.4"/></g><g style="fill:#b0b0b0" transform="matrix(.14 0 0 -.14 47.522 341.588)" id="text_1"><defs><path id="DejaVuSans-32" d="M1228 531h2203V0H469v531q359 372 979 998 621 627 780 809 303 340 423 576 121 236 121 464 0 372-261 606-261 235-680 235-297 0-627-103-329-103-704-313v638q381 153 712 231 332 78 607 78 725 0 1156-363 431-362 431-968 0-288-108-546-107-257-392-607-78-91-497-524-418-433-1181-1211z" transform="scale(.01563)"/><path id="DejaVuSans-30" d="M2034 4250q-487 0-733-480-245-479-245-1442 0-959 245-1439 246-480 733-480 491 0 736 480 246 480 246 1439 0 963-246 1442-245 480-736 480zm0 500q785 0 1199-621 414-620 414-1801 0-1178-414-1799Q2819-91 2034-91q-784 0-1198 620-414 621-414 1799 0 1181 414 1801 414 621 1198 621z" transform="scale(.01563)"/><path id="DejaVuSans-31" d="M794 531h1031v3560L703 3866v575l1116 225h631V531h1031V0H794v531z" transform="scale(.01563)"/></defs><use xlink:href="#DejaVuSans-32"/><use xlink:href="#DejaVuSans-30" x="63.623"/><use xlink:href="#DejaVuSans-31" x="127.246"/><use xlink:href="#DejaVuSans-30" x="190.869"/></g></g><g id="xtick_2"><use xlink:href="#mfef780a172" x="117.649" y="323.95" style="fill:#b0b0b0;stroke:#b0b0b0;stroke-width:.4" id="line2d_2"/><g style="fill:#b0b0b0" transform="matrix(.14 0 0 -.14 99.834 341.588)" id="text_2"><use xlink:href="#DejaVuSans-32"/><use xlink:href="#DejaVuSans-30" x="63.623"/><use xlink:href="#DejaVuSans-31" x="127.246"/><use xlink:href="#DejaVuSans-32" x="190.869"/></g></g><g id="xtick_3"><use xlink:href="#mfef780a172" x="170.033" y="323.95" style="fill:#b0b0b0;stroke:#b0b0b0;stroke-width:.4" id="line2d_3"/><g style="fill:#b0b0b0" transform="matrix(.14 0 0 -.14 152.218 341.588)" id="text_3"><defs><path id="DejaVuSans-34" d="M2419 4116 825 1625h1594v2491zm-166 550h794V1625h666v-525h-666V0h-628v1100H313v609l1940 2957z" transform="scale(.01563)"/></defs><use xlink:href="#DejaVuSans-32"/><use xlink:href="#DejaVuSans-30" x="63.623"/><use xlink:href="#DejaVuSans-31" x="127.246"/><use xlink:href="#DejaVuSans-34" x="190.869"/></g></g><g id="xtick_4"><use xlink:href="#mfef780a172" x="222.345" y="323.95" style="fill:#b0b0b0;stroke:#b0b0b0;stroke-width:.4" id="line2d_4"/><g style="fill:#b0b0b0" transform="matrix(.14 0 0 -.14 204.53 341.588)" id="text_4"><defs><path id="DejaVuSans-36" d="M2113 2584q-425 0-674-291-248-290-248-796 0-503 248-796 249-292 674-292t673 292q248 293 248 796 0 506-248 796-248 291-673 291zm1253 1979v-575q-238 112-480 171-242 60-480 60-625 0-955-422-329-422-376-1275 184 272 462 417 279 145 613 145 703 0 1111-427 408-426 408-1160 0-719-425-1154Q2819-91 2113-91q-810 0-1238 620-428 621-428 1799 0 1106 525 1764t1409 658q238 0 480-47t505-140z" transform="scale(.01563)"/></defs><use xlink:href="#DejaVuSans-32"/><use xlink:href="#DejaVuSans-30" x="63.623"/><use xlink:href="#DejaVuSans-31" x="127.246"/><use xlink:href="#DejaVuSans-36" x="190.869"/></g></g><g id="xtick_5"><use xlink:href="#mfef780a172" x="274.729" y="323.95" style="fill:#b0b0b0;stroke:#b0b0b0;stroke-width:.4" id="line2d_5"/><g style="fill:#b0b0b0" transform="matrix(.14 0 0 -.14 256.914 341.588)" id="text_5"><defs><path id="DejaVuSans-38" d="M2034 2216q-450 0-708-241-257-241-257-662 0-422 257-663 258-241 708-241t709 242q260 243 260 662 0 421-258 662-257 241-711 241zm-631 268q-406 100-633 378-226 279-226 679 0 559 398 884 399 325 1092 325 697 0 1094-325t397-884q0-400-227-679-226-278-629-378 456-106 710-416 255-309 255-755 0-679-414-1042Q2806-91 2034-91q-771 0-1186 362-414 363-414 1042 0 446 256 755 257 310 713 416zm-231 997q0-362 226-565 227-203 636-203 407 0 636 203 230 203 230 565 0 363-230 566-229 203-636 203-409 0-636-203-226-203-226-566z" transform="scale(.01563)"/></defs><use xlink:href="#DejaVuSans-32"/><use xlink:href="#DejaVuSans-30" x="63.623"/><use xlink:href="#DejaVuSans-31" x="127.246"/><use xlink:href="#DejaVuSans-38" x="190.869"/></g></g><g id="xtick_6"><use xlink:href="#mfef780a172" x="327.041" y="323.95" style="fill:#b0b0b0;stroke:#b0b0b0;stroke-width:.4" id="line2d_6"/><g style="fill:#b0b0b0" transform="matrix(.14 0 0 -.14 309.226 341.588)" id="text_6"><use xlink:href="#DejaVuSans-32"/><use xlink:href="#DejaVuSans-30" x="63.623"/><use xlink:href="#DejaVuSans-32" x="127.246"/><use xlink:href="#DejaVuSans-30" x="190.869"/></g></g><g id="xtick_7"><use xlink:href="#mfef780a172" x="379.425" y="323.95" style="fill:#b0b0b0;stroke:#b0b0b0;stroke-width:.4" id="line2d_7"/><g style="fill:#b0b0b0" transform="matrix(.14 0 0 -.14 361.61 341.588)" id="text_7"><use xlink:href="#DejaVuSans-32"/><use xlink:href="#DejaVuSans-30" x="63.623"/><use xlink:href="#DejaVuSans-32" x="127.246"/><use xlink:href="#DejaVuSans-32" x="190.869"/></g></g></g><g id="matplotlib.axis_2"><g id="ytick_1"><path d="M32.015 323.95h357.12" clip-path="url(#p515aafa3f4)" style="fill:none;stroke:#b0b0b0;stroke-width:.3;stroke-linecap:square" id="line2d_8"/><g id="line2d_9"><defs><path id="mf709de8236" d="M0 0h-3.5" style="stroke:#b0b0b0;stroke-width:.3"/></defs><use xlink:href="#mf709de8236" x="32.015" y="323.95" style="fill:#b0b0b0;stroke:#b0b0b0;stroke-width:.3"/></g><use xlink:href="#DejaVuSans-30" style="fill:#b0b0b0" transform="matrix(.14 0 0 -.14 16.108 329.269)" id="text_8"/></g><g id="ytick_2"><path d="M32.015 268.51h357.12" clip-path="url(#p515aafa3f4)" style="fill:none;stroke:#b0b0b0;stroke-width:.3;stroke-linecap:square" id="line2d_10"/><use xlink:href="#mf709de8236" x="32.015" y="268.51" style="fill:#b0b0b0;stroke:#b0b0b0;stroke-width:.3" id="line2d_11"/><g style="fill:#b0b0b0" transform="matrix(.14 0 0 -.14 7.2 273.829)" id="text_9"><use xlink:href="#DejaVuSans-31"/><use xlink:href="#DejaVuSans-30" x="63.623"/></g></g><g id="ytick_3"><path d="M32.015 213.07h357.12" clip-path="url(#p515aafa3f4)" style="fill:none;stroke:#b0b0b0;stroke-width:.3;stroke-linecap:square" id="line2d_12"/><use xlink:href="#mf709de8236" x="32.015" y="213.07" style="fill:#b0b0b0;stroke:#b0b0b0;stroke-width:.3" id="line2d_13"/><g style="fill:#b0b0b0" transform="matrix(.14 0 0 -.14 7.2 218.389)" id="text_10"><use xlink:href="#DejaVuSans-32"/><use xlink:href="#DejaVuSans-30" x="63.623"/></g></g><g id="ytick_4"><path d="M32.015 157.63h357.12" clip-path="url(#p515aafa3f4)" style="fill:none;stroke:#b0b0b0;stroke-width:.3;stroke-linecap:square" id="line2d_14"/><use xlink:href="#mf709de8236" x="32.015" y="157.63" style="fill:#b0b0b0;stroke:#b0b0b0;stroke-width:.3" id="line2d_15"/><g style="fill:#b0b0b0" transform="matrix(.14 0 0 -.14 7.2 162.949)" id="text_11"><defs><path id="DejaVuSans-33" d="M2597 2516q453-97 707-404 255-306 255-756 0-690-475-1069Q2609-91 1734-91q-293 0-604 58T488 141v609q262-153 574-231 313-78 654-78 593 0 904 234t311 681q0 413-289 645-289 233-804 233h-544v519h569q465 0 712 186t247 536q0 359-255 551-254 193-729 193-260 0-557-57-297-56-653-174v562q360 100 674 150t592 50q719 0 1137-327 419-326 419-882 0-388-222-655t-631-370z" transform="scale(.01563)"/></defs><use xlink:href="#DejaVuSans-33"/><use xlink:href="#DejaVuSans-30" x="63.623"/></g></g><g id="ytick_5"><path d="M32.015 102.19h357.12" clip-path="url(#p515aafa3f4)" style="fill:none;stroke:#b0b0b0;stroke-width:.3;stroke-linecap:square" id="line2d_16"/><use xlink:href="#mf709de8236" x="32.015" y="102.19" style="fill:#b0b0b0;stroke:#b0b0b0;stroke-width:.3" id="line2d_17"/><g style="fill:#b0b0b0" transform="matrix(.14 0 0 -.14 7.2 107.509)" id="text_12"><use xlink:href="#DejaVuSans-34"/><use xlink:href="#DejaVuSans-30" x="63.623"/></g></g></g><path d="m155.773 323.95 2.185-.179 2.222.179h6.557l2.185-.358h2.222l2.114-.038 2.114-.856 2.185.328 2.186.387 2.186-.757 2.185-1.925 2.222 1.967 2.185-.411 2.186-.304 2.186.488 2.185-2.098 2.222.179 2.114.626 2.114-2.415 2.186 1.306 2.185 1.556 2.186-.632 2.185-3.66 2.222 3.219 2.186-2.885 2.185-.513 2.186 1.991 2.185-2.17 2.222 1.252 2.15 1.517 2.15-1.875 2.185-.387 2.186-1.938 2.186 1.383 2.185.048 2.222-2.504 2.185.054 2.186 3.702 2.186-1.484 2.185.232 2.222-6.26 2.114-2.011 2.114 3.442 2.185 1.455 2.186-1.097 2.186.173 2.185.006 2.222 3.398 2.185-4.143 2.186-2.474 2.186 3.213 2.185 2.51 2.222-4.471 2.114-7.358 2.114 9.861 2.185-.357 2.186-3.04 2.186-1.026 2.185 3.35 2.222 1.61 2.185-.155 2.186.334 2.186-1.258 2.185 5.55 2.222-7.511 2.114-3.596 2.114.913 2.185-1.824 2.186-2.468 2.186 6.349 2.185 1.341 2.222-2.325 2.186 2.093 2.185.59 2.186-.59 2.185.053 2.222.358 2.15 2.399 2.15-5.082 2.185-5.675 2.186-2.015 2.185 5.342 2.186 5.03 2.222 3.041 2.185-2.343 2.186.912 2.186-.172 2.185 2.855 2.222-.894 2.114-.76 2.114-1.565 2.185-.19 2.186 4.84 2.186-1.145 2.185 1.86 2.222-.358 2.185-.763 2.186 1.121 2.186 1.097 2.185.155 2.222-2.861 2.114 2.56 2.114-.414 2.185-1.842 2.186.769" clip-path="url(#p515aafa3f4)" style="fill:none;stroke:#d62728;stroke-width:1.5;stroke-linecap:square" id="line2d_18"/><path d="m166.737 323.95 2.185-.358 2.222.358 2.114-.594 2.114.057 2.185-1.126 2.186.59 2.186.703 2.185-.346 2.222-1.073 2.185-.429 2.186.25 2.186.12 2.185-1.192 2.222.357 2.114 1.693 2.114-3.123 2.186.232 2.185.662 2.186-1.586 2.185-3.958 2.222 4.292 2.186 1.33 2.185-4.192 2.186-.798 2.185 1.335 2.222.715 2.15-2.904 2.15.043 2.185.071 2.186.108 2.186 1.37 2.185.955 2.222-4.65 2.185 4.805 2.186-2.66 2.186 2.105 2.185.757 2.222-1.967 2.114-1.456 2.114-1.584 2.185-.74 2.186 1.992 2.186-.328 2.185-2.891 2.222-1.252 2.185 2.48 2.186 3.6 2.186-1.383 2.185 2.814 2.222-3.577 2.114-.715 2.114-1.073 2.185.149 2.186-1.222 2.186-.811 2.185-1.693 2.222-3.04 2.185 4.363 2.186-2.038 2.186 1.3 2.185-1.837 2.222-.358 2.114 1.508 2.114-5.263 2.185-1.073 2.186-2.146 2.186 3.809 2.185-3.273 2.222 2.504 2.186 4.65 2.185-6.617 2.186-1.33 2.185 4.37 2.222-4.47 2.15-3.997 2.15-7.092 2.185-9.139 2.186-3.558 2.185 1.156 2.186 5.997 2.222 8.048 2.185-2.403 2.186 1.866 2.186-5.007 2.185 11.267 2.222-13.234 2.114 6.52 2.114-5.626 2.185-.22 2.186 5.227 2.186 1.24 2.185 4.662 2.222-3.577 2.185 2.057 2.186 3.487 2.186-5.15 2.185 6.58 2.222-1.43 2.114 1.463 2.114-10.584 2.185 4.71 2.186 5.305" clip-path="url(#p515aafa3f4)" style="fill:none;stroke:#2ca02c;stroke-width:1.5;stroke-linecap:square" id="line2d_19"/><path d="m155.773 323.95 2.185-.179 2.222.179h2.185l2.186-.179 2.186.179 2.185-.179 2.222.179 2.114-.198 2.114.198 2.185-.185 2.186-.173 2.186-.012 2.185-.346h2.222l2.185.531 2.186-.53 2.186-.579 2.185.936 2.222-.358 2.114-.076 2.114-.46 2.186-.781 2.185.423 2.186.131 2.185-2.098h2.222l2.186.25 2.185.465 2.186-1.204 2.185-5.413 2.222 1.252 2.15-1.714 2.15-.253 2.185-2.557 2.186 1.484 2.186-1.484 2.185-1.377 2.222-.18 2.185 1.002 2.186-1.18 2.186 1.365 2.185-1.723 2.222 1.967 2.114-5.537 2.114-3.047 2.185 2.98 2.186 3.28 2.186-3.834 2.185.078 2.222-4.471 2.185 3.285 2.186 4.584 2.186-5.508 2.185 7.296 2.222-2.861 2.114-.396 2.114 2.184 2.185-7.702 2.186-.882 2.186.328 2.185 3.249 2.222-1.431 2.185 1.878 2.186 4.203 2.186-4.942 2.185 6.372 2.222-5.365 2.114.722 2.114-1.795 2.185-3.446 2.186-2.098 2.186 2.468 2.185-9.085 2.222 2.683 2.186 4 2.185-5.431 2.186-.113 2.185 2.795 2.222-.715 2.15-3.54 2.15-4.329 2.185-22.486 2.186 1.026 2.185-.656 2.186 5.663 2.222 4.65 2.185-.334 2.186.692 2.186-2.91 2.185 8.632 2.222-8.047 2.114-4.848 2.114 2.165 2.185 4.316 2.186-2.349 2.186-1.901 2.185 9.412 2.222-5.007 2.185 5.943 2.186-4.691 2.186 4.322 2.185 3.368 2.222-3.935 2.114-6.693 2.114-.639 2.185-3.19 2.186 4.8" clip-path="url(#p515aafa3f4)" style="fill:none;stroke:#ff7f0e;stroke-width:1.5;stroke-linecap:square" id="line2d_20"/><g style="fill:#1f77b4" transform="matrix(.14 0 0 -.14 399.849 180.808)" id="text_13"><defs><path id="DejaVuSans-6d" d="M3328 2828q216 388 516 572t706 184q547 0 844-383 297-382 297-1088V0h-578v2094q0 503-179 746-178 244-543 244-447 0-707-297-259-296-259-809V0h-578v2094q0 506-178 748t-550 242q-441 0-701-298-259-298-259-808V0H581v3500h578v-544q197 322 472 475t653 153q382 0 649-194 267-193 395-562z" transform="scale(.01563)"/><path id="DejaVuSans-61" d="M2194 1759q-697 0-966-159t-269-544q0-306 202-486 202-179 548-179 479 0 768 339t289 901v128h-572zm1147 238V0h-575v531q-197-318-491-470T1556-91q-537 0-855 302-317 302-317 808 0 590 395 890 396 300 1180 300h807v57q0 397-261 614t-733 217q-300 0-585-72-284-72-546-216v532q315 122 612 182 297 61 578 61 760 0 1135-394 375-393 375-1193z" transform="scale(.01563)"/><path id="DejaVuSans-74" d="M1172 4494v-994h1184v-447H1172V1153q0-428 117-550t477-122h590V0h-590q-666 0-919 248-253 249-253 905v1900H172v447h422v994h578z" transform="scale(.01563)"/><path id="DejaVuSans-70" d="M1159 525v-1856H581v4831h578v-531q182 312 458 463 277 152 661 152 638 0 1036-506 399-506 399-1331T3314 415Q2916-91 2278-91q-384 0-661 152-276 152-458 464zm1957 1222q0 634-261 995t-717 361q-457 0-718-361t-261-995q0-634 261-995t718-361q456 0 717 361t261 995z" transform="scale(.01563)"/><path id="DejaVuSans-6c" d="M603 4863h575V0H603v4863z" transform="scale(.01563)"/><path id="DejaVuSans-6f" d="M1959 3097q-462 0-731-361t-269-989q0-628 267-989 268-361 733-361 460 0 728 362 269 363 269 988 0 622-269 986-268 364-728 364zm0 487q750 0 1178-488 429-487 429-1349 0-859-429-1349Q2709-91 1959-91q-753 0-1180 489-426 490-426 1349 0 862 426 1349 427 488 1180 488z" transform="scale(.01563)"/><path id="DejaVuSans-69" d="M603 3500h575V0H603v3500zm0 1363h575v-729H603v729z" transform="scale(.01563)"/><path id="DejaVuSans-62" d="M3116 1747q0 634-261 995t-717 361q-457 0-718-361t-261-995q0-634 261-995t718-361q456 0 717 361t261 995zM1159 2969q182 312 458 463 277 152 661 152 638 0 1036-506 399-506 399-1331T3314 415Q2916-91 2278-91q-384 0-661 152-276 152-458 464V0H581v4863h578V2969z" transform="scale(.01563)"/></defs><use xlink:href="#DejaVuSans-6d"/><use xlink:href="#DejaVuSans-61" x="97.412"/><use xlink:href="#DejaVuSans-74" x="158.691"/><use xlink:href="#DejaVuSans-70" x="197.9"/><use xlink:href="#DejaVuSans-6c" x="261.377"/><use xlink:href="#DejaVuSans-6f" x="289.16"/><use xlink:href="#DejaVuSans-74" x="350.342"/><use xlink:href="#DejaVuSans-6c" x="389.551"/><use xlink:href="#DejaVuSans-69" x="417.334"/><use xlink:href="#DejaVuSans-62" x="445.117"/></g><g style="fill:#ff7f0e" transform="matrix(.14 0 0 -.14 399.849 278.096)" id="text_14"><defs><path id="DejaVuSans-79" d="M2059-325q-243-625-475-815-231-191-618-191H506v481h338q237 0 368 113 132 112 291 531l103 262L191 3500h609L1894 763l1094 2737h609L2059-325z" transform="scale(.01563)"/></defs><use xlink:href="#DejaVuSans-70"/><use xlink:href="#DejaVuSans-6c" x="63.477"/><use xlink:href="#DejaVuSans-6f" x="91.26"/><use xlink:href="#DejaVuSans-74" x="152.441"/><use xlink:href="#DejaVuSans-6c" x="191.65"/><use xlink:href="#DejaVuSans-79" x="219.434"/></g><g style="fill:#2ca02c" transform="matrix(.14 0 0 -.14 399.849 301.702)" id="text_15"><defs><path id="DejaVuSans-73" d="M2834 3397v-544q-243 125-506 187-262 63-544 63-428 0-642-131t-214-394q0-200 153-314t616-217l197-44q612-131 870-370t258-667q0-488-386-773Q2250-91 1575-91q-281 0-586 55T347 128v594q319-166 628-249 309-82 613-82 406 0 624 139 219 139 219 392 0 234-158 359-157 125-692 241l-200 47q-534 112-772 345-237 233-237 639 0 494 350 762 350 269 994 269 318 0 599-47 282-46 519-140z" transform="scale(.01563)"/><path id="DejaVuSans-65" d="M3597 1894v-281H953q38-594 358-905t892-311q331 0 642 81t618 244V178Q3153 47 2828-22t-659-69q-838 0-1327 487-489 488-489 1320 0 859 464 1363 464 505 1252 505 706 0 1117-455 411-454 411-1235zm-575 169q-6 471-264 752-258 282-683 282-481 0-770-272t-333-766l2050 4z" transform="scale(.01563)"/><path id="DejaVuSans-72" d="M2631 2963q-97 56-211 82-114 27-251 27-488 0-749-317t-261-911V0H581v3500h578v-544q182 319 472 473 291 155 707 155 59 0 131-8 72-7 159-23l3-590z" transform="scale(.01563)"/><path id="DejaVuSans-6e" d="M3513 2113V0h-575v2094q0 497-194 743-194 247-581 247-466 0-735-297-269-296-269-809V0H581v3500h578v-544q207 316 486 472 280 156 646 156 603 0 912-373 310-373 310-1098z" transform="scale(.01563)"/></defs><use xlink:href="#DejaVuSans-73"/><use xlink:href="#DejaVuSans-65" x="52.1"/><use xlink:href="#DejaVuSans-61" x="113.623"/><use xlink:href="#DejaVuSans-62" x="174.902"/><use xlink:href="#DejaVuSans-6f" x="238.379"/><use xlink:href="#DejaVuSans-72" x="299.561"/><use xlink:href="#DejaVuSans-6e" x="338.924"/></g><g style="fill:#d62728" transform="matrix(.14 0 0 -.14 399.849 321.375)" id="text_16"><defs><path id="DejaVuSans-6b" d="M581 4863h578V1991l1716 1509h734L1753 1863 3688 0h-750L1159 1709V0H581v4863z" transform="scale(.01563)"/><path id="DejaVuSans-68" d="M3513 2113V0h-575v2094q0 497-194 743-194 247-581 247-466 0-735-297-269-296-269-809V0H581v4863h578V2956q207 316 486 472 280 156 646 156 603 0 912-373 310-373 310-1098z" transform="scale(.01563)"/></defs><use xlink:href="#DejaVuSans-62"/><use xlink:href="#DejaVuSans-6f" x="63.477"/><use xlink:href="#DejaVuSans-6b" x="124.658"/><use xlink:href="#DejaVuSans-65" x="178.943"/><use xlink:href="#DejaVuSans-68" x="240.467"/></g><g style="fill:#b0b0b0" transform="matrix(.09716 0 0 -.09716 32.015 357.986)" id="text_17"><defs><path id="DejaVuSans-40" d="M2381 1678q0-447 222-702 222-254 610-254 384 0 604 256 221 256 221 700 0 438-225 695-225 258-607 258-378 0-602-256-223-256-223-697zm1703-934q-187-241-429-355t-564-114q-538 0-874 389t-336 1014q0 625 337 1015 338 391 873 391 322 0 565-117 244-117 428-354v409h447V722q457 69 714 417 258 349 258 902 0 334-99 628-98 294-298 544-325 409-792 626t-1017 217q-384 0-738-102-353-101-653-301-490-319-767-836-276-517-276-1120 0-497 179-932 180-434 521-765 328-325 759-495 431-171 922-171 403 0 792 136t714 389l281-347q-390-303-851-464t-936-161q-578 0-1091 205-512 205-912 595Q841 78 631 592q-209 514-209 1105 0 569 212 1084 213 516 607 907 403 396 931 607t1119 211q662 0 1229-272 568-271 952-771 234-307 357-666 124-359 124-744 0-822-497-1297T4084 263v481z" transform="scale(.01563)"/><path id="DejaVuSans-63" d="M3122 3366v-538q-244 135-489 202t-495 67q-560 0-870-355-309-354-309-995t309-996q310-354 870-354 250 0 495 67t489 202V134Q2881 22 2623-34q-257-57-548-57-791 0-1257 497-465 497-465 1341 0 856 470 1346 471 491 1290 491 265 0 518-55 253-54 491-163z" transform="scale(.01563)"/><path id="DejaVuSans-2f" d="M1625 4666h531L531-594H0l1625 5260z" transform="scale(.01563)"/><path id="DejaVuSans-2d" d="M313 2009h1684v-512H313v512z" transform="scale(.01563)"/><path id="DejaVuSans-64" d="M2906 2969v1894h575V0h-575v525q-181-312-458-464-276-152-664-152-634 0-1033 506-398 507-398 1332t398 1331q399 506 1033 506 388 0 664-152 277-151 458-463zM947 1747q0-634 261-995t717-361q456 0 718 361 263 361 263 995t-263 995q-262 361-718 361t-717-361q-261-361-261-995z" transform="scale(.01563)"/><path id="DejaVuSans-7c" d="M1344 4891v-6400H813v6400h531z" transform="scale(.01563)"/><path id="DejaVuSans-4e" d="M628 4666h850L3547 763v3903h612V0h-850L1241 3903V0H628v4666z" transform="scale(.01563)"/><path id="DejaVuSans-53" d="M3425 4513v-616q-359 172-678 256-319 85-616 85-515 0-795-200t-280-569q0-310 186-468 186-157 705-254l381-78q706-135 1042-474t336-907q0-679-455-1029Q2797-91 1919-91q-331 0-705 75-373 75-773 222v650q384-215 753-325 369-109 725-109 540 0 834 212 294 213 294 607 0 343-211 537t-692 291l-385 75q-706 140-1022 440-315 300-315 835 0 619 436 975t1201 356q329 0 669-60 341-59 697-177z" transform="scale(.01563)"/><path id="DejaVuSans-f6" d="M1959 3097q-462 0-731-361t-269-989q0-628 267-989 268-361 733-361 460 0 728 362 269 363 269 988 0 622-269 986-268 364-728 364zm0 487q750 0 1178-488 429-487 429-1349 0-859-429-1349Q2709-91 1959-91q-753 0-1180 489-426 490-426 1349 0 862 426 1349 427 488 1180 488zm295 1266h634v-631h-634v631zm-1222 0h634v-631h-634v631z" transform="scale(.01563)"/><path id="DejaVuSans-43" d="M4122 4306v-665q-319 297-680 443-361 147-767 147-800 0-1225-489t-425-1414q0-922 425-1411t1225-489q406 0 767 147t680 444V359q-331-225-702-338-370-112-782-112-1060 0-1670 648-609 649-609 1771 0 1125 609 1773 610 649 1670 649 418 0 788-111 371-111 696-333z" transform="scale(.01563)"/><path id="DejaVuSans-42" d="M1259 2228V519h1013q509 0 754 211 246 211 246 645 0 438-246 645-245 208-754 208H1259zm0 1919V2741h935q462 0 688 173 227 174 227 530 0 353-227 528-226 175-688 175h-935zm-631 519h1613q722 0 1112-300 391-300 391-853 0-429-200-682t-588-315q466-100 724-418 258-317 258-792 0-625-425-966Q3088 0 2303 0H628v4666z" transform="scale(.01563)"/><path id="DejaVuSans-59" d="M-13 4666h679l1293-1919 1285 1919h678L2272 2222V0h-634v2222L-13 4666z" transform="scale(.01563)"/></defs><use xlink:href="#DejaVuSans-40"/><use xlink:href="#DejaVuSans-6e" x="100"/><use xlink:href="#DejaVuSans-73" x="163.379"/><use xlink:href="#DejaVuSans-63" x="215.479"/><use xlink:href="#DejaVuSans-68" x="270.459"/><use xlink:href="#DejaVuSans-6c" x="333.838"/><use xlink:href="#DejaVuSans-6f" x="361.621"/><use xlink:href="#DejaVuSans-65" x="422.803"/><use xlink:href="#DejaVuSans-20" x="484.326"/><use xlink:href="#DejaVuSans-2f" x="516.113"/><use xlink:href="#DejaVuSans-20" x="549.805"/><use xlink:href="#DejaVuSans-73" x="581.592"/><use xlink:href="#DejaVuSans-6f" x="633.691"/><use xlink:href="#DejaVuSans-2d" x="696.748"/><use xlink:href="#DejaVuSans-74" x="732.832"/><use xlink:href="#DejaVuSans-72" x="772.041"/><use xlink:href="#DejaVuSans-65" x="810.904"/><use xlink:href="#DejaVuSans-6e" x="872.428"/><use xlink:href="#DejaVuSans-64" x="935.807"/><use xlink:href="#DejaVuSans-73" x="999.283"/><use xlink:href="#DejaVuSans-20" x="1051.383"/><use xlink:href="#DejaVuSans-7c" x="1083.17"/><use xlink:href="#DejaVuSans-20" x="1116.861"/><use xlink:href="#DejaVuSans-4e" x="1148.648"/><use xlink:href="#DejaVuSans-69" x="1223.453"/><use xlink:href="#DejaVuSans-63" x="1251.236"/><use xlink:href="#DejaVuSans-6f" x="1306.217"/><use xlink:href="#DejaVuSans-20" x="1367.398"/><use xlink:href="#DejaVuSans-53" x="1399.186"/><use xlink:href="#DejaVuSans-63" x="1462.662"/><use xlink:href="#DejaVuSans-68" x="1517.643"/><use xlink:href="#DejaVuSans-6c" x="1581.021"/><use xlink:href="#DejaVuSans-f6" x="1608.805"/><use xlink:href="#DejaVuSans-6d" x="1669.986"/><use xlink:href="#DejaVuSans-65" x="1767.398"/><use xlink:href="#DejaVuSans-72" x="1828.922"/><use xlink:href="#DejaVuSans-20" x="1870.035"/><use xlink:href="#DejaVuSans-7c" x="1901.822"/><use xlink:href="#DejaVuSans-20" x="1935.514"/><use xlink:href="#DejaVuSans-43" x="1967.301"/><use xlink:href="#DejaVuSans-43" x="2037.125"/><use xlink:href="#DejaVuSans-20" x="2106.949"/><use xlink:href="#DejaVuSans-42" x="2138.736"/><use xlink:href="#DejaVuSans-59" x="2201.84"/></g><g style="fill:#b0b0b0" transform="matrix(.14 0 0 -.14 54.43 17.838)" id="text_18"><defs><path id="DejaVuSans-44" d="M1259 4147V519h763q966 0 1414 437 448 438 448 1382 0 937-448 1373t-1414 436h-763zm-631 519h1297q1356 0 1990-564 635-564 635-1764 0-1207-638-1773Q3275 0 1925 0H628v4666z" transform="scale(.01563)"/><path id="DejaVuSans-75" d="M544 1381v2119h575V1403q0-497 193-746 194-248 582-248 465 0 735 297 271 297 271 810v1984h575V0h-575v538q-209-319-486-474-276-155-642-155-603 0-916 375-312 375-312 1097zm1447 2203z" transform="scale(.01563)"/><path id="DejaVuSans-66" d="M2375 4863v-479h-550q-309 0-430-125-120-125-120-450v-309h947v-447h-947V0H697v3053H147v447h550v244q0 584 272 851 272 268 862 268h544z" transform="scale(.01563)"/><path id="DejaVuSans-71" d="M947 1747q0-634 261-995t717-361q456 0 718 361 263 361 263 995t-263 995q-262 361-718 361t-717-361q-261-361-261-995zM2906 525q-181-312-458-464-276-152-664-152-634 0-1033 506-398 507-398 1332t398 1331q399 506 1033 506 388 0 664-152 277-151 458-463v531h575v-4831h-575V525z" transform="scale(.01563)"/><path id="DejaVuSans-4f" d="M2522 4238q-688 0-1093-513-404-512-404-1397 0-881 404-1394 405-512 1093-512 687 0 1089 512 402 513 402 1394 0 885-402 1397-402 513-1089 513zm0 512q981 0 1568-658 588-658 588-1764 0-1103-588-1761Q3503-91 2522-91q-984 0-1574 656-589 657-589 1763t589 1764q590 658 1574 658z" transform="scale(.01563)"/><path id="DejaVuSans-76" d="M191 3500h609L1894 563l1094 2937h609L2284 0h-781L191 3500z" transform="scale(.01563)"/><path id="DejaVuSans-77" d="M269 3500h575l719-2731 715 2731h678l719-2731 716 2731h575L4050 0h-678l-753 2869L1863 0h-679L269 3500z" transform="scale(.01563)"/></defs><use xlink:href="#DejaVuSans-44"/><use xlink:href="#DejaVuSans-61" x="77.002"/><use xlink:href="#DejaVuSans-69" x="138.281"/><use xlink:href="#DejaVuSans-6c" x="166.064"/><use xlink:href="#DejaVuSans-79" x="193.848"/><use xlink:href="#DejaVuSans-20" x="253.027"/><use xlink:href="#DejaVuSans-6e" x="284.814"/><use xlink:href="#DejaVuSans-75" x="348.193"/><use xlink:href="#DejaVuSans-6d" x="411.572"/><use xlink:href="#DejaVuSans-62" x="508.984"/><use xlink:href="#DejaVuSans-65" x="572.461"/><use xlink:href="#DejaVuSans-72" x="633.984"/><use xlink:href="#DejaVuSans-20" x="675.098"/><use xlink:href="#DejaVuSans-6f" x="706.885"/><use xlink:href="#DejaVuSans-66" x="768.066"/><use xlink:href="#DejaVuSans-20" x="803.271"/><use xlink:href="#DejaVuSans-71" x="835.059"/><use xlink:href="#DejaVuSans-75" x="898.535"/><use xlink:href="#DejaVuSans-65" x="961.914"/><use xlink:href="#DejaVuSans-73" x="1023.438"/><use xlink:href="#DejaVuSans-74" x="1075.537"/><use xlink:href="#DejaVuSans-69" x="1114.746"/><use xlink:href="#DejaVuSans-6f" x="1142.529"/><use xlink:href="#DejaVuSans-6e" x="1203.711"/><use xlink:href="#DejaVuSans-73" x="1267.09"/><use xlink:href="#DejaVuSans-20" x="1319.189"/><use xlink:href="#DejaVuSans-6f" x="1350.977"/><use xlink:href="#DejaVuSans-6e" x="1412.158"/><use xlink:href="#DejaVuSans-20" x="1475.537"/><use xlink:href="#DejaVuSans-53" x="1507.324"/><use xlink:href="#DejaVuSans-74" x="1570.801"/><use xlink:href="#DejaVuSans-61" x="1610.01"/><use xlink:href="#DejaVuSans-63" x="1671.289"/><use xlink:href="#DejaVuSans-6b" x="1726.27"/><use xlink:href="#DejaVuSans-4f" x="1784.18"/><use xlink:href="#DejaVuSans-76" x="1862.891"/><use xlink:href="#DejaVuSans-65" x="1922.07"/><use xlink:href="#DejaVuSans-72" x="1983.594"/><use xlink:href="#DejaVuSans-66" x="2024.707"/><use xlink:href="#DejaVuSans-6c" x="2059.912"/><use xlink:href="#DejaVuSans-6f" x="2087.695"/><use xlink:href="#DejaVuSans-77" x="2148.877"/></g><path d="m32.015 323.257 1.684.693h2.186l2.185-.358 2.222.179 2.114-.415 2.114.057 2.185-.757 2.186.042 2.186.882 2.185-.703 2.222-1.252 4.371.536 2.186-.429 2.185.25 2.222-.894L68.562 319l2.114-.952 2.185 1.836 2.186.668 2.186-1.777 2.185.167 2.222-1.252 2.186.9 2.185-.9 2.186-.763 2.185 2.91 2.222-3.04 2.114-4.133 2.114-1.948 2.186 2.515 2.185-1.085 2.186.161 2.185 1.27 2.222-2.861 2.186 1.961 2.185-3.57 2.186-.496 2.186-1.293 2.221.894 2.15-7.012 2.15 4.15 4.37-3.397 2.187-1.103 2.185-3.726 2.222-2.504 2.185 8.078 2.186-10.403 2.186-.316 2.185 3.535 2.222-8.405 2.114-7.115 2.114 2.823 2.185-2.48 2.186.513 2.186 5.031 2.185-9.502 2.222 5.544 2.185-8.424 2.186-4.99 2.186-3.14 2.185 14.408 2.222-16.096 2.114-11.21 2.114-.414 2.185 7.398 2.186 7.982 2.186 5.508 2.185-17.312 2.222 9.837 2.185 8.953 2.186 2.135 2.186-15.07 2.185 12.387 2.222-1.788 2.114-11.3 2.114-4.26 2.186.71 2.185-3.57 2.186.798 2.185-22.617 2.222 24.68 2.186.34 2.185-1.413 2.186-23.72 2.185 24.256 2.222-15.38 2.15-6.13 2.15-5.316 2.185-3.16 2.186 11.566 2.186-5.282 4.407 5.997 2.185 6.754 2.186-2.283 2.186-3.815 2.185 15.976 2.222-10.015 2.114-27.477 2.114-12.225 2.185-8.394 2.186 15.726 2.186-5.007 2.185 3.219 2.222 17.705 2.185 7.905 4.372-27.905 2.185 22.146 2.222-9.478 2.114-.92 2.114-2.836 2.185 1.252 2.186 3.219 2.186-11.35 2.185-3.851 2.222 5.007 2.185 2.17 2.186-6.999 2.186-11.111 2.185 19.338 2.222 4.829 2.114-18.874 2.114-7.594 2.185-1.765 2.186-14.867 2.186 23.553 2.185-14.254 2.222.179 2.186 17.401 2.185-34.927 2.186-5.544 2.185 35.231 2.222-17.347 2.15-21.325 2.15-33.4 2.185-63.69 2.186-4.805 2.185 25.872 2.186 16.87 2.222 49.896 2.185-17.794 2.186-2.772 2.186-9.795 2.185 36.084 2.222-8.048 2.114-22.4 2.114-1.028 2.185-.542 2.186 32.018 2.186 10.486 2.185 2.39 2.222-.536 2.185 19.028 2.186 2.075 2.186-24.805 2.185 21.765 2.222-5.365 2.114-.837 2.114-31.354 2.185 15.052 2.186 12.846h0" clip-path="url(#p515aafa3f4)" style="fill:none;stroke:#1f77b4;stroke-width:1.5;stroke-linecap:square" id="line2d_21"/></g></g><defs><clipPath id="p515aafa3f4"><path d="M32.015 57.838h357.12V323.95H32.015z"/></clipPath></defs></svg>