<svg xmlns="http://www.w3.org/2000/svg" xmlns:xlink="http://www.w3.org/1999/xlink" width="714.103" height="489.969" viewBox="0 0 535.577 367.477"><defs><style>*{stroke-linejoin:round;stroke-linecap:butt}</style></defs><g id="figure_1"><path id="patch_1" d="M0 367.477h535.577V0H0v367.477z" style="fill:none"/><g id="axes_1"><path id="patch_2" d="M40.922 323.95h357.12V57.838H40.923V323.95z" style="fill:none"/><g id="matplotlib.axis_1"><g id="xtick_1"><g id="line2d_1"><defs><path id="m504798bd38" d="M0 0v3.5" style="stroke:#b0b0b0;stroke-width:.4"/></defs><use xlink:href="#m504798bd38" x="72.873" y="323.95" style="fill:#b0b0b0;stroke:#b0b0b0;stroke-width:.4"/></g><g id="text_1" style="fill:#b0b0b0" transform="matrix(.14 0 0 -.14 55.058 341.588)"><defs><path id="DejaVuSans-32" d="M1228 531h2203V0H469v531q359 372 979 998 621 627 780 809 303 340 423 576 121 236 121 464 0 372-261 606-261 235-680 235-297 0-627-103-329-103-704-313v638q381 153 712 231 332 78 607 78 725 0 1156-363 431-362 431-968 0-288-108-546-107-257-392-607-78-91-497-524-418-433-1181-1211z" transform="scale(.01563)"/><path id="DejaVuSans-30" d="M2034 4250q-487 0-733-480-245-479-245-1442 0-959 245-1439 246-480 733-480 491 0 736 480 246 480 246 1439 0 963-246 1442-245 480-736 480zm0 500q785 0 1199-621 414-620 414-1801 0-1178-414-1799Q2819-91 2034-91q-784 0-1198 620-414 621-414 1799 0 1181 414 1801 414 621 1198 621z" transform="scale(.01563)"/><path id="DejaVuSans-31" d="M794 531h1031v3560L703 3866v575l1116 225h631V531h1031V0H794v531z" transform="scale(.01563)"/></defs><use xlink:href="#DejaVuSans-32"/><use xlink:href="#DejaVuSans-30" x="63.623"/><use xlink:href="#DejaVuSans-31" x="127.246"/><use xlink:href="#DejaVuSans-30" x="190.869"/></g></g><g id="xtick_2"><use xlink:href="#m504798bd38" id="line2d_2" x="123.031" y="323.95" style="fill:#b0b0b0;stroke:#b0b0b0;stroke-width:.4"/><g id="text_2" style="fill:#b0b0b0" transform="matrix(.14 0 0 -.14 105.216 341.588)"><use xlink:href="#DejaVuSans-32"/><use xlink:href="#DejaVuSans-30" x="63.623"/><use xlink:href="#DejaVuSans-31" x="127.246"/><use xlink:href="#DejaVuSans-32" x="190.869"/></g></g><g id="xtick_3"><use xlink:href="#m504798bd38" id="line2d_3" x="173.258" y="323.95" style="fill:#b0b0b0;stroke:#b0b0b0;stroke-width:.4"/><g id="text_3" style="fill:#b0b0b0" transform="matrix(.14 0 0 -.14 155.443 341.588)"><defs><path id="DejaVuSans-34" d="M2419 4116 825 1625h1594v2491zm-166 550h794V1625h666v-525h-666V0h-628v1100H313v609l1940 2957z" transform="scale(.01563)"/></defs><use xlink:href="#DejaVuSans-32"/><use xlink:href="#DejaVuSans-30" x="63.623"/><use xlink:href="#DejaVuSans-31" x="127.246"/><use xlink:href="#DejaVuSans-34" x="190.869"/></g></g><g id="xtick_4"><use xlink:href="#m504798bd38" id="line2d_4" x="223.416" y="323.95" style="fill:#b0b0b0;stroke:#b0b0b0;stroke-width:.4"/><g id="text_4" style="fill:#b0b0b0" transform="matrix(.14 0 0 -.14 205.601 341.588)"><defs><path id="DejaVuSans-36" d="M2113 2584q-425 0-674-291-248-290-248-796 0-503 248-796 249-292 674-292t673 292q248 293 248 796 0 506-248 796-248 291-673 291zm1253 1979v-575q-238 112-480 171-242 60-480 60-625 0-955-422-329-422-376-1275 184 272 462 417 279 145 613 145 703 0 1111-427 408-426 408-1160 0-719-425-1154Q2819-91 2113-91q-810 0-1238 620-428 621-428 1799 0 1106 525 1764t1409 658q238 0 480-47t505-140z" transform="scale(.01563)"/></defs><use xlink:href="#DejaVuSans-32"/><use xlink:href="#DejaVuSans-30" x="63.623"/><use xlink:href="#DejaVuSans-31" x="127.246"/><use xlink:href="#DejaVuSans-36" x="190.869"/></g></g><g id="xtick_5"><use xlink:href="#m504798bd38" id="line2d_5" x="273.643" y="323.95" style="fill:#b0b0b0;stroke:#b0b0b0;stroke-width:.4"/><g id="text_5" style="fill:#b0b0b0" transform="matrix(.14 0 0 -.14 255.828 341.588)"><defs><path id="DejaVuSans-38" d="M2034 2216q-450 0-708-241-257-241-257-662 0-422 257-663 258-241 708-241t709 242q260 243 260 662 0 421-258 662-257 241-711 241zm-631 268q-406 100-633 378-226 279-226 679 0 559 398 884 399 325 1092 325 697 0 1094-325t397-884q0-400-227-679-226-278-629-378 456-106 710-416 255-309 255-755 0-679-414-1042Q2806-91 2034-91q-771 0-1186 362-414 363-414 1042 0 446 256 755 257 310 713 416zm-231 997q0-362 226-565 227-203 636-203 407 0 636 203 230 203 230 565 0 363-230 566-229 203-636 203-409 0-636-203-226-203-226-566z" transform="scale(.01563)"/></defs><use xlink:href="#DejaVuSans-32"/><use xlink:href="#DejaVuSans-30" x="63.623"/><use xlink:href="#DejaVuSans-31" x="127.246"/><use xlink:href="#DejaVuSans-38" x="190.869"/></g></g><g id="xtick_6"><use xlink:href="#m504798bd38" id="line2d_6" x="323.801" y="323.95" style="fill:#b0b0b0;stroke:#b0b0b0;stroke-width:.4"/><g id="text_6" style="fill:#b0b0b0" transform="matrix(.14 0 0 -.14 305.986 341.588)"><use xlink:href="#DejaVuSans-32"/><use xlink:href="#DejaVuSans-30" x="63.623"/><use xlink:href="#DejaVuSans-32" x="127.246"/><use xlink:href="#DejaVuSans-30" x="190.869"/></g></g><g id="xtick_7"><use xlink:href="#m504798bd38" id="line2d_7" x="374.028" y="323.95" style="fill:#b0b0b0;stroke:#b0b0b0;stroke-width:.4"/><g id="text_7" style="fill:#b0b0b0" transform="matrix(.14 0 0 -.14 356.213 341.588)"><use xlink:href="#DejaVuSans-32"/><use xlink:href="#DejaVuSans-30" x="63.623"/><use xlink:href="#DejaVuSans-32" x="127.246"/><use xlink:href="#DejaVuSans-32" x="190.869"/></g></g></g><g id="matplotlib.axis_2"><g id="ytick_1"><path id="line2d_8" d="M40.922 323.95h357.12" clip-path="url(#p916a12afc0)" style="fill:none;stroke:#b0b0b0;stroke-width:.3;stroke-linecap:square"/><g id="line2d_9"><defs><path id="ma3bd403dbb" d="M0 0h-3.5" style="stroke:#b0b0b0;stroke-width:.3"/></defs><use xlink:href="#ma3bd403dbb" x="40.922" y="323.95" style="fill:#b0b0b0;stroke:#b0b0b0;stroke-width:.3"/></g><use xlink:href="#DejaVuSans-30" id="text_8" style="fill:#b0b0b0" transform="matrix(.14 0 0 -.14 25.015 329.269)"/></g><g id="ytick_2"><path id="line2d_10" d="M40.922 288.947h357.12" clip-path="url(#p916a12afc0)" style="fill:none;stroke:#b0b0b0;stroke-width:.3;stroke-linecap:square"/><use xlink:href="#ma3bd403dbb" id="line2d_11" x="40.922" y="288.947" style="fill:#b0b0b0;stroke:#b0b0b0;stroke-width:.3"/><g id="text_9" style="fill:#b0b0b0" transform="matrix(.14 0 0 -.14 16.108 294.266)"><defs><path id="DejaVuSans-35" d="M691 4666h2478v-532H1269V2991q137 47 274 70 138 23 276 23 781 0 1237-428 457-428 457-1159 0-753-469-1171Q2575-91 1722-91q-294 0-599 50Q819 9 494 109v635q281-153 581-228t634-75q541 0 856 284 316 284 316 772 0 487-316 771-315 285-856 285-253 0-505-56-251-56-513-175v2344z" transform="scale(.01563)"/></defs><use xlink:href="#DejaVuSans-32"/><use xlink:href="#DejaVuSans-35" x="63.623"/></g></g><g id="ytick_3"><path id="line2d_12" d="M40.922 253.945h357.12" clip-path="url(#p916a12afc0)" style="fill:none;stroke:#b0b0b0;stroke-width:.3;stroke-linecap:square"/><use xlink:href="#ma3bd403dbb" id="line2d_13" x="40.922" y="253.945" style="fill:#b0b0b0;stroke:#b0b0b0;stroke-width:.3"/><g id="text_10" style="fill:#b0b0b0" transform="matrix(.14 0 0 -.14 16.108 259.264)"><use xlink:href="#DejaVuSans-35"/><use xlink:href="#DejaVuSans-30" x="63.623"/></g></g><g id="ytick_4"><path id="line2d_14" d="M40.922 218.942h357.12" clip-path="url(#p916a12afc0)" style="fill:none;stroke:#b0b0b0;stroke-width:.3;stroke-linecap:square"/><use xlink:href="#ma3bd403dbb" id="line2d_15" x="40.922" y="218.942" style="fill:#b0b0b0;stroke:#b0b0b0;stroke-width:.3"/><g id="text_11" style="fill:#b0b0b0" transform="matrix(.14 0 0 -.14 16.108 224.261)"><defs><path id="DejaVuSans-37" d="M525 4666h3000v-269L1831 0h-659l1594 4134H525v532z" transform="scale(.01563)"/></defs><use xlink:href="#DejaVuSans-37"/><use xlink:href="#DejaVuSans-35" x="63.623"/></g></g><g id="ytick_5"><path id="line2d_16" d="M40.922 183.94h357.12" clip-path="url(#p916a12afc0)" style="fill:none;stroke:#b0b0b0;stroke-width:.3;stroke-linecap:square"/><use xlink:href="#ma3bd403dbb" id="line2d_17" x="40.922" y="183.94" style="fill:#b0b0b0;stroke:#b0b0b0;stroke-width:.3"/><g id="text_12" style="fill:#b0b0b0" transform="matrix(.14 0 0 -.14 7.2 189.259)"><use xlink:href="#DejaVuSans-31"/><use xlink:href="#DejaVuSans-30" x="63.623"/><use xlink:href="#DejaVuSans-30" x="127.246"/></g></g><g id="ytick_6"><path id="line2d_18" d="M40.922 148.938h357.12" clip-path="url(#p916a12afc0)" style="fill:none;stroke:#b0b0b0;stroke-width:.3;stroke-linecap:square"/><use xlink:href="#ma3bd403dbb" id="line2d_19" x="40.922" y="148.938" style="fill:#b0b0b0;stroke:#b0b0b0;stroke-width:.3"/><g id="text_13" style="fill:#b0b0b0" transform="matrix(.14 0 0 -.14 7.2 154.256)"><use xlink:href="#DejaVuSans-31"/><use xlink:href="#DejaVuSans-32" x="63.623"/><use xlink:href="#DejaVuSans-35" x="127.246"/></g></g><g id="ytick_7"><path id="line2d_20" d="M40.922 113.935h357.12" clip-path="url(#p916a12afc0)" style="fill:none;stroke:#b0b0b0;stroke-width:.3;stroke-linecap:square"/><use xlink:href="#ma3bd403dbb" id="line2d_21" x="40.922" y="113.935" style="fill:#b0b0b0;stroke:#b0b0b0;stroke-width:.3"/><g id="text_14" style="fill:#b0b0b0" transform="matrix(.14 0 0 -.14 7.2 119.254)"><use xlink:href="#DejaVuSans-31"/><use xlink:href="#DejaVuSans-35" x="63.623"/><use xlink:href="#DejaVuSans-30" x="127.246"/></g></g><g id="ytick_8"><path id="line2d_22" d="M40.922 78.933h357.12" clip-path="url(#p916a12afc0)" style="fill:none;stroke:#b0b0b0;stroke-width:.3;stroke-linecap:square"/><use xlink:href="#ma3bd403dbb" id="line2d_23" x="40.922" y="78.933" style="fill:#b0b0b0;stroke:#b0b0b0;stroke-width:.3"/><g id="text_15" style="fill:#b0b0b0" transform="matrix(.14 0 0 -.14 7.2 84.252)"><use xlink:href="#DejaVuSans-31"/><use xlink:href="#DejaVuSans-37" x="63.623"/><use xlink:href="#DejaVuSans-35" x="127.246"/></g></g></g><path id="line2d_24" d="M40.922 323.95h35.043l2.027-.136 2.095.136 4.191-.047 2.096-.089 2.13.136 6.287-.094 2.096-.042 2.13.136 4.054-.136 2.095.136 2.096-.09 2.096.043 2.095-.134 4.226.134 2.096-.179 4.19.18h2.13l2.062-.147 2.062.102 2.095-.096 2.096.096 4.191-.09 2.13.09 2.096-.05 2.095-.266 4.192.181 2.13-.136 2.027.212 4.122-.644 2.096.162 2.096-.208 2.095.343h2.13l2.096.17 2.096-.441 2.095-.026 2.096.297 2.13-.632 2.027-.221 2.027-.005 4.191.723 2.096-.255 2.095-.107 2.13.362 2.096-.628 2.096.221 2.095-.128 2.096.083 2.13-.09 2.027.324 2.027-.415 2.096-.275 2.095-.04 6.322.586 2.095-.173 2.096-.685 2.095.265 2.096.413h2.13l2.061-.13 2.062-.503 2.095-.293 2.096.564 2.096-.518 2.095.473 4.226-.193 2.096.193 2.095-.146 2.096.688 2.13-.858 2.027-.003 2.027-.494 2.096.2 2.095-.29 2.096 1.037 2.095-.36 2.13-.045 2.096-.248 2.096-.023 2.095.91 2.096-.684 2.13-.497 2.027.544 2.027-.363 2.096-.027 2.095-.47 2.096.936 2.096-.304 2.13.768 2.095-.557 2.096-.166 2.096-.3 2.095.3 2.13.497 2.027.086 2.027-.899 2.096-.638 2.095.683 2.096.204 2.096-.023 2.13.497 2.095-.288 2.096-1.383 2.096.45 2.095.227 2.13.045 2.062-.563 2.061.247 2.096-2.056 2.095-.202 2.096 1.462 2.096.345 2.13.993 4.19-1.084 2.097-.067 2.095-.52 2.13 1.039 2.027-1.02 2.027.342 2.096-.215 2.095.667 2.096-.387 2.096.748 2.13.271 6.287-.832 2.095.38 2.13-.27 2.027-.453 2.027-.225 2.096.848 2.096-.396 2.095.07 2.096.427 2.13-.226 2.096.125 2.095-.848 2.096-.365 2.096 1.45h0" clip-path="url(#p916a12afc0)" style="fill:none;stroke:#9467bd;stroke-width:1.5;stroke-linecap:square"/><path id="line2d_25" d="m44.633 323.95 10.375-.187 4.191.093 2.096-.222 4.226.222 2.095-.313 2.096-.06 2.096.241 2.13-.452 2.027.128 4.122-.244 2.096.026 2.095-.352 2.096.442 2.13.09 2.096-.159 2.095-.021 2.096-.212 4.226.212 4.054-.858 2.095.6 2.096-.013 2.096-.641 2.095.55 2.13-.767 2.096.73 2.096-.91 2.095.023 2.096.383 4.191-1.42 2.062.11 2.095.834 6.287-.97 2.13-.316 2.096-.114 2.095-.653 2.096-.794 2.096 1.606 2.13-1.264 2.027.852 2.027-.762 2.095-1.132 2.096 1.358 2.096-.098 2.095-1.483 2.13.813 2.096-.077 2.096-1.097 2.095.024 2.096.563 2.13.452 2.027-2.712 4.122 1.837 2.096-.39 2.096.67 2.095-.85 2.13-.226 2.096 2.103 2.096-.794 2.095 1.074 2.096-.848 2.13-.09 2.027-.986 4.123-.55 2.095-.045 2.096-1.028 2.096.215 2.13 1.355 2.095-.357 2.096.086 2.095-1.112 2.096 1.654 2.13-.316 2.061-1.707 2.062-.596 2.095.498 2.096-.047 2.096 1.12 4.225.28 2.096-.326 2.096-.848 2.095-.506 2.096 1.364 2.13 1.084 2.027-2.518 2.027-1.095 2.096-.842 2.095 2.107 2.096-.52 2.095 1.107 2.13.226 2.096 1.467 2.096-2.326 2.095-.847 2.096 1.209h2.13l4.054-.587 2.096.731 2.095-.912 2.096.959 2.096-1.591 2.13-.046 2.095.797 2.096 1.417 2.096-1.557 2.095 2.324 2.13.407 2.027-2.178 2.027-.668 2.096.955 2.095-1.722 2.096.789 2.096.204 2.13-.677 2.095 3.226 2.096-2.142 2.096-.705 2.095 1.698 2.13-1.761 2.062-1.366 2.061.282 2.096-3.1 4.191.374 2.096 2.365 2.13 1.084 2.095-.23 2.096-1.035 2.096-.318 2.095 2.396 2.13-.407 2.027-.142 2.027-1.213 2.096.346 2.095 1.145 2.096-.398 2.096.127 2.13 1.761 2.095-.721 2.096 1.037 2.096-.524 2.095.479 2.13-.813 2.027.324 2.027-1.498 2.096 1.088 2.096-.05 2.095.19 2.096.578 2.13 1.22 2.096-1.378 2.095.43 2.096-1.316 2.096 2.219h0" clip-path="url(#p916a12afc0)" style="fill:none;stroke:#d62728;stroke-width:1.5;stroke-linecap:square"/><path id="line2d_26" d="M69.712 323.95h4.226l56.376-.047 2.096-.089 2.095.136 6.322-.094 4.191-.186 6.253-.67 4.122.11 2.096-.334 2.096.054 2.095-.416 2.13.271 2.096-1.022 2.096.39 2.095.17 2.096.01 2.13-.27 2.027-.663 2.027.482 4.191.18 2.096.774 2.095-.819 2.13.046 2.096-.16 2.096.114 2.095-.067 2.096.88 2.13-.993 2.027-.287 2.027-1.023 8.383.632 2.13-1.761 2.095 1.152 2.096.022 2.095.538 2.096-2.57 4.191-.042 2.062.855 2.095.03 2.096-.21 2.096-.584 2.095.628 2.13-.226 2.096.952 2.096-.5 2.095-1.134 2.096.502 2.13-1.626 2.027-1.186 2.027-.711 2.096.035 2.095.733 4.191.09 2.13-1.265 2.096.955 2.096.175 2.095-2.275 2.096 1.868 2.13-.813 2.027-.542 2.027-2.258 2.096 2.678 2.095-1.188 2.096-.492 2.096 1.08 2.13-.723 2.095.156 2.096-1.782 2.096 1.176 2.095 2.03 2.13-2.258 2.027-2.92 2.027-3.267 2.096 2.214 2.095-2.124 2.096 2.498 2.096-4.169 2.13 3.297 2.095-.295 2.096-3.183 2.096 1.083 2.095 2.756 2.13-3.477 2.062-1.453 2.061-.58 2.096-7.98 2.095 1.702 2.096.678 2.096.406 2.13 4.11 2.095 1.738 2.096-2.28 2.096 1.673 2.095 2.754 2.13-5.059 2.027.408 2.027-.453 2.096 2.117 2.095.683 4.192.452 2.13-.226 2.095.444 2.096-.173 2.096.546 2.095 2.706 2.13-1.265 2.027-1.53 2.027-.276 2.096.039 2.096.819 2.095 2.681 2.096-2.952 2.13.451 2.096 1.568 2.095-1.793 2.096-5.535 2.096 6.89h0" clip-path="url(#p916a12afc0)" style="fill:none;stroke:#2ca02c;stroke-width:1.5;stroke-linecap:square"/><g id="text_16" style="fill:#1f77b4" transform="matrix(.14 0 0 -.14 408.756 169.828)"><defs><path id="DejaVuSans-70" d="M1159 525v-1856H581v4831h578v-531q182 312 458 463 277 152 661 152 638 0 1036-506 399-506 399-1331T3314 415Q2916-91 2278-91q-384 0-661 152-276 152-458 464zm1957 1222q0 634-261 995t-717 361q-457 0-718-361t-261-995q0-634 261-995t718-361q456 0 717 361t261 995z" transform="scale(.01563)"/><path id="DejaVuSans-61" d="M2194 1759q-697 0-966-159t-269-544q0-306 202-486 202-179 548-179 479 0 768 339t289 901v128h-572zm1147 238V0h-575v531q-197-318-491-470T1556-91q-537 0-855 302-317 302-317 808 0 590 395 890 396 300 1180 300h807v57q0 397-261 614t-733 217q-300 0-585-72-284-72-546-216v532q315 122 612 182 297 61 578 61 760 0 1135-394 375-393 375-1193z" transform="scale(.01563)"/><path id="DejaVuSans-6e" d="M3513 2113V0h-575v2094q0 497-194 743-194 247-581 247-466 0-735-297-269-296-269-809V0H581v3500h578v-544q207 316 486 472 280 156 646 156 603 0 912-373 310-373 310-1098z" transform="scale(.01563)"/><path id="DejaVuSans-64" d="M2906 2969v1894h575V0h-575v525q-181-312-458-464-276-152-664-152-634 0-1033 506-398 507-398 1332t398 1331q399 506 1033 506 388 0 664-152 277-151 458-463zM947 1747q0-634 261-995t717-361q456 0 718 361 263 361 263 995t-263 995q-262 361-718 361t-717-361q-261-361-261-995z" transform="scale(.01563)"/><path id="DejaVuSans-73" d="M2834 3397v-544q-243 125-506 187-262 63-544 63-428 0-642-131t-214-394q0-200 153-314t616-217l197-44q612-131 870-370t258-667q0-488-386-773Q2250-91 1575-91q-281 0-586 55T347 128v594q319-166 628-249 309-82 613-82 406 0 624 139 219 139 219 392 0 234-158 359-157 125-692 241l-200 47q-534 112-772 345-237 233-237 639 0 494 350 762 350 269 994 269 318 0 599-47 282-46 519-140z" transform="scale(.01563)"/></defs><use xlink:href="#DejaVuSans-70"/><use xlink:href="#DejaVuSans-61" x="63.477"/><use xlink:href="#DejaVuSans-6e" x="124.756"/><use xlink:href="#DejaVuSans-64" x="188.135"/><use xlink:href="#DejaVuSans-61" x="251.611"/><use xlink:href="#DejaVuSans-73" x="312.891"/></g><g id="text_17" style="fill:#ff7f0e" transform="matrix(.14 0 0 -.14 408.756 283.597)"><defs><path id="DejaVuSans-75" d="M544 1381v2119h575V1403q0-497 193-746 194-248 582-248 465 0 735 297 271 297 271 810v1984h575V0h-575v538q-209-319-486-474-276-155-642-155-603 0-916 375-312 375-312 1097zm1447 2203z" transform="scale(.01563)"/><path id="DejaVuSans-6d" d="M3328 2828q216 388 516 572t706 184q547 0 844-383 297-382 297-1088V0h-578v2094q0 503-179 746-178 244-543 244-447 0-707-297-259-296-259-809V0h-578v2094q0 506-178 748t-550 242q-441 0-701-298-259-298-259-808V0H581v3500h578v-544q197 322 472 475t653 153q382 0 649-194 267-193 395-562z" transform="scale(.01563)"/><path id="DejaVuSans-79" d="M2059-325q-243-625-475-815-231-191-618-191H506v481h338q237 0 368 113 132 112 291 531l103 262L191 3500h609L1894 763l1094 2737h609L2059-325z" transform="scale(.01563)"/></defs><use xlink:href="#DejaVuSans-6e"/><use xlink:href="#DejaVuSans-75" x="63.379"/><use xlink:href="#DejaVuSans-6d" x="126.758"/><use xlink:href="#DejaVuSans-70" x="224.17"/><use xlink:href="#DejaVuSans-79" x="287.646"/></g><g id="text_18" style="fill:#2ca02c" transform="matrix(.14 0 0 -.14 408.756 304.84)"><defs><path id="DejaVuSans-6a" d="M603 3500h575V-63q0-668-255-968-254-300-820-300h-219v487H38q328 0 446 152Q603-541 603-63v3563zm0 1363h575v-729H603v729z" transform="scale(.01563)"/><path id="DejaVuSans-74" d="M1172 4494v-994h1184v-447H1172V1153q0-428 117-550t477-122h590V0h-590q-666 0-919 248-253 249-253 905v1900H172v447h422v994h578z" transform="scale(.01563)"/><path id="DejaVuSans-65" d="M3597 1894v-281H953q38-594 358-905t892-311q331 0 642 81t618 244V178Q3153 47 2828-22t-659-69q-838 0-1327 487-489 488-489 1320 0 859 464 1363 464 505 1252 505 706 0 1117-455 411-454 411-1235zm-575 169q-6 471-264 752-258 282-683 282-481 0-770-272t-333-766l2050 4z" transform="scale(.01563)"/><path id="DejaVuSans-72" d="M2631 2963q-97 56-211 82-114 27-251 27-488 0-749-317t-261-911V0H581v3500h578v-544q182 319 472 473 291 155 707 155 59 0 131-8 72-7 159-23l3-590z" transform="scale(.01563)"/><path id="DejaVuSans-2d" d="M313 2009h1684v-512H313v512z" transform="scale(.01563)"/><path id="DejaVuSans-6f" d="M1959 3097q-462 0-731-361t-269-989q0-628 267-989 268-361 733-361 460 0 728 362 269 363 269 988 0 622-269 986-268 364-728 364zm0 487q750 0 1178-488 429-487 429-1349 0-859-429-1349Q2709-91 1959-91q-753 0-1180 489-426 490-426 1349 0 862 426 1349 427 488 1180 488z" transform="scale(.01563)"/><path id="DejaVuSans-62" d="M3116 1747q0 634-261 995t-717 361q-457 0-718-361t-261-995q0-634 261-995t718-361q456 0 717 361t261 995zM1159 2969q182 312 458 463 277 152 661 152 638 0 1036-506 399-506 399-1331T3314 415Q2916-91 2278-91q-384 0-661 152-276 152-458 464V0H581v4863h578V2969z" transform="scale(.01563)"/><path id="DejaVuSans-6b" d="M581 4863h578V1991l1716 1509h734L1753 1863 3688 0h-750L1159 1709V0H581v4863z" transform="scale(.01563)"/></defs><use xlink:href="#DejaVuSans-6a"/><use xlink:href="#DejaVuSans-75" x="27.783"/><use xlink:href="#DejaVuSans-70" x="91.162"/><use xlink:href="#DejaVuSans-79" x="154.639"/><use xlink:href="#DejaVuSans-74" x="213.818"/><use xlink:href="#DejaVuSans-65" x="253.027"/><use xlink:href="#DejaVuSans-72" x="314.551"/><use xlink:href="#DejaVuSans-2d" x="349.289"/><use xlink:href="#DejaVuSans-6e" x="385.373"/><use xlink:href="#DejaVuSans-6f" x="448.752"/><use xlink:href="#DejaVuSans-74" x="509.934"/><use xlink:href="#DejaVuSans-65" x="549.143"/><use xlink:href="#DejaVuSans-62" x="610.666"/><use xlink:href="#DejaVuSans-6f" x="674.143"/><use xlink:href="#DejaVuSans-6f" x="735.324"/><use xlink:href="#DejaVuSans-6b" x="796.506"/></g><g id="text_19" style="fill:#d62728" transform="matrix(.14 0 0 -.14 408.756 318.84)"><defs><path id="DejaVuSans-63" d="M3122 3366v-538q-244 135-489 202t-495 67q-560 0-870-355-309-354-309-995t309-996q310-354 870-354 250 0 495 67t489 202V134Q2881 22 2623-34q-257-57-548-57-791 0-1257 497-465 497-465 1341 0 856 470 1346 471 491 1290 491 265 0 518-55 253-54 491-163z" transform="scale(.01563)"/><path id="DejaVuSans-69" d="M603 3500h575V0H603v3500zm0 1363h575v-729H603v729z" transform="scale(.01563)"/></defs><use xlink:href="#DejaVuSans-73"/><use xlink:href="#DejaVuSans-63" x="52.1"/><use xlink:href="#DejaVuSans-69" x="107.08"/><use xlink:href="#DejaVuSans-70" x="134.863"/><use xlink:href="#DejaVuSans-79" x="198.34"/></g><g id="text_20" style="fill:#9467bd" transform="matrix(.14 0 0 -.14 408.756 332.84)"><use xlink:href="#DejaVuSans-73"/><use xlink:href="#DejaVuSans-79" x="52.1"/><use xlink:href="#DejaVuSans-6d" x="111.279"/><use xlink:href="#DejaVuSans-70" x="208.691"/><use xlink:href="#DejaVuSans-79" x="272.168"/></g><g id="text_21" style="fill:#b0b0b0" transform="matrix(.09716 0 0 -.09716 40.922 357.986)"><defs><path id="DejaVuSans-40" d="M2381 1678q0-447 222-702 222-254 610-254 384 0 604 256 221 256 221 700 0 438-225 695-225 258-607 258-378 0-602-256-223-256-223-697zm1703-934q-187-241-429-355t-564-114q-538 0-874 389t-336 1014q0 625 337 1015 338 391 873 391 322 0 565-117 244-117 428-354v409h447V722q457 69 714 417 258 349 258 902 0 334-99 628-98 294-298 544-325 409-792 626t-1017 217q-384 0-738-102-353-101-653-301-490-319-767-836-276-517-276-1120 0-497 179-932 180-434 521-765 328-325 759-495 431-171 922-171 403 0 792 136t714 389l281-347q-390-303-851-464t-936-161q-578 0-1091 205-512 205-912 595Q841 78 631 592q-209 514-209 1105 0 569 212 1084 213 516 607 907 403 396 931 607t1119 211q662 0 1229-272 568-271 952-771 234-307 357-666 124-359 124-744 0-822-497-1297T4084 263v481z" transform="scale(.01563)"/><path id="DejaVuSans-68" d="M3513 2113V0h-575v2094q0 497-194 743-194 247-581 247-466 0-735-297-269-296-269-809V0H581v4863h578V2956q207 316 486 472 280 156 646 156 603 0 912-373 310-373 310-1098z" transform="scale(.01563)"/><path id="DejaVuSans-6c" d="M603 4863h575V0H603v4863z" transform="scale(.01563)"/><path id="DejaVuSans-2f" d="M1625 4666h531L531-594H0l1625 5260z" transform="scale(.01563)"/><path id="DejaVuSans-76" d="M191 3500h609L1894 563l1094 2937h609L2284 0h-781L191 3500z" transform="scale(.01563)"/><path id="DejaVuSans-66" d="M2375 4863v-479h-550q-309 0-430-125-120-125-120-450v-309h947v-447h-947V0H697v3053H147v447h550v244q0 584 272 851 272 268 862 268h544z" transform="scale(.01563)"/><path id="DejaVuSans-77" d="M269 3500h575l719-2731 715 2731h678l719-2731 716 2731h575L4050 0h-678l-753 2869L1863 0h-679L269 3500z" transform="scale(.01563)"/><path id="DejaVuSans-7c" d="M1344 4891v-6400H813v6400h531z" transform="scale(.01563)"/><path id="DejaVuSans-4e" d="M628 4666h850L3547 763v3903h612V0h-850L1241 3903V0H628v4666z" transform="scale(.01563)"/><path id="DejaVuSans-53" d="M3425 4513v-616q-359 172-678 256-319 85-616 85-515 0-795-200t-280-569q0-310 186-468 186-157 705-254l381-78q706-135 1042-474t336-907q0-679-455-1029Q2797-91 1919-91q-331 0-705 75-373 75-773 222v650q384-215 753-325 369-109 725-109 540 0 834 212 294 213 294 607 0 343-211 537t-692 291l-385 75q-706 140-1022 440-315 300-315 835 0 619 436 975t1201 356q329 0 669-60 341-59 697-177z" transform="scale(.01563)"/><path id="DejaVuSans-f6" d="M1959 3097q-462 0-731-361t-269-989q0-628 267-989 268-361 733-361 460 0 728 362 269 363 269 988 0 622-269 986-268 364-728 364zm0 487q750 0 1178-488 429-487 429-1349 0-859-429-1349Q2709-91 1959-91q-753 0-1180 489-426 490-426 1349 0 862 426 1349 427 488 1180 488zm295 1266h634v-631h-634v631zm-1222 0h634v-631h-634v631z" transform="scale(.01563)"/><path id="DejaVuSans-43" d="M4122 4306v-665q-319 297-680 443-361 147-767 147-800 0-1225-489t-425-1414q0-922 425-1411t1225-489q406 0 767 147t680 444V359q-331-225-702-338-370-112-782-112-1060 0-1670 648-609 649-609 1771 0 1125 609 1773 610 649 1670 649 418 0 788-111 371-111 696-333z" transform="scale(.01563)"/><path id="DejaVuSans-42" d="M1259 2228V519h1013q509 0 754 211 246 211 246 645 0 438-246 645-245 208-754 208H1259zm0 1919V2741h935q462 0 688 173 227 174 227 530 0 353-227 528-226 175-688 175h-935zm-631 519h1613q722 0 1112-300 391-300 391-853 0-429-200-682t-588-315q466-100 724-418 258-317 258-792 0-625-425-966Q3088 0 2303 0H628v4666z" transform="scale(.01563)"/><path id="DejaVuSans-59" d="M-13 4666h679l1293-1919 1285 1919h678L2272 2222V0h-634v2222L-13 4666z" transform="scale(.01563)"/></defs><use xlink:href="#DejaVuSans-40"/><use xlink:href="#DejaVuSans-6e" x="100"/><use xlink:href="#DejaVuSans-73" x="163.379"/><use xlink:href="#DejaVuSans-63" x="215.479"/><use xlink:href="#DejaVuSans-68" x="270.459"/><use xlink:href="#DejaVuSans-6c" x="333.838"/><use xlink:href="#DejaVuSans-6f" x="361.621"/><use xlink:href="#DejaVuSans-65" x="422.803"/><use xlink:href="#DejaVuSans-20" x="484.326"/><use xlink:href="#DejaVuSans-2f" x="516.113"/><use xlink:href="#DejaVuSans-20" x="549.805"/><use xlink:href="#DejaVuSans-73" x="581.592"/><use xlink:href="#DejaVuSans-74" x="633.691"/><use xlink:href="#DejaVuSans-61" x="672.9"/><use xlink:href="#DejaVuSans-63" x="734.18"/><use xlink:href="#DejaVuSans-6b" x="789.16"/><use xlink:href="#DejaVuSans-6f" x="843.445"/><use xlink:href="#DejaVuSans-76" x="904.627"/><use xlink:href="#DejaVuSans-65" x="963.807"/><use xlink:href="#DejaVuSans-72" x="1025.33"/><use xlink:href="#DejaVuSans-66" x="1066.443"/><use xlink:href="#DejaVuSans-6c" x="1101.648"/><use xlink:href="#DejaVuSans-6f" x="1129.432"/><use xlink:href="#DejaVuSans-77" x="1190.613"/><use xlink:href="#DejaVuSans-2d" x="1272.4"/><use xlink:href="#DejaVuSans-74" x="1308.484"/><use xlink:href="#DejaVuSans-72" x="1347.693"/><use xlink:href="#DejaVuSans-65" x="1386.557"/><use xlink:href="#DejaVuSans-6e" x="1448.08"/><use xlink:href="#DejaVuSans-64" x="1511.459"/><use xlink:href="#DejaVuSans-73" x="1574.936"/><use xlink:href="#DejaVuSans-20" x="1627.035"/><use xlink:href="#DejaVuSans-7c" x="1658.822"/><use xlink:href="#DejaVuSans-20" x="1692.514"/><use xlink:href="#DejaVuSans-4e" x="1724.301"/><use xlink:href="#DejaVuSans-69" x="1799.105"/><use xlink:href="#DejaVuSans-63" x="1826.889"/><use xlink:href="#DejaVuSans-6f" x="1881.869"/><use xlink:href="#DejaVuSans-20" x="1943.051"/><use xlink:href="#DejaVuSans-53" x="1974.838"/><use xlink:href="#DejaVuSans-63" x="2038.314"/><use xlink:href="#DejaVuSans-68" x="2093.295"/><use xlink:href="#DejaVuSans-6c" x="2156.674"/><use xlink:href="#DejaVuSans-f6" x="2184.457"/><use xlink:href="#DejaVuSans-6d" x="2245.639"/><use xlink:href="#DejaVuSans-65" x="2343.051"/><use xlink:href="#DejaVuSans-72" x="2404.574"/><use xlink:href="#DejaVuSans-20" x="2445.688"/><use xlink:href="#DejaVuSans-7c" x="2477.475"/><use xlink:href="#DejaVuSans-20" x="2511.166"/><use xlink:href="#DejaVuSans-43" x="2542.953"/><use xlink:href="#DejaVuSans-43" x="2612.777"/><use xlink:href="#DejaVuSans-20" x="2682.602"/><use xlink:href="#DejaVuSans-42" x="2714.389"/><use xlink:href="#DejaVuSans-59" x="2777.492"/></g><g id="text_22" style="fill:#b0b0b0" transform="matrix(.14 0 0 -.14 63.337 17.838)"><defs><path id="DejaVuSans-44" d="M1259 4147V519h763q966 0 1414 437 448 438 448 1382 0 937-448 1373t-1414 436h-763zm-631 519h1297q1356 0 1990-564 635-564 635-1764 0-1207-638-1773Q3275 0 1925 0H628v4666z" transform="scale(.01563)"/><path id="DejaVuSans-71" d="M947 1747q0-634 261-995t717-361q456 0 718 361 263 361 263 995t-263 995q-262 361-718 361t-717-361q-261-361-261-995zM2906 525q-181-312-458-464-276-152-664-152-634 0-1033 506-398 507-398 1332t398 1331q399 506 1033 506 388 0 664-152 277-151 458-463v531h575v-4831h-575V525z" transform="scale(.01563)"/><path id="DejaVuSans-4f" d="M2522 4238q-688 0-1093-513-404-512-404-1397 0-881 404-1394 405-512 1093-512 687 0 1089 512 402 513 402 1394 0 885-402 1397-402 513-1089 513zm0 512q981 0 1568-658 588-658 588-1764 0-1103-588-1761Q3503-91 2522-91q-984 0-1574 656-589 657-589 1763t589 1764q590 658 1574 658z" transform="scale(.01563)"/></defs><use xlink:href="#DejaVuSans-44"/><use xlink:href="#DejaVuSans-61" x="77.002"/><use xlink:href="#DejaVuSans-69" x="138.281"/><use xlink:href="#DejaVuSans-6c" x="166.064"/><use xlink:href="#DejaVuSans-79" x="193.848"/><use xlink:href="#DejaVuSans-20" x="253.027"/><use xlink:href="#DejaVuSans-6e" x="284.814"/><use xlink:href="#DejaVuSans-75" x="348.193"/><use xlink:href="#DejaVuSans-6d" x="411.572"/><use xlink:href="#DejaVuSans-62" x="508.984"/><use xlink:href="#DejaVuSans-65" x="572.461"/><use xlink:href="#DejaVuSans-72" x="633.984"/><use xlink:href="#DejaVuSans-20" x="675.098"/><use xlink:href="#DejaVuSans-6f" x="706.885"/><use xlink:href="#DejaVuSans-66" x="768.066"/><use xlink:href="#DejaVuSans-20" x="803.271"/><use xlink:href="#DejaVuSans-71" x="835.059"/><use xlink:href="#DejaVuSans-75" x="898.535"/><use xlink:href="#DejaVuSans-65" x="961.914"/><use xlink:href="#DejaVuSans-73" x="1023.438"/><use xlink:href="#DejaVuSans-74" x="1075.537"/><use xlink:href="#DejaVuSans-69" x="1114.746"/><use xlink:href="#DejaVuSans-6f" x="1142.529"/><use xlink:href="#DejaVuSans-6e" x="1203.711"/><use xlink:href="#DejaVuSans-73" x="1267.09"/><use xlink:href="#DejaVuSans-20" x="1319.189"/><use xlink:href="#DejaVuSans-6f" x="1350.977"/><use xlink:href="#DejaVuSans-6e" x="1412.158"/><use xlink:href="#DejaVuSans-20" x="1475.537"/><use xlink:href="#DejaVuSans-53" x="1507.324"/><use xlink:href="#DejaVuSans-74" x="1570.801"/><use xlink:href="#DejaVuSans-61" x="1610.01"/><use xlink:href="#DejaVuSans-63" x="1671.289"/><use xlink:href="#DejaVuSans-6b" x="1726.27"/><use xlink:href="#DejaVuSans-4f" x="1784.18"/><use xlink:href="#DejaVuSans-76" x="1862.891"/><use xlink:href="#DejaVuSans-65" x="1922.07"/><use xlink:href="#DejaVuSans-72" x="1983.594"/><use xlink:href="#DejaVuSans-66" x="2024.707"/><use xlink:href="#DejaVuSans-6c" x="2059.912"/><use xlink:href="#DejaVuSans-6f" x="2087.695"/><use xlink:href="#DejaVuSans-77" x="2148.877"/></g><path id="line2d_27" d="m40.922 323.775 1.615.084 8.348-.26 2.027.17 2.096-.146 2.096.01 2.095-.29 2.096.336 2.13-.136 2.096.033 2.095-.846 2.096-.6 2.096.646 2.13.225 2.027-1.051 2.027.238 2.095-.198 2.096.56 2.095-.607 2.096.38 2.13-.586 2.096.253 2.095-.344 2.096-.776 2.096.19 2.13.586 2.027-.796 2.027-2.14 4.191 1.04 2.096.28 2.095-.37 2.13-1.31h2.096l2.096-.678 2.095 1.284 2.096.116 2.13-1.626 2.061-.738 2.062-.3 2.095.215 2.096-.396 2.095-.538 4.226-1.766 2.096-.707 2.095-.467 2.096-1.82 2.096 3.581 2.13-2.077 2.027-2.634 2.027-.708 2.095-3.156 2.096 1.62 2.096 2.58 2.095-4.883 2.13 3.477 2.096-3.167 2.096-2.072 2.095-2.268 2.096 4.572 2.13-3.84 2.027-5.806 2.027 2.239 2.095 1.948 2.096.626 2.096 2.687 2.095-1.467 2.13.587 2.096 1.254 2.096-3.648 2.095 2.108 2.096 2.454 2.13-3.343 2.027-5.295 2.027-1.615 2.096 1.452 2.095-.503 2.096.316 2.096-1.355 2.13 4.11 2.095.372 2.096-2.314 2.095-3.987 2.096 4.8 2.13-4.607 2.061-5.323 2.062-.142 2.095-1.822 2.096 7.106 2.096-4.819 2.095.258 2.13 1.49 2.096-1.468 2.096-.203 2.095-3.11 2.096 5.413 2.13-2.529 2.027-10.471 2.027-2.626 2.096 1.299 2.095 4.391 2.096-1.124 2.095-1.27 2.13 1.717 2.096 1.513 2.096-6.978 2.095-.63 2.096 8.489 2.13-3.433 2.027-5.249 4.123 5.374 2.095 1.772 2.096-.139 2.096-3.565 2.13 2.891 2.095 2.121 2.096-3.566 2.096-2.08 2.095 6.325 2.13-.226 2.027-12.307 2.027-.971 2.096.224 2.095 4.97 2.096 3.524 2.096-5.737 2.13 1.716 2.095 2.388 2.096-11.466 2.096-1.322 2.095 9.271 2.13.361 2.062-12.541 2.061.121 2.096-21.247 2.095.517 2.096 4.477 2.096 3.968 2.13 13.866 2.095-3.646 2.096-4.077 2.096-2.69 2.095 12.445 2.13-2.393 2.027-5.859 2.027-5.116 2.096 6.336 6.287 7.98 2.13 6.188 2.095-2.267 2.096-5.23 2.096.003 2.095 7.765 2.13.09 2.027-4.948 2.027-3.271 2.096 1.857 2.096 3.562 2.095 1.665 2.096-.174 2.13 3.568 2.096 2.113 2.095-4.19 2.096-4.77 2.096 12.628h0" clip-path="url(#p916a12afc0)" style="fill:none;stroke:#ff7f0e;stroke-width:1.5;stroke-linecap:square"/><path id="line2d_28" d="m101.044 323.95 4.122-.094 2.096.094h4.191l4.226-.047 2.096-.134 4.19.136 2.13-.226 2.062.078 2.062-1.162 2.095.141 2.096-.728 2.095-.392 2.096-.647 2.13-.994 4.191-.677 2.096-.949h2.096l2.13-1.445 2.027-2.255 2.027 1.487 2.095-1.053 4.192-2.614 2.095-1.572 2.13.226 2.096 1.58 2.096-4.967 2.095-.4 2.096 1.574 2.13-5.33 2.027.068 2.027-3.545 2.095.745 2.096 2.19 2.096-.696 2.095-.297 2.13.18 2.096-1.05 2.096.78 2.095-2.087 2.096 5.158 2.13-2.981 2.027-4.897 2.027-3.639 2.096-2.461 2.095 2.596 2.096-5.723 2.096-2.903 2.13 4.787 2.095-3.331 2.096-5.34 2.095 1 2.096 1.394 2.13-.768 2.061-8.972 2.062-.151 2.095-5.504 4.192-4.107 2.095-6.558 2.13 4.607 2.096.55 2.096.398 2.095-9.171 2.096 6.19 2.13-5.6 2.027-8.698 2.027-11.4 2.096 3.686 2.095-.977 2.096-5.696 2.095-1.35 2.13-2.845 2.096 4.848 2.096-6.383 2.095-1.644 2.096 15.329 2.13-14.318 2.027-11.902 2.027-9.867 2.096 4.797 2.095-.642 4.192-18.517 2.13 3.387 2.095 13.018 2.096-12.385 2.096-5.303 2.095 25.852 2.13-17.388 2.027-20.905 2.027-.232 2.096-5.295 2.095-.35 2.096 4.597 2.096-22.392 2.13 6.052 2.095 12.187 2.096-31.292 2.096 4.41 2.095 18.037 2.13-22.582 2.062-15.75 2.061-3.716 2.096-60.975 2.095 4.068 2.096 2.186 2.096 16.376 2.13 31.435 2.095-1.281 2.096-1.7 2.096 1.373 2.095 29.564 2.13-8.49 2.027-31.585 2.027-14.348 2.096 25.046 2.095 9.189 2.096-12.783 2.096 19.829 2.13 1.67 2.095 5.616 2.096-4.396 2.096-9.838 2.095 26.64 2.13-.272 2.027-30.152 2.027-8.96 2.096 18.438 2.096-6.063 2.095 16.283 2.096-.475 2.13-10.704 2.096 12.953 2.095.55 2.096-17.071 2.096 45.029h0" clip-path="url(#p916a12afc0)" style="fill:none;stroke:#1f77b4;stroke-width:1.5;stroke-linecap:square"/></g></g><defs><clipPath id="p916a12afc0"><path d="M40.922 57.838h357.12V323.95H40.922z"/></clipPath></defs></svg>