<svg xmlns="http://www.w3.org/2000/svg" xmlns:xlink="http://www.w3.org/1999/xlink" width="703.186" height="489.969" viewBox="0 0 527.39 367.477"><defs><style>*{stroke-linejoin:round;stroke-linecap:butt}</style></defs><g id="figure_1"><path id="patch_1" d="M0 367.477h527.39V0H0v367.477z" style="fill:none"/><g id="axes_1"><path id="patch_2" d="M40.922 323.95h357.12V57.838H40.923V323.95z" style="fill:none"/><g id="matplotlib.axis_1"><g id="xtick_1"><g id="line2d_1"><defs><path id="m8117d3891b" d="M0 0v3.5" style="stroke:#b0b0b0;stroke-width:.4"/></defs><use xlink:href="#m8117d3891b" x="73.252" y="323.95" style="fill:#b0b0b0;stroke:#b0b0b0;stroke-width:.4"/></g><g id="text_1" style="fill:#b0b0b0" transform="matrix(.14 0 0 -.14 55.437 341.588)"><defs><path id="DejaVuSans-32" d="M1228 531h2203V0H469v531q359 372 979 998 621 627 780 809 303 340 423 576 121 236 121 464 0 372-261 606-261 235-680 235-297 0-627-103-329-103-704-313v638q381 153 712 231 332 78 607 78 725 0 1156-363 431-362 431-968 0-288-108-546-107-257-392-607-78-91-497-524-418-433-1181-1211z" transform="scale(.01563)"/><path id="DejaVuSans-30" d="M2034 4250q-487 0-733-480-245-479-245-1442 0-959 245-1439 246-480 733-480 491 0 736 480 246 480 246 1439 0 963-246 1442-245 480-736 480zm0 500q785 0 1199-621 414-620 414-1801 0-1178-414-1799Q2819-91 2034-91q-784 0-1198 620-414 621-414 1799 0 1181 414 1801 414 621 1198 621z" transform="scale(.01563)"/><path id="DejaVuSans-31" d="M794 531h1031v3560L703 3866v575l1116 225h631V531h1031V0H794v531z" transform="scale(.01563)"/></defs><use xlink:href="#DejaVuSans-32"/><use xlink:href="#DejaVuSans-30" x="63.623"/><use xlink:href="#DejaVuSans-31" x="127.246"/><use xlink:href="#DejaVuSans-30" x="190.869"/></g></g><g id="xtick_2"><use xlink:href="#m8117d3891b" id="line2d_2" x="124.006" y="323.95" style="fill:#b0b0b0;stroke:#b0b0b0;stroke-width:.4"/><g id="text_2" style="fill:#b0b0b0" transform="matrix(.14 0 0 -.14 106.191 341.588)"><use xlink:href="#DejaVuSans-32"/><use xlink:href="#DejaVuSans-30" x="63.623"/><use xlink:href="#DejaVuSans-31" x="127.246"/><use xlink:href="#DejaVuSans-32" x="190.869"/></g></g><g id="xtick_3"><use xlink:href="#m8117d3891b" id="line2d_3" x="174.829" y="323.95" style="fill:#b0b0b0;stroke:#b0b0b0;stroke-width:.4"/><g id="text_3" style="fill:#b0b0b0" transform="matrix(.14 0 0 -.14 157.014 341.588)"><defs><path id="DejaVuSans-34" d="M2419 4116 825 1625h1594v2491zm-166 550h794V1625h666v-525h-666V0h-628v1100H313v609l1940 2957z" transform="scale(.01563)"/></defs><use xlink:href="#DejaVuSans-32"/><use xlink:href="#DejaVuSans-30" x="63.623"/><use xlink:href="#DejaVuSans-31" x="127.246"/><use xlink:href="#DejaVuSans-34" x="190.869"/></g></g><g id="xtick_4"><use xlink:href="#m8117d3891b" id="line2d_4" x="225.583" y="323.95" style="fill:#b0b0b0;stroke:#b0b0b0;stroke-width:.4"/><g id="text_4" style="fill:#b0b0b0" transform="matrix(.14 0 0 -.14 207.768 341.588)"><defs><path id="DejaVuSans-36" d="M2113 2584q-425 0-674-291-248-290-248-796 0-503 248-796 249-292 674-292t673 292q248 293 248 796 0 506-248 796-248 291-673 291zm1253 1979v-575q-238 112-480 171-242 60-480 60-625 0-955-422-329-422-376-1275 184 272 462 417 279 145 613 145 703 0 1111-427 408-426 408-1160 0-719-425-1154Q2819-91 2113-91q-810 0-1238 620-428 621-428 1799 0 1106 525 1764t1409 658q238 0 480-47t505-140z" transform="scale(.01563)"/></defs><use xlink:href="#DejaVuSans-32"/><use xlink:href="#DejaVuSans-30" x="63.623"/><use xlink:href="#DejaVuSans-31" x="127.246"/><use xlink:href="#DejaVuSans-36" x="190.869"/></g></g><g id="xtick_5"><use xlink:href="#m8117d3891b" id="line2d_5" x="276.407" y="323.95" style="fill:#b0b0b0;stroke:#b0b0b0;stroke-width:.4"/><g id="text_5" style="fill:#b0b0b0" transform="matrix(.14 0 0 -.14 258.592 341.588)"><defs><path id="DejaVuSans-38" d="M2034 2216q-450 0-708-241-257-241-257-662 0-422 257-663 258-241 708-241t709 242q260 243 260 662 0 421-258 662-257 241-711 241zm-631 268q-406 100-633 378-226 279-226 679 0 559 398 884 399 325 1092 325 697 0 1094-325t397-884q0-400-227-679-226-278-629-378 456-106 710-416 255-309 255-755 0-679-414-1042Q2806-91 2034-91q-771 0-1186 362-414 363-414 1042 0 446 256 755 257 310 713 416zm-231 997q0-362 226-565 227-203 636-203 407 0 636 203 230 203 230 565 0 363-230 566-229 203-636 203-409 0-636-203-226-203-226-566z" transform="scale(.01563)"/></defs><use xlink:href="#DejaVuSans-32"/><use xlink:href="#DejaVuSans-30" x="63.623"/><use xlink:href="#DejaVuSans-31" x="127.246"/><use xlink:href="#DejaVuSans-38" x="190.869"/></g></g><g id="xtick_6"><use xlink:href="#m8117d3891b" id="line2d_6" x="327.161" y="323.95" style="fill:#b0b0b0;stroke:#b0b0b0;stroke-width:.4"/><g id="text_6" style="fill:#b0b0b0" transform="matrix(.14 0 0 -.14 309.346 341.588)"><use xlink:href="#DejaVuSans-32"/><use xlink:href="#DejaVuSans-30" x="63.623"/><use xlink:href="#DejaVuSans-32" x="127.246"/><use xlink:href="#DejaVuSans-30" x="190.869"/></g></g><g id="xtick_7"><use xlink:href="#m8117d3891b" id="line2d_7" x="377.984" y="323.95" style="fill:#b0b0b0;stroke:#b0b0b0;stroke-width:.4"/><g id="text_7" style="fill:#b0b0b0" transform="matrix(.14 0 0 -.14 360.17 341.588)"><use xlink:href="#DejaVuSans-32"/><use xlink:href="#DejaVuSans-30" x="63.623"/><use xlink:href="#DejaVuSans-32" x="127.246"/><use xlink:href="#DejaVuSans-32" x="190.869"/></g></g></g><g id="matplotlib.axis_2"><g id="ytick_1"><path id="line2d_8" d="M40.922 323.95h357.12" clip-path="url(#p82761482a2)" style="fill:none;stroke:#b0b0b0;stroke-width:.3;stroke-linecap:square"/><g id="line2d_9"><defs><path id="m9ad6e33cab" d="M0 0h-3.5" style="stroke:#b0b0b0;stroke-width:.3"/></defs><use xlink:href="#m9ad6e33cab" x="40.922" y="323.95" style="fill:#b0b0b0;stroke:#b0b0b0;stroke-width:.3"/></g><use xlink:href="#DejaVuSans-30" id="text_8" style="fill:#b0b0b0" transform="matrix(.14 0 0 -.14 25.015 329.269)"/></g><g id="ytick_2"><path id="line2d_10" d="M40.922 281.496h357.12" clip-path="url(#p82761482a2)" style="fill:none;stroke:#b0b0b0;stroke-width:.3;stroke-linecap:square"/><use xlink:href="#m9ad6e33cab" id="line2d_11" x="40.922" y="281.496" style="fill:#b0b0b0;stroke:#b0b0b0;stroke-width:.3"/><g id="text_9" style="fill:#b0b0b0" transform="matrix(.14 0 0 -.14 16.108 286.815)"><use xlink:href="#DejaVuSans-32"/><use xlink:href="#DejaVuSans-30" x="63.623"/></g></g><g id="ytick_3"><path id="line2d_12" d="M40.922 239.043h357.12" clip-path="url(#p82761482a2)" style="fill:none;stroke:#b0b0b0;stroke-width:.3;stroke-linecap:square"/><use xlink:href="#m9ad6e33cab" id="line2d_13" x="40.922" y="239.043" style="fill:#b0b0b0;stroke:#b0b0b0;stroke-width:.3"/><g id="text_10" style="fill:#b0b0b0" transform="matrix(.14 0 0 -.14 16.108 244.362)"><use xlink:href="#DejaVuSans-34"/><use xlink:href="#DejaVuSans-30" x="63.623"/></g></g><g id="ytick_4"><path id="line2d_14" d="M40.922 196.59h357.12" clip-path="url(#p82761482a2)" style="fill:none;stroke:#b0b0b0;stroke-width:.3;stroke-linecap:square"/><use xlink:href="#m9ad6e33cab" id="line2d_15" x="40.922" y="196.59" style="fill:#b0b0b0;stroke:#b0b0b0;stroke-width:.3"/><g id="text_11" style="fill:#b0b0b0" transform="matrix(.14 0 0 -.14 16.108 201.909)"><use xlink:href="#DejaVuSans-36"/><use xlink:href="#DejaVuSans-30" x="63.623"/></g></g><g id="ytick_5"><path id="line2d_16" d="M40.922 154.136h357.12" clip-path="url(#p82761482a2)" style="fill:none;stroke:#b0b0b0;stroke-width:.3;stroke-linecap:square"/><use xlink:href="#m9ad6e33cab" id="line2d_17" x="40.922" y="154.136" style="fill:#b0b0b0;stroke:#b0b0b0;stroke-width:.3"/><g id="text_12" style="fill:#b0b0b0" transform="matrix(.14 0 0 -.14 16.108 159.455)"><use xlink:href="#DejaVuSans-38"/><use xlink:href="#DejaVuSans-30" x="63.623"/></g></g><g id="ytick_6"><path id="line2d_18" d="M40.922 111.683h357.12" clip-path="url(#p82761482a2)" style="fill:none;stroke:#b0b0b0;stroke-width:.3;stroke-linecap:square"/><use xlink:href="#m9ad6e33cab" id="line2d_19" x="40.922" y="111.683" style="fill:#b0b0b0;stroke:#b0b0b0;stroke-width:.3"/><g id="text_13" style="fill:#b0b0b0" transform="matrix(.14 0 0 -.14 7.2 117.002)"><use xlink:href="#DejaVuSans-31"/><use xlink:href="#DejaVuSans-30" x="63.623"/><use xlink:href="#DejaVuSans-30" x="127.246"/></g></g><g id="ytick_7"><path id="line2d_20" d="M40.922 69.23h357.12" clip-path="url(#p82761482a2)" style="fill:none;stroke:#b0b0b0;stroke-width:.3;stroke-linecap:square"/><use xlink:href="#m9ad6e33cab" id="line2d_21" x="40.922" y="69.229" style="fill:#b0b0b0;stroke:#b0b0b0;stroke-width:.3"/><g id="text_14" style="fill:#b0b0b0" transform="matrix(.14 0 0 -.14 7.2 74.548)"><use xlink:href="#DejaVuSans-31"/><use xlink:href="#DejaVuSans-32" x="63.623"/><use xlink:href="#DejaVuSans-30" x="127.246"/></g></g></g><path id="line2d_22" d="m40.922 323.817 3.755.062 6.327-.08 2.05-.192 2.121.201 2.12-.132 2.121-.01 2.12.284 2.156-.411 2.12-.014 2.121.288 6.397-.685 2.05.14 2.052.271 2.12.057 2.12-.468 4.242-.068 2.155-.137 2.12.673 2.121-.605 2.12-.173 2.121.379 2.156.137 2.05-.37 2.052.096 2.12.324 2.12-.735 6.397.616 2.12-.377 2.121.514 2.12-.443 2.121.58 2.156-.685 2.085.29 2.086-.084 2.12-.738 2.121 1.012 2.12-.516 2.121.036 2.156-.274 2.12.45 2.12.03 2.121-.242 2.12-.854 2.156.685 2.051-.367 2.051.572 4.241-.821 2.12.502 2.121-.023 2.156-.137 2.12.655 2.12.235 2.121-1.013 2.12.397 2.156-.137 2.051.3 2.051-.574 2.12-.128 2.121-.009 2.12.15 2.121-.698 2.156-.068 2.12.908 4.241.354 2.12-.167 2.156.069 2.051-.898 2.051.076 2.12-.141 2.121.757 2.12-.12 2.121-.907 2.156.685 2.12.221 2.12-.221 2.121-.628 4.276.56 2.086-.206 2.086-.41 2.12.269 2.12.073 2.121.351 2.12-.557 2.156.206 2.12.705 2.121-1.527 2.12.749 2.121-.133 2.156.548 2.05.03 2.052-.304 2.12-.141 2.12-1.365 2.121 1.294 2.12-.952 2.156.206 2.12 1.029 2.121-.55 2.12-.087 2.121.566 4.207-.834 2.05.15 2.121-.872 2.12.255 2.121.381 2.12.235h2.156l2.12.331 2.121-.4 2.12.188 2.121.635 4.207-1.433 2.05-.005 2.121 1.581 2.12-.28 2.121-.498 2.12-.666 2.156-.343 2.12.938 2.121-.732 2.12-.329 2.121.74 2.155-.754 4.172.137 2.12-1.538 2.121-.995 2.12 1.42 2.121-.256 2.155-.685 2.121 1.86 2.12-1.107 2.121.753 2.12.343 2.156.48 2.051-1.732 2.051-.05 2.12 1.738 2.121-1.052 2.12.769 2.121-.496 2.155.069 2.121.78 2.12.11 2.121-.463 2.12.052 2.156.206 2.05-.678 2.052-.212 2.12.066 2.121 2.056 2.12-1.136 2.121-.165 2.155.959 2.121-1.077h0" clip-path="url(#p82761482a2)" style="fill:none;stroke:#8c564b;stroke-width:1.5;stroke-linecap:square"/><path id="line2d_23" d="m40.922 323.817 1.634.133 2.12-.212 4.277-.13 2.05.114 2.052-.115 2.12.13 2.12.007 4.242-.342 2.155.205 2.12-.294 2.121.294 4.241-.342h2.156l2.05.382 2.052-.656 2.12.676 4.241-.779 2.12.377 2.156-.342 2.12.46 2.121-.323 2.12-.172 2.121.514 2.156-.753 4.102.137 2.12-.11 2.12-.37 2.121-.125 2.12.947 2.156-1.232 2.12.922 2.121-.785 2.12.148 2.121-.285 2.156.547 2.085-.762 2.086 1.31 2.12-.88 2.121-.215 4.241-.069 2.156.069 2.12-.423 2.12.833 4.242-.684 2.155.616 2.051-.26 2.051-.014 2.12.217 2.121-.422 2.12-.144 2.121-.267 2.156.48 4.24-.48 2.121.055 2.12 1.04 2.156-1.3 2.051.305 2.051.516 2.12-.986 2.121.85 2.12-.496 2.121.358 2.156-.616 2.12.682 2.12.277 2.121-1.055 2.12 1.192 2.156-.96 2.051.92 2.051-.85 2.12.052 2.121-.121 2.12-1.294 2.121.472 2.156-.068 2.12.657 2.12 1.055 2.121-.772 2.12-.119 2.156.274 2.086-.467 2.086-.08 2.12-1.165 2.12.48 2.121.087 2.12-1.046 2.156.959 2.12.299 2.121-.436 2.12-.626 2.121 1.037 2.156-.617 4.102.274 2.12-.906 2.12-.19 2.121.827 4.276-.142 2.12.213 2.121.404 2.12-.9 2.121.215 2.156.41 2.05-.342 2.052 1.028 2.12-2.16 2.12 2.57 2.121-.73 2.12-2.214 2.156.685 2.12 1.6 2.121-1.463 2.12.897 4.276 1.02 2.052-.323 2.05-1.115 2.121.135 2.12-.066 2.121.42 2.12-.626 2.156-1.095 2.12 2.074 2.121-2.006 4.241.753 2.155.274 4.172-.822 2.12.315 2.121-1 2.12.08 2.121-.696 2.155.617 2.121.433 2.12-.639 2.121.852 2.12-.03 4.207-1.118 2.051 1.118 2.12-.253 2.121 1.828 2.12-1.05 2.121-.251 2.155.822 2.121-1.986 2.12-.411 2.121 1.967 2.12.156 2.156-.137 2.05-.59 2.052.521 2.12-1.152 2.121-.491 2.12.774 2.121.458 2.155-.137 2.121-1.1h0" clip-path="url(#p82761482a2)" style="fill:none;stroke:#9467bd;stroke-width:1.5;stroke-linecap:square"/><path id="line2d_24" d="m40.922 323.817 1.634-.346 2.12.337 6.328-.389 2.05.394 4.242-.342 4.24.273 2.156-.342 2.12.194 2.121-.262 6.397.068 2.05-.817 2.052.2 2.12.457 2.12-.32 2.121.108 2.12-.45 2.156.069 2.12.31 2.121-1.269 2.12.066 2.121 1.235 2.156-.068 2.05-1.93 2.052 1.177 2.12.152 2.12-.563 2.121-.073 2.12.278 2.156-.41 2.12.627 2.121.4 2.12-.612 2.121-.073 2.156-.959 2.085.67 2.086-.396 2.12.687 2.121-.687 2.12.192 2.121-.398 2.156.343 2.12.055 2.12.219 2.121-.856 2.12.513 2.156-.274 2.051-.618 2.051 1.714 2.12-.415 4.242.636 2.12-1.043 2.156-.547 2.12.458 2.12.637 2.121-.283 2.12.42 2.156-1.37 2.051.702 2.051.052 2.12-1.219 2.121.123 2.12.372 2.121-.92 2.156 1.028 2.12-.532 2.12.12 2.121.517 2.12.305 2.156-1.164 2.051.712 2.051-1.396 2.12.977 2.121-1.046 2.12-1.29 2.121 1.975h2.156l4.24-1.027 2.121.114 4.276-.388 2.086.583 2.086-.583 2.12-.815 2.12 1.02 2.121-.525 2.12.046 2.156-.48 2.12.788 2.121 1.54 2.12-.69 2.121.622 2.156-.753 2.05-1.325 2.052.846 2.12 2.095 4.241-2.052 2.12.573 2.156-1.917 2.12 2.193 2.121-2.536 2.12.838 6.328-1.33 2.05.219 2.121-.092 2.12-.388 2.121-.815 2.12-.349 2.156 1.575 2.12 1.958 2.121-2.437 2.12.598 2.121-.119 2.155-1.986 2.052 1.306 2.05-.073 2.121 1.509 2.12-.824 2.121-.592 2.12-.915 2.156-2.807 2.12.114 2.121-1.141 2.12.292 2.121 2.31 2.155-.754 2.086-1.976 2.086.402 2.12-3.378 2.121-.936 2.12.44 2.121-.509 2.155.822 2.121 1.102 2.12-2.13 2.121 3.97 2.12-.066 2.156-1.233 2.051-2.876 2.051-.958 2.12 1.03 2.121 1.23 2.12-2.292 2.121 3.045 2.155.068 2.121.778 2.12-.025 2.121-1.107 2.12 1.655 2.156-2.67 2.05-.754 2.052-1.369 2.12 2.714 2.121-.386 2.12-1.666 2.121 1.187 2.155-.069 2.121.156h0" clip-path="url(#p82761482a2)" style="fill:none;stroke:#d62728;stroke-width:1.5;stroke-linecap:square"/><g id="text_15" style="fill:#1f77b4" transform="matrix(.14 0 0 -.14 408.756 182.65)"><defs><path id="DejaVuSans-6a" d="M603 3500h575V-63q0-668-255-968-254-300-820-300h-219v487H38q328 0 446 152Q603-541 603-63v3563zm0 1363h575v-729H603v729z" transform="scale(.01563)"/><path id="DejaVuSans-73" d="M2834 3397v-544q-243 125-506 187-262 63-544 63-428 0-642-131t-214-394q0-200 153-314t616-217l197-44q612-131 870-370t258-667q0-488-386-773Q2250-91 1575-91q-281 0-586 55T347 128v594q319-166 628-249 309-82 613-82 406 0 624 139 219 139 219 392 0 234-158 359-157 125-692 241l-200 47q-534 112-772 345-237 233-237 639 0 494 350 762 350 269 994 269 318 0 599-47 282-46 519-140z" transform="scale(.01563)"/><path id="DejaVuSans-6f" d="M1959 3097q-462 0-731-361t-269-989q0-628 267-989 268-361 733-361 460 0 728 362 269 363 269 988 0 622-269 986-268 364-728 364zm0 487q750 0 1178-488 429-487 429-1349 0-859-429-1349Q2709-91 1959-91q-753 0-1180 489-426 490-426 1349 0 862 426 1349 427 488 1180 488z" transform="scale(.01563)"/><path id="DejaVuSans-6e" d="M3513 2113V0h-575v2094q0 497-194 743-194 247-581 247-466 0-735-297-269-296-269-809V0H581v3500h578v-544q207 316 486 472 280 156 646 156 603 0 912-373 310-373 310-1098z" transform="scale(.01563)"/></defs><use xlink:href="#DejaVuSans-6a"/><use xlink:href="#DejaVuSans-73" x="27.783"/><use xlink:href="#DejaVuSans-6f" x="79.883"/><use xlink:href="#DejaVuSans-6e" x="141.064"/></g><g id="text_16" style="fill:#ff7f0e" transform="matrix(.14 0 0 -.14 408.756 275.58)"><defs><path id="DejaVuSans-63" d="M3122 3366v-538q-244 135-489 202t-495 67q-560 0-870-355-309-354-309-995t309-996q310-354 870-354 250 0 495 67t489 202V134Q2881 22 2623-34q-257-57-548-57-791 0-1257 497-465 497-465 1341 0 856 470 1346 471 491 1290 491 265 0 518-55 253-54 491-163z" transform="scale(.01563)"/><path id="DejaVuSans-76" d="M191 3500h609L1894 563l1094 2937h609L2284 0h-781L191 3500z" transform="scale(.01563)"/></defs><use xlink:href="#DejaVuSans-63"/><use xlink:href="#DejaVuSans-73" x="54.98"/><use xlink:href="#DejaVuSans-76" x="107.08"/></g><g id="text_17" style="fill:#2ca02c" transform="matrix(.14 0 0 -.14 408.756 289.58)"><defs><path id="DejaVuSans-78" d="M3513 3500 2247 1797 3578 0h-678L1881 1375 863 0H184l1360 1831L300 3500h678l928-1247 928 1247h679z" transform="scale(.01563)"/><path id="DejaVuSans-6d" d="M3328 2828q216 388 516 572t706 184q547 0 844-383 297-382 297-1088V0h-578v2094q0 503-179 746-178 244-543 244-447 0-707-297-259-296-259-809V0h-578v2094q0 506-178 748t-550 242q-441 0-701-298-259-298-259-808V0H581v3500h578v-544q197 322 472 475t653 153q382 0 649-194 267-193 395-562z" transform="scale(.01563)"/><path id="DejaVuSans-6c" d="M603 4863h575V0H603v4863z" transform="scale(.01563)"/></defs><use xlink:href="#DejaVuSans-78"/><use xlink:href="#DejaVuSans-6d" x="59.18"/><use xlink:href="#DejaVuSans-6c" x="156.592"/></g><g id="text_18" style="fill:#d62728" transform="matrix(.14 0 0 -.14 408.756 304.945)"><defs><path id="DejaVuSans-79" d="M2059-325q-243-625-475-815-231-191-618-191H506v481h338q237 0 368 113 132 112 291 531l103 262L191 3500h609L1894 763l1094 2737h609L2059-325z" transform="scale(.01563)"/><path id="DejaVuSans-61" d="M2194 1759q-697 0-966-159t-269-544q0-306 202-486 202-179 548-179 479 0 768 339t289 901v128h-572zm1147 238V0h-575v531q-197-318-491-470T1556-91q-537 0-855 302-317 302-317 808 0 590 395 890 396 300 1180 300h807v57q0 397-261 614t-733 217q-300 0-585-72-284-72-546-216v532q315 122 612 182 297 61 578 61 760 0 1135-394 375-393 375-1193z" transform="scale(.01563)"/></defs><use xlink:href="#DejaVuSans-79"/><use xlink:href="#DejaVuSans-61" x="59.18"/><use xlink:href="#DejaVuSans-6d" x="120.459"/><use xlink:href="#DejaVuSans-6c" x="217.871"/></g><g id="text_19" style="fill:#9467bd" transform="matrix(.14 0 0 -.14 408.756 318.945)"><defs><path id="DejaVuSans-70" d="M1159 525v-1856H581v4831h578v-531q182 312 458 463 277 152 661 152 638 0 1036-506 399-506 399-1331T3314 415Q2916-91 2278-91q-384 0-661 152-276 152-458 464zm1957 1222q0 634-261 995t-717 361q-457 0-718-361t-261-995q0-634 261-995t718-361q456 0 717 361t261 995z" transform="scale(.01563)"/><path id="DejaVuSans-72" d="M2631 2963q-97 56-211 82-114 27-251 27-488 0-749-317t-261-911V0H581v3500h578v-544q182 319 472 473 291 155 707 155 59 0 131-8 72-7 159-23l3-590z" transform="scale(.01563)"/><path id="DejaVuSans-74" d="M1172 4494v-994h1184v-447H1172V1153q0-428 117-550t477-122h590V0h-590q-666 0-919 248-253 249-253 905v1900H172v447h422v994h578z" transform="scale(.01563)"/><path id="DejaVuSans-2d" d="M313 2009h1684v-512H313v512z" transform="scale(.01563)"/><path id="DejaVuSans-62" d="M3116 1747q0 634-261 995t-717 361q-457 0-718-361t-261-995q0-634 261-995t718-361q456 0 717 361t261 995zM1159 2969q182 312 458 463 277 152 661 152 638 0 1036-506 399-506 399-1331T3314 415Q2916-91 2278-91q-384 0-661 152-276 152-458 464V0H581v4863h578V2969z" transform="scale(.01563)"/><path id="DejaVuSans-75" d="M544 1381v2119h575V1403q0-497 193-746 194-248 582-248 465 0 735 297 271 297 271 810v1984h575V0h-575v538q-209-319-486-474-276-155-642-155-603 0-916 375-312 375-312 1097zm1447 2203z" transform="scale(.01563)"/><path id="DejaVuSans-66" d="M2375 4863v-479h-550q-309 0-430-125-120-125-120-450v-309h947v-447h-947V0H697v3053H147v447h550v244q0 584 272 851 272 268 862 268h544z" transform="scale(.01563)"/><path id="DejaVuSans-65" d="M3597 1894v-281H953q38-594 358-905t892-311q331 0 642 81t618 244V178Q3153 47 2828-22t-659-69q-838 0-1327 487-489 488-489 1320 0 859 464 1363 464 505 1252 505 706 0 1117-455 411-454 411-1235zm-575 169q-6 471-264 752-258 282-683 282-481 0-770-272t-333-766l2050 4z" transform="scale(.01563)"/></defs><use xlink:href="#DejaVuSans-70"/><use xlink:href="#DejaVuSans-72" x="63.477"/><use xlink:href="#DejaVuSans-6f" x="102.34"/><use xlink:href="#DejaVuSans-74" x="163.521"/><use xlink:href="#DejaVuSans-6f" x="202.73"/><use xlink:href="#DejaVuSans-63" x="263.912"/><use xlink:href="#DejaVuSans-6f" x="318.893"/><use xlink:href="#DejaVuSans-6c" x="380.074"/><use xlink:href="#DejaVuSans-2d" x="407.857"/><use xlink:href="#DejaVuSans-62" x="443.941"/><use xlink:href="#DejaVuSans-75" x="507.418"/><use xlink:href="#DejaVuSans-66" x="570.797"/><use xlink:href="#DejaVuSans-66" x="606.002"/><use xlink:href="#DejaVuSans-65" x="641.207"/><use xlink:href="#DejaVuSans-72" x="702.73"/><use xlink:href="#DejaVuSans-73" x="743.844"/></g><g id="text_20" style="fill:#8c564b" transform="matrix(.14 0 0 -.14 408.756 332.945)"><defs><path id="DejaVuSans-69" d="M603 3500h575V0H603v3500zm0 1363h575v-729H603v729z" transform="scale(.01563)"/><path id="DejaVuSans-6b" d="M581 4863h578V1991l1716 1509h734L1753 1863 3688 0h-750L1159 1709V0H581v4863z" transform="scale(.01563)"/></defs><use xlink:href="#DejaVuSans-70"/><use xlink:href="#DejaVuSans-69" x="63.477"/><use xlink:href="#DejaVuSans-63" x="91.26"/><use xlink:href="#DejaVuSans-6b" x="146.24"/><use xlink:href="#DejaVuSans-6c" x="204.15"/><use xlink:href="#DejaVuSans-65" x="231.934"/></g><g id="text_21" style="fill:#b0b0b0" transform="matrix(.09716 0 0 -.09716 40.922 357.986)"><defs><path id="DejaVuSans-40" d="M2381 1678q0-447 222-702 222-254 610-254 384 0 604 256 221 256 221 700 0 438-225 695-225 258-607 258-378 0-602-256-223-256-223-697zm1703-934q-187-241-429-355t-564-114q-538 0-874 389t-336 1014q0 625 337 1015 338 391 873 391 322 0 565-117 244-117 428-354v409h447V722q457 69 714 417 258 349 258 902 0 334-99 628-98 294-298 544-325 409-792 626t-1017 217q-384 0-738-102-353-101-653-301-490-319-767-836-276-517-276-1120 0-497 179-932 180-434 521-765 328-325 759-495 431-171 922-171 403 0 792 136t714 389l281-347q-390-303-851-464t-936-161q-578 0-1091 205-512 205-912 595Q841 78 631 592q-209 514-209 1105 0 569 212 1084 213 516 607 907 403 396 931 607t1119 211q662 0 1229-272 568-271 952-771 234-307 357-666 124-359 124-744 0-822-497-1297T4084 263v481z" transform="scale(.01563)"/><path id="DejaVuSans-68" d="M3513 2113V0h-575v2094q0 497-194 743-194 247-581 247-466 0-735-297-269-296-269-809V0H581v4863h578V2956q207 316 486 472 280 156 646 156 603 0 912-373 310-373 310-1098z" transform="scale(.01563)"/><path id="DejaVuSans-2f" d="M1625 4666h531L531-594H0l1625 5260z" transform="scale(.01563)"/><path id="DejaVuSans-77" d="M269 3500h575l719-2731 715 2731h678l719-2731 716 2731h575L4050 0h-678l-753 2869L1863 0h-679L269 3500z" transform="scale(.01563)"/><path id="DejaVuSans-64" d="M2906 2969v1894h575V0h-575v525q-181-312-458-464-276-152-664-152-634 0-1033 506-398 507-398 1332t398 1331q399 506 1033 506 388 0 664-152 277-151 458-463zM947 1747q0-634 261-995t717-361q456 0 718 361 263 361 263 995t-263 995q-262 361-718 361t-717-361q-261-361-261-995z" transform="scale(.01563)"/><path id="DejaVuSans-7c" d="M1344 4891v-6400H813v6400h531z" transform="scale(.01563)"/><path id="DejaVuSans-4e" d="M628 4666h850L3547 763v3903h612V0h-850L1241 3903V0H628v4666z" transform="scale(.01563)"/><path id="DejaVuSans-53" d="M3425 4513v-616q-359 172-678 256-319 85-616 85-515 0-795-200t-280-569q0-310 186-468 186-157 705-254l381-78q706-135 1042-474t336-907q0-679-455-1029Q2797-91 1919-91q-331 0-705 75-373 75-773 222v650q384-215 753-325 369-109 725-109 540 0 834 212 294 213 294 607 0 343-211 537t-692 291l-385 75q-706 140-1022 440-315 300-315 835 0 619 436 975t1201 356q329 0 669-60 341-59 697-177z" transform="scale(.01563)"/><path id="DejaVuSans-f6" d="M1959 3097q-462 0-731-361t-269-989q0-628 267-989 268-361 733-361 460 0 728 362 269 363 269 988 0 622-269 986-268 364-728 364zm0 487q750 0 1178-488 429-487 429-1349 0-859-429-1349Q2709-91 1959-91q-753 0-1180 489-426 490-426 1349 0 862 426 1349 427 488 1180 488zm295 1266h634v-631h-634v631zm-1222 0h634v-631h-634v631z" transform="scale(.01563)"/><path id="DejaVuSans-43" d="M4122 4306v-665q-319 297-680 443-361 147-767 147-800 0-1225-489t-425-1414q0-922 425-1411t1225-489q406 0 767 147t680 444V359q-331-225-702-338-370-112-782-112-1060 0-1670 648-609 649-609 1771 0 1125 609 1773 610 649 1670 649 418 0 788-111 371-111 696-333z" transform="scale(.01563)"/><path id="DejaVuSans-42" d="M1259 2228V519h1013q509 0 754 211 246 211 246 645 0 438-246 645-245 208-754 208H1259zm0 1919V2741h935q462 0 688 173 227 174 227 530 0 353-227 528-226 175-688 175h-935zm-631 519h1613q722 0 1112-300 391-300 391-853 0-429-200-682t-588-315q466-100 724-418 258-317 258-792 0-625-425-966Q3088 0 2303 0H628v4666z" transform="scale(.01563)"/><path id="DejaVuSans-59" d="M-13 4666h679l1293-1919 1285 1919h678L2272 2222V0h-634v2222L-13 4666z" transform="scale(.01563)"/></defs><use xlink:href="#DejaVuSans-40"/><use xlink:href="#DejaVuSans-6e" x="100"/><use xlink:href="#DejaVuSans-73" x="163.379"/><use xlink:href="#DejaVuSans-63" x="215.479"/><use xlink:href="#DejaVuSans-68" x="270.459"/><use xlink:href="#DejaVuSans-6c" x="333.838"/><use xlink:href="#DejaVuSans-6f" x="361.621"/><use xlink:href="#DejaVuSans-65" x="422.803"/><use xlink:href="#DejaVuSans-20" x="484.326"/><use xlink:href="#DejaVuSans-2f" x="516.113"/><use xlink:href="#DejaVuSans-20" x="549.805"/><use xlink:href="#DejaVuSans-73" x="581.592"/><use xlink:href="#DejaVuSans-74" x="633.691"/><use xlink:href="#DejaVuSans-61" x="672.9"/><use xlink:href="#DejaVuSans-63" x="734.18"/><use xlink:href="#DejaVuSans-6b" x="789.16"/><use xlink:href="#DejaVuSans-6f" x="843.445"/><use xlink:href="#DejaVuSans-76" x="904.627"/><use xlink:href="#DejaVuSans-65" x="963.807"/><use xlink:href="#DejaVuSans-72" x="1025.33"/><use xlink:href="#DejaVuSans-66" x="1066.443"/><use xlink:href="#DejaVuSans-6c" x="1101.648"/><use xlink:href="#DejaVuSans-6f" x="1129.432"/><use xlink:href="#DejaVuSans-77" x="1190.613"/><use xlink:href="#DejaVuSans-2d" x="1272.4"/><use xlink:href="#DejaVuSans-74" x="1308.484"/><use xlink:href="#DejaVuSans-72" x="1347.693"/><use xlink:href="#DejaVuSans-65" x="1386.557"/><use xlink:href="#DejaVuSans-6e" x="1448.08"/><use xlink:href="#DejaVuSans-64" x="1511.459"/><use xlink:href="#DejaVuSans-73" x="1574.936"/><use xlink:href="#DejaVuSans-20" x="1627.035"/><use xlink:href="#DejaVuSans-7c" x="1658.822"/><use xlink:href="#DejaVuSans-20" x="1692.514"/><use xlink:href="#DejaVuSans-4e" x="1724.301"/><use xlink:href="#DejaVuSans-69" x="1799.105"/><use xlink:href="#DejaVuSans-63" x="1826.889"/><use xlink:href="#DejaVuSans-6f" x="1881.869"/><use xlink:href="#DejaVuSans-20" x="1943.051"/><use xlink:href="#DejaVuSans-53" x="1974.838"/><use xlink:href="#DejaVuSans-63" x="2038.314"/><use xlink:href="#DejaVuSans-68" x="2093.295"/><use xlink:href="#DejaVuSans-6c" x="2156.674"/><use xlink:href="#DejaVuSans-f6" x="2184.457"/><use xlink:href="#DejaVuSans-6d" x="2245.639"/><use xlink:href="#DejaVuSans-65" x="2343.051"/><use xlink:href="#DejaVuSans-72" x="2404.574"/><use xlink:href="#DejaVuSans-20" x="2445.688"/><use xlink:href="#DejaVuSans-7c" x="2477.475"/><use xlink:href="#DejaVuSans-20" x="2511.166"/><use xlink:href="#DejaVuSans-43" x="2542.953"/><use xlink:href="#DejaVuSans-43" x="2612.777"/><use xlink:href="#DejaVuSans-20" x="2682.602"/><use xlink:href="#DejaVuSans-42" x="2714.389"/><use xlink:href="#DejaVuSans-59" x="2777.492"/></g><g id="text_22" style="fill:#b0b0b0" transform="matrix(.14 0 0 -.14 63.337 17.838)"><defs><path id="DejaVuSans-44" d="M1259 4147V519h763q966 0 1414 437 448 438 448 1382 0 937-448 1373t-1414 436h-763zm-631 519h1297q1356 0 1990-564 635-564 635-1764 0-1207-638-1773Q3275 0 1925 0H628v4666z" transform="scale(.01563)"/><path id="DejaVuSans-71" d="M947 1747q0-634 261-995t717-361q456 0 718 361 263 361 263 995t-263 995q-262 361-718 361t-717-361q-261-361-261-995zM2906 525q-181-312-458-464-276-152-664-152-634 0-1033 506-398 507-398 1332t398 1331q399 506 1033 506 388 0 664-152 277-151 458-463v531h575v-4831h-575V525z" transform="scale(.01563)"/><path id="DejaVuSans-4f" d="M2522 4238q-688 0-1093-513-404-512-404-1397 0-881 404-1394 405-512 1093-512 687 0 1089 512 402 513 402 1394 0 885-402 1397-402 513-1089 513zm0 512q981 0 1568-658 588-658 588-1764 0-1103-588-1761Q3503-91 2522-91q-984 0-1574 656-589 657-589 1763t589 1764q590 658 1574 658z" transform="scale(.01563)"/></defs><use xlink:href="#DejaVuSans-44"/><use xlink:href="#DejaVuSans-61" x="77.002"/><use xlink:href="#DejaVuSans-69" x="138.281"/><use xlink:href="#DejaVuSans-6c" x="166.064"/><use xlink:href="#DejaVuSans-79" x="193.848"/><use xlink:href="#DejaVuSans-20" x="253.027"/><use xlink:href="#DejaVuSans-6e" x="284.814"/><use xlink:href="#DejaVuSans-75" x="348.193"/><use xlink:href="#DejaVuSans-6d" x="411.572"/><use xlink:href="#DejaVuSans-62" x="508.984"/><use xlink:href="#DejaVuSans-65" x="572.461"/><use xlink:href="#DejaVuSans-72" x="633.984"/><use xlink:href="#DejaVuSans-20" x="675.098"/><use xlink:href="#DejaVuSans-6f" x="706.885"/><use xlink:href="#DejaVuSans-66" x="768.066"/><use xlink:href="#DejaVuSans-20" x="803.271"/><use xlink:href="#DejaVuSans-71" x="835.059"/><use xlink:href="#DejaVuSans-75" x="898.535"/><use xlink:href="#DejaVuSans-65" x="961.914"/><use xlink:href="#DejaVuSans-73" x="1023.438"/><use xlink:href="#DejaVuSans-74" x="1075.537"/><use xlink:href="#DejaVuSans-69" x="1114.746"/><use xlink:href="#DejaVuSans-6f" x="1142.529"/><use xlink:href="#DejaVuSans-6e" x="1203.711"/><use xlink:href="#DejaVuSans-73" x="1267.09"/><use xlink:href="#DejaVuSans-20" x="1319.189"/><use xlink:href="#DejaVuSans-6f" x="1350.977"/><use xlink:href="#DejaVuSans-6e" x="1412.158"/><use xlink:href="#DejaVuSans-20" x="1475.537"/><use xlink:href="#DejaVuSans-53" x="1507.324"/><use xlink:href="#DejaVuSans-74" x="1570.801"/><use xlink:href="#DejaVuSans-61" x="1610.01"/><use xlink:href="#DejaVuSans-63" x="1671.289"/><use xlink:href="#DejaVuSans-6b" x="1726.27"/><use xlink:href="#DejaVuSans-4f" x="1784.18"/><use xlink:href="#DejaVuSans-76" x="1862.891"/><use xlink:href="#DejaVuSans-65" x="1922.07"/><use xlink:href="#DejaVuSans-72" x="1983.594"/><use xlink:href="#DejaVuSans-66" x="2024.707"/><use xlink:href="#DejaVuSans-6c" x="2059.912"/><use xlink:href="#DejaVuSans-6f" x="2087.695"/><use xlink:href="#DejaVuSans-77" x="2148.877"/></g><path id="line2d_25" d="m40.922 298.743 1.634 8.294 2.12 1.417 2.121 2.897 2.156-3.492 2.05-4.15 2.052-2.081 4.24-2.876 2.121-10.18 2.12.046 2.156-.411 2.12-1.404 2.121-.719 2.12-.979 2.121-1.486 2.156-2.602 2.05-7.632 2.052-.38 2.12 4.67 2.12-3.3 2.121-8.657 2.12 1.399 2.156-1.986 2.12 1.719 2.121-1.308 2.12-14.612 2.121 9.271 2.156-12.53 2.05-4.686 2.052-9.625 4.24-6.163 2.121-9.168 2.12 9.1 2.156-4.588 2.12 10.276 2.121-1.58 2.12-1.817 2.121 4.83 2.156-9.176 2.085-18.823 2.086 5.334 2.12-1.056 2.121-9.968 2.12 11.312 2.121-10.353 2.156 4.45 2.12 6.115 2.12-6.251 2.121.45 2.12 19.338 2.156-19.994 2.051-11.313 2.051 5.698 2.12-17.999 2.121 13.685 2.12 5.631 2.121-9.26 2.156 5.273 2.12-20.565 2.12-4.017 2.121-4.969 2.12 16.678 2.156-26.773 2.051-11.445 2.051 10.418 2.12 3.551 2.121 12.814 2.12 7.069 2.121-2.755 2.156 13.215 2.12-2.96 2.12 2.755 2.121-1.552 2.12 12.576 2.156-1.917 2.051-16.522 2.051-2.514 2.12-3.157 2.121 9.457 2.12-16.108 2.121 2.687 2.156 16.16 2.12 6.342 2.12-1.618 2.121-1 2.12 12.298 4.242-19.734 2.086-7.381 2.12 10.006 2.12 5.195 2.121-4.063 2.12 11.8 2.156-.41 2.12 9.412 2.121 4.145 2.12-3.154 2.121 8.564 2.156-7.259 2.05-16.326 2.052 3.796 2.12 12.64 2.12-4.286 2.121.182 2.12 10.362 2.156-3.012 2.12 15.221 2.121-3.786 2.12-6.261 2.121 25.16 2.156-7.807 2.05-8.7 2.052 9.864 2.12 4.478 2.12-.917 2.121 9.125 2.12-5.222 2.156 4.588 2.12 6.082 2.121-6.493 2.12 4.654 2.121 17.257 2.155-11.298 2.052-4.676 2.05-1.076 2.121 3.684 2.12.904 2.121 5.747 2.12-5.336 4.277-4.357 2.12-6.53 2.12 3.841 2.121 9.169 2.155-10.682 2.086-2.798 2.086 1.84 2.12-17.907 2.121 4.896 2.12 2.25 2.121 1.859 2.155 10.75 2.121-.792 2.12 1.134 2.121.281 2.12 9.922 2.156-4.862 2.051-4.287 2.051-3.519 2.12 4.303 2.121 1.38 2.12 1.52 2.121 6.423 4.276 3.554 2.12 2.746 2.121-.128 2.12 5.469 2.156-2.397 2.05-8.662 4.172 7.076 2.121-1.495 2.12 5.953 2.121-3.146 2.155-.547 2.121 5.532h0" clip-path="url(#p82761482a2)" style="fill:none;stroke:#2ca02c;stroke-width:1.5;stroke-linecap:square"/><path id="line2d_26" d="m40.922 321.827 1.634.274 2.12.646 2.121-.098 2.156-.343 2.05.128 2.052-.06 2.12-.971 2.12.356 2.121-.427 2.12-.669 2.156.274 2.12-.171 2.121-.308 2.12-1.32 2.121 1.525 2.156-.068 2.05-1.497 2.052-.763 2.12 1.37 2.12-1.575 2.121-1.043 2.12-1.902 2.156 2.602 2.12.502 2.121-.433 2.12-1.194 2.121.988 2.156-4.314 2.05.91 2.052-1.526 2.12.97 2.12-1.312 2.121 1.1 2.12-2.059 2.156.206 2.12 1.994 2.121-2.337 2.12-.21 2.121.073 2.156-1.3 2.085-.388 2.086-.64 2.12-.221 2.121-3.75 2.12 2.618 2.121-4.604 2.156-.685 2.12 3.732 2.12-2.705 2.121.016 2.12.943 2.156-3.287 2.051-3.912 2.051-.88 2.12-1.991 2.121 3.154 2.12-7.824 2.121 1.114 2.156-.069 2.12-1.682 2.12-11.464 2.121.71 2.12 11.067 2.156-11.504 2.051-6.71 2.051-1.232 2.12 3.142 2.121 8.498 2.12-4.394 2.121-3.275 2.156 8.285 2.12.014 2.12.466 2.121-2.589 2.12 4.3 2.156-1.506 2.051-8.904 2.051.276 2.12-6.902 2.121 8.272 2.12-10.89 2.121-1.23 2.156 9.38 2.12-1.216 2.12-2.001 2.121-.121 2.12.942 2.156.069 2.086-7.875 2.086-2.054 2.12-.493 2.12 4.465 2.121-1.776 2.12 7.801 2.156-1.027 2.12-1.467 2.121 1.262 2.12-.98 2.121 2.76 2.156-1.438 2.05-8.569 2.052-6.358 2.12 8.37 2.12-5.015 2.121-2.556 2.12 4.61 2.156 7.122 2.12-1.968 2.121-6.592 2.12-3.738 2.121 17.775 2.156-2.602 2.05-4.12 2.052 9.872 2.12 1.221 2.12.765 2.121 1.712 2.12 3.013 2.156-1.712 2.12 8.392 2.121-9.42 2.12-.061 2.121 12.113 2.155-7.874 2.052-6.346 2.05-3.035 2.121 5.142 2.12.062 2.121 2.485 2.12-4.06 2.156 5.067 2.12-4.332 2.121-8.404 2.12.267 2.121 8.36 2.155-2.875 2.086-9.445 2.086 3.008 2.12-11.926 2.121-1.495 2.12 1.778 2.121 1.577 2.155 9.176 2.121.922 2.12-3.524 2.121-1.641 2.12 14.514 2.156-3.218 2.051-10.457 2.051-3.101 2.12 4.243 2.121 5.549 2.12.324 2.121.703 2.155 4.519 2.121-.623 2.12-.883 2.121-1.24 2.12 4.39 2.156-1.507 2.05-3.96 2.052-1.518 2.12-.094 2.121 7.01 2.12 3.745 2.121-3.06 2.155-.822 2.121 5.722 2.12-6.338h0" clip-path="url(#p82761482a2)" style="fill:none;stroke:#ff7f0e;stroke-width:1.5;stroke-linecap:square"/><path id="line2d_27" d="m40.922 320.766 1.634-.514 2.12 1.221 2.121-.125 2.156-2.054 2.05.259 2.052-.26 2.12-2.065 2.12-.81 2.121-1.737 2.12-.454 2.156-.822 2.12-2.05 2.121 1.16 2.12-1.301 2.121-1.096 2.156-2.054 4.102-4.314 2.12-1.593 2.12.977 2.121-1.33 2.12-3.942 2.156-.617 2.12-1.385 2.121-4.093 2.12-3.832 2.121 1.025 2.156-7.669 2.05-9.574 2.052 1.22 2.12-4.672 2.12-6.763 2.121-3.921 2.12.36 2.156-5.203 2.12 2.508 2.121 6.667 2.12-10.488 2.121 1.244 2.156-1.849 2.085-23.488 2.086-3.08 2.12 1.206 2.121-4.355 2.12-3.57 2.121-2.73 2.156 7.19 2.12.635 2.12-14.672 2.121-2.38 2.12 13.404 2.156-23.28 2.051-14.727 2.051-12.32 2.12 3.667 2.121 5.645 2.12-1.47 2.121-10.581 2.156-5.89 2.12.268 2.12-16.632 2.121 2.41 2.12 10.12 2.156-28.827 2.051-30.236 2.051 1.34 2.12 3.522 2.121 37.152 2.12-10.83 2.121-12.588 2.156 19.24 2.12-1.77 2.12 3.414 2.121-3.485 2.12 22.315 2.156-21.774 2.051-17.28 2.051-15.93 2.12-4.973 2.121.796 2.12-7.73 2.121-16.304 2.156 26.773 2.12 6.583 2.12-10.006 2.121-4.994 2.12 17.798 2.156-14.927 2.086-34.706 2.086 8.755 2.12-9.68 2.12 23.99 2.121-9.91 2.12 11.006 2.156-8.354 2.12 22.608 2.121 9.78 2.12-21.455 2.121 30.151 2.156-27.389 2.05-20.324 2.052-10.01 2.12 23.327 2.12-8.81 2.121 2.654 2.12 4.672 2.156 12.942 2.12 14.722 2.121-.89 2.12-14.323 2.121 34.727 2.156-19.446 2.05 9.938 2.052 15.603 2.12-1.34 2.12-5.508 2.121 21.428 2.12-2.46 2.156-.549 2.12 18.646 2.121-21.453 2.12 11.335 2.121 23.997 2.155-6.3 2.052-22.468 2.05-7.249 4.242 18.488 2.12 5.277 2.12-15.342 2.156 10.339 2.12-.799 2.121-16.456 2.12-9.37 2.121 29.706 2.155-9.586 2.086-29.55 2.086-4.892 2.12-40.16 2.121 7.293 2.12 12.095 2.121-.592 2.155 19.241 2.121 7.884 2.12 12.658 2.121 1.705 2.12 18.426 2.156-28.895 2.051-7.589 2.051-4.463 2.12 7.45 2.121 2.48 2.12 3.676 2.121 19.125 2.155 7.395 2.121-3.949 2.12 8.673 2.121-3.225 2.12 15.824 2.156-14.379 2.05-18.517 2.052 6.466 2.12 12.517 2.121 4.122 2.12 13.213 2.121-8.625 2.155-3.835 2.121 7.72 2.12 6.112h0" clip-path="url(#p82761482a2)" style="fill:none;stroke:#1f77b4;stroke-width:1.5;stroke-linecap:square"/></g></g><defs><clipPath id="p82761482a2"><path d="M40.922 57.838h357.12V323.95H40.922z"/></clipPath></defs></svg>